%TF.GenerationSoftware,KiCad,Pcbnew,9.0.7*%
%TF.CreationDate,2026-07-18T16:38:44+05:30*%
%TF.ProjectId,Nursary_One_3in1,4e757273-6172-4795-9f4f-6e655f33696e,rev?*%
%TF.SameCoordinates,Original*%
%TF.FileFunction,Soldermask,Bot*%
%TF.FilePolarity,Negative*%
%FSLAX46Y46*%
G04 Gerber Fmt 4.6, Leading zero omitted, Abs format (unit mm)*
G04 Created by KiCad (PCBNEW 9.0.7) date 2026-07-18 16:38:44*
%MOMM*%
%LPD*%
G01*
G04 APERTURE LIST*
G04 Aperture macros list*
%AMRoundRect*
0 Rectangle with rounded corners*
0 $1 Rounding radius*
0 $2 $3 $4 $5 $6 $7 $8 $9 X,Y pos of 4 corners*
0 Add a 4 corners polygon primitive as box body*
4,1,4,$2,$3,$4,$5,$6,$7,$8,$9,$2,$3,0*
0 Add four circle primitives for the rounded corners*
1,1,$1+$1,$2,$3*
1,1,$1+$1,$4,$5*
1,1,$1+$1,$6,$7*
1,1,$1+$1,$8,$9*
0 Add four rect primitives between the rounded corners*
20,1,$1+$1,$2,$3,$4,$5,0*
20,1,$1+$1,$4,$5,$6,$7,0*
20,1,$1+$1,$6,$7,$8,$9,0*
20,1,$1+$1,$8,$9,$2,$3,0*%
G04 Aperture macros list end*
%ADD10RoundRect,0.250000X-0.750000X0.600000X-0.750000X-0.600000X0.750000X-0.600000X0.750000X0.600000X0*%
%ADD11O,2.000000X1.700000*%
%ADD12C,4.500000*%
%ADD13R,1.350000X1.350000*%
%ADD14C,1.350000*%
%ADD15O,2.000000X1.200000*%
%ADD16C,3.000000*%
%ADD17C,2.500000*%
%ADD18C,1.200000*%
%ADD19RoundRect,0.250000X-0.600000X-0.725000X0.600000X-0.725000X0.600000X0.725000X-0.600000X0.725000X0*%
%ADD20O,1.700000X1.950000*%
%ADD21R,3.000000X3.000000*%
%ADD22RoundRect,0.250000X-0.450000X0.262500X-0.450000X-0.262500X0.450000X-0.262500X0.450000X0.262500X0*%
%ADD23RoundRect,0.250000X-0.262500X-0.450000X0.262500X-0.450000X0.262500X0.450000X-0.262500X0.450000X0*%
%ADD24RoundRect,0.250000X0.262500X0.450000X-0.262500X0.450000X-0.262500X-0.450000X0.262500X-0.450000X0*%
%ADD25C,1.000000*%
%ADD26RoundRect,0.250000X-0.250000X-0.475000X0.250000X-0.475000X0.250000X0.475000X-0.250000X0.475000X0*%
%ADD27RoundRect,0.250000X-0.700000X0.275000X-0.700000X-0.275000X0.700000X-0.275000X0.700000X0.275000X0*%
%ADD28RoundRect,0.150000X-0.875000X-0.150000X0.875000X-0.150000X0.875000X0.150000X-0.875000X0.150000X0*%
%ADD29RoundRect,0.050000X-0.150000X-0.300000X0.150000X-0.300000X0.150000X0.300000X-0.150000X0.300000X0*%
%ADD30RoundRect,0.250000X-0.475000X0.250000X-0.475000X-0.250000X0.475000X-0.250000X0.475000X0.250000X0*%
%ADD31RoundRect,0.250000X0.475000X-0.250000X0.475000X0.250000X-0.475000X0.250000X-0.475000X-0.250000X0*%
%ADD32RoundRect,0.250000X0.450000X-0.262500X0.450000X0.262500X-0.450000X0.262500X-0.450000X-0.262500X0*%
%ADD33RoundRect,0.150000X-0.825000X-0.150000X0.825000X-0.150000X0.825000X0.150000X-0.825000X0.150000X0*%
%ADD34RoundRect,0.150000X-1.050000X-0.150000X1.050000X-0.150000X1.050000X0.150000X-1.050000X0.150000X0*%
G04 APERTURE END LIST*
D10*
%TO.C,J2*%
X111250000Y-56025000D03*
D11*
X111250000Y-58525000D03*
%TD*%
D12*
%TO.C,H1*%
X111700000Y-135800000D03*
%TD*%
D13*
%TO.C,J3*%
X133125000Y-63250000D03*
D14*
X133125000Y-65250000D03*
%TD*%
D12*
%TO.C,.*%
X111700000Y-47775000D03*
%TD*%
D15*
%TO.C,U5*%
X133550000Y-114660000D03*
X133550000Y-112100000D03*
X133525000Y-91825000D03*
X133525000Y-89265000D03*
X133475000Y-86725000D03*
X133475000Y-84165000D03*
X133500000Y-81650000D03*
X133500000Y-79090000D03*
X108500000Y-79090000D03*
X108500000Y-81650000D03*
X108475000Y-84165000D03*
X108475000Y-86725000D03*
X108525000Y-89265000D03*
X108525000Y-91825000D03*
X108550000Y-112100000D03*
X108550000Y-114660000D03*
%TD*%
D16*
%TO.C,K1*%
X134675000Y-51800000D03*
D17*
X132725000Y-45750000D03*
D16*
X120525000Y-45750000D03*
X120475000Y-57800000D03*
D17*
X132725000Y-57750000D03*
%TD*%
D10*
%TO.C,J3*%
X134400000Y-62925000D03*
D11*
X134400000Y-65425000D03*
%TD*%
D18*
%TO.C,C6*%
X127350000Y-64825000D03*
X127350000Y-66825000D03*
%TD*%
D19*
%TO.C,J1*%
X130175000Y-136225000D03*
D20*
X132675000Y-136225000D03*
X135175000Y-136225000D03*
%TD*%
D21*
%TO.C,BT1*%
X121400000Y-114950000D03*
D16*
X121400000Y-94150000D03*
%TD*%
D19*
%TO.C,J4*%
X118525000Y-136300000D03*
D20*
X121025000Y-136300000D03*
X123525000Y-136300000D03*
%TD*%
D22*
%TO.C,R15*%
X133125000Y-103612500D03*
X133125000Y-105437500D03*
%TD*%
D23*
%TO.C,R7*%
X119062500Y-128675000D03*
X120887500Y-128675000D03*
%TD*%
D24*
%TO.C,R4*%
X134387500Y-128775000D03*
X132562500Y-128775000D03*
%TD*%
D25*
%TO.C,Y1*%
X118545000Y-91320000D03*
X116005000Y-91320000D03*
%TD*%
D22*
%TO.C,R16*%
X130975000Y-103612500D03*
X130975000Y-105437500D03*
%TD*%
%TO.C,R1*%
X132500000Y-130887500D03*
X132500000Y-132712500D03*
%TD*%
D26*
%TO.C,C3*%
X111200000Y-84575000D03*
X113100000Y-84575000D03*
%TD*%
D22*
%TO.C,R9*%
X120875000Y-131037500D03*
X120875000Y-132862500D03*
%TD*%
%TO.C,R5*%
X120475000Y-64887500D03*
X120475000Y-66712500D03*
%TD*%
D27*
%TO.C,F2*%
X130325000Y-62750000D03*
X130325000Y-65900000D03*
%TD*%
D28*
%TO.C,U4*%
X118300000Y-110095000D03*
X118300000Y-108825000D03*
X118300000Y-107555000D03*
X118300000Y-106285000D03*
X118300000Y-105015000D03*
X118300000Y-103745000D03*
X118300000Y-102475000D03*
X118300000Y-101205000D03*
X127600000Y-101205000D03*
X127600000Y-102475000D03*
X127600000Y-103745000D03*
X127600000Y-105015000D03*
X127600000Y-106285000D03*
X127600000Y-107555000D03*
X127600000Y-108825000D03*
X127600000Y-110095000D03*
%TD*%
D29*
%TO.C,D2*%
X133900000Y-132725000D03*
X134600000Y-132725000D03*
%TD*%
D30*
%TO.C,C1*%
X126525000Y-134375000D03*
X126525000Y-136275000D03*
%TD*%
D31*
%TO.C,C5*%
X118650000Y-132975000D03*
X118650000Y-131075000D03*
%TD*%
D30*
%TO.C,C4*%
X125075000Y-64850000D03*
X125075000Y-66750000D03*
%TD*%
D32*
%TO.C,R3*%
X130275000Y-132662500D03*
X130275000Y-130837500D03*
%TD*%
D23*
%TO.C,R2*%
X111312500Y-89450000D03*
X113137500Y-89450000D03*
%TD*%
D33*
%TO.C,U3*%
X117250000Y-89362500D03*
X117250000Y-88092500D03*
X117250000Y-86822500D03*
X117250000Y-85552500D03*
X122200000Y-85552500D03*
X122200000Y-86822500D03*
X122200000Y-88092500D03*
X122200000Y-89362500D03*
%TD*%
D29*
%TO.C,D5*%
X122700000Y-132975000D03*
X123400000Y-132975000D03*
%TD*%
D23*
%TO.C,R6*%
X111237500Y-86750000D03*
X113062500Y-86750000D03*
%TD*%
D32*
%TO.C,R8*%
X116575000Y-132962500D03*
X116575000Y-131137500D03*
%TD*%
D27*
%TO.C,F1*%
X126425000Y-128700000D03*
X126425000Y-131850000D03*
%TD*%
D34*
%TO.C,U1*%
X108500000Y-73487500D03*
X108500000Y-72217500D03*
X108500000Y-70947500D03*
X108500000Y-69677500D03*
X108500000Y-68407500D03*
X108500000Y-67137500D03*
X108500000Y-65867500D03*
X108500000Y-64597500D03*
X115000000Y-64597500D03*
X115000000Y-65867500D03*
X115000000Y-67137500D03*
X115000000Y-68407500D03*
X115000000Y-69677500D03*
X115000000Y-70947500D03*
X115000000Y-72217500D03*
X115000000Y-73487500D03*
%TD*%
D26*
%TO.C,C2*%
X111325000Y-91775000D03*
X113225000Y-91775000D03*
%TD*%
D10*
%TO.C,J2*%
X143225000Y-56075000D03*
D11*
X143225000Y-58575000D03*
%TD*%
D12*
%TO.C,H1*%
X143675000Y-135850000D03*
%TD*%
D13*
%TO.C,J3*%
X165100000Y-63300000D03*
D14*
X165100000Y-65300000D03*
%TD*%
D12*
%TO.C,.*%
X143675000Y-47825000D03*
%TD*%
D15*
%TO.C,U5*%
X165525000Y-114710000D03*
X165525000Y-112150000D03*
X165500000Y-91875000D03*
X165500000Y-89315000D03*
X165450000Y-86775000D03*
X165450000Y-84215000D03*
X165475000Y-81700000D03*
X165475000Y-79140000D03*
X140475000Y-79140000D03*
X140475000Y-81700000D03*
X140450000Y-84215000D03*
X140450000Y-86775000D03*
X140500000Y-89315000D03*
X140500000Y-91875000D03*
X140525000Y-112150000D03*
X140525000Y-114710000D03*
%TD*%
D16*
%TO.C,K1*%
X166650000Y-51850000D03*
D17*
X164700000Y-45800000D03*
D16*
X152500000Y-45800000D03*
X152450000Y-57850000D03*
D17*
X164700000Y-57800000D03*
%TD*%
D10*
%TO.C,J3*%
X166375000Y-62975000D03*
D11*
X166375000Y-65475000D03*
%TD*%
D18*
%TO.C,C6*%
X159325000Y-64875000D03*
X159325000Y-66875000D03*
%TD*%
D19*
%TO.C,J1*%
X162150000Y-136275000D03*
D20*
X164650000Y-136275000D03*
X167150000Y-136275000D03*
%TD*%
D21*
%TO.C,BT1*%
X153375000Y-115000000D03*
D16*
X153375000Y-94200000D03*
%TD*%
D19*
%TO.C,J4*%
X150500000Y-136350000D03*
D20*
X153000000Y-136350000D03*
X155500000Y-136350000D03*
%TD*%
D22*
%TO.C,R15*%
X165100000Y-103662500D03*
X165100000Y-105487500D03*
%TD*%
D23*
%TO.C,R7*%
X151037500Y-128725000D03*
X152862500Y-128725000D03*
%TD*%
D24*
%TO.C,R4*%
X166362500Y-128825000D03*
X164537500Y-128825000D03*
%TD*%
D25*
%TO.C,Y1*%
X150520000Y-91370000D03*
X147980000Y-91370000D03*
%TD*%
D22*
%TO.C,R16*%
X162950000Y-103662500D03*
X162950000Y-105487500D03*
%TD*%
%TO.C,R1*%
X164475000Y-130937500D03*
X164475000Y-132762500D03*
%TD*%
D26*
%TO.C,C3*%
X143175000Y-84625000D03*
X145075000Y-84625000D03*
%TD*%
D22*
%TO.C,R9*%
X152850000Y-131087500D03*
X152850000Y-132912500D03*
%TD*%
%TO.C,R5*%
X152450000Y-64937500D03*
X152450000Y-66762500D03*
%TD*%
D27*
%TO.C,F2*%
X162300000Y-62800000D03*
X162300000Y-65950000D03*
%TD*%
D28*
%TO.C,U4*%
X150275000Y-110145000D03*
X150275000Y-108875000D03*
X150275000Y-107605000D03*
X150275000Y-106335000D03*
X150275000Y-105065000D03*
X150275000Y-103795000D03*
X150275000Y-102525000D03*
X150275000Y-101255000D03*
X159575000Y-101255000D03*
X159575000Y-102525000D03*
X159575000Y-103795000D03*
X159575000Y-105065000D03*
X159575000Y-106335000D03*
X159575000Y-107605000D03*
X159575000Y-108875000D03*
X159575000Y-110145000D03*
%TD*%
D29*
%TO.C,D2*%
X165875000Y-132775000D03*
X166575000Y-132775000D03*
%TD*%
D30*
%TO.C,C1*%
X158500000Y-134425000D03*
X158500000Y-136325000D03*
%TD*%
D31*
%TO.C,C5*%
X150625000Y-133025000D03*
X150625000Y-131125000D03*
%TD*%
D30*
%TO.C,C4*%
X157050000Y-64900000D03*
X157050000Y-66800000D03*
%TD*%
D32*
%TO.C,R3*%
X162250000Y-132712500D03*
X162250000Y-130887500D03*
%TD*%
D23*
%TO.C,R2*%
X143287500Y-89500000D03*
X145112500Y-89500000D03*
%TD*%
D33*
%TO.C,U3*%
X149225000Y-89412500D03*
X149225000Y-88142500D03*
X149225000Y-86872500D03*
X149225000Y-85602500D03*
X154175000Y-85602500D03*
X154175000Y-86872500D03*
X154175000Y-88142500D03*
X154175000Y-89412500D03*
%TD*%
D29*
%TO.C,D5*%
X154675000Y-133025000D03*
X155375000Y-133025000D03*
%TD*%
D23*
%TO.C,R6*%
X143212500Y-86800000D03*
X145037500Y-86800000D03*
%TD*%
D32*
%TO.C,R8*%
X148550000Y-133012500D03*
X148550000Y-131187500D03*
%TD*%
D27*
%TO.C,F1*%
X158400000Y-128750000D03*
X158400000Y-131900000D03*
%TD*%
D34*
%TO.C,U1*%
X140475000Y-73537500D03*
X140475000Y-72267500D03*
X140475000Y-70997500D03*
X140475000Y-69727500D03*
X140475000Y-68457500D03*
X140475000Y-67187500D03*
X140475000Y-65917500D03*
X140475000Y-64647500D03*
X146975000Y-64647500D03*
X146975000Y-65917500D03*
X146975000Y-67187500D03*
X146975000Y-68457500D03*
X146975000Y-69727500D03*
X146975000Y-70997500D03*
X146975000Y-72267500D03*
X146975000Y-73537500D03*
%TD*%
D26*
%TO.C,C2*%
X143300000Y-91825000D03*
X145200000Y-91825000D03*
%TD*%
D10*
%TO.C,J2*%
X175475000Y-56100000D03*
D11*
X175475000Y-58600000D03*
%TD*%
D12*
%TO.C,H1*%
X175925000Y-135875000D03*
%TD*%
D13*
%TO.C,J3*%
X197350000Y-63325000D03*
D14*
X197350000Y-65325000D03*
%TD*%
D12*
%TO.C,.*%
X175925000Y-47850000D03*
%TD*%
D15*
%TO.C,U5*%
X197775000Y-114735000D03*
X197775000Y-112175000D03*
X197750000Y-91900000D03*
X197750000Y-89340000D03*
X197700000Y-86800000D03*
X197700000Y-84240000D03*
X197725000Y-81725000D03*
X197725000Y-79165000D03*
X172725000Y-79165000D03*
X172725000Y-81725000D03*
X172700000Y-84240000D03*
X172700000Y-86800000D03*
X172750000Y-89340000D03*
X172750000Y-91900000D03*
X172775000Y-112175000D03*
X172775000Y-114735000D03*
%TD*%
D16*
%TO.C,K1*%
X198900000Y-51875000D03*
D17*
X196950000Y-45825000D03*
D16*
X184750000Y-45825000D03*
X184700000Y-57875000D03*
D17*
X196950000Y-57825000D03*
%TD*%
D10*
%TO.C,J3*%
X198625000Y-63000000D03*
D11*
X198625000Y-65500000D03*
%TD*%
D18*
%TO.C,C6*%
X191575000Y-64900000D03*
X191575000Y-66900000D03*
%TD*%
D19*
%TO.C,J1*%
X194400000Y-136300000D03*
D20*
X196900000Y-136300000D03*
X199400000Y-136300000D03*
%TD*%
D21*
%TO.C,BT1*%
X185625000Y-115025000D03*
D16*
X185625000Y-94225000D03*
%TD*%
D19*
%TO.C,J4*%
X182750000Y-136375000D03*
D20*
X185250000Y-136375000D03*
X187750000Y-136375000D03*
%TD*%
D22*
%TO.C,R15*%
X197350000Y-103687500D03*
X197350000Y-105512500D03*
%TD*%
D23*
%TO.C,R7*%
X183287500Y-128750000D03*
X185112500Y-128750000D03*
%TD*%
D24*
%TO.C,R4*%
X198612500Y-128850000D03*
X196787500Y-128850000D03*
%TD*%
D25*
%TO.C,Y1*%
X182770000Y-91395000D03*
X180230000Y-91395000D03*
%TD*%
D22*
%TO.C,R16*%
X195200000Y-103687500D03*
X195200000Y-105512500D03*
%TD*%
%TO.C,R1*%
X196725000Y-130962500D03*
X196725000Y-132787500D03*
%TD*%
D26*
%TO.C,C3*%
X175425000Y-84650000D03*
X177325000Y-84650000D03*
%TD*%
D22*
%TO.C,R9*%
X185100000Y-131112500D03*
X185100000Y-132937500D03*
%TD*%
%TO.C,R5*%
X184700000Y-64962500D03*
X184700000Y-66787500D03*
%TD*%
D27*
%TO.C,F2*%
X194550000Y-62825000D03*
X194550000Y-65975000D03*
%TD*%
D28*
%TO.C,U4*%
X182525000Y-110170000D03*
X182525000Y-108900000D03*
X182525000Y-107630000D03*
X182525000Y-106360000D03*
X182525000Y-105090000D03*
X182525000Y-103820000D03*
X182525000Y-102550000D03*
X182525000Y-101280000D03*
X191825000Y-101280000D03*
X191825000Y-102550000D03*
X191825000Y-103820000D03*
X191825000Y-105090000D03*
X191825000Y-106360000D03*
X191825000Y-107630000D03*
X191825000Y-108900000D03*
X191825000Y-110170000D03*
%TD*%
D29*
%TO.C,D2*%
X198125000Y-132800000D03*
X198825000Y-132800000D03*
%TD*%
D30*
%TO.C,C1*%
X190750000Y-134450000D03*
X190750000Y-136350000D03*
%TD*%
D31*
%TO.C,C5*%
X182875000Y-133050000D03*
X182875000Y-131150000D03*
%TD*%
D30*
%TO.C,C4*%
X189300000Y-64925000D03*
X189300000Y-66825000D03*
%TD*%
D32*
%TO.C,R3*%
X194500000Y-132737500D03*
X194500000Y-130912500D03*
%TD*%
D23*
%TO.C,R2*%
X175537500Y-89525000D03*
X177362500Y-89525000D03*
%TD*%
D33*
%TO.C,U3*%
X181475000Y-89437500D03*
X181475000Y-88167500D03*
X181475000Y-86897500D03*
X181475000Y-85627500D03*
X186425000Y-85627500D03*
X186425000Y-86897500D03*
X186425000Y-88167500D03*
X186425000Y-89437500D03*
%TD*%
D29*
%TO.C,D5*%
X186925000Y-133050000D03*
X187625000Y-133050000D03*
%TD*%
D23*
%TO.C,R6*%
X175462500Y-86825000D03*
X177287500Y-86825000D03*
%TD*%
D32*
%TO.C,R8*%
X180800000Y-133037500D03*
X180800000Y-131212500D03*
%TD*%
D27*
%TO.C,F1*%
X190650000Y-128775000D03*
X190650000Y-131925000D03*
%TD*%
D34*
%TO.C,U1*%
X172725000Y-73562500D03*
X172725000Y-72292500D03*
X172725000Y-71022500D03*
X172725000Y-69752500D03*
X172725000Y-68482500D03*
X172725000Y-67212500D03*
X172725000Y-65942500D03*
X172725000Y-64672500D03*
X179225000Y-64672500D03*
X179225000Y-65942500D03*
X179225000Y-67212500D03*
X179225000Y-68482500D03*
X179225000Y-69752500D03*
X179225000Y-71022500D03*
X179225000Y-72292500D03*
X179225000Y-73562500D03*
%TD*%
D26*
%TO.C,C2*%
X175550000Y-91850000D03*
X177450000Y-91850000D03*
%TD*%
M02*
