%TF.GenerationSoftware,KiCad,Pcbnew,9.0.7*%
%TF.CreationDate,2026-07-18T16:38:44+05:30*%
%TF.ProjectId,Nursary_One_3in1,4e757273-6172-4795-9f4f-6e655f33696e,rev?*%
%TF.SameCoordinates,Original*%
%TF.FileFunction,Profile,NP*%
%FSLAX46Y46*%
G04 Gerber Fmt 4.6, Leading zero omitted, Abs format (unit mm)*
G04 Created by KiCad (PCBNEW 9.0.7) date 2026-07-18 16:38:44*
%MOMM*%
%LPD*%
G01*
G04 APERTURE LIST*
%TA.AperFunction,Profile*%
%ADD10C,0.100000*%
%TD*%
%TA.AperFunction,Profile*%
%ADD11C,0.050000*%
%TD*%
%ADD12C,0.150000*%
G04 APERTURE END LIST*
D10*
X106575000Y-43900000D02*
X200625000Y-43900000D01*
X200625000Y-139975000D01*
X106575000Y-139975000D01*
X106575000Y-43900000D01*
X136400000Y-44400000D02*
X138550000Y-44400000D01*
X138550000Y-139225000D01*
X136400000Y-139225000D01*
X136400000Y-44400000D01*
D11*
X136400000Y-44400000D02*
X138425000Y-44400000D01*
X136400000Y-44400000D01*
D12*
X92854819Y-94170832D02*
X92854819Y-93980356D01*
X92854819Y-93980356D02*
X92807200Y-93885118D01*
X92807200Y-93885118D02*
X92759580Y-93837499D01*
X92759580Y-93837499D02*
X92616723Y-93742261D01*
X92616723Y-93742261D02*
X92426247Y-93694642D01*
X92426247Y-93694642D02*
X92045295Y-93694642D01*
X92045295Y-93694642D02*
X91950057Y-93742261D01*
X91950057Y-93742261D02*
X91902438Y-93789880D01*
X91902438Y-93789880D02*
X91854819Y-93885118D01*
X91854819Y-93885118D02*
X91854819Y-94075594D01*
X91854819Y-94075594D02*
X91902438Y-94170832D01*
X91902438Y-94170832D02*
X91950057Y-94218451D01*
X91950057Y-94218451D02*
X92045295Y-94266070D01*
X92045295Y-94266070D02*
X92283390Y-94266070D01*
X92283390Y-94266070D02*
X92378628Y-94218451D01*
X92378628Y-94218451D02*
X92426247Y-94170832D01*
X92426247Y-94170832D02*
X92473866Y-94075594D01*
X92473866Y-94075594D02*
X92473866Y-93885118D01*
X92473866Y-93885118D02*
X92426247Y-93789880D01*
X92426247Y-93789880D02*
X92378628Y-93742261D01*
X92378628Y-93742261D02*
X92283390Y-93694642D01*
X92854819Y-93218451D02*
X92854819Y-93027975D01*
X92854819Y-93027975D02*
X92807200Y-92932737D01*
X92807200Y-92932737D02*
X92759580Y-92885118D01*
X92759580Y-92885118D02*
X92616723Y-92789880D01*
X92616723Y-92789880D02*
X92426247Y-92742261D01*
X92426247Y-92742261D02*
X92045295Y-92742261D01*
X92045295Y-92742261D02*
X91950057Y-92789880D01*
X91950057Y-92789880D02*
X91902438Y-92837499D01*
X91902438Y-92837499D02*
X91854819Y-92932737D01*
X91854819Y-92932737D02*
X91854819Y-93123213D01*
X91854819Y-93123213D02*
X91902438Y-93218451D01*
X91902438Y-93218451D02*
X91950057Y-93266070D01*
X91950057Y-93266070D02*
X92045295Y-93313689D01*
X92045295Y-93313689D02*
X92283390Y-93313689D01*
X92283390Y-93313689D02*
X92378628Y-93266070D01*
X92378628Y-93266070D02*
X92426247Y-93218451D01*
X92426247Y-93218451D02*
X92473866Y-93123213D01*
X92473866Y-93123213D02*
X92473866Y-92932737D01*
X92473866Y-92932737D02*
X92426247Y-92837499D01*
X92426247Y-92837499D02*
X92378628Y-92789880D01*
X92378628Y-92789880D02*
X92283390Y-92742261D01*
X92759580Y-92313689D02*
X92807200Y-92266070D01*
X92807200Y-92266070D02*
X92854819Y-92313689D01*
X92854819Y-92313689D02*
X92807200Y-92361308D01*
X92807200Y-92361308D02*
X92759580Y-92313689D01*
X92759580Y-92313689D02*
X92854819Y-92313689D01*
X91950057Y-91885118D02*
X91902438Y-91837499D01*
X91902438Y-91837499D02*
X91854819Y-91742261D01*
X91854819Y-91742261D02*
X91854819Y-91504166D01*
X91854819Y-91504166D02*
X91902438Y-91408928D01*
X91902438Y-91408928D02*
X91950057Y-91361309D01*
X91950057Y-91361309D02*
X92045295Y-91313690D01*
X92045295Y-91313690D02*
X92140533Y-91313690D01*
X92140533Y-91313690D02*
X92283390Y-91361309D01*
X92283390Y-91361309D02*
X92854819Y-91932737D01*
X92854819Y-91932737D02*
X92854819Y-91313690D01*
X91950057Y-90932737D02*
X91902438Y-90885118D01*
X91902438Y-90885118D02*
X91854819Y-90789880D01*
X91854819Y-90789880D02*
X91854819Y-90551785D01*
X91854819Y-90551785D02*
X91902438Y-90456547D01*
X91902438Y-90456547D02*
X91950057Y-90408928D01*
X91950057Y-90408928D02*
X92045295Y-90361309D01*
X92045295Y-90361309D02*
X92140533Y-90361309D01*
X92140533Y-90361309D02*
X92283390Y-90408928D01*
X92283390Y-90408928D02*
X92854819Y-90980356D01*
X92854819Y-90980356D02*
X92854819Y-90361309D01*
X91854819Y-89456547D02*
X91854819Y-89932737D01*
X91854819Y-89932737D02*
X92331009Y-89980356D01*
X92331009Y-89980356D02*
X92283390Y-89932737D01*
X92283390Y-89932737D02*
X92235771Y-89837499D01*
X92235771Y-89837499D02*
X92235771Y-89599404D01*
X92235771Y-89599404D02*
X92283390Y-89504166D01*
X92283390Y-89504166D02*
X92331009Y-89456547D01*
X92331009Y-89456547D02*
X92426247Y-89408928D01*
X92426247Y-89408928D02*
X92664342Y-89408928D01*
X92664342Y-89408928D02*
X92759580Y-89456547D01*
X92759580Y-89456547D02*
X92807200Y-89504166D01*
X92807200Y-89504166D02*
X92854819Y-89599404D01*
X92854819Y-89599404D02*
X92854819Y-89837499D01*
X92854819Y-89837499D02*
X92807200Y-89932737D01*
X92807200Y-89932737D02*
X92759580Y-89980356D01*
D11*
X106125000Y-42225000D02*
X92963580Y-42225000D01*
X92963580Y-141450000D02*
X106125000Y-141450000D01*
X93550000Y-42225000D02*
X93550000Y-141450000D01*
X93550000Y-42225000D02*
X94136421Y-43351504D01*
X93550000Y-42225000D02*
X92963579Y-43351504D01*
X93550000Y-141450000D02*
X92963579Y-140323496D01*
X93550000Y-141450000D02*
X94136421Y-140323496D01*
X107937500Y-60250000D02*
X124175000Y-60250000D01*
X124175000Y-61250000D01*
X107937500Y-61250000D01*
X107937500Y-60250000D01*
D10*
X168375000Y-44450000D02*
X170500000Y-44450000D01*
X170500000Y-139225000D01*
X168375000Y-139225000D01*
X168375000Y-44450000D01*
D11*
X168375000Y-44450000D02*
X170400000Y-44450000D01*
X168375000Y-44450000D01*
X139912500Y-60300000D02*
X156150000Y-60300000D01*
X156150000Y-61300000D01*
X139912500Y-61300000D01*
X139912500Y-60300000D01*
X172162500Y-60325000D02*
X188400000Y-60325000D01*
X188400000Y-61325000D01*
X172162500Y-61325000D01*
X172162500Y-60325000D01*
M02*
