M48
; DRILL file {KiCad 9.0.7} date 2026-07-18T16:38:52+0530
; FORMAT={-:-/ absolute / metric / decimal}
; #@! TF.CreationDate,2026-07-18T16:38:52+05:30
; #@! TF.GenerationSoftware,Kicad,Pcbnew,9.0.7
; #@! TF.FileFunction,Plated,1,2,PTH
FMAT,2
METRIC
; #@! TA.AperFunction,Plated,PTH,ViaDrill
T1C0.300
; #@! TA.AperFunction,Plated,PTH,ComponentDrill
T2C0.500
; #@! TA.AperFunction,Plated,PTH,ComponentDrill
T3C0.600
; #@! TA.AperFunction,Plated,PTH,ComponentDrill
T4C0.800
; #@! TA.AperFunction,Plated,PTH,ComponentDrill
T5C0.950
; #@! TA.AperFunction,Plated,PTH,ComponentDrill
T6C1.000
; #@! TA.AperFunction,Plated,PTH,ComponentDrill
T7C1.300
; #@! TA.AperFunction,Plated,PTH,ComponentDrill
T8C1.500
%
G90
G05
T1
X108.125Y-97.8
X108.125Y-98.775
X108.325Y-124.375
X108.325Y-125.35
X108.575Y-63.15
X109.325Y-97.8
X109.35Y-98.775
X109.525Y-124.375
X109.55Y-125.35
X110.325Y-63.15
X110.475Y-97.75
X110.5Y-98.775
X110.675Y-124.325
X110.7Y-125.35
X111.775Y-63.125
X111.8Y-64.375
X111.8Y-65.625
X112.65Y-92.875
X112.725Y-124.325
X112.725Y-125.3
X112.8Y-93.725
X113.925Y-124.325
X113.95Y-125.3
X115.075Y-124.275
X115.1Y-125.3
X115.225Y-120.35
X115.275Y-115.6
X116.575Y-130.025
X116.575Y-130.025
X116.575Y-130.025
X116.7Y-82.45
X116.7Y-83.425
X117.475Y-128.525
X117.9Y-82.45
X117.925Y-83.425
X118.375Y-69.275
X119.1Y-126.75
X119.475Y-81.975
X120.45Y-68.3
X120.7Y-121.975
X120.7Y-122.95
X120.975Y-69.925
X120.975Y-70.9
X121.9Y-121.975
X121.925Y-122.95
X122.175Y-69.925
X122.2Y-70.9
X122.25Y-131.175
X122.75Y-128.35
X122.75Y-129.325
X123.05Y-121.925
X123.075Y-122.95
X123.225Y-107.425
X123.95Y-128.35
X123.975Y-129.325
X124.8Y-81.2
X124.8Y-82.175
X125.525Y-107.425
X126.0Y-81.2
X126.025Y-82.175
X126.025Y-138.125
X126.2Y-113.175
X126.2Y-114.15
X127.225Y-138.125
X127.4Y-113.175
X127.425Y-114.15
X127.95Y-120.4
X127.95Y-121.375
X128.375Y-69.875
X128.375Y-70.85
X128.375Y-138.075
X128.425Y-87.325
X128.475Y-83.025
X128.55Y-113.125
X128.575Y-114.15
X128.725Y-128.3
X128.725Y-129.275
X129.15Y-120.4
X129.175Y-121.375
X129.575Y-69.875
X129.6Y-70.85
X130.3Y-120.35
X130.3Y-129.775
X130.325Y-121.375
X131.2Y-97.75
X131.2Y-98.725
X131.475Y-131.025
X132.4Y-97.75
X132.425Y-98.725
X133.55Y-97.7
X133.575Y-98.725
X134.45Y-126.75
X140.1Y-97.85
X140.1Y-98.825
X140.3Y-124.425
X140.3Y-125.4
X140.55Y-63.2
X141.3Y-97.85
X141.325Y-98.825
X141.5Y-124.425
X141.525Y-125.4
X142.3Y-63.2
X142.45Y-97.8
X142.475Y-98.825
X142.65Y-124.375
X142.675Y-125.4
X143.75Y-63.175
X143.775Y-64.425
X143.775Y-65.675
X144.625Y-92.925
X144.7Y-124.375
X144.7Y-125.35
X144.775Y-93.775
X145.9Y-124.375
X145.925Y-125.35
X147.05Y-124.325
X147.075Y-125.35
X147.2Y-120.4
X147.25Y-115.65
X148.55Y-130.075
X148.55Y-130.075
X148.55Y-130.075
X148.675Y-82.5
X148.675Y-83.475
X149.45Y-128.575
X149.875Y-82.5
X149.9Y-83.475
X150.35Y-69.325
X151.075Y-126.8
X151.45Y-82.025
X152.425Y-68.35
X152.675Y-122.025
X152.675Y-123.0
X152.95Y-69.975
X152.95Y-70.95
X153.875Y-122.025
X153.9Y-123.0
X154.15Y-69.975
X154.175Y-70.95
X154.225Y-131.225
X154.725Y-128.4
X154.725Y-129.375
X155.025Y-121.975
X155.05Y-123.0
X155.2Y-107.475
X155.925Y-128.4
X155.95Y-129.375
X156.775Y-81.25
X156.775Y-82.225
X157.5Y-107.475
X157.975Y-81.25
X158.0Y-82.225
X158.0Y-138.175
X158.175Y-113.225
X158.175Y-114.2
X159.2Y-138.175
X159.375Y-113.225
X159.4Y-114.2
X159.925Y-120.45
X159.925Y-121.425
X160.35Y-69.925
X160.35Y-70.9
X160.35Y-138.125
X160.4Y-87.375
X160.45Y-83.075
X160.525Y-113.175
X160.55Y-114.2
X160.7Y-128.35
X160.7Y-129.325
X161.125Y-120.45
X161.15Y-121.425
X161.55Y-69.925
X161.575Y-70.9
X162.275Y-120.4
X162.275Y-129.825
X162.3Y-121.425
X163.175Y-97.8
X163.175Y-98.775
X163.45Y-131.075
X164.375Y-97.8
X164.4Y-98.775
X165.525Y-97.75
X165.55Y-98.775
X166.425Y-126.8
X172.35Y-97.875
X172.35Y-98.85
X172.55Y-124.45
X172.55Y-125.425
X172.8Y-63.225
X173.55Y-97.875
X173.575Y-98.85
X173.75Y-124.45
X173.775Y-125.425
X174.55Y-63.225
X174.7Y-97.825
X174.725Y-98.85
X174.9Y-124.4
X174.925Y-125.425
X176.0Y-63.2
X176.025Y-64.45
X176.025Y-65.7
X176.875Y-92.95
X176.95Y-124.4
X176.95Y-125.375
X177.025Y-93.8
X178.15Y-124.4
X178.175Y-125.375
X179.3Y-124.35
X179.325Y-125.375
X179.45Y-120.425
X179.5Y-115.675
X180.8Y-130.1
X180.8Y-130.1
X180.8Y-130.1
X180.925Y-82.525
X180.925Y-83.5
X181.7Y-128.6
X182.125Y-82.525
X182.15Y-83.5
X182.6Y-69.35
X183.325Y-126.825
X183.7Y-82.05
X184.675Y-68.375
X184.925Y-122.05
X184.925Y-123.025
X185.2Y-70.0
X185.2Y-70.975
X186.125Y-122.05
X186.15Y-123.025
X186.4Y-70.0
X186.425Y-70.975
X186.475Y-131.25
X186.975Y-128.425
X186.975Y-129.4
X187.275Y-122.0
X187.3Y-123.025
X187.45Y-107.5
X188.175Y-128.425
X188.2Y-129.4
X189.025Y-81.275
X189.025Y-82.25
X189.75Y-107.5
X190.225Y-81.275
X190.25Y-82.25
X190.25Y-138.2
X190.425Y-113.25
X190.425Y-114.225
X191.45Y-138.2
X191.625Y-113.25
X191.65Y-114.225
X192.175Y-120.475
X192.175Y-121.45
X192.6Y-69.95
X192.6Y-70.925
X192.6Y-138.15
X192.65Y-87.4
X192.7Y-83.1
X192.775Y-113.2
X192.8Y-114.225
X192.95Y-128.375
X192.95Y-129.35
X193.375Y-120.475
X193.4Y-121.45
X193.8Y-69.95
X193.825Y-70.925
X194.525Y-120.425
X194.525Y-129.85
X194.55Y-121.45
X195.425Y-97.825
X195.425Y-98.8
X195.7Y-131.1
X196.625Y-97.825
X196.65Y-98.8
X197.775Y-97.775
X197.8Y-98.8
X198.675Y-126.825
T2
X116.005Y-91.32
X118.545Y-91.32
X147.98Y-91.37
X150.52Y-91.37
X180.23Y-91.395
X182.77Y-91.395
T3
X127.35Y-64.825
X127.35Y-66.825
X159.325Y-64.875
X159.325Y-66.875
X191.575Y-64.9
X191.575Y-66.9
T4
X108.475Y-84.165
X108.475Y-86.725
X108.5Y-79.09
X108.5Y-81.65
X108.525Y-89.265
X108.525Y-91.825
X108.55Y-112.1
X108.55Y-114.66
X133.125Y-63.25
X133.125Y-65.25
X133.475Y-84.165
X133.475Y-86.725
X133.5Y-79.09
X133.5Y-81.65
X133.525Y-89.265
X133.525Y-91.825
X133.55Y-112.1
X133.55Y-114.66
X140.45Y-84.215
X140.45Y-86.775
X140.475Y-79.14
X140.475Y-81.7
X140.5Y-89.315
X140.5Y-91.875
X140.525Y-112.15
X140.525Y-114.71
X165.1Y-63.3
X165.1Y-65.3
X165.45Y-84.215
X165.45Y-86.775
X165.475Y-79.14
X165.475Y-81.7
X165.5Y-89.315
X165.5Y-91.875
X165.525Y-112.15
X165.525Y-114.71
X172.7Y-84.24
X172.7Y-86.8
X172.725Y-79.165
X172.725Y-81.725
X172.75Y-89.34
X172.75Y-91.9
X172.775Y-112.175
X172.775Y-114.735
X197.35Y-63.325
X197.35Y-65.325
X197.7Y-84.24
X197.7Y-86.8
X197.725Y-79.165
X197.725Y-81.725
X197.75Y-89.34
X197.75Y-91.9
X197.775Y-112.175
X197.775Y-114.735
T5
X118.525Y-136.3
X121.025Y-136.3
X123.525Y-136.3
X130.175Y-136.225
X132.675Y-136.225
X135.175Y-136.225
X150.5Y-136.35
X153.0Y-136.35
X155.5Y-136.35
X162.15Y-136.275
X164.65Y-136.275
X167.15Y-136.275
X182.75Y-136.375
X185.25Y-136.375
X187.75Y-136.375
X194.4Y-136.3
X196.9Y-136.3
X199.4Y-136.3
T6
X111.25Y-56.025
X111.25Y-58.525
X132.725Y-45.75
X132.725Y-57.75
X134.4Y-62.925
X134.4Y-65.425
X143.225Y-56.075
X143.225Y-58.575
X164.7Y-45.8
X164.7Y-57.8
X166.375Y-62.975
X166.375Y-65.475
X175.475Y-56.1
X175.475Y-58.6
X196.95Y-45.825
X196.95Y-57.825
X198.625Y-63.0
X198.625Y-65.5
T7
X120.475Y-57.8
X120.525Y-45.75
X134.675Y-51.8
X152.45Y-57.85
X152.5Y-45.8
X166.65Y-51.85
X184.7Y-57.875
X184.75Y-45.825
X198.9Y-51.875
T8
X121.4Y-94.15
X121.4Y-114.95
X153.375Y-94.2
X153.375Y-115.0
X185.625Y-94.225
X185.625Y-115.025
M30
