%TF.GenerationSoftware,KiCad,Pcbnew,9.0.7*%
%TF.CreationDate,2026-07-31T16:49:00+05:30*%
%TF.ProjectId,WPC,5750432e-6b69-4636-9164-5f7063625858,rev?*%
%TF.SameCoordinates,Original*%
%TF.FileFunction,Soldermask,Bot*%
%TF.FilePolarity,Negative*%
%FSLAX46Y46*%
G04 Gerber Fmt 4.6, Leading zero omitted, Abs format (unit mm)*
G04 Created by KiCad (PCBNEW 9.0.7) date 2026-07-31 16:49:00*
%MOMM*%
%LPD*%
G01*
G04 APERTURE LIST*
G04 Aperture macros list*
%AMRoundRect*
0 Rectangle with rounded corners*
0 $1 Rounding radius*
0 $2 $3 $4 $5 $6 $7 $8 $9 X,Y pos of 4 corners*
0 Add a 4 corners polygon primitive as box body*
4,1,4,$2,$3,$4,$5,$6,$7,$8,$9,$2,$3,0*
0 Add four circle primitives for the rounded corners*
1,1,$1+$1,$2,$3*
1,1,$1+$1,$4,$5*
1,1,$1+$1,$6,$7*
1,1,$1+$1,$8,$9*
0 Add four rect primitives between the rounded corners*
20,1,$1+$1,$2,$3,$4,$5,0*
20,1,$1+$1,$4,$5,$6,$7,0*
20,1,$1+$1,$6,$7,$8,$9,0*
20,1,$1+$1,$8,$9,$2,$3,0*%
G04 Aperture macros list end*
%ADD10RoundRect,0.249999X-0.790001X-1.550001X0.790001X-1.550001X0.790001X1.550001X-0.790001X1.550001X0*%
%ADD11O,2.080000X3.600000*%
%ADD12C,3.200000*%
%ADD13C,4.500000*%
%ADD14C,0.800000*%
%ADD15O,2.000000X1.200000*%
%ADD16RoundRect,0.250000X0.550000X0.550000X-0.550000X0.550000X-0.550000X-0.550000X0.550000X-0.550000X0*%
%ADD17C,1.600000*%
%ADD18RoundRect,0.250000X0.262500X0.450000X-0.262500X0.450000X-0.262500X-0.450000X0.262500X-0.450000X0*%
%ADD19RoundRect,0.250000X-0.450000X0.262500X-0.450000X-0.262500X0.450000X-0.262500X0.450000X0.262500X0*%
%ADD20RoundRect,0.250000X0.450000X-0.262500X0.450000X0.262500X-0.450000X0.262500X-0.450000X-0.262500X0*%
%ADD21RoundRect,0.250000X-0.250000X-0.475000X0.250000X-0.475000X0.250000X0.475000X-0.250000X0.475000X0*%
%ADD22RoundRect,0.050000X-0.150000X-0.300000X0.150000X-0.300000X0.150000X0.300000X-0.150000X0.300000X0*%
%ADD23RoundRect,0.250000X-0.385000X-1.350000X0.385000X-1.350000X0.385000X1.350000X-0.385000X1.350000X0*%
%ADD24RoundRect,0.250000X-0.425000X-1.600000X0.425000X-1.600000X0.425000X1.600000X-0.425000X1.600000X0*%
%ADD25RoundRect,0.150000X0.150000X-0.512500X0.150000X0.512500X-0.150000X0.512500X-0.150000X-0.512500X0*%
%ADD26RoundRect,0.250000X0.475000X-0.250000X0.475000X0.250000X-0.475000X0.250000X-0.475000X-0.250000X0*%
%ADD27R,1.500000X2.000000*%
%ADD28RoundRect,0.225000X0.250000X-0.225000X0.250000X0.225000X-0.250000X0.225000X-0.250000X-0.225000X0*%
%ADD29RoundRect,0.250000X-0.475000X0.250000X-0.475000X-0.250000X0.475000X-0.250000X0.475000X0.250000X0*%
%ADD30RoundRect,0.375000X0.375000X-0.625000X0.375000X0.625000X-0.375000X0.625000X-0.375000X-0.625000X0*%
%ADD31RoundRect,0.500000X1.400000X-0.500000X1.400000X0.500000X-1.400000X0.500000X-1.400000X-0.500000X0*%
%ADD32RoundRect,0.250000X-0.262500X-0.450000X0.262500X-0.450000X0.262500X0.450000X-0.262500X0.450000X0*%
%ADD33RoundRect,0.225000X-0.250000X0.225000X-0.250000X-0.225000X0.250000X-0.225000X0.250000X0.225000X0*%
G04 APERTURE END LIST*
D10*
%TO.C,J4*%
X181410000Y-68695000D03*
D11*
X186490000Y-68695000D03*
X191570000Y-68695000D03*
X196650000Y-68695000D03*
%TD*%
D12*
%TO.C,H4*%
X11300339Y-16098876D03*
%TD*%
%TO.C,H5*%
X11300339Y-24048876D03*
%TD*%
D13*
%TO.C,.*%
X164870000Y-59995000D03*
%TD*%
D14*
%TO.C,U5*%
X243575003Y-41220000D03*
X243575003Y-43780000D03*
X243600003Y-38705000D03*
X243600003Y-64065000D03*
X243625003Y-46320000D03*
X243625003Y-58990000D03*
X243650003Y-56490000D03*
X243650003Y-66605000D03*
D15*
X243650003Y-71715000D03*
X243650003Y-69155000D03*
X243600003Y-61505000D03*
X243650003Y-53930000D03*
X243600003Y-51390000D03*
X243625003Y-48880000D03*
X243600003Y-36145000D03*
X218600003Y-36145000D03*
X218600003Y-38705000D03*
X218575003Y-41220000D03*
X218575003Y-43780000D03*
X218625003Y-46320000D03*
X218625003Y-48880000D03*
X218625003Y-51515000D03*
X218675003Y-54055000D03*
X218675003Y-56615000D03*
X218650003Y-59115000D03*
X218625003Y-61630000D03*
X218625003Y-64190000D03*
X218675003Y-66730000D03*
X218650003Y-69155000D03*
X218650003Y-71715000D03*
%TD*%
D16*
%TO.C,C5*%
X168940000Y-40185000D03*
X168269063Y-38585000D03*
D17*
X165769063Y-38585000D03*
X165098126Y-36985000D03*
%TD*%
D10*
%TO.C,J3*%
X167440000Y-68735000D03*
D11*
X172520000Y-68735000D03*
%TD*%
D12*
%TO.C,H1*%
X11300339Y-198876D03*
%TD*%
D10*
%TO.C,J1*%
X205665000Y-68635000D03*
D11*
X210745000Y-68635000D03*
%TD*%
D13*
%TO.C,.*%
X208875000Y-41925000D03*
%TD*%
D12*
%TO.C,H2*%
X11300339Y-8148876D03*
%TD*%
D16*
%TO.C,C4*%
X168640000Y-52015000D03*
X167969063Y-50415000D03*
D17*
X165469063Y-50415000D03*
X164798126Y-48815000D03*
%TD*%
D18*
%TO.C,R10*%
X227432500Y-41195000D03*
X225607500Y-41195000D03*
%TD*%
%TO.C,R7*%
X227452500Y-38795000D03*
X225627500Y-38795000D03*
%TD*%
D19*
%TO.C,R4*%
X191880000Y-60162500D03*
X191880000Y-61987500D03*
%TD*%
D20*
%TO.C,R1*%
X203420000Y-34407500D03*
X203420000Y-32582500D03*
%TD*%
D21*
%TO.C,C3*%
X221090000Y-38715000D03*
X222990000Y-38715000D03*
%TD*%
D22*
%TO.C,D8*%
X210770000Y-64345000D03*
X211470000Y-64345000D03*
%TD*%
D19*
%TO.C,R9*%
X186860000Y-60202500D03*
X186860000Y-62027500D03*
%TD*%
D23*
%TO.C,J2*%
X184890003Y-29095000D03*
D24*
X182065003Y-29345000D03*
X187715003Y-29345000D03*
%TD*%
D18*
%TO.C,R5*%
X227402500Y-43765000D03*
X225577500Y-43765000D03*
%TD*%
D25*
%TO.C,U8*%
X175542500Y-40172500D03*
X174592500Y-40172500D03*
X173642500Y-40172500D03*
X173642500Y-37897500D03*
X175542500Y-37897500D03*
%TD*%
D26*
%TO.C,C13*%
X175680000Y-35065000D03*
X175680000Y-33165000D03*
%TD*%
D27*
%TO.C,U7*%
X185090000Y-35205000D03*
X187090000Y-35205000D03*
X189090000Y-35205000D03*
X191090000Y-35205000D03*
X195090000Y-35205000D03*
X199090000Y-51205000D03*
X197090000Y-51205000D03*
X193090000Y-51205000D03*
X191090000Y-51205000D03*
X189090000Y-51205000D03*
X187090000Y-51205000D03*
X185090000Y-51205000D03*
%TD*%
D21*
%TO.C,C1*%
X221130000Y-43735000D03*
X223030000Y-43735000D03*
%TD*%
D19*
%TO.C,R11*%
X211120000Y-60172500D03*
X211120000Y-61997500D03*
%TD*%
D21*
%TO.C,C8*%
X221110000Y-46355000D03*
X223010000Y-46355000D03*
%TD*%
D20*
%TO.C,R23*%
X180220003Y-45407500D03*
X180220003Y-43582500D03*
%TD*%
D19*
%TO.C,R3*%
X196860000Y-60202500D03*
X196860000Y-62027500D03*
%TD*%
D18*
%TO.C,R12*%
X227242500Y-46395000D03*
X225417500Y-46395000D03*
%TD*%
D28*
%TO.C,C12*%
X177550000Y-34930000D03*
X177550000Y-33380000D03*
%TD*%
D20*
%TO.C,R2*%
X203420000Y-47497500D03*
X203420000Y-45672500D03*
%TD*%
D21*
%TO.C,C6*%
X169040000Y-73535000D03*
X170940000Y-73535000D03*
%TD*%
D22*
%TO.C,D5*%
X186512500Y-64295000D03*
X187212500Y-64295000D03*
%TD*%
D12*
%TO.C,.*%
X252880000Y-59995000D03*
%TD*%
D29*
%TO.C,C7*%
X175600000Y-43365000D03*
X175600000Y-45265000D03*
%TD*%
D22*
%TO.C,D4*%
X196640000Y-64295000D03*
X197340000Y-64295000D03*
%TD*%
%TO.C,D6*%
X191570000Y-64365000D03*
X192270000Y-64365000D03*
%TD*%
D20*
%TO.C,R6*%
X180030000Y-55655000D03*
X180030000Y-53830000D03*
%TD*%
D30*
%TO.C,U13*%
X176892500Y-57835000D03*
X174592500Y-57835000D03*
D31*
X174592500Y-51535000D03*
D30*
X172292500Y-57835000D03*
%TD*%
D20*
%TO.C,R8*%
X203210000Y-60717500D03*
X203210000Y-58892500D03*
%TD*%
D32*
%TO.C,R13*%
X238407500Y-54025000D03*
X240232500Y-54025000D03*
%TD*%
D33*
%TO.C,C10*%
X177560000Y-43540000D03*
X177560000Y-45090000D03*
%TD*%
D21*
%TO.C,C2*%
X221070000Y-41255000D03*
X222970000Y-41255000D03*
%TD*%
M02*
