%TF.GenerationSoftware,KiCad,Pcbnew,9.0.7*%
%TF.CreationDate,2026-07-31T16:49:00+05:30*%
%TF.ProjectId,WPC,5750432e-6b69-4636-9164-5f7063625858,rev?*%
%TF.SameCoordinates,Original*%
%TF.FileFunction,Legend,Top*%
%TF.FilePolarity,Positive*%
%FSLAX46Y46*%
G04 Gerber Fmt 4.6, Leading zero omitted, Abs format (unit mm)*
G04 Created by KiCad (PCBNEW 9.0.7) date 2026-07-31 16:49:00*
%MOMM*%
%LPD*%
G01*
G04 APERTURE LIST*
%ADD10C,0.200000*%
%ADD11C,0.375000*%
%ADD12C,0.240000*%
%ADD13C,0.300000*%
%ADD14C,0.250000*%
%ADD15C,0.500000*%
%ADD16C,0.150000*%
%ADD17C,0.875000*%
%ADD18C,1.000000*%
%ADD19C,0.120000*%
%ADD20C,0.100000*%
G04 APERTURE END LIST*
D10*
X198869673Y-47661266D02*
X199631578Y-47661266D01*
X199250625Y-48042219D02*
X199250625Y-47280314D01*
D11*
X182134071Y-63934004D02*
X182205500Y-64005432D01*
X182205500Y-64005432D02*
X182276928Y-64219718D01*
X182276928Y-64219718D02*
X182276928Y-64362575D01*
X182276928Y-64362575D02*
X182205500Y-64576861D01*
X182205500Y-64576861D02*
X182062642Y-64719718D01*
X182062642Y-64719718D02*
X181919785Y-64791147D01*
X181919785Y-64791147D02*
X181634071Y-64862575D01*
X181634071Y-64862575D02*
X181419785Y-64862575D01*
X181419785Y-64862575D02*
X181134071Y-64791147D01*
X181134071Y-64791147D02*
X180991214Y-64719718D01*
X180991214Y-64719718D02*
X180848357Y-64576861D01*
X180848357Y-64576861D02*
X180776928Y-64362575D01*
X180776928Y-64362575D02*
X180776928Y-64219718D01*
X180776928Y-64219718D02*
X180848357Y-64005432D01*
X180848357Y-64005432D02*
X180919785Y-63934004D01*
X180776928Y-63005432D02*
X180776928Y-62719718D01*
X180776928Y-62719718D02*
X180848357Y-62576861D01*
X180848357Y-62576861D02*
X180991214Y-62434004D01*
X180991214Y-62434004D02*
X181276928Y-62362575D01*
X181276928Y-62362575D02*
X181776928Y-62362575D01*
X181776928Y-62362575D02*
X182062642Y-62434004D01*
X182062642Y-62434004D02*
X182205500Y-62576861D01*
X182205500Y-62576861D02*
X182276928Y-62719718D01*
X182276928Y-62719718D02*
X182276928Y-63005432D01*
X182276928Y-63005432D02*
X182205500Y-63148290D01*
X182205500Y-63148290D02*
X182062642Y-63291147D01*
X182062642Y-63291147D02*
X181776928Y-63362575D01*
X181776928Y-63362575D02*
X181276928Y-63362575D01*
X181276928Y-63362575D02*
X180991214Y-63291147D01*
X180991214Y-63291147D02*
X180848357Y-63148290D01*
X180848357Y-63148290D02*
X180776928Y-63005432D01*
X182276928Y-61719718D02*
X180776928Y-61719718D01*
X180776928Y-61719718D02*
X181848357Y-61219718D01*
X181848357Y-61219718D02*
X180776928Y-60719718D01*
X180776928Y-60719718D02*
X182276928Y-60719718D01*
X169685500Y-65491147D02*
X169685500Y-64348290D01*
X170256928Y-64919718D02*
X169114071Y-64919718D01*
X169399785Y-63419718D02*
X169328357Y-63562575D01*
X169328357Y-63562575D02*
X169256928Y-63634004D01*
X169256928Y-63634004D02*
X169114071Y-63705432D01*
X169114071Y-63705432D02*
X169042642Y-63705432D01*
X169042642Y-63705432D02*
X168899785Y-63634004D01*
X168899785Y-63634004D02*
X168828357Y-63562575D01*
X168828357Y-63562575D02*
X168756928Y-63419718D01*
X168756928Y-63419718D02*
X168756928Y-63134004D01*
X168756928Y-63134004D02*
X168828357Y-62991147D01*
X168828357Y-62991147D02*
X168899785Y-62919718D01*
X168899785Y-62919718D02*
X169042642Y-62848289D01*
X169042642Y-62848289D02*
X169114071Y-62848289D01*
X169114071Y-62848289D02*
X169256928Y-62919718D01*
X169256928Y-62919718D02*
X169328357Y-62991147D01*
X169328357Y-62991147D02*
X169399785Y-63134004D01*
X169399785Y-63134004D02*
X169399785Y-63419718D01*
X169399785Y-63419718D02*
X169471214Y-63562575D01*
X169471214Y-63562575D02*
X169542642Y-63634004D01*
X169542642Y-63634004D02*
X169685500Y-63705432D01*
X169685500Y-63705432D02*
X169971214Y-63705432D01*
X169971214Y-63705432D02*
X170114071Y-63634004D01*
X170114071Y-63634004D02*
X170185500Y-63562575D01*
X170185500Y-63562575D02*
X170256928Y-63419718D01*
X170256928Y-63419718D02*
X170256928Y-63134004D01*
X170256928Y-63134004D02*
X170185500Y-62991147D01*
X170185500Y-62991147D02*
X170114071Y-62919718D01*
X170114071Y-62919718D02*
X169971214Y-62848289D01*
X169971214Y-62848289D02*
X169685500Y-62848289D01*
X169685500Y-62848289D02*
X169542642Y-62919718D01*
X169542642Y-62919718D02*
X169471214Y-62991147D01*
X169471214Y-62991147D02*
X169399785Y-63134004D01*
X168756928Y-62419718D02*
X170256928Y-61919718D01*
X170256928Y-61919718D02*
X168756928Y-61419718D01*
D10*
X178679673Y-52191266D02*
X179441578Y-52191266D01*
X179060625Y-52572219D02*
X179060625Y-51810314D01*
X198909673Y-60821266D02*
X199671578Y-60821266D01*
X199290625Y-61202219D02*
X199290625Y-60440314D01*
D11*
X197086928Y-65211147D02*
X195586928Y-65211147D01*
X197086928Y-64496861D02*
X195586928Y-64496861D01*
X195586928Y-64496861D02*
X197086928Y-63639718D01*
X197086928Y-63639718D02*
X195586928Y-63639718D01*
X197229785Y-63282575D02*
X197229785Y-62139717D01*
X197086928Y-61068289D02*
X197086928Y-61782575D01*
X197086928Y-61782575D02*
X195586928Y-61782575D01*
X195586928Y-60711146D02*
X195586928Y-59782574D01*
X195586928Y-59782574D02*
X196158357Y-60282574D01*
X196158357Y-60282574D02*
X196158357Y-60068289D01*
X196158357Y-60068289D02*
X196229785Y-59925432D01*
X196229785Y-59925432D02*
X196301214Y-59854003D01*
X196301214Y-59854003D02*
X196444071Y-59782574D01*
X196444071Y-59782574D02*
X196801214Y-59782574D01*
X196801214Y-59782574D02*
X196944071Y-59854003D01*
X196944071Y-59854003D02*
X197015500Y-59925432D01*
X197015500Y-59925432D02*
X197086928Y-60068289D01*
X197086928Y-60068289D02*
X197086928Y-60496860D01*
X197086928Y-60496860D02*
X197015500Y-60639717D01*
X197015500Y-60639717D02*
X196944071Y-60711146D01*
D12*
X51146428Y-71754980D02*
X50003571Y-71754980D01*
X50574999Y-71183551D02*
X50574999Y-72326408D01*
D11*
X187676928Y-65191147D02*
X186176928Y-65191147D01*
X187676928Y-64476861D02*
X186176928Y-64476861D01*
X186176928Y-64476861D02*
X187676928Y-63619718D01*
X187676928Y-63619718D02*
X186176928Y-63619718D01*
X187819785Y-63262575D02*
X187819785Y-62119717D01*
X187676928Y-61048289D02*
X187676928Y-61762575D01*
X187676928Y-61762575D02*
X186176928Y-61762575D01*
X187676928Y-59762574D02*
X187676928Y-60619717D01*
X187676928Y-60191146D02*
X186176928Y-60191146D01*
X186176928Y-60191146D02*
X186391214Y-60334003D01*
X186391214Y-60334003D02*
X186534071Y-60476860D01*
X186534071Y-60476860D02*
X186605500Y-60619717D01*
D13*
X245881653Y-59495828D02*
X246238796Y-60995828D01*
X246238796Y-60995828D02*
X246524510Y-59924400D01*
X246524510Y-59924400D02*
X246810225Y-60995828D01*
X246810225Y-60995828D02*
X247167368Y-59495828D01*
X247738796Y-60995828D02*
X247738796Y-59495828D01*
X248953082Y-60210114D02*
X248453082Y-60210114D01*
X248453082Y-60995828D02*
X248453082Y-59495828D01*
X248453082Y-59495828D02*
X249167368Y-59495828D01*
X249738796Y-60995828D02*
X249738796Y-59495828D01*
D14*
X222297330Y-62199675D02*
X222535425Y-63199675D01*
X222535425Y-63199675D02*
X222725901Y-62485389D01*
X222725901Y-62485389D02*
X222916377Y-63199675D01*
X222916377Y-63199675D02*
X223154473Y-62199675D01*
X223535425Y-63199675D02*
X223535425Y-62533008D01*
X223535425Y-62199675D02*
X223487806Y-62247294D01*
X223487806Y-62247294D02*
X223535425Y-62294913D01*
X223535425Y-62294913D02*
X223583044Y-62247294D01*
X223583044Y-62247294D02*
X223535425Y-62199675D01*
X223535425Y-62199675D02*
X223535425Y-62294913D01*
X224011615Y-63199675D02*
X224011615Y-62533008D01*
X224011615Y-62723484D02*
X224059234Y-62628246D01*
X224059234Y-62628246D02*
X224106853Y-62580627D01*
X224106853Y-62580627D02*
X224202091Y-62533008D01*
X224202091Y-62533008D02*
X224297329Y-62533008D01*
X225011615Y-63152056D02*
X224916377Y-63199675D01*
X224916377Y-63199675D02*
X224725901Y-63199675D01*
X224725901Y-63199675D02*
X224630663Y-63152056D01*
X224630663Y-63152056D02*
X224583044Y-63056817D01*
X224583044Y-63056817D02*
X224583044Y-62675865D01*
X224583044Y-62675865D02*
X224630663Y-62580627D01*
X224630663Y-62580627D02*
X224725901Y-62533008D01*
X224725901Y-62533008D02*
X224916377Y-62533008D01*
X224916377Y-62533008D02*
X225011615Y-62580627D01*
X225011615Y-62580627D02*
X225059234Y-62675865D01*
X225059234Y-62675865D02*
X225059234Y-62771103D01*
X225059234Y-62771103D02*
X224583044Y-62866341D01*
X225630663Y-63199675D02*
X225535425Y-63152056D01*
X225535425Y-63152056D02*
X225487806Y-63056817D01*
X225487806Y-63056817D02*
X225487806Y-62199675D01*
X226392568Y-63152056D02*
X226297330Y-63199675D01*
X226297330Y-63199675D02*
X226106854Y-63199675D01*
X226106854Y-63199675D02*
X226011616Y-63152056D01*
X226011616Y-63152056D02*
X225963997Y-63056817D01*
X225963997Y-63056817D02*
X225963997Y-62675865D01*
X225963997Y-62675865D02*
X226011616Y-62580627D01*
X226011616Y-62580627D02*
X226106854Y-62533008D01*
X226106854Y-62533008D02*
X226297330Y-62533008D01*
X226297330Y-62533008D02*
X226392568Y-62580627D01*
X226392568Y-62580627D02*
X226440187Y-62675865D01*
X226440187Y-62675865D02*
X226440187Y-62771103D01*
X226440187Y-62771103D02*
X225963997Y-62866341D01*
X226821140Y-63152056D02*
X226916378Y-63199675D01*
X226916378Y-63199675D02*
X227106854Y-63199675D01*
X227106854Y-63199675D02*
X227202092Y-63152056D01*
X227202092Y-63152056D02*
X227249711Y-63056817D01*
X227249711Y-63056817D02*
X227249711Y-63009198D01*
X227249711Y-63009198D02*
X227202092Y-62913960D01*
X227202092Y-62913960D02*
X227106854Y-62866341D01*
X227106854Y-62866341D02*
X226963997Y-62866341D01*
X226963997Y-62866341D02*
X226868759Y-62818722D01*
X226868759Y-62818722D02*
X226821140Y-62723484D01*
X226821140Y-62723484D02*
X226821140Y-62675865D01*
X226821140Y-62675865D02*
X226868759Y-62580627D01*
X226868759Y-62580627D02*
X226963997Y-62533008D01*
X226963997Y-62533008D02*
X227106854Y-62533008D01*
X227106854Y-62533008D02*
X227202092Y-62580627D01*
X227630664Y-63152056D02*
X227725902Y-63199675D01*
X227725902Y-63199675D02*
X227916378Y-63199675D01*
X227916378Y-63199675D02*
X228011616Y-63152056D01*
X228011616Y-63152056D02*
X228059235Y-63056817D01*
X228059235Y-63056817D02*
X228059235Y-63009198D01*
X228059235Y-63009198D02*
X228011616Y-62913960D01*
X228011616Y-62913960D02*
X227916378Y-62866341D01*
X227916378Y-62866341D02*
X227773521Y-62866341D01*
X227773521Y-62866341D02*
X227678283Y-62818722D01*
X227678283Y-62818722D02*
X227630664Y-62723484D01*
X227630664Y-62723484D02*
X227630664Y-62675865D01*
X227630664Y-62675865D02*
X227678283Y-62580627D01*
X227678283Y-62580627D02*
X227773521Y-62533008D01*
X227773521Y-62533008D02*
X227916378Y-62533008D01*
X227916378Y-62533008D02*
X228011616Y-62580627D01*
X229249712Y-63199675D02*
X229249712Y-62199675D01*
X229249712Y-62199675D02*
X229630664Y-62199675D01*
X229630664Y-62199675D02*
X229725902Y-62247294D01*
X229725902Y-62247294D02*
X229773521Y-62294913D01*
X229773521Y-62294913D02*
X229821140Y-62390151D01*
X229821140Y-62390151D02*
X229821140Y-62533008D01*
X229821140Y-62533008D02*
X229773521Y-62628246D01*
X229773521Y-62628246D02*
X229725902Y-62675865D01*
X229725902Y-62675865D02*
X229630664Y-62723484D01*
X229630664Y-62723484D02*
X229249712Y-62723484D01*
X230678283Y-62533008D02*
X230678283Y-63199675D01*
X230249712Y-62533008D02*
X230249712Y-63056817D01*
X230249712Y-63056817D02*
X230297331Y-63152056D01*
X230297331Y-63152056D02*
X230392569Y-63199675D01*
X230392569Y-63199675D02*
X230535426Y-63199675D01*
X230535426Y-63199675D02*
X230630664Y-63152056D01*
X230630664Y-63152056D02*
X230678283Y-63104436D01*
X231154474Y-63199675D02*
X231154474Y-62533008D01*
X231154474Y-62628246D02*
X231202093Y-62580627D01*
X231202093Y-62580627D02*
X231297331Y-62533008D01*
X231297331Y-62533008D02*
X231440188Y-62533008D01*
X231440188Y-62533008D02*
X231535426Y-62580627D01*
X231535426Y-62580627D02*
X231583045Y-62675865D01*
X231583045Y-62675865D02*
X231583045Y-63199675D01*
X231583045Y-62675865D02*
X231630664Y-62580627D01*
X231630664Y-62580627D02*
X231725902Y-62533008D01*
X231725902Y-62533008D02*
X231868759Y-62533008D01*
X231868759Y-62533008D02*
X231963998Y-62580627D01*
X231963998Y-62580627D02*
X232011617Y-62675865D01*
X232011617Y-62675865D02*
X232011617Y-63199675D01*
X232487807Y-62533008D02*
X232487807Y-63533008D01*
X232487807Y-62580627D02*
X232583045Y-62533008D01*
X232583045Y-62533008D02*
X232773521Y-62533008D01*
X232773521Y-62533008D02*
X232868759Y-62580627D01*
X232868759Y-62580627D02*
X232916378Y-62628246D01*
X232916378Y-62628246D02*
X232963997Y-62723484D01*
X232963997Y-62723484D02*
X232963997Y-63009198D01*
X232963997Y-63009198D02*
X232916378Y-63104436D01*
X232916378Y-63104436D02*
X232868759Y-63152056D01*
X232868759Y-63152056D02*
X232773521Y-63199675D01*
X232773521Y-63199675D02*
X232583045Y-63199675D01*
X232583045Y-63199675D02*
X232487807Y-63152056D01*
X234725902Y-63104436D02*
X234678283Y-63152056D01*
X234678283Y-63152056D02*
X234535426Y-63199675D01*
X234535426Y-63199675D02*
X234440188Y-63199675D01*
X234440188Y-63199675D02*
X234297331Y-63152056D01*
X234297331Y-63152056D02*
X234202093Y-63056817D01*
X234202093Y-63056817D02*
X234154474Y-62961579D01*
X234154474Y-62961579D02*
X234106855Y-62771103D01*
X234106855Y-62771103D02*
X234106855Y-62628246D01*
X234106855Y-62628246D02*
X234154474Y-62437770D01*
X234154474Y-62437770D02*
X234202093Y-62342532D01*
X234202093Y-62342532D02*
X234297331Y-62247294D01*
X234297331Y-62247294D02*
X234440188Y-62199675D01*
X234440188Y-62199675D02*
X234535426Y-62199675D01*
X234535426Y-62199675D02*
X234678283Y-62247294D01*
X234678283Y-62247294D02*
X234725902Y-62294913D01*
X235297331Y-63199675D02*
X235202093Y-63152056D01*
X235202093Y-63152056D02*
X235154474Y-63104436D01*
X235154474Y-63104436D02*
X235106855Y-63009198D01*
X235106855Y-63009198D02*
X235106855Y-62723484D01*
X235106855Y-62723484D02*
X235154474Y-62628246D01*
X235154474Y-62628246D02*
X235202093Y-62580627D01*
X235202093Y-62580627D02*
X235297331Y-62533008D01*
X235297331Y-62533008D02*
X235440188Y-62533008D01*
X235440188Y-62533008D02*
X235535426Y-62580627D01*
X235535426Y-62580627D02*
X235583045Y-62628246D01*
X235583045Y-62628246D02*
X235630664Y-62723484D01*
X235630664Y-62723484D02*
X235630664Y-63009198D01*
X235630664Y-63009198D02*
X235583045Y-63104436D01*
X235583045Y-63104436D02*
X235535426Y-63152056D01*
X235535426Y-63152056D02*
X235440188Y-63199675D01*
X235440188Y-63199675D02*
X235297331Y-63199675D01*
X236059236Y-62533008D02*
X236059236Y-63199675D01*
X236059236Y-62628246D02*
X236106855Y-62580627D01*
X236106855Y-62580627D02*
X236202093Y-62533008D01*
X236202093Y-62533008D02*
X236344950Y-62533008D01*
X236344950Y-62533008D02*
X236440188Y-62580627D01*
X236440188Y-62580627D02*
X236487807Y-62675865D01*
X236487807Y-62675865D02*
X236487807Y-63199675D01*
X236821141Y-62533008D02*
X237202093Y-62533008D01*
X236963998Y-62199675D02*
X236963998Y-63056817D01*
X236963998Y-63056817D02*
X237011617Y-63152056D01*
X237011617Y-63152056D02*
X237106855Y-63199675D01*
X237106855Y-63199675D02*
X237202093Y-63199675D01*
X237535427Y-63199675D02*
X237535427Y-62533008D01*
X237535427Y-62723484D02*
X237583046Y-62628246D01*
X237583046Y-62628246D02*
X237630665Y-62580627D01*
X237630665Y-62580627D02*
X237725903Y-62533008D01*
X237725903Y-62533008D02*
X237821141Y-62533008D01*
X238297332Y-63199675D02*
X238202094Y-63152056D01*
X238202094Y-63152056D02*
X238154475Y-63104436D01*
X238154475Y-63104436D02*
X238106856Y-63009198D01*
X238106856Y-63009198D02*
X238106856Y-62723484D01*
X238106856Y-62723484D02*
X238154475Y-62628246D01*
X238154475Y-62628246D02*
X238202094Y-62580627D01*
X238202094Y-62580627D02*
X238297332Y-62533008D01*
X238297332Y-62533008D02*
X238440189Y-62533008D01*
X238440189Y-62533008D02*
X238535427Y-62580627D01*
X238535427Y-62580627D02*
X238583046Y-62628246D01*
X238583046Y-62628246D02*
X238630665Y-62723484D01*
X238630665Y-62723484D02*
X238630665Y-63009198D01*
X238630665Y-63009198D02*
X238583046Y-63104436D01*
X238583046Y-63104436D02*
X238535427Y-63152056D01*
X238535427Y-63152056D02*
X238440189Y-63199675D01*
X238440189Y-63199675D02*
X238297332Y-63199675D01*
X239202094Y-63199675D02*
X239106856Y-63152056D01*
X239106856Y-63152056D02*
X239059237Y-63056817D01*
X239059237Y-63056817D02*
X239059237Y-62199675D01*
X239725904Y-63199675D02*
X239630666Y-63152056D01*
X239630666Y-63152056D02*
X239583047Y-63056817D01*
X239583047Y-63056817D02*
X239583047Y-62199675D01*
X240487809Y-63152056D02*
X240392571Y-63199675D01*
X240392571Y-63199675D02*
X240202095Y-63199675D01*
X240202095Y-63199675D02*
X240106857Y-63152056D01*
X240106857Y-63152056D02*
X240059238Y-63056817D01*
X240059238Y-63056817D02*
X240059238Y-62675865D01*
X240059238Y-62675865D02*
X240106857Y-62580627D01*
X240106857Y-62580627D02*
X240202095Y-62533008D01*
X240202095Y-62533008D02*
X240392571Y-62533008D01*
X240392571Y-62533008D02*
X240487809Y-62580627D01*
X240487809Y-62580627D02*
X240535428Y-62675865D01*
X240535428Y-62675865D02*
X240535428Y-62771103D01*
X240535428Y-62771103D02*
X240059238Y-62866341D01*
X240964000Y-63199675D02*
X240964000Y-62533008D01*
X240964000Y-62723484D02*
X241011619Y-62628246D01*
X241011619Y-62628246D02*
X241059238Y-62580627D01*
X241059238Y-62580627D02*
X241154476Y-62533008D01*
X241154476Y-62533008D02*
X241249714Y-62533008D01*
X222297330Y-63809619D02*
X222535425Y-64809619D01*
X222535425Y-64809619D02*
X222725901Y-64095333D01*
X222725901Y-64095333D02*
X222916377Y-64809619D01*
X222916377Y-64809619D02*
X223154473Y-63809619D01*
X223535425Y-64809619D02*
X223535425Y-63809619D01*
X223535425Y-63809619D02*
X223916377Y-63809619D01*
X223916377Y-63809619D02*
X224011615Y-63857238D01*
X224011615Y-63857238D02*
X224059234Y-63904857D01*
X224059234Y-63904857D02*
X224106853Y-64000095D01*
X224106853Y-64000095D02*
X224106853Y-64142952D01*
X224106853Y-64142952D02*
X224059234Y-64238190D01*
X224059234Y-64238190D02*
X224011615Y-64285809D01*
X224011615Y-64285809D02*
X223916377Y-64333428D01*
X223916377Y-64333428D02*
X223535425Y-64333428D01*
X225106853Y-64714380D02*
X225059234Y-64762000D01*
X225059234Y-64762000D02*
X224916377Y-64809619D01*
X224916377Y-64809619D02*
X224821139Y-64809619D01*
X224821139Y-64809619D02*
X224678282Y-64762000D01*
X224678282Y-64762000D02*
X224583044Y-64666761D01*
X224583044Y-64666761D02*
X224535425Y-64571523D01*
X224535425Y-64571523D02*
X224487806Y-64381047D01*
X224487806Y-64381047D02*
X224487806Y-64238190D01*
X224487806Y-64238190D02*
X224535425Y-64047714D01*
X224535425Y-64047714D02*
X224583044Y-63952476D01*
X224583044Y-63952476D02*
X224678282Y-63857238D01*
X224678282Y-63857238D02*
X224821139Y-63809619D01*
X224821139Y-63809619D02*
X224916377Y-63809619D01*
X224916377Y-63809619D02*
X225059234Y-63857238D01*
X225059234Y-63857238D02*
X225106853Y-63904857D01*
D11*
X192486928Y-65211147D02*
X190986928Y-65211147D01*
X192486928Y-64496861D02*
X190986928Y-64496861D01*
X190986928Y-64496861D02*
X192486928Y-63639718D01*
X192486928Y-63639718D02*
X190986928Y-63639718D01*
X192629785Y-63282575D02*
X192629785Y-62139717D01*
X192486928Y-61068289D02*
X192486928Y-61782575D01*
X192486928Y-61782575D02*
X190986928Y-61782575D01*
X191129785Y-60639717D02*
X191058357Y-60568289D01*
X191058357Y-60568289D02*
X190986928Y-60425432D01*
X190986928Y-60425432D02*
X190986928Y-60068289D01*
X190986928Y-60068289D02*
X191058357Y-59925432D01*
X191058357Y-59925432D02*
X191129785Y-59854003D01*
X191129785Y-59854003D02*
X191272642Y-59782574D01*
X191272642Y-59782574D02*
X191415500Y-59782574D01*
X191415500Y-59782574D02*
X191629785Y-59854003D01*
X191629785Y-59854003D02*
X192486928Y-60711146D01*
X192486928Y-60711146D02*
X192486928Y-59782574D01*
D15*
X203607518Y-47064238D02*
X202655137Y-47064238D01*
X202655137Y-47064238D02*
X202655137Y-45064238D01*
X204178947Y-45254714D02*
X204274185Y-45159476D01*
X204274185Y-45159476D02*
X204464661Y-45064238D01*
X204464661Y-45064238D02*
X204940852Y-45064238D01*
X204940852Y-45064238D02*
X205131328Y-45159476D01*
X205131328Y-45159476D02*
X205226566Y-45254714D01*
X205226566Y-45254714D02*
X205321804Y-45445190D01*
X205321804Y-45445190D02*
X205321804Y-45635666D01*
X205321804Y-45635666D02*
X205226566Y-45921380D01*
X205226566Y-45921380D02*
X204083709Y-47064238D01*
X204083709Y-47064238D02*
X205321804Y-47064238D01*
D11*
X204693852Y-65791928D02*
X204693852Y-64291928D01*
X204693852Y-64291928D02*
X205265281Y-64291928D01*
X205265281Y-64291928D02*
X205408138Y-64363357D01*
X205408138Y-64363357D02*
X205479567Y-64434785D01*
X205479567Y-64434785D02*
X205550995Y-64577642D01*
X205550995Y-64577642D02*
X205550995Y-64791928D01*
X205550995Y-64791928D02*
X205479567Y-64934785D01*
X205479567Y-64934785D02*
X205408138Y-65006214D01*
X205408138Y-65006214D02*
X205265281Y-65077642D01*
X205265281Y-65077642D02*
X204693852Y-65077642D01*
X206050995Y-64291928D02*
X206408138Y-65791928D01*
X206408138Y-65791928D02*
X206693852Y-64720500D01*
X206693852Y-64720500D02*
X206979567Y-65791928D01*
X206979567Y-65791928D02*
X207336710Y-64291928D01*
X208765281Y-65791928D02*
X208265281Y-65077642D01*
X207908138Y-65791928D02*
X207908138Y-64291928D01*
X207908138Y-64291928D02*
X208479567Y-64291928D01*
X208479567Y-64291928D02*
X208622424Y-64363357D01*
X208622424Y-64363357D02*
X208693853Y-64434785D01*
X208693853Y-64434785D02*
X208765281Y-64577642D01*
X208765281Y-64577642D02*
X208765281Y-64791928D01*
X208765281Y-64791928D02*
X208693853Y-64934785D01*
X208693853Y-64934785D02*
X208622424Y-65006214D01*
X208622424Y-65006214D02*
X208479567Y-65077642D01*
X208479567Y-65077642D02*
X207908138Y-65077642D01*
X209050996Y-65934785D02*
X210193853Y-65934785D01*
X210836710Y-64291928D02*
X211122424Y-64291928D01*
X211122424Y-64291928D02*
X211265281Y-64363357D01*
X211265281Y-64363357D02*
X211408138Y-64506214D01*
X211408138Y-64506214D02*
X211479567Y-64791928D01*
X211479567Y-64791928D02*
X211479567Y-65291928D01*
X211479567Y-65291928D02*
X211408138Y-65577642D01*
X211408138Y-65577642D02*
X211265281Y-65720500D01*
X211265281Y-65720500D02*
X211122424Y-65791928D01*
X211122424Y-65791928D02*
X210836710Y-65791928D01*
X210836710Y-65791928D02*
X210693853Y-65720500D01*
X210693853Y-65720500D02*
X210550995Y-65577642D01*
X210550995Y-65577642D02*
X210479567Y-65291928D01*
X210479567Y-65291928D02*
X210479567Y-64791928D01*
X210479567Y-64791928D02*
X210550995Y-64506214D01*
X210550995Y-64506214D02*
X210693853Y-64363357D01*
X210693853Y-64363357D02*
X210836710Y-64291928D01*
X212122424Y-65791928D02*
X212122424Y-64291928D01*
X212122424Y-64291928D02*
X212979567Y-65791928D01*
X212979567Y-65791928D02*
X212979567Y-64291928D01*
D15*
X178857994Y-39244238D02*
X178191327Y-38291857D01*
X177715137Y-39244238D02*
X177715137Y-37244238D01*
X177715137Y-37244238D02*
X178477042Y-37244238D01*
X178477042Y-37244238D02*
X178667518Y-37339476D01*
X178667518Y-37339476D02*
X178762756Y-37434714D01*
X178762756Y-37434714D02*
X178857994Y-37625190D01*
X178857994Y-37625190D02*
X178857994Y-37910904D01*
X178857994Y-37910904D02*
X178762756Y-38101380D01*
X178762756Y-38101380D02*
X178667518Y-38196619D01*
X178667518Y-38196619D02*
X178477042Y-38291857D01*
X178477042Y-38291857D02*
X177715137Y-38291857D01*
X179429423Y-37244238D02*
X180572280Y-37244238D01*
X180000851Y-39244238D02*
X180000851Y-37244238D01*
X181238947Y-37244238D02*
X181238947Y-38863285D01*
X181238947Y-38863285D02*
X181334185Y-39053761D01*
X181334185Y-39053761D02*
X181429423Y-39149000D01*
X181429423Y-39149000D02*
X181619899Y-39244238D01*
X181619899Y-39244238D02*
X182000852Y-39244238D01*
X182000852Y-39244238D02*
X182191328Y-39149000D01*
X182191328Y-39149000D02*
X182286566Y-39053761D01*
X182286566Y-39053761D02*
X182381804Y-38863285D01*
X182381804Y-38863285D02*
X182381804Y-37244238D01*
X203607518Y-34184238D02*
X202655137Y-34184238D01*
X202655137Y-34184238D02*
X202655137Y-32184238D01*
X204083709Y-32184238D02*
X205321804Y-32184238D01*
X205321804Y-32184238D02*
X204655137Y-32946142D01*
X204655137Y-32946142D02*
X204940852Y-32946142D01*
X204940852Y-32946142D02*
X205131328Y-33041380D01*
X205131328Y-33041380D02*
X205226566Y-33136619D01*
X205226566Y-33136619D02*
X205321804Y-33327095D01*
X205321804Y-33327095D02*
X205321804Y-33803285D01*
X205321804Y-33803285D02*
X205226566Y-33993761D01*
X205226566Y-33993761D02*
X205131328Y-34089000D01*
X205131328Y-34089000D02*
X204940852Y-34184238D01*
X204940852Y-34184238D02*
X204369423Y-34184238D01*
X204369423Y-34184238D02*
X204178947Y-34089000D01*
X204178947Y-34089000D02*
X204083709Y-33993761D01*
X203607518Y-60314238D02*
X202655137Y-60314238D01*
X202655137Y-60314238D02*
X202655137Y-58314238D01*
X205321804Y-60314238D02*
X204178947Y-60314238D01*
X204750375Y-60314238D02*
X204750375Y-58314238D01*
X204750375Y-58314238D02*
X204559899Y-58599952D01*
X204559899Y-58599952D02*
X204369423Y-58790428D01*
X204369423Y-58790428D02*
X204178947Y-58885666D01*
X162077333Y-72479862D02*
X162077333Y-70956053D01*
X162839238Y-71717957D02*
X161315428Y-71717957D01*
X161696380Y-69717958D02*
X161601142Y-69908434D01*
X161601142Y-69908434D02*
X161505904Y-70003672D01*
X161505904Y-70003672D02*
X161315428Y-70098910D01*
X161315428Y-70098910D02*
X161220190Y-70098910D01*
X161220190Y-70098910D02*
X161029714Y-70003672D01*
X161029714Y-70003672D02*
X160934476Y-69908434D01*
X160934476Y-69908434D02*
X160839238Y-69717958D01*
X160839238Y-69717958D02*
X160839238Y-69337005D01*
X160839238Y-69337005D02*
X160934476Y-69146529D01*
X160934476Y-69146529D02*
X161029714Y-69051291D01*
X161029714Y-69051291D02*
X161220190Y-68956053D01*
X161220190Y-68956053D02*
X161315428Y-68956053D01*
X161315428Y-68956053D02*
X161505904Y-69051291D01*
X161505904Y-69051291D02*
X161601142Y-69146529D01*
X161601142Y-69146529D02*
X161696380Y-69337005D01*
X161696380Y-69337005D02*
X161696380Y-69717958D01*
X161696380Y-69717958D02*
X161791619Y-69908434D01*
X161791619Y-69908434D02*
X161886857Y-70003672D01*
X161886857Y-70003672D02*
X162077333Y-70098910D01*
X162077333Y-70098910D02*
X162458285Y-70098910D01*
X162458285Y-70098910D02*
X162648761Y-70003672D01*
X162648761Y-70003672D02*
X162744000Y-69908434D01*
X162744000Y-69908434D02*
X162839238Y-69717958D01*
X162839238Y-69717958D02*
X162839238Y-69337005D01*
X162839238Y-69337005D02*
X162744000Y-69146529D01*
X162744000Y-69146529D02*
X162648761Y-69051291D01*
X162648761Y-69051291D02*
X162458285Y-68956053D01*
X162458285Y-68956053D02*
X162077333Y-68956053D01*
X162077333Y-68956053D02*
X161886857Y-69051291D01*
X161886857Y-69051291D02*
X161791619Y-69146529D01*
X161791619Y-69146529D02*
X161696380Y-69337005D01*
X160839238Y-68384624D02*
X162839238Y-67717958D01*
X162839238Y-67717958D02*
X160839238Y-67051291D01*
D10*
X215671101Y-68764790D02*
X215594911Y-68726695D01*
X215594911Y-68726695D02*
X215480625Y-68726695D01*
X215480625Y-68726695D02*
X215366339Y-68764790D01*
X215366339Y-68764790D02*
X215290149Y-68840980D01*
X215290149Y-68840980D02*
X215252054Y-68917171D01*
X215252054Y-68917171D02*
X215213958Y-69069552D01*
X215213958Y-69069552D02*
X215213958Y-69183838D01*
X215213958Y-69183838D02*
X215252054Y-69336219D01*
X215252054Y-69336219D02*
X215290149Y-69412409D01*
X215290149Y-69412409D02*
X215366339Y-69488600D01*
X215366339Y-69488600D02*
X215480625Y-69526695D01*
X215480625Y-69526695D02*
X215556816Y-69526695D01*
X215556816Y-69526695D02*
X215671101Y-69488600D01*
X215671101Y-69488600D02*
X215709197Y-69450504D01*
X215709197Y-69450504D02*
X215709197Y-69183838D01*
X215709197Y-69183838D02*
X215556816Y-69183838D01*
X216052054Y-69526695D02*
X216052054Y-68726695D01*
X216052054Y-68726695D02*
X216509197Y-69526695D01*
X216509197Y-69526695D02*
X216509197Y-68726695D01*
X216890149Y-69526695D02*
X216890149Y-68726695D01*
X216890149Y-68726695D02*
X217080625Y-68726695D01*
X217080625Y-68726695D02*
X217194911Y-68764790D01*
X217194911Y-68764790D02*
X217271101Y-68840980D01*
X217271101Y-68840980D02*
X217309196Y-68917171D01*
X217309196Y-68917171D02*
X217347292Y-69069552D01*
X217347292Y-69069552D02*
X217347292Y-69183838D01*
X217347292Y-69183838D02*
X217309196Y-69336219D01*
X217309196Y-69336219D02*
X217271101Y-69412409D01*
X217271101Y-69412409D02*
X217194911Y-69488600D01*
X217194911Y-69488600D02*
X217080625Y-69526695D01*
X217080625Y-69526695D02*
X216890149Y-69526695D01*
X178669673Y-42121266D02*
X179431578Y-42121266D01*
X179050625Y-42502219D02*
X179050625Y-41740314D01*
X199019673Y-34671266D02*
X199781578Y-34671266D01*
X199400625Y-35052219D02*
X199400625Y-34290314D01*
D15*
X175435137Y-54414238D02*
X175435137Y-52414238D01*
X175435137Y-52414238D02*
X176577994Y-54414238D01*
X176577994Y-54414238D02*
X176577994Y-52414238D01*
X177911327Y-52414238D02*
X178292280Y-52414238D01*
X178292280Y-52414238D02*
X178482756Y-52509476D01*
X178482756Y-52509476D02*
X178673232Y-52699952D01*
X178673232Y-52699952D02*
X178768470Y-53080904D01*
X178768470Y-53080904D02*
X178768470Y-53747571D01*
X178768470Y-53747571D02*
X178673232Y-54128523D01*
X178673232Y-54128523D02*
X178482756Y-54319000D01*
X178482756Y-54319000D02*
X178292280Y-54414238D01*
X178292280Y-54414238D02*
X177911327Y-54414238D01*
X177911327Y-54414238D02*
X177720851Y-54319000D01*
X177720851Y-54319000D02*
X177530375Y-54128523D01*
X177530375Y-54128523D02*
X177435137Y-53747571D01*
X177435137Y-53747571D02*
X177435137Y-53080904D01*
X177435137Y-53080904D02*
X177530375Y-52699952D01*
X177530375Y-52699952D02*
X177720851Y-52509476D01*
X177720851Y-52509476D02*
X177911327Y-52414238D01*
X181149423Y-54414238D02*
X181149423Y-52414238D01*
X181149423Y-52414238D02*
X181911328Y-52414238D01*
X181911328Y-52414238D02*
X182101804Y-52509476D01*
X182101804Y-52509476D02*
X182197042Y-52604714D01*
X182197042Y-52604714D02*
X182292280Y-52795190D01*
X182292280Y-52795190D02*
X182292280Y-53080904D01*
X182292280Y-53080904D02*
X182197042Y-53271380D01*
X182197042Y-53271380D02*
X182101804Y-53366619D01*
X182101804Y-53366619D02*
X181911328Y-53461857D01*
X181911328Y-53461857D02*
X181149423Y-53461857D01*
X182958947Y-52414238D02*
X183435137Y-54414238D01*
X183435137Y-54414238D02*
X183816090Y-52985666D01*
X183816090Y-52985666D02*
X184197042Y-54414238D01*
X184197042Y-54414238D02*
X184673233Y-52414238D01*
X186577994Y-54414238D02*
X185911327Y-53461857D01*
X185435137Y-54414238D02*
X185435137Y-52414238D01*
X185435137Y-52414238D02*
X186197042Y-52414238D01*
X186197042Y-52414238D02*
X186387518Y-52509476D01*
X186387518Y-52509476D02*
X186482756Y-52604714D01*
X186482756Y-52604714D02*
X186577994Y-52795190D01*
X186577994Y-52795190D02*
X186577994Y-53080904D01*
X186577994Y-53080904D02*
X186482756Y-53271380D01*
X186482756Y-53271380D02*
X186387518Y-53366619D01*
X186387518Y-53366619D02*
X186197042Y-53461857D01*
X186197042Y-53461857D02*
X185435137Y-53461857D01*
D10*
X246631101Y-68724790D02*
X246554911Y-68686695D01*
X246554911Y-68686695D02*
X246440625Y-68686695D01*
X246440625Y-68686695D02*
X246326339Y-68724790D01*
X246326339Y-68724790D02*
X246250149Y-68800980D01*
X246250149Y-68800980D02*
X246212054Y-68877171D01*
X246212054Y-68877171D02*
X246173958Y-69029552D01*
X246173958Y-69029552D02*
X246173958Y-69143838D01*
X246173958Y-69143838D02*
X246212054Y-69296219D01*
X246212054Y-69296219D02*
X246250149Y-69372409D01*
X246250149Y-69372409D02*
X246326339Y-69448600D01*
X246326339Y-69448600D02*
X246440625Y-69486695D01*
X246440625Y-69486695D02*
X246516816Y-69486695D01*
X246516816Y-69486695D02*
X246631101Y-69448600D01*
X246631101Y-69448600D02*
X246669197Y-69410504D01*
X246669197Y-69410504D02*
X246669197Y-69143838D01*
X246669197Y-69143838D02*
X246516816Y-69143838D01*
X247012054Y-69486695D02*
X247012054Y-68686695D01*
X247012054Y-68686695D02*
X247469197Y-69486695D01*
X247469197Y-69486695D02*
X247469197Y-68686695D01*
X247850149Y-69486695D02*
X247850149Y-68686695D01*
X247850149Y-68686695D02*
X248040625Y-68686695D01*
X248040625Y-68686695D02*
X248154911Y-68724790D01*
X248154911Y-68724790D02*
X248231101Y-68800980D01*
X248231101Y-68800980D02*
X248269196Y-68877171D01*
X248269196Y-68877171D02*
X248307292Y-69029552D01*
X248307292Y-69029552D02*
X248307292Y-69143838D01*
X248307292Y-69143838D02*
X248269196Y-69296219D01*
X248269196Y-69296219D02*
X248231101Y-69372409D01*
X248231101Y-69372409D02*
X248154911Y-69448600D01*
X248154911Y-69448600D02*
X248040625Y-69486695D01*
X248040625Y-69486695D02*
X247850149Y-69486695D01*
X216113006Y-71386695D02*
X215732054Y-71386695D01*
X215732054Y-71386695D02*
X215693958Y-71767647D01*
X215693958Y-71767647D02*
X215732054Y-71729552D01*
X215732054Y-71729552D02*
X215808244Y-71691457D01*
X215808244Y-71691457D02*
X215998720Y-71691457D01*
X215998720Y-71691457D02*
X216074911Y-71729552D01*
X216074911Y-71729552D02*
X216113006Y-71767647D01*
X216113006Y-71767647D02*
X216151101Y-71843838D01*
X216151101Y-71843838D02*
X216151101Y-72034314D01*
X216151101Y-72034314D02*
X216113006Y-72110504D01*
X216113006Y-72110504D02*
X216074911Y-72148600D01*
X216074911Y-72148600D02*
X215998720Y-72186695D01*
X215998720Y-72186695D02*
X215808244Y-72186695D01*
X215808244Y-72186695D02*
X215732054Y-72148600D01*
X215732054Y-72148600D02*
X215693958Y-72110504D01*
X216379673Y-71386695D02*
X216646340Y-72186695D01*
X216646340Y-72186695D02*
X216913006Y-71386695D01*
D15*
X210505137Y-61194238D02*
X210505137Y-59194238D01*
X210505137Y-59194238D02*
X211267042Y-59194238D01*
X211267042Y-59194238D02*
X211457518Y-59289476D01*
X211457518Y-59289476D02*
X211552756Y-59384714D01*
X211552756Y-59384714D02*
X211647994Y-59575190D01*
X211647994Y-59575190D02*
X211647994Y-59860904D01*
X211647994Y-59860904D02*
X211552756Y-60051380D01*
X211552756Y-60051380D02*
X211457518Y-60146619D01*
X211457518Y-60146619D02*
X211267042Y-60241857D01*
X211267042Y-60241857D02*
X210505137Y-60241857D01*
X212314661Y-59194238D02*
X212790851Y-61194238D01*
X212790851Y-61194238D02*
X213171804Y-59765666D01*
X213171804Y-59765666D02*
X213552756Y-61194238D01*
X213552756Y-61194238D02*
X214028947Y-59194238D01*
X215933708Y-61194238D02*
X215267041Y-60241857D01*
X214790851Y-61194238D02*
X214790851Y-59194238D01*
X214790851Y-59194238D02*
X215552756Y-59194238D01*
X215552756Y-59194238D02*
X215743232Y-59289476D01*
X215743232Y-59289476D02*
X215838470Y-59384714D01*
X215838470Y-59384714D02*
X215933708Y-59575190D01*
X215933708Y-59575190D02*
X215933708Y-59860904D01*
X215933708Y-59860904D02*
X215838470Y-60051380D01*
X215838470Y-60051380D02*
X215743232Y-60146619D01*
X215743232Y-60146619D02*
X215552756Y-60241857D01*
X215552756Y-60241857D02*
X214790851Y-60241857D01*
D12*
X225141428Y-56228939D02*
X225617618Y-56228939D01*
X225046190Y-56571796D02*
X225379523Y-55371796D01*
X225379523Y-55371796D02*
X225712856Y-56571796D01*
X226474761Y-55771796D02*
X226474761Y-56743225D01*
X226474761Y-56743225D02*
X226427142Y-56857511D01*
X226427142Y-56857511D02*
X226379523Y-56914654D01*
X226379523Y-56914654D02*
X226284285Y-56971796D01*
X226284285Y-56971796D02*
X226141428Y-56971796D01*
X226141428Y-56971796D02*
X226046190Y-56914654D01*
X226474761Y-56514654D02*
X226379523Y-56571796D01*
X226379523Y-56571796D02*
X226189047Y-56571796D01*
X226189047Y-56571796D02*
X226093809Y-56514654D01*
X226093809Y-56514654D02*
X226046190Y-56457511D01*
X226046190Y-56457511D02*
X225998571Y-56343225D01*
X225998571Y-56343225D02*
X225998571Y-56000368D01*
X225998571Y-56000368D02*
X226046190Y-55886082D01*
X226046190Y-55886082D02*
X226093809Y-55828939D01*
X226093809Y-55828939D02*
X226189047Y-55771796D01*
X226189047Y-55771796D02*
X226379523Y-55771796D01*
X226379523Y-55771796D02*
X226474761Y-55828939D01*
X226950952Y-56571796D02*
X226950952Y-55771796D01*
X226950952Y-56000368D02*
X226998571Y-55886082D01*
X226998571Y-55886082D02*
X227046190Y-55828939D01*
X227046190Y-55828939D02*
X227141428Y-55771796D01*
X227141428Y-55771796D02*
X227236666Y-55771796D01*
X227570000Y-56571796D02*
X227570000Y-55771796D01*
X227570000Y-55371796D02*
X227522381Y-55428939D01*
X227522381Y-55428939D02*
X227570000Y-55486082D01*
X227570000Y-55486082D02*
X227617619Y-55428939D01*
X227617619Y-55428939D02*
X227570000Y-55371796D01*
X227570000Y-55371796D02*
X227570000Y-55486082D01*
X228760476Y-56514654D02*
X228903333Y-56571796D01*
X228903333Y-56571796D02*
X229141428Y-56571796D01*
X229141428Y-56571796D02*
X229236666Y-56514654D01*
X229236666Y-56514654D02*
X229284285Y-56457511D01*
X229284285Y-56457511D02*
X229331904Y-56343225D01*
X229331904Y-56343225D02*
X229331904Y-56228939D01*
X229331904Y-56228939D02*
X229284285Y-56114654D01*
X229284285Y-56114654D02*
X229236666Y-56057511D01*
X229236666Y-56057511D02*
X229141428Y-56000368D01*
X229141428Y-56000368D02*
X228950952Y-55943225D01*
X228950952Y-55943225D02*
X228855714Y-55886082D01*
X228855714Y-55886082D02*
X228808095Y-55828939D01*
X228808095Y-55828939D02*
X228760476Y-55714654D01*
X228760476Y-55714654D02*
X228760476Y-55600368D01*
X228760476Y-55600368D02*
X228808095Y-55486082D01*
X228808095Y-55486082D02*
X228855714Y-55428939D01*
X228855714Y-55428939D02*
X228950952Y-55371796D01*
X228950952Y-55371796D02*
X229189047Y-55371796D01*
X229189047Y-55371796D02*
X229331904Y-55428939D01*
X230141428Y-56514654D02*
X230046190Y-56571796D01*
X230046190Y-56571796D02*
X229855714Y-56571796D01*
X229855714Y-56571796D02*
X229760476Y-56514654D01*
X229760476Y-56514654D02*
X229712857Y-56400368D01*
X229712857Y-56400368D02*
X229712857Y-55943225D01*
X229712857Y-55943225D02*
X229760476Y-55828939D01*
X229760476Y-55828939D02*
X229855714Y-55771796D01*
X229855714Y-55771796D02*
X230046190Y-55771796D01*
X230046190Y-55771796D02*
X230141428Y-55828939D01*
X230141428Y-55828939D02*
X230189047Y-55943225D01*
X230189047Y-55943225D02*
X230189047Y-56057511D01*
X230189047Y-56057511D02*
X229712857Y-56171796D01*
X230617619Y-55771796D02*
X230617619Y-56571796D01*
X230617619Y-55886082D02*
X230665238Y-55828939D01*
X230665238Y-55828939D02*
X230760476Y-55771796D01*
X230760476Y-55771796D02*
X230903333Y-55771796D01*
X230903333Y-55771796D02*
X230998571Y-55828939D01*
X230998571Y-55828939D02*
X231046190Y-55943225D01*
X231046190Y-55943225D02*
X231046190Y-56571796D01*
X231474762Y-56514654D02*
X231570000Y-56571796D01*
X231570000Y-56571796D02*
X231760476Y-56571796D01*
X231760476Y-56571796D02*
X231855714Y-56514654D01*
X231855714Y-56514654D02*
X231903333Y-56400368D01*
X231903333Y-56400368D02*
X231903333Y-56343225D01*
X231903333Y-56343225D02*
X231855714Y-56228939D01*
X231855714Y-56228939D02*
X231760476Y-56171796D01*
X231760476Y-56171796D02*
X231617619Y-56171796D01*
X231617619Y-56171796D02*
X231522381Y-56114654D01*
X231522381Y-56114654D02*
X231474762Y-56000368D01*
X231474762Y-56000368D02*
X231474762Y-55943225D01*
X231474762Y-55943225D02*
X231522381Y-55828939D01*
X231522381Y-55828939D02*
X231617619Y-55771796D01*
X231617619Y-55771796D02*
X231760476Y-55771796D01*
X231760476Y-55771796D02*
X231855714Y-55828939D01*
X232474762Y-56571796D02*
X232379524Y-56514654D01*
X232379524Y-56514654D02*
X232331905Y-56457511D01*
X232331905Y-56457511D02*
X232284286Y-56343225D01*
X232284286Y-56343225D02*
X232284286Y-56000368D01*
X232284286Y-56000368D02*
X232331905Y-55886082D01*
X232331905Y-55886082D02*
X232379524Y-55828939D01*
X232379524Y-55828939D02*
X232474762Y-55771796D01*
X232474762Y-55771796D02*
X232617619Y-55771796D01*
X232617619Y-55771796D02*
X232712857Y-55828939D01*
X232712857Y-55828939D02*
X232760476Y-55886082D01*
X232760476Y-55886082D02*
X232808095Y-56000368D01*
X232808095Y-56000368D02*
X232808095Y-56343225D01*
X232808095Y-56343225D02*
X232760476Y-56457511D01*
X232760476Y-56457511D02*
X232712857Y-56514654D01*
X232712857Y-56514654D02*
X232617619Y-56571796D01*
X232617619Y-56571796D02*
X232474762Y-56571796D01*
X233236667Y-56571796D02*
X233236667Y-55771796D01*
X233236667Y-56000368D02*
X233284286Y-55886082D01*
X233284286Y-55886082D02*
X233331905Y-55828939D01*
X233331905Y-55828939D02*
X233427143Y-55771796D01*
X233427143Y-55771796D02*
X233522381Y-55771796D01*
X233808096Y-56514654D02*
X233903334Y-56571796D01*
X233903334Y-56571796D02*
X234093810Y-56571796D01*
X234093810Y-56571796D02*
X234189048Y-56514654D01*
X234189048Y-56514654D02*
X234236667Y-56400368D01*
X234236667Y-56400368D02*
X234236667Y-56343225D01*
X234236667Y-56343225D02*
X234189048Y-56228939D01*
X234189048Y-56228939D02*
X234093810Y-56171796D01*
X234093810Y-56171796D02*
X233950953Y-56171796D01*
X233950953Y-56171796D02*
X233855715Y-56114654D01*
X233855715Y-56114654D02*
X233808096Y-56000368D01*
X233808096Y-56000368D02*
X233808096Y-55943225D01*
X233808096Y-55943225D02*
X233855715Y-55828939D01*
X233855715Y-55828939D02*
X233950953Y-55771796D01*
X233950953Y-55771796D02*
X234093810Y-55771796D01*
X234093810Y-55771796D02*
X234189048Y-55828939D01*
X225879522Y-58503729D02*
X225879522Y-57875158D01*
X225879522Y-57875158D02*
X225831903Y-57760872D01*
X225831903Y-57760872D02*
X225736665Y-57703729D01*
X225736665Y-57703729D02*
X225546189Y-57703729D01*
X225546189Y-57703729D02*
X225450951Y-57760872D01*
X225879522Y-58446587D02*
X225784284Y-58503729D01*
X225784284Y-58503729D02*
X225546189Y-58503729D01*
X225546189Y-58503729D02*
X225450951Y-58446587D01*
X225450951Y-58446587D02*
X225403332Y-58332301D01*
X225403332Y-58332301D02*
X225403332Y-58218015D01*
X225403332Y-58218015D02*
X225450951Y-58103729D01*
X225450951Y-58103729D02*
X225546189Y-58046587D01*
X225546189Y-58046587D02*
X225784284Y-58046587D01*
X225784284Y-58046587D02*
X225879522Y-57989444D01*
X226355713Y-57703729D02*
X226355713Y-58503729D01*
X226355713Y-57818015D02*
X226403332Y-57760872D01*
X226403332Y-57760872D02*
X226498570Y-57703729D01*
X226498570Y-57703729D02*
X226641427Y-57703729D01*
X226641427Y-57703729D02*
X226736665Y-57760872D01*
X226736665Y-57760872D02*
X226784284Y-57875158D01*
X226784284Y-57875158D02*
X226784284Y-58503729D01*
X227689046Y-58503729D02*
X227689046Y-57303729D01*
X227689046Y-58446587D02*
X227593808Y-58503729D01*
X227593808Y-58503729D02*
X227403332Y-58503729D01*
X227403332Y-58503729D02*
X227308094Y-58446587D01*
X227308094Y-58446587D02*
X227260475Y-58389444D01*
X227260475Y-58389444D02*
X227212856Y-58275158D01*
X227212856Y-58275158D02*
X227212856Y-57932301D01*
X227212856Y-57932301D02*
X227260475Y-57818015D01*
X227260475Y-57818015D02*
X227308094Y-57760872D01*
X227308094Y-57760872D02*
X227403332Y-57703729D01*
X227403332Y-57703729D02*
X227593808Y-57703729D01*
X227593808Y-57703729D02*
X227689046Y-57760872D01*
X229498570Y-58389444D02*
X229450951Y-58446587D01*
X229450951Y-58446587D02*
X229308094Y-58503729D01*
X229308094Y-58503729D02*
X229212856Y-58503729D01*
X229212856Y-58503729D02*
X229069999Y-58446587D01*
X229069999Y-58446587D02*
X228974761Y-58332301D01*
X228974761Y-58332301D02*
X228927142Y-58218015D01*
X228927142Y-58218015D02*
X228879523Y-57989444D01*
X228879523Y-57989444D02*
X228879523Y-57818015D01*
X228879523Y-57818015D02*
X228927142Y-57589444D01*
X228927142Y-57589444D02*
X228974761Y-57475158D01*
X228974761Y-57475158D02*
X229069999Y-57360872D01*
X229069999Y-57360872D02*
X229212856Y-57303729D01*
X229212856Y-57303729D02*
X229308094Y-57303729D01*
X229308094Y-57303729D02*
X229450951Y-57360872D01*
X229450951Y-57360872D02*
X229498570Y-57418015D01*
X230069999Y-58503729D02*
X229974761Y-58446587D01*
X229974761Y-58446587D02*
X229927142Y-58389444D01*
X229927142Y-58389444D02*
X229879523Y-58275158D01*
X229879523Y-58275158D02*
X229879523Y-57932301D01*
X229879523Y-57932301D02*
X229927142Y-57818015D01*
X229927142Y-57818015D02*
X229974761Y-57760872D01*
X229974761Y-57760872D02*
X230069999Y-57703729D01*
X230069999Y-57703729D02*
X230212856Y-57703729D01*
X230212856Y-57703729D02*
X230308094Y-57760872D01*
X230308094Y-57760872D02*
X230355713Y-57818015D01*
X230355713Y-57818015D02*
X230403332Y-57932301D01*
X230403332Y-57932301D02*
X230403332Y-58275158D01*
X230403332Y-58275158D02*
X230355713Y-58389444D01*
X230355713Y-58389444D02*
X230308094Y-58446587D01*
X230308094Y-58446587D02*
X230212856Y-58503729D01*
X230212856Y-58503729D02*
X230069999Y-58503729D01*
X230831904Y-57703729D02*
X230831904Y-58503729D01*
X230831904Y-57818015D02*
X230879523Y-57760872D01*
X230879523Y-57760872D02*
X230974761Y-57703729D01*
X230974761Y-57703729D02*
X231117618Y-57703729D01*
X231117618Y-57703729D02*
X231212856Y-57760872D01*
X231212856Y-57760872D02*
X231260475Y-57875158D01*
X231260475Y-57875158D02*
X231260475Y-58503729D01*
X231593809Y-57703729D02*
X231974761Y-57703729D01*
X231736666Y-57303729D02*
X231736666Y-58332301D01*
X231736666Y-58332301D02*
X231784285Y-58446587D01*
X231784285Y-58446587D02*
X231879523Y-58503729D01*
X231879523Y-58503729D02*
X231974761Y-58503729D01*
X232308095Y-58503729D02*
X232308095Y-57703729D01*
X232308095Y-57932301D02*
X232355714Y-57818015D01*
X232355714Y-57818015D02*
X232403333Y-57760872D01*
X232403333Y-57760872D02*
X232498571Y-57703729D01*
X232498571Y-57703729D02*
X232593809Y-57703729D01*
X233070000Y-58503729D02*
X232974762Y-58446587D01*
X232974762Y-58446587D02*
X232927143Y-58389444D01*
X232927143Y-58389444D02*
X232879524Y-58275158D01*
X232879524Y-58275158D02*
X232879524Y-57932301D01*
X232879524Y-57932301D02*
X232927143Y-57818015D01*
X232927143Y-57818015D02*
X232974762Y-57760872D01*
X232974762Y-57760872D02*
X233070000Y-57703729D01*
X233070000Y-57703729D02*
X233212857Y-57703729D01*
X233212857Y-57703729D02*
X233308095Y-57760872D01*
X233308095Y-57760872D02*
X233355714Y-57818015D01*
X233355714Y-57818015D02*
X233403333Y-57932301D01*
X233403333Y-57932301D02*
X233403333Y-58275158D01*
X233403333Y-58275158D02*
X233355714Y-58389444D01*
X233355714Y-58389444D02*
X233308095Y-58446587D01*
X233308095Y-58446587D02*
X233212857Y-58503729D01*
X233212857Y-58503729D02*
X233070000Y-58503729D01*
X233974762Y-58503729D02*
X233879524Y-58446587D01*
X233879524Y-58446587D02*
X233831905Y-58332301D01*
X233831905Y-58332301D02*
X233831905Y-57303729D01*
X234308096Y-58446587D02*
X234403334Y-58503729D01*
X234403334Y-58503729D02*
X234593810Y-58503729D01*
X234593810Y-58503729D02*
X234689048Y-58446587D01*
X234689048Y-58446587D02*
X234736667Y-58332301D01*
X234736667Y-58332301D02*
X234736667Y-58275158D01*
X234736667Y-58275158D02*
X234689048Y-58160872D01*
X234689048Y-58160872D02*
X234593810Y-58103729D01*
X234593810Y-58103729D02*
X234450953Y-58103729D01*
X234450953Y-58103729D02*
X234355715Y-58046587D01*
X234355715Y-58046587D02*
X234308096Y-57932301D01*
X234308096Y-57932301D02*
X234308096Y-57875158D01*
X234308096Y-57875158D02*
X234355715Y-57760872D01*
X234355715Y-57760872D02*
X234450953Y-57703729D01*
X234450953Y-57703729D02*
X234593810Y-57703729D01*
X234593810Y-57703729D02*
X234689048Y-57760872D01*
X227022381Y-60092805D02*
X227498571Y-60092805D01*
X226927143Y-60435662D02*
X227260476Y-59235662D01*
X227260476Y-59235662D02*
X227593809Y-60435662D01*
X228355714Y-59635662D02*
X228355714Y-60435662D01*
X227927143Y-59635662D02*
X227927143Y-60264234D01*
X227927143Y-60264234D02*
X227974762Y-60378520D01*
X227974762Y-60378520D02*
X228070000Y-60435662D01*
X228070000Y-60435662D02*
X228212857Y-60435662D01*
X228212857Y-60435662D02*
X228308095Y-60378520D01*
X228308095Y-60378520D02*
X228355714Y-60321377D01*
X229260476Y-59635662D02*
X229260476Y-60607091D01*
X229260476Y-60607091D02*
X229212857Y-60721377D01*
X229212857Y-60721377D02*
X229165238Y-60778520D01*
X229165238Y-60778520D02*
X229070000Y-60835662D01*
X229070000Y-60835662D02*
X228927143Y-60835662D01*
X228927143Y-60835662D02*
X228831905Y-60778520D01*
X229260476Y-60378520D02*
X229165238Y-60435662D01*
X229165238Y-60435662D02*
X228974762Y-60435662D01*
X228974762Y-60435662D02*
X228879524Y-60378520D01*
X228879524Y-60378520D02*
X228831905Y-60321377D01*
X228831905Y-60321377D02*
X228784286Y-60207091D01*
X228784286Y-60207091D02*
X228784286Y-59864234D01*
X228784286Y-59864234D02*
X228831905Y-59749948D01*
X228831905Y-59749948D02*
X228879524Y-59692805D01*
X228879524Y-59692805D02*
X228974762Y-59635662D01*
X228974762Y-59635662D02*
X229165238Y-59635662D01*
X229165238Y-59635662D02*
X229260476Y-59692805D01*
X229689048Y-59349948D02*
X229736667Y-59292805D01*
X229736667Y-59292805D02*
X229831905Y-59235662D01*
X229831905Y-59235662D02*
X230070000Y-59235662D01*
X230070000Y-59235662D02*
X230165238Y-59292805D01*
X230165238Y-59292805D02*
X230212857Y-59349948D01*
X230212857Y-59349948D02*
X230260476Y-59464234D01*
X230260476Y-59464234D02*
X230260476Y-59578520D01*
X230260476Y-59578520D02*
X230212857Y-59749948D01*
X230212857Y-59749948D02*
X229641429Y-60435662D01*
X229641429Y-60435662D02*
X230260476Y-60435662D01*
X230879524Y-59235662D02*
X230974762Y-59235662D01*
X230974762Y-59235662D02*
X231070000Y-59292805D01*
X231070000Y-59292805D02*
X231117619Y-59349948D01*
X231117619Y-59349948D02*
X231165238Y-59464234D01*
X231165238Y-59464234D02*
X231212857Y-59692805D01*
X231212857Y-59692805D02*
X231212857Y-59978520D01*
X231212857Y-59978520D02*
X231165238Y-60207091D01*
X231165238Y-60207091D02*
X231117619Y-60321377D01*
X231117619Y-60321377D02*
X231070000Y-60378520D01*
X231070000Y-60378520D02*
X230974762Y-60435662D01*
X230974762Y-60435662D02*
X230879524Y-60435662D01*
X230879524Y-60435662D02*
X230784286Y-60378520D01*
X230784286Y-60378520D02*
X230736667Y-60321377D01*
X230736667Y-60321377D02*
X230689048Y-60207091D01*
X230689048Y-60207091D02*
X230641429Y-59978520D01*
X230641429Y-59978520D02*
X230641429Y-59692805D01*
X230641429Y-59692805D02*
X230689048Y-59464234D01*
X230689048Y-59464234D02*
X230736667Y-59349948D01*
X230736667Y-59349948D02*
X230784286Y-59292805D01*
X230784286Y-59292805D02*
X230879524Y-59235662D01*
X231593810Y-59349948D02*
X231641429Y-59292805D01*
X231641429Y-59292805D02*
X231736667Y-59235662D01*
X231736667Y-59235662D02*
X231974762Y-59235662D01*
X231974762Y-59235662D02*
X232070000Y-59292805D01*
X232070000Y-59292805D02*
X232117619Y-59349948D01*
X232117619Y-59349948D02*
X232165238Y-59464234D01*
X232165238Y-59464234D02*
X232165238Y-59578520D01*
X232165238Y-59578520D02*
X232117619Y-59749948D01*
X232117619Y-59749948D02*
X231546191Y-60435662D01*
X231546191Y-60435662D02*
X232165238Y-60435662D01*
X233022381Y-59235662D02*
X232831905Y-59235662D01*
X232831905Y-59235662D02*
X232736667Y-59292805D01*
X232736667Y-59292805D02*
X232689048Y-59349948D01*
X232689048Y-59349948D02*
X232593810Y-59521377D01*
X232593810Y-59521377D02*
X232546191Y-59749948D01*
X232546191Y-59749948D02*
X232546191Y-60207091D01*
X232546191Y-60207091D02*
X232593810Y-60321377D01*
X232593810Y-60321377D02*
X232641429Y-60378520D01*
X232641429Y-60378520D02*
X232736667Y-60435662D01*
X232736667Y-60435662D02*
X232927143Y-60435662D01*
X232927143Y-60435662D02*
X233022381Y-60378520D01*
X233022381Y-60378520D02*
X233070000Y-60321377D01*
X233070000Y-60321377D02*
X233117619Y-60207091D01*
X233117619Y-60207091D02*
X233117619Y-59921377D01*
X233117619Y-59921377D02*
X233070000Y-59807091D01*
X233070000Y-59807091D02*
X233022381Y-59749948D01*
X233022381Y-59749948D02*
X232927143Y-59692805D01*
X232927143Y-59692805D02*
X232736667Y-59692805D01*
X232736667Y-59692805D02*
X232641429Y-59749948D01*
X232641429Y-59749948D02*
X232593810Y-59807091D01*
X232593810Y-59807091D02*
X232546191Y-59921377D01*
D11*
X172768357Y-64545432D02*
X172696928Y-64688290D01*
X172696928Y-64688290D02*
X172696928Y-64902575D01*
X172696928Y-64902575D02*
X172768357Y-65116861D01*
X172768357Y-65116861D02*
X172911214Y-65259718D01*
X172911214Y-65259718D02*
X173054071Y-65331147D01*
X173054071Y-65331147D02*
X173339785Y-65402575D01*
X173339785Y-65402575D02*
X173554071Y-65402575D01*
X173554071Y-65402575D02*
X173839785Y-65331147D01*
X173839785Y-65331147D02*
X173982642Y-65259718D01*
X173982642Y-65259718D02*
X174125500Y-65116861D01*
X174125500Y-65116861D02*
X174196928Y-64902575D01*
X174196928Y-64902575D02*
X174196928Y-64759718D01*
X174196928Y-64759718D02*
X174125500Y-64545432D01*
X174125500Y-64545432D02*
X174054071Y-64474004D01*
X174054071Y-64474004D02*
X173554071Y-64474004D01*
X173554071Y-64474004D02*
X173554071Y-64759718D01*
X174196928Y-63831147D02*
X172696928Y-63831147D01*
X172696928Y-63831147D02*
X174196928Y-62974004D01*
X174196928Y-62974004D02*
X172696928Y-62974004D01*
X174196928Y-62259718D02*
X172696928Y-62259718D01*
X172696928Y-62259718D02*
X172696928Y-61902575D01*
X172696928Y-61902575D02*
X172768357Y-61688289D01*
X172768357Y-61688289D02*
X172911214Y-61545432D01*
X172911214Y-61545432D02*
X173054071Y-61474003D01*
X173054071Y-61474003D02*
X173339785Y-61402575D01*
X173339785Y-61402575D02*
X173554071Y-61402575D01*
X173554071Y-61402575D02*
X173839785Y-61474003D01*
X173839785Y-61474003D02*
X173982642Y-61545432D01*
X173982642Y-61545432D02*
X174125500Y-61688289D01*
X174125500Y-61688289D02*
X174196928Y-61902575D01*
X174196928Y-61902575D02*
X174196928Y-62259718D01*
D10*
X246225863Y-71336695D02*
X246721101Y-71336695D01*
X246721101Y-71336695D02*
X246454435Y-71641457D01*
X246454435Y-71641457D02*
X246568720Y-71641457D01*
X246568720Y-71641457D02*
X246644911Y-71679552D01*
X246644911Y-71679552D02*
X246683006Y-71717647D01*
X246683006Y-71717647D02*
X246721101Y-71793838D01*
X246721101Y-71793838D02*
X246721101Y-71984314D01*
X246721101Y-71984314D02*
X246683006Y-72060504D01*
X246683006Y-72060504D02*
X246644911Y-72098600D01*
X246644911Y-72098600D02*
X246568720Y-72136695D01*
X246568720Y-72136695D02*
X246340149Y-72136695D01*
X246340149Y-72136695D02*
X246263958Y-72098600D01*
X246263958Y-72098600D02*
X246225863Y-72060504D01*
X247063959Y-72060504D02*
X247102054Y-72098600D01*
X247102054Y-72098600D02*
X247063959Y-72136695D01*
X247063959Y-72136695D02*
X247025863Y-72098600D01*
X247025863Y-72098600D02*
X247063959Y-72060504D01*
X247063959Y-72060504D02*
X247063959Y-72136695D01*
X247368720Y-71336695D02*
X247863958Y-71336695D01*
X247863958Y-71336695D02*
X247597292Y-71641457D01*
X247597292Y-71641457D02*
X247711577Y-71641457D01*
X247711577Y-71641457D02*
X247787768Y-71679552D01*
X247787768Y-71679552D02*
X247825863Y-71717647D01*
X247825863Y-71717647D02*
X247863958Y-71793838D01*
X247863958Y-71793838D02*
X247863958Y-71984314D01*
X247863958Y-71984314D02*
X247825863Y-72060504D01*
X247825863Y-72060504D02*
X247787768Y-72098600D01*
X247787768Y-72098600D02*
X247711577Y-72136695D01*
X247711577Y-72136695D02*
X247483006Y-72136695D01*
X247483006Y-72136695D02*
X247406815Y-72098600D01*
X247406815Y-72098600D02*
X247368720Y-72060504D01*
X248092530Y-71336695D02*
X248359197Y-72136695D01*
X248359197Y-72136695D02*
X248625863Y-71336695D01*
D16*
X178476666Y-64949819D02*
X178476666Y-65664104D01*
X178476666Y-65664104D02*
X178429047Y-65806961D01*
X178429047Y-65806961D02*
X178333809Y-65902200D01*
X178333809Y-65902200D02*
X178190952Y-65949819D01*
X178190952Y-65949819D02*
X178095714Y-65949819D01*
X179381428Y-65283152D02*
X179381428Y-65949819D01*
X179143333Y-64902200D02*
X178905238Y-65616485D01*
X178905238Y-65616485D02*
X179524285Y-65616485D01*
X197581905Y-60152319D02*
X197581905Y-59152319D01*
X197581905Y-59152319D02*
X197820000Y-59152319D01*
X197820000Y-59152319D02*
X197962857Y-59199938D01*
X197962857Y-59199938D02*
X198058095Y-59295176D01*
X198058095Y-59295176D02*
X198105714Y-59390414D01*
X198105714Y-59390414D02*
X198153333Y-59580890D01*
X198153333Y-59580890D02*
X198153333Y-59723747D01*
X198153333Y-59723747D02*
X198105714Y-59914223D01*
X198105714Y-59914223D02*
X198058095Y-60009461D01*
X198058095Y-60009461D02*
X197962857Y-60104700D01*
X197962857Y-60104700D02*
X197820000Y-60152319D01*
X197820000Y-60152319D02*
X197581905Y-60152319D01*
X199105714Y-60152319D02*
X198534286Y-60152319D01*
X198820000Y-60152319D02*
X198820000Y-59152319D01*
X198820000Y-59152319D02*
X198724762Y-59295176D01*
X198724762Y-59295176D02*
X198629524Y-59390414D01*
X198629524Y-59390414D02*
X198534286Y-59438033D01*
X200190001Y-62263533D02*
X199856667Y-62263533D01*
X199856667Y-62263533D02*
X199856667Y-61563533D01*
X200423334Y-61896866D02*
X200656668Y-61896866D01*
X200756668Y-62263533D02*
X200423334Y-62263533D01*
X200423334Y-62263533D02*
X200423334Y-61563533D01*
X200423334Y-61563533D02*
X200756668Y-61563533D01*
X201056667Y-62263533D02*
X201056667Y-61563533D01*
X201056667Y-61563533D02*
X201223334Y-61563533D01*
X201223334Y-61563533D02*
X201323334Y-61596866D01*
X201323334Y-61596866D02*
X201390001Y-61663533D01*
X201390001Y-61663533D02*
X201423334Y-61730200D01*
X201423334Y-61730200D02*
X201456667Y-61863533D01*
X201456667Y-61863533D02*
X201456667Y-61963533D01*
X201456667Y-61963533D02*
X201423334Y-62096866D01*
X201423334Y-62096866D02*
X201390001Y-62163533D01*
X201390001Y-62163533D02*
X201323334Y-62230200D01*
X201323334Y-62230200D02*
X201223334Y-62263533D01*
X201223334Y-62263533D02*
X201056667Y-62263533D01*
X201590001Y-62330200D02*
X202123334Y-62330200D01*
X202656667Y-61596866D02*
X202590000Y-61563533D01*
X202590000Y-61563533D02*
X202490000Y-61563533D01*
X202490000Y-61563533D02*
X202390000Y-61596866D01*
X202390000Y-61596866D02*
X202323334Y-61663533D01*
X202323334Y-61663533D02*
X202290000Y-61730200D01*
X202290000Y-61730200D02*
X202256667Y-61863533D01*
X202256667Y-61863533D02*
X202256667Y-61963533D01*
X202256667Y-61963533D02*
X202290000Y-62096866D01*
X202290000Y-62096866D02*
X202323334Y-62163533D01*
X202323334Y-62163533D02*
X202390000Y-62230200D01*
X202390000Y-62230200D02*
X202490000Y-62263533D01*
X202490000Y-62263533D02*
X202556667Y-62263533D01*
X202556667Y-62263533D02*
X202656667Y-62230200D01*
X202656667Y-62230200D02*
X202690000Y-62196866D01*
X202690000Y-62196866D02*
X202690000Y-61963533D01*
X202690000Y-61963533D02*
X202556667Y-61963533D01*
X203390000Y-62263533D02*
X203156667Y-61930200D01*
X202990000Y-62263533D02*
X202990000Y-61563533D01*
X202990000Y-61563533D02*
X203256667Y-61563533D01*
X203256667Y-61563533D02*
X203323334Y-61596866D01*
X203323334Y-61596866D02*
X203356667Y-61630200D01*
X203356667Y-61630200D02*
X203390000Y-61696866D01*
X203390000Y-61696866D02*
X203390000Y-61796866D01*
X203390000Y-61796866D02*
X203356667Y-61863533D01*
X203356667Y-61863533D02*
X203323334Y-61896866D01*
X203323334Y-61896866D02*
X203256667Y-61930200D01*
X203256667Y-61930200D02*
X202990000Y-61930200D01*
X203690000Y-61896866D02*
X203923334Y-61896866D01*
X204023334Y-62263533D02*
X203690000Y-62263533D01*
X203690000Y-62263533D02*
X203690000Y-61563533D01*
X203690000Y-61563533D02*
X204023334Y-61563533D01*
X204323333Y-61896866D02*
X204556667Y-61896866D01*
X204656667Y-62263533D02*
X204323333Y-62263533D01*
X204323333Y-62263533D02*
X204323333Y-61563533D01*
X204323333Y-61563533D02*
X204656667Y-61563533D01*
X204956666Y-62263533D02*
X204956666Y-61563533D01*
X204956666Y-61563533D02*
X205356666Y-62263533D01*
X205356666Y-62263533D02*
X205356666Y-61563533D01*
X205523333Y-62330200D02*
X206056666Y-62330200D01*
X206223332Y-62263533D02*
X206223332Y-61563533D01*
X206556665Y-62263533D02*
X206556665Y-61563533D01*
X206556665Y-61563533D02*
X206956665Y-62263533D01*
X206956665Y-62263533D02*
X206956665Y-61563533D01*
X207656665Y-62263533D02*
X207256665Y-62263533D01*
X207456665Y-62263533D02*
X207456665Y-61563533D01*
X207456665Y-61563533D02*
X207389998Y-61663533D01*
X207389998Y-61663533D02*
X207323332Y-61730200D01*
X207323332Y-61730200D02*
X207256665Y-61763533D01*
X10538434Y-12403695D02*
X10538434Y-11403695D01*
X10538434Y-11879885D02*
X11109862Y-11879885D01*
X11109862Y-12403695D02*
X11109862Y-11403695D01*
X12014624Y-11737028D02*
X12014624Y-12403695D01*
X11776529Y-11356076D02*
X11538434Y-12070361D01*
X11538434Y-12070361D02*
X12157481Y-12070361D01*
X10538434Y-20353695D02*
X10538434Y-19353695D01*
X10538434Y-19829885D02*
X11109862Y-19829885D01*
X11109862Y-20353695D02*
X11109862Y-19353695D01*
X12062243Y-19353695D02*
X11586053Y-19353695D01*
X11586053Y-19353695D02*
X11538434Y-19829885D01*
X11538434Y-19829885D02*
X11586053Y-19782266D01*
X11586053Y-19782266D02*
X11681291Y-19734647D01*
X11681291Y-19734647D02*
X11919386Y-19734647D01*
X11919386Y-19734647D02*
X12014624Y-19782266D01*
X12014624Y-19782266D02*
X12062243Y-19829885D01*
X12062243Y-19829885D02*
X12109862Y-19925123D01*
X12109862Y-19925123D02*
X12109862Y-20163218D01*
X12109862Y-20163218D02*
X12062243Y-20258456D01*
X12062243Y-20258456D02*
X12014624Y-20306076D01*
X12014624Y-20306076D02*
X11919386Y-20353695D01*
X11919386Y-20353695D02*
X11681291Y-20353695D01*
X11681291Y-20353695D02*
X11586053Y-20306076D01*
X11586053Y-20306076D02*
X11538434Y-20258456D01*
X168079580Y-61494999D02*
X168127200Y-61447380D01*
X168127200Y-61447380D02*
X168174819Y-61494999D01*
X168174819Y-61494999D02*
X168127200Y-61542618D01*
X168127200Y-61542618D02*
X168079580Y-61494999D01*
X168079580Y-61494999D02*
X168174819Y-61494999D01*
X197561905Y-46979819D02*
X197561905Y-45979819D01*
X197561905Y-45979819D02*
X197800000Y-45979819D01*
X197800000Y-45979819D02*
X197942857Y-46027438D01*
X197942857Y-46027438D02*
X198038095Y-46122676D01*
X198038095Y-46122676D02*
X198085714Y-46217914D01*
X198085714Y-46217914D02*
X198133333Y-46408390D01*
X198133333Y-46408390D02*
X198133333Y-46551247D01*
X198133333Y-46551247D02*
X198085714Y-46741723D01*
X198085714Y-46741723D02*
X198038095Y-46836961D01*
X198038095Y-46836961D02*
X197942857Y-46932200D01*
X197942857Y-46932200D02*
X197800000Y-46979819D01*
X197800000Y-46979819D02*
X197561905Y-46979819D01*
X198514286Y-46075057D02*
X198561905Y-46027438D01*
X198561905Y-46027438D02*
X198657143Y-45979819D01*
X198657143Y-45979819D02*
X198895238Y-45979819D01*
X198895238Y-45979819D02*
X198990476Y-46027438D01*
X198990476Y-46027438D02*
X199038095Y-46075057D01*
X199038095Y-46075057D02*
X199085714Y-46170295D01*
X199085714Y-46170295D02*
X199085714Y-46265533D01*
X199085714Y-46265533D02*
X199038095Y-46408390D01*
X199038095Y-46408390D02*
X198466667Y-46979819D01*
X198466667Y-46979819D02*
X199085714Y-46979819D01*
X200100001Y-49341033D02*
X199766667Y-49341033D01*
X199766667Y-49341033D02*
X199766667Y-48641033D01*
X200333334Y-48974366D02*
X200566668Y-48974366D01*
X200666668Y-49341033D02*
X200333334Y-49341033D01*
X200333334Y-49341033D02*
X200333334Y-48641033D01*
X200333334Y-48641033D02*
X200666668Y-48641033D01*
X200966667Y-49341033D02*
X200966667Y-48641033D01*
X200966667Y-48641033D02*
X201133334Y-48641033D01*
X201133334Y-48641033D02*
X201233334Y-48674366D01*
X201233334Y-48674366D02*
X201300001Y-48741033D01*
X201300001Y-48741033D02*
X201333334Y-48807700D01*
X201333334Y-48807700D02*
X201366667Y-48941033D01*
X201366667Y-48941033D02*
X201366667Y-49041033D01*
X201366667Y-49041033D02*
X201333334Y-49174366D01*
X201333334Y-49174366D02*
X201300001Y-49241033D01*
X201300001Y-49241033D02*
X201233334Y-49307700D01*
X201233334Y-49307700D02*
X201133334Y-49341033D01*
X201133334Y-49341033D02*
X200966667Y-49341033D01*
X201500001Y-49407700D02*
X202033334Y-49407700D01*
X202566667Y-48674366D02*
X202500000Y-48641033D01*
X202500000Y-48641033D02*
X202400000Y-48641033D01*
X202400000Y-48641033D02*
X202300000Y-48674366D01*
X202300000Y-48674366D02*
X202233334Y-48741033D01*
X202233334Y-48741033D02*
X202200000Y-48807700D01*
X202200000Y-48807700D02*
X202166667Y-48941033D01*
X202166667Y-48941033D02*
X202166667Y-49041033D01*
X202166667Y-49041033D02*
X202200000Y-49174366D01*
X202200000Y-49174366D02*
X202233334Y-49241033D01*
X202233334Y-49241033D02*
X202300000Y-49307700D01*
X202300000Y-49307700D02*
X202400000Y-49341033D01*
X202400000Y-49341033D02*
X202466667Y-49341033D01*
X202466667Y-49341033D02*
X202566667Y-49307700D01*
X202566667Y-49307700D02*
X202600000Y-49274366D01*
X202600000Y-49274366D02*
X202600000Y-49041033D01*
X202600000Y-49041033D02*
X202466667Y-49041033D01*
X203300000Y-49341033D02*
X203066667Y-49007700D01*
X202900000Y-49341033D02*
X202900000Y-48641033D01*
X202900000Y-48641033D02*
X203166667Y-48641033D01*
X203166667Y-48641033D02*
X203233334Y-48674366D01*
X203233334Y-48674366D02*
X203266667Y-48707700D01*
X203266667Y-48707700D02*
X203300000Y-48774366D01*
X203300000Y-48774366D02*
X203300000Y-48874366D01*
X203300000Y-48874366D02*
X203266667Y-48941033D01*
X203266667Y-48941033D02*
X203233334Y-48974366D01*
X203233334Y-48974366D02*
X203166667Y-49007700D01*
X203166667Y-49007700D02*
X202900000Y-49007700D01*
X203600000Y-48974366D02*
X203833334Y-48974366D01*
X203933334Y-49341033D02*
X203600000Y-49341033D01*
X203600000Y-49341033D02*
X203600000Y-48641033D01*
X203600000Y-48641033D02*
X203933334Y-48641033D01*
X204233333Y-48974366D02*
X204466667Y-48974366D01*
X204566667Y-49341033D02*
X204233333Y-49341033D01*
X204233333Y-49341033D02*
X204233333Y-48641033D01*
X204233333Y-48641033D02*
X204566667Y-48641033D01*
X204866666Y-49341033D02*
X204866666Y-48641033D01*
X204866666Y-48641033D02*
X205266666Y-49341033D01*
X205266666Y-49341033D02*
X205266666Y-48641033D01*
X205433333Y-49407700D02*
X205966666Y-49407700D01*
X206133332Y-49341033D02*
X206133332Y-48641033D01*
X206466665Y-49341033D02*
X206466665Y-48641033D01*
X206466665Y-48641033D02*
X206866665Y-49341033D01*
X206866665Y-49341033D02*
X206866665Y-48641033D01*
X207166665Y-48707700D02*
X207199998Y-48674366D01*
X207199998Y-48674366D02*
X207266665Y-48641033D01*
X207266665Y-48641033D02*
X207433332Y-48641033D01*
X207433332Y-48641033D02*
X207499998Y-48674366D01*
X207499998Y-48674366D02*
X207533332Y-48707700D01*
X207533332Y-48707700D02*
X207566665Y-48774366D01*
X207566665Y-48774366D02*
X207566665Y-48841033D01*
X207566665Y-48841033D02*
X207533332Y-48941033D01*
X207533332Y-48941033D02*
X207133332Y-49341033D01*
X207133332Y-49341033D02*
X207566665Y-49341033D01*
X246508095Y-52179819D02*
X246508095Y-52989342D01*
X246508095Y-52989342D02*
X246555714Y-53084580D01*
X246555714Y-53084580D02*
X246603333Y-53132200D01*
X246603333Y-53132200D02*
X246698571Y-53179819D01*
X246698571Y-53179819D02*
X246889047Y-53179819D01*
X246889047Y-53179819D02*
X246984285Y-53132200D01*
X246984285Y-53132200D02*
X247031904Y-53084580D01*
X247031904Y-53084580D02*
X247079523Y-52989342D01*
X247079523Y-52989342D02*
X247079523Y-52179819D01*
X248031904Y-52179819D02*
X247555714Y-52179819D01*
X247555714Y-52179819D02*
X247508095Y-52656009D01*
X247508095Y-52656009D02*
X247555714Y-52608390D01*
X247555714Y-52608390D02*
X247650952Y-52560771D01*
X247650952Y-52560771D02*
X247889047Y-52560771D01*
X247889047Y-52560771D02*
X247984285Y-52608390D01*
X247984285Y-52608390D02*
X248031904Y-52656009D01*
X248031904Y-52656009D02*
X248079523Y-52751247D01*
X248079523Y-52751247D02*
X248079523Y-52989342D01*
X248079523Y-52989342D02*
X248031904Y-53084580D01*
X248031904Y-53084580D02*
X247984285Y-53132200D01*
X247984285Y-53132200D02*
X247889047Y-53179819D01*
X247889047Y-53179819D02*
X247650952Y-53179819D01*
X247650952Y-53179819D02*
X247555714Y-53132200D01*
X247555714Y-53132200D02*
X247508095Y-53084580D01*
D17*
X240596670Y-31181332D02*
X238930003Y-31181332D01*
X240930003Y-30181332D02*
X239763337Y-33681332D01*
X239763337Y-33681332D02*
X238596670Y-30181332D01*
X237430003Y-32514665D02*
X237430003Y-30181332D01*
X237430003Y-32181332D02*
X237263337Y-32347999D01*
X237263337Y-32347999D02*
X236930003Y-32514665D01*
X236930003Y-32514665D02*
X236430003Y-32514665D01*
X236430003Y-32514665D02*
X236096670Y-32347999D01*
X236096670Y-32347999D02*
X235930003Y-32014665D01*
X235930003Y-32014665D02*
X235930003Y-30181332D01*
X234763336Y-32514665D02*
X233430003Y-32514665D01*
X234263336Y-33681332D02*
X234263336Y-30681332D01*
X234263336Y-30681332D02*
X234096670Y-30347999D01*
X234096670Y-30347999D02*
X233763336Y-30181332D01*
X233763336Y-30181332D02*
X233430003Y-30181332D01*
X230930003Y-30347999D02*
X231263336Y-30181332D01*
X231263336Y-30181332D02*
X231930003Y-30181332D01*
X231930003Y-30181332D02*
X232263336Y-30347999D01*
X232263336Y-30347999D02*
X232430003Y-30681332D01*
X232430003Y-30681332D02*
X232430003Y-32014665D01*
X232430003Y-32014665D02*
X232263336Y-32347999D01*
X232263336Y-32347999D02*
X231930003Y-32514665D01*
X231930003Y-32514665D02*
X231263336Y-32514665D01*
X231263336Y-32514665D02*
X230930003Y-32347999D01*
X230930003Y-32347999D02*
X230763336Y-32014665D01*
X230763336Y-32014665D02*
X230763336Y-31681332D01*
X230763336Y-31681332D02*
X232430003Y-31347999D01*
X229263336Y-32514665D02*
X229263336Y-30181332D01*
X229263336Y-32181332D02*
X229096670Y-32347999D01*
X229096670Y-32347999D02*
X228763336Y-32514665D01*
X228763336Y-32514665D02*
X228263336Y-32514665D01*
X228263336Y-32514665D02*
X227930003Y-32347999D01*
X227930003Y-32347999D02*
X227763336Y-32014665D01*
X227763336Y-32014665D02*
X227763336Y-30181332D01*
X226096669Y-32514665D02*
X226096669Y-30181332D01*
X226096669Y-32181332D02*
X225930003Y-32347999D01*
X225930003Y-32347999D02*
X225596669Y-32514665D01*
X225596669Y-32514665D02*
X225096669Y-32514665D01*
X225096669Y-32514665D02*
X224763336Y-32347999D01*
X224763336Y-32347999D02*
X224596669Y-32014665D01*
X224596669Y-32014665D02*
X224596669Y-30181332D01*
X221430002Y-30181332D02*
X221430002Y-32014665D01*
X221430002Y-32014665D02*
X221596669Y-32347999D01*
X221596669Y-32347999D02*
X221930002Y-32514665D01*
X221930002Y-32514665D02*
X222596669Y-32514665D01*
X222596669Y-32514665D02*
X222930002Y-32347999D01*
X221430002Y-30347999D02*
X221763336Y-30181332D01*
X221763336Y-30181332D02*
X222596669Y-30181332D01*
X222596669Y-30181332D02*
X222930002Y-30347999D01*
X222930002Y-30347999D02*
X223096669Y-30681332D01*
X223096669Y-30681332D02*
X223096669Y-31014665D01*
X223096669Y-31014665D02*
X222930002Y-31347999D01*
X222930002Y-31347999D02*
X222596669Y-31514665D01*
X222596669Y-31514665D02*
X221763336Y-31514665D01*
X221763336Y-31514665D02*
X221430002Y-31681332D01*
D16*
D18*
X225871431Y-78352285D02*
X225871431Y-81995142D01*
X225871431Y-81995142D02*
X226085717Y-82423714D01*
X226085717Y-82423714D02*
X226300003Y-82638000D01*
X226300003Y-82638000D02*
X226728574Y-82852285D01*
X226728574Y-82852285D02*
X227585717Y-82852285D01*
X227585717Y-82852285D02*
X228014288Y-82638000D01*
X228014288Y-82638000D02*
X228228574Y-82423714D01*
X228228574Y-82423714D02*
X228442860Y-81995142D01*
X228442860Y-81995142D02*
X228442860Y-78352285D01*
X230371431Y-82638000D02*
X231014289Y-82852285D01*
X231014289Y-82852285D02*
X232085717Y-82852285D01*
X232085717Y-82852285D02*
X232514289Y-82638000D01*
X232514289Y-82638000D02*
X232728574Y-82423714D01*
X232728574Y-82423714D02*
X232942860Y-81995142D01*
X232942860Y-81995142D02*
X232942860Y-81566571D01*
X232942860Y-81566571D02*
X232728574Y-81138000D01*
X232728574Y-81138000D02*
X232514289Y-80923714D01*
X232514289Y-80923714D02*
X232085717Y-80709428D01*
X232085717Y-80709428D02*
X231228574Y-80495142D01*
X231228574Y-80495142D02*
X230800003Y-80280857D01*
X230800003Y-80280857D02*
X230585717Y-80066571D01*
X230585717Y-80066571D02*
X230371431Y-79638000D01*
X230371431Y-79638000D02*
X230371431Y-79209428D01*
X230371431Y-79209428D02*
X230585717Y-78780857D01*
X230585717Y-78780857D02*
X230800003Y-78566571D01*
X230800003Y-78566571D02*
X231228574Y-78352285D01*
X231228574Y-78352285D02*
X232300003Y-78352285D01*
X232300003Y-78352285D02*
X232942860Y-78566571D01*
X236371431Y-80495142D02*
X237014288Y-80709428D01*
X237014288Y-80709428D02*
X237228574Y-80923714D01*
X237228574Y-80923714D02*
X237442860Y-81352285D01*
X237442860Y-81352285D02*
X237442860Y-81995142D01*
X237442860Y-81995142D02*
X237228574Y-82423714D01*
X237228574Y-82423714D02*
X237014288Y-82638000D01*
X237014288Y-82638000D02*
X236585717Y-82852285D01*
X236585717Y-82852285D02*
X234871431Y-82852285D01*
X234871431Y-82852285D02*
X234871431Y-78352285D01*
X234871431Y-78352285D02*
X236371431Y-78352285D01*
X236371431Y-78352285D02*
X236800003Y-78566571D01*
X236800003Y-78566571D02*
X237014288Y-78780857D01*
X237014288Y-78780857D02*
X237228574Y-79209428D01*
X237228574Y-79209428D02*
X237228574Y-79638000D01*
X237228574Y-79638000D02*
X237014288Y-80066571D01*
X237014288Y-80066571D02*
X236800003Y-80280857D01*
X236800003Y-80280857D02*
X236371431Y-80495142D01*
X236371431Y-80495142D02*
X234871431Y-80495142D01*
D16*
X222697142Y-68776009D02*
X223030475Y-68776009D01*
X223173332Y-69299819D02*
X222697142Y-69299819D01*
X222697142Y-69299819D02*
X222697142Y-68299819D01*
X222697142Y-68299819D02*
X223173332Y-68299819D01*
X223554285Y-69252200D02*
X223697142Y-69299819D01*
X223697142Y-69299819D02*
X223935237Y-69299819D01*
X223935237Y-69299819D02*
X224030475Y-69252200D01*
X224030475Y-69252200D02*
X224078094Y-69204580D01*
X224078094Y-69204580D02*
X224125713Y-69109342D01*
X224125713Y-69109342D02*
X224125713Y-69014104D01*
X224125713Y-69014104D02*
X224078094Y-68918866D01*
X224078094Y-68918866D02*
X224030475Y-68871247D01*
X224030475Y-68871247D02*
X223935237Y-68823628D01*
X223935237Y-68823628D02*
X223744761Y-68776009D01*
X223744761Y-68776009D02*
X223649523Y-68728390D01*
X223649523Y-68728390D02*
X223601904Y-68680771D01*
X223601904Y-68680771D02*
X223554285Y-68585533D01*
X223554285Y-68585533D02*
X223554285Y-68490295D01*
X223554285Y-68490295D02*
X223601904Y-68395057D01*
X223601904Y-68395057D02*
X223649523Y-68347438D01*
X223649523Y-68347438D02*
X223744761Y-68299819D01*
X223744761Y-68299819D02*
X223982856Y-68299819D01*
X223982856Y-68299819D02*
X224125713Y-68347438D01*
X224554285Y-69299819D02*
X224554285Y-68299819D01*
X224554285Y-68299819D02*
X224935237Y-68299819D01*
X224935237Y-68299819D02*
X225030475Y-68347438D01*
X225030475Y-68347438D02*
X225078094Y-68395057D01*
X225078094Y-68395057D02*
X225125713Y-68490295D01*
X225125713Y-68490295D02*
X225125713Y-68633152D01*
X225125713Y-68633152D02*
X225078094Y-68728390D01*
X225078094Y-68728390D02*
X225030475Y-68776009D01*
X225030475Y-68776009D02*
X224935237Y-68823628D01*
X224935237Y-68823628D02*
X224554285Y-68823628D01*
X225459047Y-68299819D02*
X226078094Y-68299819D01*
X226078094Y-68299819D02*
X225744761Y-68680771D01*
X225744761Y-68680771D02*
X225887618Y-68680771D01*
X225887618Y-68680771D02*
X225982856Y-68728390D01*
X225982856Y-68728390D02*
X226030475Y-68776009D01*
X226030475Y-68776009D02*
X226078094Y-68871247D01*
X226078094Y-68871247D02*
X226078094Y-69109342D01*
X226078094Y-69109342D02*
X226030475Y-69204580D01*
X226030475Y-69204580D02*
X225982856Y-69252200D01*
X225982856Y-69252200D02*
X225887618Y-69299819D01*
X225887618Y-69299819D02*
X225601904Y-69299819D01*
X225601904Y-69299819D02*
X225506666Y-69252200D01*
X225506666Y-69252200D02*
X225459047Y-69204580D01*
X226459047Y-68395057D02*
X226506666Y-68347438D01*
X226506666Y-68347438D02*
X226601904Y-68299819D01*
X226601904Y-68299819D02*
X226839999Y-68299819D01*
X226839999Y-68299819D02*
X226935237Y-68347438D01*
X226935237Y-68347438D02*
X226982856Y-68395057D01*
X226982856Y-68395057D02*
X227030475Y-68490295D01*
X227030475Y-68490295D02*
X227030475Y-68585533D01*
X227030475Y-68585533D02*
X226982856Y-68728390D01*
X226982856Y-68728390D02*
X226411428Y-69299819D01*
X226411428Y-69299819D02*
X227030475Y-69299819D01*
X228220952Y-68918866D02*
X228982857Y-68918866D01*
X230220952Y-69299819D02*
X230220952Y-68299819D01*
X230220952Y-68299819D02*
X230459047Y-68299819D01*
X230459047Y-68299819D02*
X230601904Y-68347438D01*
X230601904Y-68347438D02*
X230697142Y-68442676D01*
X230697142Y-68442676D02*
X230744761Y-68537914D01*
X230744761Y-68537914D02*
X230792380Y-68728390D01*
X230792380Y-68728390D02*
X230792380Y-68871247D01*
X230792380Y-68871247D02*
X230744761Y-69061723D01*
X230744761Y-69061723D02*
X230697142Y-69156961D01*
X230697142Y-69156961D02*
X230601904Y-69252200D01*
X230601904Y-69252200D02*
X230459047Y-69299819D01*
X230459047Y-69299819D02*
X230220952Y-69299819D01*
X231601904Y-69252200D02*
X231506666Y-69299819D01*
X231506666Y-69299819D02*
X231316190Y-69299819D01*
X231316190Y-69299819D02*
X231220952Y-69252200D01*
X231220952Y-69252200D02*
X231173333Y-69156961D01*
X231173333Y-69156961D02*
X231173333Y-68776009D01*
X231173333Y-68776009D02*
X231220952Y-68680771D01*
X231220952Y-68680771D02*
X231316190Y-68633152D01*
X231316190Y-68633152D02*
X231506666Y-68633152D01*
X231506666Y-68633152D02*
X231601904Y-68680771D01*
X231601904Y-68680771D02*
X231649523Y-68776009D01*
X231649523Y-68776009D02*
X231649523Y-68871247D01*
X231649523Y-68871247D02*
X231173333Y-68966485D01*
X231982857Y-68633152D02*
X232220952Y-69299819D01*
X232220952Y-69299819D02*
X232459047Y-68633152D01*
X233601905Y-69299819D02*
X233601905Y-68299819D01*
X234173333Y-69299819D02*
X233744762Y-68728390D01*
X234173333Y-68299819D02*
X233601905Y-68871247D01*
X234601905Y-69299819D02*
X234601905Y-68633152D01*
X234601905Y-68299819D02*
X234554286Y-68347438D01*
X234554286Y-68347438D02*
X234601905Y-68395057D01*
X234601905Y-68395057D02*
X234649524Y-68347438D01*
X234649524Y-68347438D02*
X234601905Y-68299819D01*
X234601905Y-68299819D02*
X234601905Y-68395057D01*
X234935238Y-68633152D02*
X235316190Y-68633152D01*
X235078095Y-68299819D02*
X235078095Y-69156961D01*
X235078095Y-69156961D02*
X235125714Y-69252200D01*
X235125714Y-69252200D02*
X235220952Y-69299819D01*
X235220952Y-69299819D02*
X235316190Y-69299819D01*
X236316191Y-68299819D02*
X236935238Y-68299819D01*
X236935238Y-68299819D02*
X236601905Y-68680771D01*
X236601905Y-68680771D02*
X236744762Y-68680771D01*
X236744762Y-68680771D02*
X236840000Y-68728390D01*
X236840000Y-68728390D02*
X236887619Y-68776009D01*
X236887619Y-68776009D02*
X236935238Y-68871247D01*
X236935238Y-68871247D02*
X236935238Y-69109342D01*
X236935238Y-69109342D02*
X236887619Y-69204580D01*
X236887619Y-69204580D02*
X236840000Y-69252200D01*
X236840000Y-69252200D02*
X236744762Y-69299819D01*
X236744762Y-69299819D02*
X236459048Y-69299819D01*
X236459048Y-69299819D02*
X236363810Y-69252200D01*
X236363810Y-69252200D02*
X236316191Y-69204580D01*
X237554286Y-68299819D02*
X237649524Y-68299819D01*
X237649524Y-68299819D02*
X237744762Y-68347438D01*
X237744762Y-68347438D02*
X237792381Y-68395057D01*
X237792381Y-68395057D02*
X237840000Y-68490295D01*
X237840000Y-68490295D02*
X237887619Y-68680771D01*
X237887619Y-68680771D02*
X237887619Y-68918866D01*
X237887619Y-68918866D02*
X237840000Y-69109342D01*
X237840000Y-69109342D02*
X237792381Y-69204580D01*
X237792381Y-69204580D02*
X237744762Y-69252200D01*
X237744762Y-69252200D02*
X237649524Y-69299819D01*
X237649524Y-69299819D02*
X237554286Y-69299819D01*
X237554286Y-69299819D02*
X237459048Y-69252200D01*
X237459048Y-69252200D02*
X237411429Y-69204580D01*
X237411429Y-69204580D02*
X237363810Y-69109342D01*
X237363810Y-69109342D02*
X237316191Y-68918866D01*
X237316191Y-68918866D02*
X237316191Y-68680771D01*
X237316191Y-68680771D02*
X237363810Y-68490295D01*
X237363810Y-68490295D02*
X237411429Y-68395057D01*
X237411429Y-68395057D02*
X237459048Y-68347438D01*
X237459048Y-68347438D02*
X237554286Y-68299819D01*
X239078096Y-69299819D02*
X239078096Y-68299819D01*
X239078096Y-68299819D02*
X239459048Y-68299819D01*
X239459048Y-68299819D02*
X239554286Y-68347438D01*
X239554286Y-68347438D02*
X239601905Y-68395057D01*
X239601905Y-68395057D02*
X239649524Y-68490295D01*
X239649524Y-68490295D02*
X239649524Y-68633152D01*
X239649524Y-68633152D02*
X239601905Y-68728390D01*
X239601905Y-68728390D02*
X239554286Y-68776009D01*
X239554286Y-68776009D02*
X239459048Y-68823628D01*
X239459048Y-68823628D02*
X239078096Y-68823628D01*
X240078096Y-69299819D02*
X240078096Y-68633152D01*
X240078096Y-68299819D02*
X240030477Y-68347438D01*
X240030477Y-68347438D02*
X240078096Y-68395057D01*
X240078096Y-68395057D02*
X240125715Y-68347438D01*
X240125715Y-68347438D02*
X240078096Y-68299819D01*
X240078096Y-68299819D02*
X240078096Y-68395057D01*
X240554286Y-68633152D02*
X240554286Y-69299819D01*
X240554286Y-68728390D02*
X240601905Y-68680771D01*
X240601905Y-68680771D02*
X240697143Y-68633152D01*
X240697143Y-68633152D02*
X240840000Y-68633152D01*
X240840000Y-68633152D02*
X240935238Y-68680771D01*
X240935238Y-68680771D02*
X240982857Y-68776009D01*
X240982857Y-68776009D02*
X240982857Y-69299819D01*
X177671905Y-51499819D02*
X177671905Y-50499819D01*
X177671905Y-50499819D02*
X177910000Y-50499819D01*
X177910000Y-50499819D02*
X178052857Y-50547438D01*
X178052857Y-50547438D02*
X178148095Y-50642676D01*
X178148095Y-50642676D02*
X178195714Y-50737914D01*
X178195714Y-50737914D02*
X178243333Y-50928390D01*
X178243333Y-50928390D02*
X178243333Y-51071247D01*
X178243333Y-51071247D02*
X178195714Y-51261723D01*
X178195714Y-51261723D02*
X178148095Y-51356961D01*
X178148095Y-51356961D02*
X178052857Y-51452200D01*
X178052857Y-51452200D02*
X177910000Y-51499819D01*
X177910000Y-51499819D02*
X177671905Y-51499819D01*
X178576667Y-50499819D02*
X179243333Y-50499819D01*
X179243333Y-50499819D02*
X178814762Y-51499819D01*
X177863334Y-56051033D02*
X177530000Y-56051033D01*
X177530000Y-56051033D02*
X177530000Y-55351033D01*
X178096667Y-55684366D02*
X178330001Y-55684366D01*
X178430001Y-56051033D02*
X178096667Y-56051033D01*
X178096667Y-56051033D02*
X178096667Y-55351033D01*
X178096667Y-55351033D02*
X178430001Y-55351033D01*
X178730000Y-56051033D02*
X178730000Y-55351033D01*
X178730000Y-55351033D02*
X178896667Y-55351033D01*
X178896667Y-55351033D02*
X178996667Y-55384366D01*
X178996667Y-55384366D02*
X179063334Y-55451033D01*
X179063334Y-55451033D02*
X179096667Y-55517700D01*
X179096667Y-55517700D02*
X179130000Y-55651033D01*
X179130000Y-55651033D02*
X179130000Y-55751033D01*
X179130000Y-55751033D02*
X179096667Y-55884366D01*
X179096667Y-55884366D02*
X179063334Y-55951033D01*
X179063334Y-55951033D02*
X178996667Y-56017700D01*
X178996667Y-56017700D02*
X178896667Y-56051033D01*
X178896667Y-56051033D02*
X178730000Y-56051033D01*
X179263334Y-56117700D02*
X179796667Y-56117700D01*
X180363333Y-56051033D02*
X180130000Y-55717700D01*
X179963333Y-56051033D02*
X179963333Y-55351033D01*
X179963333Y-55351033D02*
X180230000Y-55351033D01*
X180230000Y-55351033D02*
X180296667Y-55384366D01*
X180296667Y-55384366D02*
X180330000Y-55417700D01*
X180330000Y-55417700D02*
X180363333Y-55484366D01*
X180363333Y-55484366D02*
X180363333Y-55584366D01*
X180363333Y-55584366D02*
X180330000Y-55651033D01*
X180330000Y-55651033D02*
X180296667Y-55684366D01*
X180296667Y-55684366D02*
X180230000Y-55717700D01*
X180230000Y-55717700D02*
X179963333Y-55717700D01*
X180663333Y-55684366D02*
X180896667Y-55684366D01*
X180996667Y-56051033D02*
X180663333Y-56051033D01*
X180663333Y-56051033D02*
X180663333Y-55351033D01*
X180663333Y-55351033D02*
X180996667Y-55351033D01*
X181296666Y-56051033D02*
X181296666Y-55351033D01*
X181296666Y-55351033D02*
X181463333Y-55351033D01*
X181463333Y-55351033D02*
X181563333Y-55384366D01*
X181563333Y-55384366D02*
X181630000Y-55451033D01*
X181630000Y-55451033D02*
X181663333Y-55517700D01*
X181663333Y-55517700D02*
X181696666Y-55651033D01*
X181696666Y-55651033D02*
X181696666Y-55751033D01*
X181696666Y-55751033D02*
X181663333Y-55884366D01*
X181663333Y-55884366D02*
X181630000Y-55951033D01*
X181630000Y-55951033D02*
X181563333Y-56017700D01*
X181563333Y-56017700D02*
X181463333Y-56051033D01*
X181463333Y-56051033D02*
X181296666Y-56051033D01*
X181830000Y-56117700D02*
X182363333Y-56117700D01*
X182529999Y-56051033D02*
X182529999Y-55351033D01*
X182863332Y-56051033D02*
X182863332Y-55351033D01*
X182863332Y-55351033D02*
X183263332Y-56051033D01*
X183263332Y-56051033D02*
X183263332Y-55351033D01*
X183896665Y-55584366D02*
X183896665Y-56051033D01*
X183729999Y-55317700D02*
X183563332Y-55817700D01*
X183563332Y-55817700D02*
X183996665Y-55817700D01*
X168603333Y-31174580D02*
X168555714Y-31222200D01*
X168555714Y-31222200D02*
X168412857Y-31269819D01*
X168412857Y-31269819D02*
X168317619Y-31269819D01*
X168317619Y-31269819D02*
X168174762Y-31222200D01*
X168174762Y-31222200D02*
X168079524Y-31126961D01*
X168079524Y-31126961D02*
X168031905Y-31031723D01*
X168031905Y-31031723D02*
X167984286Y-30841247D01*
X167984286Y-30841247D02*
X167984286Y-30698390D01*
X167984286Y-30698390D02*
X168031905Y-30507914D01*
X168031905Y-30507914D02*
X168079524Y-30412676D01*
X168079524Y-30412676D02*
X168174762Y-30317438D01*
X168174762Y-30317438D02*
X168317619Y-30269819D01*
X168317619Y-30269819D02*
X168412857Y-30269819D01*
X168412857Y-30269819D02*
X168555714Y-30317438D01*
X168555714Y-30317438D02*
X168603333Y-30365057D01*
X169508095Y-30269819D02*
X169031905Y-30269819D01*
X169031905Y-30269819D02*
X168984286Y-30746009D01*
X168984286Y-30746009D02*
X169031905Y-30698390D01*
X169031905Y-30698390D02*
X169127143Y-30650771D01*
X169127143Y-30650771D02*
X169365238Y-30650771D01*
X169365238Y-30650771D02*
X169460476Y-30698390D01*
X169460476Y-30698390D02*
X169508095Y-30746009D01*
X169508095Y-30746009D02*
X169555714Y-30841247D01*
X169555714Y-30841247D02*
X169555714Y-31079342D01*
X169555714Y-31079342D02*
X169508095Y-31174580D01*
X169508095Y-31174580D02*
X169460476Y-31222200D01*
X169460476Y-31222200D02*
X169365238Y-31269819D01*
X169365238Y-31269819D02*
X169127143Y-31269819D01*
X169127143Y-31269819D02*
X169031905Y-31222200D01*
X169031905Y-31222200D02*
X168984286Y-31174580D01*
X166323333Y-32789819D02*
X165751905Y-32789819D01*
X166037619Y-32789819D02*
X166037619Y-31789819D01*
X166037619Y-31789819D02*
X165942381Y-31932676D01*
X165942381Y-31932676D02*
X165847143Y-32027914D01*
X165847143Y-32027914D02*
X165751905Y-32075533D01*
X166942381Y-31789819D02*
X167037619Y-31789819D01*
X167037619Y-31789819D02*
X167132857Y-31837438D01*
X167132857Y-31837438D02*
X167180476Y-31885057D01*
X167180476Y-31885057D02*
X167228095Y-31980295D01*
X167228095Y-31980295D02*
X167275714Y-32170771D01*
X167275714Y-32170771D02*
X167275714Y-32408866D01*
X167275714Y-32408866D02*
X167228095Y-32599342D01*
X167228095Y-32599342D02*
X167180476Y-32694580D01*
X167180476Y-32694580D02*
X167132857Y-32742200D01*
X167132857Y-32742200D02*
X167037619Y-32789819D01*
X167037619Y-32789819D02*
X166942381Y-32789819D01*
X166942381Y-32789819D02*
X166847143Y-32742200D01*
X166847143Y-32742200D02*
X166799524Y-32694580D01*
X166799524Y-32694580D02*
X166751905Y-32599342D01*
X166751905Y-32599342D02*
X166704286Y-32408866D01*
X166704286Y-32408866D02*
X166704286Y-32170771D01*
X166704286Y-32170771D02*
X166751905Y-31980295D01*
X166751905Y-31980295D02*
X166799524Y-31885057D01*
X166799524Y-31885057D02*
X166847143Y-31837438D01*
X166847143Y-31837438D02*
X166942381Y-31789819D01*
X167894762Y-31789819D02*
X167990000Y-31789819D01*
X167990000Y-31789819D02*
X168085238Y-31837438D01*
X168085238Y-31837438D02*
X168132857Y-31885057D01*
X168132857Y-31885057D02*
X168180476Y-31980295D01*
X168180476Y-31980295D02*
X168228095Y-32170771D01*
X168228095Y-32170771D02*
X168228095Y-32408866D01*
X168228095Y-32408866D02*
X168180476Y-32599342D01*
X168180476Y-32599342D02*
X168132857Y-32694580D01*
X168132857Y-32694580D02*
X168085238Y-32742200D01*
X168085238Y-32742200D02*
X167990000Y-32789819D01*
X167990000Y-32789819D02*
X167894762Y-32789819D01*
X167894762Y-32789819D02*
X167799524Y-32742200D01*
X167799524Y-32742200D02*
X167751905Y-32694580D01*
X167751905Y-32694580D02*
X167704286Y-32599342D01*
X167704286Y-32599342D02*
X167656667Y-32408866D01*
X167656667Y-32408866D02*
X167656667Y-32170771D01*
X167656667Y-32170771D02*
X167704286Y-31980295D01*
X167704286Y-31980295D02*
X167751905Y-31885057D01*
X167751905Y-31885057D02*
X167799524Y-31837438D01*
X167799524Y-31837438D02*
X167894762Y-31789819D01*
X168847143Y-31789819D02*
X168942381Y-31789819D01*
X168942381Y-31789819D02*
X169037619Y-31837438D01*
X169037619Y-31837438D02*
X169085238Y-31885057D01*
X169085238Y-31885057D02*
X169132857Y-31980295D01*
X169132857Y-31980295D02*
X169180476Y-32170771D01*
X169180476Y-32170771D02*
X169180476Y-32408866D01*
X169180476Y-32408866D02*
X169132857Y-32599342D01*
X169132857Y-32599342D02*
X169085238Y-32694580D01*
X169085238Y-32694580D02*
X169037619Y-32742200D01*
X169037619Y-32742200D02*
X168942381Y-32789819D01*
X168942381Y-32789819D02*
X168847143Y-32789819D01*
X168847143Y-32789819D02*
X168751905Y-32742200D01*
X168751905Y-32742200D02*
X168704286Y-32694580D01*
X168704286Y-32694580D02*
X168656667Y-32599342D01*
X168656667Y-32599342D02*
X168609048Y-32408866D01*
X168609048Y-32408866D02*
X168609048Y-32170771D01*
X168609048Y-32170771D02*
X168656667Y-31980295D01*
X168656667Y-31980295D02*
X168704286Y-31885057D01*
X168704286Y-31885057D02*
X168751905Y-31837438D01*
X168751905Y-31837438D02*
X168847143Y-31789819D01*
X169609048Y-32789819D02*
X169609048Y-32123152D01*
X169609048Y-32218390D02*
X169656667Y-32170771D01*
X169656667Y-32170771D02*
X169751905Y-32123152D01*
X169751905Y-32123152D02*
X169894762Y-32123152D01*
X169894762Y-32123152D02*
X169990000Y-32170771D01*
X169990000Y-32170771D02*
X170037619Y-32266009D01*
X170037619Y-32266009D02*
X170037619Y-32789819D01*
X170037619Y-32266009D02*
X170085238Y-32170771D01*
X170085238Y-32170771D02*
X170180476Y-32123152D01*
X170180476Y-32123152D02*
X170323333Y-32123152D01*
X170323333Y-32123152D02*
X170418572Y-32170771D01*
X170418572Y-32170771D02*
X170466191Y-32266009D01*
X170466191Y-32266009D02*
X170466191Y-32789819D01*
X170799524Y-32123152D02*
X171180476Y-32123152D01*
X170942381Y-32789819D02*
X170942381Y-31932676D01*
X170942381Y-31932676D02*
X170990000Y-31837438D01*
X170990000Y-31837438D02*
X171085238Y-31789819D01*
X171085238Y-31789819D02*
X171180476Y-31789819D01*
X171942381Y-32789819D02*
X171942381Y-31789819D01*
X171942381Y-32742200D02*
X171847143Y-32789819D01*
X171847143Y-32789819D02*
X171656667Y-32789819D01*
X171656667Y-32789819D02*
X171561429Y-32742200D01*
X171561429Y-32742200D02*
X171513810Y-32694580D01*
X171513810Y-32694580D02*
X171466191Y-32599342D01*
X171466191Y-32599342D02*
X171466191Y-32313628D01*
X171466191Y-32313628D02*
X171513810Y-32218390D01*
X171513810Y-32218390D02*
X171561429Y-32170771D01*
X171561429Y-32170771D02*
X171656667Y-32123152D01*
X171656667Y-32123152D02*
X171847143Y-32123152D01*
X171847143Y-32123152D02*
X171942381Y-32170771D01*
X172466191Y-32742200D02*
X172466191Y-32789819D01*
X172466191Y-32789819D02*
X172418572Y-32885057D01*
X172418572Y-32885057D02*
X172370953Y-32932676D01*
X172847143Y-31885057D02*
X172894762Y-31837438D01*
X172894762Y-31837438D02*
X172990000Y-31789819D01*
X172990000Y-31789819D02*
X173228095Y-31789819D01*
X173228095Y-31789819D02*
X173323333Y-31837438D01*
X173323333Y-31837438D02*
X173370952Y-31885057D01*
X173370952Y-31885057D02*
X173418571Y-31980295D01*
X173418571Y-31980295D02*
X173418571Y-32075533D01*
X173418571Y-32075533D02*
X173370952Y-32218390D01*
X173370952Y-32218390D02*
X172799524Y-32789819D01*
X172799524Y-32789819D02*
X173418571Y-32789819D01*
X174323333Y-31789819D02*
X173847143Y-31789819D01*
X173847143Y-31789819D02*
X173799524Y-32266009D01*
X173799524Y-32266009D02*
X173847143Y-32218390D01*
X173847143Y-32218390D02*
X173942381Y-32170771D01*
X173942381Y-32170771D02*
X174180476Y-32170771D01*
X174180476Y-32170771D02*
X174275714Y-32218390D01*
X174275714Y-32218390D02*
X174323333Y-32266009D01*
X174323333Y-32266009D02*
X174370952Y-32361247D01*
X174370952Y-32361247D02*
X174370952Y-32599342D01*
X174370952Y-32599342D02*
X174323333Y-32694580D01*
X174323333Y-32694580D02*
X174275714Y-32742200D01*
X174275714Y-32742200D02*
X174180476Y-32789819D01*
X174180476Y-32789819D02*
X173942381Y-32789819D01*
X173942381Y-32789819D02*
X173847143Y-32742200D01*
X173847143Y-32742200D02*
X173799524Y-32694580D01*
X174656667Y-31789819D02*
X174990000Y-32789819D01*
X174990000Y-32789819D02*
X175323333Y-31789819D01*
X169646666Y-64989819D02*
X169646666Y-65704104D01*
X169646666Y-65704104D02*
X169599047Y-65846961D01*
X169599047Y-65846961D02*
X169503809Y-65942200D01*
X169503809Y-65942200D02*
X169360952Y-65989819D01*
X169360952Y-65989819D02*
X169265714Y-65989819D01*
X170027619Y-64989819D02*
X170646666Y-64989819D01*
X170646666Y-64989819D02*
X170313333Y-65370771D01*
X170313333Y-65370771D02*
X170456190Y-65370771D01*
X170456190Y-65370771D02*
X170551428Y-65418390D01*
X170551428Y-65418390D02*
X170599047Y-65466009D01*
X170599047Y-65466009D02*
X170646666Y-65561247D01*
X170646666Y-65561247D02*
X170646666Y-65799342D01*
X170646666Y-65799342D02*
X170599047Y-65894580D01*
X170599047Y-65894580D02*
X170551428Y-65942200D01*
X170551428Y-65942200D02*
X170456190Y-65989819D01*
X170456190Y-65989819D02*
X170170476Y-65989819D01*
X170170476Y-65989819D02*
X170075238Y-65942200D01*
X170075238Y-65942200D02*
X170027619Y-65894580D01*
X10538434Y3496304D02*
X10538434Y4496304D01*
X10538434Y4020114D02*
X11109862Y4020114D01*
X11109862Y3496304D02*
X11109862Y4496304D01*
X12109862Y3496304D02*
X11538434Y3496304D01*
X11824148Y3496304D02*
X11824148Y4496304D01*
X11824148Y4496304D02*
X11728910Y4353447D01*
X11728910Y4353447D02*
X11633672Y4258209D01*
X11633672Y4258209D02*
X11538434Y4210590D01*
X207871666Y-64889819D02*
X207871666Y-65604104D01*
X207871666Y-65604104D02*
X207824047Y-65746961D01*
X207824047Y-65746961D02*
X207728809Y-65842200D01*
X207728809Y-65842200D02*
X207585952Y-65889819D01*
X207585952Y-65889819D02*
X207490714Y-65889819D01*
X208871666Y-65889819D02*
X208300238Y-65889819D01*
X208585952Y-65889819D02*
X208585952Y-64889819D01*
X208585952Y-64889819D02*
X208490714Y-65032676D01*
X208490714Y-65032676D02*
X208395476Y-65127914D01*
X208395476Y-65127914D02*
X208300238Y-65175533D01*
X212084580Y-43424999D02*
X212132200Y-43377380D01*
X212132200Y-43377380D02*
X212179819Y-43424999D01*
X212179819Y-43424999D02*
X212132200Y-43472618D01*
X212132200Y-43472618D02*
X212084580Y-43424999D01*
X212084580Y-43424999D02*
X212179819Y-43424999D01*
X176525714Y-41302319D02*
X176525714Y-40302319D01*
X176525714Y-40302319D02*
X176763809Y-40302319D01*
X176763809Y-40302319D02*
X176906666Y-40349938D01*
X176906666Y-40349938D02*
X177001904Y-40445176D01*
X177001904Y-40445176D02*
X177049523Y-40540414D01*
X177049523Y-40540414D02*
X177097142Y-40730890D01*
X177097142Y-40730890D02*
X177097142Y-40873747D01*
X177097142Y-40873747D02*
X177049523Y-41064223D01*
X177049523Y-41064223D02*
X177001904Y-41159461D01*
X177001904Y-41159461D02*
X176906666Y-41254700D01*
X176906666Y-41254700D02*
X176763809Y-41302319D01*
X176763809Y-41302319D02*
X176525714Y-41302319D01*
X178049523Y-41302319D02*
X177478095Y-41302319D01*
X177763809Y-41302319D02*
X177763809Y-40302319D01*
X177763809Y-40302319D02*
X177668571Y-40445176D01*
X177668571Y-40445176D02*
X177573333Y-40540414D01*
X177573333Y-40540414D02*
X177478095Y-40588033D01*
X178382857Y-40302319D02*
X179001904Y-40302319D01*
X179001904Y-40302319D02*
X178668571Y-40683271D01*
X178668571Y-40683271D02*
X178811428Y-40683271D01*
X178811428Y-40683271D02*
X178906666Y-40730890D01*
X178906666Y-40730890D02*
X178954285Y-40778509D01*
X178954285Y-40778509D02*
X179001904Y-40873747D01*
X179001904Y-40873747D02*
X179001904Y-41111842D01*
X179001904Y-41111842D02*
X178954285Y-41207080D01*
X178954285Y-41207080D02*
X178906666Y-41254700D01*
X178906666Y-41254700D02*
X178811428Y-41302319D01*
X178811428Y-41302319D02*
X178525714Y-41302319D01*
X178525714Y-41302319D02*
X178430476Y-41254700D01*
X178430476Y-41254700D02*
X178382857Y-41207080D01*
X176870001Y-43661033D02*
X176536667Y-43661033D01*
X176536667Y-43661033D02*
X176536667Y-42961033D01*
X177103334Y-43294366D02*
X177336668Y-43294366D01*
X177436668Y-43661033D02*
X177103334Y-43661033D01*
X177103334Y-43661033D02*
X177103334Y-42961033D01*
X177103334Y-42961033D02*
X177436668Y-42961033D01*
X177736667Y-43661033D02*
X177736667Y-42961033D01*
X177736667Y-42961033D02*
X177903334Y-42961033D01*
X177903334Y-42961033D02*
X178003334Y-42994366D01*
X178003334Y-42994366D02*
X178070001Y-43061033D01*
X178070001Y-43061033D02*
X178103334Y-43127700D01*
X178103334Y-43127700D02*
X178136667Y-43261033D01*
X178136667Y-43261033D02*
X178136667Y-43361033D01*
X178136667Y-43361033D02*
X178103334Y-43494366D01*
X178103334Y-43494366D02*
X178070001Y-43561033D01*
X178070001Y-43561033D02*
X178003334Y-43627700D01*
X178003334Y-43627700D02*
X177903334Y-43661033D01*
X177903334Y-43661033D02*
X177736667Y-43661033D01*
X178270001Y-43727700D02*
X178803334Y-43727700D01*
X179103334Y-43327700D02*
X179103334Y-43661033D01*
X178870000Y-42961033D02*
X179103334Y-43327700D01*
X179103334Y-43327700D02*
X179336667Y-42961033D01*
X179836667Y-43627700D02*
X179770000Y-43661033D01*
X179770000Y-43661033D02*
X179636667Y-43661033D01*
X179636667Y-43661033D02*
X179570000Y-43627700D01*
X179570000Y-43627700D02*
X179536667Y-43561033D01*
X179536667Y-43561033D02*
X179536667Y-43294366D01*
X179536667Y-43294366D02*
X179570000Y-43227700D01*
X179570000Y-43227700D02*
X179636667Y-43194366D01*
X179636667Y-43194366D02*
X179770000Y-43194366D01*
X179770000Y-43194366D02*
X179836667Y-43227700D01*
X179836667Y-43227700D02*
X179870000Y-43294366D01*
X179870000Y-43294366D02*
X179870000Y-43361033D01*
X179870000Y-43361033D02*
X179536667Y-43427700D01*
X180270000Y-43661033D02*
X180203334Y-43627700D01*
X180203334Y-43627700D02*
X180170000Y-43561033D01*
X180170000Y-43561033D02*
X180170000Y-42961033D01*
X180636667Y-43661033D02*
X180570001Y-43627700D01*
X180570001Y-43627700D02*
X180536667Y-43561033D01*
X180536667Y-43561033D02*
X180536667Y-42961033D01*
X181003334Y-43661033D02*
X180936668Y-43627700D01*
X180936668Y-43627700D02*
X180903334Y-43594366D01*
X180903334Y-43594366D02*
X180870001Y-43527700D01*
X180870001Y-43527700D02*
X180870001Y-43327700D01*
X180870001Y-43327700D02*
X180903334Y-43261033D01*
X180903334Y-43261033D02*
X180936668Y-43227700D01*
X180936668Y-43227700D02*
X181003334Y-43194366D01*
X181003334Y-43194366D02*
X181103334Y-43194366D01*
X181103334Y-43194366D02*
X181170001Y-43227700D01*
X181170001Y-43227700D02*
X181203334Y-43261033D01*
X181203334Y-43261033D02*
X181236668Y-43327700D01*
X181236668Y-43327700D02*
X181236668Y-43527700D01*
X181236668Y-43527700D02*
X181203334Y-43594366D01*
X181203334Y-43594366D02*
X181170001Y-43627700D01*
X181170001Y-43627700D02*
X181103334Y-43661033D01*
X181103334Y-43661033D02*
X181003334Y-43661033D01*
X181470001Y-43194366D02*
X181603334Y-43661033D01*
X181603334Y-43661033D02*
X181736667Y-43327700D01*
X181736667Y-43327700D02*
X181870001Y-43661033D01*
X181870001Y-43661033D02*
X182003334Y-43194366D01*
X182103334Y-43727700D02*
X182636667Y-43727700D01*
X183136667Y-43661033D02*
X182803333Y-43661033D01*
X182803333Y-43661033D02*
X182803333Y-42961033D01*
X183470000Y-43661033D02*
X183403334Y-43627700D01*
X183403334Y-43627700D02*
X183370000Y-43594366D01*
X183370000Y-43594366D02*
X183336667Y-43527700D01*
X183336667Y-43527700D02*
X183336667Y-43327700D01*
X183336667Y-43327700D02*
X183370000Y-43261033D01*
X183370000Y-43261033D02*
X183403334Y-43227700D01*
X183403334Y-43227700D02*
X183470000Y-43194366D01*
X183470000Y-43194366D02*
X183570000Y-43194366D01*
X183570000Y-43194366D02*
X183636667Y-43227700D01*
X183636667Y-43227700D02*
X183670000Y-43261033D01*
X183670000Y-43261033D02*
X183703334Y-43327700D01*
X183703334Y-43327700D02*
X183703334Y-43527700D01*
X183703334Y-43527700D02*
X183670000Y-43594366D01*
X183670000Y-43594366D02*
X183636667Y-43627700D01*
X183636667Y-43627700D02*
X183570000Y-43661033D01*
X183570000Y-43661033D02*
X183470000Y-43661033D01*
X184403333Y-43661033D02*
X184170000Y-43327700D01*
X184003333Y-43661033D02*
X184003333Y-42961033D01*
X184003333Y-42961033D02*
X184270000Y-42961033D01*
X184270000Y-42961033D02*
X184336667Y-42994366D01*
X184336667Y-42994366D02*
X184370000Y-43027700D01*
X184370000Y-43027700D02*
X184403333Y-43094366D01*
X184403333Y-43094366D02*
X184403333Y-43194366D01*
X184403333Y-43194366D02*
X184370000Y-43261033D01*
X184370000Y-43261033D02*
X184336667Y-43294366D01*
X184336667Y-43294366D02*
X184270000Y-43327700D01*
X184270000Y-43327700D02*
X184003333Y-43327700D01*
X185003333Y-43661033D02*
X185003333Y-43294366D01*
X185003333Y-43294366D02*
X184970000Y-43227700D01*
X184970000Y-43227700D02*
X184903333Y-43194366D01*
X184903333Y-43194366D02*
X184770000Y-43194366D01*
X184770000Y-43194366D02*
X184703333Y-43227700D01*
X185003333Y-43627700D02*
X184936667Y-43661033D01*
X184936667Y-43661033D02*
X184770000Y-43661033D01*
X184770000Y-43661033D02*
X184703333Y-43627700D01*
X184703333Y-43627700D02*
X184670000Y-43561033D01*
X184670000Y-43561033D02*
X184670000Y-43494366D01*
X184670000Y-43494366D02*
X184703333Y-43427700D01*
X184703333Y-43427700D02*
X184770000Y-43394366D01*
X184770000Y-43394366D02*
X184936667Y-43394366D01*
X184936667Y-43394366D02*
X185003333Y-43361033D01*
X10538434Y-4453695D02*
X10538434Y-3453695D01*
X10538434Y-3929885D02*
X11109862Y-3929885D01*
X11109862Y-4453695D02*
X11109862Y-3453695D01*
X11538434Y-3548933D02*
X11586053Y-3501314D01*
X11586053Y-3501314D02*
X11681291Y-3453695D01*
X11681291Y-3453695D02*
X11919386Y-3453695D01*
X11919386Y-3453695D02*
X12014624Y-3501314D01*
X12014624Y-3501314D02*
X12062243Y-3548933D01*
X12062243Y-3548933D02*
X12109862Y-3644171D01*
X12109862Y-3644171D02*
X12109862Y-3739409D01*
X12109862Y-3739409D02*
X12062243Y-3882266D01*
X12062243Y-3882266D02*
X11490815Y-4453695D01*
X11490815Y-4453695D02*
X12109862Y-4453695D01*
X197351905Y-34279819D02*
X197351905Y-33279819D01*
X197351905Y-33279819D02*
X197590000Y-33279819D01*
X197590000Y-33279819D02*
X197732857Y-33327438D01*
X197732857Y-33327438D02*
X197828095Y-33422676D01*
X197828095Y-33422676D02*
X197875714Y-33517914D01*
X197875714Y-33517914D02*
X197923333Y-33708390D01*
X197923333Y-33708390D02*
X197923333Y-33851247D01*
X197923333Y-33851247D02*
X197875714Y-34041723D01*
X197875714Y-34041723D02*
X197828095Y-34136961D01*
X197828095Y-34136961D02*
X197732857Y-34232200D01*
X197732857Y-34232200D02*
X197590000Y-34279819D01*
X197590000Y-34279819D02*
X197351905Y-34279819D01*
X198256667Y-33279819D02*
X198875714Y-33279819D01*
X198875714Y-33279819D02*
X198542381Y-33660771D01*
X198542381Y-33660771D02*
X198685238Y-33660771D01*
X198685238Y-33660771D02*
X198780476Y-33708390D01*
X198780476Y-33708390D02*
X198828095Y-33756009D01*
X198828095Y-33756009D02*
X198875714Y-33851247D01*
X198875714Y-33851247D02*
X198875714Y-34089342D01*
X198875714Y-34089342D02*
X198828095Y-34184580D01*
X198828095Y-34184580D02*
X198780476Y-34232200D01*
X198780476Y-34232200D02*
X198685238Y-34279819D01*
X198685238Y-34279819D02*
X198399524Y-34279819D01*
X198399524Y-34279819D02*
X198304286Y-34232200D01*
X198304286Y-34232200D02*
X198256667Y-34184580D01*
X199660001Y-36221033D02*
X199326667Y-36221033D01*
X199326667Y-36221033D02*
X199326667Y-35521033D01*
X199893334Y-35854366D02*
X200126668Y-35854366D01*
X200226668Y-36221033D02*
X199893334Y-36221033D01*
X199893334Y-36221033D02*
X199893334Y-35521033D01*
X199893334Y-35521033D02*
X200226668Y-35521033D01*
X200526667Y-36221033D02*
X200526667Y-35521033D01*
X200526667Y-35521033D02*
X200693334Y-35521033D01*
X200693334Y-35521033D02*
X200793334Y-35554366D01*
X200793334Y-35554366D02*
X200860001Y-35621033D01*
X200860001Y-35621033D02*
X200893334Y-35687700D01*
X200893334Y-35687700D02*
X200926667Y-35821033D01*
X200926667Y-35821033D02*
X200926667Y-35921033D01*
X200926667Y-35921033D02*
X200893334Y-36054366D01*
X200893334Y-36054366D02*
X200860001Y-36121033D01*
X200860001Y-36121033D02*
X200793334Y-36187700D01*
X200793334Y-36187700D02*
X200693334Y-36221033D01*
X200693334Y-36221033D02*
X200526667Y-36221033D01*
X201060001Y-36287700D02*
X201593334Y-36287700D01*
X202126667Y-35554366D02*
X202060000Y-35521033D01*
X202060000Y-35521033D02*
X201960000Y-35521033D01*
X201960000Y-35521033D02*
X201860000Y-35554366D01*
X201860000Y-35554366D02*
X201793334Y-35621033D01*
X201793334Y-35621033D02*
X201760000Y-35687700D01*
X201760000Y-35687700D02*
X201726667Y-35821033D01*
X201726667Y-35821033D02*
X201726667Y-35921033D01*
X201726667Y-35921033D02*
X201760000Y-36054366D01*
X201760000Y-36054366D02*
X201793334Y-36121033D01*
X201793334Y-36121033D02*
X201860000Y-36187700D01*
X201860000Y-36187700D02*
X201960000Y-36221033D01*
X201960000Y-36221033D02*
X202026667Y-36221033D01*
X202026667Y-36221033D02*
X202126667Y-36187700D01*
X202126667Y-36187700D02*
X202160000Y-36154366D01*
X202160000Y-36154366D02*
X202160000Y-35921033D01*
X202160000Y-35921033D02*
X202026667Y-35921033D01*
X202860000Y-36221033D02*
X202626667Y-35887700D01*
X202460000Y-36221033D02*
X202460000Y-35521033D01*
X202460000Y-35521033D02*
X202726667Y-35521033D01*
X202726667Y-35521033D02*
X202793334Y-35554366D01*
X202793334Y-35554366D02*
X202826667Y-35587700D01*
X202826667Y-35587700D02*
X202860000Y-35654366D01*
X202860000Y-35654366D02*
X202860000Y-35754366D01*
X202860000Y-35754366D02*
X202826667Y-35821033D01*
X202826667Y-35821033D02*
X202793334Y-35854366D01*
X202793334Y-35854366D02*
X202726667Y-35887700D01*
X202726667Y-35887700D02*
X202460000Y-35887700D01*
X203160000Y-35854366D02*
X203393334Y-35854366D01*
X203493334Y-36221033D02*
X203160000Y-36221033D01*
X203160000Y-36221033D02*
X203160000Y-35521033D01*
X203160000Y-35521033D02*
X203493334Y-35521033D01*
X203793333Y-35854366D02*
X204026667Y-35854366D01*
X204126667Y-36221033D02*
X203793333Y-36221033D01*
X203793333Y-36221033D02*
X203793333Y-35521033D01*
X203793333Y-35521033D02*
X204126667Y-35521033D01*
X204426666Y-36221033D02*
X204426666Y-35521033D01*
X204426666Y-35521033D02*
X204826666Y-36221033D01*
X204826666Y-36221033D02*
X204826666Y-35521033D01*
X204993333Y-36287700D02*
X205526666Y-36287700D01*
X205693332Y-36221033D02*
X205693332Y-35521033D01*
X206026665Y-36221033D02*
X206026665Y-35521033D01*
X206026665Y-35521033D02*
X206426665Y-36221033D01*
X206426665Y-36221033D02*
X206426665Y-35521033D01*
X206693332Y-35521033D02*
X207126665Y-35521033D01*
X207126665Y-35521033D02*
X206893332Y-35787700D01*
X206893332Y-35787700D02*
X206993332Y-35787700D01*
X206993332Y-35787700D02*
X207059998Y-35821033D01*
X207059998Y-35821033D02*
X207093332Y-35854366D01*
X207093332Y-35854366D02*
X207126665Y-35921033D01*
X207126665Y-35921033D02*
X207126665Y-36087700D01*
X207126665Y-36087700D02*
X207093332Y-36154366D01*
X207093332Y-36154366D02*
X207059998Y-36187700D01*
X207059998Y-36187700D02*
X206993332Y-36221033D01*
X206993332Y-36221033D02*
X206793332Y-36221033D01*
X206793332Y-36221033D02*
X206726665Y-36187700D01*
X206726665Y-36187700D02*
X206693332Y-36154366D01*
X162383333Y-55354580D02*
X162335714Y-55402200D01*
X162335714Y-55402200D02*
X162192857Y-55449819D01*
X162192857Y-55449819D02*
X162097619Y-55449819D01*
X162097619Y-55449819D02*
X161954762Y-55402200D01*
X161954762Y-55402200D02*
X161859524Y-55306961D01*
X161859524Y-55306961D02*
X161811905Y-55211723D01*
X161811905Y-55211723D02*
X161764286Y-55021247D01*
X161764286Y-55021247D02*
X161764286Y-54878390D01*
X161764286Y-54878390D02*
X161811905Y-54687914D01*
X161811905Y-54687914D02*
X161859524Y-54592676D01*
X161859524Y-54592676D02*
X161954762Y-54497438D01*
X161954762Y-54497438D02*
X162097619Y-54449819D01*
X162097619Y-54449819D02*
X162192857Y-54449819D01*
X162192857Y-54449819D02*
X162335714Y-54497438D01*
X162335714Y-54497438D02*
X162383333Y-54545057D01*
X163240476Y-54783152D02*
X163240476Y-55449819D01*
X163002381Y-54402200D02*
X162764286Y-55116485D01*
X162764286Y-55116485D02*
X163383333Y-55116485D01*
X161843333Y-57079819D02*
X161271905Y-57079819D01*
X161557619Y-57079819D02*
X161557619Y-56079819D01*
X161557619Y-56079819D02*
X161462381Y-56222676D01*
X161462381Y-56222676D02*
X161367143Y-56317914D01*
X161367143Y-56317914D02*
X161271905Y-56365533D01*
X162462381Y-56079819D02*
X162557619Y-56079819D01*
X162557619Y-56079819D02*
X162652857Y-56127438D01*
X162652857Y-56127438D02*
X162700476Y-56175057D01*
X162700476Y-56175057D02*
X162748095Y-56270295D01*
X162748095Y-56270295D02*
X162795714Y-56460771D01*
X162795714Y-56460771D02*
X162795714Y-56698866D01*
X162795714Y-56698866D02*
X162748095Y-56889342D01*
X162748095Y-56889342D02*
X162700476Y-56984580D01*
X162700476Y-56984580D02*
X162652857Y-57032200D01*
X162652857Y-57032200D02*
X162557619Y-57079819D01*
X162557619Y-57079819D02*
X162462381Y-57079819D01*
X162462381Y-57079819D02*
X162367143Y-57032200D01*
X162367143Y-57032200D02*
X162319524Y-56984580D01*
X162319524Y-56984580D02*
X162271905Y-56889342D01*
X162271905Y-56889342D02*
X162224286Y-56698866D01*
X162224286Y-56698866D02*
X162224286Y-56460771D01*
X162224286Y-56460771D02*
X162271905Y-56270295D01*
X162271905Y-56270295D02*
X162319524Y-56175057D01*
X162319524Y-56175057D02*
X162367143Y-56127438D01*
X162367143Y-56127438D02*
X162462381Y-56079819D01*
X163414762Y-56079819D02*
X163510000Y-56079819D01*
X163510000Y-56079819D02*
X163605238Y-56127438D01*
X163605238Y-56127438D02*
X163652857Y-56175057D01*
X163652857Y-56175057D02*
X163700476Y-56270295D01*
X163700476Y-56270295D02*
X163748095Y-56460771D01*
X163748095Y-56460771D02*
X163748095Y-56698866D01*
X163748095Y-56698866D02*
X163700476Y-56889342D01*
X163700476Y-56889342D02*
X163652857Y-56984580D01*
X163652857Y-56984580D02*
X163605238Y-57032200D01*
X163605238Y-57032200D02*
X163510000Y-57079819D01*
X163510000Y-57079819D02*
X163414762Y-57079819D01*
X163414762Y-57079819D02*
X163319524Y-57032200D01*
X163319524Y-57032200D02*
X163271905Y-56984580D01*
X163271905Y-56984580D02*
X163224286Y-56889342D01*
X163224286Y-56889342D02*
X163176667Y-56698866D01*
X163176667Y-56698866D02*
X163176667Y-56460771D01*
X163176667Y-56460771D02*
X163224286Y-56270295D01*
X163224286Y-56270295D02*
X163271905Y-56175057D01*
X163271905Y-56175057D02*
X163319524Y-56127438D01*
X163319524Y-56127438D02*
X163414762Y-56079819D01*
X164367143Y-56079819D02*
X164462381Y-56079819D01*
X164462381Y-56079819D02*
X164557619Y-56127438D01*
X164557619Y-56127438D02*
X164605238Y-56175057D01*
X164605238Y-56175057D02*
X164652857Y-56270295D01*
X164652857Y-56270295D02*
X164700476Y-56460771D01*
X164700476Y-56460771D02*
X164700476Y-56698866D01*
X164700476Y-56698866D02*
X164652857Y-56889342D01*
X164652857Y-56889342D02*
X164605238Y-56984580D01*
X164605238Y-56984580D02*
X164557619Y-57032200D01*
X164557619Y-57032200D02*
X164462381Y-57079819D01*
X164462381Y-57079819D02*
X164367143Y-57079819D01*
X164367143Y-57079819D02*
X164271905Y-57032200D01*
X164271905Y-57032200D02*
X164224286Y-56984580D01*
X164224286Y-56984580D02*
X164176667Y-56889342D01*
X164176667Y-56889342D02*
X164129048Y-56698866D01*
X164129048Y-56698866D02*
X164129048Y-56460771D01*
X164129048Y-56460771D02*
X164176667Y-56270295D01*
X164176667Y-56270295D02*
X164224286Y-56175057D01*
X164224286Y-56175057D02*
X164271905Y-56127438D01*
X164271905Y-56127438D02*
X164367143Y-56079819D01*
X165129048Y-57079819D02*
X165129048Y-56413152D01*
X165129048Y-56508390D02*
X165176667Y-56460771D01*
X165176667Y-56460771D02*
X165271905Y-56413152D01*
X165271905Y-56413152D02*
X165414762Y-56413152D01*
X165414762Y-56413152D02*
X165510000Y-56460771D01*
X165510000Y-56460771D02*
X165557619Y-56556009D01*
X165557619Y-56556009D02*
X165557619Y-57079819D01*
X165557619Y-56556009D02*
X165605238Y-56460771D01*
X165605238Y-56460771D02*
X165700476Y-56413152D01*
X165700476Y-56413152D02*
X165843333Y-56413152D01*
X165843333Y-56413152D02*
X165938572Y-56460771D01*
X165938572Y-56460771D02*
X165986191Y-56556009D01*
X165986191Y-56556009D02*
X165986191Y-57079819D01*
X166319524Y-56413152D02*
X166700476Y-56413152D01*
X166462381Y-57079819D02*
X166462381Y-56222676D01*
X166462381Y-56222676D02*
X166510000Y-56127438D01*
X166510000Y-56127438D02*
X166605238Y-56079819D01*
X166605238Y-56079819D02*
X166700476Y-56079819D01*
X167462381Y-57079819D02*
X167462381Y-56079819D01*
X167462381Y-57032200D02*
X167367143Y-57079819D01*
X167367143Y-57079819D02*
X167176667Y-57079819D01*
X167176667Y-57079819D02*
X167081429Y-57032200D01*
X167081429Y-57032200D02*
X167033810Y-56984580D01*
X167033810Y-56984580D02*
X166986191Y-56889342D01*
X166986191Y-56889342D02*
X166986191Y-56603628D01*
X166986191Y-56603628D02*
X167033810Y-56508390D01*
X167033810Y-56508390D02*
X167081429Y-56460771D01*
X167081429Y-56460771D02*
X167176667Y-56413152D01*
X167176667Y-56413152D02*
X167367143Y-56413152D01*
X167367143Y-56413152D02*
X167462381Y-56460771D01*
X167986191Y-57032200D02*
X167986191Y-57079819D01*
X167986191Y-57079819D02*
X167938572Y-57175057D01*
X167938572Y-57175057D02*
X167890953Y-57222676D01*
X168367143Y-56175057D02*
X168414762Y-56127438D01*
X168414762Y-56127438D02*
X168510000Y-56079819D01*
X168510000Y-56079819D02*
X168748095Y-56079819D01*
X168748095Y-56079819D02*
X168843333Y-56127438D01*
X168843333Y-56127438D02*
X168890952Y-56175057D01*
X168890952Y-56175057D02*
X168938571Y-56270295D01*
X168938571Y-56270295D02*
X168938571Y-56365533D01*
X168938571Y-56365533D02*
X168890952Y-56508390D01*
X168890952Y-56508390D02*
X168319524Y-57079819D01*
X168319524Y-57079819D02*
X168938571Y-57079819D01*
X169843333Y-56079819D02*
X169367143Y-56079819D01*
X169367143Y-56079819D02*
X169319524Y-56556009D01*
X169319524Y-56556009D02*
X169367143Y-56508390D01*
X169367143Y-56508390D02*
X169462381Y-56460771D01*
X169462381Y-56460771D02*
X169700476Y-56460771D01*
X169700476Y-56460771D02*
X169795714Y-56508390D01*
X169795714Y-56508390D02*
X169843333Y-56556009D01*
X169843333Y-56556009D02*
X169890952Y-56651247D01*
X169890952Y-56651247D02*
X169890952Y-56889342D01*
X169890952Y-56889342D02*
X169843333Y-56984580D01*
X169843333Y-56984580D02*
X169795714Y-57032200D01*
X169795714Y-57032200D02*
X169700476Y-57079819D01*
X169700476Y-57079819D02*
X169462381Y-57079819D01*
X169462381Y-57079819D02*
X169367143Y-57032200D01*
X169367143Y-57032200D02*
X169319524Y-56984580D01*
X170176667Y-56079819D02*
X170510000Y-57079819D01*
X170510000Y-57079819D02*
X170843333Y-56079819D01*
X189976666Y-28369819D02*
X189976666Y-29084104D01*
X189976666Y-29084104D02*
X189929047Y-29226961D01*
X189929047Y-29226961D02*
X189833809Y-29322200D01*
X189833809Y-29322200D02*
X189690952Y-29369819D01*
X189690952Y-29369819D02*
X189595714Y-29369819D01*
X190405238Y-28465057D02*
X190452857Y-28417438D01*
X190452857Y-28417438D02*
X190548095Y-28369819D01*
X190548095Y-28369819D02*
X190786190Y-28369819D01*
X190786190Y-28369819D02*
X190881428Y-28417438D01*
X190881428Y-28417438D02*
X190929047Y-28465057D01*
X190929047Y-28465057D02*
X190976666Y-28560295D01*
X190976666Y-28560295D02*
X190976666Y-28655533D01*
X190976666Y-28655533D02*
X190929047Y-28798390D01*
X190929047Y-28798390D02*
X190357619Y-29369819D01*
X190357619Y-29369819D02*
X190976666Y-29369819D01*
D19*
%TO.C,J4*%
X180410000Y-78805000D02*
X182410000Y-78805000D01*
X180660000Y-77305000D02*
X180410000Y-78805000D01*
X181110000Y-65785000D02*
X181710000Y-65785000D01*
X181410000Y-66385000D02*
X181110000Y-65785000D01*
X181710000Y-65785000D02*
X181410000Y-66385000D01*
X182160000Y-77305000D02*
X180660000Y-77305000D01*
X182410000Y-78805000D02*
X182160000Y-77305000D01*
X185490000Y-78805000D02*
X187490000Y-78805000D01*
X185740000Y-77305000D02*
X185490000Y-78805000D01*
X187240000Y-77305000D02*
X185740000Y-77305000D01*
X187490000Y-78805000D02*
X187240000Y-77305000D01*
X190570000Y-78805000D02*
X192570000Y-78805000D01*
X190820000Y-77305000D02*
X190570000Y-78805000D01*
X192320000Y-77305000D02*
X190820000Y-77305000D01*
X192570000Y-78805000D02*
X192320000Y-77305000D01*
X195650000Y-78805000D02*
X197650000Y-78805000D01*
X195900000Y-77305000D02*
X195650000Y-78805000D01*
X197400000Y-77305000D02*
X195900000Y-77305000D01*
X197650000Y-78805000D02*
X197400000Y-77305000D01*
X177760000Y-66585000D02*
X200300000Y-66585000D01*
X200300000Y-78805000D01*
X177760000Y-78805000D01*
X177760000Y-66585000D01*
X177760000Y-75505000D02*
X200300000Y-75505000D01*
X200300000Y-77305000D01*
X177760000Y-77305000D01*
X177760000Y-75505000D01*
%TO.C,D1*%
X199585000Y-58230000D02*
X199585000Y-60515000D01*
X201055000Y-58230000D02*
X199585000Y-58230000D01*
X201055000Y-60515000D02*
X201055000Y-58230000D01*
%TO.C,D2*%
X199605000Y-45120000D02*
X199605000Y-47405000D01*
X201075000Y-45120000D02*
X199605000Y-45120000D01*
X201075000Y-47405000D02*
X201075000Y-45120000D01*
%TO.C,U5*%
D13*
X217300003Y-28955000D02*
X245025003Y-28955000D01*
X245025003Y-34555000D01*
X217300003Y-34555000D01*
X217300003Y-28955000D01*
D20*
X217300003Y-34555000D02*
X245025003Y-34555000D01*
X245025003Y-74001000D01*
X217300003Y-74001000D01*
X217300003Y-34555000D01*
D13*
X217300003Y-74001000D02*
X244975003Y-74001000D01*
X244975003Y-83755000D01*
X217300003Y-83755000D01*
X217300003Y-74001000D01*
X224650003Y-77355000D02*
X238350003Y-77355000D01*
X238350003Y-83755000D01*
X224650003Y-83755000D01*
X224650003Y-77355000D01*
D19*
%TO.C,D7*%
X179325000Y-49560000D02*
X179325000Y-51845000D01*
X180795000Y-49560000D02*
X179325000Y-49560000D01*
X180795000Y-51845000D02*
X180795000Y-49560000D01*
%TO.C,C5*%
X161939063Y-39184000D02*
X161939063Y-37986000D01*
X161979063Y-39447000D02*
X161979063Y-37723000D01*
X162019063Y-39647000D02*
X162019063Y-37523000D01*
X162059063Y-39815000D02*
X162059063Y-37355000D01*
X162099063Y-39962000D02*
X162099063Y-37208000D01*
X162139063Y-40094000D02*
X162139063Y-37076000D01*
X162179063Y-40215000D02*
X162179063Y-36955000D01*
X162219063Y-40327000D02*
X162219063Y-36843000D01*
X162259063Y-40431000D02*
X162259063Y-36739000D01*
X162299063Y-40529000D02*
X162299063Y-36641000D01*
X162339063Y-40622000D02*
X162339063Y-36548000D01*
X162379063Y-40709000D02*
X162379063Y-36461000D01*
X162419063Y-40793000D02*
X162419063Y-36377000D01*
X162459063Y-40873000D02*
X162459063Y-36297000D01*
X162499063Y-40950000D02*
X162499063Y-36220000D01*
X162539063Y-41024000D02*
X162539063Y-36146000D01*
X162579063Y-41095000D02*
X162579063Y-36075000D01*
X162619063Y-41163000D02*
X162619063Y-36007000D01*
X162659063Y-41229000D02*
X162659063Y-35941000D01*
X162699063Y-41293000D02*
X162699063Y-35877000D01*
X162739063Y-41355000D02*
X162739063Y-35815000D01*
X162779063Y-41415000D02*
X162779063Y-35755000D01*
X162819063Y-41473000D02*
X162819063Y-35697000D01*
X162859063Y-41530000D02*
X162859063Y-35640000D01*
X162899063Y-41585000D02*
X162899063Y-35585000D01*
X162939063Y-41638000D02*
X162939063Y-35532000D01*
X162979063Y-41690000D02*
X162979063Y-35480000D01*
X163019063Y-41741000D02*
X163019063Y-35429000D01*
X163059063Y-41790000D02*
X163059063Y-35380000D01*
X163099063Y-41839000D02*
X163099063Y-35331000D01*
X163139063Y-41886000D02*
X163139063Y-35284000D01*
X163179063Y-41932000D02*
X163179063Y-35238000D01*
X163219063Y-41976000D02*
X163219063Y-35194000D01*
X163259063Y-42020000D02*
X163259063Y-35150000D01*
X163299063Y-42063000D02*
X163299063Y-35107000D01*
X163339063Y-42105000D02*
X163339063Y-35065000D01*
X163379063Y-42146000D02*
X163379063Y-35024000D01*
X163419063Y-42186000D02*
X163419063Y-34984000D01*
X163459063Y-42225000D02*
X163459063Y-34945000D01*
X163499063Y-42263000D02*
X163499063Y-34907000D01*
X163539063Y-42301000D02*
X163539063Y-34869000D01*
X163579063Y-42337000D02*
X163579063Y-34833000D01*
X163619063Y-42373000D02*
X163619063Y-34797000D01*
X163659063Y-42408000D02*
X163659063Y-34762000D01*
X163699063Y-42443000D02*
X163699063Y-34727000D01*
X163739063Y-42476000D02*
X163739063Y-34694000D01*
X163779063Y-42509000D02*
X163779063Y-34661000D01*
X163819063Y-42542000D02*
X163819063Y-34628000D01*
X163859063Y-42573000D02*
X163859063Y-34597000D01*
X163899063Y-42605000D02*
X163899063Y-34565000D01*
X163939063Y-42635000D02*
X163939063Y-34535000D01*
X163979063Y-42665000D02*
X163979063Y-34505000D01*
X164019063Y-42694000D02*
X164019063Y-34476000D01*
X164059063Y-35945000D02*
X164059063Y-34447000D01*
X164059063Y-42723000D02*
X164059063Y-38025000D01*
X164099063Y-35945000D02*
X164099063Y-34419000D01*
X164099063Y-42751000D02*
X164099063Y-38025000D01*
X164139063Y-35945000D02*
X164139063Y-34392000D01*
X164139063Y-42778000D02*
X164139063Y-38025000D01*
X164179063Y-35945000D02*
X164179063Y-34365000D01*
X164179063Y-42805000D02*
X164179063Y-38025000D01*
X164219063Y-35945000D02*
X164219063Y-34338000D01*
X164219063Y-42832000D02*
X164219063Y-38025000D01*
X164259063Y-35945000D02*
X164259063Y-34313000D01*
X164259063Y-42857000D02*
X164259063Y-38025000D01*
X164299063Y-35945000D02*
X164299063Y-34287000D01*
X164299063Y-42883000D02*
X164299063Y-38025000D01*
X164339063Y-35945000D02*
X164339063Y-34262000D01*
X164339063Y-42908000D02*
X164339063Y-38025000D01*
X164379063Y-35945000D02*
X164379063Y-34238000D01*
X164379063Y-42932000D02*
X164379063Y-38025000D01*
X164419063Y-35945000D02*
X164419063Y-34214000D01*
X164419063Y-42956000D02*
X164419063Y-38025000D01*
X164459063Y-35945000D02*
X164459063Y-34191000D01*
X164459063Y-42979000D02*
X164459063Y-38025000D01*
X164499063Y-35945000D02*
X164499063Y-34168000D01*
X164499063Y-43002000D02*
X164499063Y-38025000D01*
X164539063Y-35945000D02*
X164539063Y-34146000D01*
X164539063Y-43024000D02*
X164539063Y-38025000D01*
X164579063Y-35945000D02*
X164579063Y-34124000D01*
X164579063Y-43046000D02*
X164579063Y-38025000D01*
X164619063Y-35945000D02*
X164619063Y-34102000D01*
X164619063Y-43068000D02*
X164619063Y-38025000D01*
X164659063Y-35945000D02*
X164659063Y-34081000D01*
X164659063Y-43089000D02*
X164659063Y-38025000D01*
X164699063Y-35945000D02*
X164699063Y-34061000D01*
X164699063Y-43109000D02*
X164699063Y-38025000D01*
X164739063Y-35945000D02*
X164739063Y-34041000D01*
X164739063Y-43129000D02*
X164739063Y-39625000D01*
X164779063Y-35945000D02*
X164779063Y-34021000D01*
X164779063Y-43149000D02*
X164779063Y-39625000D01*
X164819063Y-35945000D02*
X164819063Y-34002000D01*
X164819063Y-43168000D02*
X164819063Y-39625000D01*
X164859063Y-35945000D02*
X164859063Y-33983000D01*
X164859063Y-43187000D02*
X164859063Y-39625000D01*
X164899063Y-35945000D02*
X164899063Y-33965000D01*
X164899063Y-43205000D02*
X164899063Y-39625000D01*
X164939063Y-35945000D02*
X164939063Y-33947000D01*
X164939063Y-43223000D02*
X164939063Y-39625000D01*
X164979063Y-35945000D02*
X164979063Y-33929000D01*
X164979063Y-43241000D02*
X164979063Y-39625000D01*
X165019063Y-35945000D02*
X165019063Y-33912000D01*
X165019063Y-43258000D02*
X165019063Y-39625000D01*
X165059063Y-35945000D02*
X165059063Y-33895000D01*
X165059063Y-43275000D02*
X165059063Y-39625000D01*
X165099063Y-35945000D02*
X165099063Y-33879000D01*
X165099063Y-43291000D02*
X165099063Y-39625000D01*
X165139063Y-35945000D02*
X165139063Y-33863000D01*
X165139063Y-43307000D02*
X165139063Y-39625000D01*
X165179063Y-35945000D02*
X165179063Y-33847000D01*
X165179063Y-43323000D02*
X165179063Y-39625000D01*
X165219063Y-35945000D02*
X165219063Y-33832000D01*
X165219063Y-43338000D02*
X165219063Y-39625000D01*
X165259063Y-35945000D02*
X165259063Y-33817000D01*
X165259063Y-43353000D02*
X165259063Y-39625000D01*
X165299063Y-35945000D02*
X165299063Y-33803000D01*
X165299063Y-43367000D02*
X165299063Y-39625000D01*
X165339063Y-35945000D02*
X165339063Y-33788000D01*
X165339063Y-43382000D02*
X165339063Y-39625000D01*
X165379063Y-35945000D02*
X165379063Y-33775000D01*
X165379063Y-43395000D02*
X165379063Y-39625000D01*
X165419063Y-35945000D02*
X165419063Y-33761000D01*
X165419063Y-43409000D02*
X165419063Y-39625000D01*
X165459063Y-35945000D02*
X165459063Y-33748000D01*
X165459063Y-43422000D02*
X165459063Y-39625000D01*
X165499063Y-35945000D02*
X165499063Y-33736000D01*
X165499063Y-43434000D02*
X165499063Y-39625000D01*
X165539063Y-35945000D02*
X165539063Y-33724000D01*
X165539063Y-43446000D02*
X165539063Y-39625000D01*
X165579063Y-35945000D02*
X165579063Y-33712000D01*
X165579063Y-43458000D02*
X165579063Y-39625000D01*
X165619063Y-35945000D02*
X165619063Y-33700000D01*
X165619063Y-43470000D02*
X165619063Y-39625000D01*
X165659063Y-35945000D02*
X165659063Y-33689000D01*
X165659063Y-43481000D02*
X165659063Y-39625000D01*
X165699063Y-35945000D02*
X165699063Y-33678000D01*
X165699063Y-43492000D02*
X165699063Y-39625000D01*
X165739063Y-35945000D02*
X165739063Y-33668000D01*
X165739063Y-43502000D02*
X165739063Y-39625000D01*
X165779063Y-35945000D02*
X165779063Y-33657000D01*
X165779063Y-43513000D02*
X165779063Y-39625000D01*
X165819063Y-35945000D02*
X165819063Y-33648000D01*
X165819063Y-43522000D02*
X165819063Y-39625000D01*
X165859063Y-35945000D02*
X165859063Y-33638000D01*
X165859063Y-43532000D02*
X165859063Y-39625000D01*
X165899063Y-35945000D02*
X165899063Y-33629000D01*
X165899063Y-43541000D02*
X165899063Y-39625000D01*
X165939063Y-35945000D02*
X165939063Y-33620000D01*
X165939063Y-43550000D02*
X165939063Y-39625000D01*
X165979063Y-35945000D02*
X165979063Y-33612000D01*
X165979063Y-43558000D02*
X165979063Y-39625000D01*
X166019063Y-35945000D02*
X166019063Y-33604000D01*
X166019063Y-43566000D02*
X166019063Y-39625000D01*
X166059063Y-35945000D02*
X166059063Y-33596000D01*
X166059063Y-43574000D02*
X166059063Y-39625000D01*
X166099063Y-35945000D02*
X166099063Y-33588000D01*
X166099063Y-43582000D02*
X166099063Y-39625000D01*
X166139063Y-37545000D02*
X166139063Y-33581000D01*
X166139063Y-43589000D02*
X166139063Y-39625000D01*
X166179063Y-37545000D02*
X166179063Y-33574000D01*
X166179063Y-43596000D02*
X166179063Y-39625000D01*
X166219063Y-37545000D02*
X166219063Y-33568000D01*
X166219063Y-43602000D02*
X166219063Y-39625000D01*
X166259063Y-37545000D02*
X166259063Y-33562000D01*
X166259063Y-43608000D02*
X166259063Y-39625000D01*
X166299063Y-37545000D02*
X166299063Y-33556000D01*
X166299063Y-43614000D02*
X166299063Y-39625000D01*
X166339063Y-37545000D02*
X166339063Y-33550000D01*
X166339063Y-43620000D02*
X166339063Y-39625000D01*
X166379063Y-37545000D02*
X166379063Y-33545000D01*
X166379063Y-43625000D02*
X166379063Y-39625000D01*
X166419063Y-37545000D02*
X166419063Y-33540000D01*
X166419063Y-43630000D02*
X166419063Y-39625000D01*
X166459063Y-37545000D02*
X166459063Y-33536000D01*
X166459063Y-43634000D02*
X166459063Y-39625000D01*
X166499063Y-37545000D02*
X166499063Y-33531000D01*
X166499063Y-43639000D02*
X166499063Y-39625000D01*
X166539063Y-37545000D02*
X166539063Y-33528000D01*
X166539063Y-43642000D02*
X166539063Y-39625000D01*
X166579063Y-37545000D02*
X166579063Y-33524000D01*
X166579063Y-43646000D02*
X166579063Y-39625000D01*
X166619063Y-37545000D02*
X166619063Y-33521000D01*
X166619063Y-43649000D02*
X166619063Y-39625000D01*
X166659063Y-37545000D02*
X166659063Y-33518000D01*
X166659063Y-43652000D02*
X166659063Y-39625000D01*
X166699063Y-37545000D02*
X166699063Y-33515000D01*
X166699063Y-43655000D02*
X166699063Y-39625000D01*
X166739063Y-37545000D02*
X166739063Y-33513000D01*
X166739063Y-43657000D02*
X166739063Y-39625000D01*
X166779063Y-37545000D02*
X166779063Y-33511000D01*
X166779063Y-43659000D02*
X166779063Y-39625000D01*
X166819063Y-43661000D02*
X166819063Y-33509000D01*
X166859063Y-43662000D02*
X166859063Y-33508000D01*
X166899063Y-43664000D02*
X166899063Y-33506000D01*
X166939063Y-43664000D02*
X166939063Y-33506000D01*
X166979063Y-43665000D02*
X166979063Y-33505000D01*
X167019063Y-43665000D02*
X167019063Y-33505000D01*
X171998709Y-41960000D02*
X171998709Y-40960000D01*
X172498709Y-41460000D02*
X171498709Y-41460000D01*
X172139063Y-38585000D02*
G75*
G02*
X161899063Y-38585000I-5120000J0D01*
G01*
X161899063Y-38585000D02*
G75*
G02*
X172139063Y-38585000I5120000J0D01*
G01*
%TO.C,J3*%
X166440000Y-78845000D02*
X168440000Y-78845000D01*
X166690000Y-77345000D02*
X166440000Y-78845000D01*
X167140000Y-65825000D02*
X167740000Y-65825000D01*
X167440000Y-66425000D02*
X167140000Y-65825000D01*
X167740000Y-65825000D02*
X167440000Y-66425000D01*
X168190000Y-77345000D02*
X166690000Y-77345000D01*
X168440000Y-78845000D02*
X168190000Y-77345000D01*
X171520000Y-78845000D02*
X173520000Y-78845000D01*
X171770000Y-77345000D02*
X171520000Y-78845000D01*
X173270000Y-77345000D02*
X171770000Y-77345000D01*
X173520000Y-78845000D02*
X173270000Y-77345000D01*
X163790000Y-66625000D02*
X176170000Y-66625000D01*
X176170000Y-78845000D01*
X163790000Y-78845000D01*
X163790000Y-66625000D01*
X163790000Y-75545000D02*
X176170000Y-75545000D01*
X176170000Y-77345000D01*
X163790000Y-77345000D01*
X163790000Y-75545000D01*
%TO.C,J1*%
X204665000Y-78745000D02*
X206665000Y-78745000D01*
X204915000Y-77245000D02*
X204665000Y-78745000D01*
X205365000Y-65725000D02*
X205965000Y-65725000D01*
X205665000Y-66325000D02*
X205365000Y-65725000D01*
X205965000Y-65725000D02*
X205665000Y-66325000D01*
X206415000Y-77245000D02*
X204915000Y-77245000D01*
X206665000Y-78745000D02*
X206415000Y-77245000D01*
X209745000Y-78745000D02*
X211745000Y-78745000D01*
X209995000Y-77245000D02*
X209745000Y-78745000D01*
X211495000Y-77245000D02*
X209995000Y-77245000D01*
X211745000Y-78745000D02*
X211495000Y-77245000D01*
X202015000Y-66525000D02*
X214395000Y-66525000D01*
X214395000Y-78745000D01*
X202015000Y-78745000D01*
X202015000Y-66525000D01*
X202015000Y-75445000D02*
X214395000Y-75445000D01*
X214395000Y-77245000D01*
X202015000Y-77245000D01*
X202015000Y-75445000D01*
%TO.C,D13*%
X179365000Y-39552500D02*
X179365000Y-41837500D01*
X180835000Y-39552500D02*
X179365000Y-39552500D01*
X180835000Y-41837500D02*
X180835000Y-39552500D01*
%TO.C,D3*%
X199605000Y-32020000D02*
X199605000Y-34305000D01*
X201075000Y-32020000D02*
X199605000Y-32020000D01*
X201075000Y-34305000D02*
X201075000Y-32020000D01*
%TO.C,C4*%
X161639063Y-51014000D02*
X161639063Y-49816000D01*
X161679063Y-51277000D02*
X161679063Y-49553000D01*
X161719063Y-51477000D02*
X161719063Y-49353000D01*
X161759063Y-51645000D02*
X161759063Y-49185000D01*
X161799063Y-51792000D02*
X161799063Y-49038000D01*
X161839063Y-51924000D02*
X161839063Y-48906000D01*
X161879063Y-52045000D02*
X161879063Y-48785000D01*
X161919063Y-52157000D02*
X161919063Y-48673000D01*
X161959063Y-52261000D02*
X161959063Y-48569000D01*
X161999063Y-52359000D02*
X161999063Y-48471000D01*
X162039063Y-52452000D02*
X162039063Y-48378000D01*
X162079063Y-52539000D02*
X162079063Y-48291000D01*
X162119063Y-52623000D02*
X162119063Y-48207000D01*
X162159063Y-52703000D02*
X162159063Y-48127000D01*
X162199063Y-52780000D02*
X162199063Y-48050000D01*
X162239063Y-52854000D02*
X162239063Y-47976000D01*
X162279063Y-52925000D02*
X162279063Y-47905000D01*
X162319063Y-52993000D02*
X162319063Y-47837000D01*
X162359063Y-53059000D02*
X162359063Y-47771000D01*
X162399063Y-53123000D02*
X162399063Y-47707000D01*
X162439063Y-53185000D02*
X162439063Y-47645000D01*
X162479063Y-53245000D02*
X162479063Y-47585000D01*
X162519063Y-53303000D02*
X162519063Y-47527000D01*
X162559063Y-53360000D02*
X162559063Y-47470000D01*
X162599063Y-53415000D02*
X162599063Y-47415000D01*
X162639063Y-53468000D02*
X162639063Y-47362000D01*
X162679063Y-53520000D02*
X162679063Y-47310000D01*
X162719063Y-53571000D02*
X162719063Y-47259000D01*
X162759063Y-53620000D02*
X162759063Y-47210000D01*
X162799063Y-53669000D02*
X162799063Y-47161000D01*
X162839063Y-53716000D02*
X162839063Y-47114000D01*
X162879063Y-53762000D02*
X162879063Y-47068000D01*
X162919063Y-53806000D02*
X162919063Y-47024000D01*
X162959063Y-53850000D02*
X162959063Y-46980000D01*
X162999063Y-53893000D02*
X162999063Y-46937000D01*
X163039063Y-53935000D02*
X163039063Y-46895000D01*
X163079063Y-53976000D02*
X163079063Y-46854000D01*
X163119063Y-54016000D02*
X163119063Y-46814000D01*
X163159063Y-54055000D02*
X163159063Y-46775000D01*
X163199063Y-54093000D02*
X163199063Y-46737000D01*
X163239063Y-54131000D02*
X163239063Y-46699000D01*
X163279063Y-54167000D02*
X163279063Y-46663000D01*
X163319063Y-54203000D02*
X163319063Y-46627000D01*
X163359063Y-54238000D02*
X163359063Y-46592000D01*
X163399063Y-54273000D02*
X163399063Y-46557000D01*
X163439063Y-54306000D02*
X163439063Y-46524000D01*
X163479063Y-54339000D02*
X163479063Y-46491000D01*
X163519063Y-54372000D02*
X163519063Y-46458000D01*
X163559063Y-54403000D02*
X163559063Y-46427000D01*
X163599063Y-54435000D02*
X163599063Y-46395000D01*
X163639063Y-54465000D02*
X163639063Y-46365000D01*
X163679063Y-54495000D02*
X163679063Y-46335000D01*
X163719063Y-54524000D02*
X163719063Y-46306000D01*
X163759063Y-47775000D02*
X163759063Y-46277000D01*
X163759063Y-54553000D02*
X163759063Y-49855000D01*
X163799063Y-47775000D02*
X163799063Y-46249000D01*
X163799063Y-54581000D02*
X163799063Y-49855000D01*
X163839063Y-47775000D02*
X163839063Y-46222000D01*
X163839063Y-54608000D02*
X163839063Y-49855000D01*
X163879063Y-47775000D02*
X163879063Y-46195000D01*
X163879063Y-54635000D02*
X163879063Y-49855000D01*
X163919063Y-47775000D02*
X163919063Y-46168000D01*
X163919063Y-54662000D02*
X163919063Y-49855000D01*
X163959063Y-47775000D02*
X163959063Y-46143000D01*
X163959063Y-54687000D02*
X163959063Y-49855000D01*
X163999063Y-47775000D02*
X163999063Y-46117000D01*
X163999063Y-54713000D02*
X163999063Y-49855000D01*
X164039063Y-47775000D02*
X164039063Y-46092000D01*
X164039063Y-54738000D02*
X164039063Y-49855000D01*
X164079063Y-47775000D02*
X164079063Y-46068000D01*
X164079063Y-54762000D02*
X164079063Y-49855000D01*
X164119063Y-47775000D02*
X164119063Y-46044000D01*
X164119063Y-54786000D02*
X164119063Y-49855000D01*
X164159063Y-47775000D02*
X164159063Y-46021000D01*
X164159063Y-54809000D02*
X164159063Y-49855000D01*
X164199063Y-47775000D02*
X164199063Y-45998000D01*
X164199063Y-54832000D02*
X164199063Y-49855000D01*
X164239063Y-47775000D02*
X164239063Y-45976000D01*
X164239063Y-54854000D02*
X164239063Y-49855000D01*
X164279063Y-47775000D02*
X164279063Y-45954000D01*
X164279063Y-54876000D02*
X164279063Y-49855000D01*
X164319063Y-47775000D02*
X164319063Y-45932000D01*
X164319063Y-54898000D02*
X164319063Y-49855000D01*
X164359063Y-47775000D02*
X164359063Y-45911000D01*
X164359063Y-54919000D02*
X164359063Y-49855000D01*
X164399063Y-47775000D02*
X164399063Y-45891000D01*
X164399063Y-54939000D02*
X164399063Y-49855000D01*
X164439063Y-47775000D02*
X164439063Y-45871000D01*
X164439063Y-54959000D02*
X164439063Y-51455000D01*
X164479063Y-47775000D02*
X164479063Y-45851000D01*
X164479063Y-54979000D02*
X164479063Y-51455000D01*
X164519063Y-47775000D02*
X164519063Y-45832000D01*
X164519063Y-54998000D02*
X164519063Y-51455000D01*
X164559063Y-47775000D02*
X164559063Y-45813000D01*
X164559063Y-55017000D02*
X164559063Y-51455000D01*
X164599063Y-47775000D02*
X164599063Y-45795000D01*
X164599063Y-55035000D02*
X164599063Y-51455000D01*
X164639063Y-47775000D02*
X164639063Y-45777000D01*
X164639063Y-55053000D02*
X164639063Y-51455000D01*
X164679063Y-47775000D02*
X164679063Y-45759000D01*
X164679063Y-55071000D02*
X164679063Y-51455000D01*
X164719063Y-47775000D02*
X164719063Y-45742000D01*
X164719063Y-55088000D02*
X164719063Y-51455000D01*
X164759063Y-47775000D02*
X164759063Y-45725000D01*
X164759063Y-55105000D02*
X164759063Y-51455000D01*
X164799063Y-47775000D02*
X164799063Y-45709000D01*
X164799063Y-55121000D02*
X164799063Y-51455000D01*
X164839063Y-47775000D02*
X164839063Y-45693000D01*
X164839063Y-55137000D02*
X164839063Y-51455000D01*
X164879063Y-47775000D02*
X164879063Y-45677000D01*
X164879063Y-55153000D02*
X164879063Y-51455000D01*
X164919063Y-47775000D02*
X164919063Y-45662000D01*
X164919063Y-55168000D02*
X164919063Y-51455000D01*
X164959063Y-47775000D02*
X164959063Y-45647000D01*
X164959063Y-55183000D02*
X164959063Y-51455000D01*
X164999063Y-47775000D02*
X164999063Y-45633000D01*
X164999063Y-55197000D02*
X164999063Y-51455000D01*
X165039063Y-47775000D02*
X165039063Y-45618000D01*
X165039063Y-55212000D02*
X165039063Y-51455000D01*
X165079063Y-47775000D02*
X165079063Y-45605000D01*
X165079063Y-55225000D02*
X165079063Y-51455000D01*
X165119063Y-47775000D02*
X165119063Y-45591000D01*
X165119063Y-55239000D02*
X165119063Y-51455000D01*
X165159063Y-47775000D02*
X165159063Y-45578000D01*
X165159063Y-55252000D02*
X165159063Y-51455000D01*
X165199063Y-47775000D02*
X165199063Y-45566000D01*
X165199063Y-55264000D02*
X165199063Y-51455000D01*
X165239063Y-47775000D02*
X165239063Y-45554000D01*
X165239063Y-55276000D02*
X165239063Y-51455000D01*
X165279063Y-47775000D02*
X165279063Y-45542000D01*
X165279063Y-55288000D02*
X165279063Y-51455000D01*
X165319063Y-47775000D02*
X165319063Y-45530000D01*
X165319063Y-55300000D02*
X165319063Y-51455000D01*
X165359063Y-47775000D02*
X165359063Y-45519000D01*
X165359063Y-55311000D02*
X165359063Y-51455000D01*
X165399063Y-47775000D02*
X165399063Y-45508000D01*
X165399063Y-55322000D02*
X165399063Y-51455000D01*
X165439063Y-47775000D02*
X165439063Y-45498000D01*
X165439063Y-55332000D02*
X165439063Y-51455000D01*
X165479063Y-47775000D02*
X165479063Y-45487000D01*
X165479063Y-55343000D02*
X165479063Y-51455000D01*
X165519063Y-47775000D02*
X165519063Y-45478000D01*
X165519063Y-55352000D02*
X165519063Y-51455000D01*
X165559063Y-47775000D02*
X165559063Y-45468000D01*
X165559063Y-55362000D02*
X165559063Y-51455000D01*
X165599063Y-47775000D02*
X165599063Y-45459000D01*
X165599063Y-55371000D02*
X165599063Y-51455000D01*
X165639063Y-47775000D02*
X165639063Y-45450000D01*
X165639063Y-55380000D02*
X165639063Y-51455000D01*
X165679063Y-47775000D02*
X165679063Y-45442000D01*
X165679063Y-55388000D02*
X165679063Y-51455000D01*
X165719063Y-47775000D02*
X165719063Y-45434000D01*
X165719063Y-55396000D02*
X165719063Y-51455000D01*
X165759063Y-47775000D02*
X165759063Y-45426000D01*
X165759063Y-55404000D02*
X165759063Y-51455000D01*
X165799063Y-47775000D02*
X165799063Y-45418000D01*
X165799063Y-55412000D02*
X165799063Y-51455000D01*
X165839063Y-49375000D02*
X165839063Y-45411000D01*
X165839063Y-55419000D02*
X165839063Y-51455000D01*
X165879063Y-49375000D02*
X165879063Y-45404000D01*
X165879063Y-55426000D02*
X165879063Y-51455000D01*
X165919063Y-49375000D02*
X165919063Y-45398000D01*
X165919063Y-55432000D02*
X165919063Y-51455000D01*
X165959063Y-49375000D02*
X165959063Y-45392000D01*
X165959063Y-55438000D02*
X165959063Y-51455000D01*
X165999063Y-49375000D02*
X165999063Y-45386000D01*
X165999063Y-55444000D02*
X165999063Y-51455000D01*
X166039063Y-49375000D02*
X166039063Y-45380000D01*
X166039063Y-55450000D02*
X166039063Y-51455000D01*
X166079063Y-49375000D02*
X166079063Y-45375000D01*
X166079063Y-55455000D02*
X166079063Y-51455000D01*
X166119063Y-49375000D02*
X166119063Y-45370000D01*
X166119063Y-55460000D02*
X166119063Y-51455000D01*
X166159063Y-49375000D02*
X166159063Y-45366000D01*
X166159063Y-55464000D02*
X166159063Y-51455000D01*
X166199063Y-49375000D02*
X166199063Y-45361000D01*
X166199063Y-55469000D02*
X166199063Y-51455000D01*
X166239063Y-49375000D02*
X166239063Y-45358000D01*
X166239063Y-55472000D02*
X166239063Y-51455000D01*
X166279063Y-49375000D02*
X166279063Y-45354000D01*
X166279063Y-55476000D02*
X166279063Y-51455000D01*
X166319063Y-49375000D02*
X166319063Y-45351000D01*
X166319063Y-55479000D02*
X166319063Y-51455000D01*
X166359063Y-49375000D02*
X166359063Y-45348000D01*
X166359063Y-55482000D02*
X166359063Y-51455000D01*
X166399063Y-49375000D02*
X166399063Y-45345000D01*
X166399063Y-55485000D02*
X166399063Y-51455000D01*
X166439063Y-49375000D02*
X166439063Y-45343000D01*
X166439063Y-55487000D02*
X166439063Y-51455000D01*
X166479063Y-49375000D02*
X166479063Y-45341000D01*
X166479063Y-55489000D02*
X166479063Y-51455000D01*
X166519063Y-55491000D02*
X166519063Y-45339000D01*
X166559063Y-55492000D02*
X166559063Y-45338000D01*
X166599063Y-55494000D02*
X166599063Y-45336000D01*
X166639063Y-55494000D02*
X166639063Y-45336000D01*
X166679063Y-55495000D02*
X166679063Y-45335000D01*
X166719063Y-55495000D02*
X166719063Y-45335000D01*
X171698709Y-53790000D02*
X171698709Y-52790000D01*
X172198709Y-53290000D02*
X171198709Y-53290000D01*
X171839063Y-50415000D02*
G75*
G02*
X161599063Y-50415000I-5120000J0D01*
G01*
X161599063Y-50415000D02*
G75*
G02*
X171839063Y-50415000I5120000J0D01*
G01*
%TD*%
M02*
