%TF.GenerationSoftware,KiCad,Pcbnew,9.0.7*%
%TF.CreationDate,2026-07-31T16:49:00+05:30*%
%TF.ProjectId,WPC,5750432e-6b69-4636-9164-5f7063625858,rev?*%
%TF.SameCoordinates,Original*%
%TF.FileFunction,Copper,L1,Top*%
%TF.FilePolarity,Positive*%
%FSLAX46Y46*%
G04 Gerber Fmt 4.6, Leading zero omitted, Abs format (unit mm)*
G04 Created by KiCad (PCBNEW 9.0.7) date 2026-07-31 16:49:00*
%MOMM*%
%LPD*%
G01*
G04 APERTURE LIST*
G04 Aperture macros list*
%AMRoundRect*
0 Rectangle with rounded corners*
0 $1 Rounding radius*
0 $2 $3 $4 $5 $6 $7 $8 $9 X,Y pos of 4 corners*
0 Add a 4 corners polygon primitive as box body*
4,1,4,$2,$3,$4,$5,$6,$7,$8,$9,$2,$3,0*
0 Add four circle primitives for the rounded corners*
1,1,$1+$1,$2,$3*
1,1,$1+$1,$4,$5*
1,1,$1+$1,$6,$7*
1,1,$1+$1,$8,$9*
0 Add four rect primitives between the rounded corners*
20,1,$1+$1,$2,$3,$4,$5,0*
20,1,$1+$1,$4,$5,$6,$7,0*
20,1,$1+$1,$6,$7,$8,$9,0*
20,1,$1+$1,$8,$9,$2,$3,0*%
G04 Aperture macros list end*
%ADD10C,0.300000*%
%TA.AperFunction,NonConductor*%
%ADD11C,0.300000*%
%TD*%
%TA.AperFunction,NonConductor*%
%ADD12C,0.200000*%
%TD*%
%TA.AperFunction,ComponentPad*%
%ADD13RoundRect,0.249999X-0.790001X-1.550001X0.790001X-1.550001X0.790001X1.550001X-0.790001X1.550001X0*%
%TD*%
%TA.AperFunction,ComponentPad*%
%ADD14O,2.080000X3.600000*%
%TD*%
%TA.AperFunction,SMDPad,CuDef*%
%ADD15RoundRect,0.218750X-0.256250X0.218750X-0.256250X-0.218750X0.256250X-0.218750X0.256250X0.218750X0*%
%TD*%
%TA.AperFunction,WasherPad*%
%ADD16C,4.500000*%
%TD*%
%TA.AperFunction,ComponentPad*%
%ADD17O,2.000000X1.200000*%
%TD*%
%TA.AperFunction,ComponentPad*%
%ADD18RoundRect,0.250000X0.550000X0.550000X-0.550000X0.550000X-0.550000X-0.550000X0.550000X-0.550000X0*%
%TD*%
%TA.AperFunction,ComponentPad*%
%ADD19C,1.600000*%
%TD*%
%TA.AperFunction,SMDPad,CuDef*%
%ADD20RoundRect,0.250000X-0.425000X-1.600000X0.425000X-1.600000X0.425000X1.600000X-0.425000X1.600000X0*%
%TD*%
%TA.AperFunction,ComponentPad*%
%ADD21R,1.500000X2.000000*%
%TD*%
%TA.AperFunction,ViaPad*%
%ADD22C,0.600000*%
%TD*%
%TA.AperFunction,Conductor*%
%ADD23C,0.500000*%
%TD*%
G04 APERTURE END LIST*
D10*
D11*
X206034286Y-15403328D02*
X206320000Y-15403328D01*
X206320000Y-15403328D02*
X206462857Y-15331900D01*
X206462857Y-15331900D02*
X206534286Y-15260471D01*
X206534286Y-15260471D02*
X206677143Y-15046185D01*
X206677143Y-15046185D02*
X206748572Y-14760471D01*
X206748572Y-14760471D02*
X206748572Y-14189042D01*
X206748572Y-14189042D02*
X206677143Y-14046185D01*
X206677143Y-14046185D02*
X206605715Y-13974757D01*
X206605715Y-13974757D02*
X206462857Y-13903328D01*
X206462857Y-13903328D02*
X206177143Y-13903328D01*
X206177143Y-13903328D02*
X206034286Y-13974757D01*
X206034286Y-13974757D02*
X205962857Y-14046185D01*
X205962857Y-14046185D02*
X205891429Y-14189042D01*
X205891429Y-14189042D02*
X205891429Y-14546185D01*
X205891429Y-14546185D02*
X205962857Y-14689042D01*
X205962857Y-14689042D02*
X206034286Y-14760471D01*
X206034286Y-14760471D02*
X206177143Y-14831900D01*
X206177143Y-14831900D02*
X206462857Y-14831900D01*
X206462857Y-14831900D02*
X206605715Y-14760471D01*
X206605715Y-14760471D02*
X206677143Y-14689042D01*
X206677143Y-14689042D02*
X206748572Y-14546185D01*
X207248571Y-13903328D02*
X208248571Y-13903328D01*
X208248571Y-13903328D02*
X207605714Y-15403328D01*
X208819999Y-15260471D02*
X208891428Y-15331900D01*
X208891428Y-15331900D02*
X208819999Y-15403328D01*
X208819999Y-15403328D02*
X208748571Y-15331900D01*
X208748571Y-15331900D02*
X208819999Y-15260471D01*
X208819999Y-15260471D02*
X208819999Y-15403328D01*
X209391428Y-13903328D02*
X210320000Y-13903328D01*
X210320000Y-13903328D02*
X209820000Y-14474757D01*
X209820000Y-14474757D02*
X210034285Y-14474757D01*
X210034285Y-14474757D02*
X210177143Y-14546185D01*
X210177143Y-14546185D02*
X210248571Y-14617614D01*
X210248571Y-14617614D02*
X210320000Y-14760471D01*
X210320000Y-14760471D02*
X210320000Y-15117614D01*
X210320000Y-15117614D02*
X210248571Y-15260471D01*
X210248571Y-15260471D02*
X210177143Y-15331900D01*
X210177143Y-15331900D02*
X210034285Y-15403328D01*
X210034285Y-15403328D02*
X209605714Y-15403328D01*
X209605714Y-15403328D02*
X209462857Y-15331900D01*
X209462857Y-15331900D02*
X209391428Y-15260471D01*
X210891428Y-14046185D02*
X210962856Y-13974757D01*
X210962856Y-13974757D02*
X211105714Y-13903328D01*
X211105714Y-13903328D02*
X211462856Y-13903328D01*
X211462856Y-13903328D02*
X211605714Y-13974757D01*
X211605714Y-13974757D02*
X211677142Y-14046185D01*
X211677142Y-14046185D02*
X211748571Y-14189042D01*
X211748571Y-14189042D02*
X211748571Y-14331900D01*
X211748571Y-14331900D02*
X211677142Y-14546185D01*
X211677142Y-14546185D02*
X210819999Y-15403328D01*
X210819999Y-15403328D02*
X211748571Y-15403328D01*
D12*
X160160000Y-26305000D02*
X160160000Y-15938580D01*
X257480000Y-15938580D02*
X257480000Y-26305000D01*
X160160000Y-16525000D02*
X257480000Y-16525000D01*
X160160000Y-16525000D02*
X161286504Y-15938579D01*
X160160000Y-16525000D02*
X161286504Y-17111421D01*
X257480000Y-16525000D02*
X256353496Y-17111421D01*
X257480000Y-16525000D02*
X256353496Y-15938579D01*
D10*
D11*
X265548328Y-53389285D02*
X266548328Y-53389285D01*
X264976900Y-53746427D02*
X266048328Y-54103570D01*
X266048328Y-54103570D02*
X266048328Y-53174999D01*
X265691185Y-52389285D02*
X265619757Y-52532142D01*
X265619757Y-52532142D02*
X265548328Y-52603571D01*
X265548328Y-52603571D02*
X265405471Y-52674999D01*
X265405471Y-52674999D02*
X265334042Y-52674999D01*
X265334042Y-52674999D02*
X265191185Y-52603571D01*
X265191185Y-52603571D02*
X265119757Y-52532142D01*
X265119757Y-52532142D02*
X265048328Y-52389285D01*
X265048328Y-52389285D02*
X265048328Y-52103571D01*
X265048328Y-52103571D02*
X265119757Y-51960714D01*
X265119757Y-51960714D02*
X265191185Y-51889285D01*
X265191185Y-51889285D02*
X265334042Y-51817856D01*
X265334042Y-51817856D02*
X265405471Y-51817856D01*
X265405471Y-51817856D02*
X265548328Y-51889285D01*
X265548328Y-51889285D02*
X265619757Y-51960714D01*
X265619757Y-51960714D02*
X265691185Y-52103571D01*
X265691185Y-52103571D02*
X265691185Y-52389285D01*
X265691185Y-52389285D02*
X265762614Y-52532142D01*
X265762614Y-52532142D02*
X265834042Y-52603571D01*
X265834042Y-52603571D02*
X265976900Y-52674999D01*
X265976900Y-52674999D02*
X266262614Y-52674999D01*
X266262614Y-52674999D02*
X266405471Y-52603571D01*
X266405471Y-52603571D02*
X266476900Y-52532142D01*
X266476900Y-52532142D02*
X266548328Y-52389285D01*
X266548328Y-52389285D02*
X266548328Y-52103571D01*
X266548328Y-52103571D02*
X266476900Y-51960714D01*
X266476900Y-51960714D02*
X266405471Y-51889285D01*
X266405471Y-51889285D02*
X266262614Y-51817856D01*
X266262614Y-51817856D02*
X265976900Y-51817856D01*
X265976900Y-51817856D02*
X265834042Y-51889285D01*
X265834042Y-51889285D02*
X265762614Y-51960714D01*
X265762614Y-51960714D02*
X265691185Y-52103571D01*
X266405471Y-51175000D02*
X266476900Y-51103571D01*
X266476900Y-51103571D02*
X266548328Y-51175000D01*
X266548328Y-51175000D02*
X266476900Y-51246428D01*
X266476900Y-51246428D02*
X266405471Y-51175000D01*
X266405471Y-51175000D02*
X266548328Y-51175000D01*
X265048328Y-50603571D02*
X265048328Y-49603571D01*
X265048328Y-49603571D02*
X266548328Y-50246428D01*
X265548328Y-48389286D02*
X266548328Y-48389286D01*
X264976900Y-48746428D02*
X266048328Y-49103571D01*
X266048328Y-49103571D02*
X266048328Y-48175000D01*
D12*
X257980000Y-26805000D02*
X268256420Y-26805000D01*
X268256420Y-75545000D02*
X257980000Y-75545000D01*
X267670000Y-26805000D02*
X267670000Y-75545000D01*
X267670000Y-26805000D02*
X268256421Y-27931504D01*
X267670000Y-26805000D02*
X267083579Y-27931504D01*
X267670000Y-75545000D02*
X267083579Y-74418496D01*
X267670000Y-75545000D02*
X268256421Y-74418496D01*
D13*
%TO.P,J4,1,Pin_1*%
%TO.N,GND*%
X181410000Y-68695000D03*
D14*
%TO.P,J4,2,Pin_2*%
%TO.N,/IN1_CON*%
X186490000Y-68695000D03*
%TO.P,J4,3,Pin_3*%
%TO.N,/IN2_CON*%
X191570000Y-68695000D03*
%TO.P,J4,4,Pin_4*%
%TO.N,/IN3_CON*%
X196650000Y-68695000D03*
%TD*%
D15*
%TO.P,D1,1,K*%
%TO.N,GND*%
X200320000Y-58927500D03*
%TO.P,D1,2,A*%
%TO.N,Net-(D1-A)*%
X200320000Y-60502500D03*
%TD*%
D16*
%TO.P,.,*%
%TO.N,*%
X164870000Y-59995000D03*
%TD*%
D15*
%TO.P,D2,1,K*%
%TO.N,GND*%
X200340000Y-45817500D03*
%TO.P,D2,2,A*%
%TO.N,Net-(D2-A)*%
X200340000Y-47392500D03*
%TD*%
D17*
%TO.P,U5,1,3V3_Out*%
%TO.N,+3.3V*%
X243650003Y-71715000D03*
%TO.P,U5,2,GND*%
%TO.N,GND*%
X243650003Y-69155000D03*
%TO.P,U5,5,D4*%
%TO.N,/LoRa_LED*%
X243600003Y-61505000D03*
%TO.P,U5,8,D5/BootSensitive*%
%TO.N,/NSS*%
X243650003Y-53930000D03*
%TO.P,U5,9,D18*%
%TO.N,/SCK*%
X243600003Y-51390000D03*
%TO.P,U5,10,D19*%
%TO.N,/MISO*%
X243625003Y-48880000D03*
%TO.P,U5,15,D23*%
%TO.N,/MOSI*%
X243600003Y-36145000D03*
%TO.P,U5,16,EN*%
%TO.N,unconnected-(U5-EN-Pad16)*%
X218600003Y-36145000D03*
%TO.P,U5,17,VP(36)/Input_only*%
%TO.N,/IN1_MCU*%
X218600003Y-38705000D03*
%TO.P,U5,18,VN(39)/Input_only*%
%TO.N,/IN2_MCU*%
X218575003Y-41220000D03*
%TO.P,U5,19,D34/Input_only*%
%TO.N,/IN3_MCU*%
X218575003Y-43780000D03*
%TO.P,U5,20,D35/Input_only*%
%TO.N,/IN4_MCU*%
X218625003Y-46320000D03*
%TO.P,U5,21,D32*%
%TO.N,/IN1_LED_MCU*%
X218625003Y-48880000D03*
%TO.P,U5,22,D33*%
%TO.N,/IN2_LED_MCU*%
X218625003Y-51515000D03*
%TO.P,U5,23,D25*%
%TO.N,/RESET*%
X218675003Y-54055000D03*
%TO.P,U5,24,D26*%
%TO.N,/DIO1*%
X218675003Y-56615000D03*
%TO.P,U5,25,D27*%
%TO.N,/BUSY*%
X218650003Y-59115000D03*
%TO.P,U5,26,D14*%
%TO.N,/IN3_LED_MCU*%
X218625003Y-61630000D03*
%TO.P,U5,27,D12/Boot_Sensitive*%
%TO.N,unconnected-(U5-D12{slash}Boot_Sensitive-Pad27)*%
X218625003Y-64190000D03*
%TO.P,U5,28,D13*%
%TO.N,/IN4_LED_MCU*%
X218675003Y-66730000D03*
%TO.P,U5,29,GND*%
%TO.N,GND*%
X218650003Y-69155000D03*
%TO.P,U5,30,VIN/5V_Power_IN*%
%TO.N,+5V*%
X218650003Y-71715000D03*
%TD*%
D15*
%TO.P,D7,1,K*%
%TO.N,GND*%
X180060000Y-50257500D03*
%TO.P,D7,2,A*%
%TO.N,Net-(D7-A)*%
X180060000Y-51832500D03*
%TD*%
D18*
%TO.P,C5,1*%
%TO.N,+5V*%
X168940000Y-40185000D03*
X168269063Y-38585000D03*
D19*
%TO.P,C5,2*%
%TO.N,GND*%
X165769063Y-38585000D03*
X165098126Y-36985000D03*
%TD*%
D13*
%TO.P,J3,1,Pin_1*%
%TO.N,+8V*%
X167440000Y-68735000D03*
D14*
%TO.P,J3,2,Pin_2*%
%TO.N,GND*%
X172520000Y-68735000D03*
%TD*%
D13*
%TO.P,J1,1,Pin_1*%
%TO.N,GND*%
X205665000Y-68635000D03*
D14*
%TO.P,J1,2,Pin_2*%
%TO.N,/IN4_CON*%
X210745000Y-68635000D03*
%TD*%
D16*
%TO.P,.,*%
%TO.N,*%
X208875000Y-41925000D03*
%TD*%
D15*
%TO.P,D13,1,K*%
%TO.N,GND*%
X180100000Y-40250000D03*
%TO.P,D13,2,A*%
%TO.N,Net-(D13-A)*%
X180100000Y-41825000D03*
%TD*%
%TO.P,D3,1,K*%
%TO.N,GND*%
X200340000Y-32717500D03*
%TO.P,D3,2,A*%
%TO.N,Net-(D3-A)*%
X200340000Y-34292500D03*
%TD*%
D18*
%TO.P,C4,1*%
%TO.N,+8V*%
X168640000Y-52015000D03*
X167969063Y-50415000D03*
D19*
%TO.P,C4,2*%
%TO.N,GND*%
X165469063Y-50415000D03*
X164798126Y-48815000D03*
%TD*%
D20*
%TO.P,J2,2,Ext*%
%TO.N,GND*%
X182065003Y-29345000D03*
X187715003Y-29345000D03*
%TD*%
D21*
%TO.P,U7,1,ANT*%
%TO.N,Net-(J2-In)*%
X185090000Y-35205000D03*
%TD*%
D22*
%TO.N,GND*%
X170200000Y-36135000D03*
X192200000Y-44615000D03*
X178010000Y-47465000D03*
X188490000Y-32075000D03*
X250570000Y-67545000D03*
X229900000Y-68465000D03*
X224470000Y-38565000D03*
X185670000Y-54205000D03*
X164000000Y-68545000D03*
X180240000Y-35725000D03*
X231500000Y-69595000D03*
X178210000Y-28375000D03*
X250560000Y-66425000D03*
X181820000Y-34615000D03*
X179060000Y-60665000D03*
X212350000Y-38335000D03*
X176630000Y-29485000D03*
X252130000Y-48445000D03*
X171270000Y-36105000D03*
X229910000Y-69585000D03*
X180650000Y-60675000D03*
X176880000Y-49065000D03*
X188980000Y-54155000D03*
X187250000Y-37005000D03*
X188500000Y-33195000D03*
X184640000Y-60865000D03*
X250530000Y-47315000D03*
X224430000Y-44055000D03*
X188180000Y-46175000D03*
X190090000Y-33205000D03*
X170210000Y-34545000D03*
X250600000Y-68615000D03*
X252120000Y-47325000D03*
X202990000Y-50815000D03*
X200410000Y-63195000D03*
X172400000Y-34505000D03*
X213950000Y-39465000D03*
X180610000Y-58485000D03*
X229950000Y-71775000D03*
X175810000Y-49095000D03*
X175820000Y-47505000D03*
X164170000Y-45475000D03*
X194110000Y-60485000D03*
X164160000Y-44355000D03*
X229940000Y-70655000D03*
X194160000Y-63795000D03*
X252200000Y-69745000D03*
X189340000Y-63795000D03*
X176890000Y-47475000D03*
X201390000Y-49685000D03*
X189330000Y-62675000D03*
X187860000Y-54165000D03*
X164030000Y-69615000D03*
X169080000Y-36145000D03*
X178220000Y-29495000D03*
X199030000Y-32865000D03*
X252190000Y-68625000D03*
X250610000Y-69735000D03*
X174690000Y-49105000D03*
X181830000Y-35735000D03*
X203030000Y-53005000D03*
X178000000Y-49055000D03*
X185380000Y-42765000D03*
X200450000Y-65385000D03*
X185390000Y-43885000D03*
X200420000Y-64315000D03*
X185350000Y-41695000D03*
X164040000Y-70735000D03*
X165750000Y-44365000D03*
X169090000Y-34555000D03*
X252090000Y-46255000D03*
X194120000Y-61605000D03*
X224400000Y-43285000D03*
X193910000Y-31675000D03*
X200960000Y-40105000D03*
X171280000Y-34515000D03*
X239650000Y-43225000D03*
X162400000Y-67415000D03*
X238020000Y-41025000D03*
X183760000Y-41685000D03*
X238050000Y-42095000D03*
X165760000Y-45485000D03*
X231490000Y-68475000D03*
X224350000Y-47195000D03*
X179010000Y-57355000D03*
X188150000Y-45405000D03*
X189300000Y-61605000D03*
X202040000Y-65395000D03*
X224350000Y-45855000D03*
X174700000Y-47515000D03*
X238060000Y-43215000D03*
X212360000Y-39455000D03*
X202050000Y-66515000D03*
X184650000Y-61985000D03*
X192330000Y-32785000D03*
X180230000Y-34605000D03*
X224430000Y-41515000D03*
X239600000Y-39915000D03*
X238010000Y-39905000D03*
X239610000Y-41035000D03*
X252080000Y-45135000D03*
X192170000Y-43845000D03*
X201400000Y-50805000D03*
X252160000Y-67555000D03*
X250490000Y-45125000D03*
X189290000Y-60485000D03*
X180600000Y-57365000D03*
X250540000Y-48435000D03*
X172390000Y-36095000D03*
X201440000Y-52995000D03*
X165720000Y-43295000D03*
X192320000Y-31665000D03*
X250500000Y-46245000D03*
X202000000Y-63205000D03*
X231530000Y-70665000D03*
X186790000Y-54195000D03*
X176620000Y-28365000D03*
X199030000Y-33655000D03*
X184610000Y-59795000D03*
X163990000Y-67425000D03*
X162440000Y-69605000D03*
X239640000Y-42105000D03*
X190080000Y-32085000D03*
X194150000Y-62675000D03*
X162410000Y-68535000D03*
X224400000Y-40745000D03*
X183800000Y-43875000D03*
X201430000Y-51875000D03*
X224440000Y-37795000D03*
X200990000Y-40875000D03*
X202980000Y-49695000D03*
X193920000Y-32795000D03*
X213940000Y-38345000D03*
X180640000Y-59555000D03*
X183750000Y-40565000D03*
X164130000Y-43285000D03*
X231540000Y-71785000D03*
X179050000Y-59545000D03*
X165710000Y-42175000D03*
X183790000Y-42755000D03*
X252150000Y-66435000D03*
X200460000Y-66505000D03*
X179020000Y-58475000D03*
X202010000Y-64325000D03*
X203020000Y-51885000D03*
X184600000Y-58675000D03*
X164120000Y-42165000D03*
X162450000Y-70725000D03*
X185340000Y-40575000D03*
%TO.N,+3.3V*%
X228750000Y-49085000D03*
X228750000Y-49085000D03*
X236670000Y-48985000D03*
%TO.N,Net-(D1-A)*%
X201290000Y-60435000D03*
%TO.N,Net-(D13-A)*%
X180180000Y-42725000D03*
%TO.N,/MISO*%
X233110000Y-47455000D03*
X233110000Y-47455000D03*
X198170000Y-32335000D03*
X237810000Y-47485000D03*
X197230000Y-40335000D03*
%TO.N,Net-(D3-A)*%
X201620000Y-34275000D03*
%TO.N,/MOSI*%
X196210000Y-38665000D03*
X199120000Y-28865000D03*
%TO.N,/DIO1*%
X225160000Y-56355000D03*
X225550000Y-52785000D03*
%TO.N,/BUSY*%
X227370000Y-51135000D03*
X227320000Y-58495000D03*
%TO.N,/SCK*%
X230980000Y-50165000D03*
X237110000Y-50105000D03*
%TO.N,/NSS*%
X195215000Y-38540000D03*
X198170000Y-28465000D03*
%TO.N,Net-(D2-A)*%
X201620000Y-47355000D03*
%TO.N,/IN3_LED_MCU*%
X228840000Y-58545000D03*
X229090000Y-51865000D03*
X228840000Y-58545000D03*
%TO.N,/IN2_LED_MCU*%
X210990000Y-51515000D03*
X216690000Y-51515000D03*
%TO.N,/IN1_LED_MCU*%
X214150000Y-57175000D03*
X214150000Y-57175000D03*
X215860000Y-57175000D03*
%TO.N,Net-(D7-A)*%
X180030000Y-52855000D03*
%TD*%
D23*
%TO.N,+3.3V*%
X236570000Y-49085000D02*
X236670000Y-48985000D01*
X228750000Y-49085000D02*
X236570000Y-49085000D01*
%TO.N,Net-(D1-A)*%
X200387500Y-60435000D02*
X200320000Y-60502500D01*
X201290000Y-60435000D02*
X200387500Y-60435000D01*
%TO.N,Net-(D13-A)*%
X180180000Y-42725000D02*
X180180000Y-41905000D01*
X180180000Y-41905000D02*
X180100000Y-41825000D01*
%TO.N,/MISO*%
X237780000Y-47455000D02*
X237810000Y-47485000D01*
X197230000Y-35935000D02*
X197230000Y-40335000D01*
X198170000Y-34995000D02*
X197230000Y-35935000D01*
X198170000Y-32335000D02*
X198170000Y-34995000D01*
X233110000Y-47455000D02*
X237780000Y-47455000D01*
%TO.N,Net-(D3-A)*%
X200357500Y-34275000D02*
X200340000Y-34292500D01*
X201620000Y-34275000D02*
X200357500Y-34275000D01*
%TO.N,/MOSI*%
X197150000Y-34385000D02*
X197150000Y-30835000D01*
X197150000Y-30835000D02*
X199120000Y-28865000D01*
X196210000Y-35325000D02*
X197150000Y-34385000D01*
X196210000Y-38665000D02*
X196210000Y-35325000D01*
%TO.N,/DIO1*%
X225550000Y-52785000D02*
X225550000Y-55965000D01*
X225550000Y-55965000D02*
X225160000Y-56355000D01*
%TO.N,/BUSY*%
X227370000Y-58445000D02*
X227320000Y-58495000D01*
X227370000Y-51135000D02*
X227370000Y-58445000D01*
%TO.N,/SCK*%
X237050000Y-50165000D02*
X237110000Y-50105000D01*
X230980000Y-50165000D02*
X237050000Y-50165000D01*
%TO.N,/NSS*%
X198170000Y-28465000D02*
X198230000Y-28405000D01*
X195215000Y-38540000D02*
X195215000Y-35020000D01*
X195215000Y-35020000D02*
X196300000Y-33935000D01*
X196300000Y-30335000D02*
X198170000Y-28465000D01*
X196300000Y-33935000D02*
X196300000Y-30335000D01*
%TO.N,Net-(D2-A)*%
X201620000Y-47355000D02*
X200377500Y-47355000D01*
X200377500Y-47355000D02*
X200340000Y-47392500D01*
%TO.N,/IN3_LED_MCU*%
X229090000Y-51865000D02*
X229090000Y-58295000D01*
X229090000Y-58295000D02*
X228840000Y-58545000D01*
%TO.N,/IN2_LED_MCU*%
X216690000Y-51515000D02*
X210990000Y-51515000D01*
%TO.N,/IN1_LED_MCU*%
X215860000Y-57175000D02*
X214150000Y-57175000D01*
%TO.N,Net-(D7-A)*%
X180030000Y-51862500D02*
X180060000Y-51832500D01*
X180030000Y-52855000D02*
X180030000Y-51862500D01*
%TD*%
%TA.AperFunction,Conductor*%
%TO.N,GND*%
G36*
X181146519Y-26965185D02*
G01*
X181192274Y-27017989D01*
X181202218Y-27087147D01*
X181173193Y-27150703D01*
X181167161Y-27157181D01*
X181047687Y-27276654D01*
X180955646Y-27425875D01*
X180955644Y-27425880D01*
X180900497Y-27592302D01*
X180900496Y-27592309D01*
X180890003Y-27695013D01*
X180890003Y-29095000D01*
X181941003Y-29095000D01*
X182008042Y-29114685D01*
X182053797Y-29167489D01*
X182065003Y-29219000D01*
X182065003Y-29345000D01*
X182191003Y-29345000D01*
X182258042Y-29364685D01*
X182303797Y-29417489D01*
X182315003Y-29469000D01*
X182315003Y-31694999D01*
X182539975Y-31694999D01*
X182539989Y-31694998D01*
X182642700Y-31684505D01*
X182809122Y-31629358D01*
X182809127Y-31629356D01*
X182958348Y-31537315D01*
X183048319Y-31447345D01*
X183109642Y-31413860D01*
X183179334Y-31418844D01*
X183235267Y-31460716D01*
X183259684Y-31526180D01*
X183260000Y-31535026D01*
X183260000Y-36805000D01*
X183280000Y-36825000D01*
X186550000Y-36825000D01*
X186570000Y-36805000D01*
X186570000Y-31585020D01*
X186589685Y-31517981D01*
X186642489Y-31472226D01*
X186711647Y-31462282D01*
X186775203Y-31491307D01*
X186781681Y-31497339D01*
X186821657Y-31537315D01*
X186970878Y-31629356D01*
X186970883Y-31629358D01*
X187137305Y-31684505D01*
X187137312Y-31684506D01*
X187240022Y-31694999D01*
X187465002Y-31694999D01*
X187965003Y-31694999D01*
X188189975Y-31694999D01*
X188189989Y-31694998D01*
X188292700Y-31684505D01*
X188459122Y-31629358D01*
X188459127Y-31629356D01*
X188608348Y-31537315D01*
X188732318Y-31413345D01*
X188824359Y-31264124D01*
X188824361Y-31264119D01*
X188879508Y-31097697D01*
X188879509Y-31097690D01*
X188890002Y-30994986D01*
X188890003Y-30994973D01*
X188890003Y-29595000D01*
X187965003Y-29595000D01*
X187965003Y-31694999D01*
X187465002Y-31694999D01*
X187465003Y-31694998D01*
X187465003Y-29469000D01*
X187484688Y-29401961D01*
X187537492Y-29356206D01*
X187589003Y-29345000D01*
X187715003Y-29345000D01*
X187715003Y-29219000D01*
X187734688Y-29151961D01*
X187787492Y-29106206D01*
X187839003Y-29095000D01*
X188890002Y-29095000D01*
X188890002Y-27695028D01*
X188890001Y-27695013D01*
X188879508Y-27592302D01*
X188824361Y-27425880D01*
X188824359Y-27425875D01*
X188732318Y-27276654D01*
X188612845Y-27157181D01*
X188579360Y-27095858D01*
X188584344Y-27026166D01*
X188626216Y-26970233D01*
X188691680Y-26945816D01*
X188700526Y-26945500D01*
X242414111Y-26945500D01*
X242478440Y-26945500D01*
X242481581Y-26945540D01*
X243211252Y-26964030D01*
X243217509Y-26964347D01*
X243921891Y-27017989D01*
X243943768Y-27019655D01*
X243950018Y-27020291D01*
X244672511Y-27112306D01*
X244678711Y-27113256D01*
X245395670Y-27241757D01*
X245401770Y-27243011D01*
X246111280Y-27407656D01*
X246117330Y-27409222D01*
X246817613Y-27609599D01*
X246823587Y-27611474D01*
X247512793Y-27847051D01*
X247518656Y-27849222D01*
X248195070Y-28119415D01*
X248200817Y-28121882D01*
X248542280Y-28278775D01*
X248862624Y-28425964D01*
X248868265Y-28428730D01*
X249513854Y-28765958D01*
X249519347Y-28769007D01*
X250147009Y-29138491D01*
X250152340Y-29141814D01*
X250760489Y-29542617D01*
X250765646Y-29546207D01*
X251352692Y-29977283D01*
X251357660Y-29981128D01*
X251922137Y-30441399D01*
X251926904Y-30445491D01*
X252467356Y-30933771D01*
X252471909Y-30938100D01*
X252986901Y-31453092D01*
X252991230Y-31457645D01*
X253479510Y-31998098D01*
X253483602Y-32002865D01*
X253638574Y-32192922D01*
X253934390Y-32555711D01*
X253943863Y-32567328D01*
X253947706Y-32572292D01*
X254378803Y-33159368D01*
X254382392Y-33164525D01*
X254783187Y-33772661D01*
X254786510Y-33777992D01*
X254941186Y-34040748D01*
X255117869Y-34340891D01*
X255155990Y-34405648D01*
X255159039Y-34411142D01*
X255496270Y-35056738D01*
X255499036Y-35062378D01*
X255803112Y-35724172D01*
X255805590Y-35729945D01*
X256075772Y-36406332D01*
X256077954Y-36412224D01*
X256313523Y-37101405D01*
X256315404Y-37107399D01*
X256515773Y-37807656D01*
X256517347Y-37813738D01*
X256681982Y-38523205D01*
X256683247Y-38529359D01*
X256811743Y-39246286D01*
X256812694Y-39252496D01*
X256904709Y-39974984D01*
X256905345Y-39981234D01*
X256960651Y-40707483D01*
X256960969Y-40713758D01*
X256979460Y-41443421D01*
X256979500Y-41446562D01*
X256979500Y-74920500D01*
X256959815Y-74987539D01*
X256907011Y-75033294D01*
X256855500Y-75044500D01*
X160734500Y-75044500D01*
X160667461Y-75024815D01*
X160621706Y-74972011D01*
X160610500Y-74920500D01*
X160610500Y-71636153D01*
X217449503Y-71636153D01*
X217449503Y-71793846D01*
X217480264Y-71948489D01*
X217480267Y-71948501D01*
X217540605Y-72094172D01*
X217540612Y-72094185D01*
X217628213Y-72225288D01*
X217628216Y-72225292D01*
X217739710Y-72336786D01*
X217739714Y-72336789D01*
X217870817Y-72424390D01*
X217870830Y-72424397D01*
X218016501Y-72484735D01*
X218016506Y-72484737D01*
X218171156Y-72515499D01*
X218171159Y-72515500D01*
X218171161Y-72515500D01*
X219128847Y-72515500D01*
X219128848Y-72515499D01*
X219283500Y-72484737D01*
X219429182Y-72424394D01*
X219560292Y-72336789D01*
X219671792Y-72225289D01*
X219759397Y-72094179D01*
X219819740Y-71948497D01*
X219850503Y-71793842D01*
X219850503Y-71636158D01*
X219850503Y-71636155D01*
X219850502Y-71636153D01*
X242449503Y-71636153D01*
X242449503Y-71793846D01*
X242480264Y-71948489D01*
X242480267Y-71948501D01*
X242540605Y-72094172D01*
X242540612Y-72094185D01*
X242628213Y-72225288D01*
X242628216Y-72225292D01*
X242739710Y-72336786D01*
X242739714Y-72336789D01*
X242870817Y-72424390D01*
X242870830Y-72424397D01*
X243016501Y-72484735D01*
X243016506Y-72484737D01*
X243171156Y-72515499D01*
X243171159Y-72515500D01*
X243171161Y-72515500D01*
X244128847Y-72515500D01*
X244128848Y-72515499D01*
X244283500Y-72484737D01*
X244429182Y-72424394D01*
X244560292Y-72336789D01*
X244671792Y-72225289D01*
X244759397Y-72094179D01*
X244819740Y-71948497D01*
X244850503Y-71793842D01*
X244850503Y-71636158D01*
X244850503Y-71636155D01*
X244850502Y-71636153D01*
X244819741Y-71481510D01*
X244819740Y-71481503D01*
X244819738Y-71481498D01*
X244759400Y-71335827D01*
X244759393Y-71335814D01*
X244671792Y-71204711D01*
X244671789Y-71204707D01*
X244560295Y-71093213D01*
X244560291Y-71093210D01*
X244429188Y-71005609D01*
X244429175Y-71005602D01*
X244283504Y-70945264D01*
X244283492Y-70945261D01*
X244128848Y-70914500D01*
X244128845Y-70914500D01*
X243171161Y-70914500D01*
X243171158Y-70914500D01*
X243016513Y-70945261D01*
X243016501Y-70945264D01*
X242870830Y-71005602D01*
X242870817Y-71005609D01*
X242739714Y-71093210D01*
X242739710Y-71093213D01*
X242628216Y-71204707D01*
X242628213Y-71204711D01*
X242540612Y-71335814D01*
X242540605Y-71335827D01*
X242480267Y-71481498D01*
X242480264Y-71481510D01*
X242449503Y-71636153D01*
X219850502Y-71636153D01*
X219819741Y-71481510D01*
X219819740Y-71481503D01*
X219819738Y-71481498D01*
X219759400Y-71335827D01*
X219759393Y-71335814D01*
X219671792Y-71204711D01*
X219671789Y-71204707D01*
X219560295Y-71093213D01*
X219560291Y-71093210D01*
X219429188Y-71005609D01*
X219429175Y-71005602D01*
X219283504Y-70945264D01*
X219283492Y-70945261D01*
X219128848Y-70914500D01*
X219128845Y-70914500D01*
X218171161Y-70914500D01*
X218171158Y-70914500D01*
X218016513Y-70945261D01*
X218016501Y-70945264D01*
X217870830Y-71005602D01*
X217870817Y-71005609D01*
X217739714Y-71093210D01*
X217739710Y-71093213D01*
X217628216Y-71204707D01*
X217628213Y-71204711D01*
X217540612Y-71335814D01*
X217540605Y-71335827D01*
X217480267Y-71481498D01*
X217480264Y-71481510D01*
X217449503Y-71636153D01*
X160610500Y-71636153D01*
X160610500Y-67130729D01*
X166199500Y-67130729D01*
X166199500Y-70339260D01*
X166200580Y-70350779D01*
X166202354Y-70369700D01*
X166202354Y-70369702D01*
X166202355Y-70369703D01*
X166202355Y-70369705D01*
X166247206Y-70497882D01*
X166327849Y-70607150D01*
X166382483Y-70647471D01*
X166437117Y-70687793D01*
X166479844Y-70702744D01*
X166565298Y-70732646D01*
X166572323Y-70733304D01*
X166595733Y-70735500D01*
X168284266Y-70735499D01*
X168314700Y-70732646D01*
X168442883Y-70687793D01*
X168552150Y-70607150D01*
X168632793Y-70497883D01*
X168666623Y-70401202D01*
X168677646Y-70369702D01*
X168677646Y-70369700D01*
X168680500Y-70339267D01*
X168680499Y-67853799D01*
X170980000Y-67853799D01*
X170980000Y-68485000D01*
X171865879Y-68485000D01*
X171846901Y-68530818D01*
X171820000Y-68666056D01*
X171820000Y-68803944D01*
X171846901Y-68939182D01*
X171865879Y-68985000D01*
X170980000Y-68985000D01*
X170980000Y-69616200D01*
X171017920Y-69855618D01*
X171092827Y-70086159D01*
X171202874Y-70302136D01*
X171345356Y-70498245D01*
X171516754Y-70669643D01*
X171712863Y-70812125D01*
X171928840Y-70922172D01*
X172159381Y-70997080D01*
X172270000Y-71014600D01*
X172270000Y-69389120D01*
X172315818Y-69408099D01*
X172451056Y-69435000D01*
X172588944Y-69435000D01*
X172724182Y-69408099D01*
X172770000Y-69389120D01*
X172770000Y-71014599D01*
X172880618Y-70997080D01*
X173111159Y-70922172D01*
X173327136Y-70812125D01*
X173523245Y-70669643D01*
X173694643Y-70498245D01*
X173837125Y-70302136D01*
X173947172Y-70086159D01*
X174022079Y-69855618D01*
X174060000Y-69616200D01*
X174060000Y-68985000D01*
X173174121Y-68985000D01*
X173193099Y-68939182D01*
X173220000Y-68803944D01*
X173220000Y-68666056D01*
X173193099Y-68530818D01*
X173174121Y-68485000D01*
X174060000Y-68485000D01*
X174060000Y-67853799D01*
X174022079Y-67614381D01*
X173947172Y-67383840D01*
X173837126Y-67167864D01*
X173834866Y-67164754D01*
X173834864Y-67164750D01*
X173834863Y-67164749D01*
X173784197Y-67095013D01*
X179870000Y-67095013D01*
X179870000Y-68445000D01*
X180755879Y-68445000D01*
X180736901Y-68490818D01*
X180710000Y-68626056D01*
X180710000Y-68763944D01*
X180736901Y-68899182D01*
X180755879Y-68945000D01*
X179870001Y-68945000D01*
X179870001Y-70294986D01*
X179880494Y-70397696D01*
X179880494Y-70397698D01*
X179935640Y-70564119D01*
X179935645Y-70564130D01*
X180027680Y-70713340D01*
X180027683Y-70713344D01*
X180151655Y-70837316D01*
X180151659Y-70837319D01*
X180300869Y-70929354D01*
X180300880Y-70929359D01*
X180467302Y-70984505D01*
X180570019Y-70994999D01*
X181159999Y-70994999D01*
X181160000Y-70994998D01*
X181160000Y-69349120D01*
X181205818Y-69368099D01*
X181341056Y-69395000D01*
X181478944Y-69395000D01*
X181614182Y-69368099D01*
X181660000Y-69349120D01*
X181660000Y-70994999D01*
X182249972Y-70994999D01*
X182249986Y-70994998D01*
X182352696Y-70984505D01*
X182352698Y-70984505D01*
X182519119Y-70929359D01*
X182519130Y-70929354D01*
X182668340Y-70837319D01*
X182668344Y-70837316D01*
X182792316Y-70713344D01*
X182792319Y-70713340D01*
X182884354Y-70564130D01*
X182884359Y-70564119D01*
X182939505Y-70397697D01*
X182949999Y-70294986D01*
X182950000Y-70294973D01*
X182950000Y-68945000D01*
X182064121Y-68945000D01*
X182083099Y-68899182D01*
X182110000Y-68763944D01*
X182110000Y-68626056D01*
X182083099Y-68490818D01*
X182064121Y-68445000D01*
X182949999Y-68445000D01*
X182949999Y-67837365D01*
X185249500Y-67837365D01*
X185249500Y-69552634D01*
X185280045Y-69745485D01*
X185340381Y-69931184D01*
X185340382Y-69931187D01*
X185372404Y-69994032D01*
X185419345Y-70086159D01*
X185429031Y-70105167D01*
X185543793Y-70263125D01*
X185543797Y-70263130D01*
X185681869Y-70401202D01*
X185681874Y-70401206D01*
X185814940Y-70497883D01*
X185839836Y-70515971D01*
X185934353Y-70564130D01*
X186013812Y-70604617D01*
X186013815Y-70604618D01*
X186106664Y-70634786D01*
X186199516Y-70664955D01*
X186288835Y-70679101D01*
X186392366Y-70695500D01*
X186392371Y-70695500D01*
X186587634Y-70695500D01*
X186681125Y-70680691D01*
X186780484Y-70664955D01*
X186966187Y-70604617D01*
X187140164Y-70515971D01*
X187298132Y-70401201D01*
X187436201Y-70263132D01*
X187550971Y-70105164D01*
X187639617Y-69931187D01*
X187699955Y-69745484D01*
X187715691Y-69646125D01*
X187730500Y-69552634D01*
X187730500Y-67837365D01*
X190329500Y-67837365D01*
X190329500Y-69552634D01*
X190360045Y-69745485D01*
X190420381Y-69931184D01*
X190420382Y-69931187D01*
X190452404Y-69994032D01*
X190499345Y-70086159D01*
X190509031Y-70105167D01*
X190623793Y-70263125D01*
X190623797Y-70263130D01*
X190761869Y-70401202D01*
X190761874Y-70401206D01*
X190894940Y-70497883D01*
X190919836Y-70515971D01*
X191014353Y-70564130D01*
X191093812Y-70604617D01*
X191093815Y-70604618D01*
X191186664Y-70634786D01*
X191279516Y-70664955D01*
X191368835Y-70679101D01*
X191472366Y-70695500D01*
X191472371Y-70695500D01*
X191667634Y-70695500D01*
X191761125Y-70680691D01*
X191860484Y-70664955D01*
X192046187Y-70604617D01*
X192220164Y-70515971D01*
X192378132Y-70401201D01*
X192516201Y-70263132D01*
X192630971Y-70105164D01*
X192719617Y-69931187D01*
X192779955Y-69745484D01*
X192795691Y-69646125D01*
X192810500Y-69552634D01*
X192810500Y-67837365D01*
X195409500Y-67837365D01*
X195409500Y-69552634D01*
X195440045Y-69745485D01*
X195500381Y-69931184D01*
X195500382Y-69931187D01*
X195532404Y-69994032D01*
X195579345Y-70086159D01*
X195589031Y-70105167D01*
X195703793Y-70263125D01*
X195703797Y-70263130D01*
X195841869Y-70401202D01*
X195841874Y-70401206D01*
X195974940Y-70497883D01*
X195999836Y-70515971D01*
X196094353Y-70564130D01*
X196173812Y-70604617D01*
X196173815Y-70604618D01*
X196266664Y-70634786D01*
X196359516Y-70664955D01*
X196448835Y-70679101D01*
X196552366Y-70695500D01*
X196552371Y-70695500D01*
X196747634Y-70695500D01*
X196841125Y-70680691D01*
X196940484Y-70664955D01*
X197126187Y-70604617D01*
X197300164Y-70515971D01*
X197458132Y-70401201D01*
X197596201Y-70263132D01*
X197710971Y-70105164D01*
X197799617Y-69931187D01*
X197859955Y-69745484D01*
X197875691Y-69646125D01*
X197890500Y-69552634D01*
X197890500Y-67837365D01*
X197872730Y-67725174D01*
X197859955Y-67644516D01*
X197799617Y-67458813D01*
X197799617Y-67458812D01*
X197745085Y-67351789D01*
X197710971Y-67284836D01*
X197671495Y-67230502D01*
X197596206Y-67126874D01*
X197596202Y-67126869D01*
X197504346Y-67035013D01*
X204125000Y-67035013D01*
X204125000Y-68385000D01*
X205010879Y-68385000D01*
X204991901Y-68430818D01*
X204965000Y-68566056D01*
X204965000Y-68703944D01*
X204991901Y-68839182D01*
X205010879Y-68885000D01*
X204125001Y-68885000D01*
X204125001Y-70234986D01*
X204135494Y-70337696D01*
X204135494Y-70337698D01*
X204190640Y-70504119D01*
X204190645Y-70504130D01*
X204282680Y-70653340D01*
X204282683Y-70653344D01*
X204406655Y-70777316D01*
X204406659Y-70777319D01*
X204555869Y-70869354D01*
X204555880Y-70869359D01*
X204722302Y-70924505D01*
X204825019Y-70934999D01*
X205414999Y-70934999D01*
X205415000Y-70934998D01*
X205415000Y-69289120D01*
X205460818Y-69308099D01*
X205596056Y-69335000D01*
X205733944Y-69335000D01*
X205869182Y-69308099D01*
X205915000Y-69289120D01*
X205915000Y-70934999D01*
X206504972Y-70934999D01*
X206504986Y-70934998D01*
X206607696Y-70924505D01*
X206607698Y-70924505D01*
X206774119Y-70869359D01*
X206774130Y-70869354D01*
X206923340Y-70777319D01*
X206923344Y-70777316D01*
X207047316Y-70653344D01*
X207047319Y-70653340D01*
X207139354Y-70504130D01*
X207139359Y-70504119D01*
X207194505Y-70337697D01*
X207204999Y-70234986D01*
X207205000Y-70234973D01*
X207205000Y-68885000D01*
X206319121Y-68885000D01*
X206338099Y-68839182D01*
X206365000Y-68703944D01*
X206365000Y-68566056D01*
X206338099Y-68430818D01*
X206319121Y-68385000D01*
X207204999Y-68385000D01*
X207204999Y-67777365D01*
X209504500Y-67777365D01*
X209504500Y-69492634D01*
X209535045Y-69685485D01*
X209595381Y-69871184D01*
X209595382Y-69871187D01*
X209684031Y-70045167D01*
X209798793Y-70203125D01*
X209798797Y-70203130D01*
X209936869Y-70341202D01*
X209936874Y-70341206D01*
X210019458Y-70401206D01*
X210094836Y-70455971D01*
X210189353Y-70504130D01*
X210268812Y-70544617D01*
X210268815Y-70544618D01*
X210328868Y-70564130D01*
X210454516Y-70604955D01*
X210543835Y-70619101D01*
X210647366Y-70635500D01*
X210647371Y-70635500D01*
X210842634Y-70635500D01*
X210936125Y-70620691D01*
X211035484Y-70604955D01*
X211221187Y-70544617D01*
X211395164Y-70455971D01*
X211553132Y-70341201D01*
X211691201Y-70203132D01*
X211805971Y-70045164D01*
X211894617Y-69871187D01*
X211954955Y-69685484D01*
X211972097Y-69577255D01*
X211985500Y-69492634D01*
X211985500Y-68904999D01*
X217175887Y-68904999D01*
X217175888Y-68905000D01*
X218334317Y-68905000D01*
X218329923Y-68909394D01*
X218277262Y-69000606D01*
X218250003Y-69102339D01*
X218250003Y-69207661D01*
X218277262Y-69309394D01*
X218329923Y-69400606D01*
X218334317Y-69405000D01*
X217175888Y-69405000D01*
X217177088Y-69412584D01*
X217230594Y-69577255D01*
X217309198Y-69731524D01*
X217410970Y-69871602D01*
X217533400Y-69994032D01*
X217673478Y-70095804D01*
X217827745Y-70174408D01*
X217992418Y-70227914D01*
X218163432Y-70255000D01*
X218400003Y-70255000D01*
X218400003Y-69470686D01*
X218404397Y-69475080D01*
X218495609Y-69527741D01*
X218597342Y-69555000D01*
X218702664Y-69555000D01*
X218804397Y-69527741D01*
X218895609Y-69475080D01*
X218900003Y-69470686D01*
X218900003Y-70255000D01*
X219136574Y-70255000D01*
X219307587Y-70227914D01*
X219472260Y-70174408D01*
X219626527Y-70095804D01*
X219766605Y-69994032D01*
X219889035Y-69871602D01*
X219990807Y-69731524D01*
X220069411Y-69577255D01*
X220122917Y-69412584D01*
X220124118Y-69405000D01*
X218965689Y-69405000D01*
X218970083Y-69400606D01*
X219022744Y-69309394D01*
X219050003Y-69207661D01*
X219050003Y-69102339D01*
X219022744Y-69000606D01*
X218970083Y-68909394D01*
X218965689Y-68905000D01*
X220124118Y-68905000D01*
X220124118Y-68904999D01*
X242175887Y-68904999D01*
X242175888Y-68905000D01*
X243334317Y-68905000D01*
X243329923Y-68909394D01*
X243277262Y-69000606D01*
X243250003Y-69102339D01*
X243250003Y-69207661D01*
X243277262Y-69309394D01*
X243329923Y-69400606D01*
X243334317Y-69405000D01*
X242175888Y-69405000D01*
X242177088Y-69412584D01*
X242230594Y-69577255D01*
X242309198Y-69731524D01*
X242410970Y-69871602D01*
X242533400Y-69994032D01*
X242673478Y-70095804D01*
X242827745Y-70174408D01*
X242992418Y-70227914D01*
X243163432Y-70255000D01*
X243400003Y-70255000D01*
X243400003Y-69470686D01*
X243404397Y-69475080D01*
X243495609Y-69527741D01*
X243597342Y-69555000D01*
X243702664Y-69555000D01*
X243804397Y-69527741D01*
X243895609Y-69475080D01*
X243900003Y-69470686D01*
X243900003Y-70255000D01*
X244136574Y-70255000D01*
X244307587Y-70227914D01*
X244472260Y-70174408D01*
X244626527Y-70095804D01*
X244766605Y-69994032D01*
X244889035Y-69871602D01*
X244990807Y-69731524D01*
X245069411Y-69577255D01*
X245122917Y-69412584D01*
X245124118Y-69405000D01*
X243965689Y-69405000D01*
X243970083Y-69400606D01*
X244022744Y-69309394D01*
X244050003Y-69207661D01*
X244050003Y-69102339D01*
X244022744Y-69000606D01*
X243970083Y-68909394D01*
X243965689Y-68905000D01*
X245124118Y-68905000D01*
X245124118Y-68904999D01*
X245122917Y-68897415D01*
X245069411Y-68732744D01*
X244990807Y-68578475D01*
X244889035Y-68438397D01*
X244766605Y-68315967D01*
X244626527Y-68214195D01*
X244472260Y-68135591D01*
X244307587Y-68082085D01*
X244136574Y-68055000D01*
X243900003Y-68055000D01*
X243900003Y-68839314D01*
X243895609Y-68834920D01*
X243804397Y-68782259D01*
X243702664Y-68755000D01*
X243597342Y-68755000D01*
X243495609Y-68782259D01*
X243404397Y-68834920D01*
X243400003Y-68839314D01*
X243400003Y-68055000D01*
X243163432Y-68055000D01*
X242992418Y-68082085D01*
X242827745Y-68135591D01*
X242673478Y-68214195D01*
X242533400Y-68315967D01*
X242410970Y-68438397D01*
X242309198Y-68578475D01*
X242230594Y-68732744D01*
X242177088Y-68897415D01*
X242175887Y-68904999D01*
X220124118Y-68904999D01*
X220122917Y-68897415D01*
X220069411Y-68732744D01*
X219990807Y-68578475D01*
X219889035Y-68438397D01*
X219766605Y-68315967D01*
X219626527Y-68214195D01*
X219472260Y-68135591D01*
X219307587Y-68082085D01*
X219136574Y-68055000D01*
X218900003Y-68055000D01*
X218900003Y-68839314D01*
X218895609Y-68834920D01*
X218804397Y-68782259D01*
X218702664Y-68755000D01*
X218597342Y-68755000D01*
X218495609Y-68782259D01*
X218404397Y-68834920D01*
X218400003Y-68839314D01*
X218400003Y-68055000D01*
X218163432Y-68055000D01*
X217992418Y-68082085D01*
X217827745Y-68135591D01*
X217673478Y-68214195D01*
X217533400Y-68315967D01*
X217410970Y-68438397D01*
X217309198Y-68578475D01*
X217230594Y-68732744D01*
X217177088Y-68897415D01*
X217175887Y-68904999D01*
X211985500Y-68904999D01*
X211985500Y-67777365D01*
X211959685Y-67614381D01*
X211954955Y-67584516D01*
X211914112Y-67458812D01*
X211894618Y-67398815D01*
X211894617Y-67398812D01*
X211863919Y-67338565D01*
X211805971Y-67224836D01*
X211762316Y-67164750D01*
X211691206Y-67066874D01*
X211691202Y-67066869D01*
X211553130Y-66928797D01*
X211553125Y-66928793D01*
X211395167Y-66814031D01*
X211395166Y-66814030D01*
X211395164Y-66814029D01*
X211280395Y-66755551D01*
X211221187Y-66725382D01*
X211221184Y-66725381D01*
X211035485Y-66665045D01*
X210947776Y-66651153D01*
X217474503Y-66651153D01*
X217474503Y-66808846D01*
X217505264Y-66963489D01*
X217505267Y-66963501D01*
X217565605Y-67109172D01*
X217565612Y-67109185D01*
X217653213Y-67240288D01*
X217653216Y-67240292D01*
X217764710Y-67351786D01*
X217764714Y-67351789D01*
X217895817Y-67439390D01*
X217895830Y-67439397D01*
X218041501Y-67499735D01*
X218041506Y-67499737D01*
X218196156Y-67530499D01*
X218196159Y-67530500D01*
X218196161Y-67530500D01*
X219153847Y-67530500D01*
X219153848Y-67530499D01*
X219308500Y-67499737D01*
X219454182Y-67439394D01*
X219585292Y-67351789D01*
X219696792Y-67240289D01*
X219784397Y-67109179D01*
X219788077Y-67100296D01*
X219832808Y-66992303D01*
X219844740Y-66963497D01*
X219875503Y-66808842D01*
X219875503Y-66669071D01*
X242999502Y-66669071D01*
X243024500Y-66794738D01*
X243024502Y-66794744D01*
X243073536Y-66913124D01*
X243073541Y-66913133D01*
X243144726Y-67019668D01*
X243144729Y-67019672D01*
X243235330Y-67110273D01*
X243235334Y-67110276D01*
X243341869Y-67181461D01*
X243341875Y-67181464D01*
X243341876Y-67181465D01*
X243460259Y-67230501D01*
X243460263Y-67230501D01*
X243460264Y-67230502D01*
X243585931Y-67255500D01*
X243585934Y-67255500D01*
X243714074Y-67255500D01*
X243798618Y-67238682D01*
X243839747Y-67230501D01*
X243958130Y-67181465D01*
X244064672Y-67110276D01*
X244155279Y-67019669D01*
X244226468Y-66913127D01*
X244275504Y-66794744D01*
X244289302Y-66725381D01*
X244300503Y-66669071D01*
X244300503Y-66540928D01*
X244275505Y-66415261D01*
X244275504Y-66415260D01*
X244275504Y-66415256D01*
X244226468Y-66296873D01*
X244226467Y-66296872D01*
X244226464Y-66296866D01*
X244155279Y-66190331D01*
X244155276Y-66190327D01*
X244064675Y-66099726D01*
X244064671Y-66099723D01*
X243958136Y-66028538D01*
X243958127Y-66028533D01*
X243839747Y-65979499D01*
X243839741Y-65979497D01*
X243714074Y-65954500D01*
X243714072Y-65954500D01*
X243585934Y-65954500D01*
X243585932Y-65954500D01*
X243460264Y-65979497D01*
X243460258Y-65979499D01*
X243341878Y-66028533D01*
X243341869Y-66028538D01*
X243235334Y-66099723D01*
X243235330Y-66099726D01*
X243144729Y-66190327D01*
X243144726Y-66190331D01*
X243073541Y-66296866D01*
X243073536Y-66296875D01*
X243024502Y-66415255D01*
X243024500Y-66415261D01*
X242999503Y-66540928D01*
X242999503Y-66540931D01*
X242999503Y-66669069D01*
X242999503Y-66669071D01*
X242999502Y-66669071D01*
X219875503Y-66669071D01*
X219875503Y-66651158D01*
X219875503Y-66651155D01*
X219857178Y-66559031D01*
X219857178Y-66559030D01*
X219844741Y-66496510D01*
X219844740Y-66496503D01*
X219843158Y-66492683D01*
X219784400Y-66350827D01*
X219784393Y-66350814D01*
X219696792Y-66219711D01*
X219696789Y-66219707D01*
X219585295Y-66108213D01*
X219585291Y-66108210D01*
X219454188Y-66020609D01*
X219454175Y-66020602D01*
X219308504Y-65960264D01*
X219308492Y-65960261D01*
X219153848Y-65929500D01*
X219153845Y-65929500D01*
X218196161Y-65929500D01*
X218196158Y-65929500D01*
X218041513Y-65960261D01*
X218041501Y-65960264D01*
X217895830Y-66020602D01*
X217895817Y-66020609D01*
X217764714Y-66108210D01*
X217764710Y-66108213D01*
X217653216Y-66219707D01*
X217653213Y-66219711D01*
X217565612Y-66350814D01*
X217565605Y-66350827D01*
X217505267Y-66496498D01*
X217505264Y-66496510D01*
X217474503Y-66651153D01*
X210947776Y-66651153D01*
X210842634Y-66634500D01*
X210842629Y-66634500D01*
X210647371Y-66634500D01*
X210647366Y-66634500D01*
X210454514Y-66665045D01*
X210268815Y-66725381D01*
X210268812Y-66725382D01*
X210094832Y-66814031D01*
X209936874Y-66928793D01*
X209936869Y-66928797D01*
X209798797Y-67066869D01*
X209798793Y-67066874D01*
X209684031Y-67224832D01*
X209595382Y-67398812D01*
X209595381Y-67398815D01*
X209535045Y-67584514D01*
X209504500Y-67777365D01*
X207204999Y-67777365D01*
X207204999Y-67035028D01*
X207204998Y-67035013D01*
X207194505Y-66932303D01*
X207194505Y-66932301D01*
X207139359Y-66765880D01*
X207139354Y-66765869D01*
X207047319Y-66616659D01*
X207047316Y-66616655D01*
X206923344Y-66492683D01*
X206923340Y-66492680D01*
X206774130Y-66400645D01*
X206774119Y-66400640D01*
X206607697Y-66345494D01*
X206504986Y-66335000D01*
X205915000Y-66335000D01*
X205915000Y-67980879D01*
X205869182Y-67961901D01*
X205733944Y-67935000D01*
X205596056Y-67935000D01*
X205460818Y-67961901D01*
X205415000Y-67980879D01*
X205415000Y-66335000D01*
X204825028Y-66335000D01*
X204825012Y-66335001D01*
X204722303Y-66345494D01*
X204722301Y-66345494D01*
X204555880Y-66400640D01*
X204555869Y-66400645D01*
X204406659Y-66492680D01*
X204406655Y-66492683D01*
X204282683Y-66616655D01*
X204282680Y-66616659D01*
X204190645Y-66765869D01*
X204190640Y-66765880D01*
X204135494Y-66932302D01*
X204125000Y-67035013D01*
X197504346Y-67035013D01*
X197458130Y-66988797D01*
X197458125Y-66988793D01*
X197300167Y-66874031D01*
X197300166Y-66874030D01*
X197300164Y-66874029D01*
X197205667Y-66825880D01*
X197126187Y-66785382D01*
X197126184Y-66785381D01*
X196940485Y-66725045D01*
X196747634Y-66694500D01*
X196747629Y-66694500D01*
X196552371Y-66694500D01*
X196552366Y-66694500D01*
X196359514Y-66725045D01*
X196173815Y-66785381D01*
X196173812Y-66785382D01*
X195999832Y-66874031D01*
X195841874Y-66988793D01*
X195841869Y-66988797D01*
X195703797Y-67126869D01*
X195703793Y-67126874D01*
X195589031Y-67284832D01*
X195500382Y-67458812D01*
X195500381Y-67458815D01*
X195440045Y-67644514D01*
X195409500Y-67837365D01*
X192810500Y-67837365D01*
X192792730Y-67725174D01*
X192779955Y-67644516D01*
X192719617Y-67458813D01*
X192719617Y-67458812D01*
X192665085Y-67351789D01*
X192630971Y-67284836D01*
X192591495Y-67230502D01*
X192516206Y-67126874D01*
X192516202Y-67126869D01*
X192378130Y-66988797D01*
X192378125Y-66988793D01*
X192220167Y-66874031D01*
X192220166Y-66874030D01*
X192220164Y-66874029D01*
X192125667Y-66825880D01*
X192046187Y-66785382D01*
X192046184Y-66785381D01*
X191860485Y-66725045D01*
X191667634Y-66694500D01*
X191667629Y-66694500D01*
X191472371Y-66694500D01*
X191472366Y-66694500D01*
X191279514Y-66725045D01*
X191093815Y-66785381D01*
X191093812Y-66785382D01*
X190919832Y-66874031D01*
X190761874Y-66988793D01*
X190761869Y-66988797D01*
X190623797Y-67126869D01*
X190623793Y-67126874D01*
X190509031Y-67284832D01*
X190420382Y-67458812D01*
X190420381Y-67458815D01*
X190360045Y-67644514D01*
X190329500Y-67837365D01*
X187730500Y-67837365D01*
X187712730Y-67725174D01*
X187699955Y-67644516D01*
X187639617Y-67458813D01*
X187639617Y-67458812D01*
X187585085Y-67351789D01*
X187550971Y-67284836D01*
X187511495Y-67230502D01*
X187436206Y-67126874D01*
X187436202Y-67126869D01*
X187298130Y-66988797D01*
X187298125Y-66988793D01*
X187140167Y-66874031D01*
X187140166Y-66874030D01*
X187140164Y-66874029D01*
X187045667Y-66825880D01*
X186966187Y-66785382D01*
X186966184Y-66785381D01*
X186780485Y-66725045D01*
X186587634Y-66694500D01*
X186587629Y-66694500D01*
X186392371Y-66694500D01*
X186392366Y-66694500D01*
X186199514Y-66725045D01*
X186013815Y-66785381D01*
X186013812Y-66785382D01*
X185839832Y-66874031D01*
X185681874Y-66988793D01*
X185681869Y-66988797D01*
X185543797Y-67126869D01*
X185543793Y-67126874D01*
X185429031Y-67284832D01*
X185340382Y-67458812D01*
X185340381Y-67458815D01*
X185280045Y-67644514D01*
X185249500Y-67837365D01*
X182949999Y-67837365D01*
X182949999Y-67095028D01*
X182949998Y-67095013D01*
X182939505Y-66992303D01*
X182939505Y-66992301D01*
X182884359Y-66825880D01*
X182884354Y-66825869D01*
X182792319Y-66676659D01*
X182792316Y-66676655D01*
X182668344Y-66552683D01*
X182668340Y-66552680D01*
X182519130Y-66460645D01*
X182519119Y-66460640D01*
X182352697Y-66405494D01*
X182249986Y-66395000D01*
X181660000Y-66395000D01*
X181660000Y-68040879D01*
X181614182Y-68021901D01*
X181478944Y-67995000D01*
X181341056Y-67995000D01*
X181205818Y-68021901D01*
X181160000Y-68040879D01*
X181160000Y-66395000D01*
X180570028Y-66395000D01*
X180570012Y-66395001D01*
X180467303Y-66405494D01*
X180467301Y-66405494D01*
X180300880Y-66460640D01*
X180300869Y-66460645D01*
X180151659Y-66552680D01*
X180151655Y-66552683D01*
X180027683Y-66676655D01*
X180027680Y-66676659D01*
X179935645Y-66825869D01*
X179935640Y-66825880D01*
X179880494Y-66992302D01*
X179870000Y-67095013D01*
X173784197Y-67095013D01*
X173694648Y-66971760D01*
X173694643Y-66971754D01*
X173523245Y-66800356D01*
X173327136Y-66657874D01*
X173111157Y-66547827D01*
X172880614Y-66472919D01*
X172770000Y-66455399D01*
X172770000Y-68080879D01*
X172724182Y-68061901D01*
X172588944Y-68035000D01*
X172451056Y-68035000D01*
X172315818Y-68061901D01*
X172270000Y-68080879D01*
X172270000Y-66455399D01*
X172269999Y-66455399D01*
X172159385Y-66472919D01*
X171928842Y-66547827D01*
X171712863Y-66657874D01*
X171516754Y-66800356D01*
X171345356Y-66971754D01*
X171202874Y-67167863D01*
X171092827Y-67383840D01*
X171017920Y-67614381D01*
X170980000Y-67853799D01*
X168680499Y-67853799D01*
X168680499Y-67130734D01*
X168677646Y-67100300D01*
X168632793Y-66972117D01*
X168603408Y-66932302D01*
X168552150Y-66862849D01*
X168447186Y-66785383D01*
X168442883Y-66782207D01*
X168442881Y-66782206D01*
X168314701Y-66737353D01*
X168284270Y-66734500D01*
X166595739Y-66734500D01*
X166581751Y-66735811D01*
X166565300Y-66737354D01*
X166565297Y-66737354D01*
X166565296Y-66737355D01*
X166565294Y-66737355D01*
X166437117Y-66782206D01*
X166327849Y-66862849D01*
X166247206Y-66972118D01*
X166202353Y-67100297D01*
X166202353Y-67100299D01*
X166199500Y-67130729D01*
X160610500Y-67130729D01*
X160610500Y-64111153D01*
X217424503Y-64111153D01*
X217424503Y-64268846D01*
X217455264Y-64423489D01*
X217455267Y-64423501D01*
X217515605Y-64569172D01*
X217515612Y-64569185D01*
X217603213Y-64700288D01*
X217603216Y-64700292D01*
X217714710Y-64811786D01*
X217714714Y-64811789D01*
X217845817Y-64899390D01*
X217845830Y-64899397D01*
X217991501Y-64959735D01*
X217991506Y-64959737D01*
X218146156Y-64990499D01*
X218146159Y-64990500D01*
X218146161Y-64990500D01*
X219103847Y-64990500D01*
X219103848Y-64990499D01*
X219258500Y-64959737D01*
X219404182Y-64899394D01*
X219535292Y-64811789D01*
X219646792Y-64700289D01*
X219734397Y-64569179D01*
X219794740Y-64423497D01*
X219825503Y-64268842D01*
X219825503Y-64129071D01*
X242949502Y-64129071D01*
X242974500Y-64254738D01*
X242974502Y-64254744D01*
X243023536Y-64373124D01*
X243023541Y-64373133D01*
X243094726Y-64479668D01*
X243094729Y-64479672D01*
X243185330Y-64570273D01*
X243185334Y-64570276D01*
X243291869Y-64641461D01*
X243291875Y-64641464D01*
X243291876Y-64641465D01*
X243410259Y-64690501D01*
X243410263Y-64690501D01*
X243410264Y-64690502D01*
X243535931Y-64715500D01*
X243535934Y-64715500D01*
X243664074Y-64715500D01*
X243748618Y-64698682D01*
X243789747Y-64690501D01*
X243908130Y-64641465D01*
X244014672Y-64570276D01*
X244105279Y-64479669D01*
X244176468Y-64373127D01*
X244225504Y-64254744D01*
X244250503Y-64129069D01*
X244250503Y-64000931D01*
X244250503Y-64000928D01*
X244225505Y-63875261D01*
X244225504Y-63875260D01*
X244225504Y-63875256D01*
X244176468Y-63756873D01*
X244176467Y-63756872D01*
X244176464Y-63756866D01*
X244105279Y-63650331D01*
X244105276Y-63650327D01*
X244014675Y-63559726D01*
X244014671Y-63559723D01*
X243908136Y-63488538D01*
X243908127Y-63488533D01*
X243789747Y-63439499D01*
X243789741Y-63439497D01*
X243664074Y-63414500D01*
X243664072Y-63414500D01*
X243535934Y-63414500D01*
X243535932Y-63414500D01*
X243410264Y-63439497D01*
X243410258Y-63439499D01*
X243291878Y-63488533D01*
X243291869Y-63488538D01*
X243185334Y-63559723D01*
X243185330Y-63559726D01*
X243094729Y-63650327D01*
X243094726Y-63650331D01*
X243023541Y-63756866D01*
X243023536Y-63756875D01*
X242974502Y-63875255D01*
X242974500Y-63875261D01*
X242949503Y-64000928D01*
X242949503Y-64000931D01*
X242949503Y-64129069D01*
X242949503Y-64129071D01*
X242949502Y-64129071D01*
X219825503Y-64129071D01*
X219825503Y-64111158D01*
X219825503Y-64111155D01*
X219807178Y-64019031D01*
X219807178Y-64019030D01*
X219794741Y-63956510D01*
X219794740Y-63956503D01*
X219761087Y-63875256D01*
X219734400Y-63810827D01*
X219734393Y-63810814D01*
X219646792Y-63679711D01*
X219646789Y-63679707D01*
X219535295Y-63568213D01*
X219535291Y-63568210D01*
X219404188Y-63480609D01*
X219404175Y-63480602D01*
X219258504Y-63420264D01*
X219258492Y-63420261D01*
X219103848Y-63389500D01*
X219103845Y-63389500D01*
X218146161Y-63389500D01*
X218146158Y-63389500D01*
X217991513Y-63420261D01*
X217991501Y-63420264D01*
X217845830Y-63480602D01*
X217845817Y-63480609D01*
X217714714Y-63568210D01*
X217714710Y-63568213D01*
X217603216Y-63679707D01*
X217603213Y-63679711D01*
X217515612Y-63810814D01*
X217515605Y-63810827D01*
X217455267Y-63956498D01*
X217455264Y-63956510D01*
X217424503Y-64111153D01*
X160610500Y-64111153D01*
X160610500Y-59857378D01*
X162419500Y-59857378D01*
X162419500Y-60132621D01*
X162450315Y-60406108D01*
X162450317Y-60406124D01*
X162511561Y-60674453D01*
X162511565Y-60674465D01*
X162602467Y-60934246D01*
X162721884Y-61182218D01*
X162744203Y-61217738D01*
X162868319Y-61415268D01*
X163039925Y-61630455D01*
X163234545Y-61825075D01*
X163449732Y-61996681D01*
X163682779Y-62143114D01*
X163930757Y-62262534D01*
X164125865Y-62330805D01*
X164190534Y-62353434D01*
X164190546Y-62353438D01*
X164458879Y-62414683D01*
X164732378Y-62445499D01*
X164732379Y-62445500D01*
X164732383Y-62445500D01*
X165007621Y-62445500D01*
X165007621Y-62445499D01*
X165281121Y-62414683D01*
X165549454Y-62353438D01*
X165809243Y-62262534D01*
X166057221Y-62143114D01*
X166290268Y-61996681D01*
X166505455Y-61825075D01*
X166700075Y-61630455D01*
X166763316Y-61551153D01*
X217424503Y-61551153D01*
X217424503Y-61708846D01*
X217455264Y-61863489D01*
X217455267Y-61863501D01*
X217515605Y-62009172D01*
X217515612Y-62009185D01*
X217603213Y-62140288D01*
X217603216Y-62140292D01*
X217714710Y-62251786D01*
X217714714Y-62251789D01*
X217845817Y-62339390D01*
X217845830Y-62339397D01*
X217991501Y-62399735D01*
X217991506Y-62399737D01*
X218146156Y-62430499D01*
X218146159Y-62430500D01*
X218146161Y-62430500D01*
X219103847Y-62430500D01*
X219103848Y-62430499D01*
X219258500Y-62399737D01*
X219404182Y-62339394D01*
X219535292Y-62251789D01*
X219646792Y-62140289D01*
X219734397Y-62009179D01*
X219794740Y-61863497D01*
X219825503Y-61708842D01*
X219825503Y-61551158D01*
X219825503Y-61551155D01*
X219804239Y-61444258D01*
X219800638Y-61426153D01*
X242399503Y-61426153D01*
X242399503Y-61583846D01*
X242430264Y-61738489D01*
X242430267Y-61738501D01*
X242490605Y-61884172D01*
X242490612Y-61884185D01*
X242578213Y-62015288D01*
X242578216Y-62015292D01*
X242689710Y-62126786D01*
X242689714Y-62126789D01*
X242820817Y-62214390D01*
X242820830Y-62214397D01*
X242911104Y-62251789D01*
X242966506Y-62274737D01*
X243121156Y-62305499D01*
X243121159Y-62305500D01*
X243121161Y-62305500D01*
X244078847Y-62305500D01*
X244078848Y-62305499D01*
X244233500Y-62274737D01*
X244379182Y-62214394D01*
X244510292Y-62126789D01*
X244621792Y-62015289D01*
X244709397Y-61884179D01*
X244769740Y-61738497D01*
X244800503Y-61583842D01*
X244800503Y-61426158D01*
X244800503Y-61426155D01*
X244800502Y-61426153D01*
X244769741Y-61271510D01*
X244769740Y-61271503D01*
X244761173Y-61250821D01*
X244709400Y-61125827D01*
X244709393Y-61125814D01*
X244621792Y-60994711D01*
X244621789Y-60994707D01*
X244510295Y-60883213D01*
X244510291Y-60883210D01*
X244379188Y-60795609D01*
X244379175Y-60795602D01*
X244233504Y-60735264D01*
X244233492Y-60735261D01*
X244078848Y-60704500D01*
X244078845Y-60704500D01*
X243121161Y-60704500D01*
X243121158Y-60704500D01*
X242966513Y-60735261D01*
X242966501Y-60735264D01*
X242820830Y-60795602D01*
X242820817Y-60795609D01*
X242689714Y-60883210D01*
X242689710Y-60883213D01*
X242578216Y-60994707D01*
X242578213Y-60994711D01*
X242490612Y-61125814D01*
X242490605Y-61125827D01*
X242430267Y-61271498D01*
X242430264Y-61271510D01*
X242399503Y-61426153D01*
X219800638Y-61426153D01*
X219794740Y-61396503D01*
X219742962Y-61271498D01*
X219734400Y-61250827D01*
X219734393Y-61250814D01*
X219646792Y-61119711D01*
X219646789Y-61119707D01*
X219535295Y-61008213D01*
X219535291Y-61008210D01*
X219404188Y-60920609D01*
X219404175Y-60920602D01*
X219258504Y-60860264D01*
X219258492Y-60860261D01*
X219103848Y-60829500D01*
X219103845Y-60829500D01*
X218146161Y-60829500D01*
X218146158Y-60829500D01*
X217991513Y-60860261D01*
X217991501Y-60860264D01*
X217845830Y-60920602D01*
X217845817Y-60920609D01*
X217714714Y-61008210D01*
X217714710Y-61008213D01*
X217603216Y-61119707D01*
X217603213Y-61119711D01*
X217515612Y-61250814D01*
X217515605Y-61250827D01*
X217455267Y-61396498D01*
X217455264Y-61396510D01*
X217424503Y-61551153D01*
X166763316Y-61551153D01*
X166871681Y-61415268D01*
X167018114Y-61182221D01*
X167137534Y-60934243D01*
X167228438Y-60674454D01*
X167289683Y-60406121D01*
X167320500Y-60132617D01*
X167320500Y-59857383D01*
X167289683Y-59583879D01*
X167228438Y-59315546D01*
X167185960Y-59194152D01*
X199345001Y-59194152D01*
X199355056Y-59292583D01*
X199407906Y-59452072D01*
X199407908Y-59452077D01*
X199496114Y-59595080D01*
X199614919Y-59713885D01*
X199744793Y-59793992D01*
X199791517Y-59845940D01*
X199802740Y-59914903D01*
X199774896Y-59978985D01*
X199767378Y-59987211D01*
X199720346Y-60034243D01*
X199720343Y-60034248D01*
X199720342Y-60034249D01*
X199700244Y-60073692D01*
X199660047Y-60152582D01*
X199644500Y-60250748D01*
X199644500Y-60754251D01*
X199660047Y-60852417D01*
X199675737Y-60883210D01*
X199720342Y-60970751D01*
X199720344Y-60970753D01*
X199720346Y-60970756D01*
X199814243Y-61064653D01*
X199814245Y-61064654D01*
X199814249Y-61064658D01*
X199932580Y-61124951D01*
X199932581Y-61124951D01*
X199932583Y-61124952D01*
X199932582Y-61124952D01*
X200030749Y-61140500D01*
X200030754Y-61140500D01*
X200609251Y-61140500D01*
X200707417Y-61124952D01*
X200707418Y-61124951D01*
X200707420Y-61124951D01*
X200825751Y-61064658D01*
X200919658Y-60970751D01*
X200927911Y-60954552D01*
X200975885Y-60903756D01*
X201043706Y-60886961D01*
X201088582Y-60900022D01*
X201089304Y-60898281D01*
X201096807Y-60901388D01*
X201096814Y-60901392D01*
X201224108Y-60935500D01*
X201224110Y-60935500D01*
X201355890Y-60935500D01*
X201355892Y-60935500D01*
X201483186Y-60901392D01*
X201597314Y-60835500D01*
X201690500Y-60742314D01*
X201756392Y-60628186D01*
X201790500Y-60500892D01*
X201790500Y-60369108D01*
X201756392Y-60241814D01*
X201690500Y-60127686D01*
X201597314Y-60034500D01*
X201540250Y-60001554D01*
X201483187Y-59968608D01*
X201419539Y-59951554D01*
X201355892Y-59934500D01*
X201224108Y-59934500D01*
X201096814Y-59968608D01*
X201089304Y-59971719D01*
X201088750Y-59970381D01*
X201082575Y-59972036D01*
X201070998Y-59979477D01*
X201036063Y-59984500D01*
X201023584Y-59984500D01*
X200956545Y-59964815D01*
X200910790Y-59912011D01*
X200900846Y-59842853D01*
X200929871Y-59779297D01*
X200958487Y-59754961D01*
X201025080Y-59713885D01*
X201143885Y-59595080D01*
X201232091Y-59452077D01*
X201232093Y-59452072D01*
X201284942Y-59292583D01*
X201294999Y-59194150D01*
X201295000Y-59194137D01*
X201295000Y-59177500D01*
X199345001Y-59177500D01*
X199345001Y-59194152D01*
X167185960Y-59194152D01*
X167137534Y-59055757D01*
X167128093Y-59036153D01*
X217449503Y-59036153D01*
X217449503Y-59193846D01*
X217480264Y-59348489D01*
X217480267Y-59348501D01*
X217540605Y-59494172D01*
X217540612Y-59494185D01*
X217628213Y-59625288D01*
X217628216Y-59625292D01*
X217739710Y-59736786D01*
X217739714Y-59736789D01*
X217870817Y-59824390D01*
X217870830Y-59824397D01*
X217989889Y-59873712D01*
X218016506Y-59884737D01*
X218153621Y-59912011D01*
X218171156Y-59915499D01*
X218171159Y-59915500D01*
X218171161Y-59915500D01*
X219128847Y-59915500D01*
X219128848Y-59915499D01*
X219283500Y-59884737D01*
X219310119Y-59873711D01*
X251029500Y-59873711D01*
X251029500Y-60116288D01*
X251061161Y-60356785D01*
X251123947Y-60591104D01*
X251216773Y-60815205D01*
X251216777Y-60815214D01*
X251228489Y-60835499D01*
X251338064Y-61025289D01*
X251338066Y-61025292D01*
X251338067Y-61025293D01*
X251485733Y-61217736D01*
X251485739Y-61217743D01*
X251657256Y-61389260D01*
X251657263Y-61389266D01*
X251666704Y-61396510D01*
X251849711Y-61536936D01*
X252059788Y-61658224D01*
X252283900Y-61751054D01*
X252518211Y-61813838D01*
X252698586Y-61837584D01*
X252758711Y-61845500D01*
X252758712Y-61845500D01*
X253001289Y-61845500D01*
X253049388Y-61839167D01*
X253241789Y-61813838D01*
X253476100Y-61751054D01*
X253700212Y-61658224D01*
X253910289Y-61536936D01*
X254102738Y-61389265D01*
X254274265Y-61217738D01*
X254421936Y-61025289D01*
X254543224Y-60815212D01*
X254636054Y-60591100D01*
X254698838Y-60356789D01*
X254730500Y-60116288D01*
X254730500Y-59873712D01*
X254698838Y-59633211D01*
X254636054Y-59398900D01*
X254543224Y-59174788D01*
X254421936Y-58964711D01*
X254336035Y-58852762D01*
X254274266Y-58772263D01*
X254274260Y-58772256D01*
X254102743Y-58600739D01*
X254102736Y-58600733D01*
X253910293Y-58453067D01*
X253910292Y-58453066D01*
X253910289Y-58453064D01*
X253723569Y-58345261D01*
X253700214Y-58331777D01*
X253700205Y-58331773D01*
X253476104Y-58238947D01*
X253241785Y-58176161D01*
X253001289Y-58144500D01*
X253001288Y-58144500D01*
X252758712Y-58144500D01*
X252758711Y-58144500D01*
X252518214Y-58176161D01*
X252283895Y-58238947D01*
X252059794Y-58331773D01*
X252059785Y-58331777D01*
X251849706Y-58453067D01*
X251657263Y-58600733D01*
X251657256Y-58600739D01*
X251485739Y-58772256D01*
X251485733Y-58772263D01*
X251338067Y-58964706D01*
X251216777Y-59174785D01*
X251216773Y-59174794D01*
X251123947Y-59398895D01*
X251061161Y-59633214D01*
X251029500Y-59873711D01*
X219310119Y-59873711D01*
X219429182Y-59824394D01*
X219474682Y-59793992D01*
X219515751Y-59766551D01*
X219537219Y-59752205D01*
X219560292Y-59736789D01*
X219671792Y-59625289D01*
X219759397Y-59494179D01*
X219819740Y-59348497D01*
X219850503Y-59193842D01*
X219850503Y-59054071D01*
X242974502Y-59054071D01*
X242999500Y-59179738D01*
X242999502Y-59179744D01*
X243048536Y-59298124D01*
X243048541Y-59298133D01*
X243119726Y-59404668D01*
X243119729Y-59404672D01*
X243210330Y-59495273D01*
X243210334Y-59495276D01*
X243316869Y-59566461D01*
X243316875Y-59566464D01*
X243316876Y-59566465D01*
X243435259Y-59615501D01*
X243435263Y-59615501D01*
X243435264Y-59615502D01*
X243560931Y-59640500D01*
X243560934Y-59640500D01*
X243689074Y-59640500D01*
X243773618Y-59623682D01*
X243814747Y-59615501D01*
X243933130Y-59566465D01*
X244039672Y-59495276D01*
X244130279Y-59404669D01*
X244201468Y-59298127D01*
X244250504Y-59179744D01*
X244272132Y-59071017D01*
X244275503Y-59054071D01*
X244275503Y-58925928D01*
X244250505Y-58800261D01*
X244250504Y-58800260D01*
X244250504Y-58800256D01*
X244204083Y-58688186D01*
X244201469Y-58681875D01*
X244201464Y-58681866D01*
X244130279Y-58575331D01*
X244130276Y-58575327D01*
X244039675Y-58484726D01*
X244039671Y-58484723D01*
X243933136Y-58413538D01*
X243933127Y-58413533D01*
X243814747Y-58364499D01*
X243814741Y-58364497D01*
X243689074Y-58339500D01*
X243689072Y-58339500D01*
X243560934Y-58339500D01*
X243560932Y-58339500D01*
X243435264Y-58364497D01*
X243435258Y-58364499D01*
X243316878Y-58413533D01*
X243316869Y-58413538D01*
X243210334Y-58484723D01*
X243210330Y-58484726D01*
X243119729Y-58575327D01*
X243119726Y-58575331D01*
X243048541Y-58681866D01*
X243048536Y-58681875D01*
X242999502Y-58800255D01*
X242999500Y-58800261D01*
X242974503Y-58925928D01*
X242974503Y-58925931D01*
X242974503Y-59054069D01*
X242974503Y-59054071D01*
X242974502Y-59054071D01*
X219850503Y-59054071D01*
X219850503Y-59036158D01*
X219850503Y-59036155D01*
X219850502Y-59036153D01*
X219845577Y-59011392D01*
X219819740Y-58881503D01*
X219807835Y-58852762D01*
X219759400Y-58735827D01*
X219759393Y-58735814D01*
X219671792Y-58604711D01*
X219671789Y-58604707D01*
X219560295Y-58493213D01*
X219560291Y-58493210D01*
X219464356Y-58429108D01*
X226819500Y-58429108D01*
X226819500Y-58560892D01*
X226823209Y-58574733D01*
X226853608Y-58688187D01*
X226874096Y-58723672D01*
X226919500Y-58802314D01*
X227012686Y-58895500D01*
X227126814Y-58961392D01*
X227254108Y-58995500D01*
X227254110Y-58995500D01*
X227385890Y-58995500D01*
X227385892Y-58995500D01*
X227513186Y-58961392D01*
X227627314Y-58895500D01*
X227720500Y-58802314D01*
X227786392Y-58688186D01*
X227820500Y-58560892D01*
X227820500Y-58479108D01*
X228339500Y-58479108D01*
X228339500Y-58610891D01*
X228373608Y-58738187D01*
X228393278Y-58772256D01*
X228439500Y-58852314D01*
X228532686Y-58945500D01*
X228646814Y-59011392D01*
X228774108Y-59045500D01*
X228774110Y-59045500D01*
X228905890Y-59045500D01*
X228905892Y-59045500D01*
X229033186Y-59011392D01*
X229147314Y-58945500D01*
X229240500Y-58852314D01*
X229306392Y-58738186D01*
X229309872Y-58725197D01*
X229317021Y-58712136D01*
X229328446Y-58700733D01*
X229338113Y-58683989D01*
X229361255Y-58660847D01*
X229450489Y-58571614D01*
X229497898Y-58489499D01*
X229509799Y-58468886D01*
X229540500Y-58354309D01*
X229540500Y-56554071D01*
X242999502Y-56554071D01*
X243024500Y-56679738D01*
X243024502Y-56679744D01*
X243073536Y-56798124D01*
X243073541Y-56798133D01*
X243144726Y-56904668D01*
X243144729Y-56904672D01*
X243235330Y-56995273D01*
X243235334Y-56995276D01*
X243341869Y-57066461D01*
X243341875Y-57066464D01*
X243341876Y-57066465D01*
X243460259Y-57115501D01*
X243460263Y-57115501D01*
X243460264Y-57115502D01*
X243585931Y-57140500D01*
X243585934Y-57140500D01*
X243714074Y-57140500D01*
X243798618Y-57123682D01*
X243839747Y-57115501D01*
X243958130Y-57066465D01*
X244064672Y-56995276D01*
X244155279Y-56904669D01*
X244226468Y-56798127D01*
X244275504Y-56679744D01*
X244300503Y-56554069D01*
X244300503Y-56425931D01*
X244300503Y-56425928D01*
X244275505Y-56300261D01*
X244275504Y-56300260D01*
X244275504Y-56300256D01*
X244226468Y-56181873D01*
X244226467Y-56181872D01*
X244226464Y-56181866D01*
X244155279Y-56075331D01*
X244155276Y-56075327D01*
X244064675Y-55984726D01*
X244064671Y-55984723D01*
X243958136Y-55913538D01*
X243958127Y-55913533D01*
X243839747Y-55864499D01*
X243839741Y-55864497D01*
X243714074Y-55839500D01*
X243714072Y-55839500D01*
X243585934Y-55839500D01*
X243585932Y-55839500D01*
X243460264Y-55864497D01*
X243460258Y-55864499D01*
X243341878Y-55913533D01*
X243341869Y-55913538D01*
X243235334Y-55984723D01*
X243235330Y-55984726D01*
X243144729Y-56075327D01*
X243144726Y-56075331D01*
X243073541Y-56181866D01*
X243073536Y-56181875D01*
X243024502Y-56300255D01*
X243024500Y-56300261D01*
X242999503Y-56425928D01*
X242999503Y-56425931D01*
X242999503Y-56554069D01*
X242999503Y-56554071D01*
X242999502Y-56554071D01*
X229540500Y-56554071D01*
X229540500Y-53851153D01*
X242449503Y-53851153D01*
X242449503Y-54008846D01*
X242480264Y-54163489D01*
X242480267Y-54163501D01*
X242540605Y-54309172D01*
X242540612Y-54309185D01*
X242628213Y-54440288D01*
X242628216Y-54440292D01*
X242739710Y-54551786D01*
X242739714Y-54551789D01*
X242870817Y-54639390D01*
X242870830Y-54639397D01*
X242961104Y-54676789D01*
X243016506Y-54699737D01*
X243171156Y-54730499D01*
X243171159Y-54730500D01*
X243171161Y-54730500D01*
X244128847Y-54730500D01*
X244128848Y-54730499D01*
X244283500Y-54699737D01*
X244429182Y-54639394D01*
X244560292Y-54551789D01*
X244671792Y-54440289D01*
X244759397Y-54309179D01*
X244819740Y-54163497D01*
X244850503Y-54008842D01*
X244850503Y-53851158D01*
X244850503Y-53851155D01*
X244850502Y-53851153D01*
X244819741Y-53696510D01*
X244819740Y-53696503D01*
X244811173Y-53675821D01*
X244759400Y-53550827D01*
X244759393Y-53550814D01*
X244671792Y-53419711D01*
X244671789Y-53419707D01*
X244560295Y-53308213D01*
X244560291Y-53308210D01*
X244429188Y-53220609D01*
X244429175Y-53220602D01*
X244283504Y-53160264D01*
X244283492Y-53160261D01*
X244128848Y-53129500D01*
X244128845Y-53129500D01*
X243171161Y-53129500D01*
X243171158Y-53129500D01*
X243016513Y-53160261D01*
X243016501Y-53160264D01*
X242870830Y-53220602D01*
X242870817Y-53220609D01*
X242739714Y-53308210D01*
X242739710Y-53308213D01*
X242628216Y-53419707D01*
X242628213Y-53419711D01*
X242540612Y-53550814D01*
X242540605Y-53550827D01*
X242480267Y-53696498D01*
X242480264Y-53696510D01*
X242449503Y-53851153D01*
X229540500Y-53851153D01*
X229540500Y-52118936D01*
X229554618Y-52066246D01*
X229553282Y-52065693D01*
X229556388Y-52058192D01*
X229556392Y-52058186D01*
X229590500Y-51930892D01*
X229590500Y-51799108D01*
X229556392Y-51671814D01*
X229490500Y-51557686D01*
X229397314Y-51464500D01*
X229307165Y-51412452D01*
X229307164Y-51412451D01*
X229283188Y-51398609D01*
X229283187Y-51398608D01*
X229283186Y-51398608D01*
X229155892Y-51364500D01*
X229024108Y-51364500D01*
X228896812Y-51398608D01*
X228782686Y-51464500D01*
X228782683Y-51464502D01*
X228689502Y-51557683D01*
X228689500Y-51557686D01*
X228623608Y-51671812D01*
X228603061Y-51748497D01*
X228589500Y-51799108D01*
X228589500Y-51930892D01*
X228614793Y-52025288D01*
X228623608Y-52058186D01*
X228626718Y-52065693D01*
X228625381Y-52066246D01*
X228639500Y-52118936D01*
X228639500Y-58011238D01*
X228619815Y-58078277D01*
X228577503Y-58118624D01*
X228532686Y-58144500D01*
X228532683Y-58144502D01*
X228439502Y-58237683D01*
X228439500Y-58237686D01*
X228373608Y-58351812D01*
X228339500Y-58479108D01*
X227820500Y-58479108D01*
X227820500Y-58429108D01*
X227820500Y-51388936D01*
X227834618Y-51336246D01*
X227833282Y-51335693D01*
X227836388Y-51328192D01*
X227836392Y-51328186D01*
X227840956Y-51311153D01*
X242399503Y-51311153D01*
X242399503Y-51468846D01*
X242430264Y-51623489D01*
X242430267Y-51623501D01*
X242490605Y-51769172D01*
X242490612Y-51769185D01*
X242578213Y-51900288D01*
X242578216Y-51900292D01*
X242689710Y-52011786D01*
X242689714Y-52011789D01*
X242820817Y-52099390D01*
X242820830Y-52099397D01*
X242911104Y-52136789D01*
X242966506Y-52159737D01*
X243121156Y-52190499D01*
X243121159Y-52190500D01*
X243121161Y-52190500D01*
X244078847Y-52190500D01*
X244078848Y-52190499D01*
X244233500Y-52159737D01*
X244379182Y-52099394D01*
X244510292Y-52011789D01*
X244621792Y-51900289D01*
X244709397Y-51769179D01*
X244769740Y-51623497D01*
X244800503Y-51468842D01*
X244800503Y-51311158D01*
X244800503Y-51311155D01*
X244800502Y-51311153D01*
X244779920Y-51207683D01*
X244769740Y-51156503D01*
X244761173Y-51135821D01*
X244709400Y-51010827D01*
X244709393Y-51010814D01*
X244621792Y-50879711D01*
X244621789Y-50879707D01*
X244510295Y-50768213D01*
X244510291Y-50768210D01*
X244379188Y-50680609D01*
X244379175Y-50680602D01*
X244233504Y-50620264D01*
X244233492Y-50620261D01*
X244078848Y-50589500D01*
X244078845Y-50589500D01*
X243121161Y-50589500D01*
X243121158Y-50589500D01*
X242966513Y-50620261D01*
X242966501Y-50620264D01*
X242820830Y-50680602D01*
X242820817Y-50680609D01*
X242689714Y-50768210D01*
X242689710Y-50768213D01*
X242578216Y-50879707D01*
X242578213Y-50879711D01*
X242490612Y-51010814D01*
X242490605Y-51010827D01*
X242430267Y-51156498D01*
X242430264Y-51156510D01*
X242399503Y-51311153D01*
X227840956Y-51311153D01*
X227870500Y-51200892D01*
X227870500Y-51069108D01*
X227836392Y-50941814D01*
X227770500Y-50827686D01*
X227677314Y-50734500D01*
X227606844Y-50693814D01*
X227563187Y-50668608D01*
X227499539Y-50651554D01*
X227435892Y-50634500D01*
X227304108Y-50634500D01*
X227176812Y-50668608D01*
X227062686Y-50734500D01*
X227062683Y-50734502D01*
X226969502Y-50827683D01*
X226969500Y-50827686D01*
X226903608Y-50941812D01*
X226874700Y-51049701D01*
X226869500Y-51069108D01*
X226869500Y-51200892D01*
X226891101Y-51281508D01*
X226903608Y-51328186D01*
X226906718Y-51335693D01*
X226905381Y-51336246D01*
X226919500Y-51388936D01*
X226919500Y-58154460D01*
X226902887Y-58216460D01*
X226853609Y-58301810D01*
X226853609Y-58301811D01*
X226853608Y-58301813D01*
X226853608Y-58301814D01*
X226819500Y-58429108D01*
X219464356Y-58429108D01*
X219429188Y-58405609D01*
X219429175Y-58405602D01*
X219283504Y-58345264D01*
X219283492Y-58345261D01*
X219128848Y-58314500D01*
X219128845Y-58314500D01*
X218171161Y-58314500D01*
X218171158Y-58314500D01*
X218016513Y-58345261D01*
X218016501Y-58345264D01*
X217870830Y-58405602D01*
X217870817Y-58405609D01*
X217739714Y-58493210D01*
X217739710Y-58493213D01*
X217628216Y-58604707D01*
X217628213Y-58604711D01*
X217540612Y-58735814D01*
X217540605Y-58735827D01*
X217480267Y-58881498D01*
X217480264Y-58881510D01*
X217449503Y-59036153D01*
X167128093Y-59036153D01*
X167018114Y-58807779D01*
X166925792Y-58660849D01*
X199345000Y-58660849D01*
X199345000Y-58677500D01*
X200070000Y-58677500D01*
X200570000Y-58677500D01*
X201294999Y-58677500D01*
X201294999Y-58660864D01*
X201294998Y-58660847D01*
X201284943Y-58562416D01*
X201232093Y-58402927D01*
X201232091Y-58402922D01*
X201143885Y-58259919D01*
X201025080Y-58141114D01*
X200882077Y-58052908D01*
X200882072Y-58052906D01*
X200722583Y-58000057D01*
X200624150Y-57990000D01*
X200570000Y-57990000D01*
X200570000Y-58677500D01*
X200070000Y-58677500D01*
X200070000Y-57990000D01*
X200069999Y-57989999D01*
X200015864Y-57990000D01*
X200015847Y-57990001D01*
X199917415Y-58000057D01*
X199757927Y-58052906D01*
X199757922Y-58052908D01*
X199614919Y-58141114D01*
X199496114Y-58259919D01*
X199407908Y-58402922D01*
X199407906Y-58402927D01*
X199355057Y-58562416D01*
X199345000Y-58660849D01*
X166925792Y-58660849D01*
X166871681Y-58574732D01*
X166700075Y-58359545D01*
X166505455Y-58164925D01*
X166492332Y-58154460D01*
X166364990Y-58052908D01*
X166290268Y-57993319D01*
X166057221Y-57846886D01*
X166057218Y-57846884D01*
X165809246Y-57727467D01*
X165549465Y-57636565D01*
X165549453Y-57636561D01*
X165281124Y-57575317D01*
X165281108Y-57575315D01*
X165007621Y-57544500D01*
X165007617Y-57544500D01*
X164732383Y-57544500D01*
X164732379Y-57544500D01*
X164458891Y-57575315D01*
X164458875Y-57575317D01*
X164190546Y-57636561D01*
X164190534Y-57636565D01*
X163930753Y-57727467D01*
X163682781Y-57846884D01*
X163449733Y-57993318D01*
X163234545Y-58164924D01*
X163039924Y-58359545D01*
X162868318Y-58574733D01*
X162721884Y-58807781D01*
X162602467Y-59055753D01*
X162511565Y-59315534D01*
X162511561Y-59315546D01*
X162450317Y-59583875D01*
X162450315Y-59583891D01*
X162419500Y-59857378D01*
X160610500Y-59857378D01*
X160610500Y-57109108D01*
X213649500Y-57109108D01*
X213649500Y-57240891D01*
X213683608Y-57368187D01*
X213693164Y-57384738D01*
X213749500Y-57482314D01*
X213842686Y-57575500D01*
X213941521Y-57632563D01*
X213951425Y-57638281D01*
X213956814Y-57641392D01*
X214084108Y-57675500D01*
X214084110Y-57675500D01*
X214215890Y-57675500D01*
X214215892Y-57675500D01*
X214343186Y-57641392D01*
X214343194Y-57641387D01*
X214350696Y-57638281D01*
X214351249Y-57639618D01*
X214403937Y-57625500D01*
X215606063Y-57625500D01*
X215658750Y-57639618D01*
X215659304Y-57638281D01*
X215666807Y-57641388D01*
X215666814Y-57641392D01*
X215794108Y-57675500D01*
X215794110Y-57675500D01*
X215925890Y-57675500D01*
X215925892Y-57675500D01*
X216053186Y-57641392D01*
X216167314Y-57575500D01*
X216260500Y-57482314D01*
X216326392Y-57368186D01*
X216360500Y-57240892D01*
X216360500Y-57109108D01*
X216326392Y-56981814D01*
X216260500Y-56867686D01*
X216167314Y-56774500D01*
X216080712Y-56724500D01*
X216053187Y-56708608D01*
X215989539Y-56691554D01*
X215925892Y-56674500D01*
X215794108Y-56674500D01*
X215666814Y-56708608D01*
X215659304Y-56711719D01*
X215658750Y-56710381D01*
X215606063Y-56724500D01*
X214403937Y-56724500D01*
X214351249Y-56710381D01*
X214350696Y-56711719D01*
X214343188Y-56708609D01*
X214343186Y-56708608D01*
X214215892Y-56674500D01*
X214084108Y-56674500D01*
X213956812Y-56708608D01*
X213842686Y-56774500D01*
X213842683Y-56774502D01*
X213749502Y-56867683D01*
X213749500Y-56867686D01*
X213683608Y-56981812D01*
X213649500Y-57109108D01*
X160610500Y-57109108D01*
X160610500Y-56536153D01*
X217474503Y-56536153D01*
X217474503Y-56693846D01*
X217505264Y-56848489D01*
X217505267Y-56848501D01*
X217565605Y-56994172D01*
X217565612Y-56994185D01*
X217653213Y-57125288D01*
X217653216Y-57125292D01*
X217764710Y-57236786D01*
X217764714Y-57236789D01*
X217895817Y-57324390D01*
X217895830Y-57324397D01*
X218001548Y-57368186D01*
X218041506Y-57384737D01*
X218196156Y-57415499D01*
X218196159Y-57415500D01*
X218196161Y-57415500D01*
X219153847Y-57415500D01*
X219153848Y-57415499D01*
X219308500Y-57384737D01*
X219454182Y-57324394D01*
X219585292Y-57236789D01*
X219696792Y-57125289D01*
X219784397Y-56994179D01*
X219844740Y-56848497D01*
X219875503Y-56693842D01*
X219875503Y-56536158D01*
X219875503Y-56536155D01*
X219875502Y-56536153D01*
X219871788Y-56517484D01*
X219844740Y-56381503D01*
X219806469Y-56289108D01*
X224659500Y-56289108D01*
X224659500Y-56420892D01*
X224660850Y-56425931D01*
X224693608Y-56548187D01*
X224726554Y-56605250D01*
X224759500Y-56662314D01*
X224852686Y-56755500D01*
X224966814Y-56821392D01*
X225094108Y-56855500D01*
X225094110Y-56855500D01*
X225225890Y-56855500D01*
X225225892Y-56855500D01*
X225353186Y-56821392D01*
X225467314Y-56755500D01*
X225560500Y-56662314D01*
X225626392Y-56548186D01*
X225626393Y-56548180D01*
X225629504Y-56540674D01*
X225630842Y-56541228D01*
X225658110Y-56493991D01*
X225910489Y-56241614D01*
X225969798Y-56138887D01*
X225969799Y-56138886D01*
X226000500Y-56024309D01*
X226000500Y-53038936D01*
X226014618Y-52986246D01*
X226013282Y-52985693D01*
X226016388Y-52978192D01*
X226016392Y-52978186D01*
X226050500Y-52850892D01*
X226050500Y-52719108D01*
X226016392Y-52591814D01*
X225950500Y-52477686D01*
X225857314Y-52384500D01*
X225800250Y-52351554D01*
X225743187Y-52318608D01*
X225676542Y-52300751D01*
X225615892Y-52284500D01*
X225484108Y-52284500D01*
X225356812Y-52318608D01*
X225242686Y-52384500D01*
X225242683Y-52384502D01*
X225149502Y-52477683D01*
X225149500Y-52477686D01*
X225083608Y-52591812D01*
X225049500Y-52719108D01*
X225049500Y-52850891D01*
X225083608Y-52978186D01*
X225086718Y-52985693D01*
X225085381Y-52986246D01*
X225099500Y-53038936D01*
X225099500Y-55727033D01*
X225090853Y-55756478D01*
X225084331Y-55786461D01*
X225080577Y-55791474D01*
X225079815Y-55794072D01*
X225063180Y-55814715D01*
X225021006Y-55856888D01*
X224973774Y-55884159D01*
X224974328Y-55885495D01*
X224966816Y-55888606D01*
X224852689Y-55954498D01*
X224852683Y-55954502D01*
X224759502Y-56047683D01*
X224759500Y-56047686D01*
X224693608Y-56161812D01*
X224672226Y-56241614D01*
X224659500Y-56289108D01*
X219806469Y-56289108D01*
X219786797Y-56241614D01*
X219784400Y-56235827D01*
X219784393Y-56235814D01*
X219696792Y-56104711D01*
X219696789Y-56104707D01*
X219585295Y-55993213D01*
X219585291Y-55993210D01*
X219454188Y-55905609D01*
X219454175Y-55905602D01*
X219308504Y-55845264D01*
X219308492Y-55845261D01*
X219153848Y-55814500D01*
X219153845Y-55814500D01*
X218196161Y-55814500D01*
X218196158Y-55814500D01*
X218041513Y-55845261D01*
X218041501Y-55845264D01*
X217895830Y-55905602D01*
X217895817Y-55905609D01*
X217764714Y-55993210D01*
X217764710Y-55993213D01*
X217653216Y-56104707D01*
X217653213Y-56104711D01*
X217565612Y-56235814D01*
X217565605Y-56235827D01*
X217505267Y-56381498D01*
X217505264Y-56381510D01*
X217474503Y-56536153D01*
X160610500Y-56536153D01*
X160610500Y-53976153D01*
X217474503Y-53976153D01*
X217474503Y-54133846D01*
X217505264Y-54288489D01*
X217505267Y-54288501D01*
X217565605Y-54434172D01*
X217565612Y-54434185D01*
X217653213Y-54565288D01*
X217653216Y-54565292D01*
X217764710Y-54676786D01*
X217764714Y-54676789D01*
X217895817Y-54764390D01*
X217895830Y-54764397D01*
X218041501Y-54824735D01*
X218041506Y-54824737D01*
X218196156Y-54855499D01*
X218196159Y-54855500D01*
X218196161Y-54855500D01*
X219153847Y-54855500D01*
X219153848Y-54855499D01*
X219308500Y-54824737D01*
X219454182Y-54764394D01*
X219585292Y-54676789D01*
X219696792Y-54565289D01*
X219784397Y-54434179D01*
X219844740Y-54288497D01*
X219875503Y-54133842D01*
X219875503Y-53976158D01*
X219875503Y-53976155D01*
X219875502Y-53976153D01*
X219844740Y-53821503D01*
X219792962Y-53696498D01*
X219784400Y-53675827D01*
X219784393Y-53675814D01*
X219696792Y-53544711D01*
X219696789Y-53544707D01*
X219585295Y-53433213D01*
X219585291Y-53433210D01*
X219454188Y-53345609D01*
X219454175Y-53345602D01*
X219308504Y-53285264D01*
X219308492Y-53285261D01*
X219153848Y-53254500D01*
X219153845Y-53254500D01*
X218196161Y-53254500D01*
X218196158Y-53254500D01*
X218041513Y-53285261D01*
X218041501Y-53285264D01*
X217895830Y-53345602D01*
X217895817Y-53345609D01*
X217764714Y-53433210D01*
X217764710Y-53433213D01*
X217653216Y-53544707D01*
X217653213Y-53544711D01*
X217565612Y-53675814D01*
X217565605Y-53675827D01*
X217505267Y-53821498D01*
X217505264Y-53821510D01*
X217474503Y-53976153D01*
X160610500Y-53976153D01*
X160610500Y-48712682D01*
X163498126Y-48712682D01*
X163498126Y-48917317D01*
X163530135Y-49119417D01*
X163593370Y-49314031D01*
X163686267Y-49496350D01*
X163686273Y-49496359D01*
X163718649Y-49540921D01*
X163718650Y-49540922D01*
X164398126Y-48861446D01*
X164398126Y-48867661D01*
X164425385Y-48969394D01*
X164478046Y-49060606D01*
X164552520Y-49135080D01*
X164643732Y-49187741D01*
X164745465Y-49215000D01*
X164751679Y-49215000D01*
X164072202Y-49894474D01*
X164116772Y-49926857D01*
X164116774Y-49926858D01*
X164145950Y-49941723D01*
X164196747Y-49989697D01*
X164213543Y-50057517D01*
X164207590Y-50090522D01*
X164201072Y-50110582D01*
X164169063Y-50312682D01*
X164169063Y-50517317D01*
X164201072Y-50719417D01*
X164264307Y-50914031D01*
X164357204Y-51096350D01*
X164357210Y-51096359D01*
X164389586Y-51140921D01*
X164389587Y-51140922D01*
X165069063Y-50461446D01*
X165069063Y-50467661D01*
X165096322Y-50569394D01*
X165148983Y-50660606D01*
X165223457Y-50735080D01*
X165314669Y-50787741D01*
X165416402Y-50815000D01*
X165422616Y-50815000D01*
X164743139Y-51494474D01*
X164787713Y-51526859D01*
X164970031Y-51619755D01*
X165164645Y-51682990D01*
X165366746Y-51715000D01*
X165571380Y-51715000D01*
X165773480Y-51682990D01*
X165968094Y-51619755D01*
X166150412Y-51526859D01*
X166194984Y-51494474D01*
X165515510Y-50815000D01*
X165521724Y-50815000D01*
X165623457Y-50787741D01*
X165714669Y-50735080D01*
X165789143Y-50660606D01*
X165841804Y-50569394D01*
X165869063Y-50467661D01*
X165869063Y-50461448D01*
X166548537Y-51140922D01*
X166548537Y-51140921D01*
X166580922Y-51096349D01*
X166673817Y-50914031D01*
X166726632Y-50751489D01*
X166766070Y-50693814D01*
X166830429Y-50666616D01*
X166899275Y-50678531D01*
X166950751Y-50725775D01*
X166968563Y-50789808D01*
X166968563Y-51019269D01*
X166971416Y-51049699D01*
X166971416Y-51049701D01*
X167015590Y-51175940D01*
X167016270Y-51177882D01*
X167096913Y-51287150D01*
X167206181Y-51367793D01*
X167241924Y-51380300D01*
X167334362Y-51412646D01*
X167364793Y-51415500D01*
X167364797Y-51415500D01*
X167515500Y-51415500D01*
X167582539Y-51435185D01*
X167628294Y-51487989D01*
X167639500Y-51539500D01*
X167639500Y-52619269D01*
X167642353Y-52649699D01*
X167642353Y-52649701D01*
X167687206Y-52777880D01*
X167687207Y-52777882D01*
X167767850Y-52887150D01*
X167877118Y-52967793D01*
X167906820Y-52978186D01*
X168005299Y-53012646D01*
X168035730Y-53015500D01*
X168035734Y-53015500D01*
X169244270Y-53015500D01*
X169274699Y-53012646D01*
X169274701Y-53012646D01*
X169350146Y-52986246D01*
X169402882Y-52967793D01*
X169512150Y-52887150D01*
X169592793Y-52777882D01*
X169636035Y-52654304D01*
X169637646Y-52649701D01*
X169637646Y-52649699D01*
X169640500Y-52619269D01*
X169640500Y-51410730D01*
X169637646Y-51380300D01*
X169637646Y-51380298D01*
X169599170Y-51270342D01*
X169592793Y-51252118D01*
X169512150Y-51142850D01*
X169402882Y-51062207D01*
X169402880Y-51062206D01*
X169274700Y-51017353D01*
X169244270Y-51014500D01*
X169244266Y-51014500D01*
X169093563Y-51014500D01*
X169026524Y-50994815D01*
X168980769Y-50942011D01*
X168969563Y-50890500D01*
X168969563Y-50524152D01*
X179085001Y-50524152D01*
X179095056Y-50622583D01*
X179147906Y-50782072D01*
X179147908Y-50782077D01*
X179236114Y-50925080D01*
X179354919Y-51043885D01*
X179484793Y-51123992D01*
X179531517Y-51175940D01*
X179542740Y-51244903D01*
X179514896Y-51308985D01*
X179507378Y-51317211D01*
X179460346Y-51364243D01*
X179460343Y-51364248D01*
X179460342Y-51364249D01*
X179452165Y-51380298D01*
X179400047Y-51482582D01*
X179384500Y-51580748D01*
X179384500Y-52084251D01*
X179400047Y-52182417D01*
X179400049Y-52182420D01*
X179460342Y-52300751D01*
X179460344Y-52300753D01*
X179460346Y-52300756D01*
X179543181Y-52383591D01*
X179557884Y-52410518D01*
X179574477Y-52436337D01*
X179575368Y-52442537D01*
X179576666Y-52444914D01*
X179579500Y-52471272D01*
X179579500Y-52601062D01*
X179565383Y-52653751D01*
X179566719Y-52654304D01*
X179563608Y-52661814D01*
X179529500Y-52789108D01*
X179529500Y-52920891D01*
X179563608Y-53048187D01*
X179596554Y-53105250D01*
X179629500Y-53162314D01*
X179722686Y-53255500D01*
X179836814Y-53321392D01*
X179964108Y-53355500D01*
X179964110Y-53355500D01*
X180095890Y-53355500D01*
X180095892Y-53355500D01*
X180223186Y-53321392D01*
X180337314Y-53255500D01*
X180430500Y-53162314D01*
X180496392Y-53048186D01*
X180530500Y-52920892D01*
X180530500Y-52789108D01*
X180496392Y-52661814D01*
X180496388Y-52661807D01*
X180493281Y-52654304D01*
X180494616Y-52653751D01*
X180492959Y-52647569D01*
X180485523Y-52635997D01*
X180480500Y-52601062D01*
X180480500Y-52514083D01*
X180500185Y-52447044D01*
X180548207Y-52403597D01*
X180565751Y-52394658D01*
X180659658Y-52300751D01*
X180719951Y-52182420D01*
X180719951Y-52182418D01*
X180719952Y-52182417D01*
X180735500Y-52084251D01*
X180735500Y-51580748D01*
X180719952Y-51482582D01*
X180710740Y-51464502D01*
X180702896Y-51449108D01*
X210489500Y-51449108D01*
X210489500Y-51580892D01*
X210492971Y-51593846D01*
X210523608Y-51708187D01*
X210546884Y-51748501D01*
X210589500Y-51822314D01*
X210682686Y-51915500D01*
X210781521Y-51972563D01*
X210791425Y-51978281D01*
X210796814Y-51981392D01*
X210924108Y-52015500D01*
X210924110Y-52015500D01*
X211055890Y-52015500D01*
X211055892Y-52015500D01*
X211183186Y-51981392D01*
X211183194Y-51981387D01*
X211190696Y-51978281D01*
X211191249Y-51979618D01*
X211243937Y-51965500D01*
X216436063Y-51965500D01*
X216488750Y-51979618D01*
X216489304Y-51978281D01*
X216496807Y-51981388D01*
X216496814Y-51981392D01*
X216624108Y-52015500D01*
X216624110Y-52015500D01*
X216755890Y-52015500D01*
X216755892Y-52015500D01*
X216883186Y-51981392D01*
X216997314Y-51915500D01*
X217090500Y-51822314D01*
X217156392Y-51708186D01*
X217190500Y-51580892D01*
X217190500Y-51449108D01*
X217187030Y-51436158D01*
X217424503Y-51436158D01*
X217424503Y-51593842D01*
X217429457Y-51618747D01*
X217429457Y-51618750D01*
X217455264Y-51748491D01*
X217455267Y-51748501D01*
X217515605Y-51894172D01*
X217515612Y-51894185D01*
X217603213Y-52025288D01*
X217603216Y-52025292D01*
X217714710Y-52136786D01*
X217714714Y-52136789D01*
X217845817Y-52224390D01*
X217845830Y-52224397D01*
X217990934Y-52284500D01*
X217991506Y-52284737D01*
X218146156Y-52315499D01*
X218146159Y-52315500D01*
X218146161Y-52315500D01*
X219103847Y-52315500D01*
X219103848Y-52315499D01*
X219258500Y-52284737D01*
X219404182Y-52224394D01*
X219535292Y-52136789D01*
X219646792Y-52025289D01*
X219734397Y-51894179D01*
X219794740Y-51748497D01*
X219825503Y-51593842D01*
X219825503Y-51436158D01*
X219825503Y-51436155D01*
X219825502Y-51436153D01*
X219801843Y-51317211D01*
X219794740Y-51281503D01*
X219790117Y-51270342D01*
X219734400Y-51135827D01*
X219734393Y-51135814D01*
X219646792Y-51004711D01*
X219646789Y-51004707D01*
X219535295Y-50893213D01*
X219535291Y-50893210D01*
X219404188Y-50805609D01*
X219404175Y-50805602D01*
X219258504Y-50745264D01*
X219258492Y-50745261D01*
X219103848Y-50714500D01*
X219103845Y-50714500D01*
X218146161Y-50714500D01*
X218146158Y-50714500D01*
X217991513Y-50745261D01*
X217991501Y-50745264D01*
X217845830Y-50805602D01*
X217845817Y-50805609D01*
X217714714Y-50893210D01*
X217714710Y-50893213D01*
X217603216Y-51004707D01*
X217603213Y-51004711D01*
X217515612Y-51135814D01*
X217515605Y-51135827D01*
X217455267Y-51281498D01*
X217455264Y-51281508D01*
X217429457Y-51411248D01*
X217429457Y-51411252D01*
X217424503Y-51436158D01*
X217187030Y-51436158D01*
X217156392Y-51321814D01*
X217153734Y-51317211D01*
X217147563Y-51306521D01*
X217090500Y-51207686D01*
X216997314Y-51114500D01*
X216940250Y-51081554D01*
X216883187Y-51048608D01*
X216773690Y-51019269D01*
X216755892Y-51014500D01*
X216624108Y-51014500D01*
X216496814Y-51048608D01*
X216489304Y-51051719D01*
X216488750Y-51050381D01*
X216436063Y-51064500D01*
X211243937Y-51064500D01*
X211191249Y-51050381D01*
X211190696Y-51051719D01*
X211183188Y-51048609D01*
X211183186Y-51048608D01*
X211055892Y-51014500D01*
X210924108Y-51014500D01*
X210796812Y-51048608D01*
X210682686Y-51114500D01*
X210682683Y-51114502D01*
X210589502Y-51207683D01*
X210589500Y-51207686D01*
X210523608Y-51321812D01*
X210499270Y-51412646D01*
X210489500Y-51449108D01*
X180702896Y-51449108D01*
X180659658Y-51364249D01*
X180659654Y-51364245D01*
X180659653Y-51364243D01*
X180612622Y-51317212D01*
X180579137Y-51255889D01*
X180584121Y-51186197D01*
X180625993Y-51130264D01*
X180635207Y-51123992D01*
X180765078Y-51043887D01*
X180883885Y-50925080D01*
X180972091Y-50782077D01*
X180972093Y-50782072D01*
X181024942Y-50622583D01*
X181034999Y-50524150D01*
X181035000Y-50524137D01*
X181035000Y-50507500D01*
X179085001Y-50507500D01*
X179085001Y-50524152D01*
X168969563Y-50524152D01*
X168969563Y-49990849D01*
X179085000Y-49990849D01*
X179085000Y-50007500D01*
X179810000Y-50007500D01*
X180310000Y-50007500D01*
X181034999Y-50007500D01*
X181034999Y-49990864D01*
X181034998Y-49990847D01*
X181024943Y-49892416D01*
X180972093Y-49732927D01*
X180972091Y-49732922D01*
X180883885Y-49589919D01*
X180765080Y-49471114D01*
X180622077Y-49382908D01*
X180622072Y-49382906D01*
X180462583Y-49330057D01*
X180364150Y-49320000D01*
X180310000Y-49320000D01*
X180310000Y-50007500D01*
X179810000Y-50007500D01*
X179810000Y-49320000D01*
X179809999Y-49319999D01*
X179755864Y-49320000D01*
X179755847Y-49320001D01*
X179657415Y-49330057D01*
X179497927Y-49382906D01*
X179497922Y-49382908D01*
X179354919Y-49471114D01*
X179236114Y-49589919D01*
X179147908Y-49732922D01*
X179147906Y-49732927D01*
X179095057Y-49892416D01*
X179085000Y-49990849D01*
X168969563Y-49990849D01*
X168969563Y-49810730D01*
X168966709Y-49780300D01*
X168966709Y-49780298D01*
X168930614Y-49677147D01*
X168921856Y-49652118D01*
X168841213Y-49542850D01*
X168731945Y-49462207D01*
X168731943Y-49462206D01*
X168603763Y-49417353D01*
X168573333Y-49414500D01*
X168573329Y-49414500D01*
X167364797Y-49414500D01*
X167364793Y-49414500D01*
X167334363Y-49417353D01*
X167334361Y-49417353D01*
X167206182Y-49462206D01*
X167206180Y-49462207D01*
X167096913Y-49542850D01*
X167016270Y-49652117D01*
X167016269Y-49652119D01*
X166971416Y-49780298D01*
X166971416Y-49780300D01*
X166968563Y-49810730D01*
X166968563Y-50040191D01*
X166948878Y-50107230D01*
X166896074Y-50152985D01*
X166826916Y-50162929D01*
X166763360Y-50133904D01*
X166726632Y-50078510D01*
X166673818Y-49915968D01*
X166580922Y-49733650D01*
X166548537Y-49689077D01*
X166548537Y-49689076D01*
X165869063Y-50368551D01*
X165869063Y-50362339D01*
X165841804Y-50260606D01*
X165789143Y-50169394D01*
X165714669Y-50094920D01*
X165623457Y-50042259D01*
X165521724Y-50015000D01*
X165515509Y-50015000D01*
X166194985Y-49335524D01*
X166194984Y-49335523D01*
X166150422Y-49303147D01*
X166150403Y-49303135D01*
X166121235Y-49288273D01*
X166070439Y-49240299D01*
X166053644Y-49172478D01*
X166059600Y-49139468D01*
X166066116Y-49119413D01*
X166098126Y-48917317D01*
X166098126Y-48801153D01*
X217424503Y-48801153D01*
X217424503Y-48958846D01*
X217455264Y-49113489D01*
X217455267Y-49113501D01*
X217515605Y-49259172D01*
X217515612Y-49259185D01*
X217603213Y-49390288D01*
X217603216Y-49390292D01*
X217714710Y-49501786D01*
X217714714Y-49501789D01*
X217845817Y-49589390D01*
X217845830Y-49589397D01*
X217964638Y-49638608D01*
X217991506Y-49649737D01*
X218146156Y-49680499D01*
X218146159Y-49680500D01*
X218146161Y-49680500D01*
X219103847Y-49680500D01*
X219103848Y-49680499D01*
X219258500Y-49649737D01*
X219404182Y-49589394D01*
X219535292Y-49501789D01*
X219646792Y-49390289D01*
X219734397Y-49259179D01*
X219794740Y-49113497D01*
X219813515Y-49019108D01*
X228249500Y-49019108D01*
X228249500Y-49150891D01*
X228283608Y-49278187D01*
X228291766Y-49292316D01*
X228349500Y-49392314D01*
X228442686Y-49485500D01*
X228541521Y-49542563D01*
X228551425Y-49548281D01*
X228556814Y-49551392D01*
X228684108Y-49585500D01*
X228684110Y-49585500D01*
X228815890Y-49585500D01*
X228815892Y-49585500D01*
X228943186Y-49551392D01*
X228943194Y-49551387D01*
X228950696Y-49548281D01*
X228951249Y-49549618D01*
X229003937Y-49535500D01*
X230606552Y-49535500D01*
X230673591Y-49555185D01*
X230719346Y-49607989D01*
X230729290Y-49677147D01*
X230700265Y-49740703D01*
X230678475Y-49758692D01*
X230679135Y-49759552D01*
X230672683Y-49764502D01*
X230579502Y-49857683D01*
X230579500Y-49857686D01*
X230513608Y-49971812D01*
X230479500Y-50099108D01*
X230479500Y-50230891D01*
X230513608Y-50358187D01*
X230544858Y-50412313D01*
X230579500Y-50472314D01*
X230672686Y-50565500D01*
X230767535Y-50620261D01*
X230781425Y-50628281D01*
X230786814Y-50631392D01*
X230914108Y-50665500D01*
X230914110Y-50665500D01*
X231045890Y-50665500D01*
X231045892Y-50665500D01*
X231173186Y-50631392D01*
X231173194Y-50631387D01*
X231180696Y-50628281D01*
X231181249Y-50629618D01*
X231233937Y-50615500D01*
X237109307Y-50615500D01*
X237109309Y-50615500D01*
X237130861Y-50609724D01*
X237162954Y-50605500D01*
X237175890Y-50605500D01*
X237175892Y-50605500D01*
X237303186Y-50571392D01*
X237417314Y-50505500D01*
X237510500Y-50412314D01*
X237576392Y-50298186D01*
X237610500Y-50170892D01*
X237610500Y-50039108D01*
X237576392Y-49911814D01*
X237510500Y-49797686D01*
X237417314Y-49704500D01*
X237326588Y-49652119D01*
X237303187Y-49638608D01*
X237239539Y-49621554D01*
X237175892Y-49604500D01*
X237057199Y-49604500D01*
X236990160Y-49584815D01*
X236944405Y-49532011D01*
X236934461Y-49462853D01*
X236963486Y-49399297D01*
X236971791Y-49391471D01*
X236971567Y-49391247D01*
X236979908Y-49382906D01*
X237070500Y-49292314D01*
X237136392Y-49178186D01*
X237170500Y-49050892D01*
X237170500Y-48919108D01*
X237138894Y-48801153D01*
X242424503Y-48801153D01*
X242424503Y-48958846D01*
X242455264Y-49113489D01*
X242455267Y-49113501D01*
X242515605Y-49259172D01*
X242515612Y-49259185D01*
X242603213Y-49390288D01*
X242603216Y-49390292D01*
X242714710Y-49501786D01*
X242714714Y-49501789D01*
X242845817Y-49589390D01*
X242845830Y-49589397D01*
X242964638Y-49638608D01*
X242991506Y-49649737D01*
X243146156Y-49680499D01*
X243146159Y-49680500D01*
X243146161Y-49680500D01*
X244103847Y-49680500D01*
X244103848Y-49680499D01*
X244258500Y-49649737D01*
X244404182Y-49589394D01*
X244535292Y-49501789D01*
X244646792Y-49390289D01*
X244734397Y-49259179D01*
X244794740Y-49113497D01*
X244825503Y-48958842D01*
X244825503Y-48801158D01*
X244825503Y-48801155D01*
X244825502Y-48801153D01*
X244820834Y-48777686D01*
X244794740Y-48646503D01*
X244741765Y-48518608D01*
X244734400Y-48500827D01*
X244734393Y-48500814D01*
X244646792Y-48369711D01*
X244646789Y-48369707D01*
X244535295Y-48258213D01*
X244535291Y-48258210D01*
X244404188Y-48170609D01*
X244404175Y-48170602D01*
X244258504Y-48110264D01*
X244258492Y-48110261D01*
X244103848Y-48079500D01*
X244103845Y-48079500D01*
X243146161Y-48079500D01*
X243146158Y-48079500D01*
X242991513Y-48110261D01*
X242991501Y-48110264D01*
X242845830Y-48170602D01*
X242845817Y-48170609D01*
X242714714Y-48258210D01*
X242714710Y-48258213D01*
X242603216Y-48369707D01*
X242603213Y-48369711D01*
X242515612Y-48500814D01*
X242515605Y-48500827D01*
X242455267Y-48646498D01*
X242455264Y-48646510D01*
X242424503Y-48801153D01*
X237138894Y-48801153D01*
X237136392Y-48791814D01*
X237070500Y-48677686D01*
X236977314Y-48584500D01*
X236920250Y-48551554D01*
X236863187Y-48518608D01*
X236774780Y-48494920D01*
X236735892Y-48484500D01*
X236604108Y-48484500D01*
X236476812Y-48518608D01*
X236362686Y-48584500D01*
X236362683Y-48584502D01*
X236349005Y-48598181D01*
X236287682Y-48631666D01*
X236261324Y-48634500D01*
X229003937Y-48634500D01*
X228951249Y-48620381D01*
X228950696Y-48621719D01*
X228943188Y-48618609D01*
X228943186Y-48618608D01*
X228815892Y-48584500D01*
X228684108Y-48584500D01*
X228556812Y-48618608D01*
X228442686Y-48684500D01*
X228442683Y-48684502D01*
X228349502Y-48777683D01*
X228349500Y-48777686D01*
X228283608Y-48891812D01*
X228249500Y-49019108D01*
X219813515Y-49019108D01*
X219825503Y-48958842D01*
X219825503Y-48801158D01*
X219825503Y-48801155D01*
X219825502Y-48801153D01*
X219820834Y-48777686D01*
X219794740Y-48646503D01*
X219741765Y-48518608D01*
X219734400Y-48500827D01*
X219734393Y-48500814D01*
X219646792Y-48369711D01*
X219646789Y-48369707D01*
X219535295Y-48258213D01*
X219535291Y-48258210D01*
X219404188Y-48170609D01*
X219404175Y-48170602D01*
X219258504Y-48110264D01*
X219258492Y-48110261D01*
X219103848Y-48079500D01*
X219103845Y-48079500D01*
X218146161Y-48079500D01*
X218146158Y-48079500D01*
X217991513Y-48110261D01*
X217991501Y-48110264D01*
X217845830Y-48170602D01*
X217845817Y-48170609D01*
X217714714Y-48258210D01*
X217714710Y-48258213D01*
X217603216Y-48369707D01*
X217603213Y-48369711D01*
X217515612Y-48500814D01*
X217515605Y-48500827D01*
X217455267Y-48646498D01*
X217455264Y-48646510D01*
X217424503Y-48801153D01*
X166098126Y-48801153D01*
X166098126Y-48712682D01*
X166066116Y-48510582D01*
X166002881Y-48315968D01*
X165909985Y-48133650D01*
X165877600Y-48089077D01*
X165877600Y-48089076D01*
X165198126Y-48768553D01*
X165198126Y-48762339D01*
X165170867Y-48660606D01*
X165118206Y-48569394D01*
X165043732Y-48494920D01*
X164952520Y-48442259D01*
X164850787Y-48415000D01*
X164844572Y-48415000D01*
X165524048Y-47735524D01*
X165524047Y-47735523D01*
X165479485Y-47703147D01*
X165479476Y-47703141D01*
X165297157Y-47610244D01*
X165102543Y-47547009D01*
X164900443Y-47515000D01*
X164695809Y-47515000D01*
X164493708Y-47547009D01*
X164299094Y-47610244D01*
X164116770Y-47703143D01*
X164072203Y-47735523D01*
X164072203Y-47735524D01*
X164751680Y-48415000D01*
X164745465Y-48415000D01*
X164643732Y-48442259D01*
X164552520Y-48494920D01*
X164478046Y-48569394D01*
X164425385Y-48660606D01*
X164398126Y-48762339D01*
X164398126Y-48768553D01*
X163718650Y-48089077D01*
X163718649Y-48089077D01*
X163686269Y-48133644D01*
X163593370Y-48315968D01*
X163530135Y-48510582D01*
X163498126Y-48712682D01*
X160610500Y-48712682D01*
X160610500Y-46084152D01*
X199365001Y-46084152D01*
X199375056Y-46182583D01*
X199427906Y-46342072D01*
X199427908Y-46342077D01*
X199516114Y-46485080D01*
X199634919Y-46603885D01*
X199764793Y-46683992D01*
X199811517Y-46735940D01*
X199822740Y-46804903D01*
X199794896Y-46868985D01*
X199787378Y-46877211D01*
X199740346Y-46924243D01*
X199740343Y-46924248D01*
X199740342Y-46924249D01*
X199731405Y-46941789D01*
X199680047Y-47042582D01*
X199664500Y-47140748D01*
X199664500Y-47644251D01*
X199680047Y-47742417D01*
X199699364Y-47780329D01*
X199740342Y-47860751D01*
X199740344Y-47860753D01*
X199740346Y-47860756D01*
X199834243Y-47954653D01*
X199834245Y-47954654D01*
X199834249Y-47954658D01*
X199952580Y-48014951D01*
X199952581Y-48014951D01*
X199952583Y-48014952D01*
X199952582Y-48014952D01*
X200050749Y-48030500D01*
X200050754Y-48030500D01*
X200629251Y-48030500D01*
X200727417Y-48014952D01*
X200727418Y-48014951D01*
X200727420Y-48014951D01*
X200845751Y-47954658D01*
X200939658Y-47860751D01*
X200939659Y-47860748D01*
X200942660Y-47856619D01*
X200997988Y-47813951D01*
X201042981Y-47805500D01*
X201366063Y-47805500D01*
X201418750Y-47819618D01*
X201419304Y-47818281D01*
X201426807Y-47821388D01*
X201426814Y-47821392D01*
X201554108Y-47855500D01*
X201554110Y-47855500D01*
X201685890Y-47855500D01*
X201685892Y-47855500D01*
X201813186Y-47821392D01*
X201927314Y-47755500D01*
X202020500Y-47662314D01*
X202086392Y-47548186D01*
X202120500Y-47420892D01*
X202120500Y-47389108D01*
X232609500Y-47389108D01*
X232609500Y-47520892D01*
X232626554Y-47584539D01*
X232643608Y-47648187D01*
X232675340Y-47703147D01*
X232709500Y-47762314D01*
X232802686Y-47855500D01*
X232901521Y-47912563D01*
X232911425Y-47918281D01*
X232916814Y-47921392D01*
X233044108Y-47955500D01*
X233044110Y-47955500D01*
X233175890Y-47955500D01*
X233175892Y-47955500D01*
X233303186Y-47921392D01*
X233303194Y-47921387D01*
X233310696Y-47918281D01*
X233311249Y-47919618D01*
X233363937Y-47905500D01*
X237504101Y-47905500D01*
X237566100Y-47922112D01*
X237616814Y-47951392D01*
X237744108Y-47985500D01*
X237744110Y-47985500D01*
X237875890Y-47985500D01*
X237875892Y-47985500D01*
X238003186Y-47951392D01*
X238117314Y-47885500D01*
X238210500Y-47792314D01*
X238276392Y-47678186D01*
X238310500Y-47550892D01*
X238310500Y-47419108D01*
X238276392Y-47291814D01*
X238210500Y-47177686D01*
X238117314Y-47084500D01*
X238060250Y-47051554D01*
X238003187Y-47018608D01*
X237934766Y-47000275D01*
X237875892Y-46984500D01*
X237744108Y-46984500D01*
X237744106Y-46984500D01*
X237685233Y-47000275D01*
X237653141Y-47004500D01*
X233363937Y-47004500D01*
X233311249Y-46990381D01*
X233310696Y-46991719D01*
X233303188Y-46988609D01*
X233303186Y-46988608D01*
X233175892Y-46954500D01*
X233044108Y-46954500D01*
X232916812Y-46988608D01*
X232802686Y-47054500D01*
X232802683Y-47054502D01*
X232709502Y-47147683D01*
X232709500Y-47147686D01*
X232643608Y-47261812D01*
X232609500Y-47389108D01*
X202120500Y-47389108D01*
X202120500Y-47289108D01*
X202086392Y-47161814D01*
X202020500Y-47047686D01*
X201927314Y-46954500D01*
X201840712Y-46904500D01*
X201813187Y-46888608D01*
X201739951Y-46868985D01*
X201685892Y-46854500D01*
X201554108Y-46854500D01*
X201426814Y-46888608D01*
X201419304Y-46891719D01*
X201418750Y-46890381D01*
X201366063Y-46904500D01*
X200994946Y-46904500D01*
X200927907Y-46884815D01*
X200882152Y-46832011D01*
X200872208Y-46762853D01*
X200901233Y-46699297D01*
X200929849Y-46674961D01*
X201045080Y-46603885D01*
X201163885Y-46485080D01*
X201252091Y-46342077D01*
X201252093Y-46342072D01*
X201285535Y-46241153D01*
X217424503Y-46241153D01*
X217424503Y-46398846D01*
X217455264Y-46553489D01*
X217455267Y-46553501D01*
X217515605Y-46699172D01*
X217515612Y-46699185D01*
X217603213Y-46830288D01*
X217603216Y-46830292D01*
X217714710Y-46941786D01*
X217714714Y-46941789D01*
X217845817Y-47029390D01*
X217845830Y-47029397D01*
X217978867Y-47084502D01*
X217991506Y-47089737D01*
X218146156Y-47120499D01*
X218146159Y-47120500D01*
X218146161Y-47120500D01*
X219103847Y-47120500D01*
X219103848Y-47120499D01*
X219258500Y-47089737D01*
X219404182Y-47029394D01*
X219535292Y-46941789D01*
X219646792Y-46830289D01*
X219734397Y-46699179D01*
X219794740Y-46553497D01*
X219825503Y-46398842D01*
X219825503Y-46384071D01*
X242974502Y-46384071D01*
X242999500Y-46509738D01*
X242999502Y-46509744D01*
X243048536Y-46628124D01*
X243048541Y-46628133D01*
X243119726Y-46734668D01*
X243119729Y-46734672D01*
X243210330Y-46825273D01*
X243210334Y-46825276D01*
X243316869Y-46896461D01*
X243316875Y-46896464D01*
X243316876Y-46896465D01*
X243435259Y-46945501D01*
X243435263Y-46945501D01*
X243435264Y-46945502D01*
X243560931Y-46970500D01*
X243560934Y-46970500D01*
X243689074Y-46970500D01*
X243773618Y-46953682D01*
X243814747Y-46945501D01*
X243933130Y-46896465D01*
X244039672Y-46825276D01*
X244130279Y-46734669D01*
X244201468Y-46628127D01*
X244250504Y-46509744D01*
X244272564Y-46398844D01*
X244275503Y-46384071D01*
X244275503Y-46255928D01*
X244250505Y-46130261D01*
X244250504Y-46130260D01*
X244250504Y-46130256D01*
X244201468Y-46011873D01*
X244201467Y-46011872D01*
X244201464Y-46011866D01*
X244130279Y-45905331D01*
X244130276Y-45905327D01*
X244039675Y-45814726D01*
X244039671Y-45814723D01*
X243933136Y-45743538D01*
X243933127Y-45743533D01*
X243814747Y-45694499D01*
X243814741Y-45694497D01*
X243689074Y-45669500D01*
X243689072Y-45669500D01*
X243560934Y-45669500D01*
X243560932Y-45669500D01*
X243435264Y-45694497D01*
X243435258Y-45694499D01*
X243316878Y-45743533D01*
X243316869Y-45743538D01*
X243210334Y-45814723D01*
X243210330Y-45814726D01*
X243119729Y-45905327D01*
X243119726Y-45905331D01*
X243048541Y-46011866D01*
X243048536Y-46011875D01*
X242999502Y-46130255D01*
X242999500Y-46130261D01*
X242974503Y-46255928D01*
X242974503Y-46255931D01*
X242974503Y-46384069D01*
X242974503Y-46384071D01*
X242974502Y-46384071D01*
X219825503Y-46384071D01*
X219825503Y-46241158D01*
X219825503Y-46241155D01*
X219825502Y-46241153D01*
X219816533Y-46196062D01*
X219794740Y-46086503D01*
X219786869Y-46067500D01*
X219734400Y-45940827D01*
X219734393Y-45940814D01*
X219646792Y-45809711D01*
X219646789Y-45809707D01*
X219535295Y-45698213D01*
X219535291Y-45698210D01*
X219404188Y-45610609D01*
X219404175Y-45610602D01*
X219258504Y-45550264D01*
X219258492Y-45550261D01*
X219103848Y-45519500D01*
X219103845Y-45519500D01*
X218146161Y-45519500D01*
X218146158Y-45519500D01*
X217991513Y-45550261D01*
X217991501Y-45550264D01*
X217845830Y-45610602D01*
X217845817Y-45610609D01*
X217714714Y-45698210D01*
X217714710Y-45698213D01*
X217603216Y-45809707D01*
X217603213Y-45809711D01*
X217515612Y-45940814D01*
X217515605Y-45940827D01*
X217455267Y-46086498D01*
X217455264Y-46086510D01*
X217424503Y-46241153D01*
X201285535Y-46241153D01*
X201300477Y-46196062D01*
X201300477Y-46196061D01*
X201304942Y-46182586D01*
X201304942Y-46182585D01*
X201314999Y-46084150D01*
X201315000Y-46084137D01*
X201315000Y-46067500D01*
X199365001Y-46067500D01*
X199365001Y-46084152D01*
X160610500Y-46084152D01*
X160610500Y-45550849D01*
X199365000Y-45550849D01*
X199365000Y-45567500D01*
X200090000Y-45567500D01*
X200590000Y-45567500D01*
X201314999Y-45567500D01*
X201314999Y-45550864D01*
X201314998Y-45550847D01*
X201304943Y-45452416D01*
X201252093Y-45292927D01*
X201252091Y-45292922D01*
X201163885Y-45149919D01*
X201045080Y-45031114D01*
X200902077Y-44942908D01*
X200902072Y-44942906D01*
X200742583Y-44890057D01*
X200644150Y-44880000D01*
X200590000Y-44880000D01*
X200590000Y-45567500D01*
X200090000Y-45567500D01*
X200090000Y-44880000D01*
X200089999Y-44879999D01*
X200035864Y-44880000D01*
X200035847Y-44880001D01*
X199937415Y-44890057D01*
X199777927Y-44942906D01*
X199777922Y-44942908D01*
X199634919Y-45031114D01*
X199516114Y-45149919D01*
X199427908Y-45292922D01*
X199427906Y-45292927D01*
X199375057Y-45452416D01*
X199365000Y-45550849D01*
X160610500Y-45550849D01*
X160610500Y-41446562D01*
X160610540Y-41443421D01*
X160612736Y-41356748D01*
X160629030Y-40713747D01*
X160629348Y-40707483D01*
X160637670Y-40598211D01*
X160684654Y-39981230D01*
X160685290Y-39974984D01*
X160732851Y-39601549D01*
X160750418Y-39463614D01*
X160777307Y-39252486D01*
X160778257Y-39246286D01*
X160906758Y-38529324D01*
X160908009Y-38523239D01*
X161072658Y-37813713D01*
X161074219Y-37807681D01*
X161274601Y-37107376D01*
X161276476Y-37101405D01*
X161351238Y-36882682D01*
X163798126Y-36882682D01*
X163798126Y-37087317D01*
X163830135Y-37289417D01*
X163893370Y-37484031D01*
X163986267Y-37666350D01*
X163986273Y-37666359D01*
X164018649Y-37710921D01*
X164018650Y-37710922D01*
X164698126Y-37031446D01*
X164698126Y-37037661D01*
X164725385Y-37139394D01*
X164778046Y-37230606D01*
X164852520Y-37305080D01*
X164943732Y-37357741D01*
X165045465Y-37385000D01*
X165051679Y-37385000D01*
X164372202Y-38064474D01*
X164416772Y-38096857D01*
X164416774Y-38096858D01*
X164445950Y-38111723D01*
X164496747Y-38159697D01*
X164513543Y-38227517D01*
X164507590Y-38260522D01*
X164501072Y-38280582D01*
X164469063Y-38482682D01*
X164469063Y-38687317D01*
X164501072Y-38889417D01*
X164564307Y-39084031D01*
X164657204Y-39266350D01*
X164657210Y-39266359D01*
X164689586Y-39310921D01*
X164689587Y-39310922D01*
X165369063Y-38631446D01*
X165369063Y-38637661D01*
X165396322Y-38739394D01*
X165448983Y-38830606D01*
X165523457Y-38905080D01*
X165614669Y-38957741D01*
X165716402Y-38985000D01*
X165722616Y-38985000D01*
X165043139Y-39664474D01*
X165087713Y-39696859D01*
X165270031Y-39789755D01*
X165464645Y-39852990D01*
X165666746Y-39885000D01*
X165871380Y-39885000D01*
X166073480Y-39852990D01*
X166268094Y-39789755D01*
X166450412Y-39696859D01*
X166494984Y-39664474D01*
X165815510Y-38985000D01*
X165821724Y-38985000D01*
X165923457Y-38957741D01*
X166014669Y-38905080D01*
X166089143Y-38830606D01*
X166141804Y-38739394D01*
X166169063Y-38637661D01*
X166169063Y-38631448D01*
X166848537Y-39310922D01*
X166848537Y-39310921D01*
X166880922Y-39266349D01*
X166973817Y-39084031D01*
X167026632Y-38921489D01*
X167066070Y-38863814D01*
X167130429Y-38836616D01*
X167199275Y-38848531D01*
X167250751Y-38895775D01*
X167268563Y-38959808D01*
X167268563Y-39189269D01*
X167271416Y-39219699D01*
X167271416Y-39219701D01*
X167310188Y-39330501D01*
X167316270Y-39347882D01*
X167396913Y-39457150D01*
X167506181Y-39537793D01*
X167541924Y-39550300D01*
X167634362Y-39582646D01*
X167664793Y-39585500D01*
X167664797Y-39585500D01*
X167815500Y-39585500D01*
X167882539Y-39605185D01*
X167928294Y-39657989D01*
X167939500Y-39709500D01*
X167939500Y-40789269D01*
X167942353Y-40819699D01*
X167942353Y-40819701D01*
X167987206Y-40947880D01*
X167987207Y-40947882D01*
X168067850Y-41057150D01*
X168177118Y-41137793D01*
X168186735Y-41141158D01*
X168305299Y-41182646D01*
X168335730Y-41185500D01*
X168335734Y-41185500D01*
X169544270Y-41185500D01*
X169574699Y-41182646D01*
X169574701Y-41182646D01*
X169651055Y-41155928D01*
X169702882Y-41137793D01*
X169812150Y-41057150D01*
X169892793Y-40947882D01*
X169930253Y-40840827D01*
X169937646Y-40819701D01*
X169937646Y-40819699D01*
X169940500Y-40789269D01*
X169940500Y-40516652D01*
X179125001Y-40516652D01*
X179135056Y-40615083D01*
X179187906Y-40774572D01*
X179187908Y-40774577D01*
X179276114Y-40917580D01*
X179394919Y-41036385D01*
X179524793Y-41116492D01*
X179571517Y-41168440D01*
X179582740Y-41237403D01*
X179554896Y-41301485D01*
X179547378Y-41309711D01*
X179500346Y-41356743D01*
X179500343Y-41356748D01*
X179500342Y-41356749D01*
X179480244Y-41396192D01*
X179440047Y-41475082D01*
X179424500Y-41573248D01*
X179424500Y-42076751D01*
X179440047Y-42174917D01*
X179440049Y-42174920D01*
X179500342Y-42293251D01*
X179500344Y-42293253D01*
X179500346Y-42293256D01*
X179594243Y-42387153D01*
X179594246Y-42387155D01*
X179594249Y-42387158D01*
X179623673Y-42402150D01*
X179643906Y-42412460D01*
X179694701Y-42460435D01*
X179711496Y-42528256D01*
X179707385Y-42555036D01*
X179679500Y-42659106D01*
X179679500Y-42790891D01*
X179713608Y-42918187D01*
X179746554Y-42975250D01*
X179779500Y-43032314D01*
X179872686Y-43125500D01*
X179986814Y-43191392D01*
X180114108Y-43225500D01*
X180114110Y-43225500D01*
X180245890Y-43225500D01*
X180245892Y-43225500D01*
X180373186Y-43191392D01*
X180487314Y-43125500D01*
X180580500Y-43032314D01*
X180646392Y-42918186D01*
X180680500Y-42790892D01*
X180680500Y-42659108D01*
X180646392Y-42531814D01*
X180646388Y-42531807D01*
X180643281Y-42524304D01*
X180644616Y-42523751D01*
X180642959Y-42517569D01*
X180635523Y-42505997D01*
X180630500Y-42471062D01*
X180630500Y-42413771D01*
X180650185Y-42346732D01*
X180666820Y-42326089D01*
X180699654Y-42293255D01*
X180699658Y-42293251D01*
X180759951Y-42174920D01*
X180759951Y-42174918D01*
X180759952Y-42174917D01*
X180775500Y-42076751D01*
X180775500Y-41787378D01*
X206424500Y-41787378D01*
X206424500Y-42062621D01*
X206455315Y-42336108D01*
X206455317Y-42336124D01*
X206516561Y-42604453D01*
X206516565Y-42604465D01*
X206607467Y-42864246D01*
X206726884Y-43112218D01*
X206726886Y-43112221D01*
X206873319Y-43345268D01*
X206917621Y-43400821D01*
X207033798Y-43546503D01*
X207044925Y-43560455D01*
X207239545Y-43755075D01*
X207454732Y-43926681D01*
X207687779Y-44073114D01*
X207935757Y-44192534D01*
X208130865Y-44260805D01*
X208195534Y-44283434D01*
X208195546Y-44283438D01*
X208463879Y-44344683D01*
X208737378Y-44375499D01*
X208737379Y-44375500D01*
X208737383Y-44375500D01*
X209012621Y-44375500D01*
X209012621Y-44375499D01*
X209286121Y-44344683D01*
X209554454Y-44283438D01*
X209814243Y-44192534D01*
X210062221Y-44073114D01*
X210295268Y-43926681D01*
X210510455Y-43755075D01*
X210564377Y-43701153D01*
X217374503Y-43701153D01*
X217374503Y-43858846D01*
X217405264Y-44013489D01*
X217405267Y-44013501D01*
X217465605Y-44159172D01*
X217465612Y-44159185D01*
X217553213Y-44290288D01*
X217553216Y-44290292D01*
X217664710Y-44401786D01*
X217664714Y-44401789D01*
X217795817Y-44489390D01*
X217795830Y-44489397D01*
X217941501Y-44549735D01*
X217941506Y-44549737D01*
X218096156Y-44580499D01*
X218096159Y-44580500D01*
X218096161Y-44580500D01*
X219053847Y-44580500D01*
X219053848Y-44580499D01*
X219208500Y-44549737D01*
X219354182Y-44489394D01*
X219485292Y-44401789D01*
X219596792Y-44290289D01*
X219684397Y-44159179D01*
X219744740Y-44013497D01*
X219775503Y-43858842D01*
X219775503Y-43844071D01*
X242924502Y-43844071D01*
X242949500Y-43969738D01*
X242949502Y-43969744D01*
X242998536Y-44088124D01*
X242998541Y-44088133D01*
X243069726Y-44194668D01*
X243069729Y-44194672D01*
X243160330Y-44285273D01*
X243160334Y-44285276D01*
X243266869Y-44356461D01*
X243266875Y-44356464D01*
X243266876Y-44356465D01*
X243385259Y-44405501D01*
X243385263Y-44405501D01*
X243385264Y-44405502D01*
X243510931Y-44430500D01*
X243510934Y-44430500D01*
X243639074Y-44430500D01*
X243723618Y-44413682D01*
X243764747Y-44405501D01*
X243883130Y-44356465D01*
X243989672Y-44285276D01*
X244080279Y-44194669D01*
X244151468Y-44088127D01*
X244200504Y-43969744D01*
X244222564Y-43858844D01*
X244225503Y-43844071D01*
X244225503Y-43715928D01*
X244200505Y-43590261D01*
X244200504Y-43590260D01*
X244200504Y-43590256D01*
X244151468Y-43471873D01*
X244151467Y-43471872D01*
X244151464Y-43471866D01*
X244080279Y-43365331D01*
X244080276Y-43365327D01*
X243989675Y-43274726D01*
X243989671Y-43274723D01*
X243883136Y-43203538D01*
X243883127Y-43203533D01*
X243764747Y-43154499D01*
X243764741Y-43154497D01*
X243639074Y-43129500D01*
X243639072Y-43129500D01*
X243510934Y-43129500D01*
X243510932Y-43129500D01*
X243385264Y-43154497D01*
X243385258Y-43154499D01*
X243266878Y-43203533D01*
X243266869Y-43203538D01*
X243160334Y-43274723D01*
X243160330Y-43274726D01*
X243069729Y-43365327D01*
X243069726Y-43365331D01*
X242998541Y-43471866D01*
X242998536Y-43471875D01*
X242949502Y-43590255D01*
X242949500Y-43590261D01*
X242924503Y-43715928D01*
X242924503Y-43715931D01*
X242924503Y-43844069D01*
X242924503Y-43844071D01*
X242924502Y-43844071D01*
X219775503Y-43844071D01*
X219775503Y-43701158D01*
X219775503Y-43701155D01*
X219775502Y-43701153D01*
X219744741Y-43546510D01*
X219744740Y-43546503D01*
X219744738Y-43546498D01*
X219684400Y-43400827D01*
X219684393Y-43400814D01*
X219596792Y-43269711D01*
X219596789Y-43269707D01*
X219485295Y-43158213D01*
X219485291Y-43158210D01*
X219354188Y-43070609D01*
X219354175Y-43070602D01*
X219208504Y-43010264D01*
X219208492Y-43010261D01*
X219053848Y-42979500D01*
X219053845Y-42979500D01*
X218096161Y-42979500D01*
X218096158Y-42979500D01*
X217941513Y-43010261D01*
X217941501Y-43010264D01*
X217795830Y-43070602D01*
X217795817Y-43070609D01*
X217664714Y-43158210D01*
X217664710Y-43158213D01*
X217553216Y-43269707D01*
X217553213Y-43269711D01*
X217465612Y-43400814D01*
X217465605Y-43400827D01*
X217405267Y-43546498D01*
X217405264Y-43546510D01*
X217374503Y-43701153D01*
X210564377Y-43701153D01*
X210705075Y-43560455D01*
X210876681Y-43345268D01*
X211023114Y-43112221D01*
X211142534Y-42864243D01*
X211233438Y-42604454D01*
X211294683Y-42336121D01*
X211325500Y-42062617D01*
X211325500Y-41787383D01*
X211294683Y-41513879D01*
X211233438Y-41245546D01*
X211206457Y-41168440D01*
X211196909Y-41141153D01*
X217374503Y-41141153D01*
X217374503Y-41298846D01*
X217405264Y-41453489D01*
X217405267Y-41453501D01*
X217465605Y-41599172D01*
X217465612Y-41599185D01*
X217553213Y-41730288D01*
X217553216Y-41730292D01*
X217664710Y-41841786D01*
X217664714Y-41841789D01*
X217795817Y-41929390D01*
X217795830Y-41929397D01*
X217941501Y-41989735D01*
X217941506Y-41989737D01*
X218096156Y-42020499D01*
X218096159Y-42020500D01*
X218096161Y-42020500D01*
X219053847Y-42020500D01*
X219053848Y-42020499D01*
X219208500Y-41989737D01*
X219354182Y-41929394D01*
X219485292Y-41841789D01*
X219596792Y-41730289D01*
X219684397Y-41599179D01*
X219744740Y-41453497D01*
X219775503Y-41298842D01*
X219775503Y-41284071D01*
X242924502Y-41284071D01*
X242949500Y-41409738D01*
X242949502Y-41409744D01*
X242998536Y-41528124D01*
X242998541Y-41528133D01*
X243069726Y-41634668D01*
X243069729Y-41634672D01*
X243160330Y-41725273D01*
X243160334Y-41725276D01*
X243266869Y-41796461D01*
X243266875Y-41796464D01*
X243266876Y-41796465D01*
X243385259Y-41845501D01*
X243385263Y-41845501D01*
X243385264Y-41845502D01*
X243510931Y-41870500D01*
X243510934Y-41870500D01*
X243639074Y-41870500D01*
X243723618Y-41853682D01*
X243764747Y-41845501D01*
X243883130Y-41796465D01*
X243989672Y-41725276D01*
X244080279Y-41634669D01*
X244151468Y-41528127D01*
X244200504Y-41409744D01*
X244220402Y-41309712D01*
X244225503Y-41284071D01*
X244225503Y-41155928D01*
X244200505Y-41030261D01*
X244200504Y-41030260D01*
X244200504Y-41030256D01*
X244151468Y-40911873D01*
X244151467Y-40911872D01*
X244151464Y-40911866D01*
X244080279Y-40805331D01*
X244080276Y-40805327D01*
X243989675Y-40714726D01*
X243989671Y-40714723D01*
X243883136Y-40643538D01*
X243883127Y-40643533D01*
X243764747Y-40594499D01*
X243764741Y-40594497D01*
X243639074Y-40569500D01*
X243639072Y-40569500D01*
X243510934Y-40569500D01*
X243510932Y-40569500D01*
X243385264Y-40594497D01*
X243385258Y-40594499D01*
X243266878Y-40643533D01*
X243266869Y-40643538D01*
X243160334Y-40714723D01*
X243160330Y-40714726D01*
X243069729Y-40805327D01*
X243069726Y-40805331D01*
X242998541Y-40911866D01*
X242998536Y-40911875D01*
X242949502Y-41030255D01*
X242949500Y-41030261D01*
X242924503Y-41155928D01*
X242924503Y-41155931D01*
X242924503Y-41284069D01*
X242924503Y-41284071D01*
X242924502Y-41284071D01*
X219775503Y-41284071D01*
X219775503Y-41141158D01*
X219775503Y-41141155D01*
X219775502Y-41141153D01*
X219760251Y-41064484D01*
X219744740Y-40986503D01*
X219728742Y-40947880D01*
X219684400Y-40840827D01*
X219684393Y-40840814D01*
X219596792Y-40709711D01*
X219596789Y-40709707D01*
X219485295Y-40598213D01*
X219485291Y-40598210D01*
X219354188Y-40510609D01*
X219354175Y-40510602D01*
X219208504Y-40450264D01*
X219208492Y-40450261D01*
X219053848Y-40419500D01*
X219053845Y-40419500D01*
X218096161Y-40419500D01*
X218096158Y-40419500D01*
X217941513Y-40450261D01*
X217941501Y-40450264D01*
X217795830Y-40510602D01*
X217795817Y-40510609D01*
X217664714Y-40598210D01*
X217664710Y-40598213D01*
X217553216Y-40709707D01*
X217553213Y-40709711D01*
X217465612Y-40840814D01*
X217465605Y-40840827D01*
X217405267Y-40986498D01*
X217405264Y-40986510D01*
X217374503Y-41141153D01*
X211196909Y-41141153D01*
X211188280Y-41116492D01*
X211142534Y-40985757D01*
X211023114Y-40737779D01*
X210876681Y-40504732D01*
X210705075Y-40289545D01*
X210510455Y-40094925D01*
X210493071Y-40081062D01*
X210370543Y-39983349D01*
X210295268Y-39923319D01*
X210062221Y-39776886D01*
X210062218Y-39776884D01*
X209814246Y-39657467D01*
X209554465Y-39566565D01*
X209554453Y-39566561D01*
X209286124Y-39505317D01*
X209286108Y-39505315D01*
X209012621Y-39474500D01*
X209012617Y-39474500D01*
X208737383Y-39474500D01*
X208737379Y-39474500D01*
X208463891Y-39505315D01*
X208463875Y-39505317D01*
X208195546Y-39566561D01*
X208195534Y-39566565D01*
X207935753Y-39657467D01*
X207687781Y-39776884D01*
X207454733Y-39923318D01*
X207239545Y-40094924D01*
X207044924Y-40289545D01*
X206873318Y-40504733D01*
X206726884Y-40737781D01*
X206607467Y-40985753D01*
X206516565Y-41245534D01*
X206516561Y-41245546D01*
X206455317Y-41513875D01*
X206455315Y-41513891D01*
X206424500Y-41787378D01*
X180775500Y-41787378D01*
X180775500Y-41573248D01*
X180759952Y-41475082D01*
X180748954Y-41453497D01*
X180699658Y-41356749D01*
X180699654Y-41356745D01*
X180699653Y-41356743D01*
X180652622Y-41309712D01*
X180619137Y-41248389D01*
X180624121Y-41178697D01*
X180665993Y-41122764D01*
X180675207Y-41116492D01*
X180805078Y-41036387D01*
X180923885Y-40917580D01*
X181012091Y-40774577D01*
X181012093Y-40774572D01*
X181064942Y-40615083D01*
X181074999Y-40516650D01*
X181075000Y-40516637D01*
X181075000Y-40500000D01*
X179125001Y-40500000D01*
X179125001Y-40516652D01*
X169940500Y-40516652D01*
X169940500Y-39983349D01*
X179125000Y-39983349D01*
X179125000Y-40000000D01*
X179850000Y-40000000D01*
X180350000Y-40000000D01*
X181074999Y-40000000D01*
X181074999Y-39983364D01*
X181074998Y-39983347D01*
X181064943Y-39884916D01*
X181012093Y-39725427D01*
X181012091Y-39725422D01*
X180923885Y-39582419D01*
X180805080Y-39463614D01*
X180662077Y-39375408D01*
X180662072Y-39375406D01*
X180502583Y-39322557D01*
X180404150Y-39312500D01*
X180350000Y-39312500D01*
X180350000Y-40000000D01*
X179850000Y-40000000D01*
X179850000Y-39312500D01*
X179849999Y-39312499D01*
X179795864Y-39312500D01*
X179795847Y-39312501D01*
X179697415Y-39322557D01*
X179537927Y-39375406D01*
X179537922Y-39375408D01*
X179394919Y-39463614D01*
X179276114Y-39582419D01*
X179187908Y-39725422D01*
X179187906Y-39725427D01*
X179135057Y-39884916D01*
X179125000Y-39983349D01*
X169940500Y-39983349D01*
X169940500Y-39580730D01*
X169937646Y-39550300D01*
X169937646Y-39550298D01*
X169892793Y-39422119D01*
X169892792Y-39422117D01*
X169812150Y-39312850D01*
X169702882Y-39232207D01*
X169702880Y-39232206D01*
X169574700Y-39187353D01*
X169544270Y-39184500D01*
X169544266Y-39184500D01*
X169393563Y-39184500D01*
X169326524Y-39164815D01*
X169280769Y-39112011D01*
X169269563Y-39060500D01*
X169269563Y-38474108D01*
X194714500Y-38474108D01*
X194714500Y-38605892D01*
X194723888Y-38640928D01*
X194748608Y-38733187D01*
X194752192Y-38739394D01*
X194814500Y-38847314D01*
X194907686Y-38940500D01*
X195021814Y-39006392D01*
X195149108Y-39040500D01*
X195149110Y-39040500D01*
X195280890Y-39040500D01*
X195280892Y-39040500D01*
X195408186Y-39006392D01*
X195522314Y-38940500D01*
X195578472Y-38884341D01*
X195639791Y-38850859D01*
X195709483Y-38855843D01*
X195765417Y-38897714D01*
X195773535Y-38910021D01*
X195809500Y-38972314D01*
X195902686Y-39065500D01*
X196016814Y-39131392D01*
X196144108Y-39165500D01*
X196144110Y-39165500D01*
X196275890Y-39165500D01*
X196275892Y-39165500D01*
X196403186Y-39131392D01*
X196517314Y-39065500D01*
X196567819Y-39014995D01*
X196629142Y-38981510D01*
X196698834Y-38986494D01*
X196754767Y-39028366D01*
X196779184Y-39093830D01*
X196779500Y-39102676D01*
X196779500Y-40081062D01*
X196765383Y-40133751D01*
X196766719Y-40134304D01*
X196763608Y-40141814D01*
X196729500Y-40269108D01*
X196729500Y-40400891D01*
X196763608Y-40528187D01*
X196787461Y-40569500D01*
X196829500Y-40642314D01*
X196922686Y-40735500D01*
X197036814Y-40801392D01*
X197164108Y-40835500D01*
X197164110Y-40835500D01*
X197295890Y-40835500D01*
X197295892Y-40835500D01*
X197423186Y-40801392D01*
X197537314Y-40735500D01*
X197630500Y-40642314D01*
X197696392Y-40528186D01*
X197730500Y-40400892D01*
X197730500Y-40269108D01*
X197696392Y-40141814D01*
X197696388Y-40141807D01*
X197693281Y-40134304D01*
X197694616Y-40133751D01*
X197680500Y-40081062D01*
X197680500Y-38626153D01*
X217399503Y-38626153D01*
X217399503Y-38783846D01*
X217430264Y-38938489D01*
X217430267Y-38938501D01*
X217490605Y-39084172D01*
X217490612Y-39084185D01*
X217578213Y-39215288D01*
X217578216Y-39215292D01*
X217689710Y-39326786D01*
X217689714Y-39326789D01*
X217820817Y-39414390D01*
X217820830Y-39414397D01*
X217939652Y-39463614D01*
X217966506Y-39474737D01*
X218120231Y-39505315D01*
X218121156Y-39505499D01*
X218121159Y-39505500D01*
X218121161Y-39505500D01*
X219078847Y-39505500D01*
X219078848Y-39505499D01*
X219233500Y-39474737D01*
X219360532Y-39422119D01*
X219379175Y-39414397D01*
X219379175Y-39414396D01*
X219379182Y-39414394D01*
X219510292Y-39326789D01*
X219621792Y-39215289D01*
X219709397Y-39084179D01*
X219769740Y-38938497D01*
X219800503Y-38783842D01*
X219800503Y-38769071D01*
X242949502Y-38769071D01*
X242974500Y-38894738D01*
X242974502Y-38894744D01*
X243023536Y-39013124D01*
X243023541Y-39013133D01*
X243094726Y-39119668D01*
X243094729Y-39119672D01*
X243185330Y-39210273D01*
X243185334Y-39210276D01*
X243291869Y-39281461D01*
X243291875Y-39281464D01*
X243291876Y-39281465D01*
X243410259Y-39330501D01*
X243410263Y-39330501D01*
X243410264Y-39330502D01*
X243535931Y-39355500D01*
X243535934Y-39355500D01*
X243664074Y-39355500D01*
X243748618Y-39338682D01*
X243789747Y-39330501D01*
X243908130Y-39281465D01*
X244014672Y-39210276D01*
X244105279Y-39119669D01*
X244176468Y-39013127D01*
X244225504Y-38894744D01*
X244247564Y-38783844D01*
X244250503Y-38769071D01*
X244250503Y-38640928D01*
X244225505Y-38515261D01*
X244225504Y-38515260D01*
X244225504Y-38515256D01*
X244176468Y-38396873D01*
X244176467Y-38396872D01*
X244176464Y-38396866D01*
X244105279Y-38290331D01*
X244105276Y-38290327D01*
X244014675Y-38199726D01*
X244014671Y-38199723D01*
X243908136Y-38128538D01*
X243908127Y-38128533D01*
X243789747Y-38079499D01*
X243789741Y-38079497D01*
X243664074Y-38054500D01*
X243664072Y-38054500D01*
X243535934Y-38054500D01*
X243535932Y-38054500D01*
X243410264Y-38079497D01*
X243410258Y-38079499D01*
X243291878Y-38128533D01*
X243291869Y-38128538D01*
X243185334Y-38199723D01*
X243185330Y-38199726D01*
X243094729Y-38290327D01*
X243094726Y-38290331D01*
X243023541Y-38396866D01*
X243023536Y-38396875D01*
X242974502Y-38515255D01*
X242974500Y-38515261D01*
X242949503Y-38640928D01*
X242949503Y-38640931D01*
X242949503Y-38769069D01*
X242949503Y-38769071D01*
X242949502Y-38769071D01*
X219800503Y-38769071D01*
X219800503Y-38626158D01*
X219800503Y-38626155D01*
X219800502Y-38626153D01*
X219778443Y-38515255D01*
X219769740Y-38471503D01*
X219752800Y-38430606D01*
X219709400Y-38325827D01*
X219709393Y-38325814D01*
X219621792Y-38194711D01*
X219621789Y-38194707D01*
X219510295Y-38083213D01*
X219510291Y-38083210D01*
X219379188Y-37995609D01*
X219379175Y-37995602D01*
X219233504Y-37935264D01*
X219233492Y-37935261D01*
X219078848Y-37904500D01*
X219078845Y-37904500D01*
X218121161Y-37904500D01*
X218121158Y-37904500D01*
X217966513Y-37935261D01*
X217966501Y-37935264D01*
X217820830Y-37995602D01*
X217820817Y-37995609D01*
X217689714Y-38083210D01*
X217689710Y-38083213D01*
X217578216Y-38194707D01*
X217578213Y-38194711D01*
X217490612Y-38325814D01*
X217490605Y-38325827D01*
X217430267Y-38471498D01*
X217430264Y-38471510D01*
X217399503Y-38626153D01*
X197680500Y-38626153D01*
X197680500Y-36172965D01*
X197689144Y-36143524D01*
X197695668Y-36113538D01*
X197699422Y-36108522D01*
X197700185Y-36105926D01*
X197716819Y-36085284D01*
X197735950Y-36066153D01*
X217399503Y-36066153D01*
X217399503Y-36223846D01*
X217430264Y-36378489D01*
X217430267Y-36378501D01*
X217490605Y-36524172D01*
X217490612Y-36524185D01*
X217578213Y-36655288D01*
X217578216Y-36655292D01*
X217689710Y-36766786D01*
X217689714Y-36766789D01*
X217820817Y-36854390D01*
X217820830Y-36854397D01*
X217966501Y-36914735D01*
X217966506Y-36914737D01*
X218054997Y-36932339D01*
X218121156Y-36945499D01*
X218121159Y-36945500D01*
X218121161Y-36945500D01*
X219078847Y-36945500D01*
X219078848Y-36945499D01*
X219233500Y-36914737D01*
X219379182Y-36854394D01*
X219510292Y-36766789D01*
X219621792Y-36655289D01*
X219709397Y-36524179D01*
X219769740Y-36378497D01*
X219800503Y-36223842D01*
X219800503Y-36066158D01*
X219800503Y-36066155D01*
X219800502Y-36066153D01*
X242399503Y-36066153D01*
X242399503Y-36223846D01*
X242430264Y-36378489D01*
X242430267Y-36378501D01*
X242490605Y-36524172D01*
X242490612Y-36524185D01*
X242578213Y-36655288D01*
X242578216Y-36655292D01*
X242689710Y-36766786D01*
X242689714Y-36766789D01*
X242820817Y-36854390D01*
X242820830Y-36854397D01*
X242966501Y-36914735D01*
X242966506Y-36914737D01*
X243054997Y-36932339D01*
X243121156Y-36945499D01*
X243121159Y-36945500D01*
X243121161Y-36945500D01*
X244078847Y-36945500D01*
X244078848Y-36945499D01*
X244233500Y-36914737D01*
X244379182Y-36854394D01*
X244510292Y-36766789D01*
X244621792Y-36655289D01*
X244709397Y-36524179D01*
X244769740Y-36378497D01*
X244800503Y-36223842D01*
X244800503Y-36066158D01*
X244800503Y-36066155D01*
X244800502Y-36066153D01*
X244769741Y-35911510D01*
X244769740Y-35911503D01*
X244767786Y-35906785D01*
X244709400Y-35765827D01*
X244709393Y-35765814D01*
X244621792Y-35634711D01*
X244621789Y-35634707D01*
X244510295Y-35523213D01*
X244510291Y-35523210D01*
X244379188Y-35435609D01*
X244379175Y-35435602D01*
X244233504Y-35375264D01*
X244233492Y-35375261D01*
X244078848Y-35344500D01*
X244078845Y-35344500D01*
X243121161Y-35344500D01*
X243121158Y-35344500D01*
X242966513Y-35375261D01*
X242966501Y-35375264D01*
X242820830Y-35435602D01*
X242820817Y-35435609D01*
X242689714Y-35523210D01*
X242689710Y-35523213D01*
X242578216Y-35634707D01*
X242578213Y-35634711D01*
X242490612Y-35765814D01*
X242490605Y-35765827D01*
X242430267Y-35911498D01*
X242430264Y-35911510D01*
X242399503Y-36066153D01*
X219800502Y-36066153D01*
X219769741Y-35911510D01*
X219769740Y-35911503D01*
X219767786Y-35906785D01*
X219709400Y-35765827D01*
X219709393Y-35765814D01*
X219621792Y-35634711D01*
X219621789Y-35634707D01*
X219510295Y-35523213D01*
X219510291Y-35523210D01*
X219379188Y-35435609D01*
X219379175Y-35435602D01*
X219233504Y-35375264D01*
X219233492Y-35375261D01*
X219078848Y-35344500D01*
X219078845Y-35344500D01*
X218121161Y-35344500D01*
X218121158Y-35344500D01*
X217966513Y-35375261D01*
X217966501Y-35375264D01*
X217820830Y-35435602D01*
X217820817Y-35435609D01*
X217689714Y-35523210D01*
X217689710Y-35523213D01*
X217578216Y-35634707D01*
X217578213Y-35634711D01*
X217490612Y-35765814D01*
X217490605Y-35765827D01*
X217430267Y-35911498D01*
X217430264Y-35911510D01*
X217399503Y-36066153D01*
X197735950Y-36066153D01*
X198085094Y-35717009D01*
X198530490Y-35271614D01*
X198589799Y-35168887D01*
X198619107Y-35059506D01*
X198619111Y-35059507D01*
X198619111Y-35059488D01*
X198620500Y-35054309D01*
X198620500Y-32984152D01*
X199365001Y-32984152D01*
X199375056Y-33082583D01*
X199427906Y-33242072D01*
X199427908Y-33242077D01*
X199516114Y-33385080D01*
X199634919Y-33503885D01*
X199764793Y-33583992D01*
X199811517Y-33635940D01*
X199822740Y-33704903D01*
X199794896Y-33768985D01*
X199787378Y-33777211D01*
X199740346Y-33824243D01*
X199740343Y-33824248D01*
X199740342Y-33824249D01*
X199720244Y-33863692D01*
X199680047Y-33942582D01*
X199664500Y-34040748D01*
X199664500Y-34544251D01*
X199680047Y-34642417D01*
X199680049Y-34642420D01*
X199740342Y-34760751D01*
X199740344Y-34760753D01*
X199740346Y-34760756D01*
X199834243Y-34854653D01*
X199834245Y-34854654D01*
X199834249Y-34854658D01*
X199952580Y-34914951D01*
X199952581Y-34914951D01*
X199952583Y-34914952D01*
X199952582Y-34914952D01*
X200050749Y-34930500D01*
X200050754Y-34930500D01*
X200629251Y-34930500D01*
X200727417Y-34914952D01*
X200727418Y-34914951D01*
X200727420Y-34914951D01*
X200845751Y-34854658D01*
X200938591Y-34761817D01*
X200999912Y-34728334D01*
X201026271Y-34725500D01*
X201366063Y-34725500D01*
X201418750Y-34739618D01*
X201419304Y-34738281D01*
X201426807Y-34741388D01*
X201426814Y-34741392D01*
X201554108Y-34775500D01*
X201554110Y-34775500D01*
X201685890Y-34775500D01*
X201685892Y-34775500D01*
X201813186Y-34741392D01*
X201927314Y-34675500D01*
X202020500Y-34582314D01*
X202086392Y-34468186D01*
X202120500Y-34340892D01*
X202120500Y-34209108D01*
X202086392Y-34081814D01*
X202020500Y-33967686D01*
X201927314Y-33874500D01*
X201840277Y-33824249D01*
X201813187Y-33808608D01*
X201698924Y-33777992D01*
X201685892Y-33774500D01*
X201554108Y-33774500D01*
X201426814Y-33808608D01*
X201419304Y-33811719D01*
X201418750Y-33810381D01*
X201366063Y-33824500D01*
X200991271Y-33824500D01*
X200961823Y-33815853D01*
X200931839Y-33809329D01*
X200926827Y-33805577D01*
X200924232Y-33804815D01*
X200903586Y-33788177D01*
X200892618Y-33777208D01*
X200859136Y-33715884D01*
X200864123Y-33646192D01*
X200905997Y-33590260D01*
X200915207Y-33583992D01*
X201045078Y-33503887D01*
X201163885Y-33385080D01*
X201252091Y-33242077D01*
X201252093Y-33242072D01*
X201304942Y-33082583D01*
X201314999Y-32984150D01*
X201315000Y-32984137D01*
X201315000Y-32967500D01*
X199365001Y-32967500D01*
X199365001Y-32984152D01*
X198620500Y-32984152D01*
X198620500Y-32588936D01*
X198625605Y-32553721D01*
X198629771Y-32539651D01*
X198636392Y-32528186D01*
X198657114Y-32450849D01*
X199365000Y-32450849D01*
X199365000Y-32467500D01*
X200090000Y-32467500D01*
X200590000Y-32467500D01*
X201314999Y-32467500D01*
X201314999Y-32450864D01*
X201314998Y-32450847D01*
X201304943Y-32352416D01*
X201252093Y-32192927D01*
X201252091Y-32192922D01*
X201163885Y-32049919D01*
X201045080Y-31931114D01*
X200902077Y-31842908D01*
X200902072Y-31842906D01*
X200742583Y-31790057D01*
X200644150Y-31780000D01*
X200590000Y-31780000D01*
X200590000Y-32467500D01*
X200090000Y-32467500D01*
X200090000Y-31780000D01*
X200089999Y-31779999D01*
X200035864Y-31780000D01*
X200035847Y-31780001D01*
X199937415Y-31790057D01*
X199777927Y-31842906D01*
X199777922Y-31842908D01*
X199634919Y-31931114D01*
X199516114Y-32049919D01*
X199427908Y-32192922D01*
X199427906Y-32192927D01*
X199375057Y-32352416D01*
X199365000Y-32450849D01*
X198657114Y-32450849D01*
X198670500Y-32400892D01*
X198670500Y-32269108D01*
X198636392Y-32141814D01*
X198570500Y-32027686D01*
X198477314Y-31934500D01*
X198420250Y-31901554D01*
X198363187Y-31868608D01*
X198267271Y-31842908D01*
X198235892Y-31834500D01*
X198104108Y-31834500D01*
X197976812Y-31868608D01*
X197862686Y-31934500D01*
X197862683Y-31934502D01*
X197812181Y-31985005D01*
X197750858Y-32018490D01*
X197681166Y-32013506D01*
X197625233Y-31971634D01*
X197600816Y-31906170D01*
X197600500Y-31897324D01*
X197600500Y-31072964D01*
X197620185Y-31005925D01*
X197636814Y-30985288D01*
X199258989Y-29363112D01*
X199306222Y-29335845D01*
X199305668Y-29334506D01*
X199313176Y-29331394D01*
X199313186Y-29331392D01*
X199427314Y-29265500D01*
X199520500Y-29172314D01*
X199586392Y-29058186D01*
X199620500Y-28930892D01*
X199620500Y-28799108D01*
X199586392Y-28671814D01*
X199520500Y-28557686D01*
X199427314Y-28464500D01*
X199362854Y-28427284D01*
X199313187Y-28398608D01*
X199249539Y-28381554D01*
X199185892Y-28364500D01*
X199054108Y-28364500D01*
X198926814Y-28398608D01*
X198926813Y-28398608D01*
X198926811Y-28398609D01*
X198926810Y-28398609D01*
X198865089Y-28434244D01*
X198797188Y-28450717D01*
X198731162Y-28427864D01*
X198687971Y-28372943D01*
X198682876Y-28353467D01*
X198682602Y-28353541D01*
X198680421Y-28345402D01*
X198672474Y-28315740D01*
X198649800Y-28231114D01*
X198649798Y-28231110D01*
X198590494Y-28128392D01*
X198590488Y-28128384D01*
X198506615Y-28044511D01*
X198506607Y-28044505D01*
X198403889Y-27985201D01*
X198403885Y-27985199D01*
X198289310Y-27954501D01*
X198289309Y-27954501D01*
X198170691Y-27954501D01*
X198149135Y-27960276D01*
X198117049Y-27964500D01*
X198104108Y-27964500D01*
X197976812Y-27998608D01*
X197862686Y-28064500D01*
X197862683Y-28064502D01*
X197769502Y-28157683D01*
X197769498Y-28157689D01*
X197703606Y-28271816D01*
X197700495Y-28279328D01*
X197699161Y-28278775D01*
X197671886Y-28326009D01*
X195939513Y-30058383D01*
X195939509Y-30058389D01*
X195880201Y-30161112D01*
X195880200Y-30161117D01*
X195849500Y-30275691D01*
X195849500Y-33697034D01*
X195829815Y-33764073D01*
X195813181Y-33784715D01*
X194854513Y-34743383D01*
X194854511Y-34743386D01*
X194795200Y-34846113D01*
X194795199Y-34846116D01*
X194788712Y-34870324D01*
X194788713Y-34870325D01*
X194764500Y-34960691D01*
X194764500Y-38286062D01*
X194764026Y-38287828D01*
X194759972Y-38319264D01*
X194755756Y-38334431D01*
X194748608Y-38346814D01*
X194714500Y-38474108D01*
X169269563Y-38474108D01*
X169269563Y-37980730D01*
X169266709Y-37950300D01*
X169266709Y-37950298D01*
X169221856Y-37822119D01*
X169221855Y-37822117D01*
X169215671Y-37813738D01*
X169141213Y-37712850D01*
X169031945Y-37632207D01*
X169031943Y-37632206D01*
X168903763Y-37587353D01*
X168873333Y-37584500D01*
X168873329Y-37584500D01*
X167664797Y-37584500D01*
X167664793Y-37584500D01*
X167634363Y-37587353D01*
X167634361Y-37587353D01*
X167506182Y-37632206D01*
X167506180Y-37632207D01*
X167396913Y-37712850D01*
X167316270Y-37822117D01*
X167316269Y-37822119D01*
X167271416Y-37950298D01*
X167271416Y-37950300D01*
X167268563Y-37980730D01*
X167268563Y-38210191D01*
X167248878Y-38277230D01*
X167196074Y-38322985D01*
X167126916Y-38332929D01*
X167063360Y-38303904D01*
X167026632Y-38248510D01*
X166973818Y-38085968D01*
X166880922Y-37903650D01*
X166848537Y-37859077D01*
X166848537Y-37859076D01*
X166169063Y-38538551D01*
X166169063Y-38532339D01*
X166141804Y-38430606D01*
X166089143Y-38339394D01*
X166014669Y-38264920D01*
X165923457Y-38212259D01*
X165821724Y-38185000D01*
X165815509Y-38185000D01*
X166494985Y-37505524D01*
X166494984Y-37505523D01*
X166450422Y-37473147D01*
X166450403Y-37473135D01*
X166421235Y-37458273D01*
X166370439Y-37410299D01*
X166353644Y-37342478D01*
X166359600Y-37309468D01*
X166366116Y-37289413D01*
X166398126Y-37087317D01*
X166398126Y-36882682D01*
X166366116Y-36680582D01*
X166302881Y-36485968D01*
X166209985Y-36303650D01*
X166177600Y-36259077D01*
X166177600Y-36259076D01*
X165498126Y-36938553D01*
X165498126Y-36932339D01*
X165470867Y-36830606D01*
X165418206Y-36739394D01*
X165343732Y-36664920D01*
X165252520Y-36612259D01*
X165150787Y-36585000D01*
X165144572Y-36585000D01*
X165824048Y-35905524D01*
X165824047Y-35905523D01*
X165779485Y-35873147D01*
X165779476Y-35873141D01*
X165597157Y-35780244D01*
X165402543Y-35717009D01*
X165200443Y-35685000D01*
X164995809Y-35685000D01*
X164793708Y-35717009D01*
X164599094Y-35780244D01*
X164416770Y-35873143D01*
X164372203Y-35905523D01*
X164372203Y-35905524D01*
X165051680Y-36585000D01*
X165045465Y-36585000D01*
X164943732Y-36612259D01*
X164852520Y-36664920D01*
X164778046Y-36739394D01*
X164725385Y-36830606D01*
X164698126Y-36932339D01*
X164698126Y-36938553D01*
X164018650Y-36259077D01*
X164018649Y-36259077D01*
X163986269Y-36303644D01*
X163893370Y-36485968D01*
X163830135Y-36680582D01*
X163798126Y-36882682D01*
X161351238Y-36882682D01*
X161512055Y-36412195D01*
X161514227Y-36406332D01*
X161784420Y-35729917D01*
X161786887Y-35724172D01*
X162090969Y-35062364D01*
X162093729Y-35056736D01*
X162159670Y-34930500D01*
X162430961Y-34411138D01*
X162434006Y-34405654D01*
X162434010Y-34405648D01*
X162803501Y-33777972D01*
X162806801Y-33772678D01*
X163207625Y-33164497D01*
X163211176Y-33159396D01*
X163642312Y-32572266D01*
X163646114Y-32567355D01*
X164106403Y-32002858D01*
X164110490Y-31998097D01*
X164122318Y-31985005D01*
X164598789Y-31457623D01*
X164603079Y-31453111D01*
X165061204Y-30994986D01*
X180890004Y-30994986D01*
X180900497Y-31097697D01*
X180955644Y-31264119D01*
X180955646Y-31264124D01*
X181047687Y-31413345D01*
X181171657Y-31537315D01*
X181320878Y-31629356D01*
X181320883Y-31629358D01*
X181487305Y-31684505D01*
X181487312Y-31684506D01*
X181590022Y-31694999D01*
X181815002Y-31694999D01*
X181815003Y-31694998D01*
X181815003Y-29595000D01*
X180890004Y-29595000D01*
X180890004Y-30994986D01*
X165061204Y-30994986D01*
X165118111Y-30938079D01*
X165122623Y-30933789D01*
X165663102Y-30445484D01*
X165667864Y-30441398D01*
X165871087Y-30275691D01*
X166232355Y-29981114D01*
X166237266Y-29977312D01*
X166824396Y-29546176D01*
X166829511Y-29542617D01*
X167437678Y-29141801D01*
X167442972Y-29138501D01*
X168070662Y-28769001D01*
X168076138Y-28765961D01*
X168721748Y-28428722D01*
X168727364Y-28425969D01*
X169389198Y-28121874D01*
X169394917Y-28119420D01*
X170071358Y-27849216D01*
X170077195Y-27847055D01*
X170766425Y-27611469D01*
X170772376Y-27609601D01*
X171472681Y-27409219D01*
X171478713Y-27407658D01*
X172188239Y-27243009D01*
X172194324Y-27241758D01*
X172911296Y-27113255D01*
X172917486Y-27112307D01*
X173639988Y-27020289D01*
X173646230Y-27019654D01*
X174372494Y-26964347D01*
X174378747Y-26964030D01*
X175108422Y-26945540D01*
X175111563Y-26945500D01*
X175175892Y-26945500D01*
X181079480Y-26945500D01*
X181146519Y-26965185D01*
G37*
%TD.AperFunction*%
%TD*%
M02*
