%TF.GenerationSoftware,KiCad,Pcbnew,9.0.7*%
%TF.CreationDate,2026-08-07T14:28:47+05:30*%
%TF.ProjectId,Water-Manager-New,57617465-722d-44d6-916e-616765722d4e,rev?*%
%TF.SameCoordinates,Original*%
%TF.FileFunction,Paste,Bot*%
%TF.FilePolarity,Positive*%
%FSLAX46Y46*%
G04 Gerber Fmt 4.6, Leading zero omitted, Abs format (unit mm)*
G04 Created by KiCad (PCBNEW 9.0.7) date 2026-08-07 14:28:47*
%MOMM*%
%LPD*%
G01*
G04 APERTURE LIST*
G04 Aperture macros list*
%AMRoundRect*
0 Rectangle with rounded corners*
0 $1 Rounding radius*
0 $2 $3 $4 $5 $6 $7 $8 $9 X,Y pos of 4 corners*
0 Add a 4 corners polygon primitive as box body*
4,1,4,$2,$3,$4,$5,$6,$7,$8,$9,$2,$3,0*
0 Add four circle primitives for the rounded corners*
1,1,$1+$1,$2,$3*
1,1,$1+$1,$4,$5*
1,1,$1+$1,$6,$7*
1,1,$1+$1,$8,$9*
0 Add four rect primitives between the rounded corners*
20,1,$1+$1,$2,$3,$4,$5,0*
20,1,$1+$1,$4,$5,$6,$7,0*
20,1,$1+$1,$6,$7,$8,$9,0*
20,1,$1+$1,$8,$9,$2,$3,0*%
G04 Aperture macros list end*
%ADD10RoundRect,0.250000X0.450000X-0.262500X0.450000X0.262500X-0.450000X0.262500X-0.450000X-0.262500X0*%
%ADD11RoundRect,0.250000X-0.450000X0.262500X-0.450000X-0.262500X0.450000X-0.262500X0.450000X0.262500X0*%
%ADD12RoundRect,0.250000X1.000000X0.650000X-1.000000X0.650000X-1.000000X-0.650000X1.000000X-0.650000X0*%
%ADD13RoundRect,0.250000X-0.475000X0.250000X-0.475000X-0.250000X0.475000X-0.250000X0.475000X0.250000X0*%
%ADD14RoundRect,0.050000X0.100000X0.250000X-0.100000X0.250000X-0.100000X-0.250000X0.100000X-0.250000X0*%
%ADD15RoundRect,0.050000X0.250000X-0.100000X0.250000X0.100000X-0.250000X0.100000X-0.250000X-0.100000X0*%
%ADD16R,1.500000X2.400000*%
%ADD17RoundRect,0.250000X-0.262500X-0.450000X0.262500X-0.450000X0.262500X0.450000X-0.262500X0.450000X0*%
%ADD18RoundRect,0.150000X0.150000X-0.512500X0.150000X0.512500X-0.150000X0.512500X-0.150000X-0.512500X0*%
%ADD19RoundRect,0.250000X0.475000X-0.250000X0.475000X0.250000X-0.475000X0.250000X-0.475000X-0.250000X0*%
%ADD20R,1.500000X2.000000*%
%ADD21RoundRect,0.250000X-0.250000X-0.475000X0.250000X-0.475000X0.250000X0.475000X-0.250000X0.475000X0*%
%ADD22RoundRect,0.250000X-0.700000X0.275000X-0.700000X-0.275000X0.700000X-0.275000X0.700000X0.275000X0*%
%ADD23RoundRect,0.250000X0.262500X0.450000X-0.262500X0.450000X-0.262500X-0.450000X0.262500X-0.450000X0*%
%ADD24RoundRect,0.225000X0.250000X-0.225000X0.250000X0.225000X-0.250000X0.225000X-0.250000X-0.225000X0*%
%ADD25RoundRect,0.150000X-0.150000X0.825000X-0.150000X-0.825000X0.150000X-0.825000X0.150000X0.825000X0*%
%ADD26RoundRect,0.250000X0.250000X0.475000X-0.250000X0.475000X-0.250000X-0.475000X0.250000X-0.475000X0*%
%ADD27RoundRect,0.150000X0.512500X0.150000X-0.512500X0.150000X-0.512500X-0.150000X0.512500X-0.150000X0*%
%ADD28RoundRect,0.375000X0.375000X-0.625000X0.375000X0.625000X-0.375000X0.625000X-0.375000X-0.625000X0*%
%ADD29RoundRect,0.500000X1.400000X-0.500000X1.400000X0.500000X-1.400000X0.500000X-1.400000X-0.500000X0*%
%ADD30RoundRect,0.150000X0.150000X-0.825000X0.150000X0.825000X-0.150000X0.825000X-0.150000X-0.825000X0*%
%ADD31RoundRect,0.225000X-0.250000X0.225000X-0.250000X-0.225000X0.250000X-0.225000X0.250000X0.225000X0*%
%ADD32RoundRect,0.150000X0.150000X-0.875000X0.150000X0.875000X-0.150000X0.875000X-0.150000X-0.875000X0*%
G04 APERTURE END LIST*
D10*
%TO.C,R27*%
X226730000Y-116520000D03*
X226730000Y-114695000D03*
%TD*%
D11*
%TO.C,R7*%
X239490000Y-110992500D03*
X239490000Y-112817500D03*
%TD*%
D12*
%TO.C,D9*%
X217950000Y-103715000D03*
X213950000Y-103715000D03*
%TD*%
D11*
%TO.C,R4*%
X247240000Y-114672500D03*
X247240000Y-116497500D03*
%TD*%
D13*
%TO.C,C22*%
X223170000Y-107285000D03*
X223170000Y-109185000D03*
%TD*%
D11*
%TO.C,R29*%
X229200000Y-114702500D03*
X229200000Y-116527500D03*
%TD*%
%TO.C,R1*%
X238980000Y-89722500D03*
X238980000Y-91547500D03*
%TD*%
D13*
%TO.C,C3*%
X239530000Y-114635000D03*
X239530000Y-116535000D03*
%TD*%
D14*
%TO.C,D8*%
X211470000Y-123175000D03*
X210770000Y-123175000D03*
%TD*%
D11*
%TO.C,R9*%
X241820000Y-114652500D03*
X241820000Y-116477500D03*
%TD*%
%TO.C,R5*%
X184380000Y-57842500D03*
X184380000Y-59667500D03*
%TD*%
D15*
%TO.C,D16*%
X164310000Y-44795000D03*
X164310000Y-44095000D03*
%TD*%
D16*
%TO.C,L1*%
X213390000Y-109135000D03*
X218890000Y-109135000D03*
%TD*%
D17*
%TO.C,R33*%
X221297500Y-46745000D03*
X223122500Y-46745000D03*
%TD*%
D18*
%TO.C,U8*%
X175542500Y-35130000D03*
X174592500Y-35130000D03*
X173642500Y-35130000D03*
X173642500Y-32855000D03*
X175542500Y-32855000D03*
%TD*%
D19*
%TO.C,C13*%
X175680000Y-30022500D03*
X175680000Y-28122500D03*
%TD*%
D20*
%TO.C,U7*%
X187090000Y-35205000D03*
X189090000Y-35205000D03*
X191090000Y-35205000D03*
X195090000Y-35205000D03*
X199090000Y-51205000D03*
X197090000Y-51205000D03*
X193090000Y-51205000D03*
X191090000Y-51205000D03*
X189090000Y-51205000D03*
X187090000Y-51205000D03*
X185090000Y-51205000D03*
%TD*%
D11*
%TO.C,R30*%
X221200000Y-90122500D03*
X221200000Y-91947500D03*
%TD*%
D14*
%TO.C,D18*%
X231670000Y-123505000D03*
X230970000Y-123505000D03*
%TD*%
D11*
%TO.C,R28*%
X234110000Y-114672500D03*
X234110000Y-116497500D03*
%TD*%
%TO.C,R25*%
X207630000Y-58302500D03*
X207630000Y-60127500D03*
%TD*%
D19*
%TO.C,C18*%
X223290000Y-116575000D03*
X223290000Y-114675000D03*
%TD*%
D10*
%TO.C,R10*%
X252710000Y-73657500D03*
X252710000Y-71832500D03*
%TD*%
D19*
%TO.C,C1*%
X250480000Y-116595000D03*
X250480000Y-114695000D03*
%TD*%
D21*
%TO.C,C21*%
X220980000Y-41405000D03*
X222880000Y-41405000D03*
%TD*%
D17*
%TO.C,R11*%
X210627500Y-116705000D03*
X212452500Y-116705000D03*
%TD*%
D22*
%TO.C,F2*%
X170980000Y-57550000D03*
X170980000Y-60700000D03*
%TD*%
D21*
%TO.C,C8*%
X221110000Y-38735000D03*
X223010000Y-38735000D03*
%TD*%
D10*
%TO.C,R23*%
X180220003Y-40365000D03*
X180220003Y-38540000D03*
%TD*%
%TO.C,R18*%
X162410000Y-49857500D03*
X162410000Y-48032500D03*
%TD*%
D14*
%TO.C,D17*%
X254960000Y-123485000D03*
X254260000Y-123485000D03*
%TD*%
D11*
%TO.C,R24*%
X203830000Y-58292500D03*
X203830000Y-60117500D03*
%TD*%
%TO.C,R3*%
X252910000Y-114692500D03*
X252910000Y-116517500D03*
%TD*%
D23*
%TO.C,R12*%
X227242500Y-38785000D03*
X225417500Y-38785000D03*
%TD*%
D13*
%TO.C,C15*%
X174780000Y-61755000D03*
X174780000Y-63655000D03*
%TD*%
D24*
%TO.C,C12*%
X177550000Y-29887500D03*
X177550000Y-28337500D03*
%TD*%
D10*
%TO.C,R26*%
X231680000Y-116527500D03*
X231680000Y-114702500D03*
%TD*%
D11*
%TO.C,R20*%
X186760000Y-57802500D03*
X186760000Y-59627500D03*
%TD*%
%TO.C,R2*%
X233460000Y-89892500D03*
X233460000Y-91717500D03*
%TD*%
%TO.C,R22*%
X198480000Y-58312500D03*
X198480000Y-60137500D03*
%TD*%
D19*
%TO.C,C6*%
X170870000Y-44415000D03*
X170870000Y-42515000D03*
%TD*%
D14*
%TO.C,D5*%
X244850000Y-123465000D03*
X244150000Y-123465000D03*
%TD*%
D21*
%TO.C,C14*%
X215380000Y-118325000D03*
X217280000Y-118325000D03*
%TD*%
D11*
%TO.C,R21*%
X189330000Y-57822500D03*
X189330000Y-59647500D03*
%TD*%
D10*
%TO.C,R32*%
X162410000Y-45457500D03*
X162410000Y-43632500D03*
%TD*%
D13*
%TO.C,C7*%
X164650000Y-34915000D03*
X164650000Y-36815000D03*
%TD*%
D25*
%TO.C,U2*%
X192445000Y-63970000D03*
X193715000Y-63970000D03*
X194985000Y-63970000D03*
X196255000Y-63970000D03*
X197525000Y-63970000D03*
X201335000Y-63970000D03*
X201335000Y-68920000D03*
X200065000Y-68920000D03*
X198795000Y-68920000D03*
X197525000Y-68920000D03*
X196255000Y-68920000D03*
X194985000Y-68920000D03*
X193715000Y-68920000D03*
X192445000Y-68920000D03*
%TD*%
D17*
%TO.C,R16*%
X238857500Y-43915000D03*
X240682500Y-43915000D03*
%TD*%
D26*
%TO.C,C17*%
X243500000Y-107275000D03*
X241600000Y-107275000D03*
%TD*%
D14*
%TO.C,D6*%
X249960000Y-123485000D03*
X249260000Y-123485000D03*
%TD*%
D11*
%TO.C,R31*%
X224950000Y-90032500D03*
X224950000Y-91857500D03*
%TD*%
D25*
%TO.C,U1*%
X180050000Y-64240000D03*
X181320000Y-64240000D03*
X182590000Y-64240000D03*
X183860000Y-64240000D03*
X185130000Y-64240000D03*
X186400000Y-64240000D03*
X188940000Y-64240000D03*
X188940000Y-69190000D03*
X186400000Y-69190000D03*
X185130000Y-69190000D03*
X183860000Y-69190000D03*
X182590000Y-69190000D03*
X181320000Y-69190000D03*
X180050000Y-69190000D03*
%TD*%
D27*
%TO.C,U3*%
X217447500Y-114075000D03*
X217447500Y-115025000D03*
X217447500Y-115975000D03*
X215172500Y-115975000D03*
X215172500Y-115025000D03*
X215172500Y-114075000D03*
%TD*%
D11*
%TO.C,R6*%
X217610000Y-90252500D03*
X217610000Y-92077500D03*
%TD*%
D21*
%TO.C,C20*%
X221120000Y-43775000D03*
X223020000Y-43775000D03*
%TD*%
D22*
%TO.C,F1*%
X220650000Y-113420000D03*
X220650000Y-116570000D03*
%TD*%
D28*
%TO.C,U13*%
X177210000Y-54085000D03*
X174910000Y-54085000D03*
D29*
X174910000Y-47785000D03*
D28*
X172610000Y-54085000D03*
%TD*%
D17*
%TO.C,R15*%
X238877500Y-41515000D03*
X240702500Y-41515000D03*
%TD*%
D11*
%TO.C,R8*%
X228870000Y-90032500D03*
X228870000Y-91857500D03*
%TD*%
D13*
%TO.C,C11*%
X204390000Y-68405000D03*
X204390000Y-70305000D03*
%TD*%
D25*
%TO.C,U9*%
X237075000Y-98430000D03*
X238345000Y-98430000D03*
X239615000Y-98430000D03*
X240885000Y-98430000D03*
X242155000Y-98430000D03*
X243425000Y-98430000D03*
X244695000Y-98430000D03*
X245965000Y-98430000D03*
X245965000Y-103380000D03*
X244695000Y-103380000D03*
X243425000Y-103380000D03*
X242155000Y-103380000D03*
X240885000Y-103380000D03*
X239615000Y-103380000D03*
X238345000Y-103380000D03*
X237075000Y-103380000D03*
%TD*%
D11*
%TO.C,R17*%
X223310000Y-110832500D03*
X223310000Y-112657500D03*
%TD*%
D30*
%TO.C,U10*%
X251485000Y-37570000D03*
X250215000Y-37570000D03*
X248945000Y-37570000D03*
X247675000Y-37570000D03*
X247675000Y-32620000D03*
X248945000Y-32620000D03*
X250215000Y-32620000D03*
X251485000Y-32620000D03*
%TD*%
D17*
%TO.C,R13*%
X238407500Y-54025000D03*
X240232500Y-54025000D03*
%TD*%
D31*
%TO.C,C10*%
X162940000Y-34980000D03*
X162940000Y-36530000D03*
%TD*%
D13*
%TO.C,C2*%
X244910000Y-114675000D03*
X244910000Y-116575000D03*
%TD*%
D32*
%TO.C,U4*%
X254545000Y-51365000D03*
X250735000Y-51365000D03*
X249465000Y-51365000D03*
X248195000Y-51365000D03*
X246925000Y-51365000D03*
X246925000Y-42065000D03*
X248195000Y-42065000D03*
X249465000Y-42065000D03*
X250735000Y-42065000D03*
X252005000Y-42065000D03*
X253275000Y-42065000D03*
X254545000Y-42065000D03*
X255815000Y-42065000D03*
%TD*%
D11*
%TO.C,R14*%
X225920000Y-110912500D03*
X225920000Y-112737500D03*
%TD*%
D21*
%TO.C,C19*%
X221360000Y-49045000D03*
X223260000Y-49045000D03*
%TD*%
D14*
%TO.C,D19*%
X226477500Y-123525000D03*
X225777500Y-123525000D03*
%TD*%
M02*
