M48
; DRILL file {KiCad 9.0.7} date 2026-08-06T19:18:46+0530
; FORMAT={-:-/ absolute / metric / decimal}
; #@! TF.CreationDate,2026-08-06T19:18:46+05:30
; #@! TF.GenerationSoftware,Kicad,Pcbnew,9.0.7
; #@! TF.FileFunction,Plated,1,2,PTH
FMAT,2
METRIC
; #@! TA.AperFunction,Plated,PTH,ViaDrill
T1C0.300
; #@! TA.AperFunction,Plated,PTH,ComponentDrill
T2C0.500
; #@! TA.AperFunction,Plated,PTH,ComponentDrill
T3C0.800
; #@! TA.AperFunction,Plated,PTH,ComponentDrill
T4C1.000
; #@! TA.AperFunction,Plated,PTH,ComponentDrill
T5C1.300
; #@! TA.AperFunction,Plated,PTH,ComponentDrill
T6C1.400
%
G90
G05
T1
X163.65Y-41.125
X164.73Y-41.125
X164.91Y-49.245
X165.69Y-43.055
X165.7Y-41.125
X166.79Y-43.065
X166.8Y-41.135
X166.92Y-71.715
X166.98Y-73.805
X169.29Y-32.245
X169.3Y-30.175
X169.3Y-31.145
X171.22Y-32.255
X171.23Y-30.185
X171.23Y-31.155
X174.83Y-73.815
X175.69Y-71.755
X176.4Y-38.595
X176.41Y-37.495
X178.33Y-38.605
X178.34Y-37.505
X179.54Y-54.205
X179.56Y-52.885
X179.59Y-55.625
X179.65Y-30.455
X179.66Y-28.385
X179.66Y-29.355
X180.211Y-67.714
X181.29Y-55.585
X181.38Y-38.555
X181.51Y-68.535
X182.08Y-34.665
X182.09Y-32.595
X182.09Y-33.565
X182.79Y-68.455
X183.3Y-60.775
X183.86Y-71.755
X184.37Y-47.375
X184.38Y-45.445
X184.4Y-43.705
X184.41Y-41.775
X185.44Y-62.391
X185.45Y-47.375
X185.46Y-45.445
X185.47Y-60.705
X185.48Y-43.705
X185.49Y-41.775
X187.43Y-32.745
X187.93Y-59.975
X188.53Y-32.755
X189.5Y-32.755
X190.44Y-30.385
X190.45Y-28.315
X190.45Y-29.285
X190.66Y-63.495
X190.87Y-71.135
X191.23Y-62.245
X191.41Y-65.873
X193.31Y-40.385
X193.32Y-38.455
X193.75Y-30.055
X194.37Y-65.585
X194.39Y-40.385
X194.4Y-38.455
X194.87Y-49.335
X194.88Y-47.405
X194.88Y-60.455
X195.33Y-67.255
X195.36Y-40.385
X195.37Y-38.455
X195.87Y-59.575
X195.95Y-49.335
X195.96Y-47.405
X196.46Y-40.395
X196.47Y-38.465
X197.33Y-72.425
X198.83Y-33.335
X199.86Y-60.415
X199.93Y-33.345
X200.9Y-33.345
X201.15Y-60.675
X201.31Y-61.845
X202.25Y-60.685
X202.52Y-70.705
X202.53Y-69.605
X202.65Y-63.095
X203.92Y-61.525
X205.03Y-64.595
X205.04Y-62.665
X205.36Y-51.125
X205.37Y-49.195
X206.13Y-64.605
X206.14Y-62.675
X206.2Y-29.745
X206.21Y-33.174
X206.22Y-70.845
X206.44Y-51.125
X206.45Y-49.195
X207.41Y-51.125
X207.42Y-30.005
X207.42Y-49.195
X207.53Y-33.275
X207.63Y-62.905
X208.51Y-51.135
X208.52Y-49.205
X209.77Y-100.915
X210.83Y-119.265
X210.83Y-120.345
X211.02Y-77.775
X211.52Y-105.425
X211.52Y-106.395
X211.52Y-107.475
X211.53Y-104.325
X211.839Y-100.276
X211.86Y-78.385
X212.35Y-38.335
X212.36Y-39.455
X212.48Y-63.755
X212.53Y-62.295
X213.39Y-64.395
X213.52Y-77.005
X213.94Y-38.345
X213.95Y-39.465
X214.21Y-79.045
X214.38Y-101.835
X214.91Y-62.645
X215.74Y-110.165
X215.74Y-111.135
X215.74Y-112.215
X215.75Y-109.065
X215.76Y-121.845
X215.83Y-63.505
X216.31Y-77.755
X216.48Y-122.545
X217.21Y-62.545
X217.4Y-76.965
X217.42Y-87.735
X217.43Y-84.585
X217.43Y-85.665
X217.43Y-86.635
X217.48Y-93.125
X218.55Y-76.055
X218.56Y-77.175
X219.05Y-112.255
X219.05Y-113.225
X219.05Y-114.305
X219.06Y-111.155
X219.18Y-118.255
X219.18Y-119.335
X220.07Y-92.215
X220.14Y-76.065
X220.15Y-77.185
X220.53Y-96.405
X221.11Y-60.625
X221.3Y-50.705
X221.31Y-52.745
X221.61Y-96.405
X221.64Y-108.375
X221.64Y-110.275
X221.71Y-79.175
X221.93Y-105.785
X221.97Y-94.295
X222.38Y-50.705
X222.58Y-96.405
X223.07Y-94.305
X223.35Y-50.705
X223.68Y-96.415
X224.96Y-109.545
X224.97Y-108.445
X224.99Y-115.915
X225.16Y-56.355
X225.5Y-42.745
X225.5Y-43.715
X225.5Y-44.795
X225.51Y-41.645
X225.55Y-52.785
X226.13Y-92.005
X227.32Y-58.495
X227.37Y-51.135
X227.56Y-109.765
X227.56Y-110.735
X227.56Y-111.815
X227.57Y-108.665
X228.75Y-49.085
X229.8Y-92.125
X229.82Y-66.735
X229.91Y-69.585
X229.94Y-70.655
X229.95Y-71.775
X230.15Y-81.885
X230.16Y-79.955
X230.62Y-106.356
X231.08Y-50.995
X231.23Y-81.885
X231.24Y-79.955
X231.49Y-66.735
X231.49Y-68.475
X231.5Y-69.595
X231.53Y-70.665
X231.54Y-71.785
X232.09Y-42.475
X232.09Y-43.555
X232.2Y-81.885
X232.21Y-79.955
X232.83Y-61.875
X232.84Y-59.945
X233.11Y-47.455
X233.3Y-81.895
X233.31Y-79.965
X233.36Y-55.235
X233.91Y-61.875
X233.92Y-59.945
X234.44Y-55.235
X234.72Y-92.405
X234.88Y-61.875
X234.89Y-59.945
X235.07Y-98.305
X235.41Y-55.235
X235.89Y-121.785
X235.9Y-118.635
X235.9Y-119.715
X235.9Y-120.685
X235.98Y-61.885
X235.99Y-59.955
X236.45Y-105.945
X236.51Y-55.245
X236.67Y-48.985
X236.82Y-107.235
X237.01Y-101.645
X237.34Y-90.585
X237.44Y-30.485
X237.45Y-28.555
X237.71Y-44.875
X237.71Y-45.955
X237.81Y-47.485
X237.9Y-107.235
X237.97Y-50.965
X238.18Y-38.085
X238.31Y-34.655
X238.52Y-30.485
X238.53Y-28.555
X238.87Y-107.235
X239.23Y-100.185
X239.97Y-107.245
X240.82Y-111.155
X240.84Y-37.155
X240.84Y-38.235
X240.85Y-40.475
X240.94Y-91.825
X241.08Y-74.365
X241.12Y-100.165
X243.14Y-111.085
X243.21Y-79.035
X243.22Y-77.105
X243.91Y-90.045
X244.31Y-79.045
X244.32Y-77.115
X244.43Y-30.855
X244.44Y-28.925
X244.91Y-93.645
X244.92Y-91.715
X245.51Y-30.855
X245.52Y-28.925
X246.09Y-36.495
X246.11Y-84.245
X246.14Y-107.165
X246.35Y-111.055
X246.48Y-30.855
X246.49Y-28.925
X247.58Y-30.865
X247.59Y-28.935
X247.85Y-39.785
X248.07Y-46.415
X248.16Y-106.135
X248.55Y-91.615
X248.8Y-78.055
X248.81Y-76.125
X249.15Y-46.415
X249.24Y-106.135
X249.63Y-91.615
X249.88Y-78.055
X249.89Y-76.125
X249.9Y-54.955
X250.12Y-46.415
X250.21Y-106.135
X250.6Y-91.615
X250.85Y-78.055
X250.86Y-76.125
X250.98Y-54.955
X251.22Y-46.425
X251.31Y-106.145
X251.7Y-91.625
X251.95Y-54.955
X251.95Y-78.065
X251.96Y-76.135
X252.51Y-32.685
X253.05Y-54.965
X253.91Y-67.945
T2
X249.84Y-39.865
X252.38Y-39.865
T3
X167.409Y-34.805
X168.08Y-36.405
X170.58Y-36.405
X171.251Y-38.005
X174.919Y-42.905
X174.979Y-58.025
X175.59Y-44.505
X175.65Y-59.625
X178.09Y-44.505
X178.15Y-59.625
X178.761Y-46.105
X178.821Y-61.225
X185.09Y-35.205
X218.575Y-41.22
X218.575Y-43.78
X218.6Y-38.705
X218.625Y-46.32
X218.625Y-48.88
X218.625Y-51.515
X218.625Y-61.63
X218.65Y-59.115
X218.65Y-69.155
X218.65Y-71.715
X218.675Y-54.055
X218.675Y-56.615
X218.675Y-66.73
X243.6Y-36.145
X243.6Y-38.705
X243.6Y-51.39
X243.6Y-61.505
X243.625Y-46.32
X243.625Y-48.88
X243.625Y-58.99
X243.65Y-53.93
X243.65Y-56.49
X243.65Y-69.155
X243.65Y-71.715
T4
X162.5Y-68.565
X162.52Y-89.095
X174.5Y-68.565
X174.52Y-89.095
X178.72Y-76.285
X178.72Y-96.765
X190.72Y-76.285
X190.72Y-96.765
X193.36Y-32.675
X193.36Y-53.475
X195.01Y-76.235
X195.12Y-96.785
X207.01Y-76.235
X207.12Y-96.785
T5
X162.5Y-80.765
X162.52Y-101.295
X168.55Y-66.615
X168.57Y-87.145
X174.55Y-80.815
X174.57Y-101.345
X178.72Y-88.485
X178.72Y-108.965
X184.77Y-74.335
X184.77Y-94.815
X190.77Y-88.535
X190.77Y-109.015
X195.01Y-88.435
X195.12Y-108.985
X201.06Y-74.285
X201.17Y-94.835
X207.06Y-88.485
X207.17Y-109.035
T6
X164.23Y-119.947
X167.03Y-46.785
X167.03Y-51.865
X169.31Y-119.947
X174.39Y-119.947
X179.47Y-119.947
X187.83Y-119.968
X192.91Y-119.968
X197.99Y-119.968
X208.285Y-120.147
X213.365Y-120.147
X221.47Y-120.045
X226.55Y-120.045
X231.63Y-120.045
X239.74Y-119.907
X244.82Y-119.907
X249.9Y-119.907
X251.35Y-83.795
X251.35Y-88.875
X251.35Y-93.955
X251.35Y-99.035
X254.98Y-119.907
M30
