%TF.GenerationSoftware,KiCad,Pcbnew,9.0.7*%
%TF.CreationDate,2026-08-07T14:28:47+05:30*%
%TF.ProjectId,Water-Manager-New,57617465-722d-44d6-916e-616765722d4e,rev?*%
%TF.SameCoordinates,Original*%
%TF.FileFunction,Legend,Top*%
%TF.FilePolarity,Positive*%
%FSLAX46Y46*%
G04 Gerber Fmt 4.6, Leading zero omitted, Abs format (unit mm)*
G04 Created by KiCad (PCBNEW 9.0.7) date 2026-08-07 14:28:47*
%MOMM*%
%LPD*%
G01*
G04 APERTURE LIST*
%ADD10C,0.200000*%
%ADD11C,0.375000*%
%ADD12C,0.500000*%
%ADD13C,0.240000*%
%ADD14C,0.300000*%
%ADD15C,0.250000*%
%ADD16C,0.150000*%
%ADD17C,0.875000*%
%ADD18C,1.000000*%
%ADD19C,0.120000*%
%ADD20C,0.100000*%
G04 APERTURE END LIST*
D10*
X199159673Y-63071266D02*
X199921578Y-63071266D01*
X199540625Y-63452219D02*
X199540625Y-62690314D01*
D11*
X246946928Y-85581147D02*
X245446928Y-85581147D01*
X245446928Y-85581147D02*
X245446928Y-85224004D01*
X245446928Y-85224004D02*
X245518357Y-85009718D01*
X245518357Y-85009718D02*
X245661214Y-84866861D01*
X245661214Y-84866861D02*
X245804071Y-84795432D01*
X245804071Y-84795432D02*
X246089785Y-84724004D01*
X246089785Y-84724004D02*
X246304071Y-84724004D01*
X246304071Y-84724004D02*
X246589785Y-84795432D01*
X246589785Y-84795432D02*
X246732642Y-84866861D01*
X246732642Y-84866861D02*
X246875500Y-85009718D01*
X246875500Y-85009718D02*
X246946928Y-85224004D01*
X246946928Y-85224004D02*
X246946928Y-85581147D01*
X245446928Y-84295432D02*
X245446928Y-83438290D01*
X246946928Y-83866861D02*
X245446928Y-83866861D01*
D12*
X187797994Y-68424238D02*
X187131327Y-67471857D01*
X186655137Y-68424238D02*
X186655137Y-66424238D01*
X186655137Y-66424238D02*
X187417042Y-66424238D01*
X187417042Y-66424238D02*
X187607518Y-66519476D01*
X187607518Y-66519476D02*
X187702756Y-66614714D01*
X187702756Y-66614714D02*
X187797994Y-66805190D01*
X187797994Y-66805190D02*
X187797994Y-67090904D01*
X187797994Y-67090904D02*
X187702756Y-67281380D01*
X187702756Y-67281380D02*
X187607518Y-67376619D01*
X187607518Y-67376619D02*
X187417042Y-67471857D01*
X187417042Y-67471857D02*
X186655137Y-67471857D01*
X188559899Y-66614714D02*
X188655137Y-66519476D01*
X188655137Y-66519476D02*
X188845613Y-66424238D01*
X188845613Y-66424238D02*
X189321804Y-66424238D01*
X189321804Y-66424238D02*
X189512280Y-66519476D01*
X189512280Y-66519476D02*
X189607518Y-66614714D01*
X189607518Y-66614714D02*
X189702756Y-66805190D01*
X189702756Y-66805190D02*
X189702756Y-66995666D01*
X189702756Y-66995666D02*
X189607518Y-67281380D01*
X189607518Y-67281380D02*
X188464661Y-68424238D01*
X188464661Y-68424238D02*
X189702756Y-68424238D01*
D11*
X230703852Y-116820738D02*
X230703852Y-114820738D01*
X230703852Y-114820738D02*
X231275281Y-114820738D01*
X231275281Y-114820738D02*
X231418138Y-114915976D01*
X231418138Y-114915976D02*
X231489567Y-115011214D01*
X231489567Y-115011214D02*
X231560995Y-115201690D01*
X231560995Y-115201690D02*
X231560995Y-115487404D01*
X231560995Y-115487404D02*
X231489567Y-115677880D01*
X231489567Y-115677880D02*
X231418138Y-115773119D01*
X231418138Y-115773119D02*
X231275281Y-115868357D01*
X231275281Y-115868357D02*
X230703852Y-115868357D01*
X232132424Y-115011214D02*
X232203852Y-114915976D01*
X232203852Y-114915976D02*
X232346710Y-114820738D01*
X232346710Y-114820738D02*
X232703852Y-114820738D01*
X232703852Y-114820738D02*
X232846710Y-114915976D01*
X232846710Y-114915976D02*
X232918138Y-115011214D01*
X232918138Y-115011214D02*
X232989567Y-115201690D01*
X232989567Y-115201690D02*
X232989567Y-115392166D01*
X232989567Y-115392166D02*
X232918138Y-115677880D01*
X232918138Y-115677880D02*
X232060995Y-116820738D01*
X232060995Y-116820738D02*
X232989567Y-116820738D01*
X248633852Y-116720738D02*
X248633852Y-114720738D01*
X249348138Y-116720738D02*
X249348138Y-114720738D01*
X249348138Y-114720738D02*
X250205281Y-116720738D01*
X250205281Y-116720738D02*
X250205281Y-114720738D01*
X251705282Y-116720738D02*
X250848139Y-116720738D01*
X251276710Y-116720738D02*
X251276710Y-114720738D01*
X251276710Y-114720738D02*
X251133853Y-115006452D01*
X251133853Y-115006452D02*
X250990996Y-115196928D01*
X250990996Y-115196928D02*
X250848139Y-115292166D01*
D10*
X194408720Y-31149600D02*
X195551578Y-31149600D01*
X194980149Y-31721028D02*
X194980149Y-30578171D01*
X196765863Y-30935314D02*
X196980149Y-31006742D01*
X196980149Y-31006742D02*
X197051578Y-31078171D01*
X197051578Y-31078171D02*
X197123006Y-31221028D01*
X197123006Y-31221028D02*
X197123006Y-31435314D01*
X197123006Y-31435314D02*
X197051578Y-31578171D01*
X197051578Y-31578171D02*
X196980149Y-31649600D01*
X196980149Y-31649600D02*
X196837292Y-31721028D01*
X196837292Y-31721028D02*
X196265863Y-31721028D01*
X196265863Y-31721028D02*
X196265863Y-30221028D01*
X196265863Y-30221028D02*
X196765863Y-30221028D01*
X196765863Y-30221028D02*
X196908721Y-30292457D01*
X196908721Y-30292457D02*
X196980149Y-30363885D01*
X196980149Y-30363885D02*
X197051578Y-30506742D01*
X197051578Y-30506742D02*
X197051578Y-30649600D01*
X197051578Y-30649600D02*
X196980149Y-30792457D01*
X196980149Y-30792457D02*
X196908721Y-30863885D01*
X196908721Y-30863885D02*
X196765863Y-30935314D01*
X196765863Y-30935314D02*
X196265863Y-30935314D01*
X197694435Y-31292457D02*
X198408721Y-31292457D01*
X197551578Y-31721028D02*
X198051578Y-30221028D01*
X198051578Y-30221028D02*
X198551578Y-31721028D01*
X198837292Y-30221028D02*
X199694435Y-30221028D01*
X199265863Y-31721028D02*
X199265863Y-30221028D01*
D11*
X222773852Y-91440738D02*
X222773852Y-89440738D01*
X222773852Y-89440738D02*
X223345281Y-89440738D01*
X223345281Y-89440738D02*
X223488138Y-89535976D01*
X223488138Y-89535976D02*
X223559567Y-89631214D01*
X223559567Y-89631214D02*
X223630995Y-89821690D01*
X223630995Y-89821690D02*
X223630995Y-90107404D01*
X223630995Y-90107404D02*
X223559567Y-90297880D01*
X223559567Y-90297880D02*
X223488138Y-90393119D01*
X223488138Y-90393119D02*
X223345281Y-90488357D01*
X223345281Y-90488357D02*
X222773852Y-90488357D01*
X224202424Y-89631214D02*
X224273852Y-89535976D01*
X224273852Y-89535976D02*
X224416710Y-89440738D01*
X224416710Y-89440738D02*
X224773852Y-89440738D01*
X224773852Y-89440738D02*
X224916710Y-89535976D01*
X224916710Y-89535976D02*
X224988138Y-89631214D01*
X224988138Y-89631214D02*
X225059567Y-89821690D01*
X225059567Y-89821690D02*
X225059567Y-90012166D01*
X225059567Y-90012166D02*
X224988138Y-90297880D01*
X224988138Y-90297880D02*
X224130995Y-91440738D01*
X224130995Y-91440738D02*
X225059567Y-91440738D01*
D10*
X204579673Y-63081266D02*
X205341578Y-63081266D01*
X204960625Y-63462219D02*
X204960625Y-62700314D01*
X183469673Y-63011266D02*
X184231578Y-63011266D01*
X183850625Y-63392219D02*
X183850625Y-62630314D01*
D11*
X233293852Y-91310738D02*
X233293852Y-89310738D01*
X234008138Y-91310738D02*
X234008138Y-89310738D01*
X234008138Y-89310738D02*
X234865281Y-91310738D01*
X234865281Y-91310738D02*
X234865281Y-89310738D01*
X236365282Y-91310738D02*
X235508139Y-91310738D01*
X235936710Y-91310738D02*
X235936710Y-89310738D01*
X235936710Y-89310738D02*
X235793853Y-89596452D01*
X235793853Y-89596452D02*
X235650996Y-89786928D01*
X235650996Y-89786928D02*
X235508139Y-89882166D01*
X171443852Y-52140500D02*
X172586710Y-52140500D01*
X172015281Y-52711928D02*
X172015281Y-51569071D01*
X173515281Y-51854785D02*
X173372424Y-51783357D01*
X173372424Y-51783357D02*
X173300995Y-51711928D01*
X173300995Y-51711928D02*
X173229567Y-51569071D01*
X173229567Y-51569071D02*
X173229567Y-51497642D01*
X173229567Y-51497642D02*
X173300995Y-51354785D01*
X173300995Y-51354785D02*
X173372424Y-51283357D01*
X173372424Y-51283357D02*
X173515281Y-51211928D01*
X173515281Y-51211928D02*
X173800995Y-51211928D01*
X173800995Y-51211928D02*
X173943853Y-51283357D01*
X173943853Y-51283357D02*
X174015281Y-51354785D01*
X174015281Y-51354785D02*
X174086710Y-51497642D01*
X174086710Y-51497642D02*
X174086710Y-51569071D01*
X174086710Y-51569071D02*
X174015281Y-51711928D01*
X174015281Y-51711928D02*
X173943853Y-51783357D01*
X173943853Y-51783357D02*
X173800995Y-51854785D01*
X173800995Y-51854785D02*
X173515281Y-51854785D01*
X173515281Y-51854785D02*
X173372424Y-51926214D01*
X173372424Y-51926214D02*
X173300995Y-51997642D01*
X173300995Y-51997642D02*
X173229567Y-52140500D01*
X173229567Y-52140500D02*
X173229567Y-52426214D01*
X173229567Y-52426214D02*
X173300995Y-52569071D01*
X173300995Y-52569071D02*
X173372424Y-52640500D01*
X173372424Y-52640500D02*
X173515281Y-52711928D01*
X173515281Y-52711928D02*
X173800995Y-52711928D01*
X173800995Y-52711928D02*
X173943853Y-52640500D01*
X173943853Y-52640500D02*
X174015281Y-52569071D01*
X174015281Y-52569071D02*
X174086710Y-52426214D01*
X174086710Y-52426214D02*
X174086710Y-52140500D01*
X174086710Y-52140500D02*
X174015281Y-51997642D01*
X174015281Y-51997642D02*
X173943853Y-51926214D01*
X173943853Y-51926214D02*
X173800995Y-51854785D01*
X174515281Y-51211928D02*
X175015281Y-52711928D01*
X175015281Y-52711928D02*
X175515281Y-51211928D01*
D12*
X182817994Y-68484238D02*
X182151327Y-67531857D01*
X181675137Y-68484238D02*
X181675137Y-66484238D01*
X181675137Y-66484238D02*
X182437042Y-66484238D01*
X182437042Y-66484238D02*
X182627518Y-66579476D01*
X182627518Y-66579476D02*
X182722756Y-66674714D01*
X182722756Y-66674714D02*
X182817994Y-66865190D01*
X182817994Y-66865190D02*
X182817994Y-67150904D01*
X182817994Y-67150904D02*
X182722756Y-67341380D01*
X182722756Y-67341380D02*
X182627518Y-67436619D01*
X182627518Y-67436619D02*
X182437042Y-67531857D01*
X182437042Y-67531857D02*
X181675137Y-67531857D01*
X184722756Y-68484238D02*
X183579899Y-68484238D01*
X184151327Y-68484238D02*
X184151327Y-66484238D01*
X184151327Y-66484238D02*
X183960851Y-66769952D01*
X183960851Y-66769952D02*
X183770375Y-66960428D01*
X183770375Y-66960428D02*
X183579899Y-67055666D01*
D11*
X220300995Y-116580261D02*
X220229567Y-116675500D01*
X220229567Y-116675500D02*
X220015281Y-116770738D01*
X220015281Y-116770738D02*
X219872424Y-116770738D01*
X219872424Y-116770738D02*
X219658138Y-116675500D01*
X219658138Y-116675500D02*
X219515281Y-116485023D01*
X219515281Y-116485023D02*
X219443852Y-116294547D01*
X219443852Y-116294547D02*
X219372424Y-115913595D01*
X219372424Y-115913595D02*
X219372424Y-115627880D01*
X219372424Y-115627880D02*
X219443852Y-115246928D01*
X219443852Y-115246928D02*
X219515281Y-115056452D01*
X219515281Y-115056452D02*
X219658138Y-114865976D01*
X219658138Y-114865976D02*
X219872424Y-114770738D01*
X219872424Y-114770738D02*
X220015281Y-114770738D01*
X220015281Y-114770738D02*
X220229567Y-114865976D01*
X220229567Y-114865976D02*
X220300995Y-114961214D01*
X221229567Y-114770738D02*
X221515281Y-114770738D01*
X221515281Y-114770738D02*
X221658138Y-114865976D01*
X221658138Y-114865976D02*
X221800995Y-115056452D01*
X221800995Y-115056452D02*
X221872424Y-115437404D01*
X221872424Y-115437404D02*
X221872424Y-116104071D01*
X221872424Y-116104071D02*
X221800995Y-116485023D01*
X221800995Y-116485023D02*
X221658138Y-116675500D01*
X221658138Y-116675500D02*
X221515281Y-116770738D01*
X221515281Y-116770738D02*
X221229567Y-116770738D01*
X221229567Y-116770738D02*
X221086710Y-116675500D01*
X221086710Y-116675500D02*
X220943852Y-116485023D01*
X220943852Y-116485023D02*
X220872424Y-116104071D01*
X220872424Y-116104071D02*
X220872424Y-115437404D01*
X220872424Y-115437404D02*
X220943852Y-115056452D01*
X220943852Y-115056452D02*
X221086710Y-114865976D01*
X221086710Y-114865976D02*
X221229567Y-114770738D01*
X222515281Y-116770738D02*
X222515281Y-114770738D01*
X222515281Y-114770738D02*
X223015281Y-116199309D01*
X223015281Y-116199309D02*
X223515281Y-114770738D01*
X223515281Y-114770738D02*
X223515281Y-116770738D01*
D10*
X188329673Y-62991266D02*
X189091578Y-62991266D01*
X188710625Y-63372219D02*
X188710625Y-62610314D01*
X214289673Y-92931266D02*
X215051578Y-92931266D01*
X214670625Y-93312219D02*
X214670625Y-92550314D01*
X241669673Y-92761266D02*
X242431578Y-92761266D01*
X242050625Y-93142219D02*
X242050625Y-92380314D01*
D11*
X245458357Y-99145432D02*
X245386928Y-99288290D01*
X245386928Y-99288290D02*
X245386928Y-99502575D01*
X245386928Y-99502575D02*
X245458357Y-99716861D01*
X245458357Y-99716861D02*
X245601214Y-99859718D01*
X245601214Y-99859718D02*
X245744071Y-99931147D01*
X245744071Y-99931147D02*
X246029785Y-100002575D01*
X246029785Y-100002575D02*
X246244071Y-100002575D01*
X246244071Y-100002575D02*
X246529785Y-99931147D01*
X246529785Y-99931147D02*
X246672642Y-99859718D01*
X246672642Y-99859718D02*
X246815500Y-99716861D01*
X246815500Y-99716861D02*
X246886928Y-99502575D01*
X246886928Y-99502575D02*
X246886928Y-99359718D01*
X246886928Y-99359718D02*
X246815500Y-99145432D01*
X246815500Y-99145432D02*
X246744071Y-99074004D01*
X246744071Y-99074004D02*
X246244071Y-99074004D01*
X246244071Y-99074004D02*
X246244071Y-99359718D01*
X172279567Y-47823357D02*
X172136710Y-47751928D01*
X172136710Y-47751928D02*
X171922424Y-47751928D01*
X171922424Y-47751928D02*
X171708138Y-47823357D01*
X171708138Y-47823357D02*
X171565281Y-47966214D01*
X171565281Y-47966214D02*
X171493852Y-48109071D01*
X171493852Y-48109071D02*
X171422424Y-48394785D01*
X171422424Y-48394785D02*
X171422424Y-48609071D01*
X171422424Y-48609071D02*
X171493852Y-48894785D01*
X171493852Y-48894785D02*
X171565281Y-49037642D01*
X171565281Y-49037642D02*
X171708138Y-49180500D01*
X171708138Y-49180500D02*
X171922424Y-49251928D01*
X171922424Y-49251928D02*
X172065281Y-49251928D01*
X172065281Y-49251928D02*
X172279567Y-49180500D01*
X172279567Y-49180500D02*
X172350995Y-49109071D01*
X172350995Y-49109071D02*
X172350995Y-48609071D01*
X172350995Y-48609071D02*
X172065281Y-48609071D01*
X172993852Y-49251928D02*
X172993852Y-47751928D01*
X172993852Y-47751928D02*
X173850995Y-49251928D01*
X173850995Y-49251928D02*
X173850995Y-47751928D01*
X174565281Y-49251928D02*
X174565281Y-47751928D01*
X174565281Y-47751928D02*
X174922424Y-47751928D01*
X174922424Y-47751928D02*
X175136710Y-47823357D01*
X175136710Y-47823357D02*
X175279567Y-47966214D01*
X175279567Y-47966214D02*
X175350996Y-48109071D01*
X175350996Y-48109071D02*
X175422424Y-48394785D01*
X175422424Y-48394785D02*
X175422424Y-48609071D01*
X175422424Y-48609071D02*
X175350996Y-48894785D01*
X175350996Y-48894785D02*
X175279567Y-49037642D01*
X175279567Y-49037642D02*
X175136710Y-49180500D01*
X175136710Y-49180500D02*
X174922424Y-49251928D01*
X174922424Y-49251928D02*
X174565281Y-49251928D01*
X238280995Y-116470261D02*
X238209567Y-116565500D01*
X238209567Y-116565500D02*
X237995281Y-116660738D01*
X237995281Y-116660738D02*
X237852424Y-116660738D01*
X237852424Y-116660738D02*
X237638138Y-116565500D01*
X237638138Y-116565500D02*
X237495281Y-116375023D01*
X237495281Y-116375023D02*
X237423852Y-116184547D01*
X237423852Y-116184547D02*
X237352424Y-115803595D01*
X237352424Y-115803595D02*
X237352424Y-115517880D01*
X237352424Y-115517880D02*
X237423852Y-115136928D01*
X237423852Y-115136928D02*
X237495281Y-114946452D01*
X237495281Y-114946452D02*
X237638138Y-114755976D01*
X237638138Y-114755976D02*
X237852424Y-114660738D01*
X237852424Y-114660738D02*
X237995281Y-114660738D01*
X237995281Y-114660738D02*
X238209567Y-114755976D01*
X238209567Y-114755976D02*
X238280995Y-114851214D01*
X239209567Y-114660738D02*
X239495281Y-114660738D01*
X239495281Y-114660738D02*
X239638138Y-114755976D01*
X239638138Y-114755976D02*
X239780995Y-114946452D01*
X239780995Y-114946452D02*
X239852424Y-115327404D01*
X239852424Y-115327404D02*
X239852424Y-115994071D01*
X239852424Y-115994071D02*
X239780995Y-116375023D01*
X239780995Y-116375023D02*
X239638138Y-116565500D01*
X239638138Y-116565500D02*
X239495281Y-116660738D01*
X239495281Y-116660738D02*
X239209567Y-116660738D01*
X239209567Y-116660738D02*
X239066710Y-116565500D01*
X239066710Y-116565500D02*
X238923852Y-116375023D01*
X238923852Y-116375023D02*
X238852424Y-115994071D01*
X238852424Y-115994071D02*
X238852424Y-115327404D01*
X238852424Y-115327404D02*
X238923852Y-114946452D01*
X238923852Y-114946452D02*
X239066710Y-114755976D01*
X239066710Y-114755976D02*
X239209567Y-114660738D01*
X240495281Y-116660738D02*
X240495281Y-114660738D01*
X240495281Y-114660738D02*
X240995281Y-116089309D01*
X240995281Y-116089309D02*
X241495281Y-114660738D01*
X241495281Y-114660738D02*
X241495281Y-116660738D01*
D10*
X230469673Y-92761266D02*
X231231578Y-92761266D01*
X230850625Y-93142219D02*
X230850625Y-92380314D01*
D11*
X246626928Y-94516861D02*
X246626928Y-95231147D01*
X246626928Y-95231147D02*
X245126928Y-95231147D01*
X246198357Y-94088289D02*
X246198357Y-93374004D01*
X246626928Y-94231146D02*
X245126928Y-93731146D01*
X245126928Y-93731146D02*
X246626928Y-93231146D01*
D12*
X209897994Y-68504238D02*
X209231327Y-67551857D01*
X208755137Y-68504238D02*
X208755137Y-66504238D01*
X208755137Y-66504238D02*
X209517042Y-66504238D01*
X209517042Y-66504238D02*
X209707518Y-66599476D01*
X209707518Y-66599476D02*
X209802756Y-66694714D01*
X209802756Y-66694714D02*
X209897994Y-66885190D01*
X209897994Y-66885190D02*
X209897994Y-67170904D01*
X209897994Y-67170904D02*
X209802756Y-67361380D01*
X209802756Y-67361380D02*
X209707518Y-67456619D01*
X209707518Y-67456619D02*
X209517042Y-67551857D01*
X209517042Y-67551857D02*
X208755137Y-67551857D01*
X211612280Y-66504238D02*
X211231327Y-66504238D01*
X211231327Y-66504238D02*
X211040851Y-66599476D01*
X211040851Y-66599476D02*
X210945613Y-66694714D01*
X210945613Y-66694714D02*
X210755137Y-66980428D01*
X210755137Y-66980428D02*
X210659899Y-67361380D01*
X210659899Y-67361380D02*
X210659899Y-68123285D01*
X210659899Y-68123285D02*
X210755137Y-68313761D01*
X210755137Y-68313761D02*
X210850375Y-68409000D01*
X210850375Y-68409000D02*
X211040851Y-68504238D01*
X211040851Y-68504238D02*
X211421804Y-68504238D01*
X211421804Y-68504238D02*
X211612280Y-68409000D01*
X211612280Y-68409000D02*
X211707518Y-68313761D01*
X211707518Y-68313761D02*
X211802756Y-68123285D01*
X211802756Y-68123285D02*
X211802756Y-67647095D01*
X211802756Y-67647095D02*
X211707518Y-67456619D01*
X211707518Y-67456619D02*
X211612280Y-67361380D01*
X211612280Y-67361380D02*
X211421804Y-67266142D01*
X211421804Y-67266142D02*
X211040851Y-67266142D01*
X211040851Y-67266142D02*
X210850375Y-67361380D01*
X210850375Y-67361380D02*
X210755137Y-67456619D01*
X210755137Y-67456619D02*
X210659899Y-67647095D01*
D10*
X210309673Y-63121266D02*
X211071578Y-63121266D01*
X210690625Y-63502219D02*
X210690625Y-62740314D01*
D12*
X192857994Y-68504238D02*
X192191327Y-67551857D01*
X191715137Y-68504238D02*
X191715137Y-66504238D01*
X191715137Y-66504238D02*
X192477042Y-66504238D01*
X192477042Y-66504238D02*
X192667518Y-66599476D01*
X192667518Y-66599476D02*
X192762756Y-66694714D01*
X192762756Y-66694714D02*
X192857994Y-66885190D01*
X192857994Y-66885190D02*
X192857994Y-67170904D01*
X192857994Y-67170904D02*
X192762756Y-67361380D01*
X192762756Y-67361380D02*
X192667518Y-67456619D01*
X192667518Y-67456619D02*
X192477042Y-67551857D01*
X192477042Y-67551857D02*
X191715137Y-67551857D01*
X193524661Y-66504238D02*
X194762756Y-66504238D01*
X194762756Y-66504238D02*
X194096089Y-67266142D01*
X194096089Y-67266142D02*
X194381804Y-67266142D01*
X194381804Y-67266142D02*
X194572280Y-67361380D01*
X194572280Y-67361380D02*
X194667518Y-67456619D01*
X194667518Y-67456619D02*
X194762756Y-67647095D01*
X194762756Y-67647095D02*
X194762756Y-68123285D01*
X194762756Y-68123285D02*
X194667518Y-68313761D01*
X194667518Y-68313761D02*
X194572280Y-68409000D01*
X194572280Y-68409000D02*
X194381804Y-68504238D01*
X194381804Y-68504238D02*
X193810375Y-68504238D01*
X193810375Y-68504238D02*
X193619899Y-68409000D01*
X193619899Y-68409000D02*
X193524661Y-68313761D01*
D10*
X254289197Y-70636695D02*
X254022530Y-70255742D01*
X253832054Y-70636695D02*
X253832054Y-69836695D01*
X253832054Y-69836695D02*
X254136816Y-69836695D01*
X254136816Y-69836695D02*
X254213006Y-69874790D01*
X254213006Y-69874790D02*
X254251101Y-69912885D01*
X254251101Y-69912885D02*
X254289197Y-69989076D01*
X254289197Y-69989076D02*
X254289197Y-70103361D01*
X254289197Y-70103361D02*
X254251101Y-70179552D01*
X254251101Y-70179552D02*
X254213006Y-70217647D01*
X254213006Y-70217647D02*
X254136816Y-70255742D01*
X254136816Y-70255742D02*
X253832054Y-70255742D01*
D13*
X51146428Y-71754980D02*
X50003571Y-71754980D01*
X50574999Y-71183551D02*
X50574999Y-72326408D01*
D14*
X245881653Y-59495828D02*
X246238796Y-60995828D01*
X246238796Y-60995828D02*
X246524510Y-59924400D01*
X246524510Y-59924400D02*
X246810225Y-60995828D01*
X246810225Y-60995828D02*
X247167368Y-59495828D01*
X247738796Y-60995828D02*
X247738796Y-59495828D01*
X248953082Y-60210114D02*
X248453082Y-60210114D01*
X248453082Y-60995828D02*
X248453082Y-59495828D01*
X248453082Y-59495828D02*
X249167368Y-59495828D01*
X249738796Y-60995828D02*
X249738796Y-59495828D01*
D15*
X225227330Y-62159675D02*
X225465425Y-63159675D01*
X225465425Y-63159675D02*
X225655901Y-62445389D01*
X225655901Y-62445389D02*
X225846377Y-63159675D01*
X225846377Y-63159675D02*
X226084473Y-62159675D01*
X226893996Y-63159675D02*
X226893996Y-62635865D01*
X226893996Y-62635865D02*
X226846377Y-62540627D01*
X226846377Y-62540627D02*
X226751139Y-62493008D01*
X226751139Y-62493008D02*
X226560663Y-62493008D01*
X226560663Y-62493008D02*
X226465425Y-62540627D01*
X226893996Y-63112056D02*
X226798758Y-63159675D01*
X226798758Y-63159675D02*
X226560663Y-63159675D01*
X226560663Y-63159675D02*
X226465425Y-63112056D01*
X226465425Y-63112056D02*
X226417806Y-63016817D01*
X226417806Y-63016817D02*
X226417806Y-62921579D01*
X226417806Y-62921579D02*
X226465425Y-62826341D01*
X226465425Y-62826341D02*
X226560663Y-62778722D01*
X226560663Y-62778722D02*
X226798758Y-62778722D01*
X226798758Y-62778722D02*
X226893996Y-62731103D01*
X227227330Y-62493008D02*
X227608282Y-62493008D01*
X227370187Y-62159675D02*
X227370187Y-63016817D01*
X227370187Y-63016817D02*
X227417806Y-63112056D01*
X227417806Y-63112056D02*
X227513044Y-63159675D01*
X227513044Y-63159675D02*
X227608282Y-63159675D01*
X228322568Y-63112056D02*
X228227330Y-63159675D01*
X228227330Y-63159675D02*
X228036854Y-63159675D01*
X228036854Y-63159675D02*
X227941616Y-63112056D01*
X227941616Y-63112056D02*
X227893997Y-63016817D01*
X227893997Y-63016817D02*
X227893997Y-62635865D01*
X227893997Y-62635865D02*
X227941616Y-62540627D01*
X227941616Y-62540627D02*
X228036854Y-62493008D01*
X228036854Y-62493008D02*
X228227330Y-62493008D01*
X228227330Y-62493008D02*
X228322568Y-62540627D01*
X228322568Y-62540627D02*
X228370187Y-62635865D01*
X228370187Y-62635865D02*
X228370187Y-62731103D01*
X228370187Y-62731103D02*
X227893997Y-62826341D01*
X228798759Y-63159675D02*
X228798759Y-62493008D01*
X228798759Y-62683484D02*
X228846378Y-62588246D01*
X228846378Y-62588246D02*
X228893997Y-62540627D01*
X228893997Y-62540627D02*
X228989235Y-62493008D01*
X228989235Y-62493008D02*
X229084473Y-62493008D01*
X230179712Y-63159675D02*
X230179712Y-62159675D01*
X230179712Y-62159675D02*
X230513045Y-62873960D01*
X230513045Y-62873960D02*
X230846378Y-62159675D01*
X230846378Y-62159675D02*
X230846378Y-63159675D01*
X231751140Y-63159675D02*
X231751140Y-62635865D01*
X231751140Y-62635865D02*
X231703521Y-62540627D01*
X231703521Y-62540627D02*
X231608283Y-62493008D01*
X231608283Y-62493008D02*
X231417807Y-62493008D01*
X231417807Y-62493008D02*
X231322569Y-62540627D01*
X231751140Y-63112056D02*
X231655902Y-63159675D01*
X231655902Y-63159675D02*
X231417807Y-63159675D01*
X231417807Y-63159675D02*
X231322569Y-63112056D01*
X231322569Y-63112056D02*
X231274950Y-63016817D01*
X231274950Y-63016817D02*
X231274950Y-62921579D01*
X231274950Y-62921579D02*
X231322569Y-62826341D01*
X231322569Y-62826341D02*
X231417807Y-62778722D01*
X231417807Y-62778722D02*
X231655902Y-62778722D01*
X231655902Y-62778722D02*
X231751140Y-62731103D01*
X232227331Y-62493008D02*
X232227331Y-63159675D01*
X232227331Y-62588246D02*
X232274950Y-62540627D01*
X232274950Y-62540627D02*
X232370188Y-62493008D01*
X232370188Y-62493008D02*
X232513045Y-62493008D01*
X232513045Y-62493008D02*
X232608283Y-62540627D01*
X232608283Y-62540627D02*
X232655902Y-62635865D01*
X232655902Y-62635865D02*
X232655902Y-63159675D01*
X233560664Y-63159675D02*
X233560664Y-62635865D01*
X233560664Y-62635865D02*
X233513045Y-62540627D01*
X233513045Y-62540627D02*
X233417807Y-62493008D01*
X233417807Y-62493008D02*
X233227331Y-62493008D01*
X233227331Y-62493008D02*
X233132093Y-62540627D01*
X233560664Y-63112056D02*
X233465426Y-63159675D01*
X233465426Y-63159675D02*
X233227331Y-63159675D01*
X233227331Y-63159675D02*
X233132093Y-63112056D01*
X233132093Y-63112056D02*
X233084474Y-63016817D01*
X233084474Y-63016817D02*
X233084474Y-62921579D01*
X233084474Y-62921579D02*
X233132093Y-62826341D01*
X233132093Y-62826341D02*
X233227331Y-62778722D01*
X233227331Y-62778722D02*
X233465426Y-62778722D01*
X233465426Y-62778722D02*
X233560664Y-62731103D01*
X234465426Y-62493008D02*
X234465426Y-63302532D01*
X234465426Y-63302532D02*
X234417807Y-63397770D01*
X234417807Y-63397770D02*
X234370188Y-63445389D01*
X234370188Y-63445389D02*
X234274950Y-63493008D01*
X234274950Y-63493008D02*
X234132093Y-63493008D01*
X234132093Y-63493008D02*
X234036855Y-63445389D01*
X234465426Y-63112056D02*
X234370188Y-63159675D01*
X234370188Y-63159675D02*
X234179712Y-63159675D01*
X234179712Y-63159675D02*
X234084474Y-63112056D01*
X234084474Y-63112056D02*
X234036855Y-63064436D01*
X234036855Y-63064436D02*
X233989236Y-62969198D01*
X233989236Y-62969198D02*
X233989236Y-62683484D01*
X233989236Y-62683484D02*
X234036855Y-62588246D01*
X234036855Y-62588246D02*
X234084474Y-62540627D01*
X234084474Y-62540627D02*
X234179712Y-62493008D01*
X234179712Y-62493008D02*
X234370188Y-62493008D01*
X234370188Y-62493008D02*
X234465426Y-62540627D01*
X235322569Y-63112056D02*
X235227331Y-63159675D01*
X235227331Y-63159675D02*
X235036855Y-63159675D01*
X235036855Y-63159675D02*
X234941617Y-63112056D01*
X234941617Y-63112056D02*
X234893998Y-63016817D01*
X234893998Y-63016817D02*
X234893998Y-62635865D01*
X234893998Y-62635865D02*
X234941617Y-62540627D01*
X234941617Y-62540627D02*
X235036855Y-62493008D01*
X235036855Y-62493008D02*
X235227331Y-62493008D01*
X235227331Y-62493008D02*
X235322569Y-62540627D01*
X235322569Y-62540627D02*
X235370188Y-62635865D01*
X235370188Y-62635865D02*
X235370188Y-62731103D01*
X235370188Y-62731103D02*
X234893998Y-62826341D01*
X235798760Y-63159675D02*
X235798760Y-62493008D01*
X235798760Y-62683484D02*
X235846379Y-62588246D01*
X235846379Y-62588246D02*
X235893998Y-62540627D01*
X235893998Y-62540627D02*
X235989236Y-62493008D01*
X235989236Y-62493008D02*
X236084474Y-62493008D01*
X228274950Y-63769619D02*
X228513045Y-64769619D01*
X228513045Y-64769619D02*
X228703521Y-64055333D01*
X228703521Y-64055333D02*
X228893997Y-64769619D01*
X228893997Y-64769619D02*
X229132093Y-63769619D01*
X229513045Y-64769619D02*
X229513045Y-63769619D01*
X229513045Y-63769619D02*
X229846378Y-64483904D01*
X229846378Y-64483904D02*
X230179711Y-63769619D01*
X230179711Y-63769619D02*
X230179711Y-64769619D01*
X231179711Y-64769619D02*
X230608283Y-64769619D01*
X230893997Y-64769619D02*
X230893997Y-63769619D01*
X230893997Y-63769619D02*
X230798759Y-63912476D01*
X230798759Y-63912476D02*
X230703521Y-64007714D01*
X230703521Y-64007714D02*
X230608283Y-64055333D01*
D10*
X235449673Y-92821266D02*
X236211578Y-92821266D01*
X235830625Y-93202219D02*
X235830625Y-92440314D01*
D11*
X192690995Y-116750738D02*
X192190995Y-115798357D01*
X191833852Y-116750738D02*
X191833852Y-114750738D01*
X191833852Y-114750738D02*
X192405281Y-114750738D01*
X192405281Y-114750738D02*
X192548138Y-114845976D01*
X192548138Y-114845976D02*
X192619567Y-114941214D01*
X192619567Y-114941214D02*
X192690995Y-115131690D01*
X192690995Y-115131690D02*
X192690995Y-115417404D01*
X192690995Y-115417404D02*
X192619567Y-115607880D01*
X192619567Y-115607880D02*
X192548138Y-115703119D01*
X192548138Y-115703119D02*
X192405281Y-115798357D01*
X192405281Y-115798357D02*
X191833852Y-115798357D01*
X194048138Y-114750738D02*
X193333852Y-114750738D01*
X193333852Y-114750738D02*
X193262424Y-115703119D01*
X193262424Y-115703119D02*
X193333852Y-115607880D01*
X193333852Y-115607880D02*
X193476710Y-115512642D01*
X193476710Y-115512642D02*
X193833852Y-115512642D01*
X193833852Y-115512642D02*
X193976710Y-115607880D01*
X193976710Y-115607880D02*
X194048138Y-115703119D01*
X194048138Y-115703119D02*
X194119567Y-115893595D01*
X194119567Y-115893595D02*
X194119567Y-116369785D01*
X194119567Y-116369785D02*
X194048138Y-116560261D01*
X194048138Y-116560261D02*
X193976710Y-116655500D01*
X193976710Y-116655500D02*
X193833852Y-116750738D01*
X193833852Y-116750738D02*
X193476710Y-116750738D01*
X193476710Y-116750738D02*
X193333852Y-116655500D01*
X193333852Y-116655500D02*
X193262424Y-116560261D01*
D12*
X198767994Y-68444238D02*
X198101327Y-67491857D01*
X197625137Y-68444238D02*
X197625137Y-66444238D01*
X197625137Y-66444238D02*
X198387042Y-66444238D01*
X198387042Y-66444238D02*
X198577518Y-66539476D01*
X198577518Y-66539476D02*
X198672756Y-66634714D01*
X198672756Y-66634714D02*
X198767994Y-66825190D01*
X198767994Y-66825190D02*
X198767994Y-67110904D01*
X198767994Y-67110904D02*
X198672756Y-67301380D01*
X198672756Y-67301380D02*
X198577518Y-67396619D01*
X198577518Y-67396619D02*
X198387042Y-67491857D01*
X198387042Y-67491857D02*
X197625137Y-67491857D01*
X200482280Y-67110904D02*
X200482280Y-68444238D01*
X200006089Y-66349000D02*
X199529899Y-67777571D01*
X199529899Y-67777571D02*
X200767994Y-67777571D01*
X178837994Y-33904238D02*
X178171327Y-32951857D01*
X177695137Y-33904238D02*
X177695137Y-31904238D01*
X177695137Y-31904238D02*
X178457042Y-31904238D01*
X178457042Y-31904238D02*
X178647518Y-31999476D01*
X178647518Y-31999476D02*
X178742756Y-32094714D01*
X178742756Y-32094714D02*
X178837994Y-32285190D01*
X178837994Y-32285190D02*
X178837994Y-32570904D01*
X178837994Y-32570904D02*
X178742756Y-32761380D01*
X178742756Y-32761380D02*
X178647518Y-32856619D01*
X178647518Y-32856619D02*
X178457042Y-32951857D01*
X178457042Y-32951857D02*
X177695137Y-32951857D01*
X179409423Y-31904238D02*
X180552280Y-31904238D01*
X179980851Y-33904238D02*
X179980851Y-31904238D01*
X181218947Y-31904238D02*
X181218947Y-33523285D01*
X181218947Y-33523285D02*
X181314185Y-33713761D01*
X181314185Y-33713761D02*
X181409423Y-33809000D01*
X181409423Y-33809000D02*
X181599899Y-33904238D01*
X181599899Y-33904238D02*
X181980852Y-33904238D01*
X181980852Y-33904238D02*
X182171328Y-33809000D01*
X182171328Y-33809000D02*
X182266566Y-33713761D01*
X182266566Y-33713761D02*
X182361804Y-33523285D01*
X182361804Y-33523285D02*
X182361804Y-31904238D01*
D11*
X225923852Y-116850738D02*
X225923852Y-114850738D01*
X225923852Y-114850738D02*
X226495281Y-114850738D01*
X226495281Y-114850738D02*
X226638138Y-114945976D01*
X226638138Y-114945976D02*
X226709567Y-115041214D01*
X226709567Y-115041214D02*
X226780995Y-115231690D01*
X226780995Y-115231690D02*
X226780995Y-115517404D01*
X226780995Y-115517404D02*
X226709567Y-115707880D01*
X226709567Y-115707880D02*
X226638138Y-115803119D01*
X226638138Y-115803119D02*
X226495281Y-115898357D01*
X226495281Y-115898357D02*
X225923852Y-115898357D01*
X228209567Y-116850738D02*
X227352424Y-116850738D01*
X227780995Y-116850738D02*
X227780995Y-114850738D01*
X227780995Y-114850738D02*
X227638138Y-115136452D01*
X227638138Y-115136452D02*
X227495281Y-115326928D01*
X227495281Y-115326928D02*
X227352424Y-115422166D01*
X246744071Y-88884004D02*
X246815500Y-88955432D01*
X246815500Y-88955432D02*
X246886928Y-89169718D01*
X246886928Y-89169718D02*
X246886928Y-89312575D01*
X246886928Y-89312575D02*
X246815500Y-89526861D01*
X246815500Y-89526861D02*
X246672642Y-89669718D01*
X246672642Y-89669718D02*
X246529785Y-89741147D01*
X246529785Y-89741147D02*
X246244071Y-89812575D01*
X246244071Y-89812575D02*
X246029785Y-89812575D01*
X246029785Y-89812575D02*
X245744071Y-89741147D01*
X245744071Y-89741147D02*
X245601214Y-89669718D01*
X245601214Y-89669718D02*
X245458357Y-89526861D01*
X245458357Y-89526861D02*
X245386928Y-89312575D01*
X245386928Y-89312575D02*
X245386928Y-89169718D01*
X245386928Y-89169718D02*
X245458357Y-88955432D01*
X245458357Y-88955432D02*
X245529785Y-88884004D01*
X246886928Y-87526861D02*
X246886928Y-88241147D01*
X246886928Y-88241147D02*
X245386928Y-88241147D01*
D10*
X251379673Y-67431266D02*
X252141578Y-67431266D01*
X251760625Y-67812219D02*
X251760625Y-67050314D01*
D11*
X162860995Y-116580261D02*
X162789567Y-116675500D01*
X162789567Y-116675500D02*
X162575281Y-116770738D01*
X162575281Y-116770738D02*
X162432424Y-116770738D01*
X162432424Y-116770738D02*
X162218138Y-116675500D01*
X162218138Y-116675500D02*
X162075281Y-116485023D01*
X162075281Y-116485023D02*
X162003852Y-116294547D01*
X162003852Y-116294547D02*
X161932424Y-115913595D01*
X161932424Y-115913595D02*
X161932424Y-115627880D01*
X161932424Y-115627880D02*
X162003852Y-115246928D01*
X162003852Y-115246928D02*
X162075281Y-115056452D01*
X162075281Y-115056452D02*
X162218138Y-114865976D01*
X162218138Y-114865976D02*
X162432424Y-114770738D01*
X162432424Y-114770738D02*
X162575281Y-114770738D01*
X162575281Y-114770738D02*
X162789567Y-114865976D01*
X162789567Y-114865976D02*
X162860995Y-114961214D01*
X163789567Y-114770738D02*
X164075281Y-114770738D01*
X164075281Y-114770738D02*
X164218138Y-114865976D01*
X164218138Y-114865976D02*
X164360995Y-115056452D01*
X164360995Y-115056452D02*
X164432424Y-115437404D01*
X164432424Y-115437404D02*
X164432424Y-116104071D01*
X164432424Y-116104071D02*
X164360995Y-116485023D01*
X164360995Y-116485023D02*
X164218138Y-116675500D01*
X164218138Y-116675500D02*
X164075281Y-116770738D01*
X164075281Y-116770738D02*
X163789567Y-116770738D01*
X163789567Y-116770738D02*
X163646710Y-116675500D01*
X163646710Y-116675500D02*
X163503852Y-116485023D01*
X163503852Y-116485023D02*
X163432424Y-116104071D01*
X163432424Y-116104071D02*
X163432424Y-115437404D01*
X163432424Y-115437404D02*
X163503852Y-115056452D01*
X163503852Y-115056452D02*
X163646710Y-114865976D01*
X163646710Y-114865976D02*
X163789567Y-114770738D01*
X165075281Y-116770738D02*
X165075281Y-114770738D01*
X165075281Y-114770738D02*
X165575281Y-116199309D01*
X165575281Y-116199309D02*
X166075281Y-114770738D01*
X166075281Y-114770738D02*
X166075281Y-116770738D01*
D10*
X193289673Y-62951266D02*
X194051578Y-62951266D01*
X193670625Y-63332219D02*
X193670625Y-62570314D01*
D11*
X174250995Y-116780738D02*
X173750995Y-115828357D01*
X173393852Y-116780738D02*
X173393852Y-114780738D01*
X173393852Y-114780738D02*
X173965281Y-114780738D01*
X173965281Y-114780738D02*
X174108138Y-114875976D01*
X174108138Y-114875976D02*
X174179567Y-114971214D01*
X174179567Y-114971214D02*
X174250995Y-115161690D01*
X174250995Y-115161690D02*
X174250995Y-115447404D01*
X174250995Y-115447404D02*
X174179567Y-115637880D01*
X174179567Y-115637880D02*
X174108138Y-115733119D01*
X174108138Y-115733119D02*
X173965281Y-115828357D01*
X173965281Y-115828357D02*
X173393852Y-115828357D01*
X174822424Y-114971214D02*
X174893852Y-114875976D01*
X174893852Y-114875976D02*
X175036710Y-114780738D01*
X175036710Y-114780738D02*
X175393852Y-114780738D01*
X175393852Y-114780738D02*
X175536710Y-114875976D01*
X175536710Y-114875976D02*
X175608138Y-114971214D01*
X175608138Y-114971214D02*
X175679567Y-115161690D01*
X175679567Y-115161690D02*
X175679567Y-115352166D01*
X175679567Y-115352166D02*
X175608138Y-115637880D01*
X175608138Y-115637880D02*
X174750995Y-116780738D01*
X174750995Y-116780738D02*
X175679567Y-116780738D01*
X169170995Y-116730738D02*
X168670995Y-115778357D01*
X168313852Y-116730738D02*
X168313852Y-114730738D01*
X168313852Y-114730738D02*
X168885281Y-114730738D01*
X168885281Y-114730738D02*
X169028138Y-114825976D01*
X169028138Y-114825976D02*
X169099567Y-114921214D01*
X169099567Y-114921214D02*
X169170995Y-115111690D01*
X169170995Y-115111690D02*
X169170995Y-115397404D01*
X169170995Y-115397404D02*
X169099567Y-115587880D01*
X169099567Y-115587880D02*
X169028138Y-115683119D01*
X169028138Y-115683119D02*
X168885281Y-115778357D01*
X168885281Y-115778357D02*
X168313852Y-115778357D01*
X170599567Y-116730738D02*
X169742424Y-116730738D01*
X170170995Y-116730738D02*
X170170995Y-114730738D01*
X170170995Y-114730738D02*
X170028138Y-115016452D01*
X170028138Y-115016452D02*
X169885281Y-115206928D01*
X169885281Y-115206928D02*
X169742424Y-115302166D01*
X212803852Y-90513119D02*
X212303852Y-90513119D01*
X212303852Y-91560738D02*
X212303852Y-89560738D01*
X212303852Y-89560738D02*
X213018138Y-89560738D01*
X214303852Y-91560738D02*
X213589566Y-91560738D01*
X213589566Y-91560738D02*
X213589566Y-89560738D01*
D10*
X215671101Y-68764790D02*
X215594911Y-68726695D01*
X215594911Y-68726695D02*
X215480625Y-68726695D01*
X215480625Y-68726695D02*
X215366339Y-68764790D01*
X215366339Y-68764790D02*
X215290149Y-68840980D01*
X215290149Y-68840980D02*
X215252054Y-68917171D01*
X215252054Y-68917171D02*
X215213958Y-69069552D01*
X215213958Y-69069552D02*
X215213958Y-69183838D01*
X215213958Y-69183838D02*
X215252054Y-69336219D01*
X215252054Y-69336219D02*
X215290149Y-69412409D01*
X215290149Y-69412409D02*
X215366339Y-69488600D01*
X215366339Y-69488600D02*
X215480625Y-69526695D01*
X215480625Y-69526695D02*
X215556816Y-69526695D01*
X215556816Y-69526695D02*
X215671101Y-69488600D01*
X215671101Y-69488600D02*
X215709197Y-69450504D01*
X215709197Y-69450504D02*
X215709197Y-69183838D01*
X215709197Y-69183838D02*
X215556816Y-69183838D01*
X216052054Y-69526695D02*
X216052054Y-68726695D01*
X216052054Y-68726695D02*
X216509197Y-69526695D01*
X216509197Y-69526695D02*
X216509197Y-68726695D01*
X216890149Y-69526695D02*
X216890149Y-68726695D01*
X216890149Y-68726695D02*
X217080625Y-68726695D01*
X217080625Y-68726695D02*
X217194911Y-68764790D01*
X217194911Y-68764790D02*
X217271101Y-68840980D01*
X217271101Y-68840980D02*
X217309196Y-68917171D01*
X217309196Y-68917171D02*
X217347292Y-69069552D01*
X217347292Y-69069552D02*
X217347292Y-69183838D01*
X217347292Y-69183838D02*
X217309196Y-69336219D01*
X217309196Y-69336219D02*
X217271101Y-69412409D01*
X217271101Y-69412409D02*
X217194911Y-69488600D01*
X217194911Y-69488600D02*
X217080625Y-69526695D01*
X217080625Y-69526695D02*
X216890149Y-69526695D01*
D11*
X217273852Y-91480738D02*
X217273852Y-89480738D01*
X217273852Y-89480738D02*
X217845281Y-89480738D01*
X217845281Y-89480738D02*
X217988138Y-89575976D01*
X217988138Y-89575976D02*
X218059567Y-89671214D01*
X218059567Y-89671214D02*
X218130995Y-89861690D01*
X218130995Y-89861690D02*
X218130995Y-90147404D01*
X218130995Y-90147404D02*
X218059567Y-90337880D01*
X218059567Y-90337880D02*
X217988138Y-90433119D01*
X217988138Y-90433119D02*
X217845281Y-90528357D01*
X217845281Y-90528357D02*
X217273852Y-90528357D01*
X219559567Y-91480738D02*
X218702424Y-91480738D01*
X219130995Y-91480738D02*
X219130995Y-89480738D01*
X219130995Y-89480738D02*
X218988138Y-89766452D01*
X218988138Y-89766452D02*
X218845281Y-89956928D01*
X218845281Y-89956928D02*
X218702424Y-90052166D01*
X249728138Y-73680738D02*
X249013852Y-73680738D01*
X249013852Y-73680738D02*
X249013852Y-71680738D01*
X250513853Y-71680738D02*
X250799567Y-71680738D01*
X250799567Y-71680738D02*
X250942424Y-71775976D01*
X250942424Y-71775976D02*
X251085281Y-71966452D01*
X251085281Y-71966452D02*
X251156710Y-72347404D01*
X251156710Y-72347404D02*
X251156710Y-73014071D01*
X251156710Y-73014071D02*
X251085281Y-73395023D01*
X251085281Y-73395023D02*
X250942424Y-73585500D01*
X250942424Y-73585500D02*
X250799567Y-73680738D01*
X250799567Y-73680738D02*
X250513853Y-73680738D01*
X250513853Y-73680738D02*
X250370996Y-73585500D01*
X250370996Y-73585500D02*
X250228138Y-73395023D01*
X250228138Y-73395023D02*
X250156710Y-73014071D01*
X250156710Y-73014071D02*
X250156710Y-72347404D01*
X250156710Y-72347404D02*
X250228138Y-71966452D01*
X250228138Y-71966452D02*
X250370996Y-71775976D01*
X250370996Y-71775976D02*
X250513853Y-71680738D01*
X251799567Y-72918833D02*
X252942425Y-72918833D01*
X254156710Y-72633119D02*
X254370996Y-72728357D01*
X254370996Y-72728357D02*
X254442425Y-72823595D01*
X254442425Y-72823595D02*
X254513853Y-73014071D01*
X254513853Y-73014071D02*
X254513853Y-73299785D01*
X254513853Y-73299785D02*
X254442425Y-73490261D01*
X254442425Y-73490261D02*
X254370996Y-73585500D01*
X254370996Y-73585500D02*
X254228139Y-73680738D01*
X254228139Y-73680738D02*
X253656710Y-73680738D01*
X253656710Y-73680738D02*
X253656710Y-71680738D01*
X253656710Y-71680738D02*
X254156710Y-71680738D01*
X254156710Y-71680738D02*
X254299568Y-71775976D01*
X254299568Y-71775976D02*
X254370996Y-71871214D01*
X254370996Y-71871214D02*
X254442425Y-72061690D01*
X254442425Y-72061690D02*
X254442425Y-72252166D01*
X254442425Y-72252166D02*
X254370996Y-72442642D01*
X254370996Y-72442642D02*
X254299568Y-72537880D01*
X254299568Y-72537880D02*
X254156710Y-72633119D01*
X254156710Y-72633119D02*
X253656710Y-72633119D01*
X255085282Y-73109309D02*
X255799568Y-73109309D01*
X254942425Y-73680738D02*
X255442425Y-71680738D01*
X255442425Y-71680738D02*
X255942425Y-73680738D01*
X256228139Y-71680738D02*
X257085282Y-71680738D01*
X256656710Y-73680738D02*
X256656710Y-71680738D01*
D10*
X180929673Y-35031266D02*
X181691578Y-35031266D01*
X181310625Y-35412219D02*
X181310625Y-34650314D01*
D11*
X239363852Y-91250738D02*
X239363852Y-89250738D01*
X240078138Y-91250738D02*
X240078138Y-89250738D01*
X240078138Y-89250738D02*
X240935281Y-91250738D01*
X240935281Y-91250738D02*
X240935281Y-89250738D01*
X241578139Y-89441214D02*
X241649567Y-89345976D01*
X241649567Y-89345976D02*
X241792425Y-89250738D01*
X241792425Y-89250738D02*
X242149567Y-89250738D01*
X242149567Y-89250738D02*
X242292425Y-89345976D01*
X242292425Y-89345976D02*
X242363853Y-89441214D01*
X242363853Y-89441214D02*
X242435282Y-89631690D01*
X242435282Y-89631690D02*
X242435282Y-89822166D01*
X242435282Y-89822166D02*
X242363853Y-90107880D01*
X242363853Y-90107880D02*
X241506710Y-91250738D01*
X241506710Y-91250738D02*
X242435282Y-91250738D01*
X228593852Y-91520738D02*
X228593852Y-89520738D01*
X228593852Y-89520738D02*
X229450995Y-91520738D01*
X229450995Y-91520738D02*
X229450995Y-89520738D01*
X230165281Y-91520738D02*
X230165281Y-89520738D01*
X230165281Y-89520738D02*
X230736710Y-89520738D01*
X230736710Y-89520738D02*
X230879567Y-89615976D01*
X230879567Y-89615976D02*
X230950996Y-89711214D01*
X230950996Y-89711214D02*
X231022424Y-89901690D01*
X231022424Y-89901690D02*
X231022424Y-90187404D01*
X231022424Y-90187404D02*
X230950996Y-90377880D01*
X230950996Y-90377880D02*
X230879567Y-90473119D01*
X230879567Y-90473119D02*
X230736710Y-90568357D01*
X230736710Y-90568357D02*
X230165281Y-90568357D01*
X213623852Y-115733119D02*
X213123852Y-115733119D01*
X213123852Y-116780738D02*
X213123852Y-114780738D01*
X213123852Y-114780738D02*
X213838138Y-114780738D01*
X215123852Y-116780738D02*
X214409566Y-116780738D01*
X214409566Y-116780738D02*
X214409566Y-114780738D01*
X243763852Y-116780738D02*
X243763852Y-114780738D01*
X243763852Y-114780738D02*
X244620995Y-116780738D01*
X244620995Y-116780738D02*
X244620995Y-114780738D01*
X245335281Y-116780738D02*
X245335281Y-114780738D01*
X245335281Y-114780738D02*
X245906710Y-114780738D01*
X245906710Y-114780738D02*
X246049567Y-114875976D01*
X246049567Y-114875976D02*
X246120996Y-114971214D01*
X246120996Y-114971214D02*
X246192424Y-115161690D01*
X246192424Y-115161690D02*
X246192424Y-115447404D01*
X246192424Y-115447404D02*
X246120996Y-115637880D01*
X246120996Y-115637880D02*
X246049567Y-115733119D01*
X246049567Y-115733119D02*
X245906710Y-115828357D01*
X245906710Y-115828357D02*
X245335281Y-115828357D01*
X253503852Y-116720738D02*
X253503852Y-114720738D01*
X254218138Y-116720738D02*
X254218138Y-114720738D01*
X254218138Y-114720738D02*
X255075281Y-116720738D01*
X255075281Y-116720738D02*
X255075281Y-114720738D01*
X255718139Y-114911214D02*
X255789567Y-114815976D01*
X255789567Y-114815976D02*
X255932425Y-114720738D01*
X255932425Y-114720738D02*
X256289567Y-114720738D01*
X256289567Y-114720738D02*
X256432425Y-114815976D01*
X256432425Y-114815976D02*
X256503853Y-114911214D01*
X256503853Y-114911214D02*
X256575282Y-115101690D01*
X256575282Y-115101690D02*
X256575282Y-115292166D01*
X256575282Y-115292166D02*
X256503853Y-115577880D01*
X256503853Y-115577880D02*
X255646710Y-116720738D01*
X255646710Y-116720738D02*
X256575282Y-116720738D01*
X187680995Y-116700738D02*
X187180995Y-115748357D01*
X186823852Y-116700738D02*
X186823852Y-114700738D01*
X186823852Y-114700738D02*
X187395281Y-114700738D01*
X187395281Y-114700738D02*
X187538138Y-114795976D01*
X187538138Y-114795976D02*
X187609567Y-114891214D01*
X187609567Y-114891214D02*
X187680995Y-115081690D01*
X187680995Y-115081690D02*
X187680995Y-115367404D01*
X187680995Y-115367404D02*
X187609567Y-115557880D01*
X187609567Y-115557880D02*
X187538138Y-115653119D01*
X187538138Y-115653119D02*
X187395281Y-115748357D01*
X187395281Y-115748357D02*
X186823852Y-115748357D01*
X188966710Y-115367404D02*
X188966710Y-116700738D01*
X188609567Y-114605500D02*
X188252424Y-116034071D01*
X188252424Y-116034071D02*
X189180995Y-116034071D01*
D12*
X204047994Y-68504238D02*
X203381327Y-67551857D01*
X202905137Y-68504238D02*
X202905137Y-66504238D01*
X202905137Y-66504238D02*
X203667042Y-66504238D01*
X203667042Y-66504238D02*
X203857518Y-66599476D01*
X203857518Y-66599476D02*
X203952756Y-66694714D01*
X203952756Y-66694714D02*
X204047994Y-66885190D01*
X204047994Y-66885190D02*
X204047994Y-67170904D01*
X204047994Y-67170904D02*
X203952756Y-67361380D01*
X203952756Y-67361380D02*
X203857518Y-67456619D01*
X203857518Y-67456619D02*
X203667042Y-67551857D01*
X203667042Y-67551857D02*
X202905137Y-67551857D01*
X205857518Y-66504238D02*
X204905137Y-66504238D01*
X204905137Y-66504238D02*
X204809899Y-67456619D01*
X204809899Y-67456619D02*
X204905137Y-67361380D01*
X204905137Y-67361380D02*
X205095613Y-67266142D01*
X205095613Y-67266142D02*
X205571804Y-67266142D01*
X205571804Y-67266142D02*
X205762280Y-67361380D01*
X205762280Y-67361380D02*
X205857518Y-67456619D01*
X205857518Y-67456619D02*
X205952756Y-67647095D01*
X205952756Y-67647095D02*
X205952756Y-68123285D01*
X205952756Y-68123285D02*
X205857518Y-68313761D01*
X205857518Y-68313761D02*
X205762280Y-68409000D01*
X205762280Y-68409000D02*
X205571804Y-68504238D01*
X205571804Y-68504238D02*
X205095613Y-68504238D01*
X205095613Y-68504238D02*
X204905137Y-68409000D01*
X204905137Y-68409000D02*
X204809899Y-68313761D01*
D11*
X179400995Y-116750738D02*
X178900995Y-115798357D01*
X178543852Y-116750738D02*
X178543852Y-114750738D01*
X178543852Y-114750738D02*
X179115281Y-114750738D01*
X179115281Y-114750738D02*
X179258138Y-114845976D01*
X179258138Y-114845976D02*
X179329567Y-114941214D01*
X179329567Y-114941214D02*
X179400995Y-115131690D01*
X179400995Y-115131690D02*
X179400995Y-115417404D01*
X179400995Y-115417404D02*
X179329567Y-115607880D01*
X179329567Y-115607880D02*
X179258138Y-115703119D01*
X179258138Y-115703119D02*
X179115281Y-115798357D01*
X179115281Y-115798357D02*
X178543852Y-115798357D01*
X179900995Y-114750738D02*
X180829567Y-114750738D01*
X180829567Y-114750738D02*
X180329567Y-115512642D01*
X180329567Y-115512642D02*
X180543852Y-115512642D01*
X180543852Y-115512642D02*
X180686710Y-115607880D01*
X180686710Y-115607880D02*
X180758138Y-115703119D01*
X180758138Y-115703119D02*
X180829567Y-115893595D01*
X180829567Y-115893595D02*
X180829567Y-116369785D01*
X180829567Y-116369785D02*
X180758138Y-116560261D01*
X180758138Y-116560261D02*
X180686710Y-116655500D01*
X180686710Y-116655500D02*
X180543852Y-116750738D01*
X180543852Y-116750738D02*
X180115281Y-116750738D01*
X180115281Y-116750738D02*
X179972424Y-116655500D01*
X179972424Y-116655500D02*
X179900995Y-116560261D01*
D10*
X246631101Y-68724790D02*
X246554911Y-68686695D01*
X246554911Y-68686695D02*
X246440625Y-68686695D01*
X246440625Y-68686695D02*
X246326339Y-68724790D01*
X246326339Y-68724790D02*
X246250149Y-68800980D01*
X246250149Y-68800980D02*
X246212054Y-68877171D01*
X246212054Y-68877171D02*
X246173958Y-69029552D01*
X246173958Y-69029552D02*
X246173958Y-69143838D01*
X246173958Y-69143838D02*
X246212054Y-69296219D01*
X246212054Y-69296219D02*
X246250149Y-69372409D01*
X246250149Y-69372409D02*
X246326339Y-69448600D01*
X246326339Y-69448600D02*
X246440625Y-69486695D01*
X246440625Y-69486695D02*
X246516816Y-69486695D01*
X246516816Y-69486695D02*
X246631101Y-69448600D01*
X246631101Y-69448600D02*
X246669197Y-69410504D01*
X246669197Y-69410504D02*
X246669197Y-69143838D01*
X246669197Y-69143838D02*
X246516816Y-69143838D01*
X247012054Y-69486695D02*
X247012054Y-68686695D01*
X247012054Y-68686695D02*
X247469197Y-69486695D01*
X247469197Y-69486695D02*
X247469197Y-68686695D01*
X247850149Y-69486695D02*
X247850149Y-68686695D01*
X247850149Y-68686695D02*
X248040625Y-68686695D01*
X248040625Y-68686695D02*
X248154911Y-68724790D01*
X248154911Y-68724790D02*
X248231101Y-68800980D01*
X248231101Y-68800980D02*
X248269196Y-68877171D01*
X248269196Y-68877171D02*
X248307292Y-69029552D01*
X248307292Y-69029552D02*
X248307292Y-69143838D01*
X248307292Y-69143838D02*
X248269196Y-69296219D01*
X248269196Y-69296219D02*
X248231101Y-69372409D01*
X248231101Y-69372409D02*
X248154911Y-69448600D01*
X248154911Y-69448600D02*
X248040625Y-69486695D01*
X248040625Y-69486695D02*
X247850149Y-69486695D01*
D11*
X197810995Y-116670738D02*
X197310995Y-115718357D01*
X196953852Y-116670738D02*
X196953852Y-114670738D01*
X196953852Y-114670738D02*
X197525281Y-114670738D01*
X197525281Y-114670738D02*
X197668138Y-114765976D01*
X197668138Y-114765976D02*
X197739567Y-114861214D01*
X197739567Y-114861214D02*
X197810995Y-115051690D01*
X197810995Y-115051690D02*
X197810995Y-115337404D01*
X197810995Y-115337404D02*
X197739567Y-115527880D01*
X197739567Y-115527880D02*
X197668138Y-115623119D01*
X197668138Y-115623119D02*
X197525281Y-115718357D01*
X197525281Y-115718357D02*
X196953852Y-115718357D01*
X199096710Y-114670738D02*
X198810995Y-114670738D01*
X198810995Y-114670738D02*
X198668138Y-114765976D01*
X198668138Y-114765976D02*
X198596710Y-114861214D01*
X198596710Y-114861214D02*
X198453852Y-115146928D01*
X198453852Y-115146928D02*
X198382424Y-115527880D01*
X198382424Y-115527880D02*
X198382424Y-116289785D01*
X198382424Y-116289785D02*
X198453852Y-116480261D01*
X198453852Y-116480261D02*
X198525281Y-116575500D01*
X198525281Y-116575500D02*
X198668138Y-116670738D01*
X198668138Y-116670738D02*
X198953852Y-116670738D01*
X198953852Y-116670738D02*
X199096710Y-116575500D01*
X199096710Y-116575500D02*
X199168138Y-116480261D01*
X199168138Y-116480261D02*
X199239567Y-116289785D01*
X199239567Y-116289785D02*
X199239567Y-115813595D01*
X199239567Y-115813595D02*
X199168138Y-115623119D01*
X199168138Y-115623119D02*
X199096710Y-115527880D01*
X199096710Y-115527880D02*
X198953852Y-115432642D01*
X198953852Y-115432642D02*
X198668138Y-115432642D01*
X198668138Y-115432642D02*
X198525281Y-115527880D01*
X198525281Y-115527880D02*
X198453852Y-115623119D01*
X198453852Y-115623119D02*
X198382424Y-115813595D01*
D10*
X216113006Y-71386695D02*
X215732054Y-71386695D01*
X215732054Y-71386695D02*
X215693958Y-71767647D01*
X215693958Y-71767647D02*
X215732054Y-71729552D01*
X215732054Y-71729552D02*
X215808244Y-71691457D01*
X215808244Y-71691457D02*
X215998720Y-71691457D01*
X215998720Y-71691457D02*
X216074911Y-71729552D01*
X216074911Y-71729552D02*
X216113006Y-71767647D01*
X216113006Y-71767647D02*
X216151101Y-71843838D01*
X216151101Y-71843838D02*
X216151101Y-72034314D01*
X216151101Y-72034314D02*
X216113006Y-72110504D01*
X216113006Y-72110504D02*
X216074911Y-72148600D01*
X216074911Y-72148600D02*
X215998720Y-72186695D01*
X215998720Y-72186695D02*
X215808244Y-72186695D01*
X215808244Y-72186695D02*
X215732054Y-72148600D01*
X215732054Y-72148600D02*
X215693958Y-72110504D01*
X216379673Y-71386695D02*
X216646340Y-72186695D01*
X216646340Y-72186695D02*
X216913006Y-71386695D01*
D12*
X210505137Y-61194238D02*
X210505137Y-59194238D01*
X210505137Y-59194238D02*
X211267042Y-59194238D01*
X211267042Y-59194238D02*
X211457518Y-59289476D01*
X211457518Y-59289476D02*
X211552756Y-59384714D01*
X211552756Y-59384714D02*
X211647994Y-59575190D01*
X211647994Y-59575190D02*
X211647994Y-59860904D01*
X211647994Y-59860904D02*
X211552756Y-60051380D01*
X211552756Y-60051380D02*
X211457518Y-60146619D01*
X211457518Y-60146619D02*
X211267042Y-60241857D01*
X211267042Y-60241857D02*
X210505137Y-60241857D01*
X212314661Y-59194238D02*
X212790851Y-61194238D01*
X212790851Y-61194238D02*
X213171804Y-59765666D01*
X213171804Y-59765666D02*
X213552756Y-61194238D01*
X213552756Y-61194238D02*
X214028947Y-59194238D01*
X215933708Y-61194238D02*
X215267041Y-60241857D01*
X214790851Y-61194238D02*
X214790851Y-59194238D01*
X214790851Y-59194238D02*
X215552756Y-59194238D01*
X215552756Y-59194238D02*
X215743232Y-59289476D01*
X215743232Y-59289476D02*
X215838470Y-59384714D01*
X215838470Y-59384714D02*
X215933708Y-59575190D01*
X215933708Y-59575190D02*
X215933708Y-59860904D01*
X215933708Y-59860904D02*
X215838470Y-60051380D01*
X215838470Y-60051380D02*
X215743232Y-60146619D01*
X215743232Y-60146619D02*
X215552756Y-60241857D01*
X215552756Y-60241857D02*
X214790851Y-60241857D01*
D11*
X206670995Y-116530261D02*
X206599567Y-116625500D01*
X206599567Y-116625500D02*
X206385281Y-116720738D01*
X206385281Y-116720738D02*
X206242424Y-116720738D01*
X206242424Y-116720738D02*
X206028138Y-116625500D01*
X206028138Y-116625500D02*
X205885281Y-116435023D01*
X205885281Y-116435023D02*
X205813852Y-116244547D01*
X205813852Y-116244547D02*
X205742424Y-115863595D01*
X205742424Y-115863595D02*
X205742424Y-115577880D01*
X205742424Y-115577880D02*
X205813852Y-115196928D01*
X205813852Y-115196928D02*
X205885281Y-115006452D01*
X205885281Y-115006452D02*
X206028138Y-114815976D01*
X206028138Y-114815976D02*
X206242424Y-114720738D01*
X206242424Y-114720738D02*
X206385281Y-114720738D01*
X206385281Y-114720738D02*
X206599567Y-114815976D01*
X206599567Y-114815976D02*
X206670995Y-114911214D01*
X207599567Y-114720738D02*
X207885281Y-114720738D01*
X207885281Y-114720738D02*
X208028138Y-114815976D01*
X208028138Y-114815976D02*
X208170995Y-115006452D01*
X208170995Y-115006452D02*
X208242424Y-115387404D01*
X208242424Y-115387404D02*
X208242424Y-116054071D01*
X208242424Y-116054071D02*
X208170995Y-116435023D01*
X208170995Y-116435023D02*
X208028138Y-116625500D01*
X208028138Y-116625500D02*
X207885281Y-116720738D01*
X207885281Y-116720738D02*
X207599567Y-116720738D01*
X207599567Y-116720738D02*
X207456710Y-116625500D01*
X207456710Y-116625500D02*
X207313852Y-116435023D01*
X207313852Y-116435023D02*
X207242424Y-116054071D01*
X207242424Y-116054071D02*
X207242424Y-115387404D01*
X207242424Y-115387404D02*
X207313852Y-115006452D01*
X207313852Y-115006452D02*
X207456710Y-114815976D01*
X207456710Y-114815976D02*
X207599567Y-114720738D01*
X208885281Y-116720738D02*
X208885281Y-114720738D01*
X208885281Y-114720738D02*
X209385281Y-116149309D01*
X209385281Y-116149309D02*
X209885281Y-114720738D01*
X209885281Y-114720738D02*
X209885281Y-116720738D01*
D13*
X221364284Y-57970872D02*
X221840474Y-57970872D01*
X221269046Y-58313729D02*
X221602379Y-57113729D01*
X221602379Y-57113729D02*
X221935712Y-58313729D01*
X222697617Y-57513729D02*
X222697617Y-58485158D01*
X222697617Y-58485158D02*
X222649998Y-58599444D01*
X222649998Y-58599444D02*
X222602379Y-58656587D01*
X222602379Y-58656587D02*
X222507141Y-58713729D01*
X222507141Y-58713729D02*
X222364284Y-58713729D01*
X222364284Y-58713729D02*
X222269046Y-58656587D01*
X222697617Y-58256587D02*
X222602379Y-58313729D01*
X222602379Y-58313729D02*
X222411903Y-58313729D01*
X222411903Y-58313729D02*
X222316665Y-58256587D01*
X222316665Y-58256587D02*
X222269046Y-58199444D01*
X222269046Y-58199444D02*
X222221427Y-58085158D01*
X222221427Y-58085158D02*
X222221427Y-57742301D01*
X222221427Y-57742301D02*
X222269046Y-57628015D01*
X222269046Y-57628015D02*
X222316665Y-57570872D01*
X222316665Y-57570872D02*
X222411903Y-57513729D01*
X222411903Y-57513729D02*
X222602379Y-57513729D01*
X222602379Y-57513729D02*
X222697617Y-57570872D01*
X223173808Y-58313729D02*
X223173808Y-57513729D01*
X223173808Y-57742301D02*
X223221427Y-57628015D01*
X223221427Y-57628015D02*
X223269046Y-57570872D01*
X223269046Y-57570872D02*
X223364284Y-57513729D01*
X223364284Y-57513729D02*
X223459522Y-57513729D01*
X223792856Y-58313729D02*
X223792856Y-57513729D01*
X223792856Y-57113729D02*
X223745237Y-57170872D01*
X223745237Y-57170872D02*
X223792856Y-57228015D01*
X223792856Y-57228015D02*
X223840475Y-57170872D01*
X223840475Y-57170872D02*
X223792856Y-57113729D01*
X223792856Y-57113729D02*
X223792856Y-57228015D01*
X224983332Y-58256587D02*
X225126189Y-58313729D01*
X225126189Y-58313729D02*
X225364284Y-58313729D01*
X225364284Y-58313729D02*
X225459522Y-58256587D01*
X225459522Y-58256587D02*
X225507141Y-58199444D01*
X225507141Y-58199444D02*
X225554760Y-58085158D01*
X225554760Y-58085158D02*
X225554760Y-57970872D01*
X225554760Y-57970872D02*
X225507141Y-57856587D01*
X225507141Y-57856587D02*
X225459522Y-57799444D01*
X225459522Y-57799444D02*
X225364284Y-57742301D01*
X225364284Y-57742301D02*
X225173808Y-57685158D01*
X225173808Y-57685158D02*
X225078570Y-57628015D01*
X225078570Y-57628015D02*
X225030951Y-57570872D01*
X225030951Y-57570872D02*
X224983332Y-57456587D01*
X224983332Y-57456587D02*
X224983332Y-57342301D01*
X224983332Y-57342301D02*
X225030951Y-57228015D01*
X225030951Y-57228015D02*
X225078570Y-57170872D01*
X225078570Y-57170872D02*
X225173808Y-57113729D01*
X225173808Y-57113729D02*
X225411903Y-57113729D01*
X225411903Y-57113729D02*
X225554760Y-57170872D01*
X226364284Y-58256587D02*
X226269046Y-58313729D01*
X226269046Y-58313729D02*
X226078570Y-58313729D01*
X226078570Y-58313729D02*
X225983332Y-58256587D01*
X225983332Y-58256587D02*
X225935713Y-58142301D01*
X225935713Y-58142301D02*
X225935713Y-57685158D01*
X225935713Y-57685158D02*
X225983332Y-57570872D01*
X225983332Y-57570872D02*
X226078570Y-57513729D01*
X226078570Y-57513729D02*
X226269046Y-57513729D01*
X226269046Y-57513729D02*
X226364284Y-57570872D01*
X226364284Y-57570872D02*
X226411903Y-57685158D01*
X226411903Y-57685158D02*
X226411903Y-57799444D01*
X226411903Y-57799444D02*
X225935713Y-57913729D01*
X226840475Y-57513729D02*
X226840475Y-58313729D01*
X226840475Y-57628015D02*
X226888094Y-57570872D01*
X226888094Y-57570872D02*
X226983332Y-57513729D01*
X226983332Y-57513729D02*
X227126189Y-57513729D01*
X227126189Y-57513729D02*
X227221427Y-57570872D01*
X227221427Y-57570872D02*
X227269046Y-57685158D01*
X227269046Y-57685158D02*
X227269046Y-58313729D01*
X227697618Y-58256587D02*
X227792856Y-58313729D01*
X227792856Y-58313729D02*
X227983332Y-58313729D01*
X227983332Y-58313729D02*
X228078570Y-58256587D01*
X228078570Y-58256587D02*
X228126189Y-58142301D01*
X228126189Y-58142301D02*
X228126189Y-58085158D01*
X228126189Y-58085158D02*
X228078570Y-57970872D01*
X228078570Y-57970872D02*
X227983332Y-57913729D01*
X227983332Y-57913729D02*
X227840475Y-57913729D01*
X227840475Y-57913729D02*
X227745237Y-57856587D01*
X227745237Y-57856587D02*
X227697618Y-57742301D01*
X227697618Y-57742301D02*
X227697618Y-57685158D01*
X227697618Y-57685158D02*
X227745237Y-57570872D01*
X227745237Y-57570872D02*
X227840475Y-57513729D01*
X227840475Y-57513729D02*
X227983332Y-57513729D01*
X227983332Y-57513729D02*
X228078570Y-57570872D01*
X228697618Y-58313729D02*
X228602380Y-58256587D01*
X228602380Y-58256587D02*
X228554761Y-58199444D01*
X228554761Y-58199444D02*
X228507142Y-58085158D01*
X228507142Y-58085158D02*
X228507142Y-57742301D01*
X228507142Y-57742301D02*
X228554761Y-57628015D01*
X228554761Y-57628015D02*
X228602380Y-57570872D01*
X228602380Y-57570872D02*
X228697618Y-57513729D01*
X228697618Y-57513729D02*
X228840475Y-57513729D01*
X228840475Y-57513729D02*
X228935713Y-57570872D01*
X228935713Y-57570872D02*
X228983332Y-57628015D01*
X228983332Y-57628015D02*
X229030951Y-57742301D01*
X229030951Y-57742301D02*
X229030951Y-58085158D01*
X229030951Y-58085158D02*
X228983332Y-58199444D01*
X228983332Y-58199444D02*
X228935713Y-58256587D01*
X228935713Y-58256587D02*
X228840475Y-58313729D01*
X228840475Y-58313729D02*
X228697618Y-58313729D01*
X229459523Y-58313729D02*
X229459523Y-57513729D01*
X229459523Y-57742301D02*
X229507142Y-57628015D01*
X229507142Y-57628015D02*
X229554761Y-57570872D01*
X229554761Y-57570872D02*
X229649999Y-57513729D01*
X229649999Y-57513729D02*
X229745237Y-57513729D01*
X230030952Y-58256587D02*
X230126190Y-58313729D01*
X230126190Y-58313729D02*
X230316666Y-58313729D01*
X230316666Y-58313729D02*
X230411904Y-58256587D01*
X230411904Y-58256587D02*
X230459523Y-58142301D01*
X230459523Y-58142301D02*
X230459523Y-58085158D01*
X230459523Y-58085158D02*
X230411904Y-57970872D01*
X230411904Y-57970872D02*
X230316666Y-57913729D01*
X230316666Y-57913729D02*
X230173809Y-57913729D01*
X230173809Y-57913729D02*
X230078571Y-57856587D01*
X230078571Y-57856587D02*
X230030952Y-57742301D01*
X230030952Y-57742301D02*
X230030952Y-57685158D01*
X230030952Y-57685158D02*
X230078571Y-57570872D01*
X230078571Y-57570872D02*
X230173809Y-57513729D01*
X230173809Y-57513729D02*
X230316666Y-57513729D01*
X230316666Y-57513729D02*
X230411904Y-57570872D01*
X232078571Y-58313729D02*
X232078571Y-57685158D01*
X232078571Y-57685158D02*
X232030952Y-57570872D01*
X232030952Y-57570872D02*
X231935714Y-57513729D01*
X231935714Y-57513729D02*
X231745238Y-57513729D01*
X231745238Y-57513729D02*
X231650000Y-57570872D01*
X232078571Y-58256587D02*
X231983333Y-58313729D01*
X231983333Y-58313729D02*
X231745238Y-58313729D01*
X231745238Y-58313729D02*
X231650000Y-58256587D01*
X231650000Y-58256587D02*
X231602381Y-58142301D01*
X231602381Y-58142301D02*
X231602381Y-58028015D01*
X231602381Y-58028015D02*
X231650000Y-57913729D01*
X231650000Y-57913729D02*
X231745238Y-57856587D01*
X231745238Y-57856587D02*
X231983333Y-57856587D01*
X231983333Y-57856587D02*
X232078571Y-57799444D01*
X232554762Y-57513729D02*
X232554762Y-58313729D01*
X232554762Y-57628015D02*
X232602381Y-57570872D01*
X232602381Y-57570872D02*
X232697619Y-57513729D01*
X232697619Y-57513729D02*
X232840476Y-57513729D01*
X232840476Y-57513729D02*
X232935714Y-57570872D01*
X232935714Y-57570872D02*
X232983333Y-57685158D01*
X232983333Y-57685158D02*
X232983333Y-58313729D01*
X233888095Y-58313729D02*
X233888095Y-57113729D01*
X233888095Y-58256587D02*
X233792857Y-58313729D01*
X233792857Y-58313729D02*
X233602381Y-58313729D01*
X233602381Y-58313729D02*
X233507143Y-58256587D01*
X233507143Y-58256587D02*
X233459524Y-58199444D01*
X233459524Y-58199444D02*
X233411905Y-58085158D01*
X233411905Y-58085158D02*
X233411905Y-57742301D01*
X233411905Y-57742301D02*
X233459524Y-57628015D01*
X233459524Y-57628015D02*
X233507143Y-57570872D01*
X233507143Y-57570872D02*
X233602381Y-57513729D01*
X233602381Y-57513729D02*
X233792857Y-57513729D01*
X233792857Y-57513729D02*
X233888095Y-57570872D01*
X235697619Y-58199444D02*
X235650000Y-58256587D01*
X235650000Y-58256587D02*
X235507143Y-58313729D01*
X235507143Y-58313729D02*
X235411905Y-58313729D01*
X235411905Y-58313729D02*
X235269048Y-58256587D01*
X235269048Y-58256587D02*
X235173810Y-58142301D01*
X235173810Y-58142301D02*
X235126191Y-58028015D01*
X235126191Y-58028015D02*
X235078572Y-57799444D01*
X235078572Y-57799444D02*
X235078572Y-57628015D01*
X235078572Y-57628015D02*
X235126191Y-57399444D01*
X235126191Y-57399444D02*
X235173810Y-57285158D01*
X235173810Y-57285158D02*
X235269048Y-57170872D01*
X235269048Y-57170872D02*
X235411905Y-57113729D01*
X235411905Y-57113729D02*
X235507143Y-57113729D01*
X235507143Y-57113729D02*
X235650000Y-57170872D01*
X235650000Y-57170872D02*
X235697619Y-57228015D01*
X236269048Y-58313729D02*
X236173810Y-58256587D01*
X236173810Y-58256587D02*
X236126191Y-58199444D01*
X236126191Y-58199444D02*
X236078572Y-58085158D01*
X236078572Y-58085158D02*
X236078572Y-57742301D01*
X236078572Y-57742301D02*
X236126191Y-57628015D01*
X236126191Y-57628015D02*
X236173810Y-57570872D01*
X236173810Y-57570872D02*
X236269048Y-57513729D01*
X236269048Y-57513729D02*
X236411905Y-57513729D01*
X236411905Y-57513729D02*
X236507143Y-57570872D01*
X236507143Y-57570872D02*
X236554762Y-57628015D01*
X236554762Y-57628015D02*
X236602381Y-57742301D01*
X236602381Y-57742301D02*
X236602381Y-58085158D01*
X236602381Y-58085158D02*
X236554762Y-58199444D01*
X236554762Y-58199444D02*
X236507143Y-58256587D01*
X236507143Y-58256587D02*
X236411905Y-58313729D01*
X236411905Y-58313729D02*
X236269048Y-58313729D01*
X237030953Y-57513729D02*
X237030953Y-58313729D01*
X237030953Y-57628015D02*
X237078572Y-57570872D01*
X237078572Y-57570872D02*
X237173810Y-57513729D01*
X237173810Y-57513729D02*
X237316667Y-57513729D01*
X237316667Y-57513729D02*
X237411905Y-57570872D01*
X237411905Y-57570872D02*
X237459524Y-57685158D01*
X237459524Y-57685158D02*
X237459524Y-58313729D01*
X237792858Y-57513729D02*
X238173810Y-57513729D01*
X237935715Y-57113729D02*
X237935715Y-58142301D01*
X237935715Y-58142301D02*
X237983334Y-58256587D01*
X237983334Y-58256587D02*
X238078572Y-58313729D01*
X238078572Y-58313729D02*
X238173810Y-58313729D01*
X238507144Y-58313729D02*
X238507144Y-57513729D01*
X238507144Y-57742301D02*
X238554763Y-57628015D01*
X238554763Y-57628015D02*
X238602382Y-57570872D01*
X238602382Y-57570872D02*
X238697620Y-57513729D01*
X238697620Y-57513729D02*
X238792858Y-57513729D01*
X239269049Y-58313729D02*
X239173811Y-58256587D01*
X239173811Y-58256587D02*
X239126192Y-58199444D01*
X239126192Y-58199444D02*
X239078573Y-58085158D01*
X239078573Y-58085158D02*
X239078573Y-57742301D01*
X239078573Y-57742301D02*
X239126192Y-57628015D01*
X239126192Y-57628015D02*
X239173811Y-57570872D01*
X239173811Y-57570872D02*
X239269049Y-57513729D01*
X239269049Y-57513729D02*
X239411906Y-57513729D01*
X239411906Y-57513729D02*
X239507144Y-57570872D01*
X239507144Y-57570872D02*
X239554763Y-57628015D01*
X239554763Y-57628015D02*
X239602382Y-57742301D01*
X239602382Y-57742301D02*
X239602382Y-58085158D01*
X239602382Y-58085158D02*
X239554763Y-58199444D01*
X239554763Y-58199444D02*
X239507144Y-58256587D01*
X239507144Y-58256587D02*
X239411906Y-58313729D01*
X239411906Y-58313729D02*
X239269049Y-58313729D01*
X240173811Y-58313729D02*
X240078573Y-58256587D01*
X240078573Y-58256587D02*
X240030954Y-58142301D01*
X240030954Y-58142301D02*
X240030954Y-57113729D01*
X240507145Y-58256587D02*
X240602383Y-58313729D01*
X240602383Y-58313729D02*
X240792859Y-58313729D01*
X240792859Y-58313729D02*
X240888097Y-58256587D01*
X240888097Y-58256587D02*
X240935716Y-58142301D01*
X240935716Y-58142301D02*
X240935716Y-58085158D01*
X240935716Y-58085158D02*
X240888097Y-57970872D01*
X240888097Y-57970872D02*
X240792859Y-57913729D01*
X240792859Y-57913729D02*
X240650002Y-57913729D01*
X240650002Y-57913729D02*
X240554764Y-57856587D01*
X240554764Y-57856587D02*
X240507145Y-57742301D01*
X240507145Y-57742301D02*
X240507145Y-57685158D01*
X240507145Y-57685158D02*
X240554764Y-57570872D01*
X240554764Y-57570872D02*
X240650002Y-57513729D01*
X240650002Y-57513729D02*
X240792859Y-57513729D01*
X240792859Y-57513729D02*
X240888097Y-57570872D01*
X229983333Y-59902805D02*
X230459523Y-59902805D01*
X229888095Y-60245662D02*
X230221428Y-59045662D01*
X230221428Y-59045662D02*
X230554761Y-60245662D01*
X231316666Y-59445662D02*
X231316666Y-60245662D01*
X230888095Y-59445662D02*
X230888095Y-60074234D01*
X230888095Y-60074234D02*
X230935714Y-60188520D01*
X230935714Y-60188520D02*
X231030952Y-60245662D01*
X231030952Y-60245662D02*
X231173809Y-60245662D01*
X231173809Y-60245662D02*
X231269047Y-60188520D01*
X231269047Y-60188520D02*
X231316666Y-60131377D01*
X232221428Y-59445662D02*
X232221428Y-60417091D01*
X232221428Y-60417091D02*
X232173809Y-60531377D01*
X232173809Y-60531377D02*
X232126190Y-60588520D01*
X232126190Y-60588520D02*
X232030952Y-60645662D01*
X232030952Y-60645662D02*
X231888095Y-60645662D01*
X231888095Y-60645662D02*
X231792857Y-60588520D01*
X232221428Y-60188520D02*
X232126190Y-60245662D01*
X232126190Y-60245662D02*
X231935714Y-60245662D01*
X231935714Y-60245662D02*
X231840476Y-60188520D01*
X231840476Y-60188520D02*
X231792857Y-60131377D01*
X231792857Y-60131377D02*
X231745238Y-60017091D01*
X231745238Y-60017091D02*
X231745238Y-59674234D01*
X231745238Y-59674234D02*
X231792857Y-59559948D01*
X231792857Y-59559948D02*
X231840476Y-59502805D01*
X231840476Y-59502805D02*
X231935714Y-59445662D01*
X231935714Y-59445662D02*
X232126190Y-59445662D01*
X232126190Y-59445662D02*
X232221428Y-59502805D01*
X232650000Y-59159948D02*
X232697619Y-59102805D01*
X232697619Y-59102805D02*
X232792857Y-59045662D01*
X232792857Y-59045662D02*
X233030952Y-59045662D01*
X233030952Y-59045662D02*
X233126190Y-59102805D01*
X233126190Y-59102805D02*
X233173809Y-59159948D01*
X233173809Y-59159948D02*
X233221428Y-59274234D01*
X233221428Y-59274234D02*
X233221428Y-59388520D01*
X233221428Y-59388520D02*
X233173809Y-59559948D01*
X233173809Y-59559948D02*
X232602381Y-60245662D01*
X232602381Y-60245662D02*
X233221428Y-60245662D01*
X233840476Y-59045662D02*
X233935714Y-59045662D01*
X233935714Y-59045662D02*
X234030952Y-59102805D01*
X234030952Y-59102805D02*
X234078571Y-59159948D01*
X234078571Y-59159948D02*
X234126190Y-59274234D01*
X234126190Y-59274234D02*
X234173809Y-59502805D01*
X234173809Y-59502805D02*
X234173809Y-59788520D01*
X234173809Y-59788520D02*
X234126190Y-60017091D01*
X234126190Y-60017091D02*
X234078571Y-60131377D01*
X234078571Y-60131377D02*
X234030952Y-60188520D01*
X234030952Y-60188520D02*
X233935714Y-60245662D01*
X233935714Y-60245662D02*
X233840476Y-60245662D01*
X233840476Y-60245662D02*
X233745238Y-60188520D01*
X233745238Y-60188520D02*
X233697619Y-60131377D01*
X233697619Y-60131377D02*
X233650000Y-60017091D01*
X233650000Y-60017091D02*
X233602381Y-59788520D01*
X233602381Y-59788520D02*
X233602381Y-59502805D01*
X233602381Y-59502805D02*
X233650000Y-59274234D01*
X233650000Y-59274234D02*
X233697619Y-59159948D01*
X233697619Y-59159948D02*
X233745238Y-59102805D01*
X233745238Y-59102805D02*
X233840476Y-59045662D01*
X234554762Y-59159948D02*
X234602381Y-59102805D01*
X234602381Y-59102805D02*
X234697619Y-59045662D01*
X234697619Y-59045662D02*
X234935714Y-59045662D01*
X234935714Y-59045662D02*
X235030952Y-59102805D01*
X235030952Y-59102805D02*
X235078571Y-59159948D01*
X235078571Y-59159948D02*
X235126190Y-59274234D01*
X235126190Y-59274234D02*
X235126190Y-59388520D01*
X235126190Y-59388520D02*
X235078571Y-59559948D01*
X235078571Y-59559948D02*
X234507143Y-60245662D01*
X234507143Y-60245662D02*
X235126190Y-60245662D01*
X235983333Y-59045662D02*
X235792857Y-59045662D01*
X235792857Y-59045662D02*
X235697619Y-59102805D01*
X235697619Y-59102805D02*
X235650000Y-59159948D01*
X235650000Y-59159948D02*
X235554762Y-59331377D01*
X235554762Y-59331377D02*
X235507143Y-59559948D01*
X235507143Y-59559948D02*
X235507143Y-60017091D01*
X235507143Y-60017091D02*
X235554762Y-60131377D01*
X235554762Y-60131377D02*
X235602381Y-60188520D01*
X235602381Y-60188520D02*
X235697619Y-60245662D01*
X235697619Y-60245662D02*
X235888095Y-60245662D01*
X235888095Y-60245662D02*
X235983333Y-60188520D01*
X235983333Y-60188520D02*
X236030952Y-60131377D01*
X236030952Y-60131377D02*
X236078571Y-60017091D01*
X236078571Y-60017091D02*
X236078571Y-59731377D01*
X236078571Y-59731377D02*
X236030952Y-59617091D01*
X236030952Y-59617091D02*
X235983333Y-59559948D01*
X235983333Y-59559948D02*
X235888095Y-59502805D01*
X235888095Y-59502805D02*
X235697619Y-59502805D01*
X235697619Y-59502805D02*
X235602381Y-59559948D01*
X235602381Y-59559948D02*
X235554762Y-59617091D01*
X235554762Y-59617091D02*
X235507143Y-59731377D01*
D11*
X163769567Y-40993357D02*
X163626710Y-40921928D01*
X163626710Y-40921928D02*
X163412424Y-40921928D01*
X163412424Y-40921928D02*
X163198138Y-40993357D01*
X163198138Y-40993357D02*
X163055281Y-41136214D01*
X163055281Y-41136214D02*
X162983852Y-41279071D01*
X162983852Y-41279071D02*
X162912424Y-41564785D01*
X162912424Y-41564785D02*
X162912424Y-41779071D01*
X162912424Y-41779071D02*
X162983852Y-42064785D01*
X162983852Y-42064785D02*
X163055281Y-42207642D01*
X163055281Y-42207642D02*
X163198138Y-42350500D01*
X163198138Y-42350500D02*
X163412424Y-42421928D01*
X163412424Y-42421928D02*
X163555281Y-42421928D01*
X163555281Y-42421928D02*
X163769567Y-42350500D01*
X163769567Y-42350500D02*
X163840995Y-42279071D01*
X163840995Y-42279071D02*
X163840995Y-41779071D01*
X163840995Y-41779071D02*
X163555281Y-41779071D01*
X164483852Y-42421928D02*
X164483852Y-40921928D01*
X164483852Y-40921928D02*
X165340995Y-42421928D01*
X165340995Y-42421928D02*
X165340995Y-40921928D01*
X166055281Y-42421928D02*
X166055281Y-40921928D01*
X166055281Y-40921928D02*
X166412424Y-40921928D01*
X166412424Y-40921928D02*
X166626710Y-40993357D01*
X166626710Y-40993357D02*
X166769567Y-41136214D01*
X166769567Y-41136214D02*
X166840996Y-41279071D01*
X166840996Y-41279071D02*
X166912424Y-41564785D01*
X166912424Y-41564785D02*
X166912424Y-41779071D01*
X166912424Y-41779071D02*
X166840996Y-42064785D01*
X166840996Y-42064785D02*
X166769567Y-42207642D01*
X166769567Y-42207642D02*
X166626710Y-42350500D01*
X166626710Y-42350500D02*
X166412424Y-42421928D01*
X166412424Y-42421928D02*
X166055281Y-42421928D01*
D10*
X220649673Y-92891266D02*
X221411578Y-92891266D01*
X221030625Y-93272219D02*
X221030625Y-92510314D01*
X246225863Y-71336695D02*
X246721101Y-71336695D01*
X246721101Y-71336695D02*
X246454435Y-71641457D01*
X246454435Y-71641457D02*
X246568720Y-71641457D01*
X246568720Y-71641457D02*
X246644911Y-71679552D01*
X246644911Y-71679552D02*
X246683006Y-71717647D01*
X246683006Y-71717647D02*
X246721101Y-71793838D01*
X246721101Y-71793838D02*
X246721101Y-71984314D01*
X246721101Y-71984314D02*
X246683006Y-72060504D01*
X246683006Y-72060504D02*
X246644911Y-72098600D01*
X246644911Y-72098600D02*
X246568720Y-72136695D01*
X246568720Y-72136695D02*
X246340149Y-72136695D01*
X246340149Y-72136695D02*
X246263958Y-72098600D01*
X246263958Y-72098600D02*
X246225863Y-72060504D01*
X247063959Y-72060504D02*
X247102054Y-72098600D01*
X247102054Y-72098600D02*
X247063959Y-72136695D01*
X247063959Y-72136695D02*
X247025863Y-72098600D01*
X247025863Y-72098600D02*
X247063959Y-72060504D01*
X247063959Y-72060504D02*
X247063959Y-72136695D01*
X247368720Y-71336695D02*
X247863958Y-71336695D01*
X247863958Y-71336695D02*
X247597292Y-71641457D01*
X247597292Y-71641457D02*
X247711577Y-71641457D01*
X247711577Y-71641457D02*
X247787768Y-71679552D01*
X247787768Y-71679552D02*
X247825863Y-71717647D01*
X247825863Y-71717647D02*
X247863958Y-71793838D01*
X247863958Y-71793838D02*
X247863958Y-71984314D01*
X247863958Y-71984314D02*
X247825863Y-72060504D01*
X247825863Y-72060504D02*
X247787768Y-72098600D01*
X247787768Y-72098600D02*
X247711577Y-72136695D01*
X247711577Y-72136695D02*
X247483006Y-72136695D01*
X247483006Y-72136695D02*
X247406815Y-72098600D01*
X247406815Y-72098600D02*
X247368720Y-72060504D01*
X248092530Y-71336695D02*
X248359197Y-72136695D01*
X248359197Y-72136695D02*
X248625863Y-71336695D01*
D16*
X236386666Y-116619819D02*
X236386666Y-117334104D01*
X236386666Y-117334104D02*
X236339047Y-117476961D01*
X236339047Y-117476961D02*
X236243809Y-117572200D01*
X236243809Y-117572200D02*
X236100952Y-117619819D01*
X236100952Y-117619819D02*
X236005714Y-117619819D01*
X237291428Y-116953152D02*
X237291428Y-117619819D01*
X237053333Y-116572200D02*
X236815238Y-117286485D01*
X236815238Y-117286485D02*
X237434285Y-117286485D01*
X191424819Y-65449285D02*
X190424819Y-65449285D01*
X190424819Y-65449285D02*
X190424819Y-65211190D01*
X190424819Y-65211190D02*
X190472438Y-65068333D01*
X190472438Y-65068333D02*
X190567676Y-64973095D01*
X190567676Y-64973095D02*
X190662914Y-64925476D01*
X190662914Y-64925476D02*
X190853390Y-64877857D01*
X190853390Y-64877857D02*
X190996247Y-64877857D01*
X190996247Y-64877857D02*
X191186723Y-64925476D01*
X191186723Y-64925476D02*
X191281961Y-64973095D01*
X191281961Y-64973095D02*
X191377200Y-65068333D01*
X191377200Y-65068333D02*
X191424819Y-65211190D01*
X191424819Y-65211190D02*
X191424819Y-65449285D01*
X191424819Y-63925476D02*
X191424819Y-64496904D01*
X191424819Y-64211190D02*
X190424819Y-64211190D01*
X190424819Y-64211190D02*
X190567676Y-64306428D01*
X190567676Y-64306428D02*
X190662914Y-64401666D01*
X190662914Y-64401666D02*
X190710533Y-64496904D01*
X191424819Y-62973095D02*
X191424819Y-63544523D01*
X191424819Y-63258809D02*
X190424819Y-63258809D01*
X190424819Y-63258809D02*
X190567676Y-63354047D01*
X190567676Y-63354047D02*
X190662914Y-63449285D01*
X190662914Y-63449285D02*
X190710533Y-63544523D01*
X190811905Y-94679819D02*
X190811905Y-93679819D01*
X191383333Y-94679819D02*
X190954762Y-94108390D01*
X191383333Y-93679819D02*
X190811905Y-94251247D01*
X192240476Y-94013152D02*
X192240476Y-94679819D01*
X192002381Y-93632200D02*
X191764286Y-94346485D01*
X191764286Y-94346485D02*
X192383333Y-94346485D01*
X160360476Y-116659819D02*
X160360476Y-117374104D01*
X160360476Y-117374104D02*
X160312857Y-117516961D01*
X160312857Y-117516961D02*
X160217619Y-117612200D01*
X160217619Y-117612200D02*
X160074762Y-117659819D01*
X160074762Y-117659819D02*
X159979524Y-117659819D01*
X161360476Y-117659819D02*
X160789048Y-117659819D01*
X161074762Y-117659819D02*
X161074762Y-116659819D01*
X161074762Y-116659819D02*
X160979524Y-116802676D01*
X160979524Y-116802676D02*
X160884286Y-116897914D01*
X160884286Y-116897914D02*
X160789048Y-116945533D01*
X161741429Y-116755057D02*
X161789048Y-116707438D01*
X161789048Y-116707438D02*
X161884286Y-116659819D01*
X161884286Y-116659819D02*
X162122381Y-116659819D01*
X162122381Y-116659819D02*
X162217619Y-116707438D01*
X162217619Y-116707438D02*
X162265238Y-116755057D01*
X162265238Y-116755057D02*
X162312857Y-116850295D01*
X162312857Y-116850295D02*
X162312857Y-116945533D01*
X162312857Y-116945533D02*
X162265238Y-117088390D01*
X162265238Y-117088390D02*
X161693810Y-117659819D01*
X161693810Y-117659819D02*
X162312857Y-117659819D01*
X256069580Y-111494999D02*
X256117200Y-111447380D01*
X256117200Y-111447380D02*
X256164819Y-111494999D01*
X256164819Y-111494999D02*
X256117200Y-111542618D01*
X256117200Y-111542618D02*
X256069580Y-111494999D01*
X256069580Y-111494999D02*
X256164819Y-111494999D01*
X228474819Y-94683094D02*
X227474819Y-94683094D01*
X227474819Y-94683094D02*
X227474819Y-94444999D01*
X227474819Y-94444999D02*
X227522438Y-94302142D01*
X227522438Y-94302142D02*
X227617676Y-94206904D01*
X227617676Y-94206904D02*
X227712914Y-94159285D01*
X227712914Y-94159285D02*
X227903390Y-94111666D01*
X227903390Y-94111666D02*
X228046247Y-94111666D01*
X228046247Y-94111666D02*
X228236723Y-94159285D01*
X228236723Y-94159285D02*
X228331961Y-94206904D01*
X228331961Y-94206904D02*
X228427200Y-94302142D01*
X228427200Y-94302142D02*
X228474819Y-94444999D01*
X228474819Y-94444999D02*
X228474819Y-94683094D01*
X228474819Y-93159285D02*
X228474819Y-93730713D01*
X228474819Y-93444999D02*
X227474819Y-93444999D01*
X227474819Y-93444999D02*
X227617676Y-93540237D01*
X227617676Y-93540237D02*
X227712914Y-93635475D01*
X227712914Y-93635475D02*
X227760533Y-93730713D01*
X251514819Y-70059285D02*
X250514819Y-70059285D01*
X250514819Y-70059285D02*
X250514819Y-69821190D01*
X250514819Y-69821190D02*
X250562438Y-69678333D01*
X250562438Y-69678333D02*
X250657676Y-69583095D01*
X250657676Y-69583095D02*
X250752914Y-69535476D01*
X250752914Y-69535476D02*
X250943390Y-69487857D01*
X250943390Y-69487857D02*
X251086247Y-69487857D01*
X251086247Y-69487857D02*
X251276723Y-69535476D01*
X251276723Y-69535476D02*
X251371961Y-69583095D01*
X251371961Y-69583095D02*
X251467200Y-69678333D01*
X251467200Y-69678333D02*
X251514819Y-69821190D01*
X251514819Y-69821190D02*
X251514819Y-70059285D01*
X250610057Y-69106904D02*
X250562438Y-69059285D01*
X250562438Y-69059285D02*
X250514819Y-68964047D01*
X250514819Y-68964047D02*
X250514819Y-68725952D01*
X250514819Y-68725952D02*
X250562438Y-68630714D01*
X250562438Y-68630714D02*
X250610057Y-68583095D01*
X250610057Y-68583095D02*
X250705295Y-68535476D01*
X250705295Y-68535476D02*
X250800533Y-68535476D01*
X250800533Y-68535476D02*
X250943390Y-68583095D01*
X250943390Y-68583095D02*
X251514819Y-69154523D01*
X251514819Y-69154523D02*
X251514819Y-68535476D01*
X250610057Y-68154523D02*
X250562438Y-68106904D01*
X250562438Y-68106904D02*
X250514819Y-68011666D01*
X250514819Y-68011666D02*
X250514819Y-67773571D01*
X250514819Y-67773571D02*
X250562438Y-67678333D01*
X250562438Y-67678333D02*
X250610057Y-67630714D01*
X250610057Y-67630714D02*
X250705295Y-67583095D01*
X250705295Y-67583095D02*
X250800533Y-67583095D01*
X250800533Y-67583095D02*
X250943390Y-67630714D01*
X250943390Y-67630714D02*
X251514819Y-68202142D01*
X251514819Y-68202142D02*
X251514819Y-67583095D01*
X186454819Y-65499285D02*
X185454819Y-65499285D01*
X185454819Y-65499285D02*
X185454819Y-65261190D01*
X185454819Y-65261190D02*
X185502438Y-65118333D01*
X185502438Y-65118333D02*
X185597676Y-65023095D01*
X185597676Y-65023095D02*
X185692914Y-64975476D01*
X185692914Y-64975476D02*
X185883390Y-64927857D01*
X185883390Y-64927857D02*
X186026247Y-64927857D01*
X186026247Y-64927857D02*
X186216723Y-64975476D01*
X186216723Y-64975476D02*
X186311961Y-65023095D01*
X186311961Y-65023095D02*
X186407200Y-65118333D01*
X186407200Y-65118333D02*
X186454819Y-65261190D01*
X186454819Y-65261190D02*
X186454819Y-65499285D01*
X186454819Y-63975476D02*
X186454819Y-64546904D01*
X186454819Y-64261190D02*
X185454819Y-64261190D01*
X185454819Y-64261190D02*
X185597676Y-64356428D01*
X185597676Y-64356428D02*
X185692914Y-64451666D01*
X185692914Y-64451666D02*
X185740533Y-64546904D01*
X185454819Y-63356428D02*
X185454819Y-63261190D01*
X185454819Y-63261190D02*
X185502438Y-63165952D01*
X185502438Y-63165952D02*
X185550057Y-63118333D01*
X185550057Y-63118333D02*
X185645295Y-63070714D01*
X185645295Y-63070714D02*
X185835771Y-63023095D01*
X185835771Y-63023095D02*
X186073866Y-63023095D01*
X186073866Y-63023095D02*
X186264342Y-63070714D01*
X186264342Y-63070714D02*
X186359580Y-63118333D01*
X186359580Y-63118333D02*
X186407200Y-63165952D01*
X186407200Y-63165952D02*
X186454819Y-63261190D01*
X186454819Y-63261190D02*
X186454819Y-63356428D01*
X186454819Y-63356428D02*
X186407200Y-63451666D01*
X186407200Y-63451666D02*
X186359580Y-63499285D01*
X186359580Y-63499285D02*
X186264342Y-63546904D01*
X186264342Y-63546904D02*
X186073866Y-63594523D01*
X186073866Y-63594523D02*
X185835771Y-63594523D01*
X185835771Y-63594523D02*
X185645295Y-63546904D01*
X185645295Y-63546904D02*
X185550057Y-63499285D01*
X185550057Y-63499285D02*
X185502438Y-63451666D01*
X185502438Y-63451666D02*
X185454819Y-63356428D01*
X174701905Y-66579819D02*
X174701905Y-65579819D01*
X175273333Y-66579819D02*
X174844762Y-66008390D01*
X175273333Y-65579819D02*
X174701905Y-66151247D01*
X176225714Y-66579819D02*
X175654286Y-66579819D01*
X175940000Y-66579819D02*
X175940000Y-65579819D01*
X175940000Y-65579819D02*
X175844762Y-65722676D01*
X175844762Y-65722676D02*
X175749524Y-65817914D01*
X175749524Y-65817914D02*
X175654286Y-65865533D01*
X202574819Y-65509285D02*
X201574819Y-65509285D01*
X201574819Y-65509285D02*
X201574819Y-65271190D01*
X201574819Y-65271190D02*
X201622438Y-65128333D01*
X201622438Y-65128333D02*
X201717676Y-65033095D01*
X201717676Y-65033095D02*
X201812914Y-64985476D01*
X201812914Y-64985476D02*
X202003390Y-64937857D01*
X202003390Y-64937857D02*
X202146247Y-64937857D01*
X202146247Y-64937857D02*
X202336723Y-64985476D01*
X202336723Y-64985476D02*
X202431961Y-65033095D01*
X202431961Y-65033095D02*
X202527200Y-65128333D01*
X202527200Y-65128333D02*
X202574819Y-65271190D01*
X202574819Y-65271190D02*
X202574819Y-65509285D01*
X202574819Y-63985476D02*
X202574819Y-64556904D01*
X202574819Y-64271190D02*
X201574819Y-64271190D01*
X201574819Y-64271190D02*
X201717676Y-64366428D01*
X201717676Y-64366428D02*
X201812914Y-64461666D01*
X201812914Y-64461666D02*
X201860533Y-64556904D01*
X201908152Y-63128333D02*
X202574819Y-63128333D01*
X201527200Y-63366428D02*
X202241485Y-63604523D01*
X202241485Y-63604523D02*
X202241485Y-62985476D01*
X246304819Y-102348333D02*
X247019104Y-102348333D01*
X247019104Y-102348333D02*
X247161961Y-102395952D01*
X247161961Y-102395952D02*
X247257200Y-102491190D01*
X247257200Y-102491190D02*
X247304819Y-102634047D01*
X247304819Y-102634047D02*
X247304819Y-102729285D01*
X246304819Y-101967380D02*
X246304819Y-101300714D01*
X246304819Y-101300714D02*
X247304819Y-101729285D01*
X218246666Y-116689819D02*
X218246666Y-117404104D01*
X218246666Y-117404104D02*
X218199047Y-117546961D01*
X218199047Y-117546961D02*
X218103809Y-117642200D01*
X218103809Y-117642200D02*
X217960952Y-117689819D01*
X217960952Y-117689819D02*
X217865714Y-117689819D01*
X219199047Y-116689819D02*
X218722857Y-116689819D01*
X218722857Y-116689819D02*
X218675238Y-117166009D01*
X218675238Y-117166009D02*
X218722857Y-117118390D01*
X218722857Y-117118390D02*
X218818095Y-117070771D01*
X218818095Y-117070771D02*
X219056190Y-117070771D01*
X219056190Y-117070771D02*
X219151428Y-117118390D01*
X219151428Y-117118390D02*
X219199047Y-117166009D01*
X219199047Y-117166009D02*
X219246666Y-117261247D01*
X219246666Y-117261247D02*
X219246666Y-117499342D01*
X219246666Y-117499342D02*
X219199047Y-117594580D01*
X219199047Y-117594580D02*
X219151428Y-117642200D01*
X219151428Y-117642200D02*
X219056190Y-117689819D01*
X219056190Y-117689819D02*
X218818095Y-117689819D01*
X218818095Y-117689819D02*
X218722857Y-117642200D01*
X218722857Y-117642200D02*
X218675238Y-117594580D01*
X223834819Y-95181785D02*
X222834819Y-95181785D01*
X222834819Y-95181785D02*
X222834819Y-94943690D01*
X222834819Y-94943690D02*
X222882438Y-94800833D01*
X222882438Y-94800833D02*
X222977676Y-94705595D01*
X222977676Y-94705595D02*
X223072914Y-94657976D01*
X223072914Y-94657976D02*
X223263390Y-94610357D01*
X223263390Y-94610357D02*
X223406247Y-94610357D01*
X223406247Y-94610357D02*
X223596723Y-94657976D01*
X223596723Y-94657976D02*
X223691961Y-94705595D01*
X223691961Y-94705595D02*
X223787200Y-94800833D01*
X223787200Y-94800833D02*
X223834819Y-94943690D01*
X223834819Y-94943690D02*
X223834819Y-95181785D01*
X222930057Y-94229404D02*
X222882438Y-94181785D01*
X222882438Y-94181785D02*
X222834819Y-94086547D01*
X222834819Y-94086547D02*
X222834819Y-93848452D01*
X222834819Y-93848452D02*
X222882438Y-93753214D01*
X222882438Y-93753214D02*
X222930057Y-93705595D01*
X222930057Y-93705595D02*
X223025295Y-93657976D01*
X223025295Y-93657976D02*
X223120533Y-93657976D01*
X223120533Y-93657976D02*
X223263390Y-93705595D01*
X223263390Y-93705595D02*
X223834819Y-94277023D01*
X223834819Y-94277023D02*
X223834819Y-93657976D01*
X223834819Y-92705595D02*
X223834819Y-93277023D01*
X223834819Y-92991309D02*
X222834819Y-92991309D01*
X222834819Y-92991309D02*
X222977676Y-93086547D01*
X222977676Y-93086547D02*
X223072914Y-93181785D01*
X223072914Y-93181785D02*
X223120533Y-93277023D01*
X168079580Y-61494999D02*
X168127200Y-61447380D01*
X168127200Y-61447380D02*
X168174819Y-61494999D01*
X168174819Y-61494999D02*
X168127200Y-61542618D01*
X168127200Y-61542618D02*
X168079580Y-61494999D01*
X168079580Y-61494999D02*
X168174819Y-61494999D01*
X233504819Y-94763094D02*
X232504819Y-94763094D01*
X232504819Y-94763094D02*
X232504819Y-94524999D01*
X232504819Y-94524999D02*
X232552438Y-94382142D01*
X232552438Y-94382142D02*
X232647676Y-94286904D01*
X232647676Y-94286904D02*
X232742914Y-94239285D01*
X232742914Y-94239285D02*
X232933390Y-94191666D01*
X232933390Y-94191666D02*
X233076247Y-94191666D01*
X233076247Y-94191666D02*
X233266723Y-94239285D01*
X233266723Y-94239285D02*
X233361961Y-94286904D01*
X233361961Y-94286904D02*
X233457200Y-94382142D01*
X233457200Y-94382142D02*
X233504819Y-94524999D01*
X233504819Y-94524999D02*
X233504819Y-94763094D01*
X232600057Y-93810713D02*
X232552438Y-93763094D01*
X232552438Y-93763094D02*
X232504819Y-93667856D01*
X232504819Y-93667856D02*
X232504819Y-93429761D01*
X232504819Y-93429761D02*
X232552438Y-93334523D01*
X232552438Y-93334523D02*
X232600057Y-93286904D01*
X232600057Y-93286904D02*
X232695295Y-93239285D01*
X232695295Y-93239285D02*
X232790533Y-93239285D01*
X232790533Y-93239285D02*
X232933390Y-93286904D01*
X232933390Y-93286904D02*
X233504819Y-93858332D01*
X233504819Y-93858332D02*
X233504819Y-93239285D01*
X176477142Y-53064580D02*
X176429523Y-53112200D01*
X176429523Y-53112200D02*
X176286666Y-53159819D01*
X176286666Y-53159819D02*
X176191428Y-53159819D01*
X176191428Y-53159819D02*
X176048571Y-53112200D01*
X176048571Y-53112200D02*
X175953333Y-53016961D01*
X175953333Y-53016961D02*
X175905714Y-52921723D01*
X175905714Y-52921723D02*
X175858095Y-52731247D01*
X175858095Y-52731247D02*
X175858095Y-52588390D01*
X175858095Y-52588390D02*
X175905714Y-52397914D01*
X175905714Y-52397914D02*
X175953333Y-52302676D01*
X175953333Y-52302676D02*
X176048571Y-52207438D01*
X176048571Y-52207438D02*
X176191428Y-52159819D01*
X176191428Y-52159819D02*
X176286666Y-52159819D01*
X176286666Y-52159819D02*
X176429523Y-52207438D01*
X176429523Y-52207438D02*
X176477142Y-52255057D01*
X177429523Y-53159819D02*
X176858095Y-53159819D01*
X177143809Y-53159819D02*
X177143809Y-52159819D01*
X177143809Y-52159819D02*
X177048571Y-52302676D01*
X177048571Y-52302676D02*
X176953333Y-52397914D01*
X176953333Y-52397914D02*
X176858095Y-52445533D01*
X178286666Y-52159819D02*
X178096190Y-52159819D01*
X178096190Y-52159819D02*
X178000952Y-52207438D01*
X178000952Y-52207438D02*
X177953333Y-52255057D01*
X177953333Y-52255057D02*
X177858095Y-52397914D01*
X177858095Y-52397914D02*
X177810476Y-52588390D01*
X177810476Y-52588390D02*
X177810476Y-52969342D01*
X177810476Y-52969342D02*
X177858095Y-53064580D01*
X177858095Y-53064580D02*
X177905714Y-53112200D01*
X177905714Y-53112200D02*
X178000952Y-53159819D01*
X178000952Y-53159819D02*
X178191428Y-53159819D01*
X178191428Y-53159819D02*
X178286666Y-53112200D01*
X178286666Y-53112200D02*
X178334285Y-53064580D01*
X178334285Y-53064580D02*
X178381904Y-52969342D01*
X178381904Y-52969342D02*
X178381904Y-52731247D01*
X178381904Y-52731247D02*
X178334285Y-52636009D01*
X178334285Y-52636009D02*
X178286666Y-52588390D01*
X178286666Y-52588390D02*
X178191428Y-52540771D01*
X178191428Y-52540771D02*
X178000952Y-52540771D01*
X178000952Y-52540771D02*
X177905714Y-52588390D01*
X177905714Y-52588390D02*
X177858095Y-52636009D01*
X177858095Y-52636009D02*
X177810476Y-52731247D01*
X176179999Y-54231033D02*
X175779999Y-54231033D01*
X175979999Y-54231033D02*
X175979999Y-53531033D01*
X175979999Y-53531033D02*
X175913332Y-53631033D01*
X175913332Y-53631033D02*
X175846666Y-53697700D01*
X175846666Y-53697700D02*
X175779999Y-53731033D01*
X176613333Y-53531033D02*
X176679999Y-53531033D01*
X176679999Y-53531033D02*
X176746666Y-53564366D01*
X176746666Y-53564366D02*
X176779999Y-53597700D01*
X176779999Y-53597700D02*
X176813333Y-53664366D01*
X176813333Y-53664366D02*
X176846666Y-53797700D01*
X176846666Y-53797700D02*
X176846666Y-53964366D01*
X176846666Y-53964366D02*
X176813333Y-54097700D01*
X176813333Y-54097700D02*
X176779999Y-54164366D01*
X176779999Y-54164366D02*
X176746666Y-54197700D01*
X176746666Y-54197700D02*
X176679999Y-54231033D01*
X176679999Y-54231033D02*
X176613333Y-54231033D01*
X176613333Y-54231033D02*
X176546666Y-54197700D01*
X176546666Y-54197700D02*
X176513333Y-54164366D01*
X176513333Y-54164366D02*
X176479999Y-54097700D01*
X176479999Y-54097700D02*
X176446666Y-53964366D01*
X176446666Y-53964366D02*
X176446666Y-53797700D01*
X176446666Y-53797700D02*
X176479999Y-53664366D01*
X176479999Y-53664366D02*
X176513333Y-53597700D01*
X176513333Y-53597700D02*
X176546666Y-53564366D01*
X176546666Y-53564366D02*
X176613333Y-53531033D01*
X177280000Y-53531033D02*
X177346666Y-53531033D01*
X177346666Y-53531033D02*
X177413333Y-53564366D01*
X177413333Y-53564366D02*
X177446666Y-53597700D01*
X177446666Y-53597700D02*
X177480000Y-53664366D01*
X177480000Y-53664366D02*
X177513333Y-53797700D01*
X177513333Y-53797700D02*
X177513333Y-53964366D01*
X177513333Y-53964366D02*
X177480000Y-54097700D01*
X177480000Y-54097700D02*
X177446666Y-54164366D01*
X177446666Y-54164366D02*
X177413333Y-54197700D01*
X177413333Y-54197700D02*
X177346666Y-54231033D01*
X177346666Y-54231033D02*
X177280000Y-54231033D01*
X177280000Y-54231033D02*
X177213333Y-54197700D01*
X177213333Y-54197700D02*
X177180000Y-54164366D01*
X177180000Y-54164366D02*
X177146666Y-54097700D01*
X177146666Y-54097700D02*
X177113333Y-53964366D01*
X177113333Y-53964366D02*
X177113333Y-53797700D01*
X177113333Y-53797700D02*
X177146666Y-53664366D01*
X177146666Y-53664366D02*
X177180000Y-53597700D01*
X177180000Y-53597700D02*
X177213333Y-53564366D01*
X177213333Y-53564366D02*
X177280000Y-53531033D01*
X177946667Y-53531033D02*
X178013333Y-53531033D01*
X178013333Y-53531033D02*
X178080000Y-53564366D01*
X178080000Y-53564366D02*
X178113333Y-53597700D01*
X178113333Y-53597700D02*
X178146667Y-53664366D01*
X178146667Y-53664366D02*
X178180000Y-53797700D01*
X178180000Y-53797700D02*
X178180000Y-53964366D01*
X178180000Y-53964366D02*
X178146667Y-54097700D01*
X178146667Y-54097700D02*
X178113333Y-54164366D01*
X178113333Y-54164366D02*
X178080000Y-54197700D01*
X178080000Y-54197700D02*
X178013333Y-54231033D01*
X178013333Y-54231033D02*
X177946667Y-54231033D01*
X177946667Y-54231033D02*
X177880000Y-54197700D01*
X177880000Y-54197700D02*
X177846667Y-54164366D01*
X177846667Y-54164366D02*
X177813333Y-54097700D01*
X177813333Y-54097700D02*
X177780000Y-53964366D01*
X177780000Y-53964366D02*
X177780000Y-53797700D01*
X177780000Y-53797700D02*
X177813333Y-53664366D01*
X177813333Y-53664366D02*
X177846667Y-53597700D01*
X177846667Y-53597700D02*
X177880000Y-53564366D01*
X177880000Y-53564366D02*
X177946667Y-53531033D01*
X178780000Y-53764366D02*
X178780000Y-54231033D01*
X178480000Y-53764366D02*
X178480000Y-54131033D01*
X178480000Y-54131033D02*
X178513334Y-54197700D01*
X178513334Y-54197700D02*
X178580000Y-54231033D01*
X178580000Y-54231033D02*
X178680000Y-54231033D01*
X178680000Y-54231033D02*
X178746667Y-54197700D01*
X178746667Y-54197700D02*
X178780000Y-54164366D01*
X179346667Y-53864366D02*
X179113333Y-53864366D01*
X179113333Y-54231033D02*
X179113333Y-53531033D01*
X179113333Y-53531033D02*
X179446667Y-53531033D01*
X179746667Y-54197700D02*
X179746667Y-54231033D01*
X179746667Y-54231033D02*
X179713333Y-54297700D01*
X179713333Y-54297700D02*
X179680000Y-54331033D01*
X180013333Y-53597700D02*
X180046666Y-53564366D01*
X180046666Y-53564366D02*
X180113333Y-53531033D01*
X180113333Y-53531033D02*
X180280000Y-53531033D01*
X180280000Y-53531033D02*
X180346666Y-53564366D01*
X180346666Y-53564366D02*
X180380000Y-53597700D01*
X180380000Y-53597700D02*
X180413333Y-53664366D01*
X180413333Y-53664366D02*
X180413333Y-53731033D01*
X180413333Y-53731033D02*
X180380000Y-53831033D01*
X180380000Y-53831033D02*
X179980000Y-54231033D01*
X179980000Y-54231033D02*
X180413333Y-54231033D01*
X181046667Y-53531033D02*
X180713333Y-53531033D01*
X180713333Y-53531033D02*
X180680000Y-53864366D01*
X180680000Y-53864366D02*
X180713333Y-53831033D01*
X180713333Y-53831033D02*
X180780000Y-53797700D01*
X180780000Y-53797700D02*
X180946667Y-53797700D01*
X180946667Y-53797700D02*
X181013333Y-53831033D01*
X181013333Y-53831033D02*
X181046667Y-53864366D01*
X181046667Y-53864366D02*
X181080000Y-53931033D01*
X181080000Y-53931033D02*
X181080000Y-54097700D01*
X181080000Y-54097700D02*
X181046667Y-54164366D01*
X181046667Y-54164366D02*
X181013333Y-54197700D01*
X181013333Y-54197700D02*
X180946667Y-54231033D01*
X180946667Y-54231033D02*
X180780000Y-54231033D01*
X180780000Y-54231033D02*
X180713333Y-54197700D01*
X180713333Y-54197700D02*
X180680000Y-54164366D01*
X181280000Y-53531033D02*
X181513334Y-54231033D01*
X181513334Y-54231033D02*
X181746667Y-53531033D01*
X245658095Y-65979819D02*
X245658095Y-66789342D01*
X245658095Y-66789342D02*
X245705714Y-66884580D01*
X245705714Y-66884580D02*
X245753333Y-66932200D01*
X245753333Y-66932200D02*
X245848571Y-66979819D01*
X245848571Y-66979819D02*
X246039047Y-66979819D01*
X246039047Y-66979819D02*
X246134285Y-66932200D01*
X246134285Y-66932200D02*
X246181904Y-66884580D01*
X246181904Y-66884580D02*
X246229523Y-66789342D01*
X246229523Y-66789342D02*
X246229523Y-65979819D01*
X247181904Y-65979819D02*
X246705714Y-65979819D01*
X246705714Y-65979819D02*
X246658095Y-66456009D01*
X246658095Y-66456009D02*
X246705714Y-66408390D01*
X246705714Y-66408390D02*
X246800952Y-66360771D01*
X246800952Y-66360771D02*
X247039047Y-66360771D01*
X247039047Y-66360771D02*
X247134285Y-66408390D01*
X247134285Y-66408390D02*
X247181904Y-66456009D01*
X247181904Y-66456009D02*
X247229523Y-66551247D01*
X247229523Y-66551247D02*
X247229523Y-66789342D01*
X247229523Y-66789342D02*
X247181904Y-66884580D01*
X247181904Y-66884580D02*
X247134285Y-66932200D01*
X247134285Y-66932200D02*
X247039047Y-66979819D01*
X247039047Y-66979819D02*
X246800952Y-66979819D01*
X246800952Y-66979819D02*
X246705714Y-66932200D01*
X246705714Y-66932200D02*
X246658095Y-66884580D01*
D17*
X221263335Y-32328667D02*
X222930002Y-32328667D01*
X220930002Y-33328667D02*
X222096669Y-29828667D01*
X222096669Y-29828667D02*
X223263335Y-33328667D01*
X224430002Y-30995334D02*
X224430002Y-33328667D01*
X224430002Y-31328667D02*
X224596669Y-31162001D01*
X224596669Y-31162001D02*
X224930002Y-30995334D01*
X224930002Y-30995334D02*
X225430002Y-30995334D01*
X225430002Y-30995334D02*
X225763335Y-31162001D01*
X225763335Y-31162001D02*
X225930002Y-31495334D01*
X225930002Y-31495334D02*
X225930002Y-33328667D01*
X227096669Y-30995334D02*
X228430002Y-30995334D01*
X227596669Y-29828667D02*
X227596669Y-32828667D01*
X227596669Y-32828667D02*
X227763336Y-33162001D01*
X227763336Y-33162001D02*
X228096669Y-33328667D01*
X228096669Y-33328667D02*
X228430002Y-33328667D01*
X230930002Y-33162001D02*
X230596669Y-33328667D01*
X230596669Y-33328667D02*
X229930002Y-33328667D01*
X229930002Y-33328667D02*
X229596669Y-33162001D01*
X229596669Y-33162001D02*
X229430002Y-32828667D01*
X229430002Y-32828667D02*
X229430002Y-31495334D01*
X229430002Y-31495334D02*
X229596669Y-31162001D01*
X229596669Y-31162001D02*
X229930002Y-30995334D01*
X229930002Y-30995334D02*
X230596669Y-30995334D01*
X230596669Y-30995334D02*
X230930002Y-31162001D01*
X230930002Y-31162001D02*
X231096669Y-31495334D01*
X231096669Y-31495334D02*
X231096669Y-31828667D01*
X231096669Y-31828667D02*
X229430002Y-32162001D01*
X232596669Y-30995334D02*
X232596669Y-33328667D01*
X232596669Y-31328667D02*
X232763336Y-31162001D01*
X232763336Y-31162001D02*
X233096669Y-30995334D01*
X233096669Y-30995334D02*
X233596669Y-30995334D01*
X233596669Y-30995334D02*
X233930002Y-31162001D01*
X233930002Y-31162001D02*
X234096669Y-31495334D01*
X234096669Y-31495334D02*
X234096669Y-33328667D01*
X235763336Y-30995334D02*
X235763336Y-33328667D01*
X235763336Y-31328667D02*
X235930003Y-31162001D01*
X235930003Y-31162001D02*
X236263336Y-30995334D01*
X236263336Y-30995334D02*
X236763336Y-30995334D01*
X236763336Y-30995334D02*
X237096669Y-31162001D01*
X237096669Y-31162001D02*
X237263336Y-31495334D01*
X237263336Y-31495334D02*
X237263336Y-33328667D01*
X240430003Y-33328667D02*
X240430003Y-31495334D01*
X240430003Y-31495334D02*
X240263336Y-31162001D01*
X240263336Y-31162001D02*
X239930003Y-30995334D01*
X239930003Y-30995334D02*
X239263336Y-30995334D01*
X239263336Y-30995334D02*
X238930003Y-31162001D01*
X240430003Y-33162001D02*
X240096670Y-33328667D01*
X240096670Y-33328667D02*
X239263336Y-33328667D01*
X239263336Y-33328667D02*
X238930003Y-33162001D01*
X238930003Y-33162001D02*
X238763336Y-32828667D01*
X238763336Y-32828667D02*
X238763336Y-32495334D01*
X238763336Y-32495334D02*
X238930003Y-32162001D01*
X238930003Y-32162001D02*
X239263336Y-31995334D01*
X239263336Y-31995334D02*
X240096670Y-31995334D01*
X240096670Y-31995334D02*
X240430003Y-31828667D01*
D18*
X225871431Y-78352285D02*
X225871431Y-81995142D01*
X225871431Y-81995142D02*
X226085717Y-82423714D01*
X226085717Y-82423714D02*
X226300003Y-82638000D01*
X226300003Y-82638000D02*
X226728574Y-82852285D01*
X226728574Y-82852285D02*
X227585717Y-82852285D01*
X227585717Y-82852285D02*
X228014288Y-82638000D01*
X228014288Y-82638000D02*
X228228574Y-82423714D01*
X228228574Y-82423714D02*
X228442860Y-81995142D01*
X228442860Y-81995142D02*
X228442860Y-78352285D01*
X230371431Y-82638000D02*
X231014289Y-82852285D01*
X231014289Y-82852285D02*
X232085717Y-82852285D01*
X232085717Y-82852285D02*
X232514289Y-82638000D01*
X232514289Y-82638000D02*
X232728574Y-82423714D01*
X232728574Y-82423714D02*
X232942860Y-81995142D01*
X232942860Y-81995142D02*
X232942860Y-81566571D01*
X232942860Y-81566571D02*
X232728574Y-81138000D01*
X232728574Y-81138000D02*
X232514289Y-80923714D01*
X232514289Y-80923714D02*
X232085717Y-80709428D01*
X232085717Y-80709428D02*
X231228574Y-80495142D01*
X231228574Y-80495142D02*
X230800003Y-80280857D01*
X230800003Y-80280857D02*
X230585717Y-80066571D01*
X230585717Y-80066571D02*
X230371431Y-79638000D01*
X230371431Y-79638000D02*
X230371431Y-79209428D01*
X230371431Y-79209428D02*
X230585717Y-78780857D01*
X230585717Y-78780857D02*
X230800003Y-78566571D01*
X230800003Y-78566571D02*
X231228574Y-78352285D01*
X231228574Y-78352285D02*
X232300003Y-78352285D01*
X232300003Y-78352285D02*
X232942860Y-78566571D01*
X236371431Y-80495142D02*
X237014288Y-80709428D01*
X237014288Y-80709428D02*
X237228574Y-80923714D01*
X237228574Y-80923714D02*
X237442860Y-81352285D01*
X237442860Y-81352285D02*
X237442860Y-81995142D01*
X237442860Y-81995142D02*
X237228574Y-82423714D01*
X237228574Y-82423714D02*
X237014288Y-82638000D01*
X237014288Y-82638000D02*
X236585717Y-82852285D01*
X236585717Y-82852285D02*
X234871431Y-82852285D01*
X234871431Y-82852285D02*
X234871431Y-78352285D01*
X234871431Y-78352285D02*
X236371431Y-78352285D01*
X236371431Y-78352285D02*
X236800003Y-78566571D01*
X236800003Y-78566571D02*
X237014288Y-78780857D01*
X237014288Y-78780857D02*
X237228574Y-79209428D01*
X237228574Y-79209428D02*
X237228574Y-79638000D01*
X237228574Y-79638000D02*
X237014288Y-80066571D01*
X237014288Y-80066571D02*
X236800003Y-80280857D01*
X236800003Y-80280857D02*
X236371431Y-80495142D01*
X236371431Y-80495142D02*
X234871431Y-80495142D01*
D16*
X223427142Y-35676009D02*
X223760475Y-35676009D01*
X223903332Y-36199819D02*
X223427142Y-36199819D01*
X223427142Y-36199819D02*
X223427142Y-35199819D01*
X223427142Y-35199819D02*
X223903332Y-35199819D01*
X224284285Y-36152200D02*
X224427142Y-36199819D01*
X224427142Y-36199819D02*
X224665237Y-36199819D01*
X224665237Y-36199819D02*
X224760475Y-36152200D01*
X224760475Y-36152200D02*
X224808094Y-36104580D01*
X224808094Y-36104580D02*
X224855713Y-36009342D01*
X224855713Y-36009342D02*
X224855713Y-35914104D01*
X224855713Y-35914104D02*
X224808094Y-35818866D01*
X224808094Y-35818866D02*
X224760475Y-35771247D01*
X224760475Y-35771247D02*
X224665237Y-35723628D01*
X224665237Y-35723628D02*
X224474761Y-35676009D01*
X224474761Y-35676009D02*
X224379523Y-35628390D01*
X224379523Y-35628390D02*
X224331904Y-35580771D01*
X224331904Y-35580771D02*
X224284285Y-35485533D01*
X224284285Y-35485533D02*
X224284285Y-35390295D01*
X224284285Y-35390295D02*
X224331904Y-35295057D01*
X224331904Y-35295057D02*
X224379523Y-35247438D01*
X224379523Y-35247438D02*
X224474761Y-35199819D01*
X224474761Y-35199819D02*
X224712856Y-35199819D01*
X224712856Y-35199819D02*
X224855713Y-35247438D01*
X225284285Y-36199819D02*
X225284285Y-35199819D01*
X225284285Y-35199819D02*
X225665237Y-35199819D01*
X225665237Y-35199819D02*
X225760475Y-35247438D01*
X225760475Y-35247438D02*
X225808094Y-35295057D01*
X225808094Y-35295057D02*
X225855713Y-35390295D01*
X225855713Y-35390295D02*
X225855713Y-35533152D01*
X225855713Y-35533152D02*
X225808094Y-35628390D01*
X225808094Y-35628390D02*
X225760475Y-35676009D01*
X225760475Y-35676009D02*
X225665237Y-35723628D01*
X225665237Y-35723628D02*
X225284285Y-35723628D01*
X226189047Y-35199819D02*
X226808094Y-35199819D01*
X226808094Y-35199819D02*
X226474761Y-35580771D01*
X226474761Y-35580771D02*
X226617618Y-35580771D01*
X226617618Y-35580771D02*
X226712856Y-35628390D01*
X226712856Y-35628390D02*
X226760475Y-35676009D01*
X226760475Y-35676009D02*
X226808094Y-35771247D01*
X226808094Y-35771247D02*
X226808094Y-36009342D01*
X226808094Y-36009342D02*
X226760475Y-36104580D01*
X226760475Y-36104580D02*
X226712856Y-36152200D01*
X226712856Y-36152200D02*
X226617618Y-36199819D01*
X226617618Y-36199819D02*
X226331904Y-36199819D01*
X226331904Y-36199819D02*
X226236666Y-36152200D01*
X226236666Y-36152200D02*
X226189047Y-36104580D01*
X227189047Y-35295057D02*
X227236666Y-35247438D01*
X227236666Y-35247438D02*
X227331904Y-35199819D01*
X227331904Y-35199819D02*
X227569999Y-35199819D01*
X227569999Y-35199819D02*
X227665237Y-35247438D01*
X227665237Y-35247438D02*
X227712856Y-35295057D01*
X227712856Y-35295057D02*
X227760475Y-35390295D01*
X227760475Y-35390295D02*
X227760475Y-35485533D01*
X227760475Y-35485533D02*
X227712856Y-35628390D01*
X227712856Y-35628390D02*
X227141428Y-36199819D01*
X227141428Y-36199819D02*
X227760475Y-36199819D01*
X228950952Y-35818866D02*
X229712857Y-35818866D01*
X230950952Y-36199819D02*
X230950952Y-35199819D01*
X230950952Y-35199819D02*
X231189047Y-35199819D01*
X231189047Y-35199819D02*
X231331904Y-35247438D01*
X231331904Y-35247438D02*
X231427142Y-35342676D01*
X231427142Y-35342676D02*
X231474761Y-35437914D01*
X231474761Y-35437914D02*
X231522380Y-35628390D01*
X231522380Y-35628390D02*
X231522380Y-35771247D01*
X231522380Y-35771247D02*
X231474761Y-35961723D01*
X231474761Y-35961723D02*
X231427142Y-36056961D01*
X231427142Y-36056961D02*
X231331904Y-36152200D01*
X231331904Y-36152200D02*
X231189047Y-36199819D01*
X231189047Y-36199819D02*
X230950952Y-36199819D01*
X232331904Y-36152200D02*
X232236666Y-36199819D01*
X232236666Y-36199819D02*
X232046190Y-36199819D01*
X232046190Y-36199819D02*
X231950952Y-36152200D01*
X231950952Y-36152200D02*
X231903333Y-36056961D01*
X231903333Y-36056961D02*
X231903333Y-35676009D01*
X231903333Y-35676009D02*
X231950952Y-35580771D01*
X231950952Y-35580771D02*
X232046190Y-35533152D01*
X232046190Y-35533152D02*
X232236666Y-35533152D01*
X232236666Y-35533152D02*
X232331904Y-35580771D01*
X232331904Y-35580771D02*
X232379523Y-35676009D01*
X232379523Y-35676009D02*
X232379523Y-35771247D01*
X232379523Y-35771247D02*
X231903333Y-35866485D01*
X232712857Y-35533152D02*
X232950952Y-36199819D01*
X232950952Y-36199819D02*
X233189047Y-35533152D01*
X234331905Y-36199819D02*
X234331905Y-35199819D01*
X234903333Y-36199819D02*
X234474762Y-35628390D01*
X234903333Y-35199819D02*
X234331905Y-35771247D01*
X235331905Y-36199819D02*
X235331905Y-35533152D01*
X235331905Y-35199819D02*
X235284286Y-35247438D01*
X235284286Y-35247438D02*
X235331905Y-35295057D01*
X235331905Y-35295057D02*
X235379524Y-35247438D01*
X235379524Y-35247438D02*
X235331905Y-35199819D01*
X235331905Y-35199819D02*
X235331905Y-35295057D01*
X235665238Y-35533152D02*
X236046190Y-35533152D01*
X235808095Y-35199819D02*
X235808095Y-36056961D01*
X235808095Y-36056961D02*
X235855714Y-36152200D01*
X235855714Y-36152200D02*
X235950952Y-36199819D01*
X235950952Y-36199819D02*
X236046190Y-36199819D01*
X237046191Y-35199819D02*
X237665238Y-35199819D01*
X237665238Y-35199819D02*
X237331905Y-35580771D01*
X237331905Y-35580771D02*
X237474762Y-35580771D01*
X237474762Y-35580771D02*
X237570000Y-35628390D01*
X237570000Y-35628390D02*
X237617619Y-35676009D01*
X237617619Y-35676009D02*
X237665238Y-35771247D01*
X237665238Y-35771247D02*
X237665238Y-36009342D01*
X237665238Y-36009342D02*
X237617619Y-36104580D01*
X237617619Y-36104580D02*
X237570000Y-36152200D01*
X237570000Y-36152200D02*
X237474762Y-36199819D01*
X237474762Y-36199819D02*
X237189048Y-36199819D01*
X237189048Y-36199819D02*
X237093810Y-36152200D01*
X237093810Y-36152200D02*
X237046191Y-36104580D01*
X238284286Y-35199819D02*
X238379524Y-35199819D01*
X238379524Y-35199819D02*
X238474762Y-35247438D01*
X238474762Y-35247438D02*
X238522381Y-35295057D01*
X238522381Y-35295057D02*
X238570000Y-35390295D01*
X238570000Y-35390295D02*
X238617619Y-35580771D01*
X238617619Y-35580771D02*
X238617619Y-35818866D01*
X238617619Y-35818866D02*
X238570000Y-36009342D01*
X238570000Y-36009342D02*
X238522381Y-36104580D01*
X238522381Y-36104580D02*
X238474762Y-36152200D01*
X238474762Y-36152200D02*
X238379524Y-36199819D01*
X238379524Y-36199819D02*
X238284286Y-36199819D01*
X238284286Y-36199819D02*
X238189048Y-36152200D01*
X238189048Y-36152200D02*
X238141429Y-36104580D01*
X238141429Y-36104580D02*
X238093810Y-36009342D01*
X238093810Y-36009342D02*
X238046191Y-35818866D01*
X238046191Y-35818866D02*
X238046191Y-35580771D01*
X238046191Y-35580771D02*
X238093810Y-35390295D01*
X238093810Y-35390295D02*
X238141429Y-35295057D01*
X238141429Y-35295057D02*
X238189048Y-35247438D01*
X238189048Y-35247438D02*
X238284286Y-35199819D01*
X239808096Y-36199819D02*
X239808096Y-35199819D01*
X239808096Y-35199819D02*
X240189048Y-35199819D01*
X240189048Y-35199819D02*
X240284286Y-35247438D01*
X240284286Y-35247438D02*
X240331905Y-35295057D01*
X240331905Y-35295057D02*
X240379524Y-35390295D01*
X240379524Y-35390295D02*
X240379524Y-35533152D01*
X240379524Y-35533152D02*
X240331905Y-35628390D01*
X240331905Y-35628390D02*
X240284286Y-35676009D01*
X240284286Y-35676009D02*
X240189048Y-35723628D01*
X240189048Y-35723628D02*
X239808096Y-35723628D01*
X240808096Y-36199819D02*
X240808096Y-35533152D01*
X240808096Y-35199819D02*
X240760477Y-35247438D01*
X240760477Y-35247438D02*
X240808096Y-35295057D01*
X240808096Y-35295057D02*
X240855715Y-35247438D01*
X240855715Y-35247438D02*
X240808096Y-35199819D01*
X240808096Y-35199819D02*
X240808096Y-35295057D01*
X241284286Y-35533152D02*
X241284286Y-36199819D01*
X241284286Y-35628390D02*
X241331905Y-35580771D01*
X241331905Y-35580771D02*
X241427143Y-35533152D01*
X241427143Y-35533152D02*
X241570000Y-35533152D01*
X241570000Y-35533152D02*
X241665238Y-35580771D01*
X241665238Y-35580771D02*
X241712857Y-35676009D01*
X241712857Y-35676009D02*
X241712857Y-36199819D01*
X208394819Y-65509285D02*
X207394819Y-65509285D01*
X207394819Y-65509285D02*
X207394819Y-65271190D01*
X207394819Y-65271190D02*
X207442438Y-65128333D01*
X207442438Y-65128333D02*
X207537676Y-65033095D01*
X207537676Y-65033095D02*
X207632914Y-64985476D01*
X207632914Y-64985476D02*
X207823390Y-64937857D01*
X207823390Y-64937857D02*
X207966247Y-64937857D01*
X207966247Y-64937857D02*
X208156723Y-64985476D01*
X208156723Y-64985476D02*
X208251961Y-65033095D01*
X208251961Y-65033095D02*
X208347200Y-65128333D01*
X208347200Y-65128333D02*
X208394819Y-65271190D01*
X208394819Y-65271190D02*
X208394819Y-65509285D01*
X208394819Y-63985476D02*
X208394819Y-64556904D01*
X208394819Y-64271190D02*
X207394819Y-64271190D01*
X207394819Y-64271190D02*
X207537676Y-64366428D01*
X207537676Y-64366428D02*
X207632914Y-64461666D01*
X207632914Y-64461666D02*
X207680533Y-64556904D01*
X207394819Y-63080714D02*
X207394819Y-63556904D01*
X207394819Y-63556904D02*
X207871009Y-63604523D01*
X207871009Y-63604523D02*
X207823390Y-63556904D01*
X207823390Y-63556904D02*
X207775771Y-63461666D01*
X207775771Y-63461666D02*
X207775771Y-63223571D01*
X207775771Y-63223571D02*
X207823390Y-63128333D01*
X207823390Y-63128333D02*
X207871009Y-63080714D01*
X207871009Y-63080714D02*
X207966247Y-63033095D01*
X207966247Y-63033095D02*
X208204342Y-63033095D01*
X208204342Y-63033095D02*
X208299580Y-63080714D01*
X208299580Y-63080714D02*
X208347200Y-63128333D01*
X208347200Y-63128333D02*
X208394819Y-63223571D01*
X208394819Y-63223571D02*
X208394819Y-63461666D01*
X208394819Y-63461666D02*
X208347200Y-63556904D01*
X208347200Y-63556904D02*
X208299580Y-63604523D01*
X197274819Y-65509285D02*
X196274819Y-65509285D01*
X196274819Y-65509285D02*
X196274819Y-65271190D01*
X196274819Y-65271190D02*
X196322438Y-65128333D01*
X196322438Y-65128333D02*
X196417676Y-65033095D01*
X196417676Y-65033095D02*
X196512914Y-64985476D01*
X196512914Y-64985476D02*
X196703390Y-64937857D01*
X196703390Y-64937857D02*
X196846247Y-64937857D01*
X196846247Y-64937857D02*
X197036723Y-64985476D01*
X197036723Y-64985476D02*
X197131961Y-65033095D01*
X197131961Y-65033095D02*
X197227200Y-65128333D01*
X197227200Y-65128333D02*
X197274819Y-65271190D01*
X197274819Y-65271190D02*
X197274819Y-65509285D01*
X197274819Y-63985476D02*
X197274819Y-64556904D01*
X197274819Y-64271190D02*
X196274819Y-64271190D01*
X196274819Y-64271190D02*
X196417676Y-64366428D01*
X196417676Y-64366428D02*
X196512914Y-64461666D01*
X196512914Y-64461666D02*
X196560533Y-64556904D01*
X196370057Y-63604523D02*
X196322438Y-63556904D01*
X196322438Y-63556904D02*
X196274819Y-63461666D01*
X196274819Y-63461666D02*
X196274819Y-63223571D01*
X196274819Y-63223571D02*
X196322438Y-63128333D01*
X196322438Y-63128333D02*
X196370057Y-63080714D01*
X196370057Y-63080714D02*
X196465295Y-63033095D01*
X196465295Y-63033095D02*
X196560533Y-63033095D01*
X196560533Y-63033095D02*
X196703390Y-63080714D01*
X196703390Y-63080714D02*
X197274819Y-63652142D01*
X197274819Y-63652142D02*
X197274819Y-63033095D01*
X218754819Y-95251785D02*
X217754819Y-95251785D01*
X217754819Y-95251785D02*
X217754819Y-95013690D01*
X217754819Y-95013690D02*
X217802438Y-94870833D01*
X217802438Y-94870833D02*
X217897676Y-94775595D01*
X217897676Y-94775595D02*
X217992914Y-94727976D01*
X217992914Y-94727976D02*
X218183390Y-94680357D01*
X218183390Y-94680357D02*
X218326247Y-94680357D01*
X218326247Y-94680357D02*
X218516723Y-94727976D01*
X218516723Y-94727976D02*
X218611961Y-94775595D01*
X218611961Y-94775595D02*
X218707200Y-94870833D01*
X218707200Y-94870833D02*
X218754819Y-95013690D01*
X218754819Y-95013690D02*
X218754819Y-95251785D01*
X217850057Y-94299404D02*
X217802438Y-94251785D01*
X217802438Y-94251785D02*
X217754819Y-94156547D01*
X217754819Y-94156547D02*
X217754819Y-93918452D01*
X217754819Y-93918452D02*
X217802438Y-93823214D01*
X217802438Y-93823214D02*
X217850057Y-93775595D01*
X217850057Y-93775595D02*
X217945295Y-93727976D01*
X217945295Y-93727976D02*
X218040533Y-93727976D01*
X218040533Y-93727976D02*
X218183390Y-93775595D01*
X218183390Y-93775595D02*
X218754819Y-94347023D01*
X218754819Y-94347023D02*
X218754819Y-93727976D01*
X217754819Y-93108928D02*
X217754819Y-93013690D01*
X217754819Y-93013690D02*
X217802438Y-92918452D01*
X217802438Y-92918452D02*
X217850057Y-92870833D01*
X217850057Y-92870833D02*
X217945295Y-92823214D01*
X217945295Y-92823214D02*
X218135771Y-92775595D01*
X218135771Y-92775595D02*
X218373866Y-92775595D01*
X218373866Y-92775595D02*
X218564342Y-92823214D01*
X218564342Y-92823214D02*
X218659580Y-92870833D01*
X218659580Y-92870833D02*
X218707200Y-92918452D01*
X218707200Y-92918452D02*
X218754819Y-93013690D01*
X218754819Y-93013690D02*
X218754819Y-93108928D01*
X218754819Y-93108928D02*
X218707200Y-93204166D01*
X218707200Y-93204166D02*
X218659580Y-93251785D01*
X218659580Y-93251785D02*
X218564342Y-93299404D01*
X218564342Y-93299404D02*
X218373866Y-93347023D01*
X218373866Y-93347023D02*
X218135771Y-93347023D01*
X218135771Y-93347023D02*
X217945295Y-93299404D01*
X217945295Y-93299404D02*
X217850057Y-93251785D01*
X217850057Y-93251785D02*
X217802438Y-93204166D01*
X217802438Y-93204166D02*
X217754819Y-93108928D01*
X212394819Y-94845594D02*
X211394819Y-94845594D01*
X211394819Y-94845594D02*
X211394819Y-94607499D01*
X211394819Y-94607499D02*
X211442438Y-94464642D01*
X211442438Y-94464642D02*
X211537676Y-94369404D01*
X211537676Y-94369404D02*
X211632914Y-94321785D01*
X211632914Y-94321785D02*
X211823390Y-94274166D01*
X211823390Y-94274166D02*
X211966247Y-94274166D01*
X211966247Y-94274166D02*
X212156723Y-94321785D01*
X212156723Y-94321785D02*
X212251961Y-94369404D01*
X212251961Y-94369404D02*
X212347200Y-94464642D01*
X212347200Y-94464642D02*
X212394819Y-94607499D01*
X212394819Y-94607499D02*
X212394819Y-94845594D01*
X211394819Y-93940832D02*
X211394819Y-93274166D01*
X211394819Y-93274166D02*
X212394819Y-93702737D01*
X207371905Y-94609819D02*
X207371905Y-93609819D01*
X207943333Y-94609819D02*
X207514762Y-94038390D01*
X207943333Y-93609819D02*
X207371905Y-94181247D01*
X208800476Y-93609819D02*
X208610000Y-93609819D01*
X208610000Y-93609819D02*
X208514762Y-93657438D01*
X208514762Y-93657438D02*
X208467143Y-93705057D01*
X208467143Y-93705057D02*
X208371905Y-93847914D01*
X208371905Y-93847914D02*
X208324286Y-94038390D01*
X208324286Y-94038390D02*
X208324286Y-94419342D01*
X208324286Y-94419342D02*
X208371905Y-94514580D01*
X208371905Y-94514580D02*
X208419524Y-94562200D01*
X208419524Y-94562200D02*
X208514762Y-94609819D01*
X208514762Y-94609819D02*
X208705238Y-94609819D01*
X208705238Y-94609819D02*
X208800476Y-94562200D01*
X208800476Y-94562200D02*
X208848095Y-94514580D01*
X208848095Y-94514580D02*
X208895714Y-94419342D01*
X208895714Y-94419342D02*
X208895714Y-94181247D01*
X208895714Y-94181247D02*
X208848095Y-94086009D01*
X208848095Y-94086009D02*
X208800476Y-94038390D01*
X208800476Y-94038390D02*
X208705238Y-93990771D01*
X208705238Y-93990771D02*
X208514762Y-93990771D01*
X208514762Y-93990771D02*
X208419524Y-94038390D01*
X208419524Y-94038390D02*
X208371905Y-94086009D01*
X208371905Y-94086009D02*
X208324286Y-94181247D01*
X207311905Y-74109819D02*
X207311905Y-73109819D01*
X207883333Y-74109819D02*
X207454762Y-73538390D01*
X207883333Y-73109819D02*
X207311905Y-73681247D01*
X208788095Y-73109819D02*
X208311905Y-73109819D01*
X208311905Y-73109819D02*
X208264286Y-73586009D01*
X208264286Y-73586009D02*
X208311905Y-73538390D01*
X208311905Y-73538390D02*
X208407143Y-73490771D01*
X208407143Y-73490771D02*
X208645238Y-73490771D01*
X208645238Y-73490771D02*
X208740476Y-73538390D01*
X208740476Y-73538390D02*
X208788095Y-73586009D01*
X208788095Y-73586009D02*
X208835714Y-73681247D01*
X208835714Y-73681247D02*
X208835714Y-73919342D01*
X208835714Y-73919342D02*
X208788095Y-74014580D01*
X208788095Y-74014580D02*
X208740476Y-74062200D01*
X208740476Y-74062200D02*
X208645238Y-74109819D01*
X208645238Y-74109819D02*
X208407143Y-74109819D01*
X208407143Y-74109819D02*
X208311905Y-74062200D01*
X208311905Y-74062200D02*
X208264286Y-74014580D01*
X171253333Y-29304580D02*
X171205714Y-29352200D01*
X171205714Y-29352200D02*
X171062857Y-29399819D01*
X171062857Y-29399819D02*
X170967619Y-29399819D01*
X170967619Y-29399819D02*
X170824762Y-29352200D01*
X170824762Y-29352200D02*
X170729524Y-29256961D01*
X170729524Y-29256961D02*
X170681905Y-29161723D01*
X170681905Y-29161723D02*
X170634286Y-28971247D01*
X170634286Y-28971247D02*
X170634286Y-28828390D01*
X170634286Y-28828390D02*
X170681905Y-28637914D01*
X170681905Y-28637914D02*
X170729524Y-28542676D01*
X170729524Y-28542676D02*
X170824762Y-28447438D01*
X170824762Y-28447438D02*
X170967619Y-28399819D01*
X170967619Y-28399819D02*
X171062857Y-28399819D01*
X171062857Y-28399819D02*
X171205714Y-28447438D01*
X171205714Y-28447438D02*
X171253333Y-28495057D01*
X172158095Y-28399819D02*
X171681905Y-28399819D01*
X171681905Y-28399819D02*
X171634286Y-28876009D01*
X171634286Y-28876009D02*
X171681905Y-28828390D01*
X171681905Y-28828390D02*
X171777143Y-28780771D01*
X171777143Y-28780771D02*
X172015238Y-28780771D01*
X172015238Y-28780771D02*
X172110476Y-28828390D01*
X172110476Y-28828390D02*
X172158095Y-28876009D01*
X172158095Y-28876009D02*
X172205714Y-28971247D01*
X172205714Y-28971247D02*
X172205714Y-29209342D01*
X172205714Y-29209342D02*
X172158095Y-29304580D01*
X172158095Y-29304580D02*
X172110476Y-29352200D01*
X172110476Y-29352200D02*
X172015238Y-29399819D01*
X172015238Y-29399819D02*
X171777143Y-29399819D01*
X171777143Y-29399819D02*
X171681905Y-29352200D01*
X171681905Y-29352200D02*
X171634286Y-29304580D01*
X169473333Y-30621033D02*
X169073333Y-30621033D01*
X169273333Y-30621033D02*
X169273333Y-29921033D01*
X169273333Y-29921033D02*
X169206666Y-30021033D01*
X169206666Y-30021033D02*
X169140000Y-30087700D01*
X169140000Y-30087700D02*
X169073333Y-30121033D01*
X169906667Y-29921033D02*
X169973333Y-29921033D01*
X169973333Y-29921033D02*
X170040000Y-29954366D01*
X170040000Y-29954366D02*
X170073333Y-29987700D01*
X170073333Y-29987700D02*
X170106667Y-30054366D01*
X170106667Y-30054366D02*
X170140000Y-30187700D01*
X170140000Y-30187700D02*
X170140000Y-30354366D01*
X170140000Y-30354366D02*
X170106667Y-30487700D01*
X170106667Y-30487700D02*
X170073333Y-30554366D01*
X170073333Y-30554366D02*
X170040000Y-30587700D01*
X170040000Y-30587700D02*
X169973333Y-30621033D01*
X169973333Y-30621033D02*
X169906667Y-30621033D01*
X169906667Y-30621033D02*
X169840000Y-30587700D01*
X169840000Y-30587700D02*
X169806667Y-30554366D01*
X169806667Y-30554366D02*
X169773333Y-30487700D01*
X169773333Y-30487700D02*
X169740000Y-30354366D01*
X169740000Y-30354366D02*
X169740000Y-30187700D01*
X169740000Y-30187700D02*
X169773333Y-30054366D01*
X169773333Y-30054366D02*
X169806667Y-29987700D01*
X169806667Y-29987700D02*
X169840000Y-29954366D01*
X169840000Y-29954366D02*
X169906667Y-29921033D01*
X170573334Y-29921033D02*
X170640000Y-29921033D01*
X170640000Y-29921033D02*
X170706667Y-29954366D01*
X170706667Y-29954366D02*
X170740000Y-29987700D01*
X170740000Y-29987700D02*
X170773334Y-30054366D01*
X170773334Y-30054366D02*
X170806667Y-30187700D01*
X170806667Y-30187700D02*
X170806667Y-30354366D01*
X170806667Y-30354366D02*
X170773334Y-30487700D01*
X170773334Y-30487700D02*
X170740000Y-30554366D01*
X170740000Y-30554366D02*
X170706667Y-30587700D01*
X170706667Y-30587700D02*
X170640000Y-30621033D01*
X170640000Y-30621033D02*
X170573334Y-30621033D01*
X170573334Y-30621033D02*
X170506667Y-30587700D01*
X170506667Y-30587700D02*
X170473334Y-30554366D01*
X170473334Y-30554366D02*
X170440000Y-30487700D01*
X170440000Y-30487700D02*
X170406667Y-30354366D01*
X170406667Y-30354366D02*
X170406667Y-30187700D01*
X170406667Y-30187700D02*
X170440000Y-30054366D01*
X170440000Y-30054366D02*
X170473334Y-29987700D01*
X170473334Y-29987700D02*
X170506667Y-29954366D01*
X170506667Y-29954366D02*
X170573334Y-29921033D01*
X171240001Y-29921033D02*
X171306667Y-29921033D01*
X171306667Y-29921033D02*
X171373334Y-29954366D01*
X171373334Y-29954366D02*
X171406667Y-29987700D01*
X171406667Y-29987700D02*
X171440001Y-30054366D01*
X171440001Y-30054366D02*
X171473334Y-30187700D01*
X171473334Y-30187700D02*
X171473334Y-30354366D01*
X171473334Y-30354366D02*
X171440001Y-30487700D01*
X171440001Y-30487700D02*
X171406667Y-30554366D01*
X171406667Y-30554366D02*
X171373334Y-30587700D01*
X171373334Y-30587700D02*
X171306667Y-30621033D01*
X171306667Y-30621033D02*
X171240001Y-30621033D01*
X171240001Y-30621033D02*
X171173334Y-30587700D01*
X171173334Y-30587700D02*
X171140001Y-30554366D01*
X171140001Y-30554366D02*
X171106667Y-30487700D01*
X171106667Y-30487700D02*
X171073334Y-30354366D01*
X171073334Y-30354366D02*
X171073334Y-30187700D01*
X171073334Y-30187700D02*
X171106667Y-30054366D01*
X171106667Y-30054366D02*
X171140001Y-29987700D01*
X171140001Y-29987700D02*
X171173334Y-29954366D01*
X171173334Y-29954366D02*
X171240001Y-29921033D01*
X171773334Y-30621033D02*
X171773334Y-30154366D01*
X171773334Y-30221033D02*
X171806668Y-30187700D01*
X171806668Y-30187700D02*
X171873334Y-30154366D01*
X171873334Y-30154366D02*
X171973334Y-30154366D01*
X171973334Y-30154366D02*
X172040001Y-30187700D01*
X172040001Y-30187700D02*
X172073334Y-30254366D01*
X172073334Y-30254366D02*
X172073334Y-30621033D01*
X172073334Y-30254366D02*
X172106668Y-30187700D01*
X172106668Y-30187700D02*
X172173334Y-30154366D01*
X172173334Y-30154366D02*
X172273334Y-30154366D01*
X172273334Y-30154366D02*
X172340001Y-30187700D01*
X172340001Y-30187700D02*
X172373334Y-30254366D01*
X172373334Y-30254366D02*
X172373334Y-30621033D01*
X172606667Y-30154366D02*
X172873334Y-30154366D01*
X172706667Y-30621033D02*
X172706667Y-30021033D01*
X172706667Y-30021033D02*
X172740001Y-29954366D01*
X172740001Y-29954366D02*
X172806667Y-29921033D01*
X172806667Y-29921033D02*
X172873334Y-29921033D01*
X173406667Y-30621033D02*
X173406667Y-29921033D01*
X173406667Y-30587700D02*
X173340001Y-30621033D01*
X173340001Y-30621033D02*
X173206667Y-30621033D01*
X173206667Y-30621033D02*
X173140001Y-30587700D01*
X173140001Y-30587700D02*
X173106667Y-30554366D01*
X173106667Y-30554366D02*
X173073334Y-30487700D01*
X173073334Y-30487700D02*
X173073334Y-30287700D01*
X173073334Y-30287700D02*
X173106667Y-30221033D01*
X173106667Y-30221033D02*
X173140001Y-30187700D01*
X173140001Y-30187700D02*
X173206667Y-30154366D01*
X173206667Y-30154366D02*
X173340001Y-30154366D01*
X173340001Y-30154366D02*
X173406667Y-30187700D01*
X173773334Y-30587700D02*
X173773334Y-30621033D01*
X173773334Y-30621033D02*
X173740000Y-30687700D01*
X173740000Y-30687700D02*
X173706667Y-30721033D01*
X174040000Y-29987700D02*
X174073333Y-29954366D01*
X174073333Y-29954366D02*
X174140000Y-29921033D01*
X174140000Y-29921033D02*
X174306667Y-29921033D01*
X174306667Y-29921033D02*
X174373333Y-29954366D01*
X174373333Y-29954366D02*
X174406667Y-29987700D01*
X174406667Y-29987700D02*
X174440000Y-30054366D01*
X174440000Y-30054366D02*
X174440000Y-30121033D01*
X174440000Y-30121033D02*
X174406667Y-30221033D01*
X174406667Y-30221033D02*
X174006667Y-30621033D01*
X174006667Y-30621033D02*
X174440000Y-30621033D01*
X175073334Y-29921033D02*
X174740000Y-29921033D01*
X174740000Y-29921033D02*
X174706667Y-30254366D01*
X174706667Y-30254366D02*
X174740000Y-30221033D01*
X174740000Y-30221033D02*
X174806667Y-30187700D01*
X174806667Y-30187700D02*
X174973334Y-30187700D01*
X174973334Y-30187700D02*
X175040000Y-30221033D01*
X175040000Y-30221033D02*
X175073334Y-30254366D01*
X175073334Y-30254366D02*
X175106667Y-30321033D01*
X175106667Y-30321033D02*
X175106667Y-30487700D01*
X175106667Y-30487700D02*
X175073334Y-30554366D01*
X175073334Y-30554366D02*
X175040000Y-30587700D01*
X175040000Y-30587700D02*
X174973334Y-30621033D01*
X174973334Y-30621033D02*
X174806667Y-30621033D01*
X174806667Y-30621033D02*
X174740000Y-30587700D01*
X174740000Y-30587700D02*
X174706667Y-30554366D01*
X175306667Y-29921033D02*
X175540001Y-30621033D01*
X175540001Y-30621033D02*
X175773334Y-29921033D01*
X190941905Y-74109819D02*
X190941905Y-73109819D01*
X191513333Y-74109819D02*
X191084762Y-73538390D01*
X191513333Y-73109819D02*
X190941905Y-73681247D01*
X191846667Y-73109819D02*
X192465714Y-73109819D01*
X192465714Y-73109819D02*
X192132381Y-73490771D01*
X192132381Y-73490771D02*
X192275238Y-73490771D01*
X192275238Y-73490771D02*
X192370476Y-73538390D01*
X192370476Y-73538390D02*
X192418095Y-73586009D01*
X192418095Y-73586009D02*
X192465714Y-73681247D01*
X192465714Y-73681247D02*
X192465714Y-73919342D01*
X192465714Y-73919342D02*
X192418095Y-74014580D01*
X192418095Y-74014580D02*
X192370476Y-74062200D01*
X192370476Y-74062200D02*
X192275238Y-74109819D01*
X192275238Y-74109819D02*
X191989524Y-74109819D01*
X191989524Y-74109819D02*
X191894286Y-74062200D01*
X191894286Y-74062200D02*
X191846667Y-74014580D01*
X181594819Y-65053094D02*
X180594819Y-65053094D01*
X180594819Y-65053094D02*
X180594819Y-64814999D01*
X180594819Y-64814999D02*
X180642438Y-64672142D01*
X180642438Y-64672142D02*
X180737676Y-64576904D01*
X180737676Y-64576904D02*
X180832914Y-64529285D01*
X180832914Y-64529285D02*
X181023390Y-64481666D01*
X181023390Y-64481666D02*
X181166247Y-64481666D01*
X181166247Y-64481666D02*
X181356723Y-64529285D01*
X181356723Y-64529285D02*
X181451961Y-64576904D01*
X181451961Y-64576904D02*
X181547200Y-64672142D01*
X181547200Y-64672142D02*
X181594819Y-64814999D01*
X181594819Y-64814999D02*
X181594819Y-65053094D01*
X180928152Y-63624523D02*
X181594819Y-63624523D01*
X180547200Y-63862618D02*
X181261485Y-64100713D01*
X181261485Y-64100713D02*
X181261485Y-63481666D01*
X174621905Y-87009819D02*
X174621905Y-86009819D01*
X175193333Y-87009819D02*
X174764762Y-86438390D01*
X175193333Y-86009819D02*
X174621905Y-86581247D01*
X175574286Y-86105057D02*
X175621905Y-86057438D01*
X175621905Y-86057438D02*
X175717143Y-86009819D01*
X175717143Y-86009819D02*
X175955238Y-86009819D01*
X175955238Y-86009819D02*
X176050476Y-86057438D01*
X176050476Y-86057438D02*
X176098095Y-86105057D01*
X176098095Y-86105057D02*
X176145714Y-86200295D01*
X176145714Y-86200295D02*
X176145714Y-86295533D01*
X176145714Y-86295533D02*
X176098095Y-86438390D01*
X176098095Y-86438390D02*
X175526667Y-87009819D01*
X175526667Y-87009819D02*
X176145714Y-87009819D01*
X160916666Y-43449819D02*
X160916666Y-44164104D01*
X160916666Y-44164104D02*
X160869047Y-44306961D01*
X160869047Y-44306961D02*
X160773809Y-44402200D01*
X160773809Y-44402200D02*
X160630952Y-44449819D01*
X160630952Y-44449819D02*
X160535714Y-44449819D01*
X161297619Y-43449819D02*
X161916666Y-43449819D01*
X161916666Y-43449819D02*
X161583333Y-43830771D01*
X161583333Y-43830771D02*
X161726190Y-43830771D01*
X161726190Y-43830771D02*
X161821428Y-43878390D01*
X161821428Y-43878390D02*
X161869047Y-43926009D01*
X161869047Y-43926009D02*
X161916666Y-44021247D01*
X161916666Y-44021247D02*
X161916666Y-44259342D01*
X161916666Y-44259342D02*
X161869047Y-44354580D01*
X161869047Y-44354580D02*
X161821428Y-44402200D01*
X161821428Y-44402200D02*
X161726190Y-44449819D01*
X161726190Y-44449819D02*
X161440476Y-44449819D01*
X161440476Y-44449819D02*
X161345238Y-44402200D01*
X161345238Y-44402200D02*
X161297619Y-44354580D01*
X166569580Y-111494999D02*
X166617200Y-111447380D01*
X166617200Y-111447380D02*
X166664819Y-111494999D01*
X166664819Y-111494999D02*
X166617200Y-111542618D01*
X166617200Y-111542618D02*
X166569580Y-111494999D01*
X166569580Y-111494999D02*
X166664819Y-111494999D01*
X210491666Y-116402319D02*
X210491666Y-117116604D01*
X210491666Y-117116604D02*
X210444047Y-117259461D01*
X210444047Y-117259461D02*
X210348809Y-117354700D01*
X210348809Y-117354700D02*
X210205952Y-117402319D01*
X210205952Y-117402319D02*
X210110714Y-117402319D01*
X211491666Y-117402319D02*
X210920238Y-117402319D01*
X211205952Y-117402319D02*
X211205952Y-116402319D01*
X211205952Y-116402319D02*
X211110714Y-116545176D01*
X211110714Y-116545176D02*
X211015476Y-116640414D01*
X211015476Y-116640414D02*
X210920238Y-116688033D01*
X184240476Y-116759819D02*
X184240476Y-117474104D01*
X184240476Y-117474104D02*
X184192857Y-117616961D01*
X184192857Y-117616961D02*
X184097619Y-117712200D01*
X184097619Y-117712200D02*
X183954762Y-117759819D01*
X183954762Y-117759819D02*
X183859524Y-117759819D01*
X185240476Y-117759819D02*
X184669048Y-117759819D01*
X184954762Y-117759819D02*
X184954762Y-116759819D01*
X184954762Y-116759819D02*
X184859524Y-116902676D01*
X184859524Y-116902676D02*
X184764286Y-116997914D01*
X184764286Y-116997914D02*
X184669048Y-117045533D01*
X185573810Y-116759819D02*
X186192857Y-116759819D01*
X186192857Y-116759819D02*
X185859524Y-117140771D01*
X185859524Y-117140771D02*
X186002381Y-117140771D01*
X186002381Y-117140771D02*
X186097619Y-117188390D01*
X186097619Y-117188390D02*
X186145238Y-117236009D01*
X186145238Y-117236009D02*
X186192857Y-117331247D01*
X186192857Y-117331247D02*
X186192857Y-117569342D01*
X186192857Y-117569342D02*
X186145238Y-117664580D01*
X186145238Y-117664580D02*
X186097619Y-117712200D01*
X186097619Y-117712200D02*
X186002381Y-117759819D01*
X186002381Y-117759819D02*
X185716667Y-117759819D01*
X185716667Y-117759819D02*
X185621429Y-117712200D01*
X185621429Y-117712200D02*
X185573810Y-117664580D01*
X212084580Y-43424999D02*
X212132200Y-43377380D01*
X212132200Y-43377380D02*
X212179819Y-43424999D01*
X212179819Y-43424999D02*
X212132200Y-43472618D01*
X212132200Y-43472618D02*
X212084580Y-43424999D01*
X212084580Y-43424999D02*
X212179819Y-43424999D01*
X178904819Y-37209285D02*
X177904819Y-37209285D01*
X177904819Y-37209285D02*
X177904819Y-36971190D01*
X177904819Y-36971190D02*
X177952438Y-36828333D01*
X177952438Y-36828333D02*
X178047676Y-36733095D01*
X178047676Y-36733095D02*
X178142914Y-36685476D01*
X178142914Y-36685476D02*
X178333390Y-36637857D01*
X178333390Y-36637857D02*
X178476247Y-36637857D01*
X178476247Y-36637857D02*
X178666723Y-36685476D01*
X178666723Y-36685476D02*
X178761961Y-36733095D01*
X178761961Y-36733095D02*
X178857200Y-36828333D01*
X178857200Y-36828333D02*
X178904819Y-36971190D01*
X178904819Y-36971190D02*
X178904819Y-37209285D01*
X178904819Y-35685476D02*
X178904819Y-36256904D01*
X178904819Y-35971190D02*
X177904819Y-35971190D01*
X177904819Y-35971190D02*
X178047676Y-36066428D01*
X178047676Y-36066428D02*
X178142914Y-36161666D01*
X178142914Y-36161666D02*
X178190533Y-36256904D01*
X177904819Y-35352142D02*
X177904819Y-34733095D01*
X177904819Y-34733095D02*
X178285771Y-35066428D01*
X178285771Y-35066428D02*
X178285771Y-34923571D01*
X178285771Y-34923571D02*
X178333390Y-34828333D01*
X178333390Y-34828333D02*
X178381009Y-34780714D01*
X178381009Y-34780714D02*
X178476247Y-34733095D01*
X178476247Y-34733095D02*
X178714342Y-34733095D01*
X178714342Y-34733095D02*
X178809580Y-34780714D01*
X178809580Y-34780714D02*
X178857200Y-34828333D01*
X178857200Y-34828333D02*
X178904819Y-34923571D01*
X178904819Y-34923571D02*
X178904819Y-35209285D01*
X178904819Y-35209285D02*
X178857200Y-35304523D01*
X178857200Y-35304523D02*
X178809580Y-35352142D01*
X239714819Y-94625594D02*
X238714819Y-94625594D01*
X238714819Y-94625594D02*
X238714819Y-94387499D01*
X238714819Y-94387499D02*
X238762438Y-94244642D01*
X238762438Y-94244642D02*
X238857676Y-94149404D01*
X238857676Y-94149404D02*
X238952914Y-94101785D01*
X238952914Y-94101785D02*
X239143390Y-94054166D01*
X239143390Y-94054166D02*
X239286247Y-94054166D01*
X239286247Y-94054166D02*
X239476723Y-94101785D01*
X239476723Y-94101785D02*
X239571961Y-94149404D01*
X239571961Y-94149404D02*
X239667200Y-94244642D01*
X239667200Y-94244642D02*
X239714819Y-94387499D01*
X239714819Y-94387499D02*
X239714819Y-94625594D01*
X238714819Y-93720832D02*
X238714819Y-93101785D01*
X238714819Y-93101785D02*
X239095771Y-93435118D01*
X239095771Y-93435118D02*
X239095771Y-93292261D01*
X239095771Y-93292261D02*
X239143390Y-93197023D01*
X239143390Y-93197023D02*
X239191009Y-93149404D01*
X239191009Y-93149404D02*
X239286247Y-93101785D01*
X239286247Y-93101785D02*
X239524342Y-93101785D01*
X239524342Y-93101785D02*
X239619580Y-93149404D01*
X239619580Y-93149404D02*
X239667200Y-93197023D01*
X239667200Y-93197023D02*
X239714819Y-93292261D01*
X239714819Y-93292261D02*
X239714819Y-93577975D01*
X239714819Y-93577975D02*
X239667200Y-93673213D01*
X239667200Y-93673213D02*
X239619580Y-93720832D01*
X180743333Y-49834580D02*
X180695714Y-49882200D01*
X180695714Y-49882200D02*
X180552857Y-49929819D01*
X180552857Y-49929819D02*
X180457619Y-49929819D01*
X180457619Y-49929819D02*
X180314762Y-49882200D01*
X180314762Y-49882200D02*
X180219524Y-49786961D01*
X180219524Y-49786961D02*
X180171905Y-49691723D01*
X180171905Y-49691723D02*
X180124286Y-49501247D01*
X180124286Y-49501247D02*
X180124286Y-49358390D01*
X180124286Y-49358390D02*
X180171905Y-49167914D01*
X180171905Y-49167914D02*
X180219524Y-49072676D01*
X180219524Y-49072676D02*
X180314762Y-48977438D01*
X180314762Y-48977438D02*
X180457619Y-48929819D01*
X180457619Y-48929819D02*
X180552857Y-48929819D01*
X180552857Y-48929819D02*
X180695714Y-48977438D01*
X180695714Y-48977438D02*
X180743333Y-49025057D01*
X181600476Y-49263152D02*
X181600476Y-49929819D01*
X181362381Y-48882200D02*
X181124286Y-49596485D01*
X181124286Y-49596485D02*
X181743333Y-49596485D01*
X176403333Y-51011033D02*
X176003333Y-51011033D01*
X176203333Y-51011033D02*
X176203333Y-50311033D01*
X176203333Y-50311033D02*
X176136666Y-50411033D01*
X176136666Y-50411033D02*
X176070000Y-50477700D01*
X176070000Y-50477700D02*
X176003333Y-50511033D01*
X176836667Y-50311033D02*
X176903333Y-50311033D01*
X176903333Y-50311033D02*
X176970000Y-50344366D01*
X176970000Y-50344366D02*
X177003333Y-50377700D01*
X177003333Y-50377700D02*
X177036667Y-50444366D01*
X177036667Y-50444366D02*
X177070000Y-50577700D01*
X177070000Y-50577700D02*
X177070000Y-50744366D01*
X177070000Y-50744366D02*
X177036667Y-50877700D01*
X177036667Y-50877700D02*
X177003333Y-50944366D01*
X177003333Y-50944366D02*
X176970000Y-50977700D01*
X176970000Y-50977700D02*
X176903333Y-51011033D01*
X176903333Y-51011033D02*
X176836667Y-51011033D01*
X176836667Y-51011033D02*
X176770000Y-50977700D01*
X176770000Y-50977700D02*
X176736667Y-50944366D01*
X176736667Y-50944366D02*
X176703333Y-50877700D01*
X176703333Y-50877700D02*
X176670000Y-50744366D01*
X176670000Y-50744366D02*
X176670000Y-50577700D01*
X176670000Y-50577700D02*
X176703333Y-50444366D01*
X176703333Y-50444366D02*
X176736667Y-50377700D01*
X176736667Y-50377700D02*
X176770000Y-50344366D01*
X176770000Y-50344366D02*
X176836667Y-50311033D01*
X177503334Y-50311033D02*
X177570000Y-50311033D01*
X177570000Y-50311033D02*
X177636667Y-50344366D01*
X177636667Y-50344366D02*
X177670000Y-50377700D01*
X177670000Y-50377700D02*
X177703334Y-50444366D01*
X177703334Y-50444366D02*
X177736667Y-50577700D01*
X177736667Y-50577700D02*
X177736667Y-50744366D01*
X177736667Y-50744366D02*
X177703334Y-50877700D01*
X177703334Y-50877700D02*
X177670000Y-50944366D01*
X177670000Y-50944366D02*
X177636667Y-50977700D01*
X177636667Y-50977700D02*
X177570000Y-51011033D01*
X177570000Y-51011033D02*
X177503334Y-51011033D01*
X177503334Y-51011033D02*
X177436667Y-50977700D01*
X177436667Y-50977700D02*
X177403334Y-50944366D01*
X177403334Y-50944366D02*
X177370000Y-50877700D01*
X177370000Y-50877700D02*
X177336667Y-50744366D01*
X177336667Y-50744366D02*
X177336667Y-50577700D01*
X177336667Y-50577700D02*
X177370000Y-50444366D01*
X177370000Y-50444366D02*
X177403334Y-50377700D01*
X177403334Y-50377700D02*
X177436667Y-50344366D01*
X177436667Y-50344366D02*
X177503334Y-50311033D01*
X178170001Y-50311033D02*
X178236667Y-50311033D01*
X178236667Y-50311033D02*
X178303334Y-50344366D01*
X178303334Y-50344366D02*
X178336667Y-50377700D01*
X178336667Y-50377700D02*
X178370001Y-50444366D01*
X178370001Y-50444366D02*
X178403334Y-50577700D01*
X178403334Y-50577700D02*
X178403334Y-50744366D01*
X178403334Y-50744366D02*
X178370001Y-50877700D01*
X178370001Y-50877700D02*
X178336667Y-50944366D01*
X178336667Y-50944366D02*
X178303334Y-50977700D01*
X178303334Y-50977700D02*
X178236667Y-51011033D01*
X178236667Y-51011033D02*
X178170001Y-51011033D01*
X178170001Y-51011033D02*
X178103334Y-50977700D01*
X178103334Y-50977700D02*
X178070001Y-50944366D01*
X178070001Y-50944366D02*
X178036667Y-50877700D01*
X178036667Y-50877700D02*
X178003334Y-50744366D01*
X178003334Y-50744366D02*
X178003334Y-50577700D01*
X178003334Y-50577700D02*
X178036667Y-50444366D01*
X178036667Y-50444366D02*
X178070001Y-50377700D01*
X178070001Y-50377700D02*
X178103334Y-50344366D01*
X178103334Y-50344366D02*
X178170001Y-50311033D01*
X178703334Y-51011033D02*
X178703334Y-50544366D01*
X178703334Y-50611033D02*
X178736668Y-50577700D01*
X178736668Y-50577700D02*
X178803334Y-50544366D01*
X178803334Y-50544366D02*
X178903334Y-50544366D01*
X178903334Y-50544366D02*
X178970001Y-50577700D01*
X178970001Y-50577700D02*
X179003334Y-50644366D01*
X179003334Y-50644366D02*
X179003334Y-51011033D01*
X179003334Y-50644366D02*
X179036668Y-50577700D01*
X179036668Y-50577700D02*
X179103334Y-50544366D01*
X179103334Y-50544366D02*
X179203334Y-50544366D01*
X179203334Y-50544366D02*
X179270001Y-50577700D01*
X179270001Y-50577700D02*
X179303334Y-50644366D01*
X179303334Y-50644366D02*
X179303334Y-51011033D01*
X179536667Y-50544366D02*
X179803334Y-50544366D01*
X179636667Y-51011033D02*
X179636667Y-50411033D01*
X179636667Y-50411033D02*
X179670001Y-50344366D01*
X179670001Y-50344366D02*
X179736667Y-50311033D01*
X179736667Y-50311033D02*
X179803334Y-50311033D01*
X180336667Y-51011033D02*
X180336667Y-50311033D01*
X180336667Y-50977700D02*
X180270001Y-51011033D01*
X180270001Y-51011033D02*
X180136667Y-51011033D01*
X180136667Y-51011033D02*
X180070001Y-50977700D01*
X180070001Y-50977700D02*
X180036667Y-50944366D01*
X180036667Y-50944366D02*
X180003334Y-50877700D01*
X180003334Y-50877700D02*
X180003334Y-50677700D01*
X180003334Y-50677700D02*
X180036667Y-50611033D01*
X180036667Y-50611033D02*
X180070001Y-50577700D01*
X180070001Y-50577700D02*
X180136667Y-50544366D01*
X180136667Y-50544366D02*
X180270001Y-50544366D01*
X180270001Y-50544366D02*
X180336667Y-50577700D01*
X180703334Y-50977700D02*
X180703334Y-51011033D01*
X180703334Y-51011033D02*
X180670000Y-51077700D01*
X180670000Y-51077700D02*
X180636667Y-51111033D01*
X180970000Y-50377700D02*
X181003333Y-50344366D01*
X181003333Y-50344366D02*
X181070000Y-50311033D01*
X181070000Y-50311033D02*
X181236667Y-50311033D01*
X181236667Y-50311033D02*
X181303333Y-50344366D01*
X181303333Y-50344366D02*
X181336667Y-50377700D01*
X181336667Y-50377700D02*
X181370000Y-50444366D01*
X181370000Y-50444366D02*
X181370000Y-50511033D01*
X181370000Y-50511033D02*
X181336667Y-50611033D01*
X181336667Y-50611033D02*
X180936667Y-51011033D01*
X180936667Y-51011033D02*
X181370000Y-51011033D01*
X182003334Y-50311033D02*
X181670000Y-50311033D01*
X181670000Y-50311033D02*
X181636667Y-50644366D01*
X181636667Y-50644366D02*
X181670000Y-50611033D01*
X181670000Y-50611033D02*
X181736667Y-50577700D01*
X181736667Y-50577700D02*
X181903334Y-50577700D01*
X181903334Y-50577700D02*
X181970000Y-50611033D01*
X181970000Y-50611033D02*
X182003334Y-50644366D01*
X182003334Y-50644366D02*
X182036667Y-50711033D01*
X182036667Y-50711033D02*
X182036667Y-50877700D01*
X182036667Y-50877700D02*
X182003334Y-50944366D01*
X182003334Y-50944366D02*
X181970000Y-50977700D01*
X181970000Y-50977700D02*
X181903334Y-51011033D01*
X181903334Y-51011033D02*
X181736667Y-51011033D01*
X181736667Y-51011033D02*
X181670000Y-50977700D01*
X181670000Y-50977700D02*
X181636667Y-50944366D01*
X182236667Y-50311033D02*
X182470001Y-51011033D01*
X182470001Y-51011033D02*
X182703334Y-50311033D01*
X189976666Y-28369819D02*
X189976666Y-29084104D01*
X189976666Y-29084104D02*
X189929047Y-29226961D01*
X189929047Y-29226961D02*
X189833809Y-29322200D01*
X189833809Y-29322200D02*
X189690952Y-29369819D01*
X189690952Y-29369819D02*
X189595714Y-29369819D01*
X190405238Y-28465057D02*
X190452857Y-28417438D01*
X190452857Y-28417438D02*
X190548095Y-28369819D01*
X190548095Y-28369819D02*
X190786190Y-28369819D01*
X190786190Y-28369819D02*
X190881428Y-28417438D01*
X190881428Y-28417438D02*
X190929047Y-28465057D01*
X190929047Y-28465057D02*
X190976666Y-28560295D01*
X190976666Y-28560295D02*
X190976666Y-28655533D01*
X190976666Y-28655533D02*
X190929047Y-28798390D01*
X190929047Y-28798390D02*
X190357619Y-29369819D01*
X190357619Y-29369819D02*
X190976666Y-29369819D01*
D19*
%TO.C,J4*%
X238740000Y-130017500D02*
X240740000Y-130017500D01*
X238990000Y-128517500D02*
X238740000Y-130017500D01*
X239440000Y-116997500D02*
X240040000Y-116997500D01*
X239740000Y-117597500D02*
X239440000Y-116997500D01*
X240040000Y-116997500D02*
X239740000Y-117597500D01*
X240490000Y-128517500D02*
X238990000Y-128517500D01*
X240740000Y-130017500D02*
X240490000Y-128517500D01*
X243820000Y-130017500D02*
X245820000Y-130017500D01*
X244070000Y-128517500D02*
X243820000Y-130017500D01*
X245570000Y-128517500D02*
X244070000Y-128517500D01*
X245820000Y-130017500D02*
X245570000Y-128517500D01*
X248900000Y-130017500D02*
X250900000Y-130017500D01*
X249150000Y-128517500D02*
X248900000Y-130017500D01*
X250650000Y-128517500D02*
X249150000Y-128517500D01*
X250900000Y-130017500D02*
X250650000Y-128517500D01*
X253980000Y-130017500D02*
X255980000Y-130017500D01*
X254230000Y-128517500D02*
X253980000Y-130017500D01*
X255730000Y-128517500D02*
X254230000Y-128517500D01*
X255980000Y-130017500D02*
X255730000Y-128517500D01*
X236090000Y-117797500D02*
X258630000Y-117797500D01*
X258630000Y-130017500D01*
X236090000Y-130017500D01*
X236090000Y-117797500D01*
X236090000Y-126717500D02*
X258630000Y-126717500D01*
X258630000Y-128517500D01*
X236090000Y-128517500D01*
X236090000Y-126717500D01*
%TO.C,D11*%
X191660000Y-63235000D02*
X191660000Y-66095000D01*
X191660000Y-66095000D02*
X193580000Y-66095000D01*
X193580000Y-66095000D02*
X193580000Y-63235000D01*
%TO.C,K4*%
X176970000Y-113215000D02*
X176970000Y-93415000D01*
X178720000Y-98365000D02*
X178720000Y-100865000D01*
X180570000Y-108965000D02*
X183020000Y-108965000D01*
X181120000Y-104265000D02*
X181120000Y-97465000D01*
X182920000Y-98865000D02*
X186520000Y-98865000D01*
X182920000Y-100865000D02*
X178720000Y-100865000D01*
X182920000Y-102865000D02*
X182920000Y-98865000D01*
X182920000Y-102865000D02*
X186520000Y-98865000D01*
X183570000Y-93415000D02*
X176970000Y-93415000D01*
X184720000Y-97465000D02*
X181120000Y-97465000D01*
X184720000Y-97465000D02*
X184720000Y-96665000D01*
X184720000Y-104265000D02*
X181120000Y-104265000D01*
X184720000Y-104265000D02*
X184720000Y-105765000D01*
X184720000Y-105765000D02*
X187220000Y-110365000D01*
X186520000Y-98865000D02*
X186520000Y-102865000D01*
X186520000Y-102865000D02*
X182920000Y-102865000D01*
X188970000Y-108965000D02*
X186470000Y-108965000D01*
X190720000Y-100865000D02*
X186520000Y-100865000D01*
X190720000Y-100865000D02*
X190720000Y-98365000D01*
X192570000Y-93415000D02*
X185970000Y-93415000D01*
X192570000Y-93415000D02*
X192570000Y-113215000D01*
X192570000Y-113215000D02*
X176970000Y-113215000D01*
%TO.C,J12*%
X163230000Y-130057500D02*
X165230000Y-130057500D01*
X163480000Y-128557500D02*
X163230000Y-130057500D01*
X163930000Y-117037500D02*
X164530000Y-117037500D01*
X164230000Y-117637500D02*
X163930000Y-117037500D01*
X164530000Y-117037500D02*
X164230000Y-117637500D01*
X164980000Y-128557500D02*
X163480000Y-128557500D01*
X165230000Y-130057500D02*
X164980000Y-128557500D01*
X168310000Y-130057500D02*
X170310000Y-130057500D01*
X168560000Y-128557500D02*
X168310000Y-130057500D01*
X170060000Y-128557500D02*
X168560000Y-128557500D01*
X170310000Y-130057500D02*
X170060000Y-128557500D01*
X173390000Y-130057500D02*
X175390000Y-130057500D01*
X173640000Y-128557500D02*
X173390000Y-130057500D01*
X175140000Y-128557500D02*
X173640000Y-128557500D01*
X175390000Y-130057500D02*
X175140000Y-128557500D01*
X178470000Y-130057500D02*
X180470000Y-130057500D01*
X178720000Y-128557500D02*
X178470000Y-130057500D01*
X180220000Y-128557500D02*
X178720000Y-128557500D01*
X180470000Y-130057500D02*
X180220000Y-128557500D01*
X160580000Y-117837500D02*
X183120000Y-117837500D01*
X183120000Y-130057500D01*
X160580000Y-130057500D01*
X160580000Y-117837500D01*
X160580000Y-126757500D02*
X183120000Y-126757500D01*
X183120000Y-128557500D01*
X160580000Y-128557500D01*
X160580000Y-126757500D01*
%TO.C,D1*%
X228710000Y-92945000D02*
X228710000Y-95805000D01*
X228710000Y-95805000D02*
X230630000Y-95805000D01*
X230630000Y-95805000D02*
X230630000Y-92945000D01*
%TO.C,D22*%
X251750000Y-67845000D02*
X251750000Y-70705000D01*
X251750000Y-70705000D02*
X253670000Y-70705000D01*
X253670000Y-70705000D02*
X253670000Y-67845000D01*
%TO.C,BT1*%
X193360000Y-34075000D02*
X193360000Y-35075000D01*
X193860000Y-34575000D02*
X192860000Y-34575000D01*
X196460000Y-33575001D02*
G75*
G02*
X190260000Y-33575001I-3100000J-11499999D01*
G01*
%TO.C,D10*%
X186690000Y-63285000D02*
X186690000Y-66145000D01*
X186690000Y-66145000D02*
X188610000Y-66145000D01*
X188610000Y-66145000D02*
X188610000Y-63285000D01*
%TO.C,K1*%
X160750000Y-85015000D02*
X160750000Y-65215000D01*
X162500000Y-70165000D02*
X162500000Y-72665000D01*
X164350000Y-80765000D02*
X166800000Y-80765000D01*
X164900000Y-76065000D02*
X164900000Y-69265000D01*
X166700000Y-70665000D02*
X170300000Y-70665000D01*
X166700000Y-72665000D02*
X162500000Y-72665000D01*
X166700000Y-74665000D02*
X166700000Y-70665000D01*
X166700000Y-74665000D02*
X170300000Y-70665000D01*
X167350000Y-65215000D02*
X160750000Y-65215000D01*
X168500000Y-69265000D02*
X164900000Y-69265000D01*
X168500000Y-69265000D02*
X168500000Y-68465000D01*
X168500000Y-76065000D02*
X164900000Y-76065000D01*
X168500000Y-76065000D02*
X168500000Y-77565000D01*
X168500000Y-77565000D02*
X171000000Y-82165000D01*
X170300000Y-70665000D02*
X170300000Y-74665000D01*
X170300000Y-74665000D02*
X166700000Y-74665000D01*
X172750000Y-80765000D02*
X170250000Y-80765000D01*
X174500000Y-72665000D02*
X170300000Y-72665000D01*
X174500000Y-72665000D02*
X174500000Y-70165000D01*
X176350000Y-65215000D02*
X169750000Y-65215000D01*
X176350000Y-65215000D02*
X176350000Y-85015000D01*
X176350000Y-85015000D02*
X160750000Y-85015000D01*
%TO.C,D14*%
X202810000Y-63295000D02*
X202810000Y-66155000D01*
X202810000Y-66155000D02*
X204730000Y-66155000D01*
X204730000Y-66155000D02*
X204730000Y-63295000D01*
%TO.C,J7*%
X249150000Y-81055000D02*
X254450000Y-81055000D01*
X249150000Y-81795000D02*
X249150000Y-81055000D01*
X249150000Y-85795000D02*
X249150000Y-86875000D01*
X249150000Y-90875000D02*
X249150000Y-91955000D01*
X249150000Y-95955000D02*
X249150000Y-97035000D01*
X249150000Y-101775000D02*
X249150000Y-101035000D01*
X254450000Y-81055000D02*
X254450000Y-101775000D01*
X254450000Y-101775000D02*
X249150000Y-101775000D01*
X255450000Y-80145000D02*
X255450000Y-82685000D01*
X255450000Y-84795000D02*
X255450000Y-87875000D01*
X255450000Y-89875000D02*
X255450000Y-92955000D01*
X255450000Y-94955000D02*
X255450000Y-98035000D01*
X255450000Y-102685000D02*
X255450000Y-100145000D01*
X256460000Y-83795000D02*
X257060000Y-83495000D01*
X257060000Y-83495000D02*
X257060000Y-84095000D01*
X257060000Y-84095000D02*
X256460000Y-83795000D01*
X256260000Y-80145000D02*
X247440000Y-80145000D01*
X247440000Y-102685000D01*
X256260000Y-102685000D01*
X256260000Y-80145000D01*
X256260000Y-82795000D02*
X254450000Y-82795000D01*
X254450000Y-84795000D01*
X256260000Y-84795000D01*
X256260000Y-82795000D01*
X256260000Y-87875000D02*
X254450000Y-87875000D01*
X254450000Y-89875000D01*
X256260000Y-89875000D01*
X256260000Y-87875000D01*
X256260000Y-92955000D02*
X254450000Y-92955000D01*
X254450000Y-94955000D01*
X256260000Y-94955000D01*
X256260000Y-92955000D01*
X256260000Y-98035000D02*
X254450000Y-98035000D01*
X254450000Y-100035000D01*
X256260000Y-100035000D01*
X256260000Y-98035000D01*
X249134179Y-85781842D02*
G75*
G02*
X249150000Y-81795000I1665821J1986842D01*
G01*
X249134179Y-90861842D02*
G75*
G02*
X249150000Y-86875000I1665821J1986842D01*
G01*
X249134179Y-95941842D02*
G75*
G02*
X249150000Y-91955000I1665821J1986842D01*
G01*
X249134179Y-101021842D02*
G75*
G02*
X249150000Y-97035000I1665821J1986842D01*
G01*
%TO.C,J5*%
X220470000Y-130155000D02*
X222470000Y-130155000D01*
X220720000Y-128655000D02*
X220470000Y-130155000D01*
X221170000Y-117135000D02*
X221770000Y-117135000D01*
X221470000Y-117735000D02*
X221170000Y-117135000D01*
X221770000Y-117135000D02*
X221470000Y-117735000D01*
X222220000Y-128655000D02*
X220720000Y-128655000D01*
X222470000Y-130155000D02*
X222220000Y-128655000D01*
X225550000Y-130155000D02*
X227550000Y-130155000D01*
X225800000Y-128655000D02*
X225550000Y-130155000D01*
X227300000Y-128655000D02*
X225800000Y-128655000D01*
X227550000Y-130155000D02*
X227300000Y-128655000D01*
X230630000Y-130155000D02*
X232630000Y-130155000D01*
X230880000Y-128655000D02*
X230630000Y-130155000D01*
X232380000Y-128655000D02*
X230880000Y-128655000D01*
X232630000Y-130155000D02*
X232380000Y-128655000D01*
X217820000Y-117935000D02*
X235280000Y-117935000D01*
X235280000Y-130155000D01*
X217820000Y-130155000D01*
X217820000Y-117935000D01*
X217820000Y-126855000D02*
X235280000Y-126855000D01*
X235280000Y-128655000D01*
X217820000Y-128655000D01*
X217820000Y-126855000D01*
%TO.C,D21*%
X224070000Y-92967500D02*
X224070000Y-95827500D01*
X224070000Y-95827500D02*
X225990000Y-95827500D01*
X225990000Y-95827500D02*
X225990000Y-92967500D01*
%TO.C,D2*%
X233740000Y-93025000D02*
X233740000Y-95885000D01*
X233740000Y-95885000D02*
X235660000Y-95885000D01*
X235660000Y-95885000D02*
X235660000Y-93025000D01*
%TO.C,C16*%
X171420354Y-56750000D02*
X172420354Y-56750000D01*
X171920354Y-56250000D02*
X171920354Y-57250000D01*
X176900000Y-54545000D02*
X176900000Y-64705000D01*
X176940000Y-54545000D02*
X176940000Y-64705000D01*
X176980000Y-54546000D02*
X176980000Y-64704000D01*
X177020000Y-54546000D02*
X177020000Y-64704000D01*
X177060000Y-54548000D02*
X177060000Y-64702000D01*
X177100000Y-54549000D02*
X177100000Y-64701000D01*
X177140000Y-54551000D02*
X177140000Y-58585000D01*
X177140000Y-60665000D02*
X177140000Y-64699000D01*
X177180000Y-54553000D02*
X177180000Y-58585000D01*
X177180000Y-60665000D02*
X177180000Y-64697000D01*
X177220000Y-54555000D02*
X177220000Y-58585000D01*
X177220000Y-60665000D02*
X177220000Y-64695000D01*
X177260000Y-54558000D02*
X177260000Y-58585000D01*
X177260000Y-60665000D02*
X177260000Y-64692000D01*
X177300000Y-54561000D02*
X177300000Y-58585000D01*
X177300000Y-60665000D02*
X177300000Y-64689000D01*
X177340000Y-54564000D02*
X177340000Y-58585000D01*
X177340000Y-60665000D02*
X177340000Y-64686000D01*
X177380000Y-54568000D02*
X177380000Y-58585000D01*
X177380000Y-60665000D02*
X177380000Y-64682000D01*
X177420000Y-54571000D02*
X177420000Y-58585000D01*
X177420000Y-60665000D02*
X177420000Y-64679000D01*
X177460000Y-54576000D02*
X177460000Y-58585000D01*
X177460000Y-60665000D02*
X177460000Y-64674000D01*
X177500000Y-54580000D02*
X177500000Y-58585000D01*
X177500000Y-60665000D02*
X177500000Y-64670000D01*
X177540000Y-54585000D02*
X177540000Y-58585000D01*
X177540000Y-60665000D02*
X177540000Y-64665000D01*
X177580000Y-54590000D02*
X177580000Y-58585000D01*
X177580000Y-60665000D02*
X177580000Y-64660000D01*
X177620000Y-54596000D02*
X177620000Y-58585000D01*
X177620000Y-60665000D02*
X177620000Y-64654000D01*
X177660000Y-54602000D02*
X177660000Y-58585000D01*
X177660000Y-60665000D02*
X177660000Y-64648000D01*
X177700000Y-54608000D02*
X177700000Y-58585000D01*
X177700000Y-60665000D02*
X177700000Y-64642000D01*
X177740000Y-54614000D02*
X177740000Y-58585000D01*
X177740000Y-60665000D02*
X177740000Y-64636000D01*
X177780000Y-54621000D02*
X177780000Y-58585000D01*
X177780000Y-60665000D02*
X177780000Y-64629000D01*
X177820000Y-54628000D02*
X177820000Y-58585000D01*
X177820000Y-62265000D02*
X177820000Y-64622000D01*
X177860000Y-54636000D02*
X177860000Y-58585000D01*
X177860000Y-62265000D02*
X177860000Y-64614000D01*
X177900000Y-54644000D02*
X177900000Y-58585000D01*
X177900000Y-62265000D02*
X177900000Y-64606000D01*
X177940000Y-54652000D02*
X177940000Y-58585000D01*
X177940000Y-62265000D02*
X177940000Y-64598000D01*
X177980000Y-54660000D02*
X177980000Y-58585000D01*
X177980000Y-62265000D02*
X177980000Y-64590000D01*
X178020000Y-54669000D02*
X178020000Y-58585000D01*
X178020000Y-62265000D02*
X178020000Y-64581000D01*
X178060000Y-54678000D02*
X178060000Y-58585000D01*
X178060000Y-62265000D02*
X178060000Y-64572000D01*
X178100000Y-54688000D02*
X178100000Y-58585000D01*
X178100000Y-62265000D02*
X178100000Y-64562000D01*
X178140000Y-54697000D02*
X178140000Y-58585000D01*
X178140000Y-62265000D02*
X178140000Y-64553000D01*
X178180000Y-54708000D02*
X178180000Y-58585000D01*
X178180000Y-62265000D02*
X178180000Y-64542000D01*
X178220000Y-54718000D02*
X178220000Y-58585000D01*
X178220000Y-62265000D02*
X178220000Y-64532000D01*
X178260000Y-54729000D02*
X178260000Y-58585000D01*
X178260000Y-62265000D02*
X178260000Y-64521000D01*
X178300000Y-54740000D02*
X178300000Y-58585000D01*
X178300000Y-62265000D02*
X178300000Y-64510000D01*
X178340000Y-54752000D02*
X178340000Y-58585000D01*
X178340000Y-62265000D02*
X178340000Y-64498000D01*
X178380000Y-54764000D02*
X178380000Y-58585000D01*
X178380000Y-62265000D02*
X178380000Y-64486000D01*
X178420000Y-54776000D02*
X178420000Y-58585000D01*
X178420000Y-62265000D02*
X178420000Y-64474000D01*
X178460000Y-54788000D02*
X178460000Y-58585000D01*
X178460000Y-62265000D02*
X178460000Y-64462000D01*
X178500000Y-54801000D02*
X178500000Y-58585000D01*
X178500000Y-62265000D02*
X178500000Y-64449000D01*
X178540000Y-54815000D02*
X178540000Y-58585000D01*
X178540000Y-62265000D02*
X178540000Y-64435000D01*
X178580000Y-54828000D02*
X178580000Y-58585000D01*
X178580000Y-62265000D02*
X178580000Y-64422000D01*
X178620000Y-54843000D02*
X178620000Y-58585000D01*
X178620000Y-62265000D02*
X178620000Y-64407000D01*
X178660000Y-54857000D02*
X178660000Y-58585000D01*
X178660000Y-62265000D02*
X178660000Y-64393000D01*
X178700000Y-54872000D02*
X178700000Y-58585000D01*
X178700000Y-62265000D02*
X178700000Y-64378000D01*
X178740000Y-54887000D02*
X178740000Y-58585000D01*
X178740000Y-62265000D02*
X178740000Y-64363000D01*
X178780000Y-54903000D02*
X178780000Y-58585000D01*
X178780000Y-62265000D02*
X178780000Y-64347000D01*
X178820000Y-54919000D02*
X178820000Y-58585000D01*
X178820000Y-62265000D02*
X178820000Y-64331000D01*
X178860000Y-54935000D02*
X178860000Y-58585000D01*
X178860000Y-62265000D02*
X178860000Y-64315000D01*
X178900000Y-54952000D02*
X178900000Y-58585000D01*
X178900000Y-62265000D02*
X178900000Y-64298000D01*
X178940000Y-54969000D02*
X178940000Y-58585000D01*
X178940000Y-62265000D02*
X178940000Y-64281000D01*
X178980000Y-54987000D02*
X178980000Y-58585000D01*
X178980000Y-62265000D02*
X178980000Y-64263000D01*
X179020000Y-55005000D02*
X179020000Y-58585000D01*
X179020000Y-62265000D02*
X179020000Y-64245000D01*
X179060000Y-55023000D02*
X179060000Y-58585000D01*
X179060000Y-62265000D02*
X179060000Y-64227000D01*
X179100000Y-55042000D02*
X179100000Y-58585000D01*
X179100000Y-62265000D02*
X179100000Y-64208000D01*
X179140000Y-55061000D02*
X179140000Y-58585000D01*
X179140000Y-62265000D02*
X179140000Y-64189000D01*
X179180000Y-55081000D02*
X179180000Y-58585000D01*
X179180000Y-62265000D02*
X179180000Y-64169000D01*
X179220000Y-55101000D02*
X179220000Y-60185000D01*
X179220000Y-62265000D02*
X179220000Y-64149000D01*
X179260000Y-55121000D02*
X179260000Y-60185000D01*
X179260000Y-62265000D02*
X179260000Y-64129000D01*
X179300000Y-55142000D02*
X179300000Y-60185000D01*
X179300000Y-62265000D02*
X179300000Y-64108000D01*
X179340000Y-55164000D02*
X179340000Y-60185000D01*
X179340000Y-62265000D02*
X179340000Y-64086000D01*
X179380000Y-55186000D02*
X179380000Y-60185000D01*
X179380000Y-62265000D02*
X179380000Y-64064000D01*
X179420000Y-55208000D02*
X179420000Y-60185000D01*
X179420000Y-62265000D02*
X179420000Y-64042000D01*
X179460000Y-55231000D02*
X179460000Y-60185000D01*
X179460000Y-62265000D02*
X179460000Y-64019000D01*
X179500000Y-55254000D02*
X179500000Y-60185000D01*
X179500000Y-62265000D02*
X179500000Y-63996000D01*
X179540000Y-55278000D02*
X179540000Y-60185000D01*
X179540000Y-62265000D02*
X179540000Y-63972000D01*
X179580000Y-55302000D02*
X179580000Y-60185000D01*
X179580000Y-62265000D02*
X179580000Y-63948000D01*
X179620000Y-55327000D02*
X179620000Y-60185000D01*
X179620000Y-62265000D02*
X179620000Y-63923000D01*
X179660000Y-55353000D02*
X179660000Y-60185000D01*
X179660000Y-62265000D02*
X179660000Y-63897000D01*
X179700000Y-55378000D02*
X179700000Y-60185000D01*
X179700000Y-62265000D02*
X179700000Y-63872000D01*
X179740000Y-55405000D02*
X179740000Y-60185000D01*
X179740000Y-62265000D02*
X179740000Y-63845000D01*
X179780000Y-55432000D02*
X179780000Y-60185000D01*
X179780000Y-62265000D02*
X179780000Y-63818000D01*
X179820000Y-55459000D02*
X179820000Y-60185000D01*
X179820000Y-62265000D02*
X179820000Y-63791000D01*
X179860000Y-55487000D02*
X179860000Y-60185000D01*
X179860000Y-62265000D02*
X179860000Y-63763000D01*
X179900000Y-55516000D02*
X179900000Y-63734000D01*
X179940000Y-55545000D02*
X179940000Y-63705000D01*
X179980000Y-55575000D02*
X179980000Y-63675000D01*
X180020000Y-55605000D02*
X180020000Y-63645000D01*
X180060000Y-55637000D02*
X180060000Y-63613000D01*
X180100000Y-55668000D02*
X180100000Y-63582000D01*
X180140000Y-55701000D02*
X180140000Y-63549000D01*
X180180000Y-55734000D02*
X180180000Y-63516000D01*
X180220000Y-55767000D02*
X180220000Y-63483000D01*
X180260000Y-55802000D02*
X180260000Y-63448000D01*
X180300000Y-55837000D02*
X180300000Y-63413000D01*
X180340000Y-55873000D02*
X180340000Y-63377000D01*
X180380000Y-55909000D02*
X180380000Y-63341000D01*
X180420000Y-55947000D02*
X180420000Y-63303000D01*
X180460000Y-55985000D02*
X180460000Y-63265000D01*
X180500000Y-56024000D02*
X180500000Y-63226000D01*
X180540000Y-56064000D02*
X180540000Y-63186000D01*
X180580000Y-56105000D02*
X180580000Y-63145000D01*
X180620000Y-56147000D02*
X180620000Y-63103000D01*
X180660000Y-56190000D02*
X180660000Y-63060000D01*
X180700000Y-56234000D02*
X180700000Y-63016000D01*
X180740000Y-56278000D02*
X180740000Y-62972000D01*
X180780000Y-56324000D02*
X180780000Y-62926000D01*
X180820000Y-56371000D02*
X180820000Y-62879000D01*
X180860000Y-56420000D02*
X180860000Y-62830000D01*
X180900000Y-56469000D02*
X180900000Y-62781000D01*
X180940000Y-56520000D02*
X180940000Y-62730000D01*
X180980000Y-56572000D02*
X180980000Y-62678000D01*
X181020000Y-56625000D02*
X181020000Y-62625000D01*
X181060000Y-56680000D02*
X181060000Y-62570000D01*
X181100000Y-56737000D02*
X181100000Y-62513000D01*
X181140000Y-56795000D02*
X181140000Y-62455000D01*
X181180000Y-56855000D02*
X181180000Y-62395000D01*
X181220000Y-56917000D02*
X181220000Y-62333000D01*
X181260000Y-56981000D02*
X181260000Y-62269000D01*
X181300000Y-57047000D02*
X181300000Y-62203000D01*
X181340000Y-57115000D02*
X181340000Y-62135000D01*
X181380000Y-57186000D02*
X181380000Y-62064000D01*
X181420000Y-57260000D02*
X181420000Y-61990000D01*
X181460000Y-57337000D02*
X181460000Y-61913000D01*
X181500000Y-57417000D02*
X181500000Y-61833000D01*
X181540000Y-57501000D02*
X181540000Y-61749000D01*
X181580000Y-57588000D02*
X181580000Y-61662000D01*
X181620000Y-57681000D02*
X181620000Y-61569000D01*
X181660000Y-57779000D02*
X181660000Y-61471000D01*
X181700000Y-57883000D02*
X181700000Y-61367000D01*
X181740000Y-57995000D02*
X181740000Y-61255000D01*
X181780000Y-58116000D02*
X181780000Y-61134000D01*
X181820000Y-58248000D02*
X181820000Y-61002000D01*
X181860000Y-58395000D02*
X181860000Y-60855000D01*
X181900000Y-58563000D02*
X181900000Y-60687000D01*
X181940000Y-58763000D02*
X181940000Y-60487000D01*
X181980000Y-59026000D02*
X181980000Y-60224000D01*
X182020000Y-59625000D02*
G75*
G02*
X171780000Y-59625000I-5120000J0D01*
G01*
X171780000Y-59625000D02*
G75*
G02*
X182020000Y-59625000I5120000J0D01*
G01*
%TO.C,U5*%
D14*
X217300003Y-28955000D02*
X245025003Y-28955000D01*
X245025003Y-34555000D01*
X217300003Y-34555000D01*
X217300003Y-28955000D01*
D20*
X217300003Y-34555000D02*
X245025003Y-34555000D01*
X245025003Y-74001000D01*
X217300003Y-74001000D01*
X217300003Y-34555000D01*
D14*
X217300003Y-74001000D02*
X244975003Y-74001000D01*
X244975003Y-83755000D01*
X217300003Y-83755000D01*
X217300003Y-74001000D01*
X224650003Y-77355000D02*
X238350003Y-77355000D01*
X238350003Y-83755000D01*
X224650003Y-83755000D01*
X224650003Y-77355000D01*
D19*
%TO.C,D15*%
X208630000Y-63295000D02*
X208630000Y-66155000D01*
X208630000Y-66155000D02*
X210550000Y-66155000D01*
X210550000Y-66155000D02*
X210550000Y-63295000D01*
%TO.C,D12*%
X197510000Y-63295000D02*
X197510000Y-66155000D01*
X197510000Y-66155000D02*
X199430000Y-66155000D01*
X199430000Y-66155000D02*
X199430000Y-63295000D01*
%TO.C,D20*%
X218990000Y-93037500D02*
X218990000Y-95897500D01*
X218990000Y-95897500D02*
X220910000Y-95897500D01*
X220910000Y-95897500D02*
X220910000Y-93037500D01*
%TO.C,D7*%
X212630000Y-93107500D02*
X212630000Y-95967500D01*
X212630000Y-95967500D02*
X214550000Y-95967500D01*
X214550000Y-95967500D02*
X214550000Y-93107500D01*
%TO.C,K6*%
X193370000Y-113235000D02*
X193370000Y-93435000D01*
X195120000Y-98385000D02*
X195120000Y-100885000D01*
X196970000Y-108985000D02*
X199420000Y-108985000D01*
X197520000Y-104285000D02*
X197520000Y-97485000D01*
X199320000Y-98885000D02*
X202920000Y-98885000D01*
X199320000Y-100885000D02*
X195120000Y-100885000D01*
X199320000Y-102885000D02*
X199320000Y-98885000D01*
X199320000Y-102885000D02*
X202920000Y-98885000D01*
X199970000Y-93435000D02*
X193370000Y-93435000D01*
X201120000Y-97485000D02*
X197520000Y-97485000D01*
X201120000Y-97485000D02*
X201120000Y-96685000D01*
X201120000Y-104285000D02*
X197520000Y-104285000D01*
X201120000Y-104285000D02*
X201120000Y-105785000D01*
X201120000Y-105785000D02*
X203620000Y-110385000D01*
X202920000Y-98885000D02*
X202920000Y-102885000D01*
X202920000Y-102885000D02*
X199320000Y-102885000D01*
X205370000Y-108985000D02*
X202870000Y-108985000D01*
X207120000Y-100885000D02*
X202920000Y-100885000D01*
X207120000Y-100885000D02*
X207120000Y-98385000D01*
X208970000Y-93435000D02*
X202370000Y-93435000D01*
X208970000Y-93435000D02*
X208970000Y-113235000D01*
X208970000Y-113235000D02*
X193370000Y-113235000D01*
%TO.C,K5*%
X193260000Y-92685000D02*
X193260000Y-72885000D01*
X195010000Y-77835000D02*
X195010000Y-80335000D01*
X196860000Y-88435000D02*
X199310000Y-88435000D01*
X197410000Y-83735000D02*
X197410000Y-76935000D01*
X199210000Y-78335000D02*
X202810000Y-78335000D01*
X199210000Y-80335000D02*
X195010000Y-80335000D01*
X199210000Y-82335000D02*
X199210000Y-78335000D01*
X199210000Y-82335000D02*
X202810000Y-78335000D01*
X199860000Y-72885000D02*
X193260000Y-72885000D01*
X201010000Y-76935000D02*
X197410000Y-76935000D01*
X201010000Y-76935000D02*
X201010000Y-76135000D01*
X201010000Y-83735000D02*
X197410000Y-83735000D01*
X201010000Y-83735000D02*
X201010000Y-85235000D01*
X201010000Y-85235000D02*
X203510000Y-89835000D01*
X202810000Y-78335000D02*
X202810000Y-82335000D01*
X202810000Y-82335000D02*
X199210000Y-82335000D01*
X205260000Y-88435000D02*
X202760000Y-88435000D01*
X207010000Y-80335000D02*
X202810000Y-80335000D01*
X207010000Y-80335000D02*
X207010000Y-77835000D01*
X208860000Y-72885000D02*
X202260000Y-72885000D01*
X208860000Y-72885000D02*
X208860000Y-92685000D01*
X208860000Y-92685000D02*
X193260000Y-92685000D01*
%TO.C,C5*%
X163850354Y-33530000D02*
X164850354Y-33530000D01*
X164350354Y-33030000D02*
X164350354Y-34030000D01*
X169330000Y-31325000D02*
X169330000Y-41485000D01*
X169370000Y-31325000D02*
X169370000Y-41485000D01*
X169410000Y-31326000D02*
X169410000Y-41484000D01*
X169450000Y-31326000D02*
X169450000Y-41484000D01*
X169490000Y-31328000D02*
X169490000Y-41482000D01*
X169530000Y-31329000D02*
X169530000Y-41481000D01*
X169570000Y-31331000D02*
X169570000Y-35365000D01*
X169570000Y-37445000D02*
X169570000Y-41479000D01*
X169610000Y-31333000D02*
X169610000Y-35365000D01*
X169610000Y-37445000D02*
X169610000Y-41477000D01*
X169650000Y-31335000D02*
X169650000Y-35365000D01*
X169650000Y-37445000D02*
X169650000Y-41475000D01*
X169690000Y-31338000D02*
X169690000Y-35365000D01*
X169690000Y-37445000D02*
X169690000Y-41472000D01*
X169730000Y-31341000D02*
X169730000Y-35365000D01*
X169730000Y-37445000D02*
X169730000Y-41469000D01*
X169770000Y-31344000D02*
X169770000Y-35365000D01*
X169770000Y-37445000D02*
X169770000Y-41466000D01*
X169810000Y-31348000D02*
X169810000Y-35365000D01*
X169810000Y-37445000D02*
X169810000Y-41462000D01*
X169850000Y-31351000D02*
X169850000Y-35365000D01*
X169850000Y-37445000D02*
X169850000Y-41459000D01*
X169890000Y-31356000D02*
X169890000Y-35365000D01*
X169890000Y-37445000D02*
X169890000Y-41454000D01*
X169930000Y-31360000D02*
X169930000Y-35365000D01*
X169930000Y-37445000D02*
X169930000Y-41450000D01*
X169970000Y-31365000D02*
X169970000Y-35365000D01*
X169970000Y-37445000D02*
X169970000Y-41445000D01*
X170010000Y-31370000D02*
X170010000Y-35365000D01*
X170010000Y-37445000D02*
X170010000Y-41440000D01*
X170050000Y-31376000D02*
X170050000Y-35365000D01*
X170050000Y-37445000D02*
X170050000Y-41434000D01*
X170090000Y-31382000D02*
X170090000Y-35365000D01*
X170090000Y-37445000D02*
X170090000Y-41428000D01*
X170130000Y-31388000D02*
X170130000Y-35365000D01*
X170130000Y-37445000D02*
X170130000Y-41422000D01*
X170170000Y-31394000D02*
X170170000Y-35365000D01*
X170170000Y-37445000D02*
X170170000Y-41416000D01*
X170210000Y-31401000D02*
X170210000Y-35365000D01*
X170210000Y-37445000D02*
X170210000Y-41409000D01*
X170250000Y-31408000D02*
X170250000Y-35365000D01*
X170250000Y-39045000D02*
X170250000Y-41402000D01*
X170290000Y-31416000D02*
X170290000Y-35365000D01*
X170290000Y-39045000D02*
X170290000Y-41394000D01*
X170330000Y-31424000D02*
X170330000Y-35365000D01*
X170330000Y-39045000D02*
X170330000Y-41386000D01*
X170370000Y-31432000D02*
X170370000Y-35365000D01*
X170370000Y-39045000D02*
X170370000Y-41378000D01*
X170410000Y-31440000D02*
X170410000Y-35365000D01*
X170410000Y-39045000D02*
X170410000Y-41370000D01*
X170450000Y-31449000D02*
X170450000Y-35365000D01*
X170450000Y-39045000D02*
X170450000Y-41361000D01*
X170490000Y-31458000D02*
X170490000Y-35365000D01*
X170490000Y-39045000D02*
X170490000Y-41352000D01*
X170530000Y-31468000D02*
X170530000Y-35365000D01*
X170530000Y-39045000D02*
X170530000Y-41342000D01*
X170570000Y-31477000D02*
X170570000Y-35365000D01*
X170570000Y-39045000D02*
X170570000Y-41333000D01*
X170610000Y-31488000D02*
X170610000Y-35365000D01*
X170610000Y-39045000D02*
X170610000Y-41322000D01*
X170650000Y-31498000D02*
X170650000Y-35365000D01*
X170650000Y-39045000D02*
X170650000Y-41312000D01*
X170690000Y-31509000D02*
X170690000Y-35365000D01*
X170690000Y-39045000D02*
X170690000Y-41301000D01*
X170730000Y-31520000D02*
X170730000Y-35365000D01*
X170730000Y-39045000D02*
X170730000Y-41290000D01*
X170770000Y-31532000D02*
X170770000Y-35365000D01*
X170770000Y-39045000D02*
X170770000Y-41278000D01*
X170810000Y-31544000D02*
X170810000Y-35365000D01*
X170810000Y-39045000D02*
X170810000Y-41266000D01*
X170850000Y-31556000D02*
X170850000Y-35365000D01*
X170850000Y-39045000D02*
X170850000Y-41254000D01*
X170890000Y-31568000D02*
X170890000Y-35365000D01*
X170890000Y-39045000D02*
X170890000Y-41242000D01*
X170930000Y-31581000D02*
X170930000Y-35365000D01*
X170930000Y-39045000D02*
X170930000Y-41229000D01*
X170970000Y-31595000D02*
X170970000Y-35365000D01*
X170970000Y-39045000D02*
X170970000Y-41215000D01*
X171010000Y-31608000D02*
X171010000Y-35365000D01*
X171010000Y-39045000D02*
X171010000Y-41202000D01*
X171050000Y-31623000D02*
X171050000Y-35365000D01*
X171050000Y-39045000D02*
X171050000Y-41187000D01*
X171090000Y-31637000D02*
X171090000Y-35365000D01*
X171090000Y-39045000D02*
X171090000Y-41173000D01*
X171130000Y-31652000D02*
X171130000Y-35365000D01*
X171130000Y-39045000D02*
X171130000Y-41158000D01*
X171170000Y-31667000D02*
X171170000Y-35365000D01*
X171170000Y-39045000D02*
X171170000Y-41143000D01*
X171210000Y-31683000D02*
X171210000Y-35365000D01*
X171210000Y-39045000D02*
X171210000Y-41127000D01*
X171250000Y-31699000D02*
X171250000Y-35365000D01*
X171250000Y-39045000D02*
X171250000Y-41111000D01*
X171290000Y-31715000D02*
X171290000Y-35365000D01*
X171290000Y-39045000D02*
X171290000Y-41095000D01*
X171330000Y-31732000D02*
X171330000Y-35365000D01*
X171330000Y-39045000D02*
X171330000Y-41078000D01*
X171370000Y-31749000D02*
X171370000Y-35365000D01*
X171370000Y-39045000D02*
X171370000Y-41061000D01*
X171410000Y-31767000D02*
X171410000Y-35365000D01*
X171410000Y-39045000D02*
X171410000Y-41043000D01*
X171450000Y-31785000D02*
X171450000Y-35365000D01*
X171450000Y-39045000D02*
X171450000Y-41025000D01*
X171490000Y-31803000D02*
X171490000Y-35365000D01*
X171490000Y-39045000D02*
X171490000Y-41007000D01*
X171530000Y-31822000D02*
X171530000Y-35365000D01*
X171530000Y-39045000D02*
X171530000Y-40988000D01*
X171570000Y-31841000D02*
X171570000Y-35365000D01*
X171570000Y-39045000D02*
X171570000Y-40969000D01*
X171610000Y-31861000D02*
X171610000Y-35365000D01*
X171610000Y-39045000D02*
X171610000Y-40949000D01*
X171650000Y-31881000D02*
X171650000Y-36965000D01*
X171650000Y-39045000D02*
X171650000Y-40929000D01*
X171690000Y-31901000D02*
X171690000Y-36965000D01*
X171690000Y-39045000D02*
X171690000Y-40909000D01*
X171730000Y-31922000D02*
X171730000Y-36965000D01*
X171730000Y-39045000D02*
X171730000Y-40888000D01*
X171770000Y-31944000D02*
X171770000Y-36965000D01*
X171770000Y-39045000D02*
X171770000Y-40866000D01*
X171810000Y-31966000D02*
X171810000Y-36965000D01*
X171810000Y-39045000D02*
X171810000Y-40844000D01*
X171850000Y-31988000D02*
X171850000Y-36965000D01*
X171850000Y-39045000D02*
X171850000Y-40822000D01*
X171890000Y-32011000D02*
X171890000Y-36965000D01*
X171890000Y-39045000D02*
X171890000Y-40799000D01*
X171930000Y-32034000D02*
X171930000Y-36965000D01*
X171930000Y-39045000D02*
X171930000Y-40776000D01*
X171970000Y-32058000D02*
X171970000Y-36965000D01*
X171970000Y-39045000D02*
X171970000Y-40752000D01*
X172010000Y-32082000D02*
X172010000Y-36965000D01*
X172010000Y-39045000D02*
X172010000Y-40728000D01*
X172050000Y-32107000D02*
X172050000Y-36965000D01*
X172050000Y-39045000D02*
X172050000Y-40703000D01*
X172090000Y-32133000D02*
X172090000Y-36965000D01*
X172090000Y-39045000D02*
X172090000Y-40677000D01*
X172130000Y-32158000D02*
X172130000Y-36965000D01*
X172130000Y-39045000D02*
X172130000Y-40652000D01*
X172170000Y-32185000D02*
X172170000Y-36965000D01*
X172170000Y-39045000D02*
X172170000Y-40625000D01*
X172210000Y-32212000D02*
X172210000Y-36965000D01*
X172210000Y-39045000D02*
X172210000Y-40598000D01*
X172250000Y-32239000D02*
X172250000Y-36965000D01*
X172250000Y-39045000D02*
X172250000Y-40571000D01*
X172290000Y-32267000D02*
X172290000Y-36965000D01*
X172290000Y-39045000D02*
X172290000Y-40543000D01*
X172330000Y-32296000D02*
X172330000Y-40514000D01*
X172370000Y-32325000D02*
X172370000Y-40485000D01*
X172410000Y-32355000D02*
X172410000Y-40455000D01*
X172450000Y-32385000D02*
X172450000Y-40425000D01*
X172490000Y-32417000D02*
X172490000Y-40393000D01*
X172530000Y-32448000D02*
X172530000Y-40362000D01*
X172570000Y-32481000D02*
X172570000Y-40329000D01*
X172610000Y-32514000D02*
X172610000Y-40296000D01*
X172650000Y-32547000D02*
X172650000Y-40263000D01*
X172690000Y-32582000D02*
X172690000Y-40228000D01*
X172730000Y-32617000D02*
X172730000Y-40193000D01*
X172770000Y-32653000D02*
X172770000Y-40157000D01*
X172810000Y-32689000D02*
X172810000Y-40121000D01*
X172850000Y-32727000D02*
X172850000Y-40083000D01*
X172890000Y-32765000D02*
X172890000Y-40045000D01*
X172930000Y-32804000D02*
X172930000Y-40006000D01*
X172970000Y-32844000D02*
X172970000Y-39966000D01*
X173010000Y-32885000D02*
X173010000Y-39925000D01*
X173050000Y-32927000D02*
X173050000Y-39883000D01*
X173090000Y-32970000D02*
X173090000Y-39840000D01*
X173130000Y-33014000D02*
X173130000Y-39796000D01*
X173170000Y-33058000D02*
X173170000Y-39752000D01*
X173210000Y-33104000D02*
X173210000Y-39706000D01*
X173250000Y-33151000D02*
X173250000Y-39659000D01*
X173290000Y-33200000D02*
X173290000Y-39610000D01*
X173330000Y-33249000D02*
X173330000Y-39561000D01*
X173370000Y-33300000D02*
X173370000Y-39510000D01*
X173410000Y-33352000D02*
X173410000Y-39458000D01*
X173450000Y-33405000D02*
X173450000Y-39405000D01*
X173490000Y-33460000D02*
X173490000Y-39350000D01*
X173530000Y-33517000D02*
X173530000Y-39293000D01*
X173570000Y-33575000D02*
X173570000Y-39235000D01*
X173610000Y-33635000D02*
X173610000Y-39175000D01*
X173650000Y-33697000D02*
X173650000Y-39113000D01*
X173690000Y-33761000D02*
X173690000Y-39049000D01*
X173730000Y-33827000D02*
X173730000Y-38983000D01*
X173770000Y-33895000D02*
X173770000Y-38915000D01*
X173810000Y-33966000D02*
X173810000Y-38844000D01*
X173850000Y-34040000D02*
X173850000Y-38770000D01*
X173890000Y-34117000D02*
X173890000Y-38693000D01*
X173930000Y-34197000D02*
X173930000Y-38613000D01*
X173970000Y-34281000D02*
X173970000Y-38529000D01*
X174010000Y-34368000D02*
X174010000Y-38442000D01*
X174050000Y-34461000D02*
X174050000Y-38349000D01*
X174090000Y-34559000D02*
X174090000Y-38251000D01*
X174130000Y-34663000D02*
X174130000Y-38147000D01*
X174170000Y-34775000D02*
X174170000Y-38035000D01*
X174210000Y-34896000D02*
X174210000Y-37914000D01*
X174250000Y-35028000D02*
X174250000Y-37782000D01*
X174290000Y-35175000D02*
X174290000Y-37635000D01*
X174330000Y-35343000D02*
X174330000Y-37467000D01*
X174370000Y-35543000D02*
X174370000Y-37267000D01*
X174410000Y-35806000D02*
X174410000Y-37004000D01*
X174450000Y-36405000D02*
G75*
G02*
X164210000Y-36405000I-5120000J0D01*
G01*
X164210000Y-36405000D02*
G75*
G02*
X174450000Y-36405000I5120000J0D01*
G01*
%TO.C,K3*%
X176970000Y-92735000D02*
X176970000Y-72935000D01*
X178720000Y-77885000D02*
X178720000Y-80385000D01*
X180570000Y-88485000D02*
X183020000Y-88485000D01*
X181120000Y-83785000D02*
X181120000Y-76985000D01*
X182920000Y-78385000D02*
X186520000Y-78385000D01*
X182920000Y-80385000D02*
X178720000Y-80385000D01*
X182920000Y-82385000D02*
X182920000Y-78385000D01*
X182920000Y-82385000D02*
X186520000Y-78385000D01*
X183570000Y-72935000D02*
X176970000Y-72935000D01*
X184720000Y-76985000D02*
X181120000Y-76985000D01*
X184720000Y-76985000D02*
X184720000Y-76185000D01*
X184720000Y-83785000D02*
X181120000Y-83785000D01*
X184720000Y-83785000D02*
X184720000Y-85285000D01*
X184720000Y-85285000D02*
X187220000Y-89885000D01*
X186520000Y-78385000D02*
X186520000Y-82385000D01*
X186520000Y-82385000D02*
X182920000Y-82385000D01*
X188970000Y-88485000D02*
X186470000Y-88485000D01*
X190720000Y-80385000D02*
X186520000Y-80385000D01*
X190720000Y-80385000D02*
X190720000Y-77885000D01*
X192570000Y-72935000D02*
X185970000Y-72935000D01*
X192570000Y-72935000D02*
X192570000Y-92735000D01*
X192570000Y-92735000D02*
X176970000Y-92735000D01*
%TO.C,D4*%
X181830000Y-63315000D02*
X181830000Y-66175000D01*
X181830000Y-66175000D02*
X183750000Y-66175000D01*
X183750000Y-66175000D02*
X183750000Y-63315000D01*
%TO.C,K2*%
X160770000Y-105545000D02*
X160770000Y-85745000D01*
X162520000Y-90695000D02*
X162520000Y-93195000D01*
X164370000Y-101295000D02*
X166820000Y-101295000D01*
X164920000Y-96595000D02*
X164920000Y-89795000D01*
X166720000Y-91195000D02*
X170320000Y-91195000D01*
X166720000Y-93195000D02*
X162520000Y-93195000D01*
X166720000Y-95195000D02*
X166720000Y-91195000D01*
X166720000Y-95195000D02*
X170320000Y-91195000D01*
X167370000Y-85745000D02*
X160770000Y-85745000D01*
X168520000Y-89795000D02*
X164920000Y-89795000D01*
X168520000Y-89795000D02*
X168520000Y-88995000D01*
X168520000Y-96595000D02*
X164920000Y-96595000D01*
X168520000Y-96595000D02*
X168520000Y-98095000D01*
X168520000Y-98095000D02*
X171020000Y-102695000D01*
X170320000Y-91195000D02*
X170320000Y-95195000D01*
X170320000Y-95195000D02*
X166720000Y-95195000D01*
X172770000Y-101295000D02*
X170270000Y-101295000D01*
X174520000Y-93195000D02*
X170320000Y-93195000D01*
X174520000Y-93195000D02*
X174520000Y-90695000D01*
X176370000Y-85745000D02*
X169770000Y-85745000D01*
X176370000Y-85745000D02*
X176370000Y-105545000D01*
X176370000Y-105545000D02*
X160770000Y-105545000D01*
%TO.C,J3*%
X161320000Y-51565000D02*
X161920000Y-51865000D01*
X161320000Y-52165000D02*
X161320000Y-51565000D01*
X161920000Y-51865000D02*
X161320000Y-52165000D01*
X162930000Y-43135000D02*
X162930000Y-45675000D01*
X162930000Y-50865000D02*
X162930000Y-47785000D01*
X162930000Y-55515000D02*
X162930000Y-52975000D01*
X163930000Y-44045000D02*
X169230000Y-44045000D01*
X163930000Y-54605000D02*
X163930000Y-44045000D01*
X169230000Y-44045000D02*
X169230000Y-44785000D01*
X169230000Y-49865000D02*
X169230000Y-48785000D01*
X169230000Y-53865000D02*
X169230000Y-54605000D01*
X169230000Y-54605000D02*
X163930000Y-54605000D01*
X162120000Y-47785000D02*
X163930000Y-47785000D01*
X163930000Y-45785000D01*
X162120000Y-45785000D01*
X162120000Y-47785000D01*
X162120000Y-52865000D02*
X163930000Y-52865000D01*
X163930000Y-50865000D01*
X162120000Y-50865000D01*
X162120000Y-52865000D01*
X162120000Y-55515000D02*
X170940000Y-55515000D01*
X170940000Y-43135000D01*
X162120000Y-43135000D01*
X162120000Y-55515000D01*
X169245821Y-44798158D02*
G75*
G02*
X169230000Y-48785000I-1665821J-1986842D01*
G01*
X169245821Y-49878158D02*
G75*
G02*
X169230000Y-53865000I-1665821J-1986842D01*
G01*
%TO.C,J1*%
X207285000Y-130257500D02*
X209285000Y-130257500D01*
X207535000Y-128757500D02*
X207285000Y-130257500D01*
X207985000Y-117237500D02*
X208585000Y-117237500D01*
X208285000Y-117837500D02*
X207985000Y-117237500D01*
X208585000Y-117237500D02*
X208285000Y-117837500D01*
X209035000Y-128757500D02*
X207535000Y-128757500D01*
X209285000Y-130257500D02*
X209035000Y-128757500D01*
X212365000Y-130257500D02*
X214365000Y-130257500D01*
X212615000Y-128757500D02*
X212365000Y-130257500D01*
X214115000Y-128757500D02*
X212615000Y-128757500D01*
X214365000Y-130257500D02*
X214115000Y-128757500D01*
X204635000Y-118037500D02*
X217015000Y-118037500D01*
X217015000Y-130257500D01*
X204635000Y-130257500D01*
X204635000Y-118037500D01*
X204635000Y-126957500D02*
X217015000Y-126957500D01*
X217015000Y-128757500D01*
X204635000Y-128757500D01*
X204635000Y-126957500D01*
%TO.C,J13*%
X186830000Y-130077500D02*
X188830000Y-130077500D01*
X187080000Y-128577500D02*
X186830000Y-130077500D01*
X187530000Y-117057500D02*
X188130000Y-117057500D01*
X187830000Y-117657500D02*
X187530000Y-117057500D01*
X188130000Y-117057500D02*
X187830000Y-117657500D01*
X188580000Y-128577500D02*
X187080000Y-128577500D01*
X188830000Y-130077500D02*
X188580000Y-128577500D01*
X191910000Y-130077500D02*
X193910000Y-130077500D01*
X192160000Y-128577500D02*
X191910000Y-130077500D01*
X193660000Y-128577500D02*
X192160000Y-128577500D01*
X193910000Y-130077500D02*
X193660000Y-128577500D01*
X196990000Y-130077500D02*
X198990000Y-130077500D01*
X197240000Y-128577500D02*
X196990000Y-130077500D01*
X198740000Y-128577500D02*
X197240000Y-128577500D01*
X198990000Y-130077500D02*
X198740000Y-128577500D01*
X184180000Y-117857500D02*
X201640000Y-117857500D01*
X201640000Y-130077500D01*
X184180000Y-130077500D01*
X184180000Y-117857500D01*
X184180000Y-126777500D02*
X201640000Y-126777500D01*
X201640000Y-128577500D01*
X184180000Y-128577500D01*
X184180000Y-126777500D01*
%TO.C,D13*%
X179140000Y-34995000D02*
X179140000Y-37855000D01*
X179140000Y-37855000D02*
X181060000Y-37855000D01*
X181060000Y-37855000D02*
X181060000Y-34995000D01*
%TO.C,D3*%
X239950000Y-92887500D02*
X239950000Y-95747500D01*
X239950000Y-95747500D02*
X241870000Y-95747500D01*
X241870000Y-95747500D02*
X241870000Y-92887500D01*
%TO.C,C4*%
X171360354Y-41630000D02*
X172360354Y-41630000D01*
X171860354Y-41130000D02*
X171860354Y-42130000D01*
X176840000Y-39425000D02*
X176840000Y-49585000D01*
X176880000Y-39425000D02*
X176880000Y-49585000D01*
X176920000Y-39426000D02*
X176920000Y-49584000D01*
X176960000Y-39426000D02*
X176960000Y-49584000D01*
X177000000Y-39428000D02*
X177000000Y-49582000D01*
X177040000Y-39429000D02*
X177040000Y-49581000D01*
X177080000Y-39431000D02*
X177080000Y-43465000D01*
X177080000Y-45545000D02*
X177080000Y-49579000D01*
X177120000Y-39433000D02*
X177120000Y-43465000D01*
X177120000Y-45545000D02*
X177120000Y-49577000D01*
X177160000Y-39435000D02*
X177160000Y-43465000D01*
X177160000Y-45545000D02*
X177160000Y-49575000D01*
X177200000Y-39438000D02*
X177200000Y-43465000D01*
X177200000Y-45545000D02*
X177200000Y-49572000D01*
X177240000Y-39441000D02*
X177240000Y-43465000D01*
X177240000Y-45545000D02*
X177240000Y-49569000D01*
X177280000Y-39444000D02*
X177280000Y-43465000D01*
X177280000Y-45545000D02*
X177280000Y-49566000D01*
X177320000Y-39448000D02*
X177320000Y-43465000D01*
X177320000Y-45545000D02*
X177320000Y-49562000D01*
X177360000Y-39451000D02*
X177360000Y-43465000D01*
X177360000Y-45545000D02*
X177360000Y-49559000D01*
X177400000Y-39456000D02*
X177400000Y-43465000D01*
X177400000Y-45545000D02*
X177400000Y-49554000D01*
X177440000Y-39460000D02*
X177440000Y-43465000D01*
X177440000Y-45545000D02*
X177440000Y-49550000D01*
X177480000Y-39465000D02*
X177480000Y-43465000D01*
X177480000Y-45545000D02*
X177480000Y-49545000D01*
X177520000Y-39470000D02*
X177520000Y-43465000D01*
X177520000Y-45545000D02*
X177520000Y-49540000D01*
X177560000Y-39476000D02*
X177560000Y-43465000D01*
X177560000Y-45545000D02*
X177560000Y-49534000D01*
X177600000Y-39482000D02*
X177600000Y-43465000D01*
X177600000Y-45545000D02*
X177600000Y-49528000D01*
X177640000Y-39488000D02*
X177640000Y-43465000D01*
X177640000Y-45545000D02*
X177640000Y-49522000D01*
X177680000Y-39494000D02*
X177680000Y-43465000D01*
X177680000Y-45545000D02*
X177680000Y-49516000D01*
X177720000Y-39501000D02*
X177720000Y-43465000D01*
X177720000Y-45545000D02*
X177720000Y-49509000D01*
X177760000Y-39508000D02*
X177760000Y-43465000D01*
X177760000Y-47145000D02*
X177760000Y-49502000D01*
X177800000Y-39516000D02*
X177800000Y-43465000D01*
X177800000Y-47145000D02*
X177800000Y-49494000D01*
X177840000Y-39524000D02*
X177840000Y-43465000D01*
X177840000Y-47145000D02*
X177840000Y-49486000D01*
X177880000Y-39532000D02*
X177880000Y-43465000D01*
X177880000Y-47145000D02*
X177880000Y-49478000D01*
X177920000Y-39540000D02*
X177920000Y-43465000D01*
X177920000Y-47145000D02*
X177920000Y-49470000D01*
X177960000Y-39549000D02*
X177960000Y-43465000D01*
X177960000Y-47145000D02*
X177960000Y-49461000D01*
X178000000Y-39558000D02*
X178000000Y-43465000D01*
X178000000Y-47145000D02*
X178000000Y-49452000D01*
X178040000Y-39568000D02*
X178040000Y-43465000D01*
X178040000Y-47145000D02*
X178040000Y-49442000D01*
X178080000Y-39577000D02*
X178080000Y-43465000D01*
X178080000Y-47145000D02*
X178080000Y-49433000D01*
X178120000Y-39588000D02*
X178120000Y-43465000D01*
X178120000Y-47145000D02*
X178120000Y-49422000D01*
X178160000Y-39598000D02*
X178160000Y-43465000D01*
X178160000Y-47145000D02*
X178160000Y-49412000D01*
X178200000Y-39609000D02*
X178200000Y-43465000D01*
X178200000Y-47145000D02*
X178200000Y-49401000D01*
X178240000Y-39620000D02*
X178240000Y-43465000D01*
X178240000Y-47145000D02*
X178240000Y-49390000D01*
X178280000Y-39632000D02*
X178280000Y-43465000D01*
X178280000Y-47145000D02*
X178280000Y-49378000D01*
X178320000Y-39644000D02*
X178320000Y-43465000D01*
X178320000Y-47145000D02*
X178320000Y-49366000D01*
X178360000Y-39656000D02*
X178360000Y-43465000D01*
X178360000Y-47145000D02*
X178360000Y-49354000D01*
X178400000Y-39668000D02*
X178400000Y-43465000D01*
X178400000Y-47145000D02*
X178400000Y-49342000D01*
X178440000Y-39681000D02*
X178440000Y-43465000D01*
X178440000Y-47145000D02*
X178440000Y-49329000D01*
X178480000Y-39695000D02*
X178480000Y-43465000D01*
X178480000Y-47145000D02*
X178480000Y-49315000D01*
X178520000Y-39708000D02*
X178520000Y-43465000D01*
X178520000Y-47145000D02*
X178520000Y-49302000D01*
X178560000Y-39723000D02*
X178560000Y-43465000D01*
X178560000Y-47145000D02*
X178560000Y-49287000D01*
X178600000Y-39737000D02*
X178600000Y-43465000D01*
X178600000Y-47145000D02*
X178600000Y-49273000D01*
X178640000Y-39752000D02*
X178640000Y-43465000D01*
X178640000Y-47145000D02*
X178640000Y-49258000D01*
X178680000Y-39767000D02*
X178680000Y-43465000D01*
X178680000Y-47145000D02*
X178680000Y-49243000D01*
X178720000Y-39783000D02*
X178720000Y-43465000D01*
X178720000Y-47145000D02*
X178720000Y-49227000D01*
X178760000Y-39799000D02*
X178760000Y-43465000D01*
X178760000Y-47145000D02*
X178760000Y-49211000D01*
X178800000Y-39815000D02*
X178800000Y-43465000D01*
X178800000Y-47145000D02*
X178800000Y-49195000D01*
X178840000Y-39832000D02*
X178840000Y-43465000D01*
X178840000Y-47145000D02*
X178840000Y-49178000D01*
X178880000Y-39849000D02*
X178880000Y-43465000D01*
X178880000Y-47145000D02*
X178880000Y-49161000D01*
X178920000Y-39867000D02*
X178920000Y-43465000D01*
X178920000Y-47145000D02*
X178920000Y-49143000D01*
X178960000Y-39885000D02*
X178960000Y-43465000D01*
X178960000Y-47145000D02*
X178960000Y-49125000D01*
X179000000Y-39903000D02*
X179000000Y-43465000D01*
X179000000Y-47145000D02*
X179000000Y-49107000D01*
X179040000Y-39922000D02*
X179040000Y-43465000D01*
X179040000Y-47145000D02*
X179040000Y-49088000D01*
X179080000Y-39941000D02*
X179080000Y-43465000D01*
X179080000Y-47145000D02*
X179080000Y-49069000D01*
X179120000Y-39961000D02*
X179120000Y-43465000D01*
X179120000Y-47145000D02*
X179120000Y-49049000D01*
X179160000Y-39981000D02*
X179160000Y-45065000D01*
X179160000Y-47145000D02*
X179160000Y-49029000D01*
X179200000Y-40001000D02*
X179200000Y-45065000D01*
X179200000Y-47145000D02*
X179200000Y-49009000D01*
X179240000Y-40022000D02*
X179240000Y-45065000D01*
X179240000Y-47145000D02*
X179240000Y-48988000D01*
X179280000Y-40044000D02*
X179280000Y-45065000D01*
X179280000Y-47145000D02*
X179280000Y-48966000D01*
X179320000Y-40066000D02*
X179320000Y-45065000D01*
X179320000Y-47145000D02*
X179320000Y-48944000D01*
X179360000Y-40088000D02*
X179360000Y-45065000D01*
X179360000Y-47145000D02*
X179360000Y-48922000D01*
X179400000Y-40111000D02*
X179400000Y-45065000D01*
X179400000Y-47145000D02*
X179400000Y-48899000D01*
X179440000Y-40134000D02*
X179440000Y-45065000D01*
X179440000Y-47145000D02*
X179440000Y-48876000D01*
X179480000Y-40158000D02*
X179480000Y-45065000D01*
X179480000Y-47145000D02*
X179480000Y-48852000D01*
X179520000Y-40182000D02*
X179520000Y-45065000D01*
X179520000Y-47145000D02*
X179520000Y-48828000D01*
X179560000Y-40207000D02*
X179560000Y-45065000D01*
X179560000Y-47145000D02*
X179560000Y-48803000D01*
X179600000Y-40233000D02*
X179600000Y-45065000D01*
X179600000Y-47145000D02*
X179600000Y-48777000D01*
X179640000Y-40258000D02*
X179640000Y-45065000D01*
X179640000Y-47145000D02*
X179640000Y-48752000D01*
X179680000Y-40285000D02*
X179680000Y-45065000D01*
X179680000Y-47145000D02*
X179680000Y-48725000D01*
X179720000Y-40312000D02*
X179720000Y-45065000D01*
X179720000Y-47145000D02*
X179720000Y-48698000D01*
X179760000Y-40339000D02*
X179760000Y-45065000D01*
X179760000Y-47145000D02*
X179760000Y-48671000D01*
X179800000Y-40367000D02*
X179800000Y-45065000D01*
X179800000Y-47145000D02*
X179800000Y-48643000D01*
X179840000Y-40396000D02*
X179840000Y-48614000D01*
X179880000Y-40425000D02*
X179880000Y-48585000D01*
X179920000Y-40455000D02*
X179920000Y-48555000D01*
X179960000Y-40485000D02*
X179960000Y-48525000D01*
X180000000Y-40517000D02*
X180000000Y-48493000D01*
X180040000Y-40548000D02*
X180040000Y-48462000D01*
X180080000Y-40581000D02*
X180080000Y-48429000D01*
X180120000Y-40614000D02*
X180120000Y-48396000D01*
X180160000Y-40647000D02*
X180160000Y-48363000D01*
X180200000Y-40682000D02*
X180200000Y-48328000D01*
X180240000Y-40717000D02*
X180240000Y-48293000D01*
X180280000Y-40753000D02*
X180280000Y-48257000D01*
X180320000Y-40789000D02*
X180320000Y-48221000D01*
X180360000Y-40827000D02*
X180360000Y-48183000D01*
X180400000Y-40865000D02*
X180400000Y-48145000D01*
X180440000Y-40904000D02*
X180440000Y-48106000D01*
X180480000Y-40944000D02*
X180480000Y-48066000D01*
X180520000Y-40985000D02*
X180520000Y-48025000D01*
X180560000Y-41027000D02*
X180560000Y-47983000D01*
X180600000Y-41070000D02*
X180600000Y-47940000D01*
X180640000Y-41114000D02*
X180640000Y-47896000D01*
X180680000Y-41158000D02*
X180680000Y-47852000D01*
X180720000Y-41204000D02*
X180720000Y-47806000D01*
X180760000Y-41251000D02*
X180760000Y-47759000D01*
X180800000Y-41300000D02*
X180800000Y-47710000D01*
X180840000Y-41349000D02*
X180840000Y-47661000D01*
X180880000Y-41400000D02*
X180880000Y-47610000D01*
X180920000Y-41452000D02*
X180920000Y-47558000D01*
X180960000Y-41505000D02*
X180960000Y-47505000D01*
X181000000Y-41560000D02*
X181000000Y-47450000D01*
X181040000Y-41617000D02*
X181040000Y-47393000D01*
X181080000Y-41675000D02*
X181080000Y-47335000D01*
X181120000Y-41735000D02*
X181120000Y-47275000D01*
X181160000Y-41797000D02*
X181160000Y-47213000D01*
X181200000Y-41861000D02*
X181200000Y-47149000D01*
X181240000Y-41927000D02*
X181240000Y-47083000D01*
X181280000Y-41995000D02*
X181280000Y-47015000D01*
X181320000Y-42066000D02*
X181320000Y-46944000D01*
X181360000Y-42140000D02*
X181360000Y-46870000D01*
X181400000Y-42217000D02*
X181400000Y-46793000D01*
X181440000Y-42297000D02*
X181440000Y-46713000D01*
X181480000Y-42381000D02*
X181480000Y-46629000D01*
X181520000Y-42468000D02*
X181520000Y-46542000D01*
X181560000Y-42561000D02*
X181560000Y-46449000D01*
X181600000Y-42659000D02*
X181600000Y-46351000D01*
X181640000Y-42763000D02*
X181640000Y-46247000D01*
X181680000Y-42875000D02*
X181680000Y-46135000D01*
X181720000Y-42996000D02*
X181720000Y-46014000D01*
X181760000Y-43128000D02*
X181760000Y-45882000D01*
X181800000Y-43275000D02*
X181800000Y-45735000D01*
X181840000Y-43443000D02*
X181840000Y-45567000D01*
X181880000Y-43643000D02*
X181880000Y-45367000D01*
X181920000Y-43906000D02*
X181920000Y-45104000D01*
X181960000Y-44505000D02*
G75*
G02*
X171720000Y-44505000I-5120000J0D01*
G01*
X171720000Y-44505000D02*
G75*
G02*
X181960000Y-44505000I5120000J0D01*
G01*
%TD*%
M02*
