%TF.GenerationSoftware,KiCad,Pcbnew,9.0.7*%
%TF.CreationDate,2026-08-24T20:15:45+05:30*%
%TF.ProjectId,Nursary_OneCH,4e757273-6172-4795-9f4f-6e6543482e6b,rev?*%
%TF.SameCoordinates,Original*%
%TF.FileFunction,Soldermask,Top*%
%TF.FilePolarity,Negative*%
%FSLAX46Y46*%
G04 Gerber Fmt 4.6, Leading zero omitted, Abs format (unit mm)*
G04 Created by KiCad (PCBNEW 9.0.7) date 2026-08-24 20:15:45*
%MOMM*%
%LPD*%
G01*
G04 APERTURE LIST*
G04 Aperture macros list*
%AMRoundRect*
0 Rectangle with rounded corners*
0 $1 Rounding radius*
0 $2 $3 $4 $5 $6 $7 $8 $9 X,Y pos of 4 corners*
0 Add a 4 corners polygon primitive as box body*
4,1,4,$2,$3,$4,$5,$6,$7,$8,$9,$2,$3,0*
0 Add four circle primitives for the rounded corners*
1,1,$1+$1,$2,$3*
1,1,$1+$1,$4,$5*
1,1,$1+$1,$6,$7*
1,1,$1+$1,$8,$9*
0 Add four rect primitives between the rounded corners*
20,1,$1+$1,$2,$3,$4,$5,0*
20,1,$1+$1,$4,$5,$6,$7,0*
20,1,$1+$1,$6,$7,$8,$9,0*
20,1,$1+$1,$8,$9,$2,$3,0*%
G04 Aperture macros list end*
%ADD10C,3.000000*%
%ADD11R,3.000000X3.000000*%
%ADD12RoundRect,0.250000X0.625000X-0.350000X0.625000X0.350000X-0.625000X0.350000X-0.625000X-0.350000X0*%
%ADD13O,1.750000X1.200000*%
%ADD14RoundRect,0.250000X-0.650000X0.325000X-0.650000X-0.325000X0.650000X-0.325000X0.650000X0.325000X0*%
%ADD15RoundRect,0.249999X-1.550001X0.790001X-1.550001X-0.790001X1.550001X-0.790001X1.550001X0.790001X0*%
%ADD16O,3.600000X2.080000*%
%ADD17C,4.500000*%
%ADD18C,1.200000*%
%ADD19C,0.800000*%
%ADD20C,1.000000*%
%ADD21O,2.200000X1.500000*%
%ADD22RoundRect,0.249999X1.550001X-0.790001X1.550001X0.790001X-1.550001X0.790001X-1.550001X-0.790001X0*%
%ADD23C,2.500000*%
G04 APERTURE END LIST*
D10*
%TO.C,BT1*%
X210090000Y-120075000D03*
D11*
X189290000Y-120075000D03*
%TD*%
D12*
%TO.C,J4*%
X182500000Y-119175000D03*
D13*
X182500000Y-117175000D03*
%TD*%
D14*
%TO.C,D4*%
X223800000Y-58160000D03*
X223800000Y-61110000D03*
%TD*%
%TO.C,D1*%
X179300000Y-58050000D03*
X179300000Y-61000000D03*
%TD*%
D15*
%TO.C,J2*%
X223340000Y-112065000D03*
D16*
X223340000Y-117145000D03*
%TD*%
D17*
%TO.C,*%
X220750000Y-47685000D03*
%TD*%
%TO.C,*%
X220750000Y-131345000D03*
%TD*%
D18*
%TO.C,U5*%
X188302500Y-64510000D03*
X188302500Y-67070000D03*
D19*
X188302500Y-84870000D03*
X188302500Y-87430000D03*
D20*
X188327500Y-59435000D03*
X188327500Y-61995000D03*
D19*
X188327500Y-77220000D03*
X188327500Y-79780000D03*
X188327500Y-82355000D03*
X188327500Y-89955000D03*
X188352500Y-74705000D03*
X213302500Y-64510000D03*
X213302500Y-67070000D03*
X213302500Y-77255000D03*
X213302500Y-79815000D03*
X213302500Y-89990000D03*
X213327500Y-59435000D03*
X213327500Y-74740000D03*
X213327500Y-87430000D03*
X213352500Y-82355000D03*
X213352500Y-84880000D03*
D21*
X213377500Y-95005000D03*
X213377500Y-92445000D03*
X213352500Y-72170000D03*
X213352500Y-69610000D03*
X213327500Y-61995000D03*
X188352500Y-69610000D03*
X188352500Y-72170000D03*
X188377500Y-92445000D03*
X188377500Y-95005000D03*
%TD*%
D16*
%TO.C,J1*%
X178940000Y-79315000D03*
X178940000Y-84395000D03*
D22*
X178940000Y-89475000D03*
%TD*%
D10*
%TO.C,K1*%
X224190000Y-86985000D03*
D23*
X218140000Y-88935000D03*
D10*
X218140000Y-101135000D03*
X230190000Y-101185000D03*
D23*
X230140000Y-88935000D03*
%TD*%
D17*
%TO.C,*%
X190750000Y-131305000D03*
%TD*%
D18*
%TO.C,C6*%
X229700000Y-82835000D03*
X229700000Y-80835000D03*
%TD*%
D17*
%TO.C,*%
X190750000Y-47685000D03*
%TD*%
D18*
%TO.C,Y1*%
X198170000Y-117875000D03*
X195630000Y-117875000D03*
%TD*%
M02*
