%TF.GenerationSoftware,KiCad,Pcbnew,9.0.7*%
%TF.CreationDate,2026-08-24T20:15:45+05:30*%
%TF.ProjectId,Nursary_OneCH,4e757273-6172-4795-9f4f-6e6543482e6b,rev?*%
%TF.SameCoordinates,Original*%
%TF.FileFunction,Legend,Top*%
%TF.FilePolarity,Positive*%
%FSLAX46Y46*%
G04 Gerber Fmt 4.6, Leading zero omitted, Abs format (unit mm)*
G04 Created by KiCad (PCBNEW 9.0.7) date 2026-08-24 20:15:45*
%MOMM*%
%LPD*%
G01*
G04 APERTURE LIST*
%ADD10C,0.375000*%
%ADD11C,0.240000*%
%ADD12C,0.200000*%
%ADD13C,0.400000*%
%ADD14C,0.300000*%
%ADD15C,0.250000*%
%ADD16C,0.625000*%
%ADD17C,0.150000*%
%ADD18C,0.875000*%
%ADD19C,1.000000*%
%ADD20C,0.120000*%
%ADD21C,0.100000*%
G04 APERTURE END LIST*
D10*
X183414500Y-82597424D02*
X183343071Y-82811710D01*
X183343071Y-82811710D02*
X183343071Y-83168852D01*
X183343071Y-83168852D02*
X183414500Y-83311710D01*
X183414500Y-83311710D02*
X183485928Y-83383138D01*
X183485928Y-83383138D02*
X183628785Y-83454567D01*
X183628785Y-83454567D02*
X183771642Y-83454567D01*
X183771642Y-83454567D02*
X183914500Y-83383138D01*
X183914500Y-83383138D02*
X183985928Y-83311710D01*
X183985928Y-83311710D02*
X184057357Y-83168852D01*
X184057357Y-83168852D02*
X184128785Y-82883138D01*
X184128785Y-82883138D02*
X184200214Y-82740281D01*
X184200214Y-82740281D02*
X184271642Y-82668852D01*
X184271642Y-82668852D02*
X184414500Y-82597424D01*
X184414500Y-82597424D02*
X184557357Y-82597424D01*
X184557357Y-82597424D02*
X184700214Y-82668852D01*
X184700214Y-82668852D02*
X184771642Y-82740281D01*
X184771642Y-82740281D02*
X184843071Y-82883138D01*
X184843071Y-82883138D02*
X184843071Y-83240281D01*
X184843071Y-83240281D02*
X184771642Y-83454567D01*
X183343071Y-84097423D02*
X184843071Y-84097423D01*
X184771642Y-85597424D02*
X184843071Y-85454567D01*
X184843071Y-85454567D02*
X184843071Y-85240281D01*
X184843071Y-85240281D02*
X184771642Y-85025995D01*
X184771642Y-85025995D02*
X184628785Y-84883138D01*
X184628785Y-84883138D02*
X184485928Y-84811709D01*
X184485928Y-84811709D02*
X184200214Y-84740281D01*
X184200214Y-84740281D02*
X183985928Y-84740281D01*
X183985928Y-84740281D02*
X183700214Y-84811709D01*
X183700214Y-84811709D02*
X183557357Y-84883138D01*
X183557357Y-84883138D02*
X183414500Y-85025995D01*
X183414500Y-85025995D02*
X183343071Y-85240281D01*
X183343071Y-85240281D02*
X183343071Y-85383138D01*
X183343071Y-85383138D02*
X183414500Y-85597424D01*
X183414500Y-85597424D02*
X183485928Y-85668852D01*
X183485928Y-85668852D02*
X183985928Y-85668852D01*
X183985928Y-85668852D02*
X183985928Y-85383138D01*
X183984500Y-88248852D02*
X183984500Y-89391710D01*
X183413071Y-88820281D02*
X184555928Y-88820281D01*
X184913071Y-90820281D02*
X184913071Y-90105995D01*
X184913071Y-90105995D02*
X184198785Y-90034567D01*
X184198785Y-90034567D02*
X184270214Y-90105995D01*
X184270214Y-90105995D02*
X184341642Y-90248853D01*
X184341642Y-90248853D02*
X184341642Y-90605995D01*
X184341642Y-90605995D02*
X184270214Y-90748853D01*
X184270214Y-90748853D02*
X184198785Y-90820281D01*
X184198785Y-90820281D02*
X184055928Y-90891710D01*
X184055928Y-90891710D02*
X183698785Y-90891710D01*
X183698785Y-90891710D02*
X183555928Y-90820281D01*
X183555928Y-90820281D02*
X183484500Y-90748853D01*
X183484500Y-90748853D02*
X183413071Y-90605995D01*
X183413071Y-90605995D02*
X183413071Y-90248853D01*
X183413071Y-90248853D02*
X183484500Y-90105995D01*
X183484500Y-90105995D02*
X183555928Y-90034567D01*
X184913071Y-91320281D02*
X183413071Y-91820281D01*
X183413071Y-91820281D02*
X184913071Y-92320281D01*
D11*
X231253520Y-85302142D02*
X231253520Y-84387857D01*
X231710662Y-84844999D02*
X230796377Y-84844999D01*
D12*
X186713733Y-115144673D02*
X186713733Y-115906578D01*
X186332780Y-115525625D02*
X187094685Y-115525625D01*
X187332780Y-116858958D02*
X187332780Y-116382768D01*
X187332780Y-116382768D02*
X186856590Y-116335149D01*
X186856590Y-116335149D02*
X186904209Y-116382768D01*
X186904209Y-116382768D02*
X186951828Y-116478006D01*
X186951828Y-116478006D02*
X186951828Y-116716101D01*
X186951828Y-116716101D02*
X186904209Y-116811339D01*
X186904209Y-116811339D02*
X186856590Y-116858958D01*
X186856590Y-116858958D02*
X186761352Y-116906577D01*
X186761352Y-116906577D02*
X186523257Y-116906577D01*
X186523257Y-116906577D02*
X186428019Y-116858958D01*
X186428019Y-116858958D02*
X186380400Y-116811339D01*
X186380400Y-116811339D02*
X186332780Y-116716101D01*
X186332780Y-116716101D02*
X186332780Y-116478006D01*
X186332780Y-116478006D02*
X186380400Y-116382768D01*
X186380400Y-116382768D02*
X186428019Y-116335149D01*
X187332780Y-117192292D02*
X186332780Y-117525625D01*
X186332780Y-117525625D02*
X187332780Y-117858958D01*
D11*
X211223520Y-97929284D02*
X211223520Y-97014999D01*
X211680662Y-97472141D02*
X210766377Y-97472141D01*
X210480662Y-96557856D02*
X210480662Y-95814999D01*
X210480662Y-95814999D02*
X210937805Y-96214999D01*
X210937805Y-96214999D02*
X210937805Y-96043570D01*
X210937805Y-96043570D02*
X210994948Y-95929285D01*
X210994948Y-95929285D02*
X211052091Y-95872142D01*
X211052091Y-95872142D02*
X211166377Y-95814999D01*
X211166377Y-95814999D02*
X211452091Y-95814999D01*
X211452091Y-95814999D02*
X211566377Y-95872142D01*
X211566377Y-95872142D02*
X211623520Y-95929285D01*
X211623520Y-95929285D02*
X211680662Y-96043570D01*
X211680662Y-96043570D02*
X211680662Y-96386427D01*
X211680662Y-96386427D02*
X211623520Y-96500713D01*
X211623520Y-96500713D02*
X211566377Y-96557856D01*
X210480662Y-95472142D02*
X211680662Y-95072142D01*
X211680662Y-95072142D02*
X210480662Y-94672142D01*
X210480662Y-94386428D02*
X210480662Y-93643571D01*
X210480662Y-93643571D02*
X210937805Y-94043571D01*
X210937805Y-94043571D02*
X210937805Y-93872142D01*
X210937805Y-93872142D02*
X210994948Y-93757857D01*
X210994948Y-93757857D02*
X211052091Y-93700714D01*
X211052091Y-93700714D02*
X211166377Y-93643571D01*
X211166377Y-93643571D02*
X211452091Y-93643571D01*
X211452091Y-93643571D02*
X211566377Y-93700714D01*
X211566377Y-93700714D02*
X211623520Y-93757857D01*
X211623520Y-93757857D02*
X211680662Y-93872142D01*
X211680662Y-93872142D02*
X211680662Y-94214999D01*
X211680662Y-94214999D02*
X211623520Y-94329285D01*
X211623520Y-94329285D02*
X211566377Y-94386428D01*
X69221428Y-61217480D02*
X68078571Y-61217480D01*
X68649999Y-60646051D02*
X68649999Y-61788908D01*
D13*
X218234438Y-115242795D02*
X217282057Y-115909462D01*
X218234438Y-116385652D02*
X216234438Y-116385652D01*
X216234438Y-116385652D02*
X216234438Y-115623747D01*
X216234438Y-115623747D02*
X216329676Y-115433271D01*
X216329676Y-115433271D02*
X216424914Y-115338033D01*
X216424914Y-115338033D02*
X216615390Y-115242795D01*
X216615390Y-115242795D02*
X216901104Y-115242795D01*
X216901104Y-115242795D02*
X217091580Y-115338033D01*
X217091580Y-115338033D02*
X217186819Y-115433271D01*
X217186819Y-115433271D02*
X217282057Y-115623747D01*
X217282057Y-115623747D02*
X217282057Y-116385652D01*
X218234438Y-113433271D02*
X218234438Y-114385652D01*
X218234438Y-114385652D02*
X216234438Y-114385652D01*
X217282057Y-112385652D02*
X218234438Y-112385652D01*
X216234438Y-113052318D02*
X217282057Y-112385652D01*
X217282057Y-112385652D02*
X216234438Y-111718985D01*
D10*
X184711642Y-77574567D02*
X184783071Y-77431710D01*
X184783071Y-77431710D02*
X184783071Y-77217424D01*
X184783071Y-77217424D02*
X184711642Y-77003138D01*
X184711642Y-77003138D02*
X184568785Y-76860281D01*
X184568785Y-76860281D02*
X184425928Y-76788852D01*
X184425928Y-76788852D02*
X184140214Y-76717424D01*
X184140214Y-76717424D02*
X183925928Y-76717424D01*
X183925928Y-76717424D02*
X183640214Y-76788852D01*
X183640214Y-76788852D02*
X183497357Y-76860281D01*
X183497357Y-76860281D02*
X183354500Y-77003138D01*
X183354500Y-77003138D02*
X183283071Y-77217424D01*
X183283071Y-77217424D02*
X183283071Y-77360281D01*
X183283071Y-77360281D02*
X183354500Y-77574567D01*
X183354500Y-77574567D02*
X183425928Y-77645995D01*
X183425928Y-77645995D02*
X183925928Y-77645995D01*
X183925928Y-77645995D02*
X183925928Y-77360281D01*
X183283071Y-78288852D02*
X184783071Y-78288852D01*
X184783071Y-78288852D02*
X183283071Y-79145995D01*
X183283071Y-79145995D02*
X184783071Y-79145995D01*
X183283071Y-79860281D02*
X184783071Y-79860281D01*
X184783071Y-79860281D02*
X184783071Y-80217424D01*
X184783071Y-80217424D02*
X184711642Y-80431710D01*
X184711642Y-80431710D02*
X184568785Y-80574567D01*
X184568785Y-80574567D02*
X184425928Y-80645996D01*
X184425928Y-80645996D02*
X184140214Y-80717424D01*
X184140214Y-80717424D02*
X183925928Y-80717424D01*
X183925928Y-80717424D02*
X183640214Y-80645996D01*
X183640214Y-80645996D02*
X183497357Y-80574567D01*
X183497357Y-80574567D02*
X183354500Y-80431710D01*
X183354500Y-80431710D02*
X183283071Y-80217424D01*
X183283071Y-80217424D02*
X183283071Y-79860281D01*
D14*
X177683082Y-124952038D02*
X177283082Y-124952038D01*
X177283082Y-125580609D02*
X177283082Y-124380609D01*
X177283082Y-124380609D02*
X177854510Y-124380609D01*
X178883081Y-125580609D02*
X178311653Y-125580609D01*
X178311653Y-125580609D02*
X178311653Y-124380609D01*
X179511653Y-124380609D02*
X179740225Y-124380609D01*
X179740225Y-124380609D02*
X179854510Y-124437752D01*
X179854510Y-124437752D02*
X179968796Y-124552038D01*
X179968796Y-124552038D02*
X180025939Y-124780609D01*
X180025939Y-124780609D02*
X180025939Y-125180609D01*
X180025939Y-125180609D02*
X179968796Y-125409181D01*
X179968796Y-125409181D02*
X179854510Y-125523467D01*
X179854510Y-125523467D02*
X179740225Y-125580609D01*
X179740225Y-125580609D02*
X179511653Y-125580609D01*
X179511653Y-125580609D02*
X179397368Y-125523467D01*
X179397368Y-125523467D02*
X179283082Y-125409181D01*
X179283082Y-125409181D02*
X179225939Y-125180609D01*
X179225939Y-125180609D02*
X179225939Y-124780609D01*
X179225939Y-124780609D02*
X179283082Y-124552038D01*
X179283082Y-124552038D02*
X179397368Y-124437752D01*
X179397368Y-124437752D02*
X179511653Y-124380609D01*
X180425939Y-124380609D02*
X180711653Y-125580609D01*
X180711653Y-125580609D02*
X180940225Y-124723467D01*
X180940225Y-124723467D02*
X181168796Y-125580609D01*
X181168796Y-125580609D02*
X181454511Y-124380609D01*
X183454511Y-124437752D02*
X183340226Y-124380609D01*
X183340226Y-124380609D02*
X183168797Y-124380609D01*
X183168797Y-124380609D02*
X182997368Y-124437752D01*
X182997368Y-124437752D02*
X182883083Y-124552038D01*
X182883083Y-124552038D02*
X182825940Y-124666324D01*
X182825940Y-124666324D02*
X182768797Y-124894895D01*
X182768797Y-124894895D02*
X182768797Y-125066324D01*
X182768797Y-125066324D02*
X182825940Y-125294895D01*
X182825940Y-125294895D02*
X182883083Y-125409181D01*
X182883083Y-125409181D02*
X182997368Y-125523467D01*
X182997368Y-125523467D02*
X183168797Y-125580609D01*
X183168797Y-125580609D02*
X183283083Y-125580609D01*
X183283083Y-125580609D02*
X183454511Y-125523467D01*
X183454511Y-125523467D02*
X183511654Y-125466324D01*
X183511654Y-125466324D02*
X183511654Y-125066324D01*
X183511654Y-125066324D02*
X183283083Y-125066324D01*
X184025940Y-124380609D02*
X184025940Y-125352038D01*
X184025940Y-125352038D02*
X184083083Y-125466324D01*
X184083083Y-125466324D02*
X184140226Y-125523467D01*
X184140226Y-125523467D02*
X184254511Y-125580609D01*
X184254511Y-125580609D02*
X184483083Y-125580609D01*
X184483083Y-125580609D02*
X184597368Y-125523467D01*
X184597368Y-125523467D02*
X184654511Y-125466324D01*
X184654511Y-125466324D02*
X184711654Y-125352038D01*
X184711654Y-125352038D02*
X184711654Y-124380609D01*
X185225940Y-125237752D02*
X185797369Y-125237752D01*
X185111654Y-125580609D02*
X185511654Y-124380609D01*
X185511654Y-124380609D02*
X185911654Y-125580609D01*
X186997368Y-125580609D02*
X186597368Y-125009181D01*
X186311654Y-125580609D02*
X186311654Y-124380609D01*
X186311654Y-124380609D02*
X186768797Y-124380609D01*
X186768797Y-124380609D02*
X186883082Y-124437752D01*
X186883082Y-124437752D02*
X186940225Y-124494895D01*
X186940225Y-124494895D02*
X186997368Y-124609181D01*
X186997368Y-124609181D02*
X186997368Y-124780609D01*
X186997368Y-124780609D02*
X186940225Y-124894895D01*
X186940225Y-124894895D02*
X186883082Y-124952038D01*
X186883082Y-124952038D02*
X186768797Y-125009181D01*
X186768797Y-125009181D02*
X186311654Y-125009181D01*
X187511654Y-125580609D02*
X187511654Y-124380609D01*
X187511654Y-124380609D02*
X187797368Y-124380609D01*
X187797368Y-124380609D02*
X187968797Y-124437752D01*
X187968797Y-124437752D02*
X188083082Y-124552038D01*
X188083082Y-124552038D02*
X188140225Y-124666324D01*
X188140225Y-124666324D02*
X188197368Y-124894895D01*
X188197368Y-124894895D02*
X188197368Y-125066324D01*
X188197368Y-125066324D02*
X188140225Y-125294895D01*
X188140225Y-125294895D02*
X188083082Y-125409181D01*
X188083082Y-125409181D02*
X187968797Y-125523467D01*
X187968797Y-125523467D02*
X187797368Y-125580609D01*
X187797368Y-125580609D02*
X187511654Y-125580609D01*
X180425940Y-126883971D02*
X180025940Y-126883971D01*
X180025940Y-127512542D02*
X180025940Y-126312542D01*
X180025940Y-126312542D02*
X180597368Y-126312542D01*
X181683082Y-126369685D02*
X181568797Y-126312542D01*
X181568797Y-126312542D02*
X181397368Y-126312542D01*
X181397368Y-126312542D02*
X181225939Y-126369685D01*
X181225939Y-126369685D02*
X181111654Y-126483971D01*
X181111654Y-126483971D02*
X181054511Y-126598257D01*
X181054511Y-126598257D02*
X180997368Y-126826828D01*
X180997368Y-126826828D02*
X180997368Y-126998257D01*
X180997368Y-126998257D02*
X181054511Y-127226828D01*
X181054511Y-127226828D02*
X181111654Y-127341114D01*
X181111654Y-127341114D02*
X181225939Y-127455400D01*
X181225939Y-127455400D02*
X181397368Y-127512542D01*
X181397368Y-127512542D02*
X181511654Y-127512542D01*
X181511654Y-127512542D02*
X181683082Y-127455400D01*
X181683082Y-127455400D02*
X181740225Y-127398257D01*
X181740225Y-127398257D02*
X181740225Y-126998257D01*
X181740225Y-126998257D02*
X181511654Y-126998257D01*
X182883082Y-127512542D02*
X182197368Y-127512542D01*
X182540225Y-127512542D02*
X182540225Y-126312542D01*
X182540225Y-126312542D02*
X182425939Y-126483971D01*
X182425939Y-126483971D02*
X182311654Y-126598257D01*
X182311654Y-126598257D02*
X182197368Y-126655400D01*
D12*
X190646266Y-96695326D02*
X190646266Y-95933422D01*
X191027219Y-96314374D02*
X190265314Y-96314374D01*
X190027219Y-94981041D02*
X190027219Y-95457231D01*
X190027219Y-95457231D02*
X190503409Y-95504850D01*
X190503409Y-95504850D02*
X190455790Y-95457231D01*
X190455790Y-95457231D02*
X190408171Y-95361993D01*
X190408171Y-95361993D02*
X190408171Y-95123898D01*
X190408171Y-95123898D02*
X190455790Y-95028660D01*
X190455790Y-95028660D02*
X190503409Y-94981041D01*
X190503409Y-94981041D02*
X190598647Y-94933422D01*
X190598647Y-94933422D02*
X190836742Y-94933422D01*
X190836742Y-94933422D02*
X190931980Y-94981041D01*
X190931980Y-94981041D02*
X190979600Y-95028660D01*
X190979600Y-95028660D02*
X191027219Y-95123898D01*
X191027219Y-95123898D02*
X191027219Y-95361993D01*
X191027219Y-95361993D02*
X190979600Y-95457231D01*
X190979600Y-95457231D02*
X190931980Y-95504850D01*
X190027219Y-94647707D02*
X191027219Y-94314374D01*
X191027219Y-94314374D02*
X190027219Y-93981041D01*
X182553482Y-59179838D02*
X182458244Y-59132219D01*
X182458244Y-59132219D02*
X182315387Y-59132219D01*
X182315387Y-59132219D02*
X182172530Y-59179838D01*
X182172530Y-59179838D02*
X182077292Y-59275076D01*
X182077292Y-59275076D02*
X182029673Y-59370314D01*
X182029673Y-59370314D02*
X181982054Y-59560790D01*
X181982054Y-59560790D02*
X181982054Y-59703647D01*
X181982054Y-59703647D02*
X182029673Y-59894123D01*
X182029673Y-59894123D02*
X182077292Y-59989361D01*
X182077292Y-59989361D02*
X182172530Y-60084600D01*
X182172530Y-60084600D02*
X182315387Y-60132219D01*
X182315387Y-60132219D02*
X182410625Y-60132219D01*
X182410625Y-60132219D02*
X182553482Y-60084600D01*
X182553482Y-60084600D02*
X182601101Y-60036980D01*
X182601101Y-60036980D02*
X182601101Y-59703647D01*
X182601101Y-59703647D02*
X182410625Y-59703647D01*
D15*
X190032238Y-92348622D02*
X189984619Y-92443860D01*
X189984619Y-92443860D02*
X189984619Y-92586717D01*
X189984619Y-92586717D02*
X190032238Y-92729574D01*
X190032238Y-92729574D02*
X190127476Y-92824812D01*
X190127476Y-92824812D02*
X190222714Y-92872431D01*
X190222714Y-92872431D02*
X190413190Y-92920050D01*
X190413190Y-92920050D02*
X190556047Y-92920050D01*
X190556047Y-92920050D02*
X190746523Y-92872431D01*
X190746523Y-92872431D02*
X190841761Y-92824812D01*
X190841761Y-92824812D02*
X190937000Y-92729574D01*
X190937000Y-92729574D02*
X190984619Y-92586717D01*
X190984619Y-92586717D02*
X190984619Y-92491479D01*
X190984619Y-92491479D02*
X190937000Y-92348622D01*
X190937000Y-92348622D02*
X190889380Y-92301003D01*
X190889380Y-92301003D02*
X190556047Y-92301003D01*
X190556047Y-92301003D02*
X190556047Y-92491479D01*
X190984619Y-91872431D02*
X189984619Y-91872431D01*
X189984619Y-91872431D02*
X190984619Y-91301003D01*
X190984619Y-91301003D02*
X189984619Y-91301003D01*
X190984619Y-90824812D02*
X189984619Y-90824812D01*
X189984619Y-90824812D02*
X189984619Y-90586717D01*
X189984619Y-90586717D02*
X190032238Y-90443860D01*
X190032238Y-90443860D02*
X190127476Y-90348622D01*
X190127476Y-90348622D02*
X190222714Y-90301003D01*
X190222714Y-90301003D02*
X190413190Y-90253384D01*
X190413190Y-90253384D02*
X190556047Y-90253384D01*
X190556047Y-90253384D02*
X190746523Y-90301003D01*
X190746523Y-90301003D02*
X190841761Y-90348622D01*
X190841761Y-90348622D02*
X190937000Y-90443860D01*
X190937000Y-90443860D02*
X190984619Y-90586717D01*
X190984619Y-90586717D02*
X190984619Y-90824812D01*
D11*
X177423520Y-61952142D02*
X177423520Y-61037857D01*
X177880662Y-61494999D02*
X176966377Y-61494999D01*
X221583520Y-61932142D02*
X221583520Y-61017857D01*
X222040662Y-61474999D02*
X221126377Y-61474999D01*
D10*
X183644500Y-109338852D02*
X183644500Y-110481710D01*
X183073071Y-109910281D02*
X184215928Y-109910281D01*
X184573071Y-111910281D02*
X184573071Y-111195995D01*
X184573071Y-111195995D02*
X183858785Y-111124567D01*
X183858785Y-111124567D02*
X183930214Y-111195995D01*
X183930214Y-111195995D02*
X184001642Y-111338853D01*
X184001642Y-111338853D02*
X184001642Y-111695995D01*
X184001642Y-111695995D02*
X183930214Y-111838853D01*
X183930214Y-111838853D02*
X183858785Y-111910281D01*
X183858785Y-111910281D02*
X183715928Y-111981710D01*
X183715928Y-111981710D02*
X183358785Y-111981710D01*
X183358785Y-111981710D02*
X183215928Y-111910281D01*
X183215928Y-111910281D02*
X183144500Y-111838853D01*
X183144500Y-111838853D02*
X183073071Y-111695995D01*
X183073071Y-111695995D02*
X183073071Y-111338853D01*
X183073071Y-111338853D02*
X183144500Y-111195995D01*
X183144500Y-111195995D02*
X183215928Y-111124567D01*
X184573071Y-112410281D02*
X183073071Y-112910281D01*
X183073071Y-112910281D02*
X184573071Y-113410281D01*
D12*
X226920149Y-59506028D02*
X226920149Y-59982219D01*
X226586816Y-58982219D02*
X226920149Y-59506028D01*
X226920149Y-59506028D02*
X227253482Y-58982219D01*
X187185161Y-118968482D02*
X187232780Y-118873244D01*
X187232780Y-118873244D02*
X187232780Y-118730387D01*
X187232780Y-118730387D02*
X187185161Y-118587530D01*
X187185161Y-118587530D02*
X187089923Y-118492292D01*
X187089923Y-118492292D02*
X186994685Y-118444673D01*
X186994685Y-118444673D02*
X186804209Y-118397054D01*
X186804209Y-118397054D02*
X186661352Y-118397054D01*
X186661352Y-118397054D02*
X186470876Y-118444673D01*
X186470876Y-118444673D02*
X186375638Y-118492292D01*
X186375638Y-118492292D02*
X186280400Y-118587530D01*
X186280400Y-118587530D02*
X186232780Y-118730387D01*
X186232780Y-118730387D02*
X186232780Y-118825625D01*
X186232780Y-118825625D02*
X186280400Y-118968482D01*
X186280400Y-118968482D02*
X186328019Y-119016101D01*
X186328019Y-119016101D02*
X186661352Y-119016101D01*
X186661352Y-119016101D02*
X186661352Y-118825625D01*
X186232780Y-119444673D02*
X187232780Y-119444673D01*
X187232780Y-119444673D02*
X186232780Y-120016101D01*
X186232780Y-120016101D02*
X187232780Y-120016101D01*
X186232780Y-120492292D02*
X187232780Y-120492292D01*
X187232780Y-120492292D02*
X187232780Y-120730387D01*
X187232780Y-120730387D02*
X187185161Y-120873244D01*
X187185161Y-120873244D02*
X187089923Y-120968482D01*
X187089923Y-120968482D02*
X186994685Y-121016101D01*
X186994685Y-121016101D02*
X186804209Y-121063720D01*
X186804209Y-121063720D02*
X186661352Y-121063720D01*
X186661352Y-121063720D02*
X186470876Y-121016101D01*
X186470876Y-121016101D02*
X186375638Y-120968482D01*
X186375638Y-120968482D02*
X186280400Y-120873244D01*
X186280400Y-120873244D02*
X186232780Y-120730387D01*
X186232780Y-120730387D02*
X186232780Y-120492292D01*
D16*
X222674993Y-66796547D02*
X221841660Y-65606071D01*
X221246422Y-66796547D02*
X221246422Y-64296547D01*
X221246422Y-64296547D02*
X222198803Y-64296547D01*
X222198803Y-64296547D02*
X222436898Y-64415595D01*
X222436898Y-64415595D02*
X222555945Y-64534642D01*
X222555945Y-64534642D02*
X222674993Y-64772738D01*
X222674993Y-64772738D02*
X222674993Y-65129880D01*
X222674993Y-65129880D02*
X222555945Y-65367976D01*
X222555945Y-65367976D02*
X222436898Y-65487023D01*
X222436898Y-65487023D02*
X222198803Y-65606071D01*
X222198803Y-65606071D02*
X221246422Y-65606071D01*
X224936898Y-66796547D02*
X223746422Y-66796547D01*
X223746422Y-66796547D02*
X223746422Y-64296547D01*
X226246422Y-65606071D02*
X226246422Y-66796547D01*
X225413089Y-64296547D02*
X226246422Y-65606071D01*
X226246422Y-65606071D02*
X227079755Y-64296547D01*
X178079755Y-65377023D02*
X177246422Y-65377023D01*
X177246422Y-66686547D02*
X177246422Y-64186547D01*
X177246422Y-64186547D02*
X178436898Y-64186547D01*
X180579755Y-66686547D02*
X179389279Y-66686547D01*
X179389279Y-66686547D02*
X179389279Y-64186547D01*
X181889279Y-64186547D02*
X182365470Y-64186547D01*
X182365470Y-64186547D02*
X182603565Y-64305595D01*
X182603565Y-64305595D02*
X182841660Y-64543690D01*
X182841660Y-64543690D02*
X182960708Y-65019880D01*
X182960708Y-65019880D02*
X182960708Y-65853214D01*
X182960708Y-65853214D02*
X182841660Y-66329404D01*
X182841660Y-66329404D02*
X182603565Y-66567500D01*
X182603565Y-66567500D02*
X182365470Y-66686547D01*
X182365470Y-66686547D02*
X181889279Y-66686547D01*
X181889279Y-66686547D02*
X181651184Y-66567500D01*
X181651184Y-66567500D02*
X181413089Y-66329404D01*
X181413089Y-66329404D02*
X181294041Y-65853214D01*
X181294041Y-65853214D02*
X181294041Y-65019880D01*
X181294041Y-65019880D02*
X181413089Y-64543690D01*
X181413089Y-64543690D02*
X181651184Y-64305595D01*
X181651184Y-64305595D02*
X181889279Y-64186547D01*
X183794041Y-64186547D02*
X184389279Y-66686547D01*
X184389279Y-66686547D02*
X184865470Y-64900833D01*
X184865470Y-64900833D02*
X185341660Y-66686547D01*
X185341660Y-66686547D02*
X185936899Y-64186547D01*
D17*
X191626444Y-129339285D02*
X191578825Y-129482142D01*
X191578825Y-129482142D02*
X191531206Y-129529761D01*
X191531206Y-129529761D02*
X191435968Y-129577380D01*
X191435968Y-129577380D02*
X191293111Y-129577380D01*
X191293111Y-129577380D02*
X191197873Y-129529761D01*
X191197873Y-129529761D02*
X191150254Y-129482142D01*
X191150254Y-129482142D02*
X191102634Y-129386904D01*
X191102634Y-129386904D02*
X191102634Y-129005952D01*
X191102634Y-129005952D02*
X192102634Y-129005952D01*
X192102634Y-129005952D02*
X192102634Y-129339285D01*
X192102634Y-129339285D02*
X192055015Y-129434523D01*
X192055015Y-129434523D02*
X192007396Y-129482142D01*
X192007396Y-129482142D02*
X191912158Y-129529761D01*
X191912158Y-129529761D02*
X191816920Y-129529761D01*
X191816920Y-129529761D02*
X191721682Y-129482142D01*
X191721682Y-129482142D02*
X191674063Y-129434523D01*
X191674063Y-129434523D02*
X191626444Y-129339285D01*
X191626444Y-129339285D02*
X191626444Y-129005952D01*
X192102634Y-129863095D02*
X192102634Y-130434523D01*
X191102634Y-130148809D02*
X192102634Y-130148809D01*
X191102634Y-131291666D02*
X191102634Y-130720238D01*
X191102634Y-131005952D02*
X192102634Y-131005952D01*
X192102634Y-131005952D02*
X191959777Y-130910714D01*
X191959777Y-130910714D02*
X191864539Y-130815476D01*
X191864539Y-130815476D02*
X191816920Y-130720238D01*
X189597873Y-127929761D02*
X189550254Y-127882142D01*
X189550254Y-127882142D02*
X189502634Y-127739285D01*
X189502634Y-127739285D02*
X189502634Y-127644047D01*
X189502634Y-127644047D02*
X189550254Y-127501190D01*
X189550254Y-127501190D02*
X189645492Y-127405952D01*
X189645492Y-127405952D02*
X189740730Y-127358333D01*
X189740730Y-127358333D02*
X189931206Y-127310714D01*
X189931206Y-127310714D02*
X190074063Y-127310714D01*
X190074063Y-127310714D02*
X190264539Y-127358333D01*
X190264539Y-127358333D02*
X190359777Y-127405952D01*
X190359777Y-127405952D02*
X190455015Y-127501190D01*
X190455015Y-127501190D02*
X190502634Y-127644047D01*
X190502634Y-127644047D02*
X190502634Y-127739285D01*
X190502634Y-127739285D02*
X190455015Y-127882142D01*
X190455015Y-127882142D02*
X190407396Y-127929761D01*
X189502634Y-128929761D02*
X189978825Y-128596428D01*
X189502634Y-128358333D02*
X190502634Y-128358333D01*
X190502634Y-128358333D02*
X190502634Y-128739285D01*
X190502634Y-128739285D02*
X190455015Y-128834523D01*
X190455015Y-128834523D02*
X190407396Y-128882142D01*
X190407396Y-128882142D02*
X190312158Y-128929761D01*
X190312158Y-128929761D02*
X190169301Y-128929761D01*
X190169301Y-128929761D02*
X190074063Y-128882142D01*
X190074063Y-128882142D02*
X190026444Y-128834523D01*
X190026444Y-128834523D02*
X189978825Y-128739285D01*
X189978825Y-128739285D02*
X189978825Y-128358333D01*
X190407396Y-129310714D02*
X190455015Y-129358333D01*
X190455015Y-129358333D02*
X190502634Y-129453571D01*
X190502634Y-129453571D02*
X190502634Y-129691666D01*
X190502634Y-129691666D02*
X190455015Y-129786904D01*
X190455015Y-129786904D02*
X190407396Y-129834523D01*
X190407396Y-129834523D02*
X190312158Y-129882142D01*
X190312158Y-129882142D02*
X190216920Y-129882142D01*
X190216920Y-129882142D02*
X190074063Y-129834523D01*
X190074063Y-129834523D02*
X189502634Y-129263095D01*
X189502634Y-129263095D02*
X189502634Y-129882142D01*
X190502634Y-130501190D02*
X190502634Y-130596428D01*
X190502634Y-130596428D02*
X190455015Y-130691666D01*
X190455015Y-130691666D02*
X190407396Y-130739285D01*
X190407396Y-130739285D02*
X190312158Y-130786904D01*
X190312158Y-130786904D02*
X190121682Y-130834523D01*
X190121682Y-130834523D02*
X189883587Y-130834523D01*
X189883587Y-130834523D02*
X189693111Y-130786904D01*
X189693111Y-130786904D02*
X189597873Y-130739285D01*
X189597873Y-130739285D02*
X189550254Y-130691666D01*
X189550254Y-130691666D02*
X189502634Y-130596428D01*
X189502634Y-130596428D02*
X189502634Y-130501190D01*
X189502634Y-130501190D02*
X189550254Y-130405952D01*
X189550254Y-130405952D02*
X189597873Y-130358333D01*
X189597873Y-130358333D02*
X189693111Y-130310714D01*
X189693111Y-130310714D02*
X189883587Y-130263095D01*
X189883587Y-130263095D02*
X190121682Y-130263095D01*
X190121682Y-130263095D02*
X190312158Y-130310714D01*
X190312158Y-130310714D02*
X190407396Y-130358333D01*
X190407396Y-130358333D02*
X190455015Y-130405952D01*
X190455015Y-130405952D02*
X190502634Y-130501190D01*
X190502634Y-131167857D02*
X190502634Y-131786904D01*
X190502634Y-131786904D02*
X190121682Y-131453571D01*
X190121682Y-131453571D02*
X190121682Y-131596428D01*
X190121682Y-131596428D02*
X190074063Y-131691666D01*
X190074063Y-131691666D02*
X190026444Y-131739285D01*
X190026444Y-131739285D02*
X189931206Y-131786904D01*
X189931206Y-131786904D02*
X189693111Y-131786904D01*
X189693111Y-131786904D02*
X189597873Y-131739285D01*
X189597873Y-131739285D02*
X189550254Y-131691666D01*
X189550254Y-131691666D02*
X189502634Y-131596428D01*
X189502634Y-131596428D02*
X189502634Y-131310714D01*
X189502634Y-131310714D02*
X189550254Y-131215476D01*
X189550254Y-131215476D02*
X189597873Y-131167857D01*
X190407396Y-132167857D02*
X190455015Y-132215476D01*
X190455015Y-132215476D02*
X190502634Y-132310714D01*
X190502634Y-132310714D02*
X190502634Y-132548809D01*
X190502634Y-132548809D02*
X190455015Y-132644047D01*
X190455015Y-132644047D02*
X190407396Y-132691666D01*
X190407396Y-132691666D02*
X190312158Y-132739285D01*
X190312158Y-132739285D02*
X190216920Y-132739285D01*
X190216920Y-132739285D02*
X190074063Y-132691666D01*
X190074063Y-132691666D02*
X189502634Y-132120238D01*
X189502634Y-132120238D02*
X189502634Y-132739285D01*
X179054819Y-118508333D02*
X179769104Y-118508333D01*
X179769104Y-118508333D02*
X179911961Y-118555952D01*
X179911961Y-118555952D02*
X180007200Y-118651190D01*
X180007200Y-118651190D02*
X180054819Y-118794047D01*
X180054819Y-118794047D02*
X180054819Y-118889285D01*
X179388152Y-117603571D02*
X180054819Y-117603571D01*
X179007200Y-117841666D02*
X179721485Y-118079761D01*
X179721485Y-118079761D02*
X179721485Y-117460714D01*
X226104819Y-60373094D02*
X225104819Y-60373094D01*
X225104819Y-60373094D02*
X225104819Y-60134999D01*
X225104819Y-60134999D02*
X225152438Y-59992142D01*
X225152438Y-59992142D02*
X225247676Y-59896904D01*
X225247676Y-59896904D02*
X225342914Y-59849285D01*
X225342914Y-59849285D02*
X225533390Y-59801666D01*
X225533390Y-59801666D02*
X225676247Y-59801666D01*
X225676247Y-59801666D02*
X225866723Y-59849285D01*
X225866723Y-59849285D02*
X225961961Y-59896904D01*
X225961961Y-59896904D02*
X226057200Y-59992142D01*
X226057200Y-59992142D02*
X226104819Y-60134999D01*
X226104819Y-60134999D02*
X226104819Y-60373094D01*
X225438152Y-58944523D02*
X226104819Y-58944523D01*
X225057200Y-59182618D02*
X225771485Y-59420713D01*
X225771485Y-59420713D02*
X225771485Y-58801666D01*
X181604819Y-60263094D02*
X180604819Y-60263094D01*
X180604819Y-60263094D02*
X180604819Y-60024999D01*
X180604819Y-60024999D02*
X180652438Y-59882142D01*
X180652438Y-59882142D02*
X180747676Y-59786904D01*
X180747676Y-59786904D02*
X180842914Y-59739285D01*
X180842914Y-59739285D02*
X181033390Y-59691666D01*
X181033390Y-59691666D02*
X181176247Y-59691666D01*
X181176247Y-59691666D02*
X181366723Y-59739285D01*
X181366723Y-59739285D02*
X181461961Y-59786904D01*
X181461961Y-59786904D02*
X181557200Y-59882142D01*
X181557200Y-59882142D02*
X181604819Y-60024999D01*
X181604819Y-60024999D02*
X181604819Y-60263094D01*
X181604819Y-58739285D02*
X181604819Y-59310713D01*
X181604819Y-59024999D02*
X180604819Y-59024999D01*
X180604819Y-59024999D02*
X180747676Y-59120237D01*
X180747676Y-59120237D02*
X180842914Y-59215475D01*
X180842914Y-59215475D02*
X180890533Y-59310713D01*
X228794819Y-114938333D02*
X229509104Y-114938333D01*
X229509104Y-114938333D02*
X229651961Y-114985952D01*
X229651961Y-114985952D02*
X229747200Y-115081190D01*
X229747200Y-115081190D02*
X229794819Y-115224047D01*
X229794819Y-115224047D02*
X229794819Y-115319285D01*
X228890057Y-114509761D02*
X228842438Y-114462142D01*
X228842438Y-114462142D02*
X228794819Y-114366904D01*
X228794819Y-114366904D02*
X228794819Y-114128809D01*
X228794819Y-114128809D02*
X228842438Y-114033571D01*
X228842438Y-114033571D02*
X228890057Y-113985952D01*
X228890057Y-113985952D02*
X228985295Y-113938333D01*
X228985295Y-113938333D02*
X229080533Y-113938333D01*
X229080533Y-113938333D02*
X229223390Y-113985952D01*
X229223390Y-113985952D02*
X229794819Y-114557380D01*
X229794819Y-114557380D02*
X229794819Y-113938333D01*
X215738095Y-73899819D02*
X215738095Y-74709342D01*
X215738095Y-74709342D02*
X215785714Y-74804580D01*
X215785714Y-74804580D02*
X215833333Y-74852200D01*
X215833333Y-74852200D02*
X215928571Y-74899819D01*
X215928571Y-74899819D02*
X216119047Y-74899819D01*
X216119047Y-74899819D02*
X216214285Y-74852200D01*
X216214285Y-74852200D02*
X216261904Y-74804580D01*
X216261904Y-74804580D02*
X216309523Y-74709342D01*
X216309523Y-74709342D02*
X216309523Y-73899819D01*
X217261904Y-73899819D02*
X216785714Y-73899819D01*
X216785714Y-73899819D02*
X216738095Y-74376009D01*
X216738095Y-74376009D02*
X216785714Y-74328390D01*
X216785714Y-74328390D02*
X216880952Y-74280771D01*
X216880952Y-74280771D02*
X217119047Y-74280771D01*
X217119047Y-74280771D02*
X217214285Y-74328390D01*
X217214285Y-74328390D02*
X217261904Y-74376009D01*
X217261904Y-74376009D02*
X217309523Y-74471247D01*
X217309523Y-74471247D02*
X217309523Y-74709342D01*
X217309523Y-74709342D02*
X217261904Y-74804580D01*
X217261904Y-74804580D02*
X217214285Y-74852200D01*
X217214285Y-74852200D02*
X217119047Y-74899819D01*
X217119047Y-74899819D02*
X216880952Y-74899819D01*
X216880952Y-74899819D02*
X216785714Y-74852200D01*
X216785714Y-74852200D02*
X216738095Y-74804580D01*
D18*
X190990832Y-55618667D02*
X192657499Y-55618667D01*
X190657499Y-56618667D02*
X191824166Y-53118667D01*
X191824166Y-53118667D02*
X192990832Y-56618667D01*
X194157499Y-54285334D02*
X194157499Y-56618667D01*
X194157499Y-54618667D02*
X194324166Y-54452001D01*
X194324166Y-54452001D02*
X194657499Y-54285334D01*
X194657499Y-54285334D02*
X195157499Y-54285334D01*
X195157499Y-54285334D02*
X195490832Y-54452001D01*
X195490832Y-54452001D02*
X195657499Y-54785334D01*
X195657499Y-54785334D02*
X195657499Y-56618667D01*
X196824166Y-54285334D02*
X198157499Y-54285334D01*
X197324166Y-53118667D02*
X197324166Y-56118667D01*
X197324166Y-56118667D02*
X197490833Y-56452001D01*
X197490833Y-56452001D02*
X197824166Y-56618667D01*
X197824166Y-56618667D02*
X198157499Y-56618667D01*
X200657499Y-56452001D02*
X200324166Y-56618667D01*
X200324166Y-56618667D02*
X199657499Y-56618667D01*
X199657499Y-56618667D02*
X199324166Y-56452001D01*
X199324166Y-56452001D02*
X199157499Y-56118667D01*
X199157499Y-56118667D02*
X199157499Y-54785334D01*
X199157499Y-54785334D02*
X199324166Y-54452001D01*
X199324166Y-54452001D02*
X199657499Y-54285334D01*
X199657499Y-54285334D02*
X200324166Y-54285334D01*
X200324166Y-54285334D02*
X200657499Y-54452001D01*
X200657499Y-54452001D02*
X200824166Y-54785334D01*
X200824166Y-54785334D02*
X200824166Y-55118667D01*
X200824166Y-55118667D02*
X199157499Y-55452001D01*
X202324166Y-54285334D02*
X202324166Y-56618667D01*
X202324166Y-54618667D02*
X202490833Y-54452001D01*
X202490833Y-54452001D02*
X202824166Y-54285334D01*
X202824166Y-54285334D02*
X203324166Y-54285334D01*
X203324166Y-54285334D02*
X203657499Y-54452001D01*
X203657499Y-54452001D02*
X203824166Y-54785334D01*
X203824166Y-54785334D02*
X203824166Y-56618667D01*
X205490833Y-54285334D02*
X205490833Y-56618667D01*
X205490833Y-54618667D02*
X205657500Y-54452001D01*
X205657500Y-54452001D02*
X205990833Y-54285334D01*
X205990833Y-54285334D02*
X206490833Y-54285334D01*
X206490833Y-54285334D02*
X206824166Y-54452001D01*
X206824166Y-54452001D02*
X206990833Y-54785334D01*
X206990833Y-54785334D02*
X206990833Y-56618667D01*
X210157500Y-56618667D02*
X210157500Y-54785334D01*
X210157500Y-54785334D02*
X209990833Y-54452001D01*
X209990833Y-54452001D02*
X209657500Y-54285334D01*
X209657500Y-54285334D02*
X208990833Y-54285334D01*
X208990833Y-54285334D02*
X208657500Y-54452001D01*
X210157500Y-56452001D02*
X209824167Y-56618667D01*
X209824167Y-56618667D02*
X208990833Y-56618667D01*
X208990833Y-56618667D02*
X208657500Y-56452001D01*
X208657500Y-56452001D02*
X208490833Y-56118667D01*
X208490833Y-56118667D02*
X208490833Y-55785334D01*
X208490833Y-55785334D02*
X208657500Y-55452001D01*
X208657500Y-55452001D02*
X208990833Y-55285334D01*
X208990833Y-55285334D02*
X209824167Y-55285334D01*
X209824167Y-55285334D02*
X210157500Y-55118667D01*
D17*
D19*
X195598928Y-101642285D02*
X195598928Y-105285142D01*
X195598928Y-105285142D02*
X195813214Y-105713714D01*
X195813214Y-105713714D02*
X196027500Y-105928000D01*
X196027500Y-105928000D02*
X196456071Y-106142285D01*
X196456071Y-106142285D02*
X197313214Y-106142285D01*
X197313214Y-106142285D02*
X197741785Y-105928000D01*
X197741785Y-105928000D02*
X197956071Y-105713714D01*
X197956071Y-105713714D02*
X198170357Y-105285142D01*
X198170357Y-105285142D02*
X198170357Y-101642285D01*
X200098928Y-105928000D02*
X200741786Y-106142285D01*
X200741786Y-106142285D02*
X201813214Y-106142285D01*
X201813214Y-106142285D02*
X202241786Y-105928000D01*
X202241786Y-105928000D02*
X202456071Y-105713714D01*
X202456071Y-105713714D02*
X202670357Y-105285142D01*
X202670357Y-105285142D02*
X202670357Y-104856571D01*
X202670357Y-104856571D02*
X202456071Y-104428000D01*
X202456071Y-104428000D02*
X202241786Y-104213714D01*
X202241786Y-104213714D02*
X201813214Y-103999428D01*
X201813214Y-103999428D02*
X200956071Y-103785142D01*
X200956071Y-103785142D02*
X200527500Y-103570857D01*
X200527500Y-103570857D02*
X200313214Y-103356571D01*
X200313214Y-103356571D02*
X200098928Y-102928000D01*
X200098928Y-102928000D02*
X200098928Y-102499428D01*
X200098928Y-102499428D02*
X200313214Y-102070857D01*
X200313214Y-102070857D02*
X200527500Y-101856571D01*
X200527500Y-101856571D02*
X200956071Y-101642285D01*
X200956071Y-101642285D02*
X202027500Y-101642285D01*
X202027500Y-101642285D02*
X202670357Y-101856571D01*
X206098928Y-103785142D02*
X206741785Y-103999428D01*
X206741785Y-103999428D02*
X206956071Y-104213714D01*
X206956071Y-104213714D02*
X207170357Y-104642285D01*
X207170357Y-104642285D02*
X207170357Y-105285142D01*
X207170357Y-105285142D02*
X206956071Y-105713714D01*
X206956071Y-105713714D02*
X206741785Y-105928000D01*
X206741785Y-105928000D02*
X206313214Y-106142285D01*
X206313214Y-106142285D02*
X204598928Y-106142285D01*
X204598928Y-106142285D02*
X204598928Y-101642285D01*
X204598928Y-101642285D02*
X206098928Y-101642285D01*
X206098928Y-101642285D02*
X206527500Y-101856571D01*
X206527500Y-101856571D02*
X206741785Y-102070857D01*
X206741785Y-102070857D02*
X206956071Y-102499428D01*
X206956071Y-102499428D02*
X206956071Y-102928000D01*
X206956071Y-102928000D02*
X206741785Y-103356571D01*
X206741785Y-103356571D02*
X206527500Y-103570857D01*
X206527500Y-103570857D02*
X206098928Y-103785142D01*
X206098928Y-103785142D02*
X204598928Y-103785142D01*
D17*
X181776666Y-74339819D02*
X181776666Y-75054104D01*
X181776666Y-75054104D02*
X181729047Y-75196961D01*
X181729047Y-75196961D02*
X181633809Y-75292200D01*
X181633809Y-75292200D02*
X181490952Y-75339819D01*
X181490952Y-75339819D02*
X181395714Y-75339819D01*
X182776666Y-75339819D02*
X182205238Y-75339819D01*
X182490952Y-75339819D02*
X182490952Y-74339819D01*
X182490952Y-74339819D02*
X182395714Y-74482676D01*
X182395714Y-74482676D02*
X182300476Y-74577914D01*
X182300476Y-74577914D02*
X182205238Y-74625533D01*
X215761905Y-106979819D02*
X215761905Y-105979819D01*
X216333333Y-106979819D02*
X215904762Y-106408390D01*
X216333333Y-105979819D02*
X215761905Y-106551247D01*
X217285714Y-106979819D02*
X216714286Y-106979819D01*
X217000000Y-106979819D02*
X217000000Y-105979819D01*
X217000000Y-105979819D02*
X216904762Y-106122676D01*
X216904762Y-106122676D02*
X216809524Y-106217914D01*
X216809524Y-106217914D02*
X216714286Y-106265533D01*
X222933333Y-82994580D02*
X222885714Y-83042200D01*
X222885714Y-83042200D02*
X222742857Y-83089819D01*
X222742857Y-83089819D02*
X222647619Y-83089819D01*
X222647619Y-83089819D02*
X222504762Y-83042200D01*
X222504762Y-83042200D02*
X222409524Y-82946961D01*
X222409524Y-82946961D02*
X222361905Y-82851723D01*
X222361905Y-82851723D02*
X222314286Y-82661247D01*
X222314286Y-82661247D02*
X222314286Y-82518390D01*
X222314286Y-82518390D02*
X222361905Y-82327914D01*
X222361905Y-82327914D02*
X222409524Y-82232676D01*
X222409524Y-82232676D02*
X222504762Y-82137438D01*
X222504762Y-82137438D02*
X222647619Y-82089819D01*
X222647619Y-82089819D02*
X222742857Y-82089819D01*
X222742857Y-82089819D02*
X222885714Y-82137438D01*
X222885714Y-82137438D02*
X222933333Y-82185057D01*
X223790476Y-82089819D02*
X223600000Y-82089819D01*
X223600000Y-82089819D02*
X223504762Y-82137438D01*
X223504762Y-82137438D02*
X223457143Y-82185057D01*
X223457143Y-82185057D02*
X223361905Y-82327914D01*
X223361905Y-82327914D02*
X223314286Y-82518390D01*
X223314286Y-82518390D02*
X223314286Y-82899342D01*
X223314286Y-82899342D02*
X223361905Y-82994580D01*
X223361905Y-82994580D02*
X223409524Y-83042200D01*
X223409524Y-83042200D02*
X223504762Y-83089819D01*
X223504762Y-83089819D02*
X223695238Y-83089819D01*
X223695238Y-83089819D02*
X223790476Y-83042200D01*
X223790476Y-83042200D02*
X223838095Y-82994580D01*
X223838095Y-82994580D02*
X223885714Y-82899342D01*
X223885714Y-82899342D02*
X223885714Y-82661247D01*
X223885714Y-82661247D02*
X223838095Y-82566009D01*
X223838095Y-82566009D02*
X223790476Y-82518390D01*
X223790476Y-82518390D02*
X223695238Y-82470771D01*
X223695238Y-82470771D02*
X223504762Y-82470771D01*
X223504762Y-82470771D02*
X223409524Y-82518390D01*
X223409524Y-82518390D02*
X223361905Y-82566009D01*
X223361905Y-82566009D02*
X223314286Y-82661247D01*
X220133333Y-84789819D02*
X219561905Y-84789819D01*
X219847619Y-84789819D02*
X219847619Y-83789819D01*
X219847619Y-83789819D02*
X219752381Y-83932676D01*
X219752381Y-83932676D02*
X219657143Y-84027914D01*
X219657143Y-84027914D02*
X219561905Y-84075533D01*
X220752381Y-83789819D02*
X220847619Y-83789819D01*
X220847619Y-83789819D02*
X220942857Y-83837438D01*
X220942857Y-83837438D02*
X220990476Y-83885057D01*
X220990476Y-83885057D02*
X221038095Y-83980295D01*
X221038095Y-83980295D02*
X221085714Y-84170771D01*
X221085714Y-84170771D02*
X221085714Y-84408866D01*
X221085714Y-84408866D02*
X221038095Y-84599342D01*
X221038095Y-84599342D02*
X220990476Y-84694580D01*
X220990476Y-84694580D02*
X220942857Y-84742200D01*
X220942857Y-84742200D02*
X220847619Y-84789819D01*
X220847619Y-84789819D02*
X220752381Y-84789819D01*
X220752381Y-84789819D02*
X220657143Y-84742200D01*
X220657143Y-84742200D02*
X220609524Y-84694580D01*
X220609524Y-84694580D02*
X220561905Y-84599342D01*
X220561905Y-84599342D02*
X220514286Y-84408866D01*
X220514286Y-84408866D02*
X220514286Y-84170771D01*
X220514286Y-84170771D02*
X220561905Y-83980295D01*
X220561905Y-83980295D02*
X220609524Y-83885057D01*
X220609524Y-83885057D02*
X220657143Y-83837438D01*
X220657143Y-83837438D02*
X220752381Y-83789819D01*
X221704762Y-83789819D02*
X221800000Y-83789819D01*
X221800000Y-83789819D02*
X221895238Y-83837438D01*
X221895238Y-83837438D02*
X221942857Y-83885057D01*
X221942857Y-83885057D02*
X221990476Y-83980295D01*
X221990476Y-83980295D02*
X222038095Y-84170771D01*
X222038095Y-84170771D02*
X222038095Y-84408866D01*
X222038095Y-84408866D02*
X221990476Y-84599342D01*
X221990476Y-84599342D02*
X221942857Y-84694580D01*
X221942857Y-84694580D02*
X221895238Y-84742200D01*
X221895238Y-84742200D02*
X221800000Y-84789819D01*
X221800000Y-84789819D02*
X221704762Y-84789819D01*
X221704762Y-84789819D02*
X221609524Y-84742200D01*
X221609524Y-84742200D02*
X221561905Y-84694580D01*
X221561905Y-84694580D02*
X221514286Y-84599342D01*
X221514286Y-84599342D02*
X221466667Y-84408866D01*
X221466667Y-84408866D02*
X221466667Y-84170771D01*
X221466667Y-84170771D02*
X221514286Y-83980295D01*
X221514286Y-83980295D02*
X221561905Y-83885057D01*
X221561905Y-83885057D02*
X221609524Y-83837438D01*
X221609524Y-83837438D02*
X221704762Y-83789819D01*
X222895238Y-84123152D02*
X222895238Y-84789819D01*
X222466667Y-84123152D02*
X222466667Y-84646961D01*
X222466667Y-84646961D02*
X222514286Y-84742200D01*
X222514286Y-84742200D02*
X222609524Y-84789819D01*
X222609524Y-84789819D02*
X222752381Y-84789819D01*
X222752381Y-84789819D02*
X222847619Y-84742200D01*
X222847619Y-84742200D02*
X222895238Y-84694580D01*
X223704762Y-84266009D02*
X223371429Y-84266009D01*
X223371429Y-84789819D02*
X223371429Y-83789819D01*
X223371429Y-83789819D02*
X223847619Y-83789819D01*
X224276191Y-84742200D02*
X224276191Y-84789819D01*
X224276191Y-84789819D02*
X224228572Y-84885057D01*
X224228572Y-84885057D02*
X224180953Y-84932676D01*
X225228571Y-84789819D02*
X224657143Y-84789819D01*
X224942857Y-84789819D02*
X224942857Y-83789819D01*
X224942857Y-83789819D02*
X224847619Y-83932676D01*
X224847619Y-83932676D02*
X224752381Y-84027914D01*
X224752381Y-84027914D02*
X224657143Y-84075533D01*
X226085714Y-83789819D02*
X225895238Y-83789819D01*
X225895238Y-83789819D02*
X225800000Y-83837438D01*
X225800000Y-83837438D02*
X225752381Y-83885057D01*
X225752381Y-83885057D02*
X225657143Y-84027914D01*
X225657143Y-84027914D02*
X225609524Y-84218390D01*
X225609524Y-84218390D02*
X225609524Y-84599342D01*
X225609524Y-84599342D02*
X225657143Y-84694580D01*
X225657143Y-84694580D02*
X225704762Y-84742200D01*
X225704762Y-84742200D02*
X225800000Y-84789819D01*
X225800000Y-84789819D02*
X225990476Y-84789819D01*
X225990476Y-84789819D02*
X226085714Y-84742200D01*
X226085714Y-84742200D02*
X226133333Y-84694580D01*
X226133333Y-84694580D02*
X226180952Y-84599342D01*
X226180952Y-84599342D02*
X226180952Y-84361247D01*
X226180952Y-84361247D02*
X226133333Y-84266009D01*
X226133333Y-84266009D02*
X226085714Y-84218390D01*
X226085714Y-84218390D02*
X225990476Y-84170771D01*
X225990476Y-84170771D02*
X225800000Y-84170771D01*
X225800000Y-84170771D02*
X225704762Y-84218390D01*
X225704762Y-84218390D02*
X225657143Y-84266009D01*
X225657143Y-84266009D02*
X225609524Y-84361247D01*
X226466667Y-83789819D02*
X226800000Y-84789819D01*
X226800000Y-84789819D02*
X227133333Y-83789819D01*
D20*
%TO.C,BT1*%
X190190001Y-116975001D02*
G75*
G02*
X190190001Y-123174999I11499999J-3099999D01*
G01*
X190690000Y-120074999D02*
X191690000Y-120075000D01*
X191190000Y-119575000D02*
X191189999Y-120575000D01*
%TO.C,J4*%
X180390000Y-121535000D02*
X181640000Y-121535000D01*
X182000000Y-121235000D02*
X182000000Y-120625000D01*
X183300000Y-121235000D02*
X183300000Y-120625000D01*
X181300000Y-120625000D02*
X184800000Y-120625000D01*
X184800000Y-120625000D02*
X184800000Y-115725000D01*
X180390000Y-120285000D02*
X180390000Y-121535000D01*
X180490000Y-119775000D02*
X180690000Y-119775000D01*
X180490000Y-119475000D02*
X180490000Y-119775000D01*
X180590000Y-119475000D02*
X180590000Y-119775000D01*
X180690000Y-119475000D02*
X180490000Y-119475000D01*
X180690000Y-118675000D02*
X181300000Y-118675000D01*
X181300000Y-118675000D02*
X181300000Y-120625000D01*
X184300000Y-118275000D02*
X184300000Y-118075000D01*
X184800000Y-118275000D02*
X184300000Y-118275000D01*
X184800000Y-118175000D02*
X184300000Y-118175000D01*
X184300000Y-118075000D02*
X184800000Y-118075000D01*
X181300000Y-117675000D02*
X180690000Y-117675000D01*
X181300000Y-115725000D02*
X181300000Y-117675000D01*
X184800000Y-115725000D02*
X181300000Y-115725000D01*
X182000000Y-115115000D02*
X182000000Y-115725000D01*
X183300000Y-115115000D02*
X183300000Y-115725000D01*
X180690000Y-121235000D02*
X185410000Y-121235000D01*
X185410000Y-115115000D01*
X180690000Y-115115000D01*
X180690000Y-121235000D01*
%TO.C,D4*%
X224710000Y-58923748D02*
X224710000Y-60346252D01*
X222890000Y-58923748D02*
X222890000Y-60346252D01*
%TO.C,D1*%
X180210000Y-58813748D02*
X180210000Y-60236252D01*
X178390000Y-58813748D02*
X178390000Y-60236252D01*
%TO.C,J2*%
X221140000Y-109325000D02*
X226440000Y-109325000D01*
X221140000Y-110065000D02*
X221140000Y-109325000D01*
X221140000Y-114065000D02*
X221140000Y-115145000D01*
X221140000Y-119885000D02*
X221140000Y-119145000D01*
X226440000Y-109325000D02*
X226440000Y-119885000D01*
X226440000Y-119885000D02*
X221140000Y-119885000D01*
X227440000Y-108415000D02*
X227440000Y-110955000D01*
X227440000Y-113065000D02*
X227440000Y-116145000D01*
X227440000Y-120795000D02*
X227440000Y-118255000D01*
X228450000Y-112065000D02*
X229050000Y-111765000D01*
X229050000Y-111765000D02*
X229050000Y-112365000D01*
X229050000Y-112365000D02*
X228450000Y-112065000D01*
X228250000Y-108415000D02*
X219430000Y-108415000D01*
X219430000Y-120795000D01*
X228250000Y-120795000D01*
X228250000Y-108415000D01*
X228250000Y-111065000D02*
X226440000Y-111065000D01*
X226440000Y-113065000D01*
X228250000Y-113065000D01*
X228250000Y-111065000D01*
X228250000Y-116145000D02*
X226440000Y-116145000D01*
X226440000Y-118145000D01*
X228250000Y-118145000D01*
X228250000Y-116145000D01*
X221124179Y-114051842D02*
G75*
G02*
X221140000Y-110065000I1665821J1986842D01*
G01*
X221124179Y-119131842D02*
G75*
G02*
X221140000Y-115145000I1665821J1986842D01*
G01*
%TO.C,U5*%
D14*
X187027500Y-52245000D02*
X214752500Y-52245000D01*
X214752500Y-57845000D01*
X187027500Y-57845000D01*
X187027500Y-52245000D01*
D21*
X187027500Y-57845000D02*
X214752500Y-57845000D01*
X214752500Y-97291000D01*
X187027500Y-97291000D01*
X187027500Y-57845000D01*
D14*
X187027500Y-97291000D02*
X214702500Y-97291000D01*
X214702500Y-107045000D01*
X187027500Y-107045000D01*
X187027500Y-97291000D01*
X194377500Y-100645000D02*
X208077500Y-100645000D01*
X208077500Y-107045000D01*
X194377500Y-107045000D01*
X194377500Y-100645000D01*
D20*
%TO.C,J1*%
X181155821Y-87488158D02*
G75*
G02*
X181140000Y-91475000I-1665821J-1986842D01*
G01*
X181155821Y-82408158D02*
G75*
G02*
X181140000Y-86395000I-1665821J-1986842D01*
G01*
X181155821Y-77328158D02*
G75*
G02*
X181140000Y-81315000I-1665821J-1986842D01*
G01*
X174030000Y-93125000D02*
X182850000Y-93125000D01*
X182850000Y-75665000D01*
X174030000Y-75665000D01*
X174030000Y-93125000D01*
X174030000Y-90475000D02*
X175840000Y-90475000D01*
X175840000Y-88475000D01*
X174030000Y-88475000D01*
X174030000Y-90475000D01*
X174030000Y-85395000D02*
X175840000Y-85395000D01*
X175840000Y-83395000D01*
X174030000Y-83395000D01*
X174030000Y-85395000D01*
X174030000Y-80315000D02*
X175840000Y-80315000D01*
X175840000Y-78315000D01*
X174030000Y-78315000D01*
X174030000Y-80315000D01*
X181140000Y-92215000D02*
X175840000Y-92215000D01*
X181140000Y-91475000D02*
X181140000Y-92215000D01*
X181140000Y-87475000D02*
X181140000Y-86395000D01*
X181140000Y-82395000D02*
X181140000Y-81315000D01*
X181140000Y-76575000D02*
X181140000Y-77315000D01*
X175840000Y-92215000D02*
X175840000Y-76575000D01*
X175840000Y-76575000D02*
X181140000Y-76575000D01*
X174840000Y-93125000D02*
X174840000Y-90585000D01*
X174840000Y-88475000D02*
X174840000Y-85395000D01*
X174840000Y-83395000D02*
X174840000Y-80315000D01*
X174840000Y-75665000D02*
X174840000Y-78205000D01*
X173830000Y-89475000D02*
X173230000Y-89775000D01*
X173230000Y-89775000D02*
X173230000Y-89175000D01*
X173230000Y-89175000D02*
X173830000Y-89475000D01*
%TO.C,K1*%
X216390000Y-105385000D02*
X216390000Y-85585000D01*
X218140000Y-90535000D02*
X218140000Y-93035000D01*
X219990000Y-101135000D02*
X222440000Y-101135000D01*
X220540000Y-96435000D02*
X220540000Y-89635000D01*
X222340000Y-91035000D02*
X225940000Y-91035000D01*
X222340000Y-93035000D02*
X218140000Y-93035000D01*
X222340000Y-95035000D02*
X222340000Y-91035000D01*
X222340000Y-95035000D02*
X225940000Y-91035000D01*
X222990000Y-85585000D02*
X216390000Y-85585000D01*
X224140000Y-89635000D02*
X220540000Y-89635000D01*
X224140000Y-89635000D02*
X224140000Y-88835000D01*
X224140000Y-96435000D02*
X220540000Y-96435000D01*
X224140000Y-96435000D02*
X224140000Y-97935000D01*
X224140000Y-97935000D02*
X226640000Y-102535000D01*
X225940000Y-91035000D02*
X225940000Y-95035000D01*
X225940000Y-95035000D02*
X222340000Y-95035000D01*
X228390000Y-101135000D02*
X225890000Y-101135000D01*
X230140000Y-93035000D02*
X225940000Y-93035000D01*
X230140000Y-93035000D02*
X230140000Y-90535000D01*
X231990000Y-85585000D02*
X225390000Y-85585000D01*
X231990000Y-85585000D02*
X231990000Y-105385000D01*
X231990000Y-105385000D02*
X216390000Y-105385000D01*
%TO.C,C6*%
X232320000Y-81835000D02*
G75*
G02*
X227080000Y-81835000I-2620000J0D01*
G01*
X227080000Y-81835000D02*
G75*
G02*
X232320000Y-81835000I2620000J0D01*
G01*
%TD*%
M02*
