%TF.GenerationSoftware,KiCad,Pcbnew,9.0.7*%
%TF.CreationDate,2026-07-18T06:45:16+05:30*%
%TF.ProjectId,Nursary_OneCH,4e757273-6172-4795-9f4f-6e6543482e6b,rev?*%
%TF.SameCoordinates,Original*%
%TF.FileFunction,Soldermask,Top*%
%TF.FilePolarity,Negative*%
%FSLAX46Y46*%
G04 Gerber Fmt 4.6, Leading zero omitted, Abs format (unit mm)*
G04 Created by KiCad (PCBNEW 9.0.7) date 2026-07-18 06:45:16*
%MOMM*%
%LPD*%
G01*
G04 APERTURE LIST*
G04 Aperture macros list*
%AMRoundRect*
0 Rectangle with rounded corners*
0 $1 Rounding radius*
0 $2 $3 $4 $5 $6 $7 $8 $9 X,Y pos of 4 corners*
0 Add a 4 corners polygon primitive as box body*
4,1,4,$2,$3,$4,$5,$6,$7,$8,$9,$2,$3,0*
0 Add four circle primitives for the rounded corners*
1,1,$1+$1,$2,$3*
1,1,$1+$1,$4,$5*
1,1,$1+$1,$6,$7*
1,1,$1+$1,$8,$9*
0 Add four rect primitives between the rounded corners*
20,1,$1+$1,$2,$3,$4,$5,0*
20,1,$1+$1,$4,$5,$6,$7,0*
20,1,$1+$1,$6,$7,$8,$9,0*
20,1,$1+$1,$8,$9,$2,$3,0*%
G04 Aperture macros list end*
%ADD10RoundRect,0.250000X-0.750000X0.600000X-0.750000X-0.600000X0.750000X-0.600000X0.750000X0.600000X0*%
%ADD11O,2.000000X1.700000*%
%ADD12C,4.500000*%
%ADD13RoundRect,0.218750X-0.218750X-0.256250X0.218750X-0.256250X0.218750X0.256250X-0.218750X0.256250X0*%
%ADD14R,1.350000X1.350000*%
%ADD15C,1.350000*%
%ADD16O,2.000000X1.200000*%
%ADD17C,3.000000*%
%ADD18C,2.500000*%
%ADD19C,1.200000*%
%ADD20RoundRect,0.250000X-0.600000X-0.725000X0.600000X-0.725000X0.600000X0.725000X-0.600000X0.725000X0*%
%ADD21O,1.700000X1.950000*%
%ADD22R,3.000000X3.000000*%
%ADD23C,1.000000*%
G04 APERTURE END LIST*
D10*
%TO.C,J2*%
X111250000Y-56025000D03*
D11*
X111250000Y-58525000D03*
%TD*%
D12*
%TO.C,H1*%
X111700000Y-135800000D03*
%TD*%
D13*
%TO.C,D1*%
X131875000Y-131800000D03*
X133450000Y-131800000D03*
%TD*%
D14*
%TO.C,J3*%
X133125000Y-63250000D03*
D15*
X133125000Y-65250000D03*
%TD*%
D12*
%TO.C,.*%
X111700000Y-47775000D03*
%TD*%
D16*
%TO.C,U5*%
X108550000Y-114660000D03*
X108550000Y-112100000D03*
X108525000Y-91825000D03*
X108525000Y-89265000D03*
X108475000Y-86725000D03*
X108475000Y-84165000D03*
X108500000Y-81650000D03*
X108500000Y-79090000D03*
X133500000Y-79090000D03*
X133500000Y-81650000D03*
X133475000Y-84165000D03*
X133475000Y-86725000D03*
X133525000Y-89265000D03*
X133525000Y-91825000D03*
X133550000Y-112100000D03*
X133550000Y-114660000D03*
%TD*%
D17*
%TO.C,K1*%
X134675000Y-51800000D03*
D18*
X132725000Y-45750000D03*
D17*
X120525000Y-45750000D03*
X120475000Y-57800000D03*
D18*
X132725000Y-57750000D03*
%TD*%
D10*
%TO.C,J3*%
X134400000Y-62925000D03*
D11*
X134400000Y-65425000D03*
%TD*%
D19*
%TO.C,C6*%
X127350000Y-64825000D03*
X127350000Y-66825000D03*
%TD*%
D13*
%TO.C,D4*%
X117112500Y-66825000D03*
X118687500Y-66825000D03*
%TD*%
D20*
%TO.C,J1*%
X130175000Y-136225000D03*
D21*
X132675000Y-136225000D03*
X135175000Y-136225000D03*
%TD*%
D22*
%TO.C,BT1*%
X121400000Y-114950000D03*
D17*
X121400000Y-94150000D03*
%TD*%
D13*
%TO.C,D3*%
X117462500Y-132075000D03*
X119037500Y-132075000D03*
%TD*%
D20*
%TO.C,J4*%
X118525000Y-136300000D03*
D21*
X121025000Y-136300000D03*
X123525000Y-136300000D03*
%TD*%
D23*
%TO.C,Y1*%
X118545000Y-91320000D03*
X116005000Y-91320000D03*
%TD*%
M02*
