%TF.GenerationSoftware,KiCad,Pcbnew,9.0.7*%
%TF.CreationDate,2026-08-05T20:51:14+05:30*%
%TF.ProjectId,Nursary_OneCH,4e757273-6172-4795-9f4f-6e6543482e6b,rev?*%
%TF.SameCoordinates,Original*%
%TF.FileFunction,Legend,Top*%
%TF.FilePolarity,Positive*%
%FSLAX46Y46*%
G04 Gerber Fmt 4.6, Leading zero omitted, Abs format (unit mm)*
G04 Created by KiCad (PCBNEW 9.0.7) date 2026-08-05 20:51:14*
%MOMM*%
%LPD*%
G01*
G04 APERTURE LIST*
%ADD10C,0.200000*%
%ADD11C,0.240000*%
%ADD12C,0.300000*%
%ADD13C,0.750000*%
%ADD14C,0.150000*%
%ADD15C,0.875000*%
%ADD16C,1.000000*%
%ADD17C,0.120000*%
%ADD18C,0.100000*%
G04 APERTURE END LIST*
D10*
X186713733Y-115144673D02*
X186713733Y-115906578D01*
X186332780Y-115525625D02*
X187094685Y-115525625D01*
X187332780Y-116858958D02*
X187332780Y-116382768D01*
X187332780Y-116382768D02*
X186856590Y-116335149D01*
X186856590Y-116335149D02*
X186904209Y-116382768D01*
X186904209Y-116382768D02*
X186951828Y-116478006D01*
X186951828Y-116478006D02*
X186951828Y-116716101D01*
X186951828Y-116716101D02*
X186904209Y-116811339D01*
X186904209Y-116811339D02*
X186856590Y-116858958D01*
X186856590Y-116858958D02*
X186761352Y-116906577D01*
X186761352Y-116906577D02*
X186523257Y-116906577D01*
X186523257Y-116906577D02*
X186428019Y-116858958D01*
X186428019Y-116858958D02*
X186380400Y-116811339D01*
X186380400Y-116811339D02*
X186332780Y-116716101D01*
X186332780Y-116716101D02*
X186332780Y-116478006D01*
X186332780Y-116478006D02*
X186380400Y-116382768D01*
X186380400Y-116382768D02*
X186428019Y-116335149D01*
X187332780Y-117192292D02*
X186332780Y-117525625D01*
X186332780Y-117525625D02*
X187332780Y-117858958D01*
X185580400Y-98897054D02*
X185532780Y-99039911D01*
X185532780Y-99039911D02*
X185532780Y-99278006D01*
X185532780Y-99278006D02*
X185580400Y-99373244D01*
X185580400Y-99373244D02*
X185628019Y-99420863D01*
X185628019Y-99420863D02*
X185723257Y-99468482D01*
X185723257Y-99468482D02*
X185818495Y-99468482D01*
X185818495Y-99468482D02*
X185913733Y-99420863D01*
X185913733Y-99420863D02*
X185961352Y-99373244D01*
X185961352Y-99373244D02*
X186008971Y-99278006D01*
X186008971Y-99278006D02*
X186056590Y-99087530D01*
X186056590Y-99087530D02*
X186104209Y-98992292D01*
X186104209Y-98992292D02*
X186151828Y-98944673D01*
X186151828Y-98944673D02*
X186247066Y-98897054D01*
X186247066Y-98897054D02*
X186342304Y-98897054D01*
X186342304Y-98897054D02*
X186437542Y-98944673D01*
X186437542Y-98944673D02*
X186485161Y-98992292D01*
X186485161Y-98992292D02*
X186532780Y-99087530D01*
X186532780Y-99087530D02*
X186532780Y-99325625D01*
X186532780Y-99325625D02*
X186485161Y-99468482D01*
X185532780Y-99897054D02*
X186532780Y-99897054D01*
X186485161Y-100897053D02*
X186532780Y-100801815D01*
X186532780Y-100801815D02*
X186532780Y-100658958D01*
X186532780Y-100658958D02*
X186485161Y-100516101D01*
X186485161Y-100516101D02*
X186389923Y-100420863D01*
X186389923Y-100420863D02*
X186294685Y-100373244D01*
X186294685Y-100373244D02*
X186104209Y-100325625D01*
X186104209Y-100325625D02*
X185961352Y-100325625D01*
X185961352Y-100325625D02*
X185770876Y-100373244D01*
X185770876Y-100373244D02*
X185675638Y-100420863D01*
X185675638Y-100420863D02*
X185580400Y-100516101D01*
X185580400Y-100516101D02*
X185532780Y-100658958D01*
X185532780Y-100658958D02*
X185532780Y-100754196D01*
X185532780Y-100754196D02*
X185580400Y-100897053D01*
X185580400Y-100897053D02*
X185628019Y-100944672D01*
X185628019Y-100944672D02*
X185961352Y-100944672D01*
X185961352Y-100944672D02*
X185961352Y-100754196D01*
D11*
X213483520Y-100189284D02*
X213483520Y-99274999D01*
X213940662Y-99732141D02*
X213026377Y-99732141D01*
X212740662Y-98817856D02*
X212740662Y-98074999D01*
X212740662Y-98074999D02*
X213197805Y-98474999D01*
X213197805Y-98474999D02*
X213197805Y-98303570D01*
X213197805Y-98303570D02*
X213254948Y-98189285D01*
X213254948Y-98189285D02*
X213312091Y-98132142D01*
X213312091Y-98132142D02*
X213426377Y-98074999D01*
X213426377Y-98074999D02*
X213712091Y-98074999D01*
X213712091Y-98074999D02*
X213826377Y-98132142D01*
X213826377Y-98132142D02*
X213883520Y-98189285D01*
X213883520Y-98189285D02*
X213940662Y-98303570D01*
X213940662Y-98303570D02*
X213940662Y-98646427D01*
X213940662Y-98646427D02*
X213883520Y-98760713D01*
X213883520Y-98760713D02*
X213826377Y-98817856D01*
X212740662Y-97732142D02*
X213940662Y-97332142D01*
X213940662Y-97332142D02*
X212740662Y-96932142D01*
X212740662Y-96646428D02*
X212740662Y-95903571D01*
X212740662Y-95903571D02*
X213197805Y-96303571D01*
X213197805Y-96303571D02*
X213197805Y-96132142D01*
X213197805Y-96132142D02*
X213254948Y-96017857D01*
X213254948Y-96017857D02*
X213312091Y-95960714D01*
X213312091Y-95960714D02*
X213426377Y-95903571D01*
X213426377Y-95903571D02*
X213712091Y-95903571D01*
X213712091Y-95903571D02*
X213826377Y-95960714D01*
X213826377Y-95960714D02*
X213883520Y-96017857D01*
X213883520Y-96017857D02*
X213940662Y-96132142D01*
X213940662Y-96132142D02*
X213940662Y-96474999D01*
X213940662Y-96474999D02*
X213883520Y-96589285D01*
X213883520Y-96589285D02*
X213826377Y-96646428D01*
X69221428Y-61217480D02*
X68078571Y-61217480D01*
X68649999Y-60646051D02*
X68649999Y-61788908D01*
D12*
X218239638Y-120958584D02*
X217287257Y-121625251D01*
X218239638Y-122101441D02*
X216239638Y-122101441D01*
X216239638Y-122101441D02*
X216239638Y-121339536D01*
X216239638Y-121339536D02*
X216334876Y-121149060D01*
X216334876Y-121149060D02*
X216430114Y-121053822D01*
X216430114Y-121053822D02*
X216620590Y-120958584D01*
X216620590Y-120958584D02*
X216906304Y-120958584D01*
X216906304Y-120958584D02*
X217096780Y-121053822D01*
X217096780Y-121053822D02*
X217192019Y-121149060D01*
X217192019Y-121149060D02*
X217287257Y-121339536D01*
X217287257Y-121339536D02*
X217287257Y-122101441D01*
X218239638Y-119149060D02*
X218239638Y-120101441D01*
X218239638Y-120101441D02*
X216239638Y-120101441D01*
X217287257Y-118101441D02*
X218239638Y-118101441D01*
X216239638Y-118768107D02*
X217287257Y-118101441D01*
X217287257Y-118101441D02*
X216239638Y-117434774D01*
D10*
X181385161Y-88868482D02*
X181432780Y-88773244D01*
X181432780Y-88773244D02*
X181432780Y-88630387D01*
X181432780Y-88630387D02*
X181385161Y-88487530D01*
X181385161Y-88487530D02*
X181289923Y-88392292D01*
X181289923Y-88392292D02*
X181194685Y-88344673D01*
X181194685Y-88344673D02*
X181004209Y-88297054D01*
X181004209Y-88297054D02*
X180861352Y-88297054D01*
X180861352Y-88297054D02*
X180670876Y-88344673D01*
X180670876Y-88344673D02*
X180575638Y-88392292D01*
X180575638Y-88392292D02*
X180480400Y-88487530D01*
X180480400Y-88487530D02*
X180432780Y-88630387D01*
X180432780Y-88630387D02*
X180432780Y-88725625D01*
X180432780Y-88725625D02*
X180480400Y-88868482D01*
X180480400Y-88868482D02*
X180528019Y-88916101D01*
X180528019Y-88916101D02*
X180861352Y-88916101D01*
X180861352Y-88916101D02*
X180861352Y-88725625D01*
X180432780Y-89344673D02*
X181432780Y-89344673D01*
X181432780Y-89344673D02*
X180432780Y-89916101D01*
X180432780Y-89916101D02*
X181432780Y-89916101D01*
X180432780Y-90392292D02*
X181432780Y-90392292D01*
X181432780Y-90392292D02*
X181432780Y-90630387D01*
X181432780Y-90630387D02*
X181385161Y-90773244D01*
X181385161Y-90773244D02*
X181289923Y-90868482D01*
X181289923Y-90868482D02*
X181194685Y-90916101D01*
X181194685Y-90916101D02*
X181004209Y-90963720D01*
X181004209Y-90963720D02*
X180861352Y-90963720D01*
X180861352Y-90963720D02*
X180670876Y-90916101D01*
X180670876Y-90916101D02*
X180575638Y-90868482D01*
X180575638Y-90868482D02*
X180480400Y-90773244D01*
X180480400Y-90773244D02*
X180432780Y-90630387D01*
X180432780Y-90630387D02*
X180432780Y-90392292D01*
D12*
X177683082Y-131152038D02*
X177283082Y-131152038D01*
X177283082Y-131780609D02*
X177283082Y-130580609D01*
X177283082Y-130580609D02*
X177854510Y-130580609D01*
X178883081Y-131780609D02*
X178311653Y-131780609D01*
X178311653Y-131780609D02*
X178311653Y-130580609D01*
X179511653Y-130580609D02*
X179740225Y-130580609D01*
X179740225Y-130580609D02*
X179854510Y-130637752D01*
X179854510Y-130637752D02*
X179968796Y-130752038D01*
X179968796Y-130752038D02*
X180025939Y-130980609D01*
X180025939Y-130980609D02*
X180025939Y-131380609D01*
X180025939Y-131380609D02*
X179968796Y-131609181D01*
X179968796Y-131609181D02*
X179854510Y-131723467D01*
X179854510Y-131723467D02*
X179740225Y-131780609D01*
X179740225Y-131780609D02*
X179511653Y-131780609D01*
X179511653Y-131780609D02*
X179397368Y-131723467D01*
X179397368Y-131723467D02*
X179283082Y-131609181D01*
X179283082Y-131609181D02*
X179225939Y-131380609D01*
X179225939Y-131380609D02*
X179225939Y-130980609D01*
X179225939Y-130980609D02*
X179283082Y-130752038D01*
X179283082Y-130752038D02*
X179397368Y-130637752D01*
X179397368Y-130637752D02*
X179511653Y-130580609D01*
X180425939Y-130580609D02*
X180711653Y-131780609D01*
X180711653Y-131780609D02*
X180940225Y-130923467D01*
X180940225Y-130923467D02*
X181168796Y-131780609D01*
X181168796Y-131780609D02*
X181454511Y-130580609D01*
X183454511Y-130637752D02*
X183340226Y-130580609D01*
X183340226Y-130580609D02*
X183168797Y-130580609D01*
X183168797Y-130580609D02*
X182997368Y-130637752D01*
X182997368Y-130637752D02*
X182883083Y-130752038D01*
X182883083Y-130752038D02*
X182825940Y-130866324D01*
X182825940Y-130866324D02*
X182768797Y-131094895D01*
X182768797Y-131094895D02*
X182768797Y-131266324D01*
X182768797Y-131266324D02*
X182825940Y-131494895D01*
X182825940Y-131494895D02*
X182883083Y-131609181D01*
X182883083Y-131609181D02*
X182997368Y-131723467D01*
X182997368Y-131723467D02*
X183168797Y-131780609D01*
X183168797Y-131780609D02*
X183283083Y-131780609D01*
X183283083Y-131780609D02*
X183454511Y-131723467D01*
X183454511Y-131723467D02*
X183511654Y-131666324D01*
X183511654Y-131666324D02*
X183511654Y-131266324D01*
X183511654Y-131266324D02*
X183283083Y-131266324D01*
X184025940Y-130580609D02*
X184025940Y-131552038D01*
X184025940Y-131552038D02*
X184083083Y-131666324D01*
X184083083Y-131666324D02*
X184140226Y-131723467D01*
X184140226Y-131723467D02*
X184254511Y-131780609D01*
X184254511Y-131780609D02*
X184483083Y-131780609D01*
X184483083Y-131780609D02*
X184597368Y-131723467D01*
X184597368Y-131723467D02*
X184654511Y-131666324D01*
X184654511Y-131666324D02*
X184711654Y-131552038D01*
X184711654Y-131552038D02*
X184711654Y-130580609D01*
X185225940Y-131437752D02*
X185797369Y-131437752D01*
X185111654Y-131780609D02*
X185511654Y-130580609D01*
X185511654Y-130580609D02*
X185911654Y-131780609D01*
X186997368Y-131780609D02*
X186597368Y-131209181D01*
X186311654Y-131780609D02*
X186311654Y-130580609D01*
X186311654Y-130580609D02*
X186768797Y-130580609D01*
X186768797Y-130580609D02*
X186883082Y-130637752D01*
X186883082Y-130637752D02*
X186940225Y-130694895D01*
X186940225Y-130694895D02*
X186997368Y-130809181D01*
X186997368Y-130809181D02*
X186997368Y-130980609D01*
X186997368Y-130980609D02*
X186940225Y-131094895D01*
X186940225Y-131094895D02*
X186883082Y-131152038D01*
X186883082Y-131152038D02*
X186768797Y-131209181D01*
X186768797Y-131209181D02*
X186311654Y-131209181D01*
X187511654Y-131780609D02*
X187511654Y-130580609D01*
X187511654Y-130580609D02*
X187797368Y-130580609D01*
X187797368Y-130580609D02*
X187968797Y-130637752D01*
X187968797Y-130637752D02*
X188083082Y-130752038D01*
X188083082Y-130752038D02*
X188140225Y-130866324D01*
X188140225Y-130866324D02*
X188197368Y-131094895D01*
X188197368Y-131094895D02*
X188197368Y-131266324D01*
X188197368Y-131266324D02*
X188140225Y-131494895D01*
X188140225Y-131494895D02*
X188083082Y-131609181D01*
X188083082Y-131609181D02*
X187968797Y-131723467D01*
X187968797Y-131723467D02*
X187797368Y-131780609D01*
X187797368Y-131780609D02*
X187511654Y-131780609D01*
X178597368Y-133083971D02*
X178197368Y-133083971D01*
X178197368Y-133712542D02*
X178197368Y-132512542D01*
X178197368Y-132512542D02*
X178768796Y-132512542D01*
X179854510Y-132569685D02*
X179740225Y-132512542D01*
X179740225Y-132512542D02*
X179568796Y-132512542D01*
X179568796Y-132512542D02*
X179397367Y-132569685D01*
X179397367Y-132569685D02*
X179283082Y-132683971D01*
X179283082Y-132683971D02*
X179225939Y-132798257D01*
X179225939Y-132798257D02*
X179168796Y-133026828D01*
X179168796Y-133026828D02*
X179168796Y-133198257D01*
X179168796Y-133198257D02*
X179225939Y-133426828D01*
X179225939Y-133426828D02*
X179283082Y-133541114D01*
X179283082Y-133541114D02*
X179397367Y-133655400D01*
X179397367Y-133655400D02*
X179568796Y-133712542D01*
X179568796Y-133712542D02*
X179683082Y-133712542D01*
X179683082Y-133712542D02*
X179854510Y-133655400D01*
X179854510Y-133655400D02*
X179911653Y-133598257D01*
X179911653Y-133598257D02*
X179911653Y-133198257D01*
X179911653Y-133198257D02*
X179683082Y-133198257D01*
X181054510Y-133712542D02*
X180368796Y-133712542D01*
X180711653Y-133712542D02*
X180711653Y-132512542D01*
X180711653Y-132512542D02*
X180597367Y-132683971D01*
X180597367Y-132683971D02*
X180483082Y-132798257D01*
X180483082Y-132798257D02*
X180368796Y-132855400D01*
D10*
X189886266Y-98205326D02*
X189886266Y-97443422D01*
X190267219Y-97824374D02*
X189505314Y-97824374D01*
X189267219Y-96491041D02*
X189267219Y-96967231D01*
X189267219Y-96967231D02*
X189743409Y-97014850D01*
X189743409Y-97014850D02*
X189695790Y-96967231D01*
X189695790Y-96967231D02*
X189648171Y-96871993D01*
X189648171Y-96871993D02*
X189648171Y-96633898D01*
X189648171Y-96633898D02*
X189695790Y-96538660D01*
X189695790Y-96538660D02*
X189743409Y-96491041D01*
X189743409Y-96491041D02*
X189838647Y-96443422D01*
X189838647Y-96443422D02*
X190076742Y-96443422D01*
X190076742Y-96443422D02*
X190171980Y-96491041D01*
X190171980Y-96491041D02*
X190219600Y-96538660D01*
X190219600Y-96538660D02*
X190267219Y-96633898D01*
X190267219Y-96633898D02*
X190267219Y-96871993D01*
X190267219Y-96871993D02*
X190219600Y-96967231D01*
X190219600Y-96967231D02*
X190171980Y-97014850D01*
X189267219Y-96157707D02*
X190267219Y-95824374D01*
X190267219Y-95824374D02*
X189267219Y-95491041D01*
X186113733Y-105644673D02*
X186113733Y-106406578D01*
X185732780Y-106025625D02*
X186494685Y-106025625D01*
X186732780Y-107358958D02*
X186732780Y-106882768D01*
X186732780Y-106882768D02*
X186256590Y-106835149D01*
X186256590Y-106835149D02*
X186304209Y-106882768D01*
X186304209Y-106882768D02*
X186351828Y-106978006D01*
X186351828Y-106978006D02*
X186351828Y-107216101D01*
X186351828Y-107216101D02*
X186304209Y-107311339D01*
X186304209Y-107311339D02*
X186256590Y-107358958D01*
X186256590Y-107358958D02*
X186161352Y-107406577D01*
X186161352Y-107406577D02*
X185923257Y-107406577D01*
X185923257Y-107406577D02*
X185828019Y-107358958D01*
X185828019Y-107358958D02*
X185780400Y-107311339D01*
X185780400Y-107311339D02*
X185732780Y-107216101D01*
X185732780Y-107216101D02*
X185732780Y-106978006D01*
X185732780Y-106978006D02*
X185780400Y-106882768D01*
X185780400Y-106882768D02*
X185828019Y-106835149D01*
X186732780Y-107692292D02*
X185732780Y-108025625D01*
X185732780Y-108025625D02*
X186732780Y-108358958D01*
X181260149Y-60866028D02*
X181260149Y-61342219D01*
X180926816Y-60342219D02*
X181260149Y-60866028D01*
X181260149Y-60866028D02*
X181593482Y-60342219D01*
X186485161Y-94168482D02*
X186532780Y-94073244D01*
X186532780Y-94073244D02*
X186532780Y-93930387D01*
X186532780Y-93930387D02*
X186485161Y-93787530D01*
X186485161Y-93787530D02*
X186389923Y-93692292D01*
X186389923Y-93692292D02*
X186294685Y-93644673D01*
X186294685Y-93644673D02*
X186104209Y-93597054D01*
X186104209Y-93597054D02*
X185961352Y-93597054D01*
X185961352Y-93597054D02*
X185770876Y-93644673D01*
X185770876Y-93644673D02*
X185675638Y-93692292D01*
X185675638Y-93692292D02*
X185580400Y-93787530D01*
X185580400Y-93787530D02*
X185532780Y-93930387D01*
X185532780Y-93930387D02*
X185532780Y-94025625D01*
X185532780Y-94025625D02*
X185580400Y-94168482D01*
X185580400Y-94168482D02*
X185628019Y-94216101D01*
X185628019Y-94216101D02*
X185961352Y-94216101D01*
X185961352Y-94216101D02*
X185961352Y-94025625D01*
X185532780Y-94644673D02*
X186532780Y-94644673D01*
X186532780Y-94644673D02*
X185532780Y-95216101D01*
X185532780Y-95216101D02*
X186532780Y-95216101D01*
X185532780Y-95692292D02*
X186532780Y-95692292D01*
X186532780Y-95692292D02*
X186532780Y-95930387D01*
X186532780Y-95930387D02*
X186485161Y-96073244D01*
X186485161Y-96073244D02*
X186389923Y-96168482D01*
X186389923Y-96168482D02*
X186294685Y-96216101D01*
X186294685Y-96216101D02*
X186104209Y-96263720D01*
X186104209Y-96263720D02*
X185961352Y-96263720D01*
X185961352Y-96263720D02*
X185770876Y-96216101D01*
X185770876Y-96216101D02*
X185675638Y-96168482D01*
X185675638Y-96168482D02*
X185580400Y-96073244D01*
X185580400Y-96073244D02*
X185532780Y-95930387D01*
X185532780Y-95930387D02*
X185532780Y-95692292D01*
D11*
X177783520Y-61132142D02*
X177783520Y-60217857D01*
X178240662Y-60674999D02*
X177326377Y-60674999D01*
X222383520Y-61132142D02*
X222383520Y-60217857D01*
X222840662Y-60674999D02*
X221926377Y-60674999D01*
D10*
X181213733Y-109644673D02*
X181213733Y-110406578D01*
X180832780Y-110025625D02*
X181594685Y-110025625D01*
X181832780Y-111358958D02*
X181832780Y-110882768D01*
X181832780Y-110882768D02*
X181356590Y-110835149D01*
X181356590Y-110835149D02*
X181404209Y-110882768D01*
X181404209Y-110882768D02*
X181451828Y-110978006D01*
X181451828Y-110978006D02*
X181451828Y-111216101D01*
X181451828Y-111216101D02*
X181404209Y-111311339D01*
X181404209Y-111311339D02*
X181356590Y-111358958D01*
X181356590Y-111358958D02*
X181261352Y-111406577D01*
X181261352Y-111406577D02*
X181023257Y-111406577D01*
X181023257Y-111406577D02*
X180928019Y-111358958D01*
X180928019Y-111358958D02*
X180880400Y-111311339D01*
X180880400Y-111311339D02*
X180832780Y-111216101D01*
X180832780Y-111216101D02*
X180832780Y-110978006D01*
X180832780Y-110978006D02*
X180880400Y-110882768D01*
X180880400Y-110882768D02*
X180928019Y-110835149D01*
X181832780Y-111692292D02*
X180832780Y-112025625D01*
X180832780Y-112025625D02*
X181832780Y-112358958D01*
X226393482Y-59889838D02*
X226298244Y-59842219D01*
X226298244Y-59842219D02*
X226155387Y-59842219D01*
X226155387Y-59842219D02*
X226012530Y-59889838D01*
X226012530Y-59889838D02*
X225917292Y-59985076D01*
X225917292Y-59985076D02*
X225869673Y-60080314D01*
X225869673Y-60080314D02*
X225822054Y-60270790D01*
X225822054Y-60270790D02*
X225822054Y-60413647D01*
X225822054Y-60413647D02*
X225869673Y-60604123D01*
X225869673Y-60604123D02*
X225917292Y-60699361D01*
X225917292Y-60699361D02*
X226012530Y-60794600D01*
X226012530Y-60794600D02*
X226155387Y-60842219D01*
X226155387Y-60842219D02*
X226250625Y-60842219D01*
X226250625Y-60842219D02*
X226393482Y-60794600D01*
X226393482Y-60794600D02*
X226441101Y-60746980D01*
X226441101Y-60746980D02*
X226441101Y-60413647D01*
X226441101Y-60413647D02*
X226250625Y-60413647D01*
X187185161Y-118968482D02*
X187232780Y-118873244D01*
X187232780Y-118873244D02*
X187232780Y-118730387D01*
X187232780Y-118730387D02*
X187185161Y-118587530D01*
X187185161Y-118587530D02*
X187089923Y-118492292D01*
X187089923Y-118492292D02*
X186994685Y-118444673D01*
X186994685Y-118444673D02*
X186804209Y-118397054D01*
X186804209Y-118397054D02*
X186661352Y-118397054D01*
X186661352Y-118397054D02*
X186470876Y-118444673D01*
X186470876Y-118444673D02*
X186375638Y-118492292D01*
X186375638Y-118492292D02*
X186280400Y-118587530D01*
X186280400Y-118587530D02*
X186232780Y-118730387D01*
X186232780Y-118730387D02*
X186232780Y-118825625D01*
X186232780Y-118825625D02*
X186280400Y-118968482D01*
X186280400Y-118968482D02*
X186328019Y-119016101D01*
X186328019Y-119016101D02*
X186661352Y-119016101D01*
X186661352Y-119016101D02*
X186661352Y-118825625D01*
X186232780Y-119444673D02*
X187232780Y-119444673D01*
X187232780Y-119444673D02*
X186232780Y-120016101D01*
X186232780Y-120016101D02*
X187232780Y-120016101D01*
X186232780Y-120492292D02*
X187232780Y-120492292D01*
X187232780Y-120492292D02*
X187232780Y-120730387D01*
X187232780Y-120730387D02*
X187185161Y-120873244D01*
X187185161Y-120873244D02*
X187089923Y-120968482D01*
X187089923Y-120968482D02*
X186994685Y-121016101D01*
X186994685Y-121016101D02*
X186804209Y-121063720D01*
X186804209Y-121063720D02*
X186661352Y-121063720D01*
X186661352Y-121063720D02*
X186470876Y-121016101D01*
X186470876Y-121016101D02*
X186375638Y-120968482D01*
X186375638Y-120968482D02*
X186280400Y-120873244D01*
X186280400Y-120873244D02*
X186232780Y-120730387D01*
X186232780Y-120730387D02*
X186232780Y-120492292D01*
D13*
X179021992Y-65668857D02*
X178021992Y-64240285D01*
X177307706Y-65668857D02*
X177307706Y-62668857D01*
X177307706Y-62668857D02*
X178450563Y-62668857D01*
X178450563Y-62668857D02*
X178736278Y-62811714D01*
X178736278Y-62811714D02*
X178879135Y-62954571D01*
X178879135Y-62954571D02*
X179021992Y-63240285D01*
X179021992Y-63240285D02*
X179021992Y-63668857D01*
X179021992Y-63668857D02*
X178879135Y-63954571D01*
X178879135Y-63954571D02*
X178736278Y-64097428D01*
X178736278Y-64097428D02*
X178450563Y-64240285D01*
X178450563Y-64240285D02*
X177307706Y-64240285D01*
X181736278Y-65668857D02*
X180307706Y-65668857D01*
X180307706Y-65668857D02*
X180307706Y-62668857D01*
X183307706Y-64240285D02*
X183307706Y-65668857D01*
X182307706Y-62668857D02*
X183307706Y-64240285D01*
X183307706Y-64240285D02*
X184307706Y-62668857D01*
D11*
X177971428Y-125208939D02*
X178447618Y-125208939D01*
X177876190Y-125551796D02*
X178209523Y-124351796D01*
X178209523Y-124351796D02*
X178542856Y-125551796D01*
X179304761Y-124751796D02*
X179304761Y-125723225D01*
X179304761Y-125723225D02*
X179257142Y-125837511D01*
X179257142Y-125837511D02*
X179209523Y-125894654D01*
X179209523Y-125894654D02*
X179114285Y-125951796D01*
X179114285Y-125951796D02*
X178971428Y-125951796D01*
X178971428Y-125951796D02*
X178876190Y-125894654D01*
X179304761Y-125494654D02*
X179209523Y-125551796D01*
X179209523Y-125551796D02*
X179019047Y-125551796D01*
X179019047Y-125551796D02*
X178923809Y-125494654D01*
X178923809Y-125494654D02*
X178876190Y-125437511D01*
X178876190Y-125437511D02*
X178828571Y-125323225D01*
X178828571Y-125323225D02*
X178828571Y-124980368D01*
X178828571Y-124980368D02*
X178876190Y-124866082D01*
X178876190Y-124866082D02*
X178923809Y-124808939D01*
X178923809Y-124808939D02*
X179019047Y-124751796D01*
X179019047Y-124751796D02*
X179209523Y-124751796D01*
X179209523Y-124751796D02*
X179304761Y-124808939D01*
X179780952Y-125551796D02*
X179780952Y-124751796D01*
X179780952Y-124980368D02*
X179828571Y-124866082D01*
X179828571Y-124866082D02*
X179876190Y-124808939D01*
X179876190Y-124808939D02*
X179971428Y-124751796D01*
X179971428Y-124751796D02*
X180066666Y-124751796D01*
X180400000Y-125551796D02*
X180400000Y-124751796D01*
X180400000Y-124351796D02*
X180352381Y-124408939D01*
X180352381Y-124408939D02*
X180400000Y-124466082D01*
X180400000Y-124466082D02*
X180447619Y-124408939D01*
X180447619Y-124408939D02*
X180400000Y-124351796D01*
X180400000Y-124351796D02*
X180400000Y-124466082D01*
X181590476Y-125494654D02*
X181733333Y-125551796D01*
X181733333Y-125551796D02*
X181971428Y-125551796D01*
X181971428Y-125551796D02*
X182066666Y-125494654D01*
X182066666Y-125494654D02*
X182114285Y-125437511D01*
X182114285Y-125437511D02*
X182161904Y-125323225D01*
X182161904Y-125323225D02*
X182161904Y-125208939D01*
X182161904Y-125208939D02*
X182114285Y-125094654D01*
X182114285Y-125094654D02*
X182066666Y-125037511D01*
X182066666Y-125037511D02*
X181971428Y-124980368D01*
X181971428Y-124980368D02*
X181780952Y-124923225D01*
X181780952Y-124923225D02*
X181685714Y-124866082D01*
X181685714Y-124866082D02*
X181638095Y-124808939D01*
X181638095Y-124808939D02*
X181590476Y-124694654D01*
X181590476Y-124694654D02*
X181590476Y-124580368D01*
X181590476Y-124580368D02*
X181638095Y-124466082D01*
X181638095Y-124466082D02*
X181685714Y-124408939D01*
X181685714Y-124408939D02*
X181780952Y-124351796D01*
X181780952Y-124351796D02*
X182019047Y-124351796D01*
X182019047Y-124351796D02*
X182161904Y-124408939D01*
X182971428Y-125494654D02*
X182876190Y-125551796D01*
X182876190Y-125551796D02*
X182685714Y-125551796D01*
X182685714Y-125551796D02*
X182590476Y-125494654D01*
X182590476Y-125494654D02*
X182542857Y-125380368D01*
X182542857Y-125380368D02*
X182542857Y-124923225D01*
X182542857Y-124923225D02*
X182590476Y-124808939D01*
X182590476Y-124808939D02*
X182685714Y-124751796D01*
X182685714Y-124751796D02*
X182876190Y-124751796D01*
X182876190Y-124751796D02*
X182971428Y-124808939D01*
X182971428Y-124808939D02*
X183019047Y-124923225D01*
X183019047Y-124923225D02*
X183019047Y-125037511D01*
X183019047Y-125037511D02*
X182542857Y-125151796D01*
X183447619Y-124751796D02*
X183447619Y-125551796D01*
X183447619Y-124866082D02*
X183495238Y-124808939D01*
X183495238Y-124808939D02*
X183590476Y-124751796D01*
X183590476Y-124751796D02*
X183733333Y-124751796D01*
X183733333Y-124751796D02*
X183828571Y-124808939D01*
X183828571Y-124808939D02*
X183876190Y-124923225D01*
X183876190Y-124923225D02*
X183876190Y-125551796D01*
X184304762Y-125494654D02*
X184400000Y-125551796D01*
X184400000Y-125551796D02*
X184590476Y-125551796D01*
X184590476Y-125551796D02*
X184685714Y-125494654D01*
X184685714Y-125494654D02*
X184733333Y-125380368D01*
X184733333Y-125380368D02*
X184733333Y-125323225D01*
X184733333Y-125323225D02*
X184685714Y-125208939D01*
X184685714Y-125208939D02*
X184590476Y-125151796D01*
X184590476Y-125151796D02*
X184447619Y-125151796D01*
X184447619Y-125151796D02*
X184352381Y-125094654D01*
X184352381Y-125094654D02*
X184304762Y-124980368D01*
X184304762Y-124980368D02*
X184304762Y-124923225D01*
X184304762Y-124923225D02*
X184352381Y-124808939D01*
X184352381Y-124808939D02*
X184447619Y-124751796D01*
X184447619Y-124751796D02*
X184590476Y-124751796D01*
X184590476Y-124751796D02*
X184685714Y-124808939D01*
X185304762Y-125551796D02*
X185209524Y-125494654D01*
X185209524Y-125494654D02*
X185161905Y-125437511D01*
X185161905Y-125437511D02*
X185114286Y-125323225D01*
X185114286Y-125323225D02*
X185114286Y-124980368D01*
X185114286Y-124980368D02*
X185161905Y-124866082D01*
X185161905Y-124866082D02*
X185209524Y-124808939D01*
X185209524Y-124808939D02*
X185304762Y-124751796D01*
X185304762Y-124751796D02*
X185447619Y-124751796D01*
X185447619Y-124751796D02*
X185542857Y-124808939D01*
X185542857Y-124808939D02*
X185590476Y-124866082D01*
X185590476Y-124866082D02*
X185638095Y-124980368D01*
X185638095Y-124980368D02*
X185638095Y-125323225D01*
X185638095Y-125323225D02*
X185590476Y-125437511D01*
X185590476Y-125437511D02*
X185542857Y-125494654D01*
X185542857Y-125494654D02*
X185447619Y-125551796D01*
X185447619Y-125551796D02*
X185304762Y-125551796D01*
X186066667Y-125551796D02*
X186066667Y-124751796D01*
X186066667Y-124980368D02*
X186114286Y-124866082D01*
X186114286Y-124866082D02*
X186161905Y-124808939D01*
X186161905Y-124808939D02*
X186257143Y-124751796D01*
X186257143Y-124751796D02*
X186352381Y-124751796D01*
X186638096Y-125494654D02*
X186733334Y-125551796D01*
X186733334Y-125551796D02*
X186923810Y-125551796D01*
X186923810Y-125551796D02*
X187019048Y-125494654D01*
X187019048Y-125494654D02*
X187066667Y-125380368D01*
X187066667Y-125380368D02*
X187066667Y-125323225D01*
X187066667Y-125323225D02*
X187019048Y-125208939D01*
X187019048Y-125208939D02*
X186923810Y-125151796D01*
X186923810Y-125151796D02*
X186780953Y-125151796D01*
X186780953Y-125151796D02*
X186685715Y-125094654D01*
X186685715Y-125094654D02*
X186638096Y-124980368D01*
X186638096Y-124980368D02*
X186638096Y-124923225D01*
X186638096Y-124923225D02*
X186685715Y-124808939D01*
X186685715Y-124808939D02*
X186780953Y-124751796D01*
X186780953Y-124751796D02*
X186923810Y-124751796D01*
X186923810Y-124751796D02*
X187019048Y-124808939D01*
X178709522Y-127483729D02*
X178709522Y-126855158D01*
X178709522Y-126855158D02*
X178661903Y-126740872D01*
X178661903Y-126740872D02*
X178566665Y-126683729D01*
X178566665Y-126683729D02*
X178376189Y-126683729D01*
X178376189Y-126683729D02*
X178280951Y-126740872D01*
X178709522Y-127426587D02*
X178614284Y-127483729D01*
X178614284Y-127483729D02*
X178376189Y-127483729D01*
X178376189Y-127483729D02*
X178280951Y-127426587D01*
X178280951Y-127426587D02*
X178233332Y-127312301D01*
X178233332Y-127312301D02*
X178233332Y-127198015D01*
X178233332Y-127198015D02*
X178280951Y-127083729D01*
X178280951Y-127083729D02*
X178376189Y-127026587D01*
X178376189Y-127026587D02*
X178614284Y-127026587D01*
X178614284Y-127026587D02*
X178709522Y-126969444D01*
X179185713Y-126683729D02*
X179185713Y-127483729D01*
X179185713Y-126798015D02*
X179233332Y-126740872D01*
X179233332Y-126740872D02*
X179328570Y-126683729D01*
X179328570Y-126683729D02*
X179471427Y-126683729D01*
X179471427Y-126683729D02*
X179566665Y-126740872D01*
X179566665Y-126740872D02*
X179614284Y-126855158D01*
X179614284Y-126855158D02*
X179614284Y-127483729D01*
X180519046Y-127483729D02*
X180519046Y-126283729D01*
X180519046Y-127426587D02*
X180423808Y-127483729D01*
X180423808Y-127483729D02*
X180233332Y-127483729D01*
X180233332Y-127483729D02*
X180138094Y-127426587D01*
X180138094Y-127426587D02*
X180090475Y-127369444D01*
X180090475Y-127369444D02*
X180042856Y-127255158D01*
X180042856Y-127255158D02*
X180042856Y-126912301D01*
X180042856Y-126912301D02*
X180090475Y-126798015D01*
X180090475Y-126798015D02*
X180138094Y-126740872D01*
X180138094Y-126740872D02*
X180233332Y-126683729D01*
X180233332Y-126683729D02*
X180423808Y-126683729D01*
X180423808Y-126683729D02*
X180519046Y-126740872D01*
X182328570Y-127369444D02*
X182280951Y-127426587D01*
X182280951Y-127426587D02*
X182138094Y-127483729D01*
X182138094Y-127483729D02*
X182042856Y-127483729D01*
X182042856Y-127483729D02*
X181899999Y-127426587D01*
X181899999Y-127426587D02*
X181804761Y-127312301D01*
X181804761Y-127312301D02*
X181757142Y-127198015D01*
X181757142Y-127198015D02*
X181709523Y-126969444D01*
X181709523Y-126969444D02*
X181709523Y-126798015D01*
X181709523Y-126798015D02*
X181757142Y-126569444D01*
X181757142Y-126569444D02*
X181804761Y-126455158D01*
X181804761Y-126455158D02*
X181899999Y-126340872D01*
X181899999Y-126340872D02*
X182042856Y-126283729D01*
X182042856Y-126283729D02*
X182138094Y-126283729D01*
X182138094Y-126283729D02*
X182280951Y-126340872D01*
X182280951Y-126340872D02*
X182328570Y-126398015D01*
X182899999Y-127483729D02*
X182804761Y-127426587D01*
X182804761Y-127426587D02*
X182757142Y-127369444D01*
X182757142Y-127369444D02*
X182709523Y-127255158D01*
X182709523Y-127255158D02*
X182709523Y-126912301D01*
X182709523Y-126912301D02*
X182757142Y-126798015D01*
X182757142Y-126798015D02*
X182804761Y-126740872D01*
X182804761Y-126740872D02*
X182899999Y-126683729D01*
X182899999Y-126683729D02*
X183042856Y-126683729D01*
X183042856Y-126683729D02*
X183138094Y-126740872D01*
X183138094Y-126740872D02*
X183185713Y-126798015D01*
X183185713Y-126798015D02*
X183233332Y-126912301D01*
X183233332Y-126912301D02*
X183233332Y-127255158D01*
X183233332Y-127255158D02*
X183185713Y-127369444D01*
X183185713Y-127369444D02*
X183138094Y-127426587D01*
X183138094Y-127426587D02*
X183042856Y-127483729D01*
X183042856Y-127483729D02*
X182899999Y-127483729D01*
X183661904Y-126683729D02*
X183661904Y-127483729D01*
X183661904Y-126798015D02*
X183709523Y-126740872D01*
X183709523Y-126740872D02*
X183804761Y-126683729D01*
X183804761Y-126683729D02*
X183947618Y-126683729D01*
X183947618Y-126683729D02*
X184042856Y-126740872D01*
X184042856Y-126740872D02*
X184090475Y-126855158D01*
X184090475Y-126855158D02*
X184090475Y-127483729D01*
X184423809Y-126683729D02*
X184804761Y-126683729D01*
X184566666Y-126283729D02*
X184566666Y-127312301D01*
X184566666Y-127312301D02*
X184614285Y-127426587D01*
X184614285Y-127426587D02*
X184709523Y-127483729D01*
X184709523Y-127483729D02*
X184804761Y-127483729D01*
X185138095Y-127483729D02*
X185138095Y-126683729D01*
X185138095Y-126912301D02*
X185185714Y-126798015D01*
X185185714Y-126798015D02*
X185233333Y-126740872D01*
X185233333Y-126740872D02*
X185328571Y-126683729D01*
X185328571Y-126683729D02*
X185423809Y-126683729D01*
X185900000Y-127483729D02*
X185804762Y-127426587D01*
X185804762Y-127426587D02*
X185757143Y-127369444D01*
X185757143Y-127369444D02*
X185709524Y-127255158D01*
X185709524Y-127255158D02*
X185709524Y-126912301D01*
X185709524Y-126912301D02*
X185757143Y-126798015D01*
X185757143Y-126798015D02*
X185804762Y-126740872D01*
X185804762Y-126740872D02*
X185900000Y-126683729D01*
X185900000Y-126683729D02*
X186042857Y-126683729D01*
X186042857Y-126683729D02*
X186138095Y-126740872D01*
X186138095Y-126740872D02*
X186185714Y-126798015D01*
X186185714Y-126798015D02*
X186233333Y-126912301D01*
X186233333Y-126912301D02*
X186233333Y-127255158D01*
X186233333Y-127255158D02*
X186185714Y-127369444D01*
X186185714Y-127369444D02*
X186138095Y-127426587D01*
X186138095Y-127426587D02*
X186042857Y-127483729D01*
X186042857Y-127483729D02*
X185900000Y-127483729D01*
X186804762Y-127483729D02*
X186709524Y-127426587D01*
X186709524Y-127426587D02*
X186661905Y-127312301D01*
X186661905Y-127312301D02*
X186661905Y-126283729D01*
X187138096Y-127426587D02*
X187233334Y-127483729D01*
X187233334Y-127483729D02*
X187423810Y-127483729D01*
X187423810Y-127483729D02*
X187519048Y-127426587D01*
X187519048Y-127426587D02*
X187566667Y-127312301D01*
X187566667Y-127312301D02*
X187566667Y-127255158D01*
X187566667Y-127255158D02*
X187519048Y-127140872D01*
X187519048Y-127140872D02*
X187423810Y-127083729D01*
X187423810Y-127083729D02*
X187280953Y-127083729D01*
X187280953Y-127083729D02*
X187185715Y-127026587D01*
X187185715Y-127026587D02*
X187138096Y-126912301D01*
X187138096Y-126912301D02*
X187138096Y-126855158D01*
X187138096Y-126855158D02*
X187185715Y-126740872D01*
X187185715Y-126740872D02*
X187280953Y-126683729D01*
X187280953Y-126683729D02*
X187423810Y-126683729D01*
X187423810Y-126683729D02*
X187519048Y-126740872D01*
X179852381Y-129072805D02*
X180328571Y-129072805D01*
X179757143Y-129415662D02*
X180090476Y-128215662D01*
X180090476Y-128215662D02*
X180423809Y-129415662D01*
X181185714Y-128615662D02*
X181185714Y-129415662D01*
X180757143Y-128615662D02*
X180757143Y-129244234D01*
X180757143Y-129244234D02*
X180804762Y-129358520D01*
X180804762Y-129358520D02*
X180900000Y-129415662D01*
X180900000Y-129415662D02*
X181042857Y-129415662D01*
X181042857Y-129415662D02*
X181138095Y-129358520D01*
X181138095Y-129358520D02*
X181185714Y-129301377D01*
X182090476Y-128615662D02*
X182090476Y-129587091D01*
X182090476Y-129587091D02*
X182042857Y-129701377D01*
X182042857Y-129701377D02*
X181995238Y-129758520D01*
X181995238Y-129758520D02*
X181900000Y-129815662D01*
X181900000Y-129815662D02*
X181757143Y-129815662D01*
X181757143Y-129815662D02*
X181661905Y-129758520D01*
X182090476Y-129358520D02*
X181995238Y-129415662D01*
X181995238Y-129415662D02*
X181804762Y-129415662D01*
X181804762Y-129415662D02*
X181709524Y-129358520D01*
X181709524Y-129358520D02*
X181661905Y-129301377D01*
X181661905Y-129301377D02*
X181614286Y-129187091D01*
X181614286Y-129187091D02*
X181614286Y-128844234D01*
X181614286Y-128844234D02*
X181661905Y-128729948D01*
X181661905Y-128729948D02*
X181709524Y-128672805D01*
X181709524Y-128672805D02*
X181804762Y-128615662D01*
X181804762Y-128615662D02*
X181995238Y-128615662D01*
X181995238Y-128615662D02*
X182090476Y-128672805D01*
X182519048Y-128329948D02*
X182566667Y-128272805D01*
X182566667Y-128272805D02*
X182661905Y-128215662D01*
X182661905Y-128215662D02*
X182900000Y-128215662D01*
X182900000Y-128215662D02*
X182995238Y-128272805D01*
X182995238Y-128272805D02*
X183042857Y-128329948D01*
X183042857Y-128329948D02*
X183090476Y-128444234D01*
X183090476Y-128444234D02*
X183090476Y-128558520D01*
X183090476Y-128558520D02*
X183042857Y-128729948D01*
X183042857Y-128729948D02*
X182471429Y-129415662D01*
X182471429Y-129415662D02*
X183090476Y-129415662D01*
X183709524Y-128215662D02*
X183804762Y-128215662D01*
X183804762Y-128215662D02*
X183900000Y-128272805D01*
X183900000Y-128272805D02*
X183947619Y-128329948D01*
X183947619Y-128329948D02*
X183995238Y-128444234D01*
X183995238Y-128444234D02*
X184042857Y-128672805D01*
X184042857Y-128672805D02*
X184042857Y-128958520D01*
X184042857Y-128958520D02*
X183995238Y-129187091D01*
X183995238Y-129187091D02*
X183947619Y-129301377D01*
X183947619Y-129301377D02*
X183900000Y-129358520D01*
X183900000Y-129358520D02*
X183804762Y-129415662D01*
X183804762Y-129415662D02*
X183709524Y-129415662D01*
X183709524Y-129415662D02*
X183614286Y-129358520D01*
X183614286Y-129358520D02*
X183566667Y-129301377D01*
X183566667Y-129301377D02*
X183519048Y-129187091D01*
X183519048Y-129187091D02*
X183471429Y-128958520D01*
X183471429Y-128958520D02*
X183471429Y-128672805D01*
X183471429Y-128672805D02*
X183519048Y-128444234D01*
X183519048Y-128444234D02*
X183566667Y-128329948D01*
X183566667Y-128329948D02*
X183614286Y-128272805D01*
X183614286Y-128272805D02*
X183709524Y-128215662D01*
X184423810Y-128329948D02*
X184471429Y-128272805D01*
X184471429Y-128272805D02*
X184566667Y-128215662D01*
X184566667Y-128215662D02*
X184804762Y-128215662D01*
X184804762Y-128215662D02*
X184900000Y-128272805D01*
X184900000Y-128272805D02*
X184947619Y-128329948D01*
X184947619Y-128329948D02*
X184995238Y-128444234D01*
X184995238Y-128444234D02*
X184995238Y-128558520D01*
X184995238Y-128558520D02*
X184947619Y-128729948D01*
X184947619Y-128729948D02*
X184376191Y-129415662D01*
X184376191Y-129415662D02*
X184995238Y-129415662D01*
X185852381Y-128215662D02*
X185661905Y-128215662D01*
X185661905Y-128215662D02*
X185566667Y-128272805D01*
X185566667Y-128272805D02*
X185519048Y-128329948D01*
X185519048Y-128329948D02*
X185423810Y-128501377D01*
X185423810Y-128501377D02*
X185376191Y-128729948D01*
X185376191Y-128729948D02*
X185376191Y-129187091D01*
X185376191Y-129187091D02*
X185423810Y-129301377D01*
X185423810Y-129301377D02*
X185471429Y-129358520D01*
X185471429Y-129358520D02*
X185566667Y-129415662D01*
X185566667Y-129415662D02*
X185757143Y-129415662D01*
X185757143Y-129415662D02*
X185852381Y-129358520D01*
X185852381Y-129358520D02*
X185900000Y-129301377D01*
X185900000Y-129301377D02*
X185947619Y-129187091D01*
X185947619Y-129187091D02*
X185947619Y-128901377D01*
X185947619Y-128901377D02*
X185900000Y-128787091D01*
X185900000Y-128787091D02*
X185852381Y-128729948D01*
X185852381Y-128729948D02*
X185757143Y-128672805D01*
X185757143Y-128672805D02*
X185566667Y-128672805D01*
X185566667Y-128672805D02*
X185471429Y-128729948D01*
X185471429Y-128729948D02*
X185423810Y-128787091D01*
X185423810Y-128787091D02*
X185376191Y-128901377D01*
D13*
X221507706Y-63497428D02*
X220507706Y-63497428D01*
X220507706Y-65068857D02*
X220507706Y-62068857D01*
X220507706Y-62068857D02*
X221936278Y-62068857D01*
X224507707Y-65068857D02*
X223079135Y-65068857D01*
X223079135Y-65068857D02*
X223079135Y-62068857D01*
X226079135Y-62068857D02*
X226650563Y-62068857D01*
X226650563Y-62068857D02*
X226936278Y-62211714D01*
X226936278Y-62211714D02*
X227221992Y-62497428D01*
X227221992Y-62497428D02*
X227364849Y-63068857D01*
X227364849Y-63068857D02*
X227364849Y-64068857D01*
X227364849Y-64068857D02*
X227221992Y-64640285D01*
X227221992Y-64640285D02*
X226936278Y-64926000D01*
X226936278Y-64926000D02*
X226650563Y-65068857D01*
X226650563Y-65068857D02*
X226079135Y-65068857D01*
X226079135Y-65068857D02*
X225793421Y-64926000D01*
X225793421Y-64926000D02*
X225507706Y-64640285D01*
X225507706Y-64640285D02*
X225364849Y-64068857D01*
X225364849Y-64068857D02*
X225364849Y-63068857D01*
X225364849Y-63068857D02*
X225507706Y-62497428D01*
X225507706Y-62497428D02*
X225793421Y-62211714D01*
X225793421Y-62211714D02*
X226079135Y-62068857D01*
X228364849Y-62068857D02*
X229079135Y-65068857D01*
X229079135Y-65068857D02*
X229650563Y-62926000D01*
X229650563Y-62926000D02*
X230221992Y-65068857D01*
X230221992Y-65068857D02*
X230936278Y-62068857D01*
D14*
X179054819Y-118508333D02*
X179769104Y-118508333D01*
X179769104Y-118508333D02*
X179911961Y-118555952D01*
X179911961Y-118555952D02*
X180007200Y-118651190D01*
X180007200Y-118651190D02*
X180054819Y-118794047D01*
X180054819Y-118794047D02*
X180054819Y-118889285D01*
X179388152Y-117603571D02*
X180054819Y-117603571D01*
X179007200Y-117841666D02*
X179721485Y-118079761D01*
X179721485Y-118079761D02*
X179721485Y-117460714D01*
X225261905Y-59479819D02*
X225261905Y-58479819D01*
X225261905Y-58479819D02*
X225500000Y-58479819D01*
X225500000Y-58479819D02*
X225642857Y-58527438D01*
X225642857Y-58527438D02*
X225738095Y-58622676D01*
X225738095Y-58622676D02*
X225785714Y-58717914D01*
X225785714Y-58717914D02*
X225833333Y-58908390D01*
X225833333Y-58908390D02*
X225833333Y-59051247D01*
X225833333Y-59051247D02*
X225785714Y-59241723D01*
X225785714Y-59241723D02*
X225738095Y-59336961D01*
X225738095Y-59336961D02*
X225642857Y-59432200D01*
X225642857Y-59432200D02*
X225500000Y-59479819D01*
X225500000Y-59479819D02*
X225261905Y-59479819D01*
X226690476Y-58813152D02*
X226690476Y-59479819D01*
X226452381Y-58432200D02*
X226214286Y-59146485D01*
X226214286Y-59146485D02*
X226833333Y-59146485D01*
X180761905Y-59429819D02*
X180761905Y-58429819D01*
X180761905Y-58429819D02*
X181000000Y-58429819D01*
X181000000Y-58429819D02*
X181142857Y-58477438D01*
X181142857Y-58477438D02*
X181238095Y-58572676D01*
X181238095Y-58572676D02*
X181285714Y-58667914D01*
X181285714Y-58667914D02*
X181333333Y-58858390D01*
X181333333Y-58858390D02*
X181333333Y-59001247D01*
X181333333Y-59001247D02*
X181285714Y-59191723D01*
X181285714Y-59191723D02*
X181238095Y-59286961D01*
X181238095Y-59286961D02*
X181142857Y-59382200D01*
X181142857Y-59382200D02*
X181000000Y-59429819D01*
X181000000Y-59429819D02*
X180761905Y-59429819D01*
X182285714Y-59429819D02*
X181714286Y-59429819D01*
X182000000Y-59429819D02*
X182000000Y-58429819D01*
X182000000Y-58429819D02*
X181904762Y-58572676D01*
X181904762Y-58572676D02*
X181809524Y-58667914D01*
X181809524Y-58667914D02*
X181714286Y-58715533D01*
X215738095Y-73899819D02*
X215738095Y-74709342D01*
X215738095Y-74709342D02*
X215785714Y-74804580D01*
X215785714Y-74804580D02*
X215833333Y-74852200D01*
X215833333Y-74852200D02*
X215928571Y-74899819D01*
X215928571Y-74899819D02*
X216119047Y-74899819D01*
X216119047Y-74899819D02*
X216214285Y-74852200D01*
X216214285Y-74852200D02*
X216261904Y-74804580D01*
X216261904Y-74804580D02*
X216309523Y-74709342D01*
X216309523Y-74709342D02*
X216309523Y-73899819D01*
X217261904Y-73899819D02*
X216785714Y-73899819D01*
X216785714Y-73899819D02*
X216738095Y-74376009D01*
X216738095Y-74376009D02*
X216785714Y-74328390D01*
X216785714Y-74328390D02*
X216880952Y-74280771D01*
X216880952Y-74280771D02*
X217119047Y-74280771D01*
X217119047Y-74280771D02*
X217214285Y-74328390D01*
X217214285Y-74328390D02*
X217261904Y-74376009D01*
X217261904Y-74376009D02*
X217309523Y-74471247D01*
X217309523Y-74471247D02*
X217309523Y-74709342D01*
X217309523Y-74709342D02*
X217261904Y-74804580D01*
X217261904Y-74804580D02*
X217214285Y-74852200D01*
X217214285Y-74852200D02*
X217119047Y-74899819D01*
X217119047Y-74899819D02*
X216880952Y-74899819D01*
X216880952Y-74899819D02*
X216785714Y-74852200D01*
X216785714Y-74852200D02*
X216738095Y-74804580D01*
D15*
X210324167Y-54471332D02*
X208657500Y-54471332D01*
X210657500Y-53471332D02*
X209490834Y-56971332D01*
X209490834Y-56971332D02*
X208324167Y-53471332D01*
X207157500Y-55804665D02*
X207157500Y-53471332D01*
X207157500Y-55471332D02*
X206990834Y-55637999D01*
X206990834Y-55637999D02*
X206657500Y-55804665D01*
X206657500Y-55804665D02*
X206157500Y-55804665D01*
X206157500Y-55804665D02*
X205824167Y-55637999D01*
X205824167Y-55637999D02*
X205657500Y-55304665D01*
X205657500Y-55304665D02*
X205657500Y-53471332D01*
X204490833Y-55804665D02*
X203157500Y-55804665D01*
X203990833Y-56971332D02*
X203990833Y-53971332D01*
X203990833Y-53971332D02*
X203824167Y-53637999D01*
X203824167Y-53637999D02*
X203490833Y-53471332D01*
X203490833Y-53471332D02*
X203157500Y-53471332D01*
X200657500Y-53637999D02*
X200990833Y-53471332D01*
X200990833Y-53471332D02*
X201657500Y-53471332D01*
X201657500Y-53471332D02*
X201990833Y-53637999D01*
X201990833Y-53637999D02*
X202157500Y-53971332D01*
X202157500Y-53971332D02*
X202157500Y-55304665D01*
X202157500Y-55304665D02*
X201990833Y-55637999D01*
X201990833Y-55637999D02*
X201657500Y-55804665D01*
X201657500Y-55804665D02*
X200990833Y-55804665D01*
X200990833Y-55804665D02*
X200657500Y-55637999D01*
X200657500Y-55637999D02*
X200490833Y-55304665D01*
X200490833Y-55304665D02*
X200490833Y-54971332D01*
X200490833Y-54971332D02*
X202157500Y-54637999D01*
X198990833Y-55804665D02*
X198990833Y-53471332D01*
X198990833Y-55471332D02*
X198824167Y-55637999D01*
X198824167Y-55637999D02*
X198490833Y-55804665D01*
X198490833Y-55804665D02*
X197990833Y-55804665D01*
X197990833Y-55804665D02*
X197657500Y-55637999D01*
X197657500Y-55637999D02*
X197490833Y-55304665D01*
X197490833Y-55304665D02*
X197490833Y-53471332D01*
X195824166Y-55804665D02*
X195824166Y-53471332D01*
X195824166Y-55471332D02*
X195657500Y-55637999D01*
X195657500Y-55637999D02*
X195324166Y-55804665D01*
X195324166Y-55804665D02*
X194824166Y-55804665D01*
X194824166Y-55804665D02*
X194490833Y-55637999D01*
X194490833Y-55637999D02*
X194324166Y-55304665D01*
X194324166Y-55304665D02*
X194324166Y-53471332D01*
X191157499Y-53471332D02*
X191157499Y-55304665D01*
X191157499Y-55304665D02*
X191324166Y-55637999D01*
X191324166Y-55637999D02*
X191657499Y-55804665D01*
X191657499Y-55804665D02*
X192324166Y-55804665D01*
X192324166Y-55804665D02*
X192657499Y-55637999D01*
X191157499Y-53637999D02*
X191490833Y-53471332D01*
X191490833Y-53471332D02*
X192324166Y-53471332D01*
X192324166Y-53471332D02*
X192657499Y-53637999D01*
X192657499Y-53637999D02*
X192824166Y-53971332D01*
X192824166Y-53971332D02*
X192824166Y-54304665D01*
X192824166Y-54304665D02*
X192657499Y-54637999D01*
X192657499Y-54637999D02*
X192324166Y-54804665D01*
X192324166Y-54804665D02*
X191490833Y-54804665D01*
X191490833Y-54804665D02*
X191157499Y-54971332D01*
D14*
D16*
X195598928Y-101642285D02*
X195598928Y-105285142D01*
X195598928Y-105285142D02*
X195813214Y-105713714D01*
X195813214Y-105713714D02*
X196027500Y-105928000D01*
X196027500Y-105928000D02*
X196456071Y-106142285D01*
X196456071Y-106142285D02*
X197313214Y-106142285D01*
X197313214Y-106142285D02*
X197741785Y-105928000D01*
X197741785Y-105928000D02*
X197956071Y-105713714D01*
X197956071Y-105713714D02*
X198170357Y-105285142D01*
X198170357Y-105285142D02*
X198170357Y-101642285D01*
X200098928Y-105928000D02*
X200741786Y-106142285D01*
X200741786Y-106142285D02*
X201813214Y-106142285D01*
X201813214Y-106142285D02*
X202241786Y-105928000D01*
X202241786Y-105928000D02*
X202456071Y-105713714D01*
X202456071Y-105713714D02*
X202670357Y-105285142D01*
X202670357Y-105285142D02*
X202670357Y-104856571D01*
X202670357Y-104856571D02*
X202456071Y-104428000D01*
X202456071Y-104428000D02*
X202241786Y-104213714D01*
X202241786Y-104213714D02*
X201813214Y-103999428D01*
X201813214Y-103999428D02*
X200956071Y-103785142D01*
X200956071Y-103785142D02*
X200527500Y-103570857D01*
X200527500Y-103570857D02*
X200313214Y-103356571D01*
X200313214Y-103356571D02*
X200098928Y-102928000D01*
X200098928Y-102928000D02*
X200098928Y-102499428D01*
X200098928Y-102499428D02*
X200313214Y-102070857D01*
X200313214Y-102070857D02*
X200527500Y-101856571D01*
X200527500Y-101856571D02*
X200956071Y-101642285D01*
X200956071Y-101642285D02*
X202027500Y-101642285D01*
X202027500Y-101642285D02*
X202670357Y-101856571D01*
X206098928Y-103785142D02*
X206741785Y-103999428D01*
X206741785Y-103999428D02*
X206956071Y-104213714D01*
X206956071Y-104213714D02*
X207170357Y-104642285D01*
X207170357Y-104642285D02*
X207170357Y-105285142D01*
X207170357Y-105285142D02*
X206956071Y-105713714D01*
X206956071Y-105713714D02*
X206741785Y-105928000D01*
X206741785Y-105928000D02*
X206313214Y-106142285D01*
X206313214Y-106142285D02*
X204598928Y-106142285D01*
X204598928Y-106142285D02*
X204598928Y-101642285D01*
X204598928Y-101642285D02*
X206098928Y-101642285D01*
X206098928Y-101642285D02*
X206527500Y-101856571D01*
X206527500Y-101856571D02*
X206741785Y-102070857D01*
X206741785Y-102070857D02*
X206956071Y-102499428D01*
X206956071Y-102499428D02*
X206956071Y-102928000D01*
X206956071Y-102928000D02*
X206741785Y-103356571D01*
X206741785Y-103356571D02*
X206527500Y-103570857D01*
X206527500Y-103570857D02*
X206098928Y-103785142D01*
X206098928Y-103785142D02*
X204598928Y-103785142D01*
D14*
X228794819Y-121878333D02*
X229509104Y-121878333D01*
X229509104Y-121878333D02*
X229651961Y-121925952D01*
X229651961Y-121925952D02*
X229747200Y-122021190D01*
X229747200Y-122021190D02*
X229794819Y-122164047D01*
X229794819Y-122164047D02*
X229794819Y-122259285D01*
X228890057Y-121449761D02*
X228842438Y-121402142D01*
X228842438Y-121402142D02*
X228794819Y-121306904D01*
X228794819Y-121306904D02*
X228794819Y-121068809D01*
X228794819Y-121068809D02*
X228842438Y-120973571D01*
X228842438Y-120973571D02*
X228890057Y-120925952D01*
X228890057Y-120925952D02*
X228985295Y-120878333D01*
X228985295Y-120878333D02*
X229080533Y-120878333D01*
X229080533Y-120878333D02*
X229223390Y-120925952D01*
X229223390Y-120925952D02*
X229794819Y-121497380D01*
X229794819Y-121497380D02*
X229794819Y-120878333D01*
X183654819Y-90738333D02*
X184369104Y-90738333D01*
X184369104Y-90738333D02*
X184511961Y-90785952D01*
X184511961Y-90785952D02*
X184607200Y-90881190D01*
X184607200Y-90881190D02*
X184654819Y-91024047D01*
X184654819Y-91024047D02*
X184654819Y-91119285D01*
X184654819Y-89738333D02*
X184654819Y-90309761D01*
X184654819Y-90024047D02*
X183654819Y-90024047D01*
X183654819Y-90024047D02*
X183797676Y-90119285D01*
X183797676Y-90119285D02*
X183892914Y-90214523D01*
X183892914Y-90214523D02*
X183940533Y-90309761D01*
X214561905Y-109959819D02*
X214561905Y-108959819D01*
X215133333Y-109959819D02*
X214704762Y-109388390D01*
X215133333Y-108959819D02*
X214561905Y-109531247D01*
X216085714Y-109959819D02*
X215514286Y-109959819D01*
X215800000Y-109959819D02*
X215800000Y-108959819D01*
X215800000Y-108959819D02*
X215704762Y-109102676D01*
X215704762Y-109102676D02*
X215609524Y-109197914D01*
X215609524Y-109197914D02*
X215514286Y-109245533D01*
X222933333Y-89934580D02*
X222885714Y-89982200D01*
X222885714Y-89982200D02*
X222742857Y-90029819D01*
X222742857Y-90029819D02*
X222647619Y-90029819D01*
X222647619Y-90029819D02*
X222504762Y-89982200D01*
X222504762Y-89982200D02*
X222409524Y-89886961D01*
X222409524Y-89886961D02*
X222361905Y-89791723D01*
X222361905Y-89791723D02*
X222314286Y-89601247D01*
X222314286Y-89601247D02*
X222314286Y-89458390D01*
X222314286Y-89458390D02*
X222361905Y-89267914D01*
X222361905Y-89267914D02*
X222409524Y-89172676D01*
X222409524Y-89172676D02*
X222504762Y-89077438D01*
X222504762Y-89077438D02*
X222647619Y-89029819D01*
X222647619Y-89029819D02*
X222742857Y-89029819D01*
X222742857Y-89029819D02*
X222885714Y-89077438D01*
X222885714Y-89077438D02*
X222933333Y-89125057D01*
X223790476Y-89029819D02*
X223600000Y-89029819D01*
X223600000Y-89029819D02*
X223504762Y-89077438D01*
X223504762Y-89077438D02*
X223457143Y-89125057D01*
X223457143Y-89125057D02*
X223361905Y-89267914D01*
X223361905Y-89267914D02*
X223314286Y-89458390D01*
X223314286Y-89458390D02*
X223314286Y-89839342D01*
X223314286Y-89839342D02*
X223361905Y-89934580D01*
X223361905Y-89934580D02*
X223409524Y-89982200D01*
X223409524Y-89982200D02*
X223504762Y-90029819D01*
X223504762Y-90029819D02*
X223695238Y-90029819D01*
X223695238Y-90029819D02*
X223790476Y-89982200D01*
X223790476Y-89982200D02*
X223838095Y-89934580D01*
X223838095Y-89934580D02*
X223885714Y-89839342D01*
X223885714Y-89839342D02*
X223885714Y-89601247D01*
X223885714Y-89601247D02*
X223838095Y-89506009D01*
X223838095Y-89506009D02*
X223790476Y-89458390D01*
X223790476Y-89458390D02*
X223695238Y-89410771D01*
X223695238Y-89410771D02*
X223504762Y-89410771D01*
X223504762Y-89410771D02*
X223409524Y-89458390D01*
X223409524Y-89458390D02*
X223361905Y-89506009D01*
X223361905Y-89506009D02*
X223314286Y-89601247D01*
X220133333Y-91729819D02*
X219561905Y-91729819D01*
X219847619Y-91729819D02*
X219847619Y-90729819D01*
X219847619Y-90729819D02*
X219752381Y-90872676D01*
X219752381Y-90872676D02*
X219657143Y-90967914D01*
X219657143Y-90967914D02*
X219561905Y-91015533D01*
X220752381Y-90729819D02*
X220847619Y-90729819D01*
X220847619Y-90729819D02*
X220942857Y-90777438D01*
X220942857Y-90777438D02*
X220990476Y-90825057D01*
X220990476Y-90825057D02*
X221038095Y-90920295D01*
X221038095Y-90920295D02*
X221085714Y-91110771D01*
X221085714Y-91110771D02*
X221085714Y-91348866D01*
X221085714Y-91348866D02*
X221038095Y-91539342D01*
X221038095Y-91539342D02*
X220990476Y-91634580D01*
X220990476Y-91634580D02*
X220942857Y-91682200D01*
X220942857Y-91682200D02*
X220847619Y-91729819D01*
X220847619Y-91729819D02*
X220752381Y-91729819D01*
X220752381Y-91729819D02*
X220657143Y-91682200D01*
X220657143Y-91682200D02*
X220609524Y-91634580D01*
X220609524Y-91634580D02*
X220561905Y-91539342D01*
X220561905Y-91539342D02*
X220514286Y-91348866D01*
X220514286Y-91348866D02*
X220514286Y-91110771D01*
X220514286Y-91110771D02*
X220561905Y-90920295D01*
X220561905Y-90920295D02*
X220609524Y-90825057D01*
X220609524Y-90825057D02*
X220657143Y-90777438D01*
X220657143Y-90777438D02*
X220752381Y-90729819D01*
X221704762Y-90729819D02*
X221800000Y-90729819D01*
X221800000Y-90729819D02*
X221895238Y-90777438D01*
X221895238Y-90777438D02*
X221942857Y-90825057D01*
X221942857Y-90825057D02*
X221990476Y-90920295D01*
X221990476Y-90920295D02*
X222038095Y-91110771D01*
X222038095Y-91110771D02*
X222038095Y-91348866D01*
X222038095Y-91348866D02*
X221990476Y-91539342D01*
X221990476Y-91539342D02*
X221942857Y-91634580D01*
X221942857Y-91634580D02*
X221895238Y-91682200D01*
X221895238Y-91682200D02*
X221800000Y-91729819D01*
X221800000Y-91729819D02*
X221704762Y-91729819D01*
X221704762Y-91729819D02*
X221609524Y-91682200D01*
X221609524Y-91682200D02*
X221561905Y-91634580D01*
X221561905Y-91634580D02*
X221514286Y-91539342D01*
X221514286Y-91539342D02*
X221466667Y-91348866D01*
X221466667Y-91348866D02*
X221466667Y-91110771D01*
X221466667Y-91110771D02*
X221514286Y-90920295D01*
X221514286Y-90920295D02*
X221561905Y-90825057D01*
X221561905Y-90825057D02*
X221609524Y-90777438D01*
X221609524Y-90777438D02*
X221704762Y-90729819D01*
X222895238Y-91063152D02*
X222895238Y-91729819D01*
X222466667Y-91063152D02*
X222466667Y-91586961D01*
X222466667Y-91586961D02*
X222514286Y-91682200D01*
X222514286Y-91682200D02*
X222609524Y-91729819D01*
X222609524Y-91729819D02*
X222752381Y-91729819D01*
X222752381Y-91729819D02*
X222847619Y-91682200D01*
X222847619Y-91682200D02*
X222895238Y-91634580D01*
X223704762Y-91206009D02*
X223371429Y-91206009D01*
X223371429Y-91729819D02*
X223371429Y-90729819D01*
X223371429Y-90729819D02*
X223847619Y-90729819D01*
X224276191Y-91682200D02*
X224276191Y-91729819D01*
X224276191Y-91729819D02*
X224228572Y-91825057D01*
X224228572Y-91825057D02*
X224180953Y-91872676D01*
X225228571Y-91729819D02*
X224657143Y-91729819D01*
X224942857Y-91729819D02*
X224942857Y-90729819D01*
X224942857Y-90729819D02*
X224847619Y-90872676D01*
X224847619Y-90872676D02*
X224752381Y-90967914D01*
X224752381Y-90967914D02*
X224657143Y-91015533D01*
X226085714Y-90729819D02*
X225895238Y-90729819D01*
X225895238Y-90729819D02*
X225800000Y-90777438D01*
X225800000Y-90777438D02*
X225752381Y-90825057D01*
X225752381Y-90825057D02*
X225657143Y-90967914D01*
X225657143Y-90967914D02*
X225609524Y-91158390D01*
X225609524Y-91158390D02*
X225609524Y-91539342D01*
X225609524Y-91539342D02*
X225657143Y-91634580D01*
X225657143Y-91634580D02*
X225704762Y-91682200D01*
X225704762Y-91682200D02*
X225800000Y-91729819D01*
X225800000Y-91729819D02*
X225990476Y-91729819D01*
X225990476Y-91729819D02*
X226085714Y-91682200D01*
X226085714Y-91682200D02*
X226133333Y-91634580D01*
X226133333Y-91634580D02*
X226180952Y-91539342D01*
X226180952Y-91539342D02*
X226180952Y-91301247D01*
X226180952Y-91301247D02*
X226133333Y-91206009D01*
X226133333Y-91206009D02*
X226085714Y-91158390D01*
X226085714Y-91158390D02*
X225990476Y-91110771D01*
X225990476Y-91110771D02*
X225800000Y-91110771D01*
X225800000Y-91110771D02*
X225704762Y-91158390D01*
X225704762Y-91158390D02*
X225657143Y-91206009D01*
X225657143Y-91206009D02*
X225609524Y-91301247D01*
X226466667Y-90729819D02*
X226800000Y-91729819D01*
X226800000Y-91729819D02*
X227133333Y-90729819D01*
X212414285Y-129706009D02*
X212557142Y-129753628D01*
X212557142Y-129753628D02*
X212604761Y-129801247D01*
X212604761Y-129801247D02*
X212652380Y-129896485D01*
X212652380Y-129896485D02*
X212652380Y-130039342D01*
X212652380Y-130039342D02*
X212604761Y-130134580D01*
X212604761Y-130134580D02*
X212557142Y-130182200D01*
X212557142Y-130182200D02*
X212461904Y-130229819D01*
X212461904Y-130229819D02*
X212080952Y-130229819D01*
X212080952Y-130229819D02*
X212080952Y-129229819D01*
X212080952Y-129229819D02*
X212414285Y-129229819D01*
X212414285Y-129229819D02*
X212509523Y-129277438D01*
X212509523Y-129277438D02*
X212557142Y-129325057D01*
X212557142Y-129325057D02*
X212604761Y-129420295D01*
X212604761Y-129420295D02*
X212604761Y-129515533D01*
X212604761Y-129515533D02*
X212557142Y-129610771D01*
X212557142Y-129610771D02*
X212509523Y-129658390D01*
X212509523Y-129658390D02*
X212414285Y-129706009D01*
X212414285Y-129706009D02*
X212080952Y-129706009D01*
X212938095Y-129229819D02*
X213509523Y-129229819D01*
X213223809Y-130229819D02*
X213223809Y-129229819D01*
X214366666Y-130229819D02*
X213795238Y-130229819D01*
X214080952Y-130229819D02*
X214080952Y-129229819D01*
X214080952Y-129229819D02*
X213985714Y-129372676D01*
X213985714Y-129372676D02*
X213890476Y-129467914D01*
X213890476Y-129467914D02*
X213795238Y-129515533D01*
X211004761Y-131734580D02*
X210957142Y-131782200D01*
X210957142Y-131782200D02*
X210814285Y-131829819D01*
X210814285Y-131829819D02*
X210719047Y-131829819D01*
X210719047Y-131829819D02*
X210576190Y-131782200D01*
X210576190Y-131782200D02*
X210480952Y-131686961D01*
X210480952Y-131686961D02*
X210433333Y-131591723D01*
X210433333Y-131591723D02*
X210385714Y-131401247D01*
X210385714Y-131401247D02*
X210385714Y-131258390D01*
X210385714Y-131258390D02*
X210433333Y-131067914D01*
X210433333Y-131067914D02*
X210480952Y-130972676D01*
X210480952Y-130972676D02*
X210576190Y-130877438D01*
X210576190Y-130877438D02*
X210719047Y-130829819D01*
X210719047Y-130829819D02*
X210814285Y-130829819D01*
X210814285Y-130829819D02*
X210957142Y-130877438D01*
X210957142Y-130877438D02*
X211004761Y-130925057D01*
X212004761Y-131829819D02*
X211671428Y-131353628D01*
X211433333Y-131829819D02*
X211433333Y-130829819D01*
X211433333Y-130829819D02*
X211814285Y-130829819D01*
X211814285Y-130829819D02*
X211909523Y-130877438D01*
X211909523Y-130877438D02*
X211957142Y-130925057D01*
X211957142Y-130925057D02*
X212004761Y-131020295D01*
X212004761Y-131020295D02*
X212004761Y-131163152D01*
X212004761Y-131163152D02*
X211957142Y-131258390D01*
X211957142Y-131258390D02*
X211909523Y-131306009D01*
X211909523Y-131306009D02*
X211814285Y-131353628D01*
X211814285Y-131353628D02*
X211433333Y-131353628D01*
X212385714Y-130925057D02*
X212433333Y-130877438D01*
X212433333Y-130877438D02*
X212528571Y-130829819D01*
X212528571Y-130829819D02*
X212766666Y-130829819D01*
X212766666Y-130829819D02*
X212861904Y-130877438D01*
X212861904Y-130877438D02*
X212909523Y-130925057D01*
X212909523Y-130925057D02*
X212957142Y-131020295D01*
X212957142Y-131020295D02*
X212957142Y-131115533D01*
X212957142Y-131115533D02*
X212909523Y-131258390D01*
X212909523Y-131258390D02*
X212338095Y-131829819D01*
X212338095Y-131829819D02*
X212957142Y-131829819D01*
X213576190Y-130829819D02*
X213671428Y-130829819D01*
X213671428Y-130829819D02*
X213766666Y-130877438D01*
X213766666Y-130877438D02*
X213814285Y-130925057D01*
X213814285Y-130925057D02*
X213861904Y-131020295D01*
X213861904Y-131020295D02*
X213909523Y-131210771D01*
X213909523Y-131210771D02*
X213909523Y-131448866D01*
X213909523Y-131448866D02*
X213861904Y-131639342D01*
X213861904Y-131639342D02*
X213814285Y-131734580D01*
X213814285Y-131734580D02*
X213766666Y-131782200D01*
X213766666Y-131782200D02*
X213671428Y-131829819D01*
X213671428Y-131829819D02*
X213576190Y-131829819D01*
X213576190Y-131829819D02*
X213480952Y-131782200D01*
X213480952Y-131782200D02*
X213433333Y-131734580D01*
X213433333Y-131734580D02*
X213385714Y-131639342D01*
X213385714Y-131639342D02*
X213338095Y-131448866D01*
X213338095Y-131448866D02*
X213338095Y-131210771D01*
X213338095Y-131210771D02*
X213385714Y-131020295D01*
X213385714Y-131020295D02*
X213433333Y-130925057D01*
X213433333Y-130925057D02*
X213480952Y-130877438D01*
X213480952Y-130877438D02*
X213576190Y-130829819D01*
X214242857Y-130829819D02*
X214861904Y-130829819D01*
X214861904Y-130829819D02*
X214528571Y-131210771D01*
X214528571Y-131210771D02*
X214671428Y-131210771D01*
X214671428Y-131210771D02*
X214766666Y-131258390D01*
X214766666Y-131258390D02*
X214814285Y-131306009D01*
X214814285Y-131306009D02*
X214861904Y-131401247D01*
X214861904Y-131401247D02*
X214861904Y-131639342D01*
X214861904Y-131639342D02*
X214814285Y-131734580D01*
X214814285Y-131734580D02*
X214766666Y-131782200D01*
X214766666Y-131782200D02*
X214671428Y-131829819D01*
X214671428Y-131829819D02*
X214385714Y-131829819D01*
X214385714Y-131829819D02*
X214290476Y-131782200D01*
X214290476Y-131782200D02*
X214242857Y-131734580D01*
X215242857Y-130925057D02*
X215290476Y-130877438D01*
X215290476Y-130877438D02*
X215385714Y-130829819D01*
X215385714Y-130829819D02*
X215623809Y-130829819D01*
X215623809Y-130829819D02*
X215719047Y-130877438D01*
X215719047Y-130877438D02*
X215766666Y-130925057D01*
X215766666Y-130925057D02*
X215814285Y-131020295D01*
X215814285Y-131020295D02*
X215814285Y-131115533D01*
X215814285Y-131115533D02*
X215766666Y-131258390D01*
X215766666Y-131258390D02*
X215195238Y-131829819D01*
X215195238Y-131829819D02*
X215814285Y-131829819D01*
D17*
%TO.C,J4*%
X180390000Y-121535000D02*
X181640000Y-121535000D01*
X182000000Y-121235000D02*
X182000000Y-120625000D01*
X183300000Y-121235000D02*
X183300000Y-120625000D01*
X181300000Y-120625000D02*
X184800000Y-120625000D01*
X184800000Y-120625000D02*
X184800000Y-115725000D01*
X180390000Y-120285000D02*
X180390000Y-121535000D01*
X180490000Y-119775000D02*
X180690000Y-119775000D01*
X180490000Y-119475000D02*
X180490000Y-119775000D01*
X180590000Y-119475000D02*
X180590000Y-119775000D01*
X180690000Y-119475000D02*
X180490000Y-119475000D01*
X180690000Y-118675000D02*
X181300000Y-118675000D01*
X181300000Y-118675000D02*
X181300000Y-120625000D01*
X184300000Y-118275000D02*
X184300000Y-118075000D01*
X184800000Y-118275000D02*
X184300000Y-118275000D01*
X184800000Y-118175000D02*
X184300000Y-118175000D01*
X184300000Y-118075000D02*
X184800000Y-118075000D01*
X181300000Y-117675000D02*
X180690000Y-117675000D01*
X181300000Y-115725000D02*
X181300000Y-117675000D01*
X184800000Y-115725000D02*
X181300000Y-115725000D01*
X182000000Y-115115000D02*
X182000000Y-115725000D01*
X183300000Y-115115000D02*
X183300000Y-115725000D01*
X180690000Y-121235000D02*
X185410000Y-121235000D01*
X185410000Y-115115000D01*
X180690000Y-115115000D01*
X180690000Y-121235000D01*
%TO.C,D4*%
X224760000Y-57340000D02*
X222840000Y-57340000D01*
X222840000Y-57340000D02*
X222840000Y-60025000D01*
X224760000Y-60025000D02*
X224760000Y-57340000D01*
%TO.C,D1*%
X180260000Y-57290000D02*
X178340000Y-57290000D01*
X178340000Y-57290000D02*
X178340000Y-59975000D01*
X180260000Y-59975000D02*
X180260000Y-57290000D01*
%TO.C,U5*%
D12*
X187027500Y-52245000D02*
X214752500Y-52245000D01*
X214752500Y-57845000D01*
X187027500Y-57845000D01*
X187027500Y-52245000D01*
D18*
X187027500Y-57845000D02*
X214752500Y-57845000D01*
X214752500Y-97291000D01*
X187027500Y-97291000D01*
X187027500Y-57845000D01*
D12*
X187027500Y-97291000D02*
X214702500Y-97291000D01*
X214702500Y-107045000D01*
X187027500Y-107045000D01*
X187027500Y-97291000D01*
X194377500Y-100645000D02*
X208077500Y-100645000D01*
X208077500Y-107045000D01*
X194377500Y-107045000D01*
X194377500Y-100645000D01*
D17*
%TO.C,J2*%
X221140000Y-116265000D02*
X226440000Y-116265000D01*
X221140000Y-117005000D02*
X221140000Y-116265000D01*
X221140000Y-121005000D02*
X221140000Y-122085000D01*
X221140000Y-126825000D02*
X221140000Y-126085000D01*
X226440000Y-116265000D02*
X226440000Y-126825000D01*
X226440000Y-126825000D02*
X221140000Y-126825000D01*
X227440000Y-115355000D02*
X227440000Y-117895000D01*
X227440000Y-120005000D02*
X227440000Y-123085000D01*
X227440000Y-127735000D02*
X227440000Y-125195000D01*
X228450000Y-119005000D02*
X229050000Y-118705000D01*
X229050000Y-118705000D02*
X229050000Y-119305000D01*
X229050000Y-119305000D02*
X228450000Y-119005000D01*
X228250000Y-115355000D02*
X219430000Y-115355000D01*
X219430000Y-127735000D01*
X228250000Y-127735000D01*
X228250000Y-115355000D01*
X228250000Y-118005000D02*
X226440000Y-118005000D01*
X226440000Y-120005000D01*
X228250000Y-120005000D01*
X228250000Y-118005000D01*
X228250000Y-123085000D02*
X226440000Y-123085000D01*
X226440000Y-125085000D01*
X228250000Y-125085000D01*
X228250000Y-123085000D01*
X221124179Y-120991842D02*
G75*
G02*
X221140000Y-117005000I1665821J1986842D01*
G01*
X221124179Y-126071842D02*
G75*
G02*
X221140000Y-122085000I1665821J1986842D01*
G01*
%TO.C,J1*%
X175480000Y-104855000D02*
X176080000Y-105155000D01*
X175480000Y-105455000D02*
X175480000Y-104855000D01*
X176080000Y-105155000D02*
X175480000Y-105455000D01*
X177090000Y-91345000D02*
X177090000Y-93885000D01*
X177090000Y-99075000D02*
X177090000Y-95995000D01*
X177090000Y-104155000D02*
X177090000Y-101075000D01*
X177090000Y-108805000D02*
X177090000Y-106265000D01*
X178090000Y-92255000D02*
X183390000Y-92255000D01*
X178090000Y-107895000D02*
X178090000Y-92255000D01*
X183390000Y-92255000D02*
X183390000Y-92995000D01*
X183390000Y-98075000D02*
X183390000Y-96995000D01*
X183390000Y-103155000D02*
X183390000Y-102075000D01*
X183390000Y-107155000D02*
X183390000Y-107895000D01*
X183390000Y-107895000D02*
X178090000Y-107895000D01*
X176280000Y-95995000D02*
X178090000Y-95995000D01*
X178090000Y-93995000D01*
X176280000Y-93995000D01*
X176280000Y-95995000D01*
X176280000Y-101075000D02*
X178090000Y-101075000D01*
X178090000Y-99075000D01*
X176280000Y-99075000D01*
X176280000Y-101075000D01*
X176280000Y-106155000D02*
X178090000Y-106155000D01*
X178090000Y-104155000D01*
X176280000Y-104155000D01*
X176280000Y-106155000D01*
X176280000Y-108805000D02*
X185100000Y-108805000D01*
X185100000Y-91345000D01*
X176280000Y-91345000D01*
X176280000Y-108805000D01*
X183405821Y-93008158D02*
G75*
G02*
X183390000Y-96995000I-1665821J-1986842D01*
G01*
X183405821Y-98088158D02*
G75*
G02*
X183390000Y-102075000I-1665821J-1986842D01*
G01*
X183405821Y-103168158D02*
G75*
G02*
X183390000Y-107155000I-1665821J-1986842D01*
G01*
%TO.C,K1*%
X216390000Y-112325000D02*
X216390000Y-92525000D01*
X218140000Y-97475000D02*
X218140000Y-99975000D01*
X219990000Y-108075000D02*
X222440000Y-108075000D01*
X220540000Y-103375000D02*
X220540000Y-96575000D01*
X222340000Y-97975000D02*
X225940000Y-97975000D01*
X222340000Y-99975000D02*
X218140000Y-99975000D01*
X222340000Y-101975000D02*
X222340000Y-97975000D01*
X222340000Y-101975000D02*
X225940000Y-97975000D01*
X222990000Y-92525000D02*
X216390000Y-92525000D01*
X224140000Y-96575000D02*
X220540000Y-96575000D01*
X224140000Y-96575000D02*
X224140000Y-95775000D01*
X224140000Y-103375000D02*
X220540000Y-103375000D01*
X224140000Y-103375000D02*
X224140000Y-104875000D01*
X224140000Y-104875000D02*
X226640000Y-109475000D01*
X225940000Y-97975000D02*
X225940000Y-101975000D01*
X225940000Y-101975000D02*
X222340000Y-101975000D01*
X228390000Y-108075000D02*
X225890000Y-108075000D01*
X230140000Y-99975000D02*
X225940000Y-99975000D01*
X230140000Y-99975000D02*
X230140000Y-97475000D01*
X231990000Y-92525000D02*
X225390000Y-92525000D01*
X231990000Y-92525000D02*
X231990000Y-112325000D01*
X231990000Y-112325000D02*
X216390000Y-112325000D01*
%TO.C,C6*%
X232320000Y-88775000D02*
G75*
G02*
X227080000Y-88775000I-2620000J0D01*
G01*
X227080000Y-88775000D02*
G75*
G02*
X232320000Y-88775000I2620000J0D01*
G01*
%TO.C,BT1*%
X202650000Y-130142454D02*
X203650000Y-130142455D01*
X203149999Y-130642454D02*
X203150000Y-129642454D01*
X200050001Y-131142453D02*
G75*
G02*
X206249999Y-131142453I3099999J11499999D01*
G01*
%TD*%
M02*
