%TF.GenerationSoftware,KiCad,Pcbnew,9.0.7*%
%TF.CreationDate,2026-08-24T20:15:45+05:30*%
%TF.ProjectId,Nursary_OneCH,4e757273-6172-4795-9f4f-6e6543482e6b,rev?*%
%TF.SameCoordinates,Original*%
%TF.FileFunction,Soldermask,Bot*%
%TF.FilePolarity,Negative*%
%FSLAX46Y46*%
G04 Gerber Fmt 4.6, Leading zero omitted, Abs format (unit mm)*
G04 Created by KiCad (PCBNEW 9.0.7) date 2026-08-24 20:15:45*
%MOMM*%
%LPD*%
G01*
G04 APERTURE LIST*
G04 Aperture macros list*
%AMRoundRect*
0 Rectangle with rounded corners*
0 $1 Rounding radius*
0 $2 $3 $4 $5 $6 $7 $8 $9 X,Y pos of 4 corners*
0 Add a 4 corners polygon primitive as box body*
4,1,4,$2,$3,$4,$5,$6,$7,$8,$9,$2,$3,0*
0 Add four circle primitives for the rounded corners*
1,1,$1+$1,$2,$3*
1,1,$1+$1,$4,$5*
1,1,$1+$1,$6,$7*
1,1,$1+$1,$8,$9*
0 Add four rect primitives between the rounded corners*
20,1,$1+$1,$2,$3,$4,$5,0*
20,1,$1+$1,$4,$5,$6,$7,0*
20,1,$1+$1,$6,$7,$8,$9,0*
20,1,$1+$1,$8,$9,$2,$3,0*%
G04 Aperture macros list end*
%ADD10C,3.000000*%
%ADD11R,3.000000X3.000000*%
%ADD12RoundRect,0.250000X0.625000X-0.350000X0.625000X0.350000X-0.625000X0.350000X-0.625000X-0.350000X0*%
%ADD13O,1.750000X1.200000*%
%ADD14RoundRect,0.243750X-0.243750X-0.456250X0.243750X-0.456250X0.243750X0.456250X-0.243750X0.456250X0*%
%ADD15RoundRect,0.249999X-1.550001X0.790001X-1.550001X-0.790001X1.550001X-0.790001X1.550001X0.790001X0*%
%ADD16O,3.600000X2.080000*%
%ADD17C,4.500000*%
%ADD18C,1.200000*%
%ADD19C,0.800000*%
%ADD20C,1.000000*%
%ADD21O,2.200000X1.500000*%
%ADD22RoundRect,0.249999X1.550001X-0.790001X1.550001X0.790001X-1.550001X0.790001X-1.550001X-0.790001X0*%
%ADD23C,2.500000*%
%ADD24RoundRect,0.250000X-0.450000X0.262500X-0.450000X-0.262500X0.450000X-0.262500X0.450000X0.262500X0*%
%ADD25RoundRect,0.250000X0.262500X0.450000X-0.262500X0.450000X-0.262500X-0.450000X0.262500X-0.450000X0*%
%ADD26RoundRect,0.375000X-1.125000X2.625000X-1.125000X-2.625000X1.125000X-2.625000X1.125000X2.625000X0*%
%ADD27RoundRect,0.250000X0.450000X-0.262500X0.450000X0.262500X-0.450000X0.262500X-0.450000X-0.262500X0*%
%ADD28RoundRect,0.150000X-0.875000X-0.150000X0.875000X-0.150000X0.875000X0.150000X-0.875000X0.150000X0*%
%ADD29RoundRect,0.150000X-0.150000X0.825000X-0.150000X-0.825000X0.150000X-0.825000X0.150000X0.825000X0*%
%ADD30RoundRect,0.250000X0.475000X-0.250000X0.475000X0.250000X-0.475000X0.250000X-0.475000X-0.250000X0*%
%ADD31RoundRect,0.150000X-0.825000X-0.150000X0.825000X-0.150000X0.825000X0.150000X-0.825000X0.150000X0*%
%ADD32RoundRect,0.250000X0.700000X-0.275000X0.700000X0.275000X-0.700000X0.275000X-0.700000X-0.275000X0*%
%ADD33RoundRect,0.250000X-0.250000X-0.475000X0.250000X-0.475000X0.250000X0.475000X-0.250000X0.475000X0*%
G04 APERTURE END LIST*
D10*
%TO.C,BT1*%
X210090000Y-120075000D03*
D11*
X189290000Y-120075000D03*
%TD*%
D12*
%TO.C,J4*%
X182500000Y-119175000D03*
D13*
X182500000Y-117175000D03*
%TD*%
D14*
%TO.C,D6*%
X182672500Y-84325000D03*
X184547500Y-84325000D03*
%TD*%
D15*
%TO.C,J2*%
X223340000Y-112065000D03*
D16*
X223340000Y-117145000D03*
%TD*%
D17*
%TO.C,*%
X220750000Y-47685000D03*
%TD*%
%TO.C,*%
X220750000Y-131345000D03*
%TD*%
D18*
%TO.C,U5*%
X188302500Y-64510000D03*
X188302500Y-67070000D03*
D19*
X188302500Y-84870000D03*
X188302500Y-87430000D03*
D20*
X188327500Y-59435000D03*
X188327500Y-61995000D03*
D19*
X188327500Y-77220000D03*
X188327500Y-79780000D03*
X188327500Y-82355000D03*
X188327500Y-89955000D03*
X188352500Y-74705000D03*
X213302500Y-64510000D03*
X213302500Y-67070000D03*
X213302500Y-77255000D03*
X213302500Y-79815000D03*
X213302500Y-89990000D03*
X213327500Y-59435000D03*
X213327500Y-74740000D03*
X213327500Y-87430000D03*
X213352500Y-82355000D03*
X213352500Y-84880000D03*
D21*
X213377500Y-95005000D03*
X213377500Y-92445000D03*
X213352500Y-72170000D03*
X213352500Y-69610000D03*
X213327500Y-61995000D03*
X188352500Y-69610000D03*
X188352500Y-72170000D03*
X188377500Y-92445000D03*
X188377500Y-95005000D03*
%TD*%
D16*
%TO.C,J1*%
X178940000Y-79315000D03*
X178940000Y-84395000D03*
D22*
X178940000Y-89475000D03*
%TD*%
D10*
%TO.C,K1*%
X224190000Y-86985000D03*
D23*
X218140000Y-88935000D03*
D10*
X218140000Y-101135000D03*
X230190000Y-101185000D03*
D23*
X230140000Y-88935000D03*
%TD*%
D17*
%TO.C,*%
X190750000Y-131305000D03*
%TD*%
D18*
%TO.C,C6*%
X229700000Y-82835000D03*
X229700000Y-80835000D03*
%TD*%
D17*
%TO.C,*%
X190750000Y-47685000D03*
%TD*%
D24*
%TO.C,R15*%
X205200000Y-113975000D03*
X205200000Y-115800000D03*
%TD*%
D25*
%TO.C,R4*%
X197212500Y-75675000D03*
X195387500Y-75675000D03*
%TD*%
D26*
%TO.C,TP1*%
X196900000Y-124205000D03*
%TD*%
D18*
%TO.C,Y1*%
X198170000Y-117875000D03*
X195630000Y-117875000D03*
%TD*%
D24*
%TO.C,R16*%
X209000000Y-113975000D03*
X209000000Y-115800000D03*
%TD*%
%TO.C,R1*%
X184540000Y-79352500D03*
X184540000Y-81177500D03*
%TD*%
D27*
%TO.C,R5*%
X223900000Y-65697500D03*
X223900000Y-63872500D03*
%TD*%
D28*
%TO.C,U4*%
X202050000Y-131982500D03*
X202050000Y-130712500D03*
X202050000Y-126902500D03*
X202050000Y-125632500D03*
X202050000Y-124362500D03*
X202050000Y-123092500D03*
X211350000Y-123092500D03*
X211350000Y-124362500D03*
X211350000Y-125632500D03*
X211350000Y-126902500D03*
X211350000Y-128172500D03*
X211350000Y-129442500D03*
X211350000Y-130712500D03*
X211350000Y-131982500D03*
%TD*%
D29*
%TO.C,U1*%
X219730000Y-76210000D03*
X228620000Y-76210000D03*
X228620000Y-71260000D03*
X219730000Y-71260000D03*
%TD*%
D30*
%TO.C,C1*%
X191300000Y-102825000D03*
X191300000Y-100925000D03*
%TD*%
%TO.C,C4*%
X224600000Y-82785000D03*
X224600000Y-80885000D03*
%TD*%
D27*
%TO.C,R3*%
X179200000Y-65907500D03*
X179200000Y-64082500D03*
%TD*%
D31*
%TO.C,U3*%
X193325000Y-115480000D03*
X193325000Y-114210000D03*
X193325000Y-112940000D03*
X193325000Y-111670000D03*
X198275000Y-111670000D03*
X198275000Y-112940000D03*
X198275000Y-115480000D03*
%TD*%
D32*
%TO.C,F1*%
X188400000Y-108250000D03*
X188400000Y-105100000D03*
%TD*%
D33*
%TO.C,C2*%
X195250000Y-69575000D03*
X197150000Y-69575000D03*
%TD*%
M02*
