%TF.GenerationSoftware,KiCad,Pcbnew,9.0.7*%
%TF.CreationDate,2026-07-18T06:45:16+05:30*%
%TF.ProjectId,Nursary_OneCH,4e757273-6172-4795-9f4f-6e6543482e6b,rev?*%
%TF.SameCoordinates,Original*%
%TF.FileFunction,Legend,Bot*%
%TF.FilePolarity,Positive*%
%FSLAX46Y46*%
G04 Gerber Fmt 4.6, Leading zero omitted, Abs format (unit mm)*
G04 Created by KiCad (PCBNEW 9.0.7) date 2026-07-18 06:45:16*
%MOMM*%
%LPD*%
G01*
G04 APERTURE LIST*
%ADD10C,0.200000*%
%ADD11C,0.300000*%
%ADD12C,0.240000*%
%ADD13C,0.150000*%
%ADD14C,0.120000*%
G04 APERTURE END LIST*
D10*
X134986266Y-131744673D02*
X134986266Y-132506578D01*
X135367219Y-132125625D02*
X134605314Y-132125625D01*
X123761266Y-132019673D02*
X123761266Y-132781578D01*
X124142219Y-132400625D02*
X123380314Y-132400625D01*
X133039838Y-110843482D02*
X132992219Y-110748244D01*
X132992219Y-110748244D02*
X132992219Y-110605387D01*
X132992219Y-110605387D02*
X133039838Y-110462530D01*
X133039838Y-110462530D02*
X133135076Y-110367292D01*
X133135076Y-110367292D02*
X133230314Y-110319673D01*
X133230314Y-110319673D02*
X133420790Y-110272054D01*
X133420790Y-110272054D02*
X133563647Y-110272054D01*
X133563647Y-110272054D02*
X133754123Y-110319673D01*
X133754123Y-110319673D02*
X133849361Y-110367292D01*
X133849361Y-110367292D02*
X133944600Y-110462530D01*
X133944600Y-110462530D02*
X133992219Y-110605387D01*
X133992219Y-110605387D02*
X133992219Y-110700625D01*
X133992219Y-110700625D02*
X133944600Y-110843482D01*
X133944600Y-110843482D02*
X133896980Y-110891101D01*
X133896980Y-110891101D02*
X133563647Y-110891101D01*
X133563647Y-110891101D02*
X133563647Y-110700625D01*
X124286266Y-113169673D02*
X124286266Y-113931578D01*
X124667219Y-113550625D02*
X123905314Y-113550625D01*
X124143409Y-114741101D02*
X124191028Y-114883958D01*
X124191028Y-114883958D02*
X124238647Y-114931577D01*
X124238647Y-114931577D02*
X124333885Y-114979196D01*
X124333885Y-114979196D02*
X124476742Y-114979196D01*
X124476742Y-114979196D02*
X124571980Y-114931577D01*
X124571980Y-114931577D02*
X124619600Y-114883958D01*
X124619600Y-114883958D02*
X124667219Y-114788720D01*
X124667219Y-114788720D02*
X124667219Y-114407768D01*
X124667219Y-114407768D02*
X123667219Y-114407768D01*
X123667219Y-114407768D02*
X123667219Y-114741101D01*
X123667219Y-114741101D02*
X123714838Y-114836339D01*
X123714838Y-114836339D02*
X123762457Y-114883958D01*
X123762457Y-114883958D02*
X123857695Y-114931577D01*
X123857695Y-114931577D02*
X123952933Y-114931577D01*
X123952933Y-114931577D02*
X124048171Y-114883958D01*
X124048171Y-114883958D02*
X124095790Y-114836339D01*
X124095790Y-114836339D02*
X124143409Y-114741101D01*
X124143409Y-114741101D02*
X124143409Y-114407768D01*
X124381504Y-115360149D02*
X124381504Y-115836339D01*
X124667219Y-115264911D02*
X123667219Y-115598244D01*
X123667219Y-115598244D02*
X124667219Y-115931577D01*
X123667219Y-116122054D02*
X123667219Y-116693482D01*
X124667219Y-116407768D02*
X123667219Y-116407768D01*
X123667219Y-116883959D02*
X123667219Y-117455387D01*
X124667219Y-117169673D02*
X123667219Y-117169673D01*
X133711266Y-115794673D02*
X133711266Y-116556578D01*
X134092219Y-116175625D02*
X133330314Y-116175625D01*
X133092219Y-116937530D02*
X133092219Y-117556577D01*
X133092219Y-117556577D02*
X133473171Y-117223244D01*
X133473171Y-117223244D02*
X133473171Y-117366101D01*
X133473171Y-117366101D02*
X133520790Y-117461339D01*
X133520790Y-117461339D02*
X133568409Y-117508958D01*
X133568409Y-117508958D02*
X133663647Y-117556577D01*
X133663647Y-117556577D02*
X133901742Y-117556577D01*
X133901742Y-117556577D02*
X133996980Y-117508958D01*
X133996980Y-117508958D02*
X134044600Y-117461339D01*
X134044600Y-117461339D02*
X134092219Y-117366101D01*
X134092219Y-117366101D02*
X134092219Y-117080387D01*
X134092219Y-117080387D02*
X134044600Y-116985149D01*
X134044600Y-116985149D02*
X133996980Y-116937530D01*
X133092219Y-117842292D02*
X134092219Y-118175625D01*
X134092219Y-118175625D02*
X133092219Y-118508958D01*
X133092219Y-118747054D02*
X133092219Y-119366101D01*
X133092219Y-119366101D02*
X133473171Y-119032768D01*
X133473171Y-119032768D02*
X133473171Y-119175625D01*
X133473171Y-119175625D02*
X133520790Y-119270863D01*
X133520790Y-119270863D02*
X133568409Y-119318482D01*
X133568409Y-119318482D02*
X133663647Y-119366101D01*
X133663647Y-119366101D02*
X133901742Y-119366101D01*
X133901742Y-119366101D02*
X133996980Y-119318482D01*
X133996980Y-119318482D02*
X134044600Y-119270863D01*
X134044600Y-119270863D02*
X134092219Y-119175625D01*
X134092219Y-119175625D02*
X134092219Y-118889911D01*
X134092219Y-118889911D02*
X134044600Y-118794673D01*
X134044600Y-118794673D02*
X133996980Y-118747054D01*
X118667219Y-112718482D02*
X118667219Y-112147054D01*
X118667219Y-112432768D02*
X117667219Y-112432768D01*
X117667219Y-112432768D02*
X117810076Y-112337530D01*
X117810076Y-112337530D02*
X117905314Y-112242292D01*
X117905314Y-112242292D02*
X117952933Y-112147054D01*
D11*
X109427038Y-120771428D02*
X109427038Y-120371428D01*
X110055609Y-120371428D02*
X108855609Y-120371428D01*
X108855609Y-120371428D02*
X108855609Y-120942856D01*
X110055609Y-121971427D02*
X110055609Y-121399999D01*
X110055609Y-121399999D02*
X108855609Y-121399999D01*
X108855609Y-122599999D02*
X108855609Y-122828571D01*
X108855609Y-122828571D02*
X108912752Y-122942856D01*
X108912752Y-122942856D02*
X109027038Y-123057142D01*
X109027038Y-123057142D02*
X109255609Y-123114285D01*
X109255609Y-123114285D02*
X109655609Y-123114285D01*
X109655609Y-123114285D02*
X109884181Y-123057142D01*
X109884181Y-123057142D02*
X109998467Y-122942856D01*
X109998467Y-122942856D02*
X110055609Y-122828571D01*
X110055609Y-122828571D02*
X110055609Y-122599999D01*
X110055609Y-122599999D02*
X109998467Y-122485714D01*
X109998467Y-122485714D02*
X109884181Y-122371428D01*
X109884181Y-122371428D02*
X109655609Y-122314285D01*
X109655609Y-122314285D02*
X109255609Y-122314285D01*
X109255609Y-122314285D02*
X109027038Y-122371428D01*
X109027038Y-122371428D02*
X108912752Y-122485714D01*
X108912752Y-122485714D02*
X108855609Y-122599999D01*
X108855609Y-123514285D02*
X110055609Y-123799999D01*
X110055609Y-123799999D02*
X109198467Y-124028571D01*
X109198467Y-124028571D02*
X110055609Y-124257142D01*
X110055609Y-124257142D02*
X108855609Y-124542857D01*
X108912752Y-126542857D02*
X108855609Y-126428572D01*
X108855609Y-126428572D02*
X108855609Y-126257143D01*
X108855609Y-126257143D02*
X108912752Y-126085714D01*
X108912752Y-126085714D02*
X109027038Y-125971429D01*
X109027038Y-125971429D02*
X109141324Y-125914286D01*
X109141324Y-125914286D02*
X109369895Y-125857143D01*
X109369895Y-125857143D02*
X109541324Y-125857143D01*
X109541324Y-125857143D02*
X109769895Y-125914286D01*
X109769895Y-125914286D02*
X109884181Y-125971429D01*
X109884181Y-125971429D02*
X109998467Y-126085714D01*
X109998467Y-126085714D02*
X110055609Y-126257143D01*
X110055609Y-126257143D02*
X110055609Y-126371429D01*
X110055609Y-126371429D02*
X109998467Y-126542857D01*
X109998467Y-126542857D02*
X109941324Y-126600000D01*
X109941324Y-126600000D02*
X109541324Y-126600000D01*
X109541324Y-126600000D02*
X109541324Y-126371429D01*
X108855609Y-127114286D02*
X109827038Y-127114286D01*
X109827038Y-127114286D02*
X109941324Y-127171429D01*
X109941324Y-127171429D02*
X109998467Y-127228572D01*
X109998467Y-127228572D02*
X110055609Y-127342857D01*
X110055609Y-127342857D02*
X110055609Y-127571429D01*
X110055609Y-127571429D02*
X109998467Y-127685714D01*
X109998467Y-127685714D02*
X109941324Y-127742857D01*
X109941324Y-127742857D02*
X109827038Y-127800000D01*
X109827038Y-127800000D02*
X108855609Y-127800000D01*
X109712752Y-128314286D02*
X109712752Y-128885715D01*
X110055609Y-128200000D02*
X108855609Y-128600000D01*
X108855609Y-128600000D02*
X110055609Y-129000000D01*
X110055609Y-130085714D02*
X109484181Y-129685714D01*
X110055609Y-129400000D02*
X108855609Y-129400000D01*
X108855609Y-129400000D02*
X108855609Y-129857143D01*
X108855609Y-129857143D02*
X108912752Y-129971428D01*
X108912752Y-129971428D02*
X108969895Y-130028571D01*
X108969895Y-130028571D02*
X109084181Y-130085714D01*
X109084181Y-130085714D02*
X109255609Y-130085714D01*
X109255609Y-130085714D02*
X109369895Y-130028571D01*
X109369895Y-130028571D02*
X109427038Y-129971428D01*
X109427038Y-129971428D02*
X109484181Y-129857143D01*
X109484181Y-129857143D02*
X109484181Y-129400000D01*
X110055609Y-130600000D02*
X108855609Y-130600000D01*
X108855609Y-130600000D02*
X108855609Y-130885714D01*
X108855609Y-130885714D02*
X108912752Y-131057143D01*
X108912752Y-131057143D02*
X109027038Y-131171428D01*
X109027038Y-131171428D02*
X109141324Y-131228571D01*
X109141324Y-131228571D02*
X109369895Y-131285714D01*
X109369895Y-131285714D02*
X109541324Y-131285714D01*
X109541324Y-131285714D02*
X109769895Y-131228571D01*
X109769895Y-131228571D02*
X109884181Y-131171428D01*
X109884181Y-131171428D02*
X109998467Y-131057143D01*
X109998467Y-131057143D02*
X110055609Y-130885714D01*
X110055609Y-130885714D02*
X110055609Y-130600000D01*
X111358971Y-126171429D02*
X111358971Y-125771429D01*
X111987542Y-125771429D02*
X110787542Y-125771429D01*
X110787542Y-125771429D02*
X110787542Y-126342857D01*
X110844685Y-127428571D02*
X110787542Y-127314286D01*
X110787542Y-127314286D02*
X110787542Y-127142857D01*
X110787542Y-127142857D02*
X110844685Y-126971428D01*
X110844685Y-126971428D02*
X110958971Y-126857143D01*
X110958971Y-126857143D02*
X111073257Y-126800000D01*
X111073257Y-126800000D02*
X111301828Y-126742857D01*
X111301828Y-126742857D02*
X111473257Y-126742857D01*
X111473257Y-126742857D02*
X111701828Y-126800000D01*
X111701828Y-126800000D02*
X111816114Y-126857143D01*
X111816114Y-126857143D02*
X111930400Y-126971428D01*
X111930400Y-126971428D02*
X111987542Y-127142857D01*
X111987542Y-127142857D02*
X111987542Y-127257143D01*
X111987542Y-127257143D02*
X111930400Y-127428571D01*
X111930400Y-127428571D02*
X111873257Y-127485714D01*
X111873257Y-127485714D02*
X111473257Y-127485714D01*
X111473257Y-127485714D02*
X111473257Y-127257143D01*
X111987542Y-128628571D02*
X111987542Y-127942857D01*
X111987542Y-128285714D02*
X110787542Y-128285714D01*
X110787542Y-128285714D02*
X110958971Y-128171428D01*
X110958971Y-128171428D02*
X111073257Y-128057143D01*
X111073257Y-128057143D02*
X111130400Y-127942857D01*
D12*
X125408939Y-46635714D02*
X125408939Y-47207143D01*
X125751796Y-46521428D02*
X124551796Y-46921428D01*
X124551796Y-46921428D02*
X125751796Y-47321428D01*
X124951796Y-48235714D02*
X125923225Y-48235714D01*
X125923225Y-48235714D02*
X126037511Y-48178571D01*
X126037511Y-48178571D02*
X126094654Y-48121428D01*
X126094654Y-48121428D02*
X126151796Y-48007142D01*
X126151796Y-48007142D02*
X126151796Y-47835714D01*
X126151796Y-47835714D02*
X126094654Y-47721428D01*
X125694654Y-48235714D02*
X125751796Y-48121428D01*
X125751796Y-48121428D02*
X125751796Y-47892856D01*
X125751796Y-47892856D02*
X125694654Y-47778571D01*
X125694654Y-47778571D02*
X125637511Y-47721428D01*
X125637511Y-47721428D02*
X125523225Y-47664285D01*
X125523225Y-47664285D02*
X125180368Y-47664285D01*
X125180368Y-47664285D02*
X125066082Y-47721428D01*
X125066082Y-47721428D02*
X125008939Y-47778571D01*
X125008939Y-47778571D02*
X124951796Y-47892856D01*
X124951796Y-47892856D02*
X124951796Y-48121428D01*
X124951796Y-48121428D02*
X125008939Y-48235714D01*
X125751796Y-48807142D02*
X124951796Y-48807142D01*
X125180368Y-48807142D02*
X125066082Y-48864285D01*
X125066082Y-48864285D02*
X125008939Y-48921428D01*
X125008939Y-48921428D02*
X124951796Y-49035713D01*
X124951796Y-49035713D02*
X124951796Y-49149999D01*
X125751796Y-49549999D02*
X124951796Y-49549999D01*
X124551796Y-49549999D02*
X124608939Y-49492856D01*
X124608939Y-49492856D02*
X124666082Y-49549999D01*
X124666082Y-49549999D02*
X124608939Y-49607142D01*
X124608939Y-49607142D02*
X124551796Y-49549999D01*
X124551796Y-49549999D02*
X124666082Y-49549999D01*
X125694654Y-50978571D02*
X125751796Y-51150000D01*
X125751796Y-51150000D02*
X125751796Y-51435714D01*
X125751796Y-51435714D02*
X125694654Y-51550000D01*
X125694654Y-51550000D02*
X125637511Y-51607142D01*
X125637511Y-51607142D02*
X125523225Y-51664285D01*
X125523225Y-51664285D02*
X125408939Y-51664285D01*
X125408939Y-51664285D02*
X125294654Y-51607142D01*
X125294654Y-51607142D02*
X125237511Y-51550000D01*
X125237511Y-51550000D02*
X125180368Y-51435714D01*
X125180368Y-51435714D02*
X125123225Y-51207142D01*
X125123225Y-51207142D02*
X125066082Y-51092857D01*
X125066082Y-51092857D02*
X125008939Y-51035714D01*
X125008939Y-51035714D02*
X124894654Y-50978571D01*
X124894654Y-50978571D02*
X124780368Y-50978571D01*
X124780368Y-50978571D02*
X124666082Y-51035714D01*
X124666082Y-51035714D02*
X124608939Y-51092857D01*
X124608939Y-51092857D02*
X124551796Y-51207142D01*
X124551796Y-51207142D02*
X124551796Y-51492857D01*
X124551796Y-51492857D02*
X124608939Y-51664285D01*
X125694654Y-52635714D02*
X125751796Y-52521428D01*
X125751796Y-52521428D02*
X125751796Y-52292857D01*
X125751796Y-52292857D02*
X125694654Y-52178571D01*
X125694654Y-52178571D02*
X125580368Y-52121428D01*
X125580368Y-52121428D02*
X125123225Y-52121428D01*
X125123225Y-52121428D02*
X125008939Y-52178571D01*
X125008939Y-52178571D02*
X124951796Y-52292857D01*
X124951796Y-52292857D02*
X124951796Y-52521428D01*
X124951796Y-52521428D02*
X125008939Y-52635714D01*
X125008939Y-52635714D02*
X125123225Y-52692857D01*
X125123225Y-52692857D02*
X125237511Y-52692857D01*
X125237511Y-52692857D02*
X125351796Y-52121428D01*
X124951796Y-53207142D02*
X125751796Y-53207142D01*
X125066082Y-53207142D02*
X125008939Y-53264285D01*
X125008939Y-53264285D02*
X124951796Y-53378570D01*
X124951796Y-53378570D02*
X124951796Y-53549999D01*
X124951796Y-53549999D02*
X125008939Y-53664285D01*
X125008939Y-53664285D02*
X125123225Y-53721428D01*
X125123225Y-53721428D02*
X125751796Y-53721428D01*
X125694654Y-54235713D02*
X125751796Y-54349999D01*
X125751796Y-54349999D02*
X125751796Y-54578570D01*
X125751796Y-54578570D02*
X125694654Y-54692856D01*
X125694654Y-54692856D02*
X125580368Y-54749999D01*
X125580368Y-54749999D02*
X125523225Y-54749999D01*
X125523225Y-54749999D02*
X125408939Y-54692856D01*
X125408939Y-54692856D02*
X125351796Y-54578570D01*
X125351796Y-54578570D02*
X125351796Y-54407142D01*
X125351796Y-54407142D02*
X125294654Y-54292856D01*
X125294654Y-54292856D02*
X125180368Y-54235713D01*
X125180368Y-54235713D02*
X125123225Y-54235713D01*
X125123225Y-54235713D02*
X125008939Y-54292856D01*
X125008939Y-54292856D02*
X124951796Y-54407142D01*
X124951796Y-54407142D02*
X124951796Y-54578570D01*
X124951796Y-54578570D02*
X125008939Y-54692856D01*
X125751796Y-55435713D02*
X125694654Y-55321428D01*
X125694654Y-55321428D02*
X125637511Y-55264285D01*
X125637511Y-55264285D02*
X125523225Y-55207142D01*
X125523225Y-55207142D02*
X125180368Y-55207142D01*
X125180368Y-55207142D02*
X125066082Y-55264285D01*
X125066082Y-55264285D02*
X125008939Y-55321428D01*
X125008939Y-55321428D02*
X124951796Y-55435713D01*
X124951796Y-55435713D02*
X124951796Y-55607142D01*
X124951796Y-55607142D02*
X125008939Y-55721428D01*
X125008939Y-55721428D02*
X125066082Y-55778571D01*
X125066082Y-55778571D02*
X125180368Y-55835713D01*
X125180368Y-55835713D02*
X125523225Y-55835713D01*
X125523225Y-55835713D02*
X125637511Y-55778571D01*
X125637511Y-55778571D02*
X125694654Y-55721428D01*
X125694654Y-55721428D02*
X125751796Y-55607142D01*
X125751796Y-55607142D02*
X125751796Y-55435713D01*
X125751796Y-56349999D02*
X124951796Y-56349999D01*
X125180368Y-56349999D02*
X125066082Y-56407142D01*
X125066082Y-56407142D02*
X125008939Y-56464285D01*
X125008939Y-56464285D02*
X124951796Y-56578570D01*
X124951796Y-56578570D02*
X124951796Y-56692856D01*
X125694654Y-57035713D02*
X125751796Y-57149999D01*
X125751796Y-57149999D02*
X125751796Y-57378570D01*
X125751796Y-57378570D02*
X125694654Y-57492856D01*
X125694654Y-57492856D02*
X125580368Y-57549999D01*
X125580368Y-57549999D02*
X125523225Y-57549999D01*
X125523225Y-57549999D02*
X125408939Y-57492856D01*
X125408939Y-57492856D02*
X125351796Y-57378570D01*
X125351796Y-57378570D02*
X125351796Y-57207142D01*
X125351796Y-57207142D02*
X125294654Y-57092856D01*
X125294654Y-57092856D02*
X125180368Y-57035713D01*
X125180368Y-57035713D02*
X125123225Y-57035713D01*
X125123225Y-57035713D02*
X125008939Y-57092856D01*
X125008939Y-57092856D02*
X124951796Y-57207142D01*
X124951796Y-57207142D02*
X124951796Y-57378570D01*
X124951796Y-57378570D02*
X125008939Y-57492856D01*
X127683729Y-47521430D02*
X127055158Y-47521430D01*
X127055158Y-47521430D02*
X126940872Y-47464287D01*
X126940872Y-47464287D02*
X126883729Y-47350001D01*
X126883729Y-47350001D02*
X126883729Y-47121430D01*
X126883729Y-47121430D02*
X126940872Y-47007144D01*
X127626587Y-47521430D02*
X127683729Y-47407144D01*
X127683729Y-47407144D02*
X127683729Y-47121430D01*
X127683729Y-47121430D02*
X127626587Y-47007144D01*
X127626587Y-47007144D02*
X127512301Y-46950001D01*
X127512301Y-46950001D02*
X127398015Y-46950001D01*
X127398015Y-46950001D02*
X127283729Y-47007144D01*
X127283729Y-47007144D02*
X127226587Y-47121430D01*
X127226587Y-47121430D02*
X127226587Y-47407144D01*
X127226587Y-47407144D02*
X127169444Y-47521430D01*
X126883729Y-48092858D02*
X127683729Y-48092858D01*
X126998015Y-48092858D02*
X126940872Y-48150001D01*
X126940872Y-48150001D02*
X126883729Y-48264286D01*
X126883729Y-48264286D02*
X126883729Y-48435715D01*
X126883729Y-48435715D02*
X126940872Y-48550001D01*
X126940872Y-48550001D02*
X127055158Y-48607144D01*
X127055158Y-48607144D02*
X127683729Y-48607144D01*
X127683729Y-49692858D02*
X126483729Y-49692858D01*
X127626587Y-49692858D02*
X127683729Y-49578572D01*
X127683729Y-49578572D02*
X127683729Y-49350000D01*
X127683729Y-49350000D02*
X127626587Y-49235715D01*
X127626587Y-49235715D02*
X127569444Y-49178572D01*
X127569444Y-49178572D02*
X127455158Y-49121429D01*
X127455158Y-49121429D02*
X127112301Y-49121429D01*
X127112301Y-49121429D02*
X126998015Y-49178572D01*
X126998015Y-49178572D02*
X126940872Y-49235715D01*
X126940872Y-49235715D02*
X126883729Y-49350000D01*
X126883729Y-49350000D02*
X126883729Y-49578572D01*
X126883729Y-49578572D02*
X126940872Y-49692858D01*
X127569444Y-51864286D02*
X127626587Y-51807143D01*
X127626587Y-51807143D02*
X127683729Y-51635715D01*
X127683729Y-51635715D02*
X127683729Y-51521429D01*
X127683729Y-51521429D02*
X127626587Y-51350000D01*
X127626587Y-51350000D02*
X127512301Y-51235715D01*
X127512301Y-51235715D02*
X127398015Y-51178572D01*
X127398015Y-51178572D02*
X127169444Y-51121429D01*
X127169444Y-51121429D02*
X126998015Y-51121429D01*
X126998015Y-51121429D02*
X126769444Y-51178572D01*
X126769444Y-51178572D02*
X126655158Y-51235715D01*
X126655158Y-51235715D02*
X126540872Y-51350000D01*
X126540872Y-51350000D02*
X126483729Y-51521429D01*
X126483729Y-51521429D02*
X126483729Y-51635715D01*
X126483729Y-51635715D02*
X126540872Y-51807143D01*
X126540872Y-51807143D02*
X126598015Y-51864286D01*
X127683729Y-52550000D02*
X127626587Y-52435715D01*
X127626587Y-52435715D02*
X127569444Y-52378572D01*
X127569444Y-52378572D02*
X127455158Y-52321429D01*
X127455158Y-52321429D02*
X127112301Y-52321429D01*
X127112301Y-52321429D02*
X126998015Y-52378572D01*
X126998015Y-52378572D02*
X126940872Y-52435715D01*
X126940872Y-52435715D02*
X126883729Y-52550000D01*
X126883729Y-52550000D02*
X126883729Y-52721429D01*
X126883729Y-52721429D02*
X126940872Y-52835715D01*
X126940872Y-52835715D02*
X126998015Y-52892858D01*
X126998015Y-52892858D02*
X127112301Y-52950000D01*
X127112301Y-52950000D02*
X127455158Y-52950000D01*
X127455158Y-52950000D02*
X127569444Y-52892858D01*
X127569444Y-52892858D02*
X127626587Y-52835715D01*
X127626587Y-52835715D02*
X127683729Y-52721429D01*
X127683729Y-52721429D02*
X127683729Y-52550000D01*
X126883729Y-53464286D02*
X127683729Y-53464286D01*
X126998015Y-53464286D02*
X126940872Y-53521429D01*
X126940872Y-53521429D02*
X126883729Y-53635714D01*
X126883729Y-53635714D02*
X126883729Y-53807143D01*
X126883729Y-53807143D02*
X126940872Y-53921429D01*
X126940872Y-53921429D02*
X127055158Y-53978572D01*
X127055158Y-53978572D02*
X127683729Y-53978572D01*
X126883729Y-54378571D02*
X126883729Y-54835714D01*
X126483729Y-54550000D02*
X127512301Y-54550000D01*
X127512301Y-54550000D02*
X127626587Y-54607143D01*
X127626587Y-54607143D02*
X127683729Y-54721428D01*
X127683729Y-54721428D02*
X127683729Y-54835714D01*
X127683729Y-55235714D02*
X126883729Y-55235714D01*
X127112301Y-55235714D02*
X126998015Y-55292857D01*
X126998015Y-55292857D02*
X126940872Y-55350000D01*
X126940872Y-55350000D02*
X126883729Y-55464285D01*
X126883729Y-55464285D02*
X126883729Y-55578571D01*
X127683729Y-56149999D02*
X127626587Y-56035714D01*
X127626587Y-56035714D02*
X127569444Y-55978571D01*
X127569444Y-55978571D02*
X127455158Y-55921428D01*
X127455158Y-55921428D02*
X127112301Y-55921428D01*
X127112301Y-55921428D02*
X126998015Y-55978571D01*
X126998015Y-55978571D02*
X126940872Y-56035714D01*
X126940872Y-56035714D02*
X126883729Y-56149999D01*
X126883729Y-56149999D02*
X126883729Y-56321428D01*
X126883729Y-56321428D02*
X126940872Y-56435714D01*
X126940872Y-56435714D02*
X126998015Y-56492857D01*
X126998015Y-56492857D02*
X127112301Y-56549999D01*
X127112301Y-56549999D02*
X127455158Y-56549999D01*
X127455158Y-56549999D02*
X127569444Y-56492857D01*
X127569444Y-56492857D02*
X127626587Y-56435714D01*
X127626587Y-56435714D02*
X127683729Y-56321428D01*
X127683729Y-56321428D02*
X127683729Y-56149999D01*
X127683729Y-57235713D02*
X127626587Y-57121428D01*
X127626587Y-57121428D02*
X127512301Y-57064285D01*
X127512301Y-57064285D02*
X126483729Y-57064285D01*
X127626587Y-57635713D02*
X127683729Y-57749999D01*
X127683729Y-57749999D02*
X127683729Y-57978570D01*
X127683729Y-57978570D02*
X127626587Y-58092856D01*
X127626587Y-58092856D02*
X127512301Y-58149999D01*
X127512301Y-58149999D02*
X127455158Y-58149999D01*
X127455158Y-58149999D02*
X127340872Y-58092856D01*
X127340872Y-58092856D02*
X127283729Y-57978570D01*
X127283729Y-57978570D02*
X127283729Y-57807142D01*
X127283729Y-57807142D02*
X127226587Y-57692856D01*
X127226587Y-57692856D02*
X127112301Y-57635713D01*
X127112301Y-57635713D02*
X127055158Y-57635713D01*
X127055158Y-57635713D02*
X126940872Y-57692856D01*
X126940872Y-57692856D02*
X126883729Y-57807142D01*
X126883729Y-57807142D02*
X126883729Y-57978570D01*
X126883729Y-57978570D02*
X126940872Y-58092856D01*
X128415662Y-49578572D02*
X129272805Y-49578572D01*
X129272805Y-49578572D02*
X129444234Y-49521429D01*
X129444234Y-49521429D02*
X129558520Y-49407143D01*
X129558520Y-49407143D02*
X129615662Y-49235715D01*
X129615662Y-49235715D02*
X129615662Y-49121429D01*
X128815662Y-50664287D02*
X129615662Y-50664287D01*
X128815662Y-50150001D02*
X129444234Y-50150001D01*
X129444234Y-50150001D02*
X129558520Y-50207144D01*
X129558520Y-50207144D02*
X129615662Y-50321429D01*
X129615662Y-50321429D02*
X129615662Y-50492858D01*
X129615662Y-50492858D02*
X129558520Y-50607144D01*
X129558520Y-50607144D02*
X129501377Y-50664287D01*
X129615662Y-51407143D02*
X129558520Y-51292858D01*
X129558520Y-51292858D02*
X129444234Y-51235715D01*
X129444234Y-51235715D02*
X128415662Y-51235715D01*
X128529948Y-51807143D02*
X128472805Y-51864286D01*
X128472805Y-51864286D02*
X128415662Y-51978572D01*
X128415662Y-51978572D02*
X128415662Y-52264286D01*
X128415662Y-52264286D02*
X128472805Y-52378572D01*
X128472805Y-52378572D02*
X128529948Y-52435714D01*
X128529948Y-52435714D02*
X128644234Y-52492857D01*
X128644234Y-52492857D02*
X128758520Y-52492857D01*
X128758520Y-52492857D02*
X128929948Y-52435714D01*
X128929948Y-52435714D02*
X129615662Y-51750000D01*
X129615662Y-51750000D02*
X129615662Y-52492857D01*
X128415662Y-53235714D02*
X128415662Y-53350000D01*
X128415662Y-53350000D02*
X128472805Y-53464286D01*
X128472805Y-53464286D02*
X128529948Y-53521429D01*
X128529948Y-53521429D02*
X128644234Y-53578571D01*
X128644234Y-53578571D02*
X128872805Y-53635714D01*
X128872805Y-53635714D02*
X129158520Y-53635714D01*
X129158520Y-53635714D02*
X129387091Y-53578571D01*
X129387091Y-53578571D02*
X129501377Y-53521429D01*
X129501377Y-53521429D02*
X129558520Y-53464286D01*
X129558520Y-53464286D02*
X129615662Y-53350000D01*
X129615662Y-53350000D02*
X129615662Y-53235714D01*
X129615662Y-53235714D02*
X129558520Y-53121429D01*
X129558520Y-53121429D02*
X129501377Y-53064286D01*
X129501377Y-53064286D02*
X129387091Y-53007143D01*
X129387091Y-53007143D02*
X129158520Y-52950000D01*
X129158520Y-52950000D02*
X128872805Y-52950000D01*
X128872805Y-52950000D02*
X128644234Y-53007143D01*
X128644234Y-53007143D02*
X128529948Y-53064286D01*
X128529948Y-53064286D02*
X128472805Y-53121429D01*
X128472805Y-53121429D02*
X128415662Y-53235714D01*
X128529948Y-54092857D02*
X128472805Y-54150000D01*
X128472805Y-54150000D02*
X128415662Y-54264286D01*
X128415662Y-54264286D02*
X128415662Y-54550000D01*
X128415662Y-54550000D02*
X128472805Y-54664286D01*
X128472805Y-54664286D02*
X128529948Y-54721428D01*
X128529948Y-54721428D02*
X128644234Y-54778571D01*
X128644234Y-54778571D02*
X128758520Y-54778571D01*
X128758520Y-54778571D02*
X128929948Y-54721428D01*
X128929948Y-54721428D02*
X129615662Y-54035714D01*
X129615662Y-54035714D02*
X129615662Y-54778571D01*
X128415662Y-55807143D02*
X128415662Y-55578571D01*
X128415662Y-55578571D02*
X128472805Y-55464285D01*
X128472805Y-55464285D02*
X128529948Y-55407143D01*
X128529948Y-55407143D02*
X128701377Y-55292857D01*
X128701377Y-55292857D02*
X128929948Y-55235714D01*
X128929948Y-55235714D02*
X129387091Y-55235714D01*
X129387091Y-55235714D02*
X129501377Y-55292857D01*
X129501377Y-55292857D02*
X129558520Y-55350000D01*
X129558520Y-55350000D02*
X129615662Y-55464285D01*
X129615662Y-55464285D02*
X129615662Y-55692857D01*
X129615662Y-55692857D02*
X129558520Y-55807143D01*
X129558520Y-55807143D02*
X129501377Y-55864285D01*
X129501377Y-55864285D02*
X129387091Y-55921428D01*
X129387091Y-55921428D02*
X129101377Y-55921428D01*
X129101377Y-55921428D02*
X128987091Y-55864285D01*
X128987091Y-55864285D02*
X128929948Y-55807143D01*
X128929948Y-55807143D02*
X128872805Y-55692857D01*
X128872805Y-55692857D02*
X128872805Y-55464285D01*
X128872805Y-55464285D02*
X128929948Y-55350000D01*
X128929948Y-55350000D02*
X128987091Y-55292857D01*
X128987091Y-55292857D02*
X129101377Y-55235714D01*
D10*
X117667219Y-91168482D02*
X117667219Y-90597054D01*
X117667219Y-90882768D02*
X116667219Y-90882768D01*
X116667219Y-90882768D02*
X116810076Y-90787530D01*
X116810076Y-90787530D02*
X116905314Y-90692292D01*
X116905314Y-90692292D02*
X116952933Y-90597054D01*
X108264838Y-110643482D02*
X108217219Y-110548244D01*
X108217219Y-110548244D02*
X108217219Y-110405387D01*
X108217219Y-110405387D02*
X108264838Y-110262530D01*
X108264838Y-110262530D02*
X108360076Y-110167292D01*
X108360076Y-110167292D02*
X108455314Y-110119673D01*
X108455314Y-110119673D02*
X108645790Y-110072054D01*
X108645790Y-110072054D02*
X108788647Y-110072054D01*
X108788647Y-110072054D02*
X108979123Y-110119673D01*
X108979123Y-110119673D02*
X109074361Y-110167292D01*
X109074361Y-110167292D02*
X109169600Y-110262530D01*
X109169600Y-110262530D02*
X109217219Y-110405387D01*
X109217219Y-110405387D02*
X109217219Y-110500625D01*
X109217219Y-110500625D02*
X109169600Y-110643482D01*
X109169600Y-110643482D02*
X109121980Y-110691101D01*
X109121980Y-110691101D02*
X108788647Y-110691101D01*
X108788647Y-110691101D02*
X108788647Y-110500625D01*
X108667219Y-76543482D02*
X108667219Y-75972054D01*
X108667219Y-76257768D02*
X107667219Y-76257768D01*
X107667219Y-76257768D02*
X107810076Y-76162530D01*
X107810076Y-76162530D02*
X107905314Y-76067292D01*
X107905314Y-76067292D02*
X107952933Y-75972054D01*
X108586266Y-116169673D02*
X108586266Y-116931578D01*
X108967219Y-116550625D02*
X108205314Y-116550625D01*
X107967219Y-117883958D02*
X107967219Y-117407768D01*
X107967219Y-117407768D02*
X108443409Y-117360149D01*
X108443409Y-117360149D02*
X108395790Y-117407768D01*
X108395790Y-117407768D02*
X108348171Y-117503006D01*
X108348171Y-117503006D02*
X108348171Y-117741101D01*
X108348171Y-117741101D02*
X108395790Y-117836339D01*
X108395790Y-117836339D02*
X108443409Y-117883958D01*
X108443409Y-117883958D02*
X108538647Y-117931577D01*
X108538647Y-117931577D02*
X108776742Y-117931577D01*
X108776742Y-117931577D02*
X108871980Y-117883958D01*
X108871980Y-117883958D02*
X108919600Y-117836339D01*
X108919600Y-117836339D02*
X108967219Y-117741101D01*
X108967219Y-117741101D02*
X108967219Y-117503006D01*
X108967219Y-117503006D02*
X108919600Y-117407768D01*
X108919600Y-117407768D02*
X108871980Y-117360149D01*
X107967219Y-118217292D02*
X108967219Y-118550625D01*
X108967219Y-118550625D02*
X107967219Y-118883958D01*
D13*
X133729819Y-101057142D02*
X133253628Y-100723809D01*
X133729819Y-100485714D02*
X132729819Y-100485714D01*
X132729819Y-100485714D02*
X132729819Y-100866666D01*
X132729819Y-100866666D02*
X132777438Y-100961904D01*
X132777438Y-100961904D02*
X132825057Y-101009523D01*
X132825057Y-101009523D02*
X132920295Y-101057142D01*
X132920295Y-101057142D02*
X133063152Y-101057142D01*
X133063152Y-101057142D02*
X133158390Y-101009523D01*
X133158390Y-101009523D02*
X133206009Y-100961904D01*
X133206009Y-100961904D02*
X133253628Y-100866666D01*
X133253628Y-100866666D02*
X133253628Y-100485714D01*
X133729819Y-102009523D02*
X133729819Y-101438095D01*
X133729819Y-101723809D02*
X132729819Y-101723809D01*
X132729819Y-101723809D02*
X132872676Y-101628571D01*
X132872676Y-101628571D02*
X132967914Y-101533333D01*
X132967914Y-101533333D02*
X133015533Y-101438095D01*
X132729819Y-102914285D02*
X132729819Y-102438095D01*
X132729819Y-102438095D02*
X133206009Y-102390476D01*
X133206009Y-102390476D02*
X133158390Y-102438095D01*
X133158390Y-102438095D02*
X133110771Y-102533333D01*
X133110771Y-102533333D02*
X133110771Y-102771428D01*
X133110771Y-102771428D02*
X133158390Y-102866666D01*
X133158390Y-102866666D02*
X133206009Y-102914285D01*
X133206009Y-102914285D02*
X133301247Y-102961904D01*
X133301247Y-102961904D02*
X133539342Y-102961904D01*
X133539342Y-102961904D02*
X133634580Y-102914285D01*
X133634580Y-102914285D02*
X133682200Y-102866666D01*
X133682200Y-102866666D02*
X133729819Y-102771428D01*
X133729819Y-102771428D02*
X133729819Y-102533333D01*
X133729819Y-102533333D02*
X133682200Y-102438095D01*
X133682200Y-102438095D02*
X133634580Y-102390476D01*
X133163152Y-106589285D02*
X133829819Y-106589285D01*
X132782200Y-106351190D02*
X133496485Y-106113095D01*
X133496485Y-106113095D02*
X133496485Y-106732142D01*
X133829819Y-107113095D02*
X132829819Y-107113095D01*
X133829819Y-107684523D02*
X133258390Y-107255952D01*
X132829819Y-107684523D02*
X133401247Y-107113095D01*
X132829819Y-108017857D02*
X132829819Y-108684523D01*
X132829819Y-108684523D02*
X133829819Y-108255952D01*
X119804819Y-126533333D02*
X119328628Y-126200000D01*
X119804819Y-125961905D02*
X118804819Y-125961905D01*
X118804819Y-125961905D02*
X118804819Y-126342857D01*
X118804819Y-126342857D02*
X118852438Y-126438095D01*
X118852438Y-126438095D02*
X118900057Y-126485714D01*
X118900057Y-126485714D02*
X118995295Y-126533333D01*
X118995295Y-126533333D02*
X119138152Y-126533333D01*
X119138152Y-126533333D02*
X119233390Y-126485714D01*
X119233390Y-126485714D02*
X119281009Y-126438095D01*
X119281009Y-126438095D02*
X119328628Y-126342857D01*
X119328628Y-126342857D02*
X119328628Y-125961905D01*
X118804819Y-126866667D02*
X118804819Y-127533333D01*
X118804819Y-127533333D02*
X119804819Y-127104762D01*
X121329819Y-125809523D02*
X121329819Y-125238095D01*
X121329819Y-125523809D02*
X120329819Y-125523809D01*
X120329819Y-125523809D02*
X120472676Y-125428571D01*
X120472676Y-125428571D02*
X120567914Y-125333333D01*
X120567914Y-125333333D02*
X120615533Y-125238095D01*
X120329819Y-126428571D02*
X120329819Y-126523809D01*
X120329819Y-126523809D02*
X120377438Y-126619047D01*
X120377438Y-126619047D02*
X120425057Y-126666666D01*
X120425057Y-126666666D02*
X120520295Y-126714285D01*
X120520295Y-126714285D02*
X120710771Y-126761904D01*
X120710771Y-126761904D02*
X120948866Y-126761904D01*
X120948866Y-126761904D02*
X121139342Y-126714285D01*
X121139342Y-126714285D02*
X121234580Y-126666666D01*
X121234580Y-126666666D02*
X121282200Y-126619047D01*
X121282200Y-126619047D02*
X121329819Y-126523809D01*
X121329819Y-126523809D02*
X121329819Y-126428571D01*
X121329819Y-126428571D02*
X121282200Y-126333333D01*
X121282200Y-126333333D02*
X121234580Y-126285714D01*
X121234580Y-126285714D02*
X121139342Y-126238095D01*
X121139342Y-126238095D02*
X120948866Y-126190476D01*
X120948866Y-126190476D02*
X120710771Y-126190476D01*
X120710771Y-126190476D02*
X120520295Y-126238095D01*
X120520295Y-126238095D02*
X120425057Y-126285714D01*
X120425057Y-126285714D02*
X120377438Y-126333333D01*
X120377438Y-126333333D02*
X120329819Y-126428571D01*
X121329819Y-127190476D02*
X120329819Y-127190476D01*
X121329819Y-127761904D02*
X120758390Y-127333333D01*
X120329819Y-127761904D02*
X120901247Y-127190476D01*
X133079819Y-126658333D02*
X132603628Y-126325000D01*
X133079819Y-126086905D02*
X132079819Y-126086905D01*
X132079819Y-126086905D02*
X132079819Y-126467857D01*
X132079819Y-126467857D02*
X132127438Y-126563095D01*
X132127438Y-126563095D02*
X132175057Y-126610714D01*
X132175057Y-126610714D02*
X132270295Y-126658333D01*
X132270295Y-126658333D02*
X132413152Y-126658333D01*
X132413152Y-126658333D02*
X132508390Y-126610714D01*
X132508390Y-126610714D02*
X132556009Y-126563095D01*
X132556009Y-126563095D02*
X132603628Y-126467857D01*
X132603628Y-126467857D02*
X132603628Y-126086905D01*
X132413152Y-127515476D02*
X133079819Y-127515476D01*
X132032200Y-127277381D02*
X132746485Y-127039286D01*
X132746485Y-127039286D02*
X132746485Y-127658333D01*
X134679819Y-125859523D02*
X134679819Y-125288095D01*
X134679819Y-125573809D02*
X133679819Y-125573809D01*
X133679819Y-125573809D02*
X133822676Y-125478571D01*
X133822676Y-125478571D02*
X133917914Y-125383333D01*
X133917914Y-125383333D02*
X133965533Y-125288095D01*
X133679819Y-126478571D02*
X133679819Y-126573809D01*
X133679819Y-126573809D02*
X133727438Y-126669047D01*
X133727438Y-126669047D02*
X133775057Y-126716666D01*
X133775057Y-126716666D02*
X133870295Y-126764285D01*
X133870295Y-126764285D02*
X134060771Y-126811904D01*
X134060771Y-126811904D02*
X134298866Y-126811904D01*
X134298866Y-126811904D02*
X134489342Y-126764285D01*
X134489342Y-126764285D02*
X134584580Y-126716666D01*
X134584580Y-126716666D02*
X134632200Y-126669047D01*
X134632200Y-126669047D02*
X134679819Y-126573809D01*
X134679819Y-126573809D02*
X134679819Y-126478571D01*
X134679819Y-126478571D02*
X134632200Y-126383333D01*
X134632200Y-126383333D02*
X134584580Y-126335714D01*
X134584580Y-126335714D02*
X134489342Y-126288095D01*
X134489342Y-126288095D02*
X134298866Y-126240476D01*
X134298866Y-126240476D02*
X134060771Y-126240476D01*
X134060771Y-126240476D02*
X133870295Y-126288095D01*
X133870295Y-126288095D02*
X133775057Y-126335714D01*
X133775057Y-126335714D02*
X133727438Y-126383333D01*
X133727438Y-126383333D02*
X133679819Y-126478571D01*
X134679819Y-127240476D02*
X133679819Y-127240476D01*
X134679819Y-127811904D02*
X134108390Y-127383333D01*
X133679819Y-127811904D02*
X134251247Y-127240476D01*
X114478628Y-97623809D02*
X114954819Y-97623809D01*
X113954819Y-97290476D02*
X114478628Y-97623809D01*
X114478628Y-97623809D02*
X113954819Y-97957142D01*
X114954819Y-98814285D02*
X114954819Y-98242857D01*
X114954819Y-98528571D02*
X113954819Y-98528571D01*
X113954819Y-98528571D02*
X114097676Y-98433333D01*
X114097676Y-98433333D02*
X114192914Y-98338095D01*
X114192914Y-98338095D02*
X114240533Y-98242857D01*
X131429819Y-101019642D02*
X130953628Y-100686309D01*
X131429819Y-100448214D02*
X130429819Y-100448214D01*
X130429819Y-100448214D02*
X130429819Y-100829166D01*
X130429819Y-100829166D02*
X130477438Y-100924404D01*
X130477438Y-100924404D02*
X130525057Y-100972023D01*
X130525057Y-100972023D02*
X130620295Y-101019642D01*
X130620295Y-101019642D02*
X130763152Y-101019642D01*
X130763152Y-101019642D02*
X130858390Y-100972023D01*
X130858390Y-100972023D02*
X130906009Y-100924404D01*
X130906009Y-100924404D02*
X130953628Y-100829166D01*
X130953628Y-100829166D02*
X130953628Y-100448214D01*
X131429819Y-101972023D02*
X131429819Y-101400595D01*
X131429819Y-101686309D02*
X130429819Y-101686309D01*
X130429819Y-101686309D02*
X130572676Y-101591071D01*
X130572676Y-101591071D02*
X130667914Y-101495833D01*
X130667914Y-101495833D02*
X130715533Y-101400595D01*
X130429819Y-102829166D02*
X130429819Y-102638690D01*
X130429819Y-102638690D02*
X130477438Y-102543452D01*
X130477438Y-102543452D02*
X130525057Y-102495833D01*
X130525057Y-102495833D02*
X130667914Y-102400595D01*
X130667914Y-102400595D02*
X130858390Y-102352976D01*
X130858390Y-102352976D02*
X131239342Y-102352976D01*
X131239342Y-102352976D02*
X131334580Y-102400595D01*
X131334580Y-102400595D02*
X131382200Y-102448214D01*
X131382200Y-102448214D02*
X131429819Y-102543452D01*
X131429819Y-102543452D02*
X131429819Y-102733928D01*
X131429819Y-102733928D02*
X131382200Y-102829166D01*
X131382200Y-102829166D02*
X131334580Y-102876785D01*
X131334580Y-102876785D02*
X131239342Y-102924404D01*
X131239342Y-102924404D02*
X131001247Y-102924404D01*
X131001247Y-102924404D02*
X130906009Y-102876785D01*
X130906009Y-102876785D02*
X130858390Y-102829166D01*
X130858390Y-102829166D02*
X130810771Y-102733928D01*
X130810771Y-102733928D02*
X130810771Y-102543452D01*
X130810771Y-102543452D02*
X130858390Y-102448214D01*
X130858390Y-102448214D02*
X130906009Y-102400595D01*
X130906009Y-102400595D02*
X131001247Y-102352976D01*
X130838152Y-106589285D02*
X131504819Y-106589285D01*
X130457200Y-106351190D02*
X131171485Y-106113095D01*
X131171485Y-106113095D02*
X131171485Y-106732142D01*
X131504819Y-107113095D02*
X130504819Y-107113095D01*
X131504819Y-107684523D02*
X130933390Y-107255952D01*
X130504819Y-107684523D02*
X131076247Y-107113095D01*
X130504819Y-108017857D02*
X130504819Y-108684523D01*
X130504819Y-108684523D02*
X131504819Y-108255952D01*
X132929819Y-134033333D02*
X132453628Y-133700000D01*
X132929819Y-133461905D02*
X131929819Y-133461905D01*
X131929819Y-133461905D02*
X131929819Y-133842857D01*
X131929819Y-133842857D02*
X131977438Y-133938095D01*
X131977438Y-133938095D02*
X132025057Y-133985714D01*
X132025057Y-133985714D02*
X132120295Y-134033333D01*
X132120295Y-134033333D02*
X132263152Y-134033333D01*
X132263152Y-134033333D02*
X132358390Y-133985714D01*
X132358390Y-133985714D02*
X132406009Y-133938095D01*
X132406009Y-133938095D02*
X132453628Y-133842857D01*
X132453628Y-133842857D02*
X132453628Y-133461905D01*
X132929819Y-134985714D02*
X132929819Y-134414286D01*
X132929819Y-134700000D02*
X131929819Y-134700000D01*
X131929819Y-134700000D02*
X132072676Y-134604762D01*
X132072676Y-134604762D02*
X132167914Y-134509524D01*
X132167914Y-134509524D02*
X132215533Y-134414286D01*
X133782700Y-130091666D02*
X133749366Y-130124999D01*
X133749366Y-130124999D02*
X133716033Y-130191666D01*
X133716033Y-130191666D02*
X133716033Y-130358333D01*
X133716033Y-130358333D02*
X133749366Y-130424999D01*
X133749366Y-130424999D02*
X133782700Y-130458333D01*
X133782700Y-130458333D02*
X133849366Y-130491666D01*
X133849366Y-130491666D02*
X133916033Y-130491666D01*
X133916033Y-130491666D02*
X134016033Y-130458333D01*
X134016033Y-130458333D02*
X134416033Y-130058333D01*
X134416033Y-130058333D02*
X134416033Y-130491666D01*
X134416033Y-130791666D02*
X133716033Y-130791666D01*
X134416033Y-131191666D02*
X134016033Y-130891666D01*
X133716033Y-131191666D02*
X134116033Y-130791666D01*
X133782700Y-131458333D02*
X133749366Y-131491666D01*
X133749366Y-131491666D02*
X133716033Y-131558333D01*
X133716033Y-131558333D02*
X133716033Y-131725000D01*
X133716033Y-131725000D02*
X133749366Y-131791666D01*
X133749366Y-131791666D02*
X133782700Y-131825000D01*
X133782700Y-131825000D02*
X133849366Y-131858333D01*
X133849366Y-131858333D02*
X133916033Y-131858333D01*
X133916033Y-131858333D02*
X134016033Y-131825000D01*
X134016033Y-131825000D02*
X134416033Y-131425000D01*
X134416033Y-131425000D02*
X134416033Y-131858333D01*
X115134580Y-84458333D02*
X115182200Y-84410714D01*
X115182200Y-84410714D02*
X115229819Y-84267857D01*
X115229819Y-84267857D02*
X115229819Y-84172619D01*
X115229819Y-84172619D02*
X115182200Y-84029762D01*
X115182200Y-84029762D02*
X115086961Y-83934524D01*
X115086961Y-83934524D02*
X114991723Y-83886905D01*
X114991723Y-83886905D02*
X114801247Y-83839286D01*
X114801247Y-83839286D02*
X114658390Y-83839286D01*
X114658390Y-83839286D02*
X114467914Y-83886905D01*
X114467914Y-83886905D02*
X114372676Y-83934524D01*
X114372676Y-83934524D02*
X114277438Y-84029762D01*
X114277438Y-84029762D02*
X114229819Y-84172619D01*
X114229819Y-84172619D02*
X114229819Y-84267857D01*
X114229819Y-84267857D02*
X114277438Y-84410714D01*
X114277438Y-84410714D02*
X114325057Y-84458333D01*
X114229819Y-84791667D02*
X114229819Y-85410714D01*
X114229819Y-85410714D02*
X114610771Y-85077381D01*
X114610771Y-85077381D02*
X114610771Y-85220238D01*
X114610771Y-85220238D02*
X114658390Y-85315476D01*
X114658390Y-85315476D02*
X114706009Y-85363095D01*
X114706009Y-85363095D02*
X114801247Y-85410714D01*
X114801247Y-85410714D02*
X115039342Y-85410714D01*
X115039342Y-85410714D02*
X115134580Y-85363095D01*
X115134580Y-85363095D02*
X115182200Y-85315476D01*
X115182200Y-85315476D02*
X115229819Y-85220238D01*
X115229819Y-85220238D02*
X115229819Y-84934524D01*
X115229819Y-84934524D02*
X115182200Y-84839286D01*
X115182200Y-84839286D02*
X115134580Y-84791667D01*
X114194047Y-82475057D02*
X114146428Y-82427438D01*
X114146428Y-82427438D02*
X114051190Y-82379819D01*
X114051190Y-82379819D02*
X113813095Y-82379819D01*
X113813095Y-82379819D02*
X113717857Y-82427438D01*
X113717857Y-82427438D02*
X113670238Y-82475057D01*
X113670238Y-82475057D02*
X113622619Y-82570295D01*
X113622619Y-82570295D02*
X113622619Y-82665533D01*
X113622619Y-82665533D02*
X113670238Y-82808390D01*
X113670238Y-82808390D02*
X114241666Y-83379819D01*
X114241666Y-83379819D02*
X113622619Y-83379819D01*
X113003571Y-82379819D02*
X112908333Y-82379819D01*
X112908333Y-82379819D02*
X112813095Y-82427438D01*
X112813095Y-82427438D02*
X112765476Y-82475057D01*
X112765476Y-82475057D02*
X112717857Y-82570295D01*
X112717857Y-82570295D02*
X112670238Y-82760771D01*
X112670238Y-82760771D02*
X112670238Y-82998866D01*
X112670238Y-82998866D02*
X112717857Y-83189342D01*
X112717857Y-83189342D02*
X112765476Y-83284580D01*
X112765476Y-83284580D02*
X112813095Y-83332200D01*
X112813095Y-83332200D02*
X112908333Y-83379819D01*
X112908333Y-83379819D02*
X113003571Y-83379819D01*
X113003571Y-83379819D02*
X113098809Y-83332200D01*
X113098809Y-83332200D02*
X113146428Y-83284580D01*
X113146428Y-83284580D02*
X113194047Y-83189342D01*
X113194047Y-83189342D02*
X113241666Y-82998866D01*
X113241666Y-82998866D02*
X113241666Y-82760771D01*
X113241666Y-82760771D02*
X113194047Y-82570295D01*
X113194047Y-82570295D02*
X113146428Y-82475057D01*
X113146428Y-82475057D02*
X113098809Y-82427438D01*
X113098809Y-82427438D02*
X113003571Y-82379819D01*
X112051190Y-82379819D02*
X111955952Y-82379819D01*
X111955952Y-82379819D02*
X111860714Y-82427438D01*
X111860714Y-82427438D02*
X111813095Y-82475057D01*
X111813095Y-82475057D02*
X111765476Y-82570295D01*
X111765476Y-82570295D02*
X111717857Y-82760771D01*
X111717857Y-82760771D02*
X111717857Y-82998866D01*
X111717857Y-82998866D02*
X111765476Y-83189342D01*
X111765476Y-83189342D02*
X111813095Y-83284580D01*
X111813095Y-83284580D02*
X111860714Y-83332200D01*
X111860714Y-83332200D02*
X111955952Y-83379819D01*
X111955952Y-83379819D02*
X112051190Y-83379819D01*
X112051190Y-83379819D02*
X112146428Y-83332200D01*
X112146428Y-83332200D02*
X112194047Y-83284580D01*
X112194047Y-83284580D02*
X112241666Y-83189342D01*
X112241666Y-83189342D02*
X112289285Y-82998866D01*
X112289285Y-82998866D02*
X112289285Y-82760771D01*
X112289285Y-82760771D02*
X112241666Y-82570295D01*
X112241666Y-82570295D02*
X112194047Y-82475057D01*
X112194047Y-82475057D02*
X112146428Y-82427438D01*
X112146428Y-82427438D02*
X112051190Y-82379819D01*
X111289285Y-82713152D02*
X111289285Y-83713152D01*
X111289285Y-82760771D02*
X111194047Y-82713152D01*
X111194047Y-82713152D02*
X111003571Y-82713152D01*
X111003571Y-82713152D02*
X110908333Y-82760771D01*
X110908333Y-82760771D02*
X110860714Y-82808390D01*
X110860714Y-82808390D02*
X110813095Y-82903628D01*
X110813095Y-82903628D02*
X110813095Y-83189342D01*
X110813095Y-83189342D02*
X110860714Y-83284580D01*
X110860714Y-83284580D02*
X110908333Y-83332200D01*
X110908333Y-83332200D02*
X111003571Y-83379819D01*
X111003571Y-83379819D02*
X111194047Y-83379819D01*
X111194047Y-83379819D02*
X111289285Y-83332200D01*
X110051190Y-82856009D02*
X110384523Y-82856009D01*
X110384523Y-83379819D02*
X110384523Y-82379819D01*
X110384523Y-82379819D02*
X109908333Y-82379819D01*
X121379819Y-134183333D02*
X120903628Y-133850000D01*
X121379819Y-133611905D02*
X120379819Y-133611905D01*
X120379819Y-133611905D02*
X120379819Y-133992857D01*
X120379819Y-133992857D02*
X120427438Y-134088095D01*
X120427438Y-134088095D02*
X120475057Y-134135714D01*
X120475057Y-134135714D02*
X120570295Y-134183333D01*
X120570295Y-134183333D02*
X120713152Y-134183333D01*
X120713152Y-134183333D02*
X120808390Y-134135714D01*
X120808390Y-134135714D02*
X120856009Y-134088095D01*
X120856009Y-134088095D02*
X120903628Y-133992857D01*
X120903628Y-133992857D02*
X120903628Y-133611905D01*
X121379819Y-134659524D02*
X121379819Y-134850000D01*
X121379819Y-134850000D02*
X121332200Y-134945238D01*
X121332200Y-134945238D02*
X121284580Y-134992857D01*
X121284580Y-134992857D02*
X121141723Y-135088095D01*
X121141723Y-135088095D02*
X120951247Y-135135714D01*
X120951247Y-135135714D02*
X120570295Y-135135714D01*
X120570295Y-135135714D02*
X120475057Y-135088095D01*
X120475057Y-135088095D02*
X120427438Y-135040476D01*
X120427438Y-135040476D02*
X120379819Y-134945238D01*
X120379819Y-134945238D02*
X120379819Y-134754762D01*
X120379819Y-134754762D02*
X120427438Y-134659524D01*
X120427438Y-134659524D02*
X120475057Y-134611905D01*
X120475057Y-134611905D02*
X120570295Y-134564286D01*
X120570295Y-134564286D02*
X120808390Y-134564286D01*
X120808390Y-134564286D02*
X120903628Y-134611905D01*
X120903628Y-134611905D02*
X120951247Y-134659524D01*
X120951247Y-134659524D02*
X120998866Y-134754762D01*
X120998866Y-134754762D02*
X120998866Y-134945238D01*
X120998866Y-134945238D02*
X120951247Y-135040476D01*
X120951247Y-135040476D02*
X120903628Y-135088095D01*
X120903628Y-135088095D02*
X120808390Y-135135714D01*
X121907700Y-129766666D02*
X121874366Y-129799999D01*
X121874366Y-129799999D02*
X121841033Y-129866666D01*
X121841033Y-129866666D02*
X121841033Y-130033333D01*
X121841033Y-130033333D02*
X121874366Y-130099999D01*
X121874366Y-130099999D02*
X121907700Y-130133333D01*
X121907700Y-130133333D02*
X121974366Y-130166666D01*
X121974366Y-130166666D02*
X122041033Y-130166666D01*
X122041033Y-130166666D02*
X122141033Y-130133333D01*
X122141033Y-130133333D02*
X122541033Y-129733333D01*
X122541033Y-129733333D02*
X122541033Y-130166666D01*
X122541033Y-130466666D02*
X121841033Y-130466666D01*
X122541033Y-130866666D02*
X122141033Y-130566666D01*
X121841033Y-130866666D02*
X122241033Y-130466666D01*
X121907700Y-131133333D02*
X121874366Y-131166666D01*
X121874366Y-131166666D02*
X121841033Y-131233333D01*
X121841033Y-131233333D02*
X121841033Y-131400000D01*
X121841033Y-131400000D02*
X121874366Y-131466666D01*
X121874366Y-131466666D02*
X121907700Y-131500000D01*
X121907700Y-131500000D02*
X121974366Y-131533333D01*
X121974366Y-131533333D02*
X122041033Y-131533333D01*
X122041033Y-131533333D02*
X122141033Y-131500000D01*
X122141033Y-131500000D02*
X122541033Y-131100000D01*
X122541033Y-131100000D02*
X122541033Y-131533333D01*
X121004819Y-68283333D02*
X120528628Y-67950000D01*
X121004819Y-67711905D02*
X120004819Y-67711905D01*
X120004819Y-67711905D02*
X120004819Y-68092857D01*
X120004819Y-68092857D02*
X120052438Y-68188095D01*
X120052438Y-68188095D02*
X120100057Y-68235714D01*
X120100057Y-68235714D02*
X120195295Y-68283333D01*
X120195295Y-68283333D02*
X120338152Y-68283333D01*
X120338152Y-68283333D02*
X120433390Y-68235714D01*
X120433390Y-68235714D02*
X120481009Y-68188095D01*
X120481009Y-68188095D02*
X120528628Y-68092857D01*
X120528628Y-68092857D02*
X120528628Y-67711905D01*
X120004819Y-69188095D02*
X120004819Y-68711905D01*
X120004819Y-68711905D02*
X120481009Y-68664286D01*
X120481009Y-68664286D02*
X120433390Y-68711905D01*
X120433390Y-68711905D02*
X120385771Y-68807143D01*
X120385771Y-68807143D02*
X120385771Y-69045238D01*
X120385771Y-69045238D02*
X120433390Y-69140476D01*
X120433390Y-69140476D02*
X120481009Y-69188095D01*
X120481009Y-69188095D02*
X120576247Y-69235714D01*
X120576247Y-69235714D02*
X120814342Y-69235714D01*
X120814342Y-69235714D02*
X120909580Y-69188095D01*
X120909580Y-69188095D02*
X120957200Y-69140476D01*
X120957200Y-69140476D02*
X121004819Y-69045238D01*
X121004819Y-69045238D02*
X121004819Y-68807143D01*
X121004819Y-68807143D02*
X120957200Y-68711905D01*
X120957200Y-68711905D02*
X120909580Y-68664286D01*
X121054819Y-62760714D02*
X121054819Y-62189286D01*
X121054819Y-62475000D02*
X120054819Y-62475000D01*
X120054819Y-62475000D02*
X120197676Y-62379762D01*
X120197676Y-62379762D02*
X120292914Y-62284524D01*
X120292914Y-62284524D02*
X120340533Y-62189286D01*
X121054819Y-63189286D02*
X120054819Y-63189286D01*
X121054819Y-63760714D02*
X120483390Y-63332143D01*
X120054819Y-63760714D02*
X120626247Y-63189286D01*
X128356009Y-63991666D02*
X128356009Y-63658333D01*
X128879819Y-63658333D02*
X127879819Y-63658333D01*
X127879819Y-63658333D02*
X127879819Y-64134523D01*
X127975057Y-64467857D02*
X127927438Y-64515476D01*
X127927438Y-64515476D02*
X127879819Y-64610714D01*
X127879819Y-64610714D02*
X127879819Y-64848809D01*
X127879819Y-64848809D02*
X127927438Y-64944047D01*
X127927438Y-64944047D02*
X127975057Y-64991666D01*
X127975057Y-64991666D02*
X128070295Y-65039285D01*
X128070295Y-65039285D02*
X128165533Y-65039285D01*
X128165533Y-65039285D02*
X128308390Y-64991666D01*
X128308390Y-64991666D02*
X128879819Y-64420238D01*
X128879819Y-64420238D02*
X128879819Y-65039285D01*
X113929819Y-107913095D02*
X114739342Y-107913095D01*
X114739342Y-107913095D02*
X114834580Y-107960714D01*
X114834580Y-107960714D02*
X114882200Y-108008333D01*
X114882200Y-108008333D02*
X114929819Y-108103571D01*
X114929819Y-108103571D02*
X114929819Y-108294047D01*
X114929819Y-108294047D02*
X114882200Y-108389285D01*
X114882200Y-108389285D02*
X114834580Y-108436904D01*
X114834580Y-108436904D02*
X114739342Y-108484523D01*
X114739342Y-108484523D02*
X113929819Y-108484523D01*
X114263152Y-109389285D02*
X114929819Y-109389285D01*
X113882200Y-109151190D02*
X114596485Y-108913095D01*
X114596485Y-108913095D02*
X114596485Y-109532142D01*
X116429819Y-106185714D02*
X115429819Y-106185714D01*
X115429819Y-106185714D02*
X115429819Y-106423809D01*
X115429819Y-106423809D02*
X115477438Y-106566666D01*
X115477438Y-106566666D02*
X115572676Y-106661904D01*
X115572676Y-106661904D02*
X115667914Y-106709523D01*
X115667914Y-106709523D02*
X115858390Y-106757142D01*
X115858390Y-106757142D02*
X116001247Y-106757142D01*
X116001247Y-106757142D02*
X116191723Y-106709523D01*
X116191723Y-106709523D02*
X116286961Y-106661904D01*
X116286961Y-106661904D02*
X116382200Y-106566666D01*
X116382200Y-106566666D02*
X116429819Y-106423809D01*
X116429819Y-106423809D02*
X116429819Y-106185714D01*
X116382200Y-107138095D02*
X116429819Y-107280952D01*
X116429819Y-107280952D02*
X116429819Y-107519047D01*
X116429819Y-107519047D02*
X116382200Y-107614285D01*
X116382200Y-107614285D02*
X116334580Y-107661904D01*
X116334580Y-107661904D02*
X116239342Y-107709523D01*
X116239342Y-107709523D02*
X116144104Y-107709523D01*
X116144104Y-107709523D02*
X116048866Y-107661904D01*
X116048866Y-107661904D02*
X116001247Y-107614285D01*
X116001247Y-107614285D02*
X115953628Y-107519047D01*
X115953628Y-107519047D02*
X115906009Y-107328571D01*
X115906009Y-107328571D02*
X115858390Y-107233333D01*
X115858390Y-107233333D02*
X115810771Y-107185714D01*
X115810771Y-107185714D02*
X115715533Y-107138095D01*
X115715533Y-107138095D02*
X115620295Y-107138095D01*
X115620295Y-107138095D02*
X115525057Y-107185714D01*
X115525057Y-107185714D02*
X115477438Y-107233333D01*
X115477438Y-107233333D02*
X115429819Y-107328571D01*
X115429819Y-107328571D02*
X115429819Y-107566666D01*
X115429819Y-107566666D02*
X115477438Y-107709523D01*
X115429819Y-108042857D02*
X115429819Y-108661904D01*
X115429819Y-108661904D02*
X115810771Y-108328571D01*
X115810771Y-108328571D02*
X115810771Y-108471428D01*
X115810771Y-108471428D02*
X115858390Y-108566666D01*
X115858390Y-108566666D02*
X115906009Y-108614285D01*
X115906009Y-108614285D02*
X116001247Y-108661904D01*
X116001247Y-108661904D02*
X116239342Y-108661904D01*
X116239342Y-108661904D02*
X116334580Y-108614285D01*
X116334580Y-108614285D02*
X116382200Y-108566666D01*
X116382200Y-108566666D02*
X116429819Y-108471428D01*
X116429819Y-108471428D02*
X116429819Y-108185714D01*
X116429819Y-108185714D02*
X116382200Y-108090476D01*
X116382200Y-108090476D02*
X116334580Y-108042857D01*
X115525057Y-109042857D02*
X115477438Y-109090476D01*
X115477438Y-109090476D02*
X115429819Y-109185714D01*
X115429819Y-109185714D02*
X115429819Y-109423809D01*
X115429819Y-109423809D02*
X115477438Y-109519047D01*
X115477438Y-109519047D02*
X115525057Y-109566666D01*
X115525057Y-109566666D02*
X115620295Y-109614285D01*
X115620295Y-109614285D02*
X115715533Y-109614285D01*
X115715533Y-109614285D02*
X115858390Y-109566666D01*
X115858390Y-109566666D02*
X116429819Y-108995238D01*
X116429819Y-108995238D02*
X116429819Y-109614285D01*
X115429819Y-109947619D02*
X115429819Y-110566666D01*
X115429819Y-110566666D02*
X115810771Y-110233333D01*
X115810771Y-110233333D02*
X115810771Y-110376190D01*
X115810771Y-110376190D02*
X115858390Y-110471428D01*
X115858390Y-110471428D02*
X115906009Y-110519047D01*
X115906009Y-110519047D02*
X116001247Y-110566666D01*
X116001247Y-110566666D02*
X116239342Y-110566666D01*
X116239342Y-110566666D02*
X116334580Y-110519047D01*
X116334580Y-110519047D02*
X116382200Y-110471428D01*
X116382200Y-110471428D02*
X116429819Y-110376190D01*
X116429819Y-110376190D02*
X116429819Y-110090476D01*
X116429819Y-110090476D02*
X116382200Y-109995238D01*
X116382200Y-109995238D02*
X116334580Y-109947619D01*
X116429819Y-111519047D02*
X116429819Y-110947619D01*
X116429819Y-111233333D02*
X115429819Y-111233333D01*
X115429819Y-111233333D02*
X115572676Y-111138095D01*
X115572676Y-111138095D02*
X115667914Y-111042857D01*
X115667914Y-111042857D02*
X115715533Y-110947619D01*
X116429819Y-111947619D02*
X115429819Y-111947619D01*
X115429819Y-111947619D02*
X116144104Y-112280952D01*
X116144104Y-112280952D02*
X115429819Y-112614285D01*
X115429819Y-112614285D02*
X116429819Y-112614285D01*
X134729819Y-133636905D02*
X133729819Y-133636905D01*
X133729819Y-133636905D02*
X133729819Y-133875000D01*
X133729819Y-133875000D02*
X133777438Y-134017857D01*
X133777438Y-134017857D02*
X133872676Y-134113095D01*
X133872676Y-134113095D02*
X133967914Y-134160714D01*
X133967914Y-134160714D02*
X134158390Y-134208333D01*
X134158390Y-134208333D02*
X134301247Y-134208333D01*
X134301247Y-134208333D02*
X134491723Y-134160714D01*
X134491723Y-134160714D02*
X134586961Y-134113095D01*
X134586961Y-134113095D02*
X134682200Y-134017857D01*
X134682200Y-134017857D02*
X134729819Y-133875000D01*
X134729819Y-133875000D02*
X134729819Y-133636905D01*
X133825057Y-134589286D02*
X133777438Y-134636905D01*
X133777438Y-134636905D02*
X133729819Y-134732143D01*
X133729819Y-134732143D02*
X133729819Y-134970238D01*
X133729819Y-134970238D02*
X133777438Y-135065476D01*
X133777438Y-135065476D02*
X133825057Y-135113095D01*
X133825057Y-135113095D02*
X133920295Y-135160714D01*
X133920295Y-135160714D02*
X134015533Y-135160714D01*
X134015533Y-135160714D02*
X134158390Y-135113095D01*
X134158390Y-135113095D02*
X134729819Y-134541667D01*
X134729819Y-134541667D02*
X134729819Y-135160714D01*
X128266666Y-136559580D02*
X128314285Y-136607200D01*
X128314285Y-136607200D02*
X128457142Y-136654819D01*
X128457142Y-136654819D02*
X128552380Y-136654819D01*
X128552380Y-136654819D02*
X128695237Y-136607200D01*
X128695237Y-136607200D02*
X128790475Y-136511961D01*
X128790475Y-136511961D02*
X128838094Y-136416723D01*
X128838094Y-136416723D02*
X128885713Y-136226247D01*
X128885713Y-136226247D02*
X128885713Y-136083390D01*
X128885713Y-136083390D02*
X128838094Y-135892914D01*
X128838094Y-135892914D02*
X128790475Y-135797676D01*
X128790475Y-135797676D02*
X128695237Y-135702438D01*
X128695237Y-135702438D02*
X128552380Y-135654819D01*
X128552380Y-135654819D02*
X128457142Y-135654819D01*
X128457142Y-135654819D02*
X128314285Y-135702438D01*
X128314285Y-135702438D02*
X128266666Y-135750057D01*
X127314285Y-136654819D02*
X127885713Y-136654819D01*
X127599999Y-136654819D02*
X127599999Y-135654819D01*
X127599999Y-135654819D02*
X127695237Y-135797676D01*
X127695237Y-135797676D02*
X127790475Y-135892914D01*
X127790475Y-135892914D02*
X127885713Y-135940533D01*
X128588095Y-137712295D02*
X129045238Y-137712295D01*
X128816666Y-137712295D02*
X128816666Y-136912295D01*
X128816666Y-136912295D02*
X128892857Y-137026580D01*
X128892857Y-137026580D02*
X128969047Y-137102771D01*
X128969047Y-137102771D02*
X129045238Y-137140866D01*
X128092856Y-136912295D02*
X128016666Y-136912295D01*
X128016666Y-136912295D02*
X127940475Y-136950390D01*
X127940475Y-136950390D02*
X127902380Y-136988485D01*
X127902380Y-136988485D02*
X127864285Y-137064676D01*
X127864285Y-137064676D02*
X127826190Y-137217057D01*
X127826190Y-137217057D02*
X127826190Y-137407533D01*
X127826190Y-137407533D02*
X127864285Y-137559914D01*
X127864285Y-137559914D02*
X127902380Y-137636104D01*
X127902380Y-137636104D02*
X127940475Y-137674200D01*
X127940475Y-137674200D02*
X128016666Y-137712295D01*
X128016666Y-137712295D02*
X128092856Y-137712295D01*
X128092856Y-137712295D02*
X128169047Y-137674200D01*
X128169047Y-137674200D02*
X128207142Y-137636104D01*
X128207142Y-137636104D02*
X128245237Y-137559914D01*
X128245237Y-137559914D02*
X128283333Y-137407533D01*
X128283333Y-137407533D02*
X128283333Y-137217057D01*
X128283333Y-137217057D02*
X128245237Y-137064676D01*
X128245237Y-137064676D02*
X128207142Y-136988485D01*
X128207142Y-136988485D02*
X128169047Y-136950390D01*
X128169047Y-136950390D02*
X128092856Y-136912295D01*
X127330951Y-136912295D02*
X127254761Y-136912295D01*
X127254761Y-136912295D02*
X127178570Y-136950390D01*
X127178570Y-136950390D02*
X127140475Y-136988485D01*
X127140475Y-136988485D02*
X127102380Y-137064676D01*
X127102380Y-137064676D02*
X127064285Y-137217057D01*
X127064285Y-137217057D02*
X127064285Y-137407533D01*
X127064285Y-137407533D02*
X127102380Y-137559914D01*
X127102380Y-137559914D02*
X127140475Y-137636104D01*
X127140475Y-137636104D02*
X127178570Y-137674200D01*
X127178570Y-137674200D02*
X127254761Y-137712295D01*
X127254761Y-137712295D02*
X127330951Y-137712295D01*
X127330951Y-137712295D02*
X127407142Y-137674200D01*
X127407142Y-137674200D02*
X127445237Y-137636104D01*
X127445237Y-137636104D02*
X127483332Y-137559914D01*
X127483332Y-137559914D02*
X127521428Y-137407533D01*
X127521428Y-137407533D02*
X127521428Y-137217057D01*
X127521428Y-137217057D02*
X127483332Y-137064676D01*
X127483332Y-137064676D02*
X127445237Y-136988485D01*
X127445237Y-136988485D02*
X127407142Y-136950390D01*
X127407142Y-136950390D02*
X127330951Y-136912295D01*
X126721427Y-137178961D02*
X126721427Y-137712295D01*
X126721427Y-137255152D02*
X126683332Y-137217057D01*
X126683332Y-137217057D02*
X126607142Y-137178961D01*
X126607142Y-137178961D02*
X126492856Y-137178961D01*
X126492856Y-137178961D02*
X126416665Y-137217057D01*
X126416665Y-137217057D02*
X126378570Y-137293247D01*
X126378570Y-137293247D02*
X126378570Y-137712295D01*
X125730951Y-137293247D02*
X125997617Y-137293247D01*
X125997617Y-137712295D02*
X125997617Y-136912295D01*
X125997617Y-136912295D02*
X125616665Y-136912295D01*
X118984580Y-134233333D02*
X119032200Y-134185714D01*
X119032200Y-134185714D02*
X119079819Y-134042857D01*
X119079819Y-134042857D02*
X119079819Y-133947619D01*
X119079819Y-133947619D02*
X119032200Y-133804762D01*
X119032200Y-133804762D02*
X118936961Y-133709524D01*
X118936961Y-133709524D02*
X118841723Y-133661905D01*
X118841723Y-133661905D02*
X118651247Y-133614286D01*
X118651247Y-133614286D02*
X118508390Y-133614286D01*
X118508390Y-133614286D02*
X118317914Y-133661905D01*
X118317914Y-133661905D02*
X118222676Y-133709524D01*
X118222676Y-133709524D02*
X118127438Y-133804762D01*
X118127438Y-133804762D02*
X118079819Y-133947619D01*
X118079819Y-133947619D02*
X118079819Y-134042857D01*
X118079819Y-134042857D02*
X118127438Y-134185714D01*
X118127438Y-134185714D02*
X118175057Y-134233333D01*
X118079819Y-135138095D02*
X118079819Y-134661905D01*
X118079819Y-134661905D02*
X118556009Y-134614286D01*
X118556009Y-134614286D02*
X118508390Y-134661905D01*
X118508390Y-134661905D02*
X118460771Y-134757143D01*
X118460771Y-134757143D02*
X118460771Y-134995238D01*
X118460771Y-134995238D02*
X118508390Y-135090476D01*
X118508390Y-135090476D02*
X118556009Y-135138095D01*
X118556009Y-135138095D02*
X118651247Y-135185714D01*
X118651247Y-135185714D02*
X118889342Y-135185714D01*
X118889342Y-135185714D02*
X118984580Y-135138095D01*
X118984580Y-135138095D02*
X119032200Y-135090476D01*
X119032200Y-135090476D02*
X119079819Y-134995238D01*
X119079819Y-134995238D02*
X119079819Y-134757143D01*
X119079819Y-134757143D02*
X119032200Y-134661905D01*
X119032200Y-134661905D02*
X118984580Y-134614286D01*
X118404819Y-127877380D02*
X118404819Y-127305952D01*
X118404819Y-127591666D02*
X117404819Y-127591666D01*
X117404819Y-127591666D02*
X117547676Y-127496428D01*
X117547676Y-127496428D02*
X117642914Y-127401190D01*
X117642914Y-127401190D02*
X117690533Y-127305952D01*
X117404819Y-128496428D02*
X117404819Y-128591666D01*
X117404819Y-128591666D02*
X117452438Y-128686904D01*
X117452438Y-128686904D02*
X117500057Y-128734523D01*
X117500057Y-128734523D02*
X117595295Y-128782142D01*
X117595295Y-128782142D02*
X117785771Y-128829761D01*
X117785771Y-128829761D02*
X118023866Y-128829761D01*
X118023866Y-128829761D02*
X118214342Y-128782142D01*
X118214342Y-128782142D02*
X118309580Y-128734523D01*
X118309580Y-128734523D02*
X118357200Y-128686904D01*
X118357200Y-128686904D02*
X118404819Y-128591666D01*
X118404819Y-128591666D02*
X118404819Y-128496428D01*
X118404819Y-128496428D02*
X118357200Y-128401190D01*
X118357200Y-128401190D02*
X118309580Y-128353571D01*
X118309580Y-128353571D02*
X118214342Y-128305952D01*
X118214342Y-128305952D02*
X118023866Y-128258333D01*
X118023866Y-128258333D02*
X117785771Y-128258333D01*
X117785771Y-128258333D02*
X117595295Y-128305952D01*
X117595295Y-128305952D02*
X117500057Y-128353571D01*
X117500057Y-128353571D02*
X117452438Y-128401190D01*
X117452438Y-128401190D02*
X117404819Y-128496428D01*
X117404819Y-129448809D02*
X117404819Y-129544047D01*
X117404819Y-129544047D02*
X117452438Y-129639285D01*
X117452438Y-129639285D02*
X117500057Y-129686904D01*
X117500057Y-129686904D02*
X117595295Y-129734523D01*
X117595295Y-129734523D02*
X117785771Y-129782142D01*
X117785771Y-129782142D02*
X118023866Y-129782142D01*
X118023866Y-129782142D02*
X118214342Y-129734523D01*
X118214342Y-129734523D02*
X118309580Y-129686904D01*
X118309580Y-129686904D02*
X118357200Y-129639285D01*
X118357200Y-129639285D02*
X118404819Y-129544047D01*
X118404819Y-129544047D02*
X118404819Y-129448809D01*
X118404819Y-129448809D02*
X118357200Y-129353571D01*
X118357200Y-129353571D02*
X118309580Y-129305952D01*
X118309580Y-129305952D02*
X118214342Y-129258333D01*
X118214342Y-129258333D02*
X118023866Y-129210714D01*
X118023866Y-129210714D02*
X117785771Y-129210714D01*
X117785771Y-129210714D02*
X117595295Y-129258333D01*
X117595295Y-129258333D02*
X117500057Y-129305952D01*
X117500057Y-129305952D02*
X117452438Y-129353571D01*
X117452438Y-129353571D02*
X117404819Y-129448809D01*
X117738152Y-130210714D02*
X118404819Y-130210714D01*
X117833390Y-130210714D02*
X117785771Y-130258333D01*
X117785771Y-130258333D02*
X117738152Y-130353571D01*
X117738152Y-130353571D02*
X117738152Y-130496428D01*
X117738152Y-130496428D02*
X117785771Y-130591666D01*
X117785771Y-130591666D02*
X117881009Y-130639285D01*
X117881009Y-130639285D02*
X118404819Y-130639285D01*
X117881009Y-131448809D02*
X117881009Y-131115476D01*
X118404819Y-131115476D02*
X117404819Y-131115476D01*
X117404819Y-131115476D02*
X117404819Y-131591666D01*
X125534580Y-68283333D02*
X125582200Y-68235714D01*
X125582200Y-68235714D02*
X125629819Y-68092857D01*
X125629819Y-68092857D02*
X125629819Y-67997619D01*
X125629819Y-67997619D02*
X125582200Y-67854762D01*
X125582200Y-67854762D02*
X125486961Y-67759524D01*
X125486961Y-67759524D02*
X125391723Y-67711905D01*
X125391723Y-67711905D02*
X125201247Y-67664286D01*
X125201247Y-67664286D02*
X125058390Y-67664286D01*
X125058390Y-67664286D02*
X124867914Y-67711905D01*
X124867914Y-67711905D02*
X124772676Y-67759524D01*
X124772676Y-67759524D02*
X124677438Y-67854762D01*
X124677438Y-67854762D02*
X124629819Y-67997619D01*
X124629819Y-67997619D02*
X124629819Y-68092857D01*
X124629819Y-68092857D02*
X124677438Y-68235714D01*
X124677438Y-68235714D02*
X124725057Y-68283333D01*
X124963152Y-69140476D02*
X125629819Y-69140476D01*
X124582200Y-68902381D02*
X125296485Y-68664286D01*
X125296485Y-68664286D02*
X125296485Y-69283333D01*
X125754819Y-60961904D02*
X125754819Y-60504761D01*
X125754819Y-60733333D02*
X124754819Y-60733333D01*
X124754819Y-60733333D02*
X124897676Y-60657142D01*
X124897676Y-60657142D02*
X124992914Y-60580952D01*
X124992914Y-60580952D02*
X125040533Y-60504761D01*
X124754819Y-61457143D02*
X124754819Y-61533333D01*
X124754819Y-61533333D02*
X124802438Y-61609524D01*
X124802438Y-61609524D02*
X124850057Y-61647619D01*
X124850057Y-61647619D02*
X124945295Y-61685714D01*
X124945295Y-61685714D02*
X125135771Y-61723809D01*
X125135771Y-61723809D02*
X125373866Y-61723809D01*
X125373866Y-61723809D02*
X125564342Y-61685714D01*
X125564342Y-61685714D02*
X125659580Y-61647619D01*
X125659580Y-61647619D02*
X125707200Y-61609524D01*
X125707200Y-61609524D02*
X125754819Y-61533333D01*
X125754819Y-61533333D02*
X125754819Y-61457143D01*
X125754819Y-61457143D02*
X125707200Y-61380952D01*
X125707200Y-61380952D02*
X125659580Y-61342857D01*
X125659580Y-61342857D02*
X125564342Y-61304762D01*
X125564342Y-61304762D02*
X125373866Y-61266666D01*
X125373866Y-61266666D02*
X125135771Y-61266666D01*
X125135771Y-61266666D02*
X124945295Y-61304762D01*
X124945295Y-61304762D02*
X124850057Y-61342857D01*
X124850057Y-61342857D02*
X124802438Y-61380952D01*
X124802438Y-61380952D02*
X124754819Y-61457143D01*
X124754819Y-62219048D02*
X124754819Y-62295238D01*
X124754819Y-62295238D02*
X124802438Y-62371429D01*
X124802438Y-62371429D02*
X124850057Y-62409524D01*
X124850057Y-62409524D02*
X124945295Y-62447619D01*
X124945295Y-62447619D02*
X125135771Y-62485714D01*
X125135771Y-62485714D02*
X125373866Y-62485714D01*
X125373866Y-62485714D02*
X125564342Y-62447619D01*
X125564342Y-62447619D02*
X125659580Y-62409524D01*
X125659580Y-62409524D02*
X125707200Y-62371429D01*
X125707200Y-62371429D02*
X125754819Y-62295238D01*
X125754819Y-62295238D02*
X125754819Y-62219048D01*
X125754819Y-62219048D02*
X125707200Y-62142857D01*
X125707200Y-62142857D02*
X125659580Y-62104762D01*
X125659580Y-62104762D02*
X125564342Y-62066667D01*
X125564342Y-62066667D02*
X125373866Y-62028571D01*
X125373866Y-62028571D02*
X125135771Y-62028571D01*
X125135771Y-62028571D02*
X124945295Y-62066667D01*
X124945295Y-62066667D02*
X124850057Y-62104762D01*
X124850057Y-62104762D02*
X124802438Y-62142857D01*
X124802438Y-62142857D02*
X124754819Y-62219048D01*
X125088152Y-62828572D02*
X125754819Y-62828572D01*
X125183390Y-62828572D02*
X125135771Y-62866667D01*
X125135771Y-62866667D02*
X125088152Y-62942857D01*
X125088152Y-62942857D02*
X125088152Y-63057143D01*
X125088152Y-63057143D02*
X125135771Y-63133334D01*
X125135771Y-63133334D02*
X125231009Y-63171429D01*
X125231009Y-63171429D02*
X125754819Y-63171429D01*
X125231009Y-63819048D02*
X125231009Y-63552382D01*
X125754819Y-63552382D02*
X124754819Y-63552382D01*
X124754819Y-63552382D02*
X124754819Y-63933334D01*
X130854819Y-133908333D02*
X130378628Y-133575000D01*
X130854819Y-133336905D02*
X129854819Y-133336905D01*
X129854819Y-133336905D02*
X129854819Y-133717857D01*
X129854819Y-133717857D02*
X129902438Y-133813095D01*
X129902438Y-133813095D02*
X129950057Y-133860714D01*
X129950057Y-133860714D02*
X130045295Y-133908333D01*
X130045295Y-133908333D02*
X130188152Y-133908333D01*
X130188152Y-133908333D02*
X130283390Y-133860714D01*
X130283390Y-133860714D02*
X130331009Y-133813095D01*
X130331009Y-133813095D02*
X130378628Y-133717857D01*
X130378628Y-133717857D02*
X130378628Y-133336905D01*
X129854819Y-134241667D02*
X129854819Y-134860714D01*
X129854819Y-134860714D02*
X130235771Y-134527381D01*
X130235771Y-134527381D02*
X130235771Y-134670238D01*
X130235771Y-134670238D02*
X130283390Y-134765476D01*
X130283390Y-134765476D02*
X130331009Y-134813095D01*
X130331009Y-134813095D02*
X130426247Y-134860714D01*
X130426247Y-134860714D02*
X130664342Y-134860714D01*
X130664342Y-134860714D02*
X130759580Y-134813095D01*
X130759580Y-134813095D02*
X130807200Y-134765476D01*
X130807200Y-134765476D02*
X130854819Y-134670238D01*
X130854819Y-134670238D02*
X130854819Y-134384524D01*
X130854819Y-134384524D02*
X130807200Y-134289286D01*
X130807200Y-134289286D02*
X130759580Y-134241667D01*
X130188152Y-127235714D02*
X130854819Y-127235714D01*
X129807200Y-126997619D02*
X130521485Y-126759524D01*
X130521485Y-126759524D02*
X130521485Y-127378571D01*
X129854819Y-127664286D02*
X129854819Y-128330952D01*
X129854819Y-128330952D02*
X130854819Y-127902381D01*
X129854819Y-128902381D02*
X129854819Y-128997619D01*
X129854819Y-128997619D02*
X129902438Y-129092857D01*
X129902438Y-129092857D02*
X129950057Y-129140476D01*
X129950057Y-129140476D02*
X130045295Y-129188095D01*
X130045295Y-129188095D02*
X130235771Y-129235714D01*
X130235771Y-129235714D02*
X130473866Y-129235714D01*
X130473866Y-129235714D02*
X130664342Y-129188095D01*
X130664342Y-129188095D02*
X130759580Y-129140476D01*
X130759580Y-129140476D02*
X130807200Y-129092857D01*
X130807200Y-129092857D02*
X130854819Y-128997619D01*
X130854819Y-128997619D02*
X130854819Y-128902381D01*
X130854819Y-128902381D02*
X130807200Y-128807143D01*
X130807200Y-128807143D02*
X130759580Y-128759524D01*
X130759580Y-128759524D02*
X130664342Y-128711905D01*
X130664342Y-128711905D02*
X130473866Y-128664286D01*
X130473866Y-128664286D02*
X130235771Y-128664286D01*
X130235771Y-128664286D02*
X130045295Y-128711905D01*
X130045295Y-128711905D02*
X129950057Y-128759524D01*
X129950057Y-128759524D02*
X129902438Y-128807143D01*
X129902438Y-128807143D02*
X129854819Y-128902381D01*
X130331009Y-129664286D02*
X130331009Y-129997619D01*
X130854819Y-130140476D02*
X130854819Y-129664286D01*
X130854819Y-129664286D02*
X129854819Y-129664286D01*
X129854819Y-129664286D02*
X129854819Y-130140476D01*
X115229819Y-89308333D02*
X114753628Y-88975000D01*
X115229819Y-88736905D02*
X114229819Y-88736905D01*
X114229819Y-88736905D02*
X114229819Y-89117857D01*
X114229819Y-89117857D02*
X114277438Y-89213095D01*
X114277438Y-89213095D02*
X114325057Y-89260714D01*
X114325057Y-89260714D02*
X114420295Y-89308333D01*
X114420295Y-89308333D02*
X114563152Y-89308333D01*
X114563152Y-89308333D02*
X114658390Y-89260714D01*
X114658390Y-89260714D02*
X114706009Y-89213095D01*
X114706009Y-89213095D02*
X114753628Y-89117857D01*
X114753628Y-89117857D02*
X114753628Y-88736905D01*
X114325057Y-89689286D02*
X114277438Y-89736905D01*
X114277438Y-89736905D02*
X114229819Y-89832143D01*
X114229819Y-89832143D02*
X114229819Y-90070238D01*
X114229819Y-90070238D02*
X114277438Y-90165476D01*
X114277438Y-90165476D02*
X114325057Y-90213095D01*
X114325057Y-90213095D02*
X114420295Y-90260714D01*
X114420295Y-90260714D02*
X114515533Y-90260714D01*
X114515533Y-90260714D02*
X114658390Y-90213095D01*
X114658390Y-90213095D02*
X115229819Y-89641667D01*
X115229819Y-89641667D02*
X115229819Y-90260714D01*
X110529819Y-87030952D02*
X110529819Y-86459524D01*
X110529819Y-86745238D02*
X109529819Y-86745238D01*
X109529819Y-86745238D02*
X109672676Y-86650000D01*
X109672676Y-86650000D02*
X109767914Y-86554762D01*
X109767914Y-86554762D02*
X109815533Y-86459524D01*
X109529819Y-87650000D02*
X109529819Y-87745238D01*
X109529819Y-87745238D02*
X109577438Y-87840476D01*
X109577438Y-87840476D02*
X109625057Y-87888095D01*
X109625057Y-87888095D02*
X109720295Y-87935714D01*
X109720295Y-87935714D02*
X109910771Y-87983333D01*
X109910771Y-87983333D02*
X110148866Y-87983333D01*
X110148866Y-87983333D02*
X110339342Y-87935714D01*
X110339342Y-87935714D02*
X110434580Y-87888095D01*
X110434580Y-87888095D02*
X110482200Y-87840476D01*
X110482200Y-87840476D02*
X110529819Y-87745238D01*
X110529819Y-87745238D02*
X110529819Y-87650000D01*
X110529819Y-87650000D02*
X110482200Y-87554762D01*
X110482200Y-87554762D02*
X110434580Y-87507143D01*
X110434580Y-87507143D02*
X110339342Y-87459524D01*
X110339342Y-87459524D02*
X110148866Y-87411905D01*
X110148866Y-87411905D02*
X109910771Y-87411905D01*
X109910771Y-87411905D02*
X109720295Y-87459524D01*
X109720295Y-87459524D02*
X109625057Y-87507143D01*
X109625057Y-87507143D02*
X109577438Y-87554762D01*
X109577438Y-87554762D02*
X109529819Y-87650000D01*
X109529819Y-88602381D02*
X109529819Y-88697619D01*
X109529819Y-88697619D02*
X109577438Y-88792857D01*
X109577438Y-88792857D02*
X109625057Y-88840476D01*
X109625057Y-88840476D02*
X109720295Y-88888095D01*
X109720295Y-88888095D02*
X109910771Y-88935714D01*
X109910771Y-88935714D02*
X110148866Y-88935714D01*
X110148866Y-88935714D02*
X110339342Y-88888095D01*
X110339342Y-88888095D02*
X110434580Y-88840476D01*
X110434580Y-88840476D02*
X110482200Y-88792857D01*
X110482200Y-88792857D02*
X110529819Y-88697619D01*
X110529819Y-88697619D02*
X110529819Y-88602381D01*
X110529819Y-88602381D02*
X110482200Y-88507143D01*
X110482200Y-88507143D02*
X110434580Y-88459524D01*
X110434580Y-88459524D02*
X110339342Y-88411905D01*
X110339342Y-88411905D02*
X110148866Y-88364286D01*
X110148866Y-88364286D02*
X109910771Y-88364286D01*
X109910771Y-88364286D02*
X109720295Y-88411905D01*
X109720295Y-88411905D02*
X109625057Y-88459524D01*
X109625057Y-88459524D02*
X109577438Y-88507143D01*
X109577438Y-88507143D02*
X109529819Y-88602381D01*
X110006009Y-89364286D02*
X110006009Y-89697619D01*
X110529819Y-89840476D02*
X110529819Y-89364286D01*
X110529819Y-89364286D02*
X109529819Y-89364286D01*
X109529819Y-89364286D02*
X109529819Y-89840476D01*
X123854819Y-87463095D02*
X124664342Y-87463095D01*
X124664342Y-87463095D02*
X124759580Y-87510714D01*
X124759580Y-87510714D02*
X124807200Y-87558333D01*
X124807200Y-87558333D02*
X124854819Y-87653571D01*
X124854819Y-87653571D02*
X124854819Y-87844047D01*
X124854819Y-87844047D02*
X124807200Y-87939285D01*
X124807200Y-87939285D02*
X124759580Y-87986904D01*
X124759580Y-87986904D02*
X124664342Y-88034523D01*
X124664342Y-88034523D02*
X123854819Y-88034523D01*
X123854819Y-88415476D02*
X123854819Y-89034523D01*
X123854819Y-89034523D02*
X124235771Y-88701190D01*
X124235771Y-88701190D02*
X124235771Y-88844047D01*
X124235771Y-88844047D02*
X124283390Y-88939285D01*
X124283390Y-88939285D02*
X124331009Y-88986904D01*
X124331009Y-88986904D02*
X124426247Y-89034523D01*
X124426247Y-89034523D02*
X124664342Y-89034523D01*
X124664342Y-89034523D02*
X124759580Y-88986904D01*
X124759580Y-88986904D02*
X124807200Y-88939285D01*
X124807200Y-88939285D02*
X124854819Y-88844047D01*
X124854819Y-88844047D02*
X124854819Y-88558333D01*
X124854819Y-88558333D02*
X124807200Y-88463095D01*
X124807200Y-88463095D02*
X124759580Y-88415476D01*
X126254819Y-85211905D02*
X125254819Y-85211905D01*
X125254819Y-85211905D02*
X125254819Y-85450000D01*
X125254819Y-85450000D02*
X125302438Y-85592857D01*
X125302438Y-85592857D02*
X125397676Y-85688095D01*
X125397676Y-85688095D02*
X125492914Y-85735714D01*
X125492914Y-85735714D02*
X125683390Y-85783333D01*
X125683390Y-85783333D02*
X125826247Y-85783333D01*
X125826247Y-85783333D02*
X126016723Y-85735714D01*
X126016723Y-85735714D02*
X126111961Y-85688095D01*
X126111961Y-85688095D02*
X126207200Y-85592857D01*
X126207200Y-85592857D02*
X126254819Y-85450000D01*
X126254819Y-85450000D02*
X126254819Y-85211905D01*
X126207200Y-86164286D02*
X126254819Y-86307143D01*
X126254819Y-86307143D02*
X126254819Y-86545238D01*
X126254819Y-86545238D02*
X126207200Y-86640476D01*
X126207200Y-86640476D02*
X126159580Y-86688095D01*
X126159580Y-86688095D02*
X126064342Y-86735714D01*
X126064342Y-86735714D02*
X125969104Y-86735714D01*
X125969104Y-86735714D02*
X125873866Y-86688095D01*
X125873866Y-86688095D02*
X125826247Y-86640476D01*
X125826247Y-86640476D02*
X125778628Y-86545238D01*
X125778628Y-86545238D02*
X125731009Y-86354762D01*
X125731009Y-86354762D02*
X125683390Y-86259524D01*
X125683390Y-86259524D02*
X125635771Y-86211905D01*
X125635771Y-86211905D02*
X125540533Y-86164286D01*
X125540533Y-86164286D02*
X125445295Y-86164286D01*
X125445295Y-86164286D02*
X125350057Y-86211905D01*
X125350057Y-86211905D02*
X125302438Y-86259524D01*
X125302438Y-86259524D02*
X125254819Y-86354762D01*
X125254819Y-86354762D02*
X125254819Y-86592857D01*
X125254819Y-86592857D02*
X125302438Y-86735714D01*
X126254819Y-87688095D02*
X126254819Y-87116667D01*
X126254819Y-87402381D02*
X125254819Y-87402381D01*
X125254819Y-87402381D02*
X125397676Y-87307143D01*
X125397676Y-87307143D02*
X125492914Y-87211905D01*
X125492914Y-87211905D02*
X125540533Y-87116667D01*
X125254819Y-88021429D02*
X125254819Y-88640476D01*
X125254819Y-88640476D02*
X125635771Y-88307143D01*
X125635771Y-88307143D02*
X125635771Y-88450000D01*
X125635771Y-88450000D02*
X125683390Y-88545238D01*
X125683390Y-88545238D02*
X125731009Y-88592857D01*
X125731009Y-88592857D02*
X125826247Y-88640476D01*
X125826247Y-88640476D02*
X126064342Y-88640476D01*
X126064342Y-88640476D02*
X126159580Y-88592857D01*
X126159580Y-88592857D02*
X126207200Y-88545238D01*
X126207200Y-88545238D02*
X126254819Y-88450000D01*
X126254819Y-88450000D02*
X126254819Y-88164286D01*
X126254819Y-88164286D02*
X126207200Y-88069048D01*
X126207200Y-88069048D02*
X126159580Y-88021429D01*
X125254819Y-89259524D02*
X125254819Y-89354762D01*
X125254819Y-89354762D02*
X125302438Y-89450000D01*
X125302438Y-89450000D02*
X125350057Y-89497619D01*
X125350057Y-89497619D02*
X125445295Y-89545238D01*
X125445295Y-89545238D02*
X125635771Y-89592857D01*
X125635771Y-89592857D02*
X125873866Y-89592857D01*
X125873866Y-89592857D02*
X126064342Y-89545238D01*
X126064342Y-89545238D02*
X126159580Y-89497619D01*
X126159580Y-89497619D02*
X126207200Y-89450000D01*
X126207200Y-89450000D02*
X126254819Y-89354762D01*
X126254819Y-89354762D02*
X126254819Y-89259524D01*
X126254819Y-89259524D02*
X126207200Y-89164286D01*
X126207200Y-89164286D02*
X126159580Y-89116667D01*
X126159580Y-89116667D02*
X126064342Y-89069048D01*
X126064342Y-89069048D02*
X125873866Y-89021429D01*
X125873866Y-89021429D02*
X125635771Y-89021429D01*
X125635771Y-89021429D02*
X125445295Y-89069048D01*
X125445295Y-89069048D02*
X125350057Y-89116667D01*
X125350057Y-89116667D02*
X125302438Y-89164286D01*
X125302438Y-89164286D02*
X125254819Y-89259524D01*
X125254819Y-89926191D02*
X125254819Y-90592857D01*
X125254819Y-90592857D02*
X126254819Y-90164286D01*
X125254819Y-90878572D02*
X125254819Y-91545238D01*
X125254819Y-91545238D02*
X126254819Y-90878572D01*
X126254819Y-90878572D02*
X126254819Y-91545238D01*
X125873866Y-91926191D02*
X125873866Y-92688096D01*
X126254819Y-92307143D02*
X125492914Y-92307143D01*
X123788094Y-134779819D02*
X123788094Y-133779819D01*
X123788094Y-133779819D02*
X123549999Y-133779819D01*
X123549999Y-133779819D02*
X123407142Y-133827438D01*
X123407142Y-133827438D02*
X123311904Y-133922676D01*
X123311904Y-133922676D02*
X123264285Y-134017914D01*
X123264285Y-134017914D02*
X123216666Y-134208390D01*
X123216666Y-134208390D02*
X123216666Y-134351247D01*
X123216666Y-134351247D02*
X123264285Y-134541723D01*
X123264285Y-134541723D02*
X123311904Y-134636961D01*
X123311904Y-134636961D02*
X123407142Y-134732200D01*
X123407142Y-134732200D02*
X123549999Y-134779819D01*
X123549999Y-134779819D02*
X123788094Y-134779819D01*
X122311904Y-133779819D02*
X122788094Y-133779819D01*
X122788094Y-133779819D02*
X122835713Y-134256009D01*
X122835713Y-134256009D02*
X122788094Y-134208390D01*
X122788094Y-134208390D02*
X122692856Y-134160771D01*
X122692856Y-134160771D02*
X122454761Y-134160771D01*
X122454761Y-134160771D02*
X122359523Y-134208390D01*
X122359523Y-134208390D02*
X122311904Y-134256009D01*
X122311904Y-134256009D02*
X122264285Y-134351247D01*
X122264285Y-134351247D02*
X122264285Y-134589342D01*
X122264285Y-134589342D02*
X122311904Y-134684580D01*
X122311904Y-134684580D02*
X122359523Y-134732200D01*
X122359523Y-134732200D02*
X122454761Y-134779819D01*
X122454761Y-134779819D02*
X122692856Y-134779819D01*
X122692856Y-134779819D02*
X122788094Y-134732200D01*
X122788094Y-134732200D02*
X122835713Y-134684580D01*
X115154819Y-86758333D02*
X114678628Y-86425000D01*
X115154819Y-86186905D02*
X114154819Y-86186905D01*
X114154819Y-86186905D02*
X114154819Y-86567857D01*
X114154819Y-86567857D02*
X114202438Y-86663095D01*
X114202438Y-86663095D02*
X114250057Y-86710714D01*
X114250057Y-86710714D02*
X114345295Y-86758333D01*
X114345295Y-86758333D02*
X114488152Y-86758333D01*
X114488152Y-86758333D02*
X114583390Y-86710714D01*
X114583390Y-86710714D02*
X114631009Y-86663095D01*
X114631009Y-86663095D02*
X114678628Y-86567857D01*
X114678628Y-86567857D02*
X114678628Y-86186905D01*
X114154819Y-87615476D02*
X114154819Y-87425000D01*
X114154819Y-87425000D02*
X114202438Y-87329762D01*
X114202438Y-87329762D02*
X114250057Y-87282143D01*
X114250057Y-87282143D02*
X114392914Y-87186905D01*
X114392914Y-87186905D02*
X114583390Y-87139286D01*
X114583390Y-87139286D02*
X114964342Y-87139286D01*
X114964342Y-87139286D02*
X115059580Y-87186905D01*
X115059580Y-87186905D02*
X115107200Y-87234524D01*
X115107200Y-87234524D02*
X115154819Y-87329762D01*
X115154819Y-87329762D02*
X115154819Y-87520238D01*
X115154819Y-87520238D02*
X115107200Y-87615476D01*
X115107200Y-87615476D02*
X115059580Y-87663095D01*
X115059580Y-87663095D02*
X114964342Y-87710714D01*
X114964342Y-87710714D02*
X114726247Y-87710714D01*
X114726247Y-87710714D02*
X114631009Y-87663095D01*
X114631009Y-87663095D02*
X114583390Y-87615476D01*
X114583390Y-87615476D02*
X114535771Y-87520238D01*
X114535771Y-87520238D02*
X114535771Y-87329762D01*
X114535771Y-87329762D02*
X114583390Y-87234524D01*
X114583390Y-87234524D02*
X114631009Y-87186905D01*
X114631009Y-87186905D02*
X114726247Y-87139286D01*
X116954819Y-134333333D02*
X116478628Y-134000000D01*
X116954819Y-133761905D02*
X115954819Y-133761905D01*
X115954819Y-133761905D02*
X115954819Y-134142857D01*
X115954819Y-134142857D02*
X116002438Y-134238095D01*
X116002438Y-134238095D02*
X116050057Y-134285714D01*
X116050057Y-134285714D02*
X116145295Y-134333333D01*
X116145295Y-134333333D02*
X116288152Y-134333333D01*
X116288152Y-134333333D02*
X116383390Y-134285714D01*
X116383390Y-134285714D02*
X116431009Y-134238095D01*
X116431009Y-134238095D02*
X116478628Y-134142857D01*
X116478628Y-134142857D02*
X116478628Y-133761905D01*
X116383390Y-134904762D02*
X116335771Y-134809524D01*
X116335771Y-134809524D02*
X116288152Y-134761905D01*
X116288152Y-134761905D02*
X116192914Y-134714286D01*
X116192914Y-134714286D02*
X116145295Y-134714286D01*
X116145295Y-134714286D02*
X116050057Y-134761905D01*
X116050057Y-134761905D02*
X116002438Y-134809524D01*
X116002438Y-134809524D02*
X115954819Y-134904762D01*
X115954819Y-134904762D02*
X115954819Y-135095238D01*
X115954819Y-135095238D02*
X116002438Y-135190476D01*
X116002438Y-135190476D02*
X116050057Y-135238095D01*
X116050057Y-135238095D02*
X116145295Y-135285714D01*
X116145295Y-135285714D02*
X116192914Y-135285714D01*
X116192914Y-135285714D02*
X116288152Y-135238095D01*
X116288152Y-135238095D02*
X116335771Y-135190476D01*
X116335771Y-135190476D02*
X116383390Y-135095238D01*
X116383390Y-135095238D02*
X116383390Y-134904762D01*
X116383390Y-134904762D02*
X116431009Y-134809524D01*
X116431009Y-134809524D02*
X116478628Y-134761905D01*
X116478628Y-134761905D02*
X116573866Y-134714286D01*
X116573866Y-134714286D02*
X116764342Y-134714286D01*
X116764342Y-134714286D02*
X116859580Y-134761905D01*
X116859580Y-134761905D02*
X116907200Y-134809524D01*
X116907200Y-134809524D02*
X116954819Y-134904762D01*
X116954819Y-134904762D02*
X116954819Y-135095238D01*
X116954819Y-135095238D02*
X116907200Y-135190476D01*
X116907200Y-135190476D02*
X116859580Y-135238095D01*
X116859580Y-135238095D02*
X116764342Y-135285714D01*
X116764342Y-135285714D02*
X116573866Y-135285714D01*
X116573866Y-135285714D02*
X116478628Y-135238095D01*
X116478628Y-135238095D02*
X116431009Y-135190476D01*
X116431009Y-135190476D02*
X116383390Y-135095238D01*
X116463152Y-127335714D02*
X117129819Y-127335714D01*
X116082200Y-127097619D02*
X116796485Y-126859524D01*
X116796485Y-126859524D02*
X116796485Y-127478571D01*
X116129819Y-127764286D02*
X116129819Y-128430952D01*
X116129819Y-128430952D02*
X117129819Y-128002381D01*
X116129819Y-129002381D02*
X116129819Y-129097619D01*
X116129819Y-129097619D02*
X116177438Y-129192857D01*
X116177438Y-129192857D02*
X116225057Y-129240476D01*
X116225057Y-129240476D02*
X116320295Y-129288095D01*
X116320295Y-129288095D02*
X116510771Y-129335714D01*
X116510771Y-129335714D02*
X116748866Y-129335714D01*
X116748866Y-129335714D02*
X116939342Y-129288095D01*
X116939342Y-129288095D02*
X117034580Y-129240476D01*
X117034580Y-129240476D02*
X117082200Y-129192857D01*
X117082200Y-129192857D02*
X117129819Y-129097619D01*
X117129819Y-129097619D02*
X117129819Y-129002381D01*
X117129819Y-129002381D02*
X117082200Y-128907143D01*
X117082200Y-128907143D02*
X117034580Y-128859524D01*
X117034580Y-128859524D02*
X116939342Y-128811905D01*
X116939342Y-128811905D02*
X116748866Y-128764286D01*
X116748866Y-128764286D02*
X116510771Y-128764286D01*
X116510771Y-128764286D02*
X116320295Y-128811905D01*
X116320295Y-128811905D02*
X116225057Y-128859524D01*
X116225057Y-128859524D02*
X116177438Y-128907143D01*
X116177438Y-128907143D02*
X116129819Y-129002381D01*
X116606009Y-129764286D02*
X116606009Y-130097619D01*
X117129819Y-130240476D02*
X117129819Y-129764286D01*
X117129819Y-129764286D02*
X116129819Y-129764286D01*
X116129819Y-129764286D02*
X116129819Y-130240476D01*
X124456009Y-129941666D02*
X124456009Y-129608333D01*
X124979819Y-129608333D02*
X123979819Y-129608333D01*
X123979819Y-129608333D02*
X123979819Y-130084523D01*
X124979819Y-130989285D02*
X124979819Y-130417857D01*
X124979819Y-130703571D02*
X123979819Y-130703571D01*
X123979819Y-130703571D02*
X124122676Y-130608333D01*
X124122676Y-130608333D02*
X124217914Y-130513095D01*
X124217914Y-130513095D02*
X124265533Y-130417857D01*
X115054819Y-75363095D02*
X115864342Y-75363095D01*
X115864342Y-75363095D02*
X115959580Y-75410714D01*
X115959580Y-75410714D02*
X116007200Y-75458333D01*
X116007200Y-75458333D02*
X116054819Y-75553571D01*
X116054819Y-75553571D02*
X116054819Y-75744047D01*
X116054819Y-75744047D02*
X116007200Y-75839285D01*
X116007200Y-75839285D02*
X115959580Y-75886904D01*
X115959580Y-75886904D02*
X115864342Y-75934523D01*
X115864342Y-75934523D02*
X115054819Y-75934523D01*
X116054819Y-76934523D02*
X116054819Y-76363095D01*
X116054819Y-76648809D02*
X115054819Y-76648809D01*
X115054819Y-76648809D02*
X115197676Y-76553571D01*
X115197676Y-76553571D02*
X115292914Y-76458333D01*
X115292914Y-76458333D02*
X115340533Y-76363095D01*
X117354819Y-72505952D02*
X118164342Y-72505952D01*
X118164342Y-72505952D02*
X118259580Y-72553571D01*
X118259580Y-72553571D02*
X118307200Y-72601190D01*
X118307200Y-72601190D02*
X118354819Y-72696428D01*
X118354819Y-72696428D02*
X118354819Y-72886904D01*
X118354819Y-72886904D02*
X118307200Y-72982142D01*
X118307200Y-72982142D02*
X118259580Y-73029761D01*
X118259580Y-73029761D02*
X118164342Y-73077380D01*
X118164342Y-73077380D02*
X117354819Y-73077380D01*
X118354819Y-74029761D02*
X118354819Y-73553571D01*
X118354819Y-73553571D02*
X117354819Y-73553571D01*
X118354819Y-74363095D02*
X117354819Y-74363095D01*
X117354819Y-74363095D02*
X118354819Y-74934523D01*
X118354819Y-74934523D02*
X117354819Y-74934523D01*
X117450057Y-75363095D02*
X117402438Y-75410714D01*
X117402438Y-75410714D02*
X117354819Y-75505952D01*
X117354819Y-75505952D02*
X117354819Y-75744047D01*
X117354819Y-75744047D02*
X117402438Y-75839285D01*
X117402438Y-75839285D02*
X117450057Y-75886904D01*
X117450057Y-75886904D02*
X117545295Y-75934523D01*
X117545295Y-75934523D02*
X117640533Y-75934523D01*
X117640533Y-75934523D02*
X117783390Y-75886904D01*
X117783390Y-75886904D02*
X118354819Y-75315476D01*
X118354819Y-75315476D02*
X118354819Y-75934523D01*
X117354819Y-76553571D02*
X117354819Y-76648809D01*
X117354819Y-76648809D02*
X117402438Y-76744047D01*
X117402438Y-76744047D02*
X117450057Y-76791666D01*
X117450057Y-76791666D02*
X117545295Y-76839285D01*
X117545295Y-76839285D02*
X117735771Y-76886904D01*
X117735771Y-76886904D02*
X117973866Y-76886904D01*
X117973866Y-76886904D02*
X118164342Y-76839285D01*
X118164342Y-76839285D02*
X118259580Y-76791666D01*
X118259580Y-76791666D02*
X118307200Y-76744047D01*
X118307200Y-76744047D02*
X118354819Y-76648809D01*
X118354819Y-76648809D02*
X118354819Y-76553571D01*
X118354819Y-76553571D02*
X118307200Y-76458333D01*
X118307200Y-76458333D02*
X118259580Y-76410714D01*
X118259580Y-76410714D02*
X118164342Y-76363095D01*
X118164342Y-76363095D02*
X117973866Y-76315476D01*
X117973866Y-76315476D02*
X117735771Y-76315476D01*
X117735771Y-76315476D02*
X117545295Y-76363095D01*
X117545295Y-76363095D02*
X117450057Y-76410714D01*
X117450057Y-76410714D02*
X117402438Y-76458333D01*
X117402438Y-76458333D02*
X117354819Y-76553571D01*
X117354819Y-77505952D02*
X117354819Y-77601190D01*
X117354819Y-77601190D02*
X117402438Y-77696428D01*
X117402438Y-77696428D02*
X117450057Y-77744047D01*
X117450057Y-77744047D02*
X117545295Y-77791666D01*
X117545295Y-77791666D02*
X117735771Y-77839285D01*
X117735771Y-77839285D02*
X117973866Y-77839285D01*
X117973866Y-77839285D02*
X118164342Y-77791666D01*
X118164342Y-77791666D02*
X118259580Y-77744047D01*
X118259580Y-77744047D02*
X118307200Y-77696428D01*
X118307200Y-77696428D02*
X118354819Y-77601190D01*
X118354819Y-77601190D02*
X118354819Y-77505952D01*
X118354819Y-77505952D02*
X118307200Y-77410714D01*
X118307200Y-77410714D02*
X118259580Y-77363095D01*
X118259580Y-77363095D02*
X118164342Y-77315476D01*
X118164342Y-77315476D02*
X117973866Y-77267857D01*
X117973866Y-77267857D02*
X117735771Y-77267857D01*
X117735771Y-77267857D02*
X117545295Y-77315476D01*
X117545295Y-77315476D02*
X117450057Y-77363095D01*
X117450057Y-77363095D02*
X117402438Y-77410714D01*
X117402438Y-77410714D02*
X117354819Y-77505952D01*
X117354819Y-78172619D02*
X117354819Y-78791666D01*
X117354819Y-78791666D02*
X117735771Y-78458333D01*
X117735771Y-78458333D02*
X117735771Y-78601190D01*
X117735771Y-78601190D02*
X117783390Y-78696428D01*
X117783390Y-78696428D02*
X117831009Y-78744047D01*
X117831009Y-78744047D02*
X117926247Y-78791666D01*
X117926247Y-78791666D02*
X118164342Y-78791666D01*
X118164342Y-78791666D02*
X118259580Y-78744047D01*
X118259580Y-78744047D02*
X118307200Y-78696428D01*
X118307200Y-78696428D02*
X118354819Y-78601190D01*
X118354819Y-78601190D02*
X118354819Y-78315476D01*
X118354819Y-78315476D02*
X118307200Y-78220238D01*
X118307200Y-78220238D02*
X118259580Y-78172619D01*
X115059580Y-91658333D02*
X115107200Y-91610714D01*
X115107200Y-91610714D02*
X115154819Y-91467857D01*
X115154819Y-91467857D02*
X115154819Y-91372619D01*
X115154819Y-91372619D02*
X115107200Y-91229762D01*
X115107200Y-91229762D02*
X115011961Y-91134524D01*
X115011961Y-91134524D02*
X114916723Y-91086905D01*
X114916723Y-91086905D02*
X114726247Y-91039286D01*
X114726247Y-91039286D02*
X114583390Y-91039286D01*
X114583390Y-91039286D02*
X114392914Y-91086905D01*
X114392914Y-91086905D02*
X114297676Y-91134524D01*
X114297676Y-91134524D02*
X114202438Y-91229762D01*
X114202438Y-91229762D02*
X114154819Y-91372619D01*
X114154819Y-91372619D02*
X114154819Y-91467857D01*
X114154819Y-91467857D02*
X114202438Y-91610714D01*
X114202438Y-91610714D02*
X114250057Y-91658333D01*
X114250057Y-92039286D02*
X114202438Y-92086905D01*
X114202438Y-92086905D02*
X114154819Y-92182143D01*
X114154819Y-92182143D02*
X114154819Y-92420238D01*
X114154819Y-92420238D02*
X114202438Y-92515476D01*
X114202438Y-92515476D02*
X114250057Y-92563095D01*
X114250057Y-92563095D02*
X114345295Y-92610714D01*
X114345295Y-92610714D02*
X114440533Y-92610714D01*
X114440533Y-92610714D02*
X114583390Y-92563095D01*
X114583390Y-92563095D02*
X115154819Y-91991667D01*
X115154819Y-91991667D02*
X115154819Y-92610714D01*
X114119047Y-93050057D02*
X114071428Y-93002438D01*
X114071428Y-93002438D02*
X113976190Y-92954819D01*
X113976190Y-92954819D02*
X113738095Y-92954819D01*
X113738095Y-92954819D02*
X113642857Y-93002438D01*
X113642857Y-93002438D02*
X113595238Y-93050057D01*
X113595238Y-93050057D02*
X113547619Y-93145295D01*
X113547619Y-93145295D02*
X113547619Y-93240533D01*
X113547619Y-93240533D02*
X113595238Y-93383390D01*
X113595238Y-93383390D02*
X114166666Y-93954819D01*
X114166666Y-93954819D02*
X113547619Y-93954819D01*
X112928571Y-92954819D02*
X112833333Y-92954819D01*
X112833333Y-92954819D02*
X112738095Y-93002438D01*
X112738095Y-93002438D02*
X112690476Y-93050057D01*
X112690476Y-93050057D02*
X112642857Y-93145295D01*
X112642857Y-93145295D02*
X112595238Y-93335771D01*
X112595238Y-93335771D02*
X112595238Y-93573866D01*
X112595238Y-93573866D02*
X112642857Y-93764342D01*
X112642857Y-93764342D02*
X112690476Y-93859580D01*
X112690476Y-93859580D02*
X112738095Y-93907200D01*
X112738095Y-93907200D02*
X112833333Y-93954819D01*
X112833333Y-93954819D02*
X112928571Y-93954819D01*
X112928571Y-93954819D02*
X113023809Y-93907200D01*
X113023809Y-93907200D02*
X113071428Y-93859580D01*
X113071428Y-93859580D02*
X113119047Y-93764342D01*
X113119047Y-93764342D02*
X113166666Y-93573866D01*
X113166666Y-93573866D02*
X113166666Y-93335771D01*
X113166666Y-93335771D02*
X113119047Y-93145295D01*
X113119047Y-93145295D02*
X113071428Y-93050057D01*
X113071428Y-93050057D02*
X113023809Y-93002438D01*
X113023809Y-93002438D02*
X112928571Y-92954819D01*
X111976190Y-92954819D02*
X111880952Y-92954819D01*
X111880952Y-92954819D02*
X111785714Y-93002438D01*
X111785714Y-93002438D02*
X111738095Y-93050057D01*
X111738095Y-93050057D02*
X111690476Y-93145295D01*
X111690476Y-93145295D02*
X111642857Y-93335771D01*
X111642857Y-93335771D02*
X111642857Y-93573866D01*
X111642857Y-93573866D02*
X111690476Y-93764342D01*
X111690476Y-93764342D02*
X111738095Y-93859580D01*
X111738095Y-93859580D02*
X111785714Y-93907200D01*
X111785714Y-93907200D02*
X111880952Y-93954819D01*
X111880952Y-93954819D02*
X111976190Y-93954819D01*
X111976190Y-93954819D02*
X112071428Y-93907200D01*
X112071428Y-93907200D02*
X112119047Y-93859580D01*
X112119047Y-93859580D02*
X112166666Y-93764342D01*
X112166666Y-93764342D02*
X112214285Y-93573866D01*
X112214285Y-93573866D02*
X112214285Y-93335771D01*
X112214285Y-93335771D02*
X112166666Y-93145295D01*
X112166666Y-93145295D02*
X112119047Y-93050057D01*
X112119047Y-93050057D02*
X112071428Y-93002438D01*
X112071428Y-93002438D02*
X111976190Y-92954819D01*
X111214285Y-93288152D02*
X111214285Y-94288152D01*
X111214285Y-93335771D02*
X111119047Y-93288152D01*
X111119047Y-93288152D02*
X110928571Y-93288152D01*
X110928571Y-93288152D02*
X110833333Y-93335771D01*
X110833333Y-93335771D02*
X110785714Y-93383390D01*
X110785714Y-93383390D02*
X110738095Y-93478628D01*
X110738095Y-93478628D02*
X110738095Y-93764342D01*
X110738095Y-93764342D02*
X110785714Y-93859580D01*
X110785714Y-93859580D02*
X110833333Y-93907200D01*
X110833333Y-93907200D02*
X110928571Y-93954819D01*
X110928571Y-93954819D02*
X111119047Y-93954819D01*
X111119047Y-93954819D02*
X111214285Y-93907200D01*
X109976190Y-93431009D02*
X110309523Y-93431009D01*
X110309523Y-93954819D02*
X110309523Y-92954819D01*
X110309523Y-92954819D02*
X109833333Y-92954819D01*
D14*
%TO.C,R15*%
X132390000Y-104297936D02*
X132390000Y-104752064D01*
X133860000Y-104297936D02*
X133860000Y-104752064D01*
%TO.C,R7*%
X119747936Y-127940000D02*
X120202064Y-127940000D01*
X119747936Y-129410000D02*
X120202064Y-129410000D01*
%TO.C,R4*%
X133702064Y-128040000D02*
X133247936Y-128040000D01*
X133702064Y-129510000D02*
X133247936Y-129510000D01*
%TO.C,Y1*%
X116005000Y-92690000D02*
X116005000Y-91880000D01*
X116675000Y-94060000D02*
X116005000Y-92690000D01*
X117875000Y-94060000D02*
X118545000Y-92690000D01*
X118545000Y-92690000D02*
X118545000Y-91880000D01*
X119035000Y-94060000D02*
X115515000Y-94060000D01*
X115515000Y-105080000D01*
X119035000Y-105080000D01*
X119035000Y-94060000D01*
%TO.C,R16*%
X130240000Y-104297936D02*
X130240000Y-104752064D01*
X131710000Y-104297936D02*
X131710000Y-104752064D01*
%TO.C,R1*%
X131765000Y-131572936D02*
X131765000Y-132027064D01*
X133235000Y-131572936D02*
X133235000Y-132027064D01*
%TO.C,C3*%
X111888748Y-83840000D02*
X112411252Y-83840000D01*
X111888748Y-85310000D02*
X112411252Y-85310000D01*
%TO.C,R9*%
X120140000Y-131722936D02*
X120140000Y-132177064D01*
X121610000Y-131722936D02*
X121610000Y-132177064D01*
%TO.C,R5*%
X119740000Y-65572936D02*
X119740000Y-66027064D01*
X121210000Y-65572936D02*
X121210000Y-66027064D01*
%TO.C,F2*%
X129415000Y-63489758D02*
X129415000Y-65160242D01*
X131235000Y-63489758D02*
X131235000Y-65160242D01*
%TO.C,U4*%
X119090000Y-100390000D02*
X119090000Y-100645000D01*
X119090000Y-110655000D02*
X119090000Y-110910000D01*
X119090000Y-110910000D02*
X126810000Y-110910000D01*
X126810000Y-100390000D02*
X119090000Y-100390000D01*
X126810000Y-100645000D02*
X126810000Y-100390000D01*
X126810000Y-110910000D02*
X126810000Y-110655000D01*
X118640000Y-111130000D02*
X117960000Y-111130000D01*
X118300000Y-110660000D01*
X118640000Y-111130000D01*
G36*
X118640000Y-111130000D02*
G01*
X117960000Y-111130000D01*
X118300000Y-110660000D01*
X118640000Y-111130000D01*
G37*
%TO.C,D2*%
X133440000Y-132115000D02*
X134750000Y-132115000D01*
X133440000Y-133335000D02*
X133440000Y-132115000D01*
X133440000Y-133335000D02*
X134750000Y-133335000D01*
%TO.C,C1*%
X125790000Y-135063748D02*
X125790000Y-135586252D01*
X127260000Y-135063748D02*
X127260000Y-135586252D01*
%TO.C,C5*%
X117915000Y-132286252D02*
X117915000Y-131763748D01*
X119385000Y-132286252D02*
X119385000Y-131763748D01*
%TO.C,C4*%
X124340000Y-65538748D02*
X124340000Y-66061252D01*
X125810000Y-65538748D02*
X125810000Y-66061252D01*
%TO.C,R3*%
X129540000Y-131977064D02*
X129540000Y-131522936D01*
X131010000Y-131977064D02*
X131010000Y-131522936D01*
%TO.C,R2*%
X111997936Y-88715000D02*
X112452064Y-88715000D01*
X111997936Y-90185000D02*
X112452064Y-90185000D01*
%TO.C,U3*%
X117665000Y-84897500D02*
X117665000Y-84992500D01*
X117665000Y-89922500D02*
X117665000Y-90017500D01*
X117665000Y-90017500D02*
X121785000Y-90017500D01*
X121785000Y-84897500D02*
X117665000Y-84897500D01*
X121785000Y-84992500D02*
X121785000Y-84897500D01*
X121785000Y-90017500D02*
X121785000Y-89922500D01*
X117365000Y-90257500D02*
X116885000Y-90257500D01*
X117125000Y-89927500D01*
X117365000Y-90257500D01*
G36*
X117365000Y-90257500D02*
G01*
X116885000Y-90257500D01*
X117125000Y-89927500D01*
X117365000Y-90257500D01*
G37*
%TO.C,D5*%
X122240000Y-132365000D02*
X123550000Y-132365000D01*
X122240000Y-133585000D02*
X122240000Y-132365000D01*
X122240000Y-133585000D02*
X123550000Y-133585000D01*
%TO.C,R6*%
X111922936Y-86015000D02*
X112377064Y-86015000D01*
X111922936Y-87485000D02*
X112377064Y-87485000D01*
%TO.C,R8*%
X115840000Y-132277064D02*
X115840000Y-131822936D01*
X117310000Y-132277064D02*
X117310000Y-131822936D01*
%TO.C,F1*%
X125515000Y-129439758D02*
X125515000Y-131110242D01*
X127335000Y-129439758D02*
X127335000Y-131110242D01*
%TO.C,U1*%
X108990000Y-63832500D02*
X108990000Y-64037500D01*
X108990000Y-74047500D02*
X108990000Y-74252500D01*
X108990000Y-74252500D02*
X114510000Y-74252500D01*
X114510000Y-63832500D02*
X108990000Y-63832500D01*
X114510000Y-64037500D02*
X114510000Y-63832500D01*
X114510000Y-74252500D02*
X114510000Y-74047500D01*
X108690000Y-74522500D02*
X108010000Y-74522500D01*
X108350000Y-74052500D01*
X108690000Y-74522500D01*
G36*
X108690000Y-74522500D02*
G01*
X108010000Y-74522500D01*
X108350000Y-74052500D01*
X108690000Y-74522500D01*
G37*
%TO.C,C2*%
X112013748Y-91040000D02*
X112536252Y-91040000D01*
X112013748Y-92510000D02*
X112536252Y-92510000D01*
%TD*%
M02*
