%TF.GenerationSoftware,KiCad,Pcbnew,9.0.7*%
%TF.CreationDate,2026-08-05T20:51:14+05:30*%
%TF.ProjectId,Nursary_OneCH,4e757273-6172-4795-9f4f-6e6543482e6b,rev?*%
%TF.SameCoordinates,Original*%
%TF.FileFunction,Paste,Bot*%
%TF.FilePolarity,Positive*%
%FSLAX46Y46*%
G04 Gerber Fmt 4.6, Leading zero omitted, Abs format (unit mm)*
G04 Created by KiCad (PCBNEW 9.0.7) date 2026-08-05 20:51:14*
%MOMM*%
%LPD*%
G01*
G04 APERTURE LIST*
G04 Aperture macros list*
%AMRoundRect*
0 Rectangle with rounded corners*
0 $1 Rounding radius*
0 $2 $3 $4 $5 $6 $7 $8 $9 X,Y pos of 4 corners*
0 Add a 4 corners polygon primitive as box body*
4,1,4,$2,$3,$4,$5,$6,$7,$8,$9,$2,$3,0*
0 Add four circle primitives for the rounded corners*
1,1,$1+$1,$2,$3*
1,1,$1+$1,$4,$5*
1,1,$1+$1,$6,$7*
1,1,$1+$1,$8,$9*
0 Add four rect primitives between the rounded corners*
20,1,$1+$1,$2,$3,$4,$5,0*
20,1,$1+$1,$4,$5,$6,$7,0*
20,1,$1+$1,$6,$7,$8,$9,0*
20,1,$1+$1,$8,$9,$2,$3,0*%
G04 Aperture macros list end*
%ADD10RoundRect,0.375000X-1.125000X2.625000X-1.125000X-2.625000X1.125000X-2.625000X1.125000X2.625000X0*%
%ADD11RoundRect,0.250000X-0.450000X0.262500X-0.450000X-0.262500X0.450000X-0.262500X0.450000X0.262500X0*%
%ADD12RoundRect,0.250000X0.262500X0.450000X-0.262500X0.450000X-0.262500X-0.450000X0.262500X-0.450000X0*%
%ADD13RoundRect,0.050000X-0.100000X-0.250000X0.100000X-0.250000X0.100000X0.250000X-0.100000X0.250000X0*%
%ADD14RoundRect,0.250000X0.450000X-0.262500X0.450000X0.262500X-0.450000X0.262500X-0.450000X-0.262500X0*%
%ADD15RoundRect,0.150000X-0.875000X-0.150000X0.875000X-0.150000X0.875000X0.150000X-0.875000X0.150000X0*%
%ADD16RoundRect,0.150000X-0.150000X0.825000X-0.150000X-0.825000X0.150000X-0.825000X0.150000X0.825000X0*%
%ADD17RoundRect,0.250000X0.475000X-0.250000X0.475000X0.250000X-0.475000X0.250000X-0.475000X-0.250000X0*%
%ADD18RoundRect,0.150000X-0.825000X-0.150000X0.825000X-0.150000X0.825000X0.150000X-0.825000X0.150000X0*%
%ADD19RoundRect,0.250000X0.700000X-0.275000X0.700000X0.275000X-0.700000X0.275000X-0.700000X-0.275000X0*%
%ADD20RoundRect,0.250000X-0.250000X-0.475000X0.250000X-0.475000X0.250000X0.475000X-0.250000X0.475000X0*%
G04 APERTURE END LIST*
D10*
%TO.C,TP1*%
X196900000Y-124205000D03*
%TD*%
D11*
%TO.C,R15*%
X205200000Y-113975000D03*
X205200000Y-115800000D03*
%TD*%
D12*
%TO.C,R4*%
X197212500Y-75675000D03*
X195387500Y-75675000D03*
%TD*%
D11*
%TO.C,R16*%
X209000000Y-113975000D03*
X209000000Y-115800000D03*
%TD*%
%TO.C,R1*%
X184600000Y-87262500D03*
X184600000Y-89087500D03*
%TD*%
D13*
%TO.C,D6*%
X185600000Y-100075000D03*
X186300000Y-100075000D03*
%TD*%
D14*
%TO.C,R5*%
X223900000Y-64287500D03*
X223900000Y-62462500D03*
%TD*%
D15*
%TO.C,U4*%
X202050000Y-127820000D03*
X202050000Y-126550000D03*
X202050000Y-122740000D03*
X202050000Y-121470000D03*
X202050000Y-120200000D03*
X202050000Y-118930000D03*
X211350000Y-118930000D03*
X211350000Y-120200000D03*
X211350000Y-121470000D03*
X211350000Y-122740000D03*
X211350000Y-124010000D03*
X211350000Y-125280000D03*
X211350000Y-126550000D03*
X211350000Y-127820000D03*
%TD*%
D16*
%TO.C,U1*%
X219730000Y-78575000D03*
X228620000Y-78575000D03*
X228620000Y-83525000D03*
X219730000Y-83525000D03*
%TD*%
D17*
%TO.C,C1*%
X191300000Y-102825000D03*
X191300000Y-100925000D03*
%TD*%
%TO.C,C4*%
X224600000Y-89725000D03*
X224600000Y-87825000D03*
%TD*%
D14*
%TO.C,R3*%
X179200000Y-64387500D03*
X179200000Y-62562500D03*
%TD*%
D18*
%TO.C,U3*%
X193325000Y-115480000D03*
X193325000Y-114210000D03*
X193325000Y-112940000D03*
X193325000Y-111670000D03*
X198275000Y-111670000D03*
X198275000Y-112940000D03*
X198275000Y-115480000D03*
%TD*%
D19*
%TO.C,F1*%
X188400000Y-108250000D03*
X188400000Y-105100000D03*
%TD*%
D20*
%TO.C,C2*%
X195250000Y-69575000D03*
X197150000Y-69575000D03*
%TD*%
M02*
