%TF.GenerationSoftware,KiCad,Pcbnew,9.0.7*%
%TF.CreationDate,2026-08-24T20:15:45+05:30*%
%TF.ProjectId,Nursary_OneCH,4e757273-6172-4795-9f4f-6e6543482e6b,rev?*%
%TF.SameCoordinates,Original*%
%TF.FileFunction,Copper,L2,Bot*%
%TF.FilePolarity,Positive*%
%FSLAX46Y46*%
G04 Gerber Fmt 4.6, Leading zero omitted, Abs format (unit mm)*
G04 Created by KiCad (PCBNEW 9.0.7) date 2026-08-24 20:15:45*
%MOMM*%
%LPD*%
G01*
G04 APERTURE LIST*
G04 Aperture macros list*
%AMRoundRect*
0 Rectangle with rounded corners*
0 $1 Rounding radius*
0 $2 $3 $4 $5 $6 $7 $8 $9 X,Y pos of 4 corners*
0 Add a 4 corners polygon primitive as box body*
4,1,4,$2,$3,$4,$5,$6,$7,$8,$9,$2,$3,0*
0 Add four circle primitives for the rounded corners*
1,1,$1+$1,$2,$3*
1,1,$1+$1,$4,$5*
1,1,$1+$1,$6,$7*
1,1,$1+$1,$8,$9*
0 Add four rect primitives between the rounded corners*
20,1,$1+$1,$2,$3,$4,$5,0*
20,1,$1+$1,$4,$5,$6,$7,0*
20,1,$1+$1,$6,$7,$8,$9,0*
20,1,$1+$1,$8,$9,$2,$3,0*%
G04 Aperture macros list end*
%TA.AperFunction,ComponentPad*%
%ADD10C,3.000000*%
%TD*%
%TA.AperFunction,ComponentPad*%
%ADD11R,3.000000X3.000000*%
%TD*%
%TA.AperFunction,ComponentPad*%
%ADD12RoundRect,0.250000X0.625000X-0.350000X0.625000X0.350000X-0.625000X0.350000X-0.625000X-0.350000X0*%
%TD*%
%TA.AperFunction,ComponentPad*%
%ADD13O,1.750000X1.200000*%
%TD*%
%TA.AperFunction,SMDPad,CuDef*%
%ADD14RoundRect,0.243750X-0.243750X-0.456250X0.243750X-0.456250X0.243750X0.456250X-0.243750X0.456250X0*%
%TD*%
%TA.AperFunction,ComponentPad*%
%ADD15RoundRect,0.249999X-1.550001X0.790001X-1.550001X-0.790001X1.550001X-0.790001X1.550001X0.790001X0*%
%TD*%
%TA.AperFunction,ComponentPad*%
%ADD16O,3.600000X2.080000*%
%TD*%
%TA.AperFunction,WasherPad*%
%ADD17C,4.500000*%
%TD*%
%TA.AperFunction,ComponentPad*%
%ADD18O,2.200000X1.500000*%
%TD*%
%TA.AperFunction,ComponentPad*%
%ADD19RoundRect,0.249999X1.550001X-0.790001X1.550001X0.790001X-1.550001X0.790001X-1.550001X-0.790001X0*%
%TD*%
%TA.AperFunction,ComponentPad*%
%ADD20C,2.500000*%
%TD*%
%TA.AperFunction,ComponentPad*%
%ADD21C,1.200000*%
%TD*%
%TA.AperFunction,SMDPad,CuDef*%
%ADD22RoundRect,0.250000X-0.450000X0.262500X-0.450000X-0.262500X0.450000X-0.262500X0.450000X0.262500X0*%
%TD*%
%TA.AperFunction,SMDPad,CuDef*%
%ADD23RoundRect,0.250000X0.262500X0.450000X-0.262500X0.450000X-0.262500X-0.450000X0.262500X-0.450000X0*%
%TD*%
%TA.AperFunction,SMDPad,CuDef*%
%ADD24RoundRect,0.375000X-1.125000X2.625000X-1.125000X-2.625000X1.125000X-2.625000X1.125000X2.625000X0*%
%TD*%
%TA.AperFunction,SMDPad,CuDef*%
%ADD25RoundRect,0.250000X0.450000X-0.262500X0.450000X0.262500X-0.450000X0.262500X-0.450000X-0.262500X0*%
%TD*%
%TA.AperFunction,SMDPad,CuDef*%
%ADD26RoundRect,0.150000X-0.875000X-0.150000X0.875000X-0.150000X0.875000X0.150000X-0.875000X0.150000X0*%
%TD*%
%TA.AperFunction,SMDPad,CuDef*%
%ADD27RoundRect,0.150000X-0.150000X0.825000X-0.150000X-0.825000X0.150000X-0.825000X0.150000X0.825000X0*%
%TD*%
%TA.AperFunction,SMDPad,CuDef*%
%ADD28RoundRect,0.250000X0.475000X-0.250000X0.475000X0.250000X-0.475000X0.250000X-0.475000X-0.250000X0*%
%TD*%
%TA.AperFunction,SMDPad,CuDef*%
%ADD29RoundRect,0.150000X-0.825000X-0.150000X0.825000X-0.150000X0.825000X0.150000X-0.825000X0.150000X0*%
%TD*%
%TA.AperFunction,SMDPad,CuDef*%
%ADD30RoundRect,0.250000X0.700000X-0.275000X0.700000X0.275000X-0.700000X0.275000X-0.700000X-0.275000X0*%
%TD*%
%TA.AperFunction,SMDPad,CuDef*%
%ADD31RoundRect,0.250000X-0.250000X-0.475000X0.250000X-0.475000X0.250000X0.475000X-0.250000X0.475000X0*%
%TD*%
%TA.AperFunction,ViaPad*%
%ADD32C,0.800000*%
%TD*%
%TA.AperFunction,Conductor*%
%ADD33C,0.500000*%
%TD*%
%TA.AperFunction,Conductor*%
%ADD34C,1.000000*%
%TD*%
%TA.AperFunction,Conductor*%
%ADD35C,0.300000*%
%TD*%
G04 APERTURE END LIST*
D10*
%TO.P,BT1,2,-*%
%TO.N,GND*%
X210090000Y-120075000D03*
D11*
%TO.P,BT1,1,+*%
%TO.N,/BATT*%
X189290000Y-120075000D03*
%TD*%
D12*
%TO.P,J4,1,Pin_1*%
%TO.N,GND*%
X182500000Y-119175000D03*
D13*
%TO.P,J4,2,Pin_2*%
%TO.N,+5V*%
X182500000Y-117175000D03*
%TD*%
D14*
%TO.P,D6,1,K*%
%TO.N,/FLOW1_CON*%
X182672500Y-84325000D03*
%TO.P,D6,2,A*%
%TO.N,GND*%
X184547500Y-84325000D03*
%TD*%
D15*
%TO.P,J2,1,Pin_1*%
%TO.N,Net-(J2-Pin_1)*%
X223340000Y-112065000D03*
D16*
%TO.P,J2,2,Pin_2*%
%TO.N,Net-(J2-Pin_2)*%
X223340000Y-117145000D03*
%TD*%
D17*
%TO.P,,*%
%TO.N,*%
X220750000Y-47685000D03*
%TD*%
%TO.P,,*%
%TO.N,*%
X220750000Y-131345000D03*
%TD*%
D18*
%TO.P,U5,1,3V3_Out*%
%TO.N,+3.3V*%
X213377500Y-95005000D03*
%TO.P,U5,2,GND*%
%TO.N,GND*%
X213377500Y-92445000D03*
%TO.P,U5,10,D19*%
%TO.N,/RELAY1_MCU*%
X213352500Y-72170000D03*
%TO.P,U5,11,D21/I2C_SDA*%
%TO.N,/SDA*%
X213352500Y-69610000D03*
%TO.P,U5,14,D22/I2C_SCL*%
%TO.N,/SCL*%
X213327500Y-61995000D03*
%TO.P,U5,20,D35/Input_only*%
%TO.N,/FLOW1_MCU*%
X188352500Y-69610000D03*
%TO.P,U5,21,D32*%
%TO.N,/FLOW1_LED_MCU*%
X188352500Y-72170000D03*
%TO.P,U5,29,GND*%
%TO.N,GND*%
X188377500Y-92445000D03*
%TO.P,U5,30,VIN/5V_Power_IN*%
%TO.N,+5V*%
X188377500Y-95005000D03*
%TD*%
D16*
%TO.P,J1,3,Pin_3*%
%TO.N,GND*%
X178940000Y-79315000D03*
%TO.P,J1,2,Pin_2*%
%TO.N,/FLOW1_CON*%
X178940000Y-84395000D03*
D19*
%TO.P,J1,1,Pin_1*%
%TO.N,+5VP*%
X178940000Y-89475000D03*
%TD*%
D10*
%TO.P,K1,1*%
%TO.N,Net-(J2-Pin_2)*%
X224190000Y-86985000D03*
D20*
%TO.P,K1,2*%
%TO.N,Net-(D4-K)*%
X218140000Y-88935000D03*
D10*
%TO.P,K1,3*%
%TO.N,Net-(J2-Pin_1)*%
X218140000Y-101135000D03*
%TO.P,K1,4*%
%TO.N,unconnected-(K1-Pad4)*%
X230190000Y-101185000D03*
D20*
%TO.P,K1,5*%
%TO.N,+5V*%
X230140000Y-88935000D03*
%TD*%
D17*
%TO.P,,*%
%TO.N,*%
X190750000Y-131305000D03*
%TD*%
D21*
%TO.P,C6,1*%
%TO.N,+5V*%
X229700000Y-82835000D03*
%TO.P,C6,2*%
%TO.N,GND*%
X229700000Y-80835000D03*
%TD*%
D17*
%TO.P,,*%
%TO.N,*%
X190750000Y-47685000D03*
%TD*%
D22*
%TO.P,R15,1*%
%TO.N,+3.3V*%
X205200000Y-113975000D03*
%TO.P,R15,2*%
%TO.N,/SCL*%
X205200000Y-115800000D03*
%TD*%
D23*
%TO.P,R4,1*%
%TO.N,+3.3V*%
X197212500Y-75675000D03*
%TO.P,R4,2*%
%TO.N,/FLOW1_MCU*%
X195387500Y-75675000D03*
%TD*%
D24*
%TO.P,TP1,1,1*%
%TO.N,GND*%
X196900000Y-124205000D03*
%TD*%
D21*
%TO.P,Y1,1,1*%
%TO.N,Net-(U3-X2)*%
X198170000Y-117875000D03*
%TO.P,Y1,2,2*%
%TO.N,Net-(U3-X1)*%
X195630000Y-117875000D03*
%TD*%
D22*
%TO.P,R16,1*%
%TO.N,+3.3V*%
X209000000Y-113975000D03*
%TO.P,R16,2*%
%TO.N,/SDA*%
X209000000Y-115800000D03*
%TD*%
%TO.P,R1,1*%
%TO.N,/FLOW1_MCU*%
X184540000Y-79352500D03*
%TO.P,R1,2*%
%TO.N,/FLOW1_CON*%
X184540000Y-81177500D03*
%TD*%
D25*
%TO.P,R5,1*%
%TO.N,+5V*%
X223900000Y-65697500D03*
%TO.P,R5,2*%
%TO.N,Net-(D4-A)*%
X223900000Y-63872500D03*
%TD*%
D26*
%TO.P,U4,1,32KHZ*%
%TO.N,unconnected-(U4-32KHZ-Pad1)*%
X202050000Y-131982500D03*
%TO.P,U4,2,VCC*%
%TO.N,+3.3V*%
X202050000Y-130712500D03*
%TO.P,U4,5,GND*%
%TO.N,GND*%
X202050000Y-126902500D03*
%TO.P,U4,6,GND*%
X202050000Y-125632500D03*
%TO.P,U4,7,GND*%
X202050000Y-124362500D03*
%TO.P,U4,8,GND*%
X202050000Y-123092500D03*
%TO.P,U4,9,GND*%
X211350000Y-123092500D03*
%TO.P,U4,10,GND*%
X211350000Y-124362500D03*
%TO.P,U4,11,GND*%
X211350000Y-125632500D03*
%TO.P,U4,12,GND*%
X211350000Y-126902500D03*
%TO.P,U4,13,GND*%
X211350000Y-128172500D03*
%TO.P,U4,14,VBAT*%
%TO.N,/BATT*%
X211350000Y-129442500D03*
%TO.P,U4,15,SDA*%
%TO.N,/SDA*%
X211350000Y-130712500D03*
%TO.P,U4,16,SCL*%
%TO.N,/SCL*%
X211350000Y-131982500D03*
%TD*%
D27*
%TO.P,U1,16,O1*%
%TO.N,Net-(D4-K)*%
X219730000Y-76210000D03*
%TO.P,U1,9,COM*%
%TO.N,+5V*%
X228620000Y-76210000D03*
%TO.P,U1,8,GND*%
%TO.N,GND*%
X228620000Y-71260000D03*
%TO.P,U1,1,I1*%
%TO.N,/RELAY1_MCU*%
X219730000Y-71260000D03*
%TD*%
D28*
%TO.P,C1,1*%
%TO.N,+5VP*%
X191300000Y-102825000D03*
%TO.P,C1,2*%
%TO.N,GND*%
X191300000Y-100925000D03*
%TD*%
%TO.P,C4,1*%
%TO.N,+5V*%
X224600000Y-82785000D03*
%TO.P,C4,2*%
%TO.N,GND*%
X224600000Y-80885000D03*
%TD*%
D25*
%TO.P,R3,1*%
%TO.N,/FLOW1_LED_MCU*%
X179200000Y-65907500D03*
%TO.P,R3,2*%
%TO.N,Net-(D1-A)*%
X179200000Y-64082500D03*
%TD*%
D29*
%TO.P,U3,1,X1*%
%TO.N,Net-(U3-X1)*%
X193325000Y-115480000D03*
%TO.P,U3,2,X2*%
%TO.N,Net-(U3-X2)*%
X193325000Y-114210000D03*
%TO.P,U3,3,VBAT*%
%TO.N,/BATT*%
X193325000Y-112940000D03*
%TO.P,U3,4,GND*%
%TO.N,GND*%
X193325000Y-111670000D03*
%TO.P,U3,5,SDA*%
%TO.N,/SDA*%
X198275000Y-111670000D03*
%TO.P,U3,6,SCL*%
%TO.N,/SCL*%
X198275000Y-112940000D03*
%TO.P,U3,8,VCC*%
%TO.N,+5V*%
X198275000Y-115480000D03*
%TD*%
D30*
%TO.P,F1,1*%
%TO.N,+5V*%
X188400000Y-108250000D03*
%TO.P,F1,2*%
%TO.N,+5VP*%
X188400000Y-105100000D03*
%TD*%
D31*
%TO.P,C2,1*%
%TO.N,/FLOW1_MCU*%
X195250000Y-69575000D03*
%TO.P,C2,2*%
%TO.N,GND*%
X197150000Y-69575000D03*
%TD*%
D32*
%TO.N,GND*%
X207990000Y-127315000D03*
X208010000Y-129355000D03*
X197440000Y-130085000D03*
X197440000Y-131685000D03*
X201450000Y-118495000D03*
X201450000Y-120095000D03*
X190570000Y-110075000D03*
X192170000Y-110075000D03*
X178440000Y-110825000D03*
X178440000Y-107725000D03*
X178440000Y-109225000D03*
X182590000Y-100335000D03*
X182590000Y-97235000D03*
X182590000Y-98735000D03*
X193000000Y-61405000D03*
X207400000Y-77568000D03*
X209800000Y-77568000D03*
X198700000Y-52675000D03*
X207400000Y-74468000D03*
X215050000Y-126295000D03*
X211500000Y-105875000D03*
X218600000Y-67905000D03*
X199800000Y-70905000D03*
X195400000Y-59805000D03*
X224320000Y-78895000D03*
X191900000Y-81775000D03*
X191900000Y-86375000D03*
X196100000Y-104375000D03*
X215050000Y-127895000D03*
X198700000Y-51175000D03*
X191900000Y-83375000D03*
X191900000Y-84875000D03*
X215050000Y-130895000D03*
X187900000Y-123675000D03*
X178200000Y-73795000D03*
X204700000Y-105875000D03*
X198700000Y-49675000D03*
X210200000Y-49575000D03*
X196100000Y-105975000D03*
X222720000Y-78895000D03*
X209800000Y-74468000D03*
X211500000Y-99675000D03*
X204700000Y-99675000D03*
X196100000Y-99775000D03*
X215050000Y-132495000D03*
X211500000Y-101275000D03*
X211500000Y-102775000D03*
X187900000Y-125275000D03*
X209800000Y-76068000D03*
X196100000Y-102875000D03*
X198700000Y-48075000D03*
X210200000Y-52575000D03*
X193000000Y-59805000D03*
X210200000Y-54175000D03*
X193000000Y-62905000D03*
X181060000Y-73765000D03*
X218600000Y-66405000D03*
X218600000Y-64805000D03*
X198300000Y-109605000D03*
X210200000Y-51075000D03*
X216200000Y-67905000D03*
X199800000Y-73905000D03*
X207400000Y-76068000D03*
X215050000Y-129395000D03*
X225820000Y-78895000D03*
X195400000Y-61405000D03*
X199800000Y-72405000D03*
X204700000Y-102775000D03*
X211500000Y-104275000D03*
X191900000Y-87975000D03*
X204700000Y-104275000D03*
X199800000Y-75505000D03*
X216200000Y-66405000D03*
X204700000Y-101275000D03*
X216200000Y-64805000D03*
X210200000Y-47975000D03*
X198700000Y-54275000D03*
X195400000Y-62905000D03*
X196100000Y-101375000D03*
X199800000Y-69305000D03*
%TO.N,+3.3V*%
X205600000Y-126275000D03*
X208500000Y-93775000D03*
X200600000Y-83275000D03*
X207100000Y-113375000D03*
%TO.N,Net-(D1-A)*%
X179230000Y-62615000D03*
%TO.N,Net-(D4-A)*%
X223930000Y-62545000D03*
%TO.N,Net-(D4-K)*%
X221600000Y-58375000D03*
X218100000Y-82945000D03*
%TO.N,/SCL*%
X198000000Y-91975000D03*
X198000000Y-97775000D03*
%TO.N,/SDA*%
X200200000Y-96675000D03*
X200200000Y-91175000D03*
%TO.N,Net-(D4-K)*%
X221600000Y-69325000D03*
%TD*%
D33*
%TO.N,/SCL*%
X205200000Y-115800000D02*
X205200000Y-124555000D01*
X206640000Y-130485000D02*
X208137500Y-131982500D01*
X205200000Y-124555000D02*
X206640000Y-125995000D01*
X206640000Y-125995000D02*
X206640000Y-130485000D01*
X208137500Y-131982500D02*
X211350000Y-131982500D01*
%TO.N,/SDA*%
X211350000Y-130712500D02*
X209687500Y-130712500D01*
X209380000Y-130405000D02*
X209380000Y-126025000D01*
X207190000Y-117610000D02*
X209000000Y-115800000D01*
X209380000Y-126025000D02*
X207190000Y-123835000D01*
X209687500Y-130712500D02*
X209380000Y-130405000D01*
X207190000Y-123835000D02*
X207190000Y-117610000D01*
%TO.N,/FLOW1_MCU*%
X195387500Y-75675000D02*
X191890000Y-75675000D01*
X191890000Y-75675000D02*
X191630000Y-75935000D01*
%TO.N,/BATT*%
X189290000Y-120075000D02*
X189290000Y-124655000D01*
X189290000Y-124655000D02*
X190960000Y-126325000D01*
X213700000Y-130105000D02*
X213037500Y-129442500D01*
X190960000Y-126325000D02*
X192750000Y-126325000D01*
X195680000Y-134325000D02*
X213090000Y-134325000D01*
X192750000Y-126325000D02*
X194340000Y-127915000D01*
X194340000Y-127915000D02*
X194340000Y-132985000D01*
X213037500Y-129442500D02*
X211350000Y-129442500D01*
X194340000Y-132985000D02*
X195680000Y-134325000D01*
X213090000Y-134325000D02*
X213700000Y-133715000D01*
X213700000Y-133715000D02*
X213700000Y-130105000D01*
X189290000Y-120075000D02*
X189290000Y-114135000D01*
X189290000Y-114135000D02*
X190485000Y-112940000D01*
X190485000Y-112940000D02*
X193325000Y-112940000D01*
%TO.N,Net-(D4-K)*%
X218100000Y-83575000D02*
X218140000Y-83615000D01*
X218100000Y-82945000D02*
X218100000Y-83575000D01*
X218140000Y-83615000D02*
X218140000Y-88935000D01*
X218150000Y-83525000D02*
X218100000Y-83475000D01*
X218100000Y-83475000D02*
X218100000Y-82945000D01*
%TO.N,+5V*%
X230700000Y-75775000D02*
X230700000Y-68785000D01*
X229930000Y-68015000D02*
X224590000Y-68015000D01*
X230700000Y-68785000D02*
X229930000Y-68015000D01*
X223900000Y-67325000D02*
X223900000Y-65697500D01*
X224590000Y-68015000D02*
X223900000Y-67325000D01*
%TO.N,Net-(D4-K)*%
X221600000Y-69325000D02*
X221600000Y-75415000D01*
X221600000Y-75415000D02*
X220805000Y-76210000D01*
X220805000Y-76210000D02*
X219730000Y-76210000D01*
D34*
%TO.N,Net-(J2-Pin_2)*%
X224190000Y-86985000D02*
X224190000Y-102755000D01*
X224190000Y-102755000D02*
X228370000Y-106935000D01*
X227080000Y-117145000D02*
X223340000Y-117145000D01*
X228370000Y-106935000D02*
X228370000Y-115855000D01*
X228370000Y-115855000D02*
X227080000Y-117145000D01*
%TO.N,Net-(J2-Pin_1)*%
X218140000Y-101135000D02*
X218140000Y-109265000D01*
X218140000Y-109265000D02*
X220940000Y-112065000D01*
X220940000Y-112065000D02*
X223340000Y-112065000D01*
%TO.N,+5V*%
X222340000Y-82785000D02*
X220940000Y-81385000D01*
X224600000Y-82785000D02*
X222340000Y-82785000D01*
X220940000Y-81385000D02*
X220850000Y-81475000D01*
X220850000Y-81475000D02*
X217800000Y-81475000D01*
X229700000Y-82835000D02*
X229700000Y-88495000D01*
X229700000Y-88495000D02*
X230140000Y-88935000D01*
D33*
X230700000Y-75775000D02*
X229055000Y-75775000D01*
X229055000Y-75775000D02*
X228620000Y-76210000D01*
D34*
X229700000Y-82835000D02*
X230900000Y-82835000D01*
X230900000Y-82835000D02*
X232000000Y-81735000D01*
X232000000Y-81735000D02*
X232000000Y-77405000D01*
X232000000Y-77405000D02*
X230700000Y-76105000D01*
X230700000Y-76105000D02*
X230700000Y-75775000D01*
D33*
%TO.N,/RELAY1_MCU*%
X219730000Y-71260000D02*
X218535000Y-71260000D01*
X218535000Y-71260000D02*
X217625000Y-72170000D01*
%TO.N,Net-(D4-K)*%
X221600000Y-69325000D02*
X221600000Y-58375000D01*
%TO.N,/BATT*%
X192235000Y-112940000D02*
X193325000Y-112940000D01*
%TO.N,+3.3V*%
X205600000Y-126275000D02*
X205600000Y-129385000D01*
X205600000Y-129385000D02*
X204272500Y-130712500D01*
X204272500Y-130712500D02*
X202050000Y-130712500D01*
D34*
%TO.N,+5VP*%
X181245000Y-105100000D02*
X181145000Y-105100000D01*
X181145000Y-105100000D02*
X178940000Y-102895000D01*
X178940000Y-102895000D02*
X178940000Y-89475000D01*
D33*
%TO.N,/FLOW1_CON*%
X182672500Y-84325000D02*
X179010000Y-84325000D01*
X179010000Y-84325000D02*
X178940000Y-84395000D01*
X184540000Y-81177500D02*
X183807500Y-81177500D01*
X183807500Y-81177500D02*
X182672500Y-82312500D01*
X182672500Y-82312500D02*
X182672500Y-84325000D01*
%TO.N,/FLOW1_MCU*%
X184540000Y-79352500D02*
X184600000Y-79292500D01*
%TO.N,/FLOW1_CON*%
X184540000Y-81177500D02*
X184600000Y-81237500D01*
%TO.N,/FLOW1_MCU*%
X184600000Y-79292500D02*
X184600000Y-78375000D01*
X184600000Y-78375000D02*
X187040000Y-75935000D01*
X187040000Y-75935000D02*
X191630000Y-75935000D01*
%TO.N,+3.3V*%
X213377500Y-95005000D02*
X211970000Y-95005000D01*
X213377500Y-95005000D02*
X209730000Y-95005000D01*
X207100000Y-113975000D02*
X209000000Y-113975000D01*
X200600000Y-83275000D02*
X198400000Y-83275000D01*
X197212500Y-82087500D02*
X197212500Y-75675000D01*
X209000000Y-97975000D02*
X209000000Y-113975000D01*
X205200000Y-113975000D02*
X207100000Y-113975000D01*
X211970000Y-95005000D02*
X209000000Y-97975000D01*
X198400000Y-83275000D02*
X197212500Y-82087500D01*
X207100000Y-113975000D02*
X207100000Y-113375000D01*
X209730000Y-95005000D02*
X208500000Y-93775000D01*
D34*
%TO.N,+5VP*%
X191300000Y-102825000D02*
X189050000Y-102825000D01*
X189050000Y-102825000D02*
X188400000Y-103475000D01*
X188400000Y-105100000D02*
X181245000Y-105100000D01*
X188400000Y-103475000D02*
X188400000Y-105100000D01*
D33*
%TO.N,Net-(D1-A)*%
X179200000Y-64082500D02*
X179200000Y-62645000D01*
X179200000Y-62645000D02*
X179230000Y-62615000D01*
%TO.N,Net-(D4-A)*%
X223900000Y-62575000D02*
X223930000Y-62545000D01*
X223900000Y-63872500D02*
X223900000Y-62575000D01*
%TO.N,+5V*%
X195900000Y-109975000D02*
X194175000Y-108250000D01*
D34*
X191830000Y-95005000D02*
X188377500Y-95005000D01*
X208735000Y-86070000D02*
X208735000Y-90540000D01*
X193300000Y-96475000D02*
X191830000Y-95005000D01*
X188400000Y-108250000D02*
X191625000Y-108250000D01*
X208735000Y-90540000D02*
X204270000Y-95005000D01*
X187000000Y-112075000D02*
X188400000Y-110675000D01*
X183800000Y-112075000D02*
X187000000Y-112075000D01*
X193300000Y-106575000D02*
X193300000Y-96475000D01*
D33*
X196705000Y-115480000D02*
X195900000Y-114675000D01*
D34*
X191625000Y-108250000D02*
X193300000Y-106575000D01*
X204270000Y-95005000D02*
X188377500Y-95005000D01*
D33*
X194175000Y-108250000D02*
X191625000Y-108250000D01*
D34*
X229650000Y-82785000D02*
X229700000Y-82835000D01*
X182500000Y-117175000D02*
X182500000Y-113375000D01*
D33*
X195900000Y-114675000D02*
X195900000Y-109975000D01*
D34*
X211215000Y-83590000D02*
X208735000Y-86070000D01*
X182500000Y-113375000D02*
X183800000Y-112075000D01*
D33*
X198275000Y-115480000D02*
X196705000Y-115480000D01*
D34*
X215685000Y-83590000D02*
X211215000Y-83590000D01*
X217800000Y-81475000D02*
X215685000Y-83590000D01*
X224600000Y-82785000D02*
X229650000Y-82785000D01*
X188400000Y-110675000D02*
X188400000Y-108250000D01*
D33*
%TO.N,/FLOW1_MCU*%
X195387500Y-75675000D02*
X195387500Y-69712500D01*
X195250000Y-69575000D02*
X188387500Y-69575000D01*
X195387500Y-69712500D02*
X195250000Y-69575000D01*
X188387500Y-69575000D02*
X188352500Y-69610000D01*
%TO.N,/RELAY1_MCU*%
X217625000Y-72170000D02*
X213352500Y-72170000D01*
%TO.N,/SCL*%
X200165000Y-112940000D02*
X200900000Y-113675000D01*
X201775000Y-115800000D02*
X205200000Y-115800000D01*
X196700000Y-109275000D02*
X196700000Y-112375000D01*
X198000000Y-107975000D02*
X196700000Y-109275000D01*
X200900000Y-114975000D02*
X201750000Y-115825000D01*
X198000000Y-90575000D02*
X198000000Y-91975000D01*
X213327500Y-61995000D02*
X205180000Y-61995000D01*
X196700000Y-112375000D02*
X197265000Y-112940000D01*
X205180000Y-61995000D02*
X202200000Y-64975000D01*
X202200000Y-86375000D02*
X198000000Y-90575000D01*
X198000000Y-97775000D02*
X198000000Y-107975000D01*
X200900000Y-113675000D02*
X200900000Y-114975000D01*
X202200000Y-64975000D02*
X202200000Y-86375000D01*
X198275000Y-112940000D02*
X200165000Y-112940000D01*
X201750000Y-115825000D02*
X201775000Y-115800000D01*
X197265000Y-112940000D02*
X198275000Y-112940000D01*
%TO.N,/SDA*%
X200100000Y-109845000D02*
X200100000Y-97275000D01*
X206365000Y-69610000D02*
X213352500Y-69610000D01*
X200100000Y-97275000D02*
X200100000Y-96775000D01*
X200200000Y-91175000D02*
X204000000Y-87375000D01*
D35*
X207625000Y-115800000D02*
X206700000Y-114875000D01*
D33*
X198275000Y-111670000D02*
X200100000Y-109845000D01*
D35*
X202300000Y-114875000D02*
X201900000Y-114475000D01*
X201900000Y-113475000D02*
X200095000Y-111670000D01*
X209000000Y-115800000D02*
X207625000Y-115800000D01*
D33*
X200100000Y-96775000D02*
X200200000Y-96675000D01*
D35*
X201900000Y-114475000D02*
X201900000Y-113475000D01*
X200095000Y-111670000D02*
X198275000Y-111670000D01*
X206700000Y-114875000D02*
X202300000Y-114875000D01*
D33*
X204000000Y-71975000D02*
X206365000Y-69610000D01*
X204000000Y-87375000D02*
X204000000Y-71975000D01*
%TO.N,Net-(U3-X2)*%
X193325000Y-114210000D02*
X194435000Y-114210000D01*
X195700000Y-116475000D02*
X197700000Y-116475000D01*
X197700000Y-116475000D02*
X198170000Y-116945000D01*
X194435000Y-114210000D02*
X195100000Y-114875000D01*
X198170000Y-116945000D02*
X198170000Y-117875000D01*
X195100000Y-115875000D02*
X195700000Y-116475000D01*
X195100000Y-114875000D02*
X195100000Y-115875000D01*
%TO.N,Net-(U3-X1)*%
X193325000Y-117350000D02*
X193325000Y-115480000D01*
X195630000Y-117875000D02*
X193800000Y-117875000D01*
X193300000Y-117375000D02*
X193325000Y-117350000D01*
X193800000Y-117875000D02*
X193300000Y-117375000D01*
%TO.N,/FLOW1_LED_MCU*%
X188352500Y-72170000D02*
X180795000Y-72170000D01*
X180795000Y-72170000D02*
X179200000Y-70575000D01*
X179200000Y-70575000D02*
X179200000Y-65907500D01*
%TD*%
%TA.AperFunction,Conductor*%
%TO.N,GND*%
G36*
X176605703Y-90315711D02*
G01*
X176643477Y-90374489D01*
X176647858Y-90396822D01*
X176650000Y-90417795D01*
X176650001Y-90417798D01*
X176705186Y-90584335D01*
X176797288Y-90733656D01*
X176921344Y-90857712D01*
X177070665Y-90949814D01*
X177237202Y-91004999D01*
X177339990Y-91015500D01*
X177815500Y-91015500D01*
X177882539Y-91035185D01*
X177928294Y-91087989D01*
X177939500Y-91139500D01*
X177939500Y-102993544D01*
X177977947Y-103186833D01*
X177977949Y-103186837D01*
X178000038Y-103240164D01*
X178053366Y-103368911D01*
X178053371Y-103368920D01*
X178162860Y-103532781D01*
X178162863Y-103532785D01*
X178306537Y-103676459D01*
X178306559Y-103676479D01*
X180364735Y-105734655D01*
X180364764Y-105734686D01*
X180507214Y-105877136D01*
X180507218Y-105877139D01*
X180671079Y-105986628D01*
X180671092Y-105986635D01*
X180799833Y-106039961D01*
X180842744Y-106057735D01*
X180853164Y-106062051D01*
X180949812Y-106081275D01*
X180998135Y-106090887D01*
X181046458Y-106100500D01*
X181046459Y-106100500D01*
X181046460Y-106100500D01*
X181146459Y-106100500D01*
X187483438Y-106100500D01*
X187522441Y-106106794D01*
X187546766Y-106114854D01*
X187547203Y-106114999D01*
X187649991Y-106125500D01*
X189150008Y-106125499D01*
X189252797Y-106114999D01*
X189419334Y-106059814D01*
X189568656Y-105967712D01*
X189692712Y-105843656D01*
X189784814Y-105694334D01*
X189839999Y-105527797D01*
X189850500Y-105425009D01*
X189850499Y-104774992D01*
X189839999Y-104672203D01*
X189784814Y-104505666D01*
X189692712Y-104356344D01*
X189568656Y-104232288D01*
X189459402Y-104164900D01*
X189452578Y-104157313D01*
X189443297Y-104153075D01*
X189429608Y-104131775D01*
X189412679Y-104112953D01*
X189410034Y-104101317D01*
X189405523Y-104094297D01*
X189400500Y-104059362D01*
X189400500Y-103949500D01*
X189420185Y-103882461D01*
X189472989Y-103836706D01*
X189524500Y-103825500D01*
X191412975Y-103825500D01*
X191412983Y-103825499D01*
X191825002Y-103825499D01*
X191825008Y-103825499D01*
X191927797Y-103814999D01*
X192094334Y-103759814D01*
X192110404Y-103749901D01*
X192177795Y-103731462D01*
X192244459Y-103752384D01*
X192289229Y-103806026D01*
X192299500Y-103855441D01*
X192299500Y-106109217D01*
X192279815Y-106176256D01*
X192263181Y-106196898D01*
X191246899Y-107213181D01*
X191185576Y-107246666D01*
X191159218Y-107249500D01*
X189316562Y-107249500D01*
X189277559Y-107243206D01*
X189252799Y-107235001D01*
X189252795Y-107235000D01*
X189150010Y-107224500D01*
X187649998Y-107224500D01*
X187649981Y-107224501D01*
X187547203Y-107235000D01*
X187547200Y-107235001D01*
X187380668Y-107290185D01*
X187380663Y-107290187D01*
X187231342Y-107382289D01*
X187107289Y-107506342D01*
X187015187Y-107655663D01*
X187015185Y-107655668D01*
X187011415Y-107667045D01*
X186960001Y-107822203D01*
X186960001Y-107822204D01*
X186960000Y-107822204D01*
X186949500Y-107924983D01*
X186949500Y-108575001D01*
X186949501Y-108575019D01*
X186960000Y-108677796D01*
X186960001Y-108677799D01*
X187015185Y-108844331D01*
X187015187Y-108844336D01*
X187031183Y-108870270D01*
X187107288Y-108993656D01*
X187231344Y-109117712D01*
X187340597Y-109185099D01*
X187387321Y-109237047D01*
X187399500Y-109290638D01*
X187399500Y-110209218D01*
X187379815Y-110276257D01*
X187363181Y-110296899D01*
X186621899Y-111038181D01*
X186560576Y-111071666D01*
X186534218Y-111074500D01*
X183701454Y-111074500D01*
X183669391Y-111080876D01*
X183669392Y-111080877D01*
X183508170Y-111112946D01*
X183508164Y-111112948D01*
X183326088Y-111188366D01*
X183326079Y-111188371D01*
X183162219Y-111297859D01*
X183162215Y-111297862D01*
X182185167Y-112274912D01*
X181862220Y-112597859D01*
X181862218Y-112597861D01*
X181792538Y-112667540D01*
X181722859Y-112737219D01*
X181613371Y-112901079D01*
X181613364Y-112901092D01*
X181537950Y-113083160D01*
X181537947Y-113083170D01*
X181499500Y-113276456D01*
X181499500Y-116292796D01*
X181479815Y-116359835D01*
X181463181Y-116380477D01*
X181385588Y-116458069D01*
X181385588Y-116458070D01*
X181385586Y-116458072D01*
X181354072Y-116501447D01*
X181283768Y-116598211D01*
X181205128Y-116752552D01*
X181151597Y-116917302D01*
X181143696Y-116967189D01*
X181124500Y-117088389D01*
X181124500Y-117261611D01*
X181151598Y-117432701D01*
X181205127Y-117597445D01*
X181283768Y-117751788D01*
X181385586Y-117891928D01*
X181385588Y-117891930D01*
X181493491Y-117999833D01*
X181526976Y-118061156D01*
X181521992Y-118130848D01*
X181480120Y-118186781D01*
X181470907Y-118193053D01*
X181406654Y-118232684D01*
X181282684Y-118356654D01*
X181190643Y-118505875D01*
X181190641Y-118505880D01*
X181135494Y-118672302D01*
X181135493Y-118672309D01*
X181125000Y-118775013D01*
X181125000Y-118925000D01*
X182219670Y-118925000D01*
X182199925Y-118944745D01*
X182150556Y-119030255D01*
X182125000Y-119125630D01*
X182125000Y-119224370D01*
X182150556Y-119319745D01*
X182199925Y-119405255D01*
X182219670Y-119425000D01*
X181125001Y-119425000D01*
X181125001Y-119574986D01*
X181135494Y-119677697D01*
X181190641Y-119844119D01*
X181190643Y-119844124D01*
X181282684Y-119993345D01*
X181406654Y-120117315D01*
X181555875Y-120209356D01*
X181555880Y-120209358D01*
X181722302Y-120264505D01*
X181722309Y-120264506D01*
X181825019Y-120274999D01*
X182249999Y-120274999D01*
X182250000Y-120274998D01*
X182250000Y-119455330D01*
X182269745Y-119475075D01*
X182355255Y-119524444D01*
X182450630Y-119550000D01*
X182549370Y-119550000D01*
X182644745Y-119524444D01*
X182730255Y-119475075D01*
X182750000Y-119455330D01*
X182750000Y-120274999D01*
X183174972Y-120274999D01*
X183174986Y-120274998D01*
X183277697Y-120264505D01*
X183444119Y-120209358D01*
X183444124Y-120209356D01*
X183593345Y-120117315D01*
X183717315Y-119993345D01*
X183809356Y-119844124D01*
X183809358Y-119844119D01*
X183864505Y-119677697D01*
X183864506Y-119677690D01*
X183874999Y-119574986D01*
X183875000Y-119574973D01*
X183875000Y-119425000D01*
X182780330Y-119425000D01*
X182800075Y-119405255D01*
X182849444Y-119319745D01*
X182875000Y-119224370D01*
X182875000Y-119125630D01*
X182849444Y-119030255D01*
X182800075Y-118944745D01*
X182780330Y-118925000D01*
X183874999Y-118925000D01*
X183874999Y-118775028D01*
X183874998Y-118775013D01*
X183864505Y-118672302D01*
X183809358Y-118505880D01*
X183809356Y-118505875D01*
X183717315Y-118356654D01*
X183593343Y-118232682D01*
X183529093Y-118193053D01*
X183482368Y-118141105D01*
X183471145Y-118072143D01*
X183498988Y-118008061D01*
X183506486Y-117999855D01*
X183614414Y-117891928D01*
X183716232Y-117751788D01*
X183794873Y-117597445D01*
X183848402Y-117432701D01*
X183875500Y-117261611D01*
X183875500Y-117088389D01*
X183848402Y-116917299D01*
X183794873Y-116752555D01*
X183716232Y-116598212D01*
X183614414Y-116458072D01*
X183536819Y-116380477D01*
X183503334Y-116319154D01*
X183500500Y-116292796D01*
X183500500Y-113840782D01*
X183520185Y-113773743D01*
X183536819Y-113753101D01*
X184178102Y-113111819D01*
X184239425Y-113078334D01*
X184265783Y-113075500D01*
X187098542Y-113075500D01*
X187115793Y-113072068D01*
X187195188Y-113056275D01*
X187291836Y-113037051D01*
X187357345Y-113009916D01*
X187473914Y-112961632D01*
X187637782Y-112852139D01*
X187777139Y-112712782D01*
X187777140Y-112712780D01*
X187784206Y-112705714D01*
X187784209Y-112705710D01*
X189037778Y-111452141D01*
X189037782Y-111452139D01*
X189069923Y-111419998D01*
X191852704Y-111419998D01*
X191852705Y-111420000D01*
X193075000Y-111420000D01*
X193575000Y-111420000D01*
X194797295Y-111420000D01*
X194797295Y-111419998D01*
X194797100Y-111417513D01*
X194751281Y-111259801D01*
X194667685Y-111118447D01*
X194667678Y-111118438D01*
X194551561Y-111002321D01*
X194551552Y-111002314D01*
X194410196Y-110918717D01*
X194410193Y-110918716D01*
X194252495Y-110872900D01*
X194252489Y-110872899D01*
X194215649Y-110870000D01*
X193575000Y-110870000D01*
X193575000Y-111420000D01*
X193075000Y-111420000D01*
X193075000Y-110870000D01*
X192434350Y-110870000D01*
X192397510Y-110872899D01*
X192397504Y-110872900D01*
X192239806Y-110918716D01*
X192239803Y-110918717D01*
X192098447Y-111002314D01*
X192098438Y-111002321D01*
X191982321Y-111118438D01*
X191982314Y-111118447D01*
X191898718Y-111259801D01*
X191852899Y-111417513D01*
X191852704Y-111419998D01*
X189069923Y-111419998D01*
X189177139Y-111312782D01*
X189286632Y-111148914D01*
X189301530Y-111112948D01*
X189333324Y-111036188D01*
X189362051Y-110966835D01*
X189393975Y-110806344D01*
X189400500Y-110773543D01*
X189400500Y-109374500D01*
X189420185Y-109307461D01*
X189472989Y-109261706D01*
X189524500Y-109250500D01*
X191723542Y-109250500D01*
X191738730Y-109247478D01*
X191820188Y-109231275D01*
X191916836Y-109212051D01*
X191994416Y-109179916D01*
X192098914Y-109136632D01*
X192262782Y-109027139D01*
X192262781Y-109027139D01*
X192267847Y-109023755D01*
X192268867Y-109025282D01*
X192325255Y-109001334D01*
X192339610Y-109000500D01*
X193812770Y-109000500D01*
X193879809Y-109020185D01*
X193900451Y-109036819D01*
X195113181Y-110249548D01*
X195146666Y-110310871D01*
X195149500Y-110337229D01*
X195149500Y-113563769D01*
X195145557Y-113577194D01*
X195146437Y-113591158D01*
X195135909Y-113610054D01*
X195129815Y-113630808D01*
X195119241Y-113639969D01*
X195112431Y-113652194D01*
X195093356Y-113662399D01*
X195077011Y-113676563D01*
X195063162Y-113678554D01*
X195050825Y-113685155D01*
X195029263Y-113683428D01*
X195007853Y-113686507D01*
X194993719Y-113680582D01*
X194981179Y-113679578D01*
X194962647Y-113667556D01*
X194950347Y-113662400D01*
X194943713Y-113657345D01*
X194913416Y-113627048D01*
X194839729Y-113577813D01*
X194836529Y-113575675D01*
X194836524Y-113575671D01*
X194790492Y-113544913D01*
X194787829Y-113543490D01*
X194786695Y-113542376D01*
X194785430Y-113541531D01*
X194785590Y-113541290D01*
X194737986Y-113494527D01*
X194722526Y-113426390D01*
X194739551Y-113371014D01*
X194751744Y-113350398D01*
X194797598Y-113192569D01*
X194800500Y-113155694D01*
X194800500Y-112724306D01*
X194797598Y-112687431D01*
X194794142Y-112675536D01*
X194751745Y-112529606D01*
X194751744Y-112529603D01*
X194751744Y-112529602D01*
X194668081Y-112388135D01*
X194668078Y-112388132D01*
X194663298Y-112381969D01*
X194665635Y-112380155D01*
X194638798Y-112331050D01*
X194643756Y-112261356D01*
X194664554Y-112228998D01*
X194662903Y-112227717D01*
X194667686Y-112221550D01*
X194751281Y-112080198D01*
X194797100Y-111922486D01*
X194797295Y-111920001D01*
X194797295Y-111920000D01*
X191852705Y-111920000D01*
X191852704Y-111920001D01*
X191852899Y-111922488D01*
X191852900Y-111922494D01*
X191884397Y-112030905D01*
X191884198Y-112100775D01*
X191846256Y-112159445D01*
X191782617Y-112188288D01*
X191765321Y-112189500D01*
X190411080Y-112189500D01*
X190266092Y-112218340D01*
X190266082Y-112218343D01*
X190129511Y-112274912D01*
X190129498Y-112274919D01*
X190006584Y-112357048D01*
X190006580Y-112357051D01*
X188707050Y-113656580D01*
X188707044Y-113656588D01*
X188657812Y-113730268D01*
X188657813Y-113730269D01*
X188624921Y-113779496D01*
X188624914Y-113779508D01*
X188568342Y-113916086D01*
X188568340Y-113916092D01*
X188539500Y-114061079D01*
X188539500Y-117950500D01*
X188519815Y-118017539D01*
X188467011Y-118063294D01*
X188415500Y-118074500D01*
X187742129Y-118074500D01*
X187742123Y-118074501D01*
X187682516Y-118080908D01*
X187547671Y-118131202D01*
X187547664Y-118131206D01*
X187432455Y-118217452D01*
X187432452Y-118217455D01*
X187346206Y-118332664D01*
X187346202Y-118332671D01*
X187295908Y-118467517D01*
X187291784Y-118505880D01*
X187289501Y-118527123D01*
X187289500Y-118527135D01*
X187289500Y-121622870D01*
X187289501Y-121622876D01*
X187295908Y-121682483D01*
X187346202Y-121817328D01*
X187346206Y-121817335D01*
X187432452Y-121932544D01*
X187432455Y-121932547D01*
X187547664Y-122018793D01*
X187547671Y-122018797D01*
X187682517Y-122069091D01*
X187682516Y-122069091D01*
X187689444Y-122069835D01*
X187742127Y-122075500D01*
X188415500Y-122075499D01*
X188482539Y-122095183D01*
X188528294Y-122147987D01*
X188539500Y-122199499D01*
X188539500Y-124728918D01*
X188539500Y-124728920D01*
X188539499Y-124728920D01*
X188568340Y-124873907D01*
X188568343Y-124873917D01*
X188624914Y-125010492D01*
X188657812Y-125059727D01*
X188657813Y-125059730D01*
X188707046Y-125133414D01*
X188707052Y-125133421D01*
X190377049Y-126803416D01*
X190481584Y-126907951D01*
X190481587Y-126907953D01*
X190481588Y-126907954D01*
X190604503Y-126990083D01*
X190604506Y-126990085D01*
X190654665Y-127010861D01*
X190661080Y-127013518D01*
X190741088Y-127046659D01*
X190857241Y-127069763D01*
X190880380Y-127074365D01*
X190886081Y-127075500D01*
X190886082Y-127075500D01*
X190886083Y-127075500D01*
X191033918Y-127075500D01*
X192387770Y-127075500D01*
X192454809Y-127095185D01*
X192475451Y-127111819D01*
X193553181Y-128189548D01*
X193586666Y-128250871D01*
X193589500Y-128277229D01*
X193589500Y-130362205D01*
X193569815Y-130429244D01*
X193517011Y-130474999D01*
X193447853Y-130484943D01*
X193384297Y-130455918D01*
X193348459Y-130403160D01*
X193295137Y-130250777D01*
X193295135Y-130250771D01*
X193161095Y-129972435D01*
X192996735Y-129710857D01*
X192804120Y-129469326D01*
X192585674Y-129250880D01*
X192344143Y-129058265D01*
X192082565Y-128893905D01*
X192082562Y-128893903D01*
X191804236Y-128759868D01*
X191804222Y-128759862D01*
X191512647Y-128657835D01*
X191512635Y-128657831D01*
X191211455Y-128589089D01*
X191211437Y-128589086D01*
X190904471Y-128554500D01*
X190904465Y-128554500D01*
X190595535Y-128554500D01*
X190595528Y-128554500D01*
X190288562Y-128589086D01*
X190288544Y-128589089D01*
X189987364Y-128657831D01*
X189987352Y-128657835D01*
X189695777Y-128759862D01*
X189695763Y-128759868D01*
X189417437Y-128893903D01*
X189155858Y-129058264D01*
X188914326Y-129250879D01*
X188695879Y-129469326D01*
X188503264Y-129710858D01*
X188338903Y-129972437D01*
X188204868Y-130250763D01*
X188204862Y-130250777D01*
X188102835Y-130542352D01*
X188102831Y-130542364D01*
X188034089Y-130843544D01*
X188034086Y-130843562D01*
X187999500Y-131150528D01*
X187999500Y-131459471D01*
X188034086Y-131766437D01*
X188034089Y-131766455D01*
X188102831Y-132067635D01*
X188102835Y-132067647D01*
X188204862Y-132359222D01*
X188204868Y-132359236D01*
X188338903Y-132637562D01*
X188364039Y-132677565D01*
X188503265Y-132899143D01*
X188695880Y-133140674D01*
X188914326Y-133359120D01*
X189155857Y-133551735D01*
X189417435Y-133716095D01*
X189695771Y-133850135D01*
X189695777Y-133850137D01*
X189987352Y-133952164D01*
X189987364Y-133952168D01*
X190288548Y-134020911D01*
X190288554Y-134020911D01*
X190288562Y-134020913D01*
X190493206Y-134043970D01*
X190595529Y-134055499D01*
X190595532Y-134055500D01*
X190595535Y-134055500D01*
X190904468Y-134055500D01*
X190904469Y-134055499D01*
X191061356Y-134037822D01*
X191211437Y-134020913D01*
X191211442Y-134020912D01*
X191211452Y-134020911D01*
X191512636Y-133952168D01*
X191804229Y-133850135D01*
X192082565Y-133716095D01*
X192344143Y-133551735D01*
X192585674Y-133359120D01*
X192804120Y-133140674D01*
X192996735Y-132899143D01*
X193161095Y-132637565D01*
X193295135Y-132359229D01*
X193348459Y-132206839D01*
X193389180Y-132150063D01*
X193454133Y-132124316D01*
X193522695Y-132137772D01*
X193573097Y-132186160D01*
X193589500Y-132247794D01*
X193589500Y-133058918D01*
X193589500Y-133058920D01*
X193589499Y-133058920D01*
X193618340Y-133203907D01*
X193618343Y-133203917D01*
X193674914Y-133340492D01*
X193707812Y-133389727D01*
X193707813Y-133389730D01*
X193757046Y-133463414D01*
X193757052Y-133463421D01*
X195156451Y-134862819D01*
X195189936Y-134924142D01*
X195184952Y-134993834D01*
X195143080Y-135049767D01*
X195077616Y-135074184D01*
X195068770Y-135074500D01*
X176524500Y-135074500D01*
X176457461Y-135054815D01*
X176411706Y-135002011D01*
X176400500Y-134950500D01*
X176400500Y-90409424D01*
X176420185Y-90342385D01*
X176472989Y-90296630D01*
X176542147Y-90286686D01*
X176605703Y-90315711D01*
G37*
%TD.AperFunction*%
%TA.AperFunction,Conductor*%
G36*
X214928108Y-95720966D02*
G01*
X214962465Y-95781804D01*
X214965673Y-95811827D01*
X214850296Y-103196020D01*
X214829566Y-103262744D01*
X214776054Y-103307668D01*
X214730925Y-103317997D01*
X213200000Y-103374999D01*
X213100000Y-103475000D01*
X213100000Y-114275000D01*
X216076000Y-114275000D01*
X216143039Y-114294685D01*
X216188794Y-114347489D01*
X216200000Y-114399000D01*
X216200000Y-134950500D01*
X216180315Y-135017539D01*
X216127511Y-135063294D01*
X216076000Y-135074500D01*
X213701230Y-135074500D01*
X213634191Y-135054815D01*
X213588436Y-135002011D01*
X213578492Y-134932853D01*
X213607517Y-134869297D01*
X213613549Y-134862819D01*
X214282948Y-134193419D01*
X214282947Y-134193419D01*
X214282951Y-134193416D01*
X214365084Y-134070495D01*
X214421658Y-133933913D01*
X214431096Y-133886462D01*
X214450500Y-133788920D01*
X214450500Y-130031079D01*
X214421659Y-129886092D01*
X214421658Y-129886091D01*
X214421658Y-129886087D01*
X214421656Y-129886082D01*
X214365087Y-129749511D01*
X214365080Y-129749498D01*
X214282952Y-129626585D01*
X214282951Y-129626584D01*
X214178416Y-129522049D01*
X214125693Y-129469326D01*
X213515921Y-128859552D01*
X213515920Y-128859551D01*
X213426592Y-128799865D01*
X213392995Y-128777416D01*
X213392993Y-128777415D01*
X213392990Y-128777413D01*
X213256417Y-128720843D01*
X213256407Y-128720840D01*
X213111420Y-128692000D01*
X213111418Y-128692000D01*
X212959679Y-128692000D01*
X212892640Y-128672315D01*
X212846885Y-128619511D01*
X212836941Y-128550353D01*
X212840603Y-128533405D01*
X212872099Y-128424994D01*
X212872100Y-128424988D01*
X212872295Y-128422501D01*
X212872295Y-128422500D01*
X211474000Y-128422500D01*
X211406961Y-128402815D01*
X211361206Y-128350011D01*
X211350000Y-128298500D01*
X211350000Y-128172500D01*
X211224000Y-128172500D01*
X211156961Y-128152815D01*
X211111206Y-128100011D01*
X211100000Y-128048500D01*
X211100000Y-127922500D01*
X211600000Y-127922500D01*
X212872295Y-127922500D01*
X212872295Y-127922498D01*
X212872100Y-127920013D01*
X212826281Y-127762301D01*
X212742685Y-127620947D01*
X212737900Y-127614778D01*
X212740252Y-127612953D01*
X212713445Y-127563905D01*
X212718402Y-127494212D01*
X212739465Y-127461436D01*
X212737900Y-127460222D01*
X212742685Y-127454052D01*
X212826281Y-127312698D01*
X212872100Y-127154986D01*
X212872295Y-127152501D01*
X212872295Y-127152500D01*
X211600000Y-127152500D01*
X211600000Y-127922500D01*
X211100000Y-127922500D01*
X211100000Y-126652500D01*
X211600000Y-126652500D01*
X212872295Y-126652500D01*
X212872295Y-126652498D01*
X212872100Y-126650013D01*
X212826281Y-126492301D01*
X212742685Y-126350947D01*
X212737900Y-126344778D01*
X212740252Y-126342953D01*
X212713445Y-126293905D01*
X212718402Y-126224212D01*
X212739465Y-126191436D01*
X212737900Y-126190222D01*
X212742685Y-126184052D01*
X212826281Y-126042698D01*
X212872100Y-125884986D01*
X212872295Y-125882501D01*
X212872295Y-125882500D01*
X211600000Y-125882500D01*
X211600000Y-126652500D01*
X211100000Y-126652500D01*
X211100000Y-125382500D01*
X211600000Y-125382500D01*
X212872295Y-125382500D01*
X212872295Y-125382498D01*
X212872100Y-125380013D01*
X212826281Y-125222301D01*
X212742685Y-125080947D01*
X212737900Y-125074778D01*
X212740252Y-125072953D01*
X212713445Y-125023905D01*
X212718402Y-124954212D01*
X212739465Y-124921436D01*
X212737900Y-124920222D01*
X212742685Y-124914052D01*
X212826281Y-124772698D01*
X212872100Y-124614986D01*
X212872295Y-124612501D01*
X212872295Y-124612500D01*
X211600000Y-124612500D01*
X211600000Y-125382500D01*
X211100000Y-125382500D01*
X211100000Y-124612500D01*
X209827705Y-124612500D01*
X209827704Y-124612501D01*
X209827899Y-124614986D01*
X209873718Y-124772698D01*
X209957314Y-124914052D01*
X209962100Y-124920222D01*
X209959753Y-124922042D01*
X209986564Y-124971142D01*
X209981580Y-125040834D01*
X209971532Y-125061622D01*
X209867521Y-125233779D01*
X209847692Y-125251946D01*
X209830488Y-125272619D01*
X209822318Y-125275195D01*
X209816005Y-125280980D01*
X209789501Y-125285543D01*
X209763853Y-125293632D01*
X209755590Y-125291383D01*
X209747149Y-125292837D01*
X209722383Y-125282346D01*
X209696435Y-125275285D01*
X209685698Y-125266807D01*
X209682813Y-125265585D01*
X209681249Y-125263294D01*
X209673706Y-125257338D01*
X207976819Y-123560451D01*
X207943334Y-123499128D01*
X207940500Y-123472770D01*
X207940500Y-123342501D01*
X209827704Y-123342501D01*
X209827899Y-123344986D01*
X209873718Y-123502698D01*
X209957314Y-123644052D01*
X209962100Y-123650222D01*
X209959753Y-123652042D01*
X209986564Y-123701142D01*
X209981580Y-123770834D01*
X209960541Y-123803569D01*
X209962100Y-123804778D01*
X209957314Y-123810947D01*
X209873718Y-123952301D01*
X209827899Y-124110013D01*
X209827704Y-124112498D01*
X209827705Y-124112500D01*
X211100000Y-124112500D01*
X211600000Y-124112500D01*
X212872295Y-124112500D01*
X212872295Y-124112498D01*
X212872100Y-124110013D01*
X212826281Y-123952301D01*
X212742685Y-123810947D01*
X212737900Y-123804778D01*
X212740252Y-123802953D01*
X212713445Y-123753905D01*
X212718402Y-123684212D01*
X212739465Y-123651436D01*
X212737900Y-123650222D01*
X212742685Y-123644052D01*
X212826281Y-123502698D01*
X212872100Y-123344986D01*
X212872295Y-123342501D01*
X212872295Y-123342500D01*
X211600000Y-123342500D01*
X211600000Y-124112500D01*
X211100000Y-124112500D01*
X211100000Y-123342500D01*
X209827705Y-123342500D01*
X209827704Y-123342501D01*
X207940500Y-123342501D01*
X207940500Y-122842498D01*
X209827704Y-122842498D01*
X209827705Y-122842500D01*
X211100000Y-122842500D01*
X211600000Y-122842500D01*
X212872295Y-122842500D01*
X212872295Y-122842498D01*
X212872100Y-122840013D01*
X212826281Y-122682301D01*
X212742685Y-122540947D01*
X212742678Y-122540938D01*
X212626561Y-122424821D01*
X212626552Y-122424814D01*
X212485196Y-122341217D01*
X212485193Y-122341216D01*
X212327495Y-122295400D01*
X212327489Y-122295399D01*
X212290649Y-122292500D01*
X211600000Y-122292500D01*
X211600000Y-122842500D01*
X211100000Y-122842500D01*
X211100000Y-122292500D01*
X210469006Y-122292500D01*
X210310793Y-122313328D01*
X210214804Y-122341216D01*
X210214803Y-122341217D01*
X210073447Y-122424814D01*
X210073438Y-122424821D01*
X209957321Y-122540938D01*
X209957314Y-122540947D01*
X209873718Y-122682301D01*
X209827899Y-122840013D01*
X209827704Y-122842498D01*
X207940500Y-122842498D01*
X207940500Y-120722235D01*
X207960185Y-120655196D01*
X208012989Y-120609441D01*
X208082147Y-120599497D01*
X208145703Y-120628522D01*
X208183477Y-120687300D01*
X208184275Y-120690142D01*
X208192075Y-120719255D01*
X208292404Y-120961471D01*
X208292409Y-120961482D01*
X208423488Y-121188516D01*
X208423494Y-121188524D01*
X208510080Y-121301365D01*
X209412421Y-120399024D01*
X209425359Y-120430258D01*
X209507437Y-120553097D01*
X209611903Y-120657563D01*
X209734742Y-120739641D01*
X209765974Y-120752577D01*
X208863633Y-121654917D01*
X208863633Y-121654918D01*
X208976475Y-121741505D01*
X208976483Y-121741511D01*
X209203517Y-121872590D01*
X209203528Y-121872595D01*
X209445744Y-121972924D01*
X209698979Y-122040777D01*
X209698990Y-122040779D01*
X209958905Y-122074999D01*
X209958920Y-122075000D01*
X210221080Y-122075000D01*
X210221089Y-122074999D01*
X210269068Y-122068682D01*
X210269071Y-122068682D01*
X210444692Y-122045561D01*
X210444694Y-122045561D01*
X210481009Y-122040779D01*
X210481020Y-122040777D01*
X210734255Y-121972924D01*
X210976471Y-121872595D01*
X210976482Y-121872590D01*
X211203516Y-121741511D01*
X211203534Y-121741499D01*
X211316365Y-121654919D01*
X211316365Y-121654917D01*
X210414025Y-120752578D01*
X210445258Y-120739641D01*
X210568097Y-120657563D01*
X210672563Y-120553097D01*
X210754641Y-120430258D01*
X210767577Y-120399025D01*
X211669917Y-121301365D01*
X211669919Y-121301365D01*
X211756499Y-121188534D01*
X211756511Y-121188516D01*
X211887590Y-120961482D01*
X211887595Y-120961471D01*
X211987924Y-120719255D01*
X212055777Y-120466020D01*
X212055779Y-120466009D01*
X212089999Y-120206094D01*
X212090000Y-120206080D01*
X212090000Y-119943919D01*
X212089999Y-119943905D01*
X212055779Y-119683990D01*
X212055777Y-119683979D01*
X211987924Y-119430744D01*
X211887595Y-119188528D01*
X211887590Y-119188517D01*
X211756511Y-118961483D01*
X211756505Y-118961475D01*
X211669918Y-118848633D01*
X211669917Y-118848633D01*
X210767577Y-119750973D01*
X210754641Y-119719742D01*
X210672563Y-119596903D01*
X210568097Y-119492437D01*
X210445258Y-119410359D01*
X210414023Y-119397421D01*
X211316365Y-118495080D01*
X211203524Y-118408494D01*
X211203516Y-118408488D01*
X210976482Y-118277409D01*
X210976471Y-118277404D01*
X210734255Y-118177075D01*
X210481020Y-118109222D01*
X210481009Y-118109220D01*
X210221094Y-118075000D01*
X209958905Y-118075000D01*
X209698990Y-118109220D01*
X209698979Y-118109222D01*
X209445744Y-118177075D01*
X209203528Y-118277404D01*
X209203517Y-118277409D01*
X208976471Y-118408496D01*
X208863633Y-118495079D01*
X208863633Y-118495080D01*
X209765974Y-119397421D01*
X209734742Y-119410359D01*
X209611903Y-119492437D01*
X209507437Y-119596903D01*
X209425359Y-119719742D01*
X209412421Y-119750974D01*
X208510080Y-118848633D01*
X208510079Y-118848633D01*
X208423496Y-118961471D01*
X208292409Y-119188517D01*
X208292404Y-119188528D01*
X208192076Y-119430742D01*
X208184275Y-119459858D01*
X208147910Y-119519518D01*
X208085063Y-119550047D01*
X208015687Y-119541752D01*
X207961809Y-119497267D01*
X207940535Y-119430715D01*
X207940500Y-119427764D01*
X207940500Y-117972228D01*
X207960185Y-117905189D01*
X207976814Y-117884551D01*
X209012048Y-116849317D01*
X209073371Y-116815833D01*
X209099729Y-116812999D01*
X209500002Y-116812999D01*
X209500008Y-116812999D01*
X209602797Y-116802499D01*
X209769334Y-116747314D01*
X209918656Y-116655212D01*
X210042712Y-116531156D01*
X210134814Y-116381834D01*
X210189999Y-116215297D01*
X210200500Y-116112509D01*
X210200499Y-115487492D01*
X210189999Y-115384703D01*
X210134814Y-115218166D01*
X210042712Y-115068844D01*
X209949049Y-114975181D01*
X209915564Y-114913858D01*
X209920548Y-114844166D01*
X209949049Y-114799819D01*
X209987006Y-114761862D01*
X210042712Y-114706156D01*
X210134814Y-114556834D01*
X210189999Y-114390297D01*
X210200500Y-114287509D01*
X210200499Y-113662492D01*
X210200489Y-113662399D01*
X210189999Y-113559703D01*
X210189998Y-113559700D01*
X210185098Y-113544913D01*
X210134814Y-113393166D01*
X210042712Y-113243844D01*
X209918656Y-113119788D01*
X209809402Y-113052400D01*
X209762679Y-113000453D01*
X209750500Y-112946862D01*
X209750500Y-98337228D01*
X209770185Y-98270189D01*
X209786814Y-98249552D01*
X212059595Y-95976770D01*
X212120916Y-95943287D01*
X212190608Y-95948271D01*
X212220153Y-95964131D01*
X212372095Y-96074524D01*
X212398577Y-96088017D01*
X212547470Y-96163882D01*
X212547472Y-96163882D01*
X212547475Y-96163884D01*
X212647817Y-96196487D01*
X212734673Y-96224709D01*
X212929078Y-96255500D01*
X212929083Y-96255500D01*
X213825922Y-96255500D01*
X214020326Y-96224709D01*
X214207525Y-96163884D01*
X214382905Y-96074524D01*
X214542146Y-95958828D01*
X214681328Y-95819646D01*
X214741371Y-95737004D01*
X214796700Y-95694339D01*
X214866313Y-95688360D01*
X214928108Y-95720966D01*
G37*
%TD.AperFunction*%
%TA.AperFunction,Conductor*%
G36*
X196797288Y-113543242D02*
G01*
X196801413Y-113542966D01*
X196834425Y-113555451D01*
X196839019Y-113557986D01*
X196909505Y-113605084D01*
X196962531Y-113627048D01*
X197046088Y-113661659D01*
X197075735Y-113667556D01*
X197154012Y-113683127D01*
X197170068Y-113686320D01*
X197181970Y-113690032D01*
X197182106Y-113689567D01*
X197347426Y-113737597D01*
X197347429Y-113737597D01*
X197347431Y-113737598D01*
X197384306Y-113740500D01*
X197384314Y-113740500D01*
X199165686Y-113740500D01*
X199165694Y-113740500D01*
X199202569Y-113737598D01*
X199202571Y-113737597D01*
X199202573Y-113737597D01*
X199347733Y-113695424D01*
X199382328Y-113690500D01*
X199802770Y-113690500D01*
X199869809Y-113710185D01*
X199890451Y-113726819D01*
X200113181Y-113949549D01*
X200146666Y-114010872D01*
X200149500Y-114037230D01*
X200149500Y-115048918D01*
X200149500Y-115048920D01*
X200149499Y-115048920D01*
X200178340Y-115193907D01*
X200178343Y-115193917D01*
X200234914Y-115330492D01*
X200267812Y-115379727D01*
X200267813Y-115379730D01*
X200317046Y-115453414D01*
X200317052Y-115453421D01*
X201162707Y-116299074D01*
X201162717Y-116299085D01*
X201167047Y-116303415D01*
X201167048Y-116303416D01*
X201271584Y-116407952D01*
X201346596Y-116458072D01*
X201394506Y-116490084D01*
X201531088Y-116546659D01*
X201676078Y-116575499D01*
X201676082Y-116575500D01*
X201676083Y-116575500D01*
X201823919Y-116575500D01*
X201823919Y-116575499D01*
X201937623Y-116552883D01*
X201961814Y-116550500D01*
X204125270Y-116550500D01*
X204192309Y-116570185D01*
X204212951Y-116586819D01*
X204281344Y-116655212D01*
X204390597Y-116722599D01*
X204437321Y-116774547D01*
X204449500Y-116828138D01*
X204449500Y-124628918D01*
X204449500Y-124628920D01*
X204449499Y-124628920D01*
X204478340Y-124773907D01*
X204478343Y-124773917D01*
X204534914Y-124910492D01*
X204534915Y-124910494D01*
X204534916Y-124910495D01*
X204542631Y-124922042D01*
X204567812Y-124959727D01*
X204567813Y-124959730D01*
X204617046Y-125033414D01*
X204617052Y-125033421D01*
X205004884Y-125421253D01*
X205038369Y-125482576D01*
X205033385Y-125552268D01*
X205004885Y-125596615D01*
X204900535Y-125700965D01*
X204801990Y-125848446D01*
X204801983Y-125848459D01*
X204734106Y-126012332D01*
X204734103Y-126012341D01*
X204699500Y-126186304D01*
X204699500Y-126363695D01*
X204734103Y-126537658D01*
X204734106Y-126537667D01*
X204801984Y-126701542D01*
X204801985Y-126701543D01*
X204801987Y-126701547D01*
X204828602Y-126741378D01*
X204849480Y-126808055D01*
X204849500Y-126810269D01*
X204849500Y-129022770D01*
X204829815Y-129089809D01*
X204813181Y-129110451D01*
X203997951Y-129925681D01*
X203936628Y-129959166D01*
X203910270Y-129962000D01*
X203207328Y-129962000D01*
X203172733Y-129957076D01*
X203027573Y-129914902D01*
X203027567Y-129914901D01*
X202990701Y-129912000D01*
X202990694Y-129912000D01*
X201109306Y-129912000D01*
X201109298Y-129912000D01*
X201072432Y-129914901D01*
X201072426Y-129914902D01*
X200914606Y-129960754D01*
X200914603Y-129960755D01*
X200773137Y-130044417D01*
X200773129Y-130044423D01*
X200656923Y-130160629D01*
X200656917Y-130160637D01*
X200573255Y-130302103D01*
X200573254Y-130302106D01*
X200527402Y-130459926D01*
X200527401Y-130459932D01*
X200524500Y-130496798D01*
X200524500Y-130928201D01*
X200527401Y-130965067D01*
X200527402Y-130965073D01*
X200573254Y-131122893D01*
X200573255Y-131122896D01*
X200573256Y-131122898D01*
X200590072Y-131151333D01*
X200656917Y-131264362D01*
X200661702Y-131270531D01*
X200659256Y-131272427D01*
X200685857Y-131321142D01*
X200680873Y-131390834D01*
X200660069Y-131423203D01*
X200661702Y-131424469D01*
X200656917Y-131430637D01*
X200573255Y-131572103D01*
X200573254Y-131572106D01*
X200527402Y-131729926D01*
X200527401Y-131729932D01*
X200524500Y-131766798D01*
X200524500Y-132198201D01*
X200527401Y-132235067D01*
X200527402Y-132235073D01*
X200573254Y-132392893D01*
X200573255Y-132392896D01*
X200656917Y-132534362D01*
X200656923Y-132534370D01*
X200773129Y-132650576D01*
X200773133Y-132650579D01*
X200773135Y-132650581D01*
X200914602Y-132734244D01*
X200927269Y-132737924D01*
X201072426Y-132780097D01*
X201072429Y-132780097D01*
X201072431Y-132780098D01*
X201109306Y-132783000D01*
X201109314Y-132783000D01*
X202990686Y-132783000D01*
X202990694Y-132783000D01*
X203027569Y-132780098D01*
X203027571Y-132780097D01*
X203027573Y-132780097D01*
X203069191Y-132768005D01*
X203185398Y-132734244D01*
X203326865Y-132650581D01*
X203443081Y-132534365D01*
X203526744Y-132392898D01*
X203572598Y-132235069D01*
X203575500Y-132198194D01*
X203575500Y-131766806D01*
X203572598Y-131729931D01*
X203572597Y-131729926D01*
X203541124Y-131621595D01*
X203541323Y-131551725D01*
X203579265Y-131493055D01*
X203642904Y-131464212D01*
X203660200Y-131463000D01*
X204346420Y-131463000D01*
X204443962Y-131443596D01*
X204491413Y-131434158D01*
X204627995Y-131377584D01*
X204677229Y-131344686D01*
X204750916Y-131295452D01*
X205677819Y-130368547D01*
X205739142Y-130335063D01*
X205808833Y-130340047D01*
X205864767Y-130381919D01*
X205889184Y-130447383D01*
X205889500Y-130456229D01*
X205889500Y-130558918D01*
X205889500Y-130558920D01*
X205889499Y-130558920D01*
X205918340Y-130703907D01*
X205918343Y-130703917D01*
X205974912Y-130840488D01*
X205974920Y-130840502D01*
X206003593Y-130883413D01*
X206003594Y-130883416D01*
X206003595Y-130883416D01*
X206057048Y-130963416D01*
X207659084Y-132565452D01*
X207707785Y-132597992D01*
X207707787Y-132597994D01*
X207707788Y-132597994D01*
X207782005Y-132647584D01*
X207782006Y-132647584D01*
X207782007Y-132647585D01*
X207918582Y-132704156D01*
X207918587Y-132704158D01*
X207918591Y-132704158D01*
X207918592Y-132704159D01*
X208063579Y-132733000D01*
X208063582Y-132733000D01*
X208063583Y-132733000D01*
X208211418Y-132733000D01*
X210192672Y-132733000D01*
X210227267Y-132737924D01*
X210372426Y-132780097D01*
X210372429Y-132780097D01*
X210372431Y-132780098D01*
X210409306Y-132783000D01*
X210409314Y-132783000D01*
X212290686Y-132783000D01*
X212290694Y-132783000D01*
X212327569Y-132780098D01*
X212327571Y-132780097D01*
X212327573Y-132780097D01*
X212369191Y-132768005D01*
X212485398Y-132734244D01*
X212626865Y-132650581D01*
X212679456Y-132597990D01*
X212737819Y-132539628D01*
X212799142Y-132506143D01*
X212868834Y-132511127D01*
X212924767Y-132552999D01*
X212949184Y-132618463D01*
X212949500Y-132627309D01*
X212949500Y-133352770D01*
X212940855Y-133382210D01*
X212934332Y-133412197D01*
X212930577Y-133417212D01*
X212929815Y-133419809D01*
X212913181Y-133440451D01*
X212815451Y-133538181D01*
X212754128Y-133571666D01*
X212727770Y-133574500D01*
X196042229Y-133574500D01*
X195975190Y-133554815D01*
X195954548Y-133538181D01*
X195126819Y-132710451D01*
X195093334Y-132649128D01*
X195090500Y-132622770D01*
X195090500Y-127841081D01*
X195085337Y-127815129D01*
X195084763Y-127812241D01*
X195061659Y-127696088D01*
X195046806Y-127660230D01*
X195044575Y-127651261D01*
X195045664Y-127625223D01*
X195042878Y-127599314D01*
X195047100Y-127590877D01*
X195047495Y-127581452D01*
X195062486Y-127560139D01*
X195074151Y-127536834D01*
X195082265Y-127532019D01*
X195087692Y-127524304D01*
X195111824Y-127514479D01*
X195134239Y-127501180D01*
X195143668Y-127501516D01*
X195152405Y-127497960D01*
X195178020Y-127502743D01*
X195204064Y-127503673D01*
X195215036Y-127509654D01*
X195221088Y-127510785D01*
X195226548Y-127515931D01*
X195242595Y-127524680D01*
X195300979Y-127571610D01*
X195471476Y-127656168D01*
X195656175Y-127702102D01*
X195698903Y-127705000D01*
X196650000Y-127705000D01*
X197150000Y-127705000D01*
X198101097Y-127705000D01*
X198143824Y-127702102D01*
X198328523Y-127656168D01*
X198499022Y-127571609D01*
X198499025Y-127571607D01*
X198647366Y-127452367D01*
X198647367Y-127452366D01*
X198766607Y-127304025D01*
X198766609Y-127304022D01*
X198841756Y-127152501D01*
X200527704Y-127152501D01*
X200527899Y-127154986D01*
X200573718Y-127312698D01*
X200657314Y-127454052D01*
X200657321Y-127454061D01*
X200773438Y-127570178D01*
X200773447Y-127570185D01*
X200914803Y-127653782D01*
X200914806Y-127653783D01*
X201072504Y-127699599D01*
X201072510Y-127699600D01*
X201109350Y-127702499D01*
X201109366Y-127702500D01*
X201800000Y-127702500D01*
X202300000Y-127702500D01*
X202990634Y-127702500D01*
X202990649Y-127702499D01*
X203027489Y-127699600D01*
X203027495Y-127699599D01*
X203185193Y-127653783D01*
X203185196Y-127653782D01*
X203326552Y-127570185D01*
X203326561Y-127570178D01*
X203442678Y-127454061D01*
X203442685Y-127454052D01*
X203526281Y-127312698D01*
X203572100Y-127154986D01*
X203572295Y-127152501D01*
X203572295Y-127152500D01*
X202300000Y-127152500D01*
X202300000Y-127702500D01*
X201800000Y-127702500D01*
X201800000Y-127152500D01*
X200527705Y-127152500D01*
X200527704Y-127152501D01*
X198841756Y-127152501D01*
X198851168Y-127133523D01*
X198851169Y-127133521D01*
X198864920Y-127078230D01*
X198864920Y-127078229D01*
X198897102Y-126948824D01*
X198900000Y-126906096D01*
X198900000Y-125882501D01*
X200527704Y-125882501D01*
X200527899Y-125884986D01*
X200573718Y-126042698D01*
X200657314Y-126184052D01*
X200662100Y-126190222D01*
X200659753Y-126192042D01*
X200686564Y-126241142D01*
X200681580Y-126310834D01*
X200660541Y-126343569D01*
X200662100Y-126344778D01*
X200657314Y-126350947D01*
X200573718Y-126492301D01*
X200527899Y-126650013D01*
X200527704Y-126652498D01*
X200527705Y-126652500D01*
X201800000Y-126652500D01*
X202300000Y-126652500D01*
X203572295Y-126652500D01*
X203572295Y-126652498D01*
X203572100Y-126650013D01*
X203526281Y-126492301D01*
X203442685Y-126350947D01*
X203437900Y-126344778D01*
X203440252Y-126342953D01*
X203413445Y-126293905D01*
X203418402Y-126224212D01*
X203439465Y-126191436D01*
X203437900Y-126190222D01*
X203442685Y-126184052D01*
X203526281Y-126042698D01*
X203572100Y-125884986D01*
X203572295Y-125882501D01*
X203572295Y-125882500D01*
X202300000Y-125882500D01*
X202300000Y-126652500D01*
X201800000Y-126652500D01*
X201800000Y-125882500D01*
X200527705Y-125882500D01*
X200527704Y-125882501D01*
X198900000Y-125882501D01*
X198900000Y-124612501D01*
X200527704Y-124612501D01*
X200527899Y-124614986D01*
X200573718Y-124772698D01*
X200657314Y-124914052D01*
X200662100Y-124920222D01*
X200659753Y-124922042D01*
X200686564Y-124971142D01*
X200681580Y-125040834D01*
X200660541Y-125073569D01*
X200662100Y-125074778D01*
X200657314Y-125080947D01*
X200573718Y-125222301D01*
X200527899Y-125380013D01*
X200527704Y-125382498D01*
X200527705Y-125382500D01*
X201800000Y-125382500D01*
X202300000Y-125382500D01*
X203572295Y-125382500D01*
X203572295Y-125382498D01*
X203572100Y-125380013D01*
X203526281Y-125222301D01*
X203442685Y-125080947D01*
X203437900Y-125074778D01*
X203440252Y-125072953D01*
X203413445Y-125023905D01*
X203418402Y-124954212D01*
X203439465Y-124921436D01*
X203437900Y-124920222D01*
X203442685Y-124914052D01*
X203526281Y-124772698D01*
X203572100Y-124614986D01*
X203572295Y-124612501D01*
X203572295Y-124612500D01*
X202300000Y-124612500D01*
X202300000Y-125382500D01*
X201800000Y-125382500D01*
X201800000Y-124612500D01*
X200527705Y-124612500D01*
X200527704Y-124612501D01*
X198900000Y-124612501D01*
X198900000Y-124455000D01*
X197150000Y-124455000D01*
X197150000Y-127705000D01*
X196650000Y-127705000D01*
X196650000Y-124455000D01*
X194900000Y-124455000D01*
X194900000Y-126906096D01*
X194902897Y-126948826D01*
X194949929Y-127137939D01*
X194947005Y-127207747D01*
X194906805Y-127264893D01*
X194842090Y-127291234D01*
X194773409Y-127278405D01*
X194741913Y-127255546D01*
X193228421Y-125742052D01*
X193228420Y-125742051D01*
X193166929Y-125700965D01*
X193119847Y-125669506D01*
X193105495Y-125659916D01*
X193105490Y-125659913D01*
X192968917Y-125603343D01*
X192968907Y-125603340D01*
X192823920Y-125574500D01*
X192823918Y-125574500D01*
X191322229Y-125574500D01*
X191255190Y-125554815D01*
X191234548Y-125538181D01*
X190076819Y-124380451D01*
X190043334Y-124319128D01*
X190040500Y-124292770D01*
X190040500Y-122199499D01*
X190060185Y-122132460D01*
X190112989Y-122086705D01*
X190164500Y-122075499D01*
X190837871Y-122075499D01*
X190837872Y-122075499D01*
X190897483Y-122069091D01*
X191032331Y-122018796D01*
X191147546Y-121932546D01*
X191233796Y-121817331D01*
X191284091Y-121682483D01*
X191290500Y-121622873D01*
X191290500Y-121503903D01*
X194900000Y-121503903D01*
X194900000Y-123955000D01*
X196650000Y-123955000D01*
X197150000Y-123955000D01*
X198900000Y-123955000D01*
X198900000Y-123342501D01*
X200527704Y-123342501D01*
X200527899Y-123344986D01*
X200573718Y-123502698D01*
X200657314Y-123644052D01*
X200662100Y-123650222D01*
X200659753Y-123652042D01*
X200686564Y-123701142D01*
X200681580Y-123770834D01*
X200660541Y-123803569D01*
X200662100Y-123804778D01*
X200657314Y-123810947D01*
X200573718Y-123952301D01*
X200527899Y-124110013D01*
X200527704Y-124112498D01*
X200527705Y-124112500D01*
X201800000Y-124112500D01*
X202300000Y-124112500D01*
X203572295Y-124112500D01*
X203572295Y-124112498D01*
X203572100Y-124110013D01*
X203526281Y-123952301D01*
X203442685Y-123810947D01*
X203437900Y-123804778D01*
X203440252Y-123802953D01*
X203413445Y-123753905D01*
X203418402Y-123684212D01*
X203439465Y-123651436D01*
X203437900Y-123650222D01*
X203442685Y-123644052D01*
X203526281Y-123502698D01*
X203572100Y-123344986D01*
X203572295Y-123342501D01*
X203572295Y-123342500D01*
X202300000Y-123342500D01*
X202300000Y-124112500D01*
X201800000Y-124112500D01*
X201800000Y-123342500D01*
X200527705Y-123342500D01*
X200527704Y-123342501D01*
X198900000Y-123342501D01*
X198900000Y-122842498D01*
X200527704Y-122842498D01*
X200527705Y-122842500D01*
X201800000Y-122842500D01*
X202300000Y-122842500D01*
X203572295Y-122842500D01*
X203572295Y-122842498D01*
X203572100Y-122840013D01*
X203526281Y-122682301D01*
X203442685Y-122540947D01*
X203442678Y-122540938D01*
X203326561Y-122424821D01*
X203326552Y-122424814D01*
X203185196Y-122341217D01*
X203185193Y-122341216D01*
X203027495Y-122295400D01*
X203027489Y-122295399D01*
X202990649Y-122292500D01*
X202300000Y-122292500D01*
X202300000Y-122842500D01*
X201800000Y-122842500D01*
X201800000Y-122292500D01*
X201109350Y-122292500D01*
X201072510Y-122295399D01*
X201072504Y-122295400D01*
X200914806Y-122341216D01*
X200914803Y-122341217D01*
X200773447Y-122424814D01*
X200773438Y-122424821D01*
X200657321Y-122540938D01*
X200657314Y-122540947D01*
X200573718Y-122682301D01*
X200527899Y-122840013D01*
X200527704Y-122842498D01*
X198900000Y-122842498D01*
X198900000Y-121503903D01*
X198897102Y-121461175D01*
X198851168Y-121276476D01*
X198766609Y-121105977D01*
X198766607Y-121105974D01*
X198647367Y-120957633D01*
X198647366Y-120957632D01*
X198499025Y-120838392D01*
X198499022Y-120838390D01*
X198328523Y-120753831D01*
X198143824Y-120707897D01*
X198101097Y-120705000D01*
X197150000Y-120705000D01*
X197150000Y-123955000D01*
X196650000Y-123955000D01*
X196650000Y-120705000D01*
X195698903Y-120705000D01*
X195656175Y-120707897D01*
X195471476Y-120753831D01*
X195300977Y-120838390D01*
X195300974Y-120838392D01*
X195152633Y-120957632D01*
X195152632Y-120957633D01*
X195033392Y-121105974D01*
X195033390Y-121105977D01*
X194948831Y-121276476D01*
X194902897Y-121461175D01*
X194900000Y-121503903D01*
X191290500Y-121503903D01*
X191290499Y-120075000D01*
X191290499Y-118527129D01*
X191290498Y-118527123D01*
X191290497Y-118527116D01*
X191284091Y-118467517D01*
X191280524Y-118457954D01*
X191233797Y-118332671D01*
X191233793Y-118332664D01*
X191147547Y-118217455D01*
X191147544Y-118217452D01*
X191032335Y-118131206D01*
X191032328Y-118131202D01*
X190897482Y-118080908D01*
X190897483Y-118080908D01*
X190837883Y-118074501D01*
X190837881Y-118074500D01*
X190837873Y-118074500D01*
X190837865Y-118074500D01*
X190164500Y-118074500D01*
X190097461Y-118054815D01*
X190051706Y-118002011D01*
X190040500Y-117950500D01*
X190040500Y-114497229D01*
X190060185Y-114430190D01*
X190076819Y-114409548D01*
X190759548Y-113726819D01*
X190820871Y-113693334D01*
X190847229Y-113690500D01*
X191764800Y-113690500D01*
X191831839Y-113710185D01*
X191877594Y-113762989D01*
X191887538Y-113832147D01*
X191883876Y-113849095D01*
X191852402Y-113957426D01*
X191852401Y-113957432D01*
X191849500Y-113994298D01*
X191849500Y-114425701D01*
X191852401Y-114462567D01*
X191852402Y-114462573D01*
X191898254Y-114620393D01*
X191898255Y-114620396D01*
X191981917Y-114761862D01*
X191986702Y-114768031D01*
X191984256Y-114769927D01*
X192010857Y-114818642D01*
X192005873Y-114888334D01*
X191985069Y-114920703D01*
X191986702Y-114921969D01*
X191981917Y-114928137D01*
X191898255Y-115069603D01*
X191898254Y-115069606D01*
X191852402Y-115227426D01*
X191852401Y-115227432D01*
X191849500Y-115264298D01*
X191849500Y-115695701D01*
X191852401Y-115732567D01*
X191852402Y-115732573D01*
X191898254Y-115890393D01*
X191898255Y-115890396D01*
X191981917Y-116031862D01*
X191981923Y-116031870D01*
X192098129Y-116148076D01*
X192098133Y-116148079D01*
X192098135Y-116148081D01*
X192239602Y-116231744D01*
X192281224Y-116243836D01*
X192397426Y-116277597D01*
X192397429Y-116277597D01*
X192397431Y-116277598D01*
X192434306Y-116280500D01*
X192450500Y-116280500D01*
X192517539Y-116300185D01*
X192563294Y-116352989D01*
X192574500Y-116404500D01*
X192574500Y-117163189D01*
X192572117Y-117187381D01*
X192549500Y-117301080D01*
X192549500Y-117301083D01*
X192549500Y-117448917D01*
X192549500Y-117448919D01*
X192549499Y-117448919D01*
X192578340Y-117593906D01*
X192578342Y-117593912D01*
X192634916Y-117730494D01*
X192717048Y-117853416D01*
X192717052Y-117853420D01*
X192717052Y-117853421D01*
X193321584Y-118457952D01*
X193321586Y-118457954D01*
X193335899Y-118467517D01*
X193395270Y-118507186D01*
X193444505Y-118540084D01*
X193444506Y-118540084D01*
X193444507Y-118540085D01*
X193444509Y-118540086D01*
X193581082Y-118596656D01*
X193581087Y-118596658D01*
X193581091Y-118596658D01*
X193581092Y-118596659D01*
X193726079Y-118625500D01*
X193726082Y-118625500D01*
X193726083Y-118625500D01*
X193873918Y-118625500D01*
X194772796Y-118625500D01*
X194839835Y-118645185D01*
X194860477Y-118661819D01*
X194913072Y-118714414D01*
X195053212Y-118816232D01*
X195207555Y-118894873D01*
X195372299Y-118948402D01*
X195543389Y-118975500D01*
X195543390Y-118975500D01*
X195716610Y-118975500D01*
X195716611Y-118975500D01*
X195887701Y-118948402D01*
X196052445Y-118894873D01*
X196206788Y-118816232D01*
X196346928Y-118714414D01*
X196469414Y-118591928D01*
X196571232Y-118451788D01*
X196649873Y-118297445D01*
X196703402Y-118132701D01*
X196730500Y-117961611D01*
X196730500Y-117788389D01*
X196703402Y-117617299D01*
X196649873Y-117452555D01*
X196639755Y-117432697D01*
X196626048Y-117405794D01*
X196613152Y-117337125D01*
X196639429Y-117272385D01*
X196696535Y-117232128D01*
X196736533Y-117225500D01*
X197063467Y-117225500D01*
X197130506Y-117245185D01*
X197176261Y-117297989D01*
X197186205Y-117367147D01*
X197173952Y-117405794D01*
X197150129Y-117452549D01*
X197096597Y-117617302D01*
X197069500Y-117788389D01*
X197069500Y-117961610D01*
X197096360Y-118131202D01*
X197096598Y-118132701D01*
X197143615Y-118277404D01*
X197150128Y-118297447D01*
X197168072Y-118332664D01*
X197228768Y-118451788D01*
X197330586Y-118591928D01*
X197453072Y-118714414D01*
X197593212Y-118816232D01*
X197747555Y-118894873D01*
X197912299Y-118948402D01*
X198083389Y-118975500D01*
X198083390Y-118975500D01*
X198256610Y-118975500D01*
X198256611Y-118975500D01*
X198427701Y-118948402D01*
X198592445Y-118894873D01*
X198746788Y-118816232D01*
X198886928Y-118714414D01*
X199009414Y-118591928D01*
X199111232Y-118451788D01*
X199189873Y-118297445D01*
X199243402Y-118132701D01*
X199270500Y-117961611D01*
X199270500Y-117788389D01*
X199243402Y-117617299D01*
X199189873Y-117452555D01*
X199111232Y-117298212D01*
X199009414Y-117158072D01*
X198956819Y-117105477D01*
X198923334Y-117044154D01*
X198920500Y-117017796D01*
X198920500Y-116871079D01*
X198891659Y-116726092D01*
X198891658Y-116726091D01*
X198891658Y-116726087D01*
X198838691Y-116598212D01*
X198835087Y-116589511D01*
X198835080Y-116589498D01*
X198757500Y-116473391D01*
X198736622Y-116406713D01*
X198755107Y-116339333D01*
X198807086Y-116292643D01*
X198860602Y-116280500D01*
X199165686Y-116280500D01*
X199165694Y-116280500D01*
X199202569Y-116277598D01*
X199202571Y-116277597D01*
X199202573Y-116277597D01*
X199244191Y-116265505D01*
X199360398Y-116231744D01*
X199501865Y-116148081D01*
X199618081Y-116031865D01*
X199701744Y-115890398D01*
X199747598Y-115732569D01*
X199750500Y-115695694D01*
X199750500Y-115264306D01*
X199747598Y-115227431D01*
X199744906Y-115218166D01*
X199701745Y-115069606D01*
X199701744Y-115069603D01*
X199701744Y-115069602D01*
X199618081Y-114928135D01*
X199618079Y-114928133D01*
X199618076Y-114928129D01*
X199501870Y-114811923D01*
X199501862Y-114811917D01*
X199360396Y-114728255D01*
X199360393Y-114728254D01*
X199202573Y-114682402D01*
X199202567Y-114682401D01*
X199165701Y-114679500D01*
X199165694Y-114679500D01*
X197384306Y-114679500D01*
X197384298Y-114679500D01*
X197347432Y-114682401D01*
X197347426Y-114682402D01*
X197202267Y-114724576D01*
X197167672Y-114729500D01*
X197067230Y-114729500D01*
X197000191Y-114709815D01*
X196979549Y-114693181D01*
X196686819Y-114400451D01*
X196653334Y-114339128D01*
X196650500Y-114312770D01*
X196650500Y-113664010D01*
X196651868Y-113659348D01*
X196650858Y-113654598D01*
X196661617Y-113626149D01*
X196670185Y-113596971D01*
X196673855Y-113593790D01*
X196675574Y-113589246D01*
X196700010Y-113571127D01*
X196722989Y-113551216D01*
X196727796Y-113550524D01*
X196731699Y-113547631D01*
X196762043Y-113545600D01*
X196792147Y-113541272D01*
X196797288Y-113543242D01*
G37*
%TD.AperFunction*%
%TA.AperFunction,Conductor*%
G36*
X206605701Y-115701094D02*
G01*
X206612180Y-115707126D01*
X207210325Y-116305272D01*
X207210328Y-116305274D01*
X207210331Y-116305277D01*
X207218394Y-116310664D01*
X207263198Y-116364275D01*
X207271907Y-116433600D01*
X207241752Y-116496628D01*
X207237184Y-116501447D01*
X206607049Y-117131582D01*
X206607047Y-117131585D01*
X206589348Y-117158072D01*
X206589349Y-117158073D01*
X206524914Y-117254508D01*
X206468343Y-117391082D01*
X206468340Y-117391092D01*
X206439500Y-117536079D01*
X206439500Y-117536082D01*
X206439500Y-123908918D01*
X206439500Y-123908920D01*
X206439499Y-123908920D01*
X206468340Y-124053907D01*
X206468343Y-124053917D01*
X206524913Y-124190490D01*
X206524914Y-124190491D01*
X206524916Y-124190495D01*
X206530936Y-124199504D01*
X206530937Y-124199507D01*
X206607046Y-124313414D01*
X206607052Y-124313421D01*
X208593181Y-126299549D01*
X208626666Y-126360872D01*
X208629500Y-126387230D01*
X208629500Y-130478918D01*
X208629500Y-130478920D01*
X208629499Y-130478920D01*
X208658340Y-130623907D01*
X208658343Y-130623917D01*
X208714914Y-130760491D01*
X208714916Y-130760495D01*
X208732237Y-130786418D01*
X208732236Y-130786418D01*
X208796755Y-130882977D01*
X208797048Y-130883416D01*
X208933951Y-131020319D01*
X208967436Y-131081641D01*
X208962452Y-131151333D01*
X208920581Y-131207267D01*
X208855116Y-131231684D01*
X208846270Y-131232000D01*
X208499730Y-131232000D01*
X208432691Y-131212315D01*
X208412049Y-131195681D01*
X207426819Y-130210451D01*
X207393334Y-130149128D01*
X207390500Y-130122770D01*
X207390500Y-125921079D01*
X207382825Y-125882500D01*
X207376053Y-125848453D01*
X207361659Y-125776088D01*
X207313538Y-125659916D01*
X207305084Y-125639505D01*
X207242996Y-125546584D01*
X207242994Y-125546581D01*
X207222954Y-125516587D01*
X207222952Y-125516585D01*
X205986819Y-124280451D01*
X205953334Y-124219128D01*
X205950500Y-124192770D01*
X205950500Y-116828138D01*
X205970185Y-116761099D01*
X206009401Y-116722600D01*
X206118656Y-116655212D01*
X206242712Y-116531156D01*
X206334814Y-116381834D01*
X206389999Y-116215297D01*
X206400500Y-116112509D01*
X206400499Y-115794805D01*
X206420183Y-115727768D01*
X206472987Y-115682013D01*
X206542146Y-115672069D01*
X206605701Y-115701094D01*
G37*
%TD.AperFunction*%
%TA.AperFunction,Conductor*%
G36*
X207656384Y-93122825D02*
G01*
X207668726Y-93123708D01*
X207687312Y-93137622D01*
X207708254Y-93147641D01*
X207714755Y-93158166D01*
X207724659Y-93165580D01*
X207732771Y-93187330D01*
X207744974Y-93207084D01*
X207744753Y-93219454D01*
X207749076Y-93231044D01*
X207744141Y-93253727D01*
X207743727Y-93276942D01*
X207735226Y-93294710D01*
X207734224Y-93299317D01*
X207728495Y-93308780D01*
X207701989Y-93348448D01*
X207701983Y-93348459D01*
X207634106Y-93512332D01*
X207634103Y-93512341D01*
X207599500Y-93686304D01*
X207599500Y-93863695D01*
X207634103Y-94037658D01*
X207634106Y-94037667D01*
X207701983Y-94201540D01*
X207701990Y-94201553D01*
X207800535Y-94349034D01*
X207800538Y-94349038D01*
X207925961Y-94474461D01*
X207925965Y-94474464D01*
X208073446Y-94573009D01*
X208073459Y-94573016D01*
X208150106Y-94604763D01*
X208237334Y-94640894D01*
X208284318Y-94650239D01*
X208346227Y-94682622D01*
X208347807Y-94684175D01*
X209147049Y-95483416D01*
X209251584Y-95587951D01*
X209251587Y-95587953D01*
X209251588Y-95587954D01*
X209374503Y-95670083D01*
X209374506Y-95670085D01*
X209418627Y-95688360D01*
X209431080Y-95693518D01*
X209511088Y-95726659D01*
X209627241Y-95749763D01*
X209650380Y-95754365D01*
X209656081Y-95755500D01*
X209656082Y-95755500D01*
X209656083Y-95755500D01*
X209803918Y-95755500D01*
X209858771Y-95755500D01*
X209925810Y-95775185D01*
X209971565Y-95827989D01*
X209981509Y-95897147D01*
X209952484Y-95960703D01*
X209946452Y-95967181D01*
X208417047Y-97496584D01*
X208417045Y-97496586D01*
X208387444Y-97540891D01*
X208387442Y-97540894D01*
X208334914Y-97619507D01*
X208278343Y-97756082D01*
X208278340Y-97756092D01*
X208249500Y-97901079D01*
X208249500Y-112946862D01*
X208246625Y-112956653D01*
X208247890Y-112966779D01*
X208236947Y-112989612D01*
X208229815Y-113013901D01*
X208221300Y-113022259D01*
X208217693Y-113029787D01*
X208190596Y-113052401D01*
X208115780Y-113098547D01*
X208048387Y-113116987D01*
X207981724Y-113096064D01*
X207936955Y-113042421D01*
X207936167Y-113040567D01*
X207898013Y-112948453D01*
X207898011Y-112948450D01*
X207898009Y-112948446D01*
X207799464Y-112800965D01*
X207799461Y-112800961D01*
X207674038Y-112675538D01*
X207674034Y-112675535D01*
X207526553Y-112576990D01*
X207526540Y-112576983D01*
X207362667Y-112509106D01*
X207362658Y-112509103D01*
X207188694Y-112474500D01*
X207188691Y-112474500D01*
X207011309Y-112474500D01*
X207011306Y-112474500D01*
X206837341Y-112509103D01*
X206837332Y-112509106D01*
X206673459Y-112576983D01*
X206673446Y-112576990D01*
X206525965Y-112675535D01*
X206525961Y-112675538D01*
X206400538Y-112800961D01*
X206400535Y-112800965D01*
X206301990Y-112948446D01*
X206301985Y-112948455D01*
X206263876Y-113040461D01*
X206220035Y-113094864D01*
X206153741Y-113116929D01*
X206086042Y-113099650D01*
X206084219Y-113098547D01*
X205969340Y-113027689D01*
X205969335Y-113027687D01*
X205969334Y-113027686D01*
X205802797Y-112972501D01*
X205802795Y-112972500D01*
X205700010Y-112962000D01*
X204699998Y-112962000D01*
X204699980Y-112962001D01*
X204597203Y-112972500D01*
X204597200Y-112972501D01*
X204430668Y-113027685D01*
X204430663Y-113027687D01*
X204281342Y-113119789D01*
X204157289Y-113243842D01*
X204065187Y-113393163D01*
X204065185Y-113393168D01*
X204047111Y-113447712D01*
X204010001Y-113559703D01*
X204010001Y-113559704D01*
X204010000Y-113559704D01*
X203999500Y-113662483D01*
X203999500Y-113662491D01*
X203999500Y-113916092D01*
X203999501Y-114100500D01*
X203979817Y-114167539D01*
X203927013Y-114213294D01*
X203875501Y-114224500D01*
X202674500Y-114224500D01*
X202607461Y-114204815D01*
X202561706Y-114152011D01*
X202550500Y-114100500D01*
X202550500Y-113410928D01*
X202525502Y-113285261D01*
X202525501Y-113285260D01*
X202525501Y-113285256D01*
X202476465Y-113166873D01*
X202469258Y-113156087D01*
X202469258Y-113156086D01*
X202405277Y-113060331D01*
X202405271Y-113060324D01*
X200509673Y-111164726D01*
X200509669Y-111164723D01*
X200403127Y-111093535D01*
X200372570Y-111080878D01*
X200284744Y-111044499D01*
X200284739Y-111044498D01*
X200242965Y-111036188D01*
X200181055Y-111003802D01*
X200146481Y-110943086D01*
X200150222Y-110873317D01*
X200179475Y-110826892D01*
X200682952Y-110323416D01*
X200747340Y-110227051D01*
X200765084Y-110200495D01*
X200788518Y-110143920D01*
X200821659Y-110063912D01*
X200850500Y-109918917D01*
X200850500Y-109771082D01*
X200850500Y-97349361D01*
X200870185Y-97282322D01*
X200886816Y-97261682D01*
X200899464Y-97249035D01*
X200998013Y-97101547D01*
X201065894Y-96937666D01*
X201100500Y-96763691D01*
X201100500Y-96586309D01*
X201100500Y-96586306D01*
X201100499Y-96586304D01*
X201065896Y-96412341D01*
X201065893Y-96412332D01*
X200998016Y-96248459D01*
X200998009Y-96248446D01*
X200964563Y-96198391D01*
X200943685Y-96131714D01*
X200962169Y-96064334D01*
X201014148Y-96017643D01*
X201067665Y-96005500D01*
X204368543Y-96005500D01*
X204410380Y-95997177D01*
X204519179Y-95975536D01*
X204561836Y-95967051D01*
X204615165Y-95944961D01*
X204743914Y-95891632D01*
X204907782Y-95782139D01*
X205047139Y-95642782D01*
X205047139Y-95642780D01*
X205057347Y-95632573D01*
X205057348Y-95632570D01*
X207537711Y-93152208D01*
X207558084Y-93141084D01*
X207575901Y-93126194D01*
X207588177Y-93124652D01*
X207599034Y-93118724D01*
X207622191Y-93120380D01*
X207645226Y-93117487D01*
X207656384Y-93122825D01*
G37*
%TD.AperFunction*%
%TA.AperFunction,Conductor*%
G36*
X199399374Y-96025185D02*
G01*
X199445129Y-96077989D01*
X199455073Y-96147147D01*
X199435437Y-96198391D01*
X199401990Y-96248446D01*
X199401983Y-96248459D01*
X199334106Y-96412332D01*
X199334103Y-96412341D01*
X199299500Y-96586304D01*
X199299500Y-96763695D01*
X199334104Y-96937658D01*
X199334106Y-96937666D01*
X199340061Y-96952042D01*
X199349500Y-96999495D01*
X199349500Y-109482770D01*
X199329815Y-109549809D01*
X199313181Y-109570451D01*
X198050451Y-110833181D01*
X197989128Y-110866666D01*
X197962770Y-110869500D01*
X197574500Y-110869500D01*
X197507461Y-110849815D01*
X197461706Y-110797011D01*
X197450500Y-110745500D01*
X197450500Y-109637229D01*
X197470185Y-109570190D01*
X197486819Y-109549548D01*
X198025615Y-109010752D01*
X198582952Y-108453415D01*
X198610205Y-108412627D01*
X198665084Y-108330495D01*
X198692420Y-108264500D01*
X198721659Y-108193912D01*
X198750500Y-108048917D01*
X198750500Y-107901082D01*
X198750500Y-98310269D01*
X198770185Y-98243230D01*
X198771398Y-98241378D01*
X198798013Y-98201547D01*
X198865894Y-98037666D01*
X198900500Y-97863691D01*
X198900500Y-97686309D01*
X198900500Y-97686306D01*
X198900499Y-97686304D01*
X198865896Y-97512341D01*
X198865893Y-97512332D01*
X198798016Y-97348459D01*
X198798009Y-97348446D01*
X198699464Y-97200965D01*
X198699461Y-97200961D01*
X198574038Y-97075538D01*
X198574034Y-97075535D01*
X198426553Y-96976990D01*
X198426540Y-96976983D01*
X198262667Y-96909106D01*
X198262658Y-96909103D01*
X198088694Y-96874500D01*
X198088691Y-96874500D01*
X197911309Y-96874500D01*
X197911306Y-96874500D01*
X197737341Y-96909103D01*
X197737332Y-96909106D01*
X197573459Y-96976983D01*
X197573446Y-96976990D01*
X197425965Y-97075535D01*
X197425961Y-97075538D01*
X197300538Y-97200961D01*
X197300535Y-97200965D01*
X197201990Y-97348446D01*
X197201983Y-97348459D01*
X197134106Y-97512332D01*
X197134103Y-97512341D01*
X197099500Y-97686304D01*
X197099500Y-97863695D01*
X197134103Y-98037658D01*
X197134106Y-98037667D01*
X197201984Y-98201542D01*
X197201985Y-98201543D01*
X197201987Y-98201547D01*
X197228602Y-98241378D01*
X197249480Y-98308055D01*
X197249500Y-98310269D01*
X197249500Y-107612769D01*
X197229815Y-107679808D01*
X197213181Y-107700450D01*
X196117050Y-108796580D01*
X196117044Y-108796588D01*
X196067812Y-108870270D01*
X196067801Y-108870287D01*
X196067160Y-108871246D01*
X196013541Y-108916043D01*
X195944215Y-108924739D01*
X195881192Y-108894575D01*
X195876388Y-108890020D01*
X194653413Y-107667045D01*
X194604179Y-107634150D01*
X194571355Y-107612218D01*
X194530495Y-107584916D01*
X194530494Y-107584915D01*
X194530492Y-107584914D01*
X194530490Y-107584913D01*
X194393917Y-107528343D01*
X194393907Y-107528340D01*
X194248920Y-107499500D01*
X194248918Y-107499500D01*
X194089783Y-107499500D01*
X194072417Y-107494400D01*
X194054317Y-107494320D01*
X194039588Y-107484761D01*
X194022744Y-107479815D01*
X194010892Y-107466137D01*
X193995708Y-107456283D01*
X193988484Y-107440278D01*
X193976989Y-107427011D01*
X193974413Y-107409097D01*
X193966967Y-107392598D01*
X193969543Y-107375229D01*
X193967045Y-107357853D01*
X193974563Y-107341388D01*
X193977220Y-107323485D01*
X193993202Y-107300574D01*
X193996070Y-107294297D01*
X193996434Y-107293879D01*
X193999161Y-107290759D01*
X194077140Y-107212781D01*
X194104419Y-107171953D01*
X194186632Y-107048914D01*
X194224341Y-106957874D01*
X194262052Y-106866835D01*
X194300500Y-106673540D01*
X194300500Y-106476460D01*
X194300500Y-96376459D01*
X194277400Y-96260331D01*
X194262051Y-96183164D01*
X194255611Y-96167617D01*
X194253307Y-96157779D01*
X194254707Y-96132581D01*
X194252009Y-96107485D01*
X194256613Y-96098286D01*
X194257184Y-96088017D01*
X194271985Y-96067576D01*
X194283283Y-96045005D01*
X194292129Y-96039756D01*
X194298162Y-96031425D01*
X194321666Y-96022230D01*
X194343372Y-96009352D01*
X194359894Y-96007276D01*
X194363230Y-96005972D01*
X194365942Y-96006517D01*
X194374039Y-96005500D01*
X199332335Y-96005500D01*
X199399374Y-96025185D01*
G37*
%TD.AperFunction*%
%TA.AperFunction,Conductor*%
G36*
X232442539Y-44295185D02*
G01*
X232488294Y-44347989D01*
X232499500Y-44399500D01*
X232499500Y-76190217D01*
X232479815Y-76257256D01*
X232427011Y-76303011D01*
X232357853Y-76312955D01*
X232294297Y-76283930D01*
X232287819Y-76277898D01*
X231730604Y-75720683D01*
X231697119Y-75659360D01*
X231696668Y-75657193D01*
X231664147Y-75493703D01*
X231662051Y-75483165D01*
X231637185Y-75423132D01*
X231586635Y-75301092D01*
X231586628Y-75301079D01*
X231473755Y-75132153D01*
X231475278Y-75131135D01*
X231451331Y-75074723D01*
X231450500Y-75060389D01*
X231450500Y-68711079D01*
X231421659Y-68566092D01*
X231421658Y-68566091D01*
X231421658Y-68566087D01*
X231374036Y-68451116D01*
X231365087Y-68429511D01*
X231365080Y-68429498D01*
X231282952Y-68306585D01*
X231282951Y-68306584D01*
X231178416Y-68202049D01*
X230408421Y-67432052D01*
X230408414Y-67432046D01*
X230334729Y-67382812D01*
X230334729Y-67382813D01*
X230285491Y-67349913D01*
X230148917Y-67293343D01*
X230148907Y-67293340D01*
X230003920Y-67264500D01*
X230003918Y-67264500D01*
X224952229Y-67264500D01*
X224885190Y-67244815D01*
X224864548Y-67228181D01*
X224686819Y-67050451D01*
X224672115Y-67023523D01*
X224655523Y-66997705D01*
X224654631Y-66991504D01*
X224653334Y-66989128D01*
X224650500Y-66962770D01*
X224650500Y-66725638D01*
X224670185Y-66658599D01*
X224709401Y-66620100D01*
X224818656Y-66552712D01*
X224942712Y-66428656D01*
X225034814Y-66279334D01*
X225089999Y-66112797D01*
X225100500Y-66010009D01*
X225100499Y-65384992D01*
X225094658Y-65327816D01*
X225089999Y-65282203D01*
X225089998Y-65282200D01*
X225079178Y-65249548D01*
X225034814Y-65115666D01*
X224942712Y-64966344D01*
X224849049Y-64872681D01*
X224815564Y-64811358D01*
X224820548Y-64741666D01*
X224849049Y-64697319D01*
X224882037Y-64664331D01*
X224942712Y-64603656D01*
X225034814Y-64454334D01*
X225089999Y-64287797D01*
X225100500Y-64185009D01*
X225100499Y-63559992D01*
X225094438Y-63500663D01*
X225089999Y-63457203D01*
X225089998Y-63457200D01*
X225034814Y-63290666D01*
X224942712Y-63141344D01*
X224818656Y-63017288D01*
X224812989Y-63012807D01*
X224814292Y-63011159D01*
X224774512Y-62966926D01*
X224763294Y-62897963D01*
X224771773Y-62865897D01*
X224795894Y-62807666D01*
X224830500Y-62633691D01*
X224830500Y-62456309D01*
X224830500Y-62456306D01*
X224830499Y-62456304D01*
X224795896Y-62282341D01*
X224795893Y-62282332D01*
X224728016Y-62118459D01*
X224728009Y-62118446D01*
X224629464Y-61970965D01*
X224629461Y-61970961D01*
X224504038Y-61845538D01*
X224504034Y-61845535D01*
X224356553Y-61746990D01*
X224356540Y-61746983D01*
X224192667Y-61679106D01*
X224192658Y-61679103D01*
X224018694Y-61644500D01*
X224018691Y-61644500D01*
X223841309Y-61644500D01*
X223841306Y-61644500D01*
X223667341Y-61679103D01*
X223667332Y-61679106D01*
X223503459Y-61746983D01*
X223503446Y-61746990D01*
X223355965Y-61845535D01*
X223355961Y-61845538D01*
X223230538Y-61970961D01*
X223230535Y-61970965D01*
X223131990Y-62118446D01*
X223131983Y-62118459D01*
X223064106Y-62282332D01*
X223064103Y-62282341D01*
X223029500Y-62456304D01*
X223029500Y-62633695D01*
X223064104Y-62807663D01*
X223064106Y-62807667D01*
X223076013Y-62836413D01*
X223083482Y-62905883D01*
X223052207Y-62968362D01*
X223026550Y-62989404D01*
X222981344Y-63017287D01*
X222857289Y-63141342D01*
X222765187Y-63290663D01*
X222765186Y-63290666D01*
X222710001Y-63457203D01*
X222710001Y-63457204D01*
X222710000Y-63457204D01*
X222699500Y-63559983D01*
X222699500Y-64185001D01*
X222699501Y-64185019D01*
X222710000Y-64287796D01*
X222710001Y-64287799D01*
X222755874Y-64426232D01*
X222765186Y-64454334D01*
X222851188Y-64593767D01*
X222857289Y-64603657D01*
X222950951Y-64697319D01*
X222984436Y-64758642D01*
X222979452Y-64828334D01*
X222950951Y-64872681D01*
X222857289Y-64966342D01*
X222765187Y-65115663D01*
X222765186Y-65115666D01*
X222710001Y-65282203D01*
X222710001Y-65282204D01*
X222710000Y-65282204D01*
X222699500Y-65384983D01*
X222699500Y-66010001D01*
X222699501Y-66010019D01*
X222710000Y-66112796D01*
X222710001Y-66112799D01*
X222745530Y-66220016D01*
X222765186Y-66279334D01*
X222857288Y-66428656D01*
X222981344Y-66552712D01*
X223090597Y-66620099D01*
X223137321Y-66672047D01*
X223149500Y-66725638D01*
X223149500Y-67398918D01*
X223149500Y-67398920D01*
X223149499Y-67398920D01*
X223178340Y-67543907D01*
X223178343Y-67543917D01*
X223234914Y-67680492D01*
X223267812Y-67729727D01*
X223267813Y-67729730D01*
X223317046Y-67803414D01*
X223317052Y-67803421D01*
X224111580Y-68597948D01*
X224111584Y-68597951D01*
X224234498Y-68680080D01*
X224234511Y-68680087D01*
X224371082Y-68736656D01*
X224371087Y-68736658D01*
X224371091Y-68736658D01*
X224371092Y-68736659D01*
X224516079Y-68765500D01*
X224516082Y-68765500D01*
X224663917Y-68765500D01*
X229567770Y-68765500D01*
X229634809Y-68785185D01*
X229655451Y-68801819D01*
X229913181Y-69059548D01*
X229946666Y-69120871D01*
X229949500Y-69147229D01*
X229949500Y-74900500D01*
X229929815Y-74967539D01*
X229877011Y-75013294D01*
X229825500Y-75024500D01*
X229380809Y-75024500D01*
X229313770Y-75004815D01*
X229293128Y-74988181D01*
X229171870Y-74866923D01*
X229171862Y-74866917D01*
X229039718Y-74788768D01*
X229030398Y-74783256D01*
X229030397Y-74783255D01*
X229030396Y-74783255D01*
X229030393Y-74783254D01*
X228872573Y-74737402D01*
X228872567Y-74737401D01*
X228835701Y-74734500D01*
X228835694Y-74734500D01*
X228404306Y-74734500D01*
X228404298Y-74734500D01*
X228367432Y-74737401D01*
X228367426Y-74737402D01*
X228209606Y-74783254D01*
X228209603Y-74783255D01*
X228068137Y-74866917D01*
X228068129Y-74866923D01*
X227951923Y-74983129D01*
X227951919Y-74983135D01*
X227868255Y-75124603D01*
X227868254Y-75124606D01*
X227822402Y-75282426D01*
X227822401Y-75282432D01*
X227819500Y-75319298D01*
X227819500Y-77100701D01*
X227822401Y-77137567D01*
X227822402Y-77137573D01*
X227868254Y-77295393D01*
X227868255Y-77295396D01*
X227868256Y-77295398D01*
X227873206Y-77303768D01*
X227951917Y-77436862D01*
X227951923Y-77436870D01*
X228068129Y-77553076D01*
X228068133Y-77553079D01*
X228068135Y-77553081D01*
X228209602Y-77636744D01*
X228251224Y-77648836D01*
X228367426Y-77682597D01*
X228367429Y-77682597D01*
X228367431Y-77682598D01*
X228404306Y-77685500D01*
X228404314Y-77685500D01*
X228835686Y-77685500D01*
X228835694Y-77685500D01*
X228872569Y-77682598D01*
X228872571Y-77682597D01*
X228872573Y-77682597D01*
X228914191Y-77670505D01*
X229030398Y-77636744D01*
X229171865Y-77553081D01*
X229288081Y-77436865D01*
X229371744Y-77295398D01*
X229417598Y-77137569D01*
X229420500Y-77100694D01*
X229420500Y-76649500D01*
X229423050Y-76640814D01*
X229421762Y-76631853D01*
X229432740Y-76607812D01*
X229440185Y-76582461D01*
X229447025Y-76576533D01*
X229450787Y-76568297D01*
X229473021Y-76554007D01*
X229492989Y-76536706D01*
X229503503Y-76534418D01*
X229509565Y-76530523D01*
X229544500Y-76525500D01*
X229711398Y-76525500D01*
X229778437Y-76545185D01*
X229814500Y-76580609D01*
X229922859Y-76742780D01*
X229922860Y-76742781D01*
X229922861Y-76742782D01*
X230062218Y-76882139D01*
X230062219Y-76882139D01*
X230069286Y-76889206D01*
X230069285Y-76889206D01*
X230069289Y-76889209D01*
X230963181Y-77783101D01*
X230996666Y-77844424D01*
X230999500Y-77870782D01*
X230999500Y-80491869D01*
X230979815Y-80558908D01*
X230927011Y-80604663D01*
X230857853Y-80614607D01*
X230794297Y-80585582D01*
X230757569Y-80530188D01*
X230719408Y-80412742D01*
X230640801Y-80258471D01*
X230636290Y-80252262D01*
X230636289Y-80252261D01*
X229994854Y-80893698D01*
X230000000Y-80874496D01*
X230000000Y-80795504D01*
X229979556Y-80719204D01*
X229940060Y-80650795D01*
X229884205Y-80594940D01*
X229815796Y-80555444D01*
X229739496Y-80535000D01*
X229660504Y-80535000D01*
X229584204Y-80555444D01*
X229515795Y-80594940D01*
X229459940Y-80650795D01*
X229420444Y-80719204D01*
X229400000Y-80795504D01*
X229400000Y-80874496D01*
X229420444Y-80950796D01*
X229459940Y-81019205D01*
X229515795Y-81075060D01*
X229584204Y-81114556D01*
X229660504Y-81135000D01*
X229739496Y-81135000D01*
X229758698Y-81129854D01*
X229140370Y-81748181D01*
X229079047Y-81781666D01*
X229052689Y-81784500D01*
X225777754Y-81784500D01*
X225710715Y-81764815D01*
X225664960Y-81712011D01*
X225655016Y-81642853D01*
X225672215Y-81595403D01*
X225759356Y-81454124D01*
X225759358Y-81454119D01*
X225814505Y-81287697D01*
X225814506Y-81287690D01*
X225824999Y-81184986D01*
X225825000Y-81184973D01*
X225825000Y-81135000D01*
X223375001Y-81135000D01*
X223375001Y-81184986D01*
X223385494Y-81287697D01*
X223440641Y-81454119D01*
X223440643Y-81454124D01*
X223527785Y-81595403D01*
X223546225Y-81662796D01*
X223525302Y-81729459D01*
X223471660Y-81774229D01*
X223422246Y-81784500D01*
X222805782Y-81784500D01*
X222738743Y-81764815D01*
X222718101Y-81748181D01*
X221718349Y-80748428D01*
X228600000Y-80748428D01*
X228600000Y-80921571D01*
X228627085Y-81092584D01*
X228680592Y-81257259D01*
X228759196Y-81411525D01*
X228763709Y-81417736D01*
X228763709Y-81417737D01*
X229346446Y-80835001D01*
X229346446Y-80834999D01*
X228763709Y-80252261D01*
X228763708Y-80252261D01*
X228759203Y-80258463D01*
X228759193Y-80258480D01*
X228680592Y-80412740D01*
X228627085Y-80577415D01*
X228600000Y-80748428D01*
X221718349Y-80748428D01*
X221639466Y-80669545D01*
X221577784Y-80607863D01*
X221577780Y-80607860D01*
X221543587Y-80585013D01*
X223375000Y-80585013D01*
X223375000Y-80635000D01*
X224350000Y-80635000D01*
X224850000Y-80635000D01*
X225824999Y-80635000D01*
X225824999Y-80585028D01*
X225824998Y-80585013D01*
X225814505Y-80482302D01*
X225759358Y-80315880D01*
X225759356Y-80315875D01*
X225667315Y-80166654D01*
X225543347Y-80042686D01*
X225543342Y-80042682D01*
X225394124Y-79950643D01*
X225394119Y-79950641D01*
X225237396Y-79898708D01*
X229117261Y-79898708D01*
X229117261Y-79898709D01*
X229700000Y-80481446D01*
X229700001Y-80481446D01*
X230282737Y-79898709D01*
X230276525Y-79894196D01*
X230122259Y-79815592D01*
X229957584Y-79762085D01*
X229786571Y-79735000D01*
X229613429Y-79735000D01*
X229442415Y-79762085D01*
X229277740Y-79815592D01*
X229123480Y-79894193D01*
X229123463Y-79894203D01*
X229117261Y-79898708D01*
X225237396Y-79898708D01*
X225227697Y-79895494D01*
X225227690Y-79895493D01*
X225124986Y-79885000D01*
X224850000Y-79885000D01*
X224850000Y-80635000D01*
X224350000Y-80635000D01*
X224350000Y-79885000D01*
X224075029Y-79885000D01*
X224075012Y-79885001D01*
X223972302Y-79895494D01*
X223805880Y-79950641D01*
X223805875Y-79950643D01*
X223656654Y-80042684D01*
X223532684Y-80166654D01*
X223440643Y-80315875D01*
X223440641Y-80315880D01*
X223385494Y-80482302D01*
X223385493Y-80482309D01*
X223375000Y-80585013D01*
X221543587Y-80585013D01*
X221413920Y-80498372D01*
X221413910Y-80498367D01*
X221231836Y-80422949D01*
X221231828Y-80422947D01*
X221038543Y-80384500D01*
X221038540Y-80384500D01*
X220841460Y-80384500D01*
X220841457Y-80384500D01*
X220648171Y-80422947D01*
X220648163Y-80422949D01*
X220546498Y-80465061D01*
X220499045Y-80474500D01*
X217701454Y-80474500D01*
X217669391Y-80480876D01*
X217669392Y-80480877D01*
X217508170Y-80512946D01*
X217508164Y-80512948D01*
X217326088Y-80588366D01*
X217326079Y-80588371D01*
X217162219Y-80697859D01*
X217162215Y-80697862D01*
X215306899Y-82553181D01*
X215245576Y-82586666D01*
X215219218Y-82589500D01*
X214324112Y-82589500D01*
X214257073Y-82569815D01*
X214211318Y-82517011D01*
X214201374Y-82447853D01*
X214202494Y-82441311D01*
X214203000Y-82438766D01*
X214203000Y-82271232D01*
X214202999Y-82271228D01*
X214186941Y-82190498D01*
X214170316Y-82106918D01*
X214108222Y-81957011D01*
X214106204Y-81952139D01*
X214013126Y-81812837D01*
X213894662Y-81694373D01*
X213755360Y-81601295D01*
X213600582Y-81537184D01*
X213600574Y-81537182D01*
X213436271Y-81504500D01*
X213436267Y-81504500D01*
X213268733Y-81504500D01*
X213268728Y-81504500D01*
X213104425Y-81537182D01*
X213104417Y-81537184D01*
X212949639Y-81601295D01*
X212810337Y-81694373D01*
X212691873Y-81812837D01*
X212598795Y-81952139D01*
X212534684Y-82106917D01*
X212534682Y-82106925D01*
X212502000Y-82271228D01*
X212502000Y-82438766D01*
X212502506Y-82441311D01*
X212502384Y-82442670D01*
X212502597Y-82444830D01*
X212502187Y-82444870D01*
X212496277Y-82510902D01*
X212453413Y-82566079D01*
X212387523Y-82589322D01*
X212380888Y-82589500D01*
X211116454Y-82589500D01*
X211084391Y-82595876D01*
X211084392Y-82595877D01*
X210923170Y-82627946D01*
X210923164Y-82627948D01*
X210741088Y-82703366D01*
X210741079Y-82703371D01*
X210577219Y-82812859D01*
X210577215Y-82812862D01*
X208677238Y-84712841D01*
X208097220Y-85292859D01*
X208097218Y-85292861D01*
X208027538Y-85362540D01*
X207957859Y-85432219D01*
X207848371Y-85596079D01*
X207848364Y-85596092D01*
X207772950Y-85778160D01*
X207772947Y-85778170D01*
X207734500Y-85971456D01*
X207734500Y-90074217D01*
X207714815Y-90141256D01*
X207698181Y-90161898D01*
X203891899Y-93968181D01*
X203830576Y-94001666D01*
X203804218Y-94004500D01*
X189518199Y-94004500D01*
X189451160Y-93984815D01*
X189445314Y-93980818D01*
X189382908Y-93935478D01*
X189382907Y-93935477D01*
X189382905Y-93935476D01*
X189300228Y-93893350D01*
X189207528Y-93846117D01*
X189196907Y-93842666D01*
X189139233Y-93803226D01*
X189112037Y-93738866D01*
X189123954Y-93670020D01*
X189171200Y-93618546D01*
X189196918Y-93606803D01*
X189207335Y-93603418D01*
X189382643Y-93514095D01*
X189541821Y-93398444D01*
X189680944Y-93259321D01*
X189796595Y-93100143D01*
X189885918Y-92924837D01*
X189946718Y-92737716D01*
X189953484Y-92695000D01*
X188925982Y-92695000D01*
X188936611Y-92676591D01*
X188977500Y-92523991D01*
X188977500Y-92366009D01*
X188936611Y-92213409D01*
X188925982Y-92195000D01*
X189953484Y-92195000D01*
X189946718Y-92152283D01*
X189885918Y-91965162D01*
X189796595Y-91789856D01*
X189680944Y-91630678D01*
X189541821Y-91491555D01*
X189382643Y-91375904D01*
X189207335Y-91286581D01*
X189020205Y-91225778D01*
X188825882Y-91195000D01*
X188627500Y-91195000D01*
X188627500Y-91896517D01*
X188609091Y-91885889D01*
X188456491Y-91845000D01*
X188298509Y-91845000D01*
X188145909Y-91885889D01*
X188127500Y-91896517D01*
X188127500Y-91195000D01*
X187929118Y-91195000D01*
X187734794Y-91225778D01*
X187547664Y-91286581D01*
X187372356Y-91375904D01*
X187213178Y-91491555D01*
X187074055Y-91630678D01*
X186958404Y-91789856D01*
X186869081Y-91965162D01*
X186808281Y-92152283D01*
X186801516Y-92195000D01*
X187829018Y-92195000D01*
X187818389Y-92213409D01*
X187777500Y-92366009D01*
X187777500Y-92523991D01*
X187818389Y-92676591D01*
X187829018Y-92695000D01*
X186801516Y-92695000D01*
X186808281Y-92737716D01*
X186869081Y-92924837D01*
X186958404Y-93100143D01*
X187074055Y-93259321D01*
X187213178Y-93398444D01*
X187372356Y-93514095D01*
X187547661Y-93603417D01*
X187558083Y-93606803D01*
X187615760Y-93646239D01*
X187642961Y-93710596D01*
X187631050Y-93779443D01*
X187583808Y-93830921D01*
X187558095Y-93842665D01*
X187547472Y-93846117D01*
X187372094Y-93935476D01*
X187309687Y-93980818D01*
X187212854Y-94051172D01*
X187212852Y-94051174D01*
X187212851Y-94051174D01*
X187073674Y-94190351D01*
X187073674Y-94190352D01*
X187073672Y-94190354D01*
X187041369Y-94234815D01*
X186957976Y-94349594D01*
X186868617Y-94524970D01*
X186807790Y-94712173D01*
X186777000Y-94906577D01*
X186777000Y-95103422D01*
X186807790Y-95297826D01*
X186868617Y-95485029D01*
X186943792Y-95632567D01*
X186957976Y-95660405D01*
X187073672Y-95819646D01*
X187212854Y-95958828D01*
X187372095Y-96074524D01*
X187398577Y-96088017D01*
X187547470Y-96163882D01*
X187547472Y-96163882D01*
X187547475Y-96163884D01*
X187647817Y-96196487D01*
X187734673Y-96224709D01*
X187929078Y-96255500D01*
X187929083Y-96255500D01*
X188825922Y-96255500D01*
X189020326Y-96224709D01*
X189207525Y-96163884D01*
X189382905Y-96074524D01*
X189411396Y-96053823D01*
X189445314Y-96029182D01*
X189511120Y-96005702D01*
X189518199Y-96005500D01*
X191364218Y-96005500D01*
X191431257Y-96025185D01*
X191451899Y-96041819D01*
X192263181Y-96853101D01*
X192296666Y-96914424D01*
X192299500Y-96940782D01*
X192299500Y-99895145D01*
X192279815Y-99962184D01*
X192227011Y-100007939D01*
X192157853Y-100017883D01*
X192110406Y-100000685D01*
X192094131Y-99990647D01*
X192094119Y-99990641D01*
X191927697Y-99935494D01*
X191927690Y-99935493D01*
X191824986Y-99925000D01*
X191550000Y-99925000D01*
X191550000Y-100801000D01*
X191530315Y-100868039D01*
X191477511Y-100913794D01*
X191426000Y-100925000D01*
X191300000Y-100925000D01*
X191300000Y-101051000D01*
X191280315Y-101118039D01*
X191227511Y-101163794D01*
X191176000Y-101175000D01*
X190075001Y-101175000D01*
X190075001Y-101224986D01*
X190085494Y-101327697D01*
X190140641Y-101494119D01*
X190140643Y-101494124D01*
X190227785Y-101635403D01*
X190246225Y-101702796D01*
X190225302Y-101769459D01*
X190171660Y-101814229D01*
X190122246Y-101824500D01*
X188951458Y-101824500D01*
X188902314Y-101834275D01*
X188902302Y-101834278D01*
X188898668Y-101835001D01*
X188758164Y-101862949D01*
X188706133Y-101884501D01*
X188698312Y-101887740D01*
X188698306Y-101887742D01*
X188576092Y-101938364D01*
X188576079Y-101938371D01*
X188412219Y-102047859D01*
X188342540Y-102117538D01*
X188272861Y-102187218D01*
X188272858Y-102187221D01*
X187762221Y-102697858D01*
X187762218Y-102697861D01*
X187692538Y-102767540D01*
X187622859Y-102837219D01*
X187513371Y-103001080D01*
X187513364Y-103001093D01*
X187479274Y-103083397D01*
X187479274Y-103083399D01*
X187437948Y-103183166D01*
X187437217Y-103186842D01*
X187399500Y-103376454D01*
X187399500Y-103975500D01*
X187379815Y-104042539D01*
X187327011Y-104088294D01*
X187275500Y-104099500D01*
X181610782Y-104099500D01*
X181543743Y-104079815D01*
X181523101Y-104063181D01*
X179976819Y-102516899D01*
X179943334Y-102455576D01*
X179940500Y-102429218D01*
X179940500Y-100625013D01*
X190075000Y-100625013D01*
X190075000Y-100675000D01*
X191050000Y-100675000D01*
X191050000Y-99925000D01*
X190775029Y-99925000D01*
X190775012Y-99925001D01*
X190672302Y-99935494D01*
X190505880Y-99990641D01*
X190505875Y-99990643D01*
X190356654Y-100082684D01*
X190232684Y-100206654D01*
X190140643Y-100355875D01*
X190140641Y-100355880D01*
X190085494Y-100522302D01*
X190085493Y-100522309D01*
X190075000Y-100625013D01*
X179940500Y-100625013D01*
X179940500Y-91139500D01*
X179960185Y-91072461D01*
X180012989Y-91026706D01*
X180064500Y-91015500D01*
X180540005Y-91015500D01*
X180540010Y-91015500D01*
X180642798Y-91004999D01*
X180809335Y-90949814D01*
X180958656Y-90857712D01*
X181082712Y-90733656D01*
X181174814Y-90584335D01*
X181229999Y-90417798D01*
X181240500Y-90315010D01*
X181240500Y-89871228D01*
X187477000Y-89871228D01*
X187477000Y-90038771D01*
X187509682Y-90203074D01*
X187509684Y-90203082D01*
X187573795Y-90357860D01*
X187666873Y-90497162D01*
X187785337Y-90615626D01*
X187837719Y-90650626D01*
X187924637Y-90708703D01*
X188079418Y-90772816D01*
X188243728Y-90805499D01*
X188243732Y-90805500D01*
X188243733Y-90805500D01*
X188411268Y-90805500D01*
X188411269Y-90805499D01*
X188575582Y-90772816D01*
X188730363Y-90708703D01*
X188869662Y-90615626D01*
X188988126Y-90497162D01*
X189081203Y-90357863D01*
X189145316Y-90203082D01*
X189178000Y-90038767D01*
X189178000Y-89871233D01*
X189145316Y-89706918D01*
X189081203Y-89552137D01*
X189045622Y-89498887D01*
X188988126Y-89412837D01*
X188869662Y-89294373D01*
X188730360Y-89201295D01*
X188575582Y-89137184D01*
X188575574Y-89137182D01*
X188411271Y-89104500D01*
X188411267Y-89104500D01*
X188243733Y-89104500D01*
X188243728Y-89104500D01*
X188079425Y-89137182D01*
X188079417Y-89137184D01*
X187924639Y-89201295D01*
X187785337Y-89294373D01*
X187666873Y-89412837D01*
X187573795Y-89552139D01*
X187509684Y-89706917D01*
X187509682Y-89706925D01*
X187477000Y-89871228D01*
X181240500Y-89871228D01*
X181240500Y-88634990D01*
X181229999Y-88532202D01*
X181174814Y-88365665D01*
X181082712Y-88216344D01*
X180958656Y-88092288D01*
X180809335Y-88000186D01*
X180642798Y-87945001D01*
X180642796Y-87945000D01*
X180540017Y-87934500D01*
X180540010Y-87934500D01*
X177339990Y-87934500D01*
X177339982Y-87934500D01*
X177237203Y-87945000D01*
X177237202Y-87945001D01*
X177155236Y-87972162D01*
X177070667Y-88000185D01*
X177070662Y-88000187D01*
X176921342Y-88092289D01*
X176797289Y-88216342D01*
X176705187Y-88365662D01*
X176705185Y-88365667D01*
X176650001Y-88532203D01*
X176650000Y-88532204D01*
X176647858Y-88553178D01*
X176621462Y-88617870D01*
X176564281Y-88658021D01*
X176494470Y-88660884D01*
X176434193Y-88625550D01*
X176402588Y-88563237D01*
X176400500Y-88540575D01*
X176400500Y-87346228D01*
X187452000Y-87346228D01*
X187452000Y-87513771D01*
X187484682Y-87678074D01*
X187484684Y-87678082D01*
X187548795Y-87832860D01*
X187641873Y-87972162D01*
X187760337Y-88090626D01*
X187852994Y-88152537D01*
X187899637Y-88183703D01*
X188054418Y-88247816D01*
X188218728Y-88280499D01*
X188218732Y-88280500D01*
X188218733Y-88280500D01*
X188386268Y-88280500D01*
X188386269Y-88280499D01*
X188550582Y-88247816D01*
X188705363Y-88183703D01*
X188844662Y-88090626D01*
X188963126Y-87972162D01*
X189056203Y-87832863D01*
X189120316Y-87678082D01*
X189153000Y-87513767D01*
X189153000Y-87346233D01*
X189120316Y-87181918D01*
X189056203Y-87027137D01*
X189025037Y-86980494D01*
X188963126Y-86887837D01*
X188844662Y-86769373D01*
X188705360Y-86676295D01*
X188550582Y-86612184D01*
X188550574Y-86612182D01*
X188386271Y-86579500D01*
X188386267Y-86579500D01*
X188218733Y-86579500D01*
X188218728Y-86579500D01*
X188054425Y-86612182D01*
X188054417Y-86612184D01*
X187899639Y-86676295D01*
X187760337Y-86769373D01*
X187641873Y-86887837D01*
X187548795Y-87027139D01*
X187484684Y-87181917D01*
X187484682Y-87181925D01*
X187452000Y-87346228D01*
X176400500Y-87346228D01*
X176400500Y-84582825D01*
X176420185Y-84515786D01*
X176472989Y-84470031D01*
X176542147Y-84460087D01*
X176605703Y-84489112D01*
X176643477Y-84547890D01*
X176646973Y-84563427D01*
X176677432Y-84755736D01*
X176752360Y-84986344D01*
X176752362Y-84986347D01*
X176854578Y-85186957D01*
X176862448Y-85202401D01*
X177004966Y-85398562D01*
X177004970Y-85398567D01*
X177176432Y-85570029D01*
X177176437Y-85570033D01*
X177338552Y-85687815D01*
X177372602Y-85712554D01*
X177588653Y-85822638D01*
X177588655Y-85822639D01*
X177703959Y-85860103D01*
X177819265Y-85897568D01*
X177930186Y-85915136D01*
X178058755Y-85935500D01*
X178058760Y-85935500D01*
X179821245Y-85935500D01*
X179937347Y-85917110D01*
X180060735Y-85897568D01*
X180291347Y-85822638D01*
X180507398Y-85712554D01*
X180703569Y-85570028D01*
X180875028Y-85398569D01*
X181017554Y-85202398D01*
X181047714Y-85143203D01*
X181095688Y-85092409D01*
X181158199Y-85075500D01*
X181666600Y-85075500D01*
X181733639Y-85095185D01*
X181772136Y-85134400D01*
X181840246Y-85244822D01*
X181840975Y-85246004D01*
X181963996Y-85369025D01*
X181964000Y-85369028D01*
X182112066Y-85460357D01*
X182112069Y-85460358D01*
X182112075Y-85460362D01*
X182277225Y-85515087D01*
X182379152Y-85525500D01*
X182379157Y-85525500D01*
X182965843Y-85525500D01*
X182965848Y-85525500D01*
X183067775Y-85515087D01*
X183232925Y-85460362D01*
X183381003Y-85369026D01*
X183504026Y-85246003D01*
X183504755Y-85244821D01*
X183505466Y-85244181D01*
X183508507Y-85240336D01*
X183509163Y-85240855D01*
X183556701Y-85198097D01*
X183625664Y-85186873D01*
X183689746Y-85214715D01*
X183711761Y-85240123D01*
X183711888Y-85240023D01*
X183714113Y-85242838D01*
X183715833Y-85244822D01*
X183716365Y-85245685D01*
X183716369Y-85245690D01*
X183839308Y-85368629D01*
X183987285Y-85459903D01*
X183987290Y-85459905D01*
X184152326Y-85514592D01*
X184254184Y-85524999D01*
X184254197Y-85525000D01*
X184297500Y-85525000D01*
X184797500Y-85525000D01*
X184840803Y-85525000D01*
X184840815Y-85524999D01*
X184942673Y-85514592D01*
X185107709Y-85459905D01*
X185107714Y-85459903D01*
X185255691Y-85368629D01*
X185378629Y-85245691D01*
X185469903Y-85097714D01*
X185469905Y-85097709D01*
X185524592Y-84932673D01*
X185534999Y-84830815D01*
X185535000Y-84830802D01*
X185535000Y-84786228D01*
X187452000Y-84786228D01*
X187452000Y-84953771D01*
X187484682Y-85118074D01*
X187484684Y-85118082D01*
X187548795Y-85272860D01*
X187641873Y-85412162D01*
X187760337Y-85530626D01*
X187852994Y-85592537D01*
X187899637Y-85623703D01*
X188054418Y-85687816D01*
X188218728Y-85720499D01*
X188218732Y-85720500D01*
X188218733Y-85720500D01*
X188386268Y-85720500D01*
X188386269Y-85720499D01*
X188550582Y-85687816D01*
X188705363Y-85623703D01*
X188844662Y-85530626D01*
X188963126Y-85412162D01*
X189056203Y-85272863D01*
X189120316Y-85118082D01*
X189153000Y-84953767D01*
X189153000Y-84786233D01*
X189120316Y-84621918D01*
X189056203Y-84467137D01*
X189025037Y-84420494D01*
X188963126Y-84327837D01*
X188844662Y-84209373D01*
X188705360Y-84116295D01*
X188550582Y-84052184D01*
X188550574Y-84052182D01*
X188386271Y-84019500D01*
X188386267Y-84019500D01*
X188218733Y-84019500D01*
X188218728Y-84019500D01*
X188054425Y-84052182D01*
X188054417Y-84052184D01*
X187899639Y-84116295D01*
X187760337Y-84209373D01*
X187641873Y-84327837D01*
X187548795Y-84467139D01*
X187484684Y-84621917D01*
X187484682Y-84621925D01*
X187452000Y-84786228D01*
X185535000Y-84786228D01*
X185535000Y-84575000D01*
X184797500Y-84575000D01*
X184797500Y-85525000D01*
X184297500Y-85525000D01*
X184297500Y-84075000D01*
X184797500Y-84075000D01*
X185535000Y-84075000D01*
X185535000Y-83819197D01*
X185534999Y-83819184D01*
X185524592Y-83717326D01*
X185469905Y-83552290D01*
X185469903Y-83552285D01*
X185378629Y-83404308D01*
X185255691Y-83281370D01*
X185107714Y-83190096D01*
X185107709Y-83190094D01*
X184942673Y-83135407D01*
X184840815Y-83125000D01*
X184797500Y-83125000D01*
X184797500Y-84075000D01*
X184297500Y-84075000D01*
X184297500Y-83125000D01*
X184254184Y-83125000D01*
X184152326Y-83135407D01*
X183987290Y-83190094D01*
X183987285Y-83190096D01*
X183839308Y-83281370D01*
X183716369Y-83404309D01*
X183716364Y-83404315D01*
X183715829Y-83405184D01*
X183715306Y-83405654D01*
X183711888Y-83409977D01*
X183711149Y-83409392D01*
X183663879Y-83451906D01*
X183594916Y-83463125D01*
X183530835Y-83435278D01*
X183519237Y-83424252D01*
X183511069Y-83415416D01*
X183504026Y-83403997D01*
X183457592Y-83357563D01*
X183455943Y-83355779D01*
X183441453Y-83326572D01*
X183425834Y-83297967D01*
X183425438Y-83294289D01*
X183424892Y-83293188D01*
X183425109Y-83291229D01*
X183423000Y-83271609D01*
X183423000Y-82674728D01*
X183442685Y-82607689D01*
X183459315Y-82587051D01*
X183775137Y-82271228D01*
X187477000Y-82271228D01*
X187477000Y-82438771D01*
X187509682Y-82603074D01*
X187509684Y-82603082D01*
X187573795Y-82757860D01*
X187666873Y-82897162D01*
X187785337Y-83015626D01*
X187877858Y-83077446D01*
X187924637Y-83108703D01*
X188079418Y-83172816D01*
X188243728Y-83205499D01*
X188243732Y-83205500D01*
X188243733Y-83205500D01*
X188411268Y-83205500D01*
X188411269Y-83205499D01*
X188575582Y-83172816D01*
X188730363Y-83108703D01*
X188869662Y-83015626D01*
X188988126Y-82897162D01*
X189081203Y-82757863D01*
X189145316Y-82603082D01*
X189178000Y-82438767D01*
X189178000Y-82271233D01*
X189145316Y-82106918D01*
X189083222Y-81957011D01*
X189081204Y-81952139D01*
X188988126Y-81812837D01*
X188869662Y-81694373D01*
X188730360Y-81601295D01*
X188575582Y-81537184D01*
X188575574Y-81537182D01*
X188411271Y-81504500D01*
X188411267Y-81504500D01*
X188243733Y-81504500D01*
X188243728Y-81504500D01*
X188079425Y-81537182D01*
X188079417Y-81537184D01*
X187924639Y-81601295D01*
X187785337Y-81694373D01*
X187666873Y-81812837D01*
X187573795Y-81952139D01*
X187509684Y-82106917D01*
X187509682Y-82106925D01*
X187477000Y-82271228D01*
X183775137Y-82271228D01*
X183831269Y-82215096D01*
X183892590Y-82181613D01*
X183931551Y-82179421D01*
X183937200Y-82179998D01*
X183937203Y-82179999D01*
X184039991Y-82190500D01*
X185040008Y-82190499D01*
X185040016Y-82190498D01*
X185040019Y-82190498D01*
X185096302Y-82184748D01*
X185142797Y-82179999D01*
X185309334Y-82124814D01*
X185458656Y-82032712D01*
X185582712Y-81908656D01*
X185674814Y-81759334D01*
X185729999Y-81592797D01*
X185740500Y-81490009D01*
X185740499Y-80864992D01*
X185739478Y-80855000D01*
X185729999Y-80762203D01*
X185729998Y-80762200D01*
X185723361Y-80742172D01*
X185674814Y-80595666D01*
X185582712Y-80446344D01*
X185489049Y-80352681D01*
X185455564Y-80291358D01*
X185460548Y-80221666D01*
X185489049Y-80177319D01*
X185499714Y-80166654D01*
X185582712Y-80083656D01*
X185674814Y-79934334D01*
X185729999Y-79767797D01*
X185737311Y-79696228D01*
X187477000Y-79696228D01*
X187477000Y-79863771D01*
X187509682Y-80028074D01*
X187509684Y-80028082D01*
X187573795Y-80182860D01*
X187666873Y-80322162D01*
X187785337Y-80440626D01*
X187858697Y-80489643D01*
X187924637Y-80533703D01*
X188079418Y-80597816D01*
X188243728Y-80630499D01*
X188243732Y-80630500D01*
X188243733Y-80630500D01*
X188411268Y-80630500D01*
X188411269Y-80630499D01*
X188575582Y-80597816D01*
X188730363Y-80533703D01*
X188869662Y-80440626D01*
X188988126Y-80322162D01*
X189081203Y-80182863D01*
X189145316Y-80028082D01*
X189178000Y-79863767D01*
X189178000Y-79696233D01*
X189145316Y-79531918D01*
X189081203Y-79377137D01*
X189050037Y-79330494D01*
X188988126Y-79237837D01*
X188869662Y-79119373D01*
X188730360Y-79026295D01*
X188575582Y-78962184D01*
X188575574Y-78962182D01*
X188411271Y-78929500D01*
X188411267Y-78929500D01*
X188243733Y-78929500D01*
X188243728Y-78929500D01*
X188079425Y-78962182D01*
X188079417Y-78962184D01*
X187924639Y-79026295D01*
X187785337Y-79119373D01*
X187666873Y-79237837D01*
X187573795Y-79377139D01*
X187509684Y-79531917D01*
X187509682Y-79531925D01*
X187477000Y-79696228D01*
X185737311Y-79696228D01*
X185740500Y-79665009D01*
X185740499Y-79039992D01*
X185729999Y-78937203D01*
X185674814Y-78770666D01*
X185582712Y-78621344D01*
X185582709Y-78621341D01*
X185578234Y-78615681D01*
X185580418Y-78613953D01*
X185553063Y-78563857D01*
X185558047Y-78494165D01*
X185586548Y-78449818D01*
X187314548Y-76721819D01*
X187341475Y-76707115D01*
X187367294Y-76690523D01*
X187373494Y-76689631D01*
X187375871Y-76688334D01*
X187402229Y-76685500D01*
X187442743Y-76685500D01*
X187509782Y-76705185D01*
X187555537Y-76757989D01*
X187565481Y-76827147D01*
X187557304Y-76856953D01*
X187509684Y-76971917D01*
X187509682Y-76971925D01*
X187477000Y-77136228D01*
X187477000Y-77303771D01*
X187509682Y-77468074D01*
X187509684Y-77468082D01*
X187573795Y-77622860D01*
X187666873Y-77762162D01*
X187785337Y-77880626D01*
X187837719Y-77915626D01*
X187924637Y-77973703D01*
X188079418Y-78037816D01*
X188243728Y-78070499D01*
X188243732Y-78070500D01*
X188243733Y-78070500D01*
X188411268Y-78070500D01*
X188411269Y-78070499D01*
X188575582Y-78037816D01*
X188730363Y-77973703D01*
X188869662Y-77880626D01*
X188988126Y-77762162D01*
X189081203Y-77622863D01*
X189145316Y-77468082D01*
X189178000Y-77303767D01*
X189178000Y-77136233D01*
X189145316Y-76971918D01*
X189119991Y-76910779D01*
X189097696Y-76856953D01*
X189090227Y-76787483D01*
X189121502Y-76725004D01*
X189181591Y-76689352D01*
X189212257Y-76685500D01*
X191703920Y-76685500D01*
X191821811Y-76662049D01*
X191848913Y-76656658D01*
X191985495Y-76600084D01*
X192046422Y-76559374D01*
X192108416Y-76517952D01*
X192168742Y-76457625D01*
X192173311Y-76453856D01*
X192200204Y-76442349D01*
X192225872Y-76428334D01*
X192235342Y-76427315D01*
X192237548Y-76426372D01*
X192240108Y-76426803D01*
X192252230Y-76425500D01*
X194359362Y-76425500D01*
X194426401Y-76445185D01*
X194464899Y-76484401D01*
X194532288Y-76593656D01*
X194656344Y-76717712D01*
X194805666Y-76809814D01*
X194972203Y-76864999D01*
X195074991Y-76875500D01*
X195700008Y-76875499D01*
X195700016Y-76875498D01*
X195700019Y-76875498D01*
X195756302Y-76869748D01*
X195802797Y-76864999D01*
X195969334Y-76809814D01*
X196118656Y-76717712D01*
X196212319Y-76624049D01*
X196220264Y-76619710D01*
X196225690Y-76612463D01*
X196250449Y-76603228D01*
X196273642Y-76590564D01*
X196282671Y-76591209D01*
X196291154Y-76588046D01*
X196316974Y-76593662D01*
X196343334Y-76595548D01*
X196352387Y-76601366D01*
X196359427Y-76602898D01*
X196387681Y-76624049D01*
X196425681Y-76662049D01*
X196459166Y-76723372D01*
X196462000Y-76749730D01*
X196462000Y-82161418D01*
X196462000Y-82161420D01*
X196461999Y-82161420D01*
X196490840Y-82306407D01*
X196490843Y-82306417D01*
X196547414Y-82442992D01*
X196547415Y-82442994D01*
X196547416Y-82442995D01*
X196577608Y-82488181D01*
X196580312Y-82492227D01*
X196580313Y-82492230D01*
X196629546Y-82565914D01*
X196629552Y-82565921D01*
X197600501Y-83536868D01*
X197921585Y-83857952D01*
X197933063Y-83865621D01*
X197958342Y-83882512D01*
X197958345Y-83882513D01*
X197962373Y-83885205D01*
X198044505Y-83940084D01*
X198101080Y-83963518D01*
X198181088Y-83996659D01*
X198295919Y-84019500D01*
X198316027Y-84023500D01*
X198326081Y-84025500D01*
X198326082Y-84025500D01*
X198326083Y-84025500D01*
X198473918Y-84025500D01*
X200064730Y-84025500D01*
X200131769Y-84045185D01*
X200133622Y-84046399D01*
X200173447Y-84073010D01*
X200173450Y-84073011D01*
X200173453Y-84073013D01*
X200337334Y-84140894D01*
X200337336Y-84140894D01*
X200337341Y-84140896D01*
X200511304Y-84175499D01*
X200511307Y-84175500D01*
X200511309Y-84175500D01*
X200688693Y-84175500D01*
X200688694Y-84175499D01*
X200746682Y-84163964D01*
X200862658Y-84140896D01*
X200862661Y-84140894D01*
X200862666Y-84140894D01*
X201026547Y-84073013D01*
X201174035Y-83974464D01*
X201188470Y-83960029D01*
X201237819Y-83910681D01*
X201299142Y-83877196D01*
X201368834Y-83882180D01*
X201424767Y-83924052D01*
X201449184Y-83989516D01*
X201449500Y-83998362D01*
X201449500Y-86012769D01*
X201429815Y-86079808D01*
X201413181Y-86100450D01*
X197417050Y-90096580D01*
X197417044Y-90096588D01*
X197367812Y-90170268D01*
X197367813Y-90170269D01*
X197334921Y-90219496D01*
X197334914Y-90219508D01*
X197278342Y-90356086D01*
X197278340Y-90356092D01*
X197249500Y-90501079D01*
X197249500Y-91439729D01*
X197229815Y-91506768D01*
X197228602Y-91508620D01*
X197201988Y-91548449D01*
X197201987Y-91548452D01*
X197134106Y-91712332D01*
X197134103Y-91712341D01*
X197099500Y-91886304D01*
X197099500Y-92063695D01*
X197134103Y-92237658D01*
X197134106Y-92237667D01*
X197201983Y-92401540D01*
X197201990Y-92401553D01*
X197300535Y-92549034D01*
X197300538Y-92549038D01*
X197425961Y-92674461D01*
X197425965Y-92674464D01*
X197573446Y-92773009D01*
X197573459Y-92773016D01*
X197669291Y-92812710D01*
X197737334Y-92840894D01*
X197737336Y-92840894D01*
X197737341Y-92840896D01*
X197911304Y-92875499D01*
X197911307Y-92875500D01*
X197911309Y-92875500D01*
X198088693Y-92875500D01*
X198088694Y-92875499D01*
X198146682Y-92863964D01*
X198262658Y-92840896D01*
X198262661Y-92840894D01*
X198262666Y-92840894D01*
X198426547Y-92773013D01*
X198574035Y-92674464D01*
X198699464Y-92549035D01*
X198798013Y-92401547D01*
X198865894Y-92237666D01*
X198900500Y-92063691D01*
X198900500Y-91886309D01*
X198900500Y-91886306D01*
X198900499Y-91886304D01*
X198865896Y-91712341D01*
X198865893Y-91712332D01*
X198832071Y-91630677D01*
X198798013Y-91548453D01*
X198798011Y-91548451D01*
X198798011Y-91548449D01*
X198771398Y-91508620D01*
X198750520Y-91441942D01*
X198750500Y-91439729D01*
X198750500Y-91086304D01*
X199299500Y-91086304D01*
X199299500Y-91263695D01*
X199334103Y-91437658D01*
X199334106Y-91437667D01*
X199401983Y-91601540D01*
X199401990Y-91601553D01*
X199500535Y-91749034D01*
X199500538Y-91749038D01*
X199625961Y-91874461D01*
X199625965Y-91874464D01*
X199773446Y-91973009D01*
X199773459Y-91973016D01*
X199896363Y-92023923D01*
X199937334Y-92040894D01*
X199937336Y-92040894D01*
X199937341Y-92040896D01*
X200111304Y-92075499D01*
X200111307Y-92075500D01*
X200111309Y-92075500D01*
X200288693Y-92075500D01*
X200288694Y-92075499D01*
X200348058Y-92063691D01*
X200462658Y-92040896D01*
X200462661Y-92040894D01*
X200462666Y-92040894D01*
X200626547Y-91973013D01*
X200774035Y-91874464D01*
X200899464Y-91749035D01*
X200998013Y-91601547D01*
X201065894Y-91437666D01*
X201075240Y-91390678D01*
X201107624Y-91328770D01*
X201109120Y-91327246D01*
X204582952Y-87853415D01*
X204610205Y-87812627D01*
X204665084Y-87730495D01*
X204712476Y-87616081D01*
X204721659Y-87593912D01*
X204750500Y-87448917D01*
X204750500Y-87301082D01*
X204750500Y-79731228D01*
X212452000Y-79731228D01*
X212452000Y-79898771D01*
X212484682Y-80063074D01*
X212484684Y-80063082D01*
X212548795Y-80217860D01*
X212641873Y-80357162D01*
X212760337Y-80475626D01*
X212849197Y-80535000D01*
X212899637Y-80568703D01*
X213054418Y-80632816D01*
X213218728Y-80665499D01*
X213218732Y-80665500D01*
X213218733Y-80665500D01*
X213386268Y-80665500D01*
X213386269Y-80665499D01*
X213550582Y-80632816D01*
X213705363Y-80568703D01*
X213844662Y-80475626D01*
X213963126Y-80357162D01*
X214056203Y-80217863D01*
X214120316Y-80063082D01*
X214153000Y-79898767D01*
X214153000Y-79731233D01*
X214120316Y-79566918D01*
X214056203Y-79412137D01*
X214025037Y-79365494D01*
X213963126Y-79272837D01*
X213844662Y-79154373D01*
X213705360Y-79061295D01*
X213550582Y-78997184D01*
X213550574Y-78997182D01*
X213386271Y-78964500D01*
X213386267Y-78964500D01*
X213218733Y-78964500D01*
X213218728Y-78964500D01*
X213054425Y-78997182D01*
X213054417Y-78997184D01*
X212899639Y-79061295D01*
X212760337Y-79154373D01*
X212641873Y-79272837D01*
X212548795Y-79412139D01*
X212484684Y-79566917D01*
X212484682Y-79566925D01*
X212452000Y-79731228D01*
X204750500Y-79731228D01*
X204750500Y-77171228D01*
X212452000Y-77171228D01*
X212452000Y-77338771D01*
X212484682Y-77503074D01*
X212484684Y-77503082D01*
X212548795Y-77657860D01*
X212641873Y-77797162D01*
X212760337Y-77915626D01*
X212852994Y-77977537D01*
X212899637Y-78008703D01*
X213054418Y-78072816D01*
X213218728Y-78105499D01*
X213218732Y-78105500D01*
X213218733Y-78105500D01*
X213386268Y-78105500D01*
X213386269Y-78105499D01*
X213550582Y-78072816D01*
X213705363Y-78008703D01*
X213844662Y-77915626D01*
X213963126Y-77797162D01*
X214056203Y-77657863D01*
X214120316Y-77503082D01*
X214153000Y-77338767D01*
X214153000Y-77171233D01*
X214120316Y-77006918D01*
X214056203Y-76852137D01*
X214016655Y-76792950D01*
X213963126Y-76712837D01*
X213844662Y-76594373D01*
X213705360Y-76501295D01*
X213550582Y-76437184D01*
X213550574Y-76437182D01*
X213386271Y-76404500D01*
X213386267Y-76404500D01*
X213218733Y-76404500D01*
X213218728Y-76404500D01*
X213054425Y-76437182D01*
X213054417Y-76437184D01*
X212899639Y-76501295D01*
X212760337Y-76594373D01*
X212641873Y-76712837D01*
X212548795Y-76852139D01*
X212484684Y-77006917D01*
X212484682Y-77006925D01*
X212452000Y-77171228D01*
X204750500Y-77171228D01*
X204750500Y-74656228D01*
X212477000Y-74656228D01*
X212477000Y-74823771D01*
X212509682Y-74988074D01*
X212509684Y-74988082D01*
X212573795Y-75142860D01*
X212666873Y-75282162D01*
X212785337Y-75400626D01*
X212819020Y-75423132D01*
X212924637Y-75493703D01*
X213079418Y-75557816D01*
X213243728Y-75590499D01*
X213243732Y-75590500D01*
X213243733Y-75590500D01*
X213411268Y-75590500D01*
X213411269Y-75590499D01*
X213575582Y-75557816D01*
X213730363Y-75493703D01*
X213869662Y-75400626D01*
X213950990Y-75319298D01*
X218929500Y-75319298D01*
X218929500Y-77100701D01*
X218932401Y-77137567D01*
X218932402Y-77137573D01*
X218978254Y-77295393D01*
X218978255Y-77295396D01*
X218978256Y-77295398D01*
X218983206Y-77303768D01*
X219061917Y-77436862D01*
X219061923Y-77436870D01*
X219178129Y-77553076D01*
X219178133Y-77553079D01*
X219178135Y-77553081D01*
X219319602Y-77636744D01*
X219361224Y-77648836D01*
X219477426Y-77682597D01*
X219477429Y-77682597D01*
X219477431Y-77682598D01*
X219514306Y-77685500D01*
X219514314Y-77685500D01*
X219945686Y-77685500D01*
X219945694Y-77685500D01*
X219982569Y-77682598D01*
X219982571Y-77682597D01*
X219982573Y-77682597D01*
X220024191Y-77670505D01*
X220140398Y-77636744D01*
X220281865Y-77553081D01*
X220398081Y-77436865D01*
X220481744Y-77295398D01*
X220527598Y-77137569D01*
X220530500Y-77100694D01*
X220530500Y-77084500D01*
X220550185Y-77017461D01*
X220602989Y-76971706D01*
X220654500Y-76960500D01*
X220878920Y-76960500D01*
X220976462Y-76941096D01*
X221023913Y-76931658D01*
X221160495Y-76875084D01*
X221209729Y-76842186D01*
X221283416Y-76792952D01*
X222182952Y-75893416D01*
X222232186Y-75819729D01*
X222265084Y-75770495D01*
X222321658Y-75633913D01*
X222349548Y-75493704D01*
X222350500Y-75488920D01*
X222350500Y-72150649D01*
X227820000Y-72150649D01*
X227822899Y-72187489D01*
X227822900Y-72187495D01*
X227868716Y-72345193D01*
X227868717Y-72345196D01*
X227952314Y-72486552D01*
X227952321Y-72486561D01*
X228068438Y-72602678D01*
X228068447Y-72602685D01*
X228209801Y-72686281D01*
X228367514Y-72732100D01*
X228367511Y-72732100D01*
X228369998Y-72732295D01*
X228370000Y-72732295D01*
X228870000Y-72732295D01*
X228870001Y-72732295D01*
X228872486Y-72732100D01*
X229030198Y-72686281D01*
X229171552Y-72602685D01*
X229171561Y-72602678D01*
X229287678Y-72486561D01*
X229287685Y-72486552D01*
X229371282Y-72345196D01*
X229371283Y-72345193D01*
X229417099Y-72187495D01*
X229417100Y-72187489D01*
X229419999Y-72150649D01*
X229420000Y-72150634D01*
X229420000Y-71510000D01*
X228870000Y-71510000D01*
X228870000Y-72732295D01*
X228370000Y-72732295D01*
X228370000Y-71510000D01*
X227820000Y-71510000D01*
X227820000Y-72150649D01*
X222350500Y-72150649D01*
X222350500Y-70369350D01*
X227820000Y-70369350D01*
X227820000Y-71010000D01*
X228370000Y-71010000D01*
X228870000Y-71010000D01*
X229420000Y-71010000D01*
X229420000Y-70369365D01*
X229419999Y-70369350D01*
X229417100Y-70332510D01*
X229417099Y-70332504D01*
X229371283Y-70174806D01*
X229371282Y-70174803D01*
X229287685Y-70033447D01*
X229287678Y-70033438D01*
X229171561Y-69917321D01*
X229171552Y-69917314D01*
X229030196Y-69833717D01*
X229030193Y-69833716D01*
X228872494Y-69787900D01*
X228872497Y-69787900D01*
X228870000Y-69787703D01*
X228870000Y-71010000D01*
X228370000Y-71010000D01*
X228370000Y-69787703D01*
X228367503Y-69787900D01*
X228209806Y-69833716D01*
X228209803Y-69833717D01*
X228068447Y-69917314D01*
X228068438Y-69917321D01*
X227952321Y-70033438D01*
X227952314Y-70033447D01*
X227868717Y-70174803D01*
X227868716Y-70174806D01*
X227822900Y-70332504D01*
X227822899Y-70332510D01*
X227820000Y-70369350D01*
X222350500Y-70369350D01*
X222350500Y-69860269D01*
X222370185Y-69793230D01*
X222371398Y-69791378D01*
X222373722Y-69787900D01*
X222398013Y-69751547D01*
X222465894Y-69587666D01*
X222500500Y-69413691D01*
X222500500Y-69236309D01*
X222500500Y-69236306D01*
X222500499Y-69236304D01*
X222465896Y-69062341D01*
X222465893Y-69062332D01*
X222460797Y-69050028D01*
X222398013Y-68898453D01*
X222398011Y-68898451D01*
X222398011Y-68898449D01*
X222371398Y-68858620D01*
X222350520Y-68791942D01*
X222350500Y-68789729D01*
X222350500Y-58910269D01*
X222370185Y-58843230D01*
X222371398Y-58841378D01*
X222398013Y-58801547D01*
X222465894Y-58637666D01*
X222476470Y-58584500D01*
X222500499Y-58463695D01*
X222500500Y-58463693D01*
X222500500Y-58286306D01*
X222500499Y-58286304D01*
X222465896Y-58112341D01*
X222465893Y-58112332D01*
X222398016Y-57948459D01*
X222398009Y-57948446D01*
X222299464Y-57800965D01*
X222299461Y-57800961D01*
X222174038Y-57675538D01*
X222174034Y-57675535D01*
X222026553Y-57576990D01*
X222026540Y-57576983D01*
X221862667Y-57509106D01*
X221862658Y-57509103D01*
X221688694Y-57474500D01*
X221688691Y-57474500D01*
X221511309Y-57474500D01*
X221511306Y-57474500D01*
X221337341Y-57509103D01*
X221337332Y-57509106D01*
X221173459Y-57576983D01*
X221173446Y-57576990D01*
X221025965Y-57675535D01*
X221025961Y-57675538D01*
X220900538Y-57800961D01*
X220900535Y-57800965D01*
X220801990Y-57948446D01*
X220801983Y-57948459D01*
X220734106Y-58112332D01*
X220734103Y-58112341D01*
X220699500Y-58286304D01*
X220699500Y-58463695D01*
X220734103Y-58637658D01*
X220734106Y-58637667D01*
X220801984Y-58801542D01*
X220801985Y-58801543D01*
X220801987Y-58801547D01*
X220828602Y-58841378D01*
X220849480Y-58908055D01*
X220849500Y-58910269D01*
X220849500Y-68789729D01*
X220829815Y-68856768D01*
X220828602Y-68858620D01*
X220801988Y-68898449D01*
X220801987Y-68898452D01*
X220734106Y-69062332D01*
X220734103Y-69062341D01*
X220699500Y-69236304D01*
X220699500Y-69413695D01*
X220734103Y-69587658D01*
X220734106Y-69587667D01*
X220801984Y-69751542D01*
X220801985Y-69751543D01*
X220801987Y-69751547D01*
X220825945Y-69787402D01*
X220828602Y-69791378D01*
X220849480Y-69858055D01*
X220849500Y-69860269D01*
X220849500Y-75052770D01*
X220840855Y-75082209D01*
X220834332Y-75112197D01*
X220830577Y-75117212D01*
X220829815Y-75119809D01*
X220813185Y-75140446D01*
X220740292Y-75213340D01*
X220708186Y-75245446D01*
X220646863Y-75278930D01*
X220577171Y-75273946D01*
X220521238Y-75232074D01*
X220501430Y-75192363D01*
X220481744Y-75124602D01*
X220398081Y-74983135D01*
X220398076Y-74983129D01*
X220281870Y-74866923D01*
X220281862Y-74866917D01*
X220149718Y-74788768D01*
X220140398Y-74783256D01*
X220140397Y-74783255D01*
X220140396Y-74783255D01*
X220140393Y-74783254D01*
X219982573Y-74737402D01*
X219982567Y-74737401D01*
X219945701Y-74734500D01*
X219945694Y-74734500D01*
X219514306Y-74734500D01*
X219514298Y-74734500D01*
X219477432Y-74737401D01*
X219477426Y-74737402D01*
X219319606Y-74783254D01*
X219319603Y-74783255D01*
X219178137Y-74866917D01*
X219178129Y-74866923D01*
X219061923Y-74983129D01*
X219061919Y-74983135D01*
X218978255Y-75124603D01*
X218978254Y-75124606D01*
X218932402Y-75282426D01*
X218932401Y-75282432D01*
X218929500Y-75319298D01*
X213950990Y-75319298D01*
X213988126Y-75282162D01*
X214081203Y-75142863D01*
X214145316Y-74988082D01*
X214178000Y-74823767D01*
X214178000Y-74656233D01*
X214145316Y-74491918D01*
X214081203Y-74337137D01*
X214050037Y-74290494D01*
X213988126Y-74197837D01*
X213869662Y-74079373D01*
X213730360Y-73986295D01*
X213575582Y-73922184D01*
X213575574Y-73922182D01*
X213411271Y-73889500D01*
X213411267Y-73889500D01*
X213243733Y-73889500D01*
X213243728Y-73889500D01*
X213079425Y-73922182D01*
X213079417Y-73922184D01*
X212924639Y-73986295D01*
X212785337Y-74079373D01*
X212666873Y-74197837D01*
X212573795Y-74337139D01*
X212509684Y-74491917D01*
X212509682Y-74491925D01*
X212477000Y-74656228D01*
X204750500Y-74656228D01*
X204750500Y-72337230D01*
X204770185Y-72270191D01*
X204786819Y-72249549D01*
X206639549Y-70396819D01*
X206700872Y-70363334D01*
X206727230Y-70360500D01*
X211938886Y-70360500D01*
X212005925Y-70380185D01*
X212039202Y-70411612D01*
X212048672Y-70424646D01*
X212187854Y-70563828D01*
X212347095Y-70679524D01*
X212402747Y-70707880D01*
X212522470Y-70768882D01*
X212522472Y-70768882D01*
X212522475Y-70768884D01*
X212532280Y-70772070D01*
X212589954Y-70811507D01*
X212617152Y-70875866D01*
X212605237Y-70944712D01*
X212557992Y-70996188D01*
X212532283Y-71007929D01*
X212527769Y-71009395D01*
X212522470Y-71011117D01*
X212347094Y-71100476D01*
X212256241Y-71166485D01*
X212187854Y-71216172D01*
X212187852Y-71216174D01*
X212187851Y-71216174D01*
X212048674Y-71355351D01*
X212048674Y-71355352D01*
X212048672Y-71355354D01*
X212016369Y-71399815D01*
X211932976Y-71514594D01*
X211843617Y-71689970D01*
X211782790Y-71877173D01*
X211752000Y-72071577D01*
X211752000Y-72268422D01*
X211782790Y-72462826D01*
X211843617Y-72650029D01*
X211921145Y-72802186D01*
X211932976Y-72825405D01*
X212048672Y-72984646D01*
X212187854Y-73123828D01*
X212347095Y-73239524D01*
X212429955Y-73281743D01*
X212522470Y-73328882D01*
X212522472Y-73328882D01*
X212522475Y-73328884D01*
X212622817Y-73361487D01*
X212709673Y-73389709D01*
X212904078Y-73420500D01*
X212904083Y-73420500D01*
X213800922Y-73420500D01*
X213995326Y-73389709D01*
X214182525Y-73328884D01*
X214357905Y-73239524D01*
X214517146Y-73123828D01*
X214656328Y-72984646D01*
X214665797Y-72971612D01*
X214721128Y-72928948D01*
X214766114Y-72920500D01*
X217698920Y-72920500D01*
X217796462Y-72901096D01*
X217843913Y-72891658D01*
X217980495Y-72835084D01*
X218029729Y-72802186D01*
X218103416Y-72752952D01*
X218724798Y-72131568D01*
X218786121Y-72098084D01*
X218855812Y-72103068D01*
X218911746Y-72144939D01*
X218931555Y-72184655D01*
X218978254Y-72345393D01*
X218978255Y-72345396D01*
X219061917Y-72486862D01*
X219061923Y-72486870D01*
X219178129Y-72603076D01*
X219178133Y-72603079D01*
X219178135Y-72603081D01*
X219319602Y-72686744D01*
X219361224Y-72698836D01*
X219477426Y-72732597D01*
X219477429Y-72732597D01*
X219477431Y-72732598D01*
X219514306Y-72735500D01*
X219514314Y-72735500D01*
X219945686Y-72735500D01*
X219945694Y-72735500D01*
X219982569Y-72732598D01*
X219982571Y-72732597D01*
X219982573Y-72732597D01*
X220024191Y-72720505D01*
X220140398Y-72686744D01*
X220281865Y-72603081D01*
X220398081Y-72486865D01*
X220481744Y-72345398D01*
X220527598Y-72187569D01*
X220530500Y-72150694D01*
X220530500Y-70369306D01*
X220527598Y-70332431D01*
X220525584Y-70325500D01*
X220481745Y-70174606D01*
X220481744Y-70174603D01*
X220481744Y-70174602D01*
X220398081Y-70033135D01*
X220398079Y-70033133D01*
X220398076Y-70033129D01*
X220281870Y-69916923D01*
X220281862Y-69916917D01*
X220182331Y-69858055D01*
X220140398Y-69833256D01*
X220140397Y-69833255D01*
X220140396Y-69833255D01*
X220140393Y-69833254D01*
X219982573Y-69787402D01*
X219982567Y-69787401D01*
X219945701Y-69784500D01*
X219945694Y-69784500D01*
X219514306Y-69784500D01*
X219514298Y-69784500D01*
X219477432Y-69787401D01*
X219477426Y-69787402D01*
X219319606Y-69833254D01*
X219319603Y-69833255D01*
X219178137Y-69916917D01*
X219178129Y-69916923D01*
X219061923Y-70033129D01*
X219061917Y-70033137D01*
X218978255Y-70174603D01*
X218978254Y-70174606D01*
X218932402Y-70332426D01*
X218932401Y-70332432D01*
X218929500Y-70369298D01*
X218929500Y-70385500D01*
X218909815Y-70452539D01*
X218857011Y-70498294D01*
X218805500Y-70509500D01*
X218461080Y-70509500D01*
X218316092Y-70538340D01*
X218316082Y-70538343D01*
X218179511Y-70594912D01*
X218179498Y-70594919D01*
X218056584Y-70677048D01*
X218056580Y-70677051D01*
X217350451Y-71383181D01*
X217289128Y-71416666D01*
X217262770Y-71419500D01*
X214766114Y-71419500D01*
X214699075Y-71399815D01*
X214665797Y-71368387D01*
X214656328Y-71355354D01*
X214517148Y-71216174D01*
X214517146Y-71216172D01*
X214357905Y-71100476D01*
X214265544Y-71053416D01*
X214182526Y-71011116D01*
X214176531Y-71009168D01*
X214172721Y-71007930D01*
X214115046Y-70968495D01*
X214087847Y-70904136D01*
X214099761Y-70835290D01*
X214147004Y-70783813D01*
X214172720Y-70772069D01*
X214182525Y-70768884D01*
X214357905Y-70679524D01*
X214517146Y-70563828D01*
X214656328Y-70424646D01*
X214772024Y-70265405D01*
X214861384Y-70090025D01*
X214922209Y-69902826D01*
X214933228Y-69833254D01*
X214953000Y-69708422D01*
X214953000Y-69511577D01*
X214922209Y-69317173D01*
X214861382Y-69129970D01*
X214775797Y-68962000D01*
X214772024Y-68954595D01*
X214656328Y-68795354D01*
X214517146Y-68656172D01*
X214357905Y-68540476D01*
X214293547Y-68507684D01*
X214182529Y-68451117D01*
X213995326Y-68390290D01*
X213800922Y-68359500D01*
X213800917Y-68359500D01*
X212904083Y-68359500D01*
X212904078Y-68359500D01*
X212709673Y-68390290D01*
X212522470Y-68451117D01*
X212347094Y-68540476D01*
X212267992Y-68597948D01*
X212187854Y-68656172D01*
X212187852Y-68656174D01*
X212187851Y-68656174D01*
X212048671Y-68795354D01*
X212039203Y-68808387D01*
X211983872Y-68851052D01*
X211938886Y-68859500D01*
X206291080Y-68859500D01*
X206146092Y-68888340D01*
X206146082Y-68888343D01*
X206009511Y-68944912D01*
X206009504Y-68944916D01*
X205995021Y-68954594D01*
X205983938Y-68961999D01*
X205983937Y-68961999D01*
X205886585Y-69027046D01*
X205886578Y-69027052D01*
X203417049Y-71496582D01*
X203405014Y-71514595D01*
X203334913Y-71619508D01*
X203278343Y-71756082D01*
X203278340Y-71756092D01*
X203249500Y-71901079D01*
X203249500Y-87012769D01*
X203229815Y-87079808D01*
X203213181Y-87100450D01*
X200047807Y-90265823D01*
X199986484Y-90299308D01*
X199984319Y-90299759D01*
X199937337Y-90309104D01*
X199937331Y-90309106D01*
X199773459Y-90376983D01*
X199773446Y-90376990D01*
X199625965Y-90475535D01*
X199625961Y-90475538D01*
X199500538Y-90600961D01*
X199500535Y-90600965D01*
X199401990Y-90748446D01*
X199401983Y-90748459D01*
X199334106Y-90912332D01*
X199334103Y-90912341D01*
X199299500Y-91086304D01*
X198750500Y-91086304D01*
X198750500Y-90937230D01*
X198770185Y-90870191D01*
X198786819Y-90849549D01*
X202782947Y-86853421D01*
X202782952Y-86853416D01*
X202801421Y-86825774D01*
X202839098Y-86769387D01*
X202839100Y-86769382D01*
X202839106Y-86769374D01*
X202865084Y-86730495D01*
X202921658Y-86593913D01*
X202943438Y-86484420D01*
X202950500Y-86448920D01*
X202950500Y-66986228D01*
X212452000Y-66986228D01*
X212452000Y-67153771D01*
X212484682Y-67318074D01*
X212484684Y-67318082D01*
X212548795Y-67472860D01*
X212641873Y-67612162D01*
X212760337Y-67730626D01*
X212852994Y-67792537D01*
X212899637Y-67823703D01*
X213054418Y-67887816D01*
X213218728Y-67920499D01*
X213218732Y-67920500D01*
X213218733Y-67920500D01*
X213386268Y-67920500D01*
X213386269Y-67920499D01*
X213550582Y-67887816D01*
X213705363Y-67823703D01*
X213844662Y-67730626D01*
X213963126Y-67612162D01*
X214056203Y-67472863D01*
X214120316Y-67318082D01*
X214153000Y-67153767D01*
X214153000Y-66986233D01*
X214120316Y-66821918D01*
X214056203Y-66667137D01*
X214024773Y-66620099D01*
X213963126Y-66527837D01*
X213844662Y-66409373D01*
X213705360Y-66316295D01*
X213550582Y-66252184D01*
X213550574Y-66252182D01*
X213386271Y-66219500D01*
X213386267Y-66219500D01*
X213218733Y-66219500D01*
X213218728Y-66219500D01*
X213054425Y-66252182D01*
X213054417Y-66252184D01*
X212899639Y-66316295D01*
X212760337Y-66409373D01*
X212641873Y-66527837D01*
X212548795Y-66667139D01*
X212484684Y-66821917D01*
X212484682Y-66821925D01*
X212452000Y-66986228D01*
X202950500Y-66986228D01*
X202950500Y-65337229D01*
X202970185Y-65270190D01*
X202986819Y-65249548D01*
X203810139Y-64426228D01*
X212452000Y-64426228D01*
X212452000Y-64593771D01*
X212484682Y-64758074D01*
X212484684Y-64758082D01*
X212548795Y-64912860D01*
X212641873Y-65052162D01*
X212760337Y-65170626D01*
X212852994Y-65232537D01*
X212899637Y-65263703D01*
X213054418Y-65327816D01*
X213218728Y-65360499D01*
X213218732Y-65360500D01*
X213218733Y-65360500D01*
X213386268Y-65360500D01*
X213386269Y-65360499D01*
X213550582Y-65327816D01*
X213705363Y-65263703D01*
X213844662Y-65170626D01*
X213963126Y-65052162D01*
X214056203Y-64912863D01*
X214120316Y-64758082D01*
X214153000Y-64593767D01*
X214153000Y-64426233D01*
X214120316Y-64261918D01*
X214056203Y-64107137D01*
X214025037Y-64060494D01*
X213963126Y-63967837D01*
X213844662Y-63849373D01*
X213705360Y-63756295D01*
X213550582Y-63692184D01*
X213550574Y-63692182D01*
X213386271Y-63659500D01*
X213386267Y-63659500D01*
X213218733Y-63659500D01*
X213218728Y-63659500D01*
X213054425Y-63692182D01*
X213054417Y-63692184D01*
X212899639Y-63756295D01*
X212760337Y-63849373D01*
X212641873Y-63967837D01*
X212548795Y-64107139D01*
X212484684Y-64261917D01*
X212484682Y-64261925D01*
X212452000Y-64426228D01*
X203810139Y-64426228D01*
X205454548Y-62781819D01*
X205515871Y-62748334D01*
X205542229Y-62745500D01*
X211913886Y-62745500D01*
X211980925Y-62765185D01*
X212014203Y-62796613D01*
X212022230Y-62807662D01*
X212023672Y-62809646D01*
X212162854Y-62948828D01*
X212322095Y-63064524D01*
X212404955Y-63106743D01*
X212497470Y-63153882D01*
X212497472Y-63153882D01*
X212497475Y-63153884D01*
X212549894Y-63170916D01*
X212684673Y-63214709D01*
X212879078Y-63245500D01*
X212879083Y-63245500D01*
X213775922Y-63245500D01*
X213970326Y-63214709D01*
X214157525Y-63153884D01*
X214332905Y-63064524D01*
X214492146Y-62948828D01*
X214631328Y-62809646D01*
X214747024Y-62650405D01*
X214836384Y-62475025D01*
X214897209Y-62287826D01*
X214924035Y-62118453D01*
X214928000Y-62093422D01*
X214928000Y-61896577D01*
X214897209Y-61702173D01*
X214836382Y-61514970D01*
X214747023Y-61339594D01*
X214631328Y-61180354D01*
X214492146Y-61041172D01*
X214332905Y-60925476D01*
X214157529Y-60836117D01*
X213970326Y-60775290D01*
X213775922Y-60744500D01*
X213775917Y-60744500D01*
X212879083Y-60744500D01*
X212879078Y-60744500D01*
X212684673Y-60775290D01*
X212497470Y-60836117D01*
X212322094Y-60925476D01*
X212231241Y-60991485D01*
X212162854Y-61041172D01*
X212162852Y-61041174D01*
X212162851Y-61041174D01*
X212023671Y-61180354D01*
X212014203Y-61193387D01*
X211958872Y-61236052D01*
X211913886Y-61244500D01*
X205106080Y-61244500D01*
X204961092Y-61273340D01*
X204961082Y-61273343D01*
X204824511Y-61329912D01*
X204824498Y-61329919D01*
X204701584Y-61412048D01*
X204701580Y-61412051D01*
X201617048Y-64496583D01*
X201616236Y-64497799D01*
X201574064Y-64560916D01*
X201554490Y-64590210D01*
X201534916Y-64619504D01*
X201534912Y-64619511D01*
X201478343Y-64756082D01*
X201478340Y-64756092D01*
X201449500Y-64901079D01*
X201449500Y-82551638D01*
X201429815Y-82618677D01*
X201377011Y-82664432D01*
X201307853Y-82674376D01*
X201244297Y-82645351D01*
X201237819Y-82639319D01*
X201174038Y-82575538D01*
X201174034Y-82575535D01*
X201026553Y-82476990D01*
X201026540Y-82476983D01*
X200862667Y-82409106D01*
X200862658Y-82409103D01*
X200688694Y-82374500D01*
X200688691Y-82374500D01*
X200511309Y-82374500D01*
X200511306Y-82374500D01*
X200337341Y-82409103D01*
X200337332Y-82409106D01*
X200173452Y-82476987D01*
X200173447Y-82476989D01*
X200133622Y-82503601D01*
X200066945Y-82524480D01*
X200064730Y-82524500D01*
X198762229Y-82524500D01*
X198695190Y-82504815D01*
X198674548Y-82488181D01*
X197999319Y-81812951D01*
X197965834Y-81751628D01*
X197963000Y-81725270D01*
X197963000Y-76749730D01*
X197982685Y-76682691D01*
X197999319Y-76662049D01*
X198029515Y-76631853D01*
X198067712Y-76593656D01*
X198159814Y-76444334D01*
X198214999Y-76277797D01*
X198225500Y-76175009D01*
X198225499Y-75174992D01*
X198224459Y-75164815D01*
X198214999Y-75072203D01*
X198214998Y-75072200D01*
X198208749Y-75053342D01*
X198159814Y-74905666D01*
X198067712Y-74756344D01*
X197943656Y-74632288D01*
X197794334Y-74540186D01*
X197627797Y-74485001D01*
X197627795Y-74485000D01*
X197525010Y-74474500D01*
X196899998Y-74474500D01*
X196899980Y-74474501D01*
X196797203Y-74485000D01*
X196797200Y-74485001D01*
X196630668Y-74540185D01*
X196630663Y-74540187D01*
X196481342Y-74632289D01*
X196387681Y-74725951D01*
X196379735Y-74730289D01*
X196374310Y-74737537D01*
X196349550Y-74746771D01*
X196326358Y-74759436D01*
X196317328Y-74758790D01*
X196308846Y-74761954D01*
X196283025Y-74756337D01*
X196256666Y-74754452D01*
X196247612Y-74748633D01*
X196240573Y-74747102D01*
X196212319Y-74725951D01*
X196174319Y-74687951D01*
X196140834Y-74626628D01*
X196138000Y-74600270D01*
X196138000Y-70648023D01*
X196157685Y-70580984D01*
X196210489Y-70535229D01*
X196279647Y-70525285D01*
X196343203Y-70554310D01*
X196349681Y-70560342D01*
X196431654Y-70642315D01*
X196580875Y-70734356D01*
X196580880Y-70734358D01*
X196747302Y-70789505D01*
X196747309Y-70789506D01*
X196850019Y-70799999D01*
X197400000Y-70799999D01*
X197449972Y-70799999D01*
X197449986Y-70799998D01*
X197552697Y-70789505D01*
X197719119Y-70734358D01*
X197719124Y-70734356D01*
X197868345Y-70642315D01*
X197992315Y-70518345D01*
X198084356Y-70369124D01*
X198084358Y-70369119D01*
X198139505Y-70202697D01*
X198139506Y-70202690D01*
X198149999Y-70099986D01*
X198150000Y-70099973D01*
X198150000Y-69825000D01*
X197400000Y-69825000D01*
X197400000Y-70799999D01*
X196850019Y-70799999D01*
X196899999Y-70799998D01*
X196900000Y-70799998D01*
X196900000Y-69325000D01*
X197400000Y-69325000D01*
X198149999Y-69325000D01*
X198149999Y-69050028D01*
X198149998Y-69050013D01*
X198139505Y-68947302D01*
X198084358Y-68780880D01*
X198084356Y-68780875D01*
X197992315Y-68631654D01*
X197868345Y-68507684D01*
X197719124Y-68415643D01*
X197719119Y-68415641D01*
X197552697Y-68360494D01*
X197552690Y-68360493D01*
X197449986Y-68350000D01*
X197400000Y-68350000D01*
X197400000Y-69325000D01*
X196900000Y-69325000D01*
X196900000Y-68350000D01*
X196899999Y-68349999D01*
X196850029Y-68350000D01*
X196850011Y-68350001D01*
X196747302Y-68360494D01*
X196580880Y-68415641D01*
X196580875Y-68415643D01*
X196431654Y-68507684D01*
X196307683Y-68631655D01*
X196307679Y-68631660D01*
X196305826Y-68634665D01*
X196304018Y-68636290D01*
X196303202Y-68637323D01*
X196303025Y-68637183D01*
X196253874Y-68681385D01*
X196184911Y-68692601D01*
X196120831Y-68664752D01*
X196094753Y-68634653D01*
X196094737Y-68634628D01*
X196092712Y-68631344D01*
X195968656Y-68507288D01*
X195819334Y-68415186D01*
X195652797Y-68360001D01*
X195652795Y-68360000D01*
X195550010Y-68349500D01*
X194949998Y-68349500D01*
X194949980Y-68349501D01*
X194847203Y-68360000D01*
X194847200Y-68360001D01*
X194680668Y-68415185D01*
X194680663Y-68415187D01*
X194531342Y-68507289D01*
X194407289Y-68631342D01*
X194404237Y-68636290D01*
X194324541Y-68765500D01*
X194324481Y-68765597D01*
X194272533Y-68812321D01*
X194218942Y-68824500D01*
X189736836Y-68824500D01*
X189669797Y-68804815D01*
X189649155Y-68788181D01*
X189517148Y-68656174D01*
X189517146Y-68656172D01*
X189357905Y-68540476D01*
X189293547Y-68507684D01*
X189182529Y-68451117D01*
X188995326Y-68390290D01*
X188800922Y-68359500D01*
X188800917Y-68359500D01*
X187904083Y-68359500D01*
X187904078Y-68359500D01*
X187709673Y-68390290D01*
X187522470Y-68451117D01*
X187347094Y-68540476D01*
X187267992Y-68597948D01*
X187187854Y-68656172D01*
X187187852Y-68656174D01*
X187187851Y-68656174D01*
X187048674Y-68795351D01*
X187048674Y-68795352D01*
X187048672Y-68795354D01*
X187039203Y-68808387D01*
X186932976Y-68954594D01*
X186843617Y-69129970D01*
X186782790Y-69317173D01*
X186752000Y-69511577D01*
X186752000Y-69708422D01*
X186782790Y-69902826D01*
X186843617Y-70090029D01*
X186906157Y-70212770D01*
X186932976Y-70265405D01*
X187048672Y-70424646D01*
X187187854Y-70563828D01*
X187347095Y-70679524D01*
X187402747Y-70707880D01*
X187522470Y-70768882D01*
X187522472Y-70768882D01*
X187522475Y-70768884D01*
X187532280Y-70772070D01*
X187589954Y-70811507D01*
X187617152Y-70875866D01*
X187605237Y-70944712D01*
X187557992Y-70996188D01*
X187532283Y-71007929D01*
X187527769Y-71009395D01*
X187522470Y-71011117D01*
X187347094Y-71100476D01*
X187256241Y-71166485D01*
X187187854Y-71216172D01*
X187187852Y-71216174D01*
X187187851Y-71216174D01*
X187048671Y-71355354D01*
X187039203Y-71368387D01*
X186983872Y-71411052D01*
X186938886Y-71419500D01*
X181157229Y-71419500D01*
X181090190Y-71399815D01*
X181069548Y-71383181D01*
X179986819Y-70300451D01*
X179953334Y-70239128D01*
X179950500Y-70212770D01*
X179950500Y-66986228D01*
X187452000Y-66986228D01*
X187452000Y-67153771D01*
X187484682Y-67318074D01*
X187484684Y-67318082D01*
X187548795Y-67472860D01*
X187641873Y-67612162D01*
X187760337Y-67730626D01*
X187852994Y-67792537D01*
X187899637Y-67823703D01*
X188054418Y-67887816D01*
X188218728Y-67920499D01*
X188218732Y-67920500D01*
X188218733Y-67920500D01*
X188386268Y-67920500D01*
X188386269Y-67920499D01*
X188550582Y-67887816D01*
X188705363Y-67823703D01*
X188844662Y-67730626D01*
X188963126Y-67612162D01*
X189056203Y-67472863D01*
X189120316Y-67318082D01*
X189153000Y-67153767D01*
X189153000Y-66986233D01*
X189120316Y-66821918D01*
X189056203Y-66667137D01*
X189024773Y-66620099D01*
X188963126Y-66527837D01*
X188844662Y-66409373D01*
X188705360Y-66316295D01*
X188550582Y-66252184D01*
X188550574Y-66252182D01*
X188386271Y-66219500D01*
X188386267Y-66219500D01*
X188218733Y-66219500D01*
X188218728Y-66219500D01*
X188054425Y-66252182D01*
X188054417Y-66252184D01*
X187899639Y-66316295D01*
X187760337Y-66409373D01*
X187641873Y-66527837D01*
X187548795Y-66667139D01*
X187484684Y-66821917D01*
X187484682Y-66821925D01*
X187452000Y-66986228D01*
X179950500Y-66986228D01*
X179950500Y-66935638D01*
X179970185Y-66868599D01*
X180009401Y-66830100D01*
X180118656Y-66762712D01*
X180242712Y-66638656D01*
X180334814Y-66489334D01*
X180389999Y-66322797D01*
X180400500Y-66220009D01*
X180400499Y-65594992D01*
X180389999Y-65492203D01*
X180334814Y-65325666D01*
X180242712Y-65176344D01*
X180149049Y-65082681D01*
X180115564Y-65021358D01*
X180120548Y-64951666D01*
X180149049Y-64907319D01*
X180183687Y-64872681D01*
X180242712Y-64813656D01*
X180334814Y-64664334D01*
X180389999Y-64497797D01*
X180397311Y-64426228D01*
X187452000Y-64426228D01*
X187452000Y-64593771D01*
X187484682Y-64758074D01*
X187484684Y-64758082D01*
X187548795Y-64912860D01*
X187641873Y-65052162D01*
X187760337Y-65170626D01*
X187852994Y-65232537D01*
X187899637Y-65263703D01*
X188054418Y-65327816D01*
X188218728Y-65360499D01*
X188218732Y-65360500D01*
X188218733Y-65360500D01*
X188386268Y-65360500D01*
X188386269Y-65360499D01*
X188550582Y-65327816D01*
X188705363Y-65263703D01*
X188844662Y-65170626D01*
X188963126Y-65052162D01*
X189056203Y-64912863D01*
X189120316Y-64758082D01*
X189153000Y-64593767D01*
X189153000Y-64426233D01*
X189120316Y-64261918D01*
X189056203Y-64107137D01*
X189025037Y-64060494D01*
X188963126Y-63967837D01*
X188844662Y-63849373D01*
X188705360Y-63756295D01*
X188550582Y-63692184D01*
X188550574Y-63692182D01*
X188386271Y-63659500D01*
X188386267Y-63659500D01*
X188218733Y-63659500D01*
X188218728Y-63659500D01*
X188054425Y-63692182D01*
X188054417Y-63692184D01*
X187899639Y-63756295D01*
X187760337Y-63849373D01*
X187641873Y-63967837D01*
X187548795Y-64107139D01*
X187484684Y-64261917D01*
X187484682Y-64261925D01*
X187452000Y-64426228D01*
X180397311Y-64426228D01*
X180400500Y-64395009D01*
X180400499Y-63769992D01*
X180389999Y-63667203D01*
X180334814Y-63500666D01*
X180242712Y-63351344D01*
X180118656Y-63227288D01*
X180118655Y-63227287D01*
X180095503Y-63213007D01*
X180075031Y-63200380D01*
X180028307Y-63148434D01*
X180017084Y-63079471D01*
X180027183Y-63047798D01*
X180025682Y-63047176D01*
X180084206Y-62905883D01*
X180095894Y-62877666D01*
X180102293Y-62845500D01*
X180130499Y-62703695D01*
X180130500Y-62703693D01*
X180130500Y-62526306D01*
X180130499Y-62526304D01*
X180095896Y-62352341D01*
X180095893Y-62352332D01*
X180028016Y-62188459D01*
X180028009Y-62188446D01*
X179929464Y-62040965D01*
X179929461Y-62040961D01*
X179804038Y-61915538D01*
X179804034Y-61915535D01*
X179797588Y-61911228D01*
X187477000Y-61911228D01*
X187477000Y-62078771D01*
X187509682Y-62243074D01*
X187509684Y-62243082D01*
X187573795Y-62397860D01*
X187666873Y-62537162D01*
X187785337Y-62655626D01*
X187857272Y-62703691D01*
X187924637Y-62748703D01*
X188079418Y-62812816D01*
X188243728Y-62845499D01*
X188243732Y-62845500D01*
X188243733Y-62845500D01*
X188411268Y-62845500D01*
X188411269Y-62845499D01*
X188575582Y-62812816D01*
X188730363Y-62748703D01*
X188869662Y-62655626D01*
X188988126Y-62537162D01*
X189081203Y-62397863D01*
X189145316Y-62243082D01*
X189178000Y-62078767D01*
X189178000Y-61911233D01*
X189178000Y-61911228D01*
X189145751Y-61749106D01*
X189145316Y-61746918D01*
X189081203Y-61592137D01*
X189029645Y-61514975D01*
X188988126Y-61452837D01*
X188869662Y-61334373D01*
X188730360Y-61241295D01*
X188575582Y-61177184D01*
X188575574Y-61177182D01*
X188411271Y-61144500D01*
X188411267Y-61144500D01*
X188243733Y-61144500D01*
X188243728Y-61144500D01*
X188079425Y-61177182D01*
X188079417Y-61177184D01*
X187924639Y-61241295D01*
X187785337Y-61334373D01*
X187666873Y-61452837D01*
X187573795Y-61592139D01*
X187509684Y-61746917D01*
X187509682Y-61746925D01*
X187477000Y-61911228D01*
X179797588Y-61911228D01*
X179656553Y-61816990D01*
X179656540Y-61816983D01*
X179492667Y-61749106D01*
X179492658Y-61749103D01*
X179318694Y-61714500D01*
X179318691Y-61714500D01*
X179141309Y-61714500D01*
X179141306Y-61714500D01*
X178967341Y-61749103D01*
X178967332Y-61749106D01*
X178803459Y-61816983D01*
X178803446Y-61816990D01*
X178655965Y-61915535D01*
X178655961Y-61915538D01*
X178530538Y-62040961D01*
X178530535Y-62040965D01*
X178431990Y-62188446D01*
X178431983Y-62188459D01*
X178364106Y-62352332D01*
X178364103Y-62352341D01*
X178329500Y-62526304D01*
X178329500Y-62703695D01*
X178364103Y-62877658D01*
X178364106Y-62877667D01*
X178422202Y-63017925D01*
X178429671Y-63087395D01*
X178398395Y-63149874D01*
X178372738Y-63170916D01*
X178281342Y-63227289D01*
X178157289Y-63351342D01*
X178065187Y-63500663D01*
X178065186Y-63500666D01*
X178010001Y-63667203D01*
X178010001Y-63667204D01*
X178010000Y-63667204D01*
X177999500Y-63769983D01*
X177999500Y-64395001D01*
X177999501Y-64395019D01*
X178010000Y-64497796D01*
X178010001Y-64497799D01*
X178050331Y-64619504D01*
X178065186Y-64664334D01*
X178121782Y-64756092D01*
X178157289Y-64813657D01*
X178250951Y-64907319D01*
X178284436Y-64968642D01*
X178279452Y-65038334D01*
X178250951Y-65082681D01*
X178157289Y-65176342D01*
X178065187Y-65325663D01*
X178065185Y-65325668D01*
X178064473Y-65327817D01*
X178010001Y-65492203D01*
X178010001Y-65492204D01*
X178010000Y-65492204D01*
X177999500Y-65594983D01*
X177999500Y-66220001D01*
X177999501Y-66220019D01*
X178010000Y-66322796D01*
X178010001Y-66322799D01*
X178065185Y-66489331D01*
X178065186Y-66489334D01*
X178157288Y-66638656D01*
X178281344Y-66762712D01*
X178390597Y-66830099D01*
X178437321Y-66882047D01*
X178449500Y-66935638D01*
X178449500Y-70648918D01*
X178449500Y-70648920D01*
X178449499Y-70648920D01*
X178478340Y-70793907D01*
X178478343Y-70793917D01*
X178534914Y-70930492D01*
X178534915Y-70930494D01*
X178534916Y-70930495D01*
X178544415Y-70944712D01*
X178567812Y-70979727D01*
X178567813Y-70979730D01*
X178617046Y-71053414D01*
X178617052Y-71053421D01*
X180212049Y-72648416D01*
X180316584Y-72752951D01*
X180316587Y-72752953D01*
X180316588Y-72752954D01*
X180439503Y-72835083D01*
X180439506Y-72835085D01*
X180489665Y-72855861D01*
X180496080Y-72858518D01*
X180576088Y-72891659D01*
X180692241Y-72914763D01*
X180715380Y-72919365D01*
X180721081Y-72920500D01*
X180721082Y-72920500D01*
X180721083Y-72920500D01*
X180868918Y-72920500D01*
X186938886Y-72920500D01*
X187005925Y-72940185D01*
X187039202Y-72971612D01*
X187048672Y-72984646D01*
X187187854Y-73123828D01*
X187347095Y-73239524D01*
X187429955Y-73281743D01*
X187522470Y-73328882D01*
X187522472Y-73328882D01*
X187522475Y-73328884D01*
X187622817Y-73361487D01*
X187709673Y-73389709D01*
X187904078Y-73420500D01*
X187904083Y-73420500D01*
X188800922Y-73420500D01*
X188995326Y-73389709D01*
X189182525Y-73328884D01*
X189357905Y-73239524D01*
X189517146Y-73123828D01*
X189656328Y-72984646D01*
X189772024Y-72825405D01*
X189861384Y-72650025D01*
X189922209Y-72462826D01*
X189940808Y-72345396D01*
X189953000Y-72268422D01*
X189953000Y-72071577D01*
X189922209Y-71877173D01*
X189882865Y-71756087D01*
X189861384Y-71689975D01*
X189861382Y-71689972D01*
X189861382Y-71689970D01*
X189772023Y-71514594D01*
X189656328Y-71355354D01*
X189517146Y-71216172D01*
X189357905Y-71100476D01*
X189265544Y-71053416D01*
X189182526Y-71011116D01*
X189176531Y-71009168D01*
X189172721Y-71007930D01*
X189115046Y-70968495D01*
X189087847Y-70904136D01*
X189099761Y-70835290D01*
X189147004Y-70783813D01*
X189172720Y-70772069D01*
X189182525Y-70768884D01*
X189357905Y-70679524D01*
X189517146Y-70563828D01*
X189656328Y-70424646D01*
X189691225Y-70376613D01*
X189746555Y-70333949D01*
X189791543Y-70325500D01*
X194218942Y-70325500D01*
X194285981Y-70345185D01*
X194324479Y-70384401D01*
X194407288Y-70518656D01*
X194531344Y-70642712D01*
X194578096Y-70671548D01*
X194624820Y-70723494D01*
X194637000Y-70777087D01*
X194637000Y-74600270D01*
X194617315Y-74667309D01*
X194600681Y-74687951D01*
X194532289Y-74756342D01*
X194532288Y-74756344D01*
X194490702Y-74823767D01*
X194464901Y-74865597D01*
X194412953Y-74912321D01*
X194359362Y-74924500D01*
X191816076Y-74924500D01*
X191787242Y-74930234D01*
X191787243Y-74930235D01*
X191671093Y-74953339D01*
X191671089Y-74953340D01*
X191605058Y-74980691D01*
X191605050Y-74980694D01*
X191599160Y-74983135D01*
X191534505Y-75009916D01*
X191469513Y-75053342D01*
X191464685Y-75056567D01*
X191464683Y-75056569D01*
X191411586Y-75092046D01*
X191395770Y-75107863D01*
X191355450Y-75148182D01*
X191294130Y-75181666D01*
X191267771Y-75184500D01*
X189260038Y-75184500D01*
X189192999Y-75164815D01*
X189147244Y-75112011D01*
X189137300Y-75042853D01*
X189145477Y-75013047D01*
X189155818Y-74988082D01*
X189170316Y-74953082D01*
X189203000Y-74788767D01*
X189203000Y-74621233D01*
X189170316Y-74456918D01*
X189106203Y-74302137D01*
X189075037Y-74255494D01*
X189013126Y-74162837D01*
X188894662Y-74044373D01*
X188755360Y-73951295D01*
X188600582Y-73887184D01*
X188600574Y-73887182D01*
X188436271Y-73854500D01*
X188436267Y-73854500D01*
X188268733Y-73854500D01*
X188268728Y-73854500D01*
X188104425Y-73887182D01*
X188104417Y-73887184D01*
X187949639Y-73951295D01*
X187810337Y-74044373D01*
X187691873Y-74162837D01*
X187598795Y-74302139D01*
X187534684Y-74456917D01*
X187534682Y-74456925D01*
X187502000Y-74621228D01*
X187502000Y-74788771D01*
X187534682Y-74953074D01*
X187534684Y-74953082D01*
X187549178Y-74988074D01*
X187559523Y-75013047D01*
X187566992Y-75082516D01*
X187535717Y-75144995D01*
X187475629Y-75180648D01*
X187444962Y-75184500D01*
X186966080Y-75184500D01*
X186821092Y-75213340D01*
X186821082Y-75213343D01*
X186684511Y-75269912D01*
X186684498Y-75269919D01*
X186610291Y-75319504D01*
X186561581Y-75352050D01*
X186561578Y-75352053D01*
X184017050Y-77896580D01*
X184017044Y-77896588D01*
X183967812Y-77970268D01*
X183967813Y-77970269D01*
X183934921Y-78019496D01*
X183934914Y-78019508D01*
X183878342Y-78156086D01*
X183878340Y-78156092D01*
X183849499Y-78301083D01*
X183849458Y-78301502D01*
X183849375Y-78301706D01*
X183848311Y-78307057D01*
X183847295Y-78306855D01*
X183823291Y-78366287D01*
X183776073Y-78399693D01*
X183777211Y-78402134D01*
X183770669Y-78405184D01*
X183621342Y-78497289D01*
X183497289Y-78621342D01*
X183405187Y-78770663D01*
X183405185Y-78770668D01*
X183377349Y-78854670D01*
X183350001Y-78937203D01*
X183350001Y-78937204D01*
X183350000Y-78937204D01*
X183339500Y-79039983D01*
X183339500Y-79665001D01*
X183339501Y-79665019D01*
X183350000Y-79767796D01*
X183350001Y-79767799D01*
X183405185Y-79934331D01*
X183405187Y-79934336D01*
X183415244Y-79950641D01*
X183472016Y-80042684D01*
X183497289Y-80083657D01*
X183590951Y-80177319D01*
X183593287Y-80181597D01*
X183597378Y-80184255D01*
X183609870Y-80211967D01*
X183624436Y-80238642D01*
X183624088Y-80243506D01*
X183626092Y-80247952D01*
X183621620Y-80278013D01*
X183619452Y-80308334D01*
X183616332Y-80313562D01*
X183615812Y-80317061D01*
X183605018Y-80332525D01*
X183596586Y-80346659D01*
X183593875Y-80349756D01*
X183497288Y-80446344D01*
X183468471Y-80493062D01*
X183461670Y-80500835D01*
X183451984Y-80506993D01*
X183437245Y-80522278D01*
X183329083Y-80594548D01*
X182089548Y-81834083D01*
X182068000Y-81866332D01*
X182046596Y-81898368D01*
X182007419Y-81956999D01*
X182007412Y-81957011D01*
X181950843Y-82093582D01*
X181950840Y-82093592D01*
X181922000Y-82238579D01*
X181922000Y-83271609D01*
X181902315Y-83338648D01*
X181897937Y-83345016D01*
X181892353Y-83352617D01*
X181840974Y-83403997D01*
X181769502Y-83519869D01*
X181766537Y-83523907D01*
X181742586Y-83542177D01*
X181720191Y-83562321D01*
X181714479Y-83563618D01*
X181710986Y-83566284D01*
X181698224Y-83567313D01*
X181666600Y-83574500D01*
X181071216Y-83574500D01*
X181004177Y-83554815D01*
X180970899Y-83523387D01*
X180875028Y-83391431D01*
X180703569Y-83219972D01*
X180703567Y-83219970D01*
X180703562Y-83219966D01*
X180507401Y-83077448D01*
X180507400Y-83077447D01*
X180507398Y-83077446D01*
X180386070Y-83015626D01*
X180291344Y-82967360D01*
X180060736Y-82892432D01*
X179821245Y-82854500D01*
X179821240Y-82854500D01*
X178058760Y-82854500D01*
X178058755Y-82854500D01*
X177819263Y-82892432D01*
X177588655Y-82967360D01*
X177372598Y-83077448D01*
X177176437Y-83219966D01*
X177176432Y-83219970D01*
X177004970Y-83391432D01*
X177004966Y-83391437D01*
X176862448Y-83587598D01*
X176752360Y-83803655D01*
X176677432Y-84034263D01*
X176646973Y-84226572D01*
X176617044Y-84289707D01*
X176557732Y-84326638D01*
X176487870Y-84325640D01*
X176429637Y-84287030D01*
X176401523Y-84223066D01*
X176400500Y-84207174D01*
X176400500Y-79499624D01*
X176420185Y-79432585D01*
X176472989Y-79386830D01*
X176542147Y-79376886D01*
X176605703Y-79405911D01*
X176643477Y-79464689D01*
X176646973Y-79480226D01*
X176677920Y-79675618D01*
X176752827Y-79906159D01*
X176862874Y-80122136D01*
X177005356Y-80318245D01*
X177176754Y-80489643D01*
X177372863Y-80632125D01*
X177588840Y-80742172D01*
X177819381Y-80817079D01*
X178058800Y-80855000D01*
X178690000Y-80855000D01*
X178690000Y-79969120D01*
X178735818Y-79988099D01*
X178871056Y-80015000D01*
X179008944Y-80015000D01*
X179144182Y-79988099D01*
X179190000Y-79969120D01*
X179190000Y-80855000D01*
X179821200Y-80855000D01*
X180060618Y-80817079D01*
X180291159Y-80742172D01*
X180507136Y-80632125D01*
X180703245Y-80489643D01*
X180874643Y-80318245D01*
X181017125Y-80122136D01*
X181127172Y-79906159D01*
X181202080Y-79675618D01*
X181219600Y-79565000D01*
X179594121Y-79565000D01*
X179613099Y-79519182D01*
X179640000Y-79383944D01*
X179640000Y-79246056D01*
X179613099Y-79110818D01*
X179594121Y-79065000D01*
X181219600Y-79065000D01*
X181202080Y-78954381D01*
X181127172Y-78723840D01*
X181017125Y-78507863D01*
X180874643Y-78311754D01*
X180703245Y-78140356D01*
X180507136Y-77997874D01*
X180291159Y-77887827D01*
X180060618Y-77812920D01*
X179821200Y-77775000D01*
X179190000Y-77775000D01*
X179190000Y-78660879D01*
X179144182Y-78641901D01*
X179008944Y-78615000D01*
X178871056Y-78615000D01*
X178735818Y-78641901D01*
X178690000Y-78660879D01*
X178690000Y-77775000D01*
X178058800Y-77775000D01*
X177819381Y-77812920D01*
X177588840Y-77887827D01*
X177372863Y-77997874D01*
X177176754Y-78140356D01*
X177005356Y-78311754D01*
X176862874Y-78507863D01*
X176752827Y-78723840D01*
X176677920Y-78954381D01*
X176646973Y-79149773D01*
X176617044Y-79212908D01*
X176557732Y-79249839D01*
X176487870Y-79248841D01*
X176429637Y-79210231D01*
X176401523Y-79146268D01*
X176400500Y-79130375D01*
X176400500Y-59351228D01*
X187477000Y-59351228D01*
X187477000Y-59518771D01*
X187509682Y-59683074D01*
X187509684Y-59683082D01*
X187573795Y-59837860D01*
X187666873Y-59977162D01*
X187785337Y-60095626D01*
X187877994Y-60157537D01*
X187924637Y-60188703D01*
X188079418Y-60252816D01*
X188243728Y-60285499D01*
X188243732Y-60285500D01*
X188243733Y-60285500D01*
X188411268Y-60285500D01*
X188411269Y-60285499D01*
X188575582Y-60252816D01*
X188730363Y-60188703D01*
X188869662Y-60095626D01*
X188988126Y-59977162D01*
X189081203Y-59837863D01*
X189145316Y-59683082D01*
X189178000Y-59518767D01*
X189178000Y-59351233D01*
X189177999Y-59351228D01*
X212477000Y-59351228D01*
X212477000Y-59518771D01*
X212509682Y-59683074D01*
X212509684Y-59683082D01*
X212573795Y-59837860D01*
X212666873Y-59977162D01*
X212785337Y-60095626D01*
X212877994Y-60157537D01*
X212924637Y-60188703D01*
X213079418Y-60252816D01*
X213243728Y-60285499D01*
X213243732Y-60285500D01*
X213243733Y-60285500D01*
X213411268Y-60285500D01*
X213411269Y-60285499D01*
X213575582Y-60252816D01*
X213730363Y-60188703D01*
X213869662Y-60095626D01*
X213988126Y-59977162D01*
X214081203Y-59837863D01*
X214145316Y-59683082D01*
X214178000Y-59518767D01*
X214178000Y-59351233D01*
X214145316Y-59186918D01*
X214081203Y-59032137D01*
X214050037Y-58985494D01*
X213988126Y-58892837D01*
X213869662Y-58774373D01*
X213730360Y-58681295D01*
X213575582Y-58617184D01*
X213575574Y-58617182D01*
X213411271Y-58584500D01*
X213411267Y-58584500D01*
X213243733Y-58584500D01*
X213243728Y-58584500D01*
X213079425Y-58617182D01*
X213079417Y-58617184D01*
X212924639Y-58681295D01*
X212785337Y-58774373D01*
X212666873Y-58892837D01*
X212573795Y-59032139D01*
X212509684Y-59186917D01*
X212509682Y-59186925D01*
X212477000Y-59351228D01*
X189177999Y-59351228D01*
X189145316Y-59186918D01*
X189081203Y-59032137D01*
X189050037Y-58985494D01*
X188988126Y-58892837D01*
X188869662Y-58774373D01*
X188730360Y-58681295D01*
X188575582Y-58617184D01*
X188575574Y-58617182D01*
X188411271Y-58584500D01*
X188411267Y-58584500D01*
X188243733Y-58584500D01*
X188243728Y-58584500D01*
X188079425Y-58617182D01*
X188079417Y-58617184D01*
X187924639Y-58681295D01*
X187785337Y-58774373D01*
X187666873Y-58892837D01*
X187573795Y-59032139D01*
X187509684Y-59186917D01*
X187509682Y-59186925D01*
X187477000Y-59351228D01*
X176400500Y-59351228D01*
X176400500Y-47530528D01*
X187999500Y-47530528D01*
X187999500Y-47839471D01*
X188034086Y-48146437D01*
X188034089Y-48146455D01*
X188102831Y-48447635D01*
X188102835Y-48447647D01*
X188204862Y-48739222D01*
X188204868Y-48739236D01*
X188338903Y-49017562D01*
X188338905Y-49017565D01*
X188503265Y-49279143D01*
X188695880Y-49520674D01*
X188914326Y-49739120D01*
X189155857Y-49931735D01*
X189417435Y-50096095D01*
X189695771Y-50230135D01*
X189695777Y-50230137D01*
X189987352Y-50332164D01*
X189987364Y-50332168D01*
X190288548Y-50400911D01*
X190288554Y-50400911D01*
X190288562Y-50400913D01*
X190493206Y-50423970D01*
X190595529Y-50435499D01*
X190595532Y-50435500D01*
X190595535Y-50435500D01*
X190904468Y-50435500D01*
X190904469Y-50435499D01*
X191061356Y-50417822D01*
X191211437Y-50400913D01*
X191211442Y-50400912D01*
X191211452Y-50400911D01*
X191512636Y-50332168D01*
X191804229Y-50230135D01*
X192082565Y-50096095D01*
X192344143Y-49931735D01*
X192585674Y-49739120D01*
X192804120Y-49520674D01*
X192996735Y-49279143D01*
X193161095Y-49017565D01*
X193295135Y-48739229D01*
X193397168Y-48447636D01*
X193465911Y-48146452D01*
X193500500Y-47839465D01*
X193500500Y-47530535D01*
X193500499Y-47530528D01*
X217999500Y-47530528D01*
X217999500Y-47839471D01*
X218034086Y-48146437D01*
X218034089Y-48146455D01*
X218102831Y-48447635D01*
X218102835Y-48447647D01*
X218204862Y-48739222D01*
X218204868Y-48739236D01*
X218338903Y-49017562D01*
X218338905Y-49017565D01*
X218503265Y-49279143D01*
X218695880Y-49520674D01*
X218914326Y-49739120D01*
X219155857Y-49931735D01*
X219417435Y-50096095D01*
X219695771Y-50230135D01*
X219695777Y-50230137D01*
X219987352Y-50332164D01*
X219987364Y-50332168D01*
X220288548Y-50400911D01*
X220288554Y-50400911D01*
X220288562Y-50400913D01*
X220493206Y-50423970D01*
X220595529Y-50435499D01*
X220595532Y-50435500D01*
X220595535Y-50435500D01*
X220904468Y-50435500D01*
X220904469Y-50435499D01*
X221061356Y-50417822D01*
X221211437Y-50400913D01*
X221211442Y-50400912D01*
X221211452Y-50400911D01*
X221512636Y-50332168D01*
X221804229Y-50230135D01*
X222082565Y-50096095D01*
X222344143Y-49931735D01*
X222585674Y-49739120D01*
X222804120Y-49520674D01*
X222996735Y-49279143D01*
X223161095Y-49017565D01*
X223295135Y-48739229D01*
X223397168Y-48447636D01*
X223465911Y-48146452D01*
X223500500Y-47839465D01*
X223500500Y-47530535D01*
X223465911Y-47223548D01*
X223397168Y-46922364D01*
X223295135Y-46630771D01*
X223161095Y-46352435D01*
X222996735Y-46090857D01*
X222804120Y-45849326D01*
X222585674Y-45630880D01*
X222344143Y-45438265D01*
X222082565Y-45273905D01*
X222082562Y-45273903D01*
X221804236Y-45139868D01*
X221804222Y-45139862D01*
X221512647Y-45037835D01*
X221512635Y-45037831D01*
X221211455Y-44969089D01*
X221211437Y-44969086D01*
X220904471Y-44934500D01*
X220904465Y-44934500D01*
X220595535Y-44934500D01*
X220595528Y-44934500D01*
X220288562Y-44969086D01*
X220288544Y-44969089D01*
X219987364Y-45037831D01*
X219987352Y-45037835D01*
X219695777Y-45139862D01*
X219695763Y-45139868D01*
X219417437Y-45273903D01*
X219155858Y-45438264D01*
X218914326Y-45630879D01*
X218695879Y-45849326D01*
X218503264Y-46090858D01*
X218338903Y-46352437D01*
X218204868Y-46630763D01*
X218204862Y-46630777D01*
X218102835Y-46922352D01*
X218102831Y-46922364D01*
X218034089Y-47223544D01*
X218034086Y-47223562D01*
X217999500Y-47530528D01*
X193500499Y-47530528D01*
X193465911Y-47223548D01*
X193397168Y-46922364D01*
X193295135Y-46630771D01*
X193161095Y-46352435D01*
X192996735Y-46090857D01*
X192804120Y-45849326D01*
X192585674Y-45630880D01*
X192344143Y-45438265D01*
X192082565Y-45273905D01*
X192082562Y-45273903D01*
X191804236Y-45139868D01*
X191804222Y-45139862D01*
X191512647Y-45037835D01*
X191512635Y-45037831D01*
X191211455Y-44969089D01*
X191211437Y-44969086D01*
X190904471Y-44934500D01*
X190904465Y-44934500D01*
X190595535Y-44934500D01*
X190595528Y-44934500D01*
X190288562Y-44969086D01*
X190288544Y-44969089D01*
X189987364Y-45037831D01*
X189987352Y-45037835D01*
X189695777Y-45139862D01*
X189695763Y-45139868D01*
X189417437Y-45273903D01*
X189155858Y-45438264D01*
X188914326Y-45630879D01*
X188695879Y-45849326D01*
X188503264Y-46090858D01*
X188338903Y-46352437D01*
X188204868Y-46630763D01*
X188204862Y-46630777D01*
X188102835Y-46922352D01*
X188102831Y-46922364D01*
X188034089Y-47223544D01*
X188034086Y-47223562D01*
X187999500Y-47530528D01*
X176400500Y-47530528D01*
X176400500Y-44399500D01*
X176420185Y-44332461D01*
X176472989Y-44286706D01*
X176524500Y-44275500D01*
X232375500Y-44275500D01*
X232442539Y-44295185D01*
G37*
%TD.AperFunction*%
%TA.AperFunction,Conductor*%
G36*
X212458867Y-84610185D02*
G01*
X212504622Y-84662989D01*
X212514566Y-84732147D01*
X212513445Y-84738691D01*
X212502000Y-84796228D01*
X212502000Y-84963771D01*
X212534682Y-85128074D01*
X212534684Y-85128082D01*
X212598795Y-85282860D01*
X212691873Y-85422162D01*
X212810337Y-85540626D01*
X212893329Y-85596079D01*
X212949637Y-85633703D01*
X213104418Y-85697816D01*
X213268728Y-85730499D01*
X213268732Y-85730500D01*
X213268733Y-85730500D01*
X213436268Y-85730500D01*
X213436269Y-85730499D01*
X213600582Y-85697816D01*
X213755363Y-85633703D01*
X213894662Y-85540626D01*
X214013126Y-85422162D01*
X214106203Y-85282863D01*
X214170316Y-85128082D01*
X214203000Y-84963767D01*
X214203000Y-84796233D01*
X214194945Y-84755735D01*
X214191555Y-84738691D01*
X214197782Y-84669099D01*
X214240646Y-84613922D01*
X214306536Y-84590678D01*
X214313172Y-84590500D01*
X214794011Y-84590500D01*
X214861050Y-84610185D01*
X214906805Y-84662989D01*
X214918000Y-84712841D01*
X215011534Y-91702418D01*
X214992748Y-91769715D01*
X214940561Y-91816172D01*
X214871542Y-91827040D01*
X214807603Y-91798868D01*
X214787227Y-91776963D01*
X214680943Y-91630678D01*
X214680943Y-91630677D01*
X214541821Y-91491555D01*
X214382643Y-91375904D01*
X214207335Y-91286581D01*
X214020205Y-91225778D01*
X213825882Y-91195000D01*
X213627500Y-91195000D01*
X213627500Y-91896517D01*
X213609091Y-91885889D01*
X213456491Y-91845000D01*
X213298509Y-91845000D01*
X213145909Y-91885889D01*
X213127500Y-91896517D01*
X213127500Y-91195000D01*
X212929118Y-91195000D01*
X212734794Y-91225778D01*
X212547664Y-91286581D01*
X212372356Y-91375904D01*
X212213178Y-91491555D01*
X212074055Y-91630678D01*
X211958404Y-91789856D01*
X211869081Y-91965162D01*
X211808281Y-92152283D01*
X211801516Y-92195000D01*
X212829018Y-92195000D01*
X212818389Y-92213409D01*
X212777500Y-92366009D01*
X212777500Y-92523991D01*
X212818389Y-92676591D01*
X212829018Y-92695000D01*
X211801516Y-92695000D01*
X211808281Y-92737716D01*
X211869081Y-92924837D01*
X211958404Y-93100143D01*
X212074055Y-93259321D01*
X212213178Y-93398444D01*
X212372356Y-93514095D01*
X212547661Y-93603417D01*
X212558083Y-93606803D01*
X212615760Y-93646239D01*
X212642961Y-93710596D01*
X212631050Y-93779443D01*
X212583808Y-93830921D01*
X212558095Y-93842665D01*
X212547472Y-93846117D01*
X212372094Y-93935476D01*
X212309687Y-93980818D01*
X212212854Y-94051172D01*
X212212852Y-94051174D01*
X212212851Y-94051174D01*
X212073671Y-94190354D01*
X212064203Y-94203387D01*
X212008872Y-94246052D01*
X211963886Y-94254500D01*
X210092229Y-94254500D01*
X210025190Y-94234815D01*
X210004548Y-94218181D01*
X209409175Y-93622807D01*
X209375690Y-93561484D01*
X209375262Y-93559432D01*
X209365894Y-93512334D01*
X209318720Y-93398444D01*
X209298016Y-93348459D01*
X209298009Y-93348446D01*
X209199464Y-93200965D01*
X209199461Y-93200961D01*
X209074038Y-93075538D01*
X209074034Y-93075535D01*
X208926553Y-92976990D01*
X208926540Y-92976983D01*
X208762667Y-92909106D01*
X208762658Y-92909103D01*
X208588694Y-92874500D01*
X208588691Y-92874500D01*
X208411309Y-92874500D01*
X208411306Y-92874500D01*
X208237341Y-92909103D01*
X208237332Y-92909106D01*
X208073459Y-92976983D01*
X208073450Y-92976988D01*
X208033779Y-93003495D01*
X207967101Y-93024371D01*
X207899721Y-93005885D01*
X207853032Y-92953905D01*
X207841857Y-92884935D01*
X207869744Y-92820872D01*
X207877195Y-92812724D01*
X209512140Y-91177781D01*
X209621632Y-91013914D01*
X209697052Y-90831835D01*
X209735501Y-90638540D01*
X209735501Y-90441459D01*
X209735501Y-90436349D01*
X209735500Y-90436323D01*
X209735500Y-89906228D01*
X212452000Y-89906228D01*
X212452000Y-90073771D01*
X212484682Y-90238074D01*
X212484684Y-90238082D01*
X212548795Y-90392860D01*
X212641873Y-90532162D01*
X212760337Y-90650626D01*
X212852994Y-90712537D01*
X212899637Y-90743703D01*
X212899638Y-90743703D01*
X212899639Y-90743704D01*
X212911104Y-90748453D01*
X213054418Y-90807816D01*
X213175131Y-90831827D01*
X213218728Y-90840499D01*
X213218732Y-90840500D01*
X213218733Y-90840500D01*
X213386268Y-90840500D01*
X213386269Y-90840499D01*
X213550582Y-90807816D01*
X213705363Y-90743703D01*
X213844662Y-90650626D01*
X213963126Y-90532162D01*
X214056203Y-90392863D01*
X214120316Y-90238082D01*
X214153000Y-90073767D01*
X214153000Y-89906233D01*
X214120316Y-89741918D01*
X214056203Y-89587137D01*
X213997236Y-89498887D01*
X213963126Y-89447837D01*
X213844662Y-89329373D01*
X213705360Y-89236295D01*
X213550582Y-89172184D01*
X213550574Y-89172182D01*
X213386271Y-89139500D01*
X213386267Y-89139500D01*
X213218733Y-89139500D01*
X213218728Y-89139500D01*
X213054425Y-89172182D01*
X213054417Y-89172184D01*
X212899639Y-89236295D01*
X212760337Y-89329373D01*
X212641873Y-89447837D01*
X212548795Y-89587139D01*
X212484684Y-89741917D01*
X212484682Y-89741925D01*
X212452000Y-89906228D01*
X209735500Y-89906228D01*
X209735500Y-87346228D01*
X212477000Y-87346228D01*
X212477000Y-87513771D01*
X212509682Y-87678074D01*
X212509684Y-87678082D01*
X212573795Y-87832860D01*
X212666873Y-87972162D01*
X212785337Y-88090626D01*
X212877994Y-88152537D01*
X212924637Y-88183703D01*
X213079418Y-88247816D01*
X213243728Y-88280499D01*
X213243732Y-88280500D01*
X213243733Y-88280500D01*
X213411268Y-88280500D01*
X213411269Y-88280499D01*
X213575582Y-88247816D01*
X213730363Y-88183703D01*
X213869662Y-88090626D01*
X213988126Y-87972162D01*
X214081203Y-87832863D01*
X214145316Y-87678082D01*
X214178000Y-87513767D01*
X214178000Y-87346233D01*
X214145316Y-87181918D01*
X214081203Y-87027137D01*
X214050037Y-86980494D01*
X213988126Y-86887837D01*
X213869662Y-86769373D01*
X213730360Y-86676295D01*
X213575582Y-86612184D01*
X213575574Y-86612182D01*
X213411271Y-86579500D01*
X213411267Y-86579500D01*
X213243733Y-86579500D01*
X213243728Y-86579500D01*
X213079425Y-86612182D01*
X213079417Y-86612184D01*
X212924639Y-86676295D01*
X212785337Y-86769373D01*
X212666873Y-86887837D01*
X212573795Y-87027139D01*
X212509684Y-87181917D01*
X212509682Y-87181925D01*
X212477000Y-87346228D01*
X209735500Y-87346228D01*
X209735500Y-86535782D01*
X209755185Y-86468743D01*
X209771819Y-86448101D01*
X211593102Y-84626819D01*
X211654425Y-84593334D01*
X211680783Y-84590500D01*
X212391828Y-84590500D01*
X212458867Y-84610185D01*
G37*
%TD.AperFunction*%
%TD*%
M02*
