%TF.GenerationSoftware,KiCad,Pcbnew,9.0.7*%
%TF.CreationDate,2026-08-24T20:15:45+05:30*%
%TF.ProjectId,Nursary_OneCH,4e757273-6172-4795-9f4f-6e6543482e6b,rev?*%
%TF.SameCoordinates,Original*%
%TF.FileFunction,Legend,Bot*%
%TF.FilePolarity,Positive*%
%FSLAX46Y46*%
G04 Gerber Fmt 4.6, Leading zero omitted, Abs format (unit mm)*
G04 Created by KiCad (PCBNEW 9.0.7) date 2026-08-24 20:15:45*
%MOMM*%
%LPD*%
G01*
G04 APERTURE LIST*
%ADD10C,0.200000*%
%ADD11C,0.240000*%
%ADD12C,0.150000*%
%ADD13C,0.120000*%
G04 APERTURE END LIST*
D10*
X192106517Y-117742219D02*
X192677945Y-117742219D01*
X192392231Y-117742219D02*
X192392231Y-116742219D01*
X192392231Y-116742219D02*
X192487469Y-116885076D01*
X192487469Y-116885076D02*
X192582707Y-116980314D01*
X192582707Y-116980314D02*
X192677945Y-117027933D01*
X217306517Y-70592219D02*
X217877945Y-70592219D01*
X217592231Y-70592219D02*
X217592231Y-69592219D01*
X217592231Y-69592219D02*
X217687469Y-69735076D01*
X217687469Y-69735076D02*
X217782707Y-69830314D01*
X217782707Y-69830314D02*
X217877945Y-69877933D01*
X200906517Y-133842219D02*
X201477945Y-133842219D01*
X201192231Y-133842219D02*
X201192231Y-132842219D01*
X201192231Y-132842219D02*
X201287469Y-132985076D01*
X201287469Y-132985076D02*
X201382707Y-133080314D01*
X201382707Y-133080314D02*
X201477945Y-133127933D01*
D11*
X186558571Y-123708939D02*
X186082381Y-123708939D01*
X186653809Y-124051796D02*
X186320476Y-122851796D01*
X186320476Y-122851796D02*
X185987143Y-124051796D01*
X185225238Y-123251796D02*
X185225238Y-124223225D01*
X185225238Y-124223225D02*
X185272857Y-124337511D01*
X185272857Y-124337511D02*
X185320476Y-124394654D01*
X185320476Y-124394654D02*
X185415714Y-124451796D01*
X185415714Y-124451796D02*
X185558571Y-124451796D01*
X185558571Y-124451796D02*
X185653809Y-124394654D01*
X185225238Y-123994654D02*
X185320476Y-124051796D01*
X185320476Y-124051796D02*
X185510952Y-124051796D01*
X185510952Y-124051796D02*
X185606190Y-123994654D01*
X185606190Y-123994654D02*
X185653809Y-123937511D01*
X185653809Y-123937511D02*
X185701428Y-123823225D01*
X185701428Y-123823225D02*
X185701428Y-123480368D01*
X185701428Y-123480368D02*
X185653809Y-123366082D01*
X185653809Y-123366082D02*
X185606190Y-123308939D01*
X185606190Y-123308939D02*
X185510952Y-123251796D01*
X185510952Y-123251796D02*
X185320476Y-123251796D01*
X185320476Y-123251796D02*
X185225238Y-123308939D01*
X184749047Y-124051796D02*
X184749047Y-123251796D01*
X184749047Y-123480368D02*
X184701428Y-123366082D01*
X184701428Y-123366082D02*
X184653809Y-123308939D01*
X184653809Y-123308939D02*
X184558571Y-123251796D01*
X184558571Y-123251796D02*
X184463333Y-123251796D01*
X184129999Y-124051796D02*
X184129999Y-123251796D01*
X184129999Y-122851796D02*
X184177618Y-122908939D01*
X184177618Y-122908939D02*
X184129999Y-122966082D01*
X184129999Y-122966082D02*
X184082380Y-122908939D01*
X184082380Y-122908939D02*
X184129999Y-122851796D01*
X184129999Y-122851796D02*
X184129999Y-122966082D01*
X182939523Y-123994654D02*
X182796666Y-124051796D01*
X182796666Y-124051796D02*
X182558571Y-124051796D01*
X182558571Y-124051796D02*
X182463333Y-123994654D01*
X182463333Y-123994654D02*
X182415714Y-123937511D01*
X182415714Y-123937511D02*
X182368095Y-123823225D01*
X182368095Y-123823225D02*
X182368095Y-123708939D01*
X182368095Y-123708939D02*
X182415714Y-123594654D01*
X182415714Y-123594654D02*
X182463333Y-123537511D01*
X182463333Y-123537511D02*
X182558571Y-123480368D01*
X182558571Y-123480368D02*
X182749047Y-123423225D01*
X182749047Y-123423225D02*
X182844285Y-123366082D01*
X182844285Y-123366082D02*
X182891904Y-123308939D01*
X182891904Y-123308939D02*
X182939523Y-123194654D01*
X182939523Y-123194654D02*
X182939523Y-123080368D01*
X182939523Y-123080368D02*
X182891904Y-122966082D01*
X182891904Y-122966082D02*
X182844285Y-122908939D01*
X182844285Y-122908939D02*
X182749047Y-122851796D01*
X182749047Y-122851796D02*
X182510952Y-122851796D01*
X182510952Y-122851796D02*
X182368095Y-122908939D01*
X181558571Y-123994654D02*
X181653809Y-124051796D01*
X181653809Y-124051796D02*
X181844285Y-124051796D01*
X181844285Y-124051796D02*
X181939523Y-123994654D01*
X181939523Y-123994654D02*
X181987142Y-123880368D01*
X181987142Y-123880368D02*
X181987142Y-123423225D01*
X181987142Y-123423225D02*
X181939523Y-123308939D01*
X181939523Y-123308939D02*
X181844285Y-123251796D01*
X181844285Y-123251796D02*
X181653809Y-123251796D01*
X181653809Y-123251796D02*
X181558571Y-123308939D01*
X181558571Y-123308939D02*
X181510952Y-123423225D01*
X181510952Y-123423225D02*
X181510952Y-123537511D01*
X181510952Y-123537511D02*
X181987142Y-123651796D01*
X181082380Y-123251796D02*
X181082380Y-124051796D01*
X181082380Y-123366082D02*
X181034761Y-123308939D01*
X181034761Y-123308939D02*
X180939523Y-123251796D01*
X180939523Y-123251796D02*
X180796666Y-123251796D01*
X180796666Y-123251796D02*
X180701428Y-123308939D01*
X180701428Y-123308939D02*
X180653809Y-123423225D01*
X180653809Y-123423225D02*
X180653809Y-124051796D01*
X180225237Y-123994654D02*
X180129999Y-124051796D01*
X180129999Y-124051796D02*
X179939523Y-124051796D01*
X179939523Y-124051796D02*
X179844285Y-123994654D01*
X179844285Y-123994654D02*
X179796666Y-123880368D01*
X179796666Y-123880368D02*
X179796666Y-123823225D01*
X179796666Y-123823225D02*
X179844285Y-123708939D01*
X179844285Y-123708939D02*
X179939523Y-123651796D01*
X179939523Y-123651796D02*
X180082380Y-123651796D01*
X180082380Y-123651796D02*
X180177618Y-123594654D01*
X180177618Y-123594654D02*
X180225237Y-123480368D01*
X180225237Y-123480368D02*
X180225237Y-123423225D01*
X180225237Y-123423225D02*
X180177618Y-123308939D01*
X180177618Y-123308939D02*
X180082380Y-123251796D01*
X180082380Y-123251796D02*
X179939523Y-123251796D01*
X179939523Y-123251796D02*
X179844285Y-123308939D01*
X179225237Y-124051796D02*
X179320475Y-123994654D01*
X179320475Y-123994654D02*
X179368094Y-123937511D01*
X179368094Y-123937511D02*
X179415713Y-123823225D01*
X179415713Y-123823225D02*
X179415713Y-123480368D01*
X179415713Y-123480368D02*
X179368094Y-123366082D01*
X179368094Y-123366082D02*
X179320475Y-123308939D01*
X179320475Y-123308939D02*
X179225237Y-123251796D01*
X179225237Y-123251796D02*
X179082380Y-123251796D01*
X179082380Y-123251796D02*
X178987142Y-123308939D01*
X178987142Y-123308939D02*
X178939523Y-123366082D01*
X178939523Y-123366082D02*
X178891904Y-123480368D01*
X178891904Y-123480368D02*
X178891904Y-123823225D01*
X178891904Y-123823225D02*
X178939523Y-123937511D01*
X178939523Y-123937511D02*
X178987142Y-123994654D01*
X178987142Y-123994654D02*
X179082380Y-124051796D01*
X179082380Y-124051796D02*
X179225237Y-124051796D01*
X178463332Y-124051796D02*
X178463332Y-123251796D01*
X178463332Y-123480368D02*
X178415713Y-123366082D01*
X178415713Y-123366082D02*
X178368094Y-123308939D01*
X178368094Y-123308939D02*
X178272856Y-123251796D01*
X178272856Y-123251796D02*
X178177618Y-123251796D01*
X177891903Y-123994654D02*
X177796665Y-124051796D01*
X177796665Y-124051796D02*
X177606189Y-124051796D01*
X177606189Y-124051796D02*
X177510951Y-123994654D01*
X177510951Y-123994654D02*
X177463332Y-123880368D01*
X177463332Y-123880368D02*
X177463332Y-123823225D01*
X177463332Y-123823225D02*
X177510951Y-123708939D01*
X177510951Y-123708939D02*
X177606189Y-123651796D01*
X177606189Y-123651796D02*
X177749046Y-123651796D01*
X177749046Y-123651796D02*
X177844284Y-123594654D01*
X177844284Y-123594654D02*
X177891903Y-123480368D01*
X177891903Y-123480368D02*
X177891903Y-123423225D01*
X177891903Y-123423225D02*
X177844284Y-123308939D01*
X177844284Y-123308939D02*
X177749046Y-123251796D01*
X177749046Y-123251796D02*
X177606189Y-123251796D01*
X177606189Y-123251796D02*
X177510951Y-123308939D01*
X185820477Y-125983729D02*
X185820477Y-125355158D01*
X185820477Y-125355158D02*
X185868096Y-125240872D01*
X185868096Y-125240872D02*
X185963334Y-125183729D01*
X185963334Y-125183729D02*
X186153810Y-125183729D01*
X186153810Y-125183729D02*
X186249048Y-125240872D01*
X185820477Y-125926587D02*
X185915715Y-125983729D01*
X185915715Y-125983729D02*
X186153810Y-125983729D01*
X186153810Y-125983729D02*
X186249048Y-125926587D01*
X186249048Y-125926587D02*
X186296667Y-125812301D01*
X186296667Y-125812301D02*
X186296667Y-125698015D01*
X186296667Y-125698015D02*
X186249048Y-125583729D01*
X186249048Y-125583729D02*
X186153810Y-125526587D01*
X186153810Y-125526587D02*
X185915715Y-125526587D01*
X185915715Y-125526587D02*
X185820477Y-125469444D01*
X185344286Y-125183729D02*
X185344286Y-125983729D01*
X185344286Y-125298015D02*
X185296667Y-125240872D01*
X185296667Y-125240872D02*
X185201429Y-125183729D01*
X185201429Y-125183729D02*
X185058572Y-125183729D01*
X185058572Y-125183729D02*
X184963334Y-125240872D01*
X184963334Y-125240872D02*
X184915715Y-125355158D01*
X184915715Y-125355158D02*
X184915715Y-125983729D01*
X184010953Y-125983729D02*
X184010953Y-124783729D01*
X184010953Y-125926587D02*
X184106191Y-125983729D01*
X184106191Y-125983729D02*
X184296667Y-125983729D01*
X184296667Y-125983729D02*
X184391905Y-125926587D01*
X184391905Y-125926587D02*
X184439524Y-125869444D01*
X184439524Y-125869444D02*
X184487143Y-125755158D01*
X184487143Y-125755158D02*
X184487143Y-125412301D01*
X184487143Y-125412301D02*
X184439524Y-125298015D01*
X184439524Y-125298015D02*
X184391905Y-125240872D01*
X184391905Y-125240872D02*
X184296667Y-125183729D01*
X184296667Y-125183729D02*
X184106191Y-125183729D01*
X184106191Y-125183729D02*
X184010953Y-125240872D01*
X182201429Y-125869444D02*
X182249048Y-125926587D01*
X182249048Y-125926587D02*
X182391905Y-125983729D01*
X182391905Y-125983729D02*
X182487143Y-125983729D01*
X182487143Y-125983729D02*
X182630000Y-125926587D01*
X182630000Y-125926587D02*
X182725238Y-125812301D01*
X182725238Y-125812301D02*
X182772857Y-125698015D01*
X182772857Y-125698015D02*
X182820476Y-125469444D01*
X182820476Y-125469444D02*
X182820476Y-125298015D01*
X182820476Y-125298015D02*
X182772857Y-125069444D01*
X182772857Y-125069444D02*
X182725238Y-124955158D01*
X182725238Y-124955158D02*
X182630000Y-124840872D01*
X182630000Y-124840872D02*
X182487143Y-124783729D01*
X182487143Y-124783729D02*
X182391905Y-124783729D01*
X182391905Y-124783729D02*
X182249048Y-124840872D01*
X182249048Y-124840872D02*
X182201429Y-124898015D01*
X181630000Y-125983729D02*
X181725238Y-125926587D01*
X181725238Y-125926587D02*
X181772857Y-125869444D01*
X181772857Y-125869444D02*
X181820476Y-125755158D01*
X181820476Y-125755158D02*
X181820476Y-125412301D01*
X181820476Y-125412301D02*
X181772857Y-125298015D01*
X181772857Y-125298015D02*
X181725238Y-125240872D01*
X181725238Y-125240872D02*
X181630000Y-125183729D01*
X181630000Y-125183729D02*
X181487143Y-125183729D01*
X181487143Y-125183729D02*
X181391905Y-125240872D01*
X181391905Y-125240872D02*
X181344286Y-125298015D01*
X181344286Y-125298015D02*
X181296667Y-125412301D01*
X181296667Y-125412301D02*
X181296667Y-125755158D01*
X181296667Y-125755158D02*
X181344286Y-125869444D01*
X181344286Y-125869444D02*
X181391905Y-125926587D01*
X181391905Y-125926587D02*
X181487143Y-125983729D01*
X181487143Y-125983729D02*
X181630000Y-125983729D01*
X180868095Y-125183729D02*
X180868095Y-125983729D01*
X180868095Y-125298015D02*
X180820476Y-125240872D01*
X180820476Y-125240872D02*
X180725238Y-125183729D01*
X180725238Y-125183729D02*
X180582381Y-125183729D01*
X180582381Y-125183729D02*
X180487143Y-125240872D01*
X180487143Y-125240872D02*
X180439524Y-125355158D01*
X180439524Y-125355158D02*
X180439524Y-125983729D01*
X180106190Y-125183729D02*
X179725238Y-125183729D01*
X179963333Y-124783729D02*
X179963333Y-125812301D01*
X179963333Y-125812301D02*
X179915714Y-125926587D01*
X179915714Y-125926587D02*
X179820476Y-125983729D01*
X179820476Y-125983729D02*
X179725238Y-125983729D01*
X179391904Y-125983729D02*
X179391904Y-125183729D01*
X179391904Y-125412301D02*
X179344285Y-125298015D01*
X179344285Y-125298015D02*
X179296666Y-125240872D01*
X179296666Y-125240872D02*
X179201428Y-125183729D01*
X179201428Y-125183729D02*
X179106190Y-125183729D01*
X178629999Y-125983729D02*
X178725237Y-125926587D01*
X178725237Y-125926587D02*
X178772856Y-125869444D01*
X178772856Y-125869444D02*
X178820475Y-125755158D01*
X178820475Y-125755158D02*
X178820475Y-125412301D01*
X178820475Y-125412301D02*
X178772856Y-125298015D01*
X178772856Y-125298015D02*
X178725237Y-125240872D01*
X178725237Y-125240872D02*
X178629999Y-125183729D01*
X178629999Y-125183729D02*
X178487142Y-125183729D01*
X178487142Y-125183729D02*
X178391904Y-125240872D01*
X178391904Y-125240872D02*
X178344285Y-125298015D01*
X178344285Y-125298015D02*
X178296666Y-125412301D01*
X178296666Y-125412301D02*
X178296666Y-125755158D01*
X178296666Y-125755158D02*
X178344285Y-125869444D01*
X178344285Y-125869444D02*
X178391904Y-125926587D01*
X178391904Y-125926587D02*
X178487142Y-125983729D01*
X178487142Y-125983729D02*
X178629999Y-125983729D01*
X177725237Y-125983729D02*
X177820475Y-125926587D01*
X177820475Y-125926587D02*
X177868094Y-125812301D01*
X177868094Y-125812301D02*
X177868094Y-124783729D01*
X177391903Y-125926587D02*
X177296665Y-125983729D01*
X177296665Y-125983729D02*
X177106189Y-125983729D01*
X177106189Y-125983729D02*
X177010951Y-125926587D01*
X177010951Y-125926587D02*
X176963332Y-125812301D01*
X176963332Y-125812301D02*
X176963332Y-125755158D01*
X176963332Y-125755158D02*
X177010951Y-125640872D01*
X177010951Y-125640872D02*
X177106189Y-125583729D01*
X177106189Y-125583729D02*
X177249046Y-125583729D01*
X177249046Y-125583729D02*
X177344284Y-125526587D01*
X177344284Y-125526587D02*
X177391903Y-125412301D01*
X177391903Y-125412301D02*
X177391903Y-125355158D01*
X177391903Y-125355158D02*
X177344284Y-125240872D01*
X177344284Y-125240872D02*
X177249046Y-125183729D01*
X177249046Y-125183729D02*
X177106189Y-125183729D01*
X177106189Y-125183729D02*
X177010951Y-125240872D01*
X184677618Y-127572805D02*
X184201428Y-127572805D01*
X184772856Y-127915662D02*
X184439523Y-126715662D01*
X184439523Y-126715662D02*
X184106190Y-127915662D01*
X183344285Y-127115662D02*
X183344285Y-127915662D01*
X183772856Y-127115662D02*
X183772856Y-127744234D01*
X183772856Y-127744234D02*
X183725237Y-127858520D01*
X183725237Y-127858520D02*
X183629999Y-127915662D01*
X183629999Y-127915662D02*
X183487142Y-127915662D01*
X183487142Y-127915662D02*
X183391904Y-127858520D01*
X183391904Y-127858520D02*
X183344285Y-127801377D01*
X182439523Y-127115662D02*
X182439523Y-128087091D01*
X182439523Y-128087091D02*
X182487142Y-128201377D01*
X182487142Y-128201377D02*
X182534761Y-128258520D01*
X182534761Y-128258520D02*
X182629999Y-128315662D01*
X182629999Y-128315662D02*
X182772856Y-128315662D01*
X182772856Y-128315662D02*
X182868094Y-128258520D01*
X182439523Y-127858520D02*
X182534761Y-127915662D01*
X182534761Y-127915662D02*
X182725237Y-127915662D01*
X182725237Y-127915662D02*
X182820475Y-127858520D01*
X182820475Y-127858520D02*
X182868094Y-127801377D01*
X182868094Y-127801377D02*
X182915713Y-127687091D01*
X182915713Y-127687091D02*
X182915713Y-127344234D01*
X182915713Y-127344234D02*
X182868094Y-127229948D01*
X182868094Y-127229948D02*
X182820475Y-127172805D01*
X182820475Y-127172805D02*
X182725237Y-127115662D01*
X182725237Y-127115662D02*
X182534761Y-127115662D01*
X182534761Y-127115662D02*
X182439523Y-127172805D01*
X182010951Y-126829948D02*
X181963332Y-126772805D01*
X181963332Y-126772805D02*
X181868094Y-126715662D01*
X181868094Y-126715662D02*
X181629999Y-126715662D01*
X181629999Y-126715662D02*
X181534761Y-126772805D01*
X181534761Y-126772805D02*
X181487142Y-126829948D01*
X181487142Y-126829948D02*
X181439523Y-126944234D01*
X181439523Y-126944234D02*
X181439523Y-127058520D01*
X181439523Y-127058520D02*
X181487142Y-127229948D01*
X181487142Y-127229948D02*
X182058570Y-127915662D01*
X182058570Y-127915662D02*
X181439523Y-127915662D01*
X180820475Y-126715662D02*
X180725237Y-126715662D01*
X180725237Y-126715662D02*
X180629999Y-126772805D01*
X180629999Y-126772805D02*
X180582380Y-126829948D01*
X180582380Y-126829948D02*
X180534761Y-126944234D01*
X180534761Y-126944234D02*
X180487142Y-127172805D01*
X180487142Y-127172805D02*
X180487142Y-127458520D01*
X180487142Y-127458520D02*
X180534761Y-127687091D01*
X180534761Y-127687091D02*
X180582380Y-127801377D01*
X180582380Y-127801377D02*
X180629999Y-127858520D01*
X180629999Y-127858520D02*
X180725237Y-127915662D01*
X180725237Y-127915662D02*
X180820475Y-127915662D01*
X180820475Y-127915662D02*
X180915713Y-127858520D01*
X180915713Y-127858520D02*
X180963332Y-127801377D01*
X180963332Y-127801377D02*
X181010951Y-127687091D01*
X181010951Y-127687091D02*
X181058570Y-127458520D01*
X181058570Y-127458520D02*
X181058570Y-127172805D01*
X181058570Y-127172805D02*
X181010951Y-126944234D01*
X181010951Y-126944234D02*
X180963332Y-126829948D01*
X180963332Y-126829948D02*
X180915713Y-126772805D01*
X180915713Y-126772805D02*
X180820475Y-126715662D01*
X180106189Y-126829948D02*
X180058570Y-126772805D01*
X180058570Y-126772805D02*
X179963332Y-126715662D01*
X179963332Y-126715662D02*
X179725237Y-126715662D01*
X179725237Y-126715662D02*
X179629999Y-126772805D01*
X179629999Y-126772805D02*
X179582380Y-126829948D01*
X179582380Y-126829948D02*
X179534761Y-126944234D01*
X179534761Y-126944234D02*
X179534761Y-127058520D01*
X179534761Y-127058520D02*
X179582380Y-127229948D01*
X179582380Y-127229948D02*
X180153808Y-127915662D01*
X180153808Y-127915662D02*
X179534761Y-127915662D01*
X178677618Y-126715662D02*
X178868094Y-126715662D01*
X178868094Y-126715662D02*
X178963332Y-126772805D01*
X178963332Y-126772805D02*
X179010951Y-126829948D01*
X179010951Y-126829948D02*
X179106189Y-127001377D01*
X179106189Y-127001377D02*
X179153808Y-127229948D01*
X179153808Y-127229948D02*
X179153808Y-127687091D01*
X179153808Y-127687091D02*
X179106189Y-127801377D01*
X179106189Y-127801377D02*
X179058570Y-127858520D01*
X179058570Y-127858520D02*
X178963332Y-127915662D01*
X178963332Y-127915662D02*
X178772856Y-127915662D01*
X178772856Y-127915662D02*
X178677618Y-127858520D01*
X178677618Y-127858520D02*
X178629999Y-127801377D01*
X178629999Y-127801377D02*
X178582380Y-127687091D01*
X178582380Y-127687091D02*
X178582380Y-127401377D01*
X178582380Y-127401377D02*
X178629999Y-127287091D01*
X178629999Y-127287091D02*
X178677618Y-127229948D01*
X178677618Y-127229948D02*
X178772856Y-127172805D01*
X178772856Y-127172805D02*
X178963332Y-127172805D01*
X178963332Y-127172805D02*
X179058570Y-127229948D01*
X179058570Y-127229948D02*
X179106189Y-127287091D01*
X179106189Y-127287091D02*
X179153808Y-127401377D01*
D12*
X184348094Y-86429819D02*
X184348094Y-85429819D01*
X184348094Y-85429819D02*
X184109999Y-85429819D01*
X184109999Y-85429819D02*
X183967142Y-85477438D01*
X183967142Y-85477438D02*
X183871904Y-85572676D01*
X183871904Y-85572676D02*
X183824285Y-85667914D01*
X183824285Y-85667914D02*
X183776666Y-85858390D01*
X183776666Y-85858390D02*
X183776666Y-86001247D01*
X183776666Y-86001247D02*
X183824285Y-86191723D01*
X183824285Y-86191723D02*
X183871904Y-86286961D01*
X183871904Y-86286961D02*
X183967142Y-86382200D01*
X183967142Y-86382200D02*
X184109999Y-86429819D01*
X184109999Y-86429819D02*
X184348094Y-86429819D01*
X182919523Y-85429819D02*
X183109999Y-85429819D01*
X183109999Y-85429819D02*
X183205237Y-85477438D01*
X183205237Y-85477438D02*
X183252856Y-85525057D01*
X183252856Y-85525057D02*
X183348094Y-85667914D01*
X183348094Y-85667914D02*
X183395713Y-85858390D01*
X183395713Y-85858390D02*
X183395713Y-86239342D01*
X183395713Y-86239342D02*
X183348094Y-86334580D01*
X183348094Y-86334580D02*
X183300475Y-86382200D01*
X183300475Y-86382200D02*
X183205237Y-86429819D01*
X183205237Y-86429819D02*
X183014761Y-86429819D01*
X183014761Y-86429819D02*
X182919523Y-86382200D01*
X182919523Y-86382200D02*
X182871904Y-86334580D01*
X182871904Y-86334580D02*
X182824285Y-86239342D01*
X182824285Y-86239342D02*
X182824285Y-86001247D01*
X182824285Y-86001247D02*
X182871904Y-85906009D01*
X182871904Y-85906009D02*
X182919523Y-85858390D01*
X182919523Y-85858390D02*
X183014761Y-85810771D01*
X183014761Y-85810771D02*
X183205237Y-85810771D01*
X183205237Y-85810771D02*
X183300475Y-85858390D01*
X183300475Y-85858390D02*
X183348094Y-85906009D01*
X183348094Y-85906009D02*
X183395713Y-86001247D01*
X185180475Y-87699819D02*
X185180475Y-86699819D01*
X185180475Y-86699819D02*
X184799523Y-86699819D01*
X184799523Y-86699819D02*
X184704285Y-86747438D01*
X184704285Y-86747438D02*
X184656666Y-86795057D01*
X184656666Y-86795057D02*
X184609047Y-86890295D01*
X184609047Y-86890295D02*
X184609047Y-87033152D01*
X184609047Y-87033152D02*
X184656666Y-87128390D01*
X184656666Y-87128390D02*
X184704285Y-87176009D01*
X184704285Y-87176009D02*
X184799523Y-87223628D01*
X184799523Y-87223628D02*
X185180475Y-87223628D01*
X184180475Y-87176009D02*
X183847142Y-87176009D01*
X183704285Y-87699819D02*
X184180475Y-87699819D01*
X184180475Y-87699819D02*
X184180475Y-86699819D01*
X184180475Y-86699819D02*
X183704285Y-86699819D01*
X183323332Y-87652200D02*
X183180475Y-87699819D01*
X183180475Y-87699819D02*
X182942380Y-87699819D01*
X182942380Y-87699819D02*
X182847142Y-87652200D01*
X182847142Y-87652200D02*
X182799523Y-87604580D01*
X182799523Y-87604580D02*
X182751904Y-87509342D01*
X182751904Y-87509342D02*
X182751904Y-87414104D01*
X182751904Y-87414104D02*
X182799523Y-87318866D01*
X182799523Y-87318866D02*
X182847142Y-87271247D01*
X182847142Y-87271247D02*
X182942380Y-87223628D01*
X182942380Y-87223628D02*
X183132856Y-87176009D01*
X183132856Y-87176009D02*
X183228094Y-87128390D01*
X183228094Y-87128390D02*
X183275713Y-87080771D01*
X183275713Y-87080771D02*
X183323332Y-86985533D01*
X183323332Y-86985533D02*
X183323332Y-86890295D01*
X183323332Y-86890295D02*
X183275713Y-86795057D01*
X183275713Y-86795057D02*
X183228094Y-86747438D01*
X183228094Y-86747438D02*
X183132856Y-86699819D01*
X183132856Y-86699819D02*
X182894761Y-86699819D01*
X182894761Y-86699819D02*
X182751904Y-86747438D01*
X182323332Y-87699819D02*
X182323332Y-86699819D01*
X182323332Y-86699819D02*
X182085237Y-86699819D01*
X182085237Y-86699819D02*
X181942380Y-86747438D01*
X181942380Y-86747438D02*
X181847142Y-86842676D01*
X181847142Y-86842676D02*
X181799523Y-86937914D01*
X181799523Y-86937914D02*
X181751904Y-87128390D01*
X181751904Y-87128390D02*
X181751904Y-87271247D01*
X181751904Y-87271247D02*
X181799523Y-87461723D01*
X181799523Y-87461723D02*
X181847142Y-87556961D01*
X181847142Y-87556961D02*
X181942380Y-87652200D01*
X181942380Y-87652200D02*
X182085237Y-87699819D01*
X182085237Y-87699819D02*
X182323332Y-87699819D01*
X205804819Y-111419642D02*
X205328628Y-111086309D01*
X205804819Y-110848214D02*
X204804819Y-110848214D01*
X204804819Y-110848214D02*
X204804819Y-111229166D01*
X204804819Y-111229166D02*
X204852438Y-111324404D01*
X204852438Y-111324404D02*
X204900057Y-111372023D01*
X204900057Y-111372023D02*
X204995295Y-111419642D01*
X204995295Y-111419642D02*
X205138152Y-111419642D01*
X205138152Y-111419642D02*
X205233390Y-111372023D01*
X205233390Y-111372023D02*
X205281009Y-111324404D01*
X205281009Y-111324404D02*
X205328628Y-111229166D01*
X205328628Y-111229166D02*
X205328628Y-110848214D01*
X205804819Y-112372023D02*
X205804819Y-111800595D01*
X205804819Y-112086309D02*
X204804819Y-112086309D01*
X204804819Y-112086309D02*
X204947676Y-111991071D01*
X204947676Y-111991071D02*
X205042914Y-111895833D01*
X205042914Y-111895833D02*
X205090533Y-111800595D01*
X204804819Y-113276785D02*
X204804819Y-112800595D01*
X204804819Y-112800595D02*
X205281009Y-112752976D01*
X205281009Y-112752976D02*
X205233390Y-112800595D01*
X205233390Y-112800595D02*
X205185771Y-112895833D01*
X205185771Y-112895833D02*
X205185771Y-113133928D01*
X205185771Y-113133928D02*
X205233390Y-113229166D01*
X205233390Y-113229166D02*
X205281009Y-113276785D01*
X205281009Y-113276785D02*
X205376247Y-113324404D01*
X205376247Y-113324404D02*
X205614342Y-113324404D01*
X205614342Y-113324404D02*
X205709580Y-113276785D01*
X205709580Y-113276785D02*
X205757200Y-113229166D01*
X205757200Y-113229166D02*
X205804819Y-113133928D01*
X205804819Y-113133928D02*
X205804819Y-112895833D01*
X205804819Y-112895833D02*
X205757200Y-112800595D01*
X205757200Y-112800595D02*
X205709580Y-112752976D01*
X206488152Y-114089285D02*
X207154819Y-114089285D01*
X206107200Y-113851190D02*
X206821485Y-113613095D01*
X206821485Y-113613095D02*
X206821485Y-114232142D01*
X207154819Y-114613095D02*
X206154819Y-114613095D01*
X207154819Y-115184523D02*
X206583390Y-114755952D01*
X206154819Y-115184523D02*
X206726247Y-114613095D01*
X206154819Y-115517857D02*
X206154819Y-116184523D01*
X206154819Y-116184523D02*
X207154819Y-115755952D01*
X193766666Y-76029819D02*
X194099999Y-75553628D01*
X194338094Y-76029819D02*
X194338094Y-75029819D01*
X194338094Y-75029819D02*
X193957142Y-75029819D01*
X193957142Y-75029819D02*
X193861904Y-75077438D01*
X193861904Y-75077438D02*
X193814285Y-75125057D01*
X193814285Y-75125057D02*
X193766666Y-75220295D01*
X193766666Y-75220295D02*
X193766666Y-75363152D01*
X193766666Y-75363152D02*
X193814285Y-75458390D01*
X193814285Y-75458390D02*
X193861904Y-75506009D01*
X193861904Y-75506009D02*
X193957142Y-75553628D01*
X193957142Y-75553628D02*
X194338094Y-75553628D01*
X192909523Y-75363152D02*
X192909523Y-76029819D01*
X193147618Y-74982200D02*
X193385713Y-75696485D01*
X193385713Y-75696485D02*
X192766666Y-75696485D01*
X193990476Y-77629819D02*
X194561904Y-77629819D01*
X194276190Y-77629819D02*
X194276190Y-76629819D01*
X194276190Y-76629819D02*
X194371428Y-76772676D01*
X194371428Y-76772676D02*
X194466666Y-76867914D01*
X194466666Y-76867914D02*
X194561904Y-76915533D01*
X193371428Y-76629819D02*
X193276190Y-76629819D01*
X193276190Y-76629819D02*
X193180952Y-76677438D01*
X193180952Y-76677438D02*
X193133333Y-76725057D01*
X193133333Y-76725057D02*
X193085714Y-76820295D01*
X193085714Y-76820295D02*
X193038095Y-77010771D01*
X193038095Y-77010771D02*
X193038095Y-77248866D01*
X193038095Y-77248866D02*
X193085714Y-77439342D01*
X193085714Y-77439342D02*
X193133333Y-77534580D01*
X193133333Y-77534580D02*
X193180952Y-77582200D01*
X193180952Y-77582200D02*
X193276190Y-77629819D01*
X193276190Y-77629819D02*
X193371428Y-77629819D01*
X193371428Y-77629819D02*
X193466666Y-77582200D01*
X193466666Y-77582200D02*
X193514285Y-77534580D01*
X193514285Y-77534580D02*
X193561904Y-77439342D01*
X193561904Y-77439342D02*
X193609523Y-77248866D01*
X193609523Y-77248866D02*
X193609523Y-77010771D01*
X193609523Y-77010771D02*
X193561904Y-76820295D01*
X193561904Y-76820295D02*
X193514285Y-76725057D01*
X193514285Y-76725057D02*
X193466666Y-76677438D01*
X193466666Y-76677438D02*
X193371428Y-76629819D01*
X192609523Y-77629819D02*
X192609523Y-76629819D01*
X192038095Y-77629819D02*
X192466666Y-77058390D01*
X192038095Y-76629819D02*
X192609523Y-77201247D01*
X198161904Y-127959819D02*
X197590476Y-127959819D01*
X197876190Y-128959819D02*
X197876190Y-127959819D01*
X197257142Y-128959819D02*
X197257142Y-127959819D01*
X197257142Y-127959819D02*
X196876190Y-127959819D01*
X196876190Y-127959819D02*
X196780952Y-128007438D01*
X196780952Y-128007438D02*
X196733333Y-128055057D01*
X196733333Y-128055057D02*
X196685714Y-128150295D01*
X196685714Y-128150295D02*
X196685714Y-128293152D01*
X196685714Y-128293152D02*
X196733333Y-128388390D01*
X196733333Y-128388390D02*
X196780952Y-128436009D01*
X196780952Y-128436009D02*
X196876190Y-128483628D01*
X196876190Y-128483628D02*
X197257142Y-128483628D01*
X195733333Y-128959819D02*
X196304761Y-128959819D01*
X196019047Y-128959819D02*
X196019047Y-127959819D01*
X196019047Y-127959819D02*
X196114285Y-128102676D01*
X196114285Y-128102676D02*
X196209523Y-128197914D01*
X196209523Y-128197914D02*
X196304761Y-128245533D01*
X194601190Y-124253628D02*
X194601190Y-124729819D01*
X194934523Y-123729819D02*
X194601190Y-124253628D01*
X194601190Y-124253628D02*
X194267857Y-123729819D01*
X193410714Y-124729819D02*
X193982142Y-124729819D01*
X193696428Y-124729819D02*
X193696428Y-123729819D01*
X193696428Y-123729819D02*
X193791666Y-123872676D01*
X193791666Y-123872676D02*
X193886904Y-123967914D01*
X193886904Y-123967914D02*
X193982142Y-124015533D01*
X209454819Y-111382142D02*
X208978628Y-111048809D01*
X209454819Y-110810714D02*
X208454819Y-110810714D01*
X208454819Y-110810714D02*
X208454819Y-111191666D01*
X208454819Y-111191666D02*
X208502438Y-111286904D01*
X208502438Y-111286904D02*
X208550057Y-111334523D01*
X208550057Y-111334523D02*
X208645295Y-111382142D01*
X208645295Y-111382142D02*
X208788152Y-111382142D01*
X208788152Y-111382142D02*
X208883390Y-111334523D01*
X208883390Y-111334523D02*
X208931009Y-111286904D01*
X208931009Y-111286904D02*
X208978628Y-111191666D01*
X208978628Y-111191666D02*
X208978628Y-110810714D01*
X209454819Y-112334523D02*
X209454819Y-111763095D01*
X209454819Y-112048809D02*
X208454819Y-112048809D01*
X208454819Y-112048809D02*
X208597676Y-111953571D01*
X208597676Y-111953571D02*
X208692914Y-111858333D01*
X208692914Y-111858333D02*
X208740533Y-111763095D01*
X208454819Y-113191666D02*
X208454819Y-113001190D01*
X208454819Y-113001190D02*
X208502438Y-112905952D01*
X208502438Y-112905952D02*
X208550057Y-112858333D01*
X208550057Y-112858333D02*
X208692914Y-112763095D01*
X208692914Y-112763095D02*
X208883390Y-112715476D01*
X208883390Y-112715476D02*
X209264342Y-112715476D01*
X209264342Y-112715476D02*
X209359580Y-112763095D01*
X209359580Y-112763095D02*
X209407200Y-112810714D01*
X209407200Y-112810714D02*
X209454819Y-112905952D01*
X209454819Y-112905952D02*
X209454819Y-113096428D01*
X209454819Y-113096428D02*
X209407200Y-113191666D01*
X209407200Y-113191666D02*
X209359580Y-113239285D01*
X209359580Y-113239285D02*
X209264342Y-113286904D01*
X209264342Y-113286904D02*
X209026247Y-113286904D01*
X209026247Y-113286904D02*
X208931009Y-113239285D01*
X208931009Y-113239285D02*
X208883390Y-113191666D01*
X208883390Y-113191666D02*
X208835771Y-113096428D01*
X208835771Y-113096428D02*
X208835771Y-112905952D01*
X208835771Y-112905952D02*
X208883390Y-112810714D01*
X208883390Y-112810714D02*
X208931009Y-112763095D01*
X208931009Y-112763095D02*
X209026247Y-112715476D01*
X210488152Y-114189285D02*
X211154819Y-114189285D01*
X210107200Y-113951190D02*
X210821485Y-113713095D01*
X210821485Y-113713095D02*
X210821485Y-114332142D01*
X211154819Y-114713095D02*
X210154819Y-114713095D01*
X211154819Y-115284523D02*
X210583390Y-114855952D01*
X210154819Y-115284523D02*
X210726247Y-114713095D01*
X210154819Y-115617857D02*
X210154819Y-116284523D01*
X210154819Y-116284523D02*
X211154819Y-115855952D01*
X182806666Y-78829819D02*
X183139999Y-78353628D01*
X183378094Y-78829819D02*
X183378094Y-77829819D01*
X183378094Y-77829819D02*
X182997142Y-77829819D01*
X182997142Y-77829819D02*
X182901904Y-77877438D01*
X182901904Y-77877438D02*
X182854285Y-77925057D01*
X182854285Y-77925057D02*
X182806666Y-78020295D01*
X182806666Y-78020295D02*
X182806666Y-78163152D01*
X182806666Y-78163152D02*
X182854285Y-78258390D01*
X182854285Y-78258390D02*
X182901904Y-78306009D01*
X182901904Y-78306009D02*
X182997142Y-78353628D01*
X182997142Y-78353628D02*
X183378094Y-78353628D01*
X181854285Y-78829819D02*
X182425713Y-78829819D01*
X182139999Y-78829819D02*
X182139999Y-77829819D01*
X182139999Y-77829819D02*
X182235237Y-77972676D01*
X182235237Y-77972676D02*
X182330475Y-78067914D01*
X182330475Y-78067914D02*
X182425713Y-78115533D01*
X184154285Y-77063152D02*
X184154285Y-77729819D01*
X184392380Y-76682200D02*
X184630475Y-77396485D01*
X184630475Y-77396485D02*
X184011428Y-77396485D01*
X183725713Y-76729819D02*
X183059047Y-76729819D01*
X183059047Y-76729819D02*
X183487618Y-77729819D01*
X182487618Y-76729819D02*
X182392380Y-76729819D01*
X182392380Y-76729819D02*
X182297142Y-76777438D01*
X182297142Y-76777438D02*
X182249523Y-76825057D01*
X182249523Y-76825057D02*
X182201904Y-76920295D01*
X182201904Y-76920295D02*
X182154285Y-77110771D01*
X182154285Y-77110771D02*
X182154285Y-77348866D01*
X182154285Y-77348866D02*
X182201904Y-77539342D01*
X182201904Y-77539342D02*
X182249523Y-77634580D01*
X182249523Y-77634580D02*
X182297142Y-77682200D01*
X182297142Y-77682200D02*
X182392380Y-77729819D01*
X182392380Y-77729819D02*
X182487618Y-77729819D01*
X182487618Y-77729819D02*
X182582856Y-77682200D01*
X182582856Y-77682200D02*
X182630475Y-77634580D01*
X182630475Y-77634580D02*
X182678094Y-77539342D01*
X182678094Y-77539342D02*
X182725713Y-77348866D01*
X182725713Y-77348866D02*
X182725713Y-77110771D01*
X182725713Y-77110771D02*
X182678094Y-76920295D01*
X182678094Y-76920295D02*
X182630475Y-76825057D01*
X182630475Y-76825057D02*
X182582856Y-76777438D01*
X182582856Y-76777438D02*
X182487618Y-76729819D01*
X181725713Y-77206009D02*
X181392380Y-77206009D01*
X181249523Y-77729819D02*
X181725713Y-77729819D01*
X181725713Y-77729819D02*
X181725713Y-76729819D01*
X181725713Y-76729819D02*
X181249523Y-76729819D01*
X226266666Y-64839819D02*
X226599999Y-64363628D01*
X226838094Y-64839819D02*
X226838094Y-63839819D01*
X226838094Y-63839819D02*
X226457142Y-63839819D01*
X226457142Y-63839819D02*
X226361904Y-63887438D01*
X226361904Y-63887438D02*
X226314285Y-63935057D01*
X226314285Y-63935057D02*
X226266666Y-64030295D01*
X226266666Y-64030295D02*
X226266666Y-64173152D01*
X226266666Y-64173152D02*
X226314285Y-64268390D01*
X226314285Y-64268390D02*
X226361904Y-64316009D01*
X226361904Y-64316009D02*
X226457142Y-64363628D01*
X226457142Y-64363628D02*
X226838094Y-64363628D01*
X225361904Y-63839819D02*
X225838094Y-63839819D01*
X225838094Y-63839819D02*
X225885713Y-64316009D01*
X225885713Y-64316009D02*
X225838094Y-64268390D01*
X225838094Y-64268390D02*
X225742856Y-64220771D01*
X225742856Y-64220771D02*
X225504761Y-64220771D01*
X225504761Y-64220771D02*
X225409523Y-64268390D01*
X225409523Y-64268390D02*
X225361904Y-64316009D01*
X225361904Y-64316009D02*
X225314285Y-64411247D01*
X225314285Y-64411247D02*
X225314285Y-64649342D01*
X225314285Y-64649342D02*
X225361904Y-64744580D01*
X225361904Y-64744580D02*
X225409523Y-64792200D01*
X225409523Y-64792200D02*
X225504761Y-64839819D01*
X225504761Y-64839819D02*
X225742856Y-64839819D01*
X225742856Y-64839819D02*
X225838094Y-64792200D01*
X225838094Y-64792200D02*
X225885713Y-64744580D01*
X226314285Y-66539819D02*
X226885713Y-66539819D01*
X226599999Y-66539819D02*
X226599999Y-65539819D01*
X226599999Y-65539819D02*
X226695237Y-65682676D01*
X226695237Y-65682676D02*
X226790475Y-65777914D01*
X226790475Y-65777914D02*
X226885713Y-65825533D01*
X225885713Y-66539819D02*
X225885713Y-65539819D01*
X225314285Y-66539819D02*
X225742856Y-65968390D01*
X225314285Y-65539819D02*
X225885713Y-66111247D01*
X216291904Y-123779819D02*
X216291904Y-124589342D01*
X216291904Y-124589342D02*
X216244285Y-124684580D01*
X216244285Y-124684580D02*
X216196666Y-124732200D01*
X216196666Y-124732200D02*
X216101428Y-124779819D01*
X216101428Y-124779819D02*
X215910952Y-124779819D01*
X215910952Y-124779819D02*
X215815714Y-124732200D01*
X215815714Y-124732200D02*
X215768095Y-124684580D01*
X215768095Y-124684580D02*
X215720476Y-124589342D01*
X215720476Y-124589342D02*
X215720476Y-123779819D01*
X214815714Y-124113152D02*
X214815714Y-124779819D01*
X215053809Y-123732200D02*
X215291904Y-124446485D01*
X215291904Y-124446485D02*
X214672857Y-124446485D01*
X219604285Y-126469819D02*
X219604285Y-125469819D01*
X219604285Y-125469819D02*
X219366190Y-125469819D01*
X219366190Y-125469819D02*
X219223333Y-125517438D01*
X219223333Y-125517438D02*
X219128095Y-125612676D01*
X219128095Y-125612676D02*
X219080476Y-125707914D01*
X219080476Y-125707914D02*
X219032857Y-125898390D01*
X219032857Y-125898390D02*
X219032857Y-126041247D01*
X219032857Y-126041247D02*
X219080476Y-126231723D01*
X219080476Y-126231723D02*
X219128095Y-126326961D01*
X219128095Y-126326961D02*
X219223333Y-126422200D01*
X219223333Y-126422200D02*
X219366190Y-126469819D01*
X219366190Y-126469819D02*
X219604285Y-126469819D01*
X218651904Y-126422200D02*
X218509047Y-126469819D01*
X218509047Y-126469819D02*
X218270952Y-126469819D01*
X218270952Y-126469819D02*
X218175714Y-126422200D01*
X218175714Y-126422200D02*
X218128095Y-126374580D01*
X218128095Y-126374580D02*
X218080476Y-126279342D01*
X218080476Y-126279342D02*
X218080476Y-126184104D01*
X218080476Y-126184104D02*
X218128095Y-126088866D01*
X218128095Y-126088866D02*
X218175714Y-126041247D01*
X218175714Y-126041247D02*
X218270952Y-125993628D01*
X218270952Y-125993628D02*
X218461428Y-125946009D01*
X218461428Y-125946009D02*
X218556666Y-125898390D01*
X218556666Y-125898390D02*
X218604285Y-125850771D01*
X218604285Y-125850771D02*
X218651904Y-125755533D01*
X218651904Y-125755533D02*
X218651904Y-125660295D01*
X218651904Y-125660295D02*
X218604285Y-125565057D01*
X218604285Y-125565057D02*
X218556666Y-125517438D01*
X218556666Y-125517438D02*
X218461428Y-125469819D01*
X218461428Y-125469819D02*
X218223333Y-125469819D01*
X218223333Y-125469819D02*
X218080476Y-125517438D01*
X217747142Y-125469819D02*
X217128095Y-125469819D01*
X217128095Y-125469819D02*
X217461428Y-125850771D01*
X217461428Y-125850771D02*
X217318571Y-125850771D01*
X217318571Y-125850771D02*
X217223333Y-125898390D01*
X217223333Y-125898390D02*
X217175714Y-125946009D01*
X217175714Y-125946009D02*
X217128095Y-126041247D01*
X217128095Y-126041247D02*
X217128095Y-126279342D01*
X217128095Y-126279342D02*
X217175714Y-126374580D01*
X217175714Y-126374580D02*
X217223333Y-126422200D01*
X217223333Y-126422200D02*
X217318571Y-126469819D01*
X217318571Y-126469819D02*
X217604285Y-126469819D01*
X217604285Y-126469819D02*
X217699523Y-126422200D01*
X217699523Y-126422200D02*
X217747142Y-126374580D01*
X216747142Y-125565057D02*
X216699523Y-125517438D01*
X216699523Y-125517438D02*
X216604285Y-125469819D01*
X216604285Y-125469819D02*
X216366190Y-125469819D01*
X216366190Y-125469819D02*
X216270952Y-125517438D01*
X216270952Y-125517438D02*
X216223333Y-125565057D01*
X216223333Y-125565057D02*
X216175714Y-125660295D01*
X216175714Y-125660295D02*
X216175714Y-125755533D01*
X216175714Y-125755533D02*
X216223333Y-125898390D01*
X216223333Y-125898390D02*
X216794761Y-126469819D01*
X216794761Y-126469819D02*
X216175714Y-126469819D01*
X215842380Y-125469819D02*
X215223333Y-125469819D01*
X215223333Y-125469819D02*
X215556666Y-125850771D01*
X215556666Y-125850771D02*
X215413809Y-125850771D01*
X215413809Y-125850771D02*
X215318571Y-125898390D01*
X215318571Y-125898390D02*
X215270952Y-125946009D01*
X215270952Y-125946009D02*
X215223333Y-126041247D01*
X215223333Y-126041247D02*
X215223333Y-126279342D01*
X215223333Y-126279342D02*
X215270952Y-126374580D01*
X215270952Y-126374580D02*
X215318571Y-126422200D01*
X215318571Y-126422200D02*
X215413809Y-126469819D01*
X215413809Y-126469819D02*
X215699523Y-126469819D01*
X215699523Y-126469819D02*
X215794761Y-126422200D01*
X215794761Y-126422200D02*
X215842380Y-126374580D01*
X214270952Y-126469819D02*
X214842380Y-126469819D01*
X214556666Y-126469819D02*
X214556666Y-125469819D01*
X214556666Y-125469819D02*
X214651904Y-125612676D01*
X214651904Y-125612676D02*
X214747142Y-125707914D01*
X214747142Y-125707914D02*
X214842380Y-125755533D01*
X213842380Y-126469819D02*
X213842380Y-125469819D01*
X213842380Y-125469819D02*
X213509047Y-126184104D01*
X213509047Y-126184104D02*
X213175714Y-125469819D01*
X213175714Y-125469819D02*
X213175714Y-126469819D01*
X222551904Y-66599819D02*
X222551904Y-67409342D01*
X222551904Y-67409342D02*
X222504285Y-67504580D01*
X222504285Y-67504580D02*
X222456666Y-67552200D01*
X222456666Y-67552200D02*
X222361428Y-67599819D01*
X222361428Y-67599819D02*
X222170952Y-67599819D01*
X222170952Y-67599819D02*
X222075714Y-67552200D01*
X222075714Y-67552200D02*
X222028095Y-67504580D01*
X222028095Y-67504580D02*
X221980476Y-67409342D01*
X221980476Y-67409342D02*
X221980476Y-66599819D01*
X220980476Y-67599819D02*
X221551904Y-67599819D01*
X221266190Y-67599819D02*
X221266190Y-66599819D01*
X221266190Y-66599819D02*
X221361428Y-66742676D01*
X221361428Y-66742676D02*
X221456666Y-66837914D01*
X221456666Y-66837914D02*
X221551904Y-66885533D01*
X228199047Y-67864819D02*
X228199047Y-68674342D01*
X228199047Y-68674342D02*
X228151428Y-68769580D01*
X228151428Y-68769580D02*
X228103809Y-68817200D01*
X228103809Y-68817200D02*
X228008571Y-68864819D01*
X228008571Y-68864819D02*
X227818095Y-68864819D01*
X227818095Y-68864819D02*
X227722857Y-68817200D01*
X227722857Y-68817200D02*
X227675238Y-68769580D01*
X227675238Y-68769580D02*
X227627619Y-68674342D01*
X227627619Y-68674342D02*
X227627619Y-67864819D01*
X226675238Y-68864819D02*
X227151428Y-68864819D01*
X227151428Y-68864819D02*
X227151428Y-67864819D01*
X226341904Y-68864819D02*
X226341904Y-67864819D01*
X226341904Y-67864819D02*
X225770476Y-68864819D01*
X225770476Y-68864819D02*
X225770476Y-67864819D01*
X225341904Y-67960057D02*
X225294285Y-67912438D01*
X225294285Y-67912438D02*
X225199047Y-67864819D01*
X225199047Y-67864819D02*
X224960952Y-67864819D01*
X224960952Y-67864819D02*
X224865714Y-67912438D01*
X224865714Y-67912438D02*
X224818095Y-67960057D01*
X224818095Y-67960057D02*
X224770476Y-68055295D01*
X224770476Y-68055295D02*
X224770476Y-68150533D01*
X224770476Y-68150533D02*
X224818095Y-68293390D01*
X224818095Y-68293390D02*
X225389523Y-68864819D01*
X225389523Y-68864819D02*
X224770476Y-68864819D01*
X224151428Y-67864819D02*
X224056190Y-67864819D01*
X224056190Y-67864819D02*
X223960952Y-67912438D01*
X223960952Y-67912438D02*
X223913333Y-67960057D01*
X223913333Y-67960057D02*
X223865714Y-68055295D01*
X223865714Y-68055295D02*
X223818095Y-68245771D01*
X223818095Y-68245771D02*
X223818095Y-68483866D01*
X223818095Y-68483866D02*
X223865714Y-68674342D01*
X223865714Y-68674342D02*
X223913333Y-68769580D01*
X223913333Y-68769580D02*
X223960952Y-68817200D01*
X223960952Y-68817200D02*
X224056190Y-68864819D01*
X224056190Y-68864819D02*
X224151428Y-68864819D01*
X224151428Y-68864819D02*
X224246666Y-68817200D01*
X224246666Y-68817200D02*
X224294285Y-68769580D01*
X224294285Y-68769580D02*
X224341904Y-68674342D01*
X224341904Y-68674342D02*
X224389523Y-68483866D01*
X224389523Y-68483866D02*
X224389523Y-68245771D01*
X224389523Y-68245771D02*
X224341904Y-68055295D01*
X224341904Y-68055295D02*
X224294285Y-67960057D01*
X224294285Y-67960057D02*
X224246666Y-67912438D01*
X224246666Y-67912438D02*
X224151428Y-67864819D01*
X223199047Y-67864819D02*
X223103809Y-67864819D01*
X223103809Y-67864819D02*
X223008571Y-67912438D01*
X223008571Y-67912438D02*
X222960952Y-67960057D01*
X222960952Y-67960057D02*
X222913333Y-68055295D01*
X222913333Y-68055295D02*
X222865714Y-68245771D01*
X222865714Y-68245771D02*
X222865714Y-68483866D01*
X222865714Y-68483866D02*
X222913333Y-68674342D01*
X222913333Y-68674342D02*
X222960952Y-68769580D01*
X222960952Y-68769580D02*
X223008571Y-68817200D01*
X223008571Y-68817200D02*
X223103809Y-68864819D01*
X223103809Y-68864819D02*
X223199047Y-68864819D01*
X223199047Y-68864819D02*
X223294285Y-68817200D01*
X223294285Y-68817200D02*
X223341904Y-68769580D01*
X223341904Y-68769580D02*
X223389523Y-68674342D01*
X223389523Y-68674342D02*
X223437142Y-68483866D01*
X223437142Y-68483866D02*
X223437142Y-68245771D01*
X223437142Y-68245771D02*
X223389523Y-68055295D01*
X223389523Y-68055295D02*
X223341904Y-67960057D01*
X223341904Y-67960057D02*
X223294285Y-67912438D01*
X223294285Y-67912438D02*
X223199047Y-67864819D01*
X222532380Y-67864819D02*
X221913333Y-67864819D01*
X221913333Y-67864819D02*
X222246666Y-68245771D01*
X222246666Y-68245771D02*
X222103809Y-68245771D01*
X222103809Y-68245771D02*
X222008571Y-68293390D01*
X222008571Y-68293390D02*
X221960952Y-68341009D01*
X221960952Y-68341009D02*
X221913333Y-68436247D01*
X221913333Y-68436247D02*
X221913333Y-68674342D01*
X221913333Y-68674342D02*
X221960952Y-68769580D01*
X221960952Y-68769580D02*
X222008571Y-68817200D01*
X222008571Y-68817200D02*
X222103809Y-68864819D01*
X222103809Y-68864819D02*
X222389523Y-68864819D01*
X222389523Y-68864819D02*
X222484761Y-68817200D01*
X222484761Y-68817200D02*
X222532380Y-68769580D01*
X189666666Y-102314580D02*
X189714285Y-102362200D01*
X189714285Y-102362200D02*
X189857142Y-102409819D01*
X189857142Y-102409819D02*
X189952380Y-102409819D01*
X189952380Y-102409819D02*
X190095237Y-102362200D01*
X190095237Y-102362200D02*
X190190475Y-102266961D01*
X190190475Y-102266961D02*
X190238094Y-102171723D01*
X190238094Y-102171723D02*
X190285713Y-101981247D01*
X190285713Y-101981247D02*
X190285713Y-101838390D01*
X190285713Y-101838390D02*
X190238094Y-101647914D01*
X190238094Y-101647914D02*
X190190475Y-101552676D01*
X190190475Y-101552676D02*
X190095237Y-101457438D01*
X190095237Y-101457438D02*
X189952380Y-101409819D01*
X189952380Y-101409819D02*
X189857142Y-101409819D01*
X189857142Y-101409819D02*
X189714285Y-101457438D01*
X189714285Y-101457438D02*
X189666666Y-101505057D01*
X188714285Y-102409819D02*
X189285713Y-102409819D01*
X188999999Y-102409819D02*
X188999999Y-101409819D01*
X188999999Y-101409819D02*
X189095237Y-101552676D01*
X189095237Y-101552676D02*
X189190475Y-101647914D01*
X189190475Y-101647914D02*
X189285713Y-101695533D01*
X191713095Y-100212295D02*
X192170238Y-100212295D01*
X191941666Y-100212295D02*
X191941666Y-99412295D01*
X191941666Y-99412295D02*
X192017857Y-99526580D01*
X192017857Y-99526580D02*
X192094047Y-99602771D01*
X192094047Y-99602771D02*
X192170238Y-99640866D01*
X191217856Y-99412295D02*
X191141666Y-99412295D01*
X191141666Y-99412295D02*
X191065475Y-99450390D01*
X191065475Y-99450390D02*
X191027380Y-99488485D01*
X191027380Y-99488485D02*
X190989285Y-99564676D01*
X190989285Y-99564676D02*
X190951190Y-99717057D01*
X190951190Y-99717057D02*
X190951190Y-99907533D01*
X190951190Y-99907533D02*
X190989285Y-100059914D01*
X190989285Y-100059914D02*
X191027380Y-100136104D01*
X191027380Y-100136104D02*
X191065475Y-100174200D01*
X191065475Y-100174200D02*
X191141666Y-100212295D01*
X191141666Y-100212295D02*
X191217856Y-100212295D01*
X191217856Y-100212295D02*
X191294047Y-100174200D01*
X191294047Y-100174200D02*
X191332142Y-100136104D01*
X191332142Y-100136104D02*
X191370237Y-100059914D01*
X191370237Y-100059914D02*
X191408333Y-99907533D01*
X191408333Y-99907533D02*
X191408333Y-99717057D01*
X191408333Y-99717057D02*
X191370237Y-99564676D01*
X191370237Y-99564676D02*
X191332142Y-99488485D01*
X191332142Y-99488485D02*
X191294047Y-99450390D01*
X191294047Y-99450390D02*
X191217856Y-99412295D01*
X190455951Y-99412295D02*
X190379761Y-99412295D01*
X190379761Y-99412295D02*
X190303570Y-99450390D01*
X190303570Y-99450390D02*
X190265475Y-99488485D01*
X190265475Y-99488485D02*
X190227380Y-99564676D01*
X190227380Y-99564676D02*
X190189285Y-99717057D01*
X190189285Y-99717057D02*
X190189285Y-99907533D01*
X190189285Y-99907533D02*
X190227380Y-100059914D01*
X190227380Y-100059914D02*
X190265475Y-100136104D01*
X190265475Y-100136104D02*
X190303570Y-100174200D01*
X190303570Y-100174200D02*
X190379761Y-100212295D01*
X190379761Y-100212295D02*
X190455951Y-100212295D01*
X190455951Y-100212295D02*
X190532142Y-100174200D01*
X190532142Y-100174200D02*
X190570237Y-100136104D01*
X190570237Y-100136104D02*
X190608332Y-100059914D01*
X190608332Y-100059914D02*
X190646428Y-99907533D01*
X190646428Y-99907533D02*
X190646428Y-99717057D01*
X190646428Y-99717057D02*
X190608332Y-99564676D01*
X190608332Y-99564676D02*
X190570237Y-99488485D01*
X190570237Y-99488485D02*
X190532142Y-99450390D01*
X190532142Y-99450390D02*
X190455951Y-99412295D01*
X189846427Y-99678961D02*
X189846427Y-100212295D01*
X189846427Y-99755152D02*
X189808332Y-99717057D01*
X189808332Y-99717057D02*
X189732142Y-99678961D01*
X189732142Y-99678961D02*
X189617856Y-99678961D01*
X189617856Y-99678961D02*
X189541665Y-99717057D01*
X189541665Y-99717057D02*
X189503570Y-99793247D01*
X189503570Y-99793247D02*
X189503570Y-100212295D01*
X188855951Y-99793247D02*
X189122617Y-99793247D01*
X189122617Y-100212295D02*
X189122617Y-99412295D01*
X189122617Y-99412295D02*
X188741665Y-99412295D01*
X221766666Y-81094580D02*
X221814285Y-81142200D01*
X221814285Y-81142200D02*
X221957142Y-81189819D01*
X221957142Y-81189819D02*
X222052380Y-81189819D01*
X222052380Y-81189819D02*
X222195237Y-81142200D01*
X222195237Y-81142200D02*
X222290475Y-81046961D01*
X222290475Y-81046961D02*
X222338094Y-80951723D01*
X222338094Y-80951723D02*
X222385713Y-80761247D01*
X222385713Y-80761247D02*
X222385713Y-80618390D01*
X222385713Y-80618390D02*
X222338094Y-80427914D01*
X222338094Y-80427914D02*
X222290475Y-80332676D01*
X222290475Y-80332676D02*
X222195237Y-80237438D01*
X222195237Y-80237438D02*
X222052380Y-80189819D01*
X222052380Y-80189819D02*
X221957142Y-80189819D01*
X221957142Y-80189819D02*
X221814285Y-80237438D01*
X221814285Y-80237438D02*
X221766666Y-80285057D01*
X220909523Y-80523152D02*
X220909523Y-81189819D01*
X221147618Y-80142200D02*
X221385713Y-80856485D01*
X221385713Y-80856485D02*
X220766666Y-80856485D01*
X222538095Y-82789819D02*
X222995238Y-82789819D01*
X222766666Y-82789819D02*
X222766666Y-81789819D01*
X222766666Y-81789819D02*
X222842857Y-81932676D01*
X222842857Y-81932676D02*
X222919047Y-82027914D01*
X222919047Y-82027914D02*
X222995238Y-82075533D01*
X222042856Y-81789819D02*
X221966666Y-81789819D01*
X221966666Y-81789819D02*
X221890475Y-81837438D01*
X221890475Y-81837438D02*
X221852380Y-81885057D01*
X221852380Y-81885057D02*
X221814285Y-81980295D01*
X221814285Y-81980295D02*
X221776190Y-82170771D01*
X221776190Y-82170771D02*
X221776190Y-82408866D01*
X221776190Y-82408866D02*
X221814285Y-82599342D01*
X221814285Y-82599342D02*
X221852380Y-82694580D01*
X221852380Y-82694580D02*
X221890475Y-82742200D01*
X221890475Y-82742200D02*
X221966666Y-82789819D01*
X221966666Y-82789819D02*
X222042856Y-82789819D01*
X222042856Y-82789819D02*
X222119047Y-82742200D01*
X222119047Y-82742200D02*
X222157142Y-82694580D01*
X222157142Y-82694580D02*
X222195237Y-82599342D01*
X222195237Y-82599342D02*
X222233333Y-82408866D01*
X222233333Y-82408866D02*
X222233333Y-82170771D01*
X222233333Y-82170771D02*
X222195237Y-81980295D01*
X222195237Y-81980295D02*
X222157142Y-81885057D01*
X222157142Y-81885057D02*
X222119047Y-81837438D01*
X222119047Y-81837438D02*
X222042856Y-81789819D01*
X221280951Y-81789819D02*
X221204761Y-81789819D01*
X221204761Y-81789819D02*
X221128570Y-81837438D01*
X221128570Y-81837438D02*
X221090475Y-81885057D01*
X221090475Y-81885057D02*
X221052380Y-81980295D01*
X221052380Y-81980295D02*
X221014285Y-82170771D01*
X221014285Y-82170771D02*
X221014285Y-82408866D01*
X221014285Y-82408866D02*
X221052380Y-82599342D01*
X221052380Y-82599342D02*
X221090475Y-82694580D01*
X221090475Y-82694580D02*
X221128570Y-82742200D01*
X221128570Y-82742200D02*
X221204761Y-82789819D01*
X221204761Y-82789819D02*
X221280951Y-82789819D01*
X221280951Y-82789819D02*
X221357142Y-82742200D01*
X221357142Y-82742200D02*
X221395237Y-82694580D01*
X221395237Y-82694580D02*
X221433332Y-82599342D01*
X221433332Y-82599342D02*
X221471428Y-82408866D01*
X221471428Y-82408866D02*
X221471428Y-82170771D01*
X221471428Y-82170771D02*
X221433332Y-81980295D01*
X221433332Y-81980295D02*
X221395237Y-81885057D01*
X221395237Y-81885057D02*
X221357142Y-81837438D01*
X221357142Y-81837438D02*
X221280951Y-81789819D01*
X220671427Y-82123152D02*
X220671427Y-82789819D01*
X220671427Y-82218390D02*
X220633332Y-82170771D01*
X220633332Y-82170771D02*
X220557142Y-82123152D01*
X220557142Y-82123152D02*
X220442856Y-82123152D01*
X220442856Y-82123152D02*
X220366665Y-82170771D01*
X220366665Y-82170771D02*
X220328570Y-82266009D01*
X220328570Y-82266009D02*
X220328570Y-82789819D01*
X219680951Y-82266009D02*
X219947617Y-82266009D01*
X219947617Y-82789819D02*
X219947617Y-81789819D01*
X219947617Y-81789819D02*
X219566665Y-81789819D01*
X181766666Y-65449819D02*
X182099999Y-64973628D01*
X182338094Y-65449819D02*
X182338094Y-64449819D01*
X182338094Y-64449819D02*
X181957142Y-64449819D01*
X181957142Y-64449819D02*
X181861904Y-64497438D01*
X181861904Y-64497438D02*
X181814285Y-64545057D01*
X181814285Y-64545057D02*
X181766666Y-64640295D01*
X181766666Y-64640295D02*
X181766666Y-64783152D01*
X181766666Y-64783152D02*
X181814285Y-64878390D01*
X181814285Y-64878390D02*
X181861904Y-64926009D01*
X181861904Y-64926009D02*
X181957142Y-64973628D01*
X181957142Y-64973628D02*
X182338094Y-64973628D01*
X181433332Y-64449819D02*
X180814285Y-64449819D01*
X180814285Y-64449819D02*
X181147618Y-64830771D01*
X181147618Y-64830771D02*
X181004761Y-64830771D01*
X181004761Y-64830771D02*
X180909523Y-64878390D01*
X180909523Y-64878390D02*
X180861904Y-64926009D01*
X180861904Y-64926009D02*
X180814285Y-65021247D01*
X180814285Y-65021247D02*
X180814285Y-65259342D01*
X180814285Y-65259342D02*
X180861904Y-65354580D01*
X180861904Y-65354580D02*
X180909523Y-65402200D01*
X180909523Y-65402200D02*
X181004761Y-65449819D01*
X181004761Y-65449819D02*
X181290475Y-65449819D01*
X181290475Y-65449819D02*
X181385713Y-65402200D01*
X181385713Y-65402200D02*
X181433332Y-65354580D01*
X183414285Y-66283152D02*
X183414285Y-66949819D01*
X183652380Y-65902200D02*
X183890475Y-66616485D01*
X183890475Y-66616485D02*
X183271428Y-66616485D01*
X182985713Y-65949819D02*
X182319047Y-65949819D01*
X182319047Y-65949819D02*
X182747618Y-66949819D01*
X181747618Y-65949819D02*
X181652380Y-65949819D01*
X181652380Y-65949819D02*
X181557142Y-65997438D01*
X181557142Y-65997438D02*
X181509523Y-66045057D01*
X181509523Y-66045057D02*
X181461904Y-66140295D01*
X181461904Y-66140295D02*
X181414285Y-66330771D01*
X181414285Y-66330771D02*
X181414285Y-66568866D01*
X181414285Y-66568866D02*
X181461904Y-66759342D01*
X181461904Y-66759342D02*
X181509523Y-66854580D01*
X181509523Y-66854580D02*
X181557142Y-66902200D01*
X181557142Y-66902200D02*
X181652380Y-66949819D01*
X181652380Y-66949819D02*
X181747618Y-66949819D01*
X181747618Y-66949819D02*
X181842856Y-66902200D01*
X181842856Y-66902200D02*
X181890475Y-66854580D01*
X181890475Y-66854580D02*
X181938094Y-66759342D01*
X181938094Y-66759342D02*
X181985713Y-66568866D01*
X181985713Y-66568866D02*
X181985713Y-66330771D01*
X181985713Y-66330771D02*
X181938094Y-66140295D01*
X181938094Y-66140295D02*
X181890475Y-66045057D01*
X181890475Y-66045057D02*
X181842856Y-65997438D01*
X181842856Y-65997438D02*
X181747618Y-65949819D01*
X180985713Y-66426009D02*
X180652380Y-66426009D01*
X180509523Y-66949819D02*
X180985713Y-66949819D01*
X180985713Y-66949819D02*
X180985713Y-65949819D01*
X180985713Y-65949819D02*
X180509523Y-65949819D01*
X190461904Y-112129819D02*
X190461904Y-112939342D01*
X190461904Y-112939342D02*
X190414285Y-113034580D01*
X190414285Y-113034580D02*
X190366666Y-113082200D01*
X190366666Y-113082200D02*
X190271428Y-113129819D01*
X190271428Y-113129819D02*
X190080952Y-113129819D01*
X190080952Y-113129819D02*
X189985714Y-113082200D01*
X189985714Y-113082200D02*
X189938095Y-113034580D01*
X189938095Y-113034580D02*
X189890476Y-112939342D01*
X189890476Y-112939342D02*
X189890476Y-112129819D01*
X189509523Y-112129819D02*
X188890476Y-112129819D01*
X188890476Y-112129819D02*
X189223809Y-112510771D01*
X189223809Y-112510771D02*
X189080952Y-112510771D01*
X189080952Y-112510771D02*
X188985714Y-112558390D01*
X188985714Y-112558390D02*
X188938095Y-112606009D01*
X188938095Y-112606009D02*
X188890476Y-112701247D01*
X188890476Y-112701247D02*
X188890476Y-112939342D01*
X188890476Y-112939342D02*
X188938095Y-113034580D01*
X188938095Y-113034580D02*
X188985714Y-113082200D01*
X188985714Y-113082200D02*
X189080952Y-113129819D01*
X189080952Y-113129819D02*
X189366666Y-113129819D01*
X189366666Y-113129819D02*
X189461904Y-113082200D01*
X189461904Y-113082200D02*
X189509523Y-113034580D01*
X191438094Y-114629819D02*
X191438094Y-113629819D01*
X191438094Y-113629819D02*
X191199999Y-113629819D01*
X191199999Y-113629819D02*
X191057142Y-113677438D01*
X191057142Y-113677438D02*
X190961904Y-113772676D01*
X190961904Y-113772676D02*
X190914285Y-113867914D01*
X190914285Y-113867914D02*
X190866666Y-114058390D01*
X190866666Y-114058390D02*
X190866666Y-114201247D01*
X190866666Y-114201247D02*
X190914285Y-114391723D01*
X190914285Y-114391723D02*
X190961904Y-114486961D01*
X190961904Y-114486961D02*
X191057142Y-114582200D01*
X191057142Y-114582200D02*
X191199999Y-114629819D01*
X191199999Y-114629819D02*
X191438094Y-114629819D01*
X190485713Y-114582200D02*
X190342856Y-114629819D01*
X190342856Y-114629819D02*
X190104761Y-114629819D01*
X190104761Y-114629819D02*
X190009523Y-114582200D01*
X190009523Y-114582200D02*
X189961904Y-114534580D01*
X189961904Y-114534580D02*
X189914285Y-114439342D01*
X189914285Y-114439342D02*
X189914285Y-114344104D01*
X189914285Y-114344104D02*
X189961904Y-114248866D01*
X189961904Y-114248866D02*
X190009523Y-114201247D01*
X190009523Y-114201247D02*
X190104761Y-114153628D01*
X190104761Y-114153628D02*
X190295237Y-114106009D01*
X190295237Y-114106009D02*
X190390475Y-114058390D01*
X190390475Y-114058390D02*
X190438094Y-114010771D01*
X190438094Y-114010771D02*
X190485713Y-113915533D01*
X190485713Y-113915533D02*
X190485713Y-113820295D01*
X190485713Y-113820295D02*
X190438094Y-113725057D01*
X190438094Y-113725057D02*
X190390475Y-113677438D01*
X190390475Y-113677438D02*
X190295237Y-113629819D01*
X190295237Y-113629819D02*
X190057142Y-113629819D01*
X190057142Y-113629819D02*
X189914285Y-113677438D01*
X188961904Y-114629819D02*
X189533332Y-114629819D01*
X189247618Y-114629819D02*
X189247618Y-113629819D01*
X189247618Y-113629819D02*
X189342856Y-113772676D01*
X189342856Y-113772676D02*
X189438094Y-113867914D01*
X189438094Y-113867914D02*
X189533332Y-113915533D01*
X188628570Y-113629819D02*
X188009523Y-113629819D01*
X188009523Y-113629819D02*
X188342856Y-114010771D01*
X188342856Y-114010771D02*
X188199999Y-114010771D01*
X188199999Y-114010771D02*
X188104761Y-114058390D01*
X188104761Y-114058390D02*
X188057142Y-114106009D01*
X188057142Y-114106009D02*
X188009523Y-114201247D01*
X188009523Y-114201247D02*
X188009523Y-114439342D01*
X188009523Y-114439342D02*
X188057142Y-114534580D01*
X188057142Y-114534580D02*
X188104761Y-114582200D01*
X188104761Y-114582200D02*
X188199999Y-114629819D01*
X188199999Y-114629819D02*
X188485713Y-114629819D01*
X188485713Y-114629819D02*
X188580951Y-114582200D01*
X188580951Y-114582200D02*
X188628570Y-114534580D01*
X187390475Y-113629819D02*
X187295237Y-113629819D01*
X187295237Y-113629819D02*
X187199999Y-113677438D01*
X187199999Y-113677438D02*
X187152380Y-113725057D01*
X187152380Y-113725057D02*
X187104761Y-113820295D01*
X187104761Y-113820295D02*
X187057142Y-114010771D01*
X187057142Y-114010771D02*
X187057142Y-114248866D01*
X187057142Y-114248866D02*
X187104761Y-114439342D01*
X187104761Y-114439342D02*
X187152380Y-114534580D01*
X187152380Y-114534580D02*
X187199999Y-114582200D01*
X187199999Y-114582200D02*
X187295237Y-114629819D01*
X187295237Y-114629819D02*
X187390475Y-114629819D01*
X187390475Y-114629819D02*
X187485713Y-114582200D01*
X187485713Y-114582200D02*
X187533332Y-114534580D01*
X187533332Y-114534580D02*
X187580951Y-114439342D01*
X187580951Y-114439342D02*
X187628570Y-114248866D01*
X187628570Y-114248866D02*
X187628570Y-114010771D01*
X187628570Y-114010771D02*
X187580951Y-113820295D01*
X187580951Y-113820295D02*
X187533332Y-113725057D01*
X187533332Y-113725057D02*
X187485713Y-113677438D01*
X187485713Y-113677438D02*
X187390475Y-113629819D01*
X186723808Y-113629819D02*
X186057142Y-113629819D01*
X186057142Y-113629819D02*
X186485713Y-114629819D01*
X185771427Y-113629819D02*
X185104761Y-113629819D01*
X185104761Y-113629819D02*
X185771427Y-114629819D01*
X185771427Y-114629819D02*
X185104761Y-114629819D01*
X184723808Y-114248866D02*
X183961904Y-114248866D01*
X184342856Y-114629819D02*
X184342856Y-113867914D01*
X190633333Y-106606009D02*
X190966666Y-106606009D01*
X190966666Y-107129819D02*
X190966666Y-106129819D01*
X190966666Y-106129819D02*
X190490476Y-106129819D01*
X189585714Y-107129819D02*
X190157142Y-107129819D01*
X189871428Y-107129819D02*
X189871428Y-106129819D01*
X189871428Y-106129819D02*
X189966666Y-106272676D01*
X189966666Y-106272676D02*
X190061904Y-106367914D01*
X190061904Y-106367914D02*
X190157142Y-106415533D01*
X196166666Y-68234580D02*
X196214285Y-68282200D01*
X196214285Y-68282200D02*
X196357142Y-68329819D01*
X196357142Y-68329819D02*
X196452380Y-68329819D01*
X196452380Y-68329819D02*
X196595237Y-68282200D01*
X196595237Y-68282200D02*
X196690475Y-68186961D01*
X196690475Y-68186961D02*
X196738094Y-68091723D01*
X196738094Y-68091723D02*
X196785713Y-67901247D01*
X196785713Y-67901247D02*
X196785713Y-67758390D01*
X196785713Y-67758390D02*
X196738094Y-67567914D01*
X196738094Y-67567914D02*
X196690475Y-67472676D01*
X196690475Y-67472676D02*
X196595237Y-67377438D01*
X196595237Y-67377438D02*
X196452380Y-67329819D01*
X196452380Y-67329819D02*
X196357142Y-67329819D01*
X196357142Y-67329819D02*
X196214285Y-67377438D01*
X196214285Y-67377438D02*
X196166666Y-67425057D01*
X195785713Y-67425057D02*
X195738094Y-67377438D01*
X195738094Y-67377438D02*
X195642856Y-67329819D01*
X195642856Y-67329819D02*
X195404761Y-67329819D01*
X195404761Y-67329819D02*
X195309523Y-67377438D01*
X195309523Y-67377438D02*
X195261904Y-67425057D01*
X195261904Y-67425057D02*
X195214285Y-67520295D01*
X195214285Y-67520295D02*
X195214285Y-67615533D01*
X195214285Y-67615533D02*
X195261904Y-67758390D01*
X195261904Y-67758390D02*
X195833332Y-68329819D01*
X195833332Y-68329819D02*
X195214285Y-68329819D01*
X197472619Y-71754819D02*
X198044047Y-71754819D01*
X197758333Y-71754819D02*
X197758333Y-70754819D01*
X197758333Y-70754819D02*
X197853571Y-70897676D01*
X197853571Y-70897676D02*
X197948809Y-70992914D01*
X197948809Y-70992914D02*
X198044047Y-71040533D01*
X196853571Y-70754819D02*
X196758333Y-70754819D01*
X196758333Y-70754819D02*
X196663095Y-70802438D01*
X196663095Y-70802438D02*
X196615476Y-70850057D01*
X196615476Y-70850057D02*
X196567857Y-70945295D01*
X196567857Y-70945295D02*
X196520238Y-71135771D01*
X196520238Y-71135771D02*
X196520238Y-71373866D01*
X196520238Y-71373866D02*
X196567857Y-71564342D01*
X196567857Y-71564342D02*
X196615476Y-71659580D01*
X196615476Y-71659580D02*
X196663095Y-71707200D01*
X196663095Y-71707200D02*
X196758333Y-71754819D01*
X196758333Y-71754819D02*
X196853571Y-71754819D01*
X196853571Y-71754819D02*
X196948809Y-71707200D01*
X196948809Y-71707200D02*
X196996428Y-71659580D01*
X196996428Y-71659580D02*
X197044047Y-71564342D01*
X197044047Y-71564342D02*
X197091666Y-71373866D01*
X197091666Y-71373866D02*
X197091666Y-71135771D01*
X197091666Y-71135771D02*
X197044047Y-70945295D01*
X197044047Y-70945295D02*
X196996428Y-70850057D01*
X196996428Y-70850057D02*
X196948809Y-70802438D01*
X196948809Y-70802438D02*
X196853571Y-70754819D01*
X195901190Y-70754819D02*
X195805952Y-70754819D01*
X195805952Y-70754819D02*
X195710714Y-70802438D01*
X195710714Y-70802438D02*
X195663095Y-70850057D01*
X195663095Y-70850057D02*
X195615476Y-70945295D01*
X195615476Y-70945295D02*
X195567857Y-71135771D01*
X195567857Y-71135771D02*
X195567857Y-71373866D01*
X195567857Y-71373866D02*
X195615476Y-71564342D01*
X195615476Y-71564342D02*
X195663095Y-71659580D01*
X195663095Y-71659580D02*
X195710714Y-71707200D01*
X195710714Y-71707200D02*
X195805952Y-71754819D01*
X195805952Y-71754819D02*
X195901190Y-71754819D01*
X195901190Y-71754819D02*
X195996428Y-71707200D01*
X195996428Y-71707200D02*
X196044047Y-71659580D01*
X196044047Y-71659580D02*
X196091666Y-71564342D01*
X196091666Y-71564342D02*
X196139285Y-71373866D01*
X196139285Y-71373866D02*
X196139285Y-71135771D01*
X196139285Y-71135771D02*
X196091666Y-70945295D01*
X196091666Y-70945295D02*
X196044047Y-70850057D01*
X196044047Y-70850057D02*
X195996428Y-70802438D01*
X195996428Y-70802438D02*
X195901190Y-70754819D01*
X195139285Y-71088152D02*
X195139285Y-72088152D01*
X195139285Y-71135771D02*
X195044047Y-71088152D01*
X195044047Y-71088152D02*
X194853571Y-71088152D01*
X194853571Y-71088152D02*
X194758333Y-71135771D01*
X194758333Y-71135771D02*
X194710714Y-71183390D01*
X194710714Y-71183390D02*
X194663095Y-71278628D01*
X194663095Y-71278628D02*
X194663095Y-71564342D01*
X194663095Y-71564342D02*
X194710714Y-71659580D01*
X194710714Y-71659580D02*
X194758333Y-71707200D01*
X194758333Y-71707200D02*
X194853571Y-71754819D01*
X194853571Y-71754819D02*
X195044047Y-71754819D01*
X195044047Y-71754819D02*
X195139285Y-71707200D01*
X193901190Y-71231009D02*
X194234523Y-71231009D01*
X194234523Y-71754819D02*
X194234523Y-70754819D01*
X194234523Y-70754819D02*
X193758333Y-70754819D01*
D13*
%TO.C,D6*%
X181925000Y-85285000D02*
X181925000Y-83365000D01*
X181925000Y-83365000D02*
X184610000Y-83365000D01*
X184610000Y-85285000D02*
X181925000Y-85285000D01*
%TO.C,R15*%
X204465000Y-114660436D02*
X204465000Y-115114564D01*
X205935000Y-114660436D02*
X205935000Y-115114564D01*
%TO.C,R4*%
X196527064Y-74940000D02*
X196072936Y-74940000D01*
X196527064Y-76410000D02*
X196072936Y-76410000D01*
%TO.C,TP1*%
X195700000Y-122105000D02*
X198100000Y-122105000D01*
X198100000Y-126305000D01*
X195700000Y-126305000D01*
X195700000Y-122105000D01*
%TO.C,Y1*%
X195630000Y-119245000D02*
X195630000Y-118435000D01*
X196300000Y-120615000D02*
X195630000Y-119245000D01*
X197500000Y-120615000D02*
X198170000Y-119245000D01*
X198170000Y-119245000D02*
X198170000Y-118435000D01*
X198660000Y-120615000D02*
X195140000Y-120615000D01*
X195140000Y-131635000D01*
X198660000Y-131635000D01*
X198660000Y-120615000D01*
%TO.C,R16*%
X208265000Y-114660436D02*
X208265000Y-115114564D01*
X209735000Y-114660436D02*
X209735000Y-115114564D01*
%TO.C,R1*%
X183805000Y-80037936D02*
X183805000Y-80492064D01*
X185275000Y-80037936D02*
X185275000Y-80492064D01*
%TO.C,R5*%
X223165000Y-65012064D02*
X223165000Y-64557936D01*
X224635000Y-65012064D02*
X224635000Y-64557936D01*
%TO.C,U4*%
X202840000Y-122277500D02*
X202840000Y-122532500D01*
X202840000Y-132542500D02*
X202840000Y-132797500D01*
X202840000Y-132797500D02*
X210560000Y-132797500D01*
X210560000Y-122277500D02*
X202840000Y-122277500D01*
X210560000Y-122532500D02*
X210560000Y-122277500D01*
X210560000Y-132797500D02*
X210560000Y-132542500D01*
X202390000Y-133017500D02*
X201710000Y-133017500D01*
X202050000Y-132547500D01*
X202390000Y-133017500D01*
G36*
X202390000Y-133017500D02*
G01*
X201710000Y-133017500D01*
X202050000Y-132547500D01*
X202390000Y-133017500D01*
G37*
%TO.C,U1*%
X219165000Y-71135000D02*
X218835000Y-71375000D01*
X218835000Y-70895000D01*
X219165000Y-71135000D01*
G36*
X219165000Y-71135000D02*
G01*
X218835000Y-71375000D01*
X218835000Y-70895000D01*
X219165000Y-71135000D01*
G37*
X229235000Y-75795000D02*
X229235000Y-71675000D01*
X229235000Y-71675000D02*
X229180000Y-71675000D01*
X229180000Y-75795000D02*
X229235000Y-75795000D01*
X219170000Y-71675000D02*
X219115000Y-71675000D01*
X219115000Y-75795000D02*
X219170000Y-75795000D01*
X219115000Y-71675000D02*
X219115000Y-75795000D01*
%TO.C,C1*%
X190565000Y-102136252D02*
X190565000Y-101613748D01*
X192035000Y-102136252D02*
X192035000Y-101613748D01*
%TO.C,C4*%
X223865000Y-82096252D02*
X223865000Y-81573748D01*
X225335000Y-82096252D02*
X225335000Y-81573748D01*
%TO.C,R3*%
X178465000Y-65222064D02*
X178465000Y-64767936D01*
X179935000Y-65222064D02*
X179935000Y-64767936D01*
%TO.C,U3*%
X193740000Y-111015000D02*
X193740000Y-111110000D01*
X193740000Y-116040000D02*
X193740000Y-116135000D01*
X193740000Y-116135000D02*
X197860000Y-116135000D01*
X197860000Y-111015000D02*
X193740000Y-111015000D01*
X197860000Y-111110000D02*
X197860000Y-111015000D01*
X197860000Y-116135000D02*
X197860000Y-116040000D01*
X193440000Y-116375000D02*
X192960000Y-116375000D01*
X193200000Y-116045000D01*
X193440000Y-116375000D01*
G36*
X193440000Y-116375000D02*
G01*
X192960000Y-116375000D01*
X193200000Y-116045000D01*
X193440000Y-116375000D01*
G37*
%TO.C,F1*%
X187490000Y-107510242D02*
X187490000Y-105839758D01*
X189310000Y-107510242D02*
X189310000Y-105839758D01*
%TO.C,C2*%
X195938748Y-68840000D02*
X196461252Y-68840000D01*
X195938748Y-70310000D02*
X196461252Y-70310000D01*
%TD*%
M02*
