%TF.GenerationSoftware,KiCad,Pcbnew,9.0.7*%
%TF.CreationDate,2026-08-06T18:18:35+05:30*%
%TF.ProjectId,Nursary_OneCH,4e757273-6172-4795-9f4f-6e6543482e6b,rev?*%
%TF.SameCoordinates,Original*%
%TF.FileFunction,Copper,L2,Bot*%
%TF.FilePolarity,Positive*%
%FSLAX46Y46*%
G04 Gerber Fmt 4.6, Leading zero omitted, Abs format (unit mm)*
G04 Created by KiCad (PCBNEW 9.0.7) date 2026-08-06 18:18:35*
%MOMM*%
%LPD*%
G01*
G04 APERTURE LIST*
G04 Aperture macros list*
%AMRoundRect*
0 Rectangle with rounded corners*
0 $1 Rounding radius*
0 $2 $3 $4 $5 $6 $7 $8 $9 X,Y pos of 4 corners*
0 Add a 4 corners polygon primitive as box body*
4,1,4,$2,$3,$4,$5,$6,$7,$8,$9,$2,$3,0*
0 Add four circle primitives for the rounded corners*
1,1,$1+$1,$2,$3*
1,1,$1+$1,$4,$5*
1,1,$1+$1,$6,$7*
1,1,$1+$1,$8,$9*
0 Add four rect primitives between the rounded corners*
20,1,$1+$1,$2,$3,$4,$5,0*
20,1,$1+$1,$4,$5,$6,$7,0*
20,1,$1+$1,$6,$7,$8,$9,0*
20,1,$1+$1,$8,$9,$2,$3,0*%
G04 Aperture macros list end*
%TA.AperFunction,ComponentPad*%
%ADD10O,2.000000X1.200000*%
%TD*%
%TA.AperFunction,ComponentPad*%
%ADD11RoundRect,0.249999X-1.550001X0.790001X-1.550001X-0.790001X1.550001X-0.790001X1.550001X0.790001X0*%
%TD*%
%TA.AperFunction,ComponentPad*%
%ADD12O,3.600000X2.080000*%
%TD*%
%TA.AperFunction,WasherPad*%
%ADD13C,4.500000*%
%TD*%
%TA.AperFunction,ComponentPad*%
%ADD14RoundRect,0.249999X1.550001X-0.790001X1.550001X0.790001X-1.550001X0.790001X-1.550001X-0.790001X0*%
%TD*%
%TA.AperFunction,ComponentPad*%
%ADD15C,3.000000*%
%TD*%
%TA.AperFunction,ComponentPad*%
%ADD16C,2.500000*%
%TD*%
%TA.AperFunction,ComponentPad*%
%ADD17C,1.200000*%
%TD*%
%TA.AperFunction,ComponentPad*%
%ADD18R,3.000000X3.000000*%
%TD*%
%TA.AperFunction,ComponentPad*%
%ADD19RoundRect,0.250000X0.625000X-0.350000X0.625000X0.350000X-0.625000X0.350000X-0.625000X-0.350000X0*%
%TD*%
%TA.AperFunction,ComponentPad*%
%ADD20O,1.750000X1.200000*%
%TD*%
%TA.AperFunction,SMDPad,CuDef*%
%ADD21RoundRect,0.250000X-0.450000X0.262500X-0.450000X-0.262500X0.450000X-0.262500X0.450000X0.262500X0*%
%TD*%
%TA.AperFunction,SMDPad,CuDef*%
%ADD22RoundRect,0.250000X0.262500X0.450000X-0.262500X0.450000X-0.262500X-0.450000X0.262500X-0.450000X0*%
%TD*%
%TA.AperFunction,SMDPad,CuDef*%
%ADD23RoundRect,0.375000X-1.125000X2.625000X-1.125000X-2.625000X1.125000X-2.625000X1.125000X2.625000X0*%
%TD*%
%TA.AperFunction,ComponentPad*%
%ADD24C,1.000000*%
%TD*%
%TA.AperFunction,SMDPad,CuDef*%
%ADD25RoundRect,0.050000X-0.150000X-0.300000X0.150000X-0.300000X0.150000X0.300000X-0.150000X0.300000X0*%
%TD*%
%TA.AperFunction,SMDPad,CuDef*%
%ADD26RoundRect,0.250000X0.450000X-0.262500X0.450000X0.262500X-0.450000X0.262500X-0.450000X-0.262500X0*%
%TD*%
%TA.AperFunction,SMDPad,CuDef*%
%ADD27RoundRect,0.150000X-0.875000X-0.150000X0.875000X-0.150000X0.875000X0.150000X-0.875000X0.150000X0*%
%TD*%
%TA.AperFunction,SMDPad,CuDef*%
%ADD28RoundRect,0.150000X-0.150000X0.825000X-0.150000X-0.825000X0.150000X-0.825000X0.150000X0.825000X0*%
%TD*%
%TA.AperFunction,SMDPad,CuDef*%
%ADD29RoundRect,0.250000X0.475000X-0.250000X0.475000X0.250000X-0.475000X0.250000X-0.475000X-0.250000X0*%
%TD*%
%TA.AperFunction,SMDPad,CuDef*%
%ADD30RoundRect,0.150000X-0.825000X-0.150000X0.825000X-0.150000X0.825000X0.150000X-0.825000X0.150000X0*%
%TD*%
%TA.AperFunction,SMDPad,CuDef*%
%ADD31RoundRect,0.250000X0.700000X-0.275000X0.700000X0.275000X-0.700000X0.275000X-0.700000X-0.275000X0*%
%TD*%
%TA.AperFunction,SMDPad,CuDef*%
%ADD32RoundRect,0.250000X-0.250000X-0.475000X0.250000X-0.475000X0.250000X0.475000X-0.250000X0.475000X0*%
%TD*%
%TA.AperFunction,ViaPad*%
%ADD33C,0.800000*%
%TD*%
%TA.AperFunction,Conductor*%
%ADD34C,1.000000*%
%TD*%
%TA.AperFunction,Conductor*%
%ADD35C,0.500000*%
%TD*%
%TA.AperFunction,Conductor*%
%ADD36C,0.300000*%
%TD*%
G04 APERTURE END LIST*
D10*
%TO.P,U5,1,3V3_Out*%
%TO.N,+3.3V*%
X213377500Y-95005000D03*
%TO.P,U5,2,GND*%
%TO.N,GND*%
X213377500Y-92445000D03*
%TO.P,U5,10,D19*%
%TO.N,/RELAY1_MCU*%
X213352500Y-72170000D03*
%TO.P,U5,11,D21/I2C_SDA*%
%TO.N,/SDA*%
X213352500Y-69610000D03*
%TO.P,U5,14,D22/I2C_SCL*%
%TO.N,/SCL*%
X213327500Y-61995000D03*
%TO.P,U5,20,D35/Input_only*%
%TO.N,/FLOW1_MCU*%
X188352500Y-69610000D03*
%TO.P,U5,21,D32*%
%TO.N,/FLOW1_LED_MCU*%
X188352500Y-72170000D03*
%TO.P,U5,29,GND*%
%TO.N,GND*%
X188377500Y-92445000D03*
%TO.P,U5,30,VIN/5V_Power_IN*%
%TO.N,+5V*%
X188377500Y-95005000D03*
%TD*%
D11*
%TO.P,J2,1,Pin_1*%
%TO.N,Net-(J2-Pin_1)*%
X223340000Y-119005000D03*
D12*
%TO.P,J2,2,Pin_2*%
%TO.N,Net-(J2-Pin_2)*%
X223340000Y-124085000D03*
%TD*%
D13*
%TO.P,,*%
%TO.N,*%
X220750000Y-47685000D03*
%TD*%
%TO.P,,*%
%TO.N,*%
X220750000Y-131685000D03*
%TD*%
D14*
%TO.P,J1,1,Pin_1*%
%TO.N,+5VP*%
X181190000Y-105155000D03*
D12*
%TO.P,J1,2,Pin_2*%
%TO.N,/FLOW1_CON*%
X181190000Y-100075000D03*
%TO.P,J1,3,Pin_3*%
%TO.N,GND*%
X181190000Y-94995000D03*
%TD*%
D15*
%TO.P,K1,1*%
%TO.N,Net-(J2-Pin_2)*%
X224190000Y-93925000D03*
D16*
%TO.P,K1,2*%
%TO.N,Net-(D4-K)*%
X218140000Y-95875000D03*
D15*
%TO.P,K1,3*%
%TO.N,Net-(J2-Pin_1)*%
X218140000Y-108075000D03*
%TO.P,K1,4*%
%TO.N,unconnected-(K1-Pad4)*%
X230190000Y-108125000D03*
D16*
%TO.P,K1,5*%
%TO.N,+5V*%
X230140000Y-95875000D03*
%TD*%
D13*
%TO.P,,*%
%TO.N,*%
X190750000Y-131685000D03*
%TD*%
D17*
%TO.P,C6,1*%
%TO.N,+5V*%
X229700000Y-89775000D03*
%TO.P,C6,2*%
%TO.N,GND*%
X229700000Y-87775000D03*
%TD*%
D18*
%TO.P,BT1,1,+*%
%TO.N,/BATT*%
X203150000Y-132042454D03*
D15*
%TO.P,BT1,2,-*%
%TO.N,GND*%
X203150000Y-111242454D03*
%TD*%
D13*
%TO.P,,*%
%TO.N,*%
X190750000Y-47685000D03*
%TD*%
D19*
%TO.P,J4,1,Pin_1*%
%TO.N,GND*%
X182500000Y-119175000D03*
D20*
%TO.P,J4,2,Pin_2*%
%TO.N,+5V*%
X182500000Y-117175000D03*
%TD*%
D21*
%TO.P,R15,1*%
%TO.N,+3.3V*%
X205200000Y-113975000D03*
%TO.P,R15,2*%
%TO.N,/SCL*%
X205200000Y-115800000D03*
%TD*%
D22*
%TO.P,R4,1*%
%TO.N,+3.3V*%
X197212500Y-75675000D03*
%TO.P,R4,2*%
%TO.N,/FLOW1_MCU*%
X195387500Y-75675000D03*
%TD*%
D23*
%TO.P,TP1,1,1*%
%TO.N,GND*%
X196900000Y-124205000D03*
%TD*%
D24*
%TO.P,Y1,1,1*%
%TO.N,Net-(U3-X2)*%
X198170000Y-117875000D03*
%TO.P,Y1,2,2*%
%TO.N,Net-(U3-X1)*%
X195630000Y-117875000D03*
%TD*%
D21*
%TO.P,R16,1*%
%TO.N,+3.3V*%
X209000000Y-113975000D03*
%TO.P,R16,2*%
%TO.N,/SDA*%
X209000000Y-115800000D03*
%TD*%
%TO.P,R1,1*%
%TO.N,/FLOW1_MCU*%
X184600000Y-87262500D03*
%TO.P,R1,2*%
%TO.N,/FLOW1_CON*%
X184600000Y-89087500D03*
%TD*%
D25*
%TO.P,D6,1,K*%
%TO.N,/FLOW1_CON*%
X185600000Y-100075000D03*
%TO.P,D6,2,A*%
%TO.N,GND*%
X186300000Y-100075000D03*
%TD*%
D26*
%TO.P,R5,1*%
%TO.N,+5V*%
X223900000Y-64287500D03*
%TO.P,R5,2*%
%TO.N,Net-(D4-A)*%
X223900000Y-62462500D03*
%TD*%
D27*
%TO.P,U4,1,32KHZ*%
%TO.N,unconnected-(U4-32KHZ-Pad1)*%
X202050000Y-127820000D03*
%TO.P,U4,2,VCC*%
%TO.N,+3.3V*%
X202050000Y-126550000D03*
%TO.P,U4,5,GND*%
%TO.N,GND*%
X202050000Y-122740000D03*
%TO.P,U4,6,GND*%
X202050000Y-121470000D03*
%TO.P,U4,7,GND*%
X202050000Y-120200000D03*
%TO.P,U4,8,GND*%
X202050000Y-118930000D03*
%TO.P,U4,9,GND*%
X211350000Y-118930000D03*
%TO.P,U4,10,GND*%
X211350000Y-120200000D03*
%TO.P,U4,11,GND*%
X211350000Y-121470000D03*
%TO.P,U4,12,GND*%
X211350000Y-122740000D03*
%TO.P,U4,13,GND*%
X211350000Y-124010000D03*
%TO.P,U4,14,VBAT*%
%TO.N,/BATT*%
X211350000Y-125280000D03*
%TO.P,U4,15,SDA*%
%TO.N,/SDA*%
X211350000Y-126550000D03*
%TO.P,U4,16,SCL*%
%TO.N,/SCL*%
X211350000Y-127820000D03*
%TD*%
D28*
%TO.P,U1,1,I1*%
%TO.N,/RELAY1_MCU*%
X219730000Y-78575000D03*
%TO.P,U1,8,GND*%
%TO.N,GND*%
X228620000Y-78575000D03*
%TO.P,U1,9,COM*%
%TO.N,+5V*%
X228620000Y-83525000D03*
%TO.P,U1,16,O1*%
%TO.N,Net-(D4-K)*%
X219730000Y-83525000D03*
%TD*%
D29*
%TO.P,C1,1*%
%TO.N,+5VP*%
X191300000Y-102825000D03*
%TO.P,C1,2*%
%TO.N,GND*%
X191300000Y-100925000D03*
%TD*%
%TO.P,C4,1*%
%TO.N,+5V*%
X224600000Y-89725000D03*
%TO.P,C4,2*%
%TO.N,GND*%
X224600000Y-87825000D03*
%TD*%
D26*
%TO.P,R3,1*%
%TO.N,/FLOW1_LED_MCU*%
X179200000Y-64387500D03*
%TO.P,R3,2*%
%TO.N,Net-(D1-A)*%
X179200000Y-62562500D03*
%TD*%
D30*
%TO.P,U3,1,X1*%
%TO.N,Net-(U3-X1)*%
X193325000Y-115480000D03*
%TO.P,U3,2,X2*%
%TO.N,Net-(U3-X2)*%
X193325000Y-114210000D03*
%TO.P,U3,3,VBAT*%
%TO.N,/BATT*%
X193325000Y-112940000D03*
%TO.P,U3,4,GND*%
%TO.N,GND*%
X193325000Y-111670000D03*
%TO.P,U3,5,SDA*%
%TO.N,/SDA*%
X198275000Y-111670000D03*
%TO.P,U3,6,SCL*%
%TO.N,/SCL*%
X198275000Y-112940000D03*
%TO.P,U3,8,VCC*%
%TO.N,+5V*%
X198275000Y-115480000D03*
%TD*%
D31*
%TO.P,F1,1*%
%TO.N,+5V*%
X188400000Y-108250000D03*
%TO.P,F1,2*%
%TO.N,+5VP*%
X188400000Y-105100000D03*
%TD*%
D32*
%TO.P,C2,1*%
%TO.N,/FLOW1_MCU*%
X195250000Y-69575000D03*
%TO.P,C2,2*%
%TO.N,GND*%
X197150000Y-69575000D03*
%TD*%
D33*
%TO.N,GND*%
X198300000Y-109605000D03*
X199800000Y-75505000D03*
X199800000Y-72405000D03*
X199800000Y-70905000D03*
X199800000Y-73905000D03*
X199800000Y-69305000D03*
X193000000Y-62905000D03*
X195400000Y-59805000D03*
X193000000Y-61405000D03*
X195400000Y-62905000D03*
X195400000Y-61405000D03*
X193000000Y-59805000D03*
X216200000Y-67905000D03*
X218600000Y-64805000D03*
X216200000Y-66405000D03*
X218600000Y-67905000D03*
X218600000Y-66405000D03*
X216200000Y-64805000D03*
X225600000Y-85905000D03*
X222500000Y-83505000D03*
X224100000Y-85905000D03*
X225600000Y-83505000D03*
X224100000Y-83505000D03*
X222500000Y-85905000D03*
X216800000Y-89005000D03*
X216800000Y-87505000D03*
X216800000Y-85905000D03*
X207400000Y-77568000D03*
X209800000Y-74468000D03*
X207400000Y-76068000D03*
X209800000Y-77568000D03*
X209800000Y-76068000D03*
X207400000Y-74468000D03*
X198700000Y-52675000D03*
X199800000Y-121075000D03*
X211500000Y-105875000D03*
X191900000Y-81775000D03*
X191900000Y-86375000D03*
X196100000Y-104375000D03*
X199800000Y-122675000D03*
X198700000Y-51175000D03*
X187900000Y-119075000D03*
X191900000Y-83375000D03*
X191900000Y-84875000D03*
X199800000Y-125675000D03*
X187900000Y-123675000D03*
X224200000Y-76305000D03*
X180400000Y-74775000D03*
X204700000Y-105875000D03*
X187900000Y-122175000D03*
X198700000Y-49675000D03*
X210200000Y-49575000D03*
X196100000Y-105975000D03*
X211500000Y-99675000D03*
X204700000Y-99675000D03*
X226600000Y-77905000D03*
X196100000Y-99775000D03*
X199800000Y-127275000D03*
X180400000Y-80975000D03*
X211500000Y-101275000D03*
X180400000Y-79375000D03*
X211500000Y-102775000D03*
X187900000Y-125275000D03*
X196100000Y-102875000D03*
X198700000Y-48075000D03*
X210200000Y-52575000D03*
X210200000Y-54175000D03*
X226600000Y-79405000D03*
X180400000Y-76375000D03*
X224200000Y-77905000D03*
X180400000Y-77875000D03*
X210200000Y-51075000D03*
X187900000Y-120675000D03*
X199800000Y-124175000D03*
X204700000Y-102775000D03*
X226600000Y-76305000D03*
X211500000Y-104275000D03*
X224200000Y-79405000D03*
X191900000Y-87975000D03*
X204700000Y-104275000D03*
X204700000Y-101275000D03*
X210200000Y-47975000D03*
X198700000Y-54275000D03*
X196100000Y-101375000D03*
%TO.N,+3.3V*%
X205600000Y-126275000D03*
X208500000Y-93775000D03*
X200600000Y-83275000D03*
X207100000Y-113375000D03*
%TO.N,Net-(D1-A)*%
X179200000Y-61075000D03*
%TO.N,Net-(D4-A)*%
X223900000Y-61275000D03*
%TO.N,Net-(D4-K)*%
X221600000Y-75675000D03*
X221600000Y-58375000D03*
X218100000Y-83575000D03*
%TO.N,/SCL*%
X198000000Y-91975000D03*
X198000000Y-97775000D03*
%TO.N,/SDA*%
X200200000Y-96675000D03*
X200200000Y-91175000D03*
%TD*%
D34*
%TO.N,+5V*%
X228620000Y-83525000D02*
X228620000Y-82295000D01*
X228620000Y-82295000D02*
X227800000Y-81475000D01*
X208735000Y-86070000D02*
X208735000Y-90540000D01*
X204270000Y-95005000D02*
X188377500Y-95005000D01*
X227800000Y-81475000D02*
X217800000Y-81475000D01*
X217800000Y-81475000D02*
X215685000Y-83590000D01*
X215685000Y-83590000D02*
X211215000Y-83590000D01*
X211215000Y-83590000D02*
X208735000Y-86070000D01*
X208735000Y-90540000D02*
X204270000Y-95005000D01*
D35*
%TO.N,/FLOW1_MCU*%
X184600000Y-87262500D02*
X184600000Y-78375000D01*
X184600000Y-78375000D02*
X187070000Y-75905000D01*
X187070000Y-75905000D02*
X195157500Y-75905000D01*
X195157500Y-75905000D02*
X195387500Y-75675000D01*
%TO.N,+3.3V*%
X213377500Y-95005000D02*
X211970000Y-95005000D01*
X213377500Y-95005000D02*
X209730000Y-95005000D01*
X207100000Y-113975000D02*
X209000000Y-113975000D01*
X200600000Y-83275000D02*
X198400000Y-83275000D01*
X197212500Y-82087500D02*
X197212500Y-75675000D01*
X209000000Y-97975000D02*
X209000000Y-113975000D01*
X205325000Y-126550000D02*
X205600000Y-126275000D01*
X205200000Y-113975000D02*
X207100000Y-113975000D01*
X211970000Y-95005000D02*
X209000000Y-97975000D01*
X198400000Y-83275000D02*
X197212500Y-82087500D01*
X207100000Y-113975000D02*
X207100000Y-113375000D01*
X209730000Y-95005000D02*
X208500000Y-93775000D01*
X202050000Y-126550000D02*
X205325000Y-126550000D01*
D34*
%TO.N,+5VP*%
X191300000Y-102825000D02*
X189050000Y-102825000D01*
X189050000Y-102825000D02*
X188400000Y-103475000D01*
X188400000Y-105100000D02*
X181245000Y-105100000D01*
X188400000Y-103475000D02*
X188400000Y-105100000D01*
X181245000Y-105100000D02*
X181190000Y-105155000D01*
D35*
%TO.N,Net-(D1-A)*%
X179200000Y-62562500D02*
X179200000Y-61075000D01*
%TO.N,Net-(D4-A)*%
X223900000Y-62462500D02*
X223900000Y-61275000D01*
D34*
%TO.N,Net-(D4-K)*%
X219730000Y-92145000D02*
X219730000Y-83525000D01*
X218140000Y-93735000D02*
X219730000Y-92145000D01*
D35*
X218150000Y-83525000D02*
X218100000Y-83575000D01*
X221600000Y-75675000D02*
X221600000Y-58375000D01*
X219730000Y-83525000D02*
X218150000Y-83525000D01*
D34*
X218140000Y-95875000D02*
X218140000Y-93735000D01*
%TO.N,Net-(J2-Pin_1)*%
X221100000Y-111035000D02*
X221100000Y-116765000D01*
X221100000Y-116765000D02*
X223340000Y-119005000D01*
X218140000Y-108075000D02*
X221100000Y-111035000D01*
%TO.N,Net-(J2-Pin_2)*%
X224190000Y-111765000D02*
X224190000Y-93925000D01*
X228350000Y-115925000D02*
X224190000Y-111765000D01*
X228350000Y-122225000D02*
X228350000Y-115925000D01*
X223340000Y-124085000D02*
X226490000Y-124085000D01*
X226490000Y-124085000D02*
X228350000Y-122225000D01*
D35*
%TO.N,+5V*%
X195900000Y-109975000D02*
X194175000Y-108250000D01*
D34*
X191830000Y-95005000D02*
X188377500Y-95005000D01*
X232000000Y-88675000D02*
X232000000Y-84275000D01*
X193300000Y-96475000D02*
X191830000Y-95005000D01*
X188400000Y-108250000D02*
X191625000Y-108250000D01*
X230900000Y-89775000D02*
X232000000Y-88675000D01*
D35*
X230700000Y-82725000D02*
X229900000Y-83525000D01*
D34*
X187000000Y-112075000D02*
X188400000Y-110675000D01*
X231250000Y-83525000D02*
X229900000Y-83525000D01*
X229700000Y-89775000D02*
X230900000Y-89775000D01*
X183800000Y-112075000D02*
X187000000Y-112075000D01*
X229900000Y-83525000D02*
X228620000Y-83525000D01*
X229700000Y-95435000D02*
X230140000Y-95875000D01*
X193300000Y-106575000D02*
X193300000Y-96475000D01*
D35*
X196705000Y-115480000D02*
X195900000Y-114675000D01*
D34*
X191625000Y-108250000D02*
X193300000Y-106575000D01*
X229700000Y-89775000D02*
X229700000Y-95435000D01*
D35*
X194175000Y-108250000D02*
X191625000Y-108250000D01*
D34*
X229650000Y-89725000D02*
X229700000Y-89775000D01*
X182500000Y-117175000D02*
X182500000Y-113375000D01*
D35*
X195900000Y-114675000D02*
X195900000Y-109975000D01*
X223900000Y-64287500D02*
X223900000Y-73175000D01*
D34*
X182500000Y-113375000D02*
X183800000Y-112075000D01*
D35*
X224900000Y-74175000D02*
X229700000Y-74175000D01*
D34*
X232000000Y-84275000D02*
X231250000Y-83525000D01*
D35*
X230700000Y-75175000D02*
X230700000Y-82725000D01*
X198275000Y-115480000D02*
X196705000Y-115480000D01*
X229700000Y-74175000D02*
X230700000Y-75175000D01*
X223900000Y-73175000D02*
X224900000Y-74175000D01*
D34*
X224600000Y-89725000D02*
X229650000Y-89725000D01*
X188400000Y-110675000D02*
X188400000Y-108250000D01*
D35*
%TO.N,/FLOW1_MCU*%
X195387500Y-75675000D02*
X195387500Y-69712500D01*
X195250000Y-69575000D02*
X188387500Y-69575000D01*
X195387500Y-69712500D02*
X195250000Y-69575000D01*
X188387500Y-69575000D02*
X188352500Y-69610000D01*
%TO.N,/RELAY1_MCU*%
X219730000Y-78575000D02*
X219730000Y-73805000D01*
X219730000Y-73805000D02*
X218095000Y-72170000D01*
X218095000Y-72170000D02*
X213352500Y-72170000D01*
%TO.N,/FLOW1_CON*%
X184600000Y-100075000D02*
X181190000Y-100075000D01*
X185600000Y-100075000D02*
X184600000Y-100075000D01*
X184600000Y-89087500D02*
X184600000Y-100075000D01*
%TO.N,/SCL*%
X200165000Y-112940000D02*
X200900000Y-113675000D01*
X205200000Y-115800000D02*
X205200000Y-124375000D01*
X208645000Y-127820000D02*
X211350000Y-127820000D01*
X201775000Y-115800000D02*
X205200000Y-115800000D01*
X196700000Y-109275000D02*
X196700000Y-112375000D01*
X198000000Y-107975000D02*
X196700000Y-109275000D01*
X200900000Y-114975000D02*
X201750000Y-115825000D01*
X198000000Y-90575000D02*
X198000000Y-91975000D01*
X213327500Y-61995000D02*
X205180000Y-61995000D01*
X205200000Y-124375000D02*
X208645000Y-127820000D01*
X196700000Y-112375000D02*
X197265000Y-112940000D01*
X205180000Y-61995000D02*
X202200000Y-64975000D01*
X202200000Y-86375000D02*
X198000000Y-90575000D01*
X198000000Y-97775000D02*
X198000000Y-107975000D01*
X200900000Y-113675000D02*
X200900000Y-114975000D01*
X202200000Y-64975000D02*
X202200000Y-86375000D01*
X198275000Y-112940000D02*
X200165000Y-112940000D01*
X201750000Y-115825000D02*
X201775000Y-115800000D01*
X197265000Y-112940000D02*
X198275000Y-112940000D01*
%TO.N,/SDA*%
X200100000Y-109845000D02*
X200100000Y-97275000D01*
X206365000Y-69610000D02*
X213352500Y-69610000D01*
X200100000Y-97275000D02*
X200100000Y-96775000D01*
X200200000Y-91175000D02*
X204000000Y-87375000D01*
D36*
X207625000Y-115800000D02*
X206700000Y-114875000D01*
D35*
X198275000Y-111670000D02*
X200100000Y-109845000D01*
D36*
X202300000Y-114875000D02*
X201900000Y-114475000D01*
X201900000Y-113475000D02*
X200095000Y-111670000D01*
D35*
X210325001Y-126550000D02*
X209000000Y-125224999D01*
D36*
X209000000Y-115800000D02*
X207625000Y-115800000D01*
D35*
X200100000Y-96775000D02*
X200200000Y-96675000D01*
X211350000Y-126550000D02*
X210325001Y-126550000D01*
D36*
X201900000Y-114475000D02*
X201900000Y-113475000D01*
D35*
X209000000Y-125224999D02*
X209000000Y-115800000D01*
D36*
X200095000Y-111670000D02*
X198275000Y-111670000D01*
X206700000Y-114875000D02*
X202300000Y-114875000D01*
D35*
X204000000Y-71975000D02*
X206365000Y-69610000D01*
X204000000Y-87375000D02*
X204000000Y-71975000D01*
%TO.N,/BATT*%
X211350000Y-125280000D02*
X213205000Y-125280000D01*
X212600000Y-131575000D02*
X206567454Y-131575000D01*
X191700000Y-127105000D02*
X191700000Y-113475000D01*
X213205000Y-125280000D02*
X213700000Y-125775000D01*
X206100000Y-132042454D02*
X203150000Y-132042454D01*
X213700000Y-130475000D02*
X212600000Y-131575000D01*
X192235000Y-112940000D02*
X193325000Y-112940000D01*
X206567454Y-131575000D02*
X206100000Y-132042454D01*
X196637454Y-132042454D02*
X191700000Y-127105000D01*
X213700000Y-125775000D02*
X213700000Y-130475000D01*
X191700000Y-113475000D02*
X192235000Y-112940000D01*
X203150000Y-132042454D02*
X196637454Y-132042454D01*
%TO.N,Net-(U3-X2)*%
X193325000Y-114210000D02*
X194435000Y-114210000D01*
X195700000Y-116475000D02*
X197700000Y-116475000D01*
X197700000Y-116475000D02*
X198170000Y-116945000D01*
X194435000Y-114210000D02*
X195100000Y-114875000D01*
X198170000Y-116945000D02*
X198170000Y-117875000D01*
X195100000Y-115875000D02*
X195700000Y-116475000D01*
X195100000Y-114875000D02*
X195100000Y-115875000D01*
%TO.N,Net-(U3-X1)*%
X193325000Y-117350000D02*
X193325000Y-115480000D01*
X195630000Y-117875000D02*
X193800000Y-117875000D01*
X193300000Y-117375000D02*
X193325000Y-117350000D01*
X193800000Y-117875000D02*
X193300000Y-117375000D01*
%TO.N,/FLOW1_LED_MCU*%
X188352500Y-72170000D02*
X180795000Y-72170000D01*
X179200000Y-70575000D02*
X179200000Y-64387500D01*
X180795000Y-72170000D02*
X179200000Y-70575000D01*
%TD*%
%TA.AperFunction,Conductor*%
%TO.N,GND*%
G36*
X232442539Y-44295185D02*
G01*
X232488294Y-44347989D01*
X232499500Y-44399500D01*
X232499500Y-83060218D01*
X232479815Y-83127257D01*
X232427011Y-83173012D01*
X232357853Y-83182956D01*
X232294297Y-83153931D01*
X232287819Y-83147899D01*
X232031479Y-82891559D01*
X232031459Y-82891537D01*
X231887785Y-82747863D01*
X231887781Y-82747860D01*
X231723920Y-82638371D01*
X231723907Y-82638364D01*
X231573333Y-82575995D01*
X231573298Y-82575981D01*
X231572223Y-82575536D01*
X231541836Y-82562949D01*
X231538169Y-82562219D01*
X231529269Y-82558733D01*
X231505356Y-82540213D01*
X231480058Y-82523630D01*
X231478008Y-82519033D01*
X231474029Y-82515951D01*
X231463924Y-82487440D01*
X231451608Y-82459815D01*
X231451019Y-82451031D01*
X231450688Y-82450096D01*
X231450897Y-82449205D01*
X231450500Y-82443277D01*
X231450500Y-75101082D01*
X231444755Y-75072203D01*
X231440239Y-75049499D01*
X231439967Y-75048133D01*
X231430885Y-75002472D01*
X231421659Y-74956088D01*
X231367408Y-74825117D01*
X231365764Y-74820522D01*
X231282954Y-74696588D01*
X231282953Y-74696587D01*
X231282951Y-74696584D01*
X231178416Y-74592049D01*
X230983233Y-74396866D01*
X230178421Y-73592052D01*
X230178414Y-73592046D01*
X230104729Y-73542812D01*
X230104729Y-73542813D01*
X230055491Y-73509913D01*
X229918917Y-73453343D01*
X229918907Y-73453340D01*
X229773920Y-73424500D01*
X229773918Y-73424500D01*
X225262229Y-73424500D01*
X225195190Y-73404815D01*
X225174548Y-73388181D01*
X224686819Y-72900451D01*
X224653334Y-72839128D01*
X224650500Y-72812770D01*
X224650500Y-65315638D01*
X224670185Y-65248599D01*
X224709401Y-65210100D01*
X224818656Y-65142712D01*
X224942712Y-65018656D01*
X225034814Y-64869334D01*
X225089999Y-64702797D01*
X225100500Y-64600009D01*
X225100499Y-63974992D01*
X225096264Y-63933538D01*
X225089999Y-63872203D01*
X225089998Y-63872200D01*
X225067950Y-63805663D01*
X225034814Y-63705666D01*
X224942712Y-63556344D01*
X224849049Y-63462681D01*
X224815564Y-63401358D01*
X224820548Y-63331666D01*
X224849049Y-63287319D01*
X224942712Y-63193656D01*
X225034814Y-63044334D01*
X225089999Y-62877797D01*
X225100500Y-62775009D01*
X225100499Y-62149992D01*
X225089999Y-62047203D01*
X225034814Y-61880666D01*
X224942712Y-61731344D01*
X224818656Y-61607288D01*
X224813549Y-61602181D01*
X224814925Y-61600804D01*
X224780231Y-61551818D01*
X224775898Y-61487371D01*
X224800500Y-61363693D01*
X224800500Y-61186306D01*
X224800499Y-61186304D01*
X224765896Y-61012341D01*
X224765893Y-61012332D01*
X224698016Y-60848459D01*
X224698009Y-60848446D01*
X224599464Y-60700965D01*
X224599461Y-60700961D01*
X224474038Y-60575538D01*
X224474034Y-60575535D01*
X224326553Y-60476990D01*
X224326540Y-60476983D01*
X224162667Y-60409106D01*
X224162658Y-60409103D01*
X223988694Y-60374500D01*
X223988691Y-60374500D01*
X223811309Y-60374500D01*
X223811306Y-60374500D01*
X223637341Y-60409103D01*
X223637332Y-60409106D01*
X223473459Y-60476983D01*
X223473446Y-60476990D01*
X223325965Y-60575535D01*
X223325961Y-60575538D01*
X223200538Y-60700961D01*
X223200535Y-60700965D01*
X223101990Y-60848446D01*
X223101983Y-60848459D01*
X223034106Y-61012332D01*
X223034103Y-61012341D01*
X222999500Y-61186304D01*
X222999500Y-61363695D01*
X223024101Y-61487371D01*
X223017874Y-61556962D01*
X222985235Y-61600965D01*
X222986451Y-61602181D01*
X222857289Y-61731342D01*
X222765187Y-61880663D01*
X222765186Y-61880666D01*
X222710001Y-62047203D01*
X222710001Y-62047204D01*
X222710000Y-62047204D01*
X222699500Y-62149983D01*
X222699500Y-62775001D01*
X222699501Y-62775019D01*
X222710000Y-62877796D01*
X222710001Y-62877799D01*
X222765185Y-63044331D01*
X222765186Y-63044334D01*
X222826867Y-63144336D01*
X222857289Y-63193657D01*
X222950951Y-63287319D01*
X222984436Y-63348642D01*
X222979452Y-63418334D01*
X222950951Y-63462681D01*
X222857289Y-63556342D01*
X222765187Y-63705663D01*
X222765186Y-63705666D01*
X222710001Y-63872203D01*
X222710001Y-63872204D01*
X222710000Y-63872204D01*
X222699500Y-63974983D01*
X222699500Y-64600001D01*
X222699501Y-64600019D01*
X222710000Y-64702796D01*
X222710001Y-64702799D01*
X222765185Y-64869331D01*
X222765186Y-64869334D01*
X222857288Y-65018656D01*
X222981344Y-65142712D01*
X223090597Y-65210099D01*
X223137321Y-65262047D01*
X223149500Y-65315638D01*
X223149500Y-73248918D01*
X223149500Y-73248920D01*
X223149499Y-73248920D01*
X223178340Y-73393907D01*
X223178343Y-73393917D01*
X223234914Y-73530492D01*
X223267812Y-73579727D01*
X223267813Y-73579730D01*
X223317046Y-73653414D01*
X223317052Y-73653421D01*
X224317049Y-74653416D01*
X224421584Y-74757951D01*
X224421587Y-74757953D01*
X224421588Y-74757954D01*
X224544503Y-74840083D01*
X224544506Y-74840085D01*
X224594665Y-74860861D01*
X224601080Y-74863518D01*
X224681088Y-74896659D01*
X224797241Y-74919763D01*
X224820380Y-74924365D01*
X224826081Y-74925500D01*
X224826082Y-74925500D01*
X224826083Y-74925500D01*
X224973918Y-74925500D01*
X229337770Y-74925500D01*
X229404809Y-74945185D01*
X229425451Y-74961819D01*
X229913181Y-75449548D01*
X229946666Y-75510871D01*
X229949500Y-75537229D01*
X229949500Y-82362770D01*
X229940855Y-82392210D01*
X229934332Y-82422197D01*
X229930577Y-82427212D01*
X229929815Y-82429809D01*
X229913181Y-82450451D01*
X229875451Y-82488181D01*
X229814128Y-82521666D01*
X229787770Y-82524500D01*
X229744500Y-82524500D01*
X229677461Y-82504815D01*
X229631706Y-82452011D01*
X229620500Y-82400500D01*
X229620500Y-82196456D01*
X229582052Y-82003170D01*
X229582051Y-82003169D01*
X229582051Y-82003165D01*
X229518495Y-81849726D01*
X229506635Y-81821092D01*
X229506628Y-81821079D01*
X229397139Y-81657218D01*
X229397136Y-81657214D01*
X229254686Y-81514764D01*
X229254655Y-81514735D01*
X228581479Y-80841559D01*
X228581459Y-80841537D01*
X228437785Y-80697863D01*
X228437781Y-80697860D01*
X228273920Y-80588371D01*
X228273911Y-80588366D01*
X228201315Y-80558296D01*
X228145165Y-80535038D01*
X228091836Y-80512949D01*
X228091832Y-80512948D01*
X228091828Y-80512946D01*
X227995188Y-80493724D01*
X227898544Y-80474500D01*
X227898541Y-80474500D01*
X217701459Y-80474500D01*
X217701458Y-80474500D01*
X217691404Y-80476500D01*
X217671295Y-80480500D01*
X217540612Y-80506494D01*
X217508164Y-80512948D01*
X217326088Y-80588366D01*
X217326079Y-80588371D01*
X217162219Y-80697859D01*
X217162215Y-80697862D01*
X215306899Y-82553181D01*
X215245576Y-82586666D01*
X215219218Y-82589500D01*
X214120194Y-82589500D01*
X214053155Y-82569815D01*
X214007400Y-82517011D01*
X213997456Y-82447853D01*
X213998577Y-82441309D01*
X214002999Y-82419073D01*
X214003000Y-82419071D01*
X214003000Y-82290928D01*
X213978002Y-82165261D01*
X213978001Y-82165260D01*
X213978001Y-82165256D01*
X213928965Y-82046873D01*
X213928964Y-82046872D01*
X213928961Y-82046866D01*
X213857776Y-81940331D01*
X213857773Y-81940327D01*
X213767172Y-81849726D01*
X213767168Y-81849723D01*
X213660633Y-81778538D01*
X213660624Y-81778533D01*
X213542244Y-81729499D01*
X213542238Y-81729497D01*
X213416571Y-81704500D01*
X213416569Y-81704500D01*
X213288431Y-81704500D01*
X213288429Y-81704500D01*
X213162761Y-81729497D01*
X213162755Y-81729499D01*
X213044375Y-81778533D01*
X213044366Y-81778538D01*
X212937831Y-81849723D01*
X212937827Y-81849726D01*
X212847226Y-81940327D01*
X212847223Y-81940331D01*
X212776038Y-82046866D01*
X212776033Y-82046875D01*
X212726999Y-82165255D01*
X212726997Y-82165261D01*
X212702000Y-82290928D01*
X212702000Y-82419073D01*
X212706423Y-82441309D01*
X212700196Y-82510901D01*
X212657332Y-82566078D01*
X212591443Y-82589322D01*
X212584806Y-82589500D01*
X211116454Y-82589500D01*
X211084391Y-82595876D01*
X211084392Y-82595877D01*
X210923170Y-82627946D01*
X210923164Y-82627948D01*
X210741088Y-82703366D01*
X210741079Y-82703371D01*
X210577219Y-82812859D01*
X210577215Y-82812862D01*
X208709824Y-84680255D01*
X208097220Y-85292859D01*
X208097218Y-85292861D01*
X208027538Y-85362540D01*
X207957859Y-85432219D01*
X207848371Y-85596079D01*
X207848364Y-85596092D01*
X207772950Y-85778160D01*
X207772947Y-85778170D01*
X207734500Y-85971456D01*
X207734500Y-90074217D01*
X207714815Y-90141256D01*
X207698181Y-90161898D01*
X203891899Y-93968181D01*
X203830576Y-94001666D01*
X203804218Y-94004500D01*
X189267737Y-94004500D01*
X189211441Y-93990984D01*
X189199949Y-93985128D01*
X189117573Y-93958362D01*
X189035201Y-93931598D01*
X189035199Y-93931597D01*
X189035198Y-93931597D01*
X188903771Y-93910781D01*
X188864111Y-93904500D01*
X187890889Y-93904500D01*
X187851228Y-93910781D01*
X187719802Y-93931597D01*
X187555052Y-93985128D01*
X187400711Y-94063768D01*
X187320756Y-94121859D01*
X187260572Y-94165586D01*
X187260570Y-94165588D01*
X187260569Y-94165588D01*
X187138088Y-94288069D01*
X187138088Y-94288070D01*
X187138086Y-94288072D01*
X187128217Y-94301656D01*
X187036268Y-94428211D01*
X186957628Y-94582552D01*
X186904097Y-94747302D01*
X186877000Y-94918389D01*
X186877000Y-95091610D01*
X186901587Y-95246851D01*
X186904098Y-95262701D01*
X186957627Y-95427445D01*
X187036268Y-95581788D01*
X187138086Y-95721928D01*
X187260572Y-95844414D01*
X187400712Y-95946232D01*
X187555055Y-96024873D01*
X187719799Y-96078402D01*
X187890889Y-96105500D01*
X187890890Y-96105500D01*
X188864110Y-96105500D01*
X188864111Y-96105500D01*
X189035201Y-96078402D01*
X189199945Y-96024873D01*
X189203488Y-96023068D01*
X189211441Y-96019016D01*
X189267737Y-96005500D01*
X191364218Y-96005500D01*
X191431257Y-96025185D01*
X191451899Y-96041819D01*
X192263181Y-96853101D01*
X192296666Y-96914424D01*
X192299500Y-96940782D01*
X192299500Y-99895145D01*
X192279815Y-99962184D01*
X192227011Y-100007939D01*
X192157853Y-100017883D01*
X192110406Y-100000685D01*
X192094131Y-99990647D01*
X192094119Y-99990641D01*
X191927697Y-99935494D01*
X191927690Y-99935493D01*
X191824986Y-99925000D01*
X191550000Y-99925000D01*
X191550000Y-100801000D01*
X191530315Y-100868039D01*
X191477511Y-100913794D01*
X191426000Y-100925000D01*
X191300000Y-100925000D01*
X191300000Y-101051000D01*
X191280315Y-101118039D01*
X191227511Y-101163794D01*
X191176000Y-101175000D01*
X190075001Y-101175000D01*
X190075001Y-101224986D01*
X190085494Y-101327697D01*
X190140641Y-101494119D01*
X190140643Y-101494124D01*
X190227785Y-101635403D01*
X190246225Y-101702796D01*
X190225302Y-101769459D01*
X190171660Y-101814229D01*
X190122246Y-101824500D01*
X188951458Y-101824500D01*
X188925063Y-101829750D01*
X188898668Y-101835001D01*
X188898667Y-101835001D01*
X188758167Y-101862947D01*
X188758159Y-101862950D01*
X188704834Y-101885037D01*
X188704834Y-101885038D01*
X188659315Y-101903892D01*
X188576089Y-101938366D01*
X188576079Y-101938371D01*
X188412219Y-102047859D01*
X188342540Y-102117538D01*
X188272861Y-102187218D01*
X188272858Y-102187221D01*
X187762221Y-102697858D01*
X187762218Y-102697861D01*
X187692538Y-102767540D01*
X187622859Y-102837219D01*
X187513371Y-103001079D01*
X187513364Y-103001092D01*
X187437950Y-103183160D01*
X187437947Y-103183170D01*
X187399500Y-103376456D01*
X187399500Y-103975500D01*
X187379815Y-104042539D01*
X187327011Y-104088294D01*
X187275500Y-104099500D01*
X183527227Y-104099500D01*
X183460188Y-104079815D01*
X183421689Y-104040597D01*
X183332714Y-103896347D01*
X183332711Y-103896343D01*
X183208657Y-103772289D01*
X183208656Y-103772288D01*
X183059335Y-103680186D01*
X182892798Y-103625001D01*
X182892796Y-103625000D01*
X182790017Y-103614500D01*
X182790010Y-103614500D01*
X179589990Y-103614500D01*
X179589982Y-103614500D01*
X179487203Y-103625000D01*
X179487202Y-103625001D01*
X179404669Y-103652349D01*
X179320667Y-103680185D01*
X179320662Y-103680187D01*
X179171342Y-103772289D01*
X179047289Y-103896342D01*
X178955187Y-104045662D01*
X178955186Y-104045665D01*
X178900001Y-104212202D01*
X178900001Y-104212203D01*
X178900000Y-104212203D01*
X178889500Y-104314982D01*
X178889500Y-105995017D01*
X178900000Y-106097796D01*
X178942682Y-106226602D01*
X178955186Y-106264335D01*
X179047288Y-106413656D01*
X179171344Y-106537712D01*
X179320665Y-106629814D01*
X179487202Y-106684999D01*
X179589990Y-106695500D01*
X179589995Y-106695500D01*
X182790005Y-106695500D01*
X182790010Y-106695500D01*
X182892798Y-106684999D01*
X183059335Y-106629814D01*
X183208656Y-106537712D01*
X183332712Y-106413656D01*
X183424814Y-106264335D01*
X183450939Y-106185494D01*
X183490712Y-106128051D01*
X183555228Y-106101228D01*
X183568645Y-106100500D01*
X187483438Y-106100500D01*
X187522441Y-106106794D01*
X187546766Y-106114854D01*
X187547203Y-106114999D01*
X187649991Y-106125500D01*
X189150008Y-106125499D01*
X189252797Y-106114999D01*
X189419334Y-106059814D01*
X189568656Y-105967712D01*
X189692712Y-105843656D01*
X189784814Y-105694334D01*
X189839999Y-105527797D01*
X189850500Y-105425009D01*
X189850499Y-104774992D01*
X189839999Y-104672203D01*
X189784814Y-104505666D01*
X189692712Y-104356344D01*
X189568656Y-104232288D01*
X189459402Y-104164900D01*
X189452578Y-104157313D01*
X189443297Y-104153075D01*
X189429608Y-104131775D01*
X189412679Y-104112953D01*
X189410034Y-104101317D01*
X189405523Y-104094297D01*
X189400500Y-104059362D01*
X189400500Y-103949500D01*
X189420185Y-103882461D01*
X189472989Y-103836706D01*
X189524500Y-103825500D01*
X191412975Y-103825500D01*
X191412983Y-103825499D01*
X191825002Y-103825499D01*
X191825008Y-103825499D01*
X191927797Y-103814999D01*
X192094334Y-103759814D01*
X192110404Y-103749901D01*
X192177795Y-103731462D01*
X192244459Y-103752384D01*
X192289229Y-103806026D01*
X192299500Y-103855441D01*
X192299500Y-106109217D01*
X192279815Y-106176256D01*
X192263181Y-106196898D01*
X191246899Y-107213181D01*
X191185576Y-107246666D01*
X191159218Y-107249500D01*
X189316562Y-107249500D01*
X189277559Y-107243206D01*
X189252799Y-107235001D01*
X189252795Y-107235000D01*
X189150010Y-107224500D01*
X187649998Y-107224500D01*
X187649981Y-107224501D01*
X187547203Y-107235000D01*
X187547200Y-107235001D01*
X187380668Y-107290185D01*
X187380663Y-107290187D01*
X187231342Y-107382289D01*
X187107289Y-107506342D01*
X187015187Y-107655663D01*
X187015185Y-107655668D01*
X187011414Y-107667048D01*
X186960001Y-107822203D01*
X186960001Y-107822204D01*
X186960000Y-107822204D01*
X186949500Y-107924983D01*
X186949500Y-108575001D01*
X186949501Y-108575019D01*
X186960000Y-108677796D01*
X186960001Y-108677799D01*
X187015185Y-108844331D01*
X187015186Y-108844334D01*
X187107288Y-108993656D01*
X187231344Y-109117712D01*
X187340597Y-109185099D01*
X187387321Y-109237047D01*
X187399500Y-109290638D01*
X187399500Y-110209218D01*
X187379815Y-110276257D01*
X187363181Y-110296899D01*
X186621899Y-111038181D01*
X186560576Y-111071666D01*
X186534218Y-111074500D01*
X183701454Y-111074500D01*
X183669391Y-111080876D01*
X183669392Y-111080877D01*
X183508170Y-111112946D01*
X183508164Y-111112948D01*
X183326088Y-111188366D01*
X183326079Y-111188371D01*
X183162219Y-111297859D01*
X183162215Y-111297862D01*
X182185163Y-112274916D01*
X181862220Y-112597859D01*
X181862218Y-112597861D01*
X181792538Y-112667540D01*
X181722859Y-112737219D01*
X181613371Y-112901079D01*
X181613364Y-112901092D01*
X181537950Y-113083160D01*
X181537947Y-113083170D01*
X181499500Y-113276456D01*
X181499500Y-116292796D01*
X181479815Y-116359835D01*
X181463181Y-116380477D01*
X181385588Y-116458069D01*
X181385588Y-116458070D01*
X181385586Y-116458072D01*
X181374456Y-116473391D01*
X181283768Y-116598211D01*
X181205128Y-116752552D01*
X181151597Y-116917302D01*
X181138621Y-116999231D01*
X181124500Y-117088389D01*
X181124500Y-117261611D01*
X181130262Y-117297989D01*
X181146591Y-117401092D01*
X181151598Y-117432701D01*
X181205127Y-117597445D01*
X181283768Y-117751788D01*
X181385586Y-117891928D01*
X181385588Y-117891930D01*
X181493491Y-117999833D01*
X181526976Y-118061156D01*
X181521992Y-118130848D01*
X181480120Y-118186781D01*
X181470907Y-118193053D01*
X181406654Y-118232684D01*
X181282684Y-118356654D01*
X181190643Y-118505875D01*
X181190641Y-118505880D01*
X181135494Y-118672302D01*
X181135493Y-118672309D01*
X181125000Y-118775013D01*
X181125000Y-118925000D01*
X182219670Y-118925000D01*
X182199925Y-118944745D01*
X182150556Y-119030255D01*
X182125000Y-119125630D01*
X182125000Y-119224370D01*
X182150556Y-119319745D01*
X182199925Y-119405255D01*
X182219670Y-119425000D01*
X181125001Y-119425000D01*
X181125001Y-119574986D01*
X181135494Y-119677697D01*
X181190641Y-119844119D01*
X181190643Y-119844124D01*
X181282684Y-119993345D01*
X181406654Y-120117315D01*
X181555875Y-120209356D01*
X181555880Y-120209358D01*
X181722302Y-120264505D01*
X181722309Y-120264506D01*
X181825019Y-120274999D01*
X182249999Y-120274999D01*
X182250000Y-120274998D01*
X182250000Y-119455330D01*
X182269745Y-119475075D01*
X182355255Y-119524444D01*
X182450630Y-119550000D01*
X182549370Y-119550000D01*
X182644745Y-119524444D01*
X182730255Y-119475075D01*
X182750000Y-119455330D01*
X182750000Y-120274999D01*
X183174972Y-120274999D01*
X183174986Y-120274998D01*
X183277697Y-120264505D01*
X183444119Y-120209358D01*
X183444124Y-120209356D01*
X183593345Y-120117315D01*
X183717315Y-119993345D01*
X183809356Y-119844124D01*
X183809358Y-119844119D01*
X183864505Y-119677697D01*
X183864506Y-119677690D01*
X183874999Y-119574986D01*
X183875000Y-119574973D01*
X183875000Y-119425000D01*
X182780330Y-119425000D01*
X182800075Y-119405255D01*
X182849444Y-119319745D01*
X182875000Y-119224370D01*
X182875000Y-119125630D01*
X182849444Y-119030255D01*
X182800075Y-118944745D01*
X182780330Y-118925000D01*
X183874999Y-118925000D01*
X183874999Y-118775028D01*
X183874998Y-118775013D01*
X183864505Y-118672302D01*
X183809358Y-118505880D01*
X183809356Y-118505875D01*
X183717315Y-118356654D01*
X183593343Y-118232682D01*
X183529093Y-118193053D01*
X183482368Y-118141105D01*
X183471145Y-118072143D01*
X183498988Y-118008061D01*
X183506486Y-117999855D01*
X183614414Y-117891928D01*
X183716232Y-117751788D01*
X183794873Y-117597445D01*
X183848402Y-117432701D01*
X183875500Y-117261611D01*
X183875500Y-117088389D01*
X183848402Y-116917299D01*
X183794873Y-116752555D01*
X183716232Y-116598212D01*
X183614414Y-116458072D01*
X183536819Y-116380477D01*
X183503334Y-116319154D01*
X183500500Y-116292796D01*
X183500500Y-113840782D01*
X183520185Y-113773743D01*
X183536819Y-113753101D01*
X184178102Y-113111819D01*
X184239425Y-113078334D01*
X184265783Y-113075500D01*
X187098542Y-113075500D01*
X187115793Y-113072068D01*
X187195188Y-113056275D01*
X187291836Y-113037051D01*
X187357345Y-113009916D01*
X187473914Y-112961632D01*
X187637782Y-112852139D01*
X187777139Y-112712782D01*
X187777140Y-112712780D01*
X187784206Y-112705714D01*
X187784209Y-112705710D01*
X189037778Y-111452141D01*
X189037782Y-111452139D01*
X189069923Y-111419998D01*
X191852704Y-111419998D01*
X191852705Y-111420000D01*
X193075000Y-111420000D01*
X193575000Y-111420000D01*
X194797295Y-111420000D01*
X194797295Y-111419998D01*
X194797100Y-111417513D01*
X194751281Y-111259801D01*
X194667685Y-111118447D01*
X194667678Y-111118438D01*
X194551561Y-111002321D01*
X194551552Y-111002314D01*
X194410196Y-110918717D01*
X194410193Y-110918716D01*
X194252495Y-110872900D01*
X194252489Y-110872899D01*
X194215649Y-110870000D01*
X193575000Y-110870000D01*
X193575000Y-111420000D01*
X193075000Y-111420000D01*
X193075000Y-110870000D01*
X192434350Y-110870000D01*
X192397510Y-110872899D01*
X192397504Y-110872900D01*
X192239806Y-110918716D01*
X192239803Y-110918717D01*
X192098447Y-111002314D01*
X192098438Y-111002321D01*
X191982321Y-111118438D01*
X191982314Y-111118447D01*
X191898718Y-111259801D01*
X191852899Y-111417513D01*
X191852704Y-111419998D01*
X189069923Y-111419998D01*
X189177139Y-111312782D01*
X189286632Y-111148914D01*
X189301530Y-111112948D01*
X189338502Y-111023687D01*
X189362051Y-110966835D01*
X189389888Y-110826890D01*
X189400500Y-110773543D01*
X189400500Y-109374500D01*
X189420185Y-109307461D01*
X189472989Y-109261706D01*
X189524500Y-109250500D01*
X191723543Y-109250500D01*
X191763990Y-109242454D01*
X191849223Y-109225500D01*
X191916836Y-109212051D01*
X191994416Y-109179916D01*
X192098914Y-109136632D01*
X192262782Y-109027139D01*
X192262781Y-109027139D01*
X192267847Y-109023755D01*
X192268867Y-109025282D01*
X192325255Y-109001334D01*
X192339610Y-109000500D01*
X193812770Y-109000500D01*
X193879809Y-109020185D01*
X193900451Y-109036819D01*
X195113181Y-110249548D01*
X195146666Y-110310871D01*
X195149500Y-110337229D01*
X195149500Y-113563769D01*
X195145557Y-113577194D01*
X195146437Y-113591158D01*
X195135909Y-113610054D01*
X195129815Y-113630808D01*
X195119241Y-113639969D01*
X195112431Y-113652194D01*
X195093356Y-113662399D01*
X195077011Y-113676563D01*
X195063162Y-113678554D01*
X195050825Y-113685155D01*
X195029263Y-113683428D01*
X195007853Y-113686507D01*
X194993719Y-113680582D01*
X194981179Y-113679578D01*
X194962647Y-113667556D01*
X194950347Y-113662400D01*
X194943713Y-113657345D01*
X194913416Y-113627048D01*
X194839729Y-113577813D01*
X194836529Y-113575675D01*
X194836524Y-113575671D01*
X194790492Y-113544913D01*
X194787829Y-113543490D01*
X194786695Y-113542376D01*
X194785430Y-113541531D01*
X194785590Y-113541290D01*
X194737986Y-113494527D01*
X194722526Y-113426390D01*
X194739551Y-113371014D01*
X194751744Y-113350398D01*
X194791126Y-113214846D01*
X194797597Y-113192573D01*
X194797598Y-113192567D01*
X194800500Y-113155694D01*
X194800500Y-112724306D01*
X194797598Y-112687431D01*
X194794142Y-112675536D01*
X194751745Y-112529606D01*
X194751744Y-112529603D01*
X194751744Y-112529602D01*
X194668081Y-112388135D01*
X194668078Y-112388132D01*
X194663298Y-112381969D01*
X194665635Y-112380155D01*
X194638798Y-112331050D01*
X194643756Y-112261356D01*
X194664554Y-112228998D01*
X194662903Y-112227717D01*
X194667686Y-112221550D01*
X194751281Y-112080198D01*
X194797100Y-111922486D01*
X194797295Y-111920001D01*
X194797295Y-111920000D01*
X191852705Y-111920000D01*
X191852704Y-111920001D01*
X191852899Y-111922486D01*
X191898718Y-112080199D01*
X191916073Y-112109545D01*
X191933254Y-112177269D01*
X191911094Y-112243531D01*
X191878231Y-112275766D01*
X191756584Y-112357048D01*
X191756580Y-112357051D01*
X191117049Y-112996581D01*
X191117048Y-112996583D01*
X191109921Y-113007250D01*
X191087983Y-113040084D01*
X191077165Y-113056275D01*
X191034914Y-113119507D01*
X190978343Y-113256082D01*
X190978340Y-113256092D01*
X190949500Y-113401079D01*
X190949500Y-113401082D01*
X190949500Y-127178918D01*
X190949500Y-127178920D01*
X190949499Y-127178920D01*
X190978340Y-127323907D01*
X190978343Y-127323917D01*
X191034914Y-127460492D01*
X191067812Y-127509727D01*
X191067813Y-127509730D01*
X191117046Y-127583414D01*
X191117052Y-127583421D01*
X194822753Y-131289120D01*
X196054502Y-132520869D01*
X196054503Y-132520870D01*
X196159037Y-132625404D01*
X196159039Y-132625406D01*
X196281952Y-132707534D01*
X196281965Y-132707541D01*
X196418536Y-132764110D01*
X196418541Y-132764112D01*
X196418545Y-132764112D01*
X196418546Y-132764113D01*
X196563533Y-132792954D01*
X196563536Y-132792954D01*
X201025501Y-132792954D01*
X201092540Y-132812639D01*
X201138295Y-132865443D01*
X201149501Y-132916954D01*
X201149501Y-133590330D01*
X201155908Y-133649937D01*
X201206202Y-133784782D01*
X201206206Y-133784789D01*
X201292452Y-133899998D01*
X201292455Y-133900001D01*
X201407664Y-133986247D01*
X201407671Y-133986251D01*
X201542517Y-134036545D01*
X201542516Y-134036545D01*
X201549444Y-134037289D01*
X201602127Y-134042954D01*
X204697872Y-134042953D01*
X204757483Y-134036545D01*
X204892331Y-133986250D01*
X205007546Y-133900000D01*
X205093796Y-133784785D01*
X205144091Y-133649937D01*
X205150500Y-133590327D01*
X205150500Y-132916954D01*
X205170185Y-132849915D01*
X205222989Y-132804160D01*
X205274500Y-132792954D01*
X206173920Y-132792954D01*
X206271462Y-132773550D01*
X206318913Y-132764112D01*
X206455495Y-132707538D01*
X206504729Y-132674640D01*
X206578416Y-132625406D01*
X206842003Y-132361819D01*
X206903326Y-132328334D01*
X206929684Y-132325500D01*
X212673920Y-132325500D01*
X212771462Y-132306096D01*
X212818913Y-132296658D01*
X212955495Y-132240084D01*
X213004729Y-132207186D01*
X213078416Y-132157952D01*
X214282952Y-130953416D01*
X214349818Y-130853342D01*
X214365084Y-130830495D01*
X214421658Y-130693913D01*
X214450500Y-130548918D01*
X214450500Y-125701082D01*
X214437454Y-125635495D01*
X214421659Y-125556088D01*
X214388518Y-125476080D01*
X214365084Y-125419505D01*
X214321260Y-125353917D01*
X214321260Y-125353916D01*
X214282950Y-125296581D01*
X213683421Y-124697052D01*
X213683414Y-124697046D01*
X213609729Y-124647812D01*
X213609729Y-124647813D01*
X213560491Y-124614913D01*
X213423917Y-124558343D01*
X213423907Y-124558340D01*
X213278920Y-124529500D01*
X213278918Y-124529500D01*
X212959679Y-124529500D01*
X212892640Y-124509815D01*
X212846885Y-124457011D01*
X212836941Y-124387853D01*
X212840603Y-124370905D01*
X212872099Y-124262494D01*
X212872100Y-124262488D01*
X212872295Y-124260001D01*
X212872295Y-124260000D01*
X211474000Y-124260000D01*
X211406961Y-124240315D01*
X211361206Y-124187511D01*
X211350000Y-124136000D01*
X211350000Y-124010000D01*
X211224000Y-124010000D01*
X211156961Y-123990315D01*
X211111206Y-123937511D01*
X211100000Y-123886000D01*
X211100000Y-123760000D01*
X211600000Y-123760000D01*
X212872295Y-123760000D01*
X212872295Y-123759998D01*
X212872100Y-123757513D01*
X212826281Y-123599801D01*
X212742685Y-123458447D01*
X212737900Y-123452278D01*
X212740252Y-123450453D01*
X212713445Y-123401405D01*
X212718402Y-123331712D01*
X212739465Y-123298936D01*
X212737900Y-123297722D01*
X212742685Y-123291552D01*
X212826281Y-123150198D01*
X212872100Y-122992486D01*
X212872295Y-122990001D01*
X212872295Y-122990000D01*
X211600000Y-122990000D01*
X211600000Y-123760000D01*
X211100000Y-123760000D01*
X211100000Y-122490000D01*
X211600000Y-122490000D01*
X212872295Y-122490000D01*
X212872295Y-122489998D01*
X212872100Y-122487513D01*
X212826281Y-122329801D01*
X212742685Y-122188447D01*
X212737900Y-122182278D01*
X212740252Y-122180453D01*
X212713445Y-122131405D01*
X212718402Y-122061712D01*
X212739465Y-122028936D01*
X212737900Y-122027722D01*
X212742685Y-122021552D01*
X212826281Y-121880198D01*
X212872100Y-121722486D01*
X212872295Y-121720001D01*
X212872295Y-121720000D01*
X211600000Y-121720000D01*
X211600000Y-122490000D01*
X211100000Y-122490000D01*
X211100000Y-121220000D01*
X211600000Y-121220000D01*
X212872295Y-121220000D01*
X212872295Y-121219998D01*
X212872100Y-121217513D01*
X212826281Y-121059801D01*
X212742685Y-120918447D01*
X212737900Y-120912278D01*
X212740252Y-120910453D01*
X212713445Y-120861405D01*
X212718402Y-120791712D01*
X212739465Y-120758936D01*
X212737900Y-120757722D01*
X212742685Y-120751552D01*
X212826281Y-120610198D01*
X212872100Y-120452486D01*
X212872295Y-120450001D01*
X212872295Y-120450000D01*
X211600000Y-120450000D01*
X211600000Y-121220000D01*
X211100000Y-121220000D01*
X211100000Y-119950000D01*
X211600000Y-119950000D01*
X212872295Y-119950000D01*
X212872295Y-119949998D01*
X212872100Y-119947513D01*
X212826281Y-119789801D01*
X212742685Y-119648447D01*
X212737900Y-119642278D01*
X212740252Y-119640453D01*
X212713445Y-119591405D01*
X212718402Y-119521712D01*
X212739465Y-119488936D01*
X212737900Y-119487722D01*
X212742685Y-119481552D01*
X212826281Y-119340198D01*
X212872100Y-119182486D01*
X212872295Y-119180001D01*
X212872295Y-119180000D01*
X211600000Y-119180000D01*
X211600000Y-119950000D01*
X211100000Y-119950000D01*
X211100000Y-118680000D01*
X211600000Y-118680000D01*
X212872295Y-118680000D01*
X212872295Y-118679998D01*
X212872100Y-118677513D01*
X212826281Y-118519801D01*
X212742685Y-118378447D01*
X212742678Y-118378438D01*
X212626561Y-118262321D01*
X212626552Y-118262314D01*
X212485196Y-118178717D01*
X212485193Y-118178716D01*
X212327495Y-118132900D01*
X212327489Y-118132899D01*
X212290649Y-118130000D01*
X211600000Y-118130000D01*
X211600000Y-118680000D01*
X211100000Y-118680000D01*
X211100000Y-118130000D01*
X210409350Y-118130000D01*
X210372510Y-118132899D01*
X210372504Y-118132900D01*
X210214806Y-118178716D01*
X210214803Y-118178717D01*
X210073447Y-118262314D01*
X210073438Y-118262321D01*
X209962181Y-118373579D01*
X209900858Y-118407064D01*
X209831166Y-118402080D01*
X209775233Y-118360208D01*
X209750816Y-118294744D01*
X209750500Y-118285898D01*
X209750500Y-116828138D01*
X209770185Y-116761099D01*
X209809401Y-116722600D01*
X209918656Y-116655212D01*
X210042712Y-116531156D01*
X210134814Y-116381834D01*
X210189999Y-116215297D01*
X210200500Y-116112509D01*
X210200499Y-115487492D01*
X210189999Y-115384703D01*
X210134814Y-115218166D01*
X210042712Y-115068844D01*
X209949049Y-114975181D01*
X209915564Y-114913858D01*
X209920548Y-114844166D01*
X209949049Y-114799819D01*
X210042712Y-114706156D01*
X210134814Y-114556834D01*
X210189999Y-114390297D01*
X210200500Y-114287509D01*
X210200499Y-113662492D01*
X210200489Y-113662399D01*
X210189999Y-113559703D01*
X210189998Y-113559700D01*
X210185098Y-113544913D01*
X210134814Y-113393166D01*
X210042712Y-113243844D01*
X209918656Y-113119788D01*
X209809402Y-113052400D01*
X209762679Y-113000453D01*
X209750500Y-112946862D01*
X209750500Y-98337228D01*
X209770185Y-98270189D01*
X209786814Y-98249552D01*
X212145942Y-95890423D01*
X212207263Y-95856940D01*
X212276955Y-95861924D01*
X212306506Y-95877788D01*
X212391699Y-95939684D01*
X212400712Y-95946232D01*
X212555055Y-96024873D01*
X212719799Y-96078402D01*
X212890889Y-96105500D01*
X212890890Y-96105500D01*
X213864110Y-96105500D01*
X213864111Y-96105500D01*
X214035201Y-96078402D01*
X214199945Y-96024873D01*
X214354288Y-95946232D01*
X214494428Y-95844414D01*
X214616914Y-95721928D01*
X214718732Y-95581788D01*
X214797373Y-95427445D01*
X214850902Y-95262701D01*
X214878000Y-95091611D01*
X214878000Y-94918389D01*
X214850902Y-94747299D01*
X214797373Y-94582555D01*
X214718732Y-94428212D01*
X214616914Y-94288072D01*
X214494428Y-94165586D01*
X214354288Y-94063768D01*
X214303061Y-94037667D01*
X214199947Y-93985128D01*
X214199946Y-93985127D01*
X214199945Y-93985127D01*
X214035201Y-93931598D01*
X214035199Y-93931597D01*
X214035198Y-93931597D01*
X213903771Y-93910781D01*
X213864111Y-93904500D01*
X212890889Y-93904500D01*
X212851228Y-93910781D01*
X212719802Y-93931597D01*
X212555052Y-93985128D01*
X212400711Y-94063768D01*
X212320756Y-94121859D01*
X212260572Y-94165586D01*
X212260570Y-94165588D01*
X212260569Y-94165588D01*
X212207977Y-94218181D01*
X212146654Y-94251666D01*
X212120296Y-94254500D01*
X210092229Y-94254500D01*
X210025190Y-94234815D01*
X210004548Y-94218181D01*
X209409175Y-93622807D01*
X209375690Y-93561484D01*
X209375262Y-93559432D01*
X209365894Y-93512334D01*
X209313484Y-93385804D01*
X209298016Y-93348459D01*
X209298009Y-93348446D01*
X209199464Y-93200965D01*
X209199461Y-93200961D01*
X209074038Y-93075538D01*
X209074034Y-93075535D01*
X208926553Y-92976990D01*
X208926540Y-92976983D01*
X208762667Y-92909106D01*
X208762658Y-92909103D01*
X208588694Y-92874500D01*
X208588691Y-92874500D01*
X208411309Y-92874500D01*
X208411306Y-92874500D01*
X208237341Y-92909103D01*
X208237332Y-92909106D01*
X208073459Y-92976983D01*
X208073450Y-92976988D01*
X208033779Y-93003495D01*
X207967101Y-93024371D01*
X207899721Y-93005885D01*
X207853032Y-92953905D01*
X207841857Y-92884935D01*
X207869744Y-92820872D01*
X207877195Y-92812724D01*
X208494921Y-92194999D01*
X211903384Y-92194999D01*
X211903385Y-92195000D01*
X213061814Y-92195000D01*
X213057420Y-92199394D01*
X213004759Y-92290606D01*
X212977500Y-92392339D01*
X212977500Y-92497661D01*
X213004759Y-92599394D01*
X213057420Y-92690606D01*
X213061814Y-92695000D01*
X211903385Y-92695000D01*
X211904585Y-92702584D01*
X211958091Y-92867255D01*
X212036695Y-93021524D01*
X212138467Y-93161602D01*
X212260897Y-93284032D01*
X212400975Y-93385804D01*
X212555242Y-93464408D01*
X212719915Y-93517914D01*
X212890929Y-93545000D01*
X213127500Y-93545000D01*
X213127500Y-92760686D01*
X213131894Y-92765080D01*
X213223106Y-92817741D01*
X213324839Y-92845000D01*
X213430161Y-92845000D01*
X213531894Y-92817741D01*
X213623106Y-92765080D01*
X213627500Y-92760686D01*
X213627500Y-93545000D01*
X213864071Y-93545000D01*
X214035084Y-93517914D01*
X214199757Y-93464408D01*
X214354024Y-93385804D01*
X214494102Y-93284032D01*
X214616532Y-93161602D01*
X214718304Y-93021524D01*
X214796908Y-92867255D01*
X214850414Y-92702584D01*
X214851615Y-92695000D01*
X213693186Y-92695000D01*
X213697580Y-92690606D01*
X213750241Y-92599394D01*
X213777500Y-92497661D01*
X213777500Y-92392339D01*
X213750241Y-92290606D01*
X213697580Y-92199394D01*
X213693186Y-92195000D01*
X214851615Y-92195000D01*
X214851615Y-92194999D01*
X214850414Y-92187415D01*
X214796908Y-92022744D01*
X214718304Y-91868475D01*
X214616532Y-91728397D01*
X214494102Y-91605967D01*
X214354024Y-91504195D01*
X214199757Y-91425591D01*
X214035084Y-91372085D01*
X213864071Y-91345000D01*
X213627500Y-91345000D01*
X213627500Y-92129314D01*
X213623106Y-92124920D01*
X213531894Y-92072259D01*
X213430161Y-92045000D01*
X213324839Y-92045000D01*
X213223106Y-92072259D01*
X213131894Y-92124920D01*
X213127500Y-92129314D01*
X213127500Y-91345000D01*
X212890929Y-91345000D01*
X212719915Y-91372085D01*
X212555242Y-91425591D01*
X212400975Y-91504195D01*
X212260897Y-91605967D01*
X212138467Y-91728397D01*
X212036695Y-91868475D01*
X211958091Y-92022744D01*
X211904585Y-92187415D01*
X211903384Y-92194999D01*
X208494921Y-92194999D01*
X209512140Y-91177781D01*
X209621632Y-91013914D01*
X209697052Y-90831835D01*
X209735501Y-90638540D01*
X209735501Y-90441459D01*
X209735501Y-90436349D01*
X209735500Y-90436323D01*
X209735500Y-90054071D01*
X212651999Y-90054071D01*
X212676997Y-90179738D01*
X212676999Y-90179744D01*
X212726033Y-90298124D01*
X212726038Y-90298133D01*
X212797223Y-90404668D01*
X212797226Y-90404672D01*
X212887827Y-90495273D01*
X212887831Y-90495276D01*
X212994366Y-90566461D01*
X212994375Y-90566466D01*
X213021192Y-90577574D01*
X213112756Y-90615501D01*
X213112760Y-90615501D01*
X213112761Y-90615502D01*
X213238428Y-90640500D01*
X213238431Y-90640500D01*
X213366571Y-90640500D01*
X213451115Y-90623682D01*
X213492244Y-90615501D01*
X213610627Y-90566465D01*
X213717169Y-90495276D01*
X213807776Y-90404669D01*
X213878965Y-90298127D01*
X213928001Y-90179744D01*
X213944544Y-90096578D01*
X213953000Y-90054071D01*
X213953000Y-89925928D01*
X213928002Y-89800261D01*
X213928001Y-89800260D01*
X213928001Y-89800256D01*
X213878965Y-89681873D01*
X213878964Y-89681872D01*
X213878961Y-89681866D01*
X213807776Y-89575331D01*
X213807773Y-89575327D01*
X213717172Y-89484726D01*
X213717168Y-89484723D01*
X213610633Y-89413538D01*
X213610624Y-89413533D01*
X213492244Y-89364499D01*
X213492238Y-89364497D01*
X213366571Y-89339500D01*
X213366569Y-89339500D01*
X213238431Y-89339500D01*
X213238429Y-89339500D01*
X213112761Y-89364497D01*
X213112755Y-89364499D01*
X212994375Y-89413533D01*
X212994366Y-89413538D01*
X212887831Y-89484723D01*
X212887827Y-89484726D01*
X212797226Y-89575327D01*
X212797223Y-89575331D01*
X212726038Y-89681866D01*
X212726033Y-89681875D01*
X212676999Y-89800255D01*
X212676997Y-89800261D01*
X212652000Y-89925928D01*
X212652000Y-89925931D01*
X212652000Y-90054069D01*
X212652000Y-90054071D01*
X212651999Y-90054071D01*
X209735500Y-90054071D01*
X209735500Y-87494071D01*
X212676999Y-87494071D01*
X212701997Y-87619738D01*
X212701999Y-87619744D01*
X212751033Y-87738124D01*
X212751038Y-87738133D01*
X212822223Y-87844668D01*
X212822226Y-87844672D01*
X212912827Y-87935273D01*
X212912831Y-87935276D01*
X213019366Y-88006461D01*
X213019372Y-88006464D01*
X213019373Y-88006465D01*
X213137756Y-88055501D01*
X213137760Y-88055501D01*
X213137761Y-88055502D01*
X213263428Y-88080500D01*
X213263431Y-88080500D01*
X213391571Y-88080500D01*
X213476115Y-88063682D01*
X213517244Y-88055501D01*
X213635627Y-88006465D01*
X213742169Y-87935276D01*
X213832776Y-87844669D01*
X213903965Y-87738127D01*
X213953001Y-87619744D01*
X213973356Y-87517415D01*
X213978000Y-87494071D01*
X213978000Y-87365928D01*
X213953002Y-87240261D01*
X213953001Y-87240260D01*
X213953001Y-87240256D01*
X213903965Y-87121873D01*
X213903964Y-87121872D01*
X213903961Y-87121866D01*
X213832776Y-87015331D01*
X213832773Y-87015327D01*
X213742172Y-86924726D01*
X213742168Y-86924723D01*
X213635633Y-86853538D01*
X213635624Y-86853533D01*
X213517244Y-86804499D01*
X213517238Y-86804497D01*
X213391571Y-86779500D01*
X213391569Y-86779500D01*
X213263431Y-86779500D01*
X213263429Y-86779500D01*
X213137761Y-86804497D01*
X213137755Y-86804499D01*
X213019375Y-86853533D01*
X213019366Y-86853538D01*
X212912831Y-86924723D01*
X212912827Y-86924726D01*
X212822226Y-87015327D01*
X212822223Y-87015331D01*
X212751038Y-87121866D01*
X212751033Y-87121875D01*
X212701999Y-87240255D01*
X212701997Y-87240261D01*
X212677000Y-87365928D01*
X212677000Y-87365931D01*
X212677000Y-87494069D01*
X212677000Y-87494071D01*
X212676999Y-87494071D01*
X209735500Y-87494071D01*
X209735500Y-86535782D01*
X209755185Y-86468743D01*
X209771819Y-86448101D01*
X211593102Y-84626819D01*
X211654425Y-84593334D01*
X211680783Y-84590500D01*
X212595747Y-84590500D01*
X212662786Y-84610185D01*
X212708541Y-84662989D01*
X212718485Y-84732147D01*
X212717364Y-84738692D01*
X212702000Y-84815928D01*
X212702000Y-84815931D01*
X212702000Y-84944069D01*
X212702000Y-84944071D01*
X212701999Y-84944071D01*
X212726997Y-85069738D01*
X212726999Y-85069744D01*
X212776033Y-85188124D01*
X212776038Y-85188133D01*
X212847223Y-85294668D01*
X212847226Y-85294672D01*
X212937827Y-85385273D01*
X212937831Y-85385276D01*
X213044366Y-85456461D01*
X213044372Y-85456464D01*
X213044373Y-85456465D01*
X213162756Y-85505501D01*
X213162760Y-85505501D01*
X213162761Y-85505502D01*
X213288428Y-85530500D01*
X213288431Y-85530500D01*
X213416571Y-85530500D01*
X213501115Y-85513682D01*
X213542244Y-85505501D01*
X213660627Y-85456465D01*
X213767169Y-85385276D01*
X213857776Y-85294669D01*
X213928965Y-85188127D01*
X213978001Y-85069744D01*
X214001473Y-84951745D01*
X214003000Y-84944071D01*
X214003000Y-84815928D01*
X213987636Y-84738692D01*
X213993863Y-84669101D01*
X214036725Y-84613923D01*
X214102615Y-84590678D01*
X214109253Y-84590500D01*
X215783543Y-84590500D01*
X215816721Y-84583899D01*
X215902507Y-84566836D01*
X215976836Y-84552051D01*
X216040935Y-84525500D01*
X216158914Y-84476632D01*
X216322782Y-84367139D01*
X216462139Y-84227782D01*
X216462139Y-84227780D01*
X216472347Y-84217573D01*
X216472348Y-84217570D01*
X217006713Y-83683206D01*
X217068035Y-83649722D01*
X217137727Y-83654706D01*
X217193660Y-83696578D01*
X217216010Y-83746696D01*
X217234104Y-83837659D01*
X217234106Y-83837667D01*
X217301983Y-84001540D01*
X217301990Y-84001553D01*
X217400535Y-84149034D01*
X217400538Y-84149038D01*
X217525961Y-84274461D01*
X217525965Y-84274464D01*
X217673446Y-84373009D01*
X217673459Y-84373016D01*
X217776495Y-84415694D01*
X217837334Y-84440894D01*
X217837336Y-84440894D01*
X217837341Y-84440896D01*
X218011304Y-84475499D01*
X218011307Y-84475500D01*
X218011309Y-84475500D01*
X218188693Y-84475500D01*
X218188694Y-84475499D01*
X218246682Y-84463964D01*
X218362658Y-84440896D01*
X218362661Y-84440894D01*
X218362666Y-84440894D01*
X218526547Y-84373013D01*
X218536607Y-84366290D01*
X218603284Y-84345412D01*
X218670665Y-84363895D01*
X218717356Y-84415873D01*
X218729500Y-84469392D01*
X218729500Y-90951000D01*
X218709815Y-91018039D01*
X218657011Y-91063794D01*
X218605500Y-91075000D01*
X216399999Y-91075000D01*
X216300000Y-91174999D01*
X216300000Y-103123638D01*
X216291355Y-103153078D01*
X216284832Y-103183065D01*
X216281077Y-103188080D01*
X216280315Y-103190677D01*
X216263681Y-103211319D01*
X216136319Y-103338681D01*
X216074996Y-103372166D01*
X216048638Y-103375000D01*
X213199999Y-103375000D01*
X213100000Y-103474999D01*
X213100000Y-103475000D01*
X213100000Y-114275000D01*
X216076000Y-114275000D01*
X216143039Y-114294685D01*
X216188794Y-114347489D01*
X216200000Y-114399000D01*
X216200000Y-134950500D01*
X216180315Y-135017539D01*
X216127511Y-135063294D01*
X216076000Y-135074500D01*
X176524500Y-135074500D01*
X176457461Y-135054815D01*
X176411706Y-135002011D01*
X176400500Y-134950500D01*
X176400500Y-131530528D01*
X187999500Y-131530528D01*
X187999500Y-131839471D01*
X188034086Y-132146437D01*
X188034089Y-132146455D01*
X188102831Y-132447635D01*
X188102835Y-132447647D01*
X188204862Y-132739222D01*
X188204868Y-132739236D01*
X188338903Y-133017562D01*
X188338905Y-133017565D01*
X188503265Y-133279143D01*
X188695880Y-133520674D01*
X188914326Y-133739120D01*
X189155857Y-133931735D01*
X189417435Y-134096095D01*
X189695771Y-134230135D01*
X189695777Y-134230137D01*
X189987352Y-134332164D01*
X189987364Y-134332168D01*
X190288548Y-134400911D01*
X190288554Y-134400911D01*
X190288562Y-134400913D01*
X190493206Y-134423970D01*
X190595529Y-134435499D01*
X190595532Y-134435500D01*
X190595535Y-134435500D01*
X190904468Y-134435500D01*
X190904469Y-134435499D01*
X191061356Y-134417822D01*
X191211437Y-134400913D01*
X191211442Y-134400912D01*
X191211452Y-134400911D01*
X191512636Y-134332168D01*
X191804229Y-134230135D01*
X192082565Y-134096095D01*
X192344143Y-133931735D01*
X192585674Y-133739120D01*
X192804120Y-133520674D01*
X192996735Y-133279143D01*
X193161095Y-133017565D01*
X193295135Y-132739229D01*
X193397168Y-132447636D01*
X193465911Y-132146452D01*
X193500500Y-131839465D01*
X193500500Y-131530535D01*
X193488970Y-131428206D01*
X193465913Y-131223562D01*
X193465910Y-131223544D01*
X193397168Y-130922364D01*
X193397164Y-130922352D01*
X193295137Y-130630777D01*
X193295135Y-130630771D01*
X193161095Y-130352435D01*
X192996735Y-130090857D01*
X192804120Y-129849326D01*
X192585674Y-129630880D01*
X192344143Y-129438265D01*
X192082565Y-129273905D01*
X192082562Y-129273903D01*
X191804236Y-129139868D01*
X191804222Y-129139862D01*
X191512647Y-129037835D01*
X191512635Y-129037831D01*
X191211455Y-128969089D01*
X191211437Y-128969086D01*
X190904471Y-128934500D01*
X190904465Y-128934500D01*
X190595535Y-128934500D01*
X190595528Y-128934500D01*
X190288562Y-128969086D01*
X190288544Y-128969089D01*
X189987364Y-129037831D01*
X189987352Y-129037835D01*
X189695777Y-129139862D01*
X189695763Y-129139868D01*
X189417437Y-129273903D01*
X189155858Y-129438264D01*
X188914326Y-129630879D01*
X188695879Y-129849326D01*
X188503264Y-130090858D01*
X188338903Y-130352437D01*
X188204868Y-130630763D01*
X188204862Y-130630777D01*
X188102835Y-130922352D01*
X188102831Y-130922364D01*
X188034089Y-131223544D01*
X188034086Y-131223562D01*
X187999500Y-131530528D01*
X176400500Y-131530528D01*
X176400500Y-99953754D01*
X178889500Y-99953754D01*
X178889500Y-100196245D01*
X178927432Y-100435736D01*
X179002360Y-100666344D01*
X179002362Y-100666347D01*
X179102083Y-100862060D01*
X179112448Y-100882401D01*
X179254966Y-101078562D01*
X179254970Y-101078567D01*
X179426432Y-101250029D01*
X179426437Y-101250033D01*
X179597539Y-101374345D01*
X179622602Y-101392554D01*
X179838653Y-101502638D01*
X179838655Y-101502639D01*
X179953959Y-101540103D01*
X180069265Y-101577568D01*
X180180186Y-101595136D01*
X180308755Y-101615500D01*
X180308760Y-101615500D01*
X182071245Y-101615500D01*
X182187347Y-101597110D01*
X182310735Y-101577568D01*
X182541347Y-101502638D01*
X182757398Y-101392554D01*
X182953569Y-101250028D01*
X183125028Y-101078569D01*
X183243957Y-100914877D01*
X183270418Y-100878457D01*
X183271875Y-100879515D01*
X183317959Y-100837830D01*
X183371865Y-100825500D01*
X184526082Y-100825500D01*
X184673918Y-100825500D01*
X185091307Y-100825500D01*
X185158346Y-100845185D01*
X185166225Y-100850691D01*
X185177658Y-100859361D01*
X185318436Y-100914877D01*
X185406898Y-100925500D01*
X185406903Y-100925500D01*
X185793097Y-100925500D01*
X185793102Y-100925500D01*
X185881564Y-100914877D01*
X185905191Y-100905559D01*
X185974773Y-100899276D01*
X185996172Y-100905559D01*
X186018555Y-100914386D01*
X186100000Y-100924165D01*
X186100000Y-100862060D01*
X186119685Y-100795021D01*
X186138114Y-100775118D01*
X186136920Y-100773924D01*
X186142913Y-100767928D01*
X186142922Y-100767922D01*
X186234361Y-100647342D01*
X186260645Y-100580689D01*
X186303551Y-100525545D01*
X186369459Y-100502352D01*
X186437443Y-100518472D01*
X186485920Y-100568789D01*
X186500000Y-100626179D01*
X186500000Y-100924165D01*
X186581442Y-100914386D01*
X186722095Y-100858920D01*
X186842564Y-100767564D01*
X186933920Y-100647095D01*
X186942628Y-100625013D01*
X190075000Y-100625013D01*
X190075000Y-100675000D01*
X191050000Y-100675000D01*
X191050000Y-99925000D01*
X190775029Y-99925000D01*
X190775012Y-99925001D01*
X190672302Y-99935494D01*
X190505880Y-99990641D01*
X190505875Y-99990643D01*
X190356654Y-100082684D01*
X190232684Y-100206654D01*
X190140643Y-100355875D01*
X190140641Y-100355880D01*
X190085494Y-100522302D01*
X190085493Y-100522309D01*
X190075000Y-100625013D01*
X186942628Y-100625013D01*
X186961809Y-100576374D01*
X186989386Y-100506443D01*
X187000000Y-100418053D01*
X187000000Y-100275000D01*
X186474500Y-100275000D01*
X186465814Y-100272449D01*
X186456853Y-100273738D01*
X186432812Y-100262759D01*
X186407461Y-100255315D01*
X186401533Y-100248474D01*
X186393297Y-100244713D01*
X186379007Y-100222478D01*
X186361706Y-100202511D01*
X186359418Y-100191996D01*
X186355523Y-100185935D01*
X186350500Y-100151000D01*
X186350500Y-99999000D01*
X186370185Y-99931961D01*
X186422989Y-99886206D01*
X186474500Y-99875000D01*
X187000000Y-99875000D01*
X187000000Y-99731946D01*
X186989386Y-99643556D01*
X186933920Y-99502904D01*
X186842564Y-99382435D01*
X186722095Y-99291079D01*
X186581443Y-99235613D01*
X186500000Y-99225832D01*
X186500000Y-99523820D01*
X186480315Y-99590859D01*
X186427511Y-99636614D01*
X186358353Y-99646558D01*
X186294797Y-99617533D01*
X186260646Y-99569310D01*
X186234362Y-99502660D01*
X186234361Y-99502658D01*
X186142920Y-99382075D01*
X186136925Y-99376080D01*
X186139374Y-99373630D01*
X186107531Y-99330495D01*
X186100000Y-99287939D01*
X186100000Y-99225832D01*
X186018558Y-99235613D01*
X186018550Y-99235615D01*
X185996170Y-99244441D01*
X185926583Y-99250722D01*
X185905193Y-99244441D01*
X185881563Y-99235122D01*
X185828978Y-99228808D01*
X185793102Y-99224500D01*
X185474500Y-99224500D01*
X185407461Y-99204815D01*
X185361706Y-99152011D01*
X185350500Y-99100500D01*
X185350500Y-92194999D01*
X186903384Y-92194999D01*
X186903385Y-92195000D01*
X188061814Y-92195000D01*
X188057420Y-92199394D01*
X188004759Y-92290606D01*
X187977500Y-92392339D01*
X187977500Y-92497661D01*
X188004759Y-92599394D01*
X188057420Y-92690606D01*
X188061814Y-92695000D01*
X186903385Y-92695000D01*
X186904585Y-92702584D01*
X186958091Y-92867255D01*
X187036695Y-93021524D01*
X187138467Y-93161602D01*
X187260897Y-93284032D01*
X187400975Y-93385804D01*
X187555242Y-93464408D01*
X187719915Y-93517914D01*
X187890929Y-93545000D01*
X188127500Y-93545000D01*
X188127500Y-92760686D01*
X188131894Y-92765080D01*
X188223106Y-92817741D01*
X188324839Y-92845000D01*
X188430161Y-92845000D01*
X188531894Y-92817741D01*
X188623106Y-92765080D01*
X188627500Y-92760686D01*
X188627500Y-93545000D01*
X188864071Y-93545000D01*
X189035084Y-93517914D01*
X189199757Y-93464408D01*
X189354024Y-93385804D01*
X189494102Y-93284032D01*
X189616532Y-93161602D01*
X189718304Y-93021524D01*
X189796908Y-92867255D01*
X189850414Y-92702584D01*
X189851615Y-92695000D01*
X188693186Y-92695000D01*
X188697580Y-92690606D01*
X188750241Y-92599394D01*
X188777500Y-92497661D01*
X188777500Y-92392339D01*
X188750241Y-92290606D01*
X188697580Y-92199394D01*
X188693186Y-92195000D01*
X189851615Y-92195000D01*
X189851615Y-92194999D01*
X189850414Y-92187415D01*
X189796908Y-92022744D01*
X189718304Y-91868475D01*
X189616532Y-91728397D01*
X189494102Y-91605967D01*
X189354024Y-91504195D01*
X189199757Y-91425591D01*
X189035084Y-91372085D01*
X188864071Y-91345000D01*
X188627500Y-91345000D01*
X188627500Y-92129314D01*
X188623106Y-92124920D01*
X188531894Y-92072259D01*
X188430161Y-92045000D01*
X188324839Y-92045000D01*
X188223106Y-92072259D01*
X188131894Y-92124920D01*
X188127500Y-92129314D01*
X188127500Y-91345000D01*
X187890929Y-91345000D01*
X187719915Y-91372085D01*
X187555242Y-91425591D01*
X187400975Y-91504195D01*
X187260897Y-91605967D01*
X187138467Y-91728397D01*
X187036695Y-91868475D01*
X186958091Y-92022744D01*
X186904585Y-92187415D01*
X186903384Y-92194999D01*
X185350500Y-92194999D01*
X185350500Y-90115638D01*
X185370185Y-90048599D01*
X185400263Y-90019071D01*
X187676999Y-90019071D01*
X187701997Y-90144738D01*
X187701999Y-90144744D01*
X187751033Y-90263124D01*
X187751038Y-90263133D01*
X187822223Y-90369668D01*
X187822226Y-90369672D01*
X187912827Y-90460273D01*
X187912831Y-90460276D01*
X188019366Y-90531461D01*
X188019372Y-90531464D01*
X188019373Y-90531465D01*
X188137756Y-90580501D01*
X188137760Y-90580501D01*
X188137761Y-90580502D01*
X188263428Y-90605500D01*
X188263431Y-90605500D01*
X188391571Y-90605500D01*
X188476115Y-90588682D01*
X188517244Y-90580501D01*
X188635627Y-90531465D01*
X188742169Y-90460276D01*
X188832776Y-90369669D01*
X188903965Y-90263127D01*
X188953001Y-90144744D01*
X188962581Y-90096584D01*
X188978000Y-90019071D01*
X188978000Y-89890928D01*
X188953002Y-89765261D01*
X188953001Y-89765260D01*
X188953001Y-89765256D01*
X188903965Y-89646873D01*
X188903964Y-89646872D01*
X188903961Y-89646866D01*
X188832776Y-89540331D01*
X188832773Y-89540327D01*
X188742172Y-89449726D01*
X188742168Y-89449723D01*
X188635633Y-89378538D01*
X188635624Y-89378533D01*
X188517244Y-89329499D01*
X188517238Y-89329497D01*
X188391571Y-89304500D01*
X188391569Y-89304500D01*
X188263431Y-89304500D01*
X188263429Y-89304500D01*
X188137761Y-89329497D01*
X188137755Y-89329499D01*
X188019375Y-89378533D01*
X188019366Y-89378538D01*
X187912831Y-89449723D01*
X187912827Y-89449726D01*
X187822226Y-89540327D01*
X187822223Y-89540331D01*
X187751038Y-89646866D01*
X187751033Y-89646875D01*
X187701999Y-89765255D01*
X187701997Y-89765261D01*
X187677000Y-89890928D01*
X187677000Y-89890931D01*
X187677000Y-90019069D01*
X187677000Y-90019071D01*
X187676999Y-90019071D01*
X185400263Y-90019071D01*
X185409401Y-90010100D01*
X185518656Y-89942712D01*
X185642712Y-89818656D01*
X185734814Y-89669334D01*
X185789999Y-89502797D01*
X185800500Y-89400009D01*
X185800499Y-88774992D01*
X185789999Y-88672203D01*
X185734814Y-88505666D01*
X185642712Y-88356344D01*
X185549049Y-88262681D01*
X185515564Y-88201358D01*
X185520548Y-88131666D01*
X185549049Y-88087319D01*
X185581812Y-88054556D01*
X185642712Y-87993656D01*
X185734814Y-87844334D01*
X185789999Y-87677797D01*
X185800500Y-87575009D01*
X185800500Y-87494071D01*
X187651999Y-87494071D01*
X187676997Y-87619738D01*
X187676999Y-87619744D01*
X187726033Y-87738124D01*
X187726038Y-87738133D01*
X187797223Y-87844668D01*
X187797226Y-87844672D01*
X187887827Y-87935273D01*
X187887831Y-87935276D01*
X187994366Y-88006461D01*
X187994372Y-88006464D01*
X187994373Y-88006465D01*
X188112756Y-88055501D01*
X188112760Y-88055501D01*
X188112761Y-88055502D01*
X188238428Y-88080500D01*
X188238431Y-88080500D01*
X188366571Y-88080500D01*
X188451115Y-88063682D01*
X188492244Y-88055501D01*
X188610627Y-88006465D01*
X188717169Y-87935276D01*
X188807776Y-87844669D01*
X188878965Y-87738127D01*
X188928001Y-87619744D01*
X188948356Y-87517415D01*
X188953000Y-87494071D01*
X188953000Y-87365928D01*
X188928002Y-87240261D01*
X188928001Y-87240260D01*
X188928001Y-87240256D01*
X188878965Y-87121873D01*
X188878964Y-87121872D01*
X188878961Y-87121866D01*
X188807776Y-87015331D01*
X188807773Y-87015327D01*
X188717172Y-86924726D01*
X188717168Y-86924723D01*
X188610633Y-86853538D01*
X188610624Y-86853533D01*
X188492244Y-86804499D01*
X188492238Y-86804497D01*
X188366571Y-86779500D01*
X188366569Y-86779500D01*
X188238431Y-86779500D01*
X188238429Y-86779500D01*
X188112761Y-86804497D01*
X188112755Y-86804499D01*
X187994375Y-86853533D01*
X187994366Y-86853538D01*
X187887831Y-86924723D01*
X187887827Y-86924726D01*
X187797226Y-87015327D01*
X187797223Y-87015331D01*
X187726038Y-87121866D01*
X187726033Y-87121875D01*
X187676999Y-87240255D01*
X187676997Y-87240261D01*
X187652000Y-87365928D01*
X187652000Y-87365931D01*
X187652000Y-87494069D01*
X187652000Y-87494071D01*
X187651999Y-87494071D01*
X185800500Y-87494071D01*
X185800499Y-87255880D01*
X185800499Y-86949998D01*
X185800498Y-86949980D01*
X185789999Y-86847203D01*
X185789998Y-86847200D01*
X185775848Y-86804499D01*
X185734814Y-86680666D01*
X185642712Y-86531344D01*
X185518656Y-86407288D01*
X185409402Y-86339900D01*
X185362679Y-86287953D01*
X185350500Y-86234362D01*
X185350500Y-84934071D01*
X187651999Y-84934071D01*
X187676997Y-85059738D01*
X187676999Y-85059744D01*
X187726033Y-85178124D01*
X187726038Y-85178133D01*
X187797223Y-85284668D01*
X187797226Y-85284672D01*
X187887827Y-85375273D01*
X187887831Y-85375276D01*
X187994366Y-85446461D01*
X187994372Y-85446464D01*
X187994373Y-85446465D01*
X188112756Y-85495501D01*
X188112760Y-85495501D01*
X188112761Y-85495502D01*
X188238428Y-85520500D01*
X188238431Y-85520500D01*
X188366571Y-85520500D01*
X188451115Y-85503682D01*
X188492244Y-85495501D01*
X188610627Y-85446465D01*
X188717169Y-85375276D01*
X188807776Y-85284669D01*
X188878965Y-85178127D01*
X188928001Y-85059744D01*
X188949484Y-84951744D01*
X188953000Y-84934071D01*
X188953000Y-84805928D01*
X188928002Y-84680261D01*
X188928001Y-84680260D01*
X188928001Y-84680256D01*
X188878965Y-84561873D01*
X188878964Y-84561872D01*
X188878961Y-84561866D01*
X188807776Y-84455331D01*
X188807773Y-84455327D01*
X188717172Y-84364726D01*
X188717168Y-84364723D01*
X188610633Y-84293538D01*
X188610624Y-84293533D01*
X188492244Y-84244499D01*
X188492238Y-84244497D01*
X188366571Y-84219500D01*
X188366569Y-84219500D01*
X188238431Y-84219500D01*
X188238429Y-84219500D01*
X188112761Y-84244497D01*
X188112755Y-84244499D01*
X187994375Y-84293533D01*
X187994366Y-84293538D01*
X187887831Y-84364723D01*
X187887827Y-84364726D01*
X187797226Y-84455327D01*
X187797223Y-84455331D01*
X187726038Y-84561866D01*
X187726033Y-84561875D01*
X187676999Y-84680255D01*
X187676997Y-84680261D01*
X187652000Y-84805928D01*
X187652000Y-84805931D01*
X187652000Y-84934069D01*
X187652000Y-84934071D01*
X187651999Y-84934071D01*
X185350500Y-84934071D01*
X185350500Y-82419071D01*
X187676999Y-82419071D01*
X187701997Y-82544738D01*
X187701999Y-82544744D01*
X187751033Y-82663124D01*
X187751038Y-82663133D01*
X187822223Y-82769668D01*
X187822226Y-82769672D01*
X187912827Y-82860273D01*
X187912831Y-82860276D01*
X188019366Y-82931461D01*
X188019372Y-82931464D01*
X188019373Y-82931465D01*
X188137756Y-82980501D01*
X188137760Y-82980501D01*
X188137761Y-82980502D01*
X188263428Y-83005500D01*
X188263431Y-83005500D01*
X188391571Y-83005500D01*
X188476115Y-82988682D01*
X188517244Y-82980501D01*
X188635627Y-82931465D01*
X188742169Y-82860276D01*
X188832776Y-82769669D01*
X188903965Y-82663127D01*
X188953001Y-82544744D01*
X188966336Y-82477707D01*
X188978000Y-82419071D01*
X188978000Y-82290928D01*
X188953002Y-82165261D01*
X188953001Y-82165260D01*
X188953001Y-82165256D01*
X188903965Y-82046873D01*
X188903964Y-82046872D01*
X188903961Y-82046866D01*
X188832776Y-81940331D01*
X188832773Y-81940327D01*
X188742172Y-81849726D01*
X188742168Y-81849723D01*
X188635633Y-81778538D01*
X188635624Y-81778533D01*
X188517244Y-81729499D01*
X188517238Y-81729497D01*
X188391571Y-81704500D01*
X188391569Y-81704500D01*
X188263431Y-81704500D01*
X188263429Y-81704500D01*
X188137761Y-81729497D01*
X188137755Y-81729499D01*
X188019375Y-81778533D01*
X188019366Y-81778538D01*
X187912831Y-81849723D01*
X187912827Y-81849726D01*
X187822226Y-81940327D01*
X187822223Y-81940331D01*
X187751038Y-82046866D01*
X187751033Y-82046875D01*
X187701999Y-82165255D01*
X187701997Y-82165261D01*
X187677000Y-82290928D01*
X187677000Y-82290931D01*
X187677000Y-82419069D01*
X187677000Y-82419071D01*
X187676999Y-82419071D01*
X185350500Y-82419071D01*
X185350500Y-79859071D01*
X187676999Y-79859071D01*
X187701997Y-79984738D01*
X187701999Y-79984744D01*
X187751033Y-80103124D01*
X187751038Y-80103133D01*
X187822223Y-80209668D01*
X187822226Y-80209672D01*
X187912827Y-80300273D01*
X187912831Y-80300276D01*
X188019366Y-80371461D01*
X188019372Y-80371464D01*
X188019373Y-80371465D01*
X188137756Y-80420501D01*
X188137760Y-80420501D01*
X188137761Y-80420502D01*
X188263428Y-80445500D01*
X188263431Y-80445500D01*
X188391571Y-80445500D01*
X188476115Y-80428682D01*
X188517244Y-80420501D01*
X188635627Y-80371465D01*
X188742169Y-80300276D01*
X188832776Y-80209669D01*
X188903965Y-80103127D01*
X188953001Y-79984744D01*
X188966261Y-79918082D01*
X188978000Y-79859071D01*
X188978000Y-79715928D01*
X188953002Y-79590261D01*
X188953001Y-79590260D01*
X188953001Y-79590256D01*
X188903965Y-79471873D01*
X188903964Y-79471872D01*
X188903961Y-79471866D01*
X188832776Y-79365331D01*
X188832773Y-79365327D01*
X188742172Y-79274726D01*
X188742168Y-79274723D01*
X188635633Y-79203538D01*
X188635624Y-79203533D01*
X188517244Y-79154499D01*
X188517238Y-79154497D01*
X188391571Y-79129500D01*
X188391569Y-79129500D01*
X188263431Y-79129500D01*
X188263429Y-79129500D01*
X188137761Y-79154497D01*
X188137755Y-79154499D01*
X188019375Y-79203533D01*
X188019366Y-79203538D01*
X187912831Y-79274723D01*
X187912827Y-79274726D01*
X187822226Y-79365327D01*
X187822223Y-79365331D01*
X187751038Y-79471866D01*
X187751033Y-79471875D01*
X187701999Y-79590255D01*
X187701997Y-79590261D01*
X187677000Y-79715928D01*
X187677000Y-79715931D01*
X187677000Y-79730931D01*
X187677000Y-79859069D01*
X187677000Y-79859071D01*
X187676999Y-79859071D01*
X185350500Y-79859071D01*
X185350500Y-78737229D01*
X185370185Y-78670190D01*
X185386819Y-78649548D01*
X187344548Y-76691819D01*
X187405871Y-76658334D01*
X187432229Y-76655500D01*
X187690350Y-76655500D01*
X187757389Y-76675185D01*
X187803144Y-76727989D01*
X187813088Y-76797147D01*
X187793452Y-76848391D01*
X187751038Y-76911866D01*
X187751033Y-76911875D01*
X187701999Y-77030255D01*
X187701997Y-77030261D01*
X187677000Y-77155928D01*
X187677000Y-77155931D01*
X187677000Y-77284069D01*
X187677000Y-77284071D01*
X187676999Y-77284071D01*
X187701997Y-77409738D01*
X187701999Y-77409744D01*
X187751033Y-77528124D01*
X187751038Y-77528133D01*
X187822223Y-77634668D01*
X187822226Y-77634672D01*
X187912827Y-77725273D01*
X187912831Y-77725276D01*
X188019366Y-77796461D01*
X188019372Y-77796464D01*
X188019373Y-77796465D01*
X188137756Y-77845501D01*
X188137760Y-77845501D01*
X188137761Y-77845502D01*
X188263428Y-77870500D01*
X188263431Y-77870500D01*
X188391571Y-77870500D01*
X188476115Y-77853682D01*
X188517244Y-77845501D01*
X188635627Y-77796465D01*
X188742169Y-77725276D01*
X188832776Y-77634669D01*
X188903965Y-77528127D01*
X188953001Y-77409744D01*
X188965196Y-77348438D01*
X188978000Y-77284071D01*
X188978000Y-77155928D01*
X188953002Y-77030261D01*
X188953001Y-77030260D01*
X188953001Y-77030256D01*
X188903965Y-76911873D01*
X188903964Y-76911872D01*
X188903961Y-76911866D01*
X188861548Y-76848391D01*
X188840670Y-76781714D01*
X188859154Y-76714334D01*
X188911133Y-76667643D01*
X188964650Y-76655500D01*
X194542770Y-76655500D01*
X194609809Y-76675185D01*
X194630451Y-76691819D01*
X194656344Y-76717712D01*
X194805666Y-76809814D01*
X194972203Y-76864999D01*
X195074991Y-76875500D01*
X195700008Y-76875499D01*
X195700016Y-76875498D01*
X195700019Y-76875498D01*
X195756302Y-76869748D01*
X195802797Y-76864999D01*
X195969334Y-76809814D01*
X196118656Y-76717712D01*
X196212319Y-76624049D01*
X196220264Y-76619710D01*
X196225690Y-76612463D01*
X196250449Y-76603228D01*
X196273642Y-76590564D01*
X196282671Y-76591209D01*
X196291154Y-76588046D01*
X196316974Y-76593662D01*
X196343334Y-76595548D01*
X196352387Y-76601366D01*
X196359427Y-76602898D01*
X196387681Y-76624049D01*
X196425681Y-76662049D01*
X196459166Y-76723372D01*
X196462000Y-76749726D01*
X196462000Y-82161418D01*
X196462000Y-82161420D01*
X196461999Y-82161420D01*
X196490840Y-82306407D01*
X196490843Y-82306417D01*
X196547414Y-82442992D01*
X196547415Y-82442994D01*
X196547416Y-82442995D01*
X196552785Y-82451031D01*
X196569134Y-82475498D01*
X196569135Y-82475501D01*
X196629546Y-82565914D01*
X196629552Y-82565921D01*
X197921585Y-83857952D01*
X197921590Y-83857956D01*
X197955309Y-83880486D01*
X197955317Y-83880490D01*
X197959263Y-83883127D01*
X198044505Y-83940084D01*
X198101080Y-83963518D01*
X198181088Y-83996659D01*
X198297241Y-84019763D01*
X198316468Y-84023587D01*
X198326081Y-84025500D01*
X198326082Y-84025500D01*
X198326083Y-84025500D01*
X198473918Y-84025500D01*
X200064730Y-84025500D01*
X200131769Y-84045185D01*
X200133622Y-84046399D01*
X200173447Y-84073010D01*
X200173450Y-84073011D01*
X200173453Y-84073013D01*
X200337334Y-84140894D01*
X200337336Y-84140894D01*
X200337341Y-84140896D01*
X200511304Y-84175499D01*
X200511307Y-84175500D01*
X200511309Y-84175500D01*
X200688693Y-84175500D01*
X200688694Y-84175499D01*
X200750426Y-84163220D01*
X200862658Y-84140896D01*
X200862661Y-84140894D01*
X200862666Y-84140894D01*
X201026547Y-84073013D01*
X201174035Y-83974464D01*
X201184981Y-83963518D01*
X201237819Y-83910681D01*
X201299142Y-83877196D01*
X201368834Y-83882180D01*
X201424767Y-83924052D01*
X201449184Y-83989516D01*
X201449500Y-83998362D01*
X201449500Y-86012769D01*
X201429815Y-86079808D01*
X201413181Y-86100450D01*
X197417052Y-90096578D01*
X197417049Y-90096581D01*
X197378564Y-90154178D01*
X197378565Y-90154179D01*
X197334914Y-90219508D01*
X197278343Y-90356082D01*
X197278340Y-90356092D01*
X197249500Y-90501079D01*
X197249500Y-91439729D01*
X197229815Y-91506768D01*
X197228602Y-91508620D01*
X197201988Y-91548449D01*
X197201987Y-91548452D01*
X197134106Y-91712332D01*
X197134103Y-91712341D01*
X197099500Y-91886304D01*
X197099500Y-92063695D01*
X197134103Y-92237658D01*
X197134106Y-92237667D01*
X197201983Y-92401540D01*
X197201990Y-92401553D01*
X197300535Y-92549034D01*
X197300538Y-92549038D01*
X197425961Y-92674461D01*
X197425965Y-92674464D01*
X197573446Y-92773009D01*
X197573459Y-92773016D01*
X197665638Y-92811197D01*
X197737334Y-92840894D01*
X197737336Y-92840894D01*
X197737341Y-92840896D01*
X197911304Y-92875499D01*
X197911307Y-92875500D01*
X197911309Y-92875500D01*
X198088693Y-92875500D01*
X198088694Y-92875499D01*
X198146682Y-92863964D01*
X198262658Y-92840896D01*
X198262661Y-92840894D01*
X198262666Y-92840894D01*
X198426547Y-92773013D01*
X198574035Y-92674464D01*
X198699464Y-92549035D01*
X198798013Y-92401547D01*
X198865894Y-92237666D01*
X198900500Y-92063691D01*
X198900500Y-91886309D01*
X198900500Y-91886306D01*
X198900499Y-91886304D01*
X198865896Y-91712341D01*
X198865893Y-91712332D01*
X198798013Y-91548453D01*
X198798011Y-91548451D01*
X198798011Y-91548449D01*
X198771398Y-91508620D01*
X198750520Y-91441942D01*
X198750500Y-91439729D01*
X198750500Y-91086304D01*
X199299500Y-91086304D01*
X199299500Y-91263695D01*
X199334103Y-91437658D01*
X199334106Y-91437667D01*
X199401983Y-91601540D01*
X199401990Y-91601553D01*
X199500535Y-91749034D01*
X199500538Y-91749038D01*
X199625961Y-91874461D01*
X199625965Y-91874464D01*
X199773446Y-91973009D01*
X199773459Y-91973016D01*
X199893516Y-92022744D01*
X199937334Y-92040894D01*
X199937336Y-92040894D01*
X199937341Y-92040896D01*
X200111304Y-92075499D01*
X200111307Y-92075500D01*
X200111309Y-92075500D01*
X200288693Y-92075500D01*
X200288694Y-92075499D01*
X200348058Y-92063691D01*
X200462658Y-92040896D01*
X200462661Y-92040894D01*
X200462666Y-92040894D01*
X200626547Y-91973013D01*
X200774035Y-91874464D01*
X200899464Y-91749035D01*
X200998013Y-91601547D01*
X201065894Y-91437666D01*
X201075239Y-91390680D01*
X201107624Y-91328770D01*
X201109176Y-91327191D01*
X204582949Y-87853418D01*
X204582952Y-87853415D01*
X204626414Y-87788369D01*
X204665084Y-87730495D01*
X204688518Y-87673920D01*
X204721659Y-87593912D01*
X204750500Y-87448917D01*
X204750500Y-87301082D01*
X204750500Y-79894071D01*
X212651999Y-79894071D01*
X212676997Y-80019738D01*
X212676999Y-80019744D01*
X212726033Y-80138124D01*
X212726038Y-80138133D01*
X212797223Y-80244668D01*
X212797226Y-80244672D01*
X212887827Y-80335273D01*
X212887831Y-80335276D01*
X212994366Y-80406461D01*
X212994372Y-80406464D01*
X212994373Y-80406465D01*
X213112756Y-80455501D01*
X213112760Y-80455501D01*
X213112761Y-80455502D01*
X213238428Y-80480500D01*
X213238431Y-80480500D01*
X213366571Y-80480500D01*
X213451115Y-80463682D01*
X213492244Y-80455501D01*
X213610627Y-80406465D01*
X213717169Y-80335276D01*
X213807776Y-80244669D01*
X213878965Y-80138127D01*
X213928001Y-80019744D01*
X213936182Y-79978615D01*
X213953000Y-79894071D01*
X213953000Y-79750928D01*
X213928002Y-79625261D01*
X213928001Y-79625260D01*
X213928001Y-79625256D01*
X213878965Y-79506873D01*
X213878964Y-79506872D01*
X213878961Y-79506866D01*
X213807776Y-79400331D01*
X213807773Y-79400327D01*
X213717172Y-79309726D01*
X213717168Y-79309723D01*
X213610633Y-79238538D01*
X213610624Y-79238533D01*
X213492244Y-79189499D01*
X213492238Y-79189497D01*
X213366571Y-79164500D01*
X213366569Y-79164500D01*
X213238431Y-79164500D01*
X213238429Y-79164500D01*
X213112761Y-79189497D01*
X213112755Y-79189499D01*
X212994375Y-79238533D01*
X212994366Y-79238538D01*
X212887831Y-79309723D01*
X212887827Y-79309726D01*
X212797226Y-79400327D01*
X212797223Y-79400331D01*
X212726038Y-79506866D01*
X212726033Y-79506875D01*
X212676999Y-79625255D01*
X212676997Y-79625261D01*
X212652000Y-79750928D01*
X212652000Y-79750931D01*
X212652000Y-79765931D01*
X212652000Y-79894069D01*
X212652000Y-79894071D01*
X212651999Y-79894071D01*
X204750500Y-79894071D01*
X204750500Y-77319071D01*
X212651999Y-77319071D01*
X212676997Y-77444738D01*
X212676999Y-77444744D01*
X212726033Y-77563124D01*
X212726038Y-77563133D01*
X212797223Y-77669668D01*
X212797226Y-77669672D01*
X212887827Y-77760273D01*
X212887831Y-77760276D01*
X212994366Y-77831461D01*
X212994372Y-77831464D01*
X212994373Y-77831465D01*
X213112756Y-77880501D01*
X213112760Y-77880501D01*
X213112761Y-77880502D01*
X213238428Y-77905500D01*
X213238431Y-77905500D01*
X213366571Y-77905500D01*
X213451115Y-77888682D01*
X213492244Y-77880501D01*
X213610627Y-77831465D01*
X213717169Y-77760276D01*
X213807776Y-77669669D01*
X213878965Y-77563127D01*
X213928001Y-77444744D01*
X213953000Y-77319069D01*
X213953000Y-77190931D01*
X213953000Y-77190928D01*
X213928002Y-77065261D01*
X213928001Y-77065260D01*
X213928001Y-77065256D01*
X213878965Y-76946873D01*
X213878964Y-76946872D01*
X213878961Y-76946866D01*
X213807776Y-76840331D01*
X213807773Y-76840327D01*
X213717172Y-76749726D01*
X213717168Y-76749723D01*
X213610633Y-76678538D01*
X213610624Y-76678533D01*
X213492244Y-76629499D01*
X213492238Y-76629497D01*
X213366571Y-76604500D01*
X213366569Y-76604500D01*
X213238431Y-76604500D01*
X213238429Y-76604500D01*
X213112761Y-76629497D01*
X213112755Y-76629499D01*
X212994375Y-76678533D01*
X212994366Y-76678538D01*
X212887831Y-76749723D01*
X212887827Y-76749726D01*
X212797226Y-76840327D01*
X212797223Y-76840331D01*
X212726038Y-76946866D01*
X212726033Y-76946875D01*
X212676999Y-77065255D01*
X212676997Y-77065261D01*
X212652000Y-77190928D01*
X212652000Y-77190931D01*
X212652000Y-77319069D01*
X212652000Y-77319071D01*
X212651999Y-77319071D01*
X204750500Y-77319071D01*
X204750500Y-74804071D01*
X212676999Y-74804071D01*
X212701997Y-74929738D01*
X212701999Y-74929744D01*
X212751033Y-75048124D01*
X212751038Y-75048133D01*
X212822223Y-75154668D01*
X212822226Y-75154672D01*
X212912827Y-75245273D01*
X212912831Y-75245276D01*
X213019366Y-75316461D01*
X213019375Y-75316466D01*
X213032854Y-75322049D01*
X213137756Y-75365501D01*
X213137760Y-75365501D01*
X213137761Y-75365502D01*
X213263428Y-75390500D01*
X213263431Y-75390500D01*
X213391571Y-75390500D01*
X213476115Y-75373682D01*
X213517244Y-75365501D01*
X213635627Y-75316465D01*
X213742169Y-75245276D01*
X213832776Y-75154669D01*
X213903965Y-75048127D01*
X213953001Y-74929744D01*
X213970836Y-74840083D01*
X213978000Y-74804071D01*
X213978000Y-74675928D01*
X213953002Y-74550261D01*
X213953001Y-74550260D01*
X213953001Y-74550256D01*
X213903965Y-74431873D01*
X213903964Y-74431872D01*
X213903961Y-74431866D01*
X213832776Y-74325331D01*
X213832773Y-74325327D01*
X213742172Y-74234726D01*
X213742168Y-74234723D01*
X213635633Y-74163538D01*
X213635624Y-74163533D01*
X213517244Y-74114499D01*
X213517238Y-74114497D01*
X213391571Y-74089500D01*
X213391569Y-74089500D01*
X213263431Y-74089500D01*
X213263429Y-74089500D01*
X213137761Y-74114497D01*
X213137755Y-74114499D01*
X213019375Y-74163533D01*
X213019366Y-74163538D01*
X212912831Y-74234723D01*
X212912827Y-74234726D01*
X212822226Y-74325327D01*
X212822223Y-74325331D01*
X212751038Y-74431866D01*
X212751033Y-74431875D01*
X212701999Y-74550255D01*
X212701997Y-74550261D01*
X212677000Y-74675928D01*
X212677000Y-74675931D01*
X212677000Y-74804069D01*
X212677000Y-74804071D01*
X212676999Y-74804071D01*
X204750500Y-74804071D01*
X204750500Y-72337230D01*
X204770185Y-72270191D01*
X204786819Y-72249549D01*
X204952979Y-72083389D01*
X211852000Y-72083389D01*
X211852000Y-72256611D01*
X211879098Y-72427701D01*
X211932627Y-72592445D01*
X212011268Y-72746788D01*
X212113086Y-72886928D01*
X212235572Y-73009414D01*
X212375712Y-73111232D01*
X212530055Y-73189873D01*
X212694799Y-73243402D01*
X212865889Y-73270500D01*
X212865890Y-73270500D01*
X213839110Y-73270500D01*
X213839111Y-73270500D01*
X214010201Y-73243402D01*
X214174945Y-73189873D01*
X214329288Y-73111232D01*
X214469428Y-73009414D01*
X214522023Y-72956819D01*
X214583346Y-72923334D01*
X214609704Y-72920500D01*
X217732770Y-72920500D01*
X217799809Y-72940185D01*
X217820451Y-72956819D01*
X218943181Y-74079548D01*
X218976666Y-74140871D01*
X218979500Y-74167229D01*
X218979500Y-77467670D01*
X218974576Y-77502265D01*
X218932402Y-77647426D01*
X218932401Y-77647432D01*
X218929500Y-77684298D01*
X218929500Y-79465701D01*
X218932401Y-79502567D01*
X218932402Y-79502573D01*
X218978254Y-79660393D01*
X218978255Y-79660396D01*
X219061917Y-79801862D01*
X219061923Y-79801870D01*
X219178129Y-79918076D01*
X219178133Y-79918079D01*
X219178135Y-79918081D01*
X219319602Y-80001744D01*
X219361224Y-80013836D01*
X219477426Y-80047597D01*
X219477429Y-80047597D01*
X219477431Y-80047598D01*
X219514306Y-80050500D01*
X219514314Y-80050500D01*
X219945686Y-80050500D01*
X219945694Y-80050500D01*
X219982569Y-80047598D01*
X219982571Y-80047597D01*
X219982573Y-80047597D01*
X220024191Y-80035505D01*
X220140398Y-80001744D01*
X220281865Y-79918081D01*
X220398081Y-79801865D01*
X220481744Y-79660398D01*
X220527598Y-79502569D01*
X220530500Y-79465694D01*
X220530500Y-79465649D01*
X227820000Y-79465649D01*
X227822899Y-79502489D01*
X227822900Y-79502495D01*
X227868716Y-79660193D01*
X227868717Y-79660196D01*
X227952314Y-79801552D01*
X227952321Y-79801561D01*
X228068438Y-79917678D01*
X228068447Y-79917685D01*
X228209801Y-80001281D01*
X228367514Y-80047100D01*
X228367511Y-80047100D01*
X228369998Y-80047295D01*
X228370000Y-80047295D01*
X228870000Y-80047295D01*
X228870001Y-80047295D01*
X228872486Y-80047100D01*
X229030198Y-80001281D01*
X229171552Y-79917685D01*
X229171561Y-79917678D01*
X229287678Y-79801561D01*
X229287685Y-79801552D01*
X229371282Y-79660196D01*
X229371283Y-79660193D01*
X229417099Y-79502495D01*
X229417100Y-79502489D01*
X229419999Y-79465649D01*
X229420000Y-79465634D01*
X229420000Y-78825000D01*
X228870000Y-78825000D01*
X228870000Y-80047295D01*
X228370000Y-80047295D01*
X228370000Y-78825000D01*
X227820000Y-78825000D01*
X227820000Y-79465649D01*
X220530500Y-79465649D01*
X220530500Y-77684350D01*
X227820000Y-77684350D01*
X227820000Y-78325000D01*
X228370000Y-78325000D01*
X228870000Y-78325000D01*
X229420000Y-78325000D01*
X229420000Y-77684365D01*
X229419999Y-77684350D01*
X229417100Y-77647510D01*
X229417099Y-77647504D01*
X229371283Y-77489806D01*
X229371282Y-77489803D01*
X229287685Y-77348447D01*
X229287678Y-77348438D01*
X229171561Y-77232321D01*
X229171552Y-77232314D01*
X229030196Y-77148717D01*
X229030193Y-77148716D01*
X228872494Y-77102900D01*
X228872497Y-77102900D01*
X228870000Y-77102703D01*
X228870000Y-78325000D01*
X228370000Y-78325000D01*
X228370000Y-77102703D01*
X228367503Y-77102900D01*
X228209806Y-77148716D01*
X228209803Y-77148717D01*
X228068447Y-77232314D01*
X228068438Y-77232321D01*
X227952321Y-77348438D01*
X227952314Y-77348447D01*
X227868717Y-77489803D01*
X227868716Y-77489806D01*
X227822900Y-77647504D01*
X227822899Y-77647510D01*
X227820000Y-77684350D01*
X220530500Y-77684350D01*
X220530500Y-77684306D01*
X220527598Y-77647431D01*
X220484502Y-77499095D01*
X220483745Y-77495851D01*
X220483962Y-77491996D01*
X220480500Y-77467670D01*
X220480500Y-75921696D01*
X220500185Y-75854657D01*
X220552989Y-75808902D01*
X220622147Y-75798958D01*
X220685703Y-75827983D01*
X220723477Y-75886761D01*
X220726117Y-75897505D01*
X220734103Y-75937658D01*
X220734106Y-75937667D01*
X220801983Y-76101540D01*
X220801990Y-76101553D01*
X220900535Y-76249034D01*
X220900538Y-76249038D01*
X221025961Y-76374461D01*
X221025965Y-76374464D01*
X221173446Y-76473009D01*
X221173459Y-76473016D01*
X221296363Y-76523923D01*
X221337334Y-76540894D01*
X221337336Y-76540894D01*
X221337341Y-76540896D01*
X221511304Y-76575499D01*
X221511307Y-76575500D01*
X221511309Y-76575500D01*
X221688693Y-76575500D01*
X221688694Y-76575499D01*
X221746682Y-76563964D01*
X221862658Y-76540896D01*
X221862661Y-76540894D01*
X221862666Y-76540894D01*
X222026547Y-76473013D01*
X222174035Y-76374464D01*
X222299464Y-76249035D01*
X222398013Y-76101547D01*
X222465894Y-75937666D01*
X222500500Y-75763691D01*
X222500500Y-75586309D01*
X222500500Y-75586306D01*
X222500499Y-75586304D01*
X222465896Y-75412341D01*
X222465893Y-75412332D01*
X222456850Y-75390500D01*
X222398013Y-75248453D01*
X222398011Y-75248451D01*
X222398011Y-75248449D01*
X222371398Y-75208620D01*
X222350520Y-75141942D01*
X222350500Y-75139729D01*
X222350500Y-58910269D01*
X222370185Y-58843230D01*
X222371398Y-58841378D01*
X222398013Y-58801547D01*
X222465894Y-58637666D01*
X222500500Y-58463691D01*
X222500500Y-58286309D01*
X222500500Y-58286306D01*
X222500499Y-58286304D01*
X222465896Y-58112341D01*
X222465893Y-58112332D01*
X222398016Y-57948459D01*
X222398009Y-57948446D01*
X222299464Y-57800965D01*
X222299461Y-57800961D01*
X222174038Y-57675538D01*
X222174034Y-57675535D01*
X222026553Y-57576990D01*
X222026540Y-57576983D01*
X221862667Y-57509106D01*
X221862658Y-57509103D01*
X221688694Y-57474500D01*
X221688691Y-57474500D01*
X221511309Y-57474500D01*
X221511306Y-57474500D01*
X221337341Y-57509103D01*
X221337332Y-57509106D01*
X221173459Y-57576983D01*
X221173446Y-57576990D01*
X221025965Y-57675535D01*
X221025961Y-57675538D01*
X220900538Y-57800961D01*
X220900535Y-57800965D01*
X220801990Y-57948446D01*
X220801983Y-57948459D01*
X220734106Y-58112332D01*
X220734103Y-58112341D01*
X220699500Y-58286304D01*
X220699500Y-58463695D01*
X220734103Y-58637658D01*
X220734106Y-58637667D01*
X220801984Y-58801542D01*
X220801985Y-58801543D01*
X220801987Y-58801547D01*
X220828602Y-58841378D01*
X220849480Y-58908055D01*
X220849500Y-58910269D01*
X220849500Y-75139729D01*
X220829815Y-75206768D01*
X220828602Y-75208620D01*
X220801988Y-75248449D01*
X220801987Y-75248452D01*
X220734106Y-75412332D01*
X220734104Y-75412340D01*
X220726117Y-75452495D01*
X220693732Y-75514406D01*
X220633016Y-75548980D01*
X220563247Y-75545240D01*
X220506575Y-75504373D01*
X220480993Y-75439355D01*
X220480500Y-75428303D01*
X220480500Y-73731079D01*
X220451659Y-73586092D01*
X220451658Y-73586091D01*
X220451658Y-73586087D01*
X220449025Y-73579730D01*
X220395087Y-73449511D01*
X220395080Y-73449498D01*
X220312952Y-73326585D01*
X220312951Y-73326584D01*
X220208416Y-73222049D01*
X219821450Y-72835083D01*
X218573421Y-71587052D01*
X218573414Y-71587046D01*
X218499729Y-71537812D01*
X218499729Y-71537813D01*
X218450491Y-71504913D01*
X218313917Y-71448343D01*
X218313907Y-71448340D01*
X218168920Y-71419500D01*
X218168918Y-71419500D01*
X214609704Y-71419500D01*
X214542665Y-71399815D01*
X214522023Y-71383181D01*
X214469430Y-71330588D01*
X214469428Y-71330586D01*
X214329288Y-71228768D01*
X214174945Y-71150127D01*
X214010201Y-71096598D01*
X214010199Y-71096597D01*
X214010198Y-71096597D01*
X213878771Y-71075781D01*
X213839111Y-71069500D01*
X212865889Y-71069500D01*
X212826228Y-71075781D01*
X212694802Y-71096597D01*
X212530052Y-71150128D01*
X212375711Y-71228768D01*
X212295756Y-71286859D01*
X212235572Y-71330586D01*
X212235570Y-71330588D01*
X212235569Y-71330588D01*
X212113088Y-71453069D01*
X212113088Y-71453070D01*
X212113086Y-71453072D01*
X212081473Y-71496584D01*
X212011268Y-71593211D01*
X211932628Y-71747552D01*
X211879097Y-71912302D01*
X211852000Y-72083389D01*
X204952979Y-72083389D01*
X206639549Y-70396819D01*
X206700872Y-70363334D01*
X206727230Y-70360500D01*
X212095296Y-70360500D01*
X212162335Y-70380185D01*
X212182977Y-70396819D01*
X212235572Y-70449414D01*
X212375712Y-70551232D01*
X212530055Y-70629873D01*
X212694799Y-70683402D01*
X212865889Y-70710500D01*
X212865890Y-70710500D01*
X213839110Y-70710500D01*
X213839111Y-70710500D01*
X214010201Y-70683402D01*
X214174945Y-70629873D01*
X214329288Y-70551232D01*
X214469428Y-70449414D01*
X214591914Y-70326928D01*
X214693732Y-70186788D01*
X214772373Y-70032445D01*
X214825902Y-69867701D01*
X214853000Y-69696611D01*
X214853000Y-69523389D01*
X214825902Y-69352299D01*
X214772373Y-69187555D01*
X214693732Y-69033212D01*
X214591914Y-68893072D01*
X214469428Y-68770586D01*
X214329288Y-68668768D01*
X214174945Y-68590127D01*
X214010201Y-68536598D01*
X214010199Y-68536597D01*
X214010198Y-68536597D01*
X213878771Y-68515781D01*
X213839111Y-68509500D01*
X212865889Y-68509500D01*
X212826228Y-68515781D01*
X212694802Y-68536597D01*
X212530052Y-68590128D01*
X212375711Y-68668768D01*
X212295756Y-68726859D01*
X212235572Y-68770586D01*
X212235570Y-68770588D01*
X212235569Y-68770588D01*
X212182977Y-68823181D01*
X212121654Y-68856666D01*
X212095296Y-68859500D01*
X206291080Y-68859500D01*
X206146092Y-68888340D01*
X206146082Y-68888343D01*
X206009511Y-68944912D01*
X206009504Y-68944916D01*
X205992499Y-68956278D01*
X205983938Y-68961999D01*
X205983937Y-68961999D01*
X205886585Y-69027046D01*
X205886578Y-69027052D01*
X203417050Y-71496580D01*
X203417044Y-71496588D01*
X203367812Y-71570268D01*
X203367813Y-71570269D01*
X203334921Y-71619496D01*
X203334914Y-71619508D01*
X203278342Y-71756086D01*
X203278340Y-71756092D01*
X203249500Y-71901079D01*
X203249500Y-87012769D01*
X203229815Y-87079808D01*
X203213181Y-87100450D01*
X200047807Y-90265823D01*
X199986484Y-90299308D01*
X199984319Y-90299759D01*
X199937337Y-90309104D01*
X199937331Y-90309106D01*
X199773459Y-90376983D01*
X199773446Y-90376990D01*
X199625965Y-90475535D01*
X199625961Y-90475538D01*
X199500538Y-90600961D01*
X199500535Y-90600965D01*
X199401990Y-90748446D01*
X199401983Y-90748459D01*
X199334106Y-90912332D01*
X199334103Y-90912341D01*
X199299500Y-91086304D01*
X198750500Y-91086304D01*
X198750500Y-90937230D01*
X198770185Y-90870191D01*
X198786819Y-90849549D01*
X202782947Y-86853421D01*
X202782952Y-86853416D01*
X202832340Y-86779500D01*
X202865084Y-86730495D01*
X202921658Y-86593913D01*
X202934104Y-86531344D01*
X202950500Y-86448920D01*
X202950500Y-67134071D01*
X212651999Y-67134071D01*
X212676997Y-67259738D01*
X212676999Y-67259744D01*
X212726033Y-67378124D01*
X212726038Y-67378133D01*
X212797223Y-67484668D01*
X212797226Y-67484672D01*
X212887827Y-67575273D01*
X212887831Y-67575276D01*
X212994366Y-67646461D01*
X212994372Y-67646464D01*
X212994373Y-67646465D01*
X213112756Y-67695501D01*
X213112760Y-67695501D01*
X213112761Y-67695502D01*
X213238428Y-67720500D01*
X213238431Y-67720500D01*
X213366571Y-67720500D01*
X213451115Y-67703682D01*
X213492244Y-67695501D01*
X213610627Y-67646465D01*
X213717169Y-67575276D01*
X213807776Y-67484669D01*
X213878965Y-67378127D01*
X213928001Y-67259744D01*
X213953000Y-67134069D01*
X213953000Y-67005931D01*
X213953000Y-67005928D01*
X213928002Y-66880261D01*
X213928001Y-66880260D01*
X213928001Y-66880256D01*
X213878965Y-66761873D01*
X213878964Y-66761872D01*
X213878961Y-66761866D01*
X213807776Y-66655331D01*
X213807773Y-66655327D01*
X213717172Y-66564726D01*
X213717168Y-66564723D01*
X213610633Y-66493538D01*
X213610624Y-66493533D01*
X213492244Y-66444499D01*
X213492238Y-66444497D01*
X213366571Y-66419500D01*
X213366569Y-66419500D01*
X213238431Y-66419500D01*
X213238429Y-66419500D01*
X213112761Y-66444497D01*
X213112755Y-66444499D01*
X212994375Y-66493533D01*
X212994366Y-66493538D01*
X212887831Y-66564723D01*
X212887827Y-66564726D01*
X212797226Y-66655327D01*
X212797223Y-66655331D01*
X212726038Y-66761866D01*
X212726033Y-66761875D01*
X212676999Y-66880255D01*
X212676997Y-66880261D01*
X212652000Y-67005928D01*
X212652000Y-67005931D01*
X212652000Y-67134069D01*
X212652000Y-67134071D01*
X212651999Y-67134071D01*
X202950500Y-67134071D01*
X202950500Y-65337229D01*
X202970185Y-65270190D01*
X202986819Y-65249548D01*
X203662296Y-64574071D01*
X212651999Y-64574071D01*
X212676997Y-64699738D01*
X212676999Y-64699744D01*
X212726033Y-64818124D01*
X212726038Y-64818133D01*
X212797223Y-64924668D01*
X212797226Y-64924672D01*
X212887827Y-65015273D01*
X212887831Y-65015276D01*
X212994366Y-65086461D01*
X212994372Y-65086464D01*
X212994373Y-65086465D01*
X213112756Y-65135501D01*
X213112760Y-65135501D01*
X213112761Y-65135502D01*
X213238428Y-65160500D01*
X213238431Y-65160500D01*
X213366571Y-65160500D01*
X213456003Y-65142710D01*
X213492244Y-65135501D01*
X213610627Y-65086465D01*
X213717169Y-65015276D01*
X213807776Y-64924669D01*
X213878965Y-64818127D01*
X213928001Y-64699744D01*
X213936182Y-64658615D01*
X213953000Y-64574071D01*
X213953000Y-64445928D01*
X213928002Y-64320261D01*
X213928001Y-64320260D01*
X213928001Y-64320256D01*
X213878965Y-64201873D01*
X213878964Y-64201872D01*
X213878961Y-64201866D01*
X213807776Y-64095331D01*
X213807773Y-64095327D01*
X213717172Y-64004726D01*
X213717168Y-64004723D01*
X213610633Y-63933538D01*
X213610624Y-63933533D01*
X213492244Y-63884499D01*
X213492238Y-63884497D01*
X213366571Y-63859500D01*
X213366569Y-63859500D01*
X213238431Y-63859500D01*
X213238429Y-63859500D01*
X213112761Y-63884497D01*
X213112755Y-63884499D01*
X212994375Y-63933533D01*
X212994366Y-63933538D01*
X212887831Y-64004723D01*
X212887827Y-64004726D01*
X212797226Y-64095327D01*
X212797223Y-64095331D01*
X212726038Y-64201866D01*
X212726033Y-64201875D01*
X212676999Y-64320255D01*
X212676997Y-64320261D01*
X212652000Y-64445928D01*
X212652000Y-64445931D01*
X212652000Y-64574069D01*
X212652000Y-64574071D01*
X212651999Y-64574071D01*
X203662296Y-64574071D01*
X205454548Y-62781819D01*
X205515871Y-62748334D01*
X205542229Y-62745500D01*
X212070296Y-62745500D01*
X212137335Y-62765185D01*
X212157977Y-62781819D01*
X212210572Y-62834414D01*
X212350712Y-62936232D01*
X212505055Y-63014873D01*
X212669799Y-63068402D01*
X212840889Y-63095500D01*
X212840890Y-63095500D01*
X213814110Y-63095500D01*
X213814111Y-63095500D01*
X213985201Y-63068402D01*
X214149945Y-63014873D01*
X214304288Y-62936232D01*
X214444428Y-62834414D01*
X214566914Y-62711928D01*
X214668732Y-62571788D01*
X214747373Y-62417445D01*
X214800902Y-62252701D01*
X214828000Y-62081611D01*
X214828000Y-61908389D01*
X214800902Y-61737299D01*
X214747373Y-61572555D01*
X214668732Y-61418212D01*
X214566914Y-61278072D01*
X214444428Y-61155586D01*
X214304288Y-61053768D01*
X214222982Y-61012341D01*
X214149947Y-60975128D01*
X214149946Y-60975127D01*
X214149945Y-60975127D01*
X213985201Y-60921598D01*
X213985199Y-60921597D01*
X213985198Y-60921597D01*
X213853771Y-60900781D01*
X213814111Y-60894500D01*
X212840889Y-60894500D01*
X212801228Y-60900781D01*
X212669802Y-60921597D01*
X212505052Y-60975128D01*
X212350711Y-61053768D01*
X212270756Y-61111859D01*
X212210572Y-61155586D01*
X212210570Y-61155588D01*
X212210569Y-61155588D01*
X212157977Y-61208181D01*
X212096654Y-61241666D01*
X212070296Y-61244500D01*
X205106080Y-61244500D01*
X204961092Y-61273340D01*
X204961082Y-61273343D01*
X204824511Y-61329912D01*
X204824498Y-61329919D01*
X204701584Y-61412048D01*
X204701580Y-61412051D01*
X201617050Y-64496580D01*
X201617044Y-64496588D01*
X201567812Y-64570268D01*
X201567813Y-64570269D01*
X201534921Y-64619496D01*
X201534914Y-64619508D01*
X201478342Y-64756086D01*
X201478340Y-64756092D01*
X201449500Y-64901079D01*
X201449500Y-82551638D01*
X201429815Y-82618677D01*
X201377011Y-82664432D01*
X201307853Y-82674376D01*
X201244297Y-82645351D01*
X201237819Y-82639319D01*
X201174038Y-82575538D01*
X201174034Y-82575535D01*
X201026553Y-82476990D01*
X201026540Y-82476983D01*
X200862667Y-82409106D01*
X200862658Y-82409103D01*
X200688694Y-82374500D01*
X200688691Y-82374500D01*
X200511309Y-82374500D01*
X200511306Y-82374500D01*
X200337341Y-82409103D01*
X200337332Y-82409106D01*
X200173452Y-82476987D01*
X200173447Y-82476989D01*
X200133622Y-82503601D01*
X200066945Y-82524480D01*
X200064730Y-82524500D01*
X198762229Y-82524500D01*
X198695190Y-82504815D01*
X198674548Y-82488181D01*
X197999319Y-81812951D01*
X197965834Y-81751628D01*
X197963000Y-81725270D01*
X197963000Y-76749730D01*
X197982685Y-76682691D01*
X197999319Y-76662049D01*
X198031871Y-76629497D01*
X198067712Y-76593656D01*
X198159814Y-76444334D01*
X198214999Y-76277797D01*
X198225500Y-76175009D01*
X198225499Y-75174992D01*
X198223331Y-75153772D01*
X198214999Y-75072203D01*
X198214998Y-75072200D01*
X198178421Y-74961819D01*
X198159814Y-74905666D01*
X198067712Y-74756344D01*
X197943656Y-74632288D01*
X197850888Y-74575069D01*
X197794336Y-74540187D01*
X197794331Y-74540185D01*
X197719115Y-74515261D01*
X197627797Y-74485001D01*
X197627795Y-74485000D01*
X197525010Y-74474500D01*
X196899998Y-74474500D01*
X196899980Y-74474501D01*
X196797203Y-74485000D01*
X196797200Y-74485001D01*
X196630668Y-74540185D01*
X196630663Y-74540187D01*
X196481342Y-74632289D01*
X196387681Y-74725951D01*
X196379735Y-74730289D01*
X196374310Y-74737537D01*
X196349550Y-74746771D01*
X196326358Y-74759436D01*
X196317328Y-74758790D01*
X196308846Y-74761954D01*
X196283025Y-74756337D01*
X196256666Y-74754452D01*
X196247612Y-74748633D01*
X196240573Y-74747102D01*
X196212319Y-74725951D01*
X196174319Y-74687951D01*
X196140834Y-74626628D01*
X196138000Y-74600270D01*
X196138000Y-70648023D01*
X196157685Y-70580984D01*
X196210489Y-70535229D01*
X196279647Y-70525285D01*
X196343203Y-70554310D01*
X196349681Y-70560342D01*
X196431654Y-70642315D01*
X196580875Y-70734356D01*
X196580880Y-70734358D01*
X196747302Y-70789505D01*
X196747309Y-70789506D01*
X196850019Y-70799999D01*
X197400000Y-70799999D01*
X197449972Y-70799999D01*
X197449986Y-70799998D01*
X197552697Y-70789505D01*
X197719119Y-70734358D01*
X197719124Y-70734356D01*
X197868345Y-70642315D01*
X197992315Y-70518345D01*
X198084356Y-70369124D01*
X198084358Y-70369119D01*
X198139505Y-70202697D01*
X198139506Y-70202690D01*
X198149999Y-70099986D01*
X198150000Y-70099973D01*
X198150000Y-69825000D01*
X197400000Y-69825000D01*
X197400000Y-70799999D01*
X196850019Y-70799999D01*
X196899999Y-70799998D01*
X196900000Y-70799998D01*
X196900000Y-69325000D01*
X197400000Y-69325000D01*
X198149999Y-69325000D01*
X198149999Y-69050028D01*
X198149998Y-69050013D01*
X198139505Y-68947302D01*
X198084358Y-68780880D01*
X198084356Y-68780875D01*
X197992315Y-68631654D01*
X197868345Y-68507684D01*
X197719124Y-68415643D01*
X197719119Y-68415641D01*
X197552697Y-68360494D01*
X197552690Y-68360493D01*
X197449986Y-68350000D01*
X197400000Y-68350000D01*
X197400000Y-69325000D01*
X196900000Y-69325000D01*
X196900000Y-68350000D01*
X196899999Y-68349999D01*
X196850029Y-68350000D01*
X196850011Y-68350001D01*
X196747302Y-68360494D01*
X196580880Y-68415641D01*
X196580875Y-68415643D01*
X196431654Y-68507684D01*
X196307683Y-68631655D01*
X196307679Y-68631660D01*
X196305826Y-68634665D01*
X196304018Y-68636290D01*
X196303202Y-68637323D01*
X196303025Y-68637183D01*
X196253874Y-68681385D01*
X196184911Y-68692601D01*
X196120831Y-68664752D01*
X196094753Y-68634653D01*
X196094737Y-68634628D01*
X196092712Y-68631344D01*
X195968656Y-68507288D01*
X195819334Y-68415186D01*
X195652797Y-68360001D01*
X195652795Y-68360000D01*
X195550010Y-68349500D01*
X194949998Y-68349500D01*
X194949980Y-68349501D01*
X194847203Y-68360000D01*
X194847200Y-68360001D01*
X194680668Y-68415185D01*
X194680663Y-68415187D01*
X194531342Y-68507289D01*
X194407289Y-68631342D01*
X194324481Y-68765597D01*
X194272533Y-68812321D01*
X194218942Y-68824500D01*
X189574704Y-68824500D01*
X189507665Y-68804815D01*
X189487023Y-68788181D01*
X189469430Y-68770588D01*
X189469428Y-68770586D01*
X189329288Y-68668768D01*
X189174945Y-68590127D01*
X189010201Y-68536598D01*
X189010199Y-68536597D01*
X189010198Y-68536597D01*
X188878771Y-68515781D01*
X188839111Y-68509500D01*
X187865889Y-68509500D01*
X187826228Y-68515781D01*
X187694802Y-68536597D01*
X187530052Y-68590128D01*
X187375711Y-68668768D01*
X187295756Y-68726859D01*
X187235572Y-68770586D01*
X187235570Y-68770588D01*
X187235569Y-68770588D01*
X187113088Y-68893069D01*
X187113088Y-68893070D01*
X187113086Y-68893072D01*
X187069359Y-68953256D01*
X187011268Y-69033211D01*
X186932628Y-69187552D01*
X186879097Y-69352302D01*
X186852000Y-69523389D01*
X186852000Y-69696611D01*
X186879098Y-69867701D01*
X186932627Y-70032445D01*
X187011268Y-70186788D01*
X187113086Y-70326928D01*
X187235572Y-70449414D01*
X187375712Y-70551232D01*
X187530055Y-70629873D01*
X187694799Y-70683402D01*
X187865889Y-70710500D01*
X187865890Y-70710500D01*
X188839110Y-70710500D01*
X188839111Y-70710500D01*
X189010201Y-70683402D01*
X189174945Y-70629873D01*
X189329288Y-70551232D01*
X189469428Y-70449414D01*
X189557023Y-70361819D01*
X189618346Y-70328334D01*
X189644704Y-70325500D01*
X194218942Y-70325500D01*
X194285981Y-70345185D01*
X194324479Y-70384401D01*
X194407288Y-70518656D01*
X194531344Y-70642712D01*
X194578096Y-70671548D01*
X194624820Y-70723494D01*
X194637000Y-70777087D01*
X194637000Y-74600270D01*
X194617315Y-74667309D01*
X194600681Y-74687951D01*
X194532289Y-74756342D01*
X194440187Y-74905663D01*
X194440185Y-74905668D01*
X194432209Y-74929738D01*
X194385894Y-75069505D01*
X194346123Y-75126949D01*
X194281608Y-75153772D01*
X194268190Y-75154500D01*
X189055986Y-75154500D01*
X188988947Y-75134815D01*
X188943192Y-75082011D01*
X188933248Y-75012853D01*
X188941425Y-74983048D01*
X188973478Y-74905663D01*
X188978001Y-74894744D01*
X188992967Y-74819506D01*
X189003000Y-74769071D01*
X189003000Y-74640928D01*
X188978002Y-74515261D01*
X188978001Y-74515260D01*
X188978001Y-74515256D01*
X188928965Y-74396873D01*
X188928964Y-74396872D01*
X188928961Y-74396866D01*
X188857776Y-74290331D01*
X188857773Y-74290327D01*
X188767172Y-74199726D01*
X188767168Y-74199723D01*
X188660633Y-74128538D01*
X188660624Y-74128533D01*
X188542244Y-74079499D01*
X188542238Y-74079497D01*
X188416571Y-74054500D01*
X188416569Y-74054500D01*
X188288431Y-74054500D01*
X188288429Y-74054500D01*
X188162761Y-74079497D01*
X188162755Y-74079499D01*
X188044375Y-74128533D01*
X188044366Y-74128538D01*
X187937831Y-74199723D01*
X187937827Y-74199726D01*
X187847226Y-74290327D01*
X187847223Y-74290331D01*
X187776038Y-74396866D01*
X187776033Y-74396875D01*
X187726999Y-74515255D01*
X187726997Y-74515261D01*
X187702000Y-74640928D01*
X187702000Y-74640931D01*
X187702000Y-74769069D01*
X187702000Y-74769071D01*
X187701999Y-74769071D01*
X187726997Y-74894738D01*
X187727000Y-74894748D01*
X187763575Y-74983048D01*
X187771044Y-75052517D01*
X187739769Y-75114996D01*
X187679679Y-75150648D01*
X187649014Y-75154500D01*
X186996080Y-75154500D01*
X186851092Y-75183340D01*
X186851082Y-75183343D01*
X186714511Y-75239912D01*
X186714498Y-75239919D01*
X186591584Y-75322048D01*
X186591580Y-75322051D01*
X184017050Y-77896580D01*
X184017044Y-77896588D01*
X183967812Y-77970268D01*
X183967813Y-77970269D01*
X183934921Y-78019496D01*
X183934914Y-78019508D01*
X183878342Y-78156086D01*
X183878340Y-78156092D01*
X183849500Y-78301079D01*
X183849500Y-86234362D01*
X183829815Y-86301401D01*
X183790598Y-86339899D01*
X183722288Y-86382033D01*
X183681342Y-86407289D01*
X183557289Y-86531342D01*
X183465187Y-86680663D01*
X183465186Y-86680666D01*
X183410001Y-86847203D01*
X183410001Y-86847204D01*
X183410000Y-86847204D01*
X183399500Y-86949983D01*
X183399500Y-86949996D01*
X183399501Y-87575000D01*
X183399501Y-87575019D01*
X183410000Y-87677796D01*
X183410001Y-87677799D01*
X183465185Y-87844331D01*
X183465187Y-87844336D01*
X183557289Y-87993657D01*
X183650951Y-88087319D01*
X183684436Y-88148642D01*
X183679452Y-88218334D01*
X183650951Y-88262681D01*
X183557289Y-88356342D01*
X183465187Y-88505663D01*
X183465186Y-88505666D01*
X183410001Y-88672203D01*
X183410001Y-88672204D01*
X183410000Y-88672204D01*
X183399500Y-88774983D01*
X183399500Y-89400001D01*
X183399501Y-89400019D01*
X183410000Y-89502796D01*
X183410001Y-89502799D01*
X183465185Y-89669331D01*
X183465187Y-89669336D01*
X183472916Y-89681866D01*
X183557288Y-89818656D01*
X183681344Y-89942712D01*
X183790597Y-90010099D01*
X183837321Y-90062047D01*
X183849500Y-90115638D01*
X183849500Y-99200500D01*
X183829815Y-99267539D01*
X183777011Y-99313294D01*
X183725500Y-99324500D01*
X183371865Y-99324500D01*
X183304826Y-99304815D01*
X183271491Y-99270762D01*
X183270418Y-99271543D01*
X183125033Y-99071437D01*
X183125029Y-99071432D01*
X182953567Y-98899970D01*
X182953562Y-98899966D01*
X182757401Y-98757448D01*
X182757400Y-98757447D01*
X182757398Y-98757446D01*
X182649372Y-98702404D01*
X182541344Y-98647360D01*
X182310736Y-98572432D01*
X182071245Y-98534500D01*
X182071240Y-98534500D01*
X180308760Y-98534500D01*
X180308755Y-98534500D01*
X180069263Y-98572432D01*
X179838655Y-98647360D01*
X179622598Y-98757448D01*
X179426437Y-98899966D01*
X179426432Y-98899970D01*
X179254970Y-99071432D01*
X179254966Y-99071437D01*
X179112448Y-99267598D01*
X179002360Y-99483655D01*
X178927432Y-99714263D01*
X178889500Y-99953754D01*
X176400500Y-99953754D01*
X176400500Y-94745000D01*
X178910400Y-94745000D01*
X180535879Y-94745000D01*
X180516901Y-94790818D01*
X180490000Y-94926056D01*
X180490000Y-95063944D01*
X180516901Y-95199182D01*
X180535879Y-95245000D01*
X178910400Y-95245000D01*
X178927919Y-95355618D01*
X179002827Y-95586159D01*
X179112874Y-95802136D01*
X179255356Y-95998245D01*
X179426754Y-96169643D01*
X179622863Y-96312125D01*
X179838840Y-96422172D01*
X180069381Y-96497079D01*
X180308800Y-96535000D01*
X180940000Y-96535000D01*
X180940000Y-95649120D01*
X180985818Y-95668099D01*
X181121056Y-95695000D01*
X181258944Y-95695000D01*
X181394182Y-95668099D01*
X181440000Y-95649120D01*
X181440000Y-96535000D01*
X182071200Y-96535000D01*
X182310618Y-96497079D01*
X182541159Y-96422172D01*
X182757136Y-96312125D01*
X182953245Y-96169643D01*
X183124643Y-95998245D01*
X183267125Y-95802136D01*
X183377172Y-95586159D01*
X183452080Y-95355618D01*
X183469600Y-95245000D01*
X181844121Y-95245000D01*
X181863099Y-95199182D01*
X181890000Y-95063944D01*
X181890000Y-94926056D01*
X181863099Y-94790818D01*
X181844121Y-94745000D01*
X183469600Y-94745000D01*
X183452080Y-94634381D01*
X183377172Y-94403840D01*
X183267125Y-94187863D01*
X183124643Y-93991754D01*
X182953245Y-93820356D01*
X182757136Y-93677874D01*
X182541159Y-93567827D01*
X182310618Y-93492920D01*
X182071200Y-93455000D01*
X181440000Y-93455000D01*
X181440000Y-94340879D01*
X181394182Y-94321901D01*
X181258944Y-94295000D01*
X181121056Y-94295000D01*
X180985818Y-94321901D01*
X180940000Y-94340879D01*
X180940000Y-93455000D01*
X180308800Y-93455000D01*
X180069381Y-93492920D01*
X179838840Y-93567827D01*
X179622863Y-93677874D01*
X179426754Y-93820356D01*
X179255356Y-93991754D01*
X179112874Y-94187863D01*
X179002827Y-94403840D01*
X178927919Y-94634381D01*
X178910400Y-94745000D01*
X176400500Y-94745000D01*
X176400500Y-62249983D01*
X177999500Y-62249983D01*
X177999500Y-62875001D01*
X177999501Y-62875019D01*
X178010000Y-62977796D01*
X178010001Y-62977799D01*
X178049004Y-63095500D01*
X178065186Y-63144334D01*
X178153379Y-63287319D01*
X178157289Y-63293657D01*
X178250951Y-63387319D01*
X178284436Y-63448642D01*
X178279452Y-63518334D01*
X178250951Y-63562681D01*
X178157289Y-63656342D01*
X178065187Y-63805663D01*
X178065186Y-63805666D01*
X178010001Y-63972203D01*
X178010001Y-63972204D01*
X178010000Y-63972204D01*
X177999500Y-64074983D01*
X177999500Y-64700001D01*
X177999501Y-64700019D01*
X178010000Y-64802796D01*
X178010001Y-64802799D01*
X178042568Y-64901079D01*
X178065186Y-64969334D01*
X178157288Y-65118656D01*
X178281344Y-65242712D01*
X178390597Y-65310099D01*
X178437321Y-65362047D01*
X178449500Y-65415638D01*
X178449500Y-70648918D01*
X178449500Y-70648920D01*
X178449499Y-70648920D01*
X178478340Y-70793907D01*
X178478343Y-70793917D01*
X178534914Y-70930492D01*
X178567812Y-70979727D01*
X178567813Y-70979730D01*
X178617046Y-71053414D01*
X178617052Y-71053421D01*
X180212049Y-72648416D01*
X180316584Y-72752951D01*
X180316587Y-72752953D01*
X180316588Y-72752954D01*
X180439503Y-72835083D01*
X180439506Y-72835085D01*
X180489665Y-72855861D01*
X180496080Y-72858518D01*
X180576088Y-72891659D01*
X180692241Y-72914763D01*
X180715380Y-72919365D01*
X180721081Y-72920500D01*
X180721082Y-72920500D01*
X180721083Y-72920500D01*
X180868918Y-72920500D01*
X187095296Y-72920500D01*
X187162335Y-72940185D01*
X187182977Y-72956819D01*
X187235572Y-73009414D01*
X187375712Y-73111232D01*
X187530055Y-73189873D01*
X187694799Y-73243402D01*
X187865889Y-73270500D01*
X187865890Y-73270500D01*
X188839110Y-73270500D01*
X188839111Y-73270500D01*
X189010201Y-73243402D01*
X189174945Y-73189873D01*
X189329288Y-73111232D01*
X189469428Y-73009414D01*
X189591914Y-72886928D01*
X189693732Y-72746788D01*
X189772373Y-72592445D01*
X189825902Y-72427701D01*
X189853000Y-72256611D01*
X189853000Y-72083389D01*
X189825902Y-71912299D01*
X189772373Y-71747555D01*
X189693732Y-71593212D01*
X189591914Y-71453072D01*
X189469428Y-71330586D01*
X189329288Y-71228768D01*
X189174945Y-71150127D01*
X189010201Y-71096598D01*
X189010199Y-71096597D01*
X189010198Y-71096597D01*
X188878771Y-71075781D01*
X188839111Y-71069500D01*
X187865889Y-71069500D01*
X187826228Y-71075781D01*
X187694802Y-71096597D01*
X187530052Y-71150128D01*
X187375711Y-71228768D01*
X187295756Y-71286859D01*
X187235572Y-71330586D01*
X187235570Y-71330588D01*
X187235569Y-71330588D01*
X187182977Y-71383181D01*
X187121654Y-71416666D01*
X187095296Y-71419500D01*
X181157229Y-71419500D01*
X181090190Y-71399815D01*
X181069548Y-71383181D01*
X179986819Y-70300451D01*
X179953334Y-70239128D01*
X179950500Y-70212770D01*
X179950500Y-67134071D01*
X187651999Y-67134071D01*
X187676997Y-67259738D01*
X187676999Y-67259744D01*
X187726033Y-67378124D01*
X187726038Y-67378133D01*
X187797223Y-67484668D01*
X187797226Y-67484672D01*
X187887827Y-67575273D01*
X187887831Y-67575276D01*
X187994366Y-67646461D01*
X187994372Y-67646464D01*
X187994373Y-67646465D01*
X188112756Y-67695501D01*
X188112760Y-67695501D01*
X188112761Y-67695502D01*
X188238428Y-67720500D01*
X188238431Y-67720500D01*
X188366571Y-67720500D01*
X188451115Y-67703682D01*
X188492244Y-67695501D01*
X188610627Y-67646465D01*
X188717169Y-67575276D01*
X188807776Y-67484669D01*
X188878965Y-67378127D01*
X188928001Y-67259744D01*
X188953000Y-67134069D01*
X188953000Y-67005931D01*
X188953000Y-67005928D01*
X188928002Y-66880261D01*
X188928001Y-66880260D01*
X188928001Y-66880256D01*
X188878965Y-66761873D01*
X188878964Y-66761872D01*
X188878961Y-66761866D01*
X188807776Y-66655331D01*
X188807773Y-66655327D01*
X188717172Y-66564726D01*
X188717168Y-66564723D01*
X188610633Y-66493538D01*
X188610624Y-66493533D01*
X188492244Y-66444499D01*
X188492238Y-66444497D01*
X188366571Y-66419500D01*
X188366569Y-66419500D01*
X188238431Y-66419500D01*
X188238429Y-66419500D01*
X188112761Y-66444497D01*
X188112755Y-66444499D01*
X187994375Y-66493533D01*
X187994366Y-66493538D01*
X187887831Y-66564723D01*
X187887827Y-66564726D01*
X187797226Y-66655327D01*
X187797223Y-66655331D01*
X187726038Y-66761866D01*
X187726033Y-66761875D01*
X187676999Y-66880255D01*
X187676997Y-66880261D01*
X187652000Y-67005928D01*
X187652000Y-67005931D01*
X187652000Y-67134069D01*
X187652000Y-67134071D01*
X187651999Y-67134071D01*
X179950500Y-67134071D01*
X179950500Y-65415638D01*
X179970185Y-65348599D01*
X180009401Y-65310100D01*
X180118656Y-65242712D01*
X180242712Y-65118656D01*
X180334814Y-64969334D01*
X180389999Y-64802797D01*
X180400500Y-64700009D01*
X180400500Y-64574071D01*
X187651999Y-64574071D01*
X187676997Y-64699738D01*
X187676999Y-64699744D01*
X187726033Y-64818124D01*
X187726038Y-64818133D01*
X187797223Y-64924668D01*
X187797226Y-64924672D01*
X187887827Y-65015273D01*
X187887831Y-65015276D01*
X187994366Y-65086461D01*
X187994372Y-65086464D01*
X187994373Y-65086465D01*
X188112756Y-65135501D01*
X188112760Y-65135501D01*
X188112761Y-65135502D01*
X188238428Y-65160500D01*
X188238431Y-65160500D01*
X188366571Y-65160500D01*
X188456003Y-65142710D01*
X188492244Y-65135501D01*
X188610627Y-65086465D01*
X188717169Y-65015276D01*
X188807776Y-64924669D01*
X188878965Y-64818127D01*
X188928001Y-64699744D01*
X188936182Y-64658615D01*
X188953000Y-64574071D01*
X188953000Y-64445928D01*
X188928002Y-64320261D01*
X188928001Y-64320260D01*
X188928001Y-64320256D01*
X188878965Y-64201873D01*
X188878964Y-64201872D01*
X188878961Y-64201866D01*
X188807776Y-64095331D01*
X188807773Y-64095327D01*
X188717172Y-64004726D01*
X188717168Y-64004723D01*
X188610633Y-63933538D01*
X188610624Y-63933533D01*
X188492244Y-63884499D01*
X188492238Y-63884497D01*
X188366571Y-63859500D01*
X188366569Y-63859500D01*
X188238431Y-63859500D01*
X188238429Y-63859500D01*
X188112761Y-63884497D01*
X188112755Y-63884499D01*
X187994375Y-63933533D01*
X187994366Y-63933538D01*
X187887831Y-64004723D01*
X187887827Y-64004726D01*
X187797226Y-64095327D01*
X187797223Y-64095331D01*
X187726038Y-64201866D01*
X187726033Y-64201875D01*
X187676999Y-64320255D01*
X187676997Y-64320261D01*
X187652000Y-64445928D01*
X187652000Y-64445931D01*
X187652000Y-64574069D01*
X187652000Y-64574071D01*
X187651999Y-64574071D01*
X180400500Y-64574071D01*
X180400499Y-64320261D01*
X180400499Y-64074998D01*
X180400498Y-64074980D01*
X180389999Y-63972203D01*
X180389998Y-63972200D01*
X180377185Y-63933533D01*
X180334814Y-63805666D01*
X180242712Y-63656344D01*
X180149049Y-63562681D01*
X180115564Y-63501358D01*
X180120548Y-63431666D01*
X180149049Y-63387319D01*
X180187726Y-63348642D01*
X180242712Y-63293656D01*
X180334814Y-63144334D01*
X180389999Y-62977797D01*
X180400500Y-62875009D01*
X180400499Y-62249992D01*
X180389999Y-62147203D01*
X180360795Y-62059071D01*
X187676999Y-62059071D01*
X187701997Y-62184738D01*
X187701999Y-62184744D01*
X187751033Y-62303124D01*
X187751038Y-62303133D01*
X187822223Y-62409668D01*
X187822226Y-62409672D01*
X187912827Y-62500273D01*
X187912831Y-62500276D01*
X188019366Y-62571461D01*
X188019375Y-62571466D01*
X188046192Y-62582574D01*
X188137756Y-62620501D01*
X188137760Y-62620501D01*
X188137761Y-62620502D01*
X188263428Y-62645500D01*
X188263431Y-62645500D01*
X188391571Y-62645500D01*
X188476115Y-62628682D01*
X188517244Y-62620501D01*
X188635627Y-62571465D01*
X188742169Y-62500276D01*
X188832776Y-62409669D01*
X188903965Y-62303127D01*
X188953001Y-62184744D01*
X188978000Y-62059069D01*
X188978000Y-61930931D01*
X188978000Y-61930928D01*
X188953002Y-61805261D01*
X188953001Y-61805260D01*
X188953001Y-61805256D01*
X188903965Y-61686873D01*
X188903964Y-61686872D01*
X188903961Y-61686866D01*
X188832776Y-61580331D01*
X188832773Y-61580327D01*
X188742172Y-61489726D01*
X188742168Y-61489723D01*
X188635633Y-61418538D01*
X188635624Y-61418533D01*
X188517244Y-61369499D01*
X188517238Y-61369497D01*
X188391571Y-61344500D01*
X188391569Y-61344500D01*
X188263431Y-61344500D01*
X188263429Y-61344500D01*
X188137761Y-61369497D01*
X188137755Y-61369499D01*
X188019375Y-61418533D01*
X188019366Y-61418538D01*
X187912831Y-61489723D01*
X187912827Y-61489726D01*
X187822226Y-61580327D01*
X187822223Y-61580331D01*
X187751038Y-61686866D01*
X187751033Y-61686875D01*
X187701999Y-61805255D01*
X187701997Y-61805261D01*
X187677000Y-61930928D01*
X187677000Y-61930931D01*
X187677000Y-62059069D01*
X187677000Y-62059071D01*
X187676999Y-62059071D01*
X180360795Y-62059071D01*
X180334814Y-61980666D01*
X180242712Y-61831344D01*
X180118656Y-61707288D01*
X180118652Y-61707285D01*
X180044430Y-61661504D01*
X179997705Y-61609556D01*
X179986484Y-61540594D01*
X179996942Y-61507697D01*
X179995682Y-61507176D01*
X180032531Y-61418212D01*
X180065894Y-61337666D01*
X180067437Y-61329912D01*
X180096001Y-61186309D01*
X180100500Y-61163691D01*
X180100500Y-60986309D01*
X180100500Y-60986306D01*
X180100499Y-60986304D01*
X180065896Y-60812341D01*
X180065893Y-60812332D01*
X179998016Y-60648459D01*
X179998009Y-60648446D01*
X179899464Y-60500965D01*
X179899461Y-60500961D01*
X179774038Y-60375538D01*
X179774034Y-60375535D01*
X179626553Y-60276990D01*
X179626540Y-60276983D01*
X179462667Y-60209106D01*
X179462658Y-60209103D01*
X179288694Y-60174500D01*
X179288691Y-60174500D01*
X179111309Y-60174500D01*
X179111306Y-60174500D01*
X178937341Y-60209103D01*
X178937332Y-60209106D01*
X178773459Y-60276983D01*
X178773446Y-60276990D01*
X178625965Y-60375535D01*
X178625961Y-60375538D01*
X178500538Y-60500961D01*
X178500535Y-60500965D01*
X178401990Y-60648446D01*
X178401983Y-60648459D01*
X178334106Y-60812332D01*
X178334103Y-60812341D01*
X178299500Y-60986304D01*
X178299500Y-61163695D01*
X178334103Y-61337658D01*
X178334106Y-61337667D01*
X178404318Y-61507176D01*
X178402040Y-61508119D01*
X178414071Y-61565928D01*
X178389064Y-61631169D01*
X178355570Y-61661504D01*
X178281344Y-61707287D01*
X178157289Y-61831342D01*
X178065187Y-61980663D01*
X178065186Y-61980666D01*
X178010001Y-62147203D01*
X178010001Y-62147204D01*
X178010000Y-62147204D01*
X177999500Y-62249983D01*
X176400500Y-62249983D01*
X176400500Y-59499071D01*
X187676999Y-59499071D01*
X187701997Y-59624738D01*
X187701999Y-59624744D01*
X187751033Y-59743124D01*
X187751038Y-59743133D01*
X187822223Y-59849668D01*
X187822226Y-59849672D01*
X187912827Y-59940273D01*
X187912831Y-59940276D01*
X188019366Y-60011461D01*
X188019372Y-60011464D01*
X188019373Y-60011465D01*
X188137756Y-60060501D01*
X188137760Y-60060501D01*
X188137761Y-60060502D01*
X188263428Y-60085500D01*
X188263431Y-60085500D01*
X188391571Y-60085500D01*
X188476115Y-60068682D01*
X188517244Y-60060501D01*
X188635627Y-60011465D01*
X188742169Y-59940276D01*
X188832776Y-59849669D01*
X188903965Y-59743127D01*
X188953001Y-59624744D01*
X188978000Y-59499071D01*
X212676999Y-59499071D01*
X212701997Y-59624738D01*
X212701999Y-59624744D01*
X212751033Y-59743124D01*
X212751038Y-59743133D01*
X212822223Y-59849668D01*
X212822226Y-59849672D01*
X212912827Y-59940273D01*
X212912831Y-59940276D01*
X213019366Y-60011461D01*
X213019372Y-60011464D01*
X213019373Y-60011465D01*
X213137756Y-60060501D01*
X213137760Y-60060501D01*
X213137761Y-60060502D01*
X213263428Y-60085500D01*
X213263431Y-60085500D01*
X213391571Y-60085500D01*
X213476115Y-60068682D01*
X213517244Y-60060501D01*
X213635627Y-60011465D01*
X213742169Y-59940276D01*
X213832776Y-59849669D01*
X213903965Y-59743127D01*
X213953001Y-59624744D01*
X213978000Y-59499069D01*
X213978000Y-59370931D01*
X213978000Y-59370928D01*
X213953002Y-59245261D01*
X213953001Y-59245260D01*
X213953001Y-59245256D01*
X213903965Y-59126873D01*
X213903964Y-59126872D01*
X213903961Y-59126866D01*
X213832776Y-59020331D01*
X213832773Y-59020327D01*
X213742172Y-58929726D01*
X213742168Y-58929723D01*
X213635633Y-58858538D01*
X213635624Y-58858533D01*
X213517244Y-58809499D01*
X213517238Y-58809497D01*
X213391571Y-58784500D01*
X213391569Y-58784500D01*
X213263431Y-58784500D01*
X213263429Y-58784500D01*
X213137761Y-58809497D01*
X213137755Y-58809499D01*
X213019375Y-58858533D01*
X213019366Y-58858538D01*
X212912831Y-58929723D01*
X212912827Y-58929726D01*
X212822226Y-59020327D01*
X212822223Y-59020331D01*
X212751038Y-59126866D01*
X212751033Y-59126875D01*
X212701999Y-59245255D01*
X212701997Y-59245261D01*
X212677000Y-59370928D01*
X212677000Y-59370931D01*
X212677000Y-59499069D01*
X212677000Y-59499071D01*
X212676999Y-59499071D01*
X188978000Y-59499071D01*
X188978000Y-59499069D01*
X188978000Y-59370931D01*
X188978000Y-59370928D01*
X188953002Y-59245261D01*
X188953001Y-59245260D01*
X188953001Y-59245256D01*
X188903965Y-59126873D01*
X188903964Y-59126872D01*
X188903961Y-59126866D01*
X188832776Y-59020331D01*
X188832773Y-59020327D01*
X188742172Y-58929726D01*
X188742168Y-58929723D01*
X188635633Y-58858538D01*
X188635624Y-58858533D01*
X188517244Y-58809499D01*
X188517238Y-58809497D01*
X188391571Y-58784500D01*
X188391569Y-58784500D01*
X188263431Y-58784500D01*
X188263429Y-58784500D01*
X188137761Y-58809497D01*
X188137755Y-58809499D01*
X188019375Y-58858533D01*
X188019366Y-58858538D01*
X187912831Y-58929723D01*
X187912827Y-58929726D01*
X187822226Y-59020327D01*
X187822223Y-59020331D01*
X187751038Y-59126866D01*
X187751033Y-59126875D01*
X187701999Y-59245255D01*
X187701997Y-59245261D01*
X187677000Y-59370928D01*
X187677000Y-59370931D01*
X187677000Y-59499069D01*
X187677000Y-59499071D01*
X187676999Y-59499071D01*
X176400500Y-59499071D01*
X176400500Y-47530528D01*
X187999500Y-47530528D01*
X187999500Y-47839471D01*
X188034086Y-48146437D01*
X188034089Y-48146455D01*
X188102831Y-48447635D01*
X188102835Y-48447647D01*
X188204862Y-48739222D01*
X188204868Y-48739236D01*
X188338903Y-49017562D01*
X188338905Y-49017565D01*
X188503265Y-49279143D01*
X188695880Y-49520674D01*
X188914326Y-49739120D01*
X189155857Y-49931735D01*
X189417435Y-50096095D01*
X189695771Y-50230135D01*
X189695777Y-50230137D01*
X189987352Y-50332164D01*
X189987364Y-50332168D01*
X190288548Y-50400911D01*
X190288554Y-50400911D01*
X190288562Y-50400913D01*
X190493206Y-50423970D01*
X190595529Y-50435499D01*
X190595532Y-50435500D01*
X190595535Y-50435500D01*
X190904468Y-50435500D01*
X190904469Y-50435499D01*
X191061356Y-50417822D01*
X191211437Y-50400913D01*
X191211442Y-50400912D01*
X191211452Y-50400911D01*
X191512636Y-50332168D01*
X191804229Y-50230135D01*
X192082565Y-50096095D01*
X192344143Y-49931735D01*
X192585674Y-49739120D01*
X192804120Y-49520674D01*
X192996735Y-49279143D01*
X193161095Y-49017565D01*
X193295135Y-48739229D01*
X193397168Y-48447636D01*
X193465911Y-48146452D01*
X193500500Y-47839465D01*
X193500500Y-47530535D01*
X193500499Y-47530528D01*
X217999500Y-47530528D01*
X217999500Y-47839471D01*
X218034086Y-48146437D01*
X218034089Y-48146455D01*
X218102831Y-48447635D01*
X218102835Y-48447647D01*
X218204862Y-48739222D01*
X218204868Y-48739236D01*
X218338903Y-49017562D01*
X218338905Y-49017565D01*
X218503265Y-49279143D01*
X218695880Y-49520674D01*
X218914326Y-49739120D01*
X219155857Y-49931735D01*
X219417435Y-50096095D01*
X219695771Y-50230135D01*
X219695777Y-50230137D01*
X219987352Y-50332164D01*
X219987364Y-50332168D01*
X220288548Y-50400911D01*
X220288554Y-50400911D01*
X220288562Y-50400913D01*
X220493206Y-50423970D01*
X220595529Y-50435499D01*
X220595532Y-50435500D01*
X220595535Y-50435500D01*
X220904468Y-50435500D01*
X220904469Y-50435499D01*
X221061356Y-50417822D01*
X221211437Y-50400913D01*
X221211442Y-50400912D01*
X221211452Y-50400911D01*
X221512636Y-50332168D01*
X221804229Y-50230135D01*
X222082565Y-50096095D01*
X222344143Y-49931735D01*
X222585674Y-49739120D01*
X222804120Y-49520674D01*
X222996735Y-49279143D01*
X223161095Y-49017565D01*
X223295135Y-48739229D01*
X223397168Y-48447636D01*
X223465911Y-48146452D01*
X223500500Y-47839465D01*
X223500500Y-47530535D01*
X223465911Y-47223548D01*
X223397168Y-46922364D01*
X223295135Y-46630771D01*
X223161095Y-46352435D01*
X222996735Y-46090857D01*
X222804120Y-45849326D01*
X222585674Y-45630880D01*
X222344143Y-45438265D01*
X222082565Y-45273905D01*
X222082562Y-45273903D01*
X221804236Y-45139868D01*
X221804222Y-45139862D01*
X221512647Y-45037835D01*
X221512635Y-45037831D01*
X221211455Y-44969089D01*
X221211437Y-44969086D01*
X220904471Y-44934500D01*
X220904465Y-44934500D01*
X220595535Y-44934500D01*
X220595528Y-44934500D01*
X220288562Y-44969086D01*
X220288544Y-44969089D01*
X219987364Y-45037831D01*
X219987352Y-45037835D01*
X219695777Y-45139862D01*
X219695763Y-45139868D01*
X219417437Y-45273903D01*
X219155858Y-45438264D01*
X218914326Y-45630879D01*
X218695879Y-45849326D01*
X218503264Y-46090858D01*
X218338903Y-46352437D01*
X218204868Y-46630763D01*
X218204862Y-46630777D01*
X218102835Y-46922352D01*
X218102831Y-46922364D01*
X218034089Y-47223544D01*
X218034086Y-47223562D01*
X217999500Y-47530528D01*
X193500499Y-47530528D01*
X193465911Y-47223548D01*
X193397168Y-46922364D01*
X193295135Y-46630771D01*
X193161095Y-46352435D01*
X192996735Y-46090857D01*
X192804120Y-45849326D01*
X192585674Y-45630880D01*
X192344143Y-45438265D01*
X192082565Y-45273905D01*
X192082562Y-45273903D01*
X191804236Y-45139868D01*
X191804222Y-45139862D01*
X191512647Y-45037835D01*
X191512635Y-45037831D01*
X191211455Y-44969089D01*
X191211437Y-44969086D01*
X190904471Y-44934500D01*
X190904465Y-44934500D01*
X190595535Y-44934500D01*
X190595528Y-44934500D01*
X190288562Y-44969086D01*
X190288544Y-44969089D01*
X189987364Y-45037831D01*
X189987352Y-45037835D01*
X189695777Y-45139862D01*
X189695763Y-45139868D01*
X189417437Y-45273903D01*
X189155858Y-45438264D01*
X188914326Y-45630879D01*
X188695879Y-45849326D01*
X188503264Y-46090858D01*
X188338903Y-46352437D01*
X188204868Y-46630763D01*
X188204862Y-46630777D01*
X188102835Y-46922352D01*
X188102831Y-46922364D01*
X188034089Y-47223544D01*
X188034086Y-47223562D01*
X187999500Y-47530528D01*
X176400500Y-47530528D01*
X176400500Y-44399500D01*
X176420185Y-44332461D01*
X176472989Y-44286706D01*
X176524500Y-44275500D01*
X232375500Y-44275500D01*
X232442539Y-44295185D01*
G37*
%TD.AperFunction*%
%TA.AperFunction,Conductor*%
G36*
X196797288Y-113543242D02*
G01*
X196801413Y-113542966D01*
X196834425Y-113555451D01*
X196839019Y-113557986D01*
X196909505Y-113605084D01*
X196962531Y-113627048D01*
X197046088Y-113661659D01*
X197075735Y-113667556D01*
X197154012Y-113683127D01*
X197170068Y-113686320D01*
X197181970Y-113690032D01*
X197182106Y-113689567D01*
X197347426Y-113737597D01*
X197347429Y-113737597D01*
X197347431Y-113737598D01*
X197384306Y-113740500D01*
X197384314Y-113740500D01*
X199165686Y-113740500D01*
X199165694Y-113740500D01*
X199202569Y-113737598D01*
X199202571Y-113737597D01*
X199202573Y-113737597D01*
X199347733Y-113695424D01*
X199382328Y-113690500D01*
X199802770Y-113690500D01*
X199869809Y-113710185D01*
X199890451Y-113726819D01*
X200113181Y-113949549D01*
X200146666Y-114010872D01*
X200149500Y-114037230D01*
X200149500Y-115048918D01*
X200149500Y-115048920D01*
X200149499Y-115048920D01*
X200178340Y-115193907D01*
X200178343Y-115193917D01*
X200234914Y-115330492D01*
X200267812Y-115379727D01*
X200267813Y-115379730D01*
X200317046Y-115453414D01*
X200317052Y-115453421D01*
X201162707Y-116299074D01*
X201162717Y-116299085D01*
X201167047Y-116303415D01*
X201167048Y-116303416D01*
X201271584Y-116407952D01*
X201346596Y-116458072D01*
X201394506Y-116490084D01*
X201531088Y-116546659D01*
X201676078Y-116575499D01*
X201676082Y-116575500D01*
X201676083Y-116575500D01*
X201823919Y-116575500D01*
X201823919Y-116575499D01*
X201937623Y-116552883D01*
X201961814Y-116550500D01*
X204125270Y-116550500D01*
X204192309Y-116570185D01*
X204212951Y-116586819D01*
X204281344Y-116655212D01*
X204390597Y-116722599D01*
X204437321Y-116774547D01*
X204449500Y-116828138D01*
X204449500Y-124448918D01*
X204449500Y-124448920D01*
X204449499Y-124448920D01*
X204478340Y-124593907D01*
X204478343Y-124593917D01*
X204534913Y-124730490D01*
X204534916Y-124730495D01*
X204545663Y-124746578D01*
X204545664Y-124746583D01*
X204545666Y-124746583D01*
X204617051Y-124853420D01*
X204617052Y-124853421D01*
X205106876Y-125343244D01*
X205140361Y-125404567D01*
X205135377Y-125474258D01*
X205093506Y-125530192D01*
X205088087Y-125534027D01*
X205025961Y-125575538D01*
X204900538Y-125700961D01*
X204900535Y-125700965D01*
X204871519Y-125744391D01*
X204817906Y-125789196D01*
X204768417Y-125799500D01*
X203207328Y-125799500D01*
X203172733Y-125794576D01*
X203027573Y-125752402D01*
X203027567Y-125752401D01*
X202990701Y-125749500D01*
X202990694Y-125749500D01*
X201109306Y-125749500D01*
X201109298Y-125749500D01*
X201072432Y-125752401D01*
X201072426Y-125752402D01*
X200914606Y-125798254D01*
X200914603Y-125798255D01*
X200773137Y-125881917D01*
X200773129Y-125881923D01*
X200656923Y-125998129D01*
X200656917Y-125998137D01*
X200573255Y-126139603D01*
X200573254Y-126139606D01*
X200527402Y-126297426D01*
X200527401Y-126297432D01*
X200524500Y-126334298D01*
X200524500Y-126765701D01*
X200527401Y-126802567D01*
X200527402Y-126802573D01*
X200573254Y-126960393D01*
X200573255Y-126960396D01*
X200656917Y-127101862D01*
X200661702Y-127108031D01*
X200659256Y-127109927D01*
X200685857Y-127158642D01*
X200680873Y-127228334D01*
X200660069Y-127260703D01*
X200661702Y-127261969D01*
X200656917Y-127268137D01*
X200573255Y-127409603D01*
X200573254Y-127409606D01*
X200527402Y-127567426D01*
X200527401Y-127567432D01*
X200524500Y-127604298D01*
X200524500Y-128035701D01*
X200527401Y-128072567D01*
X200527402Y-128072573D01*
X200573254Y-128230393D01*
X200573255Y-128230396D01*
X200656917Y-128371862D01*
X200656923Y-128371870D01*
X200773129Y-128488076D01*
X200773133Y-128488079D01*
X200773135Y-128488081D01*
X200914602Y-128571744D01*
X200927269Y-128575424D01*
X201072426Y-128617597D01*
X201072429Y-128617597D01*
X201072431Y-128617598D01*
X201109306Y-128620500D01*
X201109314Y-128620500D01*
X202990686Y-128620500D01*
X202990694Y-128620500D01*
X203027569Y-128617598D01*
X203027571Y-128617597D01*
X203027573Y-128617597D01*
X203069191Y-128605505D01*
X203185398Y-128571744D01*
X203326865Y-128488081D01*
X203443081Y-128371865D01*
X203526744Y-128230398D01*
X203572598Y-128072569D01*
X203575500Y-128035694D01*
X203575500Y-127604306D01*
X203572598Y-127567431D01*
X203572597Y-127567426D01*
X203541124Y-127459095D01*
X203541323Y-127389225D01*
X203579265Y-127330555D01*
X203642904Y-127301712D01*
X203660200Y-127300500D01*
X205398920Y-127300500D01*
X205496462Y-127281096D01*
X205543913Y-127271658D01*
X205680495Y-127215084D01*
X205739737Y-127175500D01*
X205740831Y-127174768D01*
X205785560Y-127156231D01*
X205862666Y-127140894D01*
X206026547Y-127073013D01*
X206174035Y-126974464D01*
X206299464Y-126849035D01*
X206340973Y-126786911D01*
X206394583Y-126742109D01*
X206463908Y-126733400D01*
X206526936Y-126763555D01*
X206531755Y-126768123D01*
X208166586Y-128402954D01*
X208189422Y-128418211D01*
X208240270Y-128452186D01*
X208289505Y-128485084D01*
X208346080Y-128508518D01*
X208426088Y-128541659D01*
X208542241Y-128564763D01*
X208561468Y-128568587D01*
X208571081Y-128570500D01*
X208571082Y-128570500D01*
X208571083Y-128570500D01*
X208718918Y-128570500D01*
X210192672Y-128570500D01*
X210227267Y-128575424D01*
X210372426Y-128617597D01*
X210372429Y-128617597D01*
X210372431Y-128617598D01*
X210409306Y-128620500D01*
X210409314Y-128620500D01*
X212290686Y-128620500D01*
X212290694Y-128620500D01*
X212327569Y-128617598D01*
X212327571Y-128617597D01*
X212327573Y-128617597D01*
X212369191Y-128605505D01*
X212485398Y-128571744D01*
X212626865Y-128488081D01*
X212666195Y-128448751D01*
X212737819Y-128377128D01*
X212799142Y-128343643D01*
X212868834Y-128348627D01*
X212924767Y-128390499D01*
X212949184Y-128455963D01*
X212949500Y-128464809D01*
X212949500Y-130112770D01*
X212929815Y-130179809D01*
X212913181Y-130200451D01*
X212325451Y-130788181D01*
X212264128Y-130821666D01*
X212237770Y-130824500D01*
X206493534Y-130824500D01*
X206348546Y-130853340D01*
X206348540Y-130853342D01*
X206211962Y-130909914D01*
X206211950Y-130909921D01*
X206162723Y-130942813D01*
X206089042Y-130992044D01*
X206089034Y-130992050D01*
X205825451Y-131255635D01*
X205764128Y-131289120D01*
X205737770Y-131291954D01*
X205274499Y-131291954D01*
X205207460Y-131272269D01*
X205161705Y-131219465D01*
X205150499Y-131167954D01*
X205150499Y-130494583D01*
X205150498Y-130494577D01*
X205150497Y-130494570D01*
X205144091Y-130434971D01*
X205093796Y-130300123D01*
X205093795Y-130300122D01*
X205093793Y-130300118D01*
X205007547Y-130184909D01*
X205007544Y-130184906D01*
X204892335Y-130098660D01*
X204892328Y-130098656D01*
X204757482Y-130048362D01*
X204757483Y-130048362D01*
X204697883Y-130041955D01*
X204697881Y-130041954D01*
X204697873Y-130041954D01*
X204697864Y-130041954D01*
X201602129Y-130041954D01*
X201602123Y-130041955D01*
X201542516Y-130048362D01*
X201407671Y-130098656D01*
X201407664Y-130098660D01*
X201292455Y-130184906D01*
X201292452Y-130184909D01*
X201206206Y-130300118D01*
X201206202Y-130300125D01*
X201155908Y-130434971D01*
X201149501Y-130494570D01*
X201149501Y-130494577D01*
X201149500Y-130494589D01*
X201149500Y-131167954D01*
X201129815Y-131234993D01*
X201077011Y-131280748D01*
X201025500Y-131291954D01*
X196999683Y-131291954D01*
X196932644Y-131272269D01*
X196912002Y-131255635D01*
X192562464Y-126906096D01*
X194900000Y-126906096D01*
X194902897Y-126948824D01*
X194948831Y-127133523D01*
X195033390Y-127304022D01*
X195033392Y-127304025D01*
X195152632Y-127452366D01*
X195152633Y-127452367D01*
X195300974Y-127571607D01*
X195300977Y-127571609D01*
X195471476Y-127656168D01*
X195656175Y-127702102D01*
X195698903Y-127705000D01*
X196650000Y-127705000D01*
X197150000Y-127705000D01*
X198101097Y-127705000D01*
X198143824Y-127702102D01*
X198328523Y-127656168D01*
X198499022Y-127571609D01*
X198499025Y-127571607D01*
X198647366Y-127452367D01*
X198647367Y-127452366D01*
X198766607Y-127304025D01*
X198766609Y-127304022D01*
X198851168Y-127133523D01*
X198897102Y-126948824D01*
X198900000Y-126906096D01*
X198900000Y-124455000D01*
X197150000Y-124455000D01*
X197150000Y-127705000D01*
X196650000Y-127705000D01*
X196650000Y-124455000D01*
X194900000Y-124455000D01*
X194900000Y-126906096D01*
X192562464Y-126906096D01*
X192486819Y-126830451D01*
X192453334Y-126769128D01*
X192450500Y-126742770D01*
X192450500Y-121503903D01*
X194900000Y-121503903D01*
X194900000Y-123955000D01*
X196650000Y-123955000D01*
X197150000Y-123955000D01*
X198900000Y-123955000D01*
X198900000Y-122990001D01*
X200527704Y-122990001D01*
X200527899Y-122992486D01*
X200573718Y-123150198D01*
X200657314Y-123291552D01*
X200657321Y-123291561D01*
X200773438Y-123407678D01*
X200773447Y-123407685D01*
X200914803Y-123491282D01*
X200914806Y-123491283D01*
X201072504Y-123537099D01*
X201072510Y-123537100D01*
X201109350Y-123539999D01*
X201109366Y-123540000D01*
X201800000Y-123540000D01*
X202300000Y-123540000D01*
X202990634Y-123540000D01*
X202990649Y-123539999D01*
X203027489Y-123537100D01*
X203027495Y-123537099D01*
X203185193Y-123491283D01*
X203185196Y-123491282D01*
X203326552Y-123407685D01*
X203326561Y-123407678D01*
X203442678Y-123291561D01*
X203442685Y-123291552D01*
X203526281Y-123150198D01*
X203572100Y-122992486D01*
X203572295Y-122990001D01*
X203572295Y-122990000D01*
X202300000Y-122990000D01*
X202300000Y-123540000D01*
X201800000Y-123540000D01*
X201800000Y-122990000D01*
X200527705Y-122990000D01*
X200527704Y-122990001D01*
X198900000Y-122990001D01*
X198900000Y-121720001D01*
X200527704Y-121720001D01*
X200527899Y-121722486D01*
X200573718Y-121880198D01*
X200657314Y-122021552D01*
X200662100Y-122027722D01*
X200659753Y-122029542D01*
X200686564Y-122078642D01*
X200681580Y-122148334D01*
X200660541Y-122181069D01*
X200662100Y-122182278D01*
X200657314Y-122188447D01*
X200573718Y-122329801D01*
X200527899Y-122487513D01*
X200527704Y-122489998D01*
X200527705Y-122490000D01*
X201800000Y-122490000D01*
X202300000Y-122490000D01*
X203572295Y-122490000D01*
X203572295Y-122489998D01*
X203572100Y-122487513D01*
X203526281Y-122329801D01*
X203442685Y-122188447D01*
X203437900Y-122182278D01*
X203440252Y-122180453D01*
X203413445Y-122131405D01*
X203418402Y-122061712D01*
X203439465Y-122028936D01*
X203437900Y-122027722D01*
X203442685Y-122021552D01*
X203526281Y-121880198D01*
X203572100Y-121722486D01*
X203572295Y-121720001D01*
X203572295Y-121720000D01*
X202300000Y-121720000D01*
X202300000Y-122490000D01*
X201800000Y-122490000D01*
X201800000Y-121720000D01*
X200527705Y-121720000D01*
X200527704Y-121720001D01*
X198900000Y-121720001D01*
X198900000Y-121503903D01*
X198897102Y-121461175D01*
X198851168Y-121276476D01*
X198766609Y-121105977D01*
X198766607Y-121105974D01*
X198647367Y-120957633D01*
X198647366Y-120957632D01*
X198499025Y-120838392D01*
X198499022Y-120838390D01*
X198328523Y-120753831D01*
X198143824Y-120707897D01*
X198101097Y-120705000D01*
X197150000Y-120705000D01*
X197150000Y-123955000D01*
X196650000Y-123955000D01*
X196650000Y-120705000D01*
X195698903Y-120705000D01*
X195656175Y-120707897D01*
X195471476Y-120753831D01*
X195300977Y-120838390D01*
X195300974Y-120838392D01*
X195152633Y-120957632D01*
X195152632Y-120957633D01*
X195033392Y-121105974D01*
X195033390Y-121105977D01*
X194948831Y-121276476D01*
X194902897Y-121461175D01*
X194900000Y-121503903D01*
X192450500Y-121503903D01*
X192450500Y-120450001D01*
X200527704Y-120450001D01*
X200527899Y-120452486D01*
X200573718Y-120610198D01*
X200657314Y-120751552D01*
X200662100Y-120757722D01*
X200659753Y-120759542D01*
X200686564Y-120808642D01*
X200681580Y-120878334D01*
X200660541Y-120911069D01*
X200662100Y-120912278D01*
X200657314Y-120918447D01*
X200573718Y-121059801D01*
X200527899Y-121217513D01*
X200527704Y-121219998D01*
X200527705Y-121220000D01*
X201800000Y-121220000D01*
X202300000Y-121220000D01*
X203572295Y-121220000D01*
X203572295Y-121219998D01*
X203572100Y-121217513D01*
X203526281Y-121059801D01*
X203442685Y-120918447D01*
X203437900Y-120912278D01*
X203440252Y-120910453D01*
X203413445Y-120861405D01*
X203418402Y-120791712D01*
X203439465Y-120758936D01*
X203437900Y-120757722D01*
X203442685Y-120751552D01*
X203526281Y-120610198D01*
X203572100Y-120452486D01*
X203572295Y-120450001D01*
X203572295Y-120450000D01*
X202300000Y-120450000D01*
X202300000Y-121220000D01*
X201800000Y-121220000D01*
X201800000Y-120450000D01*
X200527705Y-120450000D01*
X200527704Y-120450001D01*
X192450500Y-120450001D01*
X192450500Y-119180001D01*
X200527704Y-119180001D01*
X200527899Y-119182486D01*
X200573718Y-119340198D01*
X200657314Y-119481552D01*
X200662100Y-119487722D01*
X200659753Y-119489542D01*
X200686564Y-119538642D01*
X200681580Y-119608334D01*
X200660541Y-119641069D01*
X200662100Y-119642278D01*
X200657314Y-119648447D01*
X200573718Y-119789801D01*
X200527899Y-119947513D01*
X200527704Y-119949998D01*
X200527705Y-119950000D01*
X201800000Y-119950000D01*
X202300000Y-119950000D01*
X203572295Y-119950000D01*
X203572295Y-119949998D01*
X203572100Y-119947513D01*
X203526281Y-119789801D01*
X203442685Y-119648447D01*
X203437900Y-119642278D01*
X203440252Y-119640453D01*
X203413445Y-119591405D01*
X203418402Y-119521712D01*
X203439465Y-119488936D01*
X203437900Y-119487722D01*
X203442685Y-119481552D01*
X203526281Y-119340198D01*
X203572100Y-119182486D01*
X203572295Y-119180001D01*
X203572295Y-119180000D01*
X202300000Y-119180000D01*
X202300000Y-119950000D01*
X201800000Y-119950000D01*
X201800000Y-119180000D01*
X200527705Y-119180000D01*
X200527704Y-119180001D01*
X192450500Y-119180001D01*
X192450500Y-117863270D01*
X192470185Y-117796231D01*
X192522989Y-117750476D01*
X192592147Y-117740532D01*
X192655703Y-117769557D01*
X192677600Y-117794376D01*
X192717048Y-117853416D01*
X192717052Y-117853420D01*
X192717052Y-117853421D01*
X193321584Y-118457952D01*
X193321586Y-118457954D01*
X193351058Y-118477645D01*
X193395270Y-118507186D01*
X193444505Y-118540084D01*
X193444506Y-118540084D01*
X193444507Y-118540085D01*
X193444509Y-118540086D01*
X193581082Y-118596656D01*
X193581087Y-118596658D01*
X193581091Y-118596658D01*
X193581092Y-118596659D01*
X193726079Y-118625500D01*
X193726082Y-118625500D01*
X193726083Y-118625500D01*
X193873918Y-118625500D01*
X194915390Y-118625500D01*
X194982429Y-118645185D01*
X194989358Y-118650228D01*
X195156079Y-118761628D01*
X195156092Y-118761635D01*
X195248715Y-118800000D01*
X195338165Y-118837051D01*
X195338169Y-118837051D01*
X195338170Y-118837052D01*
X195531456Y-118875500D01*
X195531459Y-118875500D01*
X195728543Y-118875500D01*
X195858582Y-118849632D01*
X195921835Y-118837051D01*
X196103914Y-118761632D01*
X196267782Y-118652139D01*
X196407139Y-118512782D01*
X196516632Y-118348914D01*
X196592051Y-118166835D01*
X196622370Y-118014414D01*
X196630500Y-117973543D01*
X196630500Y-117776456D01*
X196592052Y-117583170D01*
X196592051Y-117583169D01*
X196592051Y-117583165D01*
X196570107Y-117530186D01*
X196514920Y-117396952D01*
X196507451Y-117327483D01*
X196538726Y-117265004D01*
X196598815Y-117229352D01*
X196629481Y-117225500D01*
X197170519Y-117225500D01*
X197237558Y-117245185D01*
X197283313Y-117297989D01*
X197293257Y-117367147D01*
X197285080Y-117396952D01*
X197207950Y-117583160D01*
X197207947Y-117583170D01*
X197169500Y-117776456D01*
X197169500Y-117776459D01*
X197169500Y-117973541D01*
X197169500Y-117973543D01*
X197169499Y-117973543D01*
X197207947Y-118166829D01*
X197207950Y-118166839D01*
X197283364Y-118348907D01*
X197283371Y-118348920D01*
X197392860Y-118512781D01*
X197392863Y-118512785D01*
X197532214Y-118652136D01*
X197532218Y-118652139D01*
X197696079Y-118761628D01*
X197696092Y-118761635D01*
X197788715Y-118800000D01*
X197878165Y-118837051D01*
X197878169Y-118837051D01*
X197878170Y-118837052D01*
X198071456Y-118875500D01*
X198071459Y-118875500D01*
X198268543Y-118875500D01*
X198398582Y-118849632D01*
X198461835Y-118837051D01*
X198643914Y-118761632D01*
X198766088Y-118679998D01*
X200527704Y-118679998D01*
X200527705Y-118680000D01*
X201800000Y-118680000D01*
X202300000Y-118680000D01*
X203572295Y-118680000D01*
X203572295Y-118679998D01*
X203572100Y-118677513D01*
X203526281Y-118519801D01*
X203442685Y-118378447D01*
X203442678Y-118378438D01*
X203326561Y-118262321D01*
X203326552Y-118262314D01*
X203185196Y-118178717D01*
X203185193Y-118178716D01*
X203027495Y-118132900D01*
X203027489Y-118132899D01*
X202990649Y-118130000D01*
X202300000Y-118130000D01*
X202300000Y-118680000D01*
X201800000Y-118680000D01*
X201800000Y-118130000D01*
X201109350Y-118130000D01*
X201072510Y-118132899D01*
X201072504Y-118132900D01*
X200914806Y-118178716D01*
X200914803Y-118178717D01*
X200773447Y-118262314D01*
X200773438Y-118262321D01*
X200657321Y-118378438D01*
X200657314Y-118378447D01*
X200573718Y-118519801D01*
X200527899Y-118677513D01*
X200527704Y-118679998D01*
X198766088Y-118679998D01*
X198807782Y-118652139D01*
X198814736Y-118645185D01*
X198823259Y-118636663D01*
X198947136Y-118512785D01*
X198947139Y-118512782D01*
X199056632Y-118348914D01*
X199132051Y-118166835D01*
X199162370Y-118014414D01*
X199170500Y-117973543D01*
X199170500Y-117776456D01*
X199132052Y-117583170D01*
X199132051Y-117583169D01*
X199132051Y-117583165D01*
X199110107Y-117530186D01*
X199056635Y-117401092D01*
X199056628Y-117401079D01*
X198943755Y-117232153D01*
X198945278Y-117231135D01*
X198921331Y-117174723D01*
X198920500Y-117160389D01*
X198920500Y-116871079D01*
X198891659Y-116726092D01*
X198891658Y-116726091D01*
X198891658Y-116726087D01*
X198838691Y-116598212D01*
X198835087Y-116589511D01*
X198835080Y-116589498D01*
X198757500Y-116473391D01*
X198736622Y-116406713D01*
X198755107Y-116339333D01*
X198807086Y-116292643D01*
X198860602Y-116280500D01*
X199165686Y-116280500D01*
X199165694Y-116280500D01*
X199202569Y-116277598D01*
X199202571Y-116277597D01*
X199202573Y-116277597D01*
X199244191Y-116265505D01*
X199360398Y-116231744D01*
X199501865Y-116148081D01*
X199618081Y-116031865D01*
X199701744Y-115890398D01*
X199747598Y-115732569D01*
X199750500Y-115695694D01*
X199750500Y-115264306D01*
X199747598Y-115227431D01*
X199744906Y-115218166D01*
X199701745Y-115069606D01*
X199701744Y-115069603D01*
X199701744Y-115069602D01*
X199618081Y-114928135D01*
X199618079Y-114928133D01*
X199618076Y-114928129D01*
X199501870Y-114811923D01*
X199501862Y-114811917D01*
X199360396Y-114728255D01*
X199360393Y-114728254D01*
X199202573Y-114682402D01*
X199202567Y-114682401D01*
X199165701Y-114679500D01*
X199165694Y-114679500D01*
X197384306Y-114679500D01*
X197384298Y-114679500D01*
X197347432Y-114682401D01*
X197347426Y-114682402D01*
X197202267Y-114724576D01*
X197167672Y-114729500D01*
X197067230Y-114729500D01*
X197000191Y-114709815D01*
X196979549Y-114693181D01*
X196686819Y-114400451D01*
X196653334Y-114339128D01*
X196650500Y-114312770D01*
X196650500Y-113664010D01*
X196651868Y-113659348D01*
X196650858Y-113654598D01*
X196661617Y-113626149D01*
X196670185Y-113596971D01*
X196673855Y-113593790D01*
X196675574Y-113589246D01*
X196700010Y-113571127D01*
X196722989Y-113551216D01*
X196727796Y-113550524D01*
X196731699Y-113547631D01*
X196762043Y-113545600D01*
X196792147Y-113541272D01*
X196797288Y-113543242D01*
G37*
%TD.AperFunction*%
%TA.AperFunction,Conductor*%
G36*
X207668726Y-93123708D02*
G01*
X207724659Y-93165580D01*
X207749076Y-93231044D01*
X207734224Y-93299317D01*
X207728495Y-93308780D01*
X207701989Y-93348448D01*
X207701983Y-93348459D01*
X207634106Y-93512332D01*
X207634103Y-93512341D01*
X207599500Y-93686304D01*
X207599500Y-93863695D01*
X207634103Y-94037658D01*
X207634106Y-94037667D01*
X207701983Y-94201540D01*
X207701990Y-94201553D01*
X207800535Y-94349034D01*
X207800538Y-94349038D01*
X207925961Y-94474461D01*
X207925965Y-94474464D01*
X208073446Y-94573009D01*
X208073459Y-94573016D01*
X208150106Y-94604763D01*
X208237334Y-94640894D01*
X208284318Y-94650239D01*
X208346227Y-94682622D01*
X208347807Y-94684175D01*
X209147049Y-95483416D01*
X209251584Y-95587951D01*
X209251587Y-95587953D01*
X209251588Y-95587954D01*
X209374503Y-95670083D01*
X209374506Y-95670085D01*
X209424665Y-95690861D01*
X209431080Y-95693518D01*
X209511088Y-95726659D01*
X209627241Y-95749763D01*
X209650380Y-95754365D01*
X209656081Y-95755500D01*
X209656082Y-95755500D01*
X209656083Y-95755500D01*
X209803918Y-95755500D01*
X209858771Y-95755500D01*
X209925810Y-95775185D01*
X209971565Y-95827989D01*
X209981509Y-95897147D01*
X209952484Y-95960703D01*
X209946452Y-95967181D01*
X208417047Y-97496584D01*
X208417045Y-97496586D01*
X208387444Y-97540891D01*
X208387442Y-97540894D01*
X208334914Y-97619507D01*
X208278343Y-97756082D01*
X208278340Y-97756092D01*
X208249500Y-97901079D01*
X208249500Y-112946862D01*
X208246625Y-112956653D01*
X208247890Y-112966779D01*
X208236947Y-112989612D01*
X208229815Y-113013901D01*
X208221300Y-113022259D01*
X208217693Y-113029787D01*
X208190596Y-113052401D01*
X208115780Y-113098547D01*
X208048387Y-113116987D01*
X207981724Y-113096064D01*
X207936955Y-113042421D01*
X207936167Y-113040567D01*
X207898013Y-112948453D01*
X207898011Y-112948450D01*
X207898009Y-112948446D01*
X207799464Y-112800965D01*
X207799461Y-112800961D01*
X207674038Y-112675538D01*
X207674034Y-112675535D01*
X207526553Y-112576990D01*
X207526540Y-112576983D01*
X207362667Y-112509106D01*
X207362658Y-112509103D01*
X207188694Y-112474500D01*
X207188691Y-112474500D01*
X207011309Y-112474500D01*
X207011306Y-112474500D01*
X206837341Y-112509103D01*
X206837332Y-112509106D01*
X206673459Y-112576983D01*
X206673446Y-112576990D01*
X206525965Y-112675535D01*
X206525961Y-112675538D01*
X206400538Y-112800961D01*
X206400535Y-112800965D01*
X206301990Y-112948446D01*
X206301985Y-112948455D01*
X206263876Y-113040461D01*
X206220035Y-113094864D01*
X206153741Y-113116929D01*
X206086042Y-113099650D01*
X206084219Y-113098547D01*
X205969340Y-113027689D01*
X205969335Y-113027687D01*
X205969334Y-113027686D01*
X205802797Y-112972501D01*
X205802795Y-112972500D01*
X205700010Y-112962000D01*
X204699998Y-112962000D01*
X204699980Y-112962001D01*
X204597203Y-112972500D01*
X204597200Y-112972501D01*
X204536185Y-112992720D01*
X204466356Y-112995122D01*
X204406315Y-112959390D01*
X204375122Y-112896869D01*
X204373447Y-112866903D01*
X204376366Y-112822372D01*
X203474024Y-111920032D01*
X203505258Y-111907095D01*
X203628097Y-111825017D01*
X203732563Y-111720551D01*
X203814641Y-111597712D01*
X203827577Y-111566479D01*
X204729917Y-112468819D01*
X204729919Y-112468819D01*
X204816499Y-112355988D01*
X204816511Y-112355970D01*
X204947590Y-112128936D01*
X204947595Y-112128925D01*
X205047924Y-111886709D01*
X205115777Y-111633474D01*
X205115779Y-111633463D01*
X205149999Y-111373548D01*
X205150000Y-111373534D01*
X205150000Y-111111373D01*
X205149999Y-111111359D01*
X205115779Y-110851444D01*
X205115777Y-110851433D01*
X205047924Y-110598198D01*
X204947595Y-110355982D01*
X204947590Y-110355971D01*
X204816511Y-110128937D01*
X204816505Y-110128929D01*
X204729918Y-110016087D01*
X204729917Y-110016087D01*
X203827577Y-110918427D01*
X203814641Y-110887196D01*
X203732563Y-110764357D01*
X203628097Y-110659891D01*
X203505258Y-110577813D01*
X203474023Y-110564875D01*
X204376365Y-109662534D01*
X204263524Y-109575948D01*
X204263516Y-109575942D01*
X204036482Y-109444863D01*
X204036471Y-109444858D01*
X203794255Y-109344529D01*
X203541020Y-109276676D01*
X203541009Y-109276674D01*
X203281094Y-109242454D01*
X203018905Y-109242454D01*
X202758990Y-109276674D01*
X202758979Y-109276676D01*
X202505744Y-109344529D01*
X202263528Y-109444858D01*
X202263517Y-109444863D01*
X202036471Y-109575950D01*
X201923633Y-109662533D01*
X201923633Y-109662534D01*
X202825974Y-110564875D01*
X202794742Y-110577813D01*
X202671903Y-110659891D01*
X202567437Y-110764357D01*
X202485359Y-110887196D01*
X202472421Y-110918429D01*
X201570080Y-110016087D01*
X201570079Y-110016087D01*
X201483496Y-110128925D01*
X201352409Y-110355971D01*
X201352404Y-110355982D01*
X201252075Y-110598198D01*
X201184222Y-110851433D01*
X201184220Y-110851444D01*
X201150000Y-111111359D01*
X201150000Y-111373534D01*
X201150001Y-111373551D01*
X201167742Y-111508310D01*
X201156976Y-111577345D01*
X201110596Y-111629601D01*
X201043327Y-111648486D01*
X200976527Y-111628005D01*
X200957122Y-111612176D01*
X200509674Y-111164727D01*
X200509673Y-111164726D01*
X200509669Y-111164723D01*
X200403127Y-111093535D01*
X200372570Y-111080878D01*
X200284744Y-111044499D01*
X200284739Y-111044498D01*
X200242965Y-111036188D01*
X200181055Y-111003802D01*
X200146481Y-110943086D01*
X200150222Y-110873317D01*
X200179475Y-110826892D01*
X200682952Y-110323416D01*
X200732186Y-110249729D01*
X200765084Y-110200495D01*
X200796148Y-110125500D01*
X200821659Y-110063912D01*
X200850500Y-109918917D01*
X200850500Y-109771082D01*
X200850500Y-97349361D01*
X200870185Y-97282322D01*
X200886816Y-97261682D01*
X200899464Y-97249035D01*
X200998013Y-97101547D01*
X201065894Y-96937666D01*
X201100500Y-96763691D01*
X201100500Y-96586309D01*
X201100500Y-96586306D01*
X201100499Y-96586304D01*
X201065896Y-96412341D01*
X201065893Y-96412332D01*
X200998016Y-96248459D01*
X200998009Y-96248446D01*
X200964563Y-96198391D01*
X200943685Y-96131714D01*
X200962169Y-96064334D01*
X201014148Y-96017643D01*
X201067665Y-96005500D01*
X204368543Y-96005500D01*
X204410380Y-95997177D01*
X204519179Y-95975536D01*
X204561836Y-95967051D01*
X204615165Y-95944961D01*
X204743914Y-95891632D01*
X204907782Y-95782139D01*
X205047139Y-95642782D01*
X205047139Y-95642780D01*
X205057347Y-95632573D01*
X205057348Y-95632570D01*
X207537711Y-93152208D01*
X207599034Y-93118724D01*
X207668726Y-93123708D01*
G37*
%TD.AperFunction*%
%TA.AperFunction,Conductor*%
G36*
X199399374Y-96025185D02*
G01*
X199445129Y-96077989D01*
X199455073Y-96147147D01*
X199435437Y-96198391D01*
X199401990Y-96248446D01*
X199401983Y-96248459D01*
X199334106Y-96412332D01*
X199334103Y-96412341D01*
X199299500Y-96586304D01*
X199299500Y-96763695D01*
X199334104Y-96937658D01*
X199334106Y-96937666D01*
X199340061Y-96952042D01*
X199349500Y-96999495D01*
X199349500Y-109482770D01*
X199329815Y-109549809D01*
X199313181Y-109570451D01*
X198050451Y-110833181D01*
X197989128Y-110866666D01*
X197962770Y-110869500D01*
X197574500Y-110869500D01*
X197507461Y-110849815D01*
X197461706Y-110797011D01*
X197450500Y-110745500D01*
X197450500Y-109637229D01*
X197470185Y-109570190D01*
X197486819Y-109549548D01*
X198582950Y-108453417D01*
X198582952Y-108453415D01*
X198622378Y-108394409D01*
X198665084Y-108330495D01*
X198695891Y-108256120D01*
X198721659Y-108193912D01*
X198750500Y-108048917D01*
X198750500Y-107901082D01*
X198750500Y-98310269D01*
X198770185Y-98243230D01*
X198771398Y-98241378D01*
X198798013Y-98201547D01*
X198865894Y-98037666D01*
X198900500Y-97863691D01*
X198900500Y-97686309D01*
X198900500Y-97686306D01*
X198900499Y-97686304D01*
X198865896Y-97512341D01*
X198865893Y-97512332D01*
X198798016Y-97348459D01*
X198798009Y-97348446D01*
X198699464Y-97200965D01*
X198699461Y-97200961D01*
X198574038Y-97075538D01*
X198574034Y-97075535D01*
X198426553Y-96976990D01*
X198426540Y-96976983D01*
X198262667Y-96909106D01*
X198262658Y-96909103D01*
X198088694Y-96874500D01*
X198088691Y-96874500D01*
X197911309Y-96874500D01*
X197911306Y-96874500D01*
X197737341Y-96909103D01*
X197737332Y-96909106D01*
X197573459Y-96976983D01*
X197573446Y-96976990D01*
X197425965Y-97075535D01*
X197425961Y-97075538D01*
X197300538Y-97200961D01*
X197300535Y-97200965D01*
X197201990Y-97348446D01*
X197201983Y-97348459D01*
X197134106Y-97512332D01*
X197134103Y-97512341D01*
X197099500Y-97686304D01*
X197099500Y-97863695D01*
X197134103Y-98037658D01*
X197134106Y-98037667D01*
X197201984Y-98201542D01*
X197201985Y-98201543D01*
X197201987Y-98201547D01*
X197228602Y-98241378D01*
X197249480Y-98308055D01*
X197249500Y-98310269D01*
X197249500Y-107612769D01*
X197229815Y-107679808D01*
X197213181Y-107700450D01*
X196117050Y-108796580D01*
X196117044Y-108796588D01*
X196067812Y-108870270D01*
X196067801Y-108870287D01*
X196067160Y-108871246D01*
X196013541Y-108916043D01*
X195944215Y-108924739D01*
X195881192Y-108894575D01*
X195876388Y-108890020D01*
X194653421Y-107667052D01*
X194653420Y-107667051D01*
X194649051Y-107664132D01*
X194554695Y-107601086D01*
X194530495Y-107584916D01*
X194530488Y-107584912D01*
X194393917Y-107528343D01*
X194393907Y-107528340D01*
X194248920Y-107499500D01*
X194248918Y-107499500D01*
X194089784Y-107499500D01*
X194022745Y-107479815D01*
X193976990Y-107427011D01*
X193967046Y-107357853D01*
X193996071Y-107294297D01*
X194002103Y-107287819D01*
X194077135Y-107212786D01*
X194077138Y-107212783D01*
X194077140Y-107212781D01*
X194158508Y-107091004D01*
X194186632Y-107048914D01*
X194238166Y-106924500D01*
X194262052Y-106866835D01*
X194300500Y-106673540D01*
X194300500Y-106476460D01*
X194300500Y-96376459D01*
X194300500Y-96376456D01*
X194268556Y-96215869D01*
X194268555Y-96215868D01*
X194267814Y-96212139D01*
X194262051Y-96183164D01*
X194256263Y-96169191D01*
X194254127Y-96161079D01*
X194254882Y-96134203D01*
X194252010Y-96107481D01*
X194255848Y-96099811D01*
X194256090Y-96091237D01*
X194271253Y-96069039D01*
X194283286Y-96045002D01*
X194290663Y-96040625D01*
X194295501Y-96033543D01*
X194320253Y-96023068D01*
X194343375Y-96009351D01*
X194356596Y-96007690D01*
X194359847Y-96006315D01*
X194363091Y-96006874D01*
X194374039Y-96005500D01*
X199332335Y-96005500D01*
X199399374Y-96025185D01*
G37*
%TD.AperFunction*%
%TA.AperFunction,Conductor*%
G36*
X227401257Y-82495185D02*
G01*
X227421899Y-82511819D01*
X227583181Y-82673101D01*
X227616666Y-82734424D01*
X227619500Y-82760782D01*
X227619500Y-83426459D01*
X227619500Y-83623541D01*
X227619500Y-83623543D01*
X227619499Y-83623543D01*
X227657947Y-83816829D01*
X227657950Y-83816839D01*
X227733364Y-83998907D01*
X227733371Y-83998919D01*
X227798602Y-84096543D01*
X227819480Y-84163220D01*
X227819500Y-84165434D01*
X227819500Y-84415701D01*
X227822401Y-84452567D01*
X227822402Y-84452573D01*
X227868254Y-84610393D01*
X227868255Y-84610396D01*
X227951917Y-84751862D01*
X227951923Y-84751870D01*
X228068129Y-84868076D01*
X228068133Y-84868079D01*
X228068135Y-84868081D01*
X228209602Y-84951744D01*
X228251224Y-84963836D01*
X228367426Y-84997597D01*
X228367429Y-84997597D01*
X228367431Y-84997598D01*
X228404306Y-85000500D01*
X228404314Y-85000500D01*
X228835686Y-85000500D01*
X228835694Y-85000500D01*
X228872569Y-84997598D01*
X228872571Y-84997597D01*
X228872573Y-84997597D01*
X228914191Y-84985505D01*
X229030398Y-84951744D01*
X229171865Y-84868081D01*
X229288081Y-84751865D01*
X229371744Y-84610398D01*
X229371745Y-84610394D01*
X229374843Y-84603236D01*
X229377227Y-84604267D01*
X229408043Y-84556018D01*
X229471516Y-84526813D01*
X229489511Y-84525500D01*
X229801459Y-84525500D01*
X230784218Y-84525500D01*
X230813658Y-84534144D01*
X230843645Y-84540668D01*
X230848660Y-84544422D01*
X230851257Y-84545185D01*
X230871899Y-84561819D01*
X230963181Y-84653101D01*
X230996666Y-84714424D01*
X230999500Y-84740782D01*
X230999500Y-87431869D01*
X230979815Y-87498908D01*
X230927011Y-87544663D01*
X230857853Y-87554607D01*
X230794297Y-87525582D01*
X230757569Y-87470188D01*
X230719408Y-87352742D01*
X230640801Y-87198471D01*
X230636290Y-87192262D01*
X230636289Y-87192261D01*
X229994854Y-87833698D01*
X230000000Y-87814496D01*
X230000000Y-87735504D01*
X229979556Y-87659204D01*
X229940060Y-87590795D01*
X229884205Y-87534940D01*
X229815796Y-87495444D01*
X229739496Y-87475000D01*
X229660504Y-87475000D01*
X229584204Y-87495444D01*
X229515795Y-87534940D01*
X229459940Y-87590795D01*
X229420444Y-87659204D01*
X229400000Y-87735504D01*
X229400000Y-87814496D01*
X229420444Y-87890796D01*
X229459940Y-87959205D01*
X229515795Y-88015060D01*
X229584204Y-88054556D01*
X229660504Y-88075000D01*
X229739496Y-88075000D01*
X229758698Y-88069854D01*
X229140370Y-88688181D01*
X229079047Y-88721666D01*
X229052689Y-88724500D01*
X225777754Y-88724500D01*
X225710715Y-88704815D01*
X225664960Y-88652011D01*
X225655016Y-88582853D01*
X225672215Y-88535403D01*
X225759356Y-88394124D01*
X225759358Y-88394119D01*
X225814505Y-88227697D01*
X225814506Y-88227690D01*
X225824999Y-88124986D01*
X225825000Y-88124973D01*
X225825000Y-88075000D01*
X223375001Y-88075000D01*
X223375001Y-88124986D01*
X223385494Y-88227697D01*
X223440641Y-88394119D01*
X223440643Y-88394124D01*
X223532684Y-88543345D01*
X223656655Y-88667316D01*
X223656659Y-88667319D01*
X223659656Y-88669168D01*
X223661279Y-88670972D01*
X223662323Y-88671798D01*
X223662181Y-88671976D01*
X223706381Y-88721116D01*
X223717602Y-88790079D01*
X223689759Y-88854161D01*
X223659661Y-88880241D01*
X223656349Y-88882283D01*
X223656343Y-88882288D01*
X223532289Y-89006342D01*
X223440187Y-89155663D01*
X223440186Y-89155666D01*
X223385001Y-89322203D01*
X223385001Y-89322204D01*
X223385000Y-89322204D01*
X223374500Y-89424983D01*
X223374500Y-90025001D01*
X223374501Y-90025019D01*
X223385000Y-90127796D01*
X223385001Y-90127799D01*
X223440185Y-90294331D01*
X223440187Y-90294336D01*
X223442529Y-90298133D01*
X223532288Y-90443656D01*
X223656344Y-90567712D01*
X223805666Y-90659814D01*
X223972203Y-90714999D01*
X224074991Y-90725500D01*
X224491456Y-90725499D01*
X224491470Y-90725500D01*
X224501459Y-90725500D01*
X228575500Y-90725500D01*
X228584185Y-90728050D01*
X228593147Y-90726762D01*
X228617187Y-90737740D01*
X228642539Y-90745185D01*
X228648466Y-90752025D01*
X228656703Y-90755787D01*
X228670992Y-90778021D01*
X228688294Y-90797989D01*
X228690581Y-90808503D01*
X228694477Y-90814565D01*
X228699500Y-90849500D01*
X228699500Y-90951000D01*
X228679815Y-91018039D01*
X228627011Y-91063794D01*
X228575500Y-91075000D01*
X220854500Y-91075000D01*
X220787461Y-91055315D01*
X220741706Y-91002511D01*
X220730500Y-90951000D01*
X220730500Y-87688428D01*
X228600000Y-87688428D01*
X228600000Y-87861571D01*
X228627085Y-88032584D01*
X228680592Y-88197259D01*
X228759196Y-88351525D01*
X228763709Y-88357736D01*
X228763709Y-88357737D01*
X229346446Y-87775001D01*
X229346446Y-87774999D01*
X228763709Y-87192261D01*
X228763708Y-87192261D01*
X228759203Y-87198463D01*
X228759193Y-87198480D01*
X228680592Y-87352740D01*
X228627085Y-87517415D01*
X228600000Y-87688428D01*
X220730500Y-87688428D01*
X220730500Y-87525013D01*
X223375000Y-87525013D01*
X223375000Y-87575000D01*
X224350000Y-87575000D01*
X224850000Y-87575000D01*
X225824999Y-87575000D01*
X225824999Y-87525028D01*
X225824998Y-87525013D01*
X225814505Y-87422302D01*
X225759358Y-87255880D01*
X225759356Y-87255875D01*
X225667315Y-87106654D01*
X225543347Y-86982686D01*
X225543342Y-86982682D01*
X225394124Y-86890643D01*
X225394119Y-86890641D01*
X225237396Y-86838708D01*
X229117261Y-86838708D01*
X229117261Y-86838709D01*
X229700000Y-87421446D01*
X229700001Y-87421446D01*
X230282737Y-86838709D01*
X230276525Y-86834196D01*
X230122259Y-86755592D01*
X229957584Y-86702085D01*
X229786571Y-86675000D01*
X229613429Y-86675000D01*
X229442415Y-86702085D01*
X229277740Y-86755592D01*
X229123480Y-86834193D01*
X229123463Y-86834203D01*
X229117261Y-86838708D01*
X225237396Y-86838708D01*
X225227697Y-86835494D01*
X225227690Y-86835493D01*
X225124986Y-86825000D01*
X224850000Y-86825000D01*
X224850000Y-87575000D01*
X224350000Y-87575000D01*
X224350000Y-86825000D01*
X224075029Y-86825000D01*
X224075012Y-86825001D01*
X223972302Y-86835494D01*
X223805880Y-86890641D01*
X223805875Y-86890643D01*
X223656654Y-86982684D01*
X223532684Y-87106654D01*
X223440643Y-87255875D01*
X223440641Y-87255880D01*
X223385494Y-87422302D01*
X223385493Y-87422309D01*
X223375000Y-87525013D01*
X220730500Y-87525013D01*
X220730500Y-83426456D01*
X220692052Y-83233170D01*
X220692051Y-83233169D01*
X220692051Y-83233165D01*
X220667135Y-83173012D01*
X220616633Y-83051088D01*
X220551398Y-82953456D01*
X220530520Y-82886778D01*
X220530500Y-82884565D01*
X220530500Y-82634313D01*
X220530500Y-82634306D01*
X220528526Y-82609228D01*
X220542890Y-82540853D01*
X220591940Y-82491096D01*
X220652144Y-82475500D01*
X227334218Y-82475500D01*
X227401257Y-82495185D01*
G37*
%TD.AperFunction*%
%TD*%
M02*
