M48
; DRILL file {KiCad 9.0.7} date 2026-08-21T19:55:50+0530
; FORMAT={-:-/ absolute / metric / decimal}
; #@! TF.CreationDate,2026-08-21T19:55:50+05:30
; #@! TF.GenerationSoftware,Kicad,Pcbnew,9.0.7
; #@! TF.FileFunction,NonPlated,1,2,NPTH
FMAT,2
METRIC
; #@! TA.AperFunction,NonPlated,NPTH,ComponentDrill
T1C1.200
; #@! TA.AperFunction,NonPlated,NPTH,ComponentDrill
T2C4.000
%
G90
G05
T1
X188.302Y-64.51
X188.302Y-67.07
X188.302Y-84.87
X188.302Y-87.43
X188.327Y-59.435
X188.327Y-61.995
X188.327Y-77.22
X188.327Y-79.78
X188.327Y-82.355
X188.327Y-89.955
X188.352Y-74.705
X213.302Y-64.51
X213.302Y-67.07
X213.302Y-77.255
X213.302Y-79.815
X213.302Y-89.99
X213.327Y-59.435
X213.327Y-74.74
X213.327Y-87.43
X213.352Y-82.355
X213.352Y-84.88
T2
X190.75Y-47.685
X190.75Y-131.685
X220.75Y-47.685
X220.75Y-131.685
M30
