%TF.GenerationSoftware,KiCad,Pcbnew,9.0.7*%
%TF.CreationDate,2026-08-05T20:51:14+05:30*%
%TF.ProjectId,Nursary_OneCH,4e757273-6172-4795-9f4f-6e6543482e6b,rev?*%
%TF.SameCoordinates,Original*%
%TF.FileFunction,Legend,Bot*%
%TF.FilePolarity,Positive*%
%FSLAX46Y46*%
G04 Gerber Fmt 4.6, Leading zero omitted, Abs format (unit mm)*
G04 Created by KiCad (PCBNEW 9.0.7) date 2026-08-05 20:51:14*
%MOMM*%
%LPD*%
G01*
G04 APERTURE LIST*
%ADD10C,0.200000*%
%ADD11C,0.150000*%
%ADD12C,0.120000*%
G04 APERTURE END LIST*
D10*
X192106517Y-117742219D02*
X192677945Y-117742219D01*
X192392231Y-117742219D02*
X192392231Y-116742219D01*
X192392231Y-116742219D02*
X192487469Y-116885076D01*
X192487469Y-116885076D02*
X192582707Y-116980314D01*
X192582707Y-116980314D02*
X192677945Y-117027933D01*
X217306517Y-77642219D02*
X217877945Y-77642219D01*
X217592231Y-77642219D02*
X217592231Y-76642219D01*
X217592231Y-76642219D02*
X217687469Y-76785076D01*
X217687469Y-76785076D02*
X217782707Y-76880314D01*
X217782707Y-76880314D02*
X217877945Y-76927933D01*
X200906517Y-129842219D02*
X201477945Y-129842219D01*
X201192231Y-129842219D02*
X201192231Y-128842219D01*
X201192231Y-128842219D02*
X201287469Y-128985076D01*
X201287469Y-128985076D02*
X201382707Y-129080314D01*
X201382707Y-129080314D02*
X201477945Y-129127933D01*
D11*
X198161904Y-127959819D02*
X197590476Y-127959819D01*
X197876190Y-128959819D02*
X197876190Y-127959819D01*
X197257142Y-128959819D02*
X197257142Y-127959819D01*
X197257142Y-127959819D02*
X196876190Y-127959819D01*
X196876190Y-127959819D02*
X196780952Y-128007438D01*
X196780952Y-128007438D02*
X196733333Y-128055057D01*
X196733333Y-128055057D02*
X196685714Y-128150295D01*
X196685714Y-128150295D02*
X196685714Y-128293152D01*
X196685714Y-128293152D02*
X196733333Y-128388390D01*
X196733333Y-128388390D02*
X196780952Y-128436009D01*
X196780952Y-128436009D02*
X196876190Y-128483628D01*
X196876190Y-128483628D02*
X197257142Y-128483628D01*
X195733333Y-128959819D02*
X196304761Y-128959819D01*
X196019047Y-128959819D02*
X196019047Y-127959819D01*
X196019047Y-127959819D02*
X196114285Y-128102676D01*
X196114285Y-128102676D02*
X196209523Y-128197914D01*
X196209523Y-128197914D02*
X196304761Y-128245533D01*
X205804819Y-111419642D02*
X205328628Y-111086309D01*
X205804819Y-110848214D02*
X204804819Y-110848214D01*
X204804819Y-110848214D02*
X204804819Y-111229166D01*
X204804819Y-111229166D02*
X204852438Y-111324404D01*
X204852438Y-111324404D02*
X204900057Y-111372023D01*
X204900057Y-111372023D02*
X204995295Y-111419642D01*
X204995295Y-111419642D02*
X205138152Y-111419642D01*
X205138152Y-111419642D02*
X205233390Y-111372023D01*
X205233390Y-111372023D02*
X205281009Y-111324404D01*
X205281009Y-111324404D02*
X205328628Y-111229166D01*
X205328628Y-111229166D02*
X205328628Y-110848214D01*
X205804819Y-112372023D02*
X205804819Y-111800595D01*
X205804819Y-112086309D02*
X204804819Y-112086309D01*
X204804819Y-112086309D02*
X204947676Y-111991071D01*
X204947676Y-111991071D02*
X205042914Y-111895833D01*
X205042914Y-111895833D02*
X205090533Y-111800595D01*
X204804819Y-113276785D02*
X204804819Y-112800595D01*
X204804819Y-112800595D02*
X205281009Y-112752976D01*
X205281009Y-112752976D02*
X205233390Y-112800595D01*
X205233390Y-112800595D02*
X205185771Y-112895833D01*
X205185771Y-112895833D02*
X205185771Y-113133928D01*
X205185771Y-113133928D02*
X205233390Y-113229166D01*
X205233390Y-113229166D02*
X205281009Y-113276785D01*
X205281009Y-113276785D02*
X205376247Y-113324404D01*
X205376247Y-113324404D02*
X205614342Y-113324404D01*
X205614342Y-113324404D02*
X205709580Y-113276785D01*
X205709580Y-113276785D02*
X205757200Y-113229166D01*
X205757200Y-113229166D02*
X205804819Y-113133928D01*
X205804819Y-113133928D02*
X205804819Y-112895833D01*
X205804819Y-112895833D02*
X205757200Y-112800595D01*
X205757200Y-112800595D02*
X205709580Y-112752976D01*
X206488152Y-114089285D02*
X207154819Y-114089285D01*
X206107200Y-113851190D02*
X206821485Y-113613095D01*
X206821485Y-113613095D02*
X206821485Y-114232142D01*
X207154819Y-114613095D02*
X206154819Y-114613095D01*
X207154819Y-115184523D02*
X206583390Y-114755952D01*
X206154819Y-115184523D02*
X206726247Y-114613095D01*
X206154819Y-115517857D02*
X206154819Y-116184523D01*
X206154819Y-116184523D02*
X207154819Y-115755952D01*
X193766666Y-76029819D02*
X194099999Y-75553628D01*
X194338094Y-76029819D02*
X194338094Y-75029819D01*
X194338094Y-75029819D02*
X193957142Y-75029819D01*
X193957142Y-75029819D02*
X193861904Y-75077438D01*
X193861904Y-75077438D02*
X193814285Y-75125057D01*
X193814285Y-75125057D02*
X193766666Y-75220295D01*
X193766666Y-75220295D02*
X193766666Y-75363152D01*
X193766666Y-75363152D02*
X193814285Y-75458390D01*
X193814285Y-75458390D02*
X193861904Y-75506009D01*
X193861904Y-75506009D02*
X193957142Y-75553628D01*
X193957142Y-75553628D02*
X194338094Y-75553628D01*
X192909523Y-75363152D02*
X192909523Y-76029819D01*
X193147618Y-74982200D02*
X193385713Y-75696485D01*
X193385713Y-75696485D02*
X192766666Y-75696485D01*
X193990476Y-77629819D02*
X194561904Y-77629819D01*
X194276190Y-77629819D02*
X194276190Y-76629819D01*
X194276190Y-76629819D02*
X194371428Y-76772676D01*
X194371428Y-76772676D02*
X194466666Y-76867914D01*
X194466666Y-76867914D02*
X194561904Y-76915533D01*
X193371428Y-76629819D02*
X193276190Y-76629819D01*
X193276190Y-76629819D02*
X193180952Y-76677438D01*
X193180952Y-76677438D02*
X193133333Y-76725057D01*
X193133333Y-76725057D02*
X193085714Y-76820295D01*
X193085714Y-76820295D02*
X193038095Y-77010771D01*
X193038095Y-77010771D02*
X193038095Y-77248866D01*
X193038095Y-77248866D02*
X193085714Y-77439342D01*
X193085714Y-77439342D02*
X193133333Y-77534580D01*
X193133333Y-77534580D02*
X193180952Y-77582200D01*
X193180952Y-77582200D02*
X193276190Y-77629819D01*
X193276190Y-77629819D02*
X193371428Y-77629819D01*
X193371428Y-77629819D02*
X193466666Y-77582200D01*
X193466666Y-77582200D02*
X193514285Y-77534580D01*
X193514285Y-77534580D02*
X193561904Y-77439342D01*
X193561904Y-77439342D02*
X193609523Y-77248866D01*
X193609523Y-77248866D02*
X193609523Y-77010771D01*
X193609523Y-77010771D02*
X193561904Y-76820295D01*
X193561904Y-76820295D02*
X193514285Y-76725057D01*
X193514285Y-76725057D02*
X193466666Y-76677438D01*
X193466666Y-76677438D02*
X193371428Y-76629819D01*
X192609523Y-77629819D02*
X192609523Y-76629819D01*
X192038095Y-77629819D02*
X192466666Y-77058390D01*
X192038095Y-76629819D02*
X192609523Y-77201247D01*
X194601190Y-124253628D02*
X194601190Y-124729819D01*
X194934523Y-123729819D02*
X194601190Y-124253628D01*
X194601190Y-124253628D02*
X194267857Y-123729819D01*
X193410714Y-124729819D02*
X193982142Y-124729819D01*
X193696428Y-124729819D02*
X193696428Y-123729819D01*
X193696428Y-123729819D02*
X193791666Y-123872676D01*
X193791666Y-123872676D02*
X193886904Y-123967914D01*
X193886904Y-123967914D02*
X193982142Y-124015533D01*
X209454819Y-111382142D02*
X208978628Y-111048809D01*
X209454819Y-110810714D02*
X208454819Y-110810714D01*
X208454819Y-110810714D02*
X208454819Y-111191666D01*
X208454819Y-111191666D02*
X208502438Y-111286904D01*
X208502438Y-111286904D02*
X208550057Y-111334523D01*
X208550057Y-111334523D02*
X208645295Y-111382142D01*
X208645295Y-111382142D02*
X208788152Y-111382142D01*
X208788152Y-111382142D02*
X208883390Y-111334523D01*
X208883390Y-111334523D02*
X208931009Y-111286904D01*
X208931009Y-111286904D02*
X208978628Y-111191666D01*
X208978628Y-111191666D02*
X208978628Y-110810714D01*
X209454819Y-112334523D02*
X209454819Y-111763095D01*
X209454819Y-112048809D02*
X208454819Y-112048809D01*
X208454819Y-112048809D02*
X208597676Y-111953571D01*
X208597676Y-111953571D02*
X208692914Y-111858333D01*
X208692914Y-111858333D02*
X208740533Y-111763095D01*
X208454819Y-113191666D02*
X208454819Y-113001190D01*
X208454819Y-113001190D02*
X208502438Y-112905952D01*
X208502438Y-112905952D02*
X208550057Y-112858333D01*
X208550057Y-112858333D02*
X208692914Y-112763095D01*
X208692914Y-112763095D02*
X208883390Y-112715476D01*
X208883390Y-112715476D02*
X209264342Y-112715476D01*
X209264342Y-112715476D02*
X209359580Y-112763095D01*
X209359580Y-112763095D02*
X209407200Y-112810714D01*
X209407200Y-112810714D02*
X209454819Y-112905952D01*
X209454819Y-112905952D02*
X209454819Y-113096428D01*
X209454819Y-113096428D02*
X209407200Y-113191666D01*
X209407200Y-113191666D02*
X209359580Y-113239285D01*
X209359580Y-113239285D02*
X209264342Y-113286904D01*
X209264342Y-113286904D02*
X209026247Y-113286904D01*
X209026247Y-113286904D02*
X208931009Y-113239285D01*
X208931009Y-113239285D02*
X208883390Y-113191666D01*
X208883390Y-113191666D02*
X208835771Y-113096428D01*
X208835771Y-113096428D02*
X208835771Y-112905952D01*
X208835771Y-112905952D02*
X208883390Y-112810714D01*
X208883390Y-112810714D02*
X208931009Y-112763095D01*
X208931009Y-112763095D02*
X209026247Y-112715476D01*
X210488152Y-114189285D02*
X211154819Y-114189285D01*
X210107200Y-113951190D02*
X210821485Y-113713095D01*
X210821485Y-113713095D02*
X210821485Y-114332142D01*
X211154819Y-114713095D02*
X210154819Y-114713095D01*
X211154819Y-115284523D02*
X210583390Y-114855952D01*
X210154819Y-115284523D02*
X210726247Y-114713095D01*
X210154819Y-115617857D02*
X210154819Y-116284523D01*
X210154819Y-116284523D02*
X211154819Y-115855952D01*
X182866666Y-88629819D02*
X183199999Y-88153628D01*
X183438094Y-88629819D02*
X183438094Y-87629819D01*
X183438094Y-87629819D02*
X183057142Y-87629819D01*
X183057142Y-87629819D02*
X182961904Y-87677438D01*
X182961904Y-87677438D02*
X182914285Y-87725057D01*
X182914285Y-87725057D02*
X182866666Y-87820295D01*
X182866666Y-87820295D02*
X182866666Y-87963152D01*
X182866666Y-87963152D02*
X182914285Y-88058390D01*
X182914285Y-88058390D02*
X182961904Y-88106009D01*
X182961904Y-88106009D02*
X183057142Y-88153628D01*
X183057142Y-88153628D02*
X183438094Y-88153628D01*
X181914285Y-88629819D02*
X182485713Y-88629819D01*
X182199999Y-88629819D02*
X182199999Y-87629819D01*
X182199999Y-87629819D02*
X182295237Y-87772676D01*
X182295237Y-87772676D02*
X182390475Y-87867914D01*
X182390475Y-87867914D02*
X182485713Y-87915533D01*
X184214285Y-90163152D02*
X184214285Y-90829819D01*
X184452380Y-89782200D02*
X184690475Y-90496485D01*
X184690475Y-90496485D02*
X184071428Y-90496485D01*
X183785713Y-89829819D02*
X183119047Y-89829819D01*
X183119047Y-89829819D02*
X183547618Y-90829819D01*
X182547618Y-89829819D02*
X182452380Y-89829819D01*
X182452380Y-89829819D02*
X182357142Y-89877438D01*
X182357142Y-89877438D02*
X182309523Y-89925057D01*
X182309523Y-89925057D02*
X182261904Y-90020295D01*
X182261904Y-90020295D02*
X182214285Y-90210771D01*
X182214285Y-90210771D02*
X182214285Y-90448866D01*
X182214285Y-90448866D02*
X182261904Y-90639342D01*
X182261904Y-90639342D02*
X182309523Y-90734580D01*
X182309523Y-90734580D02*
X182357142Y-90782200D01*
X182357142Y-90782200D02*
X182452380Y-90829819D01*
X182452380Y-90829819D02*
X182547618Y-90829819D01*
X182547618Y-90829819D02*
X182642856Y-90782200D01*
X182642856Y-90782200D02*
X182690475Y-90734580D01*
X182690475Y-90734580D02*
X182738094Y-90639342D01*
X182738094Y-90639342D02*
X182785713Y-90448866D01*
X182785713Y-90448866D02*
X182785713Y-90210771D01*
X182785713Y-90210771D02*
X182738094Y-90020295D01*
X182738094Y-90020295D02*
X182690475Y-89925057D01*
X182690475Y-89925057D02*
X182642856Y-89877438D01*
X182642856Y-89877438D02*
X182547618Y-89829819D01*
X181785713Y-90306009D02*
X181452380Y-90306009D01*
X181309523Y-90829819D02*
X181785713Y-90829819D01*
X181785713Y-90829819D02*
X181785713Y-89829819D01*
X181785713Y-89829819D02*
X181309523Y-89829819D01*
X186688094Y-101879819D02*
X186688094Y-100879819D01*
X186688094Y-100879819D02*
X186449999Y-100879819D01*
X186449999Y-100879819D02*
X186307142Y-100927438D01*
X186307142Y-100927438D02*
X186211904Y-101022676D01*
X186211904Y-101022676D02*
X186164285Y-101117914D01*
X186164285Y-101117914D02*
X186116666Y-101308390D01*
X186116666Y-101308390D02*
X186116666Y-101451247D01*
X186116666Y-101451247D02*
X186164285Y-101641723D01*
X186164285Y-101641723D02*
X186211904Y-101736961D01*
X186211904Y-101736961D02*
X186307142Y-101832200D01*
X186307142Y-101832200D02*
X186449999Y-101879819D01*
X186449999Y-101879819D02*
X186688094Y-101879819D01*
X185259523Y-100879819D02*
X185449999Y-100879819D01*
X185449999Y-100879819D02*
X185545237Y-100927438D01*
X185545237Y-100927438D02*
X185592856Y-100975057D01*
X185592856Y-100975057D02*
X185688094Y-101117914D01*
X185688094Y-101117914D02*
X185735713Y-101308390D01*
X185735713Y-101308390D02*
X185735713Y-101689342D01*
X185735713Y-101689342D02*
X185688094Y-101784580D01*
X185688094Y-101784580D02*
X185640475Y-101832200D01*
X185640475Y-101832200D02*
X185545237Y-101879819D01*
X185545237Y-101879819D02*
X185354761Y-101879819D01*
X185354761Y-101879819D02*
X185259523Y-101832200D01*
X185259523Y-101832200D02*
X185211904Y-101784580D01*
X185211904Y-101784580D02*
X185164285Y-101689342D01*
X185164285Y-101689342D02*
X185164285Y-101451247D01*
X185164285Y-101451247D02*
X185211904Y-101356009D01*
X185211904Y-101356009D02*
X185259523Y-101308390D01*
X185259523Y-101308390D02*
X185354761Y-101260771D01*
X185354761Y-101260771D02*
X185545237Y-101260771D01*
X185545237Y-101260771D02*
X185640475Y-101308390D01*
X185640475Y-101308390D02*
X185688094Y-101356009D01*
X185688094Y-101356009D02*
X185735713Y-101451247D01*
X226266666Y-63429819D02*
X226599999Y-62953628D01*
X226838094Y-63429819D02*
X226838094Y-62429819D01*
X226838094Y-62429819D02*
X226457142Y-62429819D01*
X226457142Y-62429819D02*
X226361904Y-62477438D01*
X226361904Y-62477438D02*
X226314285Y-62525057D01*
X226314285Y-62525057D02*
X226266666Y-62620295D01*
X226266666Y-62620295D02*
X226266666Y-62763152D01*
X226266666Y-62763152D02*
X226314285Y-62858390D01*
X226314285Y-62858390D02*
X226361904Y-62906009D01*
X226361904Y-62906009D02*
X226457142Y-62953628D01*
X226457142Y-62953628D02*
X226838094Y-62953628D01*
X225361904Y-62429819D02*
X225838094Y-62429819D01*
X225838094Y-62429819D02*
X225885713Y-62906009D01*
X225885713Y-62906009D02*
X225838094Y-62858390D01*
X225838094Y-62858390D02*
X225742856Y-62810771D01*
X225742856Y-62810771D02*
X225504761Y-62810771D01*
X225504761Y-62810771D02*
X225409523Y-62858390D01*
X225409523Y-62858390D02*
X225361904Y-62906009D01*
X225361904Y-62906009D02*
X225314285Y-63001247D01*
X225314285Y-63001247D02*
X225314285Y-63239342D01*
X225314285Y-63239342D02*
X225361904Y-63334580D01*
X225361904Y-63334580D02*
X225409523Y-63382200D01*
X225409523Y-63382200D02*
X225504761Y-63429819D01*
X225504761Y-63429819D02*
X225742856Y-63429819D01*
X225742856Y-63429819D02*
X225838094Y-63382200D01*
X225838094Y-63382200D02*
X225885713Y-63334580D01*
X226314285Y-65129819D02*
X226885713Y-65129819D01*
X226599999Y-65129819D02*
X226599999Y-64129819D01*
X226599999Y-64129819D02*
X226695237Y-64272676D01*
X226695237Y-64272676D02*
X226790475Y-64367914D01*
X226790475Y-64367914D02*
X226885713Y-64415533D01*
X225885713Y-65129819D02*
X225885713Y-64129819D01*
X225314285Y-65129819D02*
X225742856Y-64558390D01*
X225314285Y-64129819D02*
X225885713Y-64701247D01*
X210061904Y-129329819D02*
X210061904Y-130139342D01*
X210061904Y-130139342D02*
X210014285Y-130234580D01*
X210014285Y-130234580D02*
X209966666Y-130282200D01*
X209966666Y-130282200D02*
X209871428Y-130329819D01*
X209871428Y-130329819D02*
X209680952Y-130329819D01*
X209680952Y-130329819D02*
X209585714Y-130282200D01*
X209585714Y-130282200D02*
X209538095Y-130234580D01*
X209538095Y-130234580D02*
X209490476Y-130139342D01*
X209490476Y-130139342D02*
X209490476Y-129329819D01*
X208585714Y-129663152D02*
X208585714Y-130329819D01*
X208823809Y-129282200D02*
X209061904Y-129996485D01*
X209061904Y-129996485D02*
X208442857Y-129996485D01*
X212314285Y-131629819D02*
X212314285Y-130629819D01*
X212314285Y-130629819D02*
X212076190Y-130629819D01*
X212076190Y-130629819D02*
X211933333Y-130677438D01*
X211933333Y-130677438D02*
X211838095Y-130772676D01*
X211838095Y-130772676D02*
X211790476Y-130867914D01*
X211790476Y-130867914D02*
X211742857Y-131058390D01*
X211742857Y-131058390D02*
X211742857Y-131201247D01*
X211742857Y-131201247D02*
X211790476Y-131391723D01*
X211790476Y-131391723D02*
X211838095Y-131486961D01*
X211838095Y-131486961D02*
X211933333Y-131582200D01*
X211933333Y-131582200D02*
X212076190Y-131629819D01*
X212076190Y-131629819D02*
X212314285Y-131629819D01*
X211361904Y-131582200D02*
X211219047Y-131629819D01*
X211219047Y-131629819D02*
X210980952Y-131629819D01*
X210980952Y-131629819D02*
X210885714Y-131582200D01*
X210885714Y-131582200D02*
X210838095Y-131534580D01*
X210838095Y-131534580D02*
X210790476Y-131439342D01*
X210790476Y-131439342D02*
X210790476Y-131344104D01*
X210790476Y-131344104D02*
X210838095Y-131248866D01*
X210838095Y-131248866D02*
X210885714Y-131201247D01*
X210885714Y-131201247D02*
X210980952Y-131153628D01*
X210980952Y-131153628D02*
X211171428Y-131106009D01*
X211171428Y-131106009D02*
X211266666Y-131058390D01*
X211266666Y-131058390D02*
X211314285Y-131010771D01*
X211314285Y-131010771D02*
X211361904Y-130915533D01*
X211361904Y-130915533D02*
X211361904Y-130820295D01*
X211361904Y-130820295D02*
X211314285Y-130725057D01*
X211314285Y-130725057D02*
X211266666Y-130677438D01*
X211266666Y-130677438D02*
X211171428Y-130629819D01*
X211171428Y-130629819D02*
X210933333Y-130629819D01*
X210933333Y-130629819D02*
X210790476Y-130677438D01*
X210457142Y-130629819D02*
X209838095Y-130629819D01*
X209838095Y-130629819D02*
X210171428Y-131010771D01*
X210171428Y-131010771D02*
X210028571Y-131010771D01*
X210028571Y-131010771D02*
X209933333Y-131058390D01*
X209933333Y-131058390D02*
X209885714Y-131106009D01*
X209885714Y-131106009D02*
X209838095Y-131201247D01*
X209838095Y-131201247D02*
X209838095Y-131439342D01*
X209838095Y-131439342D02*
X209885714Y-131534580D01*
X209885714Y-131534580D02*
X209933333Y-131582200D01*
X209933333Y-131582200D02*
X210028571Y-131629819D01*
X210028571Y-131629819D02*
X210314285Y-131629819D01*
X210314285Y-131629819D02*
X210409523Y-131582200D01*
X210409523Y-131582200D02*
X210457142Y-131534580D01*
X209457142Y-130725057D02*
X209409523Y-130677438D01*
X209409523Y-130677438D02*
X209314285Y-130629819D01*
X209314285Y-130629819D02*
X209076190Y-130629819D01*
X209076190Y-130629819D02*
X208980952Y-130677438D01*
X208980952Y-130677438D02*
X208933333Y-130725057D01*
X208933333Y-130725057D02*
X208885714Y-130820295D01*
X208885714Y-130820295D02*
X208885714Y-130915533D01*
X208885714Y-130915533D02*
X208933333Y-131058390D01*
X208933333Y-131058390D02*
X209504761Y-131629819D01*
X209504761Y-131629819D02*
X208885714Y-131629819D01*
X208552380Y-130629819D02*
X207933333Y-130629819D01*
X207933333Y-130629819D02*
X208266666Y-131010771D01*
X208266666Y-131010771D02*
X208123809Y-131010771D01*
X208123809Y-131010771D02*
X208028571Y-131058390D01*
X208028571Y-131058390D02*
X207980952Y-131106009D01*
X207980952Y-131106009D02*
X207933333Y-131201247D01*
X207933333Y-131201247D02*
X207933333Y-131439342D01*
X207933333Y-131439342D02*
X207980952Y-131534580D01*
X207980952Y-131534580D02*
X208028571Y-131582200D01*
X208028571Y-131582200D02*
X208123809Y-131629819D01*
X208123809Y-131629819D02*
X208409523Y-131629819D01*
X208409523Y-131629819D02*
X208504761Y-131582200D01*
X208504761Y-131582200D02*
X208552380Y-131534580D01*
X206980952Y-131629819D02*
X207552380Y-131629819D01*
X207266666Y-131629819D02*
X207266666Y-130629819D01*
X207266666Y-130629819D02*
X207361904Y-130772676D01*
X207361904Y-130772676D02*
X207457142Y-130867914D01*
X207457142Y-130867914D02*
X207552380Y-130915533D01*
X206552380Y-131629819D02*
X206552380Y-130629819D01*
X206552380Y-130629819D02*
X206219047Y-131344104D01*
X206219047Y-131344104D02*
X205885714Y-130629819D01*
X205885714Y-130629819D02*
X205885714Y-131629819D01*
X216161904Y-77629819D02*
X216161904Y-78439342D01*
X216161904Y-78439342D02*
X216114285Y-78534580D01*
X216114285Y-78534580D02*
X216066666Y-78582200D01*
X216066666Y-78582200D02*
X215971428Y-78629819D01*
X215971428Y-78629819D02*
X215780952Y-78629819D01*
X215780952Y-78629819D02*
X215685714Y-78582200D01*
X215685714Y-78582200D02*
X215638095Y-78534580D01*
X215638095Y-78534580D02*
X215590476Y-78439342D01*
X215590476Y-78439342D02*
X215590476Y-77629819D01*
X214590476Y-78629819D02*
X215161904Y-78629819D01*
X214876190Y-78629819D02*
X214876190Y-77629819D01*
X214876190Y-77629819D02*
X214971428Y-77772676D01*
X214971428Y-77772676D02*
X215066666Y-77867914D01*
X215066666Y-77867914D02*
X215161904Y-77915533D01*
X216819047Y-78829819D02*
X216819047Y-79639342D01*
X216819047Y-79639342D02*
X216771428Y-79734580D01*
X216771428Y-79734580D02*
X216723809Y-79782200D01*
X216723809Y-79782200D02*
X216628571Y-79829819D01*
X216628571Y-79829819D02*
X216438095Y-79829819D01*
X216438095Y-79829819D02*
X216342857Y-79782200D01*
X216342857Y-79782200D02*
X216295238Y-79734580D01*
X216295238Y-79734580D02*
X216247619Y-79639342D01*
X216247619Y-79639342D02*
X216247619Y-78829819D01*
X215295238Y-79829819D02*
X215771428Y-79829819D01*
X215771428Y-79829819D02*
X215771428Y-78829819D01*
X214961904Y-79829819D02*
X214961904Y-78829819D01*
X214961904Y-78829819D02*
X214390476Y-79829819D01*
X214390476Y-79829819D02*
X214390476Y-78829819D01*
X213961904Y-78925057D02*
X213914285Y-78877438D01*
X213914285Y-78877438D02*
X213819047Y-78829819D01*
X213819047Y-78829819D02*
X213580952Y-78829819D01*
X213580952Y-78829819D02*
X213485714Y-78877438D01*
X213485714Y-78877438D02*
X213438095Y-78925057D01*
X213438095Y-78925057D02*
X213390476Y-79020295D01*
X213390476Y-79020295D02*
X213390476Y-79115533D01*
X213390476Y-79115533D02*
X213438095Y-79258390D01*
X213438095Y-79258390D02*
X214009523Y-79829819D01*
X214009523Y-79829819D02*
X213390476Y-79829819D01*
X212771428Y-78829819D02*
X212676190Y-78829819D01*
X212676190Y-78829819D02*
X212580952Y-78877438D01*
X212580952Y-78877438D02*
X212533333Y-78925057D01*
X212533333Y-78925057D02*
X212485714Y-79020295D01*
X212485714Y-79020295D02*
X212438095Y-79210771D01*
X212438095Y-79210771D02*
X212438095Y-79448866D01*
X212438095Y-79448866D02*
X212485714Y-79639342D01*
X212485714Y-79639342D02*
X212533333Y-79734580D01*
X212533333Y-79734580D02*
X212580952Y-79782200D01*
X212580952Y-79782200D02*
X212676190Y-79829819D01*
X212676190Y-79829819D02*
X212771428Y-79829819D01*
X212771428Y-79829819D02*
X212866666Y-79782200D01*
X212866666Y-79782200D02*
X212914285Y-79734580D01*
X212914285Y-79734580D02*
X212961904Y-79639342D01*
X212961904Y-79639342D02*
X213009523Y-79448866D01*
X213009523Y-79448866D02*
X213009523Y-79210771D01*
X213009523Y-79210771D02*
X212961904Y-79020295D01*
X212961904Y-79020295D02*
X212914285Y-78925057D01*
X212914285Y-78925057D02*
X212866666Y-78877438D01*
X212866666Y-78877438D02*
X212771428Y-78829819D01*
X211819047Y-78829819D02*
X211723809Y-78829819D01*
X211723809Y-78829819D02*
X211628571Y-78877438D01*
X211628571Y-78877438D02*
X211580952Y-78925057D01*
X211580952Y-78925057D02*
X211533333Y-79020295D01*
X211533333Y-79020295D02*
X211485714Y-79210771D01*
X211485714Y-79210771D02*
X211485714Y-79448866D01*
X211485714Y-79448866D02*
X211533333Y-79639342D01*
X211533333Y-79639342D02*
X211580952Y-79734580D01*
X211580952Y-79734580D02*
X211628571Y-79782200D01*
X211628571Y-79782200D02*
X211723809Y-79829819D01*
X211723809Y-79829819D02*
X211819047Y-79829819D01*
X211819047Y-79829819D02*
X211914285Y-79782200D01*
X211914285Y-79782200D02*
X211961904Y-79734580D01*
X211961904Y-79734580D02*
X212009523Y-79639342D01*
X212009523Y-79639342D02*
X212057142Y-79448866D01*
X212057142Y-79448866D02*
X212057142Y-79210771D01*
X212057142Y-79210771D02*
X212009523Y-79020295D01*
X212009523Y-79020295D02*
X211961904Y-78925057D01*
X211961904Y-78925057D02*
X211914285Y-78877438D01*
X211914285Y-78877438D02*
X211819047Y-78829819D01*
X211152380Y-78829819D02*
X210533333Y-78829819D01*
X210533333Y-78829819D02*
X210866666Y-79210771D01*
X210866666Y-79210771D02*
X210723809Y-79210771D01*
X210723809Y-79210771D02*
X210628571Y-79258390D01*
X210628571Y-79258390D02*
X210580952Y-79306009D01*
X210580952Y-79306009D02*
X210533333Y-79401247D01*
X210533333Y-79401247D02*
X210533333Y-79639342D01*
X210533333Y-79639342D02*
X210580952Y-79734580D01*
X210580952Y-79734580D02*
X210628571Y-79782200D01*
X210628571Y-79782200D02*
X210723809Y-79829819D01*
X210723809Y-79829819D02*
X211009523Y-79829819D01*
X211009523Y-79829819D02*
X211104761Y-79782200D01*
X211104761Y-79782200D02*
X211152380Y-79734580D01*
X189891666Y-101359580D02*
X189939285Y-101407200D01*
X189939285Y-101407200D02*
X190082142Y-101454819D01*
X190082142Y-101454819D02*
X190177380Y-101454819D01*
X190177380Y-101454819D02*
X190320237Y-101407200D01*
X190320237Y-101407200D02*
X190415475Y-101311961D01*
X190415475Y-101311961D02*
X190463094Y-101216723D01*
X190463094Y-101216723D02*
X190510713Y-101026247D01*
X190510713Y-101026247D02*
X190510713Y-100883390D01*
X190510713Y-100883390D02*
X190463094Y-100692914D01*
X190463094Y-100692914D02*
X190415475Y-100597676D01*
X190415475Y-100597676D02*
X190320237Y-100502438D01*
X190320237Y-100502438D02*
X190177380Y-100454819D01*
X190177380Y-100454819D02*
X190082142Y-100454819D01*
X190082142Y-100454819D02*
X189939285Y-100502438D01*
X189939285Y-100502438D02*
X189891666Y-100550057D01*
X188939285Y-101454819D02*
X189510713Y-101454819D01*
X189224999Y-101454819D02*
X189224999Y-100454819D01*
X189224999Y-100454819D02*
X189320237Y-100597676D01*
X189320237Y-100597676D02*
X189415475Y-100692914D01*
X189415475Y-100692914D02*
X189510713Y-100740533D01*
X191713095Y-100212295D02*
X192170238Y-100212295D01*
X191941666Y-100212295D02*
X191941666Y-99412295D01*
X191941666Y-99412295D02*
X192017857Y-99526580D01*
X192017857Y-99526580D02*
X192094047Y-99602771D01*
X192094047Y-99602771D02*
X192170238Y-99640866D01*
X191217856Y-99412295D02*
X191141666Y-99412295D01*
X191141666Y-99412295D02*
X191065475Y-99450390D01*
X191065475Y-99450390D02*
X191027380Y-99488485D01*
X191027380Y-99488485D02*
X190989285Y-99564676D01*
X190989285Y-99564676D02*
X190951190Y-99717057D01*
X190951190Y-99717057D02*
X190951190Y-99907533D01*
X190951190Y-99907533D02*
X190989285Y-100059914D01*
X190989285Y-100059914D02*
X191027380Y-100136104D01*
X191027380Y-100136104D02*
X191065475Y-100174200D01*
X191065475Y-100174200D02*
X191141666Y-100212295D01*
X191141666Y-100212295D02*
X191217856Y-100212295D01*
X191217856Y-100212295D02*
X191294047Y-100174200D01*
X191294047Y-100174200D02*
X191332142Y-100136104D01*
X191332142Y-100136104D02*
X191370237Y-100059914D01*
X191370237Y-100059914D02*
X191408333Y-99907533D01*
X191408333Y-99907533D02*
X191408333Y-99717057D01*
X191408333Y-99717057D02*
X191370237Y-99564676D01*
X191370237Y-99564676D02*
X191332142Y-99488485D01*
X191332142Y-99488485D02*
X191294047Y-99450390D01*
X191294047Y-99450390D02*
X191217856Y-99412295D01*
X190455951Y-99412295D02*
X190379761Y-99412295D01*
X190379761Y-99412295D02*
X190303570Y-99450390D01*
X190303570Y-99450390D02*
X190265475Y-99488485D01*
X190265475Y-99488485D02*
X190227380Y-99564676D01*
X190227380Y-99564676D02*
X190189285Y-99717057D01*
X190189285Y-99717057D02*
X190189285Y-99907533D01*
X190189285Y-99907533D02*
X190227380Y-100059914D01*
X190227380Y-100059914D02*
X190265475Y-100136104D01*
X190265475Y-100136104D02*
X190303570Y-100174200D01*
X190303570Y-100174200D02*
X190379761Y-100212295D01*
X190379761Y-100212295D02*
X190455951Y-100212295D01*
X190455951Y-100212295D02*
X190532142Y-100174200D01*
X190532142Y-100174200D02*
X190570237Y-100136104D01*
X190570237Y-100136104D02*
X190608332Y-100059914D01*
X190608332Y-100059914D02*
X190646428Y-99907533D01*
X190646428Y-99907533D02*
X190646428Y-99717057D01*
X190646428Y-99717057D02*
X190608332Y-99564676D01*
X190608332Y-99564676D02*
X190570237Y-99488485D01*
X190570237Y-99488485D02*
X190532142Y-99450390D01*
X190532142Y-99450390D02*
X190455951Y-99412295D01*
X189846427Y-99678961D02*
X189846427Y-100212295D01*
X189846427Y-99755152D02*
X189808332Y-99717057D01*
X189808332Y-99717057D02*
X189732142Y-99678961D01*
X189732142Y-99678961D02*
X189617856Y-99678961D01*
X189617856Y-99678961D02*
X189541665Y-99717057D01*
X189541665Y-99717057D02*
X189503570Y-99793247D01*
X189503570Y-99793247D02*
X189503570Y-100212295D01*
X188855951Y-99793247D02*
X189122617Y-99793247D01*
X189122617Y-100212295D02*
X189122617Y-99412295D01*
X189122617Y-99412295D02*
X188741665Y-99412295D01*
X221766666Y-88034580D02*
X221814285Y-88082200D01*
X221814285Y-88082200D02*
X221957142Y-88129819D01*
X221957142Y-88129819D02*
X222052380Y-88129819D01*
X222052380Y-88129819D02*
X222195237Y-88082200D01*
X222195237Y-88082200D02*
X222290475Y-87986961D01*
X222290475Y-87986961D02*
X222338094Y-87891723D01*
X222338094Y-87891723D02*
X222385713Y-87701247D01*
X222385713Y-87701247D02*
X222385713Y-87558390D01*
X222385713Y-87558390D02*
X222338094Y-87367914D01*
X222338094Y-87367914D02*
X222290475Y-87272676D01*
X222290475Y-87272676D02*
X222195237Y-87177438D01*
X222195237Y-87177438D02*
X222052380Y-87129819D01*
X222052380Y-87129819D02*
X221957142Y-87129819D01*
X221957142Y-87129819D02*
X221814285Y-87177438D01*
X221814285Y-87177438D02*
X221766666Y-87225057D01*
X220909523Y-87463152D02*
X220909523Y-88129819D01*
X221147618Y-87082200D02*
X221385713Y-87796485D01*
X221385713Y-87796485D02*
X220766666Y-87796485D01*
X222538095Y-89729819D02*
X222995238Y-89729819D01*
X222766666Y-89729819D02*
X222766666Y-88729819D01*
X222766666Y-88729819D02*
X222842857Y-88872676D01*
X222842857Y-88872676D02*
X222919047Y-88967914D01*
X222919047Y-88967914D02*
X222995238Y-89015533D01*
X222042856Y-88729819D02*
X221966666Y-88729819D01*
X221966666Y-88729819D02*
X221890475Y-88777438D01*
X221890475Y-88777438D02*
X221852380Y-88825057D01*
X221852380Y-88825057D02*
X221814285Y-88920295D01*
X221814285Y-88920295D02*
X221776190Y-89110771D01*
X221776190Y-89110771D02*
X221776190Y-89348866D01*
X221776190Y-89348866D02*
X221814285Y-89539342D01*
X221814285Y-89539342D02*
X221852380Y-89634580D01*
X221852380Y-89634580D02*
X221890475Y-89682200D01*
X221890475Y-89682200D02*
X221966666Y-89729819D01*
X221966666Y-89729819D02*
X222042856Y-89729819D01*
X222042856Y-89729819D02*
X222119047Y-89682200D01*
X222119047Y-89682200D02*
X222157142Y-89634580D01*
X222157142Y-89634580D02*
X222195237Y-89539342D01*
X222195237Y-89539342D02*
X222233333Y-89348866D01*
X222233333Y-89348866D02*
X222233333Y-89110771D01*
X222233333Y-89110771D02*
X222195237Y-88920295D01*
X222195237Y-88920295D02*
X222157142Y-88825057D01*
X222157142Y-88825057D02*
X222119047Y-88777438D01*
X222119047Y-88777438D02*
X222042856Y-88729819D01*
X221280951Y-88729819D02*
X221204761Y-88729819D01*
X221204761Y-88729819D02*
X221128570Y-88777438D01*
X221128570Y-88777438D02*
X221090475Y-88825057D01*
X221090475Y-88825057D02*
X221052380Y-88920295D01*
X221052380Y-88920295D02*
X221014285Y-89110771D01*
X221014285Y-89110771D02*
X221014285Y-89348866D01*
X221014285Y-89348866D02*
X221052380Y-89539342D01*
X221052380Y-89539342D02*
X221090475Y-89634580D01*
X221090475Y-89634580D02*
X221128570Y-89682200D01*
X221128570Y-89682200D02*
X221204761Y-89729819D01*
X221204761Y-89729819D02*
X221280951Y-89729819D01*
X221280951Y-89729819D02*
X221357142Y-89682200D01*
X221357142Y-89682200D02*
X221395237Y-89634580D01*
X221395237Y-89634580D02*
X221433332Y-89539342D01*
X221433332Y-89539342D02*
X221471428Y-89348866D01*
X221471428Y-89348866D02*
X221471428Y-89110771D01*
X221471428Y-89110771D02*
X221433332Y-88920295D01*
X221433332Y-88920295D02*
X221395237Y-88825057D01*
X221395237Y-88825057D02*
X221357142Y-88777438D01*
X221357142Y-88777438D02*
X221280951Y-88729819D01*
X220671427Y-89063152D02*
X220671427Y-89729819D01*
X220671427Y-89158390D02*
X220633332Y-89110771D01*
X220633332Y-89110771D02*
X220557142Y-89063152D01*
X220557142Y-89063152D02*
X220442856Y-89063152D01*
X220442856Y-89063152D02*
X220366665Y-89110771D01*
X220366665Y-89110771D02*
X220328570Y-89206009D01*
X220328570Y-89206009D02*
X220328570Y-89729819D01*
X219680951Y-89206009D02*
X219947617Y-89206009D01*
X219947617Y-89729819D02*
X219947617Y-88729819D01*
X219947617Y-88729819D02*
X219566665Y-88729819D01*
X181766666Y-63929819D02*
X182099999Y-63453628D01*
X182338094Y-63929819D02*
X182338094Y-62929819D01*
X182338094Y-62929819D02*
X181957142Y-62929819D01*
X181957142Y-62929819D02*
X181861904Y-62977438D01*
X181861904Y-62977438D02*
X181814285Y-63025057D01*
X181814285Y-63025057D02*
X181766666Y-63120295D01*
X181766666Y-63120295D02*
X181766666Y-63263152D01*
X181766666Y-63263152D02*
X181814285Y-63358390D01*
X181814285Y-63358390D02*
X181861904Y-63406009D01*
X181861904Y-63406009D02*
X181957142Y-63453628D01*
X181957142Y-63453628D02*
X182338094Y-63453628D01*
X181433332Y-62929819D02*
X180814285Y-62929819D01*
X180814285Y-62929819D02*
X181147618Y-63310771D01*
X181147618Y-63310771D02*
X181004761Y-63310771D01*
X181004761Y-63310771D02*
X180909523Y-63358390D01*
X180909523Y-63358390D02*
X180861904Y-63406009D01*
X180861904Y-63406009D02*
X180814285Y-63501247D01*
X180814285Y-63501247D02*
X180814285Y-63739342D01*
X180814285Y-63739342D02*
X180861904Y-63834580D01*
X180861904Y-63834580D02*
X180909523Y-63882200D01*
X180909523Y-63882200D02*
X181004761Y-63929819D01*
X181004761Y-63929819D02*
X181290475Y-63929819D01*
X181290475Y-63929819D02*
X181385713Y-63882200D01*
X181385713Y-63882200D02*
X181433332Y-63834580D01*
X183414285Y-64763152D02*
X183414285Y-65429819D01*
X183652380Y-64382200D02*
X183890475Y-65096485D01*
X183890475Y-65096485D02*
X183271428Y-65096485D01*
X182985713Y-64429819D02*
X182319047Y-64429819D01*
X182319047Y-64429819D02*
X182747618Y-65429819D01*
X181747618Y-64429819D02*
X181652380Y-64429819D01*
X181652380Y-64429819D02*
X181557142Y-64477438D01*
X181557142Y-64477438D02*
X181509523Y-64525057D01*
X181509523Y-64525057D02*
X181461904Y-64620295D01*
X181461904Y-64620295D02*
X181414285Y-64810771D01*
X181414285Y-64810771D02*
X181414285Y-65048866D01*
X181414285Y-65048866D02*
X181461904Y-65239342D01*
X181461904Y-65239342D02*
X181509523Y-65334580D01*
X181509523Y-65334580D02*
X181557142Y-65382200D01*
X181557142Y-65382200D02*
X181652380Y-65429819D01*
X181652380Y-65429819D02*
X181747618Y-65429819D01*
X181747618Y-65429819D02*
X181842856Y-65382200D01*
X181842856Y-65382200D02*
X181890475Y-65334580D01*
X181890475Y-65334580D02*
X181938094Y-65239342D01*
X181938094Y-65239342D02*
X181985713Y-65048866D01*
X181985713Y-65048866D02*
X181985713Y-64810771D01*
X181985713Y-64810771D02*
X181938094Y-64620295D01*
X181938094Y-64620295D02*
X181890475Y-64525057D01*
X181890475Y-64525057D02*
X181842856Y-64477438D01*
X181842856Y-64477438D02*
X181747618Y-64429819D01*
X180985713Y-64906009D02*
X180652380Y-64906009D01*
X180509523Y-65429819D02*
X180985713Y-65429819D01*
X180985713Y-65429819D02*
X180985713Y-64429819D01*
X180985713Y-64429819D02*
X180509523Y-64429819D01*
X190461904Y-112129819D02*
X190461904Y-112939342D01*
X190461904Y-112939342D02*
X190414285Y-113034580D01*
X190414285Y-113034580D02*
X190366666Y-113082200D01*
X190366666Y-113082200D02*
X190271428Y-113129819D01*
X190271428Y-113129819D02*
X190080952Y-113129819D01*
X190080952Y-113129819D02*
X189985714Y-113082200D01*
X189985714Y-113082200D02*
X189938095Y-113034580D01*
X189938095Y-113034580D02*
X189890476Y-112939342D01*
X189890476Y-112939342D02*
X189890476Y-112129819D01*
X189509523Y-112129819D02*
X188890476Y-112129819D01*
X188890476Y-112129819D02*
X189223809Y-112510771D01*
X189223809Y-112510771D02*
X189080952Y-112510771D01*
X189080952Y-112510771D02*
X188985714Y-112558390D01*
X188985714Y-112558390D02*
X188938095Y-112606009D01*
X188938095Y-112606009D02*
X188890476Y-112701247D01*
X188890476Y-112701247D02*
X188890476Y-112939342D01*
X188890476Y-112939342D02*
X188938095Y-113034580D01*
X188938095Y-113034580D02*
X188985714Y-113082200D01*
X188985714Y-113082200D02*
X189080952Y-113129819D01*
X189080952Y-113129819D02*
X189366666Y-113129819D01*
X189366666Y-113129819D02*
X189461904Y-113082200D01*
X189461904Y-113082200D02*
X189509523Y-113034580D01*
X191438094Y-114629819D02*
X191438094Y-113629819D01*
X191438094Y-113629819D02*
X191199999Y-113629819D01*
X191199999Y-113629819D02*
X191057142Y-113677438D01*
X191057142Y-113677438D02*
X190961904Y-113772676D01*
X190961904Y-113772676D02*
X190914285Y-113867914D01*
X190914285Y-113867914D02*
X190866666Y-114058390D01*
X190866666Y-114058390D02*
X190866666Y-114201247D01*
X190866666Y-114201247D02*
X190914285Y-114391723D01*
X190914285Y-114391723D02*
X190961904Y-114486961D01*
X190961904Y-114486961D02*
X191057142Y-114582200D01*
X191057142Y-114582200D02*
X191199999Y-114629819D01*
X191199999Y-114629819D02*
X191438094Y-114629819D01*
X190485713Y-114582200D02*
X190342856Y-114629819D01*
X190342856Y-114629819D02*
X190104761Y-114629819D01*
X190104761Y-114629819D02*
X190009523Y-114582200D01*
X190009523Y-114582200D02*
X189961904Y-114534580D01*
X189961904Y-114534580D02*
X189914285Y-114439342D01*
X189914285Y-114439342D02*
X189914285Y-114344104D01*
X189914285Y-114344104D02*
X189961904Y-114248866D01*
X189961904Y-114248866D02*
X190009523Y-114201247D01*
X190009523Y-114201247D02*
X190104761Y-114153628D01*
X190104761Y-114153628D02*
X190295237Y-114106009D01*
X190295237Y-114106009D02*
X190390475Y-114058390D01*
X190390475Y-114058390D02*
X190438094Y-114010771D01*
X190438094Y-114010771D02*
X190485713Y-113915533D01*
X190485713Y-113915533D02*
X190485713Y-113820295D01*
X190485713Y-113820295D02*
X190438094Y-113725057D01*
X190438094Y-113725057D02*
X190390475Y-113677438D01*
X190390475Y-113677438D02*
X190295237Y-113629819D01*
X190295237Y-113629819D02*
X190057142Y-113629819D01*
X190057142Y-113629819D02*
X189914285Y-113677438D01*
X188961904Y-114629819D02*
X189533332Y-114629819D01*
X189247618Y-114629819D02*
X189247618Y-113629819D01*
X189247618Y-113629819D02*
X189342856Y-113772676D01*
X189342856Y-113772676D02*
X189438094Y-113867914D01*
X189438094Y-113867914D02*
X189533332Y-113915533D01*
X188628570Y-113629819D02*
X188009523Y-113629819D01*
X188009523Y-113629819D02*
X188342856Y-114010771D01*
X188342856Y-114010771D02*
X188199999Y-114010771D01*
X188199999Y-114010771D02*
X188104761Y-114058390D01*
X188104761Y-114058390D02*
X188057142Y-114106009D01*
X188057142Y-114106009D02*
X188009523Y-114201247D01*
X188009523Y-114201247D02*
X188009523Y-114439342D01*
X188009523Y-114439342D02*
X188057142Y-114534580D01*
X188057142Y-114534580D02*
X188104761Y-114582200D01*
X188104761Y-114582200D02*
X188199999Y-114629819D01*
X188199999Y-114629819D02*
X188485713Y-114629819D01*
X188485713Y-114629819D02*
X188580951Y-114582200D01*
X188580951Y-114582200D02*
X188628570Y-114534580D01*
X187390475Y-113629819D02*
X187295237Y-113629819D01*
X187295237Y-113629819D02*
X187199999Y-113677438D01*
X187199999Y-113677438D02*
X187152380Y-113725057D01*
X187152380Y-113725057D02*
X187104761Y-113820295D01*
X187104761Y-113820295D02*
X187057142Y-114010771D01*
X187057142Y-114010771D02*
X187057142Y-114248866D01*
X187057142Y-114248866D02*
X187104761Y-114439342D01*
X187104761Y-114439342D02*
X187152380Y-114534580D01*
X187152380Y-114534580D02*
X187199999Y-114582200D01*
X187199999Y-114582200D02*
X187295237Y-114629819D01*
X187295237Y-114629819D02*
X187390475Y-114629819D01*
X187390475Y-114629819D02*
X187485713Y-114582200D01*
X187485713Y-114582200D02*
X187533332Y-114534580D01*
X187533332Y-114534580D02*
X187580951Y-114439342D01*
X187580951Y-114439342D02*
X187628570Y-114248866D01*
X187628570Y-114248866D02*
X187628570Y-114010771D01*
X187628570Y-114010771D02*
X187580951Y-113820295D01*
X187580951Y-113820295D02*
X187533332Y-113725057D01*
X187533332Y-113725057D02*
X187485713Y-113677438D01*
X187485713Y-113677438D02*
X187390475Y-113629819D01*
X186723808Y-113629819D02*
X186057142Y-113629819D01*
X186057142Y-113629819D02*
X186485713Y-114629819D01*
X185771427Y-113629819D02*
X185104761Y-113629819D01*
X185104761Y-113629819D02*
X185771427Y-114629819D01*
X185771427Y-114629819D02*
X185104761Y-114629819D01*
X184723808Y-114248866D02*
X183961904Y-114248866D01*
X184342856Y-114629819D02*
X184342856Y-113867914D01*
X190231009Y-106341666D02*
X190231009Y-106008333D01*
X190754819Y-106008333D02*
X189754819Y-106008333D01*
X189754819Y-106008333D02*
X189754819Y-106484523D01*
X190754819Y-107389285D02*
X190754819Y-106817857D01*
X190754819Y-107103571D02*
X189754819Y-107103571D01*
X189754819Y-107103571D02*
X189897676Y-107008333D01*
X189897676Y-107008333D02*
X189992914Y-106913095D01*
X189992914Y-106913095D02*
X190040533Y-106817857D01*
X196166666Y-68234580D02*
X196214285Y-68282200D01*
X196214285Y-68282200D02*
X196357142Y-68329819D01*
X196357142Y-68329819D02*
X196452380Y-68329819D01*
X196452380Y-68329819D02*
X196595237Y-68282200D01*
X196595237Y-68282200D02*
X196690475Y-68186961D01*
X196690475Y-68186961D02*
X196738094Y-68091723D01*
X196738094Y-68091723D02*
X196785713Y-67901247D01*
X196785713Y-67901247D02*
X196785713Y-67758390D01*
X196785713Y-67758390D02*
X196738094Y-67567914D01*
X196738094Y-67567914D02*
X196690475Y-67472676D01*
X196690475Y-67472676D02*
X196595237Y-67377438D01*
X196595237Y-67377438D02*
X196452380Y-67329819D01*
X196452380Y-67329819D02*
X196357142Y-67329819D01*
X196357142Y-67329819D02*
X196214285Y-67377438D01*
X196214285Y-67377438D02*
X196166666Y-67425057D01*
X195785713Y-67425057D02*
X195738094Y-67377438D01*
X195738094Y-67377438D02*
X195642856Y-67329819D01*
X195642856Y-67329819D02*
X195404761Y-67329819D01*
X195404761Y-67329819D02*
X195309523Y-67377438D01*
X195309523Y-67377438D02*
X195261904Y-67425057D01*
X195261904Y-67425057D02*
X195214285Y-67520295D01*
X195214285Y-67520295D02*
X195214285Y-67615533D01*
X195214285Y-67615533D02*
X195261904Y-67758390D01*
X195261904Y-67758390D02*
X195833332Y-68329819D01*
X195833332Y-68329819D02*
X195214285Y-68329819D01*
X197472619Y-71754819D02*
X198044047Y-71754819D01*
X197758333Y-71754819D02*
X197758333Y-70754819D01*
X197758333Y-70754819D02*
X197853571Y-70897676D01*
X197853571Y-70897676D02*
X197948809Y-70992914D01*
X197948809Y-70992914D02*
X198044047Y-71040533D01*
X196853571Y-70754819D02*
X196758333Y-70754819D01*
X196758333Y-70754819D02*
X196663095Y-70802438D01*
X196663095Y-70802438D02*
X196615476Y-70850057D01*
X196615476Y-70850057D02*
X196567857Y-70945295D01*
X196567857Y-70945295D02*
X196520238Y-71135771D01*
X196520238Y-71135771D02*
X196520238Y-71373866D01*
X196520238Y-71373866D02*
X196567857Y-71564342D01*
X196567857Y-71564342D02*
X196615476Y-71659580D01*
X196615476Y-71659580D02*
X196663095Y-71707200D01*
X196663095Y-71707200D02*
X196758333Y-71754819D01*
X196758333Y-71754819D02*
X196853571Y-71754819D01*
X196853571Y-71754819D02*
X196948809Y-71707200D01*
X196948809Y-71707200D02*
X196996428Y-71659580D01*
X196996428Y-71659580D02*
X197044047Y-71564342D01*
X197044047Y-71564342D02*
X197091666Y-71373866D01*
X197091666Y-71373866D02*
X197091666Y-71135771D01*
X197091666Y-71135771D02*
X197044047Y-70945295D01*
X197044047Y-70945295D02*
X196996428Y-70850057D01*
X196996428Y-70850057D02*
X196948809Y-70802438D01*
X196948809Y-70802438D02*
X196853571Y-70754819D01*
X195901190Y-70754819D02*
X195805952Y-70754819D01*
X195805952Y-70754819D02*
X195710714Y-70802438D01*
X195710714Y-70802438D02*
X195663095Y-70850057D01*
X195663095Y-70850057D02*
X195615476Y-70945295D01*
X195615476Y-70945295D02*
X195567857Y-71135771D01*
X195567857Y-71135771D02*
X195567857Y-71373866D01*
X195567857Y-71373866D02*
X195615476Y-71564342D01*
X195615476Y-71564342D02*
X195663095Y-71659580D01*
X195663095Y-71659580D02*
X195710714Y-71707200D01*
X195710714Y-71707200D02*
X195805952Y-71754819D01*
X195805952Y-71754819D02*
X195901190Y-71754819D01*
X195901190Y-71754819D02*
X195996428Y-71707200D01*
X195996428Y-71707200D02*
X196044047Y-71659580D01*
X196044047Y-71659580D02*
X196091666Y-71564342D01*
X196091666Y-71564342D02*
X196139285Y-71373866D01*
X196139285Y-71373866D02*
X196139285Y-71135771D01*
X196139285Y-71135771D02*
X196091666Y-70945295D01*
X196091666Y-70945295D02*
X196044047Y-70850057D01*
X196044047Y-70850057D02*
X195996428Y-70802438D01*
X195996428Y-70802438D02*
X195901190Y-70754819D01*
X195139285Y-71088152D02*
X195139285Y-72088152D01*
X195139285Y-71135771D02*
X195044047Y-71088152D01*
X195044047Y-71088152D02*
X194853571Y-71088152D01*
X194853571Y-71088152D02*
X194758333Y-71135771D01*
X194758333Y-71135771D02*
X194710714Y-71183390D01*
X194710714Y-71183390D02*
X194663095Y-71278628D01*
X194663095Y-71278628D02*
X194663095Y-71564342D01*
X194663095Y-71564342D02*
X194710714Y-71659580D01*
X194710714Y-71659580D02*
X194758333Y-71707200D01*
X194758333Y-71707200D02*
X194853571Y-71754819D01*
X194853571Y-71754819D02*
X195044047Y-71754819D01*
X195044047Y-71754819D02*
X195139285Y-71707200D01*
X193901190Y-71231009D02*
X194234523Y-71231009D01*
X194234523Y-71754819D02*
X194234523Y-70754819D01*
X194234523Y-70754819D02*
X193758333Y-70754819D01*
%TO.C,TP1*%
D12*
X195700000Y-122105000D02*
X198100000Y-122105000D01*
X198100000Y-126305000D01*
X195700000Y-126305000D01*
X195700000Y-122105000D01*
%TO.C,R15*%
X204465000Y-114660436D02*
X204465000Y-115114564D01*
X205935000Y-114660436D02*
X205935000Y-115114564D01*
%TO.C,R4*%
X196527064Y-74940000D02*
X196072936Y-74940000D01*
X196527064Y-76410000D02*
X196072936Y-76410000D01*
%TO.C,Y1*%
X195630000Y-119245000D02*
X195630000Y-118435000D01*
X196300000Y-120615000D02*
X195630000Y-119245000D01*
X197500000Y-120615000D02*
X198170000Y-119245000D01*
X198170000Y-119245000D02*
X198170000Y-118435000D01*
X198660000Y-120615000D02*
X195140000Y-120615000D01*
X195140000Y-131635000D01*
X198660000Y-131635000D01*
X198660000Y-120615000D01*
%TO.C,R16*%
X208265000Y-114660436D02*
X208265000Y-115114564D01*
X209735000Y-114660436D02*
X209735000Y-115114564D01*
%TO.C,R1*%
X183865000Y-87947936D02*
X183865000Y-88402064D01*
X185335000Y-87947936D02*
X185335000Y-88402064D01*
%TO.C,D6*%
X185140000Y-99465000D02*
X186450000Y-99465000D01*
X185140000Y-100685000D02*
X185140000Y-99465000D01*
X185140000Y-100685000D02*
X186450000Y-100685000D01*
%TO.C,R5*%
X223165000Y-63602064D02*
X223165000Y-63147936D01*
X224635000Y-63602064D02*
X224635000Y-63147936D01*
%TO.C,U4*%
X202840000Y-118115000D02*
X202840000Y-118370000D01*
X202840000Y-128380000D02*
X202840000Y-128635000D01*
X202840000Y-128635000D02*
X210560000Y-128635000D01*
X210560000Y-118115000D02*
X202840000Y-118115000D01*
X210560000Y-118370000D02*
X210560000Y-118115000D01*
X210560000Y-128635000D02*
X210560000Y-128380000D01*
X202390000Y-128855000D02*
X201710000Y-128855000D01*
X202050000Y-128385000D01*
X202390000Y-128855000D01*
G36*
X202390000Y-128855000D02*
G01*
X201710000Y-128855000D01*
X202050000Y-128385000D01*
X202390000Y-128855000D01*
G37*
%TO.C,U1*%
X219115000Y-78990000D02*
X219115000Y-83110000D01*
X219115000Y-83110000D02*
X219170000Y-83110000D01*
X219170000Y-78990000D02*
X219115000Y-78990000D01*
X229180000Y-83110000D02*
X229235000Y-83110000D01*
X229235000Y-78990000D02*
X229180000Y-78990000D01*
X229235000Y-83110000D02*
X229235000Y-78990000D01*
X219165000Y-78450000D02*
X218835000Y-78690000D01*
X218835000Y-78210000D01*
X219165000Y-78450000D01*
G36*
X219165000Y-78450000D02*
G01*
X218835000Y-78690000D01*
X218835000Y-78210000D01*
X219165000Y-78450000D01*
G37*
%TO.C,C1*%
X190565000Y-102136252D02*
X190565000Y-101613748D01*
X192035000Y-102136252D02*
X192035000Y-101613748D01*
%TO.C,C4*%
X223865000Y-89036252D02*
X223865000Y-88513748D01*
X225335000Y-89036252D02*
X225335000Y-88513748D01*
%TO.C,R3*%
X178465000Y-63702064D02*
X178465000Y-63247936D01*
X179935000Y-63702064D02*
X179935000Y-63247936D01*
%TO.C,U3*%
X193740000Y-111015000D02*
X193740000Y-111110000D01*
X193740000Y-116040000D02*
X193740000Y-116135000D01*
X193740000Y-116135000D02*
X197860000Y-116135000D01*
X197860000Y-111015000D02*
X193740000Y-111015000D01*
X197860000Y-111110000D02*
X197860000Y-111015000D01*
X197860000Y-116135000D02*
X197860000Y-116040000D01*
X193440000Y-116375000D02*
X192960000Y-116375000D01*
X193200000Y-116045000D01*
X193440000Y-116375000D01*
G36*
X193440000Y-116375000D02*
G01*
X192960000Y-116375000D01*
X193200000Y-116045000D01*
X193440000Y-116375000D01*
G37*
%TO.C,F1*%
X187490000Y-107510242D02*
X187490000Y-105839758D01*
X189310000Y-107510242D02*
X189310000Y-105839758D01*
%TO.C,C2*%
X195938748Y-68840000D02*
X196461252Y-68840000D01*
X195938748Y-70310000D02*
X196461252Y-70310000D01*
%TD*%
M02*
