%TF.GenerationSoftware,KiCad,Pcbnew,9.0.7*%
%TF.CreationDate,2026-08-21T19:55:47+05:30*%
%TF.ProjectId,Nursary_OneCH,4e757273-6172-4795-9f4f-6e6543482e6b,rev?*%
%TF.SameCoordinates,Original*%
%TF.FileFunction,Copper,L1,Top*%
%TF.FilePolarity,Positive*%
%FSLAX46Y46*%
G04 Gerber Fmt 4.6, Leading zero omitted, Abs format (unit mm)*
G04 Created by KiCad (PCBNEW 9.0.7) date 2026-08-21 19:55:47*
%MOMM*%
%LPD*%
G01*
G04 APERTURE LIST*
G04 Aperture macros list*
%AMRoundRect*
0 Rectangle with rounded corners*
0 $1 Rounding radius*
0 $2 $3 $4 $5 $6 $7 $8 $9 X,Y pos of 4 corners*
0 Add a 4 corners polygon primitive as box body*
4,1,4,$2,$3,$4,$5,$6,$7,$8,$9,$2,$3,0*
0 Add four circle primitives for the rounded corners*
1,1,$1+$1,$2,$3*
1,1,$1+$1,$4,$5*
1,1,$1+$1,$6,$7*
1,1,$1+$1,$8,$9*
0 Add four rect primitives between the rounded corners*
20,1,$1+$1,$2,$3,$4,$5,0*
20,1,$1+$1,$4,$5,$6,$7,0*
20,1,$1+$1,$6,$7,$8,$9,0*
20,1,$1+$1,$8,$9,$2,$3,0*%
G04 Aperture macros list end*
%TA.AperFunction,Conductor*%
%ADD10C,0.200000*%
%TD*%
%TA.AperFunction,ComponentPad*%
%ADD11O,2.200000X1.500000*%
%TD*%
%TA.AperFunction,ComponentPad*%
%ADD12RoundRect,0.249999X-1.550001X0.790001X-1.550001X-0.790001X1.550001X-0.790001X1.550001X0.790001X0*%
%TD*%
%TA.AperFunction,ComponentPad*%
%ADD13O,3.600000X2.080000*%
%TD*%
%TA.AperFunction,SMDPad,CuDef*%
%ADD14RoundRect,0.243750X-0.456250X0.243750X-0.456250X-0.243750X0.456250X-0.243750X0.456250X0.243750X0*%
%TD*%
%TA.AperFunction,WasherPad*%
%ADD15C,4.500000*%
%TD*%
%TA.AperFunction,ComponentPad*%
%ADD16RoundRect,0.249999X1.550001X-0.790001X1.550001X0.790001X-1.550001X0.790001X-1.550001X-0.790001X0*%
%TD*%
%TA.AperFunction,ComponentPad*%
%ADD17C,3.000000*%
%TD*%
%TA.AperFunction,ComponentPad*%
%ADD18C,2.500000*%
%TD*%
%TA.AperFunction,ComponentPad*%
%ADD19C,1.200000*%
%TD*%
%TA.AperFunction,ComponentPad*%
%ADD20R,3.000000X3.000000*%
%TD*%
%TA.AperFunction,ComponentPad*%
%ADD21RoundRect,0.250000X0.625000X-0.350000X0.625000X0.350000X-0.625000X0.350000X-0.625000X-0.350000X0*%
%TD*%
%TA.AperFunction,ComponentPad*%
%ADD22O,1.750000X1.200000*%
%TD*%
%TA.AperFunction,ViaPad*%
%ADD23C,0.800000*%
%TD*%
%TA.AperFunction,Conductor*%
%ADD24C,0.500000*%
%TD*%
G04 APERTURE END LIST*
%TO.N,/BATT*%
D10*
X175900000Y-43805000D02*
X233020000Y-43805000D01*
X233020000Y-135575000D01*
X175900000Y-135575000D01*
X175900000Y-43805000D01*
%TD*%
D11*
%TO.P,U5,1,3V3_Out*%
%TO.N,+3.3V*%
X213377500Y-95005000D03*
%TO.P,U5,2,GND*%
%TO.N,GND*%
X213377500Y-92445000D03*
%TO.P,U5,10,D19*%
%TO.N,/RELAY1_MCU*%
X213352500Y-72170000D03*
%TO.P,U5,11,D21/I2C_SDA*%
%TO.N,/SDA*%
X213352500Y-69610000D03*
%TO.P,U5,14,D22/I2C_SCL*%
%TO.N,/SCL*%
X213327500Y-61995000D03*
%TO.P,U5,20,D35/Input_only*%
%TO.N,/FLOW1_MCU*%
X188352500Y-69610000D03*
%TO.P,U5,21,D32*%
%TO.N,/FLOW1_LED_MCU*%
X188352500Y-72170000D03*
%TO.P,U5,29,GND*%
%TO.N,GND*%
X188377500Y-92445000D03*
%TO.P,U5,30,VIN/5V_Power_IN*%
%TO.N,+5V*%
X188377500Y-95005000D03*
%TD*%
D12*
%TO.P,J2,1,Pin_1*%
%TO.N,Net-(J2-Pin_1)*%
X223340000Y-119005000D03*
D13*
%TO.P,J2,2,Pin_2*%
%TO.N,Net-(J2-Pin_2)*%
X223340000Y-124085000D03*
%TD*%
D14*
%TO.P,D1,1,K*%
%TO.N,GND*%
X179300000Y-58037500D03*
%TO.P,D1,2,A*%
%TO.N,Net-(D1-A)*%
X179300000Y-61325000D03*
%TD*%
D15*
%TO.P,,*%
%TO.N,*%
X220750000Y-47685000D03*
%TD*%
%TO.P,,*%
%TO.N,*%
X220750000Y-131685000D03*
%TD*%
D16*
%TO.P,J1,1,Pin_1*%
%TO.N,+5VP*%
X181190000Y-105155000D03*
D13*
%TO.P,J1,2,Pin_2*%
%TO.N,/FLOW1_CON*%
X181190000Y-100075000D03*
%TO.P,J1,3,Pin_3*%
%TO.N,GND*%
X181190000Y-94995000D03*
%TD*%
D17*
%TO.P,K1,1*%
%TO.N,Net-(J2-Pin_2)*%
X224190000Y-93925000D03*
D18*
%TO.P,K1,2*%
%TO.N,Net-(D4-K)*%
X218140000Y-95875000D03*
D17*
%TO.P,K1,3*%
%TO.N,Net-(J2-Pin_1)*%
X218140000Y-108075000D03*
%TO.P,K1,4*%
%TO.N,unconnected-(K1-Pad4)*%
X230190000Y-108125000D03*
D18*
%TO.P,K1,5*%
%TO.N,+5V*%
X230140000Y-95875000D03*
%TD*%
D15*
%TO.P,,*%
%TO.N,*%
X190750000Y-131685000D03*
%TD*%
D19*
%TO.P,C6,1*%
%TO.N,+5V*%
X229700000Y-89775000D03*
%TO.P,C6,2*%
%TO.N,GND*%
X229700000Y-87775000D03*
%TD*%
D14*
%TO.P,D4,1,K*%
%TO.N,Net-(D4-K)*%
X223800000Y-58087500D03*
%TO.P,D4,2,A*%
%TO.N,Net-(D4-A)*%
X223800000Y-61275000D03*
%TD*%
D20*
%TO.P,BT1,1,+*%
%TO.N,/BATT*%
X203150000Y-132042454D03*
D17*
%TO.P,BT1,2,-*%
%TO.N,GND*%
X203150000Y-111242454D03*
%TD*%
D15*
%TO.P,,*%
%TO.N,*%
X190750000Y-47685000D03*
%TD*%
D21*
%TO.P,J4,1,Pin_1*%
%TO.N,GND*%
X182500000Y-119175000D03*
D22*
%TO.P,J4,2,Pin_2*%
%TO.N,+5V*%
X182500000Y-117175000D03*
%TD*%
D19*
%TO.P,Y1,1,1*%
%TO.N,Net-(U3-X2)*%
X198170000Y-117875000D03*
%TO.P,Y1,2,2*%
%TO.N,Net-(U3-X1)*%
X195630000Y-117875000D03*
%TD*%
D23*
%TO.N,GND*%
X193000000Y-61405000D03*
X207400000Y-77568000D03*
X209800000Y-77568000D03*
X198700000Y-52675000D03*
X224100000Y-83505000D03*
X207400000Y-74468000D03*
X199800000Y-121075000D03*
X211500000Y-105875000D03*
X218600000Y-67905000D03*
X199800000Y-70905000D03*
X195400000Y-59805000D03*
X216800000Y-87505000D03*
X191900000Y-81775000D03*
X191900000Y-86375000D03*
X196100000Y-104375000D03*
X199800000Y-122675000D03*
X198700000Y-51175000D03*
X187900000Y-119075000D03*
X191900000Y-83375000D03*
X191900000Y-84875000D03*
X199800000Y-125675000D03*
X187900000Y-123675000D03*
X224200000Y-76305000D03*
X180400000Y-74775000D03*
X204700000Y-105875000D03*
X187900000Y-122175000D03*
X198700000Y-49675000D03*
X210200000Y-49575000D03*
X225600000Y-85905000D03*
X196100000Y-105975000D03*
X216800000Y-85905000D03*
X209800000Y-74468000D03*
X211500000Y-99675000D03*
X204700000Y-99675000D03*
X226600000Y-77905000D03*
X196100000Y-99775000D03*
X199800000Y-127275000D03*
X180400000Y-80975000D03*
X211500000Y-101275000D03*
X180400000Y-79375000D03*
X211500000Y-102775000D03*
X187900000Y-125275000D03*
X225600000Y-83505000D03*
X209800000Y-76068000D03*
X196100000Y-102875000D03*
X198700000Y-48075000D03*
X210200000Y-52575000D03*
X193000000Y-59805000D03*
X210200000Y-54175000D03*
X226600000Y-79405000D03*
X193000000Y-62905000D03*
X180400000Y-76375000D03*
X224200000Y-77905000D03*
X218600000Y-66405000D03*
X218600000Y-64805000D03*
X224100000Y-85905000D03*
X198300000Y-109605000D03*
X180400000Y-77875000D03*
X210200000Y-51075000D03*
X216200000Y-67905000D03*
X187900000Y-120675000D03*
X199800000Y-73905000D03*
X207400000Y-76068000D03*
X199800000Y-124175000D03*
X216800000Y-89005000D03*
X195400000Y-61405000D03*
X222500000Y-85905000D03*
X199800000Y-72405000D03*
X204700000Y-102775000D03*
X226600000Y-76305000D03*
X211500000Y-104275000D03*
X224200000Y-79405000D03*
X191900000Y-87975000D03*
X204700000Y-104275000D03*
X199800000Y-75505000D03*
X216200000Y-66405000D03*
X204700000Y-101275000D03*
X216200000Y-64805000D03*
X210200000Y-47975000D03*
X198700000Y-54275000D03*
X195400000Y-62905000D03*
X196100000Y-101375000D03*
X199800000Y-69305000D03*
X222500000Y-83505000D03*
%TO.N,+3.3V*%
X205600000Y-126275000D03*
X208500000Y-93775000D03*
X200600000Y-83275000D03*
X207100000Y-113375000D03*
%TO.N,Net-(D1-A)*%
X179230000Y-62615000D03*
%TO.N,Net-(D4-A)*%
X223930000Y-62545000D03*
%TO.N,Net-(D4-K)*%
X221600000Y-75675000D03*
X221600000Y-58375000D03*
X218100000Y-83575000D03*
%TO.N,/SCL*%
X198000000Y-91975000D03*
X198000000Y-97775000D03*
%TO.N,/SDA*%
X200200000Y-96675000D03*
X200200000Y-91175000D03*
%TD*%
D24*
%TO.N,+3.3V*%
X207100000Y-113375000D02*
X207100000Y-124775000D01*
X208500000Y-85175000D02*
X206600000Y-83275000D01*
X207100000Y-124775000D02*
X205600000Y-126275000D01*
X206600000Y-83275000D02*
X200600000Y-83275000D01*
X208500000Y-93775000D02*
X208500000Y-85175000D01*
%TO.N,Net-(D1-A)*%
X179230000Y-61395000D02*
X179300000Y-61325000D01*
X179230000Y-62615000D02*
X179230000Y-61395000D01*
%TO.N,Net-(D4-A)*%
X223930000Y-61405000D02*
X223800000Y-61275000D01*
X223930000Y-62545000D02*
X223930000Y-61405000D01*
%TO.N,Net-(D4-K)*%
X220600000Y-76675000D02*
X221600000Y-75675000D01*
X223800000Y-58087500D02*
X221887500Y-58087500D01*
X218100000Y-77375000D02*
X218800000Y-76675000D01*
X218100000Y-83575000D02*
X218100000Y-77375000D01*
X218800000Y-76675000D02*
X220600000Y-76675000D01*
X221887500Y-58087500D02*
X221600000Y-58375000D01*
%TO.N,/SCL*%
X198000000Y-91975000D02*
X198000000Y-97775000D01*
%TO.N,/SDA*%
X200200000Y-96675000D02*
X200200000Y-91175000D01*
%TD*%
%TA.AperFunction,Conductor*%
%TO.N,GND*%
G36*
X232362539Y-44425185D02*
G01*
X232408294Y-44477989D01*
X232419500Y-44529500D01*
X232419500Y-90951000D01*
X232399815Y-91018039D01*
X232347011Y-91063794D01*
X232295500Y-91075000D01*
X230043208Y-91075000D01*
X229976169Y-91055315D01*
X229930414Y-91002511D01*
X229920470Y-90933353D01*
X229949495Y-90869797D01*
X230004889Y-90833069D01*
X230122445Y-90794873D01*
X230276788Y-90716232D01*
X230416928Y-90614414D01*
X230539414Y-90491928D01*
X230641232Y-90351788D01*
X230719873Y-90197445D01*
X230773402Y-90032701D01*
X230800500Y-89861611D01*
X230800500Y-89688389D01*
X230773402Y-89517299D01*
X230719873Y-89352555D01*
X230641232Y-89198212D01*
X230539414Y-89058072D01*
X230416928Y-88935586D01*
X230411789Y-88931852D01*
X230329479Y-88872049D01*
X230286813Y-88816719D01*
X230278747Y-88762007D01*
X230282736Y-88711288D01*
X229700001Y-88128553D01*
X229700000Y-88128553D01*
X229117261Y-88711289D01*
X229121253Y-88762003D01*
X229106889Y-88830381D01*
X229070521Y-88872049D01*
X228983078Y-88935581D01*
X228983069Y-88935588D01*
X228860588Y-89058069D01*
X228860588Y-89058070D01*
X228860586Y-89058072D01*
X228826854Y-89104500D01*
X228758768Y-89198211D01*
X228680128Y-89352552D01*
X228626597Y-89517302D01*
X228615536Y-89587139D01*
X228599500Y-89688389D01*
X228599500Y-89861611D01*
X228626598Y-90032701D01*
X228680127Y-90197445D01*
X228758768Y-90351788D01*
X228860586Y-90491928D01*
X228983072Y-90614414D01*
X229123212Y-90716232D01*
X229277555Y-90794873D01*
X229395110Y-90833069D01*
X229452786Y-90872507D01*
X229479984Y-90936865D01*
X229468069Y-91005712D01*
X229420825Y-91057187D01*
X229356792Y-91075000D01*
X216399999Y-91075000D01*
X216300000Y-91174999D01*
X216300000Y-103123638D01*
X216291355Y-103153078D01*
X216284832Y-103183065D01*
X216281077Y-103188080D01*
X216280315Y-103190677D01*
X216263681Y-103211319D01*
X216136319Y-103338681D01*
X216074996Y-103372166D01*
X216048638Y-103375000D01*
X213199999Y-103375000D01*
X213100000Y-103474999D01*
X213100000Y-103475000D01*
X213100000Y-114275000D01*
X216076000Y-114275000D01*
X216143039Y-114294685D01*
X216188794Y-114347489D01*
X216200000Y-114399000D01*
X216200000Y-134850500D01*
X216180315Y-134917539D01*
X216127511Y-134963294D01*
X216076000Y-134974500D01*
X176624500Y-134974500D01*
X176557461Y-134954815D01*
X176511706Y-134902011D01*
X176500500Y-134850500D01*
X176500500Y-131530528D01*
X187999500Y-131530528D01*
X187999500Y-131839471D01*
X188034086Y-132146437D01*
X188034089Y-132146455D01*
X188102831Y-132447635D01*
X188102835Y-132447647D01*
X188204862Y-132739222D01*
X188204868Y-132739236D01*
X188338903Y-133017562D01*
X188338905Y-133017565D01*
X188503265Y-133279143D01*
X188695880Y-133520674D01*
X188914326Y-133739120D01*
X189155857Y-133931735D01*
X189417435Y-134096095D01*
X189695771Y-134230135D01*
X189695777Y-134230137D01*
X189987352Y-134332164D01*
X189987364Y-134332168D01*
X190288548Y-134400911D01*
X190288554Y-134400911D01*
X190288562Y-134400913D01*
X190493206Y-134423970D01*
X190595529Y-134435499D01*
X190595532Y-134435500D01*
X190595535Y-134435500D01*
X190904468Y-134435500D01*
X190904469Y-134435499D01*
X191061356Y-134417822D01*
X191211437Y-134400913D01*
X191211442Y-134400912D01*
X191211452Y-134400911D01*
X191512636Y-134332168D01*
X191804229Y-134230135D01*
X192082565Y-134096095D01*
X192344143Y-133931735D01*
X192585674Y-133739120D01*
X192804120Y-133520674D01*
X192996735Y-133279143D01*
X193161095Y-133017565D01*
X193295135Y-132739229D01*
X193397168Y-132447636D01*
X193465911Y-132146452D01*
X193500500Y-131839465D01*
X193500500Y-131530535D01*
X193465911Y-131223548D01*
X193397168Y-130922364D01*
X193295135Y-130630771D01*
X193229553Y-130494589D01*
X201149500Y-130494589D01*
X201149500Y-133590324D01*
X201149501Y-133590330D01*
X201155908Y-133649937D01*
X201206202Y-133784782D01*
X201206206Y-133784789D01*
X201292452Y-133899998D01*
X201292455Y-133900001D01*
X201407664Y-133986247D01*
X201407671Y-133986251D01*
X201542517Y-134036545D01*
X201542516Y-134036545D01*
X201549444Y-134037289D01*
X201602127Y-134042954D01*
X204697872Y-134042953D01*
X204757483Y-134036545D01*
X204892331Y-133986250D01*
X205007546Y-133900000D01*
X205093796Y-133784785D01*
X205144091Y-133649937D01*
X205150500Y-133590327D01*
X205150499Y-130494582D01*
X205144091Y-130434971D01*
X205093796Y-130300123D01*
X205093795Y-130300122D01*
X205093793Y-130300118D01*
X205007547Y-130184909D01*
X205007544Y-130184906D01*
X204892335Y-130098660D01*
X204892328Y-130098656D01*
X204757482Y-130048362D01*
X204757483Y-130048362D01*
X204697883Y-130041955D01*
X204697881Y-130041954D01*
X204697873Y-130041954D01*
X204697864Y-130041954D01*
X201602129Y-130041954D01*
X201602123Y-130041955D01*
X201542516Y-130048362D01*
X201407671Y-130098656D01*
X201407664Y-130098660D01*
X201292455Y-130184906D01*
X201292452Y-130184909D01*
X201206206Y-130300118D01*
X201206202Y-130300125D01*
X201155908Y-130434971D01*
X201149501Y-130494570D01*
X201149501Y-130494577D01*
X201149500Y-130494589D01*
X193229553Y-130494589D01*
X193229547Y-130494577D01*
X193161096Y-130352437D01*
X193161095Y-130352435D01*
X192996735Y-130090857D01*
X192804120Y-129849326D01*
X192585674Y-129630880D01*
X192344143Y-129438265D01*
X192082565Y-129273905D01*
X192082562Y-129273903D01*
X191804236Y-129139868D01*
X191804222Y-129139862D01*
X191512647Y-129037835D01*
X191512635Y-129037831D01*
X191211455Y-128969089D01*
X191211437Y-128969086D01*
X190904471Y-128934500D01*
X190904465Y-128934500D01*
X190595535Y-128934500D01*
X190595528Y-128934500D01*
X190288562Y-128969086D01*
X190288544Y-128969089D01*
X189987364Y-129037831D01*
X189987352Y-129037835D01*
X189695777Y-129139862D01*
X189695763Y-129139868D01*
X189417437Y-129273903D01*
X189155858Y-129438264D01*
X188914326Y-129630879D01*
X188695879Y-129849326D01*
X188503264Y-130090858D01*
X188338903Y-130352437D01*
X188204868Y-130630763D01*
X188204862Y-130630777D01*
X188102835Y-130922352D01*
X188102831Y-130922364D01*
X188034089Y-131223544D01*
X188034086Y-131223562D01*
X187999500Y-131530528D01*
X176500500Y-131530528D01*
X176500500Y-126186304D01*
X204699500Y-126186304D01*
X204699500Y-126363695D01*
X204734103Y-126537658D01*
X204734106Y-126537667D01*
X204801983Y-126701540D01*
X204801990Y-126701553D01*
X204900535Y-126849034D01*
X204900538Y-126849038D01*
X205025961Y-126974461D01*
X205025965Y-126974464D01*
X205173446Y-127073009D01*
X205173459Y-127073016D01*
X205296363Y-127123923D01*
X205337334Y-127140894D01*
X205337336Y-127140894D01*
X205337341Y-127140896D01*
X205511304Y-127175499D01*
X205511307Y-127175500D01*
X205511309Y-127175500D01*
X205688693Y-127175500D01*
X205688694Y-127175499D01*
X205746682Y-127163964D01*
X205862658Y-127140896D01*
X205862661Y-127140894D01*
X205862666Y-127140894D01*
X206026547Y-127073013D01*
X206174035Y-126974464D01*
X206299464Y-126849035D01*
X206398013Y-126701547D01*
X206465894Y-126537666D01*
X206475239Y-126490680D01*
X206507622Y-126428772D01*
X206509119Y-126427247D01*
X207682951Y-125253416D01*
X207765084Y-125130495D01*
X207821658Y-124993913D01*
X207850500Y-124848918D01*
X207850500Y-124701083D01*
X207850500Y-113910269D01*
X207870185Y-113843230D01*
X207871398Y-113841378D01*
X207898013Y-113801547D01*
X207965894Y-113637666D01*
X208000500Y-113463691D01*
X208000500Y-113286309D01*
X208000500Y-113286306D01*
X208000499Y-113286304D01*
X207965896Y-113112341D01*
X207965893Y-113112332D01*
X207898016Y-112948459D01*
X207898009Y-112948446D01*
X207799464Y-112800965D01*
X207799461Y-112800961D01*
X207674038Y-112675538D01*
X207674034Y-112675535D01*
X207526553Y-112576990D01*
X207526540Y-112576983D01*
X207362667Y-112509106D01*
X207362658Y-112509103D01*
X207188694Y-112474500D01*
X207188691Y-112474500D01*
X207011309Y-112474500D01*
X207011306Y-112474500D01*
X206837341Y-112509103D01*
X206837332Y-112509106D01*
X206673459Y-112576983D01*
X206673446Y-112576990D01*
X206525965Y-112675535D01*
X206525961Y-112675538D01*
X206400538Y-112800961D01*
X206400535Y-112800965D01*
X206301990Y-112948446D01*
X206301983Y-112948459D01*
X206234106Y-113112332D01*
X206234103Y-113112341D01*
X206199500Y-113286304D01*
X206199500Y-113463695D01*
X206234103Y-113637658D01*
X206234106Y-113637667D01*
X206301984Y-113801542D01*
X206301985Y-113801543D01*
X206301987Y-113801547D01*
X206328602Y-113841378D01*
X206349480Y-113908055D01*
X206349500Y-113910269D01*
X206349500Y-124412769D01*
X206329815Y-124479808D01*
X206313181Y-124500450D01*
X205447807Y-125365823D01*
X205386484Y-125399308D01*
X205384319Y-125399759D01*
X205337337Y-125409104D01*
X205337331Y-125409106D01*
X205173459Y-125476983D01*
X205173446Y-125476990D01*
X205025965Y-125575535D01*
X205025961Y-125575538D01*
X204900538Y-125700961D01*
X204900535Y-125700965D01*
X204801990Y-125848446D01*
X204801983Y-125848459D01*
X204734106Y-126012332D01*
X204734103Y-126012341D01*
X204699500Y-126186304D01*
X176500500Y-126186304D01*
X176500500Y-117088389D01*
X181124500Y-117088389D01*
X181124500Y-117261611D01*
X181151598Y-117432701D01*
X181205127Y-117597445D01*
X181283768Y-117751788D01*
X181385586Y-117891928D01*
X181385588Y-117891930D01*
X181493491Y-117999833D01*
X181526976Y-118061156D01*
X181521992Y-118130848D01*
X181480120Y-118186781D01*
X181470907Y-118193053D01*
X181406654Y-118232684D01*
X181282684Y-118356654D01*
X181190643Y-118505875D01*
X181190641Y-118505880D01*
X181135494Y-118672302D01*
X181135493Y-118672309D01*
X181125000Y-118775013D01*
X181125000Y-118925000D01*
X182219670Y-118925000D01*
X182199925Y-118944745D01*
X182150556Y-119030255D01*
X182125000Y-119125630D01*
X182125000Y-119224370D01*
X182150556Y-119319745D01*
X182199925Y-119405255D01*
X182219670Y-119425000D01*
X181125001Y-119425000D01*
X181125001Y-119574986D01*
X181135494Y-119677697D01*
X181190641Y-119844119D01*
X181190643Y-119844124D01*
X181282684Y-119993345D01*
X181406654Y-120117315D01*
X181555875Y-120209356D01*
X181555880Y-120209358D01*
X181722302Y-120264505D01*
X181722309Y-120264506D01*
X181825019Y-120274999D01*
X182249999Y-120274999D01*
X182250000Y-120274998D01*
X182250000Y-119455330D01*
X182269745Y-119475075D01*
X182355255Y-119524444D01*
X182450630Y-119550000D01*
X182549370Y-119550000D01*
X182644745Y-119524444D01*
X182730255Y-119475075D01*
X182750000Y-119455330D01*
X182750000Y-120274999D01*
X183174972Y-120274999D01*
X183174986Y-120274998D01*
X183277697Y-120264505D01*
X183444119Y-120209358D01*
X183444124Y-120209356D01*
X183593345Y-120117315D01*
X183717315Y-119993345D01*
X183809356Y-119844124D01*
X183809358Y-119844119D01*
X183864505Y-119677697D01*
X183864506Y-119677690D01*
X183874999Y-119574986D01*
X183875000Y-119574973D01*
X183875000Y-119425000D01*
X182780330Y-119425000D01*
X182800075Y-119405255D01*
X182849444Y-119319745D01*
X182875000Y-119224370D01*
X182875000Y-119125630D01*
X182849444Y-119030255D01*
X182800075Y-118944745D01*
X182780330Y-118925000D01*
X183874999Y-118925000D01*
X183874999Y-118775028D01*
X183874998Y-118775013D01*
X183864505Y-118672302D01*
X183809358Y-118505880D01*
X183809356Y-118505875D01*
X183717315Y-118356654D01*
X183593343Y-118232682D01*
X183529093Y-118193053D01*
X183482368Y-118141105D01*
X183471145Y-118072143D01*
X183498988Y-118008061D01*
X183506486Y-117999855D01*
X183614414Y-117891928D01*
X183689640Y-117788389D01*
X194529500Y-117788389D01*
X194529500Y-117961610D01*
X194556304Y-118130848D01*
X194556598Y-118132701D01*
X194610127Y-118297445D01*
X194688768Y-118451788D01*
X194790586Y-118591928D01*
X194913072Y-118714414D01*
X195053212Y-118816232D01*
X195207555Y-118894873D01*
X195372299Y-118948402D01*
X195543389Y-118975500D01*
X195543390Y-118975500D01*
X195716610Y-118975500D01*
X195716611Y-118975500D01*
X195887701Y-118948402D01*
X196052445Y-118894873D01*
X196206788Y-118816232D01*
X196346928Y-118714414D01*
X196469414Y-118591928D01*
X196571232Y-118451788D01*
X196649873Y-118297445D01*
X196703402Y-118132701D01*
X196730500Y-117961611D01*
X196730500Y-117788389D01*
X197069500Y-117788389D01*
X197069500Y-117961610D01*
X197096304Y-118130848D01*
X197096598Y-118132701D01*
X197150127Y-118297445D01*
X197228768Y-118451788D01*
X197330586Y-118591928D01*
X197453072Y-118714414D01*
X197593212Y-118816232D01*
X197747555Y-118894873D01*
X197912299Y-118948402D01*
X198083389Y-118975500D01*
X198083390Y-118975500D01*
X198256610Y-118975500D01*
X198256611Y-118975500D01*
X198427701Y-118948402D01*
X198592445Y-118894873D01*
X198746788Y-118816232D01*
X198886928Y-118714414D01*
X199009414Y-118591928D01*
X199111232Y-118451788D01*
X199189873Y-118297445D01*
X199243402Y-118132701D01*
X199270500Y-117961611D01*
X199270500Y-117788389D01*
X199243402Y-117617299D01*
X199189873Y-117452555D01*
X199111232Y-117298212D01*
X199009414Y-117158072D01*
X198886928Y-117035586D01*
X198746788Y-116933768D01*
X198592445Y-116855127D01*
X198427701Y-116801598D01*
X198427699Y-116801597D01*
X198427698Y-116801597D01*
X198296271Y-116780781D01*
X198256611Y-116774500D01*
X198083389Y-116774500D01*
X198043728Y-116780781D01*
X197912302Y-116801597D01*
X197747552Y-116855128D01*
X197593211Y-116933768D01*
X197513256Y-116991859D01*
X197453072Y-117035586D01*
X197453070Y-117035588D01*
X197453069Y-117035588D01*
X197330588Y-117158069D01*
X197330588Y-117158070D01*
X197330586Y-117158072D01*
X197286859Y-117218256D01*
X197228768Y-117298211D01*
X197150128Y-117452552D01*
X197096597Y-117617302D01*
X197069500Y-117788389D01*
X196730500Y-117788389D01*
X196703402Y-117617299D01*
X196649873Y-117452555D01*
X196571232Y-117298212D01*
X196469414Y-117158072D01*
X196346928Y-117035586D01*
X196206788Y-116933768D01*
X196052445Y-116855127D01*
X195887701Y-116801598D01*
X195887699Y-116801597D01*
X195887698Y-116801597D01*
X195756271Y-116780781D01*
X195716611Y-116774500D01*
X195543389Y-116774500D01*
X195503728Y-116780781D01*
X195372302Y-116801597D01*
X195207552Y-116855128D01*
X195053211Y-116933768D01*
X194973256Y-116991859D01*
X194913072Y-117035586D01*
X194913070Y-117035588D01*
X194913069Y-117035588D01*
X194790588Y-117158069D01*
X194790588Y-117158070D01*
X194790586Y-117158072D01*
X194746859Y-117218256D01*
X194688768Y-117298211D01*
X194610128Y-117452552D01*
X194556597Y-117617302D01*
X194529500Y-117788389D01*
X183689640Y-117788389D01*
X183716232Y-117751788D01*
X183794873Y-117597445D01*
X183848402Y-117432701D01*
X183875500Y-117261611D01*
X183875500Y-117088389D01*
X183848402Y-116917299D01*
X183794873Y-116752555D01*
X183716232Y-116598212D01*
X183614414Y-116458072D01*
X183491928Y-116335586D01*
X183351788Y-116233768D01*
X183197445Y-116155127D01*
X183032701Y-116101598D01*
X183032699Y-116101597D01*
X183032698Y-116101597D01*
X182901271Y-116080781D01*
X182861611Y-116074500D01*
X182138389Y-116074500D01*
X182098728Y-116080781D01*
X181967302Y-116101597D01*
X181802552Y-116155128D01*
X181648211Y-116233768D01*
X181568256Y-116291859D01*
X181508072Y-116335586D01*
X181508070Y-116335588D01*
X181508069Y-116335588D01*
X181385588Y-116458069D01*
X181385588Y-116458070D01*
X181385586Y-116458072D01*
X181341859Y-116518256D01*
X181283768Y-116598211D01*
X181205128Y-116752552D01*
X181151597Y-116917302D01*
X181132863Y-117035586D01*
X181124500Y-117088389D01*
X176500500Y-117088389D01*
X176500500Y-111111359D01*
X201150000Y-111111359D01*
X201150000Y-111373548D01*
X201184220Y-111633463D01*
X201184222Y-111633474D01*
X201252075Y-111886709D01*
X201352404Y-112128925D01*
X201352409Y-112128936D01*
X201483488Y-112355970D01*
X201483494Y-112355978D01*
X201570080Y-112468819D01*
X202472421Y-111566478D01*
X202485359Y-111597712D01*
X202567437Y-111720551D01*
X202671903Y-111825017D01*
X202794742Y-111907095D01*
X202825974Y-111920031D01*
X201923633Y-112822371D01*
X201923633Y-112822372D01*
X202036475Y-112908959D01*
X202036483Y-112908965D01*
X202263517Y-113040044D01*
X202263528Y-113040049D01*
X202505744Y-113140378D01*
X202758979Y-113208231D01*
X202758990Y-113208233D01*
X203018905Y-113242453D01*
X203018920Y-113242454D01*
X203281080Y-113242454D01*
X203281094Y-113242453D01*
X203541009Y-113208233D01*
X203541020Y-113208231D01*
X203794255Y-113140378D01*
X204036471Y-113040049D01*
X204036482Y-113040044D01*
X204263516Y-112908965D01*
X204263534Y-112908953D01*
X204376365Y-112822373D01*
X204376365Y-112822371D01*
X203474025Y-111920032D01*
X203505258Y-111907095D01*
X203628097Y-111825017D01*
X203732563Y-111720551D01*
X203814641Y-111597712D01*
X203827577Y-111566479D01*
X204729917Y-112468819D01*
X204729919Y-112468819D01*
X204816499Y-112355988D01*
X204816511Y-112355970D01*
X204947590Y-112128936D01*
X204947595Y-112128925D01*
X205047924Y-111886709D01*
X205115777Y-111633474D01*
X205115779Y-111633463D01*
X205149999Y-111373548D01*
X205150000Y-111373534D01*
X205150000Y-111111373D01*
X205149999Y-111111359D01*
X205115779Y-110851444D01*
X205115777Y-110851433D01*
X205047924Y-110598198D01*
X204947595Y-110355982D01*
X204947590Y-110355971D01*
X204816511Y-110128937D01*
X204816505Y-110128929D01*
X204729918Y-110016087D01*
X204729917Y-110016087D01*
X203827577Y-110918427D01*
X203814641Y-110887196D01*
X203732563Y-110764357D01*
X203628097Y-110659891D01*
X203505258Y-110577813D01*
X203474023Y-110564875D01*
X204376365Y-109662534D01*
X204263524Y-109575948D01*
X204263516Y-109575942D01*
X204036482Y-109444863D01*
X204036471Y-109444858D01*
X203794255Y-109344529D01*
X203541020Y-109276676D01*
X203541009Y-109276674D01*
X203281094Y-109242454D01*
X203018905Y-109242454D01*
X202758990Y-109276674D01*
X202758979Y-109276676D01*
X202505744Y-109344529D01*
X202263528Y-109444858D01*
X202263517Y-109444863D01*
X202036471Y-109575950D01*
X201923633Y-109662533D01*
X201923633Y-109662534D01*
X202825974Y-110564875D01*
X202794742Y-110577813D01*
X202671903Y-110659891D01*
X202567437Y-110764357D01*
X202485359Y-110887196D01*
X202472421Y-110918428D01*
X201570080Y-110016087D01*
X201570079Y-110016087D01*
X201483496Y-110128925D01*
X201352409Y-110355971D01*
X201352404Y-110355982D01*
X201252075Y-110598198D01*
X201184222Y-110851433D01*
X201184220Y-110851444D01*
X201150000Y-111111359D01*
X176500500Y-111111359D01*
X176500500Y-104314982D01*
X178889500Y-104314982D01*
X178889500Y-105995017D01*
X178900000Y-106097796D01*
X178908849Y-106124500D01*
X178955186Y-106264335D01*
X179047288Y-106413656D01*
X179171344Y-106537712D01*
X179320665Y-106629814D01*
X179487202Y-106684999D01*
X179589990Y-106695500D01*
X179589995Y-106695500D01*
X182790005Y-106695500D01*
X182790010Y-106695500D01*
X182892798Y-106684999D01*
X183059335Y-106629814D01*
X183208656Y-106537712D01*
X183332712Y-106413656D01*
X183424814Y-106264335D01*
X183479999Y-106097798D01*
X183490500Y-105995010D01*
X183490500Y-104314990D01*
X183479999Y-104212202D01*
X183424814Y-104045665D01*
X183332712Y-103896344D01*
X183208656Y-103772288D01*
X183059335Y-103680186D01*
X182892798Y-103625001D01*
X182892796Y-103625000D01*
X182790017Y-103614500D01*
X182790010Y-103614500D01*
X179589990Y-103614500D01*
X179589982Y-103614500D01*
X179487203Y-103625000D01*
X179487202Y-103625001D01*
X179404669Y-103652349D01*
X179320667Y-103680185D01*
X179320662Y-103680187D01*
X179171342Y-103772289D01*
X179047289Y-103896342D01*
X178955187Y-104045662D01*
X178955186Y-104045665D01*
X178900001Y-104212202D01*
X178900001Y-104212203D01*
X178900000Y-104212203D01*
X178889500Y-104314982D01*
X176500500Y-104314982D01*
X176500500Y-99953754D01*
X178889500Y-99953754D01*
X178889500Y-100196245D01*
X178927432Y-100435736D01*
X179002360Y-100666344D01*
X179112448Y-100882401D01*
X179254966Y-101078562D01*
X179254970Y-101078567D01*
X179426432Y-101250029D01*
X179426437Y-101250033D01*
X179597539Y-101374345D01*
X179622602Y-101392554D01*
X179838653Y-101502638D01*
X179838655Y-101502639D01*
X179953959Y-101540103D01*
X180069265Y-101577568D01*
X180180186Y-101595136D01*
X180308755Y-101615500D01*
X180308760Y-101615500D01*
X182071245Y-101615500D01*
X182187347Y-101597110D01*
X182310735Y-101577568D01*
X182541347Y-101502638D01*
X182757398Y-101392554D01*
X182953569Y-101250028D01*
X183125028Y-101078569D01*
X183267554Y-100882398D01*
X183377638Y-100666347D01*
X183452568Y-100435735D01*
X183472110Y-100312347D01*
X183490500Y-100196245D01*
X183490500Y-99953754D01*
X183468432Y-99814431D01*
X183452568Y-99714265D01*
X183377638Y-99483653D01*
X183267554Y-99267602D01*
X183249345Y-99242539D01*
X183125033Y-99071437D01*
X183125029Y-99071432D01*
X182953567Y-98899970D01*
X182953562Y-98899966D01*
X182757401Y-98757448D01*
X182757400Y-98757447D01*
X182757398Y-98757446D01*
X182596569Y-98675499D01*
X182541344Y-98647360D01*
X182310736Y-98572432D01*
X182071245Y-98534500D01*
X182071240Y-98534500D01*
X180308760Y-98534500D01*
X180308755Y-98534500D01*
X180069263Y-98572432D01*
X179838655Y-98647360D01*
X179622598Y-98757448D01*
X179426437Y-98899966D01*
X179426432Y-98899970D01*
X179254970Y-99071432D01*
X179254966Y-99071437D01*
X179112448Y-99267598D01*
X179002360Y-99483655D01*
X178927432Y-99714263D01*
X178889500Y-99953754D01*
X176500500Y-99953754D01*
X176500500Y-94745000D01*
X178910400Y-94745000D01*
X180535879Y-94745000D01*
X180516901Y-94790818D01*
X180490000Y-94926056D01*
X180490000Y-95063944D01*
X180516901Y-95199182D01*
X180535879Y-95245000D01*
X178910400Y-95245000D01*
X178927919Y-95355618D01*
X179002827Y-95586159D01*
X179112874Y-95802136D01*
X179255356Y-95998245D01*
X179426754Y-96169643D01*
X179622863Y-96312125D01*
X179838840Y-96422172D01*
X180069381Y-96497079D01*
X180308800Y-96535000D01*
X180940000Y-96535000D01*
X180940000Y-95649120D01*
X180985818Y-95668099D01*
X181121056Y-95695000D01*
X181258944Y-95695000D01*
X181394182Y-95668099D01*
X181440000Y-95649120D01*
X181440000Y-96535000D01*
X182071200Y-96535000D01*
X182310618Y-96497079D01*
X182541159Y-96422172D01*
X182757136Y-96312125D01*
X182953245Y-96169643D01*
X183124643Y-95998245D01*
X183267125Y-95802136D01*
X183377172Y-95586159D01*
X183452080Y-95355618D01*
X183469600Y-95245000D01*
X181844121Y-95245000D01*
X181863099Y-95199182D01*
X181890000Y-95063944D01*
X181890000Y-94926056D01*
X181886125Y-94906577D01*
X186777000Y-94906577D01*
X186777000Y-95103422D01*
X186807790Y-95297826D01*
X186868617Y-95485029D01*
X186920146Y-95586159D01*
X186957976Y-95660405D01*
X187073672Y-95819646D01*
X187212854Y-95958828D01*
X187372095Y-96074524D01*
X187454955Y-96116743D01*
X187547470Y-96163882D01*
X187547472Y-96163882D01*
X187547475Y-96163884D01*
X187647817Y-96196487D01*
X187734673Y-96224709D01*
X187929078Y-96255500D01*
X187929083Y-96255500D01*
X188825922Y-96255500D01*
X189020326Y-96224709D01*
X189043319Y-96217238D01*
X189207525Y-96163884D01*
X189382905Y-96074524D01*
X189542146Y-95958828D01*
X189681328Y-95819646D01*
X189797024Y-95660405D01*
X189886384Y-95485025D01*
X189947209Y-95297826D01*
X189955576Y-95245000D01*
X189978000Y-95103422D01*
X189978000Y-94906577D01*
X189947209Y-94712173D01*
X189918987Y-94625317D01*
X189886384Y-94524975D01*
X189886382Y-94524972D01*
X189886382Y-94524970D01*
X189797023Y-94349594D01*
X189776903Y-94321901D01*
X189681328Y-94190354D01*
X189542146Y-94051172D01*
X189382905Y-93935476D01*
X189207528Y-93846117D01*
X189196907Y-93842666D01*
X189139233Y-93803226D01*
X189112037Y-93738866D01*
X189123954Y-93670020D01*
X189171200Y-93618546D01*
X189196918Y-93606803D01*
X189207335Y-93603418D01*
X189382643Y-93514095D01*
X189541821Y-93398444D01*
X189680944Y-93259321D01*
X189796595Y-93100143D01*
X189885918Y-92924837D01*
X189946718Y-92737716D01*
X189953484Y-92695000D01*
X188925982Y-92695000D01*
X188936611Y-92676591D01*
X188977500Y-92523991D01*
X188977500Y-92366009D01*
X188936611Y-92213409D01*
X188925982Y-92195000D01*
X189953484Y-92195000D01*
X189946718Y-92152283D01*
X189885917Y-91965159D01*
X189871321Y-91936513D01*
X189871320Y-91936512D01*
X189845738Y-91886304D01*
X197099500Y-91886304D01*
X197099500Y-92063695D01*
X197134103Y-92237658D01*
X197134106Y-92237667D01*
X197201984Y-92401542D01*
X197201985Y-92401543D01*
X197201987Y-92401547D01*
X197228602Y-92441378D01*
X197249480Y-92508055D01*
X197249500Y-92510269D01*
X197249500Y-97239729D01*
X197229815Y-97306768D01*
X197228602Y-97308620D01*
X197201988Y-97348449D01*
X197201987Y-97348452D01*
X197134106Y-97512332D01*
X197134103Y-97512341D01*
X197099500Y-97686304D01*
X197099500Y-97863695D01*
X197134103Y-98037658D01*
X197134106Y-98037667D01*
X197201983Y-98201540D01*
X197201990Y-98201553D01*
X197300535Y-98349034D01*
X197300538Y-98349038D01*
X197425961Y-98474461D01*
X197425965Y-98474464D01*
X197573446Y-98573009D01*
X197573459Y-98573016D01*
X197696363Y-98623923D01*
X197737334Y-98640894D01*
X197737336Y-98640894D01*
X197737341Y-98640896D01*
X197911304Y-98675499D01*
X197911307Y-98675500D01*
X197911309Y-98675500D01*
X198088693Y-98675500D01*
X198088694Y-98675499D01*
X198146682Y-98663964D01*
X198262658Y-98640896D01*
X198262661Y-98640894D01*
X198262666Y-98640894D01*
X198426547Y-98573013D01*
X198574035Y-98474464D01*
X198699464Y-98349035D01*
X198798013Y-98201547D01*
X198865894Y-98037666D01*
X198900500Y-97863691D01*
X198900500Y-97686309D01*
X198900500Y-97686306D01*
X198900499Y-97686304D01*
X198865896Y-97512341D01*
X198865893Y-97512332D01*
X198849605Y-97473009D01*
X198798013Y-97348453D01*
X198798011Y-97348451D01*
X198798011Y-97348449D01*
X198771398Y-97308620D01*
X198750520Y-97241942D01*
X198750500Y-97239729D01*
X198750500Y-92510269D01*
X198770185Y-92443230D01*
X198771398Y-92441378D01*
X198798013Y-92401547D01*
X198865894Y-92237666D01*
X198900500Y-92063691D01*
X198900500Y-91886309D01*
X198900500Y-91886306D01*
X198900499Y-91886304D01*
X198865896Y-91712341D01*
X198865893Y-91712332D01*
X198865038Y-91710269D01*
X198848923Y-91671363D01*
X198798016Y-91548459D01*
X198798009Y-91548446D01*
X198699464Y-91400965D01*
X198699461Y-91400961D01*
X198574038Y-91275538D01*
X198574034Y-91275535D01*
X198436024Y-91183319D01*
X198436023Y-91183318D01*
X198426554Y-91176991D01*
X198426540Y-91176983D01*
X198262667Y-91109106D01*
X198262658Y-91109103D01*
X198148038Y-91086304D01*
X199299500Y-91086304D01*
X199299500Y-91263695D01*
X199334103Y-91437658D01*
X199334106Y-91437667D01*
X199401984Y-91601542D01*
X199401985Y-91601543D01*
X199401987Y-91601547D01*
X199421452Y-91630678D01*
X199428602Y-91641378D01*
X199449480Y-91708055D01*
X199449500Y-91710269D01*
X199449500Y-96139729D01*
X199429815Y-96206768D01*
X199428602Y-96208620D01*
X199401988Y-96248449D01*
X199401987Y-96248452D01*
X199334106Y-96412332D01*
X199334103Y-96412341D01*
X199299500Y-96586304D01*
X199299500Y-96763695D01*
X199334103Y-96937658D01*
X199334106Y-96937667D01*
X199401983Y-97101540D01*
X199401990Y-97101553D01*
X199500535Y-97249034D01*
X199500538Y-97249038D01*
X199625961Y-97374461D01*
X199625965Y-97374464D01*
X199773446Y-97473009D01*
X199773459Y-97473016D01*
X199868378Y-97512332D01*
X199937334Y-97540894D01*
X199937336Y-97540894D01*
X199937341Y-97540896D01*
X200111304Y-97575499D01*
X200111307Y-97575500D01*
X200111309Y-97575500D01*
X200288693Y-97575500D01*
X200288694Y-97575499D01*
X200346682Y-97563964D01*
X200462658Y-97540896D01*
X200462661Y-97540894D01*
X200462666Y-97540894D01*
X200626547Y-97473013D01*
X200774035Y-97374464D01*
X200899464Y-97249035D01*
X200998013Y-97101547D01*
X201065894Y-96937666D01*
X201100500Y-96763691D01*
X201100500Y-96586309D01*
X201100500Y-96586306D01*
X201100499Y-96586304D01*
X201065896Y-96412341D01*
X201065893Y-96412332D01*
X200998013Y-96248453D01*
X200998011Y-96248451D01*
X200998011Y-96248449D01*
X200971398Y-96208620D01*
X200950520Y-96141942D01*
X200950500Y-96139729D01*
X200950500Y-94906577D01*
X211777000Y-94906577D01*
X211777000Y-95103422D01*
X211807790Y-95297826D01*
X211868617Y-95485029D01*
X211920146Y-95586159D01*
X211957976Y-95660405D01*
X212073672Y-95819646D01*
X212212854Y-95958828D01*
X212372095Y-96074524D01*
X212454955Y-96116743D01*
X212547470Y-96163882D01*
X212547472Y-96163882D01*
X212547475Y-96163884D01*
X212647817Y-96196487D01*
X212734673Y-96224709D01*
X212929078Y-96255500D01*
X212929083Y-96255500D01*
X213825922Y-96255500D01*
X214020326Y-96224709D01*
X214043319Y-96217238D01*
X214207525Y-96163884D01*
X214382905Y-96074524D01*
X214542146Y-95958828D01*
X214681328Y-95819646D01*
X214797024Y-95660405D01*
X214886384Y-95485025D01*
X214947209Y-95297826D01*
X214955576Y-95245000D01*
X214978000Y-95103422D01*
X214978000Y-94906577D01*
X214947209Y-94712173D01*
X214918987Y-94625317D01*
X214886384Y-94524975D01*
X214886382Y-94524972D01*
X214886382Y-94524970D01*
X214797023Y-94349594D01*
X214776903Y-94321901D01*
X214681328Y-94190354D01*
X214542146Y-94051172D01*
X214382905Y-93935476D01*
X214207528Y-93846117D01*
X214196907Y-93842666D01*
X214139233Y-93803226D01*
X214112037Y-93738866D01*
X214123954Y-93670020D01*
X214171200Y-93618546D01*
X214196918Y-93606803D01*
X214207335Y-93603418D01*
X214382643Y-93514095D01*
X214541821Y-93398444D01*
X214680944Y-93259321D01*
X214796595Y-93100143D01*
X214885918Y-92924837D01*
X214946718Y-92737716D01*
X214953484Y-92695000D01*
X213925982Y-92695000D01*
X213936611Y-92676591D01*
X213977500Y-92523991D01*
X213977500Y-92366009D01*
X213936611Y-92213409D01*
X213925982Y-92195000D01*
X214953484Y-92195000D01*
X214946718Y-92152283D01*
X214885918Y-91965162D01*
X214796595Y-91789856D01*
X214680944Y-91630678D01*
X214541821Y-91491555D01*
X214382643Y-91375904D01*
X214207335Y-91286581D01*
X214020205Y-91225778D01*
X213825882Y-91195000D01*
X213627500Y-91195000D01*
X213627500Y-91896517D01*
X213609091Y-91885889D01*
X213456491Y-91845000D01*
X213298509Y-91845000D01*
X213145909Y-91885889D01*
X213127500Y-91896517D01*
X213127500Y-91195000D01*
X212929118Y-91195000D01*
X212734794Y-91225778D01*
X212547664Y-91286581D01*
X212372356Y-91375904D01*
X212213178Y-91491555D01*
X212074055Y-91630678D01*
X211958404Y-91789856D01*
X211869081Y-91965162D01*
X211808281Y-92152283D01*
X211801516Y-92195000D01*
X212829018Y-92195000D01*
X212818389Y-92213409D01*
X212777500Y-92366009D01*
X212777500Y-92523991D01*
X212818389Y-92676591D01*
X212829018Y-92695000D01*
X211801516Y-92695000D01*
X211808281Y-92737716D01*
X211869081Y-92924837D01*
X211958404Y-93100143D01*
X212074055Y-93259321D01*
X212213178Y-93398444D01*
X212372356Y-93514095D01*
X212547661Y-93603417D01*
X212558083Y-93606803D01*
X212615760Y-93646239D01*
X212642961Y-93710596D01*
X212631050Y-93779443D01*
X212583808Y-93830921D01*
X212558095Y-93842665D01*
X212547472Y-93846117D01*
X212372094Y-93935476D01*
X212294635Y-93991754D01*
X212212854Y-94051172D01*
X212212852Y-94051174D01*
X212212851Y-94051174D01*
X212073674Y-94190351D01*
X212073674Y-94190352D01*
X212073672Y-94190354D01*
X212056607Y-94213842D01*
X211957976Y-94349594D01*
X211868617Y-94524970D01*
X211807790Y-94712173D01*
X211777000Y-94906577D01*
X200950500Y-94906577D01*
X200950500Y-91710269D01*
X200970185Y-91643230D01*
X200971398Y-91641378D01*
X200998013Y-91601547D01*
X201065894Y-91437666D01*
X201073195Y-91400965D01*
X201100499Y-91263695D01*
X201100500Y-91263693D01*
X201100500Y-91086306D01*
X201100499Y-91086304D01*
X201065896Y-90912341D01*
X201065893Y-90912332D01*
X200998016Y-90748459D01*
X200998009Y-90748446D01*
X200899464Y-90600965D01*
X200899461Y-90600961D01*
X200774038Y-90475538D01*
X200774034Y-90475535D01*
X200626553Y-90376990D01*
X200626540Y-90376983D01*
X200462667Y-90309106D01*
X200462658Y-90309103D01*
X200288694Y-90274500D01*
X200288691Y-90274500D01*
X200111309Y-90274500D01*
X200111306Y-90274500D01*
X199937341Y-90309103D01*
X199937332Y-90309106D01*
X199773459Y-90376983D01*
X199773446Y-90376990D01*
X199625965Y-90475535D01*
X199625961Y-90475538D01*
X199500538Y-90600961D01*
X199500535Y-90600965D01*
X199401990Y-90748446D01*
X199401983Y-90748459D01*
X199334106Y-90912332D01*
X199334103Y-90912341D01*
X199299500Y-91086304D01*
X198148038Y-91086304D01*
X198088694Y-91074500D01*
X198088691Y-91074500D01*
X197911309Y-91074500D01*
X197911306Y-91074500D01*
X197737341Y-91109103D01*
X197737332Y-91109106D01*
X197573459Y-91176983D01*
X197573446Y-91176990D01*
X197425965Y-91275535D01*
X197425961Y-91275538D01*
X197300538Y-91400961D01*
X197300535Y-91400965D01*
X197201990Y-91548446D01*
X197201983Y-91548459D01*
X197134106Y-91712332D01*
X197134103Y-91712341D01*
X197099500Y-91886304D01*
X189845738Y-91886304D01*
X189796595Y-91789856D01*
X189680944Y-91630678D01*
X189541821Y-91491555D01*
X189382643Y-91375904D01*
X189207335Y-91286581D01*
X189020205Y-91225778D01*
X188825882Y-91195000D01*
X188627500Y-91195000D01*
X188627500Y-91896517D01*
X188609091Y-91885889D01*
X188456491Y-91845000D01*
X188298509Y-91845000D01*
X188145909Y-91885889D01*
X188127500Y-91896517D01*
X188127500Y-91195000D01*
X187929118Y-91195000D01*
X187734794Y-91225778D01*
X187547664Y-91286581D01*
X187372356Y-91375904D01*
X187213178Y-91491555D01*
X187074055Y-91630678D01*
X186958404Y-91789856D01*
X186869081Y-91965162D01*
X186808281Y-92152283D01*
X186801516Y-92195000D01*
X187829018Y-92195000D01*
X187818389Y-92213409D01*
X187777500Y-92366009D01*
X187777500Y-92523991D01*
X187818389Y-92676591D01*
X187829018Y-92695000D01*
X186801516Y-92695000D01*
X186808281Y-92737716D01*
X186869081Y-92924837D01*
X186958404Y-93100143D01*
X187074055Y-93259321D01*
X187213178Y-93398444D01*
X187372356Y-93514095D01*
X187547661Y-93603417D01*
X187558083Y-93606803D01*
X187615760Y-93646239D01*
X187642961Y-93710596D01*
X187631050Y-93779443D01*
X187583808Y-93830921D01*
X187558095Y-93842665D01*
X187547472Y-93846117D01*
X187372094Y-93935476D01*
X187294635Y-93991754D01*
X187212854Y-94051172D01*
X187212852Y-94051174D01*
X187212851Y-94051174D01*
X187073674Y-94190351D01*
X187073674Y-94190352D01*
X187073672Y-94190354D01*
X187056607Y-94213842D01*
X186957976Y-94349594D01*
X186868617Y-94524970D01*
X186807790Y-94712173D01*
X186777000Y-94906577D01*
X181886125Y-94906577D01*
X181863099Y-94790818D01*
X181844121Y-94745000D01*
X183469600Y-94745000D01*
X183452080Y-94634381D01*
X183377172Y-94403840D01*
X183267125Y-94187863D01*
X183124643Y-93991754D01*
X182953245Y-93820356D01*
X182757136Y-93677874D01*
X182541159Y-93567827D01*
X182310618Y-93492920D01*
X182071200Y-93455000D01*
X181440000Y-93455000D01*
X181440000Y-94340879D01*
X181394182Y-94321901D01*
X181258944Y-94295000D01*
X181121056Y-94295000D01*
X180985818Y-94321901D01*
X180940000Y-94340879D01*
X180940000Y-93455000D01*
X180308800Y-93455000D01*
X180069381Y-93492920D01*
X179838840Y-93567827D01*
X179622863Y-93677874D01*
X179426754Y-93820356D01*
X179255356Y-93991754D01*
X179112874Y-94187863D01*
X179002827Y-94403840D01*
X178927919Y-94634381D01*
X178910400Y-94745000D01*
X176500500Y-94745000D01*
X176500500Y-89871228D01*
X187477000Y-89871228D01*
X187477000Y-90038771D01*
X187509682Y-90203074D01*
X187509684Y-90203082D01*
X187573795Y-90357860D01*
X187666873Y-90497162D01*
X187785337Y-90615626D01*
X187837719Y-90650626D01*
X187924637Y-90708703D01*
X188079418Y-90772816D01*
X188243728Y-90805499D01*
X188243732Y-90805500D01*
X188243733Y-90805500D01*
X188411268Y-90805500D01*
X188411269Y-90805499D01*
X188575582Y-90772816D01*
X188730363Y-90708703D01*
X188869662Y-90615626D01*
X188988126Y-90497162D01*
X189081203Y-90357863D01*
X189145316Y-90203082D01*
X189178000Y-90038767D01*
X189178000Y-89871233D01*
X189145316Y-89706918D01*
X189081203Y-89552137D01*
X189050037Y-89505494D01*
X188988126Y-89412837D01*
X188869662Y-89294373D01*
X188730360Y-89201295D01*
X188575582Y-89137184D01*
X188575574Y-89137182D01*
X188411271Y-89104500D01*
X188411267Y-89104500D01*
X188243733Y-89104500D01*
X188243728Y-89104500D01*
X188079425Y-89137182D01*
X188079417Y-89137184D01*
X187924639Y-89201295D01*
X187785337Y-89294373D01*
X187666873Y-89412837D01*
X187573795Y-89552139D01*
X187509684Y-89706917D01*
X187509682Y-89706925D01*
X187477000Y-89871228D01*
X176500500Y-89871228D01*
X176500500Y-87346228D01*
X187452000Y-87346228D01*
X187452000Y-87513771D01*
X187484682Y-87678074D01*
X187484684Y-87678082D01*
X187548795Y-87832860D01*
X187641873Y-87972162D01*
X187760337Y-88090626D01*
X187852994Y-88152537D01*
X187899637Y-88183703D01*
X188054418Y-88247816D01*
X188218728Y-88280499D01*
X188218732Y-88280500D01*
X188218733Y-88280500D01*
X188386268Y-88280500D01*
X188386269Y-88280499D01*
X188550582Y-88247816D01*
X188705363Y-88183703D01*
X188844662Y-88090626D01*
X188963126Y-87972162D01*
X189056203Y-87832863D01*
X189120316Y-87678082D01*
X189153000Y-87513767D01*
X189153000Y-87346233D01*
X189120316Y-87181918D01*
X189056203Y-87027137D01*
X189007907Y-86954857D01*
X188963126Y-86887837D01*
X188844662Y-86769373D01*
X188705360Y-86676295D01*
X188550582Y-86612184D01*
X188550574Y-86612182D01*
X188386271Y-86579500D01*
X188386267Y-86579500D01*
X188218733Y-86579500D01*
X188218728Y-86579500D01*
X188054425Y-86612182D01*
X188054417Y-86612184D01*
X187899639Y-86676295D01*
X187760337Y-86769373D01*
X187641873Y-86887837D01*
X187548795Y-87027139D01*
X187484684Y-87181917D01*
X187484682Y-87181925D01*
X187452000Y-87346228D01*
X176500500Y-87346228D01*
X176500500Y-84786228D01*
X187452000Y-84786228D01*
X187452000Y-84953771D01*
X187484682Y-85118074D01*
X187484684Y-85118082D01*
X187548795Y-85272860D01*
X187641873Y-85412162D01*
X187760337Y-85530626D01*
X187852994Y-85592537D01*
X187899637Y-85623703D01*
X188054418Y-85687816D01*
X188218728Y-85720499D01*
X188218732Y-85720500D01*
X188218733Y-85720500D01*
X188386268Y-85720500D01*
X188386269Y-85720499D01*
X188550582Y-85687816D01*
X188705363Y-85623703D01*
X188844662Y-85530626D01*
X188963126Y-85412162D01*
X189056203Y-85272863D01*
X189120316Y-85118082D01*
X189153000Y-84953767D01*
X189153000Y-84786233D01*
X189120316Y-84621918D01*
X189056203Y-84467137D01*
X188993311Y-84373013D01*
X188963126Y-84327837D01*
X188844662Y-84209373D01*
X188705360Y-84116295D01*
X188550582Y-84052184D01*
X188550574Y-84052182D01*
X188386271Y-84019500D01*
X188386267Y-84019500D01*
X188218733Y-84019500D01*
X188218728Y-84019500D01*
X188054425Y-84052182D01*
X188054417Y-84052184D01*
X187899639Y-84116295D01*
X187760337Y-84209373D01*
X187641873Y-84327837D01*
X187548795Y-84467139D01*
X187484684Y-84621917D01*
X187484682Y-84621925D01*
X187452000Y-84786228D01*
X176500500Y-84786228D01*
X176500500Y-82271228D01*
X187477000Y-82271228D01*
X187477000Y-82438771D01*
X187509682Y-82603074D01*
X187509684Y-82603082D01*
X187573795Y-82757860D01*
X187666873Y-82897162D01*
X187785337Y-83015626D01*
X187877361Y-83077114D01*
X187924637Y-83108703D01*
X188079418Y-83172816D01*
X188243728Y-83205499D01*
X188243732Y-83205500D01*
X188243733Y-83205500D01*
X188411268Y-83205500D01*
X188411269Y-83205499D01*
X188507771Y-83186304D01*
X199699500Y-83186304D01*
X199699500Y-83363695D01*
X199734103Y-83537658D01*
X199734106Y-83537667D01*
X199801983Y-83701540D01*
X199801990Y-83701553D01*
X199900535Y-83849034D01*
X199900538Y-83849038D01*
X200025961Y-83974461D01*
X200025965Y-83974464D01*
X200173446Y-84073009D01*
X200173459Y-84073016D01*
X200277946Y-84116295D01*
X200337334Y-84140894D01*
X200337336Y-84140894D01*
X200337341Y-84140896D01*
X200511304Y-84175499D01*
X200511307Y-84175500D01*
X200511309Y-84175500D01*
X200688693Y-84175500D01*
X200688694Y-84175499D01*
X200746682Y-84163964D01*
X200862658Y-84140896D01*
X200862661Y-84140894D01*
X200862666Y-84140894D01*
X201026547Y-84073013D01*
X201026550Y-84073010D01*
X201026552Y-84073010D01*
X201066378Y-84046399D01*
X201133055Y-84025520D01*
X201135270Y-84025500D01*
X206237770Y-84025500D01*
X206304809Y-84045185D01*
X206325451Y-84061819D01*
X207713181Y-85449549D01*
X207746666Y-85510872D01*
X207749500Y-85537230D01*
X207749500Y-93239729D01*
X207729815Y-93306768D01*
X207728602Y-93308620D01*
X207701988Y-93348449D01*
X207701987Y-93348452D01*
X207634106Y-93512332D01*
X207634103Y-93512341D01*
X207599500Y-93686304D01*
X207599500Y-93863695D01*
X207634103Y-94037658D01*
X207634106Y-94037667D01*
X207701983Y-94201540D01*
X207701990Y-94201553D01*
X207800535Y-94349034D01*
X207800538Y-94349038D01*
X207925961Y-94474461D01*
X207925965Y-94474464D01*
X208073446Y-94573009D01*
X208073459Y-94573016D01*
X208196363Y-94623923D01*
X208237334Y-94640894D01*
X208237336Y-94640894D01*
X208237341Y-94640896D01*
X208411304Y-94675499D01*
X208411307Y-94675500D01*
X208411309Y-94675500D01*
X208588693Y-94675500D01*
X208588694Y-94675499D01*
X208649391Y-94663426D01*
X208762658Y-94640896D01*
X208762661Y-94640894D01*
X208762666Y-94640894D01*
X208926547Y-94573013D01*
X209074035Y-94474464D01*
X209199464Y-94349035D01*
X209298013Y-94201547D01*
X209302651Y-94190351D01*
X209317520Y-94154452D01*
X209365894Y-94037666D01*
X209400500Y-93863691D01*
X209400500Y-93686309D01*
X209400500Y-93686306D01*
X209400499Y-93686304D01*
X209365896Y-93512341D01*
X209365893Y-93512332D01*
X209298013Y-93348453D01*
X209298011Y-93348451D01*
X209298011Y-93348449D01*
X209271398Y-93308620D01*
X209250520Y-93241942D01*
X209250500Y-93239729D01*
X209250500Y-89906228D01*
X212452000Y-89906228D01*
X212452000Y-90073771D01*
X212484682Y-90238074D01*
X212484684Y-90238082D01*
X212548795Y-90392860D01*
X212641873Y-90532162D01*
X212760337Y-90650626D01*
X212852994Y-90712537D01*
X212899637Y-90743703D01*
X212899638Y-90743703D01*
X212899639Y-90743704D01*
X212911104Y-90748453D01*
X213054418Y-90807816D01*
X213181375Y-90833069D01*
X213218728Y-90840499D01*
X213218732Y-90840500D01*
X213218733Y-90840500D01*
X213386268Y-90840500D01*
X213386269Y-90840499D01*
X213550582Y-90807816D01*
X213705363Y-90743703D01*
X213844662Y-90650626D01*
X213963126Y-90532162D01*
X214056203Y-90392863D01*
X214120316Y-90238082D01*
X214153000Y-90073767D01*
X214153000Y-89906233D01*
X214120316Y-89741918D01*
X214056203Y-89587137D01*
X214009539Y-89517299D01*
X213963126Y-89447837D01*
X213844662Y-89329373D01*
X213705360Y-89236295D01*
X213550582Y-89172184D01*
X213550574Y-89172182D01*
X213386271Y-89139500D01*
X213386267Y-89139500D01*
X213218733Y-89139500D01*
X213218728Y-89139500D01*
X213054425Y-89172182D01*
X213054417Y-89172184D01*
X212899639Y-89236295D01*
X212760337Y-89329373D01*
X212641873Y-89447837D01*
X212548795Y-89587139D01*
X212484684Y-89741917D01*
X212484682Y-89741925D01*
X212452000Y-89906228D01*
X209250500Y-89906228D01*
X209250500Y-87346228D01*
X212477000Y-87346228D01*
X212477000Y-87513771D01*
X212509682Y-87678074D01*
X212509684Y-87678082D01*
X212573795Y-87832860D01*
X212666873Y-87972162D01*
X212785337Y-88090626D01*
X212877994Y-88152537D01*
X212924637Y-88183703D01*
X213079418Y-88247816D01*
X213243728Y-88280499D01*
X213243732Y-88280500D01*
X213243733Y-88280500D01*
X213411268Y-88280500D01*
X213411269Y-88280499D01*
X213575582Y-88247816D01*
X213730363Y-88183703D01*
X213869662Y-88090626D01*
X213988126Y-87972162D01*
X214081203Y-87832863D01*
X214141031Y-87688428D01*
X228600000Y-87688428D01*
X228600000Y-87861571D01*
X228627085Y-88032584D01*
X228680592Y-88197259D01*
X228759196Y-88351525D01*
X228763709Y-88357736D01*
X228763709Y-88357737D01*
X229346446Y-87775001D01*
X229346446Y-87774999D01*
X229306951Y-87735504D01*
X229400000Y-87735504D01*
X229400000Y-87814496D01*
X229420444Y-87890796D01*
X229459940Y-87959205D01*
X229515795Y-88015060D01*
X229584204Y-88054556D01*
X229660504Y-88075000D01*
X229739496Y-88075000D01*
X229815796Y-88054556D01*
X229884205Y-88015060D01*
X229940060Y-87959205D01*
X229979556Y-87890796D01*
X230000000Y-87814496D01*
X230000000Y-87774999D01*
X230053553Y-87774999D01*
X230053553Y-87775001D01*
X230636289Y-88357737D01*
X230636289Y-88357736D01*
X230640803Y-88351525D01*
X230719408Y-88197257D01*
X230772914Y-88032584D01*
X230800000Y-87861571D01*
X230800000Y-87688428D01*
X230772914Y-87517415D01*
X230719408Y-87352742D01*
X230640801Y-87198471D01*
X230636290Y-87192262D01*
X230636289Y-87192261D01*
X230053553Y-87774999D01*
X230000000Y-87774999D01*
X230000000Y-87735504D01*
X229979556Y-87659204D01*
X229940060Y-87590795D01*
X229884205Y-87534940D01*
X229815796Y-87495444D01*
X229739496Y-87475000D01*
X229660504Y-87475000D01*
X229584204Y-87495444D01*
X229515795Y-87534940D01*
X229459940Y-87590795D01*
X229420444Y-87659204D01*
X229400000Y-87735504D01*
X229306951Y-87735504D01*
X228763709Y-87192261D01*
X228763708Y-87192261D01*
X228759203Y-87198463D01*
X228759193Y-87198480D01*
X228680592Y-87352740D01*
X228627085Y-87517415D01*
X228600000Y-87688428D01*
X214141031Y-87688428D01*
X214145316Y-87678082D01*
X214145318Y-87678074D01*
X214149040Y-87659363D01*
X214149040Y-87659361D01*
X214177999Y-87513771D01*
X214178000Y-87513768D01*
X214178000Y-87346232D01*
X214177999Y-87346228D01*
X214148610Y-87198480D01*
X214145316Y-87181918D01*
X214081203Y-87027137D01*
X213988126Y-86887838D01*
X213988125Y-86887837D01*
X213988123Y-86887834D01*
X213938997Y-86838708D01*
X229117261Y-86838708D01*
X229117261Y-86838709D01*
X229700000Y-87421446D01*
X229700001Y-87421446D01*
X230282737Y-86838709D01*
X230276525Y-86834196D01*
X230122259Y-86755592D01*
X229957584Y-86702085D01*
X229786571Y-86675000D01*
X229613429Y-86675000D01*
X229442415Y-86702085D01*
X229277740Y-86755592D01*
X229123480Y-86834193D01*
X229123463Y-86834203D01*
X229117261Y-86838708D01*
X213938997Y-86838708D01*
X213869662Y-86769373D01*
X213730360Y-86676295D01*
X213575582Y-86612184D01*
X213575574Y-86612182D01*
X213411271Y-86579500D01*
X213411267Y-86579500D01*
X213243733Y-86579500D01*
X213243728Y-86579500D01*
X213079425Y-86612182D01*
X213079417Y-86612184D01*
X212924639Y-86676295D01*
X212785337Y-86769373D01*
X212666873Y-86887837D01*
X212573795Y-87027139D01*
X212509684Y-87181917D01*
X212509682Y-87181925D01*
X212477000Y-87346228D01*
X209250500Y-87346228D01*
X209250500Y-85101079D01*
X209221659Y-84956092D01*
X209221658Y-84956091D01*
X209221658Y-84956087D01*
X209220699Y-84953771D01*
X209175810Y-84845398D01*
X209175807Y-84845393D01*
X209165084Y-84819505D01*
X209149531Y-84796228D01*
X212502000Y-84796228D01*
X212502000Y-84963771D01*
X212534682Y-85128074D01*
X212534684Y-85128082D01*
X212598795Y-85282860D01*
X212691873Y-85422162D01*
X212810337Y-85540626D01*
X212902994Y-85602537D01*
X212949637Y-85633703D01*
X213104418Y-85697816D01*
X213268728Y-85730499D01*
X213268732Y-85730500D01*
X213268733Y-85730500D01*
X213436268Y-85730500D01*
X213436269Y-85730499D01*
X213600582Y-85697816D01*
X213755363Y-85633703D01*
X213894662Y-85540626D01*
X214013126Y-85422162D01*
X214106203Y-85282863D01*
X214170316Y-85128082D01*
X214203000Y-84963767D01*
X214203000Y-84796233D01*
X214170316Y-84631918D01*
X214106203Y-84477137D01*
X214075037Y-84430494D01*
X214013126Y-84337837D01*
X213894662Y-84219373D01*
X213755360Y-84126295D01*
X213600582Y-84062184D01*
X213600574Y-84062182D01*
X213436271Y-84029500D01*
X213436267Y-84029500D01*
X213268733Y-84029500D01*
X213268728Y-84029500D01*
X213104425Y-84062182D01*
X213104417Y-84062184D01*
X212949639Y-84126295D01*
X212810337Y-84219373D01*
X212691873Y-84337837D01*
X212598795Y-84477139D01*
X212534684Y-84631917D01*
X212534682Y-84631925D01*
X212502000Y-84796228D01*
X209149531Y-84796228D01*
X209132186Y-84770270D01*
X209114122Y-84743235D01*
X209082956Y-84696589D01*
X209082952Y-84696584D01*
X207954267Y-83567898D01*
X207872673Y-83486304D01*
X217199500Y-83486304D01*
X217199500Y-83663695D01*
X217234103Y-83837658D01*
X217234106Y-83837667D01*
X217301983Y-84001540D01*
X217301990Y-84001553D01*
X217400535Y-84149034D01*
X217400538Y-84149038D01*
X217525961Y-84274461D01*
X217525965Y-84274464D01*
X217673446Y-84373009D01*
X217673459Y-84373016D01*
X217796363Y-84423923D01*
X217837334Y-84440894D01*
X217837336Y-84440894D01*
X217837341Y-84440896D01*
X218011304Y-84475499D01*
X218011307Y-84475500D01*
X218011309Y-84475500D01*
X218188693Y-84475500D01*
X218188694Y-84475499D01*
X218246682Y-84463964D01*
X218362658Y-84440896D01*
X218362661Y-84440894D01*
X218362666Y-84440894D01*
X218526547Y-84373013D01*
X218674035Y-84274464D01*
X218799464Y-84149035D01*
X218898013Y-84001547D01*
X218965894Y-83837666D01*
X219000500Y-83663691D01*
X219000500Y-83486309D01*
X219000500Y-83486306D01*
X219000499Y-83486304D01*
X218965896Y-83312341D01*
X218965893Y-83312332D01*
X218913691Y-83186304D01*
X218898013Y-83148453D01*
X218898011Y-83148451D01*
X218898011Y-83148449D01*
X218871398Y-83108620D01*
X218850520Y-83041942D01*
X218850500Y-83039729D01*
X218850500Y-77737229D01*
X218870185Y-77670190D01*
X218886819Y-77649548D01*
X219074548Y-77461819D01*
X219135871Y-77428334D01*
X219162229Y-77425500D01*
X220673920Y-77425500D01*
X220771462Y-77406096D01*
X220818913Y-77396658D01*
X220955495Y-77340084D01*
X221013866Y-77301082D01*
X221013866Y-77301081D01*
X221013868Y-77301081D01*
X221046141Y-77279517D01*
X221078416Y-77257952D01*
X221752193Y-76584173D01*
X221813514Y-76550690D01*
X221815555Y-76550264D01*
X221862666Y-76540894D01*
X222026547Y-76473013D01*
X222174035Y-76374464D01*
X222299464Y-76249035D01*
X222398013Y-76101547D01*
X222465894Y-75937666D01*
X222500500Y-75763691D01*
X222500500Y-75586309D01*
X222500500Y-75586306D01*
X222500499Y-75586304D01*
X222465896Y-75412341D01*
X222465893Y-75412332D01*
X222398016Y-75248459D01*
X222398009Y-75248446D01*
X222299464Y-75100965D01*
X222299461Y-75100961D01*
X222174038Y-74975538D01*
X222174034Y-74975535D01*
X222026553Y-74876990D01*
X222026540Y-74876983D01*
X221862667Y-74809106D01*
X221862658Y-74809103D01*
X221688694Y-74774500D01*
X221688691Y-74774500D01*
X221511309Y-74774500D01*
X221511306Y-74774500D01*
X221337341Y-74809103D01*
X221337332Y-74809106D01*
X221173459Y-74876983D01*
X221173446Y-74876990D01*
X221025965Y-74975535D01*
X221025961Y-74975538D01*
X220900538Y-75100961D01*
X220900535Y-75100965D01*
X220801990Y-75248446D01*
X220801983Y-75248459D01*
X220734106Y-75412331D01*
X220734104Y-75412337D01*
X220724759Y-75459319D01*
X220692373Y-75521230D01*
X220690823Y-75522807D01*
X220325451Y-75888181D01*
X220264128Y-75921666D01*
X220237770Y-75924500D01*
X218726080Y-75924500D01*
X218581092Y-75953340D01*
X218581082Y-75953343D01*
X218444511Y-76009912D01*
X218444498Y-76009919D01*
X218321584Y-76092048D01*
X218321580Y-76092051D01*
X217517050Y-76896580D01*
X217517044Y-76896588D01*
X217467812Y-76970268D01*
X217467813Y-76970269D01*
X217434921Y-77019496D01*
X217434914Y-77019508D01*
X217378342Y-77156086D01*
X217378340Y-77156092D01*
X217349500Y-77301079D01*
X217349500Y-83039729D01*
X217329815Y-83106768D01*
X217328602Y-83108620D01*
X217301988Y-83148449D01*
X217301987Y-83148452D01*
X217234106Y-83312332D01*
X217234103Y-83312341D01*
X217199500Y-83486304D01*
X207872673Y-83486304D01*
X207078421Y-82692052D01*
X207078414Y-82692046D01*
X207004729Y-82642812D01*
X207004729Y-82642813D01*
X206955491Y-82609913D01*
X206818917Y-82553343D01*
X206818907Y-82553340D01*
X206673920Y-82524500D01*
X206673918Y-82524500D01*
X201135270Y-82524500D01*
X201068231Y-82504815D01*
X201066378Y-82503601D01*
X201026552Y-82476989D01*
X201026547Y-82476987D01*
X200862667Y-82409106D01*
X200862657Y-82409103D01*
X200750319Y-82386758D01*
X200688694Y-82374500D01*
X200688691Y-82374500D01*
X200511309Y-82374500D01*
X200511306Y-82374500D01*
X200337341Y-82409103D01*
X200337332Y-82409106D01*
X200173459Y-82476983D01*
X200173446Y-82476990D01*
X200025965Y-82575535D01*
X200025961Y-82575538D01*
X199900538Y-82700961D01*
X199900535Y-82700965D01*
X199801990Y-82848446D01*
X199801983Y-82848459D01*
X199734106Y-83012332D01*
X199734103Y-83012341D01*
X199699500Y-83186304D01*
X188507771Y-83186304D01*
X188575582Y-83172816D01*
X188730363Y-83108703D01*
X188869662Y-83015626D01*
X188988126Y-82897162D01*
X189081203Y-82757863D01*
X189145316Y-82603082D01*
X189178000Y-82438767D01*
X189178000Y-82271233D01*
X189177999Y-82271228D01*
X212502000Y-82271228D01*
X212502000Y-82438771D01*
X212534682Y-82603074D01*
X212534684Y-82603082D01*
X212598795Y-82757860D01*
X212691873Y-82897162D01*
X212810337Y-83015626D01*
X212902361Y-83077114D01*
X212949637Y-83108703D01*
X213104418Y-83172816D01*
X213268728Y-83205499D01*
X213268732Y-83205500D01*
X213268733Y-83205500D01*
X213436268Y-83205500D01*
X213436269Y-83205499D01*
X213600582Y-83172816D01*
X213755363Y-83108703D01*
X213894662Y-83015626D01*
X214013126Y-82897162D01*
X214106203Y-82757863D01*
X214170316Y-82603082D01*
X214203000Y-82438767D01*
X214203000Y-82271233D01*
X214170316Y-82106918D01*
X214106203Y-81952137D01*
X214075037Y-81905494D01*
X214013126Y-81812837D01*
X213894662Y-81694373D01*
X213755360Y-81601295D01*
X213600582Y-81537184D01*
X213600574Y-81537182D01*
X213436271Y-81504500D01*
X213436267Y-81504500D01*
X213268733Y-81504500D01*
X213268728Y-81504500D01*
X213104425Y-81537182D01*
X213104417Y-81537184D01*
X212949639Y-81601295D01*
X212810337Y-81694373D01*
X212691873Y-81812837D01*
X212598795Y-81952139D01*
X212534684Y-82106917D01*
X212534682Y-82106925D01*
X212502000Y-82271228D01*
X189177999Y-82271228D01*
X189145316Y-82106918D01*
X189081203Y-81952137D01*
X189050037Y-81905494D01*
X188988126Y-81812837D01*
X188869662Y-81694373D01*
X188730360Y-81601295D01*
X188575582Y-81537184D01*
X188575574Y-81537182D01*
X188411271Y-81504500D01*
X188411267Y-81504500D01*
X188243733Y-81504500D01*
X188243728Y-81504500D01*
X188079425Y-81537182D01*
X188079417Y-81537184D01*
X187924639Y-81601295D01*
X187785337Y-81694373D01*
X187666873Y-81812837D01*
X187573795Y-81952139D01*
X187509684Y-82106917D01*
X187509682Y-82106925D01*
X187477000Y-82271228D01*
X176500500Y-82271228D01*
X176500500Y-79696228D01*
X187477000Y-79696228D01*
X187477000Y-79863771D01*
X187509682Y-80028074D01*
X187509684Y-80028082D01*
X187573795Y-80182860D01*
X187666873Y-80322162D01*
X187785337Y-80440626D01*
X187837719Y-80475626D01*
X187924637Y-80533703D01*
X188079418Y-80597816D01*
X188243728Y-80630499D01*
X188243732Y-80630500D01*
X188243733Y-80630500D01*
X188411268Y-80630500D01*
X188411269Y-80630499D01*
X188575582Y-80597816D01*
X188730363Y-80533703D01*
X188869662Y-80440626D01*
X188988126Y-80322162D01*
X189081203Y-80182863D01*
X189145316Y-80028082D01*
X189178000Y-79863767D01*
X189178000Y-79731228D01*
X212452000Y-79731228D01*
X212452000Y-79898771D01*
X212484682Y-80063074D01*
X212484684Y-80063082D01*
X212548795Y-80217860D01*
X212641873Y-80357162D01*
X212760337Y-80475626D01*
X212852994Y-80537537D01*
X212899637Y-80568703D01*
X213054418Y-80632816D01*
X213218728Y-80665499D01*
X213218732Y-80665500D01*
X213218733Y-80665500D01*
X213386268Y-80665500D01*
X213386269Y-80665499D01*
X213550582Y-80632816D01*
X213705363Y-80568703D01*
X213844662Y-80475626D01*
X213963126Y-80357162D01*
X214056203Y-80217863D01*
X214120316Y-80063082D01*
X214153000Y-79898767D01*
X214153000Y-79731233D01*
X214120316Y-79566918D01*
X214056203Y-79412137D01*
X214025037Y-79365494D01*
X213963126Y-79272837D01*
X213844662Y-79154373D01*
X213705360Y-79061295D01*
X213550582Y-78997184D01*
X213550574Y-78997182D01*
X213386271Y-78964500D01*
X213386267Y-78964500D01*
X213218733Y-78964500D01*
X213218728Y-78964500D01*
X213054425Y-78997182D01*
X213054417Y-78997184D01*
X212899639Y-79061295D01*
X212760337Y-79154373D01*
X212641873Y-79272837D01*
X212548795Y-79412139D01*
X212484684Y-79566917D01*
X212484682Y-79566925D01*
X212452000Y-79731228D01*
X189178000Y-79731228D01*
X189178000Y-79696233D01*
X189145316Y-79531918D01*
X189081203Y-79377137D01*
X189050037Y-79330494D01*
X188988126Y-79237837D01*
X188869662Y-79119373D01*
X188730360Y-79026295D01*
X188575582Y-78962184D01*
X188575574Y-78962182D01*
X188411271Y-78929500D01*
X188411267Y-78929500D01*
X188243733Y-78929500D01*
X188243728Y-78929500D01*
X188079425Y-78962182D01*
X188079417Y-78962184D01*
X187924639Y-79026295D01*
X187785337Y-79119373D01*
X187666873Y-79237837D01*
X187573795Y-79377139D01*
X187509684Y-79531917D01*
X187509682Y-79531925D01*
X187477000Y-79696228D01*
X176500500Y-79696228D01*
X176500500Y-77136228D01*
X187477000Y-77136228D01*
X187477000Y-77303771D01*
X187509682Y-77468074D01*
X187509684Y-77468082D01*
X187573795Y-77622860D01*
X187666873Y-77762162D01*
X187785337Y-77880626D01*
X187837719Y-77915626D01*
X187924637Y-77973703D01*
X188079418Y-78037816D01*
X188243728Y-78070499D01*
X188243732Y-78070500D01*
X188243733Y-78070500D01*
X188411268Y-78070500D01*
X188411269Y-78070499D01*
X188575582Y-78037816D01*
X188730363Y-77973703D01*
X188869662Y-77880626D01*
X188988126Y-77762162D01*
X189081203Y-77622863D01*
X189145316Y-77468082D01*
X189178000Y-77303767D01*
X189178000Y-77171228D01*
X212452000Y-77171228D01*
X212452000Y-77338771D01*
X212484682Y-77503074D01*
X212484684Y-77503082D01*
X212548795Y-77657860D01*
X212641873Y-77797162D01*
X212760337Y-77915626D01*
X212852994Y-77977537D01*
X212899637Y-78008703D01*
X213054418Y-78072816D01*
X213218728Y-78105499D01*
X213218732Y-78105500D01*
X213218733Y-78105500D01*
X213386268Y-78105500D01*
X213386269Y-78105499D01*
X213550582Y-78072816D01*
X213705363Y-78008703D01*
X213844662Y-77915626D01*
X213963126Y-77797162D01*
X214056203Y-77657863D01*
X214120316Y-77503082D01*
X214153000Y-77338767D01*
X214153000Y-77171233D01*
X214120316Y-77006918D01*
X214056203Y-76852137D01*
X214025037Y-76805494D01*
X213963126Y-76712837D01*
X213844662Y-76594373D01*
X213705360Y-76501295D01*
X213550582Y-76437184D01*
X213550574Y-76437182D01*
X213386271Y-76404500D01*
X213386267Y-76404500D01*
X213218733Y-76404500D01*
X213218728Y-76404500D01*
X213054425Y-76437182D01*
X213054417Y-76437184D01*
X212899639Y-76501295D01*
X212760337Y-76594373D01*
X212641873Y-76712837D01*
X212548795Y-76852139D01*
X212484684Y-77006917D01*
X212484682Y-77006925D01*
X212452000Y-77171228D01*
X189178000Y-77171228D01*
X189178000Y-77136233D01*
X189145316Y-76971918D01*
X189081203Y-76817137D01*
X189050037Y-76770494D01*
X188988126Y-76677837D01*
X188869662Y-76559373D01*
X188730360Y-76466295D01*
X188575582Y-76402184D01*
X188575574Y-76402182D01*
X188411271Y-76369500D01*
X188411267Y-76369500D01*
X188243733Y-76369500D01*
X188243728Y-76369500D01*
X188079425Y-76402182D01*
X188079417Y-76402184D01*
X187924639Y-76466295D01*
X187785337Y-76559373D01*
X187666873Y-76677837D01*
X187573795Y-76817139D01*
X187509684Y-76971917D01*
X187509682Y-76971925D01*
X187477000Y-77136228D01*
X176500500Y-77136228D01*
X176500500Y-74621228D01*
X187502000Y-74621228D01*
X187502000Y-74788771D01*
X187534682Y-74953074D01*
X187534684Y-74953082D01*
X187598795Y-75107860D01*
X187691873Y-75247162D01*
X187810337Y-75365626D01*
X187902994Y-75427537D01*
X187949637Y-75458703D01*
X188104418Y-75522816D01*
X188268728Y-75555499D01*
X188268732Y-75555500D01*
X188268733Y-75555500D01*
X188436268Y-75555500D01*
X188436269Y-75555499D01*
X188600582Y-75522816D01*
X188755363Y-75458703D01*
X188894662Y-75365626D01*
X189013126Y-75247162D01*
X189106203Y-75107863D01*
X189170316Y-74953082D01*
X189203000Y-74788767D01*
X189203000Y-74656228D01*
X212477000Y-74656228D01*
X212477000Y-74823771D01*
X212509682Y-74988074D01*
X212509684Y-74988082D01*
X212573795Y-75142860D01*
X212666873Y-75282162D01*
X212785337Y-75400626D01*
X212873178Y-75459319D01*
X212924637Y-75493703D01*
X213079418Y-75557816D01*
X213243728Y-75590499D01*
X213243732Y-75590500D01*
X213243733Y-75590500D01*
X213411268Y-75590500D01*
X213411269Y-75590499D01*
X213575582Y-75557816D01*
X213730363Y-75493703D01*
X213869662Y-75400626D01*
X213988126Y-75282162D01*
X214081203Y-75142863D01*
X214145316Y-74988082D01*
X214178000Y-74823767D01*
X214178000Y-74656233D01*
X214145316Y-74491918D01*
X214081203Y-74337137D01*
X214050037Y-74290494D01*
X213988126Y-74197837D01*
X213869662Y-74079373D01*
X213730360Y-73986295D01*
X213575582Y-73922184D01*
X213575574Y-73922182D01*
X213411271Y-73889500D01*
X213411267Y-73889500D01*
X213243733Y-73889500D01*
X213243728Y-73889500D01*
X213079425Y-73922182D01*
X213079417Y-73922184D01*
X212924639Y-73986295D01*
X212785337Y-74079373D01*
X212666873Y-74197837D01*
X212573795Y-74337139D01*
X212509684Y-74491917D01*
X212509682Y-74491925D01*
X212477000Y-74656228D01*
X189203000Y-74656228D01*
X189203000Y-74621233D01*
X189170316Y-74456918D01*
X189106203Y-74302137D01*
X189075037Y-74255494D01*
X189013126Y-74162837D01*
X188894662Y-74044373D01*
X188755360Y-73951295D01*
X188600582Y-73887184D01*
X188600574Y-73887182D01*
X188436271Y-73854500D01*
X188436267Y-73854500D01*
X188268733Y-73854500D01*
X188268728Y-73854500D01*
X188104425Y-73887182D01*
X188104417Y-73887184D01*
X187949639Y-73951295D01*
X187810337Y-74044373D01*
X187691873Y-74162837D01*
X187598795Y-74302139D01*
X187534684Y-74456917D01*
X187534682Y-74456925D01*
X187502000Y-74621228D01*
X176500500Y-74621228D01*
X176500500Y-69511577D01*
X186752000Y-69511577D01*
X186752000Y-69708422D01*
X186782790Y-69902826D01*
X186843617Y-70090029D01*
X186932976Y-70265405D01*
X187048672Y-70424646D01*
X187187854Y-70563828D01*
X187347095Y-70679524D01*
X187429955Y-70721743D01*
X187522470Y-70768882D01*
X187522472Y-70768882D01*
X187522475Y-70768884D01*
X187532280Y-70772070D01*
X187589954Y-70811507D01*
X187617152Y-70875866D01*
X187605237Y-70944712D01*
X187557992Y-70996188D01*
X187532283Y-71007929D01*
X187527769Y-71009395D01*
X187522470Y-71011117D01*
X187347094Y-71100476D01*
X187256241Y-71166485D01*
X187187854Y-71216172D01*
X187187852Y-71216174D01*
X187187851Y-71216174D01*
X187048674Y-71355351D01*
X187048674Y-71355352D01*
X187048672Y-71355354D01*
X186998985Y-71423741D01*
X186932976Y-71514594D01*
X186843617Y-71689970D01*
X186782790Y-71877173D01*
X186752000Y-72071577D01*
X186752000Y-72268422D01*
X186782790Y-72462826D01*
X186843617Y-72650029D01*
X186932976Y-72825405D01*
X187048672Y-72984646D01*
X187187854Y-73123828D01*
X187347095Y-73239524D01*
X187429955Y-73281743D01*
X187522470Y-73328882D01*
X187522472Y-73328882D01*
X187522475Y-73328884D01*
X187622817Y-73361487D01*
X187709673Y-73389709D01*
X187904078Y-73420500D01*
X187904083Y-73420500D01*
X188800922Y-73420500D01*
X188995326Y-73389709D01*
X189182525Y-73328884D01*
X189357905Y-73239524D01*
X189517146Y-73123828D01*
X189656328Y-72984646D01*
X189772024Y-72825405D01*
X189861384Y-72650025D01*
X189922209Y-72462826D01*
X189953000Y-72268422D01*
X189953000Y-72071577D01*
X189922209Y-71877173D01*
X189861382Y-71689970D01*
X189772023Y-71514594D01*
X189656328Y-71355354D01*
X189517146Y-71216172D01*
X189357905Y-71100476D01*
X189182526Y-71011116D01*
X189176531Y-71009168D01*
X189172721Y-71007930D01*
X189115046Y-70968495D01*
X189087847Y-70904136D01*
X189099761Y-70835290D01*
X189147004Y-70783813D01*
X189172720Y-70772069D01*
X189182525Y-70768884D01*
X189357905Y-70679524D01*
X189517146Y-70563828D01*
X189656328Y-70424646D01*
X189772024Y-70265405D01*
X189861384Y-70090025D01*
X189922209Y-69902826D01*
X189953000Y-69708422D01*
X189953000Y-69511577D01*
X211752000Y-69511577D01*
X211752000Y-69708422D01*
X211782790Y-69902826D01*
X211843617Y-70090029D01*
X211932976Y-70265405D01*
X212048672Y-70424646D01*
X212187854Y-70563828D01*
X212347095Y-70679524D01*
X212429955Y-70721743D01*
X212522470Y-70768882D01*
X212522472Y-70768882D01*
X212522475Y-70768884D01*
X212532280Y-70772070D01*
X212589954Y-70811507D01*
X212617152Y-70875866D01*
X212605237Y-70944712D01*
X212557992Y-70996188D01*
X212532283Y-71007929D01*
X212527769Y-71009395D01*
X212522470Y-71011117D01*
X212347094Y-71100476D01*
X212256241Y-71166485D01*
X212187854Y-71216172D01*
X212187852Y-71216174D01*
X212187851Y-71216174D01*
X212048674Y-71355351D01*
X212048674Y-71355352D01*
X212048672Y-71355354D01*
X211998985Y-71423741D01*
X211932976Y-71514594D01*
X211843617Y-71689970D01*
X211782790Y-71877173D01*
X211752000Y-72071577D01*
X211752000Y-72268422D01*
X211782790Y-72462826D01*
X211843617Y-72650029D01*
X211932976Y-72825405D01*
X212048672Y-72984646D01*
X212187854Y-73123828D01*
X212347095Y-73239524D01*
X212429955Y-73281743D01*
X212522470Y-73328882D01*
X212522472Y-73328882D01*
X212522475Y-73328884D01*
X212622817Y-73361487D01*
X212709673Y-73389709D01*
X212904078Y-73420500D01*
X212904083Y-73420500D01*
X213800922Y-73420500D01*
X213995326Y-73389709D01*
X214182525Y-73328884D01*
X214357905Y-73239524D01*
X214517146Y-73123828D01*
X214656328Y-72984646D01*
X214772024Y-72825405D01*
X214861384Y-72650025D01*
X214922209Y-72462826D01*
X214953000Y-72268422D01*
X214953000Y-72071577D01*
X214922209Y-71877173D01*
X214861382Y-71689970D01*
X214772023Y-71514594D01*
X214656328Y-71355354D01*
X214517146Y-71216172D01*
X214357905Y-71100476D01*
X214182526Y-71011116D01*
X214176531Y-71009168D01*
X214172721Y-71007930D01*
X214115046Y-70968495D01*
X214087847Y-70904136D01*
X214099761Y-70835290D01*
X214147004Y-70783813D01*
X214172720Y-70772069D01*
X214182525Y-70768884D01*
X214357905Y-70679524D01*
X214517146Y-70563828D01*
X214656328Y-70424646D01*
X214772024Y-70265405D01*
X214861384Y-70090025D01*
X214922209Y-69902826D01*
X214953000Y-69708422D01*
X214953000Y-69511577D01*
X214922209Y-69317173D01*
X214861382Y-69129970D01*
X214772023Y-68954594D01*
X214656328Y-68795354D01*
X214517146Y-68656172D01*
X214357905Y-68540476D01*
X214182529Y-68451117D01*
X213995326Y-68390290D01*
X213800922Y-68359500D01*
X213800917Y-68359500D01*
X212904083Y-68359500D01*
X212904078Y-68359500D01*
X212709673Y-68390290D01*
X212522470Y-68451117D01*
X212347094Y-68540476D01*
X212256241Y-68606485D01*
X212187854Y-68656172D01*
X212187852Y-68656174D01*
X212187851Y-68656174D01*
X212048674Y-68795351D01*
X212048674Y-68795352D01*
X212048672Y-68795354D01*
X211998985Y-68863741D01*
X211932976Y-68954594D01*
X211843617Y-69129970D01*
X211782790Y-69317173D01*
X211752000Y-69511577D01*
X189953000Y-69511577D01*
X189922209Y-69317173D01*
X189861382Y-69129970D01*
X189772023Y-68954594D01*
X189656328Y-68795354D01*
X189517146Y-68656172D01*
X189357905Y-68540476D01*
X189182529Y-68451117D01*
X188995326Y-68390290D01*
X188800922Y-68359500D01*
X188800917Y-68359500D01*
X187904083Y-68359500D01*
X187904078Y-68359500D01*
X187709673Y-68390290D01*
X187522470Y-68451117D01*
X187347094Y-68540476D01*
X187256241Y-68606485D01*
X187187854Y-68656172D01*
X187187852Y-68656174D01*
X187187851Y-68656174D01*
X187048674Y-68795351D01*
X187048674Y-68795352D01*
X187048672Y-68795354D01*
X186998985Y-68863741D01*
X186932976Y-68954594D01*
X186843617Y-69129970D01*
X186782790Y-69317173D01*
X186752000Y-69511577D01*
X176500500Y-69511577D01*
X176500500Y-66986228D01*
X187452000Y-66986228D01*
X187452000Y-67153771D01*
X187484682Y-67318074D01*
X187484684Y-67318082D01*
X187548795Y-67472860D01*
X187641873Y-67612162D01*
X187760337Y-67730626D01*
X187852994Y-67792537D01*
X187899637Y-67823703D01*
X188054418Y-67887816D01*
X188218728Y-67920499D01*
X188218732Y-67920500D01*
X188218733Y-67920500D01*
X188386268Y-67920500D01*
X188386269Y-67920499D01*
X188550582Y-67887816D01*
X188705363Y-67823703D01*
X188844662Y-67730626D01*
X188963126Y-67612162D01*
X189056203Y-67472863D01*
X189120316Y-67318082D01*
X189153000Y-67153767D01*
X189153000Y-66986233D01*
X189152999Y-66986228D01*
X212452000Y-66986228D01*
X212452000Y-67153771D01*
X212484682Y-67318074D01*
X212484684Y-67318082D01*
X212548795Y-67472860D01*
X212641873Y-67612162D01*
X212760337Y-67730626D01*
X212852994Y-67792537D01*
X212899637Y-67823703D01*
X213054418Y-67887816D01*
X213218728Y-67920499D01*
X213218732Y-67920500D01*
X213218733Y-67920500D01*
X213386268Y-67920500D01*
X213386269Y-67920499D01*
X213550582Y-67887816D01*
X213705363Y-67823703D01*
X213844662Y-67730626D01*
X213963126Y-67612162D01*
X214056203Y-67472863D01*
X214120316Y-67318082D01*
X214153000Y-67153767D01*
X214153000Y-66986233D01*
X214120316Y-66821918D01*
X214056203Y-66667137D01*
X214025037Y-66620494D01*
X213963126Y-66527837D01*
X213844662Y-66409373D01*
X213705360Y-66316295D01*
X213550582Y-66252184D01*
X213550574Y-66252182D01*
X213386271Y-66219500D01*
X213386267Y-66219500D01*
X213218733Y-66219500D01*
X213218728Y-66219500D01*
X213054425Y-66252182D01*
X213054417Y-66252184D01*
X212899639Y-66316295D01*
X212760337Y-66409373D01*
X212641873Y-66527837D01*
X212548795Y-66667139D01*
X212484684Y-66821917D01*
X212484682Y-66821925D01*
X212452000Y-66986228D01*
X189152999Y-66986228D01*
X189120316Y-66821918D01*
X189056203Y-66667137D01*
X189025037Y-66620494D01*
X188963126Y-66527837D01*
X188844662Y-66409373D01*
X188705360Y-66316295D01*
X188550582Y-66252184D01*
X188550574Y-66252182D01*
X188386271Y-66219500D01*
X188386267Y-66219500D01*
X188218733Y-66219500D01*
X188218728Y-66219500D01*
X188054425Y-66252182D01*
X188054417Y-66252184D01*
X187899639Y-66316295D01*
X187760337Y-66409373D01*
X187641873Y-66527837D01*
X187548795Y-66667139D01*
X187484684Y-66821917D01*
X187484682Y-66821925D01*
X187452000Y-66986228D01*
X176500500Y-66986228D01*
X176500500Y-64426228D01*
X187452000Y-64426228D01*
X187452000Y-64593771D01*
X187484682Y-64758074D01*
X187484684Y-64758082D01*
X187548795Y-64912860D01*
X187641873Y-65052162D01*
X187760337Y-65170626D01*
X187852994Y-65232537D01*
X187899637Y-65263703D01*
X188054418Y-65327816D01*
X188218728Y-65360499D01*
X188218732Y-65360500D01*
X188218733Y-65360500D01*
X188386268Y-65360500D01*
X188386269Y-65360499D01*
X188550582Y-65327816D01*
X188705363Y-65263703D01*
X188844662Y-65170626D01*
X188963126Y-65052162D01*
X189056203Y-64912863D01*
X189120316Y-64758082D01*
X189153000Y-64593767D01*
X189153000Y-64426233D01*
X189152999Y-64426228D01*
X212452000Y-64426228D01*
X212452000Y-64593771D01*
X212484682Y-64758074D01*
X212484684Y-64758082D01*
X212548795Y-64912860D01*
X212641873Y-65052162D01*
X212760337Y-65170626D01*
X212852994Y-65232537D01*
X212899637Y-65263703D01*
X213054418Y-65327816D01*
X213218728Y-65360499D01*
X213218732Y-65360500D01*
X213218733Y-65360500D01*
X213386268Y-65360500D01*
X213386269Y-65360499D01*
X213550582Y-65327816D01*
X213705363Y-65263703D01*
X213844662Y-65170626D01*
X213963126Y-65052162D01*
X214056203Y-64912863D01*
X214120316Y-64758082D01*
X214153000Y-64593767D01*
X214153000Y-64426233D01*
X214120316Y-64261918D01*
X214056203Y-64107137D01*
X214025037Y-64060494D01*
X213963126Y-63967837D01*
X213844662Y-63849373D01*
X213705360Y-63756295D01*
X213550582Y-63692184D01*
X213550574Y-63692182D01*
X213386271Y-63659500D01*
X213386267Y-63659500D01*
X213218733Y-63659500D01*
X213218728Y-63659500D01*
X213054425Y-63692182D01*
X213054417Y-63692184D01*
X212899639Y-63756295D01*
X212760337Y-63849373D01*
X212641873Y-63967837D01*
X212548795Y-64107139D01*
X212484684Y-64261917D01*
X212484682Y-64261925D01*
X212452000Y-64426228D01*
X189152999Y-64426228D01*
X189120316Y-64261918D01*
X189056203Y-64107137D01*
X189025037Y-64060494D01*
X188963126Y-63967837D01*
X188844662Y-63849373D01*
X188705360Y-63756295D01*
X188550582Y-63692184D01*
X188550574Y-63692182D01*
X188386271Y-63659500D01*
X188386267Y-63659500D01*
X188218733Y-63659500D01*
X188218728Y-63659500D01*
X188054425Y-63692182D01*
X188054417Y-63692184D01*
X187899639Y-63756295D01*
X187760337Y-63849373D01*
X187641873Y-63967837D01*
X187548795Y-64107139D01*
X187484684Y-64261917D01*
X187484682Y-64261925D01*
X187452000Y-64426228D01*
X176500500Y-64426228D01*
X176500500Y-61031644D01*
X178099500Y-61031644D01*
X178099500Y-61618355D01*
X178109913Y-61720276D01*
X178164637Y-61885422D01*
X178164642Y-61885433D01*
X178255971Y-62033499D01*
X178255974Y-62033503D01*
X178367230Y-62144759D01*
X178400715Y-62206082D01*
X178395731Y-62275774D01*
X178394111Y-62279891D01*
X178364106Y-62352332D01*
X178364104Y-62352336D01*
X178329500Y-62526304D01*
X178329500Y-62703695D01*
X178364103Y-62877658D01*
X178364106Y-62877667D01*
X178431983Y-63041540D01*
X178431990Y-63041553D01*
X178530535Y-63189034D01*
X178530538Y-63189038D01*
X178655961Y-63314461D01*
X178655965Y-63314464D01*
X178803446Y-63413009D01*
X178803459Y-63413016D01*
X178881882Y-63445499D01*
X178967334Y-63480894D01*
X178967336Y-63480894D01*
X178967341Y-63480896D01*
X179141304Y-63515499D01*
X179141307Y-63515500D01*
X179141309Y-63515500D01*
X179318693Y-63515500D01*
X179318694Y-63515499D01*
X179376682Y-63503964D01*
X179492658Y-63480896D01*
X179492661Y-63480894D01*
X179492666Y-63480894D01*
X179656547Y-63413013D01*
X179804035Y-63314464D01*
X179929464Y-63189035D01*
X180028013Y-63041547D01*
X180095894Y-62877666D01*
X180102293Y-62845500D01*
X180130499Y-62703695D01*
X180130500Y-62703693D01*
X180130500Y-62526306D01*
X180130499Y-62526304D01*
X180104950Y-62397863D01*
X180095894Y-62352334D01*
X180095889Y-62352323D01*
X180094126Y-62346507D01*
X180096142Y-62345895D01*
X180089690Y-62285937D01*
X180120959Y-62223454D01*
X180146619Y-62202406D01*
X180221003Y-62156526D01*
X180344026Y-62033503D01*
X180419446Y-61911228D01*
X187477000Y-61911228D01*
X187477000Y-62078771D01*
X187509682Y-62243074D01*
X187509684Y-62243082D01*
X187573795Y-62397860D01*
X187666873Y-62537162D01*
X187785337Y-62655626D01*
X187857272Y-62703691D01*
X187924637Y-62748703D01*
X188079418Y-62812816D01*
X188243728Y-62845499D01*
X188243732Y-62845500D01*
X188243733Y-62845500D01*
X188411268Y-62845500D01*
X188411269Y-62845499D01*
X188575582Y-62812816D01*
X188730363Y-62748703D01*
X188869662Y-62655626D01*
X188988126Y-62537162D01*
X189081203Y-62397863D01*
X189145316Y-62243082D01*
X189178000Y-62078767D01*
X189178000Y-61911233D01*
X189175085Y-61896577D01*
X211727000Y-61896577D01*
X211727000Y-62093422D01*
X211757790Y-62287826D01*
X211818617Y-62475029D01*
X211844746Y-62526309D01*
X211907976Y-62650405D01*
X212023672Y-62809646D01*
X212162854Y-62948828D01*
X212322095Y-63064524D01*
X212404955Y-63106743D01*
X212497470Y-63153882D01*
X212497472Y-63153882D01*
X212497475Y-63153884D01*
X212597817Y-63186487D01*
X212684673Y-63214709D01*
X212879078Y-63245500D01*
X212879083Y-63245500D01*
X213775922Y-63245500D01*
X213970326Y-63214709D01*
X214157525Y-63153884D01*
X214332905Y-63064524D01*
X214492146Y-62948828D01*
X214631328Y-62809646D01*
X214747024Y-62650405D01*
X214836384Y-62475025D01*
X214897209Y-62287826D01*
X214905710Y-62234155D01*
X214928000Y-62093422D01*
X214928000Y-61896577D01*
X214897209Y-61702173D01*
X214836382Y-61514970D01*
X214747023Y-61339594D01*
X214631328Y-61180354D01*
X214492146Y-61041172D01*
X214410213Y-60981644D01*
X222599500Y-60981644D01*
X222599500Y-61568355D01*
X222609913Y-61670276D01*
X222664637Y-61835422D01*
X222664642Y-61835433D01*
X222755971Y-61983499D01*
X222755974Y-61983503D01*
X222878997Y-62106526D01*
X223001697Y-62182209D01*
X223048420Y-62234155D01*
X223059643Y-62303118D01*
X223058216Y-62311937D01*
X223029500Y-62456304D01*
X223029500Y-62633695D01*
X223064103Y-62807658D01*
X223064106Y-62807667D01*
X223131983Y-62971540D01*
X223131990Y-62971553D01*
X223230535Y-63119034D01*
X223230538Y-63119038D01*
X223355961Y-63244461D01*
X223355965Y-63244464D01*
X223503446Y-63343009D01*
X223503459Y-63343016D01*
X223626363Y-63393923D01*
X223667334Y-63410894D01*
X223667336Y-63410894D01*
X223667341Y-63410896D01*
X223841304Y-63445499D01*
X223841307Y-63445500D01*
X223841309Y-63445500D01*
X224018693Y-63445500D01*
X224018694Y-63445499D01*
X224076682Y-63433964D01*
X224192658Y-63410896D01*
X224192661Y-63410894D01*
X224192666Y-63410894D01*
X224356547Y-63343013D01*
X224504035Y-63244464D01*
X224629464Y-63119035D01*
X224728013Y-62971547D01*
X224795894Y-62807666D01*
X224807623Y-62748704D01*
X224830499Y-62633695D01*
X224830500Y-62633693D01*
X224830500Y-62456306D01*
X224830499Y-62456304D01*
X224795896Y-62282341D01*
X224795894Y-62282338D01*
X224795894Y-62282334D01*
X224754171Y-62181606D01*
X224746704Y-62112138D01*
X224777980Y-62049659D01*
X224780998Y-62046530D01*
X224844026Y-61983503D01*
X224935362Y-61835425D01*
X224990087Y-61670275D01*
X225000500Y-61568348D01*
X225000500Y-60981652D01*
X224990087Y-60879725D01*
X224935362Y-60714575D01*
X224935358Y-60714569D01*
X224935357Y-60714566D01*
X224844028Y-60566500D01*
X224844025Y-60566496D01*
X224721003Y-60443474D01*
X224720999Y-60443471D01*
X224572933Y-60352142D01*
X224572927Y-60352139D01*
X224572925Y-60352138D01*
X224558666Y-60347413D01*
X224407776Y-60297413D01*
X224305855Y-60287000D01*
X224305848Y-60287000D01*
X223294152Y-60287000D01*
X223294144Y-60287000D01*
X223192223Y-60297413D01*
X223027077Y-60352137D01*
X223027066Y-60352142D01*
X222879000Y-60443471D01*
X222878996Y-60443474D01*
X222755974Y-60566496D01*
X222755971Y-60566500D01*
X222664642Y-60714566D01*
X222664637Y-60714577D01*
X222609913Y-60879723D01*
X222599500Y-60981644D01*
X214410213Y-60981644D01*
X214332905Y-60925476D01*
X214157529Y-60836117D01*
X213970326Y-60775290D01*
X213775922Y-60744500D01*
X213775917Y-60744500D01*
X212879083Y-60744500D01*
X212879078Y-60744500D01*
X212684673Y-60775290D01*
X212497470Y-60836117D01*
X212322094Y-60925476D01*
X212244787Y-60981644D01*
X212162854Y-61041172D01*
X212162852Y-61041174D01*
X212162851Y-61041174D01*
X212023674Y-61180351D01*
X212023674Y-61180352D01*
X212023672Y-61180354D01*
X211979396Y-61241295D01*
X211907976Y-61339594D01*
X211818617Y-61514970D01*
X211757790Y-61702173D01*
X211727000Y-61896577D01*
X189175085Y-61896577D01*
X189145316Y-61746918D01*
X189081203Y-61592137D01*
X189029645Y-61514975D01*
X188988126Y-61452837D01*
X188869662Y-61334373D01*
X188730360Y-61241295D01*
X188575582Y-61177184D01*
X188575574Y-61177182D01*
X188411271Y-61144500D01*
X188411267Y-61144500D01*
X188243733Y-61144500D01*
X188243728Y-61144500D01*
X188079425Y-61177182D01*
X188079417Y-61177184D01*
X187924639Y-61241295D01*
X187785337Y-61334373D01*
X187666873Y-61452837D01*
X187573795Y-61592139D01*
X187509684Y-61746917D01*
X187509682Y-61746925D01*
X187477000Y-61911228D01*
X180419446Y-61911228D01*
X180435362Y-61885425D01*
X180490087Y-61720275D01*
X180500500Y-61618348D01*
X180500500Y-61031652D01*
X180490087Y-60929725D01*
X180435362Y-60764575D01*
X180435358Y-60764569D01*
X180435357Y-60764566D01*
X180344028Y-60616500D01*
X180344025Y-60616496D01*
X180221003Y-60493474D01*
X180220999Y-60493471D01*
X180072933Y-60402142D01*
X180072927Y-60402139D01*
X180072925Y-60402138D01*
X180072922Y-60402137D01*
X179907776Y-60347413D01*
X179805855Y-60337000D01*
X179805848Y-60337000D01*
X178794152Y-60337000D01*
X178794144Y-60337000D01*
X178692223Y-60347413D01*
X178527077Y-60402137D01*
X178527066Y-60402142D01*
X178379000Y-60493471D01*
X178378996Y-60493474D01*
X178255974Y-60616496D01*
X178255971Y-60616500D01*
X178164642Y-60764566D01*
X178164637Y-60764577D01*
X178109913Y-60929723D01*
X178099500Y-61031644D01*
X176500500Y-61031644D01*
X176500500Y-59351228D01*
X187477000Y-59351228D01*
X187477000Y-59518771D01*
X187509682Y-59683074D01*
X187509684Y-59683082D01*
X187573795Y-59837860D01*
X187666873Y-59977162D01*
X187785337Y-60095626D01*
X187877994Y-60157537D01*
X187924637Y-60188703D01*
X188079418Y-60252816D01*
X188243728Y-60285499D01*
X188243732Y-60285500D01*
X188243733Y-60285500D01*
X188411268Y-60285500D01*
X188411269Y-60285499D01*
X188575582Y-60252816D01*
X188730363Y-60188703D01*
X188869662Y-60095626D01*
X188988126Y-59977162D01*
X189081203Y-59837863D01*
X189145316Y-59683082D01*
X189178000Y-59518767D01*
X189178000Y-59351233D01*
X189177999Y-59351228D01*
X212477000Y-59351228D01*
X212477000Y-59518771D01*
X212509682Y-59683074D01*
X212509684Y-59683082D01*
X212573795Y-59837860D01*
X212666873Y-59977162D01*
X212785337Y-60095626D01*
X212877994Y-60157537D01*
X212924637Y-60188703D01*
X213079418Y-60252816D01*
X213243728Y-60285499D01*
X213243732Y-60285500D01*
X213243733Y-60285500D01*
X213411268Y-60285500D01*
X213411269Y-60285499D01*
X213575582Y-60252816D01*
X213730363Y-60188703D01*
X213869662Y-60095626D01*
X213988126Y-59977162D01*
X214081203Y-59837863D01*
X214145316Y-59683082D01*
X214178000Y-59518767D01*
X214178000Y-59351233D01*
X214145316Y-59186918D01*
X214081203Y-59032137D01*
X214005626Y-58919028D01*
X213988126Y-58892837D01*
X213869662Y-58774373D01*
X213730360Y-58681295D01*
X213575582Y-58617184D01*
X213575574Y-58617182D01*
X213411271Y-58584500D01*
X213411267Y-58584500D01*
X213243733Y-58584500D01*
X213243728Y-58584500D01*
X213079425Y-58617182D01*
X213079417Y-58617184D01*
X212924639Y-58681295D01*
X212785337Y-58774373D01*
X212666873Y-58892837D01*
X212573795Y-59032139D01*
X212509684Y-59186917D01*
X212509682Y-59186925D01*
X212477000Y-59351228D01*
X189177999Y-59351228D01*
X189145316Y-59186918D01*
X189081203Y-59032137D01*
X189005626Y-58919028D01*
X188988126Y-58892837D01*
X188869662Y-58774373D01*
X188730360Y-58681295D01*
X188575582Y-58617184D01*
X188575574Y-58617182D01*
X188411271Y-58584500D01*
X188411267Y-58584500D01*
X188243733Y-58584500D01*
X188243728Y-58584500D01*
X188079425Y-58617182D01*
X188079417Y-58617184D01*
X187924639Y-58681295D01*
X187785337Y-58774373D01*
X187666873Y-58892837D01*
X187573795Y-59032139D01*
X187509684Y-59186917D01*
X187509682Y-59186925D01*
X187477000Y-59351228D01*
X176500500Y-59351228D01*
X176500500Y-58330815D01*
X178100000Y-58330815D01*
X178110407Y-58432673D01*
X178165094Y-58597709D01*
X178165096Y-58597714D01*
X178256370Y-58745691D01*
X178379308Y-58868629D01*
X178527285Y-58959903D01*
X178527290Y-58959905D01*
X178692326Y-59014592D01*
X178794184Y-59024999D01*
X178794197Y-59025000D01*
X179050000Y-59025000D01*
X179550000Y-59025000D01*
X179805803Y-59025000D01*
X179805815Y-59024999D01*
X179907673Y-59014592D01*
X180072709Y-58959905D01*
X180072714Y-58959903D01*
X180220691Y-58868629D01*
X180343629Y-58745691D01*
X180434903Y-58597714D01*
X180434905Y-58597709D01*
X180489592Y-58432673D01*
X180499999Y-58330815D01*
X180500000Y-58330802D01*
X180500000Y-58287500D01*
X179550000Y-58287500D01*
X179550000Y-59025000D01*
X179050000Y-59025000D01*
X179050000Y-58287500D01*
X178100000Y-58287500D01*
X178100000Y-58330815D01*
X176500500Y-58330815D01*
X176500500Y-58286304D01*
X220699500Y-58286304D01*
X220699500Y-58463695D01*
X220734103Y-58637658D01*
X220734106Y-58637667D01*
X220801983Y-58801540D01*
X220801990Y-58801553D01*
X220900535Y-58949034D01*
X220900538Y-58949038D01*
X221025961Y-59074461D01*
X221025965Y-59074464D01*
X221173446Y-59173009D01*
X221173459Y-59173016D01*
X221296363Y-59223923D01*
X221337334Y-59240894D01*
X221337336Y-59240894D01*
X221337341Y-59240896D01*
X221511304Y-59275499D01*
X221511307Y-59275500D01*
X221511309Y-59275500D01*
X221688693Y-59275500D01*
X221688694Y-59275499D01*
X221746682Y-59263964D01*
X221862658Y-59240896D01*
X221862661Y-59240894D01*
X221862666Y-59240894D01*
X222026547Y-59173013D01*
X222174035Y-59074464D01*
X222299464Y-58949035D01*
X222336833Y-58893109D01*
X222390445Y-58848304D01*
X222439935Y-58838000D01*
X222746609Y-58838000D01*
X222813648Y-58857685D01*
X222834290Y-58874319D01*
X222878996Y-58919025D01*
X222879000Y-58919028D01*
X223027066Y-59010357D01*
X223027069Y-59010358D01*
X223027075Y-59010362D01*
X223192225Y-59065087D01*
X223294152Y-59075500D01*
X223294157Y-59075500D01*
X224305843Y-59075500D01*
X224305848Y-59075500D01*
X224407775Y-59065087D01*
X224572925Y-59010362D01*
X224721003Y-58919026D01*
X224844026Y-58796003D01*
X224935362Y-58647925D01*
X224990087Y-58482775D01*
X225000500Y-58380848D01*
X225000500Y-57794152D01*
X224990087Y-57692225D01*
X224935362Y-57527075D01*
X224935358Y-57527069D01*
X224935357Y-57527066D01*
X224844028Y-57379000D01*
X224844025Y-57378996D01*
X224721003Y-57255974D01*
X224720999Y-57255971D01*
X224572933Y-57164642D01*
X224572927Y-57164639D01*
X224572925Y-57164638D01*
X224572922Y-57164637D01*
X224407776Y-57109913D01*
X224305855Y-57099500D01*
X224305848Y-57099500D01*
X223294152Y-57099500D01*
X223294144Y-57099500D01*
X223192223Y-57109913D01*
X223027077Y-57164637D01*
X223027066Y-57164642D01*
X222879000Y-57255971D01*
X222878996Y-57255974D01*
X222834290Y-57300681D01*
X222772967Y-57334166D01*
X222746609Y-57337000D01*
X221813580Y-57337000D01*
X221668592Y-57365840D01*
X221668586Y-57365842D01*
X221532008Y-57422414D01*
X221532003Y-57422417D01*
X221450292Y-57477013D01*
X221405597Y-57495526D01*
X221337336Y-57509105D01*
X221337331Y-57509106D01*
X221173459Y-57576983D01*
X221173446Y-57576990D01*
X221025965Y-57675535D01*
X221025961Y-57675538D01*
X220900538Y-57800961D01*
X220900535Y-57800965D01*
X220801990Y-57948446D01*
X220801983Y-57948459D01*
X220734106Y-58112332D01*
X220734103Y-58112341D01*
X220699500Y-58286304D01*
X176500500Y-58286304D01*
X176500500Y-57744184D01*
X178100000Y-57744184D01*
X178100000Y-57787500D01*
X179050000Y-57787500D01*
X179550000Y-57787500D01*
X180500000Y-57787500D01*
X180500000Y-57744197D01*
X180499999Y-57744184D01*
X180489592Y-57642326D01*
X180434905Y-57477290D01*
X180434903Y-57477285D01*
X180343629Y-57329308D01*
X180220691Y-57206370D01*
X180072714Y-57115096D01*
X180072709Y-57115094D01*
X179907673Y-57060407D01*
X179805815Y-57050000D01*
X179550000Y-57050000D01*
X179550000Y-57787500D01*
X179050000Y-57787500D01*
X179050000Y-57050000D01*
X178794184Y-57050000D01*
X178692326Y-57060407D01*
X178527290Y-57115094D01*
X178527285Y-57115096D01*
X178379308Y-57206370D01*
X178256370Y-57329308D01*
X178165096Y-57477285D01*
X178165094Y-57477290D01*
X178110407Y-57642326D01*
X178100000Y-57744184D01*
X176500500Y-57744184D01*
X176500500Y-47530528D01*
X187999500Y-47530528D01*
X187999500Y-47839471D01*
X188034086Y-48146437D01*
X188034089Y-48146455D01*
X188102831Y-48447635D01*
X188102835Y-48447647D01*
X188204862Y-48739222D01*
X188204868Y-48739236D01*
X188338903Y-49017562D01*
X188338905Y-49017565D01*
X188503265Y-49279143D01*
X188695880Y-49520674D01*
X188914326Y-49739120D01*
X189155857Y-49931735D01*
X189417435Y-50096095D01*
X189695771Y-50230135D01*
X189695777Y-50230137D01*
X189987352Y-50332164D01*
X189987364Y-50332168D01*
X190288548Y-50400911D01*
X190288554Y-50400911D01*
X190288562Y-50400913D01*
X190493206Y-50423970D01*
X190595529Y-50435499D01*
X190595532Y-50435500D01*
X190595535Y-50435500D01*
X190904468Y-50435500D01*
X190904469Y-50435499D01*
X191061356Y-50417822D01*
X191211437Y-50400913D01*
X191211442Y-50400912D01*
X191211452Y-50400911D01*
X191512636Y-50332168D01*
X191804229Y-50230135D01*
X192082565Y-50096095D01*
X192344143Y-49931735D01*
X192585674Y-49739120D01*
X192804120Y-49520674D01*
X192996735Y-49279143D01*
X193161095Y-49017565D01*
X193295135Y-48739229D01*
X193397168Y-48447636D01*
X193465911Y-48146452D01*
X193500500Y-47839465D01*
X193500500Y-47530535D01*
X193500499Y-47530528D01*
X217999500Y-47530528D01*
X217999500Y-47839471D01*
X218034086Y-48146437D01*
X218034089Y-48146455D01*
X218102831Y-48447635D01*
X218102835Y-48447647D01*
X218204862Y-48739222D01*
X218204868Y-48739236D01*
X218338903Y-49017562D01*
X218338905Y-49017565D01*
X218503265Y-49279143D01*
X218695880Y-49520674D01*
X218914326Y-49739120D01*
X219155857Y-49931735D01*
X219417435Y-50096095D01*
X219695771Y-50230135D01*
X219695777Y-50230137D01*
X219987352Y-50332164D01*
X219987364Y-50332168D01*
X220288548Y-50400911D01*
X220288554Y-50400911D01*
X220288562Y-50400913D01*
X220493206Y-50423970D01*
X220595529Y-50435499D01*
X220595532Y-50435500D01*
X220595535Y-50435500D01*
X220904468Y-50435500D01*
X220904469Y-50435499D01*
X221061356Y-50417822D01*
X221211437Y-50400913D01*
X221211442Y-50400912D01*
X221211452Y-50400911D01*
X221512636Y-50332168D01*
X221804229Y-50230135D01*
X222082565Y-50096095D01*
X222344143Y-49931735D01*
X222585674Y-49739120D01*
X222804120Y-49520674D01*
X222996735Y-49279143D01*
X223161095Y-49017565D01*
X223295135Y-48739229D01*
X223397168Y-48447636D01*
X223465911Y-48146452D01*
X223500500Y-47839465D01*
X223500500Y-47530535D01*
X223465911Y-47223548D01*
X223397168Y-46922364D01*
X223295135Y-46630771D01*
X223161095Y-46352435D01*
X222996735Y-46090857D01*
X222804120Y-45849326D01*
X222585674Y-45630880D01*
X222344143Y-45438265D01*
X222082565Y-45273905D01*
X222082562Y-45273903D01*
X221804236Y-45139868D01*
X221804222Y-45139862D01*
X221512647Y-45037835D01*
X221512635Y-45037831D01*
X221211455Y-44969089D01*
X221211437Y-44969086D01*
X220904471Y-44934500D01*
X220904465Y-44934500D01*
X220595535Y-44934500D01*
X220595528Y-44934500D01*
X220288562Y-44969086D01*
X220288544Y-44969089D01*
X219987364Y-45037831D01*
X219987352Y-45037835D01*
X219695777Y-45139862D01*
X219695763Y-45139868D01*
X219417437Y-45273903D01*
X219155858Y-45438264D01*
X218914326Y-45630879D01*
X218695879Y-45849326D01*
X218503264Y-46090858D01*
X218338903Y-46352437D01*
X218204868Y-46630763D01*
X218204862Y-46630777D01*
X218102835Y-46922352D01*
X218102831Y-46922364D01*
X218034089Y-47223544D01*
X218034086Y-47223562D01*
X217999500Y-47530528D01*
X193500499Y-47530528D01*
X193465911Y-47223548D01*
X193397168Y-46922364D01*
X193295135Y-46630771D01*
X193161095Y-46352435D01*
X192996735Y-46090857D01*
X192804120Y-45849326D01*
X192585674Y-45630880D01*
X192344143Y-45438265D01*
X192082565Y-45273905D01*
X192082562Y-45273903D01*
X191804236Y-45139868D01*
X191804222Y-45139862D01*
X191512647Y-45037835D01*
X191512635Y-45037831D01*
X191211455Y-44969089D01*
X191211437Y-44969086D01*
X190904471Y-44934500D01*
X190904465Y-44934500D01*
X190595535Y-44934500D01*
X190595528Y-44934500D01*
X190288562Y-44969086D01*
X190288544Y-44969089D01*
X189987364Y-45037831D01*
X189987352Y-45037835D01*
X189695777Y-45139862D01*
X189695763Y-45139868D01*
X189417437Y-45273903D01*
X189155858Y-45438264D01*
X188914326Y-45630879D01*
X188695879Y-45849326D01*
X188503264Y-46090858D01*
X188338903Y-46352437D01*
X188204868Y-46630763D01*
X188204862Y-46630777D01*
X188102835Y-46922352D01*
X188102831Y-46922364D01*
X188034089Y-47223544D01*
X188034086Y-47223562D01*
X187999500Y-47530528D01*
X176500500Y-47530528D01*
X176500500Y-44529500D01*
X176520185Y-44462461D01*
X176572989Y-44416706D01*
X176624500Y-44405500D01*
X232295500Y-44405500D01*
X232362539Y-44425185D01*
G37*
%TD.AperFunction*%
%TD*%
M02*
