%TF.GenerationSoftware,KiCad,Pcbnew,9.0.7*%
%TF.CreationDate,2026-07-18T06:45:16+05:30*%
%TF.ProjectId,Nursary_OneCH,4e757273-6172-4795-9f4f-6e6543482e6b,rev?*%
%TF.SameCoordinates,Original*%
%TF.FileFunction,Paste,Bot*%
%TF.FilePolarity,Positive*%
%FSLAX46Y46*%
G04 Gerber Fmt 4.6, Leading zero omitted, Abs format (unit mm)*
G04 Created by KiCad (PCBNEW 9.0.7) date 2026-07-18 06:45:16*
%MOMM*%
%LPD*%
G01*
G04 APERTURE LIST*
G04 Aperture macros list*
%AMRoundRect*
0 Rectangle with rounded corners*
0 $1 Rounding radius*
0 $2 $3 $4 $5 $6 $7 $8 $9 X,Y pos of 4 corners*
0 Add a 4 corners polygon primitive as box body*
4,1,4,$2,$3,$4,$5,$6,$7,$8,$9,$2,$3,0*
0 Add four circle primitives for the rounded corners*
1,1,$1+$1,$2,$3*
1,1,$1+$1,$4,$5*
1,1,$1+$1,$6,$7*
1,1,$1+$1,$8,$9*
0 Add four rect primitives between the rounded corners*
20,1,$1+$1,$2,$3,$4,$5,0*
20,1,$1+$1,$4,$5,$6,$7,0*
20,1,$1+$1,$6,$7,$8,$9,0*
20,1,$1+$1,$8,$9,$2,$3,0*%
G04 Aperture macros list end*
%ADD10RoundRect,0.250000X-0.450000X0.262500X-0.450000X-0.262500X0.450000X-0.262500X0.450000X0.262500X0*%
%ADD11RoundRect,0.250000X-0.262500X-0.450000X0.262500X-0.450000X0.262500X0.450000X-0.262500X0.450000X0*%
%ADD12RoundRect,0.250000X0.262500X0.450000X-0.262500X0.450000X-0.262500X-0.450000X0.262500X-0.450000X0*%
%ADD13RoundRect,0.250000X-0.250000X-0.475000X0.250000X-0.475000X0.250000X0.475000X-0.250000X0.475000X0*%
%ADD14RoundRect,0.250000X-0.700000X0.275000X-0.700000X-0.275000X0.700000X-0.275000X0.700000X0.275000X0*%
%ADD15RoundRect,0.150000X-0.875000X-0.150000X0.875000X-0.150000X0.875000X0.150000X-0.875000X0.150000X0*%
%ADD16RoundRect,0.050000X-0.100000X-0.250000X0.100000X-0.250000X0.100000X0.250000X-0.100000X0.250000X0*%
%ADD17RoundRect,0.250000X-0.475000X0.250000X-0.475000X-0.250000X0.475000X-0.250000X0.475000X0.250000X0*%
%ADD18RoundRect,0.250000X0.475000X-0.250000X0.475000X0.250000X-0.475000X0.250000X-0.475000X-0.250000X0*%
%ADD19RoundRect,0.250000X0.450000X-0.262500X0.450000X0.262500X-0.450000X0.262500X-0.450000X-0.262500X0*%
%ADD20RoundRect,0.150000X-0.825000X-0.150000X0.825000X-0.150000X0.825000X0.150000X-0.825000X0.150000X0*%
%ADD21RoundRect,0.150000X-1.050000X-0.150000X1.050000X-0.150000X1.050000X0.150000X-1.050000X0.150000X0*%
G04 APERTURE END LIST*
D10*
%TO.C,R15*%
X133125000Y-103612500D03*
X133125000Y-105437500D03*
%TD*%
D11*
%TO.C,R7*%
X119062500Y-128675000D03*
X120887500Y-128675000D03*
%TD*%
D12*
%TO.C,R4*%
X134387500Y-128775000D03*
X132562500Y-128775000D03*
%TD*%
D10*
%TO.C,R16*%
X130975000Y-103612500D03*
X130975000Y-105437500D03*
%TD*%
%TO.C,R1*%
X132500000Y-130887500D03*
X132500000Y-132712500D03*
%TD*%
D13*
%TO.C,C3*%
X111200000Y-84575000D03*
X113100000Y-84575000D03*
%TD*%
D10*
%TO.C,R9*%
X120875000Y-131037500D03*
X120875000Y-132862500D03*
%TD*%
%TO.C,R5*%
X120475000Y-64887500D03*
X120475000Y-66712500D03*
%TD*%
D14*
%TO.C,F2*%
X130325000Y-62750000D03*
X130325000Y-65900000D03*
%TD*%
D15*
%TO.C,U4*%
X118300000Y-110095000D03*
X118300000Y-108825000D03*
X118300000Y-107555000D03*
X118300000Y-106285000D03*
X118300000Y-105015000D03*
X118300000Y-103745000D03*
X118300000Y-102475000D03*
X118300000Y-101205000D03*
X127600000Y-101205000D03*
X127600000Y-102475000D03*
X127600000Y-103745000D03*
X127600000Y-105015000D03*
X127600000Y-106285000D03*
X127600000Y-107555000D03*
X127600000Y-108825000D03*
X127600000Y-110095000D03*
%TD*%
D16*
%TO.C,D2*%
X133900000Y-132725000D03*
X134600000Y-132725000D03*
%TD*%
D17*
%TO.C,C1*%
X126525000Y-134375000D03*
X126525000Y-136275000D03*
%TD*%
D18*
%TO.C,C5*%
X118650000Y-132975000D03*
X118650000Y-131075000D03*
%TD*%
D17*
%TO.C,C4*%
X125075000Y-64850000D03*
X125075000Y-66750000D03*
%TD*%
D19*
%TO.C,R3*%
X130275000Y-132662500D03*
X130275000Y-130837500D03*
%TD*%
D11*
%TO.C,R2*%
X111312500Y-89450000D03*
X113137500Y-89450000D03*
%TD*%
D20*
%TO.C,U3*%
X117250000Y-89362500D03*
X117250000Y-88092500D03*
X117250000Y-86822500D03*
X117250000Y-85552500D03*
X122200000Y-85552500D03*
X122200000Y-86822500D03*
X122200000Y-88092500D03*
X122200000Y-89362500D03*
%TD*%
D16*
%TO.C,D5*%
X122700000Y-132975000D03*
X123400000Y-132975000D03*
%TD*%
D11*
%TO.C,R6*%
X111237500Y-86750000D03*
X113062500Y-86750000D03*
%TD*%
D19*
%TO.C,R8*%
X116575000Y-132962500D03*
X116575000Y-131137500D03*
%TD*%
D14*
%TO.C,F1*%
X126425000Y-128700000D03*
X126425000Y-131850000D03*
%TD*%
D21*
%TO.C,U1*%
X108500000Y-73487500D03*
X108500000Y-72217500D03*
X108500000Y-70947500D03*
X108500000Y-69677500D03*
X108500000Y-68407500D03*
X108500000Y-67137500D03*
X108500000Y-65867500D03*
X108500000Y-64597500D03*
X115000000Y-64597500D03*
X115000000Y-65867500D03*
X115000000Y-67137500D03*
X115000000Y-68407500D03*
X115000000Y-69677500D03*
X115000000Y-70947500D03*
X115000000Y-72217500D03*
X115000000Y-73487500D03*
%TD*%
D13*
%TO.C,C2*%
X111325000Y-91775000D03*
X113225000Y-91775000D03*
%TD*%
M02*
