M48
; DRILL file {KiCad 9.0.7} date 2026-08-21T19:55:50+0530
; FORMAT={-:-/ absolute / metric / decimal}
; #@! TF.CreationDate,2026-08-21T19:55:50+05:30
; #@! TF.GenerationSoftware,Kicad,Pcbnew,9.0.7
; #@! TF.FileFunction,Plated,1,2,PTH
FMAT,2
METRIC
; #@! TA.AperFunction,Plated,PTH,ViaDrill
T1C0.300
; #@! TA.AperFunction,Plated,PTH,ComponentDrill
T2C0.600
; #@! TA.AperFunction,Plated,PTH,ComponentDrill
T3C0.750
; #@! TA.AperFunction,Plated,PTH,ComponentDrill
T4C0.800
; #@! TA.AperFunction,Plated,PTH,ComponentDrill
T5C1.000
; #@! TA.AperFunction,Plated,PTH,ComponentDrill
T6C1.200
; #@! TA.AperFunction,Plated,PTH,ComponentDrill
T7C1.300
; #@! TA.AperFunction,Plated,PTH,ComponentDrill
T8C1.400
; #@! TA.AperFunction,Plated,PTH,ComponentDrill
T9C1.500
%
G90
G05
T1
X179.23Y-62.615
X180.4Y-74.775
X180.4Y-76.375
X180.4Y-77.875
X180.4Y-79.375
X180.4Y-80.975
X187.9Y-119.075
X187.9Y-120.675
X187.9Y-122.175
X187.9Y-123.675
X187.9Y-125.275
X191.9Y-81.775
X191.9Y-83.375
X191.9Y-84.875
X191.9Y-86.375
X191.9Y-87.975
X193.0Y-59.805
X193.0Y-61.405
X193.0Y-62.905
X195.4Y-59.805
X195.4Y-61.405
X195.4Y-62.905
X196.1Y-99.775
X196.1Y-101.375
X196.1Y-102.875
X196.1Y-104.375
X196.1Y-105.975
X198.0Y-91.975
X198.0Y-97.775
X198.3Y-109.605
X198.7Y-48.075
X198.7Y-49.675
X198.7Y-51.175
X198.7Y-52.675
X198.7Y-54.275
X199.8Y-69.305
X199.8Y-70.905
X199.8Y-72.405
X199.8Y-73.905
X199.8Y-75.505
X199.8Y-121.075
X199.8Y-122.675
X199.8Y-124.175
X199.8Y-125.675
X199.8Y-127.275
X200.2Y-91.175
X200.2Y-96.675
X200.6Y-83.275
X204.7Y-99.675
X204.7Y-101.275
X204.7Y-102.775
X204.7Y-104.275
X204.7Y-105.875
X205.6Y-126.275
X207.1Y-113.375
X207.4Y-74.468
X207.4Y-76.068
X207.4Y-77.568
X208.5Y-93.775
X209.8Y-74.468
X209.8Y-76.068
X209.8Y-77.568
X210.2Y-47.975
X210.2Y-49.575
X210.2Y-51.075
X210.2Y-52.575
X210.2Y-54.175
X211.5Y-99.675
X211.5Y-101.275
X211.5Y-102.775
X211.5Y-104.275
X211.5Y-105.875
X216.2Y-64.805
X216.2Y-66.405
X216.2Y-67.905
X216.8Y-85.905
X216.8Y-87.505
X216.8Y-89.005
X218.1Y-83.575
X218.6Y-64.805
X218.6Y-66.405
X218.6Y-67.905
X221.6Y-58.375
X221.6Y-75.675
X222.5Y-83.505
X222.5Y-85.905
X223.93Y-62.545
X224.1Y-83.505
X224.1Y-85.905
X224.2Y-76.305
X224.2Y-77.905
X224.2Y-79.405
X225.6Y-83.505
X225.6Y-85.905
X226.6Y-76.305
X226.6Y-77.905
X226.6Y-79.405
T2
X229.7Y-87.775
X229.7Y-89.775
T3
X182.5Y-117.175
X182.5Y-119.175
T4
X195.63Y-117.875
X198.17Y-117.875
T5
X218.14Y-95.875
X230.14Y-95.875
T6
X188.352Y-69.61
X188.352Y-72.17
X188.377Y-92.445
X188.377Y-95.005
X213.327Y-61.995
X213.352Y-69.61
X213.352Y-72.17
X213.377Y-92.445
X213.377Y-95.005
T7
X218.14Y-108.075
X224.19Y-93.925
X230.19Y-108.125
T8
X181.19Y-94.995
X181.19Y-100.075
X181.19Y-105.155
X223.34Y-119.005
X223.34Y-124.085
T9
X203.15Y-111.242
X203.15Y-132.042
M30
