%TF.GenerationSoftware,KiCad,Pcbnew,9.0.7*%
%TF.CreationDate,2026-07-18T06:45:16+05:30*%
%TF.ProjectId,Nursary_OneCH,4e757273-6172-4795-9f4f-6e6543482e6b,rev?*%
%TF.SameCoordinates,Original*%
%TF.FileFunction,Legend,Top*%
%TF.FilePolarity,Positive*%
%FSLAX46Y46*%
G04 Gerber Fmt 4.6, Leading zero omitted, Abs format (unit mm)*
G04 Created by KiCad (PCBNEW 9.0.7) date 2026-07-18 06:45:16*
%MOMM*%
%LPD*%
G01*
G04 APERTURE LIST*
%ADD10C,0.240000*%
%ADD11C,0.200000*%
%ADD12C,0.300000*%
%ADD13C,0.375000*%
%ADD14C,0.150000*%
%ADD15C,1.000000*%
%ADD16C,0.875000*%
%ADD17C,0.120000*%
%ADD18C,0.100000*%
G04 APERTURE END LIST*
D10*
X124258520Y-116985713D02*
X124258520Y-116071428D01*
X124715662Y-116528570D02*
X123801377Y-116528570D01*
X124087091Y-115099999D02*
X124144234Y-114928571D01*
X124144234Y-114928571D02*
X124201377Y-114871428D01*
X124201377Y-114871428D02*
X124315662Y-114814285D01*
X124315662Y-114814285D02*
X124487091Y-114814285D01*
X124487091Y-114814285D02*
X124601377Y-114871428D01*
X124601377Y-114871428D02*
X124658520Y-114928571D01*
X124658520Y-114928571D02*
X124715662Y-115042856D01*
X124715662Y-115042856D02*
X124715662Y-115499999D01*
X124715662Y-115499999D02*
X123515662Y-115499999D01*
X123515662Y-115499999D02*
X123515662Y-115099999D01*
X123515662Y-115099999D02*
X123572805Y-114985714D01*
X123572805Y-114985714D02*
X123629948Y-114928571D01*
X123629948Y-114928571D02*
X123744234Y-114871428D01*
X123744234Y-114871428D02*
X123858520Y-114871428D01*
X123858520Y-114871428D02*
X123972805Y-114928571D01*
X123972805Y-114928571D02*
X124029948Y-114985714D01*
X124029948Y-114985714D02*
X124087091Y-115099999D01*
X124087091Y-115099999D02*
X124087091Y-115499999D01*
X124372805Y-114357142D02*
X124372805Y-113785714D01*
X124715662Y-114471428D02*
X123515662Y-114071428D01*
X123515662Y-114071428D02*
X124715662Y-113671428D01*
X123515662Y-113442857D02*
X123515662Y-112757143D01*
X124715662Y-113100000D02*
X123515662Y-113100000D01*
X123515662Y-112528571D02*
X123515662Y-111842857D01*
X124715662Y-112185714D02*
X123515662Y-112185714D01*
D11*
X108636266Y-118855326D02*
X108636266Y-118093422D01*
X109017219Y-118474374D02*
X108255314Y-118474374D01*
X108017219Y-117141041D02*
X108017219Y-117617231D01*
X108017219Y-117617231D02*
X108493409Y-117664850D01*
X108493409Y-117664850D02*
X108445790Y-117617231D01*
X108445790Y-117617231D02*
X108398171Y-117521993D01*
X108398171Y-117521993D02*
X108398171Y-117283898D01*
X108398171Y-117283898D02*
X108445790Y-117188660D01*
X108445790Y-117188660D02*
X108493409Y-117141041D01*
X108493409Y-117141041D02*
X108588647Y-117093422D01*
X108588647Y-117093422D02*
X108826742Y-117093422D01*
X108826742Y-117093422D02*
X108921980Y-117141041D01*
X108921980Y-117141041D02*
X108969600Y-117188660D01*
X108969600Y-117188660D02*
X109017219Y-117283898D01*
X109017219Y-117283898D02*
X109017219Y-117521993D01*
X109017219Y-117521993D02*
X108969600Y-117617231D01*
X108969600Y-117617231D02*
X108921980Y-117664850D01*
X108017219Y-116807707D02*
X109017219Y-116474374D01*
X109017219Y-116474374D02*
X108017219Y-116141041D01*
X108067219Y-60680326D02*
X107067219Y-60680326D01*
X107067219Y-60680326D02*
X107067219Y-60299374D01*
X107067219Y-60299374D02*
X107114838Y-60204136D01*
X107114838Y-60204136D02*
X107162457Y-60156517D01*
X107162457Y-60156517D02*
X107257695Y-60108898D01*
X107257695Y-60108898D02*
X107400552Y-60108898D01*
X107400552Y-60108898D02*
X107495790Y-60156517D01*
X107495790Y-60156517D02*
X107543409Y-60204136D01*
X107543409Y-60204136D02*
X107591028Y-60299374D01*
X107591028Y-60299374D02*
X107591028Y-60680326D01*
X107400552Y-59251755D02*
X108067219Y-59251755D01*
X107400552Y-59680326D02*
X107924361Y-59680326D01*
X107924361Y-59680326D02*
X108019600Y-59632707D01*
X108019600Y-59632707D02*
X108067219Y-59537469D01*
X108067219Y-59537469D02*
X108067219Y-59394612D01*
X108067219Y-59394612D02*
X108019600Y-59299374D01*
X108019600Y-59299374D02*
X107971980Y-59251755D01*
X108067219Y-58775564D02*
X107400552Y-58775564D01*
X107495790Y-58775564D02*
X107448171Y-58727945D01*
X107448171Y-58727945D02*
X107400552Y-58632707D01*
X107400552Y-58632707D02*
X107400552Y-58489850D01*
X107400552Y-58489850D02*
X107448171Y-58394612D01*
X107448171Y-58394612D02*
X107543409Y-58346993D01*
X107543409Y-58346993D02*
X108067219Y-58346993D01*
X107543409Y-58346993D02*
X107448171Y-58299374D01*
X107448171Y-58299374D02*
X107400552Y-58204136D01*
X107400552Y-58204136D02*
X107400552Y-58061279D01*
X107400552Y-58061279D02*
X107448171Y-57966040D01*
X107448171Y-57966040D02*
X107543409Y-57918421D01*
X107543409Y-57918421D02*
X108067219Y-57918421D01*
X107400552Y-57442231D02*
X108400552Y-57442231D01*
X107448171Y-57442231D02*
X107400552Y-57346993D01*
X107400552Y-57346993D02*
X107400552Y-57156517D01*
X107400552Y-57156517D02*
X107448171Y-57061279D01*
X107448171Y-57061279D02*
X107495790Y-57013660D01*
X107495790Y-57013660D02*
X107591028Y-56966041D01*
X107591028Y-56966041D02*
X107876742Y-56966041D01*
X107876742Y-56966041D02*
X107971980Y-57013660D01*
X107971980Y-57013660D02*
X108019600Y-57061279D01*
X108019600Y-57061279D02*
X108067219Y-57156517D01*
X108067219Y-57156517D02*
X108067219Y-57346993D01*
X108067219Y-57346993D02*
X108019600Y-57442231D01*
X107067219Y-55585088D02*
X107067219Y-55394612D01*
X107067219Y-55394612D02*
X107114838Y-55299374D01*
X107114838Y-55299374D02*
X107210076Y-55204136D01*
X107210076Y-55204136D02*
X107400552Y-55156517D01*
X107400552Y-55156517D02*
X107733885Y-55156517D01*
X107733885Y-55156517D02*
X107924361Y-55204136D01*
X107924361Y-55204136D02*
X108019600Y-55299374D01*
X108019600Y-55299374D02*
X108067219Y-55394612D01*
X108067219Y-55394612D02*
X108067219Y-55585088D01*
X108067219Y-55585088D02*
X108019600Y-55680326D01*
X108019600Y-55680326D02*
X107924361Y-55775564D01*
X107924361Y-55775564D02*
X107733885Y-55823183D01*
X107733885Y-55823183D02*
X107400552Y-55823183D01*
X107400552Y-55823183D02*
X107210076Y-55775564D01*
X107210076Y-55775564D02*
X107114838Y-55680326D01*
X107114838Y-55680326D02*
X107067219Y-55585088D01*
X107067219Y-54727945D02*
X107876742Y-54727945D01*
X107876742Y-54727945D02*
X107971980Y-54680326D01*
X107971980Y-54680326D02*
X108019600Y-54632707D01*
X108019600Y-54632707D02*
X108067219Y-54537469D01*
X108067219Y-54537469D02*
X108067219Y-54346993D01*
X108067219Y-54346993D02*
X108019600Y-54251755D01*
X108019600Y-54251755D02*
X107971980Y-54204136D01*
X107971980Y-54204136D02*
X107876742Y-54156517D01*
X107876742Y-54156517D02*
X107067219Y-54156517D01*
X107067219Y-53823183D02*
X107067219Y-53251755D01*
X108067219Y-53537469D02*
X107067219Y-53537469D01*
D10*
X133508520Y-131107142D02*
X133508520Y-130192857D01*
X133965662Y-130649999D02*
X133051377Y-130649999D01*
X130233520Y-134182142D02*
X130233520Y-133267857D01*
X130690662Y-133724999D02*
X129776377Y-133724999D01*
X133633520Y-119839284D02*
X133633520Y-118924999D01*
X134090662Y-119382141D02*
X133176377Y-119382141D01*
X132890662Y-118467856D02*
X132890662Y-117724999D01*
X132890662Y-117724999D02*
X133347805Y-118124999D01*
X133347805Y-118124999D02*
X133347805Y-117953570D01*
X133347805Y-117953570D02*
X133404948Y-117839285D01*
X133404948Y-117839285D02*
X133462091Y-117782142D01*
X133462091Y-117782142D02*
X133576377Y-117724999D01*
X133576377Y-117724999D02*
X133862091Y-117724999D01*
X133862091Y-117724999D02*
X133976377Y-117782142D01*
X133976377Y-117782142D02*
X134033520Y-117839285D01*
X134033520Y-117839285D02*
X134090662Y-117953570D01*
X134090662Y-117953570D02*
X134090662Y-118296427D01*
X134090662Y-118296427D02*
X134033520Y-118410713D01*
X134033520Y-118410713D02*
X133976377Y-118467856D01*
X132890662Y-117382142D02*
X134090662Y-116982142D01*
X134090662Y-116982142D02*
X132890662Y-116582142D01*
X132890662Y-116296428D02*
X132890662Y-115553571D01*
X132890662Y-115553571D02*
X133347805Y-115953571D01*
X133347805Y-115953571D02*
X133347805Y-115782142D01*
X133347805Y-115782142D02*
X133404948Y-115667857D01*
X133404948Y-115667857D02*
X133462091Y-115610714D01*
X133462091Y-115610714D02*
X133576377Y-115553571D01*
X133576377Y-115553571D02*
X133862091Y-115553571D01*
X133862091Y-115553571D02*
X133976377Y-115610714D01*
X133976377Y-115610714D02*
X134033520Y-115667857D01*
X134033520Y-115667857D02*
X134090662Y-115782142D01*
X134090662Y-115782142D02*
X134090662Y-116124999D01*
X134090662Y-116124999D02*
X134033520Y-116239285D01*
X134033520Y-116239285D02*
X133976377Y-116296428D01*
X69221428Y-61217480D02*
X68078571Y-61217480D01*
X68649999Y-60646051D02*
X68649999Y-61788908D01*
X133072805Y-110185714D02*
X133015662Y-110300000D01*
X133015662Y-110300000D02*
X133015662Y-110471428D01*
X133015662Y-110471428D02*
X133072805Y-110642857D01*
X133072805Y-110642857D02*
X133187091Y-110757142D01*
X133187091Y-110757142D02*
X133301377Y-110814285D01*
X133301377Y-110814285D02*
X133529948Y-110871428D01*
X133529948Y-110871428D02*
X133701377Y-110871428D01*
X133701377Y-110871428D02*
X133929948Y-110814285D01*
X133929948Y-110814285D02*
X134044234Y-110757142D01*
X134044234Y-110757142D02*
X134158520Y-110642857D01*
X134158520Y-110642857D02*
X134215662Y-110471428D01*
X134215662Y-110471428D02*
X134215662Y-110357142D01*
X134215662Y-110357142D02*
X134158520Y-110185714D01*
X134158520Y-110185714D02*
X134101377Y-110128571D01*
X134101377Y-110128571D02*
X133701377Y-110128571D01*
X133701377Y-110128571D02*
X133701377Y-110357142D01*
D12*
X110927038Y-130916917D02*
X110927038Y-131316917D01*
X111555609Y-131316917D02*
X110355609Y-131316917D01*
X110355609Y-131316917D02*
X110355609Y-130745489D01*
X111555609Y-129716918D02*
X111555609Y-130288346D01*
X111555609Y-130288346D02*
X110355609Y-130288346D01*
X110355609Y-129088346D02*
X110355609Y-128859774D01*
X110355609Y-128859774D02*
X110412752Y-128745489D01*
X110412752Y-128745489D02*
X110527038Y-128631203D01*
X110527038Y-128631203D02*
X110755609Y-128574060D01*
X110755609Y-128574060D02*
X111155609Y-128574060D01*
X111155609Y-128574060D02*
X111384181Y-128631203D01*
X111384181Y-128631203D02*
X111498467Y-128745489D01*
X111498467Y-128745489D02*
X111555609Y-128859774D01*
X111555609Y-128859774D02*
X111555609Y-129088346D01*
X111555609Y-129088346D02*
X111498467Y-129202632D01*
X111498467Y-129202632D02*
X111384181Y-129316917D01*
X111384181Y-129316917D02*
X111155609Y-129374060D01*
X111155609Y-129374060D02*
X110755609Y-129374060D01*
X110755609Y-129374060D02*
X110527038Y-129316917D01*
X110527038Y-129316917D02*
X110412752Y-129202632D01*
X110412752Y-129202632D02*
X110355609Y-129088346D01*
X110355609Y-128174060D02*
X111555609Y-127888346D01*
X111555609Y-127888346D02*
X110698467Y-127659774D01*
X110698467Y-127659774D02*
X111555609Y-127431203D01*
X111555609Y-127431203D02*
X110355609Y-127145489D01*
X110412752Y-125145488D02*
X110355609Y-125259774D01*
X110355609Y-125259774D02*
X110355609Y-125431202D01*
X110355609Y-125431202D02*
X110412752Y-125602631D01*
X110412752Y-125602631D02*
X110527038Y-125716916D01*
X110527038Y-125716916D02*
X110641324Y-125774059D01*
X110641324Y-125774059D02*
X110869895Y-125831202D01*
X110869895Y-125831202D02*
X111041324Y-125831202D01*
X111041324Y-125831202D02*
X111269895Y-125774059D01*
X111269895Y-125774059D02*
X111384181Y-125716916D01*
X111384181Y-125716916D02*
X111498467Y-125602631D01*
X111498467Y-125602631D02*
X111555609Y-125431202D01*
X111555609Y-125431202D02*
X111555609Y-125316916D01*
X111555609Y-125316916D02*
X111498467Y-125145488D01*
X111498467Y-125145488D02*
X111441324Y-125088345D01*
X111441324Y-125088345D02*
X111041324Y-125088345D01*
X111041324Y-125088345D02*
X111041324Y-125316916D01*
X110355609Y-124574059D02*
X111327038Y-124574059D01*
X111327038Y-124574059D02*
X111441324Y-124516916D01*
X111441324Y-124516916D02*
X111498467Y-124459774D01*
X111498467Y-124459774D02*
X111555609Y-124345488D01*
X111555609Y-124345488D02*
X111555609Y-124116916D01*
X111555609Y-124116916D02*
X111498467Y-124002631D01*
X111498467Y-124002631D02*
X111441324Y-123945488D01*
X111441324Y-123945488D02*
X111327038Y-123888345D01*
X111327038Y-123888345D02*
X110355609Y-123888345D01*
X111212752Y-123374059D02*
X111212752Y-122802631D01*
X111555609Y-123488345D02*
X110355609Y-123088345D01*
X110355609Y-123088345D02*
X111555609Y-122688345D01*
X111555609Y-121602631D02*
X110984181Y-122002631D01*
X111555609Y-122288345D02*
X110355609Y-122288345D01*
X110355609Y-122288345D02*
X110355609Y-121831202D01*
X110355609Y-121831202D02*
X110412752Y-121716917D01*
X110412752Y-121716917D02*
X110469895Y-121659774D01*
X110469895Y-121659774D02*
X110584181Y-121602631D01*
X110584181Y-121602631D02*
X110755609Y-121602631D01*
X110755609Y-121602631D02*
X110869895Y-121659774D01*
X110869895Y-121659774D02*
X110927038Y-121716917D01*
X110927038Y-121716917D02*
X110984181Y-121831202D01*
X110984181Y-121831202D02*
X110984181Y-122288345D01*
X111555609Y-121088345D02*
X110355609Y-121088345D01*
X110355609Y-121088345D02*
X110355609Y-120802631D01*
X110355609Y-120802631D02*
X110412752Y-120631202D01*
X110412752Y-120631202D02*
X110527038Y-120516917D01*
X110527038Y-120516917D02*
X110641324Y-120459774D01*
X110641324Y-120459774D02*
X110869895Y-120402631D01*
X110869895Y-120402631D02*
X111041324Y-120402631D01*
X111041324Y-120402631D02*
X111269895Y-120459774D01*
X111269895Y-120459774D02*
X111384181Y-120516917D01*
X111384181Y-120516917D02*
X111498467Y-120631202D01*
X111498467Y-120631202D02*
X111555609Y-120802631D01*
X111555609Y-120802631D02*
X111555609Y-121088345D01*
X112858971Y-130002631D02*
X112858971Y-130402631D01*
X113487542Y-130402631D02*
X112287542Y-130402631D01*
X112287542Y-130402631D02*
X112287542Y-129831203D01*
X112344685Y-128745489D02*
X112287542Y-128859775D01*
X112287542Y-128859775D02*
X112287542Y-129031203D01*
X112287542Y-129031203D02*
X112344685Y-129202632D01*
X112344685Y-129202632D02*
X112458971Y-129316917D01*
X112458971Y-129316917D02*
X112573257Y-129374060D01*
X112573257Y-129374060D02*
X112801828Y-129431203D01*
X112801828Y-129431203D02*
X112973257Y-129431203D01*
X112973257Y-129431203D02*
X113201828Y-129374060D01*
X113201828Y-129374060D02*
X113316114Y-129316917D01*
X113316114Y-129316917D02*
X113430400Y-129202632D01*
X113430400Y-129202632D02*
X113487542Y-129031203D01*
X113487542Y-129031203D02*
X113487542Y-128916917D01*
X113487542Y-128916917D02*
X113430400Y-128745489D01*
X113430400Y-128745489D02*
X113373257Y-128688346D01*
X113373257Y-128688346D02*
X112973257Y-128688346D01*
X112973257Y-128688346D02*
X112973257Y-128916917D01*
X113487542Y-127545489D02*
X113487542Y-128231203D01*
X113487542Y-127888346D02*
X112287542Y-127888346D01*
X112287542Y-127888346D02*
X112458971Y-128002632D01*
X112458971Y-128002632D02*
X112573257Y-128116917D01*
X112573257Y-128116917D02*
X112630400Y-128231203D01*
D13*
X130093357Y-65085432D02*
X130021928Y-65228290D01*
X130021928Y-65228290D02*
X130021928Y-65442575D01*
X130021928Y-65442575D02*
X130093357Y-65656861D01*
X130093357Y-65656861D02*
X130236214Y-65799718D01*
X130236214Y-65799718D02*
X130379071Y-65871147D01*
X130379071Y-65871147D02*
X130664785Y-65942575D01*
X130664785Y-65942575D02*
X130879071Y-65942575D01*
X130879071Y-65942575D02*
X131164785Y-65871147D01*
X131164785Y-65871147D02*
X131307642Y-65799718D01*
X131307642Y-65799718D02*
X131450500Y-65656861D01*
X131450500Y-65656861D02*
X131521928Y-65442575D01*
X131521928Y-65442575D02*
X131521928Y-65299718D01*
X131521928Y-65299718D02*
X131450500Y-65085432D01*
X131450500Y-65085432D02*
X131379071Y-65014004D01*
X131379071Y-65014004D02*
X130879071Y-65014004D01*
X130879071Y-65014004D02*
X130879071Y-65299718D01*
X134986214Y-132996147D02*
X134986214Y-133496147D01*
X135771928Y-133496147D02*
X134271928Y-133496147D01*
X134271928Y-133496147D02*
X134271928Y-132781861D01*
X135771928Y-131496147D02*
X135771928Y-132210433D01*
X135771928Y-132210433D02*
X134271928Y-132210433D01*
X135771928Y-130210432D02*
X135771928Y-131067575D01*
X135771928Y-130639004D02*
X134271928Y-130639004D01*
X134271928Y-130639004D02*
X134486214Y-130781861D01*
X134486214Y-130781861D02*
X134629071Y-130924718D01*
X134629071Y-130924718D02*
X134700500Y-131067575D01*
D10*
X118733520Y-68507142D02*
X118733520Y-67592857D01*
X119190662Y-68049999D02*
X118276377Y-68049999D01*
D13*
X121086214Y-133346147D02*
X121086214Y-133846147D01*
X121871928Y-133846147D02*
X120371928Y-133846147D01*
X120371928Y-133846147D02*
X120371928Y-133131861D01*
X121871928Y-131846147D02*
X121871928Y-132560433D01*
X121871928Y-132560433D02*
X120371928Y-132560433D01*
X120514785Y-131417575D02*
X120443357Y-131346147D01*
X120443357Y-131346147D02*
X120371928Y-131203290D01*
X120371928Y-131203290D02*
X120371928Y-130846147D01*
X120371928Y-130846147D02*
X120443357Y-130703290D01*
X120443357Y-130703290D02*
X120514785Y-130631861D01*
X120514785Y-130631861D02*
X120657642Y-130560432D01*
X120657642Y-130560432D02*
X120800500Y-130560432D01*
X120800500Y-130560432D02*
X121014785Y-130631861D01*
X121014785Y-130631861D02*
X121871928Y-131489004D01*
X121871928Y-131489004D02*
X121871928Y-130560432D01*
D10*
X107972805Y-110010714D02*
X107915662Y-110125000D01*
X107915662Y-110125000D02*
X107915662Y-110296428D01*
X107915662Y-110296428D02*
X107972805Y-110467857D01*
X107972805Y-110467857D02*
X108087091Y-110582142D01*
X108087091Y-110582142D02*
X108201377Y-110639285D01*
X108201377Y-110639285D02*
X108429948Y-110696428D01*
X108429948Y-110696428D02*
X108601377Y-110696428D01*
X108601377Y-110696428D02*
X108829948Y-110639285D01*
X108829948Y-110639285D02*
X108944234Y-110582142D01*
X108944234Y-110582142D02*
X109058520Y-110467857D01*
X109058520Y-110467857D02*
X109115662Y-110296428D01*
X109115662Y-110296428D02*
X109115662Y-110182142D01*
X109115662Y-110182142D02*
X109058520Y-110010714D01*
X109058520Y-110010714D02*
X109001377Y-109953571D01*
X109001377Y-109953571D02*
X108601377Y-109953571D01*
X108601377Y-109953571D02*
X108601377Y-110182142D01*
X119308520Y-131232142D02*
X119308520Y-130317857D01*
X119765662Y-130774999D02*
X118851377Y-130774999D01*
X118933520Y-134407142D02*
X118933520Y-133492857D01*
X119390662Y-133949999D02*
X118476377Y-133949999D01*
D13*
X130625500Y-63896147D02*
X130625500Y-62753290D01*
X131196928Y-63324718D02*
X130054071Y-63324718D01*
X129696928Y-61324718D02*
X129696928Y-62039004D01*
X129696928Y-62039004D02*
X130411214Y-62110432D01*
X130411214Y-62110432D02*
X130339785Y-62039004D01*
X130339785Y-62039004D02*
X130268357Y-61896147D01*
X130268357Y-61896147D02*
X130268357Y-61539004D01*
X130268357Y-61539004D02*
X130339785Y-61396147D01*
X130339785Y-61396147D02*
X130411214Y-61324718D01*
X130411214Y-61324718D02*
X130554071Y-61253289D01*
X130554071Y-61253289D02*
X130911214Y-61253289D01*
X130911214Y-61253289D02*
X131054071Y-61324718D01*
X131054071Y-61324718D02*
X131125500Y-61396147D01*
X131125500Y-61396147D02*
X131196928Y-61539004D01*
X131196928Y-61539004D02*
X131196928Y-61896147D01*
X131196928Y-61896147D02*
X131125500Y-62039004D01*
X131125500Y-62039004D02*
X131054071Y-62110432D01*
X129696928Y-60824718D02*
X131196928Y-60324718D01*
X131196928Y-60324718D02*
X129696928Y-59824718D01*
D10*
X109808939Y-71378571D02*
X109808939Y-70902381D01*
X110151796Y-71473809D02*
X108951796Y-71140476D01*
X108951796Y-71140476D02*
X110151796Y-70807143D01*
X109351796Y-70045238D02*
X110323225Y-70045238D01*
X110323225Y-70045238D02*
X110437511Y-70092857D01*
X110437511Y-70092857D02*
X110494654Y-70140476D01*
X110494654Y-70140476D02*
X110551796Y-70235714D01*
X110551796Y-70235714D02*
X110551796Y-70378571D01*
X110551796Y-70378571D02*
X110494654Y-70473809D01*
X110094654Y-70045238D02*
X110151796Y-70140476D01*
X110151796Y-70140476D02*
X110151796Y-70330952D01*
X110151796Y-70330952D02*
X110094654Y-70426190D01*
X110094654Y-70426190D02*
X110037511Y-70473809D01*
X110037511Y-70473809D02*
X109923225Y-70521428D01*
X109923225Y-70521428D02*
X109580368Y-70521428D01*
X109580368Y-70521428D02*
X109466082Y-70473809D01*
X109466082Y-70473809D02*
X109408939Y-70426190D01*
X109408939Y-70426190D02*
X109351796Y-70330952D01*
X109351796Y-70330952D02*
X109351796Y-70140476D01*
X109351796Y-70140476D02*
X109408939Y-70045238D01*
X110151796Y-69569047D02*
X109351796Y-69569047D01*
X109580368Y-69569047D02*
X109466082Y-69521428D01*
X109466082Y-69521428D02*
X109408939Y-69473809D01*
X109408939Y-69473809D02*
X109351796Y-69378571D01*
X109351796Y-69378571D02*
X109351796Y-69283333D01*
X110151796Y-68949999D02*
X109351796Y-68949999D01*
X108951796Y-68949999D02*
X109008939Y-68997618D01*
X109008939Y-68997618D02*
X109066082Y-68949999D01*
X109066082Y-68949999D02*
X109008939Y-68902380D01*
X109008939Y-68902380D02*
X108951796Y-68949999D01*
X108951796Y-68949999D02*
X109066082Y-68949999D01*
X110094654Y-67759523D02*
X110151796Y-67616666D01*
X110151796Y-67616666D02*
X110151796Y-67378571D01*
X110151796Y-67378571D02*
X110094654Y-67283333D01*
X110094654Y-67283333D02*
X110037511Y-67235714D01*
X110037511Y-67235714D02*
X109923225Y-67188095D01*
X109923225Y-67188095D02*
X109808939Y-67188095D01*
X109808939Y-67188095D02*
X109694654Y-67235714D01*
X109694654Y-67235714D02*
X109637511Y-67283333D01*
X109637511Y-67283333D02*
X109580368Y-67378571D01*
X109580368Y-67378571D02*
X109523225Y-67569047D01*
X109523225Y-67569047D02*
X109466082Y-67664285D01*
X109466082Y-67664285D02*
X109408939Y-67711904D01*
X109408939Y-67711904D02*
X109294654Y-67759523D01*
X109294654Y-67759523D02*
X109180368Y-67759523D01*
X109180368Y-67759523D02*
X109066082Y-67711904D01*
X109066082Y-67711904D02*
X109008939Y-67664285D01*
X109008939Y-67664285D02*
X108951796Y-67569047D01*
X108951796Y-67569047D02*
X108951796Y-67330952D01*
X108951796Y-67330952D02*
X109008939Y-67188095D01*
X110094654Y-66378571D02*
X110151796Y-66473809D01*
X110151796Y-66473809D02*
X110151796Y-66664285D01*
X110151796Y-66664285D02*
X110094654Y-66759523D01*
X110094654Y-66759523D02*
X109980368Y-66807142D01*
X109980368Y-66807142D02*
X109523225Y-66807142D01*
X109523225Y-66807142D02*
X109408939Y-66759523D01*
X109408939Y-66759523D02*
X109351796Y-66664285D01*
X109351796Y-66664285D02*
X109351796Y-66473809D01*
X109351796Y-66473809D02*
X109408939Y-66378571D01*
X109408939Y-66378571D02*
X109523225Y-66330952D01*
X109523225Y-66330952D02*
X109637511Y-66330952D01*
X109637511Y-66330952D02*
X109751796Y-66807142D01*
X109351796Y-65902380D02*
X110151796Y-65902380D01*
X109466082Y-65902380D02*
X109408939Y-65854761D01*
X109408939Y-65854761D02*
X109351796Y-65759523D01*
X109351796Y-65759523D02*
X109351796Y-65616666D01*
X109351796Y-65616666D02*
X109408939Y-65521428D01*
X109408939Y-65521428D02*
X109523225Y-65473809D01*
X109523225Y-65473809D02*
X110151796Y-65473809D01*
X110094654Y-65045237D02*
X110151796Y-64949999D01*
X110151796Y-64949999D02*
X110151796Y-64759523D01*
X110151796Y-64759523D02*
X110094654Y-64664285D01*
X110094654Y-64664285D02*
X109980368Y-64616666D01*
X109980368Y-64616666D02*
X109923225Y-64616666D01*
X109923225Y-64616666D02*
X109808939Y-64664285D01*
X109808939Y-64664285D02*
X109751796Y-64759523D01*
X109751796Y-64759523D02*
X109751796Y-64902380D01*
X109751796Y-64902380D02*
X109694654Y-64997618D01*
X109694654Y-64997618D02*
X109580368Y-65045237D01*
X109580368Y-65045237D02*
X109523225Y-65045237D01*
X109523225Y-65045237D02*
X109408939Y-64997618D01*
X109408939Y-64997618D02*
X109351796Y-64902380D01*
X109351796Y-64902380D02*
X109351796Y-64759523D01*
X109351796Y-64759523D02*
X109408939Y-64664285D01*
X110151796Y-64045237D02*
X110094654Y-64140475D01*
X110094654Y-64140475D02*
X110037511Y-64188094D01*
X110037511Y-64188094D02*
X109923225Y-64235713D01*
X109923225Y-64235713D02*
X109580368Y-64235713D01*
X109580368Y-64235713D02*
X109466082Y-64188094D01*
X109466082Y-64188094D02*
X109408939Y-64140475D01*
X109408939Y-64140475D02*
X109351796Y-64045237D01*
X109351796Y-64045237D02*
X109351796Y-63902380D01*
X109351796Y-63902380D02*
X109408939Y-63807142D01*
X109408939Y-63807142D02*
X109466082Y-63759523D01*
X109466082Y-63759523D02*
X109580368Y-63711904D01*
X109580368Y-63711904D02*
X109923225Y-63711904D01*
X109923225Y-63711904D02*
X110037511Y-63759523D01*
X110037511Y-63759523D02*
X110094654Y-63807142D01*
X110094654Y-63807142D02*
X110151796Y-63902380D01*
X110151796Y-63902380D02*
X110151796Y-64045237D01*
X110151796Y-63283332D02*
X109351796Y-63283332D01*
X109580368Y-63283332D02*
X109466082Y-63235713D01*
X109466082Y-63235713D02*
X109408939Y-63188094D01*
X109408939Y-63188094D02*
X109351796Y-63092856D01*
X109351796Y-63092856D02*
X109351796Y-62997618D01*
X110094654Y-62711903D02*
X110151796Y-62616665D01*
X110151796Y-62616665D02*
X110151796Y-62426189D01*
X110151796Y-62426189D02*
X110094654Y-62330951D01*
X110094654Y-62330951D02*
X109980368Y-62283332D01*
X109980368Y-62283332D02*
X109923225Y-62283332D01*
X109923225Y-62283332D02*
X109808939Y-62330951D01*
X109808939Y-62330951D02*
X109751796Y-62426189D01*
X109751796Y-62426189D02*
X109751796Y-62569046D01*
X109751796Y-62569046D02*
X109694654Y-62664284D01*
X109694654Y-62664284D02*
X109580368Y-62711903D01*
X109580368Y-62711903D02*
X109523225Y-62711903D01*
X109523225Y-62711903D02*
X109408939Y-62664284D01*
X109408939Y-62664284D02*
X109351796Y-62569046D01*
X109351796Y-62569046D02*
X109351796Y-62426189D01*
X109351796Y-62426189D02*
X109408939Y-62330951D01*
X112083729Y-70640477D02*
X111455158Y-70640477D01*
X111455158Y-70640477D02*
X111340872Y-70688096D01*
X111340872Y-70688096D02*
X111283729Y-70783334D01*
X111283729Y-70783334D02*
X111283729Y-70973810D01*
X111283729Y-70973810D02*
X111340872Y-71069048D01*
X112026587Y-70640477D02*
X112083729Y-70735715D01*
X112083729Y-70735715D02*
X112083729Y-70973810D01*
X112083729Y-70973810D02*
X112026587Y-71069048D01*
X112026587Y-71069048D02*
X111912301Y-71116667D01*
X111912301Y-71116667D02*
X111798015Y-71116667D01*
X111798015Y-71116667D02*
X111683729Y-71069048D01*
X111683729Y-71069048D02*
X111626587Y-70973810D01*
X111626587Y-70973810D02*
X111626587Y-70735715D01*
X111626587Y-70735715D02*
X111569444Y-70640477D01*
X111283729Y-70164286D02*
X112083729Y-70164286D01*
X111398015Y-70164286D02*
X111340872Y-70116667D01*
X111340872Y-70116667D02*
X111283729Y-70021429D01*
X111283729Y-70021429D02*
X111283729Y-69878572D01*
X111283729Y-69878572D02*
X111340872Y-69783334D01*
X111340872Y-69783334D02*
X111455158Y-69735715D01*
X111455158Y-69735715D02*
X112083729Y-69735715D01*
X112083729Y-68830953D02*
X110883729Y-68830953D01*
X112026587Y-68830953D02*
X112083729Y-68926191D01*
X112083729Y-68926191D02*
X112083729Y-69116667D01*
X112083729Y-69116667D02*
X112026587Y-69211905D01*
X112026587Y-69211905D02*
X111969444Y-69259524D01*
X111969444Y-69259524D02*
X111855158Y-69307143D01*
X111855158Y-69307143D02*
X111512301Y-69307143D01*
X111512301Y-69307143D02*
X111398015Y-69259524D01*
X111398015Y-69259524D02*
X111340872Y-69211905D01*
X111340872Y-69211905D02*
X111283729Y-69116667D01*
X111283729Y-69116667D02*
X111283729Y-68926191D01*
X111283729Y-68926191D02*
X111340872Y-68830953D01*
X111969444Y-67021429D02*
X112026587Y-67069048D01*
X112026587Y-67069048D02*
X112083729Y-67211905D01*
X112083729Y-67211905D02*
X112083729Y-67307143D01*
X112083729Y-67307143D02*
X112026587Y-67450000D01*
X112026587Y-67450000D02*
X111912301Y-67545238D01*
X111912301Y-67545238D02*
X111798015Y-67592857D01*
X111798015Y-67592857D02*
X111569444Y-67640476D01*
X111569444Y-67640476D02*
X111398015Y-67640476D01*
X111398015Y-67640476D02*
X111169444Y-67592857D01*
X111169444Y-67592857D02*
X111055158Y-67545238D01*
X111055158Y-67545238D02*
X110940872Y-67450000D01*
X110940872Y-67450000D02*
X110883729Y-67307143D01*
X110883729Y-67307143D02*
X110883729Y-67211905D01*
X110883729Y-67211905D02*
X110940872Y-67069048D01*
X110940872Y-67069048D02*
X110998015Y-67021429D01*
X112083729Y-66450000D02*
X112026587Y-66545238D01*
X112026587Y-66545238D02*
X111969444Y-66592857D01*
X111969444Y-66592857D02*
X111855158Y-66640476D01*
X111855158Y-66640476D02*
X111512301Y-66640476D01*
X111512301Y-66640476D02*
X111398015Y-66592857D01*
X111398015Y-66592857D02*
X111340872Y-66545238D01*
X111340872Y-66545238D02*
X111283729Y-66450000D01*
X111283729Y-66450000D02*
X111283729Y-66307143D01*
X111283729Y-66307143D02*
X111340872Y-66211905D01*
X111340872Y-66211905D02*
X111398015Y-66164286D01*
X111398015Y-66164286D02*
X111512301Y-66116667D01*
X111512301Y-66116667D02*
X111855158Y-66116667D01*
X111855158Y-66116667D02*
X111969444Y-66164286D01*
X111969444Y-66164286D02*
X112026587Y-66211905D01*
X112026587Y-66211905D02*
X112083729Y-66307143D01*
X112083729Y-66307143D02*
X112083729Y-66450000D01*
X111283729Y-65688095D02*
X112083729Y-65688095D01*
X111398015Y-65688095D02*
X111340872Y-65640476D01*
X111340872Y-65640476D02*
X111283729Y-65545238D01*
X111283729Y-65545238D02*
X111283729Y-65402381D01*
X111283729Y-65402381D02*
X111340872Y-65307143D01*
X111340872Y-65307143D02*
X111455158Y-65259524D01*
X111455158Y-65259524D02*
X112083729Y-65259524D01*
X111283729Y-64926190D02*
X111283729Y-64545238D01*
X110883729Y-64783333D02*
X111912301Y-64783333D01*
X111912301Y-64783333D02*
X112026587Y-64735714D01*
X112026587Y-64735714D02*
X112083729Y-64640476D01*
X112083729Y-64640476D02*
X112083729Y-64545238D01*
X112083729Y-64211904D02*
X111283729Y-64211904D01*
X111512301Y-64211904D02*
X111398015Y-64164285D01*
X111398015Y-64164285D02*
X111340872Y-64116666D01*
X111340872Y-64116666D02*
X111283729Y-64021428D01*
X111283729Y-64021428D02*
X111283729Y-63926190D01*
X112083729Y-63449999D02*
X112026587Y-63545237D01*
X112026587Y-63545237D02*
X111969444Y-63592856D01*
X111969444Y-63592856D02*
X111855158Y-63640475D01*
X111855158Y-63640475D02*
X111512301Y-63640475D01*
X111512301Y-63640475D02*
X111398015Y-63592856D01*
X111398015Y-63592856D02*
X111340872Y-63545237D01*
X111340872Y-63545237D02*
X111283729Y-63449999D01*
X111283729Y-63449999D02*
X111283729Y-63307142D01*
X111283729Y-63307142D02*
X111340872Y-63211904D01*
X111340872Y-63211904D02*
X111398015Y-63164285D01*
X111398015Y-63164285D02*
X111512301Y-63116666D01*
X111512301Y-63116666D02*
X111855158Y-63116666D01*
X111855158Y-63116666D02*
X111969444Y-63164285D01*
X111969444Y-63164285D02*
X112026587Y-63211904D01*
X112026587Y-63211904D02*
X112083729Y-63307142D01*
X112083729Y-63307142D02*
X112083729Y-63449999D01*
X112083729Y-62545237D02*
X112026587Y-62640475D01*
X112026587Y-62640475D02*
X111912301Y-62688094D01*
X111912301Y-62688094D02*
X110883729Y-62688094D01*
X112026587Y-62211903D02*
X112083729Y-62116665D01*
X112083729Y-62116665D02*
X112083729Y-61926189D01*
X112083729Y-61926189D02*
X112026587Y-61830951D01*
X112026587Y-61830951D02*
X111912301Y-61783332D01*
X111912301Y-61783332D02*
X111855158Y-61783332D01*
X111855158Y-61783332D02*
X111740872Y-61830951D01*
X111740872Y-61830951D02*
X111683729Y-61926189D01*
X111683729Y-61926189D02*
X111683729Y-62069046D01*
X111683729Y-62069046D02*
X111626587Y-62164284D01*
X111626587Y-62164284D02*
X111512301Y-62211903D01*
X111512301Y-62211903D02*
X111455158Y-62211903D01*
X111455158Y-62211903D02*
X111340872Y-62164284D01*
X111340872Y-62164284D02*
X111283729Y-62069046D01*
X111283729Y-62069046D02*
X111283729Y-61926189D01*
X111283729Y-61926189D02*
X111340872Y-61830951D01*
X112815662Y-68926190D02*
X113672805Y-68926190D01*
X113672805Y-68926190D02*
X113844234Y-68973809D01*
X113844234Y-68973809D02*
X113958520Y-69069047D01*
X113958520Y-69069047D02*
X114015662Y-69211904D01*
X114015662Y-69211904D02*
X114015662Y-69307142D01*
X113215662Y-68021428D02*
X114015662Y-68021428D01*
X113215662Y-68449999D02*
X113844234Y-68449999D01*
X113844234Y-68449999D02*
X113958520Y-68402380D01*
X113958520Y-68402380D02*
X114015662Y-68307142D01*
X114015662Y-68307142D02*
X114015662Y-68164285D01*
X114015662Y-68164285D02*
X113958520Y-68069047D01*
X113958520Y-68069047D02*
X113901377Y-68021428D01*
X114015662Y-67402380D02*
X113958520Y-67497618D01*
X113958520Y-67497618D02*
X113844234Y-67545237D01*
X113844234Y-67545237D02*
X112815662Y-67545237D01*
X112929948Y-67069046D02*
X112872805Y-67021427D01*
X112872805Y-67021427D02*
X112815662Y-66926189D01*
X112815662Y-66926189D02*
X112815662Y-66688094D01*
X112815662Y-66688094D02*
X112872805Y-66592856D01*
X112872805Y-66592856D02*
X112929948Y-66545237D01*
X112929948Y-66545237D02*
X113044234Y-66497618D01*
X113044234Y-66497618D02*
X113158520Y-66497618D01*
X113158520Y-66497618D02*
X113329948Y-66545237D01*
X113329948Y-66545237D02*
X114015662Y-67116665D01*
X114015662Y-67116665D02*
X114015662Y-66497618D01*
X112815662Y-65878570D02*
X112815662Y-65783332D01*
X112815662Y-65783332D02*
X112872805Y-65688094D01*
X112872805Y-65688094D02*
X112929948Y-65640475D01*
X112929948Y-65640475D02*
X113044234Y-65592856D01*
X113044234Y-65592856D02*
X113272805Y-65545237D01*
X113272805Y-65545237D02*
X113558520Y-65545237D01*
X113558520Y-65545237D02*
X113787091Y-65592856D01*
X113787091Y-65592856D02*
X113901377Y-65640475D01*
X113901377Y-65640475D02*
X113958520Y-65688094D01*
X113958520Y-65688094D02*
X114015662Y-65783332D01*
X114015662Y-65783332D02*
X114015662Y-65878570D01*
X114015662Y-65878570D02*
X113958520Y-65973808D01*
X113958520Y-65973808D02*
X113901377Y-66021427D01*
X113901377Y-66021427D02*
X113787091Y-66069046D01*
X113787091Y-66069046D02*
X113558520Y-66116665D01*
X113558520Y-66116665D02*
X113272805Y-66116665D01*
X113272805Y-66116665D02*
X113044234Y-66069046D01*
X113044234Y-66069046D02*
X112929948Y-66021427D01*
X112929948Y-66021427D02*
X112872805Y-65973808D01*
X112872805Y-65973808D02*
X112815662Y-65878570D01*
X112929948Y-65164284D02*
X112872805Y-65116665D01*
X112872805Y-65116665D02*
X112815662Y-65021427D01*
X112815662Y-65021427D02*
X112815662Y-64783332D01*
X112815662Y-64783332D02*
X112872805Y-64688094D01*
X112872805Y-64688094D02*
X112929948Y-64640475D01*
X112929948Y-64640475D02*
X113044234Y-64592856D01*
X113044234Y-64592856D02*
X113158520Y-64592856D01*
X113158520Y-64592856D02*
X113329948Y-64640475D01*
X113329948Y-64640475D02*
X114015662Y-65211903D01*
X114015662Y-65211903D02*
X114015662Y-64592856D01*
X112815662Y-63735713D02*
X112815662Y-63926189D01*
X112815662Y-63926189D02*
X112872805Y-64021427D01*
X112872805Y-64021427D02*
X112929948Y-64069046D01*
X112929948Y-64069046D02*
X113101377Y-64164284D01*
X113101377Y-64164284D02*
X113329948Y-64211903D01*
X113329948Y-64211903D02*
X113787091Y-64211903D01*
X113787091Y-64211903D02*
X113901377Y-64164284D01*
X113901377Y-64164284D02*
X113958520Y-64116665D01*
X113958520Y-64116665D02*
X114015662Y-64021427D01*
X114015662Y-64021427D02*
X114015662Y-63830951D01*
X114015662Y-63830951D02*
X113958520Y-63735713D01*
X113958520Y-63735713D02*
X113901377Y-63688094D01*
X113901377Y-63688094D02*
X113787091Y-63640475D01*
X113787091Y-63640475D02*
X113501377Y-63640475D01*
X113501377Y-63640475D02*
X113387091Y-63688094D01*
X113387091Y-63688094D02*
X113329948Y-63735713D01*
X113329948Y-63735713D02*
X113272805Y-63830951D01*
X113272805Y-63830951D02*
X113272805Y-64021427D01*
X113272805Y-64021427D02*
X113329948Y-64116665D01*
X113329948Y-64116665D02*
X113387091Y-64164284D01*
X113387091Y-64164284D02*
X113501377Y-64211903D01*
D14*
X113504819Y-57608333D02*
X114219104Y-57608333D01*
X114219104Y-57608333D02*
X114361961Y-57655952D01*
X114361961Y-57655952D02*
X114457200Y-57751190D01*
X114457200Y-57751190D02*
X114504819Y-57894047D01*
X114504819Y-57894047D02*
X114504819Y-57989285D01*
X113600057Y-57179761D02*
X113552438Y-57132142D01*
X113552438Y-57132142D02*
X113504819Y-57036904D01*
X113504819Y-57036904D02*
X113504819Y-56798809D01*
X113504819Y-56798809D02*
X113552438Y-56703571D01*
X113552438Y-56703571D02*
X113600057Y-56655952D01*
X113600057Y-56655952D02*
X113695295Y-56608333D01*
X113695295Y-56608333D02*
X113790533Y-56608333D01*
X113790533Y-56608333D02*
X113933390Y-56655952D01*
X113933390Y-56655952D02*
X114504819Y-57227380D01*
X114504819Y-57227380D02*
X114504819Y-56608333D01*
X133004819Y-130613094D02*
X132004819Y-130613094D01*
X132004819Y-130613094D02*
X132004819Y-130374999D01*
X132004819Y-130374999D02*
X132052438Y-130232142D01*
X132052438Y-130232142D02*
X132147676Y-130136904D01*
X132147676Y-130136904D02*
X132242914Y-130089285D01*
X132242914Y-130089285D02*
X132433390Y-130041666D01*
X132433390Y-130041666D02*
X132576247Y-130041666D01*
X132576247Y-130041666D02*
X132766723Y-130089285D01*
X132766723Y-130089285D02*
X132861961Y-130136904D01*
X132861961Y-130136904D02*
X132957200Y-130232142D01*
X132957200Y-130232142D02*
X133004819Y-130374999D01*
X133004819Y-130374999D02*
X133004819Y-130613094D01*
X133004819Y-129089285D02*
X133004819Y-129660713D01*
X133004819Y-129374999D02*
X132004819Y-129374999D01*
X132004819Y-129374999D02*
X132147676Y-129470237D01*
X132147676Y-129470237D02*
X132242914Y-129565475D01*
X132242914Y-129565475D02*
X132290533Y-129660713D01*
X132254819Y-69333333D02*
X132969104Y-69333333D01*
X132969104Y-69333333D02*
X133111961Y-69380952D01*
X133111961Y-69380952D02*
X133207200Y-69476190D01*
X133207200Y-69476190D02*
X133254819Y-69619047D01*
X133254819Y-69619047D02*
X133254819Y-69714285D01*
X132254819Y-68952380D02*
X132254819Y-68333333D01*
X132254819Y-68333333D02*
X132635771Y-68666666D01*
X132635771Y-68666666D02*
X132635771Y-68523809D01*
X132635771Y-68523809D02*
X132683390Y-68428571D01*
X132683390Y-68428571D02*
X132731009Y-68380952D01*
X132731009Y-68380952D02*
X132826247Y-68333333D01*
X132826247Y-68333333D02*
X133064342Y-68333333D01*
X133064342Y-68333333D02*
X133159580Y-68380952D01*
X133159580Y-68380952D02*
X133207200Y-68428571D01*
X133207200Y-68428571D02*
X133254819Y-68523809D01*
X133254819Y-68523809D02*
X133254819Y-68809523D01*
X133254819Y-68809523D02*
X133207200Y-68904761D01*
X133207200Y-68904761D02*
X133159580Y-68952380D01*
X115134580Y-50824999D02*
X115182200Y-50777380D01*
X115182200Y-50777380D02*
X115229819Y-50824999D01*
X115229819Y-50824999D02*
X115182200Y-50872618D01*
X115182200Y-50872618D02*
X115134580Y-50824999D01*
X115134580Y-50824999D02*
X115229819Y-50824999D01*
X131829819Y-94861904D02*
X132639342Y-94861904D01*
X132639342Y-94861904D02*
X132734580Y-94814285D01*
X132734580Y-94814285D02*
X132782200Y-94766666D01*
X132782200Y-94766666D02*
X132829819Y-94671428D01*
X132829819Y-94671428D02*
X132829819Y-94480952D01*
X132829819Y-94480952D02*
X132782200Y-94385714D01*
X132782200Y-94385714D02*
X132734580Y-94338095D01*
X132734580Y-94338095D02*
X132639342Y-94290476D01*
X132639342Y-94290476D02*
X131829819Y-94290476D01*
X131829819Y-93338095D02*
X131829819Y-93814285D01*
X131829819Y-93814285D02*
X132306009Y-93861904D01*
X132306009Y-93861904D02*
X132258390Y-93814285D01*
X132258390Y-93814285D02*
X132210771Y-93719047D01*
X132210771Y-93719047D02*
X132210771Y-93480952D01*
X132210771Y-93480952D02*
X132258390Y-93385714D01*
X132258390Y-93385714D02*
X132306009Y-93338095D01*
X132306009Y-93338095D02*
X132401247Y-93290476D01*
X132401247Y-93290476D02*
X132639342Y-93290476D01*
X132639342Y-93290476D02*
X132734580Y-93338095D01*
X132734580Y-93338095D02*
X132782200Y-93385714D01*
X132782200Y-93385714D02*
X132829819Y-93480952D01*
X132829819Y-93480952D02*
X132829819Y-93719047D01*
X132829819Y-93719047D02*
X132782200Y-93814285D01*
X132782200Y-93814285D02*
X132734580Y-93861904D01*
D15*
X115771428Y-121297285D02*
X115771428Y-124940142D01*
X115771428Y-124940142D02*
X115985714Y-125368714D01*
X115985714Y-125368714D02*
X116200000Y-125583000D01*
X116200000Y-125583000D02*
X116628571Y-125797285D01*
X116628571Y-125797285D02*
X117485714Y-125797285D01*
X117485714Y-125797285D02*
X117914285Y-125583000D01*
X117914285Y-125583000D02*
X118128571Y-125368714D01*
X118128571Y-125368714D02*
X118342857Y-124940142D01*
X118342857Y-124940142D02*
X118342857Y-121297285D01*
X120271428Y-125583000D02*
X120914286Y-125797285D01*
X120914286Y-125797285D02*
X121985714Y-125797285D01*
X121985714Y-125797285D02*
X122414286Y-125583000D01*
X122414286Y-125583000D02*
X122628571Y-125368714D01*
X122628571Y-125368714D02*
X122842857Y-124940142D01*
X122842857Y-124940142D02*
X122842857Y-124511571D01*
X122842857Y-124511571D02*
X122628571Y-124083000D01*
X122628571Y-124083000D02*
X122414286Y-123868714D01*
X122414286Y-123868714D02*
X121985714Y-123654428D01*
X121985714Y-123654428D02*
X121128571Y-123440142D01*
X121128571Y-123440142D02*
X120700000Y-123225857D01*
X120700000Y-123225857D02*
X120485714Y-123011571D01*
X120485714Y-123011571D02*
X120271428Y-122583000D01*
X120271428Y-122583000D02*
X120271428Y-122154428D01*
X120271428Y-122154428D02*
X120485714Y-121725857D01*
X120485714Y-121725857D02*
X120700000Y-121511571D01*
X120700000Y-121511571D02*
X121128571Y-121297285D01*
X121128571Y-121297285D02*
X122200000Y-121297285D01*
X122200000Y-121297285D02*
X122842857Y-121511571D01*
X126271428Y-123440142D02*
X126914285Y-123654428D01*
X126914285Y-123654428D02*
X127128571Y-123868714D01*
X127128571Y-123868714D02*
X127342857Y-124297285D01*
X127342857Y-124297285D02*
X127342857Y-124940142D01*
X127342857Y-124940142D02*
X127128571Y-125368714D01*
X127128571Y-125368714D02*
X126914285Y-125583000D01*
X126914285Y-125583000D02*
X126485714Y-125797285D01*
X126485714Y-125797285D02*
X124771428Y-125797285D01*
X124771428Y-125797285D02*
X124771428Y-121297285D01*
X124771428Y-121297285D02*
X126271428Y-121297285D01*
X126271428Y-121297285D02*
X126700000Y-121511571D01*
X126700000Y-121511571D02*
X126914285Y-121725857D01*
X126914285Y-121725857D02*
X127128571Y-122154428D01*
X127128571Y-122154428D02*
X127128571Y-122583000D01*
X127128571Y-122583000D02*
X126914285Y-123011571D01*
X126914285Y-123011571D02*
X126700000Y-123225857D01*
X126700000Y-123225857D02*
X126271428Y-123440142D01*
X126271428Y-123440142D02*
X124771428Y-123440142D01*
D14*
D16*
X130496667Y-74126332D02*
X128830000Y-74126332D01*
X130830000Y-73126332D02*
X129663334Y-76626332D01*
X129663334Y-76626332D02*
X128496667Y-73126332D01*
X127330000Y-75459665D02*
X127330000Y-73126332D01*
X127330000Y-75126332D02*
X127163334Y-75292999D01*
X127163334Y-75292999D02*
X126830000Y-75459665D01*
X126830000Y-75459665D02*
X126330000Y-75459665D01*
X126330000Y-75459665D02*
X125996667Y-75292999D01*
X125996667Y-75292999D02*
X125830000Y-74959665D01*
X125830000Y-74959665D02*
X125830000Y-73126332D01*
X124663333Y-75459665D02*
X123330000Y-75459665D01*
X124163333Y-76626332D02*
X124163333Y-73626332D01*
X124163333Y-73626332D02*
X123996667Y-73292999D01*
X123996667Y-73292999D02*
X123663333Y-73126332D01*
X123663333Y-73126332D02*
X123330000Y-73126332D01*
X120830000Y-73292999D02*
X121163333Y-73126332D01*
X121163333Y-73126332D02*
X121830000Y-73126332D01*
X121830000Y-73126332D02*
X122163333Y-73292999D01*
X122163333Y-73292999D02*
X122330000Y-73626332D01*
X122330000Y-73626332D02*
X122330000Y-74959665D01*
X122330000Y-74959665D02*
X122163333Y-75292999D01*
X122163333Y-75292999D02*
X121830000Y-75459665D01*
X121830000Y-75459665D02*
X121163333Y-75459665D01*
X121163333Y-75459665D02*
X120830000Y-75292999D01*
X120830000Y-75292999D02*
X120663333Y-74959665D01*
X120663333Y-74959665D02*
X120663333Y-74626332D01*
X120663333Y-74626332D02*
X122330000Y-74292999D01*
X119163333Y-75459665D02*
X119163333Y-73126332D01*
X119163333Y-75126332D02*
X118996667Y-75292999D01*
X118996667Y-75292999D02*
X118663333Y-75459665D01*
X118663333Y-75459665D02*
X118163333Y-75459665D01*
X118163333Y-75459665D02*
X117830000Y-75292999D01*
X117830000Y-75292999D02*
X117663333Y-74959665D01*
X117663333Y-74959665D02*
X117663333Y-73126332D01*
X115996666Y-75459665D02*
X115996666Y-73126332D01*
X115996666Y-75126332D02*
X115830000Y-75292999D01*
X115830000Y-75292999D02*
X115496666Y-75459665D01*
X115496666Y-75459665D02*
X114996666Y-75459665D01*
X114996666Y-75459665D02*
X114663333Y-75292999D01*
X114663333Y-75292999D02*
X114496666Y-74959665D01*
X114496666Y-74959665D02*
X114496666Y-73126332D01*
X111329999Y-73126332D02*
X111329999Y-74959665D01*
X111329999Y-74959665D02*
X111496666Y-75292999D01*
X111496666Y-75292999D02*
X111829999Y-75459665D01*
X111829999Y-75459665D02*
X112496666Y-75459665D01*
X112496666Y-75459665D02*
X112829999Y-75292999D01*
X111329999Y-73292999D02*
X111663333Y-73126332D01*
X111663333Y-73126332D02*
X112496666Y-73126332D01*
X112496666Y-73126332D02*
X112829999Y-73292999D01*
X112829999Y-73292999D02*
X112996666Y-73626332D01*
X112996666Y-73626332D02*
X112996666Y-73959665D01*
X112996666Y-73959665D02*
X112829999Y-74292999D01*
X112829999Y-74292999D02*
X112496666Y-74459665D01*
X112496666Y-74459665D02*
X111663333Y-74459665D01*
X111663333Y-74459665D02*
X111329999Y-74626332D01*
D14*
X126629819Y-61538094D02*
X125629819Y-61538094D01*
X126629819Y-60966666D02*
X126058390Y-61395237D01*
X125629819Y-60966666D02*
X126201247Y-61538094D01*
X126629819Y-60014285D02*
X126629819Y-60585713D01*
X126629819Y-60299999D02*
X125629819Y-60299999D01*
X125629819Y-60299999D02*
X125772676Y-60395237D01*
X125772676Y-60395237D02*
X125867914Y-60490475D01*
X125867914Y-60490475D02*
X125915533Y-60585713D01*
X132229819Y-69333333D02*
X132944104Y-69333333D01*
X132944104Y-69333333D02*
X133086961Y-69380952D01*
X133086961Y-69380952D02*
X133182200Y-69476190D01*
X133182200Y-69476190D02*
X133229819Y-69619047D01*
X133229819Y-69619047D02*
X133229819Y-69714285D01*
X132229819Y-68952380D02*
X132229819Y-68333333D01*
X132229819Y-68333333D02*
X132610771Y-68666666D01*
X132610771Y-68666666D02*
X132610771Y-68523809D01*
X132610771Y-68523809D02*
X132658390Y-68428571D01*
X132658390Y-68428571D02*
X132706009Y-68380952D01*
X132706009Y-68380952D02*
X132801247Y-68333333D01*
X132801247Y-68333333D02*
X133039342Y-68333333D01*
X133039342Y-68333333D02*
X133134580Y-68380952D01*
X133134580Y-68380952D02*
X133182200Y-68428571D01*
X133182200Y-68428571D02*
X133229819Y-68523809D01*
X133229819Y-68523809D02*
X133229819Y-68809523D01*
X133229819Y-68809523D02*
X133182200Y-68904761D01*
X133182200Y-68904761D02*
X133134580Y-68952380D01*
X127434580Y-69666666D02*
X127482200Y-69714285D01*
X127482200Y-69714285D02*
X127529819Y-69857142D01*
X127529819Y-69857142D02*
X127529819Y-69952380D01*
X127529819Y-69952380D02*
X127482200Y-70095237D01*
X127482200Y-70095237D02*
X127386961Y-70190475D01*
X127386961Y-70190475D02*
X127291723Y-70238094D01*
X127291723Y-70238094D02*
X127101247Y-70285713D01*
X127101247Y-70285713D02*
X126958390Y-70285713D01*
X126958390Y-70285713D02*
X126767914Y-70238094D01*
X126767914Y-70238094D02*
X126672676Y-70190475D01*
X126672676Y-70190475D02*
X126577438Y-70095237D01*
X126577438Y-70095237D02*
X126529819Y-69952380D01*
X126529819Y-69952380D02*
X126529819Y-69857142D01*
X126529819Y-69857142D02*
X126577438Y-69714285D01*
X126577438Y-69714285D02*
X126625057Y-69666666D01*
X126529819Y-68809523D02*
X126529819Y-68999999D01*
X126529819Y-68999999D02*
X126577438Y-69095237D01*
X126577438Y-69095237D02*
X126625057Y-69142856D01*
X126625057Y-69142856D02*
X126767914Y-69238094D01*
X126767914Y-69238094D02*
X126958390Y-69285713D01*
X126958390Y-69285713D02*
X127339342Y-69285713D01*
X127339342Y-69285713D02*
X127434580Y-69238094D01*
X127434580Y-69238094D02*
X127482200Y-69190475D01*
X127482200Y-69190475D02*
X127529819Y-69095237D01*
X127529819Y-69095237D02*
X127529819Y-68904761D01*
X127529819Y-68904761D02*
X127482200Y-68809523D01*
X127482200Y-68809523D02*
X127434580Y-68761904D01*
X127434580Y-68761904D02*
X127339342Y-68714285D01*
X127339342Y-68714285D02*
X127101247Y-68714285D01*
X127101247Y-68714285D02*
X127006009Y-68761904D01*
X127006009Y-68761904D02*
X126958390Y-68809523D01*
X126958390Y-68809523D02*
X126910771Y-68904761D01*
X126910771Y-68904761D02*
X126910771Y-69095237D01*
X126910771Y-69095237D02*
X126958390Y-69190475D01*
X126958390Y-69190475D02*
X127006009Y-69238094D01*
X127006009Y-69238094D02*
X127101247Y-69285713D01*
X118427319Y-65335594D02*
X117427319Y-65335594D01*
X117427319Y-65335594D02*
X117427319Y-65097499D01*
X117427319Y-65097499D02*
X117474938Y-64954642D01*
X117474938Y-64954642D02*
X117570176Y-64859404D01*
X117570176Y-64859404D02*
X117665414Y-64811785D01*
X117665414Y-64811785D02*
X117855890Y-64764166D01*
X117855890Y-64764166D02*
X117998747Y-64764166D01*
X117998747Y-64764166D02*
X118189223Y-64811785D01*
X118189223Y-64811785D02*
X118284461Y-64859404D01*
X118284461Y-64859404D02*
X118379700Y-64954642D01*
X118379700Y-64954642D02*
X118427319Y-65097499D01*
X118427319Y-65097499D02*
X118427319Y-65335594D01*
X117760652Y-63907023D02*
X118427319Y-63907023D01*
X117379700Y-64145118D02*
X118093985Y-64383213D01*
X118093985Y-64383213D02*
X118093985Y-63764166D01*
X127254819Y-133858333D02*
X127969104Y-133858333D01*
X127969104Y-133858333D02*
X128111961Y-133905952D01*
X128111961Y-133905952D02*
X128207200Y-134001190D01*
X128207200Y-134001190D02*
X128254819Y-134144047D01*
X128254819Y-134144047D02*
X128254819Y-134239285D01*
X128254819Y-132858333D02*
X128254819Y-133429761D01*
X128254819Y-133144047D02*
X127254819Y-133144047D01*
X127254819Y-133144047D02*
X127397676Y-133239285D01*
X127397676Y-133239285D02*
X127492914Y-133334523D01*
X127492914Y-133334523D02*
X127540533Y-133429761D01*
X125881009Y-90185714D02*
X125928628Y-90042857D01*
X125928628Y-90042857D02*
X125976247Y-89995238D01*
X125976247Y-89995238D02*
X126071485Y-89947619D01*
X126071485Y-89947619D02*
X126214342Y-89947619D01*
X126214342Y-89947619D02*
X126309580Y-89995238D01*
X126309580Y-89995238D02*
X126357200Y-90042857D01*
X126357200Y-90042857D02*
X126404819Y-90138095D01*
X126404819Y-90138095D02*
X126404819Y-90519047D01*
X126404819Y-90519047D02*
X125404819Y-90519047D01*
X125404819Y-90519047D02*
X125404819Y-90185714D01*
X125404819Y-90185714D02*
X125452438Y-90090476D01*
X125452438Y-90090476D02*
X125500057Y-90042857D01*
X125500057Y-90042857D02*
X125595295Y-89995238D01*
X125595295Y-89995238D02*
X125690533Y-89995238D01*
X125690533Y-89995238D02*
X125785771Y-90042857D01*
X125785771Y-90042857D02*
X125833390Y-90090476D01*
X125833390Y-90090476D02*
X125881009Y-90185714D01*
X125881009Y-90185714D02*
X125881009Y-90519047D01*
X125404819Y-89661904D02*
X125404819Y-89090476D01*
X126404819Y-89376190D02*
X125404819Y-89376190D01*
X126404819Y-88233333D02*
X126404819Y-88804761D01*
X126404819Y-88519047D02*
X125404819Y-88519047D01*
X125404819Y-88519047D02*
X125547676Y-88614285D01*
X125547676Y-88614285D02*
X125642914Y-88709523D01*
X125642914Y-88709523D02*
X125690533Y-88804761D01*
X128434580Y-91345238D02*
X128482200Y-91392857D01*
X128482200Y-91392857D02*
X128529819Y-91535714D01*
X128529819Y-91535714D02*
X128529819Y-91630952D01*
X128529819Y-91630952D02*
X128482200Y-91773809D01*
X128482200Y-91773809D02*
X128386961Y-91869047D01*
X128386961Y-91869047D02*
X128291723Y-91916666D01*
X128291723Y-91916666D02*
X128101247Y-91964285D01*
X128101247Y-91964285D02*
X127958390Y-91964285D01*
X127958390Y-91964285D02*
X127767914Y-91916666D01*
X127767914Y-91916666D02*
X127672676Y-91869047D01*
X127672676Y-91869047D02*
X127577438Y-91773809D01*
X127577438Y-91773809D02*
X127529819Y-91630952D01*
X127529819Y-91630952D02*
X127529819Y-91535714D01*
X127529819Y-91535714D02*
X127577438Y-91392857D01*
X127577438Y-91392857D02*
X127625057Y-91345238D01*
X128529819Y-90345238D02*
X128053628Y-90678571D01*
X128529819Y-90916666D02*
X127529819Y-90916666D01*
X127529819Y-90916666D02*
X127529819Y-90535714D01*
X127529819Y-90535714D02*
X127577438Y-90440476D01*
X127577438Y-90440476D02*
X127625057Y-90392857D01*
X127625057Y-90392857D02*
X127720295Y-90345238D01*
X127720295Y-90345238D02*
X127863152Y-90345238D01*
X127863152Y-90345238D02*
X127958390Y-90392857D01*
X127958390Y-90392857D02*
X128006009Y-90440476D01*
X128006009Y-90440476D02*
X128053628Y-90535714D01*
X128053628Y-90535714D02*
X128053628Y-90916666D01*
X127625057Y-89964285D02*
X127577438Y-89916666D01*
X127577438Y-89916666D02*
X127529819Y-89821428D01*
X127529819Y-89821428D02*
X127529819Y-89583333D01*
X127529819Y-89583333D02*
X127577438Y-89488095D01*
X127577438Y-89488095D02*
X127625057Y-89440476D01*
X127625057Y-89440476D02*
X127720295Y-89392857D01*
X127720295Y-89392857D02*
X127815533Y-89392857D01*
X127815533Y-89392857D02*
X127958390Y-89440476D01*
X127958390Y-89440476D02*
X128529819Y-90011904D01*
X128529819Y-90011904D02*
X128529819Y-89392857D01*
X127529819Y-88773809D02*
X127529819Y-88678571D01*
X127529819Y-88678571D02*
X127577438Y-88583333D01*
X127577438Y-88583333D02*
X127625057Y-88535714D01*
X127625057Y-88535714D02*
X127720295Y-88488095D01*
X127720295Y-88488095D02*
X127910771Y-88440476D01*
X127910771Y-88440476D02*
X128148866Y-88440476D01*
X128148866Y-88440476D02*
X128339342Y-88488095D01*
X128339342Y-88488095D02*
X128434580Y-88535714D01*
X128434580Y-88535714D02*
X128482200Y-88583333D01*
X128482200Y-88583333D02*
X128529819Y-88678571D01*
X128529819Y-88678571D02*
X128529819Y-88773809D01*
X128529819Y-88773809D02*
X128482200Y-88869047D01*
X128482200Y-88869047D02*
X128434580Y-88916666D01*
X128434580Y-88916666D02*
X128339342Y-88964285D01*
X128339342Y-88964285D02*
X128148866Y-89011904D01*
X128148866Y-89011904D02*
X127910771Y-89011904D01*
X127910771Y-89011904D02*
X127720295Y-88964285D01*
X127720295Y-88964285D02*
X127625057Y-88916666D01*
X127625057Y-88916666D02*
X127577438Y-88869047D01*
X127577438Y-88869047D02*
X127529819Y-88773809D01*
X127529819Y-88107142D02*
X127529819Y-87488095D01*
X127529819Y-87488095D02*
X127910771Y-87821428D01*
X127910771Y-87821428D02*
X127910771Y-87678571D01*
X127910771Y-87678571D02*
X127958390Y-87583333D01*
X127958390Y-87583333D02*
X128006009Y-87535714D01*
X128006009Y-87535714D02*
X128101247Y-87488095D01*
X128101247Y-87488095D02*
X128339342Y-87488095D01*
X128339342Y-87488095D02*
X128434580Y-87535714D01*
X128434580Y-87535714D02*
X128482200Y-87583333D01*
X128482200Y-87583333D02*
X128529819Y-87678571D01*
X128529819Y-87678571D02*
X128529819Y-87964285D01*
X128529819Y-87964285D02*
X128482200Y-88059523D01*
X128482200Y-88059523D02*
X128434580Y-88107142D01*
X127625057Y-87107142D02*
X127577438Y-87059523D01*
X127577438Y-87059523D02*
X127529819Y-86964285D01*
X127529819Y-86964285D02*
X127529819Y-86726190D01*
X127529819Y-86726190D02*
X127577438Y-86630952D01*
X127577438Y-86630952D02*
X127625057Y-86583333D01*
X127625057Y-86583333D02*
X127720295Y-86535714D01*
X127720295Y-86535714D02*
X127815533Y-86535714D01*
X127815533Y-86535714D02*
X127958390Y-86583333D01*
X127958390Y-86583333D02*
X128529819Y-87154761D01*
X128529819Y-87154761D02*
X128529819Y-86535714D01*
X118529819Y-130763094D02*
X117529819Y-130763094D01*
X117529819Y-130763094D02*
X117529819Y-130524999D01*
X117529819Y-130524999D02*
X117577438Y-130382142D01*
X117577438Y-130382142D02*
X117672676Y-130286904D01*
X117672676Y-130286904D02*
X117767914Y-130239285D01*
X117767914Y-130239285D02*
X117958390Y-130191666D01*
X117958390Y-130191666D02*
X118101247Y-130191666D01*
X118101247Y-130191666D02*
X118291723Y-130239285D01*
X118291723Y-130239285D02*
X118386961Y-130286904D01*
X118386961Y-130286904D02*
X118482200Y-130382142D01*
X118482200Y-130382142D02*
X118529819Y-130524999D01*
X118529819Y-130524999D02*
X118529819Y-130763094D01*
X117529819Y-129858332D02*
X117529819Y-129239285D01*
X117529819Y-129239285D02*
X117910771Y-129572618D01*
X117910771Y-129572618D02*
X117910771Y-129429761D01*
X117910771Y-129429761D02*
X117958390Y-129334523D01*
X117958390Y-129334523D02*
X118006009Y-129286904D01*
X118006009Y-129286904D02*
X118101247Y-129239285D01*
X118101247Y-129239285D02*
X118339342Y-129239285D01*
X118339342Y-129239285D02*
X118434580Y-129286904D01*
X118434580Y-129286904D02*
X118482200Y-129334523D01*
X118482200Y-129334523D02*
X118529819Y-129429761D01*
X118529819Y-129429761D02*
X118529819Y-129715475D01*
X118529819Y-129715475D02*
X118482200Y-129810713D01*
X118482200Y-129810713D02*
X118434580Y-129858332D01*
X124154819Y-133883333D02*
X124869104Y-133883333D01*
X124869104Y-133883333D02*
X125011961Y-133930952D01*
X125011961Y-133930952D02*
X125107200Y-134026190D01*
X125107200Y-134026190D02*
X125154819Y-134169047D01*
X125154819Y-134169047D02*
X125154819Y-134264285D01*
X124488152Y-132978571D02*
X125154819Y-132978571D01*
X124107200Y-133216666D02*
X124821485Y-133454761D01*
X124821485Y-133454761D02*
X124821485Y-132835714D01*
D17*
%TO.C,J2*%
X108640000Y-53115000D02*
X108640000Y-55615000D01*
X110440000Y-53415000D02*
X110440000Y-54415000D01*
X110440000Y-54415000D02*
X108940000Y-54415000D01*
X110440000Y-60135000D02*
X108940000Y-60135000D01*
X110440000Y-61135000D02*
X110440000Y-60135000D01*
X111140000Y-53115000D02*
X108640000Y-53115000D01*
X111250000Y-53415000D02*
X111250000Y-53915000D01*
X111250000Y-53915000D02*
X112460000Y-53915000D01*
X111250000Y-60635000D02*
X111250000Y-61135000D01*
X112460000Y-53915000D02*
X112460000Y-60635000D01*
X112460000Y-60635000D02*
X111250000Y-60635000D01*
X112960000Y-53415000D02*
X108940000Y-53415000D01*
X108940000Y-61135000D01*
X112960000Y-61135000D01*
X112960000Y-53415000D01*
%TO.C,D1*%
X131177500Y-131065000D02*
X131177500Y-132535000D01*
X131177500Y-132535000D02*
X133462500Y-132535000D01*
X133462500Y-131065000D02*
X131177500Y-131065000D01*
%TO.C,J3*%
X132015000Y-62140000D02*
X133125000Y-62140000D01*
X132015000Y-63250000D02*
X132015000Y-62140000D01*
X132015000Y-64250000D02*
X132015000Y-66360000D01*
X132015000Y-64250000D02*
X134235000Y-64250000D01*
X132015000Y-66360000D02*
X134235000Y-66360000D01*
X134235000Y-64250000D02*
X134235000Y-66360000D01*
%TO.C,U5*%
D12*
X114550000Y-120300000D02*
X128250000Y-120300000D01*
X128250000Y-126700000D01*
X114550000Y-126700000D01*
X114550000Y-120300000D01*
X107200000Y-116946000D02*
X134875000Y-116946000D01*
X134875000Y-126700000D01*
X107200000Y-126700000D01*
X107200000Y-116946000D01*
D18*
X107200000Y-77500000D02*
X134925000Y-77500000D01*
X134925000Y-116946000D01*
X107200000Y-116946000D01*
X107200000Y-77500000D01*
D12*
X107200000Y-71900000D02*
X134925000Y-71900000D01*
X134925000Y-77500000D01*
X107200000Y-77500000D01*
X107200000Y-71900000D01*
D17*
%TO.C,K1*%
X116275000Y-44000000D02*
X136075000Y-44000000D01*
X116275000Y-59600000D02*
X116275000Y-44000000D01*
X120525000Y-47600000D02*
X120525000Y-50050000D01*
X120525000Y-56000000D02*
X120525000Y-53500000D01*
X123725000Y-51750000D02*
X119125000Y-54250000D01*
X125225000Y-48150000D02*
X132025000Y-48150000D01*
X125225000Y-51750000D02*
X123725000Y-51750000D01*
X125225000Y-51750000D02*
X125225000Y-48150000D01*
X126625000Y-49950000D02*
X130625000Y-49950000D01*
X126625000Y-49950000D02*
X130625000Y-53550000D01*
X126625000Y-53550000D02*
X126625000Y-49950000D01*
X128625000Y-49950000D02*
X128625000Y-45750000D01*
X128625000Y-57750000D02*
X128625000Y-53550000D01*
X128625000Y-57750000D02*
X131125000Y-57750000D01*
X130625000Y-49950000D02*
X130625000Y-53550000D01*
X130625000Y-53550000D02*
X126625000Y-53550000D01*
X131125000Y-45750000D02*
X128625000Y-45750000D01*
X132025000Y-51750000D02*
X132025000Y-48150000D01*
X132025000Y-51750000D02*
X132825000Y-51750000D01*
X136075000Y-50600000D02*
X136075000Y-44000000D01*
X136075000Y-59600000D02*
X116275000Y-59600000D01*
X136075000Y-59600000D02*
X136075000Y-53000000D01*
%TO.C,J3*%
X131790000Y-60015000D02*
X131790000Y-62515000D01*
X133590000Y-60315000D02*
X133590000Y-61315000D01*
X133590000Y-61315000D02*
X132090000Y-61315000D01*
X133590000Y-67035000D02*
X132090000Y-67035000D01*
X133590000Y-68035000D02*
X133590000Y-67035000D01*
X134290000Y-60015000D02*
X131790000Y-60015000D01*
X134400000Y-60315000D02*
X134400000Y-60815000D01*
X134400000Y-60815000D02*
X135610000Y-60815000D01*
X134400000Y-67535000D02*
X134400000Y-68035000D01*
X135610000Y-60815000D02*
X135610000Y-67535000D01*
X135610000Y-67535000D02*
X134400000Y-67535000D01*
X136110000Y-60315000D02*
X132090000Y-60315000D01*
X132090000Y-68035000D01*
X136110000Y-68035000D01*
X136110000Y-60315000D01*
%TO.C,C6*%
X129970000Y-65825000D02*
G75*
G02*
X124730000Y-65825000I-2620000J0D01*
G01*
X124730000Y-65825000D02*
G75*
G02*
X129970000Y-65825000I2620000J0D01*
G01*
%TO.C,D4*%
X116415000Y-66090000D02*
X116415000Y-67560000D01*
X116415000Y-67560000D02*
X118700000Y-67560000D01*
X118700000Y-66090000D02*
X116415000Y-66090000D01*
%TO.C,J1*%
X127265000Y-136335000D02*
X127265000Y-138835000D01*
X127265000Y-138835000D02*
X129765000Y-138835000D01*
X127565000Y-136225000D02*
X128065000Y-136225000D01*
X127565000Y-137035000D02*
X128565000Y-137035000D01*
X128065000Y-135015000D02*
X137285000Y-135015000D01*
X128065000Y-136225000D02*
X128065000Y-135015000D01*
X128565000Y-137035000D02*
X128565000Y-138535000D01*
X136785000Y-137035000D02*
X136785000Y-138535000D01*
X137285000Y-135015000D02*
X137285000Y-136225000D01*
X137285000Y-136225000D02*
X137785000Y-136225000D01*
X137785000Y-137035000D02*
X136785000Y-137035000D01*
X127565000Y-134515000D02*
X137785000Y-134515000D01*
X137785000Y-138535000D01*
X127565000Y-138535000D01*
X127565000Y-134515000D01*
%TO.C,BT1*%
X120900000Y-113050000D02*
X121900000Y-113050001D01*
X121399999Y-113550000D02*
X121400000Y-112550000D01*
X118300001Y-114049999D02*
G75*
G02*
X124499999Y-114049999I3099999J11499999D01*
G01*
%TO.C,D3*%
X116765000Y-131340000D02*
X116765000Y-132810000D01*
X116765000Y-132810000D02*
X119050000Y-132810000D01*
X119050000Y-131340000D02*
X116765000Y-131340000D01*
%TO.C,J4*%
X115615000Y-136410000D02*
X115615000Y-138910000D01*
X115615000Y-138910000D02*
X118115000Y-138910000D01*
X115915000Y-136300000D02*
X116415000Y-136300000D01*
X115915000Y-137110000D02*
X116915000Y-137110000D01*
X116415000Y-135090000D02*
X125635000Y-135090000D01*
X116415000Y-136300000D02*
X116415000Y-135090000D01*
X116915000Y-137110000D02*
X116915000Y-138610000D01*
X125135000Y-137110000D02*
X125135000Y-138610000D01*
X125635000Y-135090000D02*
X125635000Y-136300000D01*
X125635000Y-136300000D02*
X126135000Y-136300000D01*
X126135000Y-137110000D02*
X125135000Y-137110000D01*
X115915000Y-134590000D02*
X126135000Y-134590000D01*
X126135000Y-138610000D01*
X115915000Y-138610000D01*
X115915000Y-134590000D01*
%TD*%
M02*
