%TF.GenerationSoftware,KiCad,Pcbnew,9.0.7*%
%TF.CreationDate,2026-07-18T06:45:16+05:30*%
%TF.ProjectId,Nursary_OneCH,4e757273-6172-4795-9f4f-6e6543482e6b,rev?*%
%TF.SameCoordinates,Original*%
%TF.FileFunction,Copper,L2,Bot*%
%TF.FilePolarity,Positive*%
%FSLAX46Y46*%
G04 Gerber Fmt 4.6, Leading zero omitted, Abs format (unit mm)*
G04 Created by KiCad (PCBNEW 9.0.7) date 2026-07-18 06:45:16*
%MOMM*%
%LPD*%
G01*
G04 APERTURE LIST*
G04 Aperture macros list*
%AMRoundRect*
0 Rectangle with rounded corners*
0 $1 Rounding radius*
0 $2 $3 $4 $5 $6 $7 $8 $9 X,Y pos of 4 corners*
0 Add a 4 corners polygon primitive as box body*
4,1,4,$2,$3,$4,$5,$6,$7,$8,$9,$2,$3,0*
0 Add four circle primitives for the rounded corners*
1,1,$1+$1,$2,$3*
1,1,$1+$1,$4,$5*
1,1,$1+$1,$6,$7*
1,1,$1+$1,$8,$9*
0 Add four rect primitives between the rounded corners*
20,1,$1+$1,$2,$3,$4,$5,0*
20,1,$1+$1,$4,$5,$6,$7,0*
20,1,$1+$1,$6,$7,$8,$9,0*
20,1,$1+$1,$8,$9,$2,$3,0*%
G04 Aperture macros list end*
%TA.AperFunction,SMDPad,CuDef*%
%ADD10RoundRect,0.250000X-0.450000X0.262500X-0.450000X-0.262500X0.450000X-0.262500X0.450000X0.262500X0*%
%TD*%
%TA.AperFunction,ComponentPad*%
%ADD11RoundRect,0.250000X-0.750000X0.600000X-0.750000X-0.600000X0.750000X-0.600000X0.750000X0.600000X0*%
%TD*%
%TA.AperFunction,ComponentPad*%
%ADD12O,2.000000X1.700000*%
%TD*%
%TA.AperFunction,WasherPad*%
%ADD13C,4.500000*%
%TD*%
%TA.AperFunction,ComponentPad*%
%ADD14R,1.350000X1.350000*%
%TD*%
%TA.AperFunction,ComponentPad*%
%ADD15C,1.350000*%
%TD*%
%TA.AperFunction,ComponentPad*%
%ADD16O,2.000000X1.200000*%
%TD*%
%TA.AperFunction,ComponentPad*%
%ADD17C,3.000000*%
%TD*%
%TA.AperFunction,ComponentPad*%
%ADD18C,2.500000*%
%TD*%
%TA.AperFunction,ComponentPad*%
%ADD19C,1.200000*%
%TD*%
%TA.AperFunction,ComponentPad*%
%ADD20RoundRect,0.250000X-0.600000X-0.725000X0.600000X-0.725000X0.600000X0.725000X-0.600000X0.725000X0*%
%TD*%
%TA.AperFunction,ComponentPad*%
%ADD21O,1.700000X1.950000*%
%TD*%
%TA.AperFunction,ComponentPad*%
%ADD22R,3.000000X3.000000*%
%TD*%
%TA.AperFunction,SMDPad,CuDef*%
%ADD23RoundRect,0.250000X-0.262500X-0.450000X0.262500X-0.450000X0.262500X0.450000X-0.262500X0.450000X0*%
%TD*%
%TA.AperFunction,SMDPad,CuDef*%
%ADD24RoundRect,0.250000X0.262500X0.450000X-0.262500X0.450000X-0.262500X-0.450000X0.262500X-0.450000X0*%
%TD*%
%TA.AperFunction,ComponentPad*%
%ADD25C,1.000000*%
%TD*%
%TA.AperFunction,SMDPad,CuDef*%
%ADD26RoundRect,0.250000X-0.250000X-0.475000X0.250000X-0.475000X0.250000X0.475000X-0.250000X0.475000X0*%
%TD*%
%TA.AperFunction,SMDPad,CuDef*%
%ADD27RoundRect,0.250000X-0.700000X0.275000X-0.700000X-0.275000X0.700000X-0.275000X0.700000X0.275000X0*%
%TD*%
%TA.AperFunction,SMDPad,CuDef*%
%ADD28RoundRect,0.150000X-0.875000X-0.150000X0.875000X-0.150000X0.875000X0.150000X-0.875000X0.150000X0*%
%TD*%
%TA.AperFunction,SMDPad,CuDef*%
%ADD29RoundRect,0.050000X-0.150000X-0.300000X0.150000X-0.300000X0.150000X0.300000X-0.150000X0.300000X0*%
%TD*%
%TA.AperFunction,SMDPad,CuDef*%
%ADD30RoundRect,0.250000X-0.475000X0.250000X-0.475000X-0.250000X0.475000X-0.250000X0.475000X0.250000X0*%
%TD*%
%TA.AperFunction,SMDPad,CuDef*%
%ADD31RoundRect,0.250000X0.475000X-0.250000X0.475000X0.250000X-0.475000X0.250000X-0.475000X-0.250000X0*%
%TD*%
%TA.AperFunction,SMDPad,CuDef*%
%ADD32RoundRect,0.250000X0.450000X-0.262500X0.450000X0.262500X-0.450000X0.262500X-0.450000X-0.262500X0*%
%TD*%
%TA.AperFunction,SMDPad,CuDef*%
%ADD33RoundRect,0.150000X-0.825000X-0.150000X0.825000X-0.150000X0.825000X0.150000X-0.825000X0.150000X0*%
%TD*%
%TA.AperFunction,SMDPad,CuDef*%
%ADD34RoundRect,0.150000X-1.050000X-0.150000X1.050000X-0.150000X1.050000X0.150000X-1.050000X0.150000X0*%
%TD*%
%TA.AperFunction,ViaPad*%
%ADD35C,0.600000*%
%TD*%
%TA.AperFunction,Conductor*%
%ADD36C,0.500000*%
%TD*%
%TA.AperFunction,Conductor*%
%ADD37C,0.200000*%
%TD*%
%TA.AperFunction,Conductor*%
%ADD38C,1.000000*%
%TD*%
G04 APERTURE END LIST*
D10*
%TO.P,R15,1*%
%TO.N,+3.3V*%
X133125000Y-103612500D03*
%TO.P,R15,2*%
%TO.N,/SCL*%
X133125000Y-105437500D03*
%TD*%
D11*
%TO.P,J2,1,Pin_1*%
%TO.N,Net-(J2-Pin_1)*%
X111250000Y-56025000D03*
D12*
%TO.P,J2,2,Pin_2*%
%TO.N,Net-(J2-Pin_2)*%
X111250000Y-58525000D03*
%TD*%
D13*
%TO.P,H1,*%
%TO.N,*%
X111700000Y-135800000D03*
%TD*%
D14*
%TO.P,J3,1,Pin_1*%
%TO.N,+5V*%
X133125000Y-63250000D03*
D15*
%TO.P,J3,2,Pin_2*%
%TO.N,GND*%
X133125000Y-65250000D03*
%TD*%
D13*
%TO.P,.,*%
%TO.N,*%
X111700000Y-47775000D03*
%TD*%
D16*
%TO.P,U5,30,VIN/5V_Power_IN*%
%TO.N,+5V*%
X108550000Y-114660000D03*
%TO.P,U5,29,GND*%
%TO.N,GND*%
X108550000Y-112100000D03*
%TO.P,U5,21,D32*%
%TO.N,unconnected-(U5-D32-Pad21)*%
X108525000Y-91825000D03*
%TO.P,U5,20,D35/Input_only*%
%TO.N,/FLOW1_MCU*%
X108525000Y-89265000D03*
%TO.P,U5,19,D34/Input_only*%
%TO.N,/FLOW2_MCU*%
X108475000Y-86725000D03*
%TO.P,U5,18,VN(39)/Input_only*%
%TO.N,unconnected-(U5-VN(39){slash}Input_only-Pad18)*%
X108475000Y-84165000D03*
%TO.P,U5,17,VP(36)/Input_only*%
%TO.N,unconnected-(U5-VP(36){slash}Input_only-Pad17)*%
X108500000Y-81650000D03*
%TO.P,U5,16,EN*%
%TO.N,unconnected-(U5-EN-Pad16)*%
X108500000Y-79090000D03*
%TO.P,U5,15,D23*%
%TO.N,unconnected-(U5-D23-Pad15)*%
X133500000Y-79090000D03*
%TO.P,U5,14,D22/I2C_SCL*%
%TO.N,/SCL*%
X133500000Y-81650000D03*
%TO.P,U5,13,Tx0/USB*%
%TO.N,unconnected-(U5-Tx0{slash}USB-Pad13)*%
X133475000Y-84165000D03*
%TO.P,U5,12,Rx0/USB*%
%TO.N,unconnected-(U5-Rx0{slash}USB-Pad12)*%
X133475000Y-86725000D03*
%TO.P,U5,11,D21/I2C_SDA*%
%TO.N,/SDA*%
X133525000Y-89265000D03*
%TO.P,U5,10,D19*%
%TO.N,/RELAY1_MCU*%
X133525000Y-91825000D03*
%TO.P,U5,2,GND*%
%TO.N,GND*%
X133550000Y-112100000D03*
%TO.P,U5,1,3V3_Out*%
%TO.N,+3.3V*%
X133550000Y-114660000D03*
%TD*%
D17*
%TO.P,K1,1*%
%TO.N,Net-(J2-Pin_2)*%
X134675000Y-51800000D03*
D18*
%TO.P,K1,2*%
%TO.N,Net-(D4-K)*%
X132725000Y-45750000D03*
D17*
%TO.P,K1,3*%
%TO.N,Net-(J2-Pin_1)*%
X120525000Y-45750000D03*
%TO.P,K1,4*%
%TO.N,unconnected-(K1-Pad4)*%
X120475000Y-57800000D03*
D18*
%TO.P,K1,5*%
%TO.N,+5VR*%
X132725000Y-57750000D03*
%TD*%
D11*
%TO.P,J3,1,Pin_1*%
%TO.N,+5V*%
X134400000Y-62925000D03*
D12*
%TO.P,J3,2,Pin_2*%
%TO.N,GND*%
X134400000Y-65425000D03*
%TD*%
D19*
%TO.P,C6,1*%
%TO.N,+5VR*%
X127350000Y-64825000D03*
%TO.P,C6,2*%
%TO.N,GND*%
X127350000Y-66825000D03*
%TD*%
D20*
%TO.P,J1,1,Pin_1*%
%TO.N,+5VP*%
X130175000Y-136225000D03*
D21*
%TO.P,J1,2,Pin_2*%
%TO.N,/FLOW1_CONN*%
X132675000Y-136225000D03*
%TO.P,J1,3,Pin_3*%
%TO.N,GND*%
X135175000Y-136225000D03*
%TD*%
D22*
%TO.P,BT1,1,+*%
%TO.N,/BATT*%
X121400000Y-114950000D03*
D17*
%TO.P,BT1,2,-*%
%TO.N,GND*%
X121400000Y-94150000D03*
%TD*%
D20*
%TO.P,J4,1,Pin_1*%
%TO.N,+5VP*%
X118525000Y-136300000D03*
D21*
%TO.P,J4,2,Pin_2*%
%TO.N,/FLOW2_CONN*%
X121025000Y-136300000D03*
%TO.P,J4,3,Pin_3*%
%TO.N,GND*%
X123525000Y-136300000D03*
%TD*%
D23*
%TO.P,R7,1*%
%TO.N,+3.3V*%
X119062500Y-128675000D03*
%TO.P,R7,2*%
%TO.N,/FLOW2_PROT*%
X120887500Y-128675000D03*
%TD*%
D24*
%TO.P,R4,1*%
%TO.N,+3.3V*%
X134387500Y-128775000D03*
%TO.P,R4,2*%
%TO.N,/FLOW1_PROT*%
X132562500Y-128775000D03*
%TD*%
D25*
%TO.P,Y1,1,1*%
%TO.N,Net-(U3-X1)*%
X118545000Y-91320000D03*
%TO.P,Y1,2,2*%
%TO.N,Net-(U3-X2)*%
X116005000Y-91320000D03*
%TD*%
D10*
%TO.P,R16,1*%
%TO.N,+3.3V*%
X130975000Y-103612500D03*
%TO.P,R16,2*%
%TO.N,/SDA*%
X130975000Y-105437500D03*
%TD*%
%TO.P,R1,1*%
%TO.N,/FLOW1_PROT*%
X132500000Y-130887500D03*
%TO.P,R1,2*%
%TO.N,/FLOW1_CONN*%
X132500000Y-132712500D03*
%TD*%
D26*
%TO.P,C3,1*%
%TO.N,/FLOW2_PROT*%
X111200000Y-84575000D03*
%TO.P,C3,2*%
%TO.N,GND*%
X113100000Y-84575000D03*
%TD*%
D10*
%TO.P,R9,1*%
%TO.N,/FLOW2_PROT*%
X120875000Y-131037500D03*
%TO.P,R9,2*%
%TO.N,/FLOW2_CONN*%
X120875000Y-132862500D03*
%TD*%
%TO.P,R5,1*%
%TO.N,+5VR*%
X120475000Y-64887500D03*
%TO.P,R5,2*%
%TO.N,Net-(D4-A)*%
X120475000Y-66712500D03*
%TD*%
D27*
%TO.P,F2,1*%
%TO.N,+5V*%
X130325000Y-62750000D03*
%TO.P,F2,2*%
%TO.N,+5VR*%
X130325000Y-65900000D03*
%TD*%
D28*
%TO.P,U4,1,32KHZ*%
%TO.N,unconnected-(U4-32KHZ-Pad1)*%
X118300000Y-110095000D03*
%TO.P,U4,2,VCC*%
%TO.N,+3.3V*%
X118300000Y-108825000D03*
%TO.P,U4,3,~{INT}/SQW*%
%TO.N,unconnected-(U4-~{INT}{slash}SQW-Pad3)*%
X118300000Y-107555000D03*
%TO.P,U4,4,~{RST}*%
%TO.N,unconnected-(U4-~{RST}-Pad4)*%
X118300000Y-106285000D03*
%TO.P,U4,5,GND*%
%TO.N,GND*%
X118300000Y-105015000D03*
%TO.P,U4,6,GND*%
X118300000Y-103745000D03*
%TO.P,U4,7,GND*%
X118300000Y-102475000D03*
%TO.P,U4,8,GND*%
X118300000Y-101205000D03*
%TO.P,U4,9,GND*%
X127600000Y-101205000D03*
%TO.P,U4,10,GND*%
X127600000Y-102475000D03*
%TO.P,U4,11,GND*%
X127600000Y-103745000D03*
%TO.P,U4,12,GND*%
X127600000Y-105015000D03*
%TO.P,U4,13,GND*%
X127600000Y-106285000D03*
%TO.P,U4,14,VBAT*%
%TO.N,/BATT*%
X127600000Y-107555000D03*
%TO.P,U4,15,SDA*%
%TO.N,/SDA*%
X127600000Y-108825000D03*
%TO.P,U4,16,SCL*%
%TO.N,/SCL*%
X127600000Y-110095000D03*
%TD*%
D29*
%TO.P,D2,1,K*%
%TO.N,/FLOW1_CONN*%
X133900000Y-132725000D03*
%TO.P,D2,2,A*%
%TO.N,GND*%
X134600000Y-132725000D03*
%TD*%
D30*
%TO.P,C1,1*%
%TO.N,+5VP*%
X126525000Y-134375000D03*
%TO.P,C1,2*%
%TO.N,GND*%
X126525000Y-136275000D03*
%TD*%
D31*
%TO.P,C5,1*%
%TO.N,+5VP*%
X118650000Y-132975000D03*
%TO.P,C5,2*%
%TO.N,GND*%
X118650000Y-131075000D03*
%TD*%
D30*
%TO.P,C4,1*%
%TO.N,+5VR*%
X125075000Y-64850000D03*
%TO.P,C4,2*%
%TO.N,GND*%
X125075000Y-66750000D03*
%TD*%
D32*
%TO.P,R3,1*%
%TO.N,+5VP*%
X130275000Y-132662500D03*
%TO.P,R3,2*%
%TO.N,Net-(D1-A)*%
X130275000Y-130837500D03*
%TD*%
D23*
%TO.P,R2,1*%
%TO.N,/FLOW1_MCU*%
X111312500Y-89450000D03*
%TO.P,R2,2*%
%TO.N,/FLOW1_PROT*%
X113137500Y-89450000D03*
%TD*%
D33*
%TO.P,U3,1,X1*%
%TO.N,Net-(U3-X1)*%
X117250000Y-89362500D03*
%TO.P,U3,2,X2*%
%TO.N,Net-(U3-X2)*%
X117250000Y-88092500D03*
%TO.P,U3,3,VBAT*%
%TO.N,/BATT*%
X117250000Y-86822500D03*
%TO.P,U3,4,GND*%
%TO.N,GND*%
X117250000Y-85552500D03*
%TO.P,U3,5,SDA*%
%TO.N,/SDA*%
X122200000Y-85552500D03*
%TO.P,U3,6,SCL*%
%TO.N,/SCL*%
X122200000Y-86822500D03*
%TO.P,U3,7,SQW/OUT*%
%TO.N,unconnected-(U3-SQW{slash}OUT-Pad7)*%
X122200000Y-88092500D03*
%TO.P,U3,8,VCC*%
%TO.N,+5V*%
X122200000Y-89362500D03*
%TD*%
D29*
%TO.P,D5,1,K*%
%TO.N,/FLOW2_CONN*%
X122700000Y-132975000D03*
%TO.P,D5,2,A*%
%TO.N,GND*%
X123400000Y-132975000D03*
%TD*%
D23*
%TO.P,R6,1*%
%TO.N,/FLOW2_MCU*%
X111237500Y-86750000D03*
%TO.P,R6,2*%
%TO.N,/FLOW2_PROT*%
X113062500Y-86750000D03*
%TD*%
D32*
%TO.P,R8,1*%
%TO.N,+5VP*%
X116575000Y-132962500D03*
%TO.P,R8,2*%
%TO.N,Net-(D3-A)*%
X116575000Y-131137500D03*
%TD*%
D27*
%TO.P,F1,1*%
%TO.N,+5V*%
X126425000Y-128700000D03*
%TO.P,F1,2*%
%TO.N,+5VP*%
X126425000Y-131850000D03*
%TD*%
D34*
%TO.P,U1,1,I1*%
%TO.N,/RELAY1_MCU*%
X108500000Y-73487500D03*
%TO.P,U1,2,I2*%
%TO.N,unconnected-(U1-I2-Pad2)*%
X108500000Y-72217500D03*
%TO.P,U1,3,I3*%
%TO.N,unconnected-(U1-I3-Pad3)*%
X108500000Y-70947500D03*
%TO.P,U1,4,I4*%
%TO.N,unconnected-(U1-I4-Pad4)*%
X108500000Y-69677500D03*
%TO.P,U1,5,I5*%
%TO.N,unconnected-(U1-I5-Pad5)*%
X108500000Y-68407500D03*
%TO.P,U1,6,I6*%
%TO.N,unconnected-(U1-I6-Pad6)*%
X108500000Y-67137500D03*
%TO.P,U1,7,I7*%
%TO.N,unconnected-(U1-I7-Pad7)*%
X108500000Y-65867500D03*
%TO.P,U1,8,GND*%
%TO.N,GND*%
X108500000Y-64597500D03*
%TO.P,U1,9,COM*%
%TO.N,+5VR*%
X115000000Y-64597500D03*
%TO.P,U1,10,O7*%
%TO.N,unconnected-(U1-O7-Pad10)*%
X115000000Y-65867500D03*
%TO.P,U1,11,O6*%
%TO.N,unconnected-(U1-O6-Pad11)*%
X115000000Y-67137500D03*
%TO.P,U1,12,O5*%
%TO.N,unconnected-(U1-O5-Pad12)*%
X115000000Y-68407500D03*
%TO.P,U1,13,O4*%
%TO.N,unconnected-(U1-O4-Pad13)*%
X115000000Y-69677500D03*
%TO.P,U1,14,O3*%
%TO.N,unconnected-(U1-O3-Pad14)*%
X115000000Y-70947500D03*
%TO.P,U1,15,O2*%
%TO.N,unconnected-(U1-O2-Pad15)*%
X115000000Y-72217500D03*
%TO.P,U1,16,O1*%
%TO.N,Net-(D4-K)*%
X115000000Y-73487500D03*
%TD*%
D26*
%TO.P,C2,1*%
%TO.N,/FLOW1_PROT*%
X111325000Y-91775000D03*
%TO.P,C2,2*%
%TO.N,GND*%
X113225000Y-91775000D03*
%TD*%
D35*
%TO.N,GND*%
X124800000Y-82175000D03*
X126025000Y-82175000D03*
X124800000Y-81200000D03*
X126000000Y-81200000D03*
X128375000Y-70850000D03*
X129600000Y-70850000D03*
X128375000Y-69875000D03*
X129575000Y-69875000D03*
X120975000Y-70900000D03*
X122200000Y-70900000D03*
X120975000Y-69925000D03*
X122175000Y-69925000D03*
X110700000Y-125350000D03*
X128375000Y-138075000D03*
X131200000Y-97750000D03*
X112800000Y-93725000D03*
X129175000Y-121375000D03*
X130325000Y-121375000D03*
X108575000Y-63150000D03*
X133550000Y-97700000D03*
X110325000Y-63150000D03*
X117475000Y-128525000D03*
X111800000Y-64375000D03*
X117925000Y-83425000D03*
X112725000Y-124325000D03*
X121900000Y-121975000D03*
X128575000Y-114150000D03*
X115075000Y-124275000D03*
X127950000Y-121375000D03*
X108125000Y-97800000D03*
X121925000Y-122950000D03*
X122750000Y-129325000D03*
X108325000Y-124375000D03*
X130300000Y-120350000D03*
X109550000Y-125350000D03*
X123975000Y-129325000D03*
X120700000Y-122950000D03*
X110675000Y-124325000D03*
X123075000Y-122950000D03*
X126200000Y-113175000D03*
X128725000Y-129275000D03*
X127225000Y-138125000D03*
X113925000Y-124325000D03*
X110500000Y-98775000D03*
X108325000Y-125350000D03*
X126200000Y-114150000D03*
X116700000Y-82450000D03*
X113950000Y-125300000D03*
X128725000Y-128300000D03*
X123050000Y-121925000D03*
X111775000Y-63125000D03*
X112725000Y-125300000D03*
X108125000Y-98775000D03*
X128550000Y-113125000D03*
X115100000Y-125300000D03*
X129150000Y-120400000D03*
X131200000Y-98725000D03*
X132400000Y-97750000D03*
X109325000Y-97800000D03*
X117900000Y-82450000D03*
X122750000Y-128350000D03*
X111800000Y-65625000D03*
X120700000Y-121975000D03*
X126025000Y-138125000D03*
X127400000Y-113175000D03*
X109525000Y-124375000D03*
X109350000Y-98775000D03*
X127425000Y-114150000D03*
X133575000Y-98725000D03*
X127950000Y-120400000D03*
X112650000Y-92875000D03*
X132425000Y-98725000D03*
X123950000Y-128350000D03*
X110475000Y-97750000D03*
X116700000Y-83425000D03*
%TO.N,+3.3V*%
X119100000Y-126750000D03*
X134450000Y-126750000D03*
%TO.N,Net-(D1-A)*%
X130300000Y-129775000D03*
%TO.N,/FLOW1_PROT*%
X131475000Y-131025000D03*
%TO.N,Net-(D4-A)*%
X120450000Y-68300000D03*
%TO.N,Net-(D4-K)*%
X118375000Y-69275000D03*
%TO.N,+5V*%
X119475000Y-81975000D03*
%TO.N,/RELAY1_MCU*%
X128475000Y-83025000D03*
X128425000Y-87325000D03*
%TO.N,/BATT*%
X125525000Y-107425000D03*
X123225000Y-107425000D03*
%TO.N,Net-(D3-A)*%
X116575000Y-130025000D03*
X116575000Y-130025000D03*
X116575000Y-130025000D03*
%TO.N,/FLOW2_PROT*%
X122250000Y-131175000D03*
X115225000Y-120350000D03*
X115275000Y-115600000D03*
%TD*%
D36*
%TO.N,GND*%
X118100000Y-130525000D02*
X118100000Y-130075000D01*
D37*
X113225000Y-92300000D02*
X113225000Y-91775000D01*
D36*
X112650000Y-92875000D02*
X113225000Y-92300000D01*
D37*
X133125000Y-65250000D02*
X134225000Y-65250000D01*
X117475000Y-129450000D02*
X117475000Y-128525000D01*
X118100000Y-130075000D02*
X117475000Y-129450000D01*
D36*
X118650000Y-131075000D02*
X118100000Y-130525000D01*
D37*
X134225000Y-65250000D02*
X134400000Y-65425000D01*
D36*
%TO.N,+3.3V*%
X131812500Y-113887500D02*
X131800000Y-113900000D01*
X131800000Y-113900000D02*
X131800000Y-111150000D01*
X131825000Y-111150000D02*
X134600000Y-108375000D01*
X119062500Y-128675000D02*
X119062500Y-126787500D01*
X115900000Y-111325000D02*
X115900000Y-114600000D01*
X118300000Y-108825000D02*
X117000000Y-108825000D01*
X119062500Y-126787500D02*
X119100000Y-126750000D01*
X133550000Y-114660000D02*
X133550000Y-125850000D01*
X115900000Y-114600000D02*
X118950000Y-117650000D01*
X134387500Y-126812500D02*
X134387500Y-128775000D01*
X134600000Y-104075000D02*
X134025000Y-103500000D01*
X131800000Y-111150000D02*
X131825000Y-111150000D01*
X133550000Y-114660000D02*
X132585000Y-114660000D01*
X132585000Y-114660000D02*
X131812500Y-113887500D01*
X134450000Y-126750000D02*
X134387500Y-126812500D01*
X134600000Y-108375000D02*
X134600000Y-104075000D01*
X118950000Y-117650000D02*
X130560000Y-117650000D01*
X133550000Y-125850000D02*
X134450000Y-126750000D01*
X130560000Y-117650000D02*
X133550000Y-114660000D01*
X134025000Y-103500000D02*
X133125000Y-103500000D01*
X115975000Y-109850000D02*
X115975000Y-111250000D01*
X117000000Y-108825000D02*
X115975000Y-109850000D01*
X130975000Y-103612500D02*
X133012500Y-103612500D01*
X133012500Y-103612500D02*
X133125000Y-103500000D01*
X115975000Y-111250000D02*
X115900000Y-111325000D01*
%TO.N,+5VP*%
X126525000Y-134375000D02*
X128800000Y-134375000D01*
X118525000Y-136300000D02*
X118525000Y-133100000D01*
X130275000Y-136125000D02*
X130175000Y-136225000D01*
X125000000Y-137525000D02*
X125000000Y-135125000D01*
X130175000Y-135750000D02*
X130175000Y-136225000D01*
X130275000Y-132662500D02*
X130275000Y-136125000D01*
X116587500Y-132975000D02*
X116575000Y-132962500D01*
X118525000Y-133100000D02*
X118650000Y-132975000D01*
X126525000Y-131950000D02*
X126425000Y-131850000D01*
X118650000Y-132975000D02*
X116587500Y-132975000D01*
X128800000Y-134375000D02*
X130175000Y-135750000D01*
X118525000Y-136300000D02*
X118525000Y-137500000D01*
X125000000Y-135125000D02*
X125750000Y-134375000D01*
X124525000Y-138000000D02*
X125000000Y-137525000D01*
X126525000Y-134375000D02*
X126525000Y-131950000D01*
X119025000Y-138000000D02*
X124525000Y-138000000D01*
X130150000Y-136200000D02*
X130175000Y-136225000D01*
X125750000Y-134375000D02*
X126525000Y-134375000D01*
X118525000Y-137500000D02*
X119025000Y-138000000D01*
%TO.N,Net-(D1-A)*%
X130300000Y-129775000D02*
X130300000Y-130812500D01*
X130300000Y-130812500D02*
X130275000Y-130837500D01*
%TO.N,/FLOW1_PROT*%
X131475000Y-131025000D02*
X132362500Y-131025000D01*
X132562500Y-119662500D02*
X132562500Y-128775000D01*
X111325000Y-93875000D02*
X112600000Y-95150000D01*
X112600000Y-114525000D02*
X116625000Y-118550000D01*
D37*
X113012500Y-90012500D02*
X113012500Y-89450000D01*
D36*
X111325000Y-91775000D02*
X111325000Y-93875000D01*
X132362500Y-131025000D02*
X132500000Y-130887500D01*
X132500000Y-128837500D02*
X132562500Y-128775000D01*
X116625000Y-118550000D02*
X131450000Y-118550000D01*
X112600000Y-95150000D02*
X112600000Y-114525000D01*
X131450000Y-118550000D02*
X132562500Y-119662500D01*
X111225000Y-91800000D02*
X113012500Y-90012500D01*
X132500000Y-130887500D02*
X132500000Y-128837500D01*
%TO.N,Net-(D4-A)*%
X120450000Y-68300000D02*
X120450000Y-66737500D01*
X120450000Y-66737500D02*
X120475000Y-66712500D01*
D38*
%TO.N,+5VR*%
X130325000Y-65900000D02*
X130325000Y-65375000D01*
X129775000Y-64825000D02*
X127350000Y-64825000D01*
X128850000Y-57750000D02*
X132725000Y-57750000D01*
D36*
X124250000Y-64850000D02*
X124212500Y-64887500D01*
D38*
X127250000Y-64825000D02*
X127225000Y-64850000D01*
D36*
X118262500Y-64887500D02*
X117972500Y-64597500D01*
X120475000Y-64887500D02*
X118262500Y-64887500D01*
X123550000Y-64850000D02*
X124250000Y-64850000D01*
D38*
X127350000Y-59250000D02*
X128850000Y-57750000D01*
X127225000Y-64850000D02*
X125075000Y-64850000D01*
X127350000Y-64825000D02*
X127250000Y-64825000D01*
D36*
X124212500Y-64887500D02*
X120475000Y-64887500D01*
D38*
X127350000Y-64825000D02*
X127350000Y-59250000D01*
D36*
X117972500Y-64597500D02*
X115000000Y-64597500D01*
X124250000Y-64850000D02*
X125075000Y-64850000D01*
D38*
X130325000Y-65375000D02*
X129775000Y-64825000D01*
D36*
%TO.N,/FLOW1_CONN*%
X132675000Y-132887500D02*
X132500000Y-132712500D01*
D37*
X133887500Y-132712500D02*
X133900000Y-132725000D01*
D36*
X132675000Y-136225000D02*
X132675000Y-132887500D01*
X132500000Y-132712500D02*
X133887500Y-132712500D01*
%TO.N,Net-(D4-K)*%
X118375000Y-72225000D02*
X118375000Y-69275000D01*
X117112500Y-73487500D02*
X118375000Y-72225000D01*
X115000000Y-73487500D02*
X117112500Y-73487500D01*
D38*
%TO.N,Net-(J2-Pin_1)*%
X113025000Y-56025000D02*
X111250000Y-56025000D01*
X117425000Y-51625000D02*
X113025000Y-56025000D01*
X120525000Y-45750000D02*
X120525000Y-48500000D01*
X117425000Y-51600000D02*
X117425000Y-51625000D01*
X120525000Y-48500000D02*
X117425000Y-51600000D01*
%TO.N,Net-(J2-Pin_2)*%
X114976000Y-58324000D02*
X113060372Y-58324000D01*
X113060372Y-58324000D02*
X112859372Y-58525000D01*
X112859372Y-58525000D02*
X111250000Y-58525000D01*
X116875000Y-56400000D02*
X116875000Y-56425000D01*
X116875000Y-56425000D02*
X114976000Y-58324000D01*
X121475000Y-51800000D02*
X116875000Y-56400000D01*
X134675000Y-51800000D02*
X121475000Y-51800000D01*
D36*
%TO.N,+5V*%
X126425000Y-128700000D02*
X126425000Y-122200000D01*
D38*
X133125000Y-63250000D02*
X134075000Y-63250000D01*
D36*
X120100000Y-87350000D02*
X119475000Y-86725000D01*
D38*
X134075000Y-63250000D02*
X134400000Y-62925000D01*
D36*
X115400000Y-119425000D02*
X110635000Y-114660000D01*
X122200000Y-89362500D02*
X120587500Y-89362500D01*
D38*
X133125000Y-63025000D02*
X132850000Y-62750000D01*
D36*
X123650000Y-119425000D02*
X126425000Y-122200000D01*
X120100000Y-88875000D02*
X120100000Y-87350000D01*
X123650000Y-119425000D02*
X115400000Y-119425000D01*
X119475000Y-86725000D02*
X119475000Y-81975000D01*
X110635000Y-114660000D02*
X108550000Y-114660000D01*
D38*
X132850000Y-62750000D02*
X130325000Y-62750000D01*
D36*
X120587500Y-89362500D02*
X120100000Y-88875000D01*
D38*
X133125000Y-63250000D02*
X133125000Y-63025000D01*
D37*
%TO.N,/FLOW1_MCU*%
X108710000Y-89450000D02*
X108525000Y-89265000D01*
D36*
X111187500Y-89450000D02*
X108710000Y-89450000D01*
%TO.N,/RELAY1_MCU*%
X128425000Y-90475000D02*
X128425000Y-87325000D01*
X129775000Y-91825000D02*
X128425000Y-90475000D01*
X128475000Y-83025000D02*
X128475000Y-79500000D01*
X133525000Y-91825000D02*
X129775000Y-91825000D01*
X108500000Y-73487500D02*
X108500000Y-75775000D01*
X108500000Y-75775000D02*
X109950000Y-77225000D01*
X109950000Y-77225000D02*
X126200000Y-77225000D01*
X128475000Y-79500000D02*
X126200000Y-77225000D01*
%TO.N,/SCL*%
X131505000Y-110095000D02*
X133137500Y-108462500D01*
X125525000Y-98425000D02*
X125525000Y-88745000D01*
X125125000Y-109975000D02*
X124073000Y-108923000D01*
X127600000Y-110095000D02*
X131505000Y-110095000D01*
X132025000Y-81650000D02*
X133500000Y-81650000D01*
X133125000Y-108450000D02*
X133125000Y-105325000D01*
X124073000Y-108923000D02*
X124073000Y-99877000D01*
X127600000Y-110095000D02*
X125295000Y-110095000D01*
X125525000Y-88745000D02*
X123602500Y-86822500D01*
X122200000Y-86822500D02*
X121072500Y-86822500D01*
X121072500Y-86822500D02*
X120375000Y-86125000D01*
X133137500Y-108462500D02*
X133125000Y-108450000D01*
X120375000Y-86125000D02*
X120375000Y-84700000D01*
X120375000Y-84700000D02*
X121025000Y-84050000D01*
X129625000Y-84050000D02*
X132025000Y-81650000D01*
X121025000Y-84050000D02*
X129625000Y-84050000D01*
X123602500Y-86822500D02*
X122200000Y-86822500D01*
X124073000Y-99877000D02*
X125525000Y-98425000D01*
%TO.N,/SDA*%
X130975000Y-86625000D02*
X130975000Y-88665000D01*
X129902500Y-85552500D02*
X130975000Y-86625000D01*
X126800000Y-98550000D02*
X126800000Y-87000000D01*
X125352500Y-85552500D02*
X125225000Y-85552500D01*
X124850000Y-107925000D02*
X124850000Y-107812075D01*
X124774000Y-107736075D02*
X124774000Y-107113925D01*
X124850000Y-100500000D02*
X126800000Y-98550000D01*
X126800000Y-87000000D02*
X125352500Y-85552500D01*
X124774000Y-107113925D02*
X124850000Y-107037925D01*
X130975000Y-107750000D02*
X130975000Y-105437500D01*
X124850000Y-107812075D02*
X124774000Y-107736075D01*
X124477500Y-85552500D02*
X124225000Y-85552500D01*
X127600000Y-108825000D02*
X129900000Y-108825000D01*
X127600000Y-108825000D02*
X125750000Y-108825000D01*
X129900000Y-108825000D02*
X130975000Y-107750000D01*
X124225000Y-85552500D02*
X122200000Y-85552500D01*
X125750000Y-108825000D02*
X124850000Y-107925000D01*
X125225000Y-85552500D02*
X129902500Y-85552500D01*
X124850000Y-107037925D02*
X124850000Y-100500000D01*
X130975000Y-88665000D02*
X131575000Y-89265000D01*
X124225000Y-85552500D02*
X125225000Y-85552500D01*
X133525000Y-89265000D02*
X131575000Y-89265000D01*
%TO.N,/BATT*%
X122300000Y-107425000D02*
X123225000Y-107425000D01*
X124100000Y-98525000D02*
X122300000Y-100325000D01*
X121400000Y-108325000D02*
X121600000Y-108125000D01*
X117250000Y-86822500D02*
X118122500Y-86822500D01*
X119000000Y-89800000D02*
X119750000Y-90550000D01*
X121600000Y-108125000D02*
X122300000Y-107425000D01*
X122300000Y-100325000D02*
X122300000Y-107425000D01*
X118122500Y-86822500D02*
X119000000Y-87700000D01*
X119750000Y-90550000D02*
X122375000Y-90550000D01*
X121400000Y-109075000D02*
X121400000Y-108325000D01*
X125655000Y-107555000D02*
X127600000Y-107555000D01*
X119000000Y-87700000D02*
X119000000Y-89800000D01*
X122375000Y-90550000D02*
X124100000Y-92275000D01*
X124100000Y-92275000D02*
X124100000Y-98525000D01*
X125525000Y-107425000D02*
X125655000Y-107555000D01*
X121400000Y-114950000D02*
X121400000Y-109075000D01*
%TO.N,Net-(U3-X2)*%
X115992500Y-88092500D02*
X117250000Y-88092500D01*
X115505001Y-90820001D02*
X115505001Y-88544999D01*
X115975000Y-88075000D02*
X115992500Y-88092500D01*
X115505001Y-88544999D02*
X115975000Y-88075000D01*
X116005000Y-91320000D02*
X115505001Y-90820001D01*
%TO.N,Net-(U3-X1)*%
X117587500Y-91012500D02*
X117587500Y-89700000D01*
X117895000Y-91320000D02*
X117587500Y-91012500D01*
X117587500Y-89700000D02*
X117250000Y-89362500D01*
X118545000Y-91320000D02*
X117895000Y-91320000D01*
%TO.N,Net-(D3-A)*%
X116575000Y-130025000D02*
X116575000Y-131137500D01*
%TO.N,/FLOW2_MCU*%
X108475000Y-86725000D02*
X111212500Y-86725000D01*
X111212500Y-86725000D02*
X111237500Y-86750000D01*
%TO.N,/FLOW2_PROT*%
X111200000Y-84575000D02*
X113062500Y-86437500D01*
X120887500Y-126012500D02*
X120887500Y-128675000D01*
X114275000Y-112700000D02*
X114350000Y-112775000D01*
X113825000Y-86825000D02*
X114275000Y-87275000D01*
X120875000Y-131037500D02*
X120875000Y-128687500D01*
X115275000Y-115500000D02*
X115275000Y-115600000D01*
X114275000Y-114500000D02*
X115275000Y-115500000D01*
X114275000Y-87275000D02*
X114275000Y-112700000D01*
X122250000Y-131175000D02*
X121012500Y-131175000D01*
X113062500Y-86750000D02*
X113137500Y-86825000D01*
X113137500Y-86825000D02*
X113825000Y-86825000D01*
D37*
X113062500Y-86437500D02*
X113062500Y-86750000D01*
D36*
X115225000Y-120350000D02*
X120887500Y-126012500D01*
X114350000Y-112775000D02*
X114275000Y-112850000D01*
X114275000Y-112850000D02*
X114275000Y-114500000D01*
X121012500Y-131175000D02*
X120875000Y-131037500D01*
X120875000Y-128687500D02*
X120887500Y-128675000D01*
%TO.N,/FLOW2_CONN*%
X121025000Y-133012500D02*
X120875000Y-132862500D01*
X120987500Y-132975000D02*
X120875000Y-132862500D01*
X122700000Y-132975000D02*
X120987500Y-132975000D01*
X121025000Y-136300000D02*
X121025000Y-133012500D01*
%TD*%
%TA.AperFunction,Conductor*%
%TO.N,GND*%
G36*
X107280703Y-115341279D02*
G01*
X107299817Y-115362106D01*
X107310586Y-115376928D01*
X107433072Y-115499414D01*
X107573212Y-115601232D01*
X107727555Y-115679873D01*
X107892299Y-115733402D01*
X108063389Y-115760500D01*
X108063390Y-115760500D01*
X109036610Y-115760500D01*
X109036611Y-115760500D01*
X109207701Y-115733402D01*
X109372445Y-115679873D01*
X109526788Y-115601232D01*
X109666928Y-115499414D01*
X109719523Y-115446819D01*
X109780846Y-115413334D01*
X109807204Y-115410500D01*
X110272770Y-115410500D01*
X110339809Y-115430185D01*
X110360451Y-115446819D01*
X114591414Y-119677781D01*
X114624899Y-119739104D01*
X114619915Y-119808796D01*
X114605484Y-119833903D01*
X114606595Y-119834646D01*
X114515609Y-119970814D01*
X114515602Y-119970827D01*
X114455264Y-120116498D01*
X114455261Y-120116510D01*
X114424500Y-120271153D01*
X114424500Y-120428846D01*
X114455261Y-120583489D01*
X114455264Y-120583501D01*
X114515602Y-120729172D01*
X114515609Y-120729185D01*
X114603210Y-120860288D01*
X114603213Y-120860292D01*
X114714710Y-120971789D01*
X114845815Y-121059390D01*
X114845821Y-121059394D01*
X114869475Y-121069191D01*
X114909703Y-121096071D01*
X119719243Y-125905610D01*
X119752728Y-125966933D01*
X119747744Y-126036625D01*
X119705872Y-126092558D01*
X119640408Y-126116975D01*
X119572135Y-126102123D01*
X119562671Y-126096393D01*
X119479185Y-126040609D01*
X119479172Y-126040602D01*
X119333501Y-125980264D01*
X119333489Y-125980261D01*
X119178845Y-125949500D01*
X119178842Y-125949500D01*
X119021158Y-125949500D01*
X119021155Y-125949500D01*
X118866510Y-125980261D01*
X118866498Y-125980264D01*
X118720827Y-126040602D01*
X118720814Y-126040609D01*
X118589711Y-126128210D01*
X118589707Y-126128213D01*
X118478213Y-126239707D01*
X118478210Y-126239711D01*
X118390609Y-126370814D01*
X118390602Y-126370827D01*
X118330264Y-126516498D01*
X118330261Y-126516510D01*
X118299500Y-126671153D01*
X118299500Y-126828843D01*
X118309617Y-126879701D01*
X118312000Y-126903894D01*
X118312000Y-127600270D01*
X118292315Y-127667309D01*
X118275681Y-127687951D01*
X118207289Y-127756342D01*
X118115187Y-127905663D01*
X118115185Y-127905668D01*
X118098393Y-127956344D01*
X118060001Y-128072203D01*
X118060001Y-128072204D01*
X118060000Y-128072204D01*
X118049500Y-128174983D01*
X118049500Y-129175001D01*
X118049501Y-129175019D01*
X118060000Y-129277796D01*
X118060001Y-129277799D01*
X118093137Y-129377795D01*
X118115186Y-129444334D01*
X118207288Y-129593656D01*
X118331344Y-129717712D01*
X118480666Y-129809814D01*
X118551528Y-129833295D01*
X118608971Y-129873066D01*
X118635795Y-129937582D01*
X118623480Y-130006358D01*
X118575938Y-130057558D01*
X118512523Y-130075000D01*
X118125028Y-130075000D01*
X118125012Y-130075001D01*
X118022302Y-130085494D01*
X117855880Y-130140641D01*
X117855875Y-130140643D01*
X117706654Y-130232684D01*
X117662931Y-130276407D01*
X117636128Y-130291042D01*
X117610469Y-130307619D01*
X117605748Y-130307630D01*
X117601608Y-130309891D01*
X117571150Y-130307712D01*
X117540600Y-130307785D01*
X117535516Y-130305163D01*
X117531916Y-130304906D01*
X117508460Y-130293200D01*
X117497669Y-130286301D01*
X117493656Y-130282288D01*
X117429285Y-130242583D01*
X117428430Y-130242037D01*
X117406112Y-130216404D01*
X117383399Y-130191152D01*
X117383231Y-130190125D01*
X117382550Y-130189342D01*
X117377632Y-130155710D01*
X117372178Y-130122189D01*
X117372468Y-130120394D01*
X117372441Y-130120208D01*
X117372530Y-130120011D01*
X117373604Y-130113373D01*
X117375500Y-130103842D01*
X117375500Y-129946158D01*
X117375500Y-129946155D01*
X117375499Y-129946153D01*
X117368270Y-129909812D01*
X117344737Y-129791503D01*
X117322257Y-129737230D01*
X117284397Y-129645827D01*
X117284390Y-129645814D01*
X117196789Y-129514711D01*
X117196786Y-129514707D01*
X117085292Y-129403213D01*
X117085288Y-129403210D01*
X116954185Y-129315609D01*
X116954172Y-129315602D01*
X116808501Y-129255264D01*
X116808489Y-129255261D01*
X116653845Y-129224500D01*
X116653842Y-129224500D01*
X116496158Y-129224500D01*
X116496155Y-129224500D01*
X116341510Y-129255261D01*
X116341498Y-129255264D01*
X116195827Y-129315602D01*
X116195814Y-129315609D01*
X116064711Y-129403210D01*
X116064707Y-129403213D01*
X115953213Y-129514707D01*
X115953210Y-129514711D01*
X115865609Y-129645814D01*
X115865602Y-129645827D01*
X115805264Y-129791498D01*
X115805261Y-129791510D01*
X115774500Y-129946153D01*
X115774500Y-129946158D01*
X115774500Y-130103842D01*
X115776396Y-130113373D01*
X115770167Y-130182964D01*
X115727304Y-130238141D01*
X115719875Y-130243101D01*
X115656347Y-130282285D01*
X115656343Y-130282288D01*
X115532289Y-130406342D01*
X115440187Y-130555663D01*
X115440186Y-130555666D01*
X115385001Y-130722203D01*
X115385001Y-130722204D01*
X115385000Y-130722204D01*
X115374500Y-130824983D01*
X115374500Y-131450001D01*
X115374501Y-131450019D01*
X115385000Y-131552796D01*
X115385001Y-131552799D01*
X115440185Y-131719331D01*
X115440187Y-131719336D01*
X115459101Y-131750000D01*
X115525276Y-131857288D01*
X115532289Y-131868657D01*
X115625951Y-131962319D01*
X115659436Y-132023642D01*
X115654452Y-132093334D01*
X115625951Y-132137681D01*
X115532289Y-132231342D01*
X115440187Y-132380663D01*
X115440185Y-132380668D01*
X115432898Y-132402660D01*
X115385001Y-132547203D01*
X115385001Y-132547204D01*
X115385000Y-132547204D01*
X115374500Y-132649983D01*
X115374500Y-133275001D01*
X115374501Y-133275019D01*
X115385000Y-133377796D01*
X115385001Y-133377799D01*
X115440185Y-133544331D01*
X115440187Y-133544336D01*
X115458586Y-133574165D01*
X115532288Y-133693656D01*
X115656344Y-133817712D01*
X115805666Y-133909814D01*
X115972203Y-133964999D01*
X116074991Y-133975500D01*
X117075008Y-133975499D01*
X117075016Y-133975498D01*
X117075019Y-133975498D01*
X117131302Y-133969748D01*
X117177797Y-133964999D01*
X117344334Y-133909814D01*
X117493656Y-133817712D01*
X117512319Y-133799049D01*
X117515346Y-133797395D01*
X117517162Y-133794459D01*
X117545799Y-133780767D01*
X117573642Y-133765564D01*
X117577083Y-133765810D01*
X117580198Y-133764321D01*
X117611688Y-133768284D01*
X117643334Y-133770548D01*
X117647109Y-133772743D01*
X117649520Y-133773047D01*
X117660520Y-133780542D01*
X117679542Y-133791604D01*
X117683778Y-133795146D01*
X117706344Y-133817712D01*
X117723194Y-133828105D01*
X117730042Y-133833831D01*
X117744683Y-133855756D01*
X117762318Y-133875360D01*
X117764662Y-133885673D01*
X117768844Y-133891936D01*
X117769075Y-133905090D01*
X117774500Y-133928957D01*
X117774500Y-134744699D01*
X117754815Y-134811738D01*
X117702011Y-134857493D01*
X117689507Y-134862403D01*
X117683317Y-134864455D01*
X117605668Y-134890185D01*
X117605663Y-134890187D01*
X117456342Y-134982289D01*
X117332289Y-135106342D01*
X117240187Y-135255663D01*
X117240185Y-135255668D01*
X117235325Y-135270334D01*
X117185001Y-135422203D01*
X117185001Y-135422204D01*
X117185000Y-135422204D01*
X117174500Y-135524983D01*
X117174500Y-137075001D01*
X117174501Y-137075018D01*
X117185000Y-137177796D01*
X117185001Y-137177799D01*
X117231922Y-137319394D01*
X117240186Y-137344334D01*
X117332288Y-137493656D01*
X117456344Y-137617712D01*
X117605666Y-137709814D01*
X117772203Y-137764999D01*
X117772207Y-137764999D01*
X117776573Y-137766446D01*
X117798751Y-137781801D01*
X117822772Y-137794061D01*
X117828523Y-137802413D01*
X117834018Y-137806218D01*
X117844702Y-137821714D01*
X117848923Y-137828958D01*
X117859916Y-137855495D01*
X117892813Y-137904729D01*
X117894925Y-137907890D01*
X117894935Y-137907907D01*
X117942046Y-137978414D01*
X117942052Y-137978421D01*
X118426451Y-138462819D01*
X118459936Y-138524142D01*
X118454952Y-138593833D01*
X118413081Y-138649767D01*
X118347616Y-138674184D01*
X118338770Y-138674500D01*
X112542771Y-138674500D01*
X112475732Y-138654815D01*
X112429977Y-138602011D01*
X112420033Y-138532853D01*
X112449058Y-138469297D01*
X112501816Y-138433459D01*
X112655647Y-138379630D01*
X112754229Y-138345135D01*
X113032565Y-138211095D01*
X113294143Y-138046735D01*
X113535674Y-137854120D01*
X113754120Y-137635674D01*
X113946735Y-137394143D01*
X114111095Y-137132565D01*
X114245135Y-136854229D01*
X114347168Y-136562636D01*
X114415911Y-136261452D01*
X114450500Y-135954465D01*
X114450500Y-135645535D01*
X114426876Y-135435867D01*
X114415913Y-135338562D01*
X114415910Y-135338544D01*
X114392126Y-135234341D01*
X114347168Y-135037364D01*
X114345559Y-135032767D01*
X114268098Y-134811395D01*
X114245135Y-134745771D01*
X114111095Y-134467435D01*
X113946735Y-134205857D01*
X113754120Y-133964326D01*
X113535674Y-133745880D01*
X113534802Y-133745185D01*
X113430305Y-133661851D01*
X113294143Y-133553265D01*
X113053966Y-133402352D01*
X113032562Y-133388903D01*
X112754236Y-133254868D01*
X112754222Y-133254862D01*
X112462647Y-133152835D01*
X112462635Y-133152831D01*
X112161455Y-133084089D01*
X112161437Y-133084086D01*
X111854471Y-133049500D01*
X111854465Y-133049500D01*
X111545535Y-133049500D01*
X111545528Y-133049500D01*
X111238562Y-133084086D01*
X111238544Y-133084089D01*
X110937364Y-133152831D01*
X110937352Y-133152835D01*
X110645777Y-133254862D01*
X110645763Y-133254868D01*
X110367437Y-133388903D01*
X110105858Y-133553264D01*
X109864326Y-133745879D01*
X109645879Y-133964326D01*
X109453264Y-134205858D01*
X109288903Y-134467437D01*
X109154868Y-134745763D01*
X109154862Y-134745777D01*
X109052835Y-135037352D01*
X109052831Y-135037364D01*
X108984089Y-135338544D01*
X108984086Y-135338562D01*
X108949500Y-135645528D01*
X108949500Y-135954471D01*
X108984086Y-136261437D01*
X108984089Y-136261455D01*
X109052831Y-136562635D01*
X109052835Y-136562647D01*
X109154862Y-136854222D01*
X109154868Y-136854236D01*
X109288903Y-137132562D01*
X109288905Y-137132565D01*
X109453265Y-137394143D01*
X109571744Y-137542710D01*
X109645192Y-137634812D01*
X109645880Y-137635674D01*
X109864326Y-137854120D01*
X110105857Y-138046735D01*
X110367435Y-138211095D01*
X110645771Y-138345135D01*
X110645777Y-138345137D01*
X110898184Y-138433459D01*
X110954960Y-138474180D01*
X110980707Y-138539133D01*
X110967251Y-138607695D01*
X110918863Y-138658097D01*
X110857229Y-138674500D01*
X107199500Y-138674500D01*
X107132461Y-138654815D01*
X107086706Y-138602011D01*
X107075500Y-138550500D01*
X107075500Y-115434992D01*
X107095185Y-115367953D01*
X107147989Y-115322198D01*
X107217147Y-115312254D01*
X107280703Y-115341279D01*
G37*
%TD.AperFunction*%
%TA.AperFunction,Conductor*%
G36*
X128504809Y-135145185D02*
G01*
X128525451Y-135161819D01*
X128788181Y-135424548D01*
X128821666Y-135485871D01*
X128824500Y-135512229D01*
X128824500Y-137000001D01*
X128824501Y-137000018D01*
X128835000Y-137102796D01*
X128835001Y-137102799D01*
X128890185Y-137269331D01*
X128890187Y-137269336D01*
X128893680Y-137274999D01*
X128982288Y-137418656D01*
X129106344Y-137542712D01*
X129255666Y-137634814D01*
X129422203Y-137689999D01*
X129524991Y-137700500D01*
X130825008Y-137700499D01*
X130927797Y-137689999D01*
X131094334Y-137634814D01*
X131243656Y-137542712D01*
X131367712Y-137418656D01*
X131459814Y-137269334D01*
X131459814Y-137269331D01*
X131463178Y-137263879D01*
X131515126Y-137217154D01*
X131584088Y-137205931D01*
X131648170Y-137233774D01*
X131656398Y-137241294D01*
X131795213Y-137380109D01*
X131967179Y-137505048D01*
X131967181Y-137505049D01*
X131967184Y-137505051D01*
X132156588Y-137601557D01*
X132358757Y-137667246D01*
X132568713Y-137700500D01*
X132568714Y-137700500D01*
X132781286Y-137700500D01*
X132781287Y-137700500D01*
X132991243Y-137667246D01*
X133193412Y-137601557D01*
X133382816Y-137505051D01*
X133404789Y-137489086D01*
X133554786Y-137380109D01*
X133554788Y-137380106D01*
X133554792Y-137380104D01*
X133705104Y-137229792D01*
X133824991Y-137064779D01*
X133880320Y-137022115D01*
X133949933Y-137016136D01*
X134011729Y-137048741D01*
X134025627Y-137064781D01*
X134145272Y-137229459D01*
X134145276Y-137229464D01*
X134295535Y-137379723D01*
X134295540Y-137379727D01*
X134467442Y-137504620D01*
X134656782Y-137601095D01*
X134858871Y-137666757D01*
X134925000Y-137677231D01*
X134925000Y-136629145D01*
X134991657Y-136667630D01*
X135112465Y-136700000D01*
X135237535Y-136700000D01*
X135358343Y-136667630D01*
X135425000Y-136629145D01*
X135425000Y-137677230D01*
X135491126Y-137666757D01*
X135491129Y-137666757D01*
X135693217Y-137601095D01*
X135719205Y-137587854D01*
X135787874Y-137574958D01*
X135852614Y-137601234D01*
X135892872Y-137658340D01*
X135899500Y-137698339D01*
X135899500Y-138550500D01*
X135879815Y-138617539D01*
X135827011Y-138663294D01*
X135775500Y-138674500D01*
X125211230Y-138674500D01*
X125144191Y-138654815D01*
X125098436Y-138602011D01*
X125088492Y-138532853D01*
X125117517Y-138469297D01*
X125123549Y-138462819D01*
X125582948Y-138003419D01*
X125582947Y-138003419D01*
X125582951Y-138003416D01*
X125665084Y-137880495D01*
X125721658Y-137743913D01*
X125728441Y-137709814D01*
X125734922Y-137677231D01*
X125750500Y-137598920D01*
X125750500Y-137386433D01*
X125770185Y-137319394D01*
X125822989Y-137273639D01*
X125890558Y-137263923D01*
X125890569Y-137263818D01*
X125890991Y-137263861D01*
X125892147Y-137263695D01*
X125895849Y-137264357D01*
X126000019Y-137274999D01*
X126274999Y-137274999D01*
X126775000Y-137274999D01*
X127049972Y-137274999D01*
X127049986Y-137274998D01*
X127152697Y-137264505D01*
X127319119Y-137209358D01*
X127319124Y-137209356D01*
X127468345Y-137117315D01*
X127592315Y-136993345D01*
X127684356Y-136844124D01*
X127684358Y-136844119D01*
X127739505Y-136677697D01*
X127739506Y-136677690D01*
X127749999Y-136574986D01*
X127750000Y-136574973D01*
X127750000Y-136525000D01*
X126775000Y-136525000D01*
X126775000Y-137274999D01*
X126274999Y-137274999D01*
X126275000Y-137274998D01*
X126275000Y-136399000D01*
X126294685Y-136331961D01*
X126347489Y-136286206D01*
X126399000Y-136275000D01*
X126525000Y-136275000D01*
X126525000Y-136149000D01*
X126544685Y-136081961D01*
X126597489Y-136036206D01*
X126649000Y-136025000D01*
X127749999Y-136025000D01*
X127749999Y-135975028D01*
X127749998Y-135975013D01*
X127739505Y-135872302D01*
X127684358Y-135705880D01*
X127684356Y-135705875D01*
X127592315Y-135556654D01*
X127468344Y-135432683D01*
X127468341Y-135432681D01*
X127465339Y-135430829D01*
X127463713Y-135429021D01*
X127462677Y-135428202D01*
X127462817Y-135428024D01*
X127418617Y-135378880D01*
X127407397Y-135309917D01*
X127435243Y-135245836D01*
X127446157Y-135234341D01*
X127455036Y-135226112D01*
X127468656Y-135217712D01*
X127526214Y-135160153D01*
X127527947Y-135158548D01*
X127557197Y-135143991D01*
X127585872Y-135128334D01*
X127589428Y-135127951D01*
X127590499Y-135127419D01*
X127592419Y-135127630D01*
X127612230Y-135125500D01*
X128437770Y-135125500D01*
X128504809Y-135145185D01*
G37*
%TD.AperFunction*%
%TA.AperFunction,Conductor*%
G36*
X131154809Y-119320185D02*
G01*
X131175451Y-119336819D01*
X131775681Y-119937048D01*
X131809166Y-119998371D01*
X131812000Y-120024729D01*
X131812000Y-127700270D01*
X131792315Y-127767309D01*
X131775681Y-127787951D01*
X131707289Y-127856342D01*
X131615187Y-128005663D01*
X131615186Y-128005666D01*
X131560001Y-128172203D01*
X131560001Y-128172204D01*
X131560000Y-128172204D01*
X131549500Y-128274983D01*
X131549500Y-129275001D01*
X131549501Y-129275019D01*
X131560000Y-129377796D01*
X131560001Y-129377799D01*
X131615185Y-129544331D01*
X131615187Y-129544336D01*
X131643701Y-129590564D01*
X131702484Y-129685868D01*
X131707289Y-129693657D01*
X131713181Y-129699549D01*
X131727884Y-129726476D01*
X131744477Y-129752295D01*
X131745368Y-129758495D01*
X131746666Y-129760872D01*
X131749500Y-129787230D01*
X131749500Y-129859362D01*
X131729815Y-129926401D01*
X131690598Y-129964899D01*
X131635510Y-129998877D01*
X131581345Y-130032287D01*
X131499947Y-130113685D01*
X131438623Y-130147169D01*
X131368932Y-130142185D01*
X131324462Y-130109807D01*
X131322819Y-130111451D01*
X131193653Y-129982285D01*
X131159401Y-129961158D01*
X131112678Y-129909210D01*
X131100500Y-129855621D01*
X131100500Y-129696155D01*
X131100499Y-129696153D01*
X131090486Y-129645814D01*
X131069737Y-129541503D01*
X131069735Y-129541498D01*
X131009397Y-129395827D01*
X131009390Y-129395814D01*
X130921789Y-129264711D01*
X130921786Y-129264707D01*
X130810292Y-129153213D01*
X130810288Y-129153210D01*
X130679185Y-129065609D01*
X130679172Y-129065602D01*
X130533501Y-129005264D01*
X130533489Y-129005261D01*
X130378845Y-128974500D01*
X130378842Y-128974500D01*
X130221158Y-128974500D01*
X130221155Y-128974500D01*
X130066510Y-129005261D01*
X130066498Y-129005264D01*
X129920827Y-129065602D01*
X129920814Y-129065609D01*
X129789711Y-129153210D01*
X129789707Y-129153213D01*
X129678213Y-129264707D01*
X129678210Y-129264711D01*
X129590609Y-129395814D01*
X129590602Y-129395827D01*
X129530264Y-129541498D01*
X129530261Y-129541510D01*
X129499500Y-129696153D01*
X129499500Y-129824781D01*
X129479815Y-129891820D01*
X129440597Y-129930319D01*
X129356347Y-129982285D01*
X129356343Y-129982288D01*
X129232289Y-130106342D01*
X129140187Y-130255663D01*
X129140185Y-130255668D01*
X129115619Y-130329805D01*
X129085001Y-130422203D01*
X129085001Y-130422204D01*
X129085000Y-130422204D01*
X129074500Y-130524983D01*
X129074500Y-131150001D01*
X129074501Y-131150019D01*
X129085000Y-131252796D01*
X129085001Y-131252799D01*
X129140185Y-131419331D01*
X129140187Y-131419336D01*
X129160826Y-131452797D01*
X129223362Y-131554185D01*
X129232289Y-131568657D01*
X129325951Y-131662319D01*
X129359436Y-131723642D01*
X129354452Y-131793334D01*
X129325951Y-131837681D01*
X129232289Y-131931342D01*
X129140187Y-132080663D01*
X129140185Y-132080668D01*
X129116249Y-132152904D01*
X129085001Y-132247203D01*
X129085001Y-132247204D01*
X129085000Y-132247204D01*
X129074500Y-132349983D01*
X129074500Y-132975001D01*
X129074501Y-132975019D01*
X129085000Y-133077796D01*
X129085001Y-133077799D01*
X129140185Y-133244331D01*
X129140187Y-133244336D01*
X129159828Y-133276179D01*
X129232288Y-133393656D01*
X129356344Y-133517712D01*
X129465597Y-133585099D01*
X129472421Y-133592686D01*
X129481703Y-133596925D01*
X129495391Y-133618224D01*
X129512321Y-133637047D01*
X129514965Y-133648682D01*
X129519477Y-133655703D01*
X129524500Y-133690638D01*
X129524500Y-133738769D01*
X129504815Y-133805808D01*
X129452011Y-133851563D01*
X129382853Y-133861507D01*
X129319297Y-133832482D01*
X129312819Y-133826450D01*
X129278421Y-133792052D01*
X129278414Y-133792046D01*
X129178818Y-133725499D01*
X129178817Y-133725499D01*
X129155495Y-133709916D01*
X129155488Y-133709912D01*
X129018917Y-133653343D01*
X129018907Y-133653340D01*
X128873920Y-133624500D01*
X128873918Y-133624500D01*
X127612230Y-133624500D01*
X127545191Y-133604815D01*
X127524549Y-133588181D01*
X127468657Y-133532289D01*
X127468656Y-133532288D01*
X127334402Y-133449480D01*
X127287679Y-133397533D01*
X127275500Y-133343942D01*
X127275500Y-132955300D01*
X127295185Y-132888261D01*
X127347989Y-132842506D01*
X127360482Y-132837599D01*
X127444334Y-132809814D01*
X127593656Y-132717712D01*
X127717712Y-132593656D01*
X127809814Y-132444334D01*
X127864999Y-132277797D01*
X127875500Y-132175009D01*
X127875499Y-131524992D01*
X127869813Y-131469334D01*
X127864999Y-131422203D01*
X127864998Y-131422200D01*
X127841076Y-131350008D01*
X127809814Y-131255666D01*
X127717712Y-131106344D01*
X127593656Y-130982288D01*
X127444334Y-130890186D01*
X127277797Y-130835001D01*
X127277795Y-130835000D01*
X127175010Y-130824500D01*
X125674998Y-130824500D01*
X125674981Y-130824501D01*
X125572203Y-130835000D01*
X125572200Y-130835001D01*
X125405668Y-130890185D01*
X125405663Y-130890187D01*
X125256342Y-130982289D01*
X125132289Y-131106342D01*
X125040187Y-131255663D01*
X125040186Y-131255666D01*
X124985001Y-131422203D01*
X124985001Y-131422204D01*
X124985000Y-131422204D01*
X124974500Y-131524983D01*
X124974500Y-132175001D01*
X124974501Y-132175019D01*
X124985000Y-132277796D01*
X124985001Y-132277799D01*
X125026457Y-132402904D01*
X125040186Y-132444334D01*
X125132288Y-132593656D01*
X125256344Y-132717712D01*
X125405666Y-132809814D01*
X125572203Y-132864999D01*
X125663103Y-132874285D01*
X125727794Y-132900681D01*
X125767945Y-132957861D01*
X125774500Y-132997643D01*
X125774500Y-133343942D01*
X125754815Y-133410981D01*
X125715598Y-133449479D01*
X125684293Y-133468789D01*
X125581342Y-133532289D01*
X125457286Y-133656345D01*
X125455492Y-133659255D01*
X125453741Y-133660829D01*
X125452807Y-133662011D01*
X125452605Y-133661851D01*
X125403541Y-133705975D01*
X125397423Y-133708706D01*
X125394514Y-133709911D01*
X125394498Y-133709919D01*
X125271584Y-133792048D01*
X125271580Y-133792051D01*
X124417050Y-134646580D01*
X124417044Y-134646588D01*
X124367812Y-134720268D01*
X124367813Y-134720269D01*
X124334921Y-134769496D01*
X124334914Y-134769509D01*
X124282606Y-134895792D01*
X124238765Y-134950195D01*
X124172471Y-134972260D01*
X124111750Y-134958824D01*
X124043215Y-134923903D01*
X123841124Y-134858241D01*
X123775000Y-134847768D01*
X123775000Y-135895854D01*
X123708343Y-135857370D01*
X123587535Y-135825000D01*
X123462465Y-135825000D01*
X123341657Y-135857370D01*
X123275000Y-135895854D01*
X123275000Y-134847768D01*
X123274999Y-134847768D01*
X123208875Y-134858241D01*
X123006784Y-134923903D01*
X122817442Y-135020379D01*
X122645540Y-135145272D01*
X122645535Y-135145276D01*
X122495276Y-135295535D01*
X122495272Y-135295540D01*
X122375627Y-135460218D01*
X122320297Y-135502884D01*
X122250684Y-135508863D01*
X122188889Y-135476257D01*
X122174991Y-135460218D01*
X122055109Y-135295214D01*
X122055105Y-135295209D01*
X121904794Y-135144898D01*
X121904788Y-135144893D01*
X121826615Y-135088097D01*
X121783949Y-135032767D01*
X121775500Y-134987779D01*
X121775500Y-133849500D01*
X121795185Y-133782461D01*
X121847989Y-133736706D01*
X121899500Y-133725500D01*
X122191307Y-133725500D01*
X122258346Y-133745185D01*
X122266225Y-133750691D01*
X122277658Y-133759361D01*
X122418436Y-133814877D01*
X122506898Y-133825500D01*
X122506903Y-133825500D01*
X122893097Y-133825500D01*
X122893102Y-133825500D01*
X122981564Y-133814877D01*
X123005191Y-133805559D01*
X123074773Y-133799276D01*
X123096172Y-133805559D01*
X123118555Y-133814386D01*
X123200000Y-133824165D01*
X123200000Y-133762060D01*
X123219685Y-133695021D01*
X123238114Y-133675118D01*
X123236920Y-133673924D01*
X123242913Y-133667928D01*
X123242922Y-133667922D01*
X123334361Y-133547342D01*
X123360645Y-133480689D01*
X123403551Y-133425545D01*
X123469459Y-133402352D01*
X123537443Y-133418472D01*
X123585920Y-133468789D01*
X123600000Y-133526179D01*
X123600000Y-133824165D01*
X123681442Y-133814386D01*
X123822095Y-133758920D01*
X123942564Y-133667564D01*
X124033920Y-133547095D01*
X124089386Y-133406443D01*
X124100000Y-133318053D01*
X124100000Y-133175000D01*
X123574500Y-133175000D01*
X123565814Y-133172449D01*
X123556853Y-133173738D01*
X123532812Y-133162759D01*
X123507461Y-133155315D01*
X123501533Y-133148474D01*
X123493297Y-133144713D01*
X123479007Y-133122478D01*
X123461706Y-133102511D01*
X123459418Y-133091996D01*
X123455523Y-133085935D01*
X123450500Y-133051000D01*
X123450500Y-132899000D01*
X123470185Y-132831961D01*
X123522989Y-132786206D01*
X123574500Y-132775000D01*
X124100000Y-132775000D01*
X124100000Y-132631946D01*
X124089386Y-132543556D01*
X124033920Y-132402904D01*
X123942564Y-132282435D01*
X123822095Y-132191079D01*
X123681443Y-132135613D01*
X123600000Y-132125832D01*
X123600000Y-132423820D01*
X123580315Y-132490859D01*
X123527511Y-132536614D01*
X123458353Y-132546558D01*
X123394797Y-132517533D01*
X123360646Y-132469310D01*
X123334362Y-132402660D01*
X123334361Y-132402658D01*
X123242920Y-132282075D01*
X123236925Y-132276080D01*
X123239374Y-132273630D01*
X123207531Y-132230495D01*
X123200000Y-132187939D01*
X123200000Y-132125832D01*
X123118558Y-132135613D01*
X123118550Y-132135615D01*
X123096170Y-132144441D01*
X123026583Y-132150722D01*
X123005193Y-132144441D01*
X122981563Y-132135122D01*
X122928978Y-132128808D01*
X122893102Y-132124500D01*
X122672902Y-132124500D01*
X122605863Y-132104815D01*
X122560108Y-132052011D01*
X122550164Y-131982853D01*
X122579189Y-131919297D01*
X122625451Y-131885938D01*
X122626236Y-131885613D01*
X122629179Y-131884394D01*
X122760289Y-131796789D01*
X122871789Y-131685289D01*
X122959394Y-131554179D01*
X122959967Y-131552797D01*
X123002542Y-131450009D01*
X123019737Y-131408497D01*
X123050500Y-131253842D01*
X123050500Y-131096158D01*
X123050500Y-131096155D01*
X123050499Y-131096153D01*
X123027850Y-130982289D01*
X123019737Y-130941503D01*
X123019735Y-130941498D01*
X122959397Y-130795827D01*
X122959390Y-130795814D01*
X122871789Y-130664711D01*
X122871786Y-130664707D01*
X122760292Y-130553213D01*
X122760288Y-130553210D01*
X122629185Y-130465609D01*
X122629172Y-130465602D01*
X122483501Y-130405264D01*
X122483489Y-130405261D01*
X122328845Y-130374500D01*
X122328842Y-130374500D01*
X122171158Y-130374500D01*
X122171153Y-130374500D01*
X122067354Y-130395147D01*
X121997762Y-130388920D01*
X121942585Y-130346057D01*
X121937624Y-130338626D01*
X121917713Y-130306345D01*
X121793657Y-130182289D01*
X121793656Y-130182288D01*
X121684402Y-130114900D01*
X121677578Y-130107313D01*
X121668297Y-130103075D01*
X121654608Y-130081775D01*
X121637679Y-130062953D01*
X121635034Y-130051317D01*
X121630523Y-130044297D01*
X121625500Y-130009362D01*
X121625500Y-129762230D01*
X121645185Y-129695191D01*
X121661819Y-129674549D01*
X121690554Y-129645814D01*
X121742712Y-129593656D01*
X121834814Y-129444334D01*
X121889999Y-129277797D01*
X121900500Y-129175009D01*
X121900499Y-128174992D01*
X121893417Y-128105668D01*
X121889999Y-128072203D01*
X121889998Y-128072200D01*
X121849247Y-127949223D01*
X121834814Y-127905666D01*
X121742712Y-127756344D01*
X121674319Y-127687951D01*
X121640834Y-127626628D01*
X121638000Y-127600270D01*
X121638000Y-125938579D01*
X121609159Y-125793592D01*
X121609158Y-125793591D01*
X121609158Y-125793587D01*
X121609156Y-125793582D01*
X121552587Y-125657011D01*
X121552580Y-125656998D01*
X121470452Y-125534085D01*
X121424137Y-125487770D01*
X121365916Y-125429549D01*
X116323549Y-120387181D01*
X116290064Y-120325858D01*
X116295048Y-120256166D01*
X116336920Y-120200233D01*
X116402384Y-120175816D01*
X116411230Y-120175500D01*
X123287770Y-120175500D01*
X123354809Y-120195185D01*
X123375451Y-120211819D01*
X125638181Y-122474548D01*
X125671666Y-122535871D01*
X125674500Y-122562229D01*
X125674500Y-127562837D01*
X125654815Y-127629876D01*
X125602011Y-127675631D01*
X125576459Y-127684089D01*
X125572207Y-127684999D01*
X125405668Y-127740185D01*
X125405663Y-127740187D01*
X125256342Y-127832289D01*
X125132289Y-127956342D01*
X125040187Y-128105663D01*
X125040186Y-128105666D01*
X124985001Y-128272203D01*
X124985001Y-128272204D01*
X124985000Y-128272204D01*
X124974500Y-128374983D01*
X124974500Y-129025001D01*
X124974501Y-129025019D01*
X124985000Y-129127796D01*
X124985001Y-129127799D01*
X125040185Y-129294331D01*
X125040187Y-129294336D01*
X125053308Y-129315609D01*
X125132288Y-129443656D01*
X125256344Y-129567712D01*
X125405666Y-129659814D01*
X125572203Y-129714999D01*
X125674991Y-129725500D01*
X127175008Y-129725499D01*
X127189213Y-129724048D01*
X127251238Y-129717712D01*
X127277797Y-129714999D01*
X127444334Y-129659814D01*
X127593656Y-129567712D01*
X127717712Y-129443656D01*
X127809814Y-129294334D01*
X127864999Y-129127797D01*
X127875500Y-129025009D01*
X127875499Y-128374992D01*
X127864999Y-128272203D01*
X127809814Y-128105666D01*
X127717712Y-127956344D01*
X127593656Y-127832288D01*
X127475967Y-127759697D01*
X127444336Y-127740187D01*
X127444331Y-127740185D01*
X127277795Y-127685000D01*
X127273533Y-127684088D01*
X127212102Y-127650801D01*
X127178419Y-127589586D01*
X127175500Y-127562837D01*
X127175500Y-122126081D01*
X127169763Y-122097242D01*
X127169763Y-122097240D01*
X127146660Y-121981095D01*
X127146659Y-121981088D01*
X127092408Y-121850117D01*
X127090764Y-121845522D01*
X127007954Y-121721588D01*
X127007953Y-121721587D01*
X127007951Y-121721584D01*
X126903416Y-121617049D01*
X124798549Y-119512181D01*
X124765064Y-119450858D01*
X124770048Y-119381166D01*
X124811920Y-119325233D01*
X124877384Y-119300816D01*
X124886230Y-119300500D01*
X131087770Y-119300500D01*
X131154809Y-119320185D01*
G37*
%TD.AperFunction*%
%TA.AperFunction,Conductor*%
G36*
X126227085Y-62752807D02*
G01*
X126293865Y-62773345D01*
X126338942Y-62826729D01*
X126349500Y-62876797D01*
X126349500Y-63725500D01*
X126329815Y-63792539D01*
X126277011Y-63838294D01*
X126225500Y-63849500D01*
X124549998Y-63849500D01*
X124549980Y-63849501D01*
X124447203Y-63860000D01*
X124447200Y-63860001D01*
X124280668Y-63915185D01*
X124280663Y-63915187D01*
X124131342Y-64007289D01*
X124075451Y-64063181D01*
X124014128Y-64096666D01*
X123987770Y-64099500D01*
X123476080Y-64099500D01*
X123331092Y-64128340D01*
X123325260Y-64130110D01*
X123324969Y-64129152D01*
X123285520Y-64137000D01*
X121549730Y-64137000D01*
X121482691Y-64117315D01*
X121462049Y-64100681D01*
X121393657Y-64032289D01*
X121393656Y-64032288D01*
X121244334Y-63940186D01*
X121077797Y-63885001D01*
X121077795Y-63885000D01*
X120975010Y-63874500D01*
X119974998Y-63874500D01*
X119974980Y-63874501D01*
X119872203Y-63885000D01*
X119872200Y-63885001D01*
X119705668Y-63940185D01*
X119705663Y-63940187D01*
X119556342Y-64032289D01*
X119487951Y-64100681D01*
X119426628Y-64134166D01*
X119400270Y-64137000D01*
X118624730Y-64137000D01*
X118557691Y-64117315D01*
X118537053Y-64100685D01*
X118450916Y-64014548D01*
X118353509Y-63949464D01*
X118327995Y-63932416D01*
X118327988Y-63932412D01*
X118191417Y-63875843D01*
X118191407Y-63875840D01*
X118046420Y-63847000D01*
X118046418Y-63847000D01*
X116332328Y-63847000D01*
X116297733Y-63842076D01*
X116152573Y-63799902D01*
X116152567Y-63799901D01*
X116115701Y-63797000D01*
X116115694Y-63797000D01*
X113884306Y-63797000D01*
X113884298Y-63797000D01*
X113847432Y-63799901D01*
X113847426Y-63799902D01*
X113689606Y-63845754D01*
X113689603Y-63845755D01*
X113548137Y-63929417D01*
X113548129Y-63929423D01*
X113431923Y-64045629D01*
X113431917Y-64045637D01*
X113348255Y-64187103D01*
X113348254Y-64187106D01*
X113302402Y-64344926D01*
X113302401Y-64344932D01*
X113299500Y-64381798D01*
X113299500Y-64813201D01*
X113302401Y-64850067D01*
X113302402Y-64850073D01*
X113348254Y-65007893D01*
X113348255Y-65007896D01*
X113431917Y-65149362D01*
X113436702Y-65155531D01*
X113434256Y-65157427D01*
X113460857Y-65206142D01*
X113455873Y-65275834D01*
X113435069Y-65308203D01*
X113436702Y-65309469D01*
X113431917Y-65315637D01*
X113348255Y-65457103D01*
X113348254Y-65457106D01*
X113302402Y-65614926D01*
X113302401Y-65614932D01*
X113299500Y-65651798D01*
X113299500Y-66083201D01*
X113302401Y-66120067D01*
X113302402Y-66120073D01*
X113348254Y-66277893D01*
X113348255Y-66277896D01*
X113348256Y-66277898D01*
X113377766Y-66327797D01*
X113431917Y-66419362D01*
X113436702Y-66425531D01*
X113434256Y-66427427D01*
X113460857Y-66476142D01*
X113455873Y-66545834D01*
X113435069Y-66578203D01*
X113436702Y-66579469D01*
X113431917Y-66585637D01*
X113348255Y-66727103D01*
X113348254Y-66727106D01*
X113302402Y-66884926D01*
X113302401Y-66884932D01*
X113299500Y-66921798D01*
X113299500Y-67353201D01*
X113302401Y-67390067D01*
X113302402Y-67390073D01*
X113348254Y-67547893D01*
X113348255Y-67547896D01*
X113431917Y-67689362D01*
X113436702Y-67695531D01*
X113434256Y-67697427D01*
X113460857Y-67746142D01*
X113455873Y-67815834D01*
X113435069Y-67848203D01*
X113436702Y-67849469D01*
X113431917Y-67855637D01*
X113348255Y-67997103D01*
X113348254Y-67997106D01*
X113302402Y-68154926D01*
X113302401Y-68154932D01*
X113299500Y-68191798D01*
X113299500Y-68623201D01*
X113302401Y-68660067D01*
X113302402Y-68660073D01*
X113348254Y-68817893D01*
X113348255Y-68817896D01*
X113431917Y-68959362D01*
X113436702Y-68965531D01*
X113434256Y-68967427D01*
X113460857Y-69016142D01*
X113455873Y-69085834D01*
X113435069Y-69118203D01*
X113436702Y-69119469D01*
X113431917Y-69125637D01*
X113348255Y-69267103D01*
X113348254Y-69267106D01*
X113302402Y-69424926D01*
X113302401Y-69424932D01*
X113299500Y-69461798D01*
X113299500Y-69893201D01*
X113302401Y-69930067D01*
X113302402Y-69930073D01*
X113348254Y-70087893D01*
X113348255Y-70087896D01*
X113431917Y-70229362D01*
X113436702Y-70235531D01*
X113434256Y-70237427D01*
X113460857Y-70286142D01*
X113455873Y-70355834D01*
X113435069Y-70388203D01*
X113436702Y-70389469D01*
X113431917Y-70395637D01*
X113348255Y-70537103D01*
X113348254Y-70537106D01*
X113302402Y-70694926D01*
X113302401Y-70694932D01*
X113299500Y-70731798D01*
X113299500Y-71163201D01*
X113302401Y-71200067D01*
X113302402Y-71200073D01*
X113348254Y-71357893D01*
X113348255Y-71357896D01*
X113431917Y-71499362D01*
X113436702Y-71505531D01*
X113434256Y-71507427D01*
X113460857Y-71556142D01*
X113455873Y-71625834D01*
X113435069Y-71658203D01*
X113436702Y-71659469D01*
X113431917Y-71665637D01*
X113348255Y-71807103D01*
X113348254Y-71807106D01*
X113302402Y-71964926D01*
X113302401Y-71964932D01*
X113299500Y-72001798D01*
X113299500Y-72433201D01*
X113302401Y-72470062D01*
X113302402Y-72470069D01*
X113348254Y-72627893D01*
X113348254Y-72627894D01*
X113348255Y-72627896D01*
X113348256Y-72627898D01*
X113362183Y-72651447D01*
X113431917Y-72769362D01*
X113436702Y-72775531D01*
X113434256Y-72777427D01*
X113460857Y-72826142D01*
X113455873Y-72895834D01*
X113435069Y-72928203D01*
X113436702Y-72929469D01*
X113431917Y-72935637D01*
X113348255Y-73077103D01*
X113348254Y-73077106D01*
X113302402Y-73234926D01*
X113302401Y-73234932D01*
X113299500Y-73271798D01*
X113299500Y-73703201D01*
X113302401Y-73740067D01*
X113302402Y-73740073D01*
X113348254Y-73897893D01*
X113348255Y-73897896D01*
X113431917Y-74039362D01*
X113431923Y-74039370D01*
X113548129Y-74155576D01*
X113548133Y-74155579D01*
X113548135Y-74155581D01*
X113689602Y-74239244D01*
X113702269Y-74242924D01*
X113847426Y-74285097D01*
X113847429Y-74285097D01*
X113847431Y-74285098D01*
X113884306Y-74288000D01*
X113884314Y-74288000D01*
X116115686Y-74288000D01*
X116115694Y-74288000D01*
X116152569Y-74285098D01*
X116152571Y-74285097D01*
X116152573Y-74285097D01*
X116297733Y-74242924D01*
X116332328Y-74238000D01*
X117186420Y-74238000D01*
X117283962Y-74218596D01*
X117331413Y-74209158D01*
X117467995Y-74152584D01*
X117517229Y-74119686D01*
X117590916Y-74070452D01*
X118957952Y-72703415D01*
X119008410Y-72627898D01*
X119040084Y-72580495D01*
X119085824Y-72470069D01*
X119096659Y-72443912D01*
X119125500Y-72298917D01*
X119125500Y-72151082D01*
X119125500Y-69579604D01*
X119134939Y-69532151D01*
X119144737Y-69508497D01*
X119175500Y-69353842D01*
X119175500Y-69196158D01*
X119175500Y-69196155D01*
X119175499Y-69196153D01*
X119161472Y-69125635D01*
X119144737Y-69041503D01*
X119134232Y-69016142D01*
X119084397Y-68895827D01*
X119084390Y-68895814D01*
X118996789Y-68764711D01*
X118996786Y-68764707D01*
X118885292Y-68653213D01*
X118885288Y-68653210D01*
X118754185Y-68565609D01*
X118754172Y-68565602D01*
X118608501Y-68505264D01*
X118608489Y-68505261D01*
X118453845Y-68474500D01*
X118453842Y-68474500D01*
X118296158Y-68474500D01*
X118296155Y-68474500D01*
X118141510Y-68505261D01*
X118141498Y-68505264D01*
X117995827Y-68565602D01*
X117995814Y-68565609D01*
X117864711Y-68653210D01*
X117864707Y-68653213D01*
X117753213Y-68764707D01*
X117753210Y-68764711D01*
X117665609Y-68895814D01*
X117665602Y-68895827D01*
X117605264Y-69041498D01*
X117605261Y-69041510D01*
X117574500Y-69196153D01*
X117574500Y-69353846D01*
X117605261Y-69508489D01*
X117605263Y-69508497D01*
X117615061Y-69532151D01*
X117624500Y-69579604D01*
X117624500Y-71862770D01*
X117604815Y-71929809D01*
X117588181Y-71950451D01*
X116887184Y-72651447D01*
X116825861Y-72684932D01*
X116756169Y-72679948D01*
X116700236Y-72638076D01*
X116675819Y-72572612D01*
X116680427Y-72529170D01*
X116697598Y-72470069D01*
X116697599Y-72470062D01*
X116699656Y-72443917D01*
X116700500Y-72433194D01*
X116700500Y-72001806D01*
X116697598Y-71964931D01*
X116693391Y-71950451D01*
X116651745Y-71807106D01*
X116651744Y-71807103D01*
X116651744Y-71807102D01*
X116568081Y-71665635D01*
X116568078Y-71665632D01*
X116563298Y-71659469D01*
X116565750Y-71657566D01*
X116539155Y-71608921D01*
X116544104Y-71539226D01*
X116564940Y-71506804D01*
X116563298Y-71505531D01*
X116568075Y-71499370D01*
X116568081Y-71499365D01*
X116651744Y-71357898D01*
X116697598Y-71200069D01*
X116700500Y-71163194D01*
X116700500Y-70731806D01*
X116697598Y-70694931D01*
X116651744Y-70537102D01*
X116568081Y-70395635D01*
X116568078Y-70395632D01*
X116563298Y-70389469D01*
X116565750Y-70387566D01*
X116539155Y-70338921D01*
X116544104Y-70269226D01*
X116564940Y-70236804D01*
X116563298Y-70235531D01*
X116568075Y-70229370D01*
X116568081Y-70229365D01*
X116651744Y-70087898D01*
X116697598Y-69930069D01*
X116700500Y-69893194D01*
X116700500Y-69461806D01*
X116697598Y-69424931D01*
X116651744Y-69267102D01*
X116568081Y-69125635D01*
X116568078Y-69125632D01*
X116563298Y-69119469D01*
X116565750Y-69117566D01*
X116539155Y-69068921D01*
X116544104Y-68999226D01*
X116564940Y-68966804D01*
X116563298Y-68965531D01*
X116568075Y-68959370D01*
X116568081Y-68959365D01*
X116651744Y-68817898D01*
X116697598Y-68660069D01*
X116700500Y-68623194D01*
X116700500Y-68191806D01*
X116697598Y-68154931D01*
X116651744Y-67997102D01*
X116568081Y-67855635D01*
X116568078Y-67855632D01*
X116563298Y-67849469D01*
X116565750Y-67847566D01*
X116539155Y-67798921D01*
X116544104Y-67729226D01*
X116564940Y-67696804D01*
X116563298Y-67695531D01*
X116568075Y-67689370D01*
X116568081Y-67689365D01*
X116651744Y-67547898D01*
X116692465Y-67407736D01*
X116697597Y-67390073D01*
X116697598Y-67390067D01*
X116697683Y-67388983D01*
X116700500Y-67353194D01*
X116700500Y-66921806D01*
X116697598Y-66884931D01*
X116694422Y-66874000D01*
X116663542Y-66767710D01*
X116651744Y-66727102D01*
X116568081Y-66585635D01*
X116568078Y-66585632D01*
X116563298Y-66579469D01*
X116565750Y-66577566D01*
X116539155Y-66528921D01*
X116544104Y-66459226D01*
X116564940Y-66426804D01*
X116563298Y-66425531D01*
X116568075Y-66419370D01*
X116568081Y-66419365D01*
X116651744Y-66277898D01*
X116694593Y-66130411D01*
X116697597Y-66120073D01*
X116697598Y-66120067D01*
X116700499Y-66083201D01*
X116700500Y-66083194D01*
X116700500Y-65651806D01*
X116697598Y-65614931D01*
X116697597Y-65614926D01*
X116666124Y-65506595D01*
X116666323Y-65436725D01*
X116704265Y-65378055D01*
X116767904Y-65349212D01*
X116785200Y-65348000D01*
X117610270Y-65348000D01*
X117635120Y-65355296D01*
X117660792Y-65358759D01*
X117671131Y-65365871D01*
X117677309Y-65367685D01*
X117690649Y-65377580D01*
X117694435Y-65380803D01*
X117784084Y-65470452D01*
X117850882Y-65515084D01*
X117907005Y-65552584D01*
X117907006Y-65552584D01*
X117907007Y-65552585D01*
X117993072Y-65588234D01*
X118043587Y-65609158D01*
X118043591Y-65609158D01*
X118043592Y-65609159D01*
X118188579Y-65638000D01*
X118188582Y-65638000D01*
X118188583Y-65638000D01*
X118336417Y-65638000D01*
X119400270Y-65638000D01*
X119429710Y-65646644D01*
X119459697Y-65653168D01*
X119464712Y-65656922D01*
X119467309Y-65657685D01*
X119487951Y-65674319D01*
X119525951Y-65712319D01*
X119559436Y-65773642D01*
X119554452Y-65843334D01*
X119525951Y-65887681D01*
X119432289Y-65981342D01*
X119340187Y-66130663D01*
X119340186Y-66130666D01*
X119285001Y-66297203D01*
X119285001Y-66297204D01*
X119285000Y-66297204D01*
X119274500Y-66399983D01*
X119274500Y-67025001D01*
X119274501Y-67025019D01*
X119285000Y-67127796D01*
X119285001Y-67127799D01*
X119340185Y-67294331D01*
X119340187Y-67294336D01*
X119362823Y-67331035D01*
X119410132Y-67407736D01*
X119432289Y-67443657D01*
X119556345Y-67567713D01*
X119556348Y-67567715D01*
X119640595Y-67619678D01*
X119687321Y-67671625D01*
X119699500Y-67725217D01*
X119699500Y-67995396D01*
X119690062Y-68042844D01*
X119680263Y-68066503D01*
X119680262Y-68066506D01*
X119680260Y-68066511D01*
X119649500Y-68221153D01*
X119649500Y-68378846D01*
X119680261Y-68533489D01*
X119680264Y-68533501D01*
X119740602Y-68679172D01*
X119740609Y-68679185D01*
X119828210Y-68810288D01*
X119828213Y-68810292D01*
X119939707Y-68921786D01*
X119939711Y-68921789D01*
X120070814Y-69009390D01*
X120070827Y-69009397D01*
X120214533Y-69068921D01*
X120216503Y-69069737D01*
X120297428Y-69085834D01*
X120371153Y-69100499D01*
X120371156Y-69100500D01*
X120371158Y-69100500D01*
X120528844Y-69100500D01*
X120528845Y-69100499D01*
X120683497Y-69069737D01*
X120829179Y-69009394D01*
X120960289Y-68921789D01*
X121071789Y-68810289D01*
X121159394Y-68679179D01*
X121219737Y-68533497D01*
X121250500Y-68378842D01*
X121250500Y-68221158D01*
X121250500Y-68221155D01*
X121250499Y-68221153D01*
X121219739Y-68066511D01*
X121219738Y-68066508D01*
X121219737Y-68066503D01*
X121209937Y-68042844D01*
X121208311Y-68034670D01*
X121205523Y-68030331D01*
X121200500Y-67995396D01*
X121200500Y-67761289D01*
X126767261Y-67761289D01*
X126767262Y-67761290D01*
X126773471Y-67765801D01*
X126927742Y-67844408D01*
X127092415Y-67897914D01*
X127263429Y-67925000D01*
X127436571Y-67925000D01*
X127607584Y-67897914D01*
X127772257Y-67844408D01*
X127926525Y-67765803D01*
X127932736Y-67761289D01*
X127932737Y-67761289D01*
X127350001Y-67178553D01*
X127350000Y-67178553D01*
X126767261Y-67761289D01*
X121200500Y-67761289D01*
X121200500Y-67756057D01*
X121220185Y-67689018D01*
X121259401Y-67650520D01*
X121393656Y-67567712D01*
X121517712Y-67443656D01*
X121609814Y-67294334D01*
X121664999Y-67127797D01*
X121672948Y-67049986D01*
X123850001Y-67049986D01*
X123860494Y-67152697D01*
X123915641Y-67319119D01*
X123915643Y-67319124D01*
X124007684Y-67468345D01*
X124131654Y-67592315D01*
X124280875Y-67684356D01*
X124280880Y-67684358D01*
X124447302Y-67739505D01*
X124447309Y-67739506D01*
X124550019Y-67749999D01*
X124824999Y-67749999D01*
X124825000Y-67749998D01*
X124825000Y-67000000D01*
X123850001Y-67000000D01*
X123850001Y-67049986D01*
X121672948Y-67049986D01*
X121675500Y-67025009D01*
X121675499Y-66709204D01*
X121675499Y-66399998D01*
X121675498Y-66399980D01*
X121664999Y-66297203D01*
X121664998Y-66297200D01*
X121648851Y-66248471D01*
X121609814Y-66130666D01*
X121517712Y-65981344D01*
X121424049Y-65887681D01*
X121419710Y-65879735D01*
X121412463Y-65874310D01*
X121403228Y-65849550D01*
X121390564Y-65826358D01*
X121391209Y-65817328D01*
X121388046Y-65808846D01*
X121393662Y-65783025D01*
X121395548Y-65756666D01*
X121401366Y-65747612D01*
X121402898Y-65740573D01*
X121424049Y-65712319D01*
X121462049Y-65674319D01*
X121523372Y-65640834D01*
X121549730Y-65638000D01*
X124025270Y-65638000D01*
X124092309Y-65657685D01*
X124112951Y-65674319D01*
X124131344Y-65692712D01*
X124134628Y-65694737D01*
X124134653Y-65694753D01*
X124136445Y-65696746D01*
X124137011Y-65697193D01*
X124136934Y-65697289D01*
X124181379Y-65746699D01*
X124192603Y-65815661D01*
X124164761Y-65879744D01*
X124134665Y-65905826D01*
X124131660Y-65907679D01*
X124131655Y-65907683D01*
X124007684Y-66031654D01*
X123915643Y-66180875D01*
X123915641Y-66180880D01*
X123860494Y-66347302D01*
X123860493Y-66347309D01*
X123850000Y-66450013D01*
X123850000Y-66500000D01*
X124951000Y-66500000D01*
X125018039Y-66519685D01*
X125063794Y-66572489D01*
X125075000Y-66624000D01*
X125075000Y-66750000D01*
X125201000Y-66750000D01*
X125268039Y-66769685D01*
X125313794Y-66822489D01*
X125325000Y-66874000D01*
X125325000Y-67749999D01*
X125599972Y-67749999D01*
X125599986Y-67749998D01*
X125702697Y-67739505D01*
X125869119Y-67684358D01*
X125869124Y-67684356D01*
X125992121Y-67608491D01*
X126018345Y-67592315D01*
X126142317Y-67468343D01*
X126191266Y-67388983D01*
X126243213Y-67342258D01*
X126312175Y-67331035D01*
X126376258Y-67358878D01*
X126407287Y-67397778D01*
X126409197Y-67401526D01*
X126413709Y-67407736D01*
X126413709Y-67407737D01*
X126996446Y-66825001D01*
X126996446Y-66824999D01*
X126956951Y-66785504D01*
X127050000Y-66785504D01*
X127050000Y-66864496D01*
X127070444Y-66940796D01*
X127109940Y-67009205D01*
X127165795Y-67065060D01*
X127234204Y-67104556D01*
X127310504Y-67125000D01*
X127389496Y-67125000D01*
X127465796Y-67104556D01*
X127534205Y-67065060D01*
X127590060Y-67009205D01*
X127629556Y-66940796D01*
X127650000Y-66864496D01*
X127650000Y-66824999D01*
X127703553Y-66824999D01*
X127703553Y-66825001D01*
X128286289Y-67407737D01*
X128286289Y-67407736D01*
X128290803Y-67401525D01*
X128369408Y-67247257D01*
X128422914Y-67082584D01*
X128450000Y-66911571D01*
X128450000Y-66738428D01*
X128422914Y-66567415D01*
X128369408Y-66402742D01*
X128290801Y-66248471D01*
X128286290Y-66242262D01*
X128286289Y-66242261D01*
X127703553Y-66824999D01*
X127650000Y-66824999D01*
X127650000Y-66785504D01*
X127629556Y-66709204D01*
X127590060Y-66640795D01*
X127534205Y-66584940D01*
X127465796Y-66545444D01*
X127389496Y-66525000D01*
X127310504Y-66525000D01*
X127234204Y-66545444D01*
X127165795Y-66584940D01*
X127109940Y-66640795D01*
X127070444Y-66709204D01*
X127050000Y-66785504D01*
X126956951Y-66785504D01*
X126413709Y-66242261D01*
X126356717Y-66246750D01*
X126356493Y-66243918D01*
X126325091Y-66247761D01*
X126322987Y-66246746D01*
X126320659Y-66246946D01*
X126291668Y-66231638D01*
X126262160Y-66217405D01*
X126260530Y-66215198D01*
X126258873Y-66214323D01*
X126239614Y-66190251D01*
X126147051Y-66039329D01*
X126137964Y-66005789D01*
X126128775Y-65972204D01*
X126128823Y-65972048D01*
X126128781Y-65971891D01*
X126139335Y-65938557D01*
X126149698Y-65905541D01*
X126149822Y-65905437D01*
X126149872Y-65905280D01*
X126176681Y-65883020D01*
X126203340Y-65860771D01*
X126203524Y-65860732D01*
X126203628Y-65860647D01*
X126204378Y-65860555D01*
X126252754Y-65850500D01*
X126677690Y-65850500D01*
X126744729Y-65870185D01*
X126765371Y-65886819D01*
X127350000Y-66471446D01*
X127350001Y-66471446D01*
X127959628Y-65861819D01*
X128020951Y-65828334D01*
X128047309Y-65825500D01*
X128750500Y-65825500D01*
X128817539Y-65845185D01*
X128863294Y-65897989D01*
X128874500Y-65949500D01*
X128874500Y-66225000D01*
X128874501Y-66225019D01*
X128885000Y-66327796D01*
X128885001Y-66327799D01*
X128940185Y-66494331D01*
X128940187Y-66494336D01*
X128959101Y-66525000D01*
X129032288Y-66643656D01*
X129156344Y-66767712D01*
X129305666Y-66859814D01*
X129472203Y-66914999D01*
X129574991Y-66925500D01*
X131075008Y-66925499D01*
X131177797Y-66914999D01*
X131344334Y-66859814D01*
X131493656Y-66767712D01*
X131617712Y-66643656D01*
X131709814Y-66494334D01*
X131764999Y-66327797D01*
X131775500Y-66225009D01*
X131775499Y-65681946D01*
X131795183Y-65614908D01*
X131847987Y-65569153D01*
X131917146Y-65559209D01*
X131980702Y-65588234D01*
X132017430Y-65643629D01*
X132036083Y-65701040D01*
X132036084Y-65701043D01*
X132120050Y-65865834D01*
X132135015Y-65886430D01*
X132725000Y-65296445D01*
X132725000Y-65302661D01*
X132752259Y-65404394D01*
X132804920Y-65495606D01*
X132879394Y-65570080D01*
X132970606Y-65622741D01*
X133072339Y-65650000D01*
X133078552Y-65650000D01*
X132488568Y-66239983D01*
X132488568Y-66239984D01*
X132509165Y-66254949D01*
X132673956Y-66338915D01*
X132673959Y-66338916D01*
X132849852Y-66396066D01*
X133032527Y-66425000D01*
X133217471Y-66425000D01*
X133261542Y-66418019D01*
X133330835Y-66426973D01*
X133366824Y-66451581D01*
X133366838Y-66451565D01*
X133366987Y-66451692D01*
X133368623Y-66452811D01*
X133370535Y-66454723D01*
X133370540Y-66454727D01*
X133542442Y-66579620D01*
X133731782Y-66676095D01*
X133933870Y-66741757D01*
X134143754Y-66775000D01*
X134150000Y-66775000D01*
X134150000Y-65858012D01*
X134207007Y-65890925D01*
X134334174Y-65925000D01*
X134465826Y-65925000D01*
X134592993Y-65890925D01*
X134650000Y-65858012D01*
X134650000Y-66775000D01*
X134656246Y-66775000D01*
X134866127Y-66741757D01*
X134866130Y-66741757D01*
X135068217Y-66676095D01*
X135257557Y-66579620D01*
X135429459Y-66454727D01*
X135429464Y-66454723D01*
X135579723Y-66304464D01*
X135579727Y-66304459D01*
X135675182Y-66173077D01*
X135730511Y-66130411D01*
X135800125Y-66124432D01*
X135861920Y-66157037D01*
X135896277Y-66217876D01*
X135899500Y-66245962D01*
X135899500Y-134751661D01*
X135879815Y-134818700D01*
X135827011Y-134864455D01*
X135757853Y-134874399D01*
X135719205Y-134862146D01*
X135693215Y-134848903D01*
X135491124Y-134783241D01*
X135425000Y-134772768D01*
X135425000Y-135820854D01*
X135358343Y-135782370D01*
X135237535Y-135750000D01*
X135112465Y-135750000D01*
X134991657Y-135782370D01*
X134925000Y-135820854D01*
X134925000Y-134772768D01*
X134924999Y-134772768D01*
X134858875Y-134783241D01*
X134656784Y-134848903D01*
X134467442Y-134945379D01*
X134295540Y-135070272D01*
X134295535Y-135070276D01*
X134145276Y-135220535D01*
X134145272Y-135220540D01*
X134025627Y-135385218D01*
X133970297Y-135427884D01*
X133900684Y-135433863D01*
X133838889Y-135401257D01*
X133824991Y-135385218D01*
X133705109Y-135220214D01*
X133705105Y-135220209D01*
X133554794Y-135069898D01*
X133554788Y-135069893D01*
X133476615Y-135013097D01*
X133433949Y-134957767D01*
X133425500Y-134912779D01*
X133425500Y-133670985D01*
X133445185Y-133603946D01*
X133497989Y-133558191D01*
X133567147Y-133548247D01*
X133594985Y-133555629D01*
X133618436Y-133564877D01*
X133706898Y-133575500D01*
X133706903Y-133575500D01*
X134093097Y-133575500D01*
X134093102Y-133575500D01*
X134181564Y-133564877D01*
X134205191Y-133555559D01*
X134274773Y-133549276D01*
X134296172Y-133555559D01*
X134318555Y-133564386D01*
X134400000Y-133574165D01*
X134400000Y-133512060D01*
X134419685Y-133445021D01*
X134438114Y-133425118D01*
X134436920Y-133423924D01*
X134442913Y-133417928D01*
X134442922Y-133417922D01*
X134534361Y-133297342D01*
X134560645Y-133230689D01*
X134603551Y-133175545D01*
X134669459Y-133152352D01*
X134737443Y-133168472D01*
X134785920Y-133218789D01*
X134800000Y-133276179D01*
X134800000Y-133574165D01*
X134881442Y-133564386D01*
X135022095Y-133508920D01*
X135142564Y-133417564D01*
X135233920Y-133297095D01*
X135289386Y-133156443D01*
X135300000Y-133068053D01*
X135300000Y-132925000D01*
X134761164Y-132925000D01*
X134752149Y-132922352D01*
X134742842Y-132923639D01*
X134719161Y-132912666D01*
X134694125Y-132905315D01*
X134687973Y-132898215D01*
X134679447Y-132894265D01*
X134665457Y-132872230D01*
X134648370Y-132852511D01*
X134646037Y-132841643D01*
X134641997Y-132835280D01*
X134640020Y-132813615D01*
X134637166Y-132800318D01*
X134637220Y-132790334D01*
X134638000Y-132786418D01*
X134638000Y-132648681D01*
X134638002Y-132648318D01*
X134647941Y-132615144D01*
X134657685Y-132581961D01*
X134657952Y-132581728D01*
X134658055Y-132581388D01*
X134684389Y-132558821D01*
X134710489Y-132536206D01*
X134710880Y-132536120D01*
X134711110Y-132535924D01*
X134712960Y-132535668D01*
X134762000Y-132525000D01*
X135300000Y-132525000D01*
X135300000Y-132381946D01*
X135289386Y-132293556D01*
X135233920Y-132152904D01*
X135142564Y-132032435D01*
X135022095Y-131941079D01*
X134881443Y-131885613D01*
X134800000Y-131875832D01*
X134800000Y-132173820D01*
X134780315Y-132240859D01*
X134727511Y-132286614D01*
X134658353Y-132296558D01*
X134594797Y-132267533D01*
X134560646Y-132219310D01*
X134534362Y-132152660D01*
X134534361Y-132152658D01*
X134442920Y-132032075D01*
X134436925Y-132026080D01*
X134439374Y-132023630D01*
X134407531Y-131980495D01*
X134400000Y-131937939D01*
X134400000Y-131875832D01*
X134318558Y-131885613D01*
X134318550Y-131885615D01*
X134296170Y-131894441D01*
X134226583Y-131900722D01*
X134205193Y-131894441D01*
X134181563Y-131885122D01*
X134128978Y-131878808D01*
X134093102Y-131874500D01*
X133706898Y-131874500D01*
X133673713Y-131878485D01*
X133618436Y-131885122D01*
X133608551Y-131889021D01*
X133538964Y-131895300D01*
X133477029Y-131862962D01*
X133442409Y-131802272D01*
X133446096Y-131732500D01*
X133475379Y-131685988D01*
X133542712Y-131618656D01*
X133634814Y-131469334D01*
X133689999Y-131302797D01*
X133700500Y-131200009D01*
X133700499Y-130574992D01*
X133689999Y-130472203D01*
X133634814Y-130305666D01*
X133542712Y-130156344D01*
X133418656Y-130032288D01*
X133418652Y-130032285D01*
X133342102Y-129985068D01*
X133326550Y-129967778D01*
X133307931Y-129953840D01*
X133303622Y-129942286D01*
X133295377Y-129933120D01*
X133291641Y-129910165D01*
X133283515Y-129888375D01*
X133286135Y-129876326D01*
X133284156Y-129864158D01*
X133293422Y-129842830D01*
X133298367Y-129820102D01*
X133310118Y-129804404D01*
X133311999Y-129800076D01*
X133319496Y-129791871D01*
X133387321Y-129724046D01*
X133448643Y-129690564D01*
X133518334Y-129695549D01*
X133562681Y-129724049D01*
X133656344Y-129817712D01*
X133805666Y-129909814D01*
X133972203Y-129964999D01*
X134074991Y-129975500D01*
X134700008Y-129975499D01*
X134700016Y-129975498D01*
X134700019Y-129975498D01*
X134775592Y-129967778D01*
X134802797Y-129964999D01*
X134969334Y-129909814D01*
X135118656Y-129817712D01*
X135242712Y-129693656D01*
X135334814Y-129544334D01*
X135389999Y-129377797D01*
X135400500Y-129275009D01*
X135400499Y-128274992D01*
X135389999Y-128172203D01*
X135334814Y-128005666D01*
X135242712Y-127856344D01*
X135174319Y-127787951D01*
X135140834Y-127726628D01*
X135138000Y-127700270D01*
X135138000Y-127198811D01*
X135156823Y-127134705D01*
X135156525Y-127134546D01*
X135157291Y-127133112D01*
X135157685Y-127131772D01*
X135158826Y-127130027D01*
X135159394Y-127129179D01*
X135219737Y-126983497D01*
X135250500Y-126828842D01*
X135250500Y-126671158D01*
X135250500Y-126671155D01*
X135250499Y-126671153D01*
X135219738Y-126516510D01*
X135219738Y-126516508D01*
X135219737Y-126516503D01*
X135161013Y-126374729D01*
X135159397Y-126370827D01*
X135159390Y-126370814D01*
X135071789Y-126239711D01*
X135071786Y-126239707D01*
X134960292Y-126128213D01*
X134960284Y-126128207D01*
X134829181Y-126040607D01*
X134829179Y-126040606D01*
X134805521Y-126030806D01*
X134765295Y-126003927D01*
X134336819Y-125575451D01*
X134303334Y-125514128D01*
X134300500Y-125487770D01*
X134300500Y-115792518D01*
X134320185Y-115725479D01*
X134368206Y-115682033D01*
X134526786Y-115601233D01*
X134526785Y-115601233D01*
X134526788Y-115601232D01*
X134666928Y-115499414D01*
X134789414Y-115376928D01*
X134891232Y-115236788D01*
X134969873Y-115082445D01*
X135023402Y-114917701D01*
X135050500Y-114746611D01*
X135050500Y-114573389D01*
X135023402Y-114402299D01*
X134969873Y-114237555D01*
X134891232Y-114083212D01*
X134789414Y-113943072D01*
X134666928Y-113820586D01*
X134526788Y-113718768D01*
X134372445Y-113640127D01*
X134207701Y-113586598D01*
X134207699Y-113586597D01*
X134207698Y-113586597D01*
X134065856Y-113564132D01*
X134036611Y-113559500D01*
X133063389Y-113559500D01*
X133034144Y-113564132D01*
X132892301Y-113586597D01*
X132723546Y-113641429D01*
X132708333Y-113641863D01*
X132694074Y-113647182D01*
X132674118Y-113642840D01*
X132653705Y-113643424D01*
X132639618Y-113635335D01*
X132625801Y-113632330D01*
X132597547Y-113611179D01*
X132586819Y-113600451D01*
X132553334Y-113539128D01*
X132550500Y-113512770D01*
X132550500Y-113231448D01*
X132570185Y-113164409D01*
X132622989Y-113118654D01*
X132692147Y-113108710D01*
X132722862Y-113118450D01*
X132723238Y-113117543D01*
X132727736Y-113119405D01*
X132892415Y-113172914D01*
X133063429Y-113200000D01*
X133300000Y-113200000D01*
X133300000Y-112415686D01*
X133304394Y-112420080D01*
X133395606Y-112472741D01*
X133497339Y-112500000D01*
X133602661Y-112500000D01*
X133704394Y-112472741D01*
X133795606Y-112420080D01*
X133800000Y-112415686D01*
X133800000Y-113200000D01*
X134036571Y-113200000D01*
X134207584Y-113172914D01*
X134372257Y-113119408D01*
X134526524Y-113040804D01*
X134666602Y-112939032D01*
X134789032Y-112816602D01*
X134890804Y-112676524D01*
X134969408Y-112522255D01*
X135022914Y-112357584D01*
X135024115Y-112350000D01*
X133865686Y-112350000D01*
X133870080Y-112345606D01*
X133922741Y-112254394D01*
X133950000Y-112152661D01*
X133950000Y-112047339D01*
X133922741Y-111945606D01*
X133870080Y-111854394D01*
X133865686Y-111850000D01*
X135024115Y-111850000D01*
X135024115Y-111849999D01*
X135022914Y-111842415D01*
X134969408Y-111677744D01*
X134890804Y-111523475D01*
X134789032Y-111383397D01*
X134666602Y-111260967D01*
X134526524Y-111159195D01*
X134372257Y-111080591D01*
X134207584Y-111027085D01*
X134036571Y-111000000D01*
X133800000Y-111000000D01*
X133800000Y-111784314D01*
X133795606Y-111779920D01*
X133704394Y-111727259D01*
X133602661Y-111700000D01*
X133497339Y-111700000D01*
X133395606Y-111727259D01*
X133304394Y-111779920D01*
X133300000Y-111784314D01*
X133300000Y-111007185D01*
X133256937Y-110971749D01*
X133241233Y-110948629D01*
X133222934Y-110927511D01*
X133221872Y-110920125D01*
X133217679Y-110913952D01*
X133216967Y-110886015D01*
X133212990Y-110858353D01*
X133216090Y-110851564D01*
X133215900Y-110844105D01*
X133230405Y-110820217D01*
X133242015Y-110794797D01*
X133248033Y-110788333D01*
X135182952Y-108853415D01*
X135225268Y-108790084D01*
X135265084Y-108730495D01*
X135290592Y-108668912D01*
X135321659Y-108593912D01*
X135346405Y-108469505D01*
X135350500Y-108448918D01*
X135350500Y-104001082D01*
X135350500Y-104001079D01*
X135321659Y-103856092D01*
X135321658Y-103856091D01*
X135321658Y-103856087D01*
X135265084Y-103719505D01*
X135232186Y-103670270D01*
X135232185Y-103670268D01*
X135182956Y-103596589D01*
X135182952Y-103596584D01*
X134503421Y-102917052D01*
X134503420Y-102917051D01*
X134421029Y-102862000D01*
X134421028Y-102861999D01*
X134380500Y-102834919D01*
X134380488Y-102834912D01*
X134243917Y-102778343D01*
X134243907Y-102778340D01*
X134098920Y-102749500D01*
X134098918Y-102749500D01*
X134066196Y-102749500D01*
X134001100Y-102731039D01*
X133894340Y-102665189D01*
X133894335Y-102665187D01*
X133894334Y-102665186D01*
X133727797Y-102610001D01*
X133727795Y-102610000D01*
X133625010Y-102599500D01*
X132624998Y-102599500D01*
X132624980Y-102599501D01*
X132522203Y-102610000D01*
X132522200Y-102610001D01*
X132355668Y-102665185D01*
X132355663Y-102665187D01*
X132206342Y-102757289D01*
X132137951Y-102825681D01*
X132111023Y-102840384D01*
X132085205Y-102856977D01*
X132079004Y-102857868D01*
X132076628Y-102859166D01*
X132050270Y-102862000D01*
X132049730Y-102862000D01*
X131982691Y-102842315D01*
X131962049Y-102825681D01*
X131893657Y-102757289D01*
X131893656Y-102757288D01*
X131744334Y-102665186D01*
X131577797Y-102610001D01*
X131577795Y-102610000D01*
X131475010Y-102599500D01*
X130474998Y-102599500D01*
X130474980Y-102599501D01*
X130372203Y-102610000D01*
X130372200Y-102610001D01*
X130205668Y-102665185D01*
X130205663Y-102665187D01*
X130056342Y-102757289D01*
X129932289Y-102881342D01*
X129840187Y-103030663D01*
X129840185Y-103030668D01*
X129822631Y-103083642D01*
X129785001Y-103197203D01*
X129785001Y-103197204D01*
X129785000Y-103197204D01*
X129774500Y-103299983D01*
X129774500Y-103925001D01*
X129774501Y-103925019D01*
X129785000Y-104027796D01*
X129785001Y-104027799D01*
X129840185Y-104194331D01*
X129840186Y-104194334D01*
X129908162Y-104304542D01*
X129932289Y-104343657D01*
X130025951Y-104437319D01*
X130059436Y-104498642D01*
X130054452Y-104568334D01*
X130025951Y-104612681D01*
X129932289Y-104706342D01*
X129840187Y-104855663D01*
X129840186Y-104855666D01*
X129785001Y-105022203D01*
X129785001Y-105022204D01*
X129785000Y-105022204D01*
X129774500Y-105124983D01*
X129774500Y-105750001D01*
X129774501Y-105750019D01*
X129785000Y-105852796D01*
X129785001Y-105852799D01*
X129840185Y-106019331D01*
X129840187Y-106019336D01*
X129849849Y-106035000D01*
X129932288Y-106168656D01*
X130056344Y-106292712D01*
X130165597Y-106360099D01*
X130212321Y-106412047D01*
X130224500Y-106465638D01*
X130224500Y-107387770D01*
X130204815Y-107454809D01*
X130188181Y-107475451D01*
X129625451Y-108038181D01*
X129564128Y-108071666D01*
X129537770Y-108074500D01*
X129210200Y-108074500D01*
X129143161Y-108054815D01*
X129097406Y-108002011D01*
X129087462Y-107932853D01*
X129091124Y-107915905D01*
X129122597Y-107807573D01*
X129122598Y-107807567D01*
X129125499Y-107770701D01*
X129125500Y-107770694D01*
X129125500Y-107339306D01*
X129122598Y-107302431D01*
X129076744Y-107144602D01*
X128993081Y-107003135D01*
X128993078Y-107003132D01*
X128988298Y-106996969D01*
X128990635Y-106995155D01*
X128963798Y-106946050D01*
X128968756Y-106876356D01*
X128989554Y-106843998D01*
X128987903Y-106842717D01*
X128992686Y-106836550D01*
X129076281Y-106695198D01*
X129122100Y-106537486D01*
X129122295Y-106535001D01*
X129122295Y-106535000D01*
X126077705Y-106535000D01*
X126077704Y-106535001D01*
X126077899Y-106537488D01*
X126077900Y-106537491D01*
X126089039Y-106575834D01*
X126088838Y-106645704D01*
X126050895Y-106704373D01*
X125987256Y-106733215D01*
X125918126Y-106723073D01*
X125909637Y-106718322D01*
X125909554Y-106718479D01*
X125904172Y-106715602D01*
X125758501Y-106655264D01*
X125758491Y-106655261D01*
X125700308Y-106643688D01*
X125638398Y-106611303D01*
X125603823Y-106550587D01*
X125600500Y-106522071D01*
X125600500Y-105265001D01*
X126077704Y-105265001D01*
X126077899Y-105267486D01*
X126123718Y-105425198D01*
X126207314Y-105566552D01*
X126212100Y-105572722D01*
X126209753Y-105574542D01*
X126236564Y-105623642D01*
X126231580Y-105693334D01*
X126210541Y-105726069D01*
X126212100Y-105727278D01*
X126207314Y-105733447D01*
X126123718Y-105874801D01*
X126077899Y-106032513D01*
X126077704Y-106034998D01*
X126077705Y-106035000D01*
X127350000Y-106035000D01*
X127850000Y-106035000D01*
X129122295Y-106035000D01*
X129122295Y-106034998D01*
X129122100Y-106032513D01*
X129076281Y-105874801D01*
X128992685Y-105733447D01*
X128987900Y-105727278D01*
X128990252Y-105725453D01*
X128963445Y-105676405D01*
X128968402Y-105606712D01*
X128989465Y-105573936D01*
X128987900Y-105572722D01*
X128992685Y-105566552D01*
X129076281Y-105425198D01*
X129122100Y-105267486D01*
X129122295Y-105265001D01*
X129122295Y-105265000D01*
X127850000Y-105265000D01*
X127850000Y-106035000D01*
X127350000Y-106035000D01*
X127350000Y-105265000D01*
X126077705Y-105265000D01*
X126077704Y-105265001D01*
X125600500Y-105265001D01*
X125600500Y-103995001D01*
X126077704Y-103995001D01*
X126077899Y-103997486D01*
X126123718Y-104155198D01*
X126207314Y-104296552D01*
X126212100Y-104302722D01*
X126209753Y-104304542D01*
X126236564Y-104353642D01*
X126231580Y-104423334D01*
X126210541Y-104456069D01*
X126212100Y-104457278D01*
X126207314Y-104463447D01*
X126123718Y-104604801D01*
X126077899Y-104762513D01*
X126077704Y-104764998D01*
X126077705Y-104765000D01*
X127350000Y-104765000D01*
X127850000Y-104765000D01*
X129122295Y-104765000D01*
X129122295Y-104764998D01*
X129122100Y-104762513D01*
X129076281Y-104604801D01*
X128992685Y-104463447D01*
X128987900Y-104457278D01*
X128990252Y-104455453D01*
X128963445Y-104406405D01*
X128968402Y-104336712D01*
X128989465Y-104303936D01*
X128987900Y-104302722D01*
X128992685Y-104296552D01*
X129076281Y-104155198D01*
X129122100Y-103997486D01*
X129122295Y-103995001D01*
X129122295Y-103995000D01*
X127850000Y-103995000D01*
X127850000Y-104765000D01*
X127350000Y-104765000D01*
X127350000Y-103995000D01*
X126077705Y-103995000D01*
X126077704Y-103995001D01*
X125600500Y-103995001D01*
X125600500Y-102725001D01*
X126077704Y-102725001D01*
X126077899Y-102727486D01*
X126123718Y-102885198D01*
X126207314Y-103026552D01*
X126212100Y-103032722D01*
X126209753Y-103034542D01*
X126236564Y-103083642D01*
X126231580Y-103153334D01*
X126210541Y-103186069D01*
X126212100Y-103187278D01*
X126207314Y-103193447D01*
X126123718Y-103334801D01*
X126077899Y-103492513D01*
X126077704Y-103494998D01*
X126077705Y-103495000D01*
X127350000Y-103495000D01*
X127850000Y-103495000D01*
X129122295Y-103495000D01*
X129122295Y-103494998D01*
X129122100Y-103492513D01*
X129076281Y-103334801D01*
X128992685Y-103193447D01*
X128987900Y-103187278D01*
X128990252Y-103185453D01*
X128963445Y-103136405D01*
X128968402Y-103066712D01*
X128989465Y-103033936D01*
X128987900Y-103032722D01*
X128992685Y-103026552D01*
X129076281Y-102885198D01*
X129122100Y-102727486D01*
X129122295Y-102725001D01*
X129122295Y-102725000D01*
X127850000Y-102725000D01*
X127850000Y-103495000D01*
X127350000Y-103495000D01*
X127350000Y-102725000D01*
X126077705Y-102725000D01*
X126077704Y-102725001D01*
X125600500Y-102725001D01*
X125600500Y-101455001D01*
X126077704Y-101455001D01*
X126077899Y-101457486D01*
X126123718Y-101615198D01*
X126207314Y-101756552D01*
X126212100Y-101762722D01*
X126209753Y-101764542D01*
X126236564Y-101813642D01*
X126231580Y-101883334D01*
X126210541Y-101916069D01*
X126212100Y-101917278D01*
X126207314Y-101923447D01*
X126123718Y-102064801D01*
X126077899Y-102222513D01*
X126077704Y-102224998D01*
X126077705Y-102225000D01*
X127350000Y-102225000D01*
X127850000Y-102225000D01*
X129122295Y-102225000D01*
X129122295Y-102224998D01*
X129122100Y-102222513D01*
X129076281Y-102064801D01*
X128992685Y-101923447D01*
X128987900Y-101917278D01*
X128990252Y-101915453D01*
X128963445Y-101866405D01*
X128968402Y-101796712D01*
X128989465Y-101763936D01*
X128987900Y-101762722D01*
X128992685Y-101756552D01*
X129076281Y-101615198D01*
X129122100Y-101457486D01*
X129122295Y-101455001D01*
X129122295Y-101455000D01*
X127850000Y-101455000D01*
X127850000Y-102225000D01*
X127350000Y-102225000D01*
X127350000Y-101455000D01*
X126077705Y-101455000D01*
X126077704Y-101455001D01*
X125600500Y-101455001D01*
X125600500Y-100954998D01*
X126077704Y-100954998D01*
X126077705Y-100955000D01*
X127350000Y-100955000D01*
X127850000Y-100955000D01*
X129122295Y-100955000D01*
X129122295Y-100954998D01*
X129122100Y-100952513D01*
X129076281Y-100794801D01*
X128992685Y-100653447D01*
X128992678Y-100653438D01*
X128876561Y-100537321D01*
X128876552Y-100537314D01*
X128735196Y-100453717D01*
X128735193Y-100453716D01*
X128577495Y-100407900D01*
X128577489Y-100407899D01*
X128540649Y-100405000D01*
X127850000Y-100405000D01*
X127850000Y-100955000D01*
X127350000Y-100955000D01*
X127350000Y-100405000D01*
X126659350Y-100405000D01*
X126622510Y-100407899D01*
X126622504Y-100407900D01*
X126464806Y-100453716D01*
X126464803Y-100453717D01*
X126323447Y-100537314D01*
X126323438Y-100537321D01*
X126207321Y-100653438D01*
X126207314Y-100653447D01*
X126123718Y-100794801D01*
X126077899Y-100952513D01*
X126077704Y-100954998D01*
X125600500Y-100954998D01*
X125600500Y-100862229D01*
X125620185Y-100795190D01*
X125636819Y-100774548D01*
X127382948Y-99028419D01*
X127382951Y-99028416D01*
X127465084Y-98905495D01*
X127521658Y-98768913D01*
X127526631Y-98743913D01*
X127550500Y-98623918D01*
X127550500Y-90925854D01*
X127570185Y-90858815D01*
X127622989Y-90813060D01*
X127692147Y-90803116D01*
X127755703Y-90832141D01*
X127777600Y-90856960D01*
X127842048Y-90953416D01*
X127842049Y-90953417D01*
X127842052Y-90953421D01*
X129192049Y-92303416D01*
X129290421Y-92401788D01*
X129296585Y-92407952D01*
X129419498Y-92490080D01*
X129419511Y-92490087D01*
X129548518Y-92543523D01*
X129556087Y-92546658D01*
X129556091Y-92546658D01*
X129556092Y-92546659D01*
X129701079Y-92575500D01*
X129701082Y-92575500D01*
X132267796Y-92575500D01*
X132334835Y-92595185D01*
X132355477Y-92611819D01*
X132408072Y-92664414D01*
X132548212Y-92766232D01*
X132702555Y-92844873D01*
X132867299Y-92898402D01*
X133038389Y-92925500D01*
X133038390Y-92925500D01*
X134011610Y-92925500D01*
X134011611Y-92925500D01*
X134182701Y-92898402D01*
X134347445Y-92844873D01*
X134501788Y-92766232D01*
X134641928Y-92664414D01*
X134764414Y-92541928D01*
X134866232Y-92401788D01*
X134944873Y-92247445D01*
X134998402Y-92082701D01*
X135025500Y-91911611D01*
X135025500Y-91738389D01*
X134998402Y-91567299D01*
X134944873Y-91402555D01*
X134866232Y-91248212D01*
X134764414Y-91108072D01*
X134641928Y-90985586D01*
X134501788Y-90883768D01*
X134347445Y-90805127D01*
X134182701Y-90751598D01*
X134182699Y-90751597D01*
X134182698Y-90751597D01*
X134051271Y-90730781D01*
X134011611Y-90724500D01*
X133038389Y-90724500D01*
X132998728Y-90730781D01*
X132867302Y-90751597D01*
X132702552Y-90805128D01*
X132548211Y-90883768D01*
X132490286Y-90925854D01*
X132408072Y-90985586D01*
X132408070Y-90985588D01*
X132408069Y-90985588D01*
X132355477Y-91038181D01*
X132294154Y-91071666D01*
X132267796Y-91074500D01*
X130137229Y-91074500D01*
X130070190Y-91054815D01*
X130049548Y-91038181D01*
X129211819Y-90200451D01*
X129178334Y-90139128D01*
X129175500Y-90112770D01*
X129175500Y-87629604D01*
X129184939Y-87582151D01*
X129185331Y-87581204D01*
X129194737Y-87558497D01*
X129225500Y-87403842D01*
X129225500Y-87246158D01*
X129225500Y-87246155D01*
X129225499Y-87246153D01*
X129205865Y-87147447D01*
X129194737Y-87091503D01*
X129187929Y-87075067D01*
X129134397Y-86945827D01*
X129134390Y-86945814D01*
X129046789Y-86814711D01*
X129046786Y-86814707D01*
X128935292Y-86703213D01*
X128935288Y-86703210D01*
X128804185Y-86615609D01*
X128804172Y-86615602D01*
X128658501Y-86555264D01*
X128658489Y-86555261D01*
X128625088Y-86548617D01*
X128563177Y-86516232D01*
X128528603Y-86455516D01*
X128532342Y-86385747D01*
X128573209Y-86329075D01*
X128638227Y-86303494D01*
X128649279Y-86303000D01*
X129540270Y-86303000D01*
X129607309Y-86322685D01*
X129627951Y-86339319D01*
X130188181Y-86899549D01*
X130221666Y-86960872D01*
X130224500Y-86987230D01*
X130224500Y-88738918D01*
X130224500Y-88738920D01*
X130224499Y-88738920D01*
X130253340Y-88883907D01*
X130253343Y-88883917D01*
X130309914Y-89020492D01*
X130342812Y-89069727D01*
X130342813Y-89069730D01*
X130392046Y-89143414D01*
X130392052Y-89143421D01*
X130992049Y-89743416D01*
X131090421Y-89841788D01*
X131096585Y-89847952D01*
X131219498Y-89930080D01*
X131219511Y-89930087D01*
X131348518Y-89983523D01*
X131356087Y-89986658D01*
X131356091Y-89986658D01*
X131356092Y-89986659D01*
X131501079Y-90015500D01*
X131501082Y-90015500D01*
X132267796Y-90015500D01*
X132334835Y-90035185D01*
X132355477Y-90051819D01*
X132408072Y-90104414D01*
X132548212Y-90206232D01*
X132702555Y-90284873D01*
X132867299Y-90338402D01*
X133038389Y-90365500D01*
X133038390Y-90365500D01*
X134011610Y-90365500D01*
X134011611Y-90365500D01*
X134182701Y-90338402D01*
X134347445Y-90284873D01*
X134501788Y-90206232D01*
X134641928Y-90104414D01*
X134764414Y-89981928D01*
X134866232Y-89841788D01*
X134944873Y-89687445D01*
X134998402Y-89522701D01*
X135025500Y-89351611D01*
X135025500Y-89178389D01*
X134998402Y-89007299D01*
X134944873Y-88842555D01*
X134866232Y-88688212D01*
X134764414Y-88548072D01*
X134641928Y-88425586D01*
X134501788Y-88323768D01*
X134347445Y-88245127D01*
X134182701Y-88191598D01*
X134182699Y-88191597D01*
X134182698Y-88191597D01*
X134037169Y-88168548D01*
X134011611Y-88164500D01*
X133038389Y-88164500D01*
X133012831Y-88168548D01*
X132867302Y-88191597D01*
X132702552Y-88245128D01*
X132548211Y-88323768D01*
X132468256Y-88381859D01*
X132408072Y-88425586D01*
X132408070Y-88425588D01*
X132408069Y-88425588D01*
X132355477Y-88478181D01*
X132294154Y-88511666D01*
X132267796Y-88514500D01*
X131937230Y-88514500D01*
X131870191Y-88494815D01*
X131849548Y-88478181D01*
X131761818Y-88390450D01*
X131728334Y-88329126D01*
X131725500Y-88302769D01*
X131725500Y-86638389D01*
X131974500Y-86638389D01*
X131974500Y-86811611D01*
X131974991Y-86814711D01*
X131998140Y-86960872D01*
X132001598Y-86982701D01*
X132055127Y-87147445D01*
X132133768Y-87301788D01*
X132235586Y-87441928D01*
X132358072Y-87564414D01*
X132498212Y-87666232D01*
X132652555Y-87744873D01*
X132817299Y-87798402D01*
X132988389Y-87825500D01*
X132988390Y-87825500D01*
X133961610Y-87825500D01*
X133961611Y-87825500D01*
X134132701Y-87798402D01*
X134297445Y-87744873D01*
X134451788Y-87666232D01*
X134591928Y-87564414D01*
X134714414Y-87441928D01*
X134816232Y-87301788D01*
X134894873Y-87147445D01*
X134948402Y-86982701D01*
X134975500Y-86811611D01*
X134975500Y-86638389D01*
X134948402Y-86467299D01*
X134894873Y-86302555D01*
X134816232Y-86148212D01*
X134714414Y-86008072D01*
X134591928Y-85885586D01*
X134451788Y-85783768D01*
X134297445Y-85705127D01*
X134132701Y-85651598D01*
X134132699Y-85651597D01*
X134132698Y-85651597D01*
X134001271Y-85630781D01*
X133961611Y-85624500D01*
X132988389Y-85624500D01*
X132948728Y-85630781D01*
X132817302Y-85651597D01*
X132652552Y-85705128D01*
X132498211Y-85783768D01*
X132432732Y-85831342D01*
X132358072Y-85885586D01*
X132358070Y-85885588D01*
X132358069Y-85885588D01*
X132235588Y-86008069D01*
X132235588Y-86008070D01*
X132235586Y-86008072D01*
X132203207Y-86052638D01*
X132133768Y-86148211D01*
X132055128Y-86302552D01*
X132001597Y-86467302D01*
X131979502Y-86606806D01*
X131974500Y-86638389D01*
X131725500Y-86638389D01*
X131725500Y-86551079D01*
X131696659Y-86406092D01*
X131696658Y-86406091D01*
X131696658Y-86406087D01*
X131640084Y-86269505D01*
X131597462Y-86205716D01*
X131597462Y-86205715D01*
X131557950Y-86146581D01*
X131557947Y-86146578D01*
X130380918Y-84969550D01*
X130380917Y-84969549D01*
X130311923Y-84923449D01*
X130311920Y-84923447D01*
X130305132Y-84918912D01*
X130257995Y-84887416D01*
X130136494Y-84837088D01*
X130132895Y-84835317D01*
X130110006Y-84814289D01*
X130085806Y-84794788D01*
X130084496Y-84790853D01*
X130081443Y-84788048D01*
X130073556Y-84757983D01*
X130063741Y-84728493D01*
X130064766Y-84724475D01*
X130063714Y-84720464D01*
X130073334Y-84690903D01*
X130081020Y-84660794D01*
X130084659Y-84656108D01*
X130085338Y-84654025D01*
X130087911Y-84651922D01*
X130099981Y-84636386D01*
X130103412Y-84632954D01*
X130103416Y-84632952D01*
X130657978Y-84078389D01*
X131974500Y-84078389D01*
X131974500Y-84251610D01*
X131997527Y-84397002D01*
X132001598Y-84422701D01*
X132055127Y-84587445D01*
X132133768Y-84741788D01*
X132235586Y-84881928D01*
X132358072Y-85004414D01*
X132498212Y-85106232D01*
X132652555Y-85184873D01*
X132817299Y-85238402D01*
X132988389Y-85265500D01*
X132988390Y-85265500D01*
X133961610Y-85265500D01*
X133961611Y-85265500D01*
X134132701Y-85238402D01*
X134297445Y-85184873D01*
X134451788Y-85106232D01*
X134591928Y-85004414D01*
X134714414Y-84881928D01*
X134816232Y-84741788D01*
X134894873Y-84587445D01*
X134948402Y-84422701D01*
X134975500Y-84251611D01*
X134975500Y-84078389D01*
X134948402Y-83907299D01*
X134894873Y-83742555D01*
X134816232Y-83588212D01*
X134714414Y-83448072D01*
X134591928Y-83325586D01*
X134451788Y-83223768D01*
X134297445Y-83145127D01*
X134132701Y-83091598D01*
X134132699Y-83091597D01*
X134132698Y-83091597D01*
X134001271Y-83070781D01*
X133961611Y-83064500D01*
X132988389Y-83064500D01*
X132948728Y-83070781D01*
X132817302Y-83091597D01*
X132652552Y-83145128D01*
X132498211Y-83223768D01*
X132426214Y-83276078D01*
X132358072Y-83325586D01*
X132358070Y-83325588D01*
X132358069Y-83325588D01*
X132235588Y-83448069D01*
X132235588Y-83448070D01*
X132235586Y-83448072D01*
X132206018Y-83488769D01*
X132133768Y-83588211D01*
X132055128Y-83742552D01*
X132001597Y-83907302D01*
X131974500Y-84078389D01*
X130657978Y-84078389D01*
X132229347Y-82507018D01*
X132290668Y-82473535D01*
X132360360Y-82478519D01*
X132389909Y-82494381D01*
X132523212Y-82591232D01*
X132677555Y-82669873D01*
X132842299Y-82723402D01*
X133013389Y-82750500D01*
X133013390Y-82750500D01*
X133986610Y-82750500D01*
X133986611Y-82750500D01*
X134157701Y-82723402D01*
X134322445Y-82669873D01*
X134476788Y-82591232D01*
X134616928Y-82489414D01*
X134739414Y-82366928D01*
X134841232Y-82226788D01*
X134919873Y-82072445D01*
X134973402Y-81907701D01*
X135000500Y-81736611D01*
X135000500Y-81563389D01*
X134973402Y-81392299D01*
X134919873Y-81227555D01*
X134841232Y-81073212D01*
X134739414Y-80933072D01*
X134616928Y-80810586D01*
X134476788Y-80708768D01*
X134322445Y-80630127D01*
X134157701Y-80576598D01*
X134157699Y-80576597D01*
X134157698Y-80576597D01*
X134026271Y-80555781D01*
X133986611Y-80549500D01*
X133013389Y-80549500D01*
X132973728Y-80555781D01*
X132842302Y-80576597D01*
X132677552Y-80630128D01*
X132523211Y-80708768D01*
X132443256Y-80766859D01*
X132383072Y-80810586D01*
X132383070Y-80810588D01*
X132383069Y-80810588D01*
X132330477Y-80863181D01*
X132269154Y-80896666D01*
X132242796Y-80899500D01*
X131951076Y-80899500D01*
X131922242Y-80905234D01*
X131922243Y-80905235D01*
X131806093Y-80928339D01*
X131806083Y-80928342D01*
X131726081Y-80961479D01*
X131726082Y-80961480D01*
X131669505Y-80984915D01*
X131587372Y-81039795D01*
X131546585Y-81067047D01*
X131546581Y-81067050D01*
X129487181Y-83126451D01*
X129425858Y-83159936D01*
X129356166Y-83154952D01*
X129300233Y-83113080D01*
X129275816Y-83047616D01*
X129275500Y-83038770D01*
X129275500Y-82946155D01*
X129275499Y-82946153D01*
X129244739Y-82791511D01*
X129244738Y-82791508D01*
X129244737Y-82791503D01*
X129234937Y-82767844D01*
X129225500Y-82720396D01*
X129225500Y-79426079D01*
X129196659Y-79281092D01*
X129196658Y-79281091D01*
X129196658Y-79281087D01*
X129153383Y-79176611D01*
X129140086Y-79144509D01*
X129140085Y-79144507D01*
X129107186Y-79095270D01*
X129088567Y-79067404D01*
X129088567Y-79067403D01*
X129057956Y-79021589D01*
X129057952Y-79021584D01*
X129039757Y-79003389D01*
X131999500Y-79003389D01*
X131999500Y-79176610D01*
X132016046Y-79281082D01*
X132026598Y-79347701D01*
X132080127Y-79512445D01*
X132158768Y-79666788D01*
X132260586Y-79806928D01*
X132383072Y-79929414D01*
X132523212Y-80031232D01*
X132677555Y-80109873D01*
X132842299Y-80163402D01*
X133013389Y-80190500D01*
X133013390Y-80190500D01*
X133986610Y-80190500D01*
X133986611Y-80190500D01*
X134157701Y-80163402D01*
X134322445Y-80109873D01*
X134476788Y-80031232D01*
X134616928Y-79929414D01*
X134739414Y-79806928D01*
X134841232Y-79666788D01*
X134919873Y-79512445D01*
X134973402Y-79347701D01*
X135000500Y-79176611D01*
X135000500Y-79003389D01*
X134973402Y-78832299D01*
X134919873Y-78667555D01*
X134841232Y-78513212D01*
X134739414Y-78373072D01*
X134616928Y-78250586D01*
X134476788Y-78148768D01*
X134322445Y-78070127D01*
X134157701Y-78016598D01*
X134157699Y-78016597D01*
X134157698Y-78016597D01*
X134022505Y-77995185D01*
X133986611Y-77989500D01*
X133013389Y-77989500D01*
X132977495Y-77995185D01*
X132842302Y-78016597D01*
X132677552Y-78070128D01*
X132523211Y-78148768D01*
X132443256Y-78206859D01*
X132383072Y-78250586D01*
X132383070Y-78250588D01*
X132383069Y-78250588D01*
X132260588Y-78373069D01*
X132260588Y-78373070D01*
X132260586Y-78373072D01*
X132216859Y-78433256D01*
X132158768Y-78513211D01*
X132080128Y-78667552D01*
X132026597Y-78832302D01*
X131999500Y-79003389D01*
X129039757Y-79003389D01*
X126678421Y-76642052D01*
X126678414Y-76642046D01*
X126604729Y-76592812D01*
X126604729Y-76592813D01*
X126555491Y-76559913D01*
X126418917Y-76503343D01*
X126418907Y-76503340D01*
X126273920Y-76474500D01*
X126273918Y-76474500D01*
X110312229Y-76474500D01*
X110245190Y-76454815D01*
X110224548Y-76438181D01*
X109286819Y-75500451D01*
X109253334Y-75439128D01*
X109250500Y-75412770D01*
X109250500Y-74412000D01*
X109270185Y-74344961D01*
X109322989Y-74299206D01*
X109374500Y-74288000D01*
X109615686Y-74288000D01*
X109615694Y-74288000D01*
X109652569Y-74285098D01*
X109652571Y-74285097D01*
X109652573Y-74285097D01*
X109694191Y-74273005D01*
X109810398Y-74239244D01*
X109951865Y-74155581D01*
X110068081Y-74039365D01*
X110151744Y-73897898D01*
X110197598Y-73740069D01*
X110200500Y-73703194D01*
X110200500Y-73271806D01*
X110197598Y-73234931D01*
X110151744Y-73077102D01*
X110068081Y-72935635D01*
X110068078Y-72935632D01*
X110063298Y-72929469D01*
X110065750Y-72927566D01*
X110039155Y-72878921D01*
X110044104Y-72809226D01*
X110064940Y-72776804D01*
X110063298Y-72775531D01*
X110068075Y-72769370D01*
X110068081Y-72769365D01*
X110151744Y-72627898D01*
X110151744Y-72627896D01*
X110151746Y-72627894D01*
X110151745Y-72627893D01*
X110197598Y-72470069D01*
X110197599Y-72470062D01*
X110199656Y-72443917D01*
X110200500Y-72433194D01*
X110200500Y-72001806D01*
X110197598Y-71964931D01*
X110193391Y-71950451D01*
X110151745Y-71807106D01*
X110151744Y-71807103D01*
X110151744Y-71807102D01*
X110068081Y-71665635D01*
X110068078Y-71665632D01*
X110063298Y-71659469D01*
X110065750Y-71657566D01*
X110039155Y-71608921D01*
X110044104Y-71539226D01*
X110064940Y-71506804D01*
X110063298Y-71505531D01*
X110068075Y-71499370D01*
X110068081Y-71499365D01*
X110151744Y-71357898D01*
X110197598Y-71200069D01*
X110200500Y-71163194D01*
X110200500Y-70731806D01*
X110197598Y-70694931D01*
X110151744Y-70537102D01*
X110068081Y-70395635D01*
X110068078Y-70395632D01*
X110063298Y-70389469D01*
X110065750Y-70387566D01*
X110039155Y-70338921D01*
X110044104Y-70269226D01*
X110064940Y-70236804D01*
X110063298Y-70235531D01*
X110068075Y-70229370D01*
X110068081Y-70229365D01*
X110151744Y-70087898D01*
X110197598Y-69930069D01*
X110200500Y-69893194D01*
X110200500Y-69461806D01*
X110197598Y-69424931D01*
X110151744Y-69267102D01*
X110068081Y-69125635D01*
X110068078Y-69125632D01*
X110063298Y-69119469D01*
X110065750Y-69117566D01*
X110039155Y-69068921D01*
X110044104Y-68999226D01*
X110064940Y-68966804D01*
X110063298Y-68965531D01*
X110068075Y-68959370D01*
X110068081Y-68959365D01*
X110151744Y-68817898D01*
X110197598Y-68660069D01*
X110200500Y-68623194D01*
X110200500Y-68191806D01*
X110197598Y-68154931D01*
X110151744Y-67997102D01*
X110068081Y-67855635D01*
X110068078Y-67855632D01*
X110063298Y-67849469D01*
X110065750Y-67847566D01*
X110039155Y-67798921D01*
X110044104Y-67729226D01*
X110064940Y-67696804D01*
X110063298Y-67695531D01*
X110068075Y-67689370D01*
X110068081Y-67689365D01*
X110151744Y-67547898D01*
X110192465Y-67407736D01*
X110197597Y-67390073D01*
X110197598Y-67390067D01*
X110197683Y-67388983D01*
X110200500Y-67353194D01*
X110200500Y-66921806D01*
X110197598Y-66884931D01*
X110194422Y-66874000D01*
X110163542Y-66767710D01*
X110151744Y-66727102D01*
X110068081Y-66585635D01*
X110068078Y-66585632D01*
X110063298Y-66579469D01*
X110065750Y-66577566D01*
X110039155Y-66528921D01*
X110044104Y-66459226D01*
X110064940Y-66426804D01*
X110063298Y-66425531D01*
X110068075Y-66419370D01*
X110068081Y-66419365D01*
X110151744Y-66277898D01*
X110194593Y-66130411D01*
X110197597Y-66120073D01*
X110197598Y-66120067D01*
X110200499Y-66083201D01*
X110200500Y-66083194D01*
X110200500Y-65651806D01*
X110197598Y-65614931D01*
X110197591Y-65614908D01*
X110156131Y-65472203D01*
X110151744Y-65457102D01*
X110068081Y-65315635D01*
X110068078Y-65315632D01*
X110063298Y-65309469D01*
X110065635Y-65307655D01*
X110038798Y-65258550D01*
X110043756Y-65188856D01*
X110064554Y-65156498D01*
X110062903Y-65155217D01*
X110067686Y-65149050D01*
X110151281Y-65007698D01*
X110197100Y-64849986D01*
X110197295Y-64847501D01*
X110197295Y-64847500D01*
X108624000Y-64847500D01*
X108556961Y-64827815D01*
X108511206Y-64775011D01*
X108500000Y-64723500D01*
X108500000Y-64597500D01*
X108374000Y-64597500D01*
X108306961Y-64577815D01*
X108261206Y-64525011D01*
X108250000Y-64473500D01*
X108250000Y-64347500D01*
X108750000Y-64347500D01*
X110197295Y-64347500D01*
X110197295Y-64347498D01*
X110197100Y-64345013D01*
X110151281Y-64187301D01*
X110067685Y-64045947D01*
X110067678Y-64045938D01*
X109951561Y-63929821D01*
X109951552Y-63929814D01*
X109810196Y-63846217D01*
X109810193Y-63846216D01*
X109652495Y-63800400D01*
X109652489Y-63800399D01*
X109615649Y-63797500D01*
X108750000Y-63797500D01*
X108750000Y-64347500D01*
X108250000Y-64347500D01*
X108250000Y-63797500D01*
X107384350Y-63797500D01*
X107347512Y-63800399D01*
X107234095Y-63833350D01*
X107164225Y-63833150D01*
X107105555Y-63795207D01*
X107076712Y-63731569D01*
X107075500Y-63714273D01*
X107075500Y-62634084D01*
X107095185Y-62567045D01*
X107147989Y-62521290D01*
X107201078Y-62510094D01*
X126227085Y-62752807D01*
G37*
%TD.AperFunction*%
%TA.AperFunction,Conductor*%
G36*
X122079809Y-91320185D02*
G01*
X122100451Y-91336819D01*
X123313181Y-92549548D01*
X123346666Y-92610871D01*
X123349500Y-92637229D01*
X123349500Y-93063859D01*
X123329815Y-93130898D01*
X123277011Y-93176653D01*
X123207853Y-93186597D01*
X123144297Y-93157572D01*
X123118113Y-93125860D01*
X123066506Y-93036476D01*
X123066505Y-93036475D01*
X122979918Y-92923633D01*
X122979917Y-92923633D01*
X122077577Y-93825973D01*
X122064641Y-93794742D01*
X121982563Y-93671903D01*
X121878097Y-93567437D01*
X121755258Y-93485359D01*
X121724023Y-93472421D01*
X122626365Y-92570080D01*
X122513524Y-92483494D01*
X122513516Y-92483488D01*
X122286482Y-92352409D01*
X122286471Y-92352404D01*
X122044255Y-92252075D01*
X121791020Y-92184222D01*
X121791009Y-92184220D01*
X121531094Y-92150000D01*
X121268905Y-92150000D01*
X121008990Y-92184220D01*
X121008979Y-92184222D01*
X120755744Y-92252075D01*
X120513528Y-92352404D01*
X120513517Y-92352409D01*
X120286471Y-92483496D01*
X120173633Y-92570079D01*
X120173633Y-92570080D01*
X121075974Y-93472421D01*
X121044742Y-93485359D01*
X120921903Y-93567437D01*
X120817437Y-93671903D01*
X120735359Y-93794742D01*
X120722421Y-93825974D01*
X119820080Y-92923633D01*
X119820079Y-92923633D01*
X119733496Y-93036471D01*
X119602409Y-93263517D01*
X119602404Y-93263528D01*
X119502075Y-93505744D01*
X119434222Y-93758979D01*
X119434220Y-93758990D01*
X119400000Y-94018905D01*
X119400000Y-94281094D01*
X119434220Y-94541009D01*
X119434222Y-94541020D01*
X119502075Y-94794255D01*
X119602404Y-95036471D01*
X119602409Y-95036482D01*
X119733488Y-95263516D01*
X119733494Y-95263524D01*
X119820080Y-95376365D01*
X120722421Y-94474024D01*
X120735359Y-94505258D01*
X120817437Y-94628097D01*
X120921903Y-94732563D01*
X121044742Y-94814641D01*
X121075974Y-94827577D01*
X120173633Y-95729917D01*
X120173633Y-95729918D01*
X120286475Y-95816505D01*
X120286483Y-95816511D01*
X120513517Y-95947590D01*
X120513528Y-95947595D01*
X120755744Y-96047924D01*
X121008979Y-96115777D01*
X121008990Y-96115779D01*
X121268905Y-96149999D01*
X121268920Y-96150000D01*
X121531080Y-96150000D01*
X121531094Y-96149999D01*
X121791009Y-96115779D01*
X121791020Y-96115777D01*
X122044255Y-96047924D01*
X122286471Y-95947595D01*
X122286482Y-95947590D01*
X122513516Y-95816511D01*
X122513534Y-95816499D01*
X122626365Y-95729919D01*
X122626365Y-95729917D01*
X121724025Y-94827578D01*
X121755258Y-94814641D01*
X121878097Y-94732563D01*
X121982563Y-94628097D01*
X122064641Y-94505258D01*
X122077577Y-94474025D01*
X122979917Y-95376365D01*
X122979919Y-95376365D01*
X123066499Y-95263534D01*
X123066510Y-95263517D01*
X123118113Y-95174140D01*
X123168680Y-95125924D01*
X123237287Y-95112701D01*
X123302152Y-95138670D01*
X123342680Y-95195584D01*
X123349500Y-95236140D01*
X123349500Y-98162770D01*
X123329815Y-98229809D01*
X123313181Y-98250451D01*
X121717047Y-99846584D01*
X121717043Y-99846589D01*
X121669967Y-99917047D01*
X121669966Y-99917049D01*
X121652441Y-99943277D01*
X121634916Y-99969504D01*
X121634912Y-99969511D01*
X121578343Y-100106082D01*
X121578340Y-100106092D01*
X121549500Y-100251079D01*
X121549500Y-107062769D01*
X121529815Y-107129808D01*
X121513181Y-107150450D01*
X120817049Y-107846582D01*
X120803375Y-107867048D01*
X120734913Y-107969508D01*
X120678343Y-108106082D01*
X120678340Y-108106092D01*
X120649500Y-108251079D01*
X120649500Y-112825500D01*
X120629815Y-112892539D01*
X120577011Y-112938294D01*
X120525500Y-112949500D01*
X119852129Y-112949500D01*
X119852123Y-112949501D01*
X119792516Y-112955908D01*
X119657671Y-113006202D01*
X119657664Y-113006206D01*
X119542455Y-113092452D01*
X119542452Y-113092455D01*
X119456206Y-113207664D01*
X119456202Y-113207671D01*
X119405908Y-113342517D01*
X119399501Y-113402116D01*
X119399501Y-113402123D01*
X119399500Y-113402135D01*
X119399500Y-116497870D01*
X119399501Y-116497876D01*
X119405908Y-116557483D01*
X119456202Y-116692328D01*
X119456206Y-116692334D01*
X119462835Y-116701190D01*
X119467542Y-116713810D01*
X119476362Y-116723989D01*
X119479513Y-116745906D01*
X119487252Y-116766654D01*
X119484389Y-116779814D01*
X119486306Y-116793147D01*
X119477106Y-116813290D01*
X119472400Y-116834927D01*
X119462876Y-116844450D01*
X119457281Y-116856703D01*
X119438651Y-116868675D01*
X119422995Y-116884332D01*
X119408553Y-116888018D01*
X119398503Y-116894477D01*
X119363568Y-116899500D01*
X119312229Y-116899500D01*
X119245190Y-116879815D01*
X119224548Y-116863181D01*
X116686819Y-114325451D01*
X116653334Y-114264128D01*
X116650500Y-114237770D01*
X116650500Y-111605013D01*
X116659939Y-111557560D01*
X116696658Y-111468913D01*
X116719528Y-111353943D01*
X116725500Y-111323920D01*
X116725500Y-110764809D01*
X116745185Y-110697770D01*
X116797989Y-110652015D01*
X116867147Y-110642071D01*
X116930703Y-110671096D01*
X116937181Y-110677128D01*
X117023129Y-110763076D01*
X117023133Y-110763079D01*
X117023135Y-110763081D01*
X117164602Y-110846744D01*
X117204560Y-110858353D01*
X117322426Y-110892597D01*
X117322429Y-110892597D01*
X117322431Y-110892598D01*
X117359306Y-110895500D01*
X117359314Y-110895500D01*
X119240686Y-110895500D01*
X119240694Y-110895500D01*
X119277569Y-110892598D01*
X119277571Y-110892597D01*
X119277573Y-110892597D01*
X119371924Y-110865185D01*
X119435398Y-110846744D01*
X119576865Y-110763081D01*
X119693081Y-110646865D01*
X119776744Y-110505398D01*
X119822598Y-110347569D01*
X119825500Y-110310694D01*
X119825500Y-109879306D01*
X119822598Y-109842431D01*
X119776744Y-109684602D01*
X119693081Y-109543135D01*
X119693078Y-109543132D01*
X119688298Y-109536969D01*
X119690750Y-109535066D01*
X119664155Y-109486421D01*
X119669104Y-109416726D01*
X119689940Y-109384304D01*
X119688298Y-109383031D01*
X119693075Y-109376870D01*
X119693081Y-109376865D01*
X119776744Y-109235398D01*
X119822598Y-109077569D01*
X119825500Y-109040694D01*
X119825500Y-108609306D01*
X119822598Y-108572431D01*
X119776744Y-108414602D01*
X119693081Y-108273135D01*
X119693078Y-108273132D01*
X119688298Y-108266969D01*
X119690750Y-108265066D01*
X119664155Y-108216421D01*
X119669104Y-108146726D01*
X119689940Y-108114304D01*
X119688298Y-108113031D01*
X119693075Y-108106870D01*
X119693081Y-108106865D01*
X119776744Y-107965398D01*
X119817848Y-107823918D01*
X119822597Y-107807573D01*
X119822598Y-107807567D01*
X119825499Y-107770701D01*
X119825500Y-107770694D01*
X119825500Y-107339306D01*
X119822598Y-107302431D01*
X119776744Y-107144602D01*
X119693081Y-107003135D01*
X119693078Y-107003132D01*
X119688298Y-106996969D01*
X119690750Y-106995066D01*
X119664155Y-106946421D01*
X119669104Y-106876726D01*
X119689940Y-106844304D01*
X119688298Y-106843031D01*
X119693075Y-106836870D01*
X119693081Y-106836865D01*
X119776744Y-106695398D01*
X119822598Y-106537569D01*
X119825500Y-106500694D01*
X119825500Y-106069306D01*
X119822598Y-106032431D01*
X119776744Y-105874602D01*
X119693081Y-105733135D01*
X119693078Y-105733132D01*
X119688298Y-105726969D01*
X119690635Y-105725155D01*
X119663798Y-105676050D01*
X119668756Y-105606356D01*
X119689554Y-105573998D01*
X119687903Y-105572717D01*
X119692686Y-105566550D01*
X119776281Y-105425198D01*
X119822100Y-105267486D01*
X119822295Y-105265001D01*
X119822295Y-105265000D01*
X116777705Y-105265000D01*
X116777704Y-105265001D01*
X116777899Y-105267486D01*
X116823718Y-105425198D01*
X116907314Y-105566552D01*
X116912100Y-105572722D01*
X116909640Y-105574629D01*
X116936210Y-105623288D01*
X116931226Y-105692980D01*
X116910162Y-105725781D01*
X116911699Y-105726974D01*
X116906915Y-105733140D01*
X116823255Y-105874603D01*
X116823254Y-105874606D01*
X116777402Y-106032426D01*
X116777401Y-106032432D01*
X116774500Y-106069298D01*
X116774500Y-106500701D01*
X116777401Y-106537567D01*
X116777402Y-106537573D01*
X116823254Y-106695393D01*
X116823255Y-106695396D01*
X116906917Y-106836862D01*
X116911702Y-106843031D01*
X116909256Y-106844927D01*
X116935857Y-106893642D01*
X116930873Y-106963334D01*
X116910069Y-106995703D01*
X116911702Y-106996969D01*
X116906917Y-107003137D01*
X116823255Y-107144603D01*
X116823254Y-107144606D01*
X116777402Y-107302426D01*
X116777401Y-107302432D01*
X116774500Y-107339298D01*
X116774500Y-107770701D01*
X116777401Y-107807567D01*
X116777402Y-107807573D01*
X116823511Y-107966280D01*
X116823312Y-108036150D01*
X116785370Y-108094820D01*
X116751888Y-108115436D01*
X116644506Y-108159915D01*
X116644504Y-108159916D01*
X116625671Y-108172499D01*
X116625672Y-108172500D01*
X116521579Y-108242051D01*
X115392049Y-109371581D01*
X115355074Y-109426918D01*
X115355075Y-109426919D01*
X115309915Y-109494506D01*
X115264061Y-109605209D01*
X115220220Y-109659612D01*
X115153926Y-109681677D01*
X115086227Y-109664398D01*
X115038616Y-109613261D01*
X115025500Y-109557756D01*
X115025500Y-103995001D01*
X116777704Y-103995001D01*
X116777899Y-103997486D01*
X116823718Y-104155198D01*
X116907314Y-104296552D01*
X116912100Y-104302722D01*
X116909753Y-104304542D01*
X116936564Y-104353642D01*
X116931580Y-104423334D01*
X116910541Y-104456069D01*
X116912100Y-104457278D01*
X116907314Y-104463447D01*
X116823718Y-104604801D01*
X116777899Y-104762513D01*
X116777704Y-104764998D01*
X116777705Y-104765000D01*
X118050000Y-104765000D01*
X118550000Y-104765000D01*
X119822295Y-104765000D01*
X119822295Y-104764998D01*
X119822100Y-104762513D01*
X119776281Y-104604801D01*
X119692685Y-104463447D01*
X119687900Y-104457278D01*
X119690252Y-104455453D01*
X119663445Y-104406405D01*
X119668402Y-104336712D01*
X119689465Y-104303936D01*
X119687900Y-104302722D01*
X119692685Y-104296552D01*
X119776281Y-104155198D01*
X119822100Y-103997486D01*
X119822295Y-103995001D01*
X119822295Y-103995000D01*
X118550000Y-103995000D01*
X118550000Y-104765000D01*
X118050000Y-104765000D01*
X118050000Y-103995000D01*
X116777705Y-103995000D01*
X116777704Y-103995001D01*
X115025500Y-103995001D01*
X115025500Y-102725001D01*
X116777704Y-102725001D01*
X116777899Y-102727486D01*
X116823718Y-102885198D01*
X116907314Y-103026552D01*
X116912100Y-103032722D01*
X116909753Y-103034542D01*
X116936564Y-103083642D01*
X116931580Y-103153334D01*
X116910541Y-103186069D01*
X116912100Y-103187278D01*
X116907314Y-103193447D01*
X116823718Y-103334801D01*
X116777899Y-103492513D01*
X116777704Y-103494998D01*
X116777705Y-103495000D01*
X118050000Y-103495000D01*
X118550000Y-103495000D01*
X119822295Y-103495000D01*
X119822295Y-103494998D01*
X119822100Y-103492513D01*
X119776281Y-103334801D01*
X119692685Y-103193447D01*
X119687900Y-103187278D01*
X119690252Y-103185453D01*
X119663445Y-103136405D01*
X119668402Y-103066712D01*
X119689465Y-103033936D01*
X119687900Y-103032722D01*
X119692685Y-103026552D01*
X119776281Y-102885198D01*
X119822100Y-102727486D01*
X119822295Y-102725001D01*
X119822295Y-102725000D01*
X118550000Y-102725000D01*
X118550000Y-103495000D01*
X118050000Y-103495000D01*
X118050000Y-102725000D01*
X116777705Y-102725000D01*
X116777704Y-102725001D01*
X115025500Y-102725001D01*
X115025500Y-101455001D01*
X116777704Y-101455001D01*
X116777899Y-101457486D01*
X116823718Y-101615198D01*
X116907314Y-101756552D01*
X116912100Y-101762722D01*
X116909753Y-101764542D01*
X116936564Y-101813642D01*
X116931580Y-101883334D01*
X116910541Y-101916069D01*
X116912100Y-101917278D01*
X116907314Y-101923447D01*
X116823718Y-102064801D01*
X116777899Y-102222513D01*
X116777704Y-102224998D01*
X116777705Y-102225000D01*
X118050000Y-102225000D01*
X118550000Y-102225000D01*
X119822295Y-102225000D01*
X119822295Y-102224998D01*
X119822100Y-102222513D01*
X119776281Y-102064801D01*
X119692685Y-101923447D01*
X119687900Y-101917278D01*
X119690252Y-101915453D01*
X119663445Y-101866405D01*
X119668402Y-101796712D01*
X119689465Y-101763936D01*
X119687900Y-101762722D01*
X119692685Y-101756552D01*
X119776281Y-101615198D01*
X119822100Y-101457486D01*
X119822295Y-101455001D01*
X119822295Y-101455000D01*
X118550000Y-101455000D01*
X118550000Y-102225000D01*
X118050000Y-102225000D01*
X118050000Y-101455000D01*
X116777705Y-101455000D01*
X116777704Y-101455001D01*
X115025500Y-101455001D01*
X115025500Y-100954998D01*
X116777704Y-100954998D01*
X116777705Y-100955000D01*
X118050000Y-100955000D01*
X118550000Y-100955000D01*
X119822295Y-100955000D01*
X119822295Y-100954998D01*
X119822100Y-100952513D01*
X119776281Y-100794801D01*
X119692685Y-100653447D01*
X119692678Y-100653438D01*
X119576561Y-100537321D01*
X119576552Y-100537314D01*
X119435196Y-100453717D01*
X119435193Y-100453716D01*
X119277495Y-100407900D01*
X119277489Y-100407899D01*
X119240649Y-100405000D01*
X118550000Y-100405000D01*
X118550000Y-100955000D01*
X118050000Y-100955000D01*
X118050000Y-100405000D01*
X117359350Y-100405000D01*
X117322510Y-100407899D01*
X117322504Y-100407900D01*
X117164806Y-100453716D01*
X117164803Y-100453717D01*
X117023447Y-100537314D01*
X117023438Y-100537321D01*
X116907321Y-100653438D01*
X116907314Y-100653447D01*
X116823718Y-100794801D01*
X116777899Y-100952513D01*
X116777704Y-100954998D01*
X115025500Y-100954998D01*
X115025500Y-92054784D01*
X115045185Y-91987745D01*
X115097989Y-91941990D01*
X115167147Y-91932046D01*
X115230703Y-91961071D01*
X115237181Y-91967103D01*
X115367214Y-92097136D01*
X115367218Y-92097139D01*
X115531079Y-92206628D01*
X115531092Y-92206635D01*
X115713160Y-92282049D01*
X115713165Y-92282051D01*
X115713169Y-92282051D01*
X115713170Y-92282052D01*
X115906456Y-92320500D01*
X115906459Y-92320500D01*
X116103543Y-92320500D01*
X116233582Y-92294632D01*
X116296835Y-92282051D01*
X116478914Y-92206632D01*
X116642782Y-92097139D01*
X116782139Y-91957782D01*
X116891632Y-91793914D01*
X116942433Y-91671266D01*
X116986272Y-91616866D01*
X117052566Y-91594801D01*
X117120265Y-91612080D01*
X117144671Y-91631038D01*
X117416585Y-91902952D01*
X117441359Y-91919505D01*
X117539505Y-91985084D01*
X117596080Y-92008518D01*
X117676088Y-92041659D01*
X117792241Y-92064763D01*
X117821082Y-92070500D01*
X117821083Y-92070500D01*
X117838432Y-92070500D01*
X117846408Y-92071539D01*
X117871317Y-92082517D01*
X117897429Y-92090185D01*
X117904358Y-92095228D01*
X118071079Y-92206628D01*
X118071092Y-92206635D01*
X118253160Y-92282049D01*
X118253165Y-92282051D01*
X118253169Y-92282051D01*
X118253170Y-92282052D01*
X118446456Y-92320500D01*
X118446459Y-92320500D01*
X118643543Y-92320500D01*
X118773582Y-92294632D01*
X118836835Y-92282051D01*
X119018914Y-92206632D01*
X119182782Y-92097139D01*
X119322139Y-91957782D01*
X119431632Y-91793914D01*
X119507051Y-91611835D01*
X119545500Y-91418541D01*
X119546097Y-91412481D01*
X119548932Y-91412760D01*
X119565185Y-91357412D01*
X119617989Y-91311657D01*
X119669990Y-91303031D01*
X119669990Y-91300500D01*
X119676082Y-91300500D01*
X122012770Y-91300500D01*
X122079809Y-91320185D01*
G37*
%TD.AperFunction*%
%TA.AperFunction,Conductor*%
G36*
X122967844Y-108184937D02*
G01*
X122991503Y-108194737D01*
X122991508Y-108194738D01*
X122991511Y-108194739D01*
X123146153Y-108225499D01*
X123146156Y-108225500D01*
X123198500Y-108225500D01*
X123265539Y-108245185D01*
X123311294Y-108297989D01*
X123322500Y-108349500D01*
X123322500Y-108996918D01*
X123322500Y-108996920D01*
X123322499Y-108996920D01*
X123351340Y-109141907D01*
X123351343Y-109141917D01*
X123407913Y-109278490D01*
X123407916Y-109278495D01*
X123424568Y-109303418D01*
X123490046Y-109401414D01*
X123490052Y-109401421D01*
X124646579Y-110557947D01*
X124646580Y-110557948D01*
X124646583Y-110557950D01*
X124646585Y-110557952D01*
X124769506Y-110640084D01*
X124769509Y-110640085D01*
X124773062Y-110641984D01*
X124802298Y-110663665D01*
X124809729Y-110671096D01*
X124816585Y-110677952D01*
X124939498Y-110760080D01*
X124939511Y-110760087D01*
X125076082Y-110816656D01*
X125076087Y-110816658D01*
X125076091Y-110816658D01*
X125076092Y-110816659D01*
X125221079Y-110845500D01*
X125221082Y-110845500D01*
X126442672Y-110845500D01*
X126477267Y-110850424D01*
X126622426Y-110892597D01*
X126622429Y-110892597D01*
X126622431Y-110892598D01*
X126659306Y-110895500D01*
X126659314Y-110895500D01*
X128540686Y-110895500D01*
X128540694Y-110895500D01*
X128577569Y-110892598D01*
X128577571Y-110892597D01*
X128577573Y-110892597D01*
X128722733Y-110850424D01*
X128757328Y-110845500D01*
X130944271Y-110845500D01*
X131011310Y-110865185D01*
X131057065Y-110917989D01*
X131067009Y-110987147D01*
X131065888Y-110993691D01*
X131049500Y-111076077D01*
X131049500Y-111076082D01*
X131049500Y-113973918D01*
X131049500Y-113973920D01*
X131049499Y-113973920D01*
X131078340Y-114118907D01*
X131078343Y-114118917D01*
X131134913Y-114255490D01*
X131134916Y-114255495D01*
X131152017Y-114281090D01*
X131217046Y-114378414D01*
X131217047Y-114378415D01*
X131217048Y-114378416D01*
X131321584Y-114482952D01*
X131386136Y-114526083D01*
X131386849Y-114526559D01*
X131386894Y-114526614D01*
X131405558Y-114541926D01*
X131918451Y-115054819D01*
X131951936Y-115116142D01*
X131946952Y-115185834D01*
X131918451Y-115230181D01*
X130285451Y-116863181D01*
X130224128Y-116896666D01*
X130197770Y-116899500D01*
X123436432Y-116899500D01*
X123369393Y-116879815D01*
X123323638Y-116827011D01*
X123313694Y-116757853D01*
X123337165Y-116701190D01*
X123340679Y-116696494D01*
X123343796Y-116692331D01*
X123394091Y-116557483D01*
X123400500Y-116497873D01*
X123400499Y-113402128D01*
X123394091Y-113342517D01*
X123343796Y-113207669D01*
X123343795Y-113207668D01*
X123343793Y-113207664D01*
X123257547Y-113092455D01*
X123257544Y-113092452D01*
X123142335Y-113006206D01*
X123142328Y-113006202D01*
X123007482Y-112955908D01*
X123007483Y-112955908D01*
X122947883Y-112949501D01*
X122947881Y-112949500D01*
X122947873Y-112949500D01*
X122947865Y-112949500D01*
X122274500Y-112949500D01*
X122207461Y-112929815D01*
X122161706Y-112877011D01*
X122150500Y-112825500D01*
X122150500Y-108687230D01*
X122159142Y-108657796D01*
X122165663Y-108627811D01*
X122169422Y-108622789D01*
X122170185Y-108620191D01*
X122186812Y-108599555D01*
X122574548Y-108211819D01*
X122635871Y-108178334D01*
X122662229Y-108175500D01*
X122920396Y-108175500D01*
X122967844Y-108184937D01*
G37*
%TD.AperFunction*%
%TA.AperFunction,Conductor*%
G36*
X107203814Y-89950382D02*
G01*
X107217147Y-89948466D01*
X107237290Y-89957665D01*
X107258927Y-89962372D01*
X107276652Y-89975640D01*
X107280703Y-89977491D01*
X107287181Y-89983523D01*
X107408072Y-90104414D01*
X107548212Y-90206232D01*
X107702555Y-90284873D01*
X107867299Y-90338402D01*
X108038389Y-90365500D01*
X108038390Y-90365500D01*
X109011610Y-90365500D01*
X109011611Y-90365500D01*
X109182701Y-90338402D01*
X109347445Y-90284873D01*
X109408611Y-90253707D01*
X109486514Y-90214015D01*
X109542808Y-90200500D01*
X110284362Y-90200500D01*
X110351401Y-90220185D01*
X110389899Y-90259401D01*
X110457288Y-90368656D01*
X110457289Y-90368657D01*
X110581344Y-90492712D01*
X110597115Y-90502440D01*
X110643839Y-90554389D01*
X110655060Y-90623352D01*
X110627216Y-90687433D01*
X110608934Y-90705239D01*
X110606347Y-90707284D01*
X110482289Y-90831342D01*
X110390187Y-90980663D01*
X110390185Y-90980668D01*
X110388555Y-90985588D01*
X110335001Y-91147203D01*
X110335001Y-91147204D01*
X110335000Y-91147204D01*
X110324500Y-91249983D01*
X110324500Y-92300001D01*
X110324501Y-92300019D01*
X110335000Y-92402796D01*
X110335001Y-92402799D01*
X110390185Y-92569331D01*
X110390187Y-92569336D01*
X110406131Y-92595185D01*
X110472266Y-92702408D01*
X110482289Y-92718657D01*
X110538181Y-92774549D01*
X110571666Y-92835872D01*
X110574500Y-92862230D01*
X110574500Y-93948918D01*
X110574500Y-93948920D01*
X110574499Y-93948920D01*
X110603340Y-94093907D01*
X110603343Y-94093917D01*
X110659914Y-94230492D01*
X110692812Y-94279727D01*
X110692813Y-94279730D01*
X110742046Y-94353414D01*
X110742052Y-94353421D01*
X111813181Y-95424548D01*
X111846666Y-95485871D01*
X111849500Y-95512229D01*
X111849500Y-114513769D01*
X111829815Y-114580808D01*
X111777011Y-114626563D01*
X111707853Y-114636507D01*
X111644297Y-114607482D01*
X111637819Y-114601450D01*
X111113421Y-114077052D01*
X111113414Y-114077046D01*
X111039729Y-114027812D01*
X111039729Y-114027813D01*
X110990491Y-113994913D01*
X110853917Y-113938343D01*
X110853907Y-113938340D01*
X110708920Y-113909500D01*
X110708918Y-113909500D01*
X109807204Y-113909500D01*
X109740165Y-113889815D01*
X109719523Y-113873181D01*
X109666930Y-113820588D01*
X109666928Y-113820586D01*
X109526788Y-113718768D01*
X109372445Y-113640127D01*
X109207701Y-113586598D01*
X109207699Y-113586597D01*
X109207698Y-113586597D01*
X109065856Y-113564132D01*
X109036611Y-113559500D01*
X108063389Y-113559500D01*
X108034144Y-113564132D01*
X107892302Y-113586597D01*
X107727552Y-113640128D01*
X107573211Y-113718768D01*
X107493256Y-113776859D01*
X107433072Y-113820586D01*
X107433070Y-113820588D01*
X107433069Y-113820588D01*
X107310589Y-113943068D01*
X107310588Y-113943070D01*
X107310586Y-113943072D01*
X107299815Y-113957896D01*
X107244486Y-114000559D01*
X107174872Y-114006537D01*
X107113078Y-113973930D01*
X107078722Y-113913090D01*
X107075500Y-113885007D01*
X107075500Y-112874142D01*
X107095185Y-112807103D01*
X107147989Y-112761348D01*
X107217147Y-112751404D01*
X107280703Y-112780429D01*
X107299820Y-112801259D01*
X107310965Y-112816600D01*
X107433397Y-112939032D01*
X107573475Y-113040804D01*
X107727742Y-113119408D01*
X107892415Y-113172914D01*
X108063429Y-113200000D01*
X108300000Y-113200000D01*
X108300000Y-112415686D01*
X108304394Y-112420080D01*
X108395606Y-112472741D01*
X108497339Y-112500000D01*
X108602661Y-112500000D01*
X108704394Y-112472741D01*
X108795606Y-112420080D01*
X108800000Y-112415686D01*
X108800000Y-113200000D01*
X109036571Y-113200000D01*
X109207584Y-113172914D01*
X109372257Y-113119408D01*
X109526524Y-113040804D01*
X109666602Y-112939032D01*
X109789032Y-112816602D01*
X109890804Y-112676524D01*
X109969408Y-112522255D01*
X110022914Y-112357584D01*
X110024115Y-112350000D01*
X108865686Y-112350000D01*
X108870080Y-112345606D01*
X108922741Y-112254394D01*
X108950000Y-112152661D01*
X108950000Y-112047339D01*
X108922741Y-111945606D01*
X108870080Y-111854394D01*
X108865686Y-111850000D01*
X110024115Y-111850000D01*
X110024115Y-111849999D01*
X110022914Y-111842415D01*
X109969408Y-111677744D01*
X109890804Y-111523475D01*
X109789032Y-111383397D01*
X109666602Y-111260967D01*
X109526524Y-111159195D01*
X109372257Y-111080591D01*
X109207584Y-111027085D01*
X109036571Y-111000000D01*
X108800000Y-111000000D01*
X108800000Y-111784314D01*
X108795606Y-111779920D01*
X108704394Y-111727259D01*
X108602661Y-111700000D01*
X108497339Y-111700000D01*
X108395606Y-111727259D01*
X108304394Y-111779920D01*
X108300000Y-111784314D01*
X108300000Y-111000000D01*
X108063429Y-111000000D01*
X107892415Y-111027085D01*
X107727742Y-111080591D01*
X107573475Y-111159195D01*
X107433397Y-111260967D01*
X107310965Y-111383399D01*
X107310961Y-111383404D01*
X107299818Y-111398742D01*
X107244489Y-111441408D01*
X107174875Y-111447387D01*
X107113080Y-111414782D01*
X107078723Y-111353943D01*
X107075500Y-111325857D01*
X107075500Y-92631204D01*
X107095185Y-92564165D01*
X107147989Y-92518410D01*
X107217147Y-92508466D01*
X107280703Y-92537491D01*
X107287181Y-92543523D01*
X107408072Y-92664414D01*
X107548212Y-92766232D01*
X107702555Y-92844873D01*
X107867299Y-92898402D01*
X108038389Y-92925500D01*
X108038390Y-92925500D01*
X109011610Y-92925500D01*
X109011611Y-92925500D01*
X109182701Y-92898402D01*
X109347445Y-92844873D01*
X109501788Y-92766232D01*
X109641928Y-92664414D01*
X109764414Y-92541928D01*
X109866232Y-92401788D01*
X109944873Y-92247445D01*
X109998402Y-92082701D01*
X110025500Y-91911611D01*
X110025500Y-91738389D01*
X109998402Y-91567299D01*
X109944873Y-91402555D01*
X109866232Y-91248212D01*
X109764414Y-91108072D01*
X109641928Y-90985586D01*
X109501788Y-90883768D01*
X109347445Y-90805127D01*
X109182701Y-90751598D01*
X109182699Y-90751597D01*
X109182698Y-90751597D01*
X109051271Y-90730781D01*
X109011611Y-90724500D01*
X108038389Y-90724500D01*
X107998728Y-90730781D01*
X107867302Y-90751597D01*
X107702552Y-90805128D01*
X107548211Y-90883768D01*
X107490286Y-90925854D01*
X107408072Y-90985586D01*
X107408070Y-90985588D01*
X107408069Y-90985588D01*
X107287181Y-91106477D01*
X107225858Y-91139962D01*
X107156166Y-91134978D01*
X107100233Y-91093106D01*
X107075816Y-91027642D01*
X107075500Y-91018796D01*
X107075500Y-90071204D01*
X107081738Y-90049958D01*
X107083318Y-90027870D01*
X107091390Y-90017086D01*
X107095185Y-90004165D01*
X107111918Y-89989665D01*
X107125190Y-89971937D01*
X107137810Y-89967229D01*
X107147989Y-89958410D01*
X107169906Y-89955258D01*
X107190654Y-89947520D01*
X107203814Y-89950382D01*
G37*
%TD.AperFunction*%
%TA.AperFunction,Conductor*%
G36*
X113418039Y-91794685D02*
G01*
X113463794Y-91847489D01*
X113475000Y-91899000D01*
X113475000Y-92999999D01*
X113488181Y-93013180D01*
X113521666Y-93074503D01*
X113524500Y-93100861D01*
X113524500Y-94797400D01*
X113504815Y-94864439D01*
X113452011Y-94910194D01*
X113382853Y-94920138D01*
X113319297Y-94891113D01*
X113285939Y-94844853D01*
X113265085Y-94794507D01*
X113265080Y-94794498D01*
X113182952Y-94671585D01*
X113139464Y-94628097D01*
X113078416Y-94567049D01*
X112605274Y-94093907D01*
X112111819Y-93600451D01*
X112078334Y-93539128D01*
X112075500Y-93512770D01*
X112075500Y-92862230D01*
X112083506Y-92834962D01*
X112088487Y-92806985D01*
X112093953Y-92799385D01*
X112095185Y-92795191D01*
X112108548Y-92777947D01*
X112110153Y-92776214D01*
X112167712Y-92718656D01*
X112176112Y-92705036D01*
X112184341Y-92696157D01*
X112204361Y-92684214D01*
X112221694Y-92668623D01*
X112233806Y-92666650D01*
X112244346Y-92660364D01*
X112267645Y-92661141D01*
X112290656Y-92657395D01*
X112301911Y-92662284D01*
X112314177Y-92662694D01*
X112333357Y-92675945D01*
X112354740Y-92685234D01*
X112366581Y-92698897D01*
X112371662Y-92702408D01*
X112373552Y-92706942D01*
X112380829Y-92715339D01*
X112382681Y-92718341D01*
X112382683Y-92718344D01*
X112506654Y-92842315D01*
X112655875Y-92934356D01*
X112655880Y-92934358D01*
X112822302Y-92989505D01*
X112822309Y-92989506D01*
X112925019Y-92999999D01*
X112974999Y-92999998D01*
X112975000Y-92999998D01*
X112975000Y-91899000D01*
X112994685Y-91831961D01*
X113047489Y-91786206D01*
X113099000Y-91775000D01*
X113351000Y-91775000D01*
X113418039Y-91794685D01*
G37*
%TD.AperFunction*%
%TA.AperFunction,Conductor*%
G36*
X107212668Y-74249152D02*
G01*
X107217147Y-74248509D01*
X107234095Y-74252171D01*
X107347426Y-74285097D01*
X107347429Y-74285097D01*
X107347431Y-74285098D01*
X107384306Y-74288000D01*
X107625500Y-74288000D01*
X107692539Y-74307685D01*
X107738294Y-74360489D01*
X107749500Y-74412000D01*
X107749500Y-75848918D01*
X107749500Y-75848920D01*
X107749499Y-75848920D01*
X107778340Y-75993907D01*
X107778343Y-75993917D01*
X107834914Y-76130492D01*
X107867812Y-76179727D01*
X107867813Y-76179730D01*
X107917046Y-76253414D01*
X107917052Y-76253421D01*
X109367049Y-77703416D01*
X109471584Y-77807951D01*
X109471587Y-77807953D01*
X109471588Y-77807954D01*
X109594503Y-77890083D01*
X109594506Y-77890085D01*
X109644665Y-77910861D01*
X109651080Y-77913518D01*
X109731088Y-77946659D01*
X109847241Y-77969763D01*
X109870380Y-77974365D01*
X109876081Y-77975500D01*
X109876082Y-77975500D01*
X109876083Y-77975500D01*
X110023918Y-77975500D01*
X125837770Y-77975500D01*
X125904809Y-77995185D01*
X125925451Y-78011819D01*
X127688181Y-79774549D01*
X127721666Y-79835872D01*
X127724500Y-79862230D01*
X127724500Y-82720396D01*
X127715062Y-82767844D01*
X127705263Y-82791503D01*
X127705262Y-82791506D01*
X127705260Y-82791511D01*
X127674500Y-82946153D01*
X127674500Y-83103846D01*
X127683941Y-83151309D01*
X127677714Y-83220901D01*
X127634851Y-83276078D01*
X127568961Y-83299322D01*
X127562324Y-83299500D01*
X120951080Y-83299500D01*
X120806092Y-83328340D01*
X120806082Y-83328343D01*
X120669511Y-83384912D01*
X120669504Y-83384916D01*
X120652203Y-83396477D01*
X120640676Y-83404179D01*
X120546579Y-83467051D01*
X120546578Y-83467052D01*
X120437181Y-83576450D01*
X120375858Y-83609935D01*
X120306166Y-83604951D01*
X120250233Y-83563079D01*
X120225816Y-83497615D01*
X120225500Y-83488769D01*
X120225500Y-82279604D01*
X120234939Y-82232151D01*
X120244737Y-82208497D01*
X120275500Y-82053842D01*
X120275500Y-81896158D01*
X120275500Y-81896155D01*
X120275499Y-81896153D01*
X120244738Y-81741510D01*
X120244737Y-81741503D01*
X120242710Y-81736610D01*
X120184397Y-81595827D01*
X120184390Y-81595814D01*
X120096789Y-81464711D01*
X120096786Y-81464707D01*
X119985292Y-81353213D01*
X119985288Y-81353210D01*
X119854185Y-81265609D01*
X119854172Y-81265602D01*
X119708501Y-81205264D01*
X119708489Y-81205261D01*
X119553845Y-81174500D01*
X119553842Y-81174500D01*
X119396158Y-81174500D01*
X119396155Y-81174500D01*
X119241510Y-81205261D01*
X119241498Y-81205264D01*
X119095827Y-81265602D01*
X119095814Y-81265609D01*
X118964711Y-81353210D01*
X118964707Y-81353213D01*
X118853213Y-81464707D01*
X118853210Y-81464711D01*
X118765609Y-81595814D01*
X118765602Y-81595827D01*
X118705264Y-81741498D01*
X118705261Y-81741510D01*
X118674500Y-81896153D01*
X118674500Y-82053846D01*
X118705261Y-82208489D01*
X118705263Y-82208497D01*
X118712839Y-82226788D01*
X118715061Y-82232151D01*
X118724500Y-82279604D01*
X118724500Y-84833398D01*
X118704815Y-84900437D01*
X118652011Y-84946192D01*
X118582853Y-84956136D01*
X118519297Y-84927111D01*
X118512819Y-84921079D01*
X118476561Y-84884821D01*
X118476552Y-84884814D01*
X118335196Y-84801217D01*
X118335193Y-84801216D01*
X118177495Y-84755400D01*
X118177489Y-84755399D01*
X118140649Y-84752500D01*
X117500000Y-84752500D01*
X117500000Y-85428500D01*
X117480315Y-85495539D01*
X117427511Y-85541294D01*
X117376000Y-85552500D01*
X117250000Y-85552500D01*
X117250000Y-85678500D01*
X117230315Y-85745539D01*
X117177511Y-85791294D01*
X117126000Y-85802500D01*
X115777705Y-85802500D01*
X115777704Y-85802501D01*
X115777899Y-85804986D01*
X115823718Y-85962698D01*
X115907314Y-86104052D01*
X115912100Y-86110222D01*
X115909640Y-86112129D01*
X115936210Y-86160788D01*
X115931226Y-86230480D01*
X115910162Y-86263281D01*
X115911699Y-86264474D01*
X115906915Y-86270640D01*
X115823255Y-86412103D01*
X115823254Y-86412106D01*
X115777402Y-86569926D01*
X115777401Y-86569932D01*
X115774500Y-86606798D01*
X115774500Y-87038201D01*
X115777401Y-87075067D01*
X115777402Y-87075073D01*
X115816288Y-87208917D01*
X115816089Y-87278786D01*
X115778147Y-87337456D01*
X115744665Y-87358073D01*
X115619510Y-87409914D01*
X115619502Y-87409918D01*
X115557418Y-87451400D01*
X115496584Y-87492048D01*
X115496582Y-87492049D01*
X115496579Y-87492052D01*
X115496578Y-87492052D01*
X115237181Y-87751450D01*
X115175858Y-87784935D01*
X115106166Y-87779951D01*
X115050233Y-87738079D01*
X115025816Y-87672615D01*
X115025500Y-87663769D01*
X115025500Y-87201079D01*
X114996659Y-87056092D01*
X114996658Y-87056091D01*
X114996658Y-87056087D01*
X114996656Y-87056082D01*
X114940087Y-86919511D01*
X114940080Y-86919498D01*
X114857952Y-86796585D01*
X114842449Y-86781082D01*
X114753416Y-86692049D01*
X114668165Y-86606798D01*
X114303421Y-86242052D01*
X114303414Y-86242046D01*
X114235524Y-86196684D01*
X114235517Y-86196680D01*
X114229729Y-86192813D01*
X114180495Y-86159916D01*
X114099094Y-86126198D01*
X114094452Y-86123800D01*
X114072813Y-86103130D01*
X114049512Y-86084353D01*
X114046185Y-86077696D01*
X114043928Y-86075540D01*
X114042823Y-86070967D01*
X114033663Y-86052638D01*
X114024472Y-86024902D01*
X114009814Y-85980666D01*
X113917712Y-85831344D01*
X113861195Y-85774827D01*
X113827710Y-85713504D01*
X113832694Y-85643812D01*
X113861195Y-85599464D01*
X113942317Y-85518342D01*
X114034356Y-85369124D01*
X114034359Y-85369117D01*
X114054664Y-85307841D01*
X114054664Y-85307840D01*
X114056434Y-85302498D01*
X115777704Y-85302498D01*
X115777705Y-85302500D01*
X117000000Y-85302500D01*
X117000000Y-84752500D01*
X116359350Y-84752500D01*
X116322510Y-84755399D01*
X116322504Y-84755400D01*
X116164806Y-84801216D01*
X116164803Y-84801217D01*
X116023447Y-84884814D01*
X116023438Y-84884821D01*
X115907321Y-85000938D01*
X115907314Y-85000947D01*
X115823718Y-85142301D01*
X115777899Y-85300013D01*
X115777704Y-85302498D01*
X114056434Y-85302498D01*
X114089505Y-85202697D01*
X114089506Y-85202690D01*
X114099999Y-85099986D01*
X114100000Y-85099973D01*
X114100000Y-84825000D01*
X113224000Y-84825000D01*
X113156961Y-84805315D01*
X113111206Y-84752511D01*
X113100000Y-84701000D01*
X113100000Y-84575000D01*
X112974000Y-84575000D01*
X112906961Y-84555315D01*
X112861206Y-84502511D01*
X112850000Y-84451000D01*
X112850000Y-84325000D01*
X113350000Y-84325000D01*
X114099999Y-84325000D01*
X114099999Y-84050028D01*
X114099998Y-84050013D01*
X114089505Y-83947302D01*
X114034358Y-83780880D01*
X114034356Y-83780875D01*
X113942315Y-83631654D01*
X113818345Y-83507684D01*
X113669124Y-83415643D01*
X113669119Y-83415641D01*
X113502697Y-83360494D01*
X113502690Y-83360493D01*
X113399986Y-83350000D01*
X113350000Y-83350000D01*
X113350000Y-84325000D01*
X112850000Y-84325000D01*
X112850000Y-83350000D01*
X112849999Y-83349999D01*
X112800029Y-83350000D01*
X112800011Y-83350001D01*
X112697302Y-83360494D01*
X112530880Y-83415641D01*
X112530875Y-83415643D01*
X112381654Y-83507684D01*
X112257683Y-83631655D01*
X112257679Y-83631660D01*
X112255826Y-83634665D01*
X112254018Y-83636290D01*
X112253202Y-83637323D01*
X112253025Y-83637183D01*
X112203874Y-83681385D01*
X112134911Y-83692601D01*
X112070831Y-83664752D01*
X112044753Y-83634653D01*
X112044737Y-83634628D01*
X112042712Y-83631344D01*
X111918656Y-83507288D01*
X111793290Y-83429962D01*
X111769336Y-83415187D01*
X111769331Y-83415185D01*
X111736114Y-83404178D01*
X111602797Y-83360001D01*
X111602795Y-83360000D01*
X111500010Y-83349500D01*
X110899998Y-83349500D01*
X110899980Y-83349501D01*
X110797203Y-83360000D01*
X110797200Y-83360001D01*
X110630668Y-83415185D01*
X110630663Y-83415187D01*
X110481342Y-83507289D01*
X110357289Y-83631342D01*
X110265187Y-83780663D01*
X110265185Y-83780668D01*
X110265115Y-83780880D01*
X110210001Y-83947203D01*
X110210001Y-83947204D01*
X110210000Y-83947204D01*
X110206718Y-83979334D01*
X110180321Y-84044026D01*
X110123139Y-84084176D01*
X110053328Y-84087038D01*
X109993052Y-84051703D01*
X109961448Y-83989390D01*
X109960887Y-83986127D01*
X109948403Y-83907303D01*
X109948402Y-83907302D01*
X109948402Y-83907299D01*
X109894873Y-83742555D01*
X109816232Y-83588212D01*
X109714414Y-83448072D01*
X109591928Y-83325586D01*
X109451788Y-83223768D01*
X109297445Y-83145127D01*
X109132701Y-83091598D01*
X109132699Y-83091597D01*
X109132698Y-83091597D01*
X109001271Y-83070781D01*
X108961611Y-83064500D01*
X107988389Y-83064500D01*
X107948728Y-83070781D01*
X107817302Y-83091597D01*
X107652552Y-83145128D01*
X107498211Y-83223768D01*
X107426214Y-83276078D01*
X107358072Y-83325586D01*
X107358070Y-83325588D01*
X107358069Y-83325588D01*
X107287181Y-83396477D01*
X107225858Y-83429962D01*
X107156166Y-83424978D01*
X107100233Y-83383106D01*
X107075816Y-83317642D01*
X107075500Y-83308796D01*
X107075500Y-82481204D01*
X107095185Y-82414165D01*
X107147989Y-82368410D01*
X107217147Y-82358466D01*
X107280703Y-82387491D01*
X107287181Y-82393523D01*
X107383072Y-82489414D01*
X107523212Y-82591232D01*
X107677555Y-82669873D01*
X107842299Y-82723402D01*
X108013389Y-82750500D01*
X108013390Y-82750500D01*
X108986610Y-82750500D01*
X108986611Y-82750500D01*
X109157701Y-82723402D01*
X109322445Y-82669873D01*
X109476788Y-82591232D01*
X109616928Y-82489414D01*
X109739414Y-82366928D01*
X109841232Y-82226788D01*
X109919873Y-82072445D01*
X109973402Y-81907701D01*
X110000500Y-81736611D01*
X110000500Y-81563389D01*
X109973402Y-81392299D01*
X109919873Y-81227555D01*
X109841232Y-81073212D01*
X109739414Y-80933072D01*
X109616928Y-80810586D01*
X109476788Y-80708768D01*
X109322445Y-80630127D01*
X109157701Y-80576598D01*
X109157699Y-80576597D01*
X109157698Y-80576597D01*
X109026271Y-80555781D01*
X108986611Y-80549500D01*
X108013389Y-80549500D01*
X107973728Y-80555781D01*
X107842302Y-80576597D01*
X107677552Y-80630128D01*
X107523211Y-80708768D01*
X107443256Y-80766859D01*
X107383072Y-80810586D01*
X107383070Y-80810588D01*
X107383069Y-80810588D01*
X107287181Y-80906477D01*
X107225858Y-80939962D01*
X107156166Y-80934978D01*
X107100233Y-80893106D01*
X107075816Y-80827642D01*
X107075500Y-80818796D01*
X107075500Y-79921204D01*
X107095185Y-79854165D01*
X107147989Y-79808410D01*
X107217147Y-79798466D01*
X107280703Y-79827491D01*
X107287181Y-79833523D01*
X107383072Y-79929414D01*
X107523212Y-80031232D01*
X107677555Y-80109873D01*
X107842299Y-80163402D01*
X108013389Y-80190500D01*
X108013390Y-80190500D01*
X108986610Y-80190500D01*
X108986611Y-80190500D01*
X109157701Y-80163402D01*
X109322445Y-80109873D01*
X109476788Y-80031232D01*
X109616928Y-79929414D01*
X109739414Y-79806928D01*
X109841232Y-79666788D01*
X109919873Y-79512445D01*
X109973402Y-79347701D01*
X110000500Y-79176611D01*
X110000500Y-79003389D01*
X109973402Y-78832299D01*
X109919873Y-78667555D01*
X109841232Y-78513212D01*
X109739414Y-78373072D01*
X109616928Y-78250586D01*
X109476788Y-78148768D01*
X109322445Y-78070127D01*
X109157701Y-78016598D01*
X109157699Y-78016597D01*
X109157698Y-78016597D01*
X109022505Y-77995185D01*
X108986611Y-77989500D01*
X108013389Y-77989500D01*
X107977495Y-77995185D01*
X107842302Y-78016597D01*
X107677552Y-78070128D01*
X107523211Y-78148768D01*
X107443256Y-78206859D01*
X107383072Y-78250586D01*
X107383070Y-78250588D01*
X107383069Y-78250588D01*
X107287181Y-78346477D01*
X107225858Y-78379962D01*
X107156166Y-78374978D01*
X107100233Y-78333106D01*
X107075816Y-78267642D01*
X107075500Y-78258796D01*
X107075500Y-74371247D01*
X107082896Y-74346057D01*
X107086559Y-74320058D01*
X107092584Y-74313063D01*
X107095185Y-74304208D01*
X107115023Y-74287018D01*
X107132163Y-74267123D01*
X107141014Y-74264496D01*
X107147989Y-74258453D01*
X107173975Y-74254716D01*
X107199146Y-74247248D01*
X107212668Y-74249152D01*
G37*
%TD.AperFunction*%
%TD*%
M02*
