M48
; DRILL file {KiCad 9.0.7} date 2026-07-18T06:45:22+0530
; FORMAT={-:-/ absolute / metric / decimal}
; #@! TF.CreationDate,2026-07-18T06:45:22+05:30
; #@! TF.GenerationSoftware,Kicad,Pcbnew,9.0.7
; #@! TF.FileFunction,Plated,1,2,PTH
FMAT,2
METRIC
; #@! TA.AperFunction,Plated,PTH,ViaDrill
T1C0.300
; #@! TA.AperFunction,Plated,PTH,ComponentDrill
T2C0.500
; #@! TA.AperFunction,Plated,PTH,ComponentDrill
T3C0.600
; #@! TA.AperFunction,Plated,PTH,ComponentDrill
T4C0.800
; #@! TA.AperFunction,Plated,PTH,ComponentDrill
T5C0.950
; #@! TA.AperFunction,Plated,PTH,ComponentDrill
T6C1.000
; #@! TA.AperFunction,Plated,PTH,ComponentDrill
T7C1.300
; #@! TA.AperFunction,Plated,PTH,ComponentDrill
T8C1.500
%
G90
G05
T1
X108.125Y-97.8
X108.125Y-98.775
X108.325Y-124.375
X108.325Y-125.35
X108.575Y-63.15
X109.325Y-97.8
X109.35Y-98.775
X109.525Y-124.375
X109.55Y-125.35
X110.325Y-63.15
X110.475Y-97.75
X110.5Y-98.775
X110.675Y-124.325
X110.7Y-125.35
X111.775Y-63.125
X111.8Y-64.375
X111.8Y-65.625
X112.65Y-92.875
X112.725Y-124.325
X112.725Y-125.3
X112.8Y-93.725
X113.925Y-124.325
X113.95Y-125.3
X115.075Y-124.275
X115.1Y-125.3
X115.225Y-120.35
X115.275Y-115.6
X116.575Y-130.025
X116.575Y-130.025
X116.575Y-130.025
X116.7Y-82.45
X116.7Y-83.425
X117.475Y-128.525
X117.9Y-82.45
X117.925Y-83.425
X118.375Y-69.275
X119.1Y-126.75
X119.475Y-81.975
X120.45Y-68.3
X120.7Y-121.975
X120.7Y-122.95
X120.975Y-69.925
X120.975Y-70.9
X121.9Y-121.975
X121.925Y-122.95
X122.175Y-69.925
X122.2Y-70.9
X122.25Y-131.175
X122.75Y-128.35
X122.75Y-129.325
X123.05Y-121.925
X123.075Y-122.95
X123.225Y-107.425
X123.95Y-128.35
X123.975Y-129.325
X124.8Y-81.2
X124.8Y-82.175
X125.525Y-107.425
X126.0Y-81.2
X126.025Y-82.175
X126.025Y-138.125
X126.2Y-113.175
X126.2Y-114.15
X127.225Y-138.125
X127.4Y-113.175
X127.425Y-114.15
X127.95Y-120.4
X127.95Y-121.375
X128.375Y-69.875
X128.375Y-70.85
X128.375Y-138.075
X128.425Y-87.325
X128.475Y-83.025
X128.55Y-113.125
X128.575Y-114.15
X128.725Y-128.3
X128.725Y-129.275
X129.15Y-120.4
X129.175Y-121.375
X129.575Y-69.875
X129.6Y-70.85
X130.3Y-120.35
X130.3Y-129.775
X130.325Y-121.375
X131.2Y-97.75
X131.2Y-98.725
X131.475Y-131.025
X132.4Y-97.75
X132.425Y-98.725
X133.55Y-97.7
X133.575Y-98.725
X134.45Y-126.75
T2
X116.005Y-91.32
X118.545Y-91.32
T3
X127.35Y-64.825
X127.35Y-66.825
T4
X108.475Y-84.165
X108.475Y-86.725
X108.5Y-79.09
X108.5Y-81.65
X108.525Y-89.265
X108.525Y-91.825
X108.55Y-112.1
X108.55Y-114.66
X133.125Y-63.25
X133.125Y-65.25
X133.475Y-84.165
X133.475Y-86.725
X133.5Y-79.09
X133.5Y-81.65
X133.525Y-89.265
X133.525Y-91.825
X133.55Y-112.1
X133.55Y-114.66
T5
X118.525Y-136.3
X121.025Y-136.3
X123.525Y-136.3
X130.175Y-136.225
X132.675Y-136.225
X135.175Y-136.225
T6
X111.25Y-56.025
X111.25Y-58.525
X132.725Y-45.75
X132.725Y-57.75
X134.4Y-62.925
X134.4Y-65.425
T7
X120.475Y-57.8
X120.525Y-45.75
X134.675Y-51.8
T8
X121.4Y-94.15
X121.4Y-114.95
M30
