%TF.GenerationSoftware,KiCad,Pcbnew,9.0.7*%
%TF.CreationDate,2026-07-18T06:45:16+05:30*%
%TF.ProjectId,Nursary_OneCH,4e757273-6172-4795-9f4f-6e6543482e6b,rev?*%
%TF.SameCoordinates,Original*%
%TF.FileFunction,Copper,L1,Top*%
%TF.FilePolarity,Positive*%
%FSLAX46Y46*%
G04 Gerber Fmt 4.6, Leading zero omitted, Abs format (unit mm)*
G04 Created by KiCad (PCBNEW 9.0.7) date 2026-07-18 06:45:16*
%MOMM*%
%LPD*%
G01*
G04 APERTURE LIST*
G04 Aperture macros list*
%AMRoundRect*
0 Rectangle with rounded corners*
0 $1 Rounding radius*
0 $2 $3 $4 $5 $6 $7 $8 $9 X,Y pos of 4 corners*
0 Add a 4 corners polygon primitive as box body*
4,1,4,$2,$3,$4,$5,$6,$7,$8,$9,$2,$3,0*
0 Add four circle primitives for the rounded corners*
1,1,$1+$1,$2,$3*
1,1,$1+$1,$4,$5*
1,1,$1+$1,$6,$7*
1,1,$1+$1,$8,$9*
0 Add four rect primitives between the rounded corners*
20,1,$1+$1,$2,$3,$4,$5,0*
20,1,$1+$1,$4,$5,$6,$7,0*
20,1,$1+$1,$6,$7,$8,$9,0*
20,1,$1+$1,$8,$9,$2,$3,0*%
G04 Aperture macros list end*
%ADD10C,0.300000*%
%TA.AperFunction,NonConductor*%
%ADD11C,0.300000*%
%TD*%
%TA.AperFunction,NonConductor*%
%ADD12C,0.200000*%
%TD*%
%TA.AperFunction,ComponentPad*%
%ADD13RoundRect,0.250000X-0.750000X0.600000X-0.750000X-0.600000X0.750000X-0.600000X0.750000X0.600000X0*%
%TD*%
%TA.AperFunction,ComponentPad*%
%ADD14O,2.000000X1.700000*%
%TD*%
%TA.AperFunction,WasherPad*%
%ADD15C,4.500000*%
%TD*%
%TA.AperFunction,SMDPad,CuDef*%
%ADD16RoundRect,0.218750X-0.218750X-0.256250X0.218750X-0.256250X0.218750X0.256250X-0.218750X0.256250X0*%
%TD*%
%TA.AperFunction,ComponentPad*%
%ADD17R,1.350000X1.350000*%
%TD*%
%TA.AperFunction,ComponentPad*%
%ADD18C,1.350000*%
%TD*%
%TA.AperFunction,ComponentPad*%
%ADD19O,2.000000X1.200000*%
%TD*%
%TA.AperFunction,ComponentPad*%
%ADD20C,3.000000*%
%TD*%
%TA.AperFunction,ComponentPad*%
%ADD21C,2.500000*%
%TD*%
%TA.AperFunction,ComponentPad*%
%ADD22C,1.200000*%
%TD*%
%TA.AperFunction,ComponentPad*%
%ADD23RoundRect,0.250000X-0.600000X-0.725000X0.600000X-0.725000X0.600000X0.725000X-0.600000X0.725000X0*%
%TD*%
%TA.AperFunction,ComponentPad*%
%ADD24O,1.700000X1.950000*%
%TD*%
%TA.AperFunction,ComponentPad*%
%ADD25R,3.000000X3.000000*%
%TD*%
%TA.AperFunction,ComponentPad*%
%ADD26C,1.000000*%
%TD*%
%TA.AperFunction,ViaPad*%
%ADD27C,0.600000*%
%TD*%
%TA.AperFunction,Conductor*%
%ADD28C,1.000000*%
%TD*%
%TA.AperFunction,Conductor*%
%ADD29C,0.500000*%
%TD*%
%TA.AperFunction,Conductor*%
%ADD30C,0.200000*%
%TD*%
G04 APERTURE END LIST*
D10*
D11*
X120310714Y-34503328D02*
X121239286Y-34503328D01*
X121239286Y-34503328D02*
X120739286Y-35074757D01*
X120739286Y-35074757D02*
X120953571Y-35074757D01*
X120953571Y-35074757D02*
X121096429Y-35146185D01*
X121096429Y-35146185D02*
X121167857Y-35217614D01*
X121167857Y-35217614D02*
X121239286Y-35360471D01*
X121239286Y-35360471D02*
X121239286Y-35717614D01*
X121239286Y-35717614D02*
X121167857Y-35860471D01*
X121167857Y-35860471D02*
X121096429Y-35931900D01*
X121096429Y-35931900D02*
X120953571Y-36003328D01*
X120953571Y-36003328D02*
X120525000Y-36003328D01*
X120525000Y-36003328D02*
X120382143Y-35931900D01*
X120382143Y-35931900D02*
X120310714Y-35860471D01*
X122167857Y-34503328D02*
X122310714Y-34503328D01*
X122310714Y-34503328D02*
X122453571Y-34574757D01*
X122453571Y-34574757D02*
X122525000Y-34646185D01*
X122525000Y-34646185D02*
X122596428Y-34789042D01*
X122596428Y-34789042D02*
X122667857Y-35074757D01*
X122667857Y-35074757D02*
X122667857Y-35431900D01*
X122667857Y-35431900D02*
X122596428Y-35717614D01*
X122596428Y-35717614D02*
X122525000Y-35860471D01*
X122525000Y-35860471D02*
X122453571Y-35931900D01*
X122453571Y-35931900D02*
X122310714Y-36003328D01*
X122310714Y-36003328D02*
X122167857Y-36003328D01*
X122167857Y-36003328D02*
X122025000Y-35931900D01*
X122025000Y-35931900D02*
X121953571Y-35860471D01*
X121953571Y-35860471D02*
X121882142Y-35717614D01*
X121882142Y-35717614D02*
X121810714Y-35431900D01*
X121810714Y-35431900D02*
X121810714Y-35074757D01*
X121810714Y-35074757D02*
X121882142Y-34789042D01*
X121882142Y-34789042D02*
X121953571Y-34646185D01*
X121953571Y-34646185D02*
X122025000Y-34574757D01*
X122025000Y-34574757D02*
X122167857Y-34503328D01*
D12*
X106525000Y-42100000D02*
X106525000Y-36538580D01*
X136525000Y-36538580D02*
X136525000Y-42100000D01*
X106525000Y-37125000D02*
X136525000Y-37125000D01*
X106525000Y-37125000D02*
X107651504Y-36538579D01*
X106525000Y-37125000D02*
X107651504Y-37711421D01*
X136525000Y-37125000D02*
X135398496Y-37711421D01*
X136525000Y-37125000D02*
X135398496Y-36538579D01*
D10*
D11*
X91396185Y-95144641D02*
X91324757Y-95287498D01*
X91324757Y-95287498D02*
X91253328Y-95358927D01*
X91253328Y-95358927D02*
X91110471Y-95430355D01*
X91110471Y-95430355D02*
X91039042Y-95430355D01*
X91039042Y-95430355D02*
X90896185Y-95358927D01*
X90896185Y-95358927D02*
X90824757Y-95287498D01*
X90824757Y-95287498D02*
X90753328Y-95144641D01*
X90753328Y-95144641D02*
X90753328Y-94858927D01*
X90753328Y-94858927D02*
X90824757Y-94716070D01*
X90824757Y-94716070D02*
X90896185Y-94644641D01*
X90896185Y-94644641D02*
X91039042Y-94573212D01*
X91039042Y-94573212D02*
X91110471Y-94573212D01*
X91110471Y-94573212D02*
X91253328Y-94644641D01*
X91253328Y-94644641D02*
X91324757Y-94716070D01*
X91324757Y-94716070D02*
X91396185Y-94858927D01*
X91396185Y-94858927D02*
X91396185Y-95144641D01*
X91396185Y-95144641D02*
X91467614Y-95287498D01*
X91467614Y-95287498D02*
X91539042Y-95358927D01*
X91539042Y-95358927D02*
X91681900Y-95430355D01*
X91681900Y-95430355D02*
X91967614Y-95430355D01*
X91967614Y-95430355D02*
X92110471Y-95358927D01*
X92110471Y-95358927D02*
X92181900Y-95287498D01*
X92181900Y-95287498D02*
X92253328Y-95144641D01*
X92253328Y-95144641D02*
X92253328Y-94858927D01*
X92253328Y-94858927D02*
X92181900Y-94716070D01*
X92181900Y-94716070D02*
X92110471Y-94644641D01*
X92110471Y-94644641D02*
X91967614Y-94573212D01*
X91967614Y-94573212D02*
X91681900Y-94573212D01*
X91681900Y-94573212D02*
X91539042Y-94644641D01*
X91539042Y-94644641D02*
X91467614Y-94716070D01*
X91467614Y-94716070D02*
X91396185Y-94858927D01*
X91396185Y-93716070D02*
X91324757Y-93858927D01*
X91324757Y-93858927D02*
X91253328Y-93930356D01*
X91253328Y-93930356D02*
X91110471Y-94001784D01*
X91110471Y-94001784D02*
X91039042Y-94001784D01*
X91039042Y-94001784D02*
X90896185Y-93930356D01*
X90896185Y-93930356D02*
X90824757Y-93858927D01*
X90824757Y-93858927D02*
X90753328Y-93716070D01*
X90753328Y-93716070D02*
X90753328Y-93430356D01*
X90753328Y-93430356D02*
X90824757Y-93287499D01*
X90824757Y-93287499D02*
X90896185Y-93216070D01*
X90896185Y-93216070D02*
X91039042Y-93144641D01*
X91039042Y-93144641D02*
X91110471Y-93144641D01*
X91110471Y-93144641D02*
X91253328Y-93216070D01*
X91253328Y-93216070D02*
X91324757Y-93287499D01*
X91324757Y-93287499D02*
X91396185Y-93430356D01*
X91396185Y-93430356D02*
X91396185Y-93716070D01*
X91396185Y-93716070D02*
X91467614Y-93858927D01*
X91467614Y-93858927D02*
X91539042Y-93930356D01*
X91539042Y-93930356D02*
X91681900Y-94001784D01*
X91681900Y-94001784D02*
X91967614Y-94001784D01*
X91967614Y-94001784D02*
X92110471Y-93930356D01*
X92110471Y-93930356D02*
X92181900Y-93858927D01*
X92181900Y-93858927D02*
X92253328Y-93716070D01*
X92253328Y-93716070D02*
X92253328Y-93430356D01*
X92253328Y-93430356D02*
X92181900Y-93287499D01*
X92181900Y-93287499D02*
X92110471Y-93216070D01*
X92110471Y-93216070D02*
X91967614Y-93144641D01*
X91967614Y-93144641D02*
X91681900Y-93144641D01*
X91681900Y-93144641D02*
X91539042Y-93216070D01*
X91539042Y-93216070D02*
X91467614Y-93287499D01*
X91467614Y-93287499D02*
X91396185Y-93430356D01*
X92110471Y-92501785D02*
X92181900Y-92430356D01*
X92181900Y-92430356D02*
X92253328Y-92501785D01*
X92253328Y-92501785D02*
X92181900Y-92573213D01*
X92181900Y-92573213D02*
X92110471Y-92501785D01*
X92110471Y-92501785D02*
X92253328Y-92501785D01*
X90753328Y-91501784D02*
X90753328Y-91358927D01*
X90753328Y-91358927D02*
X90824757Y-91216070D01*
X90824757Y-91216070D02*
X90896185Y-91144642D01*
X90896185Y-91144642D02*
X91039042Y-91073213D01*
X91039042Y-91073213D02*
X91324757Y-91001784D01*
X91324757Y-91001784D02*
X91681900Y-91001784D01*
X91681900Y-91001784D02*
X91967614Y-91073213D01*
X91967614Y-91073213D02*
X92110471Y-91144642D01*
X92110471Y-91144642D02*
X92181900Y-91216070D01*
X92181900Y-91216070D02*
X92253328Y-91358927D01*
X92253328Y-91358927D02*
X92253328Y-91501784D01*
X92253328Y-91501784D02*
X92181900Y-91644642D01*
X92181900Y-91644642D02*
X92110471Y-91716070D01*
X92110471Y-91716070D02*
X91967614Y-91787499D01*
X91967614Y-91787499D02*
X91681900Y-91858927D01*
X91681900Y-91858927D02*
X91324757Y-91858927D01*
X91324757Y-91858927D02*
X91039042Y-91787499D01*
X91039042Y-91787499D02*
X90896185Y-91716070D01*
X90896185Y-91716070D02*
X90824757Y-91644642D01*
X90824757Y-91644642D02*
X90753328Y-91501784D01*
X90896185Y-90430356D02*
X90824757Y-90358928D01*
X90824757Y-90358928D02*
X90753328Y-90216071D01*
X90753328Y-90216071D02*
X90753328Y-89858928D01*
X90753328Y-89858928D02*
X90824757Y-89716071D01*
X90824757Y-89716071D02*
X90896185Y-89644642D01*
X90896185Y-89644642D02*
X91039042Y-89573213D01*
X91039042Y-89573213D02*
X91181900Y-89573213D01*
X91181900Y-89573213D02*
X91396185Y-89644642D01*
X91396185Y-89644642D02*
X92253328Y-90501785D01*
X92253328Y-90501785D02*
X92253328Y-89573213D01*
X90753328Y-88216071D02*
X90753328Y-88930357D01*
X90753328Y-88930357D02*
X91467614Y-89001785D01*
X91467614Y-89001785D02*
X91396185Y-88930357D01*
X91396185Y-88930357D02*
X91324757Y-88787500D01*
X91324757Y-88787500D02*
X91324757Y-88430357D01*
X91324757Y-88430357D02*
X91396185Y-88287500D01*
X91396185Y-88287500D02*
X91467614Y-88216071D01*
X91467614Y-88216071D02*
X91610471Y-88144642D01*
X91610471Y-88144642D02*
X91967614Y-88144642D01*
X91967614Y-88144642D02*
X92110471Y-88216071D01*
X92110471Y-88216071D02*
X92181900Y-88287500D01*
X92181900Y-88287500D02*
X92253328Y-88430357D01*
X92253328Y-88430357D02*
X92253328Y-88787500D01*
X92253328Y-88787500D02*
X92181900Y-88930357D01*
X92181900Y-88930357D02*
X92110471Y-89001785D01*
D12*
X111200000Y-47775000D02*
X92788580Y-47775000D01*
X92788580Y-135800000D02*
X111200000Y-135800000D01*
X93375000Y-47775000D02*
X93375000Y-135800000D01*
X93375000Y-47775000D02*
X93961421Y-48901504D01*
X93375000Y-47775000D02*
X92788579Y-48901504D01*
X93375000Y-135800000D02*
X92788579Y-134673496D01*
X93375000Y-135800000D02*
X93961421Y-134673496D01*
D10*
D11*
X146128328Y-95287498D02*
X146128328Y-95001784D01*
X146128328Y-95001784D02*
X146056900Y-94858927D01*
X146056900Y-94858927D02*
X145985471Y-94787498D01*
X145985471Y-94787498D02*
X145771185Y-94644641D01*
X145771185Y-94644641D02*
X145485471Y-94573212D01*
X145485471Y-94573212D02*
X144914042Y-94573212D01*
X144914042Y-94573212D02*
X144771185Y-94644641D01*
X144771185Y-94644641D02*
X144699757Y-94716070D01*
X144699757Y-94716070D02*
X144628328Y-94858927D01*
X144628328Y-94858927D02*
X144628328Y-95144641D01*
X144628328Y-95144641D02*
X144699757Y-95287498D01*
X144699757Y-95287498D02*
X144771185Y-95358927D01*
X144771185Y-95358927D02*
X144914042Y-95430355D01*
X144914042Y-95430355D02*
X145271185Y-95430355D01*
X145271185Y-95430355D02*
X145414042Y-95358927D01*
X145414042Y-95358927D02*
X145485471Y-95287498D01*
X145485471Y-95287498D02*
X145556900Y-95144641D01*
X145556900Y-95144641D02*
X145556900Y-94858927D01*
X145556900Y-94858927D02*
X145485471Y-94716070D01*
X145485471Y-94716070D02*
X145414042Y-94644641D01*
X145414042Y-94644641D02*
X145271185Y-94573212D01*
X145128328Y-93287499D02*
X146128328Y-93287499D01*
X144556900Y-93644641D02*
X145628328Y-94001784D01*
X145628328Y-94001784D02*
X145628328Y-93073213D01*
X145985471Y-92501785D02*
X146056900Y-92430356D01*
X146056900Y-92430356D02*
X146128328Y-92501785D01*
X146128328Y-92501785D02*
X146056900Y-92573213D01*
X146056900Y-92573213D02*
X145985471Y-92501785D01*
X145985471Y-92501785D02*
X146128328Y-92501785D01*
X144628328Y-91930356D02*
X144628328Y-90930356D01*
X144628328Y-90930356D02*
X146128328Y-91573213D01*
X144628328Y-90501785D02*
X144628328Y-89501785D01*
X144628328Y-89501785D02*
X146128328Y-90144642D01*
X144628328Y-88216071D02*
X144628328Y-88930357D01*
X144628328Y-88930357D02*
X145342614Y-89001785D01*
X145342614Y-89001785D02*
X145271185Y-88930357D01*
X145271185Y-88930357D02*
X145199757Y-88787500D01*
X145199757Y-88787500D02*
X145199757Y-88430357D01*
X145199757Y-88430357D02*
X145271185Y-88287500D01*
X145271185Y-88287500D02*
X145342614Y-88216071D01*
X145342614Y-88216071D02*
X145485471Y-88144642D01*
X145485471Y-88144642D02*
X145842614Y-88144642D01*
X145842614Y-88144642D02*
X145985471Y-88216071D01*
X145985471Y-88216071D02*
X146056900Y-88287500D01*
X146056900Y-88287500D02*
X146128328Y-88430357D01*
X146128328Y-88430357D02*
X146128328Y-88787500D01*
X146128328Y-88787500D02*
X146056900Y-88930357D01*
X146056900Y-88930357D02*
X145985471Y-89001785D01*
D12*
X136900000Y-44400000D02*
X147836420Y-44400000D01*
X147836420Y-139175000D02*
X136900000Y-139175000D01*
X147250000Y-44400000D02*
X147250000Y-139175000D01*
X147250000Y-44400000D02*
X147836421Y-45526504D01*
X147250000Y-44400000D02*
X146663579Y-45526504D01*
X147250000Y-139175000D02*
X146663579Y-138048496D01*
X147250000Y-139175000D02*
X147836421Y-138048496D01*
D13*
%TO.P,J2,1,Pin_1*%
%TO.N,Net-(J2-Pin_1)*%
X111250000Y-56025000D03*
D14*
%TO.P,J2,2,Pin_2*%
%TO.N,Net-(J2-Pin_2)*%
X111250000Y-58525000D03*
%TD*%
D15*
%TO.P,H1,*%
%TO.N,*%
X111700000Y-135800000D03*
%TD*%
D16*
%TO.P,D1,1,K*%
%TO.N,/FLOW1_PROT*%
X131875000Y-131800000D03*
%TO.P,D1,2,A*%
%TO.N,Net-(D1-A)*%
X133450000Y-131800000D03*
%TD*%
D17*
%TO.P,J3,1,Pin_1*%
%TO.N,+5V*%
X133125000Y-63250000D03*
D18*
%TO.P,J3,2,Pin_2*%
%TO.N,GND*%
X133125000Y-65250000D03*
%TD*%
D15*
%TO.P,.,*%
%TO.N,*%
X111700000Y-47775000D03*
%TD*%
D19*
%TO.P,U5,30,VIN/5V_Power_IN*%
%TO.N,+5V*%
X108550000Y-114660000D03*
%TO.P,U5,29,GND*%
%TO.N,GND*%
X108550000Y-112100000D03*
%TO.P,U5,21,D32*%
%TO.N,unconnected-(U5-D32-Pad21)*%
X108525000Y-91825000D03*
%TO.P,U5,20,D35/Input_only*%
%TO.N,/FLOW1_MCU*%
X108525000Y-89265000D03*
%TO.P,U5,19,D34/Input_only*%
%TO.N,/FLOW2_MCU*%
X108475000Y-86725000D03*
%TO.P,U5,18,VN(39)/Input_only*%
%TO.N,unconnected-(U5-VN(39){slash}Input_only-Pad18)*%
X108475000Y-84165000D03*
%TO.P,U5,17,VP(36)/Input_only*%
%TO.N,unconnected-(U5-VP(36){slash}Input_only-Pad17)*%
X108500000Y-81650000D03*
%TO.P,U5,16,EN*%
%TO.N,unconnected-(U5-EN-Pad16)*%
X108500000Y-79090000D03*
%TO.P,U5,15,D23*%
%TO.N,unconnected-(U5-D23-Pad15)*%
X133500000Y-79090000D03*
%TO.P,U5,14,D22/I2C_SCL*%
%TO.N,/SCL*%
X133500000Y-81650000D03*
%TO.P,U5,13,Tx0/USB*%
%TO.N,unconnected-(U5-Tx0{slash}USB-Pad13)*%
X133475000Y-84165000D03*
%TO.P,U5,12,Rx0/USB*%
%TO.N,unconnected-(U5-Rx0{slash}USB-Pad12)*%
X133475000Y-86725000D03*
%TO.P,U5,11,D21/I2C_SDA*%
%TO.N,/SDA*%
X133525000Y-89265000D03*
%TO.P,U5,10,D19*%
%TO.N,/RELAY1_MCU*%
X133525000Y-91825000D03*
%TO.P,U5,2,GND*%
%TO.N,GND*%
X133550000Y-112100000D03*
%TO.P,U5,1,3V3_Out*%
%TO.N,+3.3V*%
X133550000Y-114660000D03*
%TD*%
D20*
%TO.P,K1,1*%
%TO.N,Net-(J2-Pin_2)*%
X134675000Y-51800000D03*
D21*
%TO.P,K1,2*%
%TO.N,Net-(D4-K)*%
X132725000Y-45750000D03*
D20*
%TO.P,K1,3*%
%TO.N,Net-(J2-Pin_1)*%
X120525000Y-45750000D03*
%TO.P,K1,4*%
%TO.N,unconnected-(K1-Pad4)*%
X120475000Y-57800000D03*
D21*
%TO.P,K1,5*%
%TO.N,+5VR*%
X132725000Y-57750000D03*
%TD*%
D13*
%TO.P,J3,1,Pin_1*%
%TO.N,+5V*%
X134400000Y-62925000D03*
D14*
%TO.P,J3,2,Pin_2*%
%TO.N,GND*%
X134400000Y-65425000D03*
%TD*%
D22*
%TO.P,C6,1*%
%TO.N,+5VR*%
X127350000Y-64825000D03*
%TO.P,C6,2*%
%TO.N,GND*%
X127350000Y-66825000D03*
%TD*%
D16*
%TO.P,D4,1,K*%
%TO.N,Net-(D4-K)*%
X117112500Y-66825000D03*
%TO.P,D4,2,A*%
%TO.N,Net-(D4-A)*%
X118687500Y-66825000D03*
%TD*%
D23*
%TO.P,J1,1,Pin_1*%
%TO.N,+5VP*%
X130175000Y-136225000D03*
D24*
%TO.P,J1,2,Pin_2*%
%TO.N,/FLOW1_CONN*%
X132675000Y-136225000D03*
%TO.P,J1,3,Pin_3*%
%TO.N,GND*%
X135175000Y-136225000D03*
%TD*%
D25*
%TO.P,BT1,1,+*%
%TO.N,/BATT*%
X121400000Y-114950000D03*
D20*
%TO.P,BT1,2,-*%
%TO.N,GND*%
X121400000Y-94150000D03*
%TD*%
D16*
%TO.P,D3,1,K*%
%TO.N,/FLOW2_PROT*%
X117462500Y-132075000D03*
%TO.P,D3,2,A*%
%TO.N,Net-(D3-A)*%
X119037500Y-132075000D03*
%TD*%
D23*
%TO.P,J4,1,Pin_1*%
%TO.N,+5VP*%
X118525000Y-136300000D03*
D24*
%TO.P,J4,2,Pin_2*%
%TO.N,/FLOW2_CONN*%
X121025000Y-136300000D03*
%TO.P,J4,3,Pin_3*%
%TO.N,GND*%
X123525000Y-136300000D03*
%TD*%
D26*
%TO.P,Y1,1,1*%
%TO.N,Net-(U3-X1)*%
X118545000Y-91320000D03*
%TO.P,Y1,2,2*%
%TO.N,Net-(U3-X2)*%
X116005000Y-91320000D03*
%TD*%
D27*
%TO.N,GND*%
X124800000Y-82175000D03*
X126025000Y-82175000D03*
X124800000Y-81200000D03*
X126000000Y-81200000D03*
X128375000Y-70850000D03*
X129600000Y-70850000D03*
X128375000Y-69875000D03*
X129575000Y-69875000D03*
X120975000Y-70900000D03*
X122200000Y-70900000D03*
X120975000Y-69925000D03*
X122175000Y-69925000D03*
X110700000Y-125350000D03*
X128375000Y-138075000D03*
X131200000Y-97750000D03*
X112800000Y-93725000D03*
X129175000Y-121375000D03*
X130325000Y-121375000D03*
X108575000Y-63150000D03*
X133550000Y-97700000D03*
X110325000Y-63150000D03*
X117475000Y-128525000D03*
X111800000Y-64375000D03*
X117925000Y-83425000D03*
X112725000Y-124325000D03*
X121900000Y-121975000D03*
X128575000Y-114150000D03*
X115075000Y-124275000D03*
X127950000Y-121375000D03*
X108125000Y-97800000D03*
X121925000Y-122950000D03*
X122750000Y-129325000D03*
X108325000Y-124375000D03*
X130300000Y-120350000D03*
X109550000Y-125350000D03*
X123975000Y-129325000D03*
X120700000Y-122950000D03*
X110675000Y-124325000D03*
X123075000Y-122950000D03*
X126200000Y-113175000D03*
X128725000Y-129275000D03*
X127225000Y-138125000D03*
X113925000Y-124325000D03*
X110500000Y-98775000D03*
X108325000Y-125350000D03*
X126200000Y-114150000D03*
X116700000Y-82450000D03*
X113950000Y-125300000D03*
X128725000Y-128300000D03*
X123050000Y-121925000D03*
X111775000Y-63125000D03*
X112725000Y-125300000D03*
X108125000Y-98775000D03*
X128550000Y-113125000D03*
X115100000Y-125300000D03*
X129150000Y-120400000D03*
X131200000Y-98725000D03*
X132400000Y-97750000D03*
X109325000Y-97800000D03*
X117900000Y-82450000D03*
X122750000Y-128350000D03*
X111800000Y-65625000D03*
X120700000Y-121975000D03*
X126025000Y-138125000D03*
X127400000Y-113175000D03*
X109525000Y-124375000D03*
X109350000Y-98775000D03*
X127425000Y-114150000D03*
X133575000Y-98725000D03*
X127950000Y-120400000D03*
X112650000Y-92875000D03*
X132425000Y-98725000D03*
X123950000Y-128350000D03*
X110475000Y-97750000D03*
X116700000Y-83425000D03*
%TO.N,+3.3V*%
X119100000Y-126750000D03*
X134450000Y-126750000D03*
%TO.N,Net-(D1-A)*%
X130300000Y-129775000D03*
%TO.N,/FLOW1_PROT*%
X131475000Y-131025000D03*
%TO.N,Net-(D4-A)*%
X120450000Y-68300000D03*
%TO.N,Net-(D4-K)*%
X118375000Y-69275000D03*
%TO.N,+5V*%
X119475000Y-81975000D03*
%TO.N,/RELAY1_MCU*%
X128475000Y-83025000D03*
X128425000Y-87325000D03*
%TO.N,/BATT*%
X125525000Y-107425000D03*
X123225000Y-107425000D03*
%TO.N,Net-(D3-A)*%
X116575000Y-130025000D03*
X116575000Y-130025000D03*
X116575000Y-130025000D03*
%TO.N,/FLOW2_PROT*%
X122250000Y-131175000D03*
X115225000Y-120350000D03*
X115275000Y-115600000D03*
%TD*%
D28*
%TO.N,+5V*%
X119575000Y-80275000D02*
X122325000Y-80275000D01*
X122325000Y-80275000D02*
X125675000Y-76925000D01*
X125675000Y-76925000D02*
X125675000Y-64100000D01*
X127250000Y-63250000D02*
X133125000Y-63250000D01*
X126500000Y-63275000D02*
X127225000Y-63275000D01*
X125675000Y-64100000D02*
X126500000Y-63275000D01*
X127225000Y-63275000D02*
X127250000Y-63250000D01*
D29*
%TO.N,+3.3V*%
X133550000Y-114660000D02*
X132685000Y-114660000D01*
X119100000Y-126750000D02*
X134450000Y-126750000D01*
%TO.N,Net-(D1-A)*%
X133200000Y-130175000D02*
X130700000Y-130175000D01*
X133450000Y-130425000D02*
X133200000Y-130175000D01*
X133450000Y-131800000D02*
X133450000Y-130425000D01*
X130700000Y-130175000D02*
X130300000Y-129775000D01*
%TO.N,/FLOW1_PROT*%
X131475000Y-131400000D02*
X131475000Y-131025000D01*
X131875000Y-131800000D02*
X131475000Y-131400000D01*
%TO.N,Net-(D4-A)*%
X118687500Y-67887500D02*
X119125000Y-68325000D01*
X119125000Y-68325000D02*
X119150000Y-68300000D01*
X118687500Y-66825000D02*
X118687500Y-67887500D01*
X119150000Y-68300000D02*
X120450000Y-68300000D01*
%TO.N,Net-(D4-K)*%
X117112500Y-64812500D02*
X118575000Y-63350000D01*
X117112500Y-68762500D02*
X117112500Y-66825000D01*
X117600000Y-69275000D02*
X117100000Y-68775000D01*
X117100000Y-68775000D02*
X117112500Y-68762500D01*
X117112500Y-66825000D02*
X117112500Y-64812500D01*
X118375000Y-69275000D02*
X117600000Y-69275000D01*
X126175000Y-61375000D02*
X126175000Y-59675000D01*
X118575000Y-63350000D02*
X124200000Y-63350000D01*
X126175000Y-59675000D02*
X126175000Y-47900000D01*
X124200000Y-63350000D02*
X126175000Y-61375000D01*
X128325000Y-45750000D02*
X132725000Y-45750000D01*
X126175000Y-47900000D02*
X128325000Y-45750000D01*
D30*
%TO.N,+5V*%
X119475000Y-80375000D02*
X119575000Y-80275000D01*
D28*
X114950000Y-81350000D02*
X116025000Y-80275000D01*
X112490000Y-114660000D02*
X108550000Y-114660000D01*
X114200000Y-82122500D02*
X114200000Y-112950000D01*
D29*
X119475000Y-81975000D02*
X119475000Y-80375000D01*
D28*
X114200000Y-112950000D02*
X112490000Y-114660000D01*
X115775000Y-80547500D02*
X114200000Y-82122500D01*
X116025000Y-80275000D02*
X119575000Y-80275000D01*
D29*
%TO.N,/RELAY1_MCU*%
X128425000Y-87325000D02*
X128425000Y-83075000D01*
X128425000Y-83075000D02*
X128475000Y-83025000D01*
%TO.N,/BATT*%
X123225000Y-107425000D02*
X125525000Y-107425000D01*
%TO.N,Net-(D3-A)*%
X118750000Y-130025000D02*
X116575000Y-130025000D01*
X119037500Y-132075000D02*
X119037500Y-130312500D01*
X119037500Y-130312500D02*
X118750000Y-130025000D01*
%TO.N,/FLOW2_PROT*%
X120525000Y-133200000D02*
X121300000Y-132425000D01*
X121300000Y-132425000D02*
X121300000Y-131625000D01*
X115275000Y-120300000D02*
X115225000Y-120350000D01*
X117462500Y-132075000D02*
X117462500Y-132737500D01*
X117925000Y-133200000D02*
X120525000Y-133200000D01*
X117462500Y-132737500D02*
X117925000Y-133200000D01*
X121750000Y-131175000D02*
X122250000Y-131175000D01*
X121300000Y-131625000D02*
X121750000Y-131175000D01*
X115275000Y-115600000D02*
X115275000Y-120300000D01*
%TD*%
%TA.AperFunction,Conductor*%
%TO.N,GND*%
G36*
X132030487Y-64256795D02*
G01*
X132052775Y-64258466D01*
X132071753Y-64268913D01*
X132076085Y-64270185D01*
X132080441Y-64273695D01*
X132083694Y-64275486D01*
X132091670Y-64281499D01*
X132092454Y-64282546D01*
X132178206Y-64346740D01*
X132178275Y-64346792D01*
X132199091Y-64374797D01*
X132219809Y-64402473D01*
X132219824Y-64402691D01*
X132219956Y-64402868D01*
X132222323Y-64437628D01*
X132224793Y-64472165D01*
X132224688Y-64472357D01*
X132224703Y-64472576D01*
X132203946Y-64518690D01*
X132120051Y-64634163D01*
X132036084Y-64798956D01*
X132036083Y-64798959D01*
X131978933Y-64974852D01*
X131950000Y-65157526D01*
X131950000Y-65342473D01*
X131978933Y-65525147D01*
X132036083Y-65701040D01*
X132036084Y-65701043D01*
X132120050Y-65865834D01*
X132135015Y-65886430D01*
X132725000Y-65296445D01*
X132725000Y-65302661D01*
X132752259Y-65404394D01*
X132804920Y-65495606D01*
X132879394Y-65570080D01*
X132970606Y-65622741D01*
X133072339Y-65650000D01*
X133078552Y-65650000D01*
X132488568Y-66239983D01*
X132488568Y-66239984D01*
X132509165Y-66254949D01*
X132673956Y-66338915D01*
X132673959Y-66338916D01*
X132849852Y-66396066D01*
X133032527Y-66425000D01*
X133217471Y-66425000D01*
X133261542Y-66418019D01*
X133330835Y-66426973D01*
X133366824Y-66451581D01*
X133366838Y-66451565D01*
X133366987Y-66451692D01*
X133368623Y-66452811D01*
X133370535Y-66454723D01*
X133370540Y-66454727D01*
X133542442Y-66579620D01*
X133731782Y-66676095D01*
X133933870Y-66741757D01*
X134143754Y-66775000D01*
X134150000Y-66775000D01*
X134150000Y-65858012D01*
X134207007Y-65890925D01*
X134334174Y-65925000D01*
X134465826Y-65925000D01*
X134592993Y-65890925D01*
X134650000Y-65858012D01*
X134650000Y-66775000D01*
X134656246Y-66775000D01*
X134866127Y-66741757D01*
X134866130Y-66741757D01*
X135068217Y-66676095D01*
X135257557Y-66579620D01*
X135429459Y-66454727D01*
X135429464Y-66454723D01*
X135579723Y-66304464D01*
X135579727Y-66304459D01*
X135675182Y-66173077D01*
X135730511Y-66130411D01*
X135800125Y-66124432D01*
X135861920Y-66157037D01*
X135896277Y-66217876D01*
X135899500Y-66245962D01*
X135899500Y-134751661D01*
X135879815Y-134818700D01*
X135827011Y-134864455D01*
X135757853Y-134874399D01*
X135719205Y-134862146D01*
X135693215Y-134848903D01*
X135491124Y-134783241D01*
X135425000Y-134772768D01*
X135425000Y-135820854D01*
X135358343Y-135782370D01*
X135237535Y-135750000D01*
X135112465Y-135750000D01*
X134991657Y-135782370D01*
X134925000Y-135820854D01*
X134925000Y-134772768D01*
X134924999Y-134772768D01*
X134858875Y-134783241D01*
X134656784Y-134848903D01*
X134467442Y-134945379D01*
X134295540Y-135070272D01*
X134295535Y-135070276D01*
X134145276Y-135220535D01*
X134145272Y-135220540D01*
X134025627Y-135385218D01*
X133970297Y-135427884D01*
X133900684Y-135433863D01*
X133838889Y-135401257D01*
X133824991Y-135385218D01*
X133705109Y-135220214D01*
X133705105Y-135220209D01*
X133554786Y-135069890D01*
X133382820Y-134944951D01*
X133193414Y-134848444D01*
X133193413Y-134848443D01*
X133193412Y-134848443D01*
X132991243Y-134782754D01*
X132991241Y-134782753D01*
X132991240Y-134782753D01*
X132829957Y-134757208D01*
X132781287Y-134749500D01*
X132568713Y-134749500D01*
X132520042Y-134757208D01*
X132358760Y-134782753D01*
X132358757Y-134782754D01*
X132158666Y-134847768D01*
X132156585Y-134848444D01*
X131967179Y-134944951D01*
X131795215Y-135069889D01*
X131656398Y-135208706D01*
X131595075Y-135242190D01*
X131525383Y-135237206D01*
X131469450Y-135195334D01*
X131463178Y-135186120D01*
X131367712Y-135031344D01*
X131243657Y-134907289D01*
X131243656Y-134907288D01*
X131147158Y-134847768D01*
X131094336Y-134815187D01*
X131094331Y-134815185D01*
X131092862Y-134814698D01*
X130927797Y-134760001D01*
X130927795Y-134760000D01*
X130825010Y-134749500D01*
X129524998Y-134749500D01*
X129524981Y-134749501D01*
X129422203Y-134760000D01*
X129422200Y-134760001D01*
X129255668Y-134815185D01*
X129255663Y-134815187D01*
X129106342Y-134907289D01*
X128982289Y-135031342D01*
X128890187Y-135180663D01*
X128890185Y-135180668D01*
X128885325Y-135195334D01*
X128835001Y-135347203D01*
X128835001Y-135347204D01*
X128835000Y-135347204D01*
X128824500Y-135449983D01*
X128824500Y-137000001D01*
X128824501Y-137000018D01*
X128835000Y-137102796D01*
X128835001Y-137102799D01*
X128890185Y-137269331D01*
X128890187Y-137269336D01*
X128914513Y-137308774D01*
X128982288Y-137418656D01*
X129106344Y-137542712D01*
X129255666Y-137634814D01*
X129422203Y-137689999D01*
X129524991Y-137700500D01*
X130825008Y-137700499D01*
X130927797Y-137689999D01*
X131094334Y-137634814D01*
X131243656Y-137542712D01*
X131367712Y-137418656D01*
X131459814Y-137269334D01*
X131459814Y-137269331D01*
X131463178Y-137263879D01*
X131515126Y-137217154D01*
X131584088Y-137205931D01*
X131648170Y-137233774D01*
X131656398Y-137241294D01*
X131795213Y-137380109D01*
X131967179Y-137505048D01*
X131967181Y-137505049D01*
X131967184Y-137505051D01*
X132156588Y-137601557D01*
X132358757Y-137667246D01*
X132568713Y-137700500D01*
X132568714Y-137700500D01*
X132781286Y-137700500D01*
X132781287Y-137700500D01*
X132991243Y-137667246D01*
X133193412Y-137601557D01*
X133382816Y-137505051D01*
X133462980Y-137446809D01*
X133554786Y-137380109D01*
X133554788Y-137380106D01*
X133554792Y-137380104D01*
X133705104Y-137229792D01*
X133824991Y-137064779D01*
X133880320Y-137022115D01*
X133949933Y-137016136D01*
X134011729Y-137048741D01*
X134025627Y-137064781D01*
X134145272Y-137229459D01*
X134145276Y-137229464D01*
X134295535Y-137379723D01*
X134295540Y-137379727D01*
X134467442Y-137504620D01*
X134656782Y-137601095D01*
X134858871Y-137666757D01*
X134925000Y-137677231D01*
X134925000Y-136629145D01*
X134991657Y-136667630D01*
X135112465Y-136700000D01*
X135237535Y-136700000D01*
X135358343Y-136667630D01*
X135425000Y-136629145D01*
X135425000Y-137677230D01*
X135491126Y-137666757D01*
X135491129Y-137666757D01*
X135693217Y-137601095D01*
X135719205Y-137587854D01*
X135787874Y-137574958D01*
X135852614Y-137601234D01*
X135892872Y-137658340D01*
X135899500Y-137698339D01*
X135899500Y-138550500D01*
X135879815Y-138617539D01*
X135827011Y-138663294D01*
X135775500Y-138674500D01*
X112542771Y-138674500D01*
X112475732Y-138654815D01*
X112429977Y-138602011D01*
X112420033Y-138532853D01*
X112449058Y-138469297D01*
X112501816Y-138433459D01*
X112655647Y-138379630D01*
X112754229Y-138345135D01*
X113032565Y-138211095D01*
X113294143Y-138046735D01*
X113535674Y-137854120D01*
X113754120Y-137635674D01*
X113946735Y-137394143D01*
X114111095Y-137132565D01*
X114245135Y-136854229D01*
X114347168Y-136562636D01*
X114415911Y-136261452D01*
X114450500Y-135954465D01*
X114450500Y-135645535D01*
X114436917Y-135524983D01*
X117174500Y-135524983D01*
X117174500Y-137075001D01*
X117174501Y-137075018D01*
X117185000Y-137177796D01*
X117185001Y-137177799D01*
X117230894Y-137316294D01*
X117240186Y-137344334D01*
X117332288Y-137493656D01*
X117456344Y-137617712D01*
X117605666Y-137709814D01*
X117772203Y-137764999D01*
X117874991Y-137775500D01*
X119175008Y-137775499D01*
X119277797Y-137764999D01*
X119444334Y-137709814D01*
X119593656Y-137617712D01*
X119717712Y-137493656D01*
X119809814Y-137344334D01*
X119809814Y-137344331D01*
X119813178Y-137338879D01*
X119865126Y-137292154D01*
X119934088Y-137280931D01*
X119998170Y-137308774D01*
X120006398Y-137316294D01*
X120145213Y-137455109D01*
X120317179Y-137580048D01*
X120317181Y-137580049D01*
X120317184Y-137580051D01*
X120506588Y-137676557D01*
X120708757Y-137742246D01*
X120918713Y-137775500D01*
X120918714Y-137775500D01*
X121131286Y-137775500D01*
X121131287Y-137775500D01*
X121341243Y-137742246D01*
X121543412Y-137676557D01*
X121732816Y-137580051D01*
X121770942Y-137552351D01*
X121904786Y-137455109D01*
X121904788Y-137455106D01*
X121904792Y-137455104D01*
X122055104Y-137304792D01*
X122174991Y-137139779D01*
X122230320Y-137097115D01*
X122299933Y-137091136D01*
X122361729Y-137123741D01*
X122375627Y-137139781D01*
X122495272Y-137304459D01*
X122495276Y-137304464D01*
X122645535Y-137454723D01*
X122645540Y-137454727D01*
X122817442Y-137579620D01*
X123006782Y-137676095D01*
X123208871Y-137741757D01*
X123275000Y-137752231D01*
X123275000Y-136704145D01*
X123341657Y-136742630D01*
X123462465Y-136775000D01*
X123587535Y-136775000D01*
X123708343Y-136742630D01*
X123775000Y-136704145D01*
X123775000Y-137752230D01*
X123841126Y-137741757D01*
X123841129Y-137741757D01*
X124043217Y-137676095D01*
X124232557Y-137579620D01*
X124404459Y-137454727D01*
X124404464Y-137454723D01*
X124554723Y-137304464D01*
X124554727Y-137304459D01*
X124679620Y-137132557D01*
X124776095Y-136943217D01*
X124841757Y-136741130D01*
X124841757Y-136741127D01*
X124872030Y-136550000D01*
X123929146Y-136550000D01*
X123967630Y-136483343D01*
X124000000Y-136362535D01*
X124000000Y-136237465D01*
X123967630Y-136116657D01*
X123929146Y-136050000D01*
X124872030Y-136050000D01*
X124841757Y-135858872D01*
X124841757Y-135858869D01*
X124776095Y-135656782D01*
X124697804Y-135503129D01*
X124697803Y-135503127D01*
X124679622Y-135467444D01*
X124554727Y-135295540D01*
X124554723Y-135295535D01*
X124404464Y-135145276D01*
X124404459Y-135145272D01*
X124232557Y-135020379D01*
X124043215Y-134923903D01*
X123841124Y-134858241D01*
X123775000Y-134847768D01*
X123775000Y-135895854D01*
X123708343Y-135857370D01*
X123587535Y-135825000D01*
X123462465Y-135825000D01*
X123341657Y-135857370D01*
X123275000Y-135895854D01*
X123275000Y-134847768D01*
X123274999Y-134847768D01*
X123208875Y-134858241D01*
X123006784Y-134923903D01*
X122817442Y-135020379D01*
X122645540Y-135145272D01*
X122645535Y-135145276D01*
X122495276Y-135295535D01*
X122495272Y-135295540D01*
X122375627Y-135460218D01*
X122320297Y-135502884D01*
X122250684Y-135508863D01*
X122188889Y-135476257D01*
X122174991Y-135460218D01*
X122055109Y-135295214D01*
X122055105Y-135295209D01*
X121904786Y-135144890D01*
X121732820Y-135019951D01*
X121543414Y-134923444D01*
X121543413Y-134923443D01*
X121543412Y-134923443D01*
X121341243Y-134857754D01*
X121341241Y-134857753D01*
X121341240Y-134857753D01*
X121179957Y-134832208D01*
X121131287Y-134824500D01*
X120918713Y-134824500D01*
X120870042Y-134832208D01*
X120708760Y-134857753D01*
X120506585Y-134923444D01*
X120317179Y-135019951D01*
X120145215Y-135144889D01*
X120006398Y-135283706D01*
X119945075Y-135317190D01*
X119875383Y-135312206D01*
X119819450Y-135270334D01*
X119813178Y-135261120D01*
X119717712Y-135106344D01*
X119593657Y-134982289D01*
X119593656Y-134982288D01*
X119444334Y-134890186D01*
X119277797Y-134835001D01*
X119277795Y-134835000D01*
X119175010Y-134824500D01*
X117874998Y-134824500D01*
X117874981Y-134824501D01*
X117772203Y-134835000D01*
X117772200Y-134835001D01*
X117605668Y-134890185D01*
X117605663Y-134890187D01*
X117456342Y-134982289D01*
X117332289Y-135106342D01*
X117240187Y-135255663D01*
X117240185Y-135255668D01*
X117235325Y-135270334D01*
X117185001Y-135422203D01*
X117185001Y-135422204D01*
X117185000Y-135422204D01*
X117174500Y-135524983D01*
X114436917Y-135524983D01*
X114415913Y-135338562D01*
X114415910Y-135338544D01*
X114386275Y-135208706D01*
X114347168Y-135037364D01*
X114327896Y-134982289D01*
X114245137Y-134745777D01*
X114245135Y-134745771D01*
X114111095Y-134467435D01*
X113946735Y-134205857D01*
X113754120Y-133964326D01*
X113535674Y-133745880D01*
X113294143Y-133553265D01*
X113032565Y-133388905D01*
X113032562Y-133388903D01*
X112754236Y-133254868D01*
X112754222Y-133254862D01*
X112462647Y-133152835D01*
X112462635Y-133152831D01*
X112161455Y-133084089D01*
X112161437Y-133084086D01*
X111854471Y-133049500D01*
X111854465Y-133049500D01*
X111545535Y-133049500D01*
X111545528Y-133049500D01*
X111238562Y-133084086D01*
X111238544Y-133084089D01*
X110937364Y-133152831D01*
X110937352Y-133152835D01*
X110645777Y-133254862D01*
X110645763Y-133254868D01*
X110367437Y-133388903D01*
X110105858Y-133553264D01*
X109864326Y-133745879D01*
X109645879Y-133964326D01*
X109453264Y-134205858D01*
X109288903Y-134467437D01*
X109154868Y-134745763D01*
X109154862Y-134745777D01*
X109052835Y-135037352D01*
X109052831Y-135037364D01*
X109037830Y-135103092D01*
X109003722Y-135164071D01*
X108942060Y-135196929D01*
X108916939Y-135199500D01*
X107199500Y-135199500D01*
X107132461Y-135179815D01*
X107086706Y-135127011D01*
X107075500Y-135075500D01*
X107075500Y-129946153D01*
X115774500Y-129946153D01*
X115774500Y-130103846D01*
X115805261Y-130258489D01*
X115805264Y-130258501D01*
X115865602Y-130404172D01*
X115865609Y-130404185D01*
X115953210Y-130535288D01*
X115953213Y-130535292D01*
X116064707Y-130646786D01*
X116064711Y-130646789D01*
X116195814Y-130734390D01*
X116195827Y-130734397D01*
X116295060Y-130775500D01*
X116341503Y-130794737D01*
X116496153Y-130825499D01*
X116496156Y-130825500D01*
X116496158Y-130825500D01*
X116653844Y-130825500D01*
X116653845Y-130825499D01*
X116730152Y-130810320D01*
X116808488Y-130794739D01*
X116808489Y-130794738D01*
X116808497Y-130794737D01*
X116832155Y-130784937D01*
X116879604Y-130775500D01*
X118163000Y-130775500D01*
X118230039Y-130795185D01*
X118275794Y-130847989D01*
X118287000Y-130899500D01*
X118287000Y-131125141D01*
X118267315Y-131192180D01*
X118214511Y-131237935D01*
X118145353Y-131247879D01*
X118097903Y-131230680D01*
X117987289Y-131162452D01*
X117987284Y-131162450D01*
X117985876Y-131161983D01*
X117827685Y-131109564D01*
X117827683Y-131109563D01*
X117729181Y-131099500D01*
X117729174Y-131099500D01*
X117195826Y-131099500D01*
X117195818Y-131099500D01*
X117097316Y-131109563D01*
X117097315Y-131109564D01*
X117050307Y-131125141D01*
X116937715Y-131162450D01*
X116937704Y-131162455D01*
X116794612Y-131250716D01*
X116794608Y-131250719D01*
X116675719Y-131369608D01*
X116675716Y-131369612D01*
X116587455Y-131512704D01*
X116587450Y-131512715D01*
X116560773Y-131593219D01*
X116534564Y-131672315D01*
X116534564Y-131672316D01*
X116534563Y-131672316D01*
X116524500Y-131770818D01*
X116524500Y-132379181D01*
X116534563Y-132477683D01*
X116587450Y-132637284D01*
X116587455Y-132637295D01*
X116675716Y-132780387D01*
X116675719Y-132780391D01*
X116686706Y-132791378D01*
X116720191Y-132852701D01*
X116720642Y-132854867D01*
X116740840Y-132956407D01*
X116740842Y-132956415D01*
X116797412Y-133092988D01*
X116797416Y-133092995D01*
X116819522Y-133126079D01*
X116819523Y-133126082D01*
X116879546Y-133215914D01*
X116879552Y-133215921D01*
X117446584Y-133782952D01*
X117446586Y-133782954D01*
X117476058Y-133802645D01*
X117520270Y-133832186D01*
X117569505Y-133865084D01*
X117569506Y-133865084D01*
X117569507Y-133865085D01*
X117569509Y-133865086D01*
X117706082Y-133921656D01*
X117706087Y-133921658D01*
X117706091Y-133921658D01*
X117706092Y-133921659D01*
X117851079Y-133950500D01*
X117851082Y-133950500D01*
X120598920Y-133950500D01*
X120696462Y-133931096D01*
X120743913Y-133921658D01*
X120880495Y-133865084D01*
X120929729Y-133832186D01*
X120929734Y-133832183D01*
X120954071Y-133815921D01*
X121003416Y-133782952D01*
X121882952Y-132903415D01*
X121922314Y-132844505D01*
X121965084Y-132780495D01*
X121993228Y-132712549D01*
X122021659Y-132643912D01*
X122050500Y-132498917D01*
X122050500Y-132351082D01*
X122050500Y-132099500D01*
X122070185Y-132032461D01*
X122122989Y-131986706D01*
X122174500Y-131975500D01*
X122328844Y-131975500D01*
X122328845Y-131975499D01*
X122483497Y-131944737D01*
X122629179Y-131884394D01*
X122760289Y-131796789D01*
X122871789Y-131685289D01*
X122959394Y-131554179D01*
X123019737Y-131408497D01*
X123050500Y-131253842D01*
X123050500Y-131096158D01*
X123050500Y-131096155D01*
X123050499Y-131096153D01*
X123038001Y-131033324D01*
X123019737Y-130941503D01*
X123019735Y-130941498D01*
X122959397Y-130795827D01*
X122959390Y-130795814D01*
X122871789Y-130664711D01*
X122871786Y-130664707D01*
X122760292Y-130553213D01*
X122760288Y-130553210D01*
X122629185Y-130465609D01*
X122629172Y-130465602D01*
X122483501Y-130405264D01*
X122483489Y-130405261D01*
X122328845Y-130374500D01*
X122328842Y-130374500D01*
X122171158Y-130374500D01*
X122171155Y-130374500D01*
X122016511Y-130405260D01*
X122016506Y-130405262D01*
X122016504Y-130405262D01*
X122016503Y-130405263D01*
X121992844Y-130415062D01*
X121945396Y-130424500D01*
X121676080Y-130424500D01*
X121531092Y-130453340D01*
X121531082Y-130453343D01*
X121394511Y-130509912D01*
X121394498Y-130509919D01*
X121271584Y-130592048D01*
X121271580Y-130592051D01*
X120717047Y-131146584D01*
X120706447Y-131162450D01*
X120693994Y-131181088D01*
X120686583Y-131192180D01*
X120634914Y-131269507D01*
X120578343Y-131406082D01*
X120578340Y-131406092D01*
X120549500Y-131551079D01*
X120549500Y-132062770D01*
X120529815Y-132129809D01*
X120513181Y-132150451D01*
X120250451Y-132413181D01*
X120223523Y-132427884D01*
X120197705Y-132444477D01*
X120191504Y-132445368D01*
X120189128Y-132446666D01*
X120162770Y-132449500D01*
X120099500Y-132449500D01*
X120032461Y-132429815D01*
X119986706Y-132377011D01*
X119975500Y-132325500D01*
X119975500Y-131770824D01*
X119975499Y-131770818D01*
X119965436Y-131672316D01*
X119965436Y-131672315D01*
X119912549Y-131512713D01*
X119912545Y-131512707D01*
X119912544Y-131512704D01*
X119824283Y-131369612D01*
X119819803Y-131363946D01*
X119820782Y-131363171D01*
X119790834Y-131308324D01*
X119788000Y-131281966D01*
X119788000Y-130238579D01*
X119759159Y-130093592D01*
X119759158Y-130093591D01*
X119759158Y-130093587D01*
X119759156Y-130093582D01*
X119702587Y-129957011D01*
X119702580Y-129956998D01*
X119620452Y-129834085D01*
X119620451Y-129834084D01*
X119515916Y-129729549D01*
X119482520Y-129696153D01*
X129499500Y-129696153D01*
X129499500Y-129853846D01*
X129530261Y-130008489D01*
X129530264Y-130008501D01*
X129590602Y-130154172D01*
X129590609Y-130154185D01*
X129678210Y-130285288D01*
X129678213Y-130285292D01*
X129789710Y-130396789D01*
X129817058Y-130415062D01*
X129920821Y-130484394D01*
X129920826Y-130484396D01*
X129920828Y-130484397D01*
X129944473Y-130494191D01*
X129984705Y-130521072D01*
X130221580Y-130757948D01*
X130221584Y-130757951D01*
X130344498Y-130840080D01*
X130344511Y-130840087D01*
X130481082Y-130896656D01*
X130481087Y-130896658D01*
X130481091Y-130896658D01*
X130481092Y-130896659D01*
X130574692Y-130915278D01*
X130636603Y-130947663D01*
X130671177Y-131008379D01*
X130674500Y-131036895D01*
X130674500Y-131103846D01*
X130705261Y-131258489D01*
X130705263Y-131258497D01*
X130715061Y-131282151D01*
X130724500Y-131329604D01*
X130724500Y-131473918D01*
X130724500Y-131473920D01*
X130724499Y-131473920D01*
X130753340Y-131618907D01*
X130753343Y-131618917D01*
X130809913Y-131755490D01*
X130809914Y-131755491D01*
X130809916Y-131755495D01*
X130820160Y-131770826D01*
X130892048Y-131878416D01*
X130908048Y-131894416D01*
X130914078Y-131902901D01*
X130922211Y-131926476D01*
X130934165Y-131948366D01*
X130936158Y-131966902D01*
X130936865Y-131968951D01*
X130936527Y-131970335D01*
X130937000Y-131974729D01*
X130937000Y-132104181D01*
X130947063Y-132202683D01*
X130999950Y-132362284D01*
X130999955Y-132362295D01*
X131088216Y-132505387D01*
X131088219Y-132505391D01*
X131207108Y-132624280D01*
X131207112Y-132624283D01*
X131350204Y-132712544D01*
X131350207Y-132712545D01*
X131350213Y-132712549D01*
X131509815Y-132765436D01*
X131608326Y-132775500D01*
X131608331Y-132775500D01*
X132141669Y-132775500D01*
X132141674Y-132775500D01*
X132240185Y-132765436D01*
X132399787Y-132712549D01*
X132542891Y-132624281D01*
X132574819Y-132592353D01*
X132636142Y-132558868D01*
X132705834Y-132563852D01*
X132750181Y-132592353D01*
X132782108Y-132624280D01*
X132782112Y-132624283D01*
X132925204Y-132712544D01*
X132925207Y-132712545D01*
X132925213Y-132712549D01*
X133084815Y-132765436D01*
X133183326Y-132775500D01*
X133183331Y-132775500D01*
X133716669Y-132775500D01*
X133716674Y-132775500D01*
X133815185Y-132765436D01*
X133974787Y-132712549D01*
X134117891Y-132624281D01*
X134236781Y-132505391D01*
X134325049Y-132362287D01*
X134377936Y-132202685D01*
X134388000Y-132104174D01*
X134388000Y-131495826D01*
X134377936Y-131397315D01*
X134325049Y-131237713D01*
X134325045Y-131237707D01*
X134325044Y-131237704D01*
X134236783Y-131094612D01*
X134232303Y-131088946D01*
X134233282Y-131088171D01*
X134203334Y-131033324D01*
X134200500Y-131006966D01*
X134200500Y-130351079D01*
X134171659Y-130206092D01*
X134171658Y-130206091D01*
X134171658Y-130206087D01*
X134150154Y-130154172D01*
X134115087Y-130069511D01*
X134115080Y-130069498D01*
X134032952Y-129946585D01*
X134032520Y-129946153D01*
X133928416Y-129842049D01*
X133678416Y-129592048D01*
X133678415Y-129592047D01*
X133678414Y-129592046D01*
X133640592Y-129566775D01*
X133602768Y-129541503D01*
X133555495Y-129509916D01*
X133555494Y-129509915D01*
X133555492Y-129509914D01*
X133555490Y-129509913D01*
X133418917Y-129453343D01*
X133418907Y-129453340D01*
X133273920Y-129424500D01*
X133273918Y-129424500D01*
X131094836Y-129424500D01*
X131027797Y-129404815D01*
X130991734Y-129369391D01*
X130921789Y-129264710D01*
X130810292Y-129153213D01*
X130810288Y-129153210D01*
X130679185Y-129065609D01*
X130679172Y-129065602D01*
X130533501Y-129005264D01*
X130533489Y-129005261D01*
X130378845Y-128974500D01*
X130378842Y-128974500D01*
X130221158Y-128974500D01*
X130221155Y-128974500D01*
X130066510Y-129005261D01*
X130066498Y-129005264D01*
X129920827Y-129065602D01*
X129920814Y-129065609D01*
X129789711Y-129153210D01*
X129789707Y-129153213D01*
X129678213Y-129264707D01*
X129678210Y-129264711D01*
X129590609Y-129395814D01*
X129590602Y-129395827D01*
X129530264Y-129541498D01*
X129530261Y-129541510D01*
X129499500Y-129696153D01*
X119482520Y-129696153D01*
X119228416Y-129442048D01*
X119228415Y-129442047D01*
X119228414Y-129442046D01*
X119154729Y-129392812D01*
X119154729Y-129392813D01*
X119105491Y-129359913D01*
X118968917Y-129303343D01*
X118968907Y-129303340D01*
X118823920Y-129274500D01*
X118823918Y-129274500D01*
X116879604Y-129274500D01*
X116832155Y-129265062D01*
X116808497Y-129255263D01*
X116808493Y-129255262D01*
X116808488Y-129255260D01*
X116653845Y-129224500D01*
X116653842Y-129224500D01*
X116496158Y-129224500D01*
X116496155Y-129224500D01*
X116341510Y-129255261D01*
X116341498Y-129255264D01*
X116195827Y-129315602D01*
X116195814Y-129315609D01*
X116064711Y-129403210D01*
X116064707Y-129403213D01*
X115953213Y-129514707D01*
X115953210Y-129514711D01*
X115865609Y-129645814D01*
X115865602Y-129645827D01*
X115805264Y-129791498D01*
X115805261Y-129791510D01*
X115774500Y-129946153D01*
X107075500Y-129946153D01*
X107075500Y-126671153D01*
X118299500Y-126671153D01*
X118299500Y-126828846D01*
X118330261Y-126983489D01*
X118330264Y-126983501D01*
X118390602Y-127129172D01*
X118390609Y-127129185D01*
X118478210Y-127260288D01*
X118478213Y-127260292D01*
X118589707Y-127371786D01*
X118589711Y-127371789D01*
X118720814Y-127459390D01*
X118720827Y-127459397D01*
X118820060Y-127500500D01*
X118866503Y-127519737D01*
X119021153Y-127550499D01*
X119021156Y-127550500D01*
X119021158Y-127550500D01*
X119178844Y-127550500D01*
X119178845Y-127550499D01*
X119255152Y-127535320D01*
X119333488Y-127519739D01*
X119333489Y-127519738D01*
X119333497Y-127519737D01*
X119357155Y-127509937D01*
X119404604Y-127500500D01*
X134145396Y-127500500D01*
X134192844Y-127509937D01*
X134216503Y-127519737D01*
X134216508Y-127519738D01*
X134216511Y-127519739D01*
X134371153Y-127550499D01*
X134371156Y-127550500D01*
X134371158Y-127550500D01*
X134528844Y-127550500D01*
X134528845Y-127550499D01*
X134683497Y-127519737D01*
X134829179Y-127459394D01*
X134960289Y-127371789D01*
X135071789Y-127260289D01*
X135159394Y-127129179D01*
X135219737Y-126983497D01*
X135250500Y-126828842D01*
X135250500Y-126671158D01*
X135250500Y-126671155D01*
X135250499Y-126671153D01*
X135219738Y-126516510D01*
X135219737Y-126516503D01*
X135219735Y-126516498D01*
X135159397Y-126370827D01*
X135159390Y-126370814D01*
X135071789Y-126239711D01*
X135071786Y-126239707D01*
X134960292Y-126128213D01*
X134960288Y-126128210D01*
X134829185Y-126040609D01*
X134829172Y-126040602D01*
X134683501Y-125980264D01*
X134683489Y-125980261D01*
X134528845Y-125949500D01*
X134528842Y-125949500D01*
X134371158Y-125949500D01*
X134371155Y-125949500D01*
X134216511Y-125980260D01*
X134216506Y-125980262D01*
X134216504Y-125980262D01*
X134216503Y-125980263D01*
X134192844Y-125990062D01*
X134145396Y-125999500D01*
X119404604Y-125999500D01*
X119357155Y-125990062D01*
X119333497Y-125980263D01*
X119333493Y-125980262D01*
X119333488Y-125980260D01*
X119178845Y-125949500D01*
X119178842Y-125949500D01*
X119021158Y-125949500D01*
X119021155Y-125949500D01*
X118866510Y-125980261D01*
X118866498Y-125980264D01*
X118720827Y-126040602D01*
X118720814Y-126040609D01*
X118589711Y-126128210D01*
X118589707Y-126128213D01*
X118478213Y-126239707D01*
X118478210Y-126239711D01*
X118390609Y-126370814D01*
X118390602Y-126370827D01*
X118330264Y-126516498D01*
X118330261Y-126516510D01*
X118299500Y-126671153D01*
X107075500Y-126671153D01*
X107075500Y-120271153D01*
X114424500Y-120271153D01*
X114424500Y-120428846D01*
X114455261Y-120583489D01*
X114455264Y-120583501D01*
X114515602Y-120729172D01*
X114515609Y-120729185D01*
X114603210Y-120860288D01*
X114603213Y-120860292D01*
X114714707Y-120971786D01*
X114714711Y-120971789D01*
X114845814Y-121059390D01*
X114845827Y-121059397D01*
X114991498Y-121119735D01*
X114991503Y-121119737D01*
X115146153Y-121150499D01*
X115146156Y-121150500D01*
X115146158Y-121150500D01*
X115303844Y-121150500D01*
X115303845Y-121150499D01*
X115458497Y-121119737D01*
X115604179Y-121059394D01*
X115735289Y-120971789D01*
X115846789Y-120860289D01*
X115934394Y-120729179D01*
X115994737Y-120583497D01*
X116025500Y-120428842D01*
X116025500Y-120271158D01*
X116025500Y-120226082D01*
X116025500Y-115904604D01*
X116034939Y-115857151D01*
X116044737Y-115833497D01*
X116075500Y-115678842D01*
X116075500Y-115521158D01*
X116075500Y-115521155D01*
X116075499Y-115521153D01*
X116046811Y-115376929D01*
X116044737Y-115366503D01*
X116034289Y-115341279D01*
X115984397Y-115220827D01*
X115984390Y-115220814D01*
X115896789Y-115089711D01*
X115896786Y-115089707D01*
X115785292Y-114978213D01*
X115785288Y-114978210D01*
X115654185Y-114890609D01*
X115654172Y-114890602D01*
X115508501Y-114830264D01*
X115508489Y-114830261D01*
X115353845Y-114799500D01*
X115353842Y-114799500D01*
X115196158Y-114799500D01*
X115196155Y-114799500D01*
X115041510Y-114830261D01*
X115041498Y-114830264D01*
X114895827Y-114890602D01*
X114895814Y-114890609D01*
X114764711Y-114978210D01*
X114764707Y-114978213D01*
X114653213Y-115089707D01*
X114653210Y-115089711D01*
X114565609Y-115220814D01*
X114565602Y-115220827D01*
X114505264Y-115366498D01*
X114505261Y-115366510D01*
X114474500Y-115521153D01*
X114474500Y-115678846D01*
X114505261Y-115833489D01*
X114505263Y-115833497D01*
X114515061Y-115857151D01*
X114524500Y-115904604D01*
X114524500Y-119924684D01*
X114515061Y-119972136D01*
X114455264Y-120116498D01*
X114455261Y-120116510D01*
X114424500Y-120271153D01*
X107075500Y-120271153D01*
X107075500Y-115434992D01*
X107095185Y-115367953D01*
X107147989Y-115322198D01*
X107217147Y-115312254D01*
X107280703Y-115341279D01*
X107299817Y-115362106D01*
X107310586Y-115376928D01*
X107433072Y-115499414D01*
X107573212Y-115601232D01*
X107727555Y-115679873D01*
X107892299Y-115733402D01*
X108063389Y-115760500D01*
X108063390Y-115760500D01*
X109036610Y-115760500D01*
X109036611Y-115760500D01*
X109207701Y-115733402D01*
X109372445Y-115679873D01*
X109374465Y-115678844D01*
X109383941Y-115674016D01*
X109440237Y-115660500D01*
X112588542Y-115660500D01*
X112619566Y-115654328D01*
X112685188Y-115641275D01*
X112781836Y-115622051D01*
X112835165Y-115599961D01*
X112963914Y-115546632D01*
X113127782Y-115437139D01*
X113267139Y-115297782D01*
X113267140Y-115297779D01*
X113274206Y-115290714D01*
X113274209Y-115290710D01*
X114837778Y-113727141D01*
X114837782Y-113727139D01*
X114977139Y-113587782D01*
X115086632Y-113423914D01*
X115095653Y-113402135D01*
X119399500Y-113402135D01*
X119399500Y-116497870D01*
X119399501Y-116497876D01*
X119405908Y-116557483D01*
X119456202Y-116692328D01*
X119456206Y-116692335D01*
X119542452Y-116807544D01*
X119542455Y-116807547D01*
X119657664Y-116893793D01*
X119657671Y-116893797D01*
X119792517Y-116944091D01*
X119792516Y-116944091D01*
X119799444Y-116944835D01*
X119852127Y-116950500D01*
X122947872Y-116950499D01*
X123007483Y-116944091D01*
X123142331Y-116893796D01*
X123257546Y-116807546D01*
X123343796Y-116692331D01*
X123394091Y-116557483D01*
X123400500Y-116497873D01*
X123400499Y-114733920D01*
X131934499Y-114733920D01*
X131963340Y-114878907D01*
X131963343Y-114878917D01*
X132019912Y-115015488D01*
X132019919Y-115015501D01*
X132102047Y-115138414D01*
X132102048Y-115138415D01*
X132102049Y-115138416D01*
X132206584Y-115242951D01*
X132206587Y-115242953D01*
X132206589Y-115242955D01*
X132210784Y-115246398D01*
X132232434Y-115269362D01*
X132310586Y-115376928D01*
X132433072Y-115499414D01*
X132573212Y-115601232D01*
X132727555Y-115679873D01*
X132892299Y-115733402D01*
X133063389Y-115760500D01*
X133063390Y-115760500D01*
X134036610Y-115760500D01*
X134036611Y-115760500D01*
X134207701Y-115733402D01*
X134372445Y-115679873D01*
X134526788Y-115601232D01*
X134666928Y-115499414D01*
X134789414Y-115376928D01*
X134891232Y-115236788D01*
X134969873Y-115082445D01*
X135023402Y-114917701D01*
X135050500Y-114746611D01*
X135050500Y-114573389D01*
X135023402Y-114402299D01*
X134969873Y-114237555D01*
X134891232Y-114083212D01*
X134789414Y-113943072D01*
X134666928Y-113820586D01*
X134526788Y-113718768D01*
X134372445Y-113640127D01*
X134207701Y-113586598D01*
X134207699Y-113586597D01*
X134207698Y-113586597D01*
X134076271Y-113565781D01*
X134036611Y-113559500D01*
X133063389Y-113559500D01*
X133023728Y-113565781D01*
X132892302Y-113586597D01*
X132727552Y-113640128D01*
X132573211Y-113718768D01*
X132493256Y-113776859D01*
X132433072Y-113820586D01*
X132433070Y-113820588D01*
X132433069Y-113820588D01*
X132310585Y-113943072D01*
X132232434Y-114050636D01*
X132210791Y-114073595D01*
X132206582Y-114077049D01*
X132102051Y-114181580D01*
X132102048Y-114181584D01*
X132019919Y-114304498D01*
X132019912Y-114304511D01*
X131963343Y-114441082D01*
X131963340Y-114441092D01*
X131934500Y-114586079D01*
X131934500Y-114586082D01*
X131934500Y-114733918D01*
X131934500Y-114733920D01*
X131934499Y-114733920D01*
X123400499Y-114733920D01*
X123400499Y-113402128D01*
X123394091Y-113342517D01*
X123343796Y-113207669D01*
X123343795Y-113207668D01*
X123343793Y-113207664D01*
X123257547Y-113092455D01*
X123257544Y-113092452D01*
X123142335Y-113006206D01*
X123142328Y-113006202D01*
X123007482Y-112955908D01*
X123007483Y-112955908D01*
X122947883Y-112949501D01*
X122947881Y-112949500D01*
X122947873Y-112949500D01*
X122947864Y-112949500D01*
X119852129Y-112949500D01*
X119852123Y-112949501D01*
X119792516Y-112955908D01*
X119657671Y-113006202D01*
X119657664Y-113006206D01*
X119542455Y-113092452D01*
X119542452Y-113092455D01*
X119456206Y-113207664D01*
X119456202Y-113207671D01*
X119405908Y-113342517D01*
X119399501Y-113402116D01*
X119399501Y-113402123D01*
X119399500Y-113402135D01*
X115095653Y-113402135D01*
X115162051Y-113241835D01*
X115191765Y-113092454D01*
X115200500Y-113048543D01*
X115200500Y-111849999D01*
X132075884Y-111849999D01*
X132075885Y-111850000D01*
X133234314Y-111850000D01*
X133229920Y-111854394D01*
X133177259Y-111945606D01*
X133150000Y-112047339D01*
X133150000Y-112152661D01*
X133177259Y-112254394D01*
X133229920Y-112345606D01*
X133234314Y-112350000D01*
X132075885Y-112350000D01*
X132077085Y-112357584D01*
X132130591Y-112522255D01*
X132209195Y-112676524D01*
X132310967Y-112816602D01*
X132433397Y-112939032D01*
X132573475Y-113040804D01*
X132727742Y-113119408D01*
X132892415Y-113172914D01*
X133063429Y-113200000D01*
X133300000Y-113200000D01*
X133300000Y-112415686D01*
X133304394Y-112420080D01*
X133395606Y-112472741D01*
X133497339Y-112500000D01*
X133602661Y-112500000D01*
X133704394Y-112472741D01*
X133795606Y-112420080D01*
X133800000Y-112415686D01*
X133800000Y-113200000D01*
X134036571Y-113200000D01*
X134207584Y-113172914D01*
X134372257Y-113119408D01*
X134526524Y-113040804D01*
X134666602Y-112939032D01*
X134789032Y-112816602D01*
X134890804Y-112676524D01*
X134969408Y-112522255D01*
X135022914Y-112357584D01*
X135024115Y-112350000D01*
X133865686Y-112350000D01*
X133870080Y-112345606D01*
X133922741Y-112254394D01*
X133950000Y-112152661D01*
X133950000Y-112047339D01*
X133922741Y-111945606D01*
X133870080Y-111854394D01*
X133865686Y-111850000D01*
X135024115Y-111850000D01*
X135024115Y-111849999D01*
X135022914Y-111842415D01*
X134969408Y-111677744D01*
X134890804Y-111523475D01*
X134789032Y-111383397D01*
X134666602Y-111260967D01*
X134526524Y-111159195D01*
X134372257Y-111080591D01*
X134207584Y-111027085D01*
X134036571Y-111000000D01*
X133800000Y-111000000D01*
X133800000Y-111784314D01*
X133795606Y-111779920D01*
X133704394Y-111727259D01*
X133602661Y-111700000D01*
X133497339Y-111700000D01*
X133395606Y-111727259D01*
X133304394Y-111779920D01*
X133300000Y-111784314D01*
X133300000Y-111000000D01*
X133063429Y-111000000D01*
X132892415Y-111027085D01*
X132727742Y-111080591D01*
X132573475Y-111159195D01*
X132433397Y-111260967D01*
X132310967Y-111383397D01*
X132209195Y-111523475D01*
X132130591Y-111677744D01*
X132077085Y-111842415D01*
X132075884Y-111849999D01*
X115200500Y-111849999D01*
X115200500Y-107346153D01*
X122424500Y-107346153D01*
X122424500Y-107503846D01*
X122455261Y-107658489D01*
X122455264Y-107658501D01*
X122515602Y-107804172D01*
X122515609Y-107804185D01*
X122603210Y-107935288D01*
X122603213Y-107935292D01*
X122714707Y-108046786D01*
X122714711Y-108046789D01*
X122845814Y-108134390D01*
X122845827Y-108134397D01*
X122945060Y-108175500D01*
X122991503Y-108194737D01*
X123146153Y-108225499D01*
X123146156Y-108225500D01*
X123146158Y-108225500D01*
X123303844Y-108225500D01*
X123303845Y-108225499D01*
X123380152Y-108210320D01*
X123458488Y-108194739D01*
X123458489Y-108194738D01*
X123458497Y-108194737D01*
X123482155Y-108184937D01*
X123529604Y-108175500D01*
X125220396Y-108175500D01*
X125267844Y-108184937D01*
X125291503Y-108194737D01*
X125291508Y-108194738D01*
X125291511Y-108194739D01*
X125446153Y-108225499D01*
X125446156Y-108225500D01*
X125446158Y-108225500D01*
X125603844Y-108225500D01*
X125603845Y-108225499D01*
X125758497Y-108194737D01*
X125904179Y-108134394D01*
X126035289Y-108046789D01*
X126146789Y-107935289D01*
X126234394Y-107804179D01*
X126294737Y-107658497D01*
X126325500Y-107503842D01*
X126325500Y-107346158D01*
X126325500Y-107346155D01*
X126325499Y-107346153D01*
X126294738Y-107191510D01*
X126294737Y-107191503D01*
X126294735Y-107191498D01*
X126234397Y-107045827D01*
X126234390Y-107045814D01*
X126146789Y-106914711D01*
X126146786Y-106914707D01*
X126035292Y-106803213D01*
X126035288Y-106803210D01*
X125904185Y-106715609D01*
X125904172Y-106715602D01*
X125758501Y-106655264D01*
X125758489Y-106655261D01*
X125603845Y-106624500D01*
X125603842Y-106624500D01*
X125446158Y-106624500D01*
X125446155Y-106624500D01*
X125291511Y-106655260D01*
X125291506Y-106655262D01*
X125291504Y-106655262D01*
X125291503Y-106655263D01*
X125267844Y-106665062D01*
X125220396Y-106674500D01*
X123529604Y-106674500D01*
X123482155Y-106665062D01*
X123458497Y-106655263D01*
X123458493Y-106655262D01*
X123458488Y-106655260D01*
X123303845Y-106624500D01*
X123303842Y-106624500D01*
X123146158Y-106624500D01*
X123146155Y-106624500D01*
X122991510Y-106655261D01*
X122991498Y-106655264D01*
X122845827Y-106715602D01*
X122845814Y-106715609D01*
X122714711Y-106803210D01*
X122714707Y-106803213D01*
X122603213Y-106914707D01*
X122603210Y-106914711D01*
X122515609Y-107045814D01*
X122515602Y-107045827D01*
X122455264Y-107191498D01*
X122455261Y-107191510D01*
X122424500Y-107346153D01*
X115200500Y-107346153D01*
X115200500Y-94018905D01*
X119400000Y-94018905D01*
X119400000Y-94281094D01*
X119434220Y-94541009D01*
X119434222Y-94541020D01*
X119502075Y-94794255D01*
X119602404Y-95036471D01*
X119602409Y-95036482D01*
X119733488Y-95263516D01*
X119733494Y-95263524D01*
X119820080Y-95376365D01*
X120722421Y-94474024D01*
X120735359Y-94505258D01*
X120817437Y-94628097D01*
X120921903Y-94732563D01*
X121044742Y-94814641D01*
X121075974Y-94827577D01*
X120173633Y-95729917D01*
X120173633Y-95729918D01*
X120286475Y-95816505D01*
X120286483Y-95816511D01*
X120513517Y-95947590D01*
X120513528Y-95947595D01*
X120755744Y-96047924D01*
X121008979Y-96115777D01*
X121008990Y-96115779D01*
X121268905Y-96149999D01*
X121268920Y-96150000D01*
X121531080Y-96150000D01*
X121531094Y-96149999D01*
X121791009Y-96115779D01*
X121791020Y-96115777D01*
X122044255Y-96047924D01*
X122286471Y-95947595D01*
X122286482Y-95947590D01*
X122513516Y-95816511D01*
X122513534Y-95816499D01*
X122626365Y-95729919D01*
X122626365Y-95729917D01*
X121724025Y-94827578D01*
X121755258Y-94814641D01*
X121878097Y-94732563D01*
X121982563Y-94628097D01*
X122064641Y-94505258D01*
X122077577Y-94474025D01*
X122979917Y-95376365D01*
X122979919Y-95376365D01*
X123066499Y-95263534D01*
X123066511Y-95263516D01*
X123197590Y-95036482D01*
X123197595Y-95036471D01*
X123297924Y-94794255D01*
X123365777Y-94541020D01*
X123365779Y-94541009D01*
X123399999Y-94281094D01*
X123400000Y-94281080D01*
X123400000Y-94018919D01*
X123399999Y-94018905D01*
X123365779Y-93758990D01*
X123365777Y-93758979D01*
X123297924Y-93505744D01*
X123197595Y-93263528D01*
X123197590Y-93263517D01*
X123066511Y-93036483D01*
X123066505Y-93036475D01*
X122979918Y-92923633D01*
X122979917Y-92923633D01*
X122077577Y-93825973D01*
X122064641Y-93794742D01*
X121982563Y-93671903D01*
X121878097Y-93567437D01*
X121755258Y-93485359D01*
X121724023Y-93472421D01*
X122626365Y-92570080D01*
X122513524Y-92483494D01*
X122513516Y-92483488D01*
X122286482Y-92352409D01*
X122286471Y-92352404D01*
X122044255Y-92252075D01*
X121791020Y-92184222D01*
X121791009Y-92184220D01*
X121531094Y-92150000D01*
X121268905Y-92150000D01*
X121008990Y-92184220D01*
X121008979Y-92184222D01*
X120755744Y-92252075D01*
X120513528Y-92352404D01*
X120513517Y-92352409D01*
X120286471Y-92483496D01*
X120173633Y-92570079D01*
X120173633Y-92570080D01*
X121075974Y-93472421D01*
X121044742Y-93485359D01*
X120921903Y-93567437D01*
X120817437Y-93671903D01*
X120735359Y-93794742D01*
X120722421Y-93825974D01*
X119820080Y-92923633D01*
X119820079Y-92923633D01*
X119733496Y-93036471D01*
X119602409Y-93263517D01*
X119602404Y-93263528D01*
X119502075Y-93505744D01*
X119434222Y-93758979D01*
X119434220Y-93758990D01*
X119400000Y-94018905D01*
X115200500Y-94018905D01*
X115200500Y-92217729D01*
X115220185Y-92150690D01*
X115272989Y-92104935D01*
X115342147Y-92094991D01*
X115393391Y-92114627D01*
X115531079Y-92206628D01*
X115531092Y-92206635D01*
X115713160Y-92282049D01*
X115713165Y-92282051D01*
X115713169Y-92282051D01*
X115713170Y-92282052D01*
X115906456Y-92320500D01*
X115906459Y-92320500D01*
X116103543Y-92320500D01*
X116233582Y-92294632D01*
X116296835Y-92282051D01*
X116478914Y-92206632D01*
X116642782Y-92097139D01*
X116782139Y-91957782D01*
X116891632Y-91793914D01*
X116967051Y-91611835D01*
X117005500Y-91418543D01*
X117544499Y-91418543D01*
X117582947Y-91611829D01*
X117582950Y-91611839D01*
X117658364Y-91793907D01*
X117658371Y-91793920D01*
X117767860Y-91957781D01*
X117767863Y-91957785D01*
X117907214Y-92097136D01*
X117907218Y-92097139D01*
X118071079Y-92206628D01*
X118071092Y-92206635D01*
X118253160Y-92282049D01*
X118253165Y-92282051D01*
X118253169Y-92282051D01*
X118253170Y-92282052D01*
X118446456Y-92320500D01*
X118446459Y-92320500D01*
X118643543Y-92320500D01*
X118773582Y-92294632D01*
X118836835Y-92282051D01*
X119018914Y-92206632D01*
X119182782Y-92097139D01*
X119322139Y-91957782D01*
X119431632Y-91793914D01*
X119454631Y-91738389D01*
X132024500Y-91738389D01*
X132024500Y-91911611D01*
X132051598Y-92082701D01*
X132105127Y-92247445D01*
X132183768Y-92401788D01*
X132285586Y-92541928D01*
X132408072Y-92664414D01*
X132548212Y-92766232D01*
X132702555Y-92844873D01*
X132867299Y-92898402D01*
X133038389Y-92925500D01*
X133038390Y-92925500D01*
X134011610Y-92925500D01*
X134011611Y-92925500D01*
X134182701Y-92898402D01*
X134347445Y-92844873D01*
X134501788Y-92766232D01*
X134641928Y-92664414D01*
X134764414Y-92541928D01*
X134866232Y-92401788D01*
X134944873Y-92247445D01*
X134998402Y-92082701D01*
X135025500Y-91911611D01*
X135025500Y-91738389D01*
X134998402Y-91567299D01*
X134944873Y-91402555D01*
X134866232Y-91248212D01*
X134764414Y-91108072D01*
X134641928Y-90985586D01*
X134501788Y-90883768D01*
X134347445Y-90805127D01*
X134182701Y-90751598D01*
X134182699Y-90751597D01*
X134182698Y-90751597D01*
X134051271Y-90730781D01*
X134011611Y-90724500D01*
X133038389Y-90724500D01*
X132998728Y-90730781D01*
X132867302Y-90751597D01*
X132702552Y-90805128D01*
X132548211Y-90883768D01*
X132468256Y-90941859D01*
X132408072Y-90985586D01*
X132408070Y-90985588D01*
X132408069Y-90985588D01*
X132285588Y-91108069D01*
X132285588Y-91108070D01*
X132285586Y-91108072D01*
X132241859Y-91168256D01*
X132183768Y-91248211D01*
X132105128Y-91402552D01*
X132051597Y-91567302D01*
X132032788Y-91686062D01*
X132024500Y-91738389D01*
X119454631Y-91738389D01*
X119507051Y-91611835D01*
X119545500Y-91418541D01*
X119545500Y-91221459D01*
X119545500Y-91221456D01*
X119507052Y-91028170D01*
X119507051Y-91028169D01*
X119507051Y-91028165D01*
X119489415Y-90985588D01*
X119431635Y-90846092D01*
X119431628Y-90846079D01*
X119322139Y-90682218D01*
X119322136Y-90682214D01*
X119182785Y-90542863D01*
X119182781Y-90542860D01*
X119018920Y-90433371D01*
X119018907Y-90433364D01*
X118836839Y-90357950D01*
X118836829Y-90357947D01*
X118643543Y-90319500D01*
X118643541Y-90319500D01*
X118446459Y-90319500D01*
X118446457Y-90319500D01*
X118253170Y-90357947D01*
X118253160Y-90357950D01*
X118071092Y-90433364D01*
X118071079Y-90433371D01*
X117907218Y-90542860D01*
X117907214Y-90542863D01*
X117767863Y-90682214D01*
X117767860Y-90682218D01*
X117658371Y-90846079D01*
X117658364Y-90846092D01*
X117582950Y-91028160D01*
X117582947Y-91028170D01*
X117544500Y-91221456D01*
X117544500Y-91221459D01*
X117544500Y-91418541D01*
X117544500Y-91418543D01*
X117544499Y-91418543D01*
X117005500Y-91418543D01*
X117005500Y-91418541D01*
X117005500Y-91221459D01*
X117005500Y-91221456D01*
X116967052Y-91028170D01*
X116967051Y-91028169D01*
X116967051Y-91028165D01*
X116949415Y-90985588D01*
X116891635Y-90846092D01*
X116891628Y-90846079D01*
X116782139Y-90682218D01*
X116782136Y-90682214D01*
X116642785Y-90542863D01*
X116642781Y-90542860D01*
X116478920Y-90433371D01*
X116478907Y-90433364D01*
X116296839Y-90357950D01*
X116296829Y-90357947D01*
X116103543Y-90319500D01*
X116103541Y-90319500D01*
X115906459Y-90319500D01*
X115906457Y-90319500D01*
X115713170Y-90357947D01*
X115713160Y-90357950D01*
X115531092Y-90433364D01*
X115531079Y-90433371D01*
X115393391Y-90525372D01*
X115326713Y-90546250D01*
X115259333Y-90527765D01*
X115212643Y-90475786D01*
X115200500Y-90422270D01*
X115200500Y-89178389D01*
X132024500Y-89178389D01*
X132024500Y-89351611D01*
X132051598Y-89522701D01*
X132105127Y-89687445D01*
X132183768Y-89841788D01*
X132285586Y-89981928D01*
X132408072Y-90104414D01*
X132548212Y-90206232D01*
X132702555Y-90284873D01*
X132867299Y-90338402D01*
X133038389Y-90365500D01*
X133038390Y-90365500D01*
X134011610Y-90365500D01*
X134011611Y-90365500D01*
X134182701Y-90338402D01*
X134347445Y-90284873D01*
X134501788Y-90206232D01*
X134641928Y-90104414D01*
X134764414Y-89981928D01*
X134866232Y-89841788D01*
X134944873Y-89687445D01*
X134998402Y-89522701D01*
X135025500Y-89351611D01*
X135025500Y-89178389D01*
X134998402Y-89007299D01*
X134944873Y-88842555D01*
X134866232Y-88688212D01*
X134764414Y-88548072D01*
X134641928Y-88425586D01*
X134501788Y-88323768D01*
X134347445Y-88245127D01*
X134182701Y-88191598D01*
X134182699Y-88191597D01*
X134182698Y-88191597D01*
X134051271Y-88170781D01*
X134011611Y-88164500D01*
X133038389Y-88164500D01*
X132998728Y-88170781D01*
X132867302Y-88191597D01*
X132702552Y-88245128D01*
X132548211Y-88323768D01*
X132468256Y-88381859D01*
X132408072Y-88425586D01*
X132408070Y-88425588D01*
X132408069Y-88425588D01*
X132285588Y-88548069D01*
X132285588Y-88548070D01*
X132285586Y-88548072D01*
X132241859Y-88608256D01*
X132183768Y-88688211D01*
X132105128Y-88842552D01*
X132051597Y-89007302D01*
X132024500Y-89178389D01*
X115200500Y-89178389D01*
X115200500Y-87246158D01*
X127624500Y-87246158D01*
X127624500Y-87254001D01*
X127624500Y-87403846D01*
X127655261Y-87558489D01*
X127655264Y-87558501D01*
X127715602Y-87704172D01*
X127715609Y-87704185D01*
X127803210Y-87835288D01*
X127803213Y-87835292D01*
X127914707Y-87946786D01*
X127914711Y-87946789D01*
X128045814Y-88034390D01*
X128045827Y-88034397D01*
X128191498Y-88094735D01*
X128191503Y-88094737D01*
X128346153Y-88125499D01*
X128346156Y-88125500D01*
X128346158Y-88125500D01*
X128503844Y-88125500D01*
X128503845Y-88125499D01*
X128658497Y-88094737D01*
X128804179Y-88034394D01*
X128935289Y-87946789D01*
X129046789Y-87835289D01*
X129134394Y-87704179D01*
X129194737Y-87558497D01*
X129225500Y-87403842D01*
X129225500Y-87246158D01*
X129225500Y-87246155D01*
X129225499Y-87246153D01*
X129194739Y-87091511D01*
X129194738Y-87091508D01*
X129194737Y-87091503D01*
X129184937Y-87067844D01*
X129175500Y-87020396D01*
X129175500Y-86638389D01*
X131974500Y-86638389D01*
X131974500Y-86811611D01*
X132001598Y-86982701D01*
X132055127Y-87147445D01*
X132133768Y-87301788D01*
X132235586Y-87441928D01*
X132358072Y-87564414D01*
X132498212Y-87666232D01*
X132652555Y-87744873D01*
X132817299Y-87798402D01*
X132988389Y-87825500D01*
X132988390Y-87825500D01*
X133961610Y-87825500D01*
X133961611Y-87825500D01*
X134132701Y-87798402D01*
X134297445Y-87744873D01*
X134451788Y-87666232D01*
X134591928Y-87564414D01*
X134714414Y-87441928D01*
X134816232Y-87301788D01*
X134894873Y-87147445D01*
X134948402Y-86982701D01*
X134975500Y-86811611D01*
X134975500Y-86638389D01*
X134948402Y-86467299D01*
X134894873Y-86302555D01*
X134816232Y-86148212D01*
X134714414Y-86008072D01*
X134591928Y-85885586D01*
X134451788Y-85783768D01*
X134297445Y-85705127D01*
X134132701Y-85651598D01*
X134132699Y-85651597D01*
X134132698Y-85651597D01*
X134001271Y-85630781D01*
X133961611Y-85624500D01*
X132988389Y-85624500D01*
X132948728Y-85630781D01*
X132817302Y-85651597D01*
X132652552Y-85705128D01*
X132498211Y-85783768D01*
X132418256Y-85841859D01*
X132358072Y-85885586D01*
X132358070Y-85885588D01*
X132358069Y-85885588D01*
X132235588Y-86008069D01*
X132235588Y-86008070D01*
X132235586Y-86008072D01*
X132191859Y-86068256D01*
X132133768Y-86148211D01*
X132055128Y-86302552D01*
X132001597Y-86467302D01*
X131974500Y-86638389D01*
X129175500Y-86638389D01*
X129175500Y-84078389D01*
X131974500Y-84078389D01*
X131974500Y-84251611D01*
X132001598Y-84422701D01*
X132055127Y-84587445D01*
X132133768Y-84741788D01*
X132235586Y-84881928D01*
X132358072Y-85004414D01*
X132498212Y-85106232D01*
X132652555Y-85184873D01*
X132817299Y-85238402D01*
X132988389Y-85265500D01*
X132988390Y-85265500D01*
X133961610Y-85265500D01*
X133961611Y-85265500D01*
X134132701Y-85238402D01*
X134297445Y-85184873D01*
X134451788Y-85106232D01*
X134591928Y-85004414D01*
X134714414Y-84881928D01*
X134816232Y-84741788D01*
X134894873Y-84587445D01*
X134948402Y-84422701D01*
X134975500Y-84251611D01*
X134975500Y-84078389D01*
X134948402Y-83907299D01*
X134894873Y-83742555D01*
X134816232Y-83588212D01*
X134714414Y-83448072D01*
X134591928Y-83325586D01*
X134451788Y-83223768D01*
X134297445Y-83145127D01*
X134132701Y-83091598D01*
X134132699Y-83091597D01*
X134132698Y-83091597D01*
X134001271Y-83070781D01*
X133961611Y-83064500D01*
X132988389Y-83064500D01*
X132948728Y-83070781D01*
X132817302Y-83091597D01*
X132652552Y-83145128D01*
X132498211Y-83223768D01*
X132450406Y-83258501D01*
X132358072Y-83325586D01*
X132358070Y-83325588D01*
X132358069Y-83325588D01*
X132235588Y-83448069D01*
X132235588Y-83448070D01*
X132235586Y-83448072D01*
X132233956Y-83450316D01*
X132133768Y-83588211D01*
X132055128Y-83742552D01*
X132001597Y-83907302D01*
X131974500Y-84078389D01*
X129175500Y-84078389D01*
X129175500Y-83450316D01*
X129184939Y-83402864D01*
X129216948Y-83325586D01*
X129244737Y-83258497D01*
X129275500Y-83103842D01*
X129275500Y-82946158D01*
X129275500Y-82946155D01*
X129275499Y-82946153D01*
X129244738Y-82791510D01*
X129244737Y-82791503D01*
X129244735Y-82791498D01*
X129184397Y-82645827D01*
X129184390Y-82645814D01*
X129096789Y-82514711D01*
X129096786Y-82514707D01*
X128985292Y-82403213D01*
X128985288Y-82403210D01*
X128854185Y-82315609D01*
X128854172Y-82315602D01*
X128708501Y-82255264D01*
X128708489Y-82255261D01*
X128553845Y-82224500D01*
X128553842Y-82224500D01*
X128396158Y-82224500D01*
X128396155Y-82224500D01*
X128241510Y-82255261D01*
X128241498Y-82255264D01*
X128095827Y-82315602D01*
X128095814Y-82315609D01*
X127964711Y-82403210D01*
X127964707Y-82403213D01*
X127853213Y-82514707D01*
X127853210Y-82514711D01*
X127765609Y-82645814D01*
X127765602Y-82645827D01*
X127705264Y-82791498D01*
X127705261Y-82791510D01*
X127674500Y-82946153D01*
X127674500Y-87020396D01*
X127673049Y-87027687D01*
X127671408Y-87047916D01*
X127669079Y-87058147D01*
X127655263Y-87091503D01*
X127624500Y-87246158D01*
X115200500Y-87246158D01*
X115200500Y-82588282D01*
X115220185Y-82521243D01*
X115236819Y-82500601D01*
X116425602Y-81311819D01*
X116486925Y-81278334D01*
X116513283Y-81275500D01*
X118600500Y-81275500D01*
X118667539Y-81295185D01*
X118713294Y-81347989D01*
X118724500Y-81399500D01*
X118724500Y-81670396D01*
X118715062Y-81717844D01*
X118705263Y-81741503D01*
X118705262Y-81741506D01*
X118705260Y-81741511D01*
X118674500Y-81896153D01*
X118674500Y-82053846D01*
X118705261Y-82208489D01*
X118705264Y-82208501D01*
X118765602Y-82354172D01*
X118765609Y-82354185D01*
X118853210Y-82485288D01*
X118853213Y-82485292D01*
X118964707Y-82596786D01*
X118964711Y-82596789D01*
X119095814Y-82684390D01*
X119095827Y-82684397D01*
X119189995Y-82723402D01*
X119241503Y-82744737D01*
X119396153Y-82775499D01*
X119396156Y-82775500D01*
X119396158Y-82775500D01*
X119553844Y-82775500D01*
X119553845Y-82775499D01*
X119708497Y-82744737D01*
X119854179Y-82684394D01*
X119985289Y-82596789D01*
X120096789Y-82485289D01*
X120184394Y-82354179D01*
X120244737Y-82208497D01*
X120275500Y-82053842D01*
X120275500Y-81896158D01*
X120275500Y-81896155D01*
X120275499Y-81896153D01*
X120244739Y-81741511D01*
X120244738Y-81741508D01*
X120244737Y-81741503D01*
X120234937Y-81717844D01*
X120233311Y-81709670D01*
X120230523Y-81705331D01*
X120225500Y-81670396D01*
X120225500Y-81563389D01*
X131999500Y-81563389D01*
X131999500Y-81736610D01*
X132024769Y-81896158D01*
X132026598Y-81907701D01*
X132080127Y-82072445D01*
X132158768Y-82226788D01*
X132260586Y-82366928D01*
X132383072Y-82489414D01*
X132523212Y-82591232D01*
X132677555Y-82669873D01*
X132842299Y-82723402D01*
X133013389Y-82750500D01*
X133013390Y-82750500D01*
X133986610Y-82750500D01*
X133986611Y-82750500D01*
X134157701Y-82723402D01*
X134322445Y-82669873D01*
X134476788Y-82591232D01*
X134616928Y-82489414D01*
X134739414Y-82366928D01*
X134841232Y-82226788D01*
X134919873Y-82072445D01*
X134973402Y-81907701D01*
X135000500Y-81736611D01*
X135000500Y-81563389D01*
X134973402Y-81392299D01*
X134919873Y-81227555D01*
X134841232Y-81073212D01*
X134739414Y-80933072D01*
X134616928Y-80810586D01*
X134476788Y-80708768D01*
X134322445Y-80630127D01*
X134157701Y-80576598D01*
X134157699Y-80576597D01*
X134157698Y-80576597D01*
X134026271Y-80555781D01*
X133986611Y-80549500D01*
X133013389Y-80549500D01*
X132973728Y-80555781D01*
X132842302Y-80576597D01*
X132677552Y-80630128D01*
X132523211Y-80708768D01*
X132443256Y-80766859D01*
X132383072Y-80810586D01*
X132383070Y-80810588D01*
X132383069Y-80810588D01*
X132260588Y-80933069D01*
X132260588Y-80933070D01*
X132260586Y-80933072D01*
X132216859Y-80993256D01*
X132158768Y-81073211D01*
X132080128Y-81227552D01*
X132026597Y-81392302D01*
X131999500Y-81563389D01*
X120225500Y-81563389D01*
X120225500Y-81399500D01*
X120245185Y-81332461D01*
X120297989Y-81286706D01*
X120349500Y-81275500D01*
X122423543Y-81275500D01*
X122482601Y-81263752D01*
X122544397Y-81251460D01*
X122616836Y-81237051D01*
X122670165Y-81214961D01*
X122798914Y-81161632D01*
X122962782Y-81052139D01*
X123102139Y-80912782D01*
X123102139Y-80912780D01*
X123112347Y-80902573D01*
X123112348Y-80902570D01*
X125011531Y-79003389D01*
X131999500Y-79003389D01*
X131999500Y-79176610D01*
X132021093Y-79312948D01*
X132026598Y-79347701D01*
X132080127Y-79512445D01*
X132158768Y-79666788D01*
X132260586Y-79806928D01*
X132383072Y-79929414D01*
X132523212Y-80031232D01*
X132677555Y-80109873D01*
X132842299Y-80163402D01*
X133013389Y-80190500D01*
X133013390Y-80190500D01*
X133986610Y-80190500D01*
X133986611Y-80190500D01*
X134157701Y-80163402D01*
X134322445Y-80109873D01*
X134476788Y-80031232D01*
X134616928Y-79929414D01*
X134739414Y-79806928D01*
X134841232Y-79666788D01*
X134919873Y-79512445D01*
X134973402Y-79347701D01*
X135000500Y-79176611D01*
X135000500Y-79003389D01*
X134973402Y-78832299D01*
X134919873Y-78667555D01*
X134841232Y-78513212D01*
X134739414Y-78373072D01*
X134616928Y-78250586D01*
X134476788Y-78148768D01*
X134322445Y-78070127D01*
X134157701Y-78016598D01*
X134157699Y-78016597D01*
X134157698Y-78016597D01*
X134026271Y-77995781D01*
X133986611Y-77989500D01*
X133013389Y-77989500D01*
X132973728Y-77995781D01*
X132842302Y-78016597D01*
X132677552Y-78070128D01*
X132523211Y-78148768D01*
X132443256Y-78206859D01*
X132383072Y-78250586D01*
X132383070Y-78250588D01*
X132383069Y-78250588D01*
X132260588Y-78373069D01*
X132260588Y-78373070D01*
X132260586Y-78373072D01*
X132216859Y-78433256D01*
X132158768Y-78513211D01*
X132080128Y-78667552D01*
X132026597Y-78832302D01*
X131999500Y-79003389D01*
X125011531Y-79003389D01*
X126452139Y-77562782D01*
X126489129Y-77507421D01*
X126561631Y-77398916D01*
X126561636Y-77398906D01*
X126637049Y-77216839D01*
X126637051Y-77216835D01*
X126675500Y-77023541D01*
X126675500Y-67918233D01*
X126695185Y-67851194D01*
X126747989Y-67805439D01*
X126817147Y-67795495D01*
X126855796Y-67807749D01*
X126927740Y-67844407D01*
X127092415Y-67897914D01*
X127263429Y-67925000D01*
X127436571Y-67925000D01*
X127607584Y-67897914D01*
X127772257Y-67844408D01*
X127926525Y-67765803D01*
X127932736Y-67761289D01*
X127291301Y-67119854D01*
X127310504Y-67125000D01*
X127389496Y-67125000D01*
X127465796Y-67104556D01*
X127534205Y-67065060D01*
X127590060Y-67009205D01*
X127629556Y-66940796D01*
X127650000Y-66864496D01*
X127650000Y-66824999D01*
X127703553Y-66824999D01*
X127703553Y-66825001D01*
X128286289Y-67407737D01*
X128286289Y-67407736D01*
X128290803Y-67401525D01*
X128369408Y-67247257D01*
X128422914Y-67082584D01*
X128450000Y-66911571D01*
X128450000Y-66738428D01*
X128422914Y-66567415D01*
X128369408Y-66402742D01*
X128290801Y-66248471D01*
X128286290Y-66242262D01*
X128286289Y-66242261D01*
X127703553Y-66824999D01*
X127650000Y-66824999D01*
X127650000Y-66785504D01*
X127629556Y-66709204D01*
X127590060Y-66640795D01*
X127534205Y-66584940D01*
X127465796Y-66545444D01*
X127389496Y-66525000D01*
X127310504Y-66525000D01*
X127291300Y-66530145D01*
X127932736Y-65888710D01*
X127928745Y-65837999D01*
X127943108Y-65769622D01*
X127979478Y-65727950D01*
X128066928Y-65664414D01*
X128189414Y-65541928D01*
X128291232Y-65401788D01*
X128369873Y-65247445D01*
X128423402Y-65082701D01*
X128450500Y-64911611D01*
X128450500Y-64738389D01*
X128423402Y-64567299D01*
X128373206Y-64412815D01*
X128371212Y-64342977D01*
X128407292Y-64283144D01*
X128469993Y-64252316D01*
X128491138Y-64250500D01*
X132009046Y-64250500D01*
X132030487Y-64256795D01*
G37*
%TD.AperFunction*%
%TA.AperFunction,Conductor*%
G36*
X117919042Y-62646822D02*
G01*
X117985822Y-62667360D01*
X118030899Y-62720744D01*
X118039960Y-62790023D01*
X118010127Y-62853204D01*
X118005138Y-62858493D01*
X116529547Y-64334084D01*
X116523606Y-64342977D01*
X116506355Y-64368796D01*
X116483853Y-64402473D01*
X116447414Y-64457007D01*
X116390843Y-64593582D01*
X116390840Y-64593592D01*
X116362000Y-64738579D01*
X116362000Y-66031966D01*
X116342315Y-66099005D01*
X116326109Y-66119114D01*
X116325716Y-66119612D01*
X116237455Y-66262704D01*
X116237451Y-66262713D01*
X116184564Y-66422315D01*
X116184564Y-66422316D01*
X116184563Y-66422316D01*
X116174500Y-66520818D01*
X116174500Y-67129181D01*
X116184563Y-67227683D01*
X116237450Y-67387284D01*
X116237455Y-67387295D01*
X116325716Y-67530387D01*
X116330197Y-67536054D01*
X116329217Y-67536828D01*
X116359166Y-67591676D01*
X116362000Y-67618034D01*
X116362000Y-68626030D01*
X116359617Y-68650222D01*
X116349500Y-68701080D01*
X116349500Y-68701083D01*
X116349500Y-68848917D01*
X116349500Y-68848919D01*
X116349499Y-68848919D01*
X116378340Y-68993906D01*
X116378342Y-68993912D01*
X116422491Y-69100499D01*
X116434916Y-69130494D01*
X116517048Y-69253416D01*
X116517052Y-69253420D01*
X116517052Y-69253421D01*
X117121578Y-69857947D01*
X117121585Y-69857953D01*
X117179704Y-69896786D01*
X117179706Y-69896787D01*
X117179709Y-69896789D01*
X117244505Y-69940084D01*
X117381087Y-69996658D01*
X117381091Y-69996658D01*
X117381092Y-69996659D01*
X117526079Y-70025500D01*
X117526082Y-70025500D01*
X117526083Y-70025500D01*
X117673918Y-70025500D01*
X118070396Y-70025500D01*
X118117844Y-70034937D01*
X118141503Y-70044737D01*
X118141508Y-70044738D01*
X118141511Y-70044739D01*
X118296153Y-70075499D01*
X118296156Y-70075500D01*
X118296158Y-70075500D01*
X118453844Y-70075500D01*
X118453845Y-70075499D01*
X118608497Y-70044737D01*
X118754179Y-69984394D01*
X118885289Y-69896789D01*
X118996789Y-69785289D01*
X119084394Y-69654179D01*
X119144737Y-69508497D01*
X119175500Y-69353842D01*
X119175500Y-69196158D01*
X119175498Y-69196152D01*
X119175310Y-69194236D01*
X119175500Y-69193234D01*
X119175500Y-69190442D01*
X119174891Y-69188716D01*
X119182312Y-69157308D01*
X119188327Y-69125589D01*
X119190298Y-69123508D01*
X119190958Y-69120719D01*
X119214184Y-69098307D01*
X119236390Y-69074878D01*
X119239801Y-69073588D01*
X119241237Y-69072203D01*
X119274521Y-69060461D01*
X119312617Y-69052883D01*
X119336809Y-69050500D01*
X120145396Y-69050500D01*
X120192844Y-69059937D01*
X120216503Y-69069737D01*
X120216508Y-69069738D01*
X120216511Y-69069739D01*
X120371153Y-69100499D01*
X120371156Y-69100500D01*
X120371158Y-69100500D01*
X120528844Y-69100500D01*
X120528845Y-69100499D01*
X120683497Y-69069737D01*
X120829179Y-69009394D01*
X120960289Y-68921789D01*
X121071789Y-68810289D01*
X121159394Y-68679179D01*
X121219737Y-68533497D01*
X121250500Y-68378842D01*
X121250500Y-68221158D01*
X121250500Y-68221155D01*
X121250499Y-68221153D01*
X121219737Y-68066503D01*
X121161125Y-67925000D01*
X121159397Y-67920827D01*
X121159390Y-67920814D01*
X121071789Y-67789711D01*
X121071786Y-67789707D01*
X120960292Y-67678213D01*
X120960288Y-67678210D01*
X120829185Y-67590609D01*
X120829172Y-67590602D01*
X120683501Y-67530264D01*
X120683489Y-67530261D01*
X120528845Y-67499500D01*
X120528842Y-67499500D01*
X120371158Y-67499500D01*
X120371155Y-67499500D01*
X120216511Y-67530260D01*
X120216506Y-67530262D01*
X120216504Y-67530262D01*
X120216503Y-67530263D01*
X120192844Y-67540062D01*
X120145396Y-67549500D01*
X119680517Y-67549500D01*
X119613478Y-67529815D01*
X119567723Y-67477011D01*
X119557779Y-67407853D01*
X119562811Y-67386496D01*
X119615436Y-67227685D01*
X119625500Y-67129174D01*
X119625500Y-66520826D01*
X119615436Y-66422315D01*
X119562549Y-66262713D01*
X119562545Y-66262707D01*
X119562544Y-66262704D01*
X119474283Y-66119612D01*
X119474280Y-66119608D01*
X119355391Y-66000719D01*
X119355387Y-66000716D01*
X119212295Y-65912455D01*
X119212289Y-65912452D01*
X119212287Y-65912451D01*
X119052685Y-65859564D01*
X119052683Y-65859563D01*
X118954181Y-65849500D01*
X118954174Y-65849500D01*
X118420826Y-65849500D01*
X118420818Y-65849500D01*
X118322316Y-65859563D01*
X118322315Y-65859564D01*
X118275307Y-65875141D01*
X118162715Y-65912450D01*
X118162710Y-65912452D01*
X118052097Y-65980680D01*
X117984704Y-65999120D01*
X117918041Y-65978197D01*
X117873271Y-65924555D01*
X117863000Y-65875141D01*
X117863000Y-65174729D01*
X117882685Y-65107690D01*
X117899319Y-65087048D01*
X118849548Y-64136819D01*
X118910871Y-64103334D01*
X118937229Y-64100500D01*
X124273920Y-64100500D01*
X124371462Y-64081096D01*
X124418913Y-64071658D01*
X124503049Y-64036807D01*
X124572516Y-64029339D01*
X124634996Y-64060614D01*
X124670648Y-64120703D01*
X124674500Y-64151369D01*
X124674500Y-76459217D01*
X124654815Y-76526256D01*
X124638181Y-76546898D01*
X121946899Y-79238181D01*
X121885576Y-79271666D01*
X121859218Y-79274500D01*
X116129675Y-79274500D01*
X116129655Y-79274499D01*
X116123541Y-79274499D01*
X115926460Y-79274499D01*
X115926457Y-79274499D01*
X115733172Y-79312946D01*
X115733164Y-79312948D01*
X115551088Y-79388366D01*
X115551079Y-79388371D01*
X115387219Y-79497859D01*
X115387215Y-79497862D01*
X114172865Y-80712213D01*
X114172858Y-80712221D01*
X114134338Y-80769870D01*
X114118918Y-80788659D01*
X113695194Y-81212385D01*
X113562220Y-81345359D01*
X113562218Y-81345361D01*
X113515280Y-81392299D01*
X113422859Y-81484719D01*
X113313371Y-81648579D01*
X113313364Y-81648592D01*
X113237950Y-81830660D01*
X113237947Y-81830670D01*
X113199500Y-82023956D01*
X113199500Y-112484218D01*
X113179815Y-112551257D01*
X113163181Y-112571899D01*
X112111899Y-113623181D01*
X112050576Y-113656666D01*
X112024218Y-113659500D01*
X109440237Y-113659500D01*
X109383941Y-113645984D01*
X109372449Y-113640128D01*
X109290073Y-113613362D01*
X109207701Y-113586598D01*
X109207699Y-113586597D01*
X109207698Y-113586597D01*
X109076271Y-113565781D01*
X109036611Y-113559500D01*
X108063389Y-113559500D01*
X108023728Y-113565781D01*
X107892302Y-113586597D01*
X107727552Y-113640128D01*
X107573211Y-113718768D01*
X107493256Y-113776859D01*
X107433072Y-113820586D01*
X107433070Y-113820588D01*
X107433069Y-113820588D01*
X107310589Y-113943068D01*
X107310588Y-113943070D01*
X107310586Y-113943072D01*
X107299815Y-113957896D01*
X107244486Y-114000559D01*
X107174872Y-114006537D01*
X107113078Y-113973930D01*
X107078722Y-113913090D01*
X107075500Y-113885007D01*
X107075500Y-112874142D01*
X107095185Y-112807103D01*
X107147989Y-112761348D01*
X107217147Y-112751404D01*
X107280703Y-112780429D01*
X107299820Y-112801259D01*
X107310965Y-112816600D01*
X107433397Y-112939032D01*
X107573475Y-113040804D01*
X107727742Y-113119408D01*
X107892415Y-113172914D01*
X108063429Y-113200000D01*
X108300000Y-113200000D01*
X108300000Y-112415686D01*
X108304394Y-112420080D01*
X108395606Y-112472741D01*
X108497339Y-112500000D01*
X108602661Y-112500000D01*
X108704394Y-112472741D01*
X108795606Y-112420080D01*
X108800000Y-112415686D01*
X108800000Y-113200000D01*
X109036571Y-113200000D01*
X109207584Y-113172914D01*
X109372257Y-113119408D01*
X109526524Y-113040804D01*
X109666602Y-112939032D01*
X109789032Y-112816602D01*
X109890804Y-112676524D01*
X109969408Y-112522255D01*
X110022914Y-112357584D01*
X110024115Y-112350000D01*
X108865686Y-112350000D01*
X108870080Y-112345606D01*
X108922741Y-112254394D01*
X108950000Y-112152661D01*
X108950000Y-112047339D01*
X108922741Y-111945606D01*
X108870080Y-111854394D01*
X108865686Y-111850000D01*
X110024115Y-111850000D01*
X110024115Y-111849999D01*
X110022914Y-111842415D01*
X109969408Y-111677744D01*
X109890804Y-111523475D01*
X109789032Y-111383397D01*
X109666602Y-111260967D01*
X109526524Y-111159195D01*
X109372257Y-111080591D01*
X109207584Y-111027085D01*
X109036571Y-111000000D01*
X108800000Y-111000000D01*
X108800000Y-111784314D01*
X108795606Y-111779920D01*
X108704394Y-111727259D01*
X108602661Y-111700000D01*
X108497339Y-111700000D01*
X108395606Y-111727259D01*
X108304394Y-111779920D01*
X108300000Y-111784314D01*
X108300000Y-111000000D01*
X108063429Y-111000000D01*
X107892415Y-111027085D01*
X107727742Y-111080591D01*
X107573475Y-111159195D01*
X107433397Y-111260967D01*
X107310965Y-111383399D01*
X107310961Y-111383404D01*
X107299818Y-111398742D01*
X107244489Y-111441408D01*
X107174875Y-111447387D01*
X107113080Y-111414782D01*
X107078723Y-111353943D01*
X107075500Y-111325857D01*
X107075500Y-92631204D01*
X107095185Y-92564165D01*
X107147989Y-92518410D01*
X107217147Y-92508466D01*
X107280703Y-92537491D01*
X107287181Y-92543523D01*
X107408072Y-92664414D01*
X107548212Y-92766232D01*
X107702555Y-92844873D01*
X107867299Y-92898402D01*
X108038389Y-92925500D01*
X108038390Y-92925500D01*
X109011610Y-92925500D01*
X109011611Y-92925500D01*
X109182701Y-92898402D01*
X109347445Y-92844873D01*
X109501788Y-92766232D01*
X109641928Y-92664414D01*
X109764414Y-92541928D01*
X109866232Y-92401788D01*
X109944873Y-92247445D01*
X109998402Y-92082701D01*
X110025500Y-91911611D01*
X110025500Y-91738389D01*
X109998402Y-91567299D01*
X109944873Y-91402555D01*
X109866232Y-91248212D01*
X109764414Y-91108072D01*
X109641928Y-90985586D01*
X109501788Y-90883768D01*
X109347445Y-90805127D01*
X109182701Y-90751598D01*
X109182699Y-90751597D01*
X109182698Y-90751597D01*
X109051271Y-90730781D01*
X109011611Y-90724500D01*
X108038389Y-90724500D01*
X107998728Y-90730781D01*
X107867302Y-90751597D01*
X107702552Y-90805128D01*
X107548211Y-90883768D01*
X107468256Y-90941859D01*
X107408072Y-90985586D01*
X107408070Y-90985588D01*
X107408069Y-90985588D01*
X107287181Y-91106477D01*
X107225858Y-91139962D01*
X107156166Y-91134978D01*
X107100233Y-91093106D01*
X107075816Y-91027642D01*
X107075500Y-91018796D01*
X107075500Y-90071204D01*
X107095185Y-90004165D01*
X107147989Y-89958410D01*
X107217147Y-89948466D01*
X107280703Y-89977491D01*
X107287181Y-89983523D01*
X107408072Y-90104414D01*
X107548212Y-90206232D01*
X107702555Y-90284873D01*
X107867299Y-90338402D01*
X108038389Y-90365500D01*
X108038390Y-90365500D01*
X109011610Y-90365500D01*
X109011611Y-90365500D01*
X109182701Y-90338402D01*
X109347445Y-90284873D01*
X109501788Y-90206232D01*
X109641928Y-90104414D01*
X109764414Y-89981928D01*
X109866232Y-89841788D01*
X109944873Y-89687445D01*
X109998402Y-89522701D01*
X110025500Y-89351611D01*
X110025500Y-89178389D01*
X109998402Y-89007299D01*
X109944873Y-88842555D01*
X109866232Y-88688212D01*
X109764414Y-88548072D01*
X109641928Y-88425586D01*
X109501788Y-88323768D01*
X109347445Y-88245127D01*
X109182701Y-88191598D01*
X109182699Y-88191597D01*
X109182698Y-88191597D01*
X109051271Y-88170781D01*
X109011611Y-88164500D01*
X108038389Y-88164500D01*
X107998728Y-88170781D01*
X107867302Y-88191597D01*
X107702552Y-88245128D01*
X107548211Y-88323768D01*
X107468256Y-88381859D01*
X107408072Y-88425586D01*
X107408070Y-88425588D01*
X107408069Y-88425588D01*
X107287181Y-88546477D01*
X107225858Y-88579962D01*
X107156166Y-88574978D01*
X107100233Y-88533106D01*
X107075816Y-88467642D01*
X107075500Y-88458796D01*
X107075500Y-87581204D01*
X107095185Y-87514165D01*
X107147989Y-87468410D01*
X107217147Y-87458466D01*
X107280703Y-87487491D01*
X107287181Y-87493523D01*
X107358072Y-87564414D01*
X107498212Y-87666232D01*
X107652555Y-87744873D01*
X107817299Y-87798402D01*
X107988389Y-87825500D01*
X107988390Y-87825500D01*
X108961610Y-87825500D01*
X108961611Y-87825500D01*
X109132701Y-87798402D01*
X109297445Y-87744873D01*
X109451788Y-87666232D01*
X109591928Y-87564414D01*
X109714414Y-87441928D01*
X109816232Y-87301788D01*
X109894873Y-87147445D01*
X109948402Y-86982701D01*
X109975500Y-86811611D01*
X109975500Y-86638389D01*
X109948402Y-86467299D01*
X109894873Y-86302555D01*
X109816232Y-86148212D01*
X109714414Y-86008072D01*
X109591928Y-85885586D01*
X109451788Y-85783768D01*
X109297445Y-85705127D01*
X109132701Y-85651598D01*
X109132699Y-85651597D01*
X109132698Y-85651597D01*
X109001271Y-85630781D01*
X108961611Y-85624500D01*
X107988389Y-85624500D01*
X107948728Y-85630781D01*
X107817302Y-85651597D01*
X107652552Y-85705128D01*
X107498211Y-85783768D01*
X107418256Y-85841859D01*
X107358072Y-85885586D01*
X107358070Y-85885588D01*
X107358069Y-85885588D01*
X107287181Y-85956477D01*
X107225858Y-85989962D01*
X107156166Y-85984978D01*
X107100233Y-85943106D01*
X107075816Y-85877642D01*
X107075500Y-85868796D01*
X107075500Y-85021204D01*
X107095185Y-84954165D01*
X107147989Y-84908410D01*
X107217147Y-84898466D01*
X107280703Y-84927491D01*
X107287181Y-84933523D01*
X107358072Y-85004414D01*
X107498212Y-85106232D01*
X107652555Y-85184873D01*
X107817299Y-85238402D01*
X107988389Y-85265500D01*
X107988390Y-85265500D01*
X108961610Y-85265500D01*
X108961611Y-85265500D01*
X109132701Y-85238402D01*
X109297445Y-85184873D01*
X109451788Y-85106232D01*
X109591928Y-85004414D01*
X109714414Y-84881928D01*
X109816232Y-84741788D01*
X109894873Y-84587445D01*
X109948402Y-84422701D01*
X109975500Y-84251611D01*
X109975500Y-84078389D01*
X109948402Y-83907299D01*
X109894873Y-83742555D01*
X109816232Y-83588212D01*
X109714414Y-83448072D01*
X109591928Y-83325586D01*
X109451788Y-83223768D01*
X109297445Y-83145127D01*
X109132701Y-83091598D01*
X109132699Y-83091597D01*
X109132698Y-83091597D01*
X109001271Y-83070781D01*
X108961611Y-83064500D01*
X107988389Y-83064500D01*
X107948728Y-83070781D01*
X107817302Y-83091597D01*
X107652552Y-83145128D01*
X107498211Y-83223768D01*
X107450406Y-83258501D01*
X107358072Y-83325586D01*
X107358070Y-83325588D01*
X107358069Y-83325588D01*
X107287181Y-83396477D01*
X107225858Y-83429962D01*
X107156166Y-83424978D01*
X107100233Y-83383106D01*
X107075816Y-83317642D01*
X107075500Y-83308796D01*
X107075500Y-82481204D01*
X107095185Y-82414165D01*
X107147989Y-82368410D01*
X107217147Y-82358466D01*
X107280703Y-82387491D01*
X107287181Y-82393523D01*
X107383072Y-82489414D01*
X107523212Y-82591232D01*
X107677555Y-82669873D01*
X107842299Y-82723402D01*
X108013389Y-82750500D01*
X108013390Y-82750500D01*
X108986610Y-82750500D01*
X108986611Y-82750500D01*
X109157701Y-82723402D01*
X109322445Y-82669873D01*
X109476788Y-82591232D01*
X109616928Y-82489414D01*
X109739414Y-82366928D01*
X109841232Y-82226788D01*
X109919873Y-82072445D01*
X109973402Y-81907701D01*
X110000500Y-81736611D01*
X110000500Y-81563389D01*
X109973402Y-81392299D01*
X109919873Y-81227555D01*
X109841232Y-81073212D01*
X109739414Y-80933072D01*
X109616928Y-80810586D01*
X109476788Y-80708768D01*
X109322445Y-80630127D01*
X109157701Y-80576598D01*
X109157699Y-80576597D01*
X109157698Y-80576597D01*
X109026271Y-80555781D01*
X108986611Y-80549500D01*
X108013389Y-80549500D01*
X107973728Y-80555781D01*
X107842302Y-80576597D01*
X107677552Y-80630128D01*
X107523211Y-80708768D01*
X107443256Y-80766859D01*
X107383072Y-80810586D01*
X107383070Y-80810588D01*
X107383069Y-80810588D01*
X107287181Y-80906477D01*
X107225858Y-80939962D01*
X107156166Y-80934978D01*
X107100233Y-80893106D01*
X107075816Y-80827642D01*
X107075500Y-80818796D01*
X107075500Y-79921204D01*
X107095185Y-79854165D01*
X107147989Y-79808410D01*
X107217147Y-79798466D01*
X107280703Y-79827491D01*
X107287181Y-79833523D01*
X107383072Y-79929414D01*
X107523212Y-80031232D01*
X107677555Y-80109873D01*
X107842299Y-80163402D01*
X108013389Y-80190500D01*
X108013390Y-80190500D01*
X108986610Y-80190500D01*
X108986611Y-80190500D01*
X109157701Y-80163402D01*
X109322445Y-80109873D01*
X109476788Y-80031232D01*
X109616928Y-79929414D01*
X109739414Y-79806928D01*
X109841232Y-79666788D01*
X109919873Y-79512445D01*
X109973402Y-79347701D01*
X110000500Y-79176611D01*
X110000500Y-79003389D01*
X109973402Y-78832299D01*
X109919873Y-78667555D01*
X109841232Y-78513212D01*
X109739414Y-78373072D01*
X109616928Y-78250586D01*
X109476788Y-78148768D01*
X109322445Y-78070127D01*
X109157701Y-78016598D01*
X109157699Y-78016597D01*
X109157698Y-78016597D01*
X109026271Y-77995781D01*
X108986611Y-77989500D01*
X108013389Y-77989500D01*
X107973728Y-77995781D01*
X107842302Y-78016597D01*
X107677552Y-78070128D01*
X107523211Y-78148768D01*
X107443256Y-78206859D01*
X107383072Y-78250586D01*
X107383070Y-78250588D01*
X107383069Y-78250588D01*
X107287181Y-78346477D01*
X107225858Y-78379962D01*
X107156166Y-78374978D01*
X107100233Y-78333106D01*
X107075816Y-78267642D01*
X107075500Y-78258796D01*
X107075500Y-62634084D01*
X107095185Y-62567045D01*
X107147989Y-62521290D01*
X107201078Y-62510094D01*
X117919042Y-62646822D01*
G37*
%TD.AperFunction*%
%TD*%
M02*
