%TF.GenerationSoftware,KiCad,Pcbnew,9.0.7*%
%TF.CreationDate,2026-08-12T04:56:44+05:30*%
%TF.ProjectId,ValveNode,56616c76-654e-46f6-9465-2e6b69636164,rev?*%
%TF.SameCoordinates,Original*%
%TF.FileFunction,Legend,Bot*%
%TF.FilePolarity,Positive*%
%FSLAX46Y46*%
G04 Gerber Fmt 4.6, Leading zero omitted, Abs format (unit mm)*
G04 Created by KiCad (PCBNEW 9.0.7) date 2026-08-12 04:56:44*
%MOMM*%
%LPD*%
G01*
G04 APERTURE LIST*
%ADD10C,0.250000*%
%ADD11C,0.100000*%
%ADD12C,0.300000*%
%ADD13C,0.240000*%
%ADD14C,0.150000*%
%ADD15C,0.125000*%
%ADD16C,0.120000*%
G04 APERTURE END LIST*
D10*
X49137431Y-97038666D02*
X48375527Y-97038666D01*
X48756479Y-97419619D02*
X48756479Y-96657714D01*
D11*
X33359925Y-95507419D02*
X33836115Y-95507419D01*
X33836115Y-95507419D02*
X33883734Y-95983609D01*
X33883734Y-95983609D02*
X33836115Y-95935990D01*
X33836115Y-95935990D02*
X33740877Y-95888371D01*
X33740877Y-95888371D02*
X33502782Y-95888371D01*
X33502782Y-95888371D02*
X33407544Y-95935990D01*
X33407544Y-95935990D02*
X33359925Y-95983609D01*
X33359925Y-95983609D02*
X33312306Y-96078847D01*
X33312306Y-96078847D02*
X33312306Y-96316942D01*
X33312306Y-96316942D02*
X33359925Y-96412180D01*
X33359925Y-96412180D02*
X33407544Y-96459800D01*
X33407544Y-96459800D02*
X33502782Y-96507419D01*
X33502782Y-96507419D02*
X33740877Y-96507419D01*
X33740877Y-96507419D02*
X33836115Y-96459800D01*
X33836115Y-96459800D02*
X33883734Y-96412180D01*
X33026591Y-95507419D02*
X32693258Y-96507419D01*
X32693258Y-96507419D02*
X32359925Y-95507419D01*
X54121353Y-95397419D02*
X53502306Y-95397419D01*
X53502306Y-95397419D02*
X53835639Y-95778371D01*
X53835639Y-95778371D02*
X53692782Y-95778371D01*
X53692782Y-95778371D02*
X53597544Y-95825990D01*
X53597544Y-95825990D02*
X53549925Y-95873609D01*
X53549925Y-95873609D02*
X53502306Y-95968847D01*
X53502306Y-95968847D02*
X53502306Y-96206942D01*
X53502306Y-96206942D02*
X53549925Y-96302180D01*
X53549925Y-96302180D02*
X53597544Y-96349800D01*
X53597544Y-96349800D02*
X53692782Y-96397419D01*
X53692782Y-96397419D02*
X53978496Y-96397419D01*
X53978496Y-96397419D02*
X54073734Y-96349800D01*
X54073734Y-96349800D02*
X54121353Y-96302180D01*
X53216591Y-95397419D02*
X52883258Y-96397419D01*
X52883258Y-96397419D02*
X52549925Y-95397419D01*
X52311829Y-95397419D02*
X51692782Y-95397419D01*
X51692782Y-95397419D02*
X52026115Y-95778371D01*
X52026115Y-95778371D02*
X51883258Y-95778371D01*
X51883258Y-95778371D02*
X51788020Y-95825990D01*
X51788020Y-95825990D02*
X51740401Y-95873609D01*
X51740401Y-95873609D02*
X51692782Y-95968847D01*
X51692782Y-95968847D02*
X51692782Y-96206942D01*
X51692782Y-96206942D02*
X51740401Y-96302180D01*
X51740401Y-96302180D02*
X51788020Y-96349800D01*
X51788020Y-96349800D02*
X51883258Y-96397419D01*
X51883258Y-96397419D02*
X52168972Y-96397419D01*
X52168972Y-96397419D02*
X52264210Y-96349800D01*
X52264210Y-96349800D02*
X52311829Y-96302180D01*
D10*
X75107669Y-105578428D02*
X75964812Y-105578428D01*
X75536241Y-105578428D02*
X75536241Y-104078428D01*
X75536241Y-104078428D02*
X75679098Y-104292714D01*
X75679098Y-104292714D02*
X75821955Y-104435571D01*
X75821955Y-104435571D02*
X75964812Y-104507000D01*
X67402669Y-105568428D02*
X68259812Y-105568428D01*
X67831241Y-105568428D02*
X67831241Y-104068428D01*
X67831241Y-104068428D02*
X67974098Y-104282714D01*
X67974098Y-104282714D02*
X68116955Y-104425571D01*
X68116955Y-104425571D02*
X68259812Y-104497000D01*
X59802669Y-105498428D02*
X60659812Y-105498428D01*
X60231241Y-105498428D02*
X60231241Y-103998428D01*
X60231241Y-103998428D02*
X60374098Y-104212714D01*
X60374098Y-104212714D02*
X60516955Y-104355571D01*
X60516955Y-104355571D02*
X60659812Y-104427000D01*
X52202669Y-105548428D02*
X53059812Y-105548428D01*
X52631241Y-105548428D02*
X52631241Y-104048428D01*
X52631241Y-104048428D02*
X52774098Y-104262714D01*
X52774098Y-104262714D02*
X52916955Y-104405571D01*
X52916955Y-104405571D02*
X53059812Y-104477000D01*
X75902669Y-96138428D02*
X76759812Y-96138428D01*
X76331241Y-96138428D02*
X76331241Y-94638428D01*
X76331241Y-94638428D02*
X76474098Y-94852714D01*
X76474098Y-94852714D02*
X76616955Y-94995571D01*
X76616955Y-94995571D02*
X76759812Y-95067000D01*
X57822669Y-52608428D02*
X58679812Y-52608428D01*
X58251241Y-52608428D02*
X58251241Y-51108428D01*
X58251241Y-51108428D02*
X58394098Y-51322714D01*
X58394098Y-51322714D02*
X58536955Y-51465571D01*
X58536955Y-51465571D02*
X58679812Y-51537000D01*
D12*
X49434284Y-85090609D02*
X49034284Y-86290609D01*
X49034284Y-86290609D02*
X48634284Y-85090609D01*
X47719999Y-86290609D02*
X47719999Y-85662038D01*
X47719999Y-85662038D02*
X47777141Y-85547752D01*
X47777141Y-85547752D02*
X47891427Y-85490609D01*
X47891427Y-85490609D02*
X48119999Y-85490609D01*
X48119999Y-85490609D02*
X48234284Y-85547752D01*
X47719999Y-86233467D02*
X47834284Y-86290609D01*
X47834284Y-86290609D02*
X48119999Y-86290609D01*
X48119999Y-86290609D02*
X48234284Y-86233467D01*
X48234284Y-86233467D02*
X48291427Y-86119181D01*
X48291427Y-86119181D02*
X48291427Y-86004895D01*
X48291427Y-86004895D02*
X48234284Y-85890609D01*
X48234284Y-85890609D02*
X48119999Y-85833467D01*
X48119999Y-85833467D02*
X47834284Y-85833467D01*
X47834284Y-85833467D02*
X47719999Y-85776324D01*
X46977142Y-86290609D02*
X47091427Y-86233467D01*
X47091427Y-86233467D02*
X47148570Y-86119181D01*
X47148570Y-86119181D02*
X47148570Y-85090609D01*
X46634285Y-85490609D02*
X46348571Y-86290609D01*
X46348571Y-86290609D02*
X46062856Y-85490609D01*
X45148570Y-86233467D02*
X45262856Y-86290609D01*
X45262856Y-86290609D02*
X45491428Y-86290609D01*
X45491428Y-86290609D02*
X45605713Y-86233467D01*
X45605713Y-86233467D02*
X45662856Y-86119181D01*
X45662856Y-86119181D02*
X45662856Y-85662038D01*
X45662856Y-85662038D02*
X45605713Y-85547752D01*
X45605713Y-85547752D02*
X45491428Y-85490609D01*
X45491428Y-85490609D02*
X45262856Y-85490609D01*
X45262856Y-85490609D02*
X45148570Y-85547752D01*
X45148570Y-85547752D02*
X45091428Y-85662038D01*
X45091428Y-85662038D02*
X45091428Y-85776324D01*
X45091428Y-85776324D02*
X45662856Y-85890609D01*
X43662856Y-86290609D02*
X43662856Y-85090609D01*
X43662856Y-85090609D02*
X42977142Y-86290609D01*
X42977142Y-86290609D02*
X42977142Y-85090609D01*
X42234285Y-86290609D02*
X42348570Y-86233467D01*
X42348570Y-86233467D02*
X42405713Y-86176324D01*
X42405713Y-86176324D02*
X42462856Y-86062038D01*
X42462856Y-86062038D02*
X42462856Y-85719181D01*
X42462856Y-85719181D02*
X42405713Y-85604895D01*
X42405713Y-85604895D02*
X42348570Y-85547752D01*
X42348570Y-85547752D02*
X42234285Y-85490609D01*
X42234285Y-85490609D02*
X42062856Y-85490609D01*
X42062856Y-85490609D02*
X41948570Y-85547752D01*
X41948570Y-85547752D02*
X41891428Y-85604895D01*
X41891428Y-85604895D02*
X41834285Y-85719181D01*
X41834285Y-85719181D02*
X41834285Y-86062038D01*
X41834285Y-86062038D02*
X41891428Y-86176324D01*
X41891428Y-86176324D02*
X41948570Y-86233467D01*
X41948570Y-86233467D02*
X42062856Y-86290609D01*
X42062856Y-86290609D02*
X42234285Y-86290609D01*
X40805714Y-86290609D02*
X40805714Y-85090609D01*
X40805714Y-86233467D02*
X40919999Y-86290609D01*
X40919999Y-86290609D02*
X41148571Y-86290609D01*
X41148571Y-86290609D02*
X41262856Y-86233467D01*
X41262856Y-86233467D02*
X41319999Y-86176324D01*
X41319999Y-86176324D02*
X41377142Y-86062038D01*
X41377142Y-86062038D02*
X41377142Y-85719181D01*
X41377142Y-85719181D02*
X41319999Y-85604895D01*
X41319999Y-85604895D02*
X41262856Y-85547752D01*
X41262856Y-85547752D02*
X41148571Y-85490609D01*
X41148571Y-85490609D02*
X40919999Y-85490609D01*
X40919999Y-85490609D02*
X40805714Y-85547752D01*
X39777142Y-86233467D02*
X39891428Y-86290609D01*
X39891428Y-86290609D02*
X40120000Y-86290609D01*
X40120000Y-86290609D02*
X40234285Y-86233467D01*
X40234285Y-86233467D02*
X40291428Y-86119181D01*
X40291428Y-86119181D02*
X40291428Y-85662038D01*
X40291428Y-85662038D02*
X40234285Y-85547752D01*
X40234285Y-85547752D02*
X40120000Y-85490609D01*
X40120000Y-85490609D02*
X39891428Y-85490609D01*
X39891428Y-85490609D02*
X39777142Y-85547752D01*
X39777142Y-85547752D02*
X39720000Y-85662038D01*
X39720000Y-85662038D02*
X39720000Y-85776324D01*
X39720000Y-85776324D02*
X40291428Y-85890609D01*
X45205713Y-87022542D02*
X44805713Y-88222542D01*
X44805713Y-88222542D02*
X44405713Y-87022542D01*
X44005713Y-88222542D02*
X44005713Y-87022542D01*
X44005713Y-87022542D02*
X43319999Y-88222542D01*
X43319999Y-88222542D02*
X43319999Y-87022542D01*
X42234285Y-87422542D02*
X42234285Y-88222542D01*
X42519999Y-86965400D02*
X42805713Y-87822542D01*
X42805713Y-87822542D02*
X42062856Y-87822542D01*
D13*
X51172856Y-77150545D02*
X50458571Y-77150545D01*
X51315713Y-77579116D02*
X50815713Y-76079116D01*
X50815713Y-76079116D02*
X50315713Y-77579116D01*
X49172857Y-76579116D02*
X49172857Y-77793402D01*
X49172857Y-77793402D02*
X49244285Y-77936259D01*
X49244285Y-77936259D02*
X49315714Y-78007688D01*
X49315714Y-78007688D02*
X49458571Y-78079116D01*
X49458571Y-78079116D02*
X49672857Y-78079116D01*
X49672857Y-78079116D02*
X49815714Y-78007688D01*
X49172857Y-77507688D02*
X49315714Y-77579116D01*
X49315714Y-77579116D02*
X49601428Y-77579116D01*
X49601428Y-77579116D02*
X49744285Y-77507688D01*
X49744285Y-77507688D02*
X49815714Y-77436259D01*
X49815714Y-77436259D02*
X49887142Y-77293402D01*
X49887142Y-77293402D02*
X49887142Y-76864830D01*
X49887142Y-76864830D02*
X49815714Y-76721973D01*
X49815714Y-76721973D02*
X49744285Y-76650545D01*
X49744285Y-76650545D02*
X49601428Y-76579116D01*
X49601428Y-76579116D02*
X49315714Y-76579116D01*
X49315714Y-76579116D02*
X49172857Y-76650545D01*
X48458571Y-77579116D02*
X48458571Y-76579116D01*
X48458571Y-76864830D02*
X48387142Y-76721973D01*
X48387142Y-76721973D02*
X48315714Y-76650545D01*
X48315714Y-76650545D02*
X48172856Y-76579116D01*
X48172856Y-76579116D02*
X48029999Y-76579116D01*
X47530000Y-77579116D02*
X47530000Y-76579116D01*
X47530000Y-76079116D02*
X47601428Y-76150545D01*
X47601428Y-76150545D02*
X47530000Y-76221973D01*
X47530000Y-76221973D02*
X47458571Y-76150545D01*
X47458571Y-76150545D02*
X47530000Y-76079116D01*
X47530000Y-76079116D02*
X47530000Y-76221973D01*
X45744285Y-77507688D02*
X45530000Y-77579116D01*
X45530000Y-77579116D02*
X45172857Y-77579116D01*
X45172857Y-77579116D02*
X45030000Y-77507688D01*
X45030000Y-77507688D02*
X44958571Y-77436259D01*
X44958571Y-77436259D02*
X44887142Y-77293402D01*
X44887142Y-77293402D02*
X44887142Y-77150545D01*
X44887142Y-77150545D02*
X44958571Y-77007688D01*
X44958571Y-77007688D02*
X45030000Y-76936259D01*
X45030000Y-76936259D02*
X45172857Y-76864830D01*
X45172857Y-76864830D02*
X45458571Y-76793402D01*
X45458571Y-76793402D02*
X45601428Y-76721973D01*
X45601428Y-76721973D02*
X45672857Y-76650545D01*
X45672857Y-76650545D02*
X45744285Y-76507688D01*
X45744285Y-76507688D02*
X45744285Y-76364830D01*
X45744285Y-76364830D02*
X45672857Y-76221973D01*
X45672857Y-76221973D02*
X45601428Y-76150545D01*
X45601428Y-76150545D02*
X45458571Y-76079116D01*
X45458571Y-76079116D02*
X45101428Y-76079116D01*
X45101428Y-76079116D02*
X44887142Y-76150545D01*
X43672857Y-77507688D02*
X43815714Y-77579116D01*
X43815714Y-77579116D02*
X44101429Y-77579116D01*
X44101429Y-77579116D02*
X44244286Y-77507688D01*
X44244286Y-77507688D02*
X44315714Y-77364830D01*
X44315714Y-77364830D02*
X44315714Y-76793402D01*
X44315714Y-76793402D02*
X44244286Y-76650545D01*
X44244286Y-76650545D02*
X44101429Y-76579116D01*
X44101429Y-76579116D02*
X43815714Y-76579116D01*
X43815714Y-76579116D02*
X43672857Y-76650545D01*
X43672857Y-76650545D02*
X43601429Y-76793402D01*
X43601429Y-76793402D02*
X43601429Y-76936259D01*
X43601429Y-76936259D02*
X44315714Y-77079116D01*
X42958572Y-76579116D02*
X42958572Y-77579116D01*
X42958572Y-76721973D02*
X42887143Y-76650545D01*
X42887143Y-76650545D02*
X42744286Y-76579116D01*
X42744286Y-76579116D02*
X42530000Y-76579116D01*
X42530000Y-76579116D02*
X42387143Y-76650545D01*
X42387143Y-76650545D02*
X42315715Y-76793402D01*
X42315715Y-76793402D02*
X42315715Y-77579116D01*
X41672857Y-77507688D02*
X41530000Y-77579116D01*
X41530000Y-77579116D02*
X41244286Y-77579116D01*
X41244286Y-77579116D02*
X41101429Y-77507688D01*
X41101429Y-77507688D02*
X41030000Y-77364830D01*
X41030000Y-77364830D02*
X41030000Y-77293402D01*
X41030000Y-77293402D02*
X41101429Y-77150545D01*
X41101429Y-77150545D02*
X41244286Y-77079116D01*
X41244286Y-77079116D02*
X41458572Y-77079116D01*
X41458572Y-77079116D02*
X41601429Y-77007688D01*
X41601429Y-77007688D02*
X41672857Y-76864830D01*
X41672857Y-76864830D02*
X41672857Y-76793402D01*
X41672857Y-76793402D02*
X41601429Y-76650545D01*
X41601429Y-76650545D02*
X41458572Y-76579116D01*
X41458572Y-76579116D02*
X41244286Y-76579116D01*
X41244286Y-76579116D02*
X41101429Y-76650545D01*
X40172857Y-77579116D02*
X40315714Y-77507688D01*
X40315714Y-77507688D02*
X40387143Y-77436259D01*
X40387143Y-77436259D02*
X40458571Y-77293402D01*
X40458571Y-77293402D02*
X40458571Y-76864830D01*
X40458571Y-76864830D02*
X40387143Y-76721973D01*
X40387143Y-76721973D02*
X40315714Y-76650545D01*
X40315714Y-76650545D02*
X40172857Y-76579116D01*
X40172857Y-76579116D02*
X39958571Y-76579116D01*
X39958571Y-76579116D02*
X39815714Y-76650545D01*
X39815714Y-76650545D02*
X39744286Y-76721973D01*
X39744286Y-76721973D02*
X39672857Y-76864830D01*
X39672857Y-76864830D02*
X39672857Y-77293402D01*
X39672857Y-77293402D02*
X39744286Y-77436259D01*
X39744286Y-77436259D02*
X39815714Y-77507688D01*
X39815714Y-77507688D02*
X39958571Y-77579116D01*
X39958571Y-77579116D02*
X40172857Y-77579116D01*
X39030000Y-77579116D02*
X39030000Y-76579116D01*
X39030000Y-76864830D02*
X38958571Y-76721973D01*
X38958571Y-76721973D02*
X38887143Y-76650545D01*
X38887143Y-76650545D02*
X38744285Y-76579116D01*
X38744285Y-76579116D02*
X38601428Y-76579116D01*
X38172857Y-77507688D02*
X38030000Y-77579116D01*
X38030000Y-77579116D02*
X37744286Y-77579116D01*
X37744286Y-77579116D02*
X37601429Y-77507688D01*
X37601429Y-77507688D02*
X37530000Y-77364830D01*
X37530000Y-77364830D02*
X37530000Y-77293402D01*
X37530000Y-77293402D02*
X37601429Y-77150545D01*
X37601429Y-77150545D02*
X37744286Y-77079116D01*
X37744286Y-77079116D02*
X37958572Y-77079116D01*
X37958572Y-77079116D02*
X38101429Y-77007688D01*
X38101429Y-77007688D02*
X38172857Y-76864830D01*
X38172857Y-76864830D02*
X38172857Y-76793402D01*
X38172857Y-76793402D02*
X38101429Y-76650545D01*
X38101429Y-76650545D02*
X37958572Y-76579116D01*
X37958572Y-76579116D02*
X37744286Y-76579116D01*
X37744286Y-76579116D02*
X37601429Y-76650545D01*
X50065714Y-79994032D02*
X50065714Y-79208318D01*
X50065714Y-79208318D02*
X50137142Y-79065461D01*
X50137142Y-79065461D02*
X50279999Y-78994032D01*
X50279999Y-78994032D02*
X50565714Y-78994032D01*
X50565714Y-78994032D02*
X50708571Y-79065461D01*
X50065714Y-79922604D02*
X50208571Y-79994032D01*
X50208571Y-79994032D02*
X50565714Y-79994032D01*
X50565714Y-79994032D02*
X50708571Y-79922604D01*
X50708571Y-79922604D02*
X50779999Y-79779746D01*
X50779999Y-79779746D02*
X50779999Y-79636889D01*
X50779999Y-79636889D02*
X50708571Y-79494032D01*
X50708571Y-79494032D02*
X50565714Y-79422604D01*
X50565714Y-79422604D02*
X50208571Y-79422604D01*
X50208571Y-79422604D02*
X50065714Y-79351175D01*
X49351428Y-78994032D02*
X49351428Y-79994032D01*
X49351428Y-79136889D02*
X49279999Y-79065461D01*
X49279999Y-79065461D02*
X49137142Y-78994032D01*
X49137142Y-78994032D02*
X48922856Y-78994032D01*
X48922856Y-78994032D02*
X48779999Y-79065461D01*
X48779999Y-79065461D02*
X48708571Y-79208318D01*
X48708571Y-79208318D02*
X48708571Y-79994032D01*
X47351428Y-79994032D02*
X47351428Y-78494032D01*
X47351428Y-79922604D02*
X47494285Y-79994032D01*
X47494285Y-79994032D02*
X47779999Y-79994032D01*
X47779999Y-79994032D02*
X47922856Y-79922604D01*
X47922856Y-79922604D02*
X47994285Y-79851175D01*
X47994285Y-79851175D02*
X48065713Y-79708318D01*
X48065713Y-79708318D02*
X48065713Y-79279746D01*
X48065713Y-79279746D02*
X47994285Y-79136889D01*
X47994285Y-79136889D02*
X47922856Y-79065461D01*
X47922856Y-79065461D02*
X47779999Y-78994032D01*
X47779999Y-78994032D02*
X47494285Y-78994032D01*
X47494285Y-78994032D02*
X47351428Y-79065461D01*
X44637142Y-79851175D02*
X44708570Y-79922604D01*
X44708570Y-79922604D02*
X44922856Y-79994032D01*
X44922856Y-79994032D02*
X45065713Y-79994032D01*
X45065713Y-79994032D02*
X45279999Y-79922604D01*
X45279999Y-79922604D02*
X45422856Y-79779746D01*
X45422856Y-79779746D02*
X45494285Y-79636889D01*
X45494285Y-79636889D02*
X45565713Y-79351175D01*
X45565713Y-79351175D02*
X45565713Y-79136889D01*
X45565713Y-79136889D02*
X45494285Y-78851175D01*
X45494285Y-78851175D02*
X45422856Y-78708318D01*
X45422856Y-78708318D02*
X45279999Y-78565461D01*
X45279999Y-78565461D02*
X45065713Y-78494032D01*
X45065713Y-78494032D02*
X44922856Y-78494032D01*
X44922856Y-78494032D02*
X44708570Y-78565461D01*
X44708570Y-78565461D02*
X44637142Y-78636889D01*
X43779999Y-79994032D02*
X43922856Y-79922604D01*
X43922856Y-79922604D02*
X43994285Y-79851175D01*
X43994285Y-79851175D02*
X44065713Y-79708318D01*
X44065713Y-79708318D02*
X44065713Y-79279746D01*
X44065713Y-79279746D02*
X43994285Y-79136889D01*
X43994285Y-79136889D02*
X43922856Y-79065461D01*
X43922856Y-79065461D02*
X43779999Y-78994032D01*
X43779999Y-78994032D02*
X43565713Y-78994032D01*
X43565713Y-78994032D02*
X43422856Y-79065461D01*
X43422856Y-79065461D02*
X43351428Y-79136889D01*
X43351428Y-79136889D02*
X43279999Y-79279746D01*
X43279999Y-79279746D02*
X43279999Y-79708318D01*
X43279999Y-79708318D02*
X43351428Y-79851175D01*
X43351428Y-79851175D02*
X43422856Y-79922604D01*
X43422856Y-79922604D02*
X43565713Y-79994032D01*
X43565713Y-79994032D02*
X43779999Y-79994032D01*
X42637142Y-78994032D02*
X42637142Y-79994032D01*
X42637142Y-79136889D02*
X42565713Y-79065461D01*
X42565713Y-79065461D02*
X42422856Y-78994032D01*
X42422856Y-78994032D02*
X42208570Y-78994032D01*
X42208570Y-78994032D02*
X42065713Y-79065461D01*
X42065713Y-79065461D02*
X41994285Y-79208318D01*
X41994285Y-79208318D02*
X41994285Y-79994032D01*
X41494284Y-78994032D02*
X40922856Y-78994032D01*
X41279999Y-78494032D02*
X41279999Y-79779746D01*
X41279999Y-79779746D02*
X41208570Y-79922604D01*
X41208570Y-79922604D02*
X41065713Y-79994032D01*
X41065713Y-79994032D02*
X40922856Y-79994032D01*
X40422856Y-79994032D02*
X40422856Y-78994032D01*
X40422856Y-79279746D02*
X40351427Y-79136889D01*
X40351427Y-79136889D02*
X40279999Y-79065461D01*
X40279999Y-79065461D02*
X40137141Y-78994032D01*
X40137141Y-78994032D02*
X39994284Y-78994032D01*
X39279999Y-79994032D02*
X39422856Y-79922604D01*
X39422856Y-79922604D02*
X39494285Y-79851175D01*
X39494285Y-79851175D02*
X39565713Y-79708318D01*
X39565713Y-79708318D02*
X39565713Y-79279746D01*
X39565713Y-79279746D02*
X39494285Y-79136889D01*
X39494285Y-79136889D02*
X39422856Y-79065461D01*
X39422856Y-79065461D02*
X39279999Y-78994032D01*
X39279999Y-78994032D02*
X39065713Y-78994032D01*
X39065713Y-78994032D02*
X38922856Y-79065461D01*
X38922856Y-79065461D02*
X38851428Y-79136889D01*
X38851428Y-79136889D02*
X38779999Y-79279746D01*
X38779999Y-79279746D02*
X38779999Y-79708318D01*
X38779999Y-79708318D02*
X38851428Y-79851175D01*
X38851428Y-79851175D02*
X38922856Y-79922604D01*
X38922856Y-79922604D02*
X39065713Y-79994032D01*
X39065713Y-79994032D02*
X39279999Y-79994032D01*
X37922856Y-79994032D02*
X38065713Y-79922604D01*
X38065713Y-79922604D02*
X38137142Y-79779746D01*
X38137142Y-79779746D02*
X38137142Y-78494032D01*
X37422856Y-79922604D02*
X37279999Y-79994032D01*
X37279999Y-79994032D02*
X36994285Y-79994032D01*
X36994285Y-79994032D02*
X36851428Y-79922604D01*
X36851428Y-79922604D02*
X36779999Y-79779746D01*
X36779999Y-79779746D02*
X36779999Y-79708318D01*
X36779999Y-79708318D02*
X36851428Y-79565461D01*
X36851428Y-79565461D02*
X36994285Y-79494032D01*
X36994285Y-79494032D02*
X37208571Y-79494032D01*
X37208571Y-79494032D02*
X37351428Y-79422604D01*
X37351428Y-79422604D02*
X37422856Y-79279746D01*
X37422856Y-79279746D02*
X37422856Y-79208318D01*
X37422856Y-79208318D02*
X37351428Y-79065461D01*
X37351428Y-79065461D02*
X37208571Y-78994032D01*
X37208571Y-78994032D02*
X36994285Y-78994032D01*
X36994285Y-78994032D02*
X36851428Y-79065461D01*
X48351427Y-81980377D02*
X47637142Y-81980377D01*
X48494284Y-82408948D02*
X47994284Y-80908948D01*
X47994284Y-80908948D02*
X47494284Y-82408948D01*
X46351428Y-81408948D02*
X46351428Y-82408948D01*
X46994285Y-81408948D02*
X46994285Y-82194662D01*
X46994285Y-82194662D02*
X46922856Y-82337520D01*
X46922856Y-82337520D02*
X46779999Y-82408948D01*
X46779999Y-82408948D02*
X46565713Y-82408948D01*
X46565713Y-82408948D02*
X46422856Y-82337520D01*
X46422856Y-82337520D02*
X46351428Y-82266091D01*
X44994285Y-81408948D02*
X44994285Y-82623234D01*
X44994285Y-82623234D02*
X45065713Y-82766091D01*
X45065713Y-82766091D02*
X45137142Y-82837520D01*
X45137142Y-82837520D02*
X45279999Y-82908948D01*
X45279999Y-82908948D02*
X45494285Y-82908948D01*
X45494285Y-82908948D02*
X45637142Y-82837520D01*
X44994285Y-82337520D02*
X45137142Y-82408948D01*
X45137142Y-82408948D02*
X45422856Y-82408948D01*
X45422856Y-82408948D02*
X45565713Y-82337520D01*
X45565713Y-82337520D02*
X45637142Y-82266091D01*
X45637142Y-82266091D02*
X45708570Y-82123234D01*
X45708570Y-82123234D02*
X45708570Y-81694662D01*
X45708570Y-81694662D02*
X45637142Y-81551805D01*
X45637142Y-81551805D02*
X45565713Y-81480377D01*
X45565713Y-81480377D02*
X45422856Y-81408948D01*
X45422856Y-81408948D02*
X45137142Y-81408948D01*
X45137142Y-81408948D02*
X44994285Y-81480377D01*
X44351427Y-81051805D02*
X44279999Y-80980377D01*
X44279999Y-80980377D02*
X44137142Y-80908948D01*
X44137142Y-80908948D02*
X43779999Y-80908948D01*
X43779999Y-80908948D02*
X43637142Y-80980377D01*
X43637142Y-80980377D02*
X43565713Y-81051805D01*
X43565713Y-81051805D02*
X43494284Y-81194662D01*
X43494284Y-81194662D02*
X43494284Y-81337520D01*
X43494284Y-81337520D02*
X43565713Y-81551805D01*
X43565713Y-81551805D02*
X44422856Y-82408948D01*
X44422856Y-82408948D02*
X43494284Y-82408948D01*
X42565713Y-80908948D02*
X42422856Y-80908948D01*
X42422856Y-80908948D02*
X42279999Y-80980377D01*
X42279999Y-80980377D02*
X42208571Y-81051805D01*
X42208571Y-81051805D02*
X42137142Y-81194662D01*
X42137142Y-81194662D02*
X42065713Y-81480377D01*
X42065713Y-81480377D02*
X42065713Y-81837520D01*
X42065713Y-81837520D02*
X42137142Y-82123234D01*
X42137142Y-82123234D02*
X42208571Y-82266091D01*
X42208571Y-82266091D02*
X42279999Y-82337520D01*
X42279999Y-82337520D02*
X42422856Y-82408948D01*
X42422856Y-82408948D02*
X42565713Y-82408948D01*
X42565713Y-82408948D02*
X42708571Y-82337520D01*
X42708571Y-82337520D02*
X42779999Y-82266091D01*
X42779999Y-82266091D02*
X42851428Y-82123234D01*
X42851428Y-82123234D02*
X42922856Y-81837520D01*
X42922856Y-81837520D02*
X42922856Y-81480377D01*
X42922856Y-81480377D02*
X42851428Y-81194662D01*
X42851428Y-81194662D02*
X42779999Y-81051805D01*
X42779999Y-81051805D02*
X42708571Y-80980377D01*
X42708571Y-80980377D02*
X42565713Y-80908948D01*
X41494285Y-81051805D02*
X41422857Y-80980377D01*
X41422857Y-80980377D02*
X41280000Y-80908948D01*
X41280000Y-80908948D02*
X40922857Y-80908948D01*
X40922857Y-80908948D02*
X40780000Y-80980377D01*
X40780000Y-80980377D02*
X40708571Y-81051805D01*
X40708571Y-81051805D02*
X40637142Y-81194662D01*
X40637142Y-81194662D02*
X40637142Y-81337520D01*
X40637142Y-81337520D02*
X40708571Y-81551805D01*
X40708571Y-81551805D02*
X41565714Y-82408948D01*
X41565714Y-82408948D02*
X40637142Y-82408948D01*
X39351429Y-80908948D02*
X39637143Y-80908948D01*
X39637143Y-80908948D02*
X39780000Y-80980377D01*
X39780000Y-80980377D02*
X39851429Y-81051805D01*
X39851429Y-81051805D02*
X39994286Y-81266091D01*
X39994286Y-81266091D02*
X40065714Y-81551805D01*
X40065714Y-81551805D02*
X40065714Y-82123234D01*
X40065714Y-82123234D02*
X39994286Y-82266091D01*
X39994286Y-82266091D02*
X39922857Y-82337520D01*
X39922857Y-82337520D02*
X39780000Y-82408948D01*
X39780000Y-82408948D02*
X39494286Y-82408948D01*
X39494286Y-82408948D02*
X39351429Y-82337520D01*
X39351429Y-82337520D02*
X39280000Y-82266091D01*
X39280000Y-82266091D02*
X39208571Y-82123234D01*
X39208571Y-82123234D02*
X39208571Y-81766091D01*
X39208571Y-81766091D02*
X39280000Y-81623234D01*
X39280000Y-81623234D02*
X39351429Y-81551805D01*
X39351429Y-81551805D02*
X39494286Y-81480377D01*
X39494286Y-81480377D02*
X39780000Y-81480377D01*
X39780000Y-81480377D02*
X39922857Y-81551805D01*
X39922857Y-81551805D02*
X39994286Y-81623234D01*
X39994286Y-81623234D02*
X40065714Y-81766091D01*
D14*
X83706666Y-90459819D02*
X84039999Y-89983628D01*
X84278094Y-90459819D02*
X84278094Y-89459819D01*
X84278094Y-89459819D02*
X83897142Y-89459819D01*
X83897142Y-89459819D02*
X83801904Y-89507438D01*
X83801904Y-89507438D02*
X83754285Y-89555057D01*
X83754285Y-89555057D02*
X83706666Y-89650295D01*
X83706666Y-89650295D02*
X83706666Y-89793152D01*
X83706666Y-89793152D02*
X83754285Y-89888390D01*
X83754285Y-89888390D02*
X83801904Y-89936009D01*
X83801904Y-89936009D02*
X83897142Y-89983628D01*
X83897142Y-89983628D02*
X84278094Y-89983628D01*
X83373332Y-89459819D02*
X82706666Y-89459819D01*
X82706666Y-89459819D02*
X83135237Y-90459819D01*
X84314285Y-92903152D02*
X84314285Y-93569819D01*
X84552380Y-92522200D02*
X84790475Y-93236485D01*
X84790475Y-93236485D02*
X84171428Y-93236485D01*
X83885713Y-92569819D02*
X83219047Y-92569819D01*
X83219047Y-92569819D02*
X83647618Y-93569819D01*
X82647618Y-92569819D02*
X82552380Y-92569819D01*
X82552380Y-92569819D02*
X82457142Y-92617438D01*
X82457142Y-92617438D02*
X82409523Y-92665057D01*
X82409523Y-92665057D02*
X82361904Y-92760295D01*
X82361904Y-92760295D02*
X82314285Y-92950771D01*
X82314285Y-92950771D02*
X82314285Y-93188866D01*
X82314285Y-93188866D02*
X82361904Y-93379342D01*
X82361904Y-93379342D02*
X82409523Y-93474580D01*
X82409523Y-93474580D02*
X82457142Y-93522200D01*
X82457142Y-93522200D02*
X82552380Y-93569819D01*
X82552380Y-93569819D02*
X82647618Y-93569819D01*
X82647618Y-93569819D02*
X82742856Y-93522200D01*
X82742856Y-93522200D02*
X82790475Y-93474580D01*
X82790475Y-93474580D02*
X82838094Y-93379342D01*
X82838094Y-93379342D02*
X82885713Y-93188866D01*
X82885713Y-93188866D02*
X82885713Y-92950771D01*
X82885713Y-92950771D02*
X82838094Y-92760295D01*
X82838094Y-92760295D02*
X82790475Y-92665057D01*
X82790475Y-92665057D02*
X82742856Y-92617438D01*
X82742856Y-92617438D02*
X82647618Y-92569819D01*
X81885713Y-93046009D02*
X81552380Y-93046009D01*
X81409523Y-93569819D02*
X81885713Y-93569819D01*
X81885713Y-93569819D02*
X81885713Y-92569819D01*
X81885713Y-92569819D02*
X81409523Y-92569819D01*
X83676666Y-81959819D02*
X84009999Y-81483628D01*
X84248094Y-81959819D02*
X84248094Y-80959819D01*
X84248094Y-80959819D02*
X83867142Y-80959819D01*
X83867142Y-80959819D02*
X83771904Y-81007438D01*
X83771904Y-81007438D02*
X83724285Y-81055057D01*
X83724285Y-81055057D02*
X83676666Y-81150295D01*
X83676666Y-81150295D02*
X83676666Y-81293152D01*
X83676666Y-81293152D02*
X83724285Y-81388390D01*
X83724285Y-81388390D02*
X83771904Y-81436009D01*
X83771904Y-81436009D02*
X83867142Y-81483628D01*
X83867142Y-81483628D02*
X84248094Y-81483628D01*
X82819523Y-80959819D02*
X83009999Y-80959819D01*
X83009999Y-80959819D02*
X83105237Y-81007438D01*
X83105237Y-81007438D02*
X83152856Y-81055057D01*
X83152856Y-81055057D02*
X83248094Y-81197914D01*
X83248094Y-81197914D02*
X83295713Y-81388390D01*
X83295713Y-81388390D02*
X83295713Y-81769342D01*
X83295713Y-81769342D02*
X83248094Y-81864580D01*
X83248094Y-81864580D02*
X83200475Y-81912200D01*
X83200475Y-81912200D02*
X83105237Y-81959819D01*
X83105237Y-81959819D02*
X82914761Y-81959819D01*
X82914761Y-81959819D02*
X82819523Y-81912200D01*
X82819523Y-81912200D02*
X82771904Y-81864580D01*
X82771904Y-81864580D02*
X82724285Y-81769342D01*
X82724285Y-81769342D02*
X82724285Y-81531247D01*
X82724285Y-81531247D02*
X82771904Y-81436009D01*
X82771904Y-81436009D02*
X82819523Y-81388390D01*
X82819523Y-81388390D02*
X82914761Y-81340771D01*
X82914761Y-81340771D02*
X83105237Y-81340771D01*
X83105237Y-81340771D02*
X83200475Y-81388390D01*
X83200475Y-81388390D02*
X83248094Y-81436009D01*
X83248094Y-81436009D02*
X83295713Y-81531247D01*
X84724285Y-84383152D02*
X84724285Y-85049819D01*
X84962380Y-84002200D02*
X85200475Y-84716485D01*
X85200475Y-84716485D02*
X84581428Y-84716485D01*
X84295713Y-84049819D02*
X83629047Y-84049819D01*
X83629047Y-84049819D02*
X84057618Y-85049819D01*
X83057618Y-84049819D02*
X82962380Y-84049819D01*
X82962380Y-84049819D02*
X82867142Y-84097438D01*
X82867142Y-84097438D02*
X82819523Y-84145057D01*
X82819523Y-84145057D02*
X82771904Y-84240295D01*
X82771904Y-84240295D02*
X82724285Y-84430771D01*
X82724285Y-84430771D02*
X82724285Y-84668866D01*
X82724285Y-84668866D02*
X82771904Y-84859342D01*
X82771904Y-84859342D02*
X82819523Y-84954580D01*
X82819523Y-84954580D02*
X82867142Y-85002200D01*
X82867142Y-85002200D02*
X82962380Y-85049819D01*
X82962380Y-85049819D02*
X83057618Y-85049819D01*
X83057618Y-85049819D02*
X83152856Y-85002200D01*
X83152856Y-85002200D02*
X83200475Y-84954580D01*
X83200475Y-84954580D02*
X83248094Y-84859342D01*
X83248094Y-84859342D02*
X83295713Y-84668866D01*
X83295713Y-84668866D02*
X83295713Y-84430771D01*
X83295713Y-84430771D02*
X83248094Y-84240295D01*
X83248094Y-84240295D02*
X83200475Y-84145057D01*
X83200475Y-84145057D02*
X83152856Y-84097438D01*
X83152856Y-84097438D02*
X83057618Y-84049819D01*
X82295713Y-84526009D02*
X81962380Y-84526009D01*
X81819523Y-85049819D02*
X82295713Y-85049819D01*
X82295713Y-85049819D02*
X82295713Y-84049819D01*
X82295713Y-84049819D02*
X81819523Y-84049819D01*
X34022857Y-70874580D02*
X34070476Y-70922200D01*
X34070476Y-70922200D02*
X34213333Y-70969819D01*
X34213333Y-70969819D02*
X34308571Y-70969819D01*
X34308571Y-70969819D02*
X34451428Y-70922200D01*
X34451428Y-70922200D02*
X34546666Y-70826961D01*
X34546666Y-70826961D02*
X34594285Y-70731723D01*
X34594285Y-70731723D02*
X34641904Y-70541247D01*
X34641904Y-70541247D02*
X34641904Y-70398390D01*
X34641904Y-70398390D02*
X34594285Y-70207914D01*
X34594285Y-70207914D02*
X34546666Y-70112676D01*
X34546666Y-70112676D02*
X34451428Y-70017438D01*
X34451428Y-70017438D02*
X34308571Y-69969819D01*
X34308571Y-69969819D02*
X34213333Y-69969819D01*
X34213333Y-69969819D02*
X34070476Y-70017438D01*
X34070476Y-70017438D02*
X34022857Y-70065057D01*
X33070476Y-70969819D02*
X33641904Y-70969819D01*
X33356190Y-70969819D02*
X33356190Y-69969819D01*
X33356190Y-69969819D02*
X33451428Y-70112676D01*
X33451428Y-70112676D02*
X33546666Y-70207914D01*
X33546666Y-70207914D02*
X33641904Y-70255533D01*
X32594285Y-70969819D02*
X32403809Y-70969819D01*
X32403809Y-70969819D02*
X32308571Y-70922200D01*
X32308571Y-70922200D02*
X32260952Y-70874580D01*
X32260952Y-70874580D02*
X32165714Y-70731723D01*
X32165714Y-70731723D02*
X32118095Y-70541247D01*
X32118095Y-70541247D02*
X32118095Y-70160295D01*
X32118095Y-70160295D02*
X32165714Y-70065057D01*
X32165714Y-70065057D02*
X32213333Y-70017438D01*
X32213333Y-70017438D02*
X32308571Y-69969819D01*
X32308571Y-69969819D02*
X32499047Y-69969819D01*
X32499047Y-69969819D02*
X32594285Y-70017438D01*
X32594285Y-70017438D02*
X32641904Y-70065057D01*
X32641904Y-70065057D02*
X32689523Y-70160295D01*
X32689523Y-70160295D02*
X32689523Y-70398390D01*
X32689523Y-70398390D02*
X32641904Y-70493628D01*
X32641904Y-70493628D02*
X32594285Y-70541247D01*
X32594285Y-70541247D02*
X32499047Y-70588866D01*
X32499047Y-70588866D02*
X32308571Y-70588866D01*
X32308571Y-70588866D02*
X32213333Y-70541247D01*
X32213333Y-70541247D02*
X32165714Y-70493628D01*
X32165714Y-70493628D02*
X32118095Y-70398390D01*
X41877619Y-71019819D02*
X42449047Y-71019819D01*
X42163333Y-71019819D02*
X42163333Y-70019819D01*
X42163333Y-70019819D02*
X42258571Y-70162676D01*
X42258571Y-70162676D02*
X42353809Y-70257914D01*
X42353809Y-70257914D02*
X42449047Y-70305533D01*
X41258571Y-70019819D02*
X41163333Y-70019819D01*
X41163333Y-70019819D02*
X41068095Y-70067438D01*
X41068095Y-70067438D02*
X41020476Y-70115057D01*
X41020476Y-70115057D02*
X40972857Y-70210295D01*
X40972857Y-70210295D02*
X40925238Y-70400771D01*
X40925238Y-70400771D02*
X40925238Y-70638866D01*
X40925238Y-70638866D02*
X40972857Y-70829342D01*
X40972857Y-70829342D02*
X41020476Y-70924580D01*
X41020476Y-70924580D02*
X41068095Y-70972200D01*
X41068095Y-70972200D02*
X41163333Y-71019819D01*
X41163333Y-71019819D02*
X41258571Y-71019819D01*
X41258571Y-71019819D02*
X41353809Y-70972200D01*
X41353809Y-70972200D02*
X41401428Y-70924580D01*
X41401428Y-70924580D02*
X41449047Y-70829342D01*
X41449047Y-70829342D02*
X41496666Y-70638866D01*
X41496666Y-70638866D02*
X41496666Y-70400771D01*
X41496666Y-70400771D02*
X41449047Y-70210295D01*
X41449047Y-70210295D02*
X41401428Y-70115057D01*
X41401428Y-70115057D02*
X41353809Y-70067438D01*
X41353809Y-70067438D02*
X41258571Y-70019819D01*
X40306190Y-70019819D02*
X40210952Y-70019819D01*
X40210952Y-70019819D02*
X40115714Y-70067438D01*
X40115714Y-70067438D02*
X40068095Y-70115057D01*
X40068095Y-70115057D02*
X40020476Y-70210295D01*
X40020476Y-70210295D02*
X39972857Y-70400771D01*
X39972857Y-70400771D02*
X39972857Y-70638866D01*
X39972857Y-70638866D02*
X40020476Y-70829342D01*
X40020476Y-70829342D02*
X40068095Y-70924580D01*
X40068095Y-70924580D02*
X40115714Y-70972200D01*
X40115714Y-70972200D02*
X40210952Y-71019819D01*
X40210952Y-71019819D02*
X40306190Y-71019819D01*
X40306190Y-71019819D02*
X40401428Y-70972200D01*
X40401428Y-70972200D02*
X40449047Y-70924580D01*
X40449047Y-70924580D02*
X40496666Y-70829342D01*
X40496666Y-70829342D02*
X40544285Y-70638866D01*
X40544285Y-70638866D02*
X40544285Y-70400771D01*
X40544285Y-70400771D02*
X40496666Y-70210295D01*
X40496666Y-70210295D02*
X40449047Y-70115057D01*
X40449047Y-70115057D02*
X40401428Y-70067438D01*
X40401428Y-70067438D02*
X40306190Y-70019819D01*
X39544285Y-70353152D02*
X39544285Y-71019819D01*
X39544285Y-70448390D02*
X39496666Y-70400771D01*
X39496666Y-70400771D02*
X39401428Y-70353152D01*
X39401428Y-70353152D02*
X39258571Y-70353152D01*
X39258571Y-70353152D02*
X39163333Y-70400771D01*
X39163333Y-70400771D02*
X39115714Y-70496009D01*
X39115714Y-70496009D02*
X39115714Y-71019819D01*
X38306190Y-70496009D02*
X38639523Y-70496009D01*
X38639523Y-71019819D02*
X38639523Y-70019819D01*
X38639523Y-70019819D02*
X38163333Y-70019819D01*
X45632857Y-93989819D02*
X45966190Y-93513628D01*
X46204285Y-93989819D02*
X46204285Y-92989819D01*
X46204285Y-92989819D02*
X45823333Y-92989819D01*
X45823333Y-92989819D02*
X45728095Y-93037438D01*
X45728095Y-93037438D02*
X45680476Y-93085057D01*
X45680476Y-93085057D02*
X45632857Y-93180295D01*
X45632857Y-93180295D02*
X45632857Y-93323152D01*
X45632857Y-93323152D02*
X45680476Y-93418390D01*
X45680476Y-93418390D02*
X45728095Y-93466009D01*
X45728095Y-93466009D02*
X45823333Y-93513628D01*
X45823333Y-93513628D02*
X46204285Y-93513628D01*
X45299523Y-92989819D02*
X44680476Y-92989819D01*
X44680476Y-92989819D02*
X45013809Y-93370771D01*
X45013809Y-93370771D02*
X44870952Y-93370771D01*
X44870952Y-93370771D02*
X44775714Y-93418390D01*
X44775714Y-93418390D02*
X44728095Y-93466009D01*
X44728095Y-93466009D02*
X44680476Y-93561247D01*
X44680476Y-93561247D02*
X44680476Y-93799342D01*
X44680476Y-93799342D02*
X44728095Y-93894580D01*
X44728095Y-93894580D02*
X44775714Y-93942200D01*
X44775714Y-93942200D02*
X44870952Y-93989819D01*
X44870952Y-93989819D02*
X45156666Y-93989819D01*
X45156666Y-93989819D02*
X45251904Y-93942200D01*
X45251904Y-93942200D02*
X45299523Y-93894580D01*
X44299523Y-93085057D02*
X44251904Y-93037438D01*
X44251904Y-93037438D02*
X44156666Y-92989819D01*
X44156666Y-92989819D02*
X43918571Y-92989819D01*
X43918571Y-92989819D02*
X43823333Y-93037438D01*
X43823333Y-93037438D02*
X43775714Y-93085057D01*
X43775714Y-93085057D02*
X43728095Y-93180295D01*
X43728095Y-93180295D02*
X43728095Y-93275533D01*
X43728095Y-93275533D02*
X43775714Y-93418390D01*
X43775714Y-93418390D02*
X44347142Y-93989819D01*
X44347142Y-93989819D02*
X43728095Y-93989819D01*
X45640476Y-98869819D02*
X46211904Y-98869819D01*
X45926190Y-98869819D02*
X45926190Y-97869819D01*
X45926190Y-97869819D02*
X46021428Y-98012676D01*
X46021428Y-98012676D02*
X46116666Y-98107914D01*
X46116666Y-98107914D02*
X46211904Y-98155533D01*
X45021428Y-97869819D02*
X44926190Y-97869819D01*
X44926190Y-97869819D02*
X44830952Y-97917438D01*
X44830952Y-97917438D02*
X44783333Y-97965057D01*
X44783333Y-97965057D02*
X44735714Y-98060295D01*
X44735714Y-98060295D02*
X44688095Y-98250771D01*
X44688095Y-98250771D02*
X44688095Y-98488866D01*
X44688095Y-98488866D02*
X44735714Y-98679342D01*
X44735714Y-98679342D02*
X44783333Y-98774580D01*
X44783333Y-98774580D02*
X44830952Y-98822200D01*
X44830952Y-98822200D02*
X44926190Y-98869819D01*
X44926190Y-98869819D02*
X45021428Y-98869819D01*
X45021428Y-98869819D02*
X45116666Y-98822200D01*
X45116666Y-98822200D02*
X45164285Y-98774580D01*
X45164285Y-98774580D02*
X45211904Y-98679342D01*
X45211904Y-98679342D02*
X45259523Y-98488866D01*
X45259523Y-98488866D02*
X45259523Y-98250771D01*
X45259523Y-98250771D02*
X45211904Y-98060295D01*
X45211904Y-98060295D02*
X45164285Y-97965057D01*
X45164285Y-97965057D02*
X45116666Y-97917438D01*
X45116666Y-97917438D02*
X45021428Y-97869819D01*
X44259523Y-98869819D02*
X44259523Y-97869819D01*
X43688095Y-98869819D02*
X44116666Y-98298390D01*
X43688095Y-97869819D02*
X44259523Y-98441247D01*
X31046666Y-104184580D02*
X31094285Y-104232200D01*
X31094285Y-104232200D02*
X31237142Y-104279819D01*
X31237142Y-104279819D02*
X31332380Y-104279819D01*
X31332380Y-104279819D02*
X31475237Y-104232200D01*
X31475237Y-104232200D02*
X31570475Y-104136961D01*
X31570475Y-104136961D02*
X31618094Y-104041723D01*
X31618094Y-104041723D02*
X31665713Y-103851247D01*
X31665713Y-103851247D02*
X31665713Y-103708390D01*
X31665713Y-103708390D02*
X31618094Y-103517914D01*
X31618094Y-103517914D02*
X31570475Y-103422676D01*
X31570475Y-103422676D02*
X31475237Y-103327438D01*
X31475237Y-103327438D02*
X31332380Y-103279819D01*
X31332380Y-103279819D02*
X31237142Y-103279819D01*
X31237142Y-103279819D02*
X31094285Y-103327438D01*
X31094285Y-103327438D02*
X31046666Y-103375057D01*
X30713332Y-103279819D02*
X30046666Y-103279819D01*
X30046666Y-103279819D02*
X30475237Y-104279819D01*
X31094819Y-110017380D02*
X31094819Y-109445952D01*
X31094819Y-109731666D02*
X30094819Y-109731666D01*
X30094819Y-109731666D02*
X30237676Y-109636428D01*
X30237676Y-109636428D02*
X30332914Y-109541190D01*
X30332914Y-109541190D02*
X30380533Y-109445952D01*
X30094819Y-110636428D02*
X30094819Y-110731666D01*
X30094819Y-110731666D02*
X30142438Y-110826904D01*
X30142438Y-110826904D02*
X30190057Y-110874523D01*
X30190057Y-110874523D02*
X30285295Y-110922142D01*
X30285295Y-110922142D02*
X30475771Y-110969761D01*
X30475771Y-110969761D02*
X30713866Y-110969761D01*
X30713866Y-110969761D02*
X30904342Y-110922142D01*
X30904342Y-110922142D02*
X30999580Y-110874523D01*
X30999580Y-110874523D02*
X31047200Y-110826904D01*
X31047200Y-110826904D02*
X31094819Y-110731666D01*
X31094819Y-110731666D02*
X31094819Y-110636428D01*
X31094819Y-110636428D02*
X31047200Y-110541190D01*
X31047200Y-110541190D02*
X30999580Y-110493571D01*
X30999580Y-110493571D02*
X30904342Y-110445952D01*
X30904342Y-110445952D02*
X30713866Y-110398333D01*
X30713866Y-110398333D02*
X30475771Y-110398333D01*
X30475771Y-110398333D02*
X30285295Y-110445952D01*
X30285295Y-110445952D02*
X30190057Y-110493571D01*
X30190057Y-110493571D02*
X30142438Y-110541190D01*
X30142438Y-110541190D02*
X30094819Y-110636428D01*
X30094819Y-111588809D02*
X30094819Y-111684047D01*
X30094819Y-111684047D02*
X30142438Y-111779285D01*
X30142438Y-111779285D02*
X30190057Y-111826904D01*
X30190057Y-111826904D02*
X30285295Y-111874523D01*
X30285295Y-111874523D02*
X30475771Y-111922142D01*
X30475771Y-111922142D02*
X30713866Y-111922142D01*
X30713866Y-111922142D02*
X30904342Y-111874523D01*
X30904342Y-111874523D02*
X30999580Y-111826904D01*
X30999580Y-111826904D02*
X31047200Y-111779285D01*
X31047200Y-111779285D02*
X31094819Y-111684047D01*
X31094819Y-111684047D02*
X31094819Y-111588809D01*
X31094819Y-111588809D02*
X31047200Y-111493571D01*
X31047200Y-111493571D02*
X30999580Y-111445952D01*
X30999580Y-111445952D02*
X30904342Y-111398333D01*
X30904342Y-111398333D02*
X30713866Y-111350714D01*
X30713866Y-111350714D02*
X30475771Y-111350714D01*
X30475771Y-111350714D02*
X30285295Y-111398333D01*
X30285295Y-111398333D02*
X30190057Y-111445952D01*
X30190057Y-111445952D02*
X30142438Y-111493571D01*
X30142438Y-111493571D02*
X30094819Y-111588809D01*
X30428152Y-112350714D02*
X31094819Y-112350714D01*
X30523390Y-112350714D02*
X30475771Y-112398333D01*
X30475771Y-112398333D02*
X30428152Y-112493571D01*
X30428152Y-112493571D02*
X30428152Y-112636428D01*
X30428152Y-112636428D02*
X30475771Y-112731666D01*
X30475771Y-112731666D02*
X30571009Y-112779285D01*
X30571009Y-112779285D02*
X31094819Y-112779285D01*
X30571009Y-113588809D02*
X30571009Y-113255476D01*
X31094819Y-113255476D02*
X30094819Y-113255476D01*
X30094819Y-113255476D02*
X30094819Y-113731666D01*
X33842857Y-67799819D02*
X34176190Y-67323628D01*
X34414285Y-67799819D02*
X34414285Y-66799819D01*
X34414285Y-66799819D02*
X34033333Y-66799819D01*
X34033333Y-66799819D02*
X33938095Y-66847438D01*
X33938095Y-66847438D02*
X33890476Y-66895057D01*
X33890476Y-66895057D02*
X33842857Y-66990295D01*
X33842857Y-66990295D02*
X33842857Y-67133152D01*
X33842857Y-67133152D02*
X33890476Y-67228390D01*
X33890476Y-67228390D02*
X33938095Y-67276009D01*
X33938095Y-67276009D02*
X34033333Y-67323628D01*
X34033333Y-67323628D02*
X34414285Y-67323628D01*
X33509523Y-66799819D02*
X32890476Y-66799819D01*
X32890476Y-66799819D02*
X33223809Y-67180771D01*
X33223809Y-67180771D02*
X33080952Y-67180771D01*
X33080952Y-67180771D02*
X32985714Y-67228390D01*
X32985714Y-67228390D02*
X32938095Y-67276009D01*
X32938095Y-67276009D02*
X32890476Y-67371247D01*
X32890476Y-67371247D02*
X32890476Y-67609342D01*
X32890476Y-67609342D02*
X32938095Y-67704580D01*
X32938095Y-67704580D02*
X32985714Y-67752200D01*
X32985714Y-67752200D02*
X33080952Y-67799819D01*
X33080952Y-67799819D02*
X33366666Y-67799819D01*
X33366666Y-67799819D02*
X33461904Y-67752200D01*
X33461904Y-67752200D02*
X33509523Y-67704580D01*
X32557142Y-66799819D02*
X31938095Y-66799819D01*
X31938095Y-66799819D02*
X32271428Y-67180771D01*
X32271428Y-67180771D02*
X32128571Y-67180771D01*
X32128571Y-67180771D02*
X32033333Y-67228390D01*
X32033333Y-67228390D02*
X31985714Y-67276009D01*
X31985714Y-67276009D02*
X31938095Y-67371247D01*
X31938095Y-67371247D02*
X31938095Y-67609342D01*
X31938095Y-67609342D02*
X31985714Y-67704580D01*
X31985714Y-67704580D02*
X32033333Y-67752200D01*
X32033333Y-67752200D02*
X32128571Y-67799819D01*
X32128571Y-67799819D02*
X32414285Y-67799819D01*
X32414285Y-67799819D02*
X32509523Y-67752200D01*
X32509523Y-67752200D02*
X32557142Y-67704580D01*
X41454285Y-67183152D02*
X41454285Y-67849819D01*
X41692380Y-66802200D02*
X41930475Y-67516485D01*
X41930475Y-67516485D02*
X41311428Y-67516485D01*
X41025713Y-66849819D02*
X40359047Y-66849819D01*
X40359047Y-66849819D02*
X40787618Y-67849819D01*
X39787618Y-66849819D02*
X39692380Y-66849819D01*
X39692380Y-66849819D02*
X39597142Y-66897438D01*
X39597142Y-66897438D02*
X39549523Y-66945057D01*
X39549523Y-66945057D02*
X39501904Y-67040295D01*
X39501904Y-67040295D02*
X39454285Y-67230771D01*
X39454285Y-67230771D02*
X39454285Y-67468866D01*
X39454285Y-67468866D02*
X39501904Y-67659342D01*
X39501904Y-67659342D02*
X39549523Y-67754580D01*
X39549523Y-67754580D02*
X39597142Y-67802200D01*
X39597142Y-67802200D02*
X39692380Y-67849819D01*
X39692380Y-67849819D02*
X39787618Y-67849819D01*
X39787618Y-67849819D02*
X39882856Y-67802200D01*
X39882856Y-67802200D02*
X39930475Y-67754580D01*
X39930475Y-67754580D02*
X39978094Y-67659342D01*
X39978094Y-67659342D02*
X40025713Y-67468866D01*
X40025713Y-67468866D02*
X40025713Y-67230771D01*
X40025713Y-67230771D02*
X39978094Y-67040295D01*
X39978094Y-67040295D02*
X39930475Y-66945057D01*
X39930475Y-66945057D02*
X39882856Y-66897438D01*
X39882856Y-66897438D02*
X39787618Y-66849819D01*
X39025713Y-67326009D02*
X38692380Y-67326009D01*
X38549523Y-67849819D02*
X39025713Y-67849819D01*
X39025713Y-67849819D02*
X39025713Y-66849819D01*
X39025713Y-66849819D02*
X38549523Y-66849819D01*
X41062857Y-93919819D02*
X41396190Y-93443628D01*
X41634285Y-93919819D02*
X41634285Y-92919819D01*
X41634285Y-92919819D02*
X41253333Y-92919819D01*
X41253333Y-92919819D02*
X41158095Y-92967438D01*
X41158095Y-92967438D02*
X41110476Y-93015057D01*
X41110476Y-93015057D02*
X41062857Y-93110295D01*
X41062857Y-93110295D02*
X41062857Y-93253152D01*
X41062857Y-93253152D02*
X41110476Y-93348390D01*
X41110476Y-93348390D02*
X41158095Y-93396009D01*
X41158095Y-93396009D02*
X41253333Y-93443628D01*
X41253333Y-93443628D02*
X41634285Y-93443628D01*
X40110476Y-93919819D02*
X40681904Y-93919819D01*
X40396190Y-93919819D02*
X40396190Y-92919819D01*
X40396190Y-92919819D02*
X40491428Y-93062676D01*
X40491428Y-93062676D02*
X40586666Y-93157914D01*
X40586666Y-93157914D02*
X40681904Y-93205533D01*
X39539047Y-93348390D02*
X39634285Y-93300771D01*
X39634285Y-93300771D02*
X39681904Y-93253152D01*
X39681904Y-93253152D02*
X39729523Y-93157914D01*
X39729523Y-93157914D02*
X39729523Y-93110295D01*
X39729523Y-93110295D02*
X39681904Y-93015057D01*
X39681904Y-93015057D02*
X39634285Y-92967438D01*
X39634285Y-92967438D02*
X39539047Y-92919819D01*
X39539047Y-92919819D02*
X39348571Y-92919819D01*
X39348571Y-92919819D02*
X39253333Y-92967438D01*
X39253333Y-92967438D02*
X39205714Y-93015057D01*
X39205714Y-93015057D02*
X39158095Y-93110295D01*
X39158095Y-93110295D02*
X39158095Y-93157914D01*
X39158095Y-93157914D02*
X39205714Y-93253152D01*
X39205714Y-93253152D02*
X39253333Y-93300771D01*
X39253333Y-93300771D02*
X39348571Y-93348390D01*
X39348571Y-93348390D02*
X39539047Y-93348390D01*
X39539047Y-93348390D02*
X39634285Y-93396009D01*
X39634285Y-93396009D02*
X39681904Y-93443628D01*
X39681904Y-93443628D02*
X39729523Y-93538866D01*
X39729523Y-93538866D02*
X39729523Y-93729342D01*
X39729523Y-93729342D02*
X39681904Y-93824580D01*
X39681904Y-93824580D02*
X39634285Y-93872200D01*
X39634285Y-93872200D02*
X39539047Y-93919819D01*
X39539047Y-93919819D02*
X39348571Y-93919819D01*
X39348571Y-93919819D02*
X39253333Y-93872200D01*
X39253333Y-93872200D02*
X39205714Y-93824580D01*
X39205714Y-93824580D02*
X39158095Y-93729342D01*
X39158095Y-93729342D02*
X39158095Y-93538866D01*
X39158095Y-93538866D02*
X39205714Y-93443628D01*
X39205714Y-93443628D02*
X39253333Y-93396009D01*
X39253333Y-93396009D02*
X39348571Y-93348390D01*
X41282380Y-97759819D02*
X41758570Y-97759819D01*
X41758570Y-97759819D02*
X41806189Y-98236009D01*
X41806189Y-98236009D02*
X41758570Y-98188390D01*
X41758570Y-98188390D02*
X41663332Y-98140771D01*
X41663332Y-98140771D02*
X41425237Y-98140771D01*
X41425237Y-98140771D02*
X41329999Y-98188390D01*
X41329999Y-98188390D02*
X41282380Y-98236009D01*
X41282380Y-98236009D02*
X41234761Y-98331247D01*
X41234761Y-98331247D02*
X41234761Y-98569342D01*
X41234761Y-98569342D02*
X41282380Y-98664580D01*
X41282380Y-98664580D02*
X41329999Y-98712200D01*
X41329999Y-98712200D02*
X41425237Y-98759819D01*
X41425237Y-98759819D02*
X41663332Y-98759819D01*
X41663332Y-98759819D02*
X41758570Y-98712200D01*
X41758570Y-98712200D02*
X41806189Y-98664580D01*
X40377618Y-97759819D02*
X40568094Y-97759819D01*
X40568094Y-97759819D02*
X40663332Y-97807438D01*
X40663332Y-97807438D02*
X40710951Y-97855057D01*
X40710951Y-97855057D02*
X40806189Y-97997914D01*
X40806189Y-97997914D02*
X40853808Y-98188390D01*
X40853808Y-98188390D02*
X40853808Y-98569342D01*
X40853808Y-98569342D02*
X40806189Y-98664580D01*
X40806189Y-98664580D02*
X40758570Y-98712200D01*
X40758570Y-98712200D02*
X40663332Y-98759819D01*
X40663332Y-98759819D02*
X40472856Y-98759819D01*
X40472856Y-98759819D02*
X40377618Y-98712200D01*
X40377618Y-98712200D02*
X40329999Y-98664580D01*
X40329999Y-98664580D02*
X40282380Y-98569342D01*
X40282380Y-98569342D02*
X40282380Y-98331247D01*
X40282380Y-98331247D02*
X40329999Y-98236009D01*
X40329999Y-98236009D02*
X40377618Y-98188390D01*
X40377618Y-98188390D02*
X40472856Y-98140771D01*
X40472856Y-98140771D02*
X40663332Y-98140771D01*
X40663332Y-98140771D02*
X40758570Y-98188390D01*
X40758570Y-98188390D02*
X40806189Y-98236009D01*
X40806189Y-98236009D02*
X40853808Y-98331247D01*
X39853808Y-98664580D02*
X39806189Y-98712200D01*
X39806189Y-98712200D02*
X39853808Y-98759819D01*
X39853808Y-98759819D02*
X39901427Y-98712200D01*
X39901427Y-98712200D02*
X39853808Y-98664580D01*
X39853808Y-98664580D02*
X39853808Y-98759819D01*
X39425237Y-97855057D02*
X39377618Y-97807438D01*
X39377618Y-97807438D02*
X39282380Y-97759819D01*
X39282380Y-97759819D02*
X39044285Y-97759819D01*
X39044285Y-97759819D02*
X38949047Y-97807438D01*
X38949047Y-97807438D02*
X38901428Y-97855057D01*
X38901428Y-97855057D02*
X38853809Y-97950295D01*
X38853809Y-97950295D02*
X38853809Y-98045533D01*
X38853809Y-98045533D02*
X38901428Y-98188390D01*
X38901428Y-98188390D02*
X39472856Y-98759819D01*
X39472856Y-98759819D02*
X38853809Y-98759819D01*
X38425237Y-98759819D02*
X38425237Y-97759819D01*
X37853809Y-98759819D02*
X38282380Y-98188390D01*
X37853809Y-97759819D02*
X38425237Y-98331247D01*
X48714819Y-91900714D02*
X47714819Y-91900714D01*
X47714819Y-91900714D02*
X47714819Y-92138809D01*
X47714819Y-92138809D02*
X47762438Y-92281666D01*
X47762438Y-92281666D02*
X47857676Y-92376904D01*
X47857676Y-92376904D02*
X47952914Y-92424523D01*
X47952914Y-92424523D02*
X48143390Y-92472142D01*
X48143390Y-92472142D02*
X48286247Y-92472142D01*
X48286247Y-92472142D02*
X48476723Y-92424523D01*
X48476723Y-92424523D02*
X48571961Y-92376904D01*
X48571961Y-92376904D02*
X48667200Y-92281666D01*
X48667200Y-92281666D02*
X48714819Y-92138809D01*
X48714819Y-92138809D02*
X48714819Y-91900714D01*
X48714819Y-93424523D02*
X48714819Y-92853095D01*
X48714819Y-93138809D02*
X47714819Y-93138809D01*
X47714819Y-93138809D02*
X47857676Y-93043571D01*
X47857676Y-93043571D02*
X47952914Y-92948333D01*
X47952914Y-92948333D02*
X48000533Y-92853095D01*
X47714819Y-94281666D02*
X47714819Y-94091190D01*
X47714819Y-94091190D02*
X47762438Y-93995952D01*
X47762438Y-93995952D02*
X47810057Y-93948333D01*
X47810057Y-93948333D02*
X47952914Y-93853095D01*
X47952914Y-93853095D02*
X48143390Y-93805476D01*
X48143390Y-93805476D02*
X48524342Y-93805476D01*
X48524342Y-93805476D02*
X48619580Y-93853095D01*
X48619580Y-93853095D02*
X48667200Y-93900714D01*
X48667200Y-93900714D02*
X48714819Y-93995952D01*
X48714819Y-93995952D02*
X48714819Y-94186428D01*
X48714819Y-94186428D02*
X48667200Y-94281666D01*
X48667200Y-94281666D02*
X48619580Y-94329285D01*
X48619580Y-94329285D02*
X48524342Y-94376904D01*
X48524342Y-94376904D02*
X48286247Y-94376904D01*
X48286247Y-94376904D02*
X48191009Y-94329285D01*
X48191009Y-94329285D02*
X48143390Y-94281666D01*
X48143390Y-94281666D02*
X48095771Y-94186428D01*
X48095771Y-94186428D02*
X48095771Y-93995952D01*
X48095771Y-93995952D02*
X48143390Y-93900714D01*
X48143390Y-93900714D02*
X48191009Y-93853095D01*
X48191009Y-93853095D02*
X48286247Y-93805476D01*
X50116033Y-92307499D02*
X49416033Y-92307499D01*
X49416033Y-92307499D02*
X49416033Y-92574166D01*
X49416033Y-92574166D02*
X49449366Y-92640833D01*
X49449366Y-92640833D02*
X49482700Y-92674166D01*
X49482700Y-92674166D02*
X49549366Y-92707499D01*
X49549366Y-92707499D02*
X49649366Y-92707499D01*
X49649366Y-92707499D02*
X49716033Y-92674166D01*
X49716033Y-92674166D02*
X49749366Y-92640833D01*
X49749366Y-92640833D02*
X49782700Y-92574166D01*
X49782700Y-92574166D02*
X49782700Y-92307499D01*
X49749366Y-93007499D02*
X49749366Y-93240833D01*
X50116033Y-93340833D02*
X50116033Y-93007499D01*
X50116033Y-93007499D02*
X49416033Y-93007499D01*
X49416033Y-93007499D02*
X49416033Y-93340833D01*
X50082700Y-93607499D02*
X50116033Y-93707499D01*
X50116033Y-93707499D02*
X50116033Y-93874166D01*
X50116033Y-93874166D02*
X50082700Y-93940832D01*
X50082700Y-93940832D02*
X50049366Y-93974166D01*
X50049366Y-93974166D02*
X49982700Y-94007499D01*
X49982700Y-94007499D02*
X49916033Y-94007499D01*
X49916033Y-94007499D02*
X49849366Y-93974166D01*
X49849366Y-93974166D02*
X49816033Y-93940832D01*
X49816033Y-93940832D02*
X49782700Y-93874166D01*
X49782700Y-93874166D02*
X49749366Y-93740832D01*
X49749366Y-93740832D02*
X49716033Y-93674166D01*
X49716033Y-93674166D02*
X49682700Y-93640832D01*
X49682700Y-93640832D02*
X49616033Y-93607499D01*
X49616033Y-93607499D02*
X49549366Y-93607499D01*
X49549366Y-93607499D02*
X49482700Y-93640832D01*
X49482700Y-93640832D02*
X49449366Y-93674166D01*
X49449366Y-93674166D02*
X49416033Y-93740832D01*
X49416033Y-93740832D02*
X49416033Y-93907499D01*
X49416033Y-93907499D02*
X49449366Y-94007499D01*
X50116033Y-94307499D02*
X49416033Y-94307499D01*
X49416033Y-94307499D02*
X49416033Y-94474166D01*
X49416033Y-94474166D02*
X49449366Y-94574166D01*
X49449366Y-94574166D02*
X49516033Y-94640833D01*
X49516033Y-94640833D02*
X49582700Y-94674166D01*
X49582700Y-94674166D02*
X49716033Y-94707499D01*
X49716033Y-94707499D02*
X49816033Y-94707499D01*
X49816033Y-94707499D02*
X49949366Y-94674166D01*
X49949366Y-94674166D02*
X50016033Y-94640833D01*
X50016033Y-94640833D02*
X50082700Y-94574166D01*
X50082700Y-94574166D02*
X50116033Y-94474166D01*
X50116033Y-94474166D02*
X50116033Y-94307499D01*
X49416033Y-94940833D02*
X49416033Y-95374166D01*
X49416033Y-95374166D02*
X49682700Y-95140833D01*
X49682700Y-95140833D02*
X49682700Y-95240833D01*
X49682700Y-95240833D02*
X49716033Y-95307499D01*
X49716033Y-95307499D02*
X49749366Y-95340833D01*
X49749366Y-95340833D02*
X49816033Y-95374166D01*
X49816033Y-95374166D02*
X49982700Y-95374166D01*
X49982700Y-95374166D02*
X50049366Y-95340833D01*
X50049366Y-95340833D02*
X50082700Y-95307499D01*
X50082700Y-95307499D02*
X50116033Y-95240833D01*
X50116033Y-95240833D02*
X50116033Y-95040833D01*
X50116033Y-95040833D02*
X50082700Y-94974166D01*
X50082700Y-94974166D02*
X50049366Y-94940833D01*
X49416033Y-95574166D02*
X50116033Y-95807500D01*
X50116033Y-95807500D02*
X49416033Y-96040833D01*
X49416033Y-96207500D02*
X49416033Y-96640833D01*
X49416033Y-96640833D02*
X49682700Y-96407500D01*
X49682700Y-96407500D02*
X49682700Y-96507500D01*
X49682700Y-96507500D02*
X49716033Y-96574166D01*
X49716033Y-96574166D02*
X49749366Y-96607500D01*
X49749366Y-96607500D02*
X49816033Y-96640833D01*
X49816033Y-96640833D02*
X49982700Y-96640833D01*
X49982700Y-96640833D02*
X50049366Y-96607500D01*
X50049366Y-96607500D02*
X50082700Y-96574166D01*
X50082700Y-96574166D02*
X50116033Y-96507500D01*
X50116033Y-96507500D02*
X50116033Y-96307500D01*
X50116033Y-96307500D02*
X50082700Y-96240833D01*
X50082700Y-96240833D02*
X50049366Y-96207500D01*
X49416033Y-96940833D02*
X49982700Y-96940833D01*
X49982700Y-96940833D02*
X50049366Y-96974167D01*
X50049366Y-96974167D02*
X50082700Y-97007500D01*
X50082700Y-97007500D02*
X50116033Y-97074167D01*
X50116033Y-97074167D02*
X50116033Y-97207500D01*
X50116033Y-97207500D02*
X50082700Y-97274167D01*
X50082700Y-97274167D02*
X50049366Y-97307500D01*
X50049366Y-97307500D02*
X49982700Y-97340833D01*
X49982700Y-97340833D02*
X49416033Y-97340833D01*
X50116033Y-98040833D02*
X50116033Y-97640833D01*
X50116033Y-97840833D02*
X49416033Y-97840833D01*
X49416033Y-97840833D02*
X49516033Y-97774166D01*
X49516033Y-97774166D02*
X49582700Y-97707500D01*
X49582700Y-97707500D02*
X49616033Y-97640833D01*
X49416033Y-98340833D02*
X49982700Y-98340833D01*
X49982700Y-98340833D02*
X50049366Y-98374167D01*
X50049366Y-98374167D02*
X50082700Y-98407500D01*
X50082700Y-98407500D02*
X50116033Y-98474167D01*
X50116033Y-98474167D02*
X50116033Y-98607500D01*
X50116033Y-98607500D02*
X50082700Y-98674167D01*
X50082700Y-98674167D02*
X50049366Y-98707500D01*
X50049366Y-98707500D02*
X49982700Y-98740833D01*
X49982700Y-98740833D02*
X49416033Y-98740833D01*
X50116033Y-99407500D02*
X50116033Y-99074166D01*
X50116033Y-99074166D02*
X49416033Y-99074166D01*
X59869819Y-107368095D02*
X60679342Y-107368095D01*
X60679342Y-107368095D02*
X60774580Y-107415714D01*
X60774580Y-107415714D02*
X60822200Y-107463333D01*
X60822200Y-107463333D02*
X60869819Y-107558571D01*
X60869819Y-107558571D02*
X60869819Y-107749047D01*
X60869819Y-107749047D02*
X60822200Y-107844285D01*
X60822200Y-107844285D02*
X60774580Y-107891904D01*
X60774580Y-107891904D02*
X60679342Y-107939523D01*
X60679342Y-107939523D02*
X59869819Y-107939523D01*
X60869819Y-108463333D02*
X60869819Y-108653809D01*
X60869819Y-108653809D02*
X60822200Y-108749047D01*
X60822200Y-108749047D02*
X60774580Y-108796666D01*
X60774580Y-108796666D02*
X60631723Y-108891904D01*
X60631723Y-108891904D02*
X60441247Y-108939523D01*
X60441247Y-108939523D02*
X60060295Y-108939523D01*
X60060295Y-108939523D02*
X59965057Y-108891904D01*
X59965057Y-108891904D02*
X59917438Y-108844285D01*
X59917438Y-108844285D02*
X59869819Y-108749047D01*
X59869819Y-108749047D02*
X59869819Y-108558571D01*
X59869819Y-108558571D02*
X59917438Y-108463333D01*
X59917438Y-108463333D02*
X59965057Y-108415714D01*
X59965057Y-108415714D02*
X60060295Y-108368095D01*
X60060295Y-108368095D02*
X60298390Y-108368095D01*
X60298390Y-108368095D02*
X60393628Y-108415714D01*
X60393628Y-108415714D02*
X60441247Y-108463333D01*
X60441247Y-108463333D02*
X60488866Y-108558571D01*
X60488866Y-108558571D02*
X60488866Y-108749047D01*
X60488866Y-108749047D02*
X60441247Y-108844285D01*
X60441247Y-108844285D02*
X60393628Y-108891904D01*
X60393628Y-108891904D02*
X60298390Y-108939523D01*
X66866667Y-113311033D02*
X66866667Y-112611033D01*
X66866667Y-112611033D02*
X66700000Y-112611033D01*
X66700000Y-112611033D02*
X66600000Y-112644366D01*
X66600000Y-112644366D02*
X66533334Y-112711033D01*
X66533334Y-112711033D02*
X66500000Y-112777700D01*
X66500000Y-112777700D02*
X66466667Y-112911033D01*
X66466667Y-112911033D02*
X66466667Y-113011033D01*
X66466667Y-113011033D02*
X66500000Y-113144366D01*
X66500000Y-113144366D02*
X66533334Y-113211033D01*
X66533334Y-113211033D02*
X66600000Y-113277700D01*
X66600000Y-113277700D02*
X66700000Y-113311033D01*
X66700000Y-113311033D02*
X66866667Y-113311033D01*
X65766667Y-113311033D02*
X66000000Y-112977700D01*
X66166667Y-113311033D02*
X66166667Y-112611033D01*
X66166667Y-112611033D02*
X65900000Y-112611033D01*
X65900000Y-112611033D02*
X65833334Y-112644366D01*
X65833334Y-112644366D02*
X65800000Y-112677700D01*
X65800000Y-112677700D02*
X65766667Y-112744366D01*
X65766667Y-112744366D02*
X65766667Y-112844366D01*
X65766667Y-112844366D02*
X65800000Y-112911033D01*
X65800000Y-112911033D02*
X65833334Y-112944366D01*
X65833334Y-112944366D02*
X65900000Y-112977700D01*
X65900000Y-112977700D02*
X66166667Y-112977700D01*
X65566667Y-112611033D02*
X65333334Y-113311033D01*
X65333334Y-113311033D02*
X65100000Y-112611033D01*
X64766667Y-112911033D02*
X64833334Y-112877700D01*
X64833334Y-112877700D02*
X64866667Y-112844366D01*
X64866667Y-112844366D02*
X64900000Y-112777700D01*
X64900000Y-112777700D02*
X64900000Y-112744366D01*
X64900000Y-112744366D02*
X64866667Y-112677700D01*
X64866667Y-112677700D02*
X64833334Y-112644366D01*
X64833334Y-112644366D02*
X64766667Y-112611033D01*
X64766667Y-112611033D02*
X64633334Y-112611033D01*
X64633334Y-112611033D02*
X64566667Y-112644366D01*
X64566667Y-112644366D02*
X64533334Y-112677700D01*
X64533334Y-112677700D02*
X64500000Y-112744366D01*
X64500000Y-112744366D02*
X64500000Y-112777700D01*
X64500000Y-112777700D02*
X64533334Y-112844366D01*
X64533334Y-112844366D02*
X64566667Y-112877700D01*
X64566667Y-112877700D02*
X64633334Y-112911033D01*
X64633334Y-112911033D02*
X64766667Y-112911033D01*
X64766667Y-112911033D02*
X64833334Y-112944366D01*
X64833334Y-112944366D02*
X64866667Y-112977700D01*
X64866667Y-112977700D02*
X64900000Y-113044366D01*
X64900000Y-113044366D02*
X64900000Y-113177700D01*
X64900000Y-113177700D02*
X64866667Y-113244366D01*
X64866667Y-113244366D02*
X64833334Y-113277700D01*
X64833334Y-113277700D02*
X64766667Y-113311033D01*
X64766667Y-113311033D02*
X64633334Y-113311033D01*
X64633334Y-113311033D02*
X64566667Y-113277700D01*
X64566667Y-113277700D02*
X64533334Y-113244366D01*
X64533334Y-113244366D02*
X64500000Y-113177700D01*
X64500000Y-113177700D02*
X64500000Y-113044366D01*
X64500000Y-113044366D02*
X64533334Y-112977700D01*
X64533334Y-112977700D02*
X64566667Y-112944366D01*
X64566667Y-112944366D02*
X64633334Y-112911033D01*
X64100000Y-112911033D02*
X64166667Y-112877700D01*
X64166667Y-112877700D02*
X64200000Y-112844366D01*
X64200000Y-112844366D02*
X64233333Y-112777700D01*
X64233333Y-112777700D02*
X64233333Y-112744366D01*
X64233333Y-112744366D02*
X64200000Y-112677700D01*
X64200000Y-112677700D02*
X64166667Y-112644366D01*
X64166667Y-112644366D02*
X64100000Y-112611033D01*
X64100000Y-112611033D02*
X63966667Y-112611033D01*
X63966667Y-112611033D02*
X63900000Y-112644366D01*
X63900000Y-112644366D02*
X63866667Y-112677700D01*
X63866667Y-112677700D02*
X63833333Y-112744366D01*
X63833333Y-112744366D02*
X63833333Y-112777700D01*
X63833333Y-112777700D02*
X63866667Y-112844366D01*
X63866667Y-112844366D02*
X63900000Y-112877700D01*
X63900000Y-112877700D02*
X63966667Y-112911033D01*
X63966667Y-112911033D02*
X64100000Y-112911033D01*
X64100000Y-112911033D02*
X64166667Y-112944366D01*
X64166667Y-112944366D02*
X64200000Y-112977700D01*
X64200000Y-112977700D02*
X64233333Y-113044366D01*
X64233333Y-113044366D02*
X64233333Y-113177700D01*
X64233333Y-113177700D02*
X64200000Y-113244366D01*
X64200000Y-113244366D02*
X64166667Y-113277700D01*
X64166667Y-113277700D02*
X64100000Y-113311033D01*
X64100000Y-113311033D02*
X63966667Y-113311033D01*
X63966667Y-113311033D02*
X63900000Y-113277700D01*
X63900000Y-113277700D02*
X63866667Y-113244366D01*
X63866667Y-113244366D02*
X63833333Y-113177700D01*
X63833333Y-113177700D02*
X63833333Y-113044366D01*
X63833333Y-113044366D02*
X63866667Y-112977700D01*
X63866667Y-112977700D02*
X63900000Y-112944366D01*
X63900000Y-112944366D02*
X63966667Y-112911033D01*
X63600000Y-112611033D02*
X63133333Y-112611033D01*
X63133333Y-112611033D02*
X63433333Y-113311033D01*
X62499999Y-113311033D02*
X62899999Y-113311033D01*
X62699999Y-113311033D02*
X62699999Y-112611033D01*
X62699999Y-112611033D02*
X62766666Y-112711033D01*
X62766666Y-112711033D02*
X62833333Y-112777700D01*
X62833333Y-112777700D02*
X62899999Y-112811033D01*
X62199999Y-113311033D02*
X62199999Y-112611033D01*
X62199999Y-112611033D02*
X62033332Y-112611033D01*
X62033332Y-112611033D02*
X61933332Y-112644366D01*
X61933332Y-112644366D02*
X61866666Y-112711033D01*
X61866666Y-112711033D02*
X61833332Y-112777700D01*
X61833332Y-112777700D02*
X61799999Y-112911033D01*
X61799999Y-112911033D02*
X61799999Y-113011033D01*
X61799999Y-113011033D02*
X61833332Y-113144366D01*
X61833332Y-113144366D02*
X61866666Y-113211033D01*
X61866666Y-113211033D02*
X61933332Y-113277700D01*
X61933332Y-113277700D02*
X62033332Y-113311033D01*
X62033332Y-113311033D02*
X62199999Y-113311033D01*
X61499999Y-113311033D02*
X61499999Y-112611033D01*
X61499999Y-112611033D02*
X61333332Y-112611033D01*
X61333332Y-112611033D02*
X61233332Y-112644366D01*
X61233332Y-112644366D02*
X61166666Y-112711033D01*
X61166666Y-112711033D02*
X61133332Y-112777700D01*
X61133332Y-112777700D02*
X61099999Y-112911033D01*
X61099999Y-112911033D02*
X61099999Y-113011033D01*
X61099999Y-113011033D02*
X61133332Y-113144366D01*
X61133332Y-113144366D02*
X61166666Y-113211033D01*
X61166666Y-113211033D02*
X61233332Y-113277700D01*
X61233332Y-113277700D02*
X61333332Y-113311033D01*
X61333332Y-113311033D02*
X61499999Y-113311033D01*
X60833332Y-113111033D02*
X60499999Y-113111033D01*
X60899999Y-113311033D02*
X60666666Y-112611033D01*
X60666666Y-112611033D02*
X60433332Y-113311033D01*
X67469819Y-107438095D02*
X68279342Y-107438095D01*
X68279342Y-107438095D02*
X68374580Y-107485714D01*
X68374580Y-107485714D02*
X68422200Y-107533333D01*
X68422200Y-107533333D02*
X68469819Y-107628571D01*
X68469819Y-107628571D02*
X68469819Y-107819047D01*
X68469819Y-107819047D02*
X68422200Y-107914285D01*
X68422200Y-107914285D02*
X68374580Y-107961904D01*
X68374580Y-107961904D02*
X68279342Y-108009523D01*
X68279342Y-108009523D02*
X67469819Y-108009523D01*
X67469819Y-108914285D02*
X67469819Y-108723809D01*
X67469819Y-108723809D02*
X67517438Y-108628571D01*
X67517438Y-108628571D02*
X67565057Y-108580952D01*
X67565057Y-108580952D02*
X67707914Y-108485714D01*
X67707914Y-108485714D02*
X67898390Y-108438095D01*
X67898390Y-108438095D02*
X68279342Y-108438095D01*
X68279342Y-108438095D02*
X68374580Y-108485714D01*
X68374580Y-108485714D02*
X68422200Y-108533333D01*
X68422200Y-108533333D02*
X68469819Y-108628571D01*
X68469819Y-108628571D02*
X68469819Y-108819047D01*
X68469819Y-108819047D02*
X68422200Y-108914285D01*
X68422200Y-108914285D02*
X68374580Y-108961904D01*
X68374580Y-108961904D02*
X68279342Y-109009523D01*
X68279342Y-109009523D02*
X68041247Y-109009523D01*
X68041247Y-109009523D02*
X67946009Y-108961904D01*
X67946009Y-108961904D02*
X67898390Y-108914285D01*
X67898390Y-108914285D02*
X67850771Y-108819047D01*
X67850771Y-108819047D02*
X67850771Y-108628571D01*
X67850771Y-108628571D02*
X67898390Y-108533333D01*
X67898390Y-108533333D02*
X67946009Y-108485714D01*
X67946009Y-108485714D02*
X68041247Y-108438095D01*
X74556667Y-113341033D02*
X74556667Y-112641033D01*
X74556667Y-112641033D02*
X74390000Y-112641033D01*
X74390000Y-112641033D02*
X74290000Y-112674366D01*
X74290000Y-112674366D02*
X74223334Y-112741033D01*
X74223334Y-112741033D02*
X74190000Y-112807700D01*
X74190000Y-112807700D02*
X74156667Y-112941033D01*
X74156667Y-112941033D02*
X74156667Y-113041033D01*
X74156667Y-113041033D02*
X74190000Y-113174366D01*
X74190000Y-113174366D02*
X74223334Y-113241033D01*
X74223334Y-113241033D02*
X74290000Y-113307700D01*
X74290000Y-113307700D02*
X74390000Y-113341033D01*
X74390000Y-113341033D02*
X74556667Y-113341033D01*
X73456667Y-113341033D02*
X73690000Y-113007700D01*
X73856667Y-113341033D02*
X73856667Y-112641033D01*
X73856667Y-112641033D02*
X73590000Y-112641033D01*
X73590000Y-112641033D02*
X73523334Y-112674366D01*
X73523334Y-112674366D02*
X73490000Y-112707700D01*
X73490000Y-112707700D02*
X73456667Y-112774366D01*
X73456667Y-112774366D02*
X73456667Y-112874366D01*
X73456667Y-112874366D02*
X73490000Y-112941033D01*
X73490000Y-112941033D02*
X73523334Y-112974366D01*
X73523334Y-112974366D02*
X73590000Y-113007700D01*
X73590000Y-113007700D02*
X73856667Y-113007700D01*
X73256667Y-112641033D02*
X73023334Y-113341033D01*
X73023334Y-113341033D02*
X72790000Y-112641033D01*
X72456667Y-112941033D02*
X72523334Y-112907700D01*
X72523334Y-112907700D02*
X72556667Y-112874366D01*
X72556667Y-112874366D02*
X72590000Y-112807700D01*
X72590000Y-112807700D02*
X72590000Y-112774366D01*
X72590000Y-112774366D02*
X72556667Y-112707700D01*
X72556667Y-112707700D02*
X72523334Y-112674366D01*
X72523334Y-112674366D02*
X72456667Y-112641033D01*
X72456667Y-112641033D02*
X72323334Y-112641033D01*
X72323334Y-112641033D02*
X72256667Y-112674366D01*
X72256667Y-112674366D02*
X72223334Y-112707700D01*
X72223334Y-112707700D02*
X72190000Y-112774366D01*
X72190000Y-112774366D02*
X72190000Y-112807700D01*
X72190000Y-112807700D02*
X72223334Y-112874366D01*
X72223334Y-112874366D02*
X72256667Y-112907700D01*
X72256667Y-112907700D02*
X72323334Y-112941033D01*
X72323334Y-112941033D02*
X72456667Y-112941033D01*
X72456667Y-112941033D02*
X72523334Y-112974366D01*
X72523334Y-112974366D02*
X72556667Y-113007700D01*
X72556667Y-113007700D02*
X72590000Y-113074366D01*
X72590000Y-113074366D02*
X72590000Y-113207700D01*
X72590000Y-113207700D02*
X72556667Y-113274366D01*
X72556667Y-113274366D02*
X72523334Y-113307700D01*
X72523334Y-113307700D02*
X72456667Y-113341033D01*
X72456667Y-113341033D02*
X72323334Y-113341033D01*
X72323334Y-113341033D02*
X72256667Y-113307700D01*
X72256667Y-113307700D02*
X72223334Y-113274366D01*
X72223334Y-113274366D02*
X72190000Y-113207700D01*
X72190000Y-113207700D02*
X72190000Y-113074366D01*
X72190000Y-113074366D02*
X72223334Y-113007700D01*
X72223334Y-113007700D02*
X72256667Y-112974366D01*
X72256667Y-112974366D02*
X72323334Y-112941033D01*
X71790000Y-112941033D02*
X71856667Y-112907700D01*
X71856667Y-112907700D02*
X71890000Y-112874366D01*
X71890000Y-112874366D02*
X71923333Y-112807700D01*
X71923333Y-112807700D02*
X71923333Y-112774366D01*
X71923333Y-112774366D02*
X71890000Y-112707700D01*
X71890000Y-112707700D02*
X71856667Y-112674366D01*
X71856667Y-112674366D02*
X71790000Y-112641033D01*
X71790000Y-112641033D02*
X71656667Y-112641033D01*
X71656667Y-112641033D02*
X71590000Y-112674366D01*
X71590000Y-112674366D02*
X71556667Y-112707700D01*
X71556667Y-112707700D02*
X71523333Y-112774366D01*
X71523333Y-112774366D02*
X71523333Y-112807700D01*
X71523333Y-112807700D02*
X71556667Y-112874366D01*
X71556667Y-112874366D02*
X71590000Y-112907700D01*
X71590000Y-112907700D02*
X71656667Y-112941033D01*
X71656667Y-112941033D02*
X71790000Y-112941033D01*
X71790000Y-112941033D02*
X71856667Y-112974366D01*
X71856667Y-112974366D02*
X71890000Y-113007700D01*
X71890000Y-113007700D02*
X71923333Y-113074366D01*
X71923333Y-113074366D02*
X71923333Y-113207700D01*
X71923333Y-113207700D02*
X71890000Y-113274366D01*
X71890000Y-113274366D02*
X71856667Y-113307700D01*
X71856667Y-113307700D02*
X71790000Y-113341033D01*
X71790000Y-113341033D02*
X71656667Y-113341033D01*
X71656667Y-113341033D02*
X71590000Y-113307700D01*
X71590000Y-113307700D02*
X71556667Y-113274366D01*
X71556667Y-113274366D02*
X71523333Y-113207700D01*
X71523333Y-113207700D02*
X71523333Y-113074366D01*
X71523333Y-113074366D02*
X71556667Y-113007700D01*
X71556667Y-113007700D02*
X71590000Y-112974366D01*
X71590000Y-112974366D02*
X71656667Y-112941033D01*
X71290000Y-112641033D02*
X70823333Y-112641033D01*
X70823333Y-112641033D02*
X71123333Y-113341033D01*
X70189999Y-113341033D02*
X70589999Y-113341033D01*
X70389999Y-113341033D02*
X70389999Y-112641033D01*
X70389999Y-112641033D02*
X70456666Y-112741033D01*
X70456666Y-112741033D02*
X70523333Y-112807700D01*
X70523333Y-112807700D02*
X70589999Y-112841033D01*
X69889999Y-113341033D02*
X69889999Y-112641033D01*
X69889999Y-112641033D02*
X69723332Y-112641033D01*
X69723332Y-112641033D02*
X69623332Y-112674366D01*
X69623332Y-112674366D02*
X69556666Y-112741033D01*
X69556666Y-112741033D02*
X69523332Y-112807700D01*
X69523332Y-112807700D02*
X69489999Y-112941033D01*
X69489999Y-112941033D02*
X69489999Y-113041033D01*
X69489999Y-113041033D02*
X69523332Y-113174366D01*
X69523332Y-113174366D02*
X69556666Y-113241033D01*
X69556666Y-113241033D02*
X69623332Y-113307700D01*
X69623332Y-113307700D02*
X69723332Y-113341033D01*
X69723332Y-113341033D02*
X69889999Y-113341033D01*
X69189999Y-113341033D02*
X69189999Y-112641033D01*
X69189999Y-112641033D02*
X69023332Y-112641033D01*
X69023332Y-112641033D02*
X68923332Y-112674366D01*
X68923332Y-112674366D02*
X68856666Y-112741033D01*
X68856666Y-112741033D02*
X68823332Y-112807700D01*
X68823332Y-112807700D02*
X68789999Y-112941033D01*
X68789999Y-112941033D02*
X68789999Y-113041033D01*
X68789999Y-113041033D02*
X68823332Y-113174366D01*
X68823332Y-113174366D02*
X68856666Y-113241033D01*
X68856666Y-113241033D02*
X68923332Y-113307700D01*
X68923332Y-113307700D02*
X69023332Y-113341033D01*
X69023332Y-113341033D02*
X69189999Y-113341033D01*
X68523332Y-113141033D02*
X68189999Y-113141033D01*
X68589999Y-113341033D02*
X68356666Y-112641033D01*
X68356666Y-112641033D02*
X68123332Y-113341033D01*
X83733730Y-66539819D02*
X84067063Y-66063628D01*
X84305158Y-66539819D02*
X84305158Y-65539819D01*
X84305158Y-65539819D02*
X83924206Y-65539819D01*
X83924206Y-65539819D02*
X83828968Y-65587438D01*
X83828968Y-65587438D02*
X83781349Y-65635057D01*
X83781349Y-65635057D02*
X83733730Y-65730295D01*
X83733730Y-65730295D02*
X83733730Y-65873152D01*
X83733730Y-65873152D02*
X83781349Y-65968390D01*
X83781349Y-65968390D02*
X83828968Y-66016009D01*
X83828968Y-66016009D02*
X83924206Y-66063628D01*
X83924206Y-66063628D02*
X84305158Y-66063628D01*
X82781349Y-66539819D02*
X83352777Y-66539819D01*
X83067063Y-66539819D02*
X83067063Y-65539819D01*
X83067063Y-65539819D02*
X83162301Y-65682676D01*
X83162301Y-65682676D02*
X83257539Y-65777914D01*
X83257539Y-65777914D02*
X83352777Y-65825533D01*
X84354285Y-69253152D02*
X84354285Y-69919819D01*
X84592380Y-68872200D02*
X84830475Y-69586485D01*
X84830475Y-69586485D02*
X84211428Y-69586485D01*
X83925713Y-68919819D02*
X83259047Y-68919819D01*
X83259047Y-68919819D02*
X83687618Y-69919819D01*
X82687618Y-68919819D02*
X82592380Y-68919819D01*
X82592380Y-68919819D02*
X82497142Y-68967438D01*
X82497142Y-68967438D02*
X82449523Y-69015057D01*
X82449523Y-69015057D02*
X82401904Y-69110295D01*
X82401904Y-69110295D02*
X82354285Y-69300771D01*
X82354285Y-69300771D02*
X82354285Y-69538866D01*
X82354285Y-69538866D02*
X82401904Y-69729342D01*
X82401904Y-69729342D02*
X82449523Y-69824580D01*
X82449523Y-69824580D02*
X82497142Y-69872200D01*
X82497142Y-69872200D02*
X82592380Y-69919819D01*
X82592380Y-69919819D02*
X82687618Y-69919819D01*
X82687618Y-69919819D02*
X82782856Y-69872200D01*
X82782856Y-69872200D02*
X82830475Y-69824580D01*
X82830475Y-69824580D02*
X82878094Y-69729342D01*
X82878094Y-69729342D02*
X82925713Y-69538866D01*
X82925713Y-69538866D02*
X82925713Y-69300771D01*
X82925713Y-69300771D02*
X82878094Y-69110295D01*
X82878094Y-69110295D02*
X82830475Y-69015057D01*
X82830475Y-69015057D02*
X82782856Y-68967438D01*
X82782856Y-68967438D02*
X82687618Y-68919819D01*
X81925713Y-69396009D02*
X81592380Y-69396009D01*
X81449523Y-69919819D02*
X81925713Y-69919819D01*
X81925713Y-69919819D02*
X81925713Y-68919819D01*
X81925713Y-68919819D02*
X81449523Y-68919819D01*
X83436666Y-75989819D02*
X83769999Y-75513628D01*
X84008094Y-75989819D02*
X84008094Y-74989819D01*
X84008094Y-74989819D02*
X83627142Y-74989819D01*
X83627142Y-74989819D02*
X83531904Y-75037438D01*
X83531904Y-75037438D02*
X83484285Y-75085057D01*
X83484285Y-75085057D02*
X83436666Y-75180295D01*
X83436666Y-75180295D02*
X83436666Y-75323152D01*
X83436666Y-75323152D02*
X83484285Y-75418390D01*
X83484285Y-75418390D02*
X83531904Y-75466009D01*
X83531904Y-75466009D02*
X83627142Y-75513628D01*
X83627142Y-75513628D02*
X84008094Y-75513628D01*
X82531904Y-74989819D02*
X83008094Y-74989819D01*
X83008094Y-74989819D02*
X83055713Y-75466009D01*
X83055713Y-75466009D02*
X83008094Y-75418390D01*
X83008094Y-75418390D02*
X82912856Y-75370771D01*
X82912856Y-75370771D02*
X82674761Y-75370771D01*
X82674761Y-75370771D02*
X82579523Y-75418390D01*
X82579523Y-75418390D02*
X82531904Y-75466009D01*
X82531904Y-75466009D02*
X82484285Y-75561247D01*
X82484285Y-75561247D02*
X82484285Y-75799342D01*
X82484285Y-75799342D02*
X82531904Y-75894580D01*
X82531904Y-75894580D02*
X82579523Y-75942200D01*
X82579523Y-75942200D02*
X82674761Y-75989819D01*
X82674761Y-75989819D02*
X82912856Y-75989819D01*
X82912856Y-75989819D02*
X83008094Y-75942200D01*
X83008094Y-75942200D02*
X83055713Y-75894580D01*
X84654285Y-78523152D02*
X84654285Y-79189819D01*
X84892380Y-78142200D02*
X85130475Y-78856485D01*
X85130475Y-78856485D02*
X84511428Y-78856485D01*
X84225713Y-78189819D02*
X83559047Y-78189819D01*
X83559047Y-78189819D02*
X83987618Y-79189819D01*
X82987618Y-78189819D02*
X82892380Y-78189819D01*
X82892380Y-78189819D02*
X82797142Y-78237438D01*
X82797142Y-78237438D02*
X82749523Y-78285057D01*
X82749523Y-78285057D02*
X82701904Y-78380295D01*
X82701904Y-78380295D02*
X82654285Y-78570771D01*
X82654285Y-78570771D02*
X82654285Y-78808866D01*
X82654285Y-78808866D02*
X82701904Y-78999342D01*
X82701904Y-78999342D02*
X82749523Y-79094580D01*
X82749523Y-79094580D02*
X82797142Y-79142200D01*
X82797142Y-79142200D02*
X82892380Y-79189819D01*
X82892380Y-79189819D02*
X82987618Y-79189819D01*
X82987618Y-79189819D02*
X83082856Y-79142200D01*
X83082856Y-79142200D02*
X83130475Y-79094580D01*
X83130475Y-79094580D02*
X83178094Y-78999342D01*
X83178094Y-78999342D02*
X83225713Y-78808866D01*
X83225713Y-78808866D02*
X83225713Y-78570771D01*
X83225713Y-78570771D02*
X83178094Y-78380295D01*
X83178094Y-78380295D02*
X83130475Y-78285057D01*
X83130475Y-78285057D02*
X83082856Y-78237438D01*
X83082856Y-78237438D02*
X82987618Y-78189819D01*
X82225713Y-78666009D02*
X81892380Y-78666009D01*
X81749523Y-79189819D02*
X82225713Y-79189819D01*
X82225713Y-79189819D02*
X82225713Y-78189819D01*
X82225713Y-78189819D02*
X81749523Y-78189819D01*
X46201904Y-53519819D02*
X46201904Y-54329342D01*
X46201904Y-54329342D02*
X46154285Y-54424580D01*
X46154285Y-54424580D02*
X46106666Y-54472200D01*
X46106666Y-54472200D02*
X46011428Y-54519819D01*
X46011428Y-54519819D02*
X45820952Y-54519819D01*
X45820952Y-54519819D02*
X45725714Y-54472200D01*
X45725714Y-54472200D02*
X45678095Y-54424580D01*
X45678095Y-54424580D02*
X45630476Y-54329342D01*
X45630476Y-54329342D02*
X45630476Y-53519819D01*
X45011428Y-53948390D02*
X45106666Y-53900771D01*
X45106666Y-53900771D02*
X45154285Y-53853152D01*
X45154285Y-53853152D02*
X45201904Y-53757914D01*
X45201904Y-53757914D02*
X45201904Y-53710295D01*
X45201904Y-53710295D02*
X45154285Y-53615057D01*
X45154285Y-53615057D02*
X45106666Y-53567438D01*
X45106666Y-53567438D02*
X45011428Y-53519819D01*
X45011428Y-53519819D02*
X44820952Y-53519819D01*
X44820952Y-53519819D02*
X44725714Y-53567438D01*
X44725714Y-53567438D02*
X44678095Y-53615057D01*
X44678095Y-53615057D02*
X44630476Y-53710295D01*
X44630476Y-53710295D02*
X44630476Y-53757914D01*
X44630476Y-53757914D02*
X44678095Y-53853152D01*
X44678095Y-53853152D02*
X44725714Y-53900771D01*
X44725714Y-53900771D02*
X44820952Y-53948390D01*
X44820952Y-53948390D02*
X45011428Y-53948390D01*
X45011428Y-53948390D02*
X45106666Y-53996009D01*
X45106666Y-53996009D02*
X45154285Y-54043628D01*
X45154285Y-54043628D02*
X45201904Y-54138866D01*
X45201904Y-54138866D02*
X45201904Y-54329342D01*
X45201904Y-54329342D02*
X45154285Y-54424580D01*
X45154285Y-54424580D02*
X45106666Y-54472200D01*
X45106666Y-54472200D02*
X45011428Y-54519819D01*
X45011428Y-54519819D02*
X44820952Y-54519819D01*
X44820952Y-54519819D02*
X44725714Y-54472200D01*
X44725714Y-54472200D02*
X44678095Y-54424580D01*
X44678095Y-54424580D02*
X44630476Y-54329342D01*
X44630476Y-54329342D02*
X44630476Y-54138866D01*
X44630476Y-54138866D02*
X44678095Y-54043628D01*
X44678095Y-54043628D02*
X44725714Y-53996009D01*
X44725714Y-53996009D02*
X44820952Y-53948390D01*
X48736667Y-59441033D02*
X48403334Y-59441033D01*
X48803334Y-59641033D02*
X48570001Y-58941033D01*
X48570001Y-58941033D02*
X48336667Y-59641033D01*
X48103334Y-59641033D02*
X48103334Y-58941033D01*
X48103334Y-58941033D02*
X47836667Y-58941033D01*
X47836667Y-58941033D02*
X47770001Y-58974366D01*
X47770001Y-58974366D02*
X47736667Y-59007700D01*
X47736667Y-59007700D02*
X47703334Y-59074366D01*
X47703334Y-59074366D02*
X47703334Y-59174366D01*
X47703334Y-59174366D02*
X47736667Y-59241033D01*
X47736667Y-59241033D02*
X47770001Y-59274366D01*
X47770001Y-59274366D02*
X47836667Y-59307700D01*
X47836667Y-59307700D02*
X48103334Y-59307700D01*
X47436667Y-59007700D02*
X47403334Y-58974366D01*
X47403334Y-58974366D02*
X47336667Y-58941033D01*
X47336667Y-58941033D02*
X47170001Y-58941033D01*
X47170001Y-58941033D02*
X47103334Y-58974366D01*
X47103334Y-58974366D02*
X47070001Y-59007700D01*
X47070001Y-59007700D02*
X47036667Y-59074366D01*
X47036667Y-59074366D02*
X47036667Y-59141033D01*
X47036667Y-59141033D02*
X47070001Y-59241033D01*
X47070001Y-59241033D02*
X47470001Y-59641033D01*
X47470001Y-59641033D02*
X47036667Y-59641033D01*
X46370000Y-59641033D02*
X46770000Y-59641033D01*
X46570000Y-59641033D02*
X46570000Y-58941033D01*
X46570000Y-58941033D02*
X46636667Y-59041033D01*
X46636667Y-59041033D02*
X46703334Y-59107700D01*
X46703334Y-59107700D02*
X46770000Y-59141033D01*
X45703333Y-59641033D02*
X46103333Y-59641033D01*
X45903333Y-59641033D02*
X45903333Y-58941033D01*
X45903333Y-58941033D02*
X45970000Y-59041033D01*
X45970000Y-59041033D02*
X46036667Y-59107700D01*
X46036667Y-59107700D02*
X46103333Y-59141033D01*
X45436666Y-59007700D02*
X45403333Y-58974366D01*
X45403333Y-58974366D02*
X45336666Y-58941033D01*
X45336666Y-58941033D02*
X45170000Y-58941033D01*
X45170000Y-58941033D02*
X45103333Y-58974366D01*
X45103333Y-58974366D02*
X45070000Y-59007700D01*
X45070000Y-59007700D02*
X45036666Y-59074366D01*
X45036666Y-59074366D02*
X45036666Y-59141033D01*
X45036666Y-59141033D02*
X45070000Y-59241033D01*
X45070000Y-59241033D02*
X45470000Y-59641033D01*
X45470000Y-59641033D02*
X45036666Y-59641033D01*
X44736666Y-59641033D02*
X44736666Y-58941033D01*
X44336666Y-59641033D02*
X44636666Y-59241033D01*
X44336666Y-58941033D02*
X44736666Y-59341033D01*
X44036666Y-59374366D02*
X43503333Y-59374366D01*
X43236666Y-58941033D02*
X42803332Y-58941033D01*
X42803332Y-58941033D02*
X43036666Y-59207700D01*
X43036666Y-59207700D02*
X42936666Y-59207700D01*
X42936666Y-59207700D02*
X42869999Y-59241033D01*
X42869999Y-59241033D02*
X42836666Y-59274366D01*
X42836666Y-59274366D02*
X42803332Y-59341033D01*
X42803332Y-59341033D02*
X42803332Y-59507700D01*
X42803332Y-59507700D02*
X42836666Y-59574366D01*
X42836666Y-59574366D02*
X42869999Y-59607700D01*
X42869999Y-59607700D02*
X42936666Y-59641033D01*
X42936666Y-59641033D02*
X43136666Y-59641033D01*
X43136666Y-59641033D02*
X43203332Y-59607700D01*
X43203332Y-59607700D02*
X43236666Y-59574366D01*
X42503332Y-59574366D02*
X42469999Y-59607700D01*
X42469999Y-59607700D02*
X42503332Y-59641033D01*
X42503332Y-59641033D02*
X42536665Y-59607700D01*
X42536665Y-59607700D02*
X42503332Y-59574366D01*
X42503332Y-59574366D02*
X42503332Y-59641033D01*
X42236666Y-58941033D02*
X41803332Y-58941033D01*
X41803332Y-58941033D02*
X42036666Y-59207700D01*
X42036666Y-59207700D02*
X41936666Y-59207700D01*
X41936666Y-59207700D02*
X41869999Y-59241033D01*
X41869999Y-59241033D02*
X41836666Y-59274366D01*
X41836666Y-59274366D02*
X41803332Y-59341033D01*
X41803332Y-59341033D02*
X41803332Y-59507700D01*
X41803332Y-59507700D02*
X41836666Y-59574366D01*
X41836666Y-59574366D02*
X41869999Y-59607700D01*
X41869999Y-59607700D02*
X41936666Y-59641033D01*
X41936666Y-59641033D02*
X42136666Y-59641033D01*
X42136666Y-59641033D02*
X42203332Y-59607700D01*
X42203332Y-59607700D02*
X42236666Y-59574366D01*
X66434819Y-101528333D02*
X65958628Y-101195000D01*
X66434819Y-100956905D02*
X65434819Y-100956905D01*
X65434819Y-100956905D02*
X65434819Y-101337857D01*
X65434819Y-101337857D02*
X65482438Y-101433095D01*
X65482438Y-101433095D02*
X65530057Y-101480714D01*
X65530057Y-101480714D02*
X65625295Y-101528333D01*
X65625295Y-101528333D02*
X65768152Y-101528333D01*
X65768152Y-101528333D02*
X65863390Y-101480714D01*
X65863390Y-101480714D02*
X65911009Y-101433095D01*
X65911009Y-101433095D02*
X65958628Y-101337857D01*
X65958628Y-101337857D02*
X65958628Y-100956905D01*
X65768152Y-102385476D02*
X66434819Y-102385476D01*
X65387200Y-102147381D02*
X66101485Y-101909286D01*
X66101485Y-101909286D02*
X66101485Y-102528333D01*
X68830057Y-100433095D02*
X68782438Y-100480714D01*
X68782438Y-100480714D02*
X68734819Y-100575952D01*
X68734819Y-100575952D02*
X68734819Y-100814047D01*
X68734819Y-100814047D02*
X68782438Y-100909285D01*
X68782438Y-100909285D02*
X68830057Y-100956904D01*
X68830057Y-100956904D02*
X68925295Y-101004523D01*
X68925295Y-101004523D02*
X69020533Y-101004523D01*
X69020533Y-101004523D02*
X69163390Y-100956904D01*
X69163390Y-100956904D02*
X69734819Y-100385476D01*
X69734819Y-100385476D02*
X69734819Y-101004523D01*
X68830057Y-101385476D02*
X68782438Y-101433095D01*
X68782438Y-101433095D02*
X68734819Y-101528333D01*
X68734819Y-101528333D02*
X68734819Y-101766428D01*
X68734819Y-101766428D02*
X68782438Y-101861666D01*
X68782438Y-101861666D02*
X68830057Y-101909285D01*
X68830057Y-101909285D02*
X68925295Y-101956904D01*
X68925295Y-101956904D02*
X69020533Y-101956904D01*
X69020533Y-101956904D02*
X69163390Y-101909285D01*
X69163390Y-101909285D02*
X69734819Y-101337857D01*
X69734819Y-101337857D02*
X69734819Y-101956904D01*
X69734819Y-102385476D02*
X68734819Y-102385476D01*
X69734819Y-102956904D02*
X69163390Y-102528333D01*
X68734819Y-102956904D02*
X69306247Y-102385476D01*
X54140000Y-55094366D02*
X54173333Y-55127700D01*
X54173333Y-55127700D02*
X54273333Y-55161033D01*
X54273333Y-55161033D02*
X54340000Y-55161033D01*
X54340000Y-55161033D02*
X54440000Y-55127700D01*
X54440000Y-55127700D02*
X54506667Y-55061033D01*
X54506667Y-55061033D02*
X54540000Y-54994366D01*
X54540000Y-54994366D02*
X54573333Y-54861033D01*
X54573333Y-54861033D02*
X54573333Y-54761033D01*
X54573333Y-54761033D02*
X54540000Y-54627700D01*
X54540000Y-54627700D02*
X54506667Y-54561033D01*
X54506667Y-54561033D02*
X54440000Y-54494366D01*
X54440000Y-54494366D02*
X54340000Y-54461033D01*
X54340000Y-54461033D02*
X54273333Y-54461033D01*
X54273333Y-54461033D02*
X54173333Y-54494366D01*
X54173333Y-54494366D02*
X54140000Y-54527700D01*
X53473333Y-55161033D02*
X53873333Y-55161033D01*
X53673333Y-55161033D02*
X53673333Y-54461033D01*
X53673333Y-54461033D02*
X53740000Y-54561033D01*
X53740000Y-54561033D02*
X53806667Y-54627700D01*
X53806667Y-54627700D02*
X53873333Y-54661033D01*
X53240000Y-54461033D02*
X52806666Y-54461033D01*
X52806666Y-54461033D02*
X53040000Y-54727700D01*
X53040000Y-54727700D02*
X52940000Y-54727700D01*
X52940000Y-54727700D02*
X52873333Y-54761033D01*
X52873333Y-54761033D02*
X52840000Y-54794366D01*
X52840000Y-54794366D02*
X52806666Y-54861033D01*
X52806666Y-54861033D02*
X52806666Y-55027700D01*
X52806666Y-55027700D02*
X52840000Y-55094366D01*
X52840000Y-55094366D02*
X52873333Y-55127700D01*
X52873333Y-55127700D02*
X52940000Y-55161033D01*
X52940000Y-55161033D02*
X53140000Y-55161033D01*
X53140000Y-55161033D02*
X53206666Y-55127700D01*
X53206666Y-55127700D02*
X53240000Y-55094366D01*
X49923333Y-54481033D02*
X50323333Y-54481033D01*
X50123333Y-54481033D02*
X50123333Y-53781033D01*
X50123333Y-53781033D02*
X50190000Y-53881033D01*
X50190000Y-53881033D02*
X50256667Y-53947700D01*
X50256667Y-53947700D02*
X50323333Y-53981033D01*
X49490000Y-53781033D02*
X49423333Y-53781033D01*
X49423333Y-53781033D02*
X49356666Y-53814366D01*
X49356666Y-53814366D02*
X49323333Y-53847700D01*
X49323333Y-53847700D02*
X49290000Y-53914366D01*
X49290000Y-53914366D02*
X49256666Y-54047700D01*
X49256666Y-54047700D02*
X49256666Y-54214366D01*
X49256666Y-54214366D02*
X49290000Y-54347700D01*
X49290000Y-54347700D02*
X49323333Y-54414366D01*
X49323333Y-54414366D02*
X49356666Y-54447700D01*
X49356666Y-54447700D02*
X49423333Y-54481033D01*
X49423333Y-54481033D02*
X49490000Y-54481033D01*
X49490000Y-54481033D02*
X49556666Y-54447700D01*
X49556666Y-54447700D02*
X49590000Y-54414366D01*
X49590000Y-54414366D02*
X49623333Y-54347700D01*
X49623333Y-54347700D02*
X49656666Y-54214366D01*
X49656666Y-54214366D02*
X49656666Y-54047700D01*
X49656666Y-54047700D02*
X49623333Y-53914366D01*
X49623333Y-53914366D02*
X49590000Y-53847700D01*
X49590000Y-53847700D02*
X49556666Y-53814366D01*
X49556666Y-53814366D02*
X49490000Y-53781033D01*
X48823333Y-53781033D02*
X48756666Y-53781033D01*
X48756666Y-53781033D02*
X48689999Y-53814366D01*
X48689999Y-53814366D02*
X48656666Y-53847700D01*
X48656666Y-53847700D02*
X48623333Y-53914366D01*
X48623333Y-53914366D02*
X48589999Y-54047700D01*
X48589999Y-54047700D02*
X48589999Y-54214366D01*
X48589999Y-54214366D02*
X48623333Y-54347700D01*
X48623333Y-54347700D02*
X48656666Y-54414366D01*
X48656666Y-54414366D02*
X48689999Y-54447700D01*
X48689999Y-54447700D02*
X48756666Y-54481033D01*
X48756666Y-54481033D02*
X48823333Y-54481033D01*
X48823333Y-54481033D02*
X48889999Y-54447700D01*
X48889999Y-54447700D02*
X48923333Y-54414366D01*
X48923333Y-54414366D02*
X48956666Y-54347700D01*
X48956666Y-54347700D02*
X48989999Y-54214366D01*
X48989999Y-54214366D02*
X48989999Y-54047700D01*
X48989999Y-54047700D02*
X48956666Y-53914366D01*
X48956666Y-53914366D02*
X48923333Y-53847700D01*
X48923333Y-53847700D02*
X48889999Y-53814366D01*
X48889999Y-53814366D02*
X48823333Y-53781033D01*
X48289999Y-54014366D02*
X48289999Y-54481033D01*
X48289999Y-54081033D02*
X48256666Y-54047700D01*
X48256666Y-54047700D02*
X48189999Y-54014366D01*
X48189999Y-54014366D02*
X48089999Y-54014366D01*
X48089999Y-54014366D02*
X48023332Y-54047700D01*
X48023332Y-54047700D02*
X47989999Y-54114366D01*
X47989999Y-54114366D02*
X47989999Y-54481033D01*
X47423333Y-54114366D02*
X47656666Y-54114366D01*
X47656666Y-54481033D02*
X47656666Y-53781033D01*
X47656666Y-53781033D02*
X47323333Y-53781033D01*
X68621904Y-71189819D02*
X68621904Y-71999342D01*
X68621904Y-71999342D02*
X68574285Y-72094580D01*
X68574285Y-72094580D02*
X68526666Y-72142200D01*
X68526666Y-72142200D02*
X68431428Y-72189819D01*
X68431428Y-72189819D02*
X68240952Y-72189819D01*
X68240952Y-72189819D02*
X68145714Y-72142200D01*
X68145714Y-72142200D02*
X68098095Y-72094580D01*
X68098095Y-72094580D02*
X68050476Y-71999342D01*
X68050476Y-71999342D02*
X68050476Y-71189819D01*
X67669523Y-71189819D02*
X67002857Y-71189819D01*
X67002857Y-71189819D02*
X67431428Y-72189819D01*
X73201427Y-73559819D02*
X73201427Y-72559819D01*
X72772856Y-73512200D02*
X72629999Y-73559819D01*
X72629999Y-73559819D02*
X72391904Y-73559819D01*
X72391904Y-73559819D02*
X72296666Y-73512200D01*
X72296666Y-73512200D02*
X72249047Y-73464580D01*
X72249047Y-73464580D02*
X72201428Y-73369342D01*
X72201428Y-73369342D02*
X72201428Y-73274104D01*
X72201428Y-73274104D02*
X72249047Y-73178866D01*
X72249047Y-73178866D02*
X72296666Y-73131247D01*
X72296666Y-73131247D02*
X72391904Y-73083628D01*
X72391904Y-73083628D02*
X72582380Y-73036009D01*
X72582380Y-73036009D02*
X72677618Y-72988390D01*
X72677618Y-72988390D02*
X72725237Y-72940771D01*
X72725237Y-72940771D02*
X72772856Y-72845533D01*
X72772856Y-72845533D02*
X72772856Y-72750295D01*
X72772856Y-72750295D02*
X72725237Y-72655057D01*
X72725237Y-72655057D02*
X72677618Y-72607438D01*
X72677618Y-72607438D02*
X72582380Y-72559819D01*
X72582380Y-72559819D02*
X72344285Y-72559819D01*
X72344285Y-72559819D02*
X72201428Y-72607438D01*
X71201428Y-73464580D02*
X71249047Y-73512200D01*
X71249047Y-73512200D02*
X71391904Y-73559819D01*
X71391904Y-73559819D02*
X71487142Y-73559819D01*
X71487142Y-73559819D02*
X71629999Y-73512200D01*
X71629999Y-73512200D02*
X71725237Y-73416961D01*
X71725237Y-73416961D02*
X71772856Y-73321723D01*
X71772856Y-73321723D02*
X71820475Y-73131247D01*
X71820475Y-73131247D02*
X71820475Y-72988390D01*
X71820475Y-72988390D02*
X71772856Y-72797914D01*
X71772856Y-72797914D02*
X71725237Y-72702676D01*
X71725237Y-72702676D02*
X71629999Y-72607438D01*
X71629999Y-72607438D02*
X71487142Y-72559819D01*
X71487142Y-72559819D02*
X71391904Y-72559819D01*
X71391904Y-72559819D02*
X71249047Y-72607438D01*
X71249047Y-72607438D02*
X71201428Y-72655057D01*
X70772856Y-73178866D02*
X70010952Y-73178866D01*
X69582380Y-73512200D02*
X69439523Y-73559819D01*
X69439523Y-73559819D02*
X69201428Y-73559819D01*
X69201428Y-73559819D02*
X69106190Y-73512200D01*
X69106190Y-73512200D02*
X69058571Y-73464580D01*
X69058571Y-73464580D02*
X69010952Y-73369342D01*
X69010952Y-73369342D02*
X69010952Y-73274104D01*
X69010952Y-73274104D02*
X69058571Y-73178866D01*
X69058571Y-73178866D02*
X69106190Y-73131247D01*
X69106190Y-73131247D02*
X69201428Y-73083628D01*
X69201428Y-73083628D02*
X69391904Y-73036009D01*
X69391904Y-73036009D02*
X69487142Y-72988390D01*
X69487142Y-72988390D02*
X69534761Y-72940771D01*
X69534761Y-72940771D02*
X69582380Y-72845533D01*
X69582380Y-72845533D02*
X69582380Y-72750295D01*
X69582380Y-72750295D02*
X69534761Y-72655057D01*
X69534761Y-72655057D02*
X69487142Y-72607438D01*
X69487142Y-72607438D02*
X69391904Y-72559819D01*
X69391904Y-72559819D02*
X69153809Y-72559819D01*
X69153809Y-72559819D02*
X69010952Y-72607438D01*
X68677618Y-72559819D02*
X68010952Y-73559819D01*
X68010952Y-72559819D02*
X68677618Y-73559819D01*
X67106190Y-73559819D02*
X67677618Y-73559819D01*
X67391904Y-73559819D02*
X67391904Y-72559819D01*
X67391904Y-72559819D02*
X67487142Y-72702676D01*
X67487142Y-72702676D02*
X67582380Y-72797914D01*
X67582380Y-72797914D02*
X67677618Y-72845533D01*
X66725237Y-72655057D02*
X66677618Y-72607438D01*
X66677618Y-72607438D02*
X66582380Y-72559819D01*
X66582380Y-72559819D02*
X66344285Y-72559819D01*
X66344285Y-72559819D02*
X66249047Y-72607438D01*
X66249047Y-72607438D02*
X66201428Y-72655057D01*
X66201428Y-72655057D02*
X66153809Y-72750295D01*
X66153809Y-72750295D02*
X66153809Y-72845533D01*
X66153809Y-72845533D02*
X66201428Y-72988390D01*
X66201428Y-72988390D02*
X66772856Y-73559819D01*
X66772856Y-73559819D02*
X66153809Y-73559819D01*
X65296666Y-72559819D02*
X65487142Y-72559819D01*
X65487142Y-72559819D02*
X65582380Y-72607438D01*
X65582380Y-72607438D02*
X65629999Y-72655057D01*
X65629999Y-72655057D02*
X65725237Y-72797914D01*
X65725237Y-72797914D02*
X65772856Y-72988390D01*
X65772856Y-72988390D02*
X65772856Y-73369342D01*
X65772856Y-73369342D02*
X65725237Y-73464580D01*
X65725237Y-73464580D02*
X65677618Y-73512200D01*
X65677618Y-73512200D02*
X65582380Y-73559819D01*
X65582380Y-73559819D02*
X65391904Y-73559819D01*
X65391904Y-73559819D02*
X65296666Y-73512200D01*
X65296666Y-73512200D02*
X65249047Y-73464580D01*
X65249047Y-73464580D02*
X65201428Y-73369342D01*
X65201428Y-73369342D02*
X65201428Y-73131247D01*
X65201428Y-73131247D02*
X65249047Y-73036009D01*
X65249047Y-73036009D02*
X65296666Y-72988390D01*
X65296666Y-72988390D02*
X65391904Y-72940771D01*
X65391904Y-72940771D02*
X65582380Y-72940771D01*
X65582380Y-72940771D02*
X65677618Y-72988390D01*
X65677618Y-72988390D02*
X65725237Y-73036009D01*
X65725237Y-73036009D02*
X65772856Y-73131247D01*
X64820475Y-72655057D02*
X64772856Y-72607438D01*
X64772856Y-72607438D02*
X64677618Y-72559819D01*
X64677618Y-72559819D02*
X64439523Y-72559819D01*
X64439523Y-72559819D02*
X64344285Y-72607438D01*
X64344285Y-72607438D02*
X64296666Y-72655057D01*
X64296666Y-72655057D02*
X64249047Y-72750295D01*
X64249047Y-72750295D02*
X64249047Y-72845533D01*
X64249047Y-72845533D02*
X64296666Y-72988390D01*
X64296666Y-72988390D02*
X64868094Y-73559819D01*
X64868094Y-73559819D02*
X64249047Y-73559819D01*
X63820475Y-73178866D02*
X63058571Y-73178866D01*
X62249047Y-73036009D02*
X62106190Y-73083628D01*
X62106190Y-73083628D02*
X62058571Y-73131247D01*
X62058571Y-73131247D02*
X62010952Y-73226485D01*
X62010952Y-73226485D02*
X62010952Y-73369342D01*
X62010952Y-73369342D02*
X62058571Y-73464580D01*
X62058571Y-73464580D02*
X62106190Y-73512200D01*
X62106190Y-73512200D02*
X62201428Y-73559819D01*
X62201428Y-73559819D02*
X62582380Y-73559819D01*
X62582380Y-73559819D02*
X62582380Y-72559819D01*
X62582380Y-72559819D02*
X62249047Y-72559819D01*
X62249047Y-72559819D02*
X62153809Y-72607438D01*
X62153809Y-72607438D02*
X62106190Y-72655057D01*
X62106190Y-72655057D02*
X62058571Y-72750295D01*
X62058571Y-72750295D02*
X62058571Y-72845533D01*
X62058571Y-72845533D02*
X62106190Y-72940771D01*
X62106190Y-72940771D02*
X62153809Y-72988390D01*
X62153809Y-72988390D02*
X62249047Y-73036009D01*
X62249047Y-73036009D02*
X62582380Y-73036009D01*
X75174819Y-107448095D02*
X75984342Y-107448095D01*
X75984342Y-107448095D02*
X76079580Y-107495714D01*
X76079580Y-107495714D02*
X76127200Y-107543333D01*
X76127200Y-107543333D02*
X76174819Y-107638571D01*
X76174819Y-107638571D02*
X76174819Y-107829047D01*
X76174819Y-107829047D02*
X76127200Y-107924285D01*
X76127200Y-107924285D02*
X76079580Y-107971904D01*
X76079580Y-107971904D02*
X75984342Y-108019523D01*
X75984342Y-108019523D02*
X75174819Y-108019523D01*
X75508152Y-108924285D02*
X76174819Y-108924285D01*
X75127200Y-108686190D02*
X75841485Y-108448095D01*
X75841485Y-108448095D02*
X75841485Y-109067142D01*
X82926667Y-113491033D02*
X82926667Y-112791033D01*
X82926667Y-112791033D02*
X82760000Y-112791033D01*
X82760000Y-112791033D02*
X82660000Y-112824366D01*
X82660000Y-112824366D02*
X82593334Y-112891033D01*
X82593334Y-112891033D02*
X82560000Y-112957700D01*
X82560000Y-112957700D02*
X82526667Y-113091033D01*
X82526667Y-113091033D02*
X82526667Y-113191033D01*
X82526667Y-113191033D02*
X82560000Y-113324366D01*
X82560000Y-113324366D02*
X82593334Y-113391033D01*
X82593334Y-113391033D02*
X82660000Y-113457700D01*
X82660000Y-113457700D02*
X82760000Y-113491033D01*
X82760000Y-113491033D02*
X82926667Y-113491033D01*
X81826667Y-113491033D02*
X82060000Y-113157700D01*
X82226667Y-113491033D02*
X82226667Y-112791033D01*
X82226667Y-112791033D02*
X81960000Y-112791033D01*
X81960000Y-112791033D02*
X81893334Y-112824366D01*
X81893334Y-112824366D02*
X81860000Y-112857700D01*
X81860000Y-112857700D02*
X81826667Y-112924366D01*
X81826667Y-112924366D02*
X81826667Y-113024366D01*
X81826667Y-113024366D02*
X81860000Y-113091033D01*
X81860000Y-113091033D02*
X81893334Y-113124366D01*
X81893334Y-113124366D02*
X81960000Y-113157700D01*
X81960000Y-113157700D02*
X82226667Y-113157700D01*
X81626667Y-112791033D02*
X81393334Y-113491033D01*
X81393334Y-113491033D02*
X81160000Y-112791033D01*
X80826667Y-113091033D02*
X80893334Y-113057700D01*
X80893334Y-113057700D02*
X80926667Y-113024366D01*
X80926667Y-113024366D02*
X80960000Y-112957700D01*
X80960000Y-112957700D02*
X80960000Y-112924366D01*
X80960000Y-112924366D02*
X80926667Y-112857700D01*
X80926667Y-112857700D02*
X80893334Y-112824366D01*
X80893334Y-112824366D02*
X80826667Y-112791033D01*
X80826667Y-112791033D02*
X80693334Y-112791033D01*
X80693334Y-112791033D02*
X80626667Y-112824366D01*
X80626667Y-112824366D02*
X80593334Y-112857700D01*
X80593334Y-112857700D02*
X80560000Y-112924366D01*
X80560000Y-112924366D02*
X80560000Y-112957700D01*
X80560000Y-112957700D02*
X80593334Y-113024366D01*
X80593334Y-113024366D02*
X80626667Y-113057700D01*
X80626667Y-113057700D02*
X80693334Y-113091033D01*
X80693334Y-113091033D02*
X80826667Y-113091033D01*
X80826667Y-113091033D02*
X80893334Y-113124366D01*
X80893334Y-113124366D02*
X80926667Y-113157700D01*
X80926667Y-113157700D02*
X80960000Y-113224366D01*
X80960000Y-113224366D02*
X80960000Y-113357700D01*
X80960000Y-113357700D02*
X80926667Y-113424366D01*
X80926667Y-113424366D02*
X80893334Y-113457700D01*
X80893334Y-113457700D02*
X80826667Y-113491033D01*
X80826667Y-113491033D02*
X80693334Y-113491033D01*
X80693334Y-113491033D02*
X80626667Y-113457700D01*
X80626667Y-113457700D02*
X80593334Y-113424366D01*
X80593334Y-113424366D02*
X80560000Y-113357700D01*
X80560000Y-113357700D02*
X80560000Y-113224366D01*
X80560000Y-113224366D02*
X80593334Y-113157700D01*
X80593334Y-113157700D02*
X80626667Y-113124366D01*
X80626667Y-113124366D02*
X80693334Y-113091033D01*
X80160000Y-113091033D02*
X80226667Y-113057700D01*
X80226667Y-113057700D02*
X80260000Y-113024366D01*
X80260000Y-113024366D02*
X80293333Y-112957700D01*
X80293333Y-112957700D02*
X80293333Y-112924366D01*
X80293333Y-112924366D02*
X80260000Y-112857700D01*
X80260000Y-112857700D02*
X80226667Y-112824366D01*
X80226667Y-112824366D02*
X80160000Y-112791033D01*
X80160000Y-112791033D02*
X80026667Y-112791033D01*
X80026667Y-112791033D02*
X79960000Y-112824366D01*
X79960000Y-112824366D02*
X79926667Y-112857700D01*
X79926667Y-112857700D02*
X79893333Y-112924366D01*
X79893333Y-112924366D02*
X79893333Y-112957700D01*
X79893333Y-112957700D02*
X79926667Y-113024366D01*
X79926667Y-113024366D02*
X79960000Y-113057700D01*
X79960000Y-113057700D02*
X80026667Y-113091033D01*
X80026667Y-113091033D02*
X80160000Y-113091033D01*
X80160000Y-113091033D02*
X80226667Y-113124366D01*
X80226667Y-113124366D02*
X80260000Y-113157700D01*
X80260000Y-113157700D02*
X80293333Y-113224366D01*
X80293333Y-113224366D02*
X80293333Y-113357700D01*
X80293333Y-113357700D02*
X80260000Y-113424366D01*
X80260000Y-113424366D02*
X80226667Y-113457700D01*
X80226667Y-113457700D02*
X80160000Y-113491033D01*
X80160000Y-113491033D02*
X80026667Y-113491033D01*
X80026667Y-113491033D02*
X79960000Y-113457700D01*
X79960000Y-113457700D02*
X79926667Y-113424366D01*
X79926667Y-113424366D02*
X79893333Y-113357700D01*
X79893333Y-113357700D02*
X79893333Y-113224366D01*
X79893333Y-113224366D02*
X79926667Y-113157700D01*
X79926667Y-113157700D02*
X79960000Y-113124366D01*
X79960000Y-113124366D02*
X80026667Y-113091033D01*
X79660000Y-112791033D02*
X79193333Y-112791033D01*
X79193333Y-112791033D02*
X79493333Y-113491033D01*
X78559999Y-113491033D02*
X78959999Y-113491033D01*
X78759999Y-113491033D02*
X78759999Y-112791033D01*
X78759999Y-112791033D02*
X78826666Y-112891033D01*
X78826666Y-112891033D02*
X78893333Y-112957700D01*
X78893333Y-112957700D02*
X78959999Y-112991033D01*
X78259999Y-113491033D02*
X78259999Y-112791033D01*
X78259999Y-112791033D02*
X78093332Y-112791033D01*
X78093332Y-112791033D02*
X77993332Y-112824366D01*
X77993332Y-112824366D02*
X77926666Y-112891033D01*
X77926666Y-112891033D02*
X77893332Y-112957700D01*
X77893332Y-112957700D02*
X77859999Y-113091033D01*
X77859999Y-113091033D02*
X77859999Y-113191033D01*
X77859999Y-113191033D02*
X77893332Y-113324366D01*
X77893332Y-113324366D02*
X77926666Y-113391033D01*
X77926666Y-113391033D02*
X77993332Y-113457700D01*
X77993332Y-113457700D02*
X78093332Y-113491033D01*
X78093332Y-113491033D02*
X78259999Y-113491033D01*
X77559999Y-113491033D02*
X77559999Y-112791033D01*
X77559999Y-112791033D02*
X77393332Y-112791033D01*
X77393332Y-112791033D02*
X77293332Y-112824366D01*
X77293332Y-112824366D02*
X77226666Y-112891033D01*
X77226666Y-112891033D02*
X77193332Y-112957700D01*
X77193332Y-112957700D02*
X77159999Y-113091033D01*
X77159999Y-113091033D02*
X77159999Y-113191033D01*
X77159999Y-113191033D02*
X77193332Y-113324366D01*
X77193332Y-113324366D02*
X77226666Y-113391033D01*
X77226666Y-113391033D02*
X77293332Y-113457700D01*
X77293332Y-113457700D02*
X77393332Y-113491033D01*
X77393332Y-113491033D02*
X77559999Y-113491033D01*
X76893332Y-113291033D02*
X76559999Y-113291033D01*
X76959999Y-113491033D02*
X76726666Y-112791033D01*
X76726666Y-112791033D02*
X76493332Y-113491033D01*
X79606666Y-88764580D02*
X79654285Y-88812200D01*
X79654285Y-88812200D02*
X79797142Y-88859819D01*
X79797142Y-88859819D02*
X79892380Y-88859819D01*
X79892380Y-88859819D02*
X80035237Y-88812200D01*
X80035237Y-88812200D02*
X80130475Y-88716961D01*
X80130475Y-88716961D02*
X80178094Y-88621723D01*
X80178094Y-88621723D02*
X80225713Y-88431247D01*
X80225713Y-88431247D02*
X80225713Y-88288390D01*
X80225713Y-88288390D02*
X80178094Y-88097914D01*
X80178094Y-88097914D02*
X80130475Y-88002676D01*
X80130475Y-88002676D02*
X80035237Y-87907438D01*
X80035237Y-87907438D02*
X79892380Y-87859819D01*
X79892380Y-87859819D02*
X79797142Y-87859819D01*
X79797142Y-87859819D02*
X79654285Y-87907438D01*
X79654285Y-87907438D02*
X79606666Y-87955057D01*
X78654285Y-88859819D02*
X79225713Y-88859819D01*
X78939999Y-88859819D02*
X78939999Y-87859819D01*
X78939999Y-87859819D02*
X79035237Y-88002676D01*
X79035237Y-88002676D02*
X79130475Y-88097914D01*
X79130475Y-88097914D02*
X79225713Y-88145533D01*
X79504819Y-93437380D02*
X79504819Y-92865952D01*
X79504819Y-93151666D02*
X78504819Y-93151666D01*
X78504819Y-93151666D02*
X78647676Y-93056428D01*
X78647676Y-93056428D02*
X78742914Y-92961190D01*
X78742914Y-92961190D02*
X78790533Y-92865952D01*
X78504819Y-94056428D02*
X78504819Y-94151666D01*
X78504819Y-94151666D02*
X78552438Y-94246904D01*
X78552438Y-94246904D02*
X78600057Y-94294523D01*
X78600057Y-94294523D02*
X78695295Y-94342142D01*
X78695295Y-94342142D02*
X78885771Y-94389761D01*
X78885771Y-94389761D02*
X79123866Y-94389761D01*
X79123866Y-94389761D02*
X79314342Y-94342142D01*
X79314342Y-94342142D02*
X79409580Y-94294523D01*
X79409580Y-94294523D02*
X79457200Y-94246904D01*
X79457200Y-94246904D02*
X79504819Y-94151666D01*
X79504819Y-94151666D02*
X79504819Y-94056428D01*
X79504819Y-94056428D02*
X79457200Y-93961190D01*
X79457200Y-93961190D02*
X79409580Y-93913571D01*
X79409580Y-93913571D02*
X79314342Y-93865952D01*
X79314342Y-93865952D02*
X79123866Y-93818333D01*
X79123866Y-93818333D02*
X78885771Y-93818333D01*
X78885771Y-93818333D02*
X78695295Y-93865952D01*
X78695295Y-93865952D02*
X78600057Y-93913571D01*
X78600057Y-93913571D02*
X78552438Y-93961190D01*
X78552438Y-93961190D02*
X78504819Y-94056428D01*
X78504819Y-95008809D02*
X78504819Y-95104047D01*
X78504819Y-95104047D02*
X78552438Y-95199285D01*
X78552438Y-95199285D02*
X78600057Y-95246904D01*
X78600057Y-95246904D02*
X78695295Y-95294523D01*
X78695295Y-95294523D02*
X78885771Y-95342142D01*
X78885771Y-95342142D02*
X79123866Y-95342142D01*
X79123866Y-95342142D02*
X79314342Y-95294523D01*
X79314342Y-95294523D02*
X79409580Y-95246904D01*
X79409580Y-95246904D02*
X79457200Y-95199285D01*
X79457200Y-95199285D02*
X79504819Y-95104047D01*
X79504819Y-95104047D02*
X79504819Y-95008809D01*
X79504819Y-95008809D02*
X79457200Y-94913571D01*
X79457200Y-94913571D02*
X79409580Y-94865952D01*
X79409580Y-94865952D02*
X79314342Y-94818333D01*
X79314342Y-94818333D02*
X79123866Y-94770714D01*
X79123866Y-94770714D02*
X78885771Y-94770714D01*
X78885771Y-94770714D02*
X78695295Y-94818333D01*
X78695295Y-94818333D02*
X78600057Y-94865952D01*
X78600057Y-94865952D02*
X78552438Y-94913571D01*
X78552438Y-94913571D02*
X78504819Y-95008809D01*
X78838152Y-95770714D02*
X79504819Y-95770714D01*
X78933390Y-95770714D02*
X78885771Y-95818333D01*
X78885771Y-95818333D02*
X78838152Y-95913571D01*
X78838152Y-95913571D02*
X78838152Y-96056428D01*
X78838152Y-96056428D02*
X78885771Y-96151666D01*
X78885771Y-96151666D02*
X78981009Y-96199285D01*
X78981009Y-96199285D02*
X79504819Y-96199285D01*
X78981009Y-97008809D02*
X78981009Y-96675476D01*
X79504819Y-96675476D02*
X78504819Y-96675476D01*
X78504819Y-96675476D02*
X78504819Y-97151666D01*
X82456666Y-57839819D02*
X82789999Y-57363628D01*
X83028094Y-57839819D02*
X83028094Y-56839819D01*
X83028094Y-56839819D02*
X82647142Y-56839819D01*
X82647142Y-56839819D02*
X82551904Y-56887438D01*
X82551904Y-56887438D02*
X82504285Y-56935057D01*
X82504285Y-56935057D02*
X82456666Y-57030295D01*
X82456666Y-57030295D02*
X82456666Y-57173152D01*
X82456666Y-57173152D02*
X82504285Y-57268390D01*
X82504285Y-57268390D02*
X82551904Y-57316009D01*
X82551904Y-57316009D02*
X82647142Y-57363628D01*
X82647142Y-57363628D02*
X83028094Y-57363628D01*
X82075713Y-56935057D02*
X82028094Y-56887438D01*
X82028094Y-56887438D02*
X81932856Y-56839819D01*
X81932856Y-56839819D02*
X81694761Y-56839819D01*
X81694761Y-56839819D02*
X81599523Y-56887438D01*
X81599523Y-56887438D02*
X81551904Y-56935057D01*
X81551904Y-56935057D02*
X81504285Y-57030295D01*
X81504285Y-57030295D02*
X81504285Y-57125533D01*
X81504285Y-57125533D02*
X81551904Y-57268390D01*
X81551904Y-57268390D02*
X82123332Y-57839819D01*
X82123332Y-57839819D02*
X81504285Y-57839819D01*
X83174285Y-60253152D02*
X83174285Y-60919819D01*
X83412380Y-59872200D02*
X83650475Y-60586485D01*
X83650475Y-60586485D02*
X83031428Y-60586485D01*
X82745713Y-59919819D02*
X82079047Y-59919819D01*
X82079047Y-59919819D02*
X82507618Y-60919819D01*
X81507618Y-59919819D02*
X81412380Y-59919819D01*
X81412380Y-59919819D02*
X81317142Y-59967438D01*
X81317142Y-59967438D02*
X81269523Y-60015057D01*
X81269523Y-60015057D02*
X81221904Y-60110295D01*
X81221904Y-60110295D02*
X81174285Y-60300771D01*
X81174285Y-60300771D02*
X81174285Y-60538866D01*
X81174285Y-60538866D02*
X81221904Y-60729342D01*
X81221904Y-60729342D02*
X81269523Y-60824580D01*
X81269523Y-60824580D02*
X81317142Y-60872200D01*
X81317142Y-60872200D02*
X81412380Y-60919819D01*
X81412380Y-60919819D02*
X81507618Y-60919819D01*
X81507618Y-60919819D02*
X81602856Y-60872200D01*
X81602856Y-60872200D02*
X81650475Y-60824580D01*
X81650475Y-60824580D02*
X81698094Y-60729342D01*
X81698094Y-60729342D02*
X81745713Y-60538866D01*
X81745713Y-60538866D02*
X81745713Y-60300771D01*
X81745713Y-60300771D02*
X81698094Y-60110295D01*
X81698094Y-60110295D02*
X81650475Y-60015057D01*
X81650475Y-60015057D02*
X81602856Y-59967438D01*
X81602856Y-59967438D02*
X81507618Y-59919819D01*
X80745713Y-60396009D02*
X80412380Y-60396009D01*
X80269523Y-60919819D02*
X80745713Y-60919819D01*
X80745713Y-60919819D02*
X80745713Y-59919819D01*
X80745713Y-59919819D02*
X80269523Y-59919819D01*
X76127319Y-90543095D02*
X76936842Y-90543095D01*
X76936842Y-90543095D02*
X77032080Y-90590714D01*
X77032080Y-90590714D02*
X77079700Y-90638333D01*
X77079700Y-90638333D02*
X77127319Y-90733571D01*
X77127319Y-90733571D02*
X77127319Y-90924047D01*
X77127319Y-90924047D02*
X77079700Y-91019285D01*
X77079700Y-91019285D02*
X77032080Y-91066904D01*
X77032080Y-91066904D02*
X76936842Y-91114523D01*
X76936842Y-91114523D02*
X76127319Y-91114523D01*
X76222557Y-91543095D02*
X76174938Y-91590714D01*
X76174938Y-91590714D02*
X76127319Y-91685952D01*
X76127319Y-91685952D02*
X76127319Y-91924047D01*
X76127319Y-91924047D02*
X76174938Y-92019285D01*
X76174938Y-92019285D02*
X76222557Y-92066904D01*
X76222557Y-92066904D02*
X76317795Y-92114523D01*
X76317795Y-92114523D02*
X76413033Y-92114523D01*
X76413033Y-92114523D02*
X76555890Y-92066904D01*
X76555890Y-92066904D02*
X77127319Y-91495476D01*
X77127319Y-91495476D02*
X77127319Y-92114523D01*
X64327319Y-88043095D02*
X64327319Y-88709761D01*
X64327319Y-88709761D02*
X65327319Y-88281190D01*
X64660652Y-89519285D02*
X65327319Y-89519285D01*
X64279700Y-89281190D02*
X64993985Y-89043095D01*
X64993985Y-89043095D02*
X64993985Y-89662142D01*
X65327319Y-90043095D02*
X64327319Y-90043095D01*
X64803509Y-90043095D02*
X64803509Y-90614523D01*
X65327319Y-90614523D02*
X64327319Y-90614523D01*
X65232080Y-91662142D02*
X65279700Y-91614523D01*
X65279700Y-91614523D02*
X65327319Y-91471666D01*
X65327319Y-91471666D02*
X65327319Y-91376428D01*
X65327319Y-91376428D02*
X65279700Y-91233571D01*
X65279700Y-91233571D02*
X65184461Y-91138333D01*
X65184461Y-91138333D02*
X65089223Y-91090714D01*
X65089223Y-91090714D02*
X64898747Y-91043095D01*
X64898747Y-91043095D02*
X64755890Y-91043095D01*
X64755890Y-91043095D02*
X64565414Y-91090714D01*
X64565414Y-91090714D02*
X64470176Y-91138333D01*
X64470176Y-91138333D02*
X64374938Y-91233571D01*
X64374938Y-91233571D02*
X64327319Y-91376428D01*
X64327319Y-91376428D02*
X64327319Y-91471666D01*
X64327319Y-91471666D02*
X64374938Y-91614523D01*
X64374938Y-91614523D02*
X64422557Y-91662142D01*
X64327319Y-92566904D02*
X64327319Y-92090714D01*
X64327319Y-92090714D02*
X64803509Y-92043095D01*
X64803509Y-92043095D02*
X64755890Y-92090714D01*
X64755890Y-92090714D02*
X64708271Y-92185952D01*
X64708271Y-92185952D02*
X64708271Y-92424047D01*
X64708271Y-92424047D02*
X64755890Y-92519285D01*
X64755890Y-92519285D02*
X64803509Y-92566904D01*
X64803509Y-92566904D02*
X64898747Y-92614523D01*
X64898747Y-92614523D02*
X65136842Y-92614523D01*
X65136842Y-92614523D02*
X65232080Y-92566904D01*
X65232080Y-92566904D02*
X65279700Y-92519285D01*
X65279700Y-92519285D02*
X65327319Y-92424047D01*
X65327319Y-92424047D02*
X65327319Y-92185952D01*
X65327319Y-92185952D02*
X65279700Y-92090714D01*
X65279700Y-92090714D02*
X65232080Y-92043095D01*
X65327319Y-93090714D02*
X65327319Y-93281190D01*
X65327319Y-93281190D02*
X65279700Y-93376428D01*
X65279700Y-93376428D02*
X65232080Y-93424047D01*
X65232080Y-93424047D02*
X65089223Y-93519285D01*
X65089223Y-93519285D02*
X64898747Y-93566904D01*
X64898747Y-93566904D02*
X64517795Y-93566904D01*
X64517795Y-93566904D02*
X64422557Y-93519285D01*
X64422557Y-93519285D02*
X64374938Y-93471666D01*
X64374938Y-93471666D02*
X64327319Y-93376428D01*
X64327319Y-93376428D02*
X64327319Y-93185952D01*
X64327319Y-93185952D02*
X64374938Y-93090714D01*
X64374938Y-93090714D02*
X64422557Y-93043095D01*
X64422557Y-93043095D02*
X64517795Y-92995476D01*
X64517795Y-92995476D02*
X64755890Y-92995476D01*
X64755890Y-92995476D02*
X64851128Y-93043095D01*
X64851128Y-93043095D02*
X64898747Y-93090714D01*
X64898747Y-93090714D02*
X64946366Y-93185952D01*
X64946366Y-93185952D02*
X64946366Y-93376428D01*
X64946366Y-93376428D02*
X64898747Y-93471666D01*
X64898747Y-93471666D02*
X64851128Y-93519285D01*
X64851128Y-93519285D02*
X64755890Y-93566904D01*
X64327319Y-94471666D02*
X64327319Y-93995476D01*
X64327319Y-93995476D02*
X64803509Y-93947857D01*
X64803509Y-93947857D02*
X64755890Y-93995476D01*
X64755890Y-93995476D02*
X64708271Y-94090714D01*
X64708271Y-94090714D02*
X64708271Y-94328809D01*
X64708271Y-94328809D02*
X64755890Y-94424047D01*
X64755890Y-94424047D02*
X64803509Y-94471666D01*
X64803509Y-94471666D02*
X64898747Y-94519285D01*
X64898747Y-94519285D02*
X65136842Y-94519285D01*
X65136842Y-94519285D02*
X65232080Y-94471666D01*
X65232080Y-94471666D02*
X65279700Y-94424047D01*
X65279700Y-94424047D02*
X65327319Y-94328809D01*
X65327319Y-94328809D02*
X65327319Y-94090714D01*
X65327319Y-94090714D02*
X65279700Y-93995476D01*
X65279700Y-93995476D02*
X65232080Y-93947857D01*
X49544285Y-53071104D02*
X49582381Y-53109200D01*
X49582381Y-53109200D02*
X49696666Y-53147295D01*
X49696666Y-53147295D02*
X49772857Y-53147295D01*
X49772857Y-53147295D02*
X49887143Y-53109200D01*
X49887143Y-53109200D02*
X49963333Y-53033009D01*
X49963333Y-53033009D02*
X50001428Y-52956819D01*
X50001428Y-52956819D02*
X50039524Y-52804438D01*
X50039524Y-52804438D02*
X50039524Y-52690152D01*
X50039524Y-52690152D02*
X50001428Y-52537771D01*
X50001428Y-52537771D02*
X49963333Y-52461580D01*
X49963333Y-52461580D02*
X49887143Y-52385390D01*
X49887143Y-52385390D02*
X49772857Y-52347295D01*
X49772857Y-52347295D02*
X49696666Y-52347295D01*
X49696666Y-52347295D02*
X49582381Y-52385390D01*
X49582381Y-52385390D02*
X49544285Y-52423485D01*
X48782381Y-53147295D02*
X49239524Y-53147295D01*
X49010952Y-53147295D02*
X49010952Y-52347295D01*
X49010952Y-52347295D02*
X49087143Y-52461580D01*
X49087143Y-52461580D02*
X49163333Y-52537771D01*
X49163333Y-52537771D02*
X49239524Y-52575866D01*
X48477619Y-52423485D02*
X48439523Y-52385390D01*
X48439523Y-52385390D02*
X48363333Y-52347295D01*
X48363333Y-52347295D02*
X48172857Y-52347295D01*
X48172857Y-52347295D02*
X48096666Y-52385390D01*
X48096666Y-52385390D02*
X48058571Y-52423485D01*
X48058571Y-52423485D02*
X48020476Y-52499676D01*
X48020476Y-52499676D02*
X48020476Y-52575866D01*
X48020476Y-52575866D02*
X48058571Y-52690152D01*
X48058571Y-52690152D02*
X48515714Y-53147295D01*
X48515714Y-53147295D02*
X48020476Y-53147295D01*
D15*
X59150474Y-56339809D02*
X59436188Y-56339809D01*
X59293331Y-56339809D02*
X59293331Y-55839809D01*
X59293331Y-55839809D02*
X59340950Y-55911238D01*
X59340950Y-55911238D02*
X59388569Y-55958857D01*
X59388569Y-55958857D02*
X59436188Y-55982666D01*
X58840951Y-55839809D02*
X58793332Y-55839809D01*
X58793332Y-55839809D02*
X58745713Y-55863619D01*
X58745713Y-55863619D02*
X58721903Y-55887428D01*
X58721903Y-55887428D02*
X58698094Y-55935047D01*
X58698094Y-55935047D02*
X58674284Y-56030285D01*
X58674284Y-56030285D02*
X58674284Y-56149333D01*
X58674284Y-56149333D02*
X58698094Y-56244571D01*
X58698094Y-56244571D02*
X58721903Y-56292190D01*
X58721903Y-56292190D02*
X58745713Y-56316000D01*
X58745713Y-56316000D02*
X58793332Y-56339809D01*
X58793332Y-56339809D02*
X58840951Y-56339809D01*
X58840951Y-56339809D02*
X58888570Y-56316000D01*
X58888570Y-56316000D02*
X58912379Y-56292190D01*
X58912379Y-56292190D02*
X58936189Y-56244571D01*
X58936189Y-56244571D02*
X58959998Y-56149333D01*
X58959998Y-56149333D02*
X58959998Y-56030285D01*
X58959998Y-56030285D02*
X58936189Y-55935047D01*
X58936189Y-55935047D02*
X58912379Y-55887428D01*
X58912379Y-55887428D02*
X58888570Y-55863619D01*
X58888570Y-55863619D02*
X58840951Y-55839809D01*
X58459999Y-56339809D02*
X58459999Y-56006476D01*
X58459999Y-56054095D02*
X58436189Y-56030285D01*
X58436189Y-56030285D02*
X58388570Y-56006476D01*
X58388570Y-56006476D02*
X58317142Y-56006476D01*
X58317142Y-56006476D02*
X58269523Y-56030285D01*
X58269523Y-56030285D02*
X58245713Y-56077904D01*
X58245713Y-56077904D02*
X58245713Y-56339809D01*
X58245713Y-56077904D02*
X58221904Y-56030285D01*
X58221904Y-56030285D02*
X58174285Y-56006476D01*
X58174285Y-56006476D02*
X58102856Y-56006476D01*
X58102856Y-56006476D02*
X58055237Y-56030285D01*
X58055237Y-56030285D02*
X58031427Y-56077904D01*
X58031427Y-56077904D02*
X58031427Y-56339809D01*
X57864760Y-56006476D02*
X57674284Y-56006476D01*
X57793332Y-56339809D02*
X57793332Y-55911238D01*
X57793332Y-55911238D02*
X57769522Y-55863619D01*
X57769522Y-55863619D02*
X57721903Y-55839809D01*
X57721903Y-55839809D02*
X57674284Y-55839809D01*
X57293332Y-56339809D02*
X57293332Y-55839809D01*
X57293332Y-56316000D02*
X57340951Y-56339809D01*
X57340951Y-56339809D02*
X57436189Y-56339809D01*
X57436189Y-56339809D02*
X57483808Y-56316000D01*
X57483808Y-56316000D02*
X57507618Y-56292190D01*
X57507618Y-56292190D02*
X57531427Y-56244571D01*
X57531427Y-56244571D02*
X57531427Y-56101714D01*
X57531427Y-56101714D02*
X57507618Y-56054095D01*
X57507618Y-56054095D02*
X57483808Y-56030285D01*
X57483808Y-56030285D02*
X57436189Y-56006476D01*
X57436189Y-56006476D02*
X57340951Y-56006476D01*
X57340951Y-56006476D02*
X57293332Y-56030285D01*
X57031427Y-56316000D02*
X57031427Y-56339809D01*
X57031427Y-56339809D02*
X57055237Y-56387428D01*
X57055237Y-56387428D02*
X57079046Y-56411238D01*
X56555237Y-56339809D02*
X56840951Y-56339809D01*
X56698094Y-56339809D02*
X56698094Y-55839809D01*
X56698094Y-55839809D02*
X56745713Y-55911238D01*
X56745713Y-55911238D02*
X56793332Y-55958857D01*
X56793332Y-55958857D02*
X56840951Y-55982666D01*
X56245714Y-55839809D02*
X56198095Y-55839809D01*
X56198095Y-55839809D02*
X56150476Y-55863619D01*
X56150476Y-55863619D02*
X56126666Y-55887428D01*
X56126666Y-55887428D02*
X56102857Y-55935047D01*
X56102857Y-55935047D02*
X56079047Y-56030285D01*
X56079047Y-56030285D02*
X56079047Y-56149333D01*
X56079047Y-56149333D02*
X56102857Y-56244571D01*
X56102857Y-56244571D02*
X56126666Y-56292190D01*
X56126666Y-56292190D02*
X56150476Y-56316000D01*
X56150476Y-56316000D02*
X56198095Y-56339809D01*
X56198095Y-56339809D02*
X56245714Y-56339809D01*
X56245714Y-56339809D02*
X56293333Y-56316000D01*
X56293333Y-56316000D02*
X56317142Y-56292190D01*
X56317142Y-56292190D02*
X56340952Y-56244571D01*
X56340952Y-56244571D02*
X56364761Y-56149333D01*
X56364761Y-56149333D02*
X56364761Y-56030285D01*
X56364761Y-56030285D02*
X56340952Y-55935047D01*
X56340952Y-55935047D02*
X56317142Y-55887428D01*
X56317142Y-55887428D02*
X56293333Y-55863619D01*
X56293333Y-55863619D02*
X56245714Y-55839809D01*
X55936190Y-55839809D02*
X55769524Y-56339809D01*
X55769524Y-56339809D02*
X55602857Y-55839809D01*
X55126667Y-56006476D02*
X54936191Y-56006476D01*
X55055239Y-55839809D02*
X55055239Y-56268380D01*
X55055239Y-56268380D02*
X55031429Y-56316000D01*
X55031429Y-56316000D02*
X54983810Y-56339809D01*
X54983810Y-56339809D02*
X54936191Y-56339809D01*
X54579049Y-56316000D02*
X54626668Y-56339809D01*
X54626668Y-56339809D02*
X54721906Y-56339809D01*
X54721906Y-56339809D02*
X54769525Y-56316000D01*
X54769525Y-56316000D02*
X54793334Y-56268380D01*
X54793334Y-56268380D02*
X54793334Y-56077904D01*
X54793334Y-56077904D02*
X54769525Y-56030285D01*
X54769525Y-56030285D02*
X54721906Y-56006476D01*
X54721906Y-56006476D02*
X54626668Y-56006476D01*
X54626668Y-56006476D02*
X54579049Y-56030285D01*
X54579049Y-56030285D02*
X54555239Y-56077904D01*
X54555239Y-56077904D02*
X54555239Y-56125523D01*
X54555239Y-56125523D02*
X54793334Y-56173142D01*
X54340954Y-56006476D02*
X54340954Y-56339809D01*
X54340954Y-56054095D02*
X54317144Y-56030285D01*
X54317144Y-56030285D02*
X54269525Y-56006476D01*
X54269525Y-56006476D02*
X54198097Y-56006476D01*
X54198097Y-56006476D02*
X54150478Y-56030285D01*
X54150478Y-56030285D02*
X54126668Y-56077904D01*
X54126668Y-56077904D02*
X54126668Y-56339809D01*
X53960001Y-56006476D02*
X53769525Y-56006476D01*
X53888573Y-55839809D02*
X53888573Y-56268380D01*
X53888573Y-56268380D02*
X53864763Y-56316000D01*
X53864763Y-56316000D02*
X53817144Y-56339809D01*
X53817144Y-56339809D02*
X53769525Y-56339809D01*
X53388573Y-56339809D02*
X53388573Y-56077904D01*
X53388573Y-56077904D02*
X53412383Y-56030285D01*
X53412383Y-56030285D02*
X53460002Y-56006476D01*
X53460002Y-56006476D02*
X53555240Y-56006476D01*
X53555240Y-56006476D02*
X53602859Y-56030285D01*
X53388573Y-56316000D02*
X53436192Y-56339809D01*
X53436192Y-56339809D02*
X53555240Y-56339809D01*
X53555240Y-56339809D02*
X53602859Y-56316000D01*
X53602859Y-56316000D02*
X53626668Y-56268380D01*
X53626668Y-56268380D02*
X53626668Y-56220761D01*
X53626668Y-56220761D02*
X53602859Y-56173142D01*
X53602859Y-56173142D02*
X53555240Y-56149333D01*
X53555240Y-56149333D02*
X53436192Y-56149333D01*
X53436192Y-56149333D02*
X53388573Y-56125523D01*
X53079049Y-56339809D02*
X53126668Y-56316000D01*
X53126668Y-56316000D02*
X53150478Y-56268380D01*
X53150478Y-56268380D02*
X53150478Y-55839809D01*
X52674287Y-56006476D02*
X52674287Y-56339809D01*
X52888573Y-56006476D02*
X52888573Y-56268380D01*
X52888573Y-56268380D02*
X52864763Y-56316000D01*
X52864763Y-56316000D02*
X52817144Y-56339809D01*
X52817144Y-56339809D02*
X52745716Y-56339809D01*
X52745716Y-56339809D02*
X52698097Y-56316000D01*
X52698097Y-56316000D02*
X52674287Y-56292190D01*
X52436192Y-56339809D02*
X52436192Y-56006476D01*
X52436192Y-56054095D02*
X52412382Y-56030285D01*
X52412382Y-56030285D02*
X52364763Y-56006476D01*
X52364763Y-56006476D02*
X52293335Y-56006476D01*
X52293335Y-56006476D02*
X52245716Y-56030285D01*
X52245716Y-56030285D02*
X52221906Y-56077904D01*
X52221906Y-56077904D02*
X52221906Y-56339809D01*
X52221906Y-56077904D02*
X52198097Y-56030285D01*
X52198097Y-56030285D02*
X52150478Y-56006476D01*
X52150478Y-56006476D02*
X52079049Y-56006476D01*
X52079049Y-56006476D02*
X52031430Y-56030285D01*
X52031430Y-56030285D02*
X52007620Y-56077904D01*
X52007620Y-56077904D02*
X52007620Y-56339809D01*
D14*
X58744819Y-101042142D02*
X58268628Y-100708809D01*
X58744819Y-100470714D02*
X57744819Y-100470714D01*
X57744819Y-100470714D02*
X57744819Y-100851666D01*
X57744819Y-100851666D02*
X57792438Y-100946904D01*
X57792438Y-100946904D02*
X57840057Y-100994523D01*
X57840057Y-100994523D02*
X57935295Y-101042142D01*
X57935295Y-101042142D02*
X58078152Y-101042142D01*
X58078152Y-101042142D02*
X58173390Y-100994523D01*
X58173390Y-100994523D02*
X58221009Y-100946904D01*
X58221009Y-100946904D02*
X58268628Y-100851666D01*
X58268628Y-100851666D02*
X58268628Y-100470714D01*
X58744819Y-101994523D02*
X58744819Y-101423095D01*
X58744819Y-101708809D02*
X57744819Y-101708809D01*
X57744819Y-101708809D02*
X57887676Y-101613571D01*
X57887676Y-101613571D02*
X57982914Y-101518333D01*
X57982914Y-101518333D02*
X58030533Y-101423095D01*
X57744819Y-102613571D02*
X57744819Y-102708809D01*
X57744819Y-102708809D02*
X57792438Y-102804047D01*
X57792438Y-102804047D02*
X57840057Y-102851666D01*
X57840057Y-102851666D02*
X57935295Y-102899285D01*
X57935295Y-102899285D02*
X58125771Y-102946904D01*
X58125771Y-102946904D02*
X58363866Y-102946904D01*
X58363866Y-102946904D02*
X58554342Y-102899285D01*
X58554342Y-102899285D02*
X58649580Y-102851666D01*
X58649580Y-102851666D02*
X58697200Y-102804047D01*
X58697200Y-102804047D02*
X58744819Y-102708809D01*
X58744819Y-102708809D02*
X58744819Y-102613571D01*
X58744819Y-102613571D02*
X58697200Y-102518333D01*
X58697200Y-102518333D02*
X58649580Y-102470714D01*
X58649580Y-102470714D02*
X58554342Y-102423095D01*
X58554342Y-102423095D02*
X58363866Y-102375476D01*
X58363866Y-102375476D02*
X58125771Y-102375476D01*
X58125771Y-102375476D02*
X57935295Y-102423095D01*
X57935295Y-102423095D02*
X57840057Y-102470714D01*
X57840057Y-102470714D02*
X57792438Y-102518333D01*
X57792438Y-102518333D02*
X57744819Y-102613571D01*
X61140057Y-100423095D02*
X61092438Y-100470714D01*
X61092438Y-100470714D02*
X61044819Y-100565952D01*
X61044819Y-100565952D02*
X61044819Y-100804047D01*
X61044819Y-100804047D02*
X61092438Y-100899285D01*
X61092438Y-100899285D02*
X61140057Y-100946904D01*
X61140057Y-100946904D02*
X61235295Y-100994523D01*
X61235295Y-100994523D02*
X61330533Y-100994523D01*
X61330533Y-100994523D02*
X61473390Y-100946904D01*
X61473390Y-100946904D02*
X62044819Y-100375476D01*
X62044819Y-100375476D02*
X62044819Y-100994523D01*
X61140057Y-101375476D02*
X61092438Y-101423095D01*
X61092438Y-101423095D02*
X61044819Y-101518333D01*
X61044819Y-101518333D02*
X61044819Y-101756428D01*
X61044819Y-101756428D02*
X61092438Y-101851666D01*
X61092438Y-101851666D02*
X61140057Y-101899285D01*
X61140057Y-101899285D02*
X61235295Y-101946904D01*
X61235295Y-101946904D02*
X61330533Y-101946904D01*
X61330533Y-101946904D02*
X61473390Y-101899285D01*
X61473390Y-101899285D02*
X62044819Y-101327857D01*
X62044819Y-101327857D02*
X62044819Y-101946904D01*
X62044819Y-102375476D02*
X61044819Y-102375476D01*
X62044819Y-102946904D02*
X61473390Y-102518333D01*
X61044819Y-102946904D02*
X61616247Y-102375476D01*
X42486666Y-104144580D02*
X42534285Y-104192200D01*
X42534285Y-104192200D02*
X42677142Y-104239819D01*
X42677142Y-104239819D02*
X42772380Y-104239819D01*
X42772380Y-104239819D02*
X42915237Y-104192200D01*
X42915237Y-104192200D02*
X43010475Y-104096961D01*
X43010475Y-104096961D02*
X43058094Y-104001723D01*
X43058094Y-104001723D02*
X43105713Y-103811247D01*
X43105713Y-103811247D02*
X43105713Y-103668390D01*
X43105713Y-103668390D02*
X43058094Y-103477914D01*
X43058094Y-103477914D02*
X43010475Y-103382676D01*
X43010475Y-103382676D02*
X42915237Y-103287438D01*
X42915237Y-103287438D02*
X42772380Y-103239819D01*
X42772380Y-103239819D02*
X42677142Y-103239819D01*
X42677142Y-103239819D02*
X42534285Y-103287438D01*
X42534285Y-103287438D02*
X42486666Y-103335057D01*
X41629523Y-103239819D02*
X41819999Y-103239819D01*
X41819999Y-103239819D02*
X41915237Y-103287438D01*
X41915237Y-103287438D02*
X41962856Y-103335057D01*
X41962856Y-103335057D02*
X42058094Y-103477914D01*
X42058094Y-103477914D02*
X42105713Y-103668390D01*
X42105713Y-103668390D02*
X42105713Y-104049342D01*
X42105713Y-104049342D02*
X42058094Y-104144580D01*
X42058094Y-104144580D02*
X42010475Y-104192200D01*
X42010475Y-104192200D02*
X41915237Y-104239819D01*
X41915237Y-104239819D02*
X41724761Y-104239819D01*
X41724761Y-104239819D02*
X41629523Y-104192200D01*
X41629523Y-104192200D02*
X41581904Y-104144580D01*
X41581904Y-104144580D02*
X41534285Y-104049342D01*
X41534285Y-104049342D02*
X41534285Y-103811247D01*
X41534285Y-103811247D02*
X41581904Y-103716009D01*
X41581904Y-103716009D02*
X41629523Y-103668390D01*
X41629523Y-103668390D02*
X41724761Y-103620771D01*
X41724761Y-103620771D02*
X41915237Y-103620771D01*
X41915237Y-103620771D02*
X42010475Y-103668390D01*
X42010475Y-103668390D02*
X42058094Y-103716009D01*
X42058094Y-103716009D02*
X42105713Y-103811247D01*
X44397619Y-109729819D02*
X44969047Y-109729819D01*
X44683333Y-109729819D02*
X44683333Y-108729819D01*
X44683333Y-108729819D02*
X44778571Y-108872676D01*
X44778571Y-108872676D02*
X44873809Y-108967914D01*
X44873809Y-108967914D02*
X44969047Y-109015533D01*
X43778571Y-108729819D02*
X43683333Y-108729819D01*
X43683333Y-108729819D02*
X43588095Y-108777438D01*
X43588095Y-108777438D02*
X43540476Y-108825057D01*
X43540476Y-108825057D02*
X43492857Y-108920295D01*
X43492857Y-108920295D02*
X43445238Y-109110771D01*
X43445238Y-109110771D02*
X43445238Y-109348866D01*
X43445238Y-109348866D02*
X43492857Y-109539342D01*
X43492857Y-109539342D02*
X43540476Y-109634580D01*
X43540476Y-109634580D02*
X43588095Y-109682200D01*
X43588095Y-109682200D02*
X43683333Y-109729819D01*
X43683333Y-109729819D02*
X43778571Y-109729819D01*
X43778571Y-109729819D02*
X43873809Y-109682200D01*
X43873809Y-109682200D02*
X43921428Y-109634580D01*
X43921428Y-109634580D02*
X43969047Y-109539342D01*
X43969047Y-109539342D02*
X44016666Y-109348866D01*
X44016666Y-109348866D02*
X44016666Y-109110771D01*
X44016666Y-109110771D02*
X43969047Y-108920295D01*
X43969047Y-108920295D02*
X43921428Y-108825057D01*
X43921428Y-108825057D02*
X43873809Y-108777438D01*
X43873809Y-108777438D02*
X43778571Y-108729819D01*
X42826190Y-108729819D02*
X42730952Y-108729819D01*
X42730952Y-108729819D02*
X42635714Y-108777438D01*
X42635714Y-108777438D02*
X42588095Y-108825057D01*
X42588095Y-108825057D02*
X42540476Y-108920295D01*
X42540476Y-108920295D02*
X42492857Y-109110771D01*
X42492857Y-109110771D02*
X42492857Y-109348866D01*
X42492857Y-109348866D02*
X42540476Y-109539342D01*
X42540476Y-109539342D02*
X42588095Y-109634580D01*
X42588095Y-109634580D02*
X42635714Y-109682200D01*
X42635714Y-109682200D02*
X42730952Y-109729819D01*
X42730952Y-109729819D02*
X42826190Y-109729819D01*
X42826190Y-109729819D02*
X42921428Y-109682200D01*
X42921428Y-109682200D02*
X42969047Y-109634580D01*
X42969047Y-109634580D02*
X43016666Y-109539342D01*
X43016666Y-109539342D02*
X43064285Y-109348866D01*
X43064285Y-109348866D02*
X43064285Y-109110771D01*
X43064285Y-109110771D02*
X43016666Y-108920295D01*
X43016666Y-108920295D02*
X42969047Y-108825057D01*
X42969047Y-108825057D02*
X42921428Y-108777438D01*
X42921428Y-108777438D02*
X42826190Y-108729819D01*
X42064285Y-109063152D02*
X42064285Y-109729819D01*
X42064285Y-109158390D02*
X42016666Y-109110771D01*
X42016666Y-109110771D02*
X41921428Y-109063152D01*
X41921428Y-109063152D02*
X41778571Y-109063152D01*
X41778571Y-109063152D02*
X41683333Y-109110771D01*
X41683333Y-109110771D02*
X41635714Y-109206009D01*
X41635714Y-109206009D02*
X41635714Y-109729819D01*
X40826190Y-109206009D02*
X41159523Y-109206009D01*
X41159523Y-109729819D02*
X41159523Y-108729819D01*
X41159523Y-108729819D02*
X40683333Y-108729819D01*
X81634819Y-101578333D02*
X81158628Y-101245000D01*
X81634819Y-101006905D02*
X80634819Y-101006905D01*
X80634819Y-101006905D02*
X80634819Y-101387857D01*
X80634819Y-101387857D02*
X80682438Y-101483095D01*
X80682438Y-101483095D02*
X80730057Y-101530714D01*
X80730057Y-101530714D02*
X80825295Y-101578333D01*
X80825295Y-101578333D02*
X80968152Y-101578333D01*
X80968152Y-101578333D02*
X81063390Y-101530714D01*
X81063390Y-101530714D02*
X81111009Y-101483095D01*
X81111009Y-101483095D02*
X81158628Y-101387857D01*
X81158628Y-101387857D02*
X81158628Y-101006905D01*
X80634819Y-101911667D02*
X80634819Y-102530714D01*
X80634819Y-102530714D02*
X81015771Y-102197381D01*
X81015771Y-102197381D02*
X81015771Y-102340238D01*
X81015771Y-102340238D02*
X81063390Y-102435476D01*
X81063390Y-102435476D02*
X81111009Y-102483095D01*
X81111009Y-102483095D02*
X81206247Y-102530714D01*
X81206247Y-102530714D02*
X81444342Y-102530714D01*
X81444342Y-102530714D02*
X81539580Y-102483095D01*
X81539580Y-102483095D02*
X81587200Y-102435476D01*
X81587200Y-102435476D02*
X81634819Y-102340238D01*
X81634819Y-102340238D02*
X81634819Y-102054524D01*
X81634819Y-102054524D02*
X81587200Y-101959286D01*
X81587200Y-101959286D02*
X81539580Y-101911667D01*
X84030057Y-100483095D02*
X83982438Y-100530714D01*
X83982438Y-100530714D02*
X83934819Y-100625952D01*
X83934819Y-100625952D02*
X83934819Y-100864047D01*
X83934819Y-100864047D02*
X83982438Y-100959285D01*
X83982438Y-100959285D02*
X84030057Y-101006904D01*
X84030057Y-101006904D02*
X84125295Y-101054523D01*
X84125295Y-101054523D02*
X84220533Y-101054523D01*
X84220533Y-101054523D02*
X84363390Y-101006904D01*
X84363390Y-101006904D02*
X84934819Y-100435476D01*
X84934819Y-100435476D02*
X84934819Y-101054523D01*
X84030057Y-101435476D02*
X83982438Y-101483095D01*
X83982438Y-101483095D02*
X83934819Y-101578333D01*
X83934819Y-101578333D02*
X83934819Y-101816428D01*
X83934819Y-101816428D02*
X83982438Y-101911666D01*
X83982438Y-101911666D02*
X84030057Y-101959285D01*
X84030057Y-101959285D02*
X84125295Y-102006904D01*
X84125295Y-102006904D02*
X84220533Y-102006904D01*
X84220533Y-102006904D02*
X84363390Y-101959285D01*
X84363390Y-101959285D02*
X84934819Y-101387857D01*
X84934819Y-101387857D02*
X84934819Y-102006904D01*
X84934819Y-102435476D02*
X83934819Y-102435476D01*
X84934819Y-103006904D02*
X84363390Y-102578333D01*
X83934819Y-103006904D02*
X84506247Y-102435476D01*
X74124819Y-101002142D02*
X73648628Y-100668809D01*
X74124819Y-100430714D02*
X73124819Y-100430714D01*
X73124819Y-100430714D02*
X73124819Y-100811666D01*
X73124819Y-100811666D02*
X73172438Y-100906904D01*
X73172438Y-100906904D02*
X73220057Y-100954523D01*
X73220057Y-100954523D02*
X73315295Y-101002142D01*
X73315295Y-101002142D02*
X73458152Y-101002142D01*
X73458152Y-101002142D02*
X73553390Y-100954523D01*
X73553390Y-100954523D02*
X73601009Y-100906904D01*
X73601009Y-100906904D02*
X73648628Y-100811666D01*
X73648628Y-100811666D02*
X73648628Y-100430714D01*
X74124819Y-101954523D02*
X74124819Y-101383095D01*
X74124819Y-101668809D02*
X73124819Y-101668809D01*
X73124819Y-101668809D02*
X73267676Y-101573571D01*
X73267676Y-101573571D02*
X73362914Y-101478333D01*
X73362914Y-101478333D02*
X73410533Y-101383095D01*
X73124819Y-102859285D02*
X73124819Y-102383095D01*
X73124819Y-102383095D02*
X73601009Y-102335476D01*
X73601009Y-102335476D02*
X73553390Y-102383095D01*
X73553390Y-102383095D02*
X73505771Y-102478333D01*
X73505771Y-102478333D02*
X73505771Y-102716428D01*
X73505771Y-102716428D02*
X73553390Y-102811666D01*
X73553390Y-102811666D02*
X73601009Y-102859285D01*
X73601009Y-102859285D02*
X73696247Y-102906904D01*
X73696247Y-102906904D02*
X73934342Y-102906904D01*
X73934342Y-102906904D02*
X74029580Y-102859285D01*
X74029580Y-102859285D02*
X74077200Y-102811666D01*
X74077200Y-102811666D02*
X74124819Y-102716428D01*
X74124819Y-102716428D02*
X74124819Y-102478333D01*
X74124819Y-102478333D02*
X74077200Y-102383095D01*
X74077200Y-102383095D02*
X74029580Y-102335476D01*
X76520057Y-100383095D02*
X76472438Y-100430714D01*
X76472438Y-100430714D02*
X76424819Y-100525952D01*
X76424819Y-100525952D02*
X76424819Y-100764047D01*
X76424819Y-100764047D02*
X76472438Y-100859285D01*
X76472438Y-100859285D02*
X76520057Y-100906904D01*
X76520057Y-100906904D02*
X76615295Y-100954523D01*
X76615295Y-100954523D02*
X76710533Y-100954523D01*
X76710533Y-100954523D02*
X76853390Y-100906904D01*
X76853390Y-100906904D02*
X77424819Y-100335476D01*
X77424819Y-100335476D02*
X77424819Y-100954523D01*
X76520057Y-101335476D02*
X76472438Y-101383095D01*
X76472438Y-101383095D02*
X76424819Y-101478333D01*
X76424819Y-101478333D02*
X76424819Y-101716428D01*
X76424819Y-101716428D02*
X76472438Y-101811666D01*
X76472438Y-101811666D02*
X76520057Y-101859285D01*
X76520057Y-101859285D02*
X76615295Y-101906904D01*
X76615295Y-101906904D02*
X76710533Y-101906904D01*
X76710533Y-101906904D02*
X76853390Y-101859285D01*
X76853390Y-101859285D02*
X77424819Y-101287857D01*
X77424819Y-101287857D02*
X77424819Y-101906904D01*
X77424819Y-102335476D02*
X76424819Y-102335476D01*
X77424819Y-102906904D02*
X76853390Y-102478333D01*
X76424819Y-102906904D02*
X76996247Y-102335476D01*
X52269819Y-106941905D02*
X53079342Y-106941905D01*
X53079342Y-106941905D02*
X53174580Y-106989524D01*
X53174580Y-106989524D02*
X53222200Y-107037143D01*
X53222200Y-107037143D02*
X53269819Y-107132381D01*
X53269819Y-107132381D02*
X53269819Y-107322857D01*
X53269819Y-107322857D02*
X53222200Y-107418095D01*
X53222200Y-107418095D02*
X53174580Y-107465714D01*
X53174580Y-107465714D02*
X53079342Y-107513333D01*
X53079342Y-107513333D02*
X52269819Y-107513333D01*
X53269819Y-108513333D02*
X53269819Y-107941905D01*
X53269819Y-108227619D02*
X52269819Y-108227619D01*
X52269819Y-108227619D02*
X52412676Y-108132381D01*
X52412676Y-108132381D02*
X52507914Y-108037143D01*
X52507914Y-108037143D02*
X52555533Y-107941905D01*
X52269819Y-109132381D02*
X52269819Y-109227619D01*
X52269819Y-109227619D02*
X52317438Y-109322857D01*
X52317438Y-109322857D02*
X52365057Y-109370476D01*
X52365057Y-109370476D02*
X52460295Y-109418095D01*
X52460295Y-109418095D02*
X52650771Y-109465714D01*
X52650771Y-109465714D02*
X52888866Y-109465714D01*
X52888866Y-109465714D02*
X53079342Y-109418095D01*
X53079342Y-109418095D02*
X53174580Y-109370476D01*
X53174580Y-109370476D02*
X53222200Y-109322857D01*
X53222200Y-109322857D02*
X53269819Y-109227619D01*
X53269819Y-109227619D02*
X53269819Y-109132381D01*
X53269819Y-109132381D02*
X53222200Y-109037143D01*
X53222200Y-109037143D02*
X53174580Y-108989524D01*
X53174580Y-108989524D02*
X53079342Y-108941905D01*
X53079342Y-108941905D02*
X52888866Y-108894286D01*
X52888866Y-108894286D02*
X52650771Y-108894286D01*
X52650771Y-108894286D02*
X52460295Y-108941905D01*
X52460295Y-108941905D02*
X52365057Y-108989524D01*
X52365057Y-108989524D02*
X52317438Y-109037143D01*
X52317438Y-109037143D02*
X52269819Y-109132381D01*
X58866667Y-113271033D02*
X58866667Y-112571033D01*
X58866667Y-112571033D02*
X58700000Y-112571033D01*
X58700000Y-112571033D02*
X58600000Y-112604366D01*
X58600000Y-112604366D02*
X58533334Y-112671033D01*
X58533334Y-112671033D02*
X58500000Y-112737700D01*
X58500000Y-112737700D02*
X58466667Y-112871033D01*
X58466667Y-112871033D02*
X58466667Y-112971033D01*
X58466667Y-112971033D02*
X58500000Y-113104366D01*
X58500000Y-113104366D02*
X58533334Y-113171033D01*
X58533334Y-113171033D02*
X58600000Y-113237700D01*
X58600000Y-113237700D02*
X58700000Y-113271033D01*
X58700000Y-113271033D02*
X58866667Y-113271033D01*
X57766667Y-113271033D02*
X58000000Y-112937700D01*
X58166667Y-113271033D02*
X58166667Y-112571033D01*
X58166667Y-112571033D02*
X57900000Y-112571033D01*
X57900000Y-112571033D02*
X57833334Y-112604366D01*
X57833334Y-112604366D02*
X57800000Y-112637700D01*
X57800000Y-112637700D02*
X57766667Y-112704366D01*
X57766667Y-112704366D02*
X57766667Y-112804366D01*
X57766667Y-112804366D02*
X57800000Y-112871033D01*
X57800000Y-112871033D02*
X57833334Y-112904366D01*
X57833334Y-112904366D02*
X57900000Y-112937700D01*
X57900000Y-112937700D02*
X58166667Y-112937700D01*
X57566667Y-112571033D02*
X57333334Y-113271033D01*
X57333334Y-113271033D02*
X57100000Y-112571033D01*
X56766667Y-112871033D02*
X56833334Y-112837700D01*
X56833334Y-112837700D02*
X56866667Y-112804366D01*
X56866667Y-112804366D02*
X56900000Y-112737700D01*
X56900000Y-112737700D02*
X56900000Y-112704366D01*
X56900000Y-112704366D02*
X56866667Y-112637700D01*
X56866667Y-112637700D02*
X56833334Y-112604366D01*
X56833334Y-112604366D02*
X56766667Y-112571033D01*
X56766667Y-112571033D02*
X56633334Y-112571033D01*
X56633334Y-112571033D02*
X56566667Y-112604366D01*
X56566667Y-112604366D02*
X56533334Y-112637700D01*
X56533334Y-112637700D02*
X56500000Y-112704366D01*
X56500000Y-112704366D02*
X56500000Y-112737700D01*
X56500000Y-112737700D02*
X56533334Y-112804366D01*
X56533334Y-112804366D02*
X56566667Y-112837700D01*
X56566667Y-112837700D02*
X56633334Y-112871033D01*
X56633334Y-112871033D02*
X56766667Y-112871033D01*
X56766667Y-112871033D02*
X56833334Y-112904366D01*
X56833334Y-112904366D02*
X56866667Y-112937700D01*
X56866667Y-112937700D02*
X56900000Y-113004366D01*
X56900000Y-113004366D02*
X56900000Y-113137700D01*
X56900000Y-113137700D02*
X56866667Y-113204366D01*
X56866667Y-113204366D02*
X56833334Y-113237700D01*
X56833334Y-113237700D02*
X56766667Y-113271033D01*
X56766667Y-113271033D02*
X56633334Y-113271033D01*
X56633334Y-113271033D02*
X56566667Y-113237700D01*
X56566667Y-113237700D02*
X56533334Y-113204366D01*
X56533334Y-113204366D02*
X56500000Y-113137700D01*
X56500000Y-113137700D02*
X56500000Y-113004366D01*
X56500000Y-113004366D02*
X56533334Y-112937700D01*
X56533334Y-112937700D02*
X56566667Y-112904366D01*
X56566667Y-112904366D02*
X56633334Y-112871033D01*
X56100000Y-112871033D02*
X56166667Y-112837700D01*
X56166667Y-112837700D02*
X56200000Y-112804366D01*
X56200000Y-112804366D02*
X56233333Y-112737700D01*
X56233333Y-112737700D02*
X56233333Y-112704366D01*
X56233333Y-112704366D02*
X56200000Y-112637700D01*
X56200000Y-112637700D02*
X56166667Y-112604366D01*
X56166667Y-112604366D02*
X56100000Y-112571033D01*
X56100000Y-112571033D02*
X55966667Y-112571033D01*
X55966667Y-112571033D02*
X55900000Y-112604366D01*
X55900000Y-112604366D02*
X55866667Y-112637700D01*
X55866667Y-112637700D02*
X55833333Y-112704366D01*
X55833333Y-112704366D02*
X55833333Y-112737700D01*
X55833333Y-112737700D02*
X55866667Y-112804366D01*
X55866667Y-112804366D02*
X55900000Y-112837700D01*
X55900000Y-112837700D02*
X55966667Y-112871033D01*
X55966667Y-112871033D02*
X56100000Y-112871033D01*
X56100000Y-112871033D02*
X56166667Y-112904366D01*
X56166667Y-112904366D02*
X56200000Y-112937700D01*
X56200000Y-112937700D02*
X56233333Y-113004366D01*
X56233333Y-113004366D02*
X56233333Y-113137700D01*
X56233333Y-113137700D02*
X56200000Y-113204366D01*
X56200000Y-113204366D02*
X56166667Y-113237700D01*
X56166667Y-113237700D02*
X56100000Y-113271033D01*
X56100000Y-113271033D02*
X55966667Y-113271033D01*
X55966667Y-113271033D02*
X55900000Y-113237700D01*
X55900000Y-113237700D02*
X55866667Y-113204366D01*
X55866667Y-113204366D02*
X55833333Y-113137700D01*
X55833333Y-113137700D02*
X55833333Y-113004366D01*
X55833333Y-113004366D02*
X55866667Y-112937700D01*
X55866667Y-112937700D02*
X55900000Y-112904366D01*
X55900000Y-112904366D02*
X55966667Y-112871033D01*
X55600000Y-112571033D02*
X55133333Y-112571033D01*
X55133333Y-112571033D02*
X55433333Y-113271033D01*
X54499999Y-113271033D02*
X54899999Y-113271033D01*
X54699999Y-113271033D02*
X54699999Y-112571033D01*
X54699999Y-112571033D02*
X54766666Y-112671033D01*
X54766666Y-112671033D02*
X54833333Y-112737700D01*
X54833333Y-112737700D02*
X54899999Y-112771033D01*
X54199999Y-113271033D02*
X54199999Y-112571033D01*
X54199999Y-112571033D02*
X54033332Y-112571033D01*
X54033332Y-112571033D02*
X53933332Y-112604366D01*
X53933332Y-112604366D02*
X53866666Y-112671033D01*
X53866666Y-112671033D02*
X53833332Y-112737700D01*
X53833332Y-112737700D02*
X53799999Y-112871033D01*
X53799999Y-112871033D02*
X53799999Y-112971033D01*
X53799999Y-112971033D02*
X53833332Y-113104366D01*
X53833332Y-113104366D02*
X53866666Y-113171033D01*
X53866666Y-113171033D02*
X53933332Y-113237700D01*
X53933332Y-113237700D02*
X54033332Y-113271033D01*
X54033332Y-113271033D02*
X54199999Y-113271033D01*
X53499999Y-113271033D02*
X53499999Y-112571033D01*
X53499999Y-112571033D02*
X53333332Y-112571033D01*
X53333332Y-112571033D02*
X53233332Y-112604366D01*
X53233332Y-112604366D02*
X53166666Y-112671033D01*
X53166666Y-112671033D02*
X53133332Y-112737700D01*
X53133332Y-112737700D02*
X53099999Y-112871033D01*
X53099999Y-112871033D02*
X53099999Y-112971033D01*
X53099999Y-112971033D02*
X53133332Y-113104366D01*
X53133332Y-113104366D02*
X53166666Y-113171033D01*
X53166666Y-113171033D02*
X53233332Y-113237700D01*
X53233332Y-113237700D02*
X53333332Y-113271033D01*
X53333332Y-113271033D02*
X53499999Y-113271033D01*
X52833332Y-113071033D02*
X52499999Y-113071033D01*
X52899999Y-113271033D02*
X52666666Y-112571033D01*
X52666666Y-112571033D02*
X52433332Y-113271033D01*
X37718094Y-101039819D02*
X37718094Y-101849342D01*
X37718094Y-101849342D02*
X37670475Y-101944580D01*
X37670475Y-101944580D02*
X37622856Y-101992200D01*
X37622856Y-101992200D02*
X37527618Y-102039819D01*
X37527618Y-102039819D02*
X37337142Y-102039819D01*
X37337142Y-102039819D02*
X37241904Y-101992200D01*
X37241904Y-101992200D02*
X37194285Y-101944580D01*
X37194285Y-101944580D02*
X37146666Y-101849342D01*
X37146666Y-101849342D02*
X37146666Y-101039819D01*
X36146666Y-102039819D02*
X36718094Y-102039819D01*
X36432380Y-102039819D02*
X36432380Y-101039819D01*
X36432380Y-101039819D02*
X36527618Y-101182676D01*
X36527618Y-101182676D02*
X36622856Y-101277914D01*
X36622856Y-101277914D02*
X36718094Y-101325533D01*
X35813332Y-101039819D02*
X35194285Y-101039819D01*
X35194285Y-101039819D02*
X35527618Y-101420771D01*
X35527618Y-101420771D02*
X35384761Y-101420771D01*
X35384761Y-101420771D02*
X35289523Y-101468390D01*
X35289523Y-101468390D02*
X35241904Y-101516009D01*
X35241904Y-101516009D02*
X35194285Y-101611247D01*
X35194285Y-101611247D02*
X35194285Y-101849342D01*
X35194285Y-101849342D02*
X35241904Y-101944580D01*
X35241904Y-101944580D02*
X35289523Y-101992200D01*
X35289523Y-101992200D02*
X35384761Y-102039819D01*
X35384761Y-102039819D02*
X35670475Y-102039819D01*
X35670475Y-102039819D02*
X35765713Y-101992200D01*
X35765713Y-101992200D02*
X35813332Y-101944580D01*
X41692499Y-100284104D02*
X41216309Y-100284104D01*
X41787737Y-100569819D02*
X41454404Y-99569819D01*
X41454404Y-99569819D02*
X41121071Y-100569819D01*
X40787737Y-100569819D02*
X40787737Y-99569819D01*
X40787737Y-99569819D02*
X40454404Y-100284104D01*
X40454404Y-100284104D02*
X40121071Y-99569819D01*
X40121071Y-99569819D02*
X40121071Y-100569819D01*
X39692499Y-100522200D02*
X39549642Y-100569819D01*
X39549642Y-100569819D02*
X39311547Y-100569819D01*
X39311547Y-100569819D02*
X39216309Y-100522200D01*
X39216309Y-100522200D02*
X39168690Y-100474580D01*
X39168690Y-100474580D02*
X39121071Y-100379342D01*
X39121071Y-100379342D02*
X39121071Y-100284104D01*
X39121071Y-100284104D02*
X39168690Y-100188866D01*
X39168690Y-100188866D02*
X39216309Y-100141247D01*
X39216309Y-100141247D02*
X39311547Y-100093628D01*
X39311547Y-100093628D02*
X39502023Y-100046009D01*
X39502023Y-100046009D02*
X39597261Y-99998390D01*
X39597261Y-99998390D02*
X39644880Y-99950771D01*
X39644880Y-99950771D02*
X39692499Y-99855533D01*
X39692499Y-99855533D02*
X39692499Y-99760295D01*
X39692499Y-99760295D02*
X39644880Y-99665057D01*
X39644880Y-99665057D02*
X39597261Y-99617438D01*
X39597261Y-99617438D02*
X39502023Y-99569819D01*
X39502023Y-99569819D02*
X39263928Y-99569819D01*
X39263928Y-99569819D02*
X39121071Y-99617438D01*
X38168690Y-100569819D02*
X38740118Y-100569819D01*
X38454404Y-100569819D02*
X38454404Y-99569819D01*
X38454404Y-99569819D02*
X38549642Y-99712676D01*
X38549642Y-99712676D02*
X38644880Y-99807914D01*
X38644880Y-99807914D02*
X38740118Y-99855533D01*
X37216309Y-100569819D02*
X37787737Y-100569819D01*
X37502023Y-100569819D02*
X37502023Y-99569819D01*
X37502023Y-99569819D02*
X37597261Y-99712676D01*
X37597261Y-99712676D02*
X37692499Y-99807914D01*
X37692499Y-99807914D02*
X37787737Y-99855533D01*
X36263928Y-100569819D02*
X36835356Y-100569819D01*
X36549642Y-100569819D02*
X36549642Y-99569819D01*
X36549642Y-99569819D02*
X36644880Y-99712676D01*
X36644880Y-99712676D02*
X36740118Y-99807914D01*
X36740118Y-99807914D02*
X36835356Y-99855533D01*
X35930594Y-99569819D02*
X35263928Y-99569819D01*
X35263928Y-99569819D02*
X35692499Y-100569819D01*
X34882975Y-100188866D02*
X34121071Y-100188866D01*
X33168690Y-99569819D02*
X33644880Y-99569819D01*
X33644880Y-99569819D02*
X33692499Y-100046009D01*
X33692499Y-100046009D02*
X33644880Y-99998390D01*
X33644880Y-99998390D02*
X33549642Y-99950771D01*
X33549642Y-99950771D02*
X33311547Y-99950771D01*
X33311547Y-99950771D02*
X33216309Y-99998390D01*
X33216309Y-99998390D02*
X33168690Y-100046009D01*
X33168690Y-100046009D02*
X33121071Y-100141247D01*
X33121071Y-100141247D02*
X33121071Y-100379342D01*
X33121071Y-100379342D02*
X33168690Y-100474580D01*
X33168690Y-100474580D02*
X33216309Y-100522200D01*
X33216309Y-100522200D02*
X33311547Y-100569819D01*
X33311547Y-100569819D02*
X33549642Y-100569819D01*
X33549642Y-100569819D02*
X33644880Y-100522200D01*
X33644880Y-100522200D02*
X33692499Y-100474580D01*
X32692499Y-100474580D02*
X32644880Y-100522200D01*
X32644880Y-100522200D02*
X32692499Y-100569819D01*
X32692499Y-100569819D02*
X32740118Y-100522200D01*
X32740118Y-100522200D02*
X32692499Y-100474580D01*
X32692499Y-100474580D02*
X32692499Y-100569819D01*
X32025833Y-99569819D02*
X31930595Y-99569819D01*
X31930595Y-99569819D02*
X31835357Y-99617438D01*
X31835357Y-99617438D02*
X31787738Y-99665057D01*
X31787738Y-99665057D02*
X31740119Y-99760295D01*
X31740119Y-99760295D02*
X31692500Y-99950771D01*
X31692500Y-99950771D02*
X31692500Y-100188866D01*
X31692500Y-100188866D02*
X31740119Y-100379342D01*
X31740119Y-100379342D02*
X31787738Y-100474580D01*
X31787738Y-100474580D02*
X31835357Y-100522200D01*
X31835357Y-100522200D02*
X31930595Y-100569819D01*
X31930595Y-100569819D02*
X32025833Y-100569819D01*
X32025833Y-100569819D02*
X32121071Y-100522200D01*
X32121071Y-100522200D02*
X32168690Y-100474580D01*
X32168690Y-100474580D02*
X32216309Y-100379342D01*
X32216309Y-100379342D02*
X32263928Y-100188866D01*
X32263928Y-100188866D02*
X32263928Y-99950771D01*
X32263928Y-99950771D02*
X32216309Y-99760295D01*
X32216309Y-99760295D02*
X32168690Y-99665057D01*
X32168690Y-99665057D02*
X32121071Y-99617438D01*
X32121071Y-99617438D02*
X32025833Y-99569819D01*
X61362857Y-80519819D02*
X61696190Y-80043628D01*
X61934285Y-80519819D02*
X61934285Y-79519819D01*
X61934285Y-79519819D02*
X61553333Y-79519819D01*
X61553333Y-79519819D02*
X61458095Y-79567438D01*
X61458095Y-79567438D02*
X61410476Y-79615057D01*
X61410476Y-79615057D02*
X61362857Y-79710295D01*
X61362857Y-79710295D02*
X61362857Y-79853152D01*
X61362857Y-79853152D02*
X61410476Y-79948390D01*
X61410476Y-79948390D02*
X61458095Y-79996009D01*
X61458095Y-79996009D02*
X61553333Y-80043628D01*
X61553333Y-80043628D02*
X61934285Y-80043628D01*
X60410476Y-80519819D02*
X60981904Y-80519819D01*
X60696190Y-80519819D02*
X60696190Y-79519819D01*
X60696190Y-79519819D02*
X60791428Y-79662676D01*
X60791428Y-79662676D02*
X60886666Y-79757914D01*
X60886666Y-79757914D02*
X60981904Y-79805533D01*
X60077142Y-79519819D02*
X59458095Y-79519819D01*
X59458095Y-79519819D02*
X59791428Y-79900771D01*
X59791428Y-79900771D02*
X59648571Y-79900771D01*
X59648571Y-79900771D02*
X59553333Y-79948390D01*
X59553333Y-79948390D02*
X59505714Y-79996009D01*
X59505714Y-79996009D02*
X59458095Y-80091247D01*
X59458095Y-80091247D02*
X59458095Y-80329342D01*
X59458095Y-80329342D02*
X59505714Y-80424580D01*
X59505714Y-80424580D02*
X59553333Y-80472200D01*
X59553333Y-80472200D02*
X59648571Y-80519819D01*
X59648571Y-80519819D02*
X59934285Y-80519819D01*
X59934285Y-80519819D02*
X60029523Y-80472200D01*
X60029523Y-80472200D02*
X60077142Y-80424580D01*
X64510476Y-78799819D02*
X65081904Y-78799819D01*
X64796190Y-78799819D02*
X64796190Y-77799819D01*
X64796190Y-77799819D02*
X64891428Y-77942676D01*
X64891428Y-77942676D02*
X64986666Y-78037914D01*
X64986666Y-78037914D02*
X65081904Y-78085533D01*
X63891428Y-77799819D02*
X63796190Y-77799819D01*
X63796190Y-77799819D02*
X63700952Y-77847438D01*
X63700952Y-77847438D02*
X63653333Y-77895057D01*
X63653333Y-77895057D02*
X63605714Y-77990295D01*
X63605714Y-77990295D02*
X63558095Y-78180771D01*
X63558095Y-78180771D02*
X63558095Y-78418866D01*
X63558095Y-78418866D02*
X63605714Y-78609342D01*
X63605714Y-78609342D02*
X63653333Y-78704580D01*
X63653333Y-78704580D02*
X63700952Y-78752200D01*
X63700952Y-78752200D02*
X63796190Y-78799819D01*
X63796190Y-78799819D02*
X63891428Y-78799819D01*
X63891428Y-78799819D02*
X63986666Y-78752200D01*
X63986666Y-78752200D02*
X64034285Y-78704580D01*
X64034285Y-78704580D02*
X64081904Y-78609342D01*
X64081904Y-78609342D02*
X64129523Y-78418866D01*
X64129523Y-78418866D02*
X64129523Y-78180771D01*
X64129523Y-78180771D02*
X64081904Y-77990295D01*
X64081904Y-77990295D02*
X64034285Y-77895057D01*
X64034285Y-77895057D02*
X63986666Y-77847438D01*
X63986666Y-77847438D02*
X63891428Y-77799819D01*
X63129523Y-78799819D02*
X63129523Y-77799819D01*
X62558095Y-78799819D02*
X62986666Y-78228390D01*
X62558095Y-77799819D02*
X63129523Y-78371247D01*
X40112857Y-57134580D02*
X40160476Y-57182200D01*
X40160476Y-57182200D02*
X40303333Y-57229819D01*
X40303333Y-57229819D02*
X40398571Y-57229819D01*
X40398571Y-57229819D02*
X40541428Y-57182200D01*
X40541428Y-57182200D02*
X40636666Y-57086961D01*
X40636666Y-57086961D02*
X40684285Y-56991723D01*
X40684285Y-56991723D02*
X40731904Y-56801247D01*
X40731904Y-56801247D02*
X40731904Y-56658390D01*
X40731904Y-56658390D02*
X40684285Y-56467914D01*
X40684285Y-56467914D02*
X40636666Y-56372676D01*
X40636666Y-56372676D02*
X40541428Y-56277438D01*
X40541428Y-56277438D02*
X40398571Y-56229819D01*
X40398571Y-56229819D02*
X40303333Y-56229819D01*
X40303333Y-56229819D02*
X40160476Y-56277438D01*
X40160476Y-56277438D02*
X40112857Y-56325057D01*
X39160476Y-57229819D02*
X39731904Y-57229819D01*
X39446190Y-57229819D02*
X39446190Y-56229819D01*
X39446190Y-56229819D02*
X39541428Y-56372676D01*
X39541428Y-56372676D02*
X39636666Y-56467914D01*
X39636666Y-56467914D02*
X39731904Y-56515533D01*
X38541428Y-56229819D02*
X38446190Y-56229819D01*
X38446190Y-56229819D02*
X38350952Y-56277438D01*
X38350952Y-56277438D02*
X38303333Y-56325057D01*
X38303333Y-56325057D02*
X38255714Y-56420295D01*
X38255714Y-56420295D02*
X38208095Y-56610771D01*
X38208095Y-56610771D02*
X38208095Y-56848866D01*
X38208095Y-56848866D02*
X38255714Y-57039342D01*
X38255714Y-57039342D02*
X38303333Y-57134580D01*
X38303333Y-57134580D02*
X38350952Y-57182200D01*
X38350952Y-57182200D02*
X38446190Y-57229819D01*
X38446190Y-57229819D02*
X38541428Y-57229819D01*
X38541428Y-57229819D02*
X38636666Y-57182200D01*
X38636666Y-57182200D02*
X38684285Y-57134580D01*
X38684285Y-57134580D02*
X38731904Y-57039342D01*
X38731904Y-57039342D02*
X38779523Y-56848866D01*
X38779523Y-56848866D02*
X38779523Y-56610771D01*
X38779523Y-56610771D02*
X38731904Y-56420295D01*
X38731904Y-56420295D02*
X38684285Y-56325057D01*
X38684285Y-56325057D02*
X38636666Y-56277438D01*
X38636666Y-56277438D02*
X38541428Y-56229819D01*
D15*
X40230474Y-58029809D02*
X40516188Y-58029809D01*
X40373331Y-58029809D02*
X40373331Y-57529809D01*
X40373331Y-57529809D02*
X40420950Y-57601238D01*
X40420950Y-57601238D02*
X40468569Y-57648857D01*
X40468569Y-57648857D02*
X40516188Y-57672666D01*
X39920951Y-57529809D02*
X39873332Y-57529809D01*
X39873332Y-57529809D02*
X39825713Y-57553619D01*
X39825713Y-57553619D02*
X39801903Y-57577428D01*
X39801903Y-57577428D02*
X39778094Y-57625047D01*
X39778094Y-57625047D02*
X39754284Y-57720285D01*
X39754284Y-57720285D02*
X39754284Y-57839333D01*
X39754284Y-57839333D02*
X39778094Y-57934571D01*
X39778094Y-57934571D02*
X39801903Y-57982190D01*
X39801903Y-57982190D02*
X39825713Y-58006000D01*
X39825713Y-58006000D02*
X39873332Y-58029809D01*
X39873332Y-58029809D02*
X39920951Y-58029809D01*
X39920951Y-58029809D02*
X39968570Y-58006000D01*
X39968570Y-58006000D02*
X39992379Y-57982190D01*
X39992379Y-57982190D02*
X40016189Y-57934571D01*
X40016189Y-57934571D02*
X40039998Y-57839333D01*
X40039998Y-57839333D02*
X40039998Y-57720285D01*
X40039998Y-57720285D02*
X40016189Y-57625047D01*
X40016189Y-57625047D02*
X39992379Y-57577428D01*
X39992379Y-57577428D02*
X39968570Y-57553619D01*
X39968570Y-57553619D02*
X39920951Y-57529809D01*
X39539999Y-58029809D02*
X39539999Y-57696476D01*
X39539999Y-57744095D02*
X39516189Y-57720285D01*
X39516189Y-57720285D02*
X39468570Y-57696476D01*
X39468570Y-57696476D02*
X39397142Y-57696476D01*
X39397142Y-57696476D02*
X39349523Y-57720285D01*
X39349523Y-57720285D02*
X39325713Y-57767904D01*
X39325713Y-57767904D02*
X39325713Y-58029809D01*
X39325713Y-57767904D02*
X39301904Y-57720285D01*
X39301904Y-57720285D02*
X39254285Y-57696476D01*
X39254285Y-57696476D02*
X39182856Y-57696476D01*
X39182856Y-57696476D02*
X39135237Y-57720285D01*
X39135237Y-57720285D02*
X39111427Y-57767904D01*
X39111427Y-57767904D02*
X39111427Y-58029809D01*
X38944760Y-57696476D02*
X38754284Y-57696476D01*
X38873332Y-58029809D02*
X38873332Y-57601238D01*
X38873332Y-57601238D02*
X38849522Y-57553619D01*
X38849522Y-57553619D02*
X38801903Y-57529809D01*
X38801903Y-57529809D02*
X38754284Y-57529809D01*
X38373332Y-58029809D02*
X38373332Y-57529809D01*
X38373332Y-58006000D02*
X38420951Y-58029809D01*
X38420951Y-58029809D02*
X38516189Y-58029809D01*
X38516189Y-58029809D02*
X38563808Y-58006000D01*
X38563808Y-58006000D02*
X38587618Y-57982190D01*
X38587618Y-57982190D02*
X38611427Y-57934571D01*
X38611427Y-57934571D02*
X38611427Y-57791714D01*
X38611427Y-57791714D02*
X38587618Y-57744095D01*
X38587618Y-57744095D02*
X38563808Y-57720285D01*
X38563808Y-57720285D02*
X38516189Y-57696476D01*
X38516189Y-57696476D02*
X38420951Y-57696476D01*
X38420951Y-57696476D02*
X38373332Y-57720285D01*
X38111427Y-58006000D02*
X38111427Y-58029809D01*
X38111427Y-58029809D02*
X38135237Y-58077428D01*
X38135237Y-58077428D02*
X38159046Y-58101238D01*
X37635237Y-58029809D02*
X37920951Y-58029809D01*
X37778094Y-58029809D02*
X37778094Y-57529809D01*
X37778094Y-57529809D02*
X37825713Y-57601238D01*
X37825713Y-57601238D02*
X37873332Y-57648857D01*
X37873332Y-57648857D02*
X37920951Y-57672666D01*
X37325714Y-57529809D02*
X37278095Y-57529809D01*
X37278095Y-57529809D02*
X37230476Y-57553619D01*
X37230476Y-57553619D02*
X37206666Y-57577428D01*
X37206666Y-57577428D02*
X37182857Y-57625047D01*
X37182857Y-57625047D02*
X37159047Y-57720285D01*
X37159047Y-57720285D02*
X37159047Y-57839333D01*
X37159047Y-57839333D02*
X37182857Y-57934571D01*
X37182857Y-57934571D02*
X37206666Y-57982190D01*
X37206666Y-57982190D02*
X37230476Y-58006000D01*
X37230476Y-58006000D02*
X37278095Y-58029809D01*
X37278095Y-58029809D02*
X37325714Y-58029809D01*
X37325714Y-58029809D02*
X37373333Y-58006000D01*
X37373333Y-58006000D02*
X37397142Y-57982190D01*
X37397142Y-57982190D02*
X37420952Y-57934571D01*
X37420952Y-57934571D02*
X37444761Y-57839333D01*
X37444761Y-57839333D02*
X37444761Y-57720285D01*
X37444761Y-57720285D02*
X37420952Y-57625047D01*
X37420952Y-57625047D02*
X37397142Y-57577428D01*
X37397142Y-57577428D02*
X37373333Y-57553619D01*
X37373333Y-57553619D02*
X37325714Y-57529809D01*
X37016190Y-57529809D02*
X36849524Y-58029809D01*
X36849524Y-58029809D02*
X36682857Y-57529809D01*
X36206667Y-57696476D02*
X36016191Y-57696476D01*
X36135239Y-57529809D02*
X36135239Y-57958380D01*
X36135239Y-57958380D02*
X36111429Y-58006000D01*
X36111429Y-58006000D02*
X36063810Y-58029809D01*
X36063810Y-58029809D02*
X36016191Y-58029809D01*
X35659049Y-58006000D02*
X35706668Y-58029809D01*
X35706668Y-58029809D02*
X35801906Y-58029809D01*
X35801906Y-58029809D02*
X35849525Y-58006000D01*
X35849525Y-58006000D02*
X35873334Y-57958380D01*
X35873334Y-57958380D02*
X35873334Y-57767904D01*
X35873334Y-57767904D02*
X35849525Y-57720285D01*
X35849525Y-57720285D02*
X35801906Y-57696476D01*
X35801906Y-57696476D02*
X35706668Y-57696476D01*
X35706668Y-57696476D02*
X35659049Y-57720285D01*
X35659049Y-57720285D02*
X35635239Y-57767904D01*
X35635239Y-57767904D02*
X35635239Y-57815523D01*
X35635239Y-57815523D02*
X35873334Y-57863142D01*
X35420954Y-57696476D02*
X35420954Y-58029809D01*
X35420954Y-57744095D02*
X35397144Y-57720285D01*
X35397144Y-57720285D02*
X35349525Y-57696476D01*
X35349525Y-57696476D02*
X35278097Y-57696476D01*
X35278097Y-57696476D02*
X35230478Y-57720285D01*
X35230478Y-57720285D02*
X35206668Y-57767904D01*
X35206668Y-57767904D02*
X35206668Y-58029809D01*
X35040001Y-57696476D02*
X34849525Y-57696476D01*
X34968573Y-57529809D02*
X34968573Y-57958380D01*
X34968573Y-57958380D02*
X34944763Y-58006000D01*
X34944763Y-58006000D02*
X34897144Y-58029809D01*
X34897144Y-58029809D02*
X34849525Y-58029809D01*
X34468573Y-58029809D02*
X34468573Y-57767904D01*
X34468573Y-57767904D02*
X34492383Y-57720285D01*
X34492383Y-57720285D02*
X34540002Y-57696476D01*
X34540002Y-57696476D02*
X34635240Y-57696476D01*
X34635240Y-57696476D02*
X34682859Y-57720285D01*
X34468573Y-58006000D02*
X34516192Y-58029809D01*
X34516192Y-58029809D02*
X34635240Y-58029809D01*
X34635240Y-58029809D02*
X34682859Y-58006000D01*
X34682859Y-58006000D02*
X34706668Y-57958380D01*
X34706668Y-57958380D02*
X34706668Y-57910761D01*
X34706668Y-57910761D02*
X34682859Y-57863142D01*
X34682859Y-57863142D02*
X34635240Y-57839333D01*
X34635240Y-57839333D02*
X34516192Y-57839333D01*
X34516192Y-57839333D02*
X34468573Y-57815523D01*
X34159049Y-58029809D02*
X34206668Y-58006000D01*
X34206668Y-58006000D02*
X34230478Y-57958380D01*
X34230478Y-57958380D02*
X34230478Y-57529809D01*
X33754287Y-57696476D02*
X33754287Y-58029809D01*
X33968573Y-57696476D02*
X33968573Y-57958380D01*
X33968573Y-57958380D02*
X33944763Y-58006000D01*
X33944763Y-58006000D02*
X33897144Y-58029809D01*
X33897144Y-58029809D02*
X33825716Y-58029809D01*
X33825716Y-58029809D02*
X33778097Y-58006000D01*
X33778097Y-58006000D02*
X33754287Y-57982190D01*
X33516192Y-58029809D02*
X33516192Y-57696476D01*
X33516192Y-57744095D02*
X33492382Y-57720285D01*
X33492382Y-57720285D02*
X33444763Y-57696476D01*
X33444763Y-57696476D02*
X33373335Y-57696476D01*
X33373335Y-57696476D02*
X33325716Y-57720285D01*
X33325716Y-57720285D02*
X33301906Y-57767904D01*
X33301906Y-57767904D02*
X33301906Y-58029809D01*
X33301906Y-57767904D02*
X33278097Y-57720285D01*
X33278097Y-57720285D02*
X33230478Y-57696476D01*
X33230478Y-57696476D02*
X33159049Y-57696476D01*
X33159049Y-57696476D02*
X33111430Y-57720285D01*
X33111430Y-57720285D02*
X33087620Y-57767904D01*
X33087620Y-57767904D02*
X33087620Y-58029809D01*
D16*
%TO.C,R7*%
X83312936Y-92270000D02*
X83767064Y-92270000D01*
X83312936Y-90800000D02*
X83767064Y-90800000D01*
%TO.C,R6*%
X83282936Y-83650000D02*
X83737064Y-83650000D01*
X83282936Y-82180000D02*
X83737064Y-82180000D01*
%TO.C,C19*%
X36078748Y-71240000D02*
X36601252Y-71240000D01*
X36078748Y-69770000D02*
X36601252Y-69770000D01*
%TO.C,R32*%
X44455000Y-95587936D02*
X44455000Y-96042064D01*
X45925000Y-95587936D02*
X45925000Y-96042064D01*
%TO.C,C7*%
X31545000Y-106916252D02*
X31545000Y-106393748D01*
X30075000Y-106916252D02*
X30075000Y-106393748D01*
%TO.C,R33*%
X36052936Y-68070000D02*
X36507064Y-68070000D01*
X36052936Y-66600000D02*
X36507064Y-66600000D01*
%TO.C,R18*%
X40965000Y-96042064D02*
X40965000Y-95587936D01*
X39495000Y-96042064D02*
X39495000Y-95587936D01*
%TO.C,D16*%
X49060000Y-94997500D02*
X49060000Y-96307500D01*
X47840000Y-94997500D02*
X47840000Y-96307500D01*
X47840000Y-94997500D02*
X49060000Y-94997500D01*
D14*
%TO.C,U9*%
X61340000Y-106055000D02*
X61340000Y-110205000D01*
X66490000Y-106055000D02*
X66490000Y-110205000D01*
D16*
X61440000Y-105455000D02*
X61110000Y-105695000D01*
X61110000Y-105215000D01*
X61440000Y-105455000D01*
G36*
X61440000Y-105455000D02*
G01*
X61110000Y-105695000D01*
X61110000Y-105215000D01*
X61440000Y-105455000D01*
G37*
D14*
%TO.C,U6*%
X68940000Y-106125000D02*
X68940000Y-110275000D01*
X74090000Y-106125000D02*
X74090000Y-110275000D01*
D16*
X69040000Y-105525000D02*
X68710000Y-105765000D01*
X68710000Y-105285000D01*
X69040000Y-105525000D01*
G36*
X69040000Y-105525000D02*
G01*
X68710000Y-105765000D01*
X68710000Y-105285000D01*
X69040000Y-105525000D01*
G37*
%TO.C,R1*%
X83112936Y-67030000D02*
X83567064Y-67030000D01*
X83112936Y-68500000D02*
X83567064Y-68500000D01*
%TO.C,J2*%
X55520000Y-45665000D02*
X56630000Y-45665000D01*
X55520000Y-48915000D02*
X56630000Y-48915000D01*
X57220000Y-49965000D02*
X57470000Y-49465000D01*
X57470000Y-49465000D02*
X57720000Y-49965000D01*
X57720000Y-49965000D02*
X57220000Y-49965000D01*
X58310000Y-45665000D02*
X59420000Y-45665000D01*
X58310000Y-48915000D02*
X59420000Y-48915000D01*
%TO.C,R5*%
X83212936Y-76410000D02*
X83667064Y-76410000D01*
X83212936Y-77880000D02*
X83667064Y-77880000D01*
%TO.C,U8*%
X46982500Y-57515000D02*
X46982500Y-55695000D01*
X46982500Y-55695000D02*
X46932500Y-55695000D01*
X46932500Y-57515000D02*
X46982500Y-57515000D01*
X45812500Y-55695000D02*
X45032500Y-55695000D01*
X43912500Y-55695000D02*
X43862500Y-55695000D01*
X43862500Y-57515000D02*
X43912500Y-57515000D01*
X43862500Y-55695000D02*
X43862500Y-57515000D01*
X47262500Y-58295000D02*
X46932500Y-58055000D01*
X47262500Y-57815000D01*
X47262500Y-58295000D01*
G36*
X47262500Y-58295000D02*
G01*
X46932500Y-58055000D01*
X47262500Y-57815000D01*
X47262500Y-58295000D01*
G37*
%TO.C,R4*%
X68365000Y-101467936D02*
X68365000Y-101922064D01*
X66895000Y-101467936D02*
X66895000Y-101922064D01*
%TO.C,C13*%
X51745000Y-56263748D02*
X51745000Y-56786252D01*
X50275000Y-56263748D02*
X50275000Y-56786252D01*
D14*
%TO.C,U7*%
X60120000Y-52805000D02*
X60120000Y-69305000D01*
X60120000Y-69305000D02*
X60870000Y-69305000D01*
X60870000Y-52805000D02*
X60120000Y-52805000D01*
X76870000Y-52805000D02*
X77620000Y-52805000D01*
X77620000Y-52805000D02*
X77620000Y-69305000D01*
X77620000Y-69305000D02*
X76870000Y-69305000D01*
D16*
X60870000Y-52505000D02*
X60370000Y-52505000D01*
X60870000Y-52005000D01*
X60870000Y-52505000D01*
G36*
X60870000Y-52505000D02*
G01*
X60370000Y-52505000D01*
X60870000Y-52005000D01*
X60870000Y-52505000D01*
G37*
%TO.C,U4*%
X76745000Y-105535000D02*
X76415000Y-105775000D01*
X76415000Y-105295000D01*
X76745000Y-105535000D01*
G36*
X76745000Y-105535000D02*
G01*
X76415000Y-105775000D01*
X76415000Y-105295000D01*
X76745000Y-105535000D01*
G37*
D14*
X81795000Y-106135000D02*
X81795000Y-110285000D01*
X76645000Y-106135000D02*
X76645000Y-110285000D01*
D16*
%TO.C,C1*%
X78435000Y-90653748D02*
X78435000Y-91176252D01*
X79905000Y-90653748D02*
X79905000Y-91176252D01*
%TO.C,R2*%
X82407064Y-59580000D02*
X81952936Y-59580000D01*
X82407064Y-58110000D02*
X81952936Y-58110000D01*
%TO.C,U2*%
X65712500Y-89245000D02*
X65712500Y-93365000D01*
X65712500Y-93365000D02*
X65767500Y-93365000D01*
X65767500Y-89245000D02*
X65712500Y-89245000D01*
X75777500Y-93365000D02*
X75832500Y-93365000D01*
X75832500Y-89245000D02*
X75777500Y-89245000D01*
X75832500Y-93365000D02*
X75832500Y-89245000D01*
X76112500Y-94145000D02*
X75782500Y-93905000D01*
X76112500Y-93665000D01*
X76112500Y-94145000D01*
G36*
X76112500Y-94145000D02*
G01*
X75782500Y-93905000D01*
X76112500Y-93665000D01*
X76112500Y-94145000D01*
G37*
%TO.C,C12*%
X49360000Y-56414420D02*
X49360000Y-56695580D01*
X48340000Y-56414420D02*
X48340000Y-56695580D01*
%TO.C,R10*%
X60675000Y-101457936D02*
X60675000Y-101912064D01*
X59205000Y-101457936D02*
X59205000Y-101912064D01*
%TO.C,C6*%
X42995000Y-106916252D02*
X42995000Y-106393748D01*
X41525000Y-106916252D02*
X41525000Y-106393748D01*
%TO.C,R3*%
X83565000Y-101517936D02*
X83565000Y-101972064D01*
X82095000Y-101517936D02*
X82095000Y-101972064D01*
%TO.C,R15*%
X76055000Y-101417936D02*
X76055000Y-101872064D01*
X74585000Y-101417936D02*
X74585000Y-101872064D01*
D14*
%TO.C,U10*%
X53740000Y-106105000D02*
X53740000Y-110255000D01*
X58890000Y-106105000D02*
X58890000Y-110255000D01*
D16*
X53840000Y-105505000D02*
X53510000Y-105745000D01*
X53510000Y-105265000D01*
X53840000Y-105505000D01*
G36*
X53840000Y-105505000D02*
G01*
X53510000Y-105745000D01*
X53510000Y-105265000D01*
X53840000Y-105505000D01*
G37*
%TO.C,U13*%
X39670000Y-108565000D02*
X38410000Y-108565000D01*
X39670000Y-104805000D02*
X39670000Y-108565000D01*
X32850000Y-108565000D02*
X34110000Y-108565000D01*
X32850000Y-104805000D02*
X32850000Y-108565000D01*
X32950000Y-103525000D02*
X32620000Y-103765000D01*
X32620000Y-103285000D01*
X32950000Y-103525000D01*
G36*
X32950000Y-103525000D02*
G01*
X32620000Y-103765000D01*
X32620000Y-103285000D01*
X32950000Y-103525000D01*
G37*
%TO.C,R13*%
X60947064Y-79100000D02*
X60492936Y-79100000D01*
X60947064Y-77630000D02*
X60492936Y-77630000D01*
%TO.C,C10*%
X42210000Y-56935580D02*
X42210000Y-56654420D01*
X41190000Y-56935580D02*
X41190000Y-56654420D01*
%TD*%
M02*
