M48
; DRILL file {KiCad 9.0.7} date 2026-08-12T04:56:47+0530
; FORMAT={-:-/ absolute / metric / decimal}
; #@! TF.CreationDate,2026-08-12T04:56:47+05:30
; #@! TF.GenerationSoftware,Kicad,Pcbnew,9.0.7
; #@! TF.FileFunction,Plated,1,2,PTH
FMAT,2
METRIC
; #@! TA.AperFunction,Plated,PTH,ViaDrill
T1C0.300
; #@! TA.AperFunction,Plated,PTH,ComponentDrill
T2C0.330
; #@! TA.AperFunction,Plated,PTH,ComponentDrill
T3C0.800
; #@! TA.AperFunction,Plated,PTH,ComponentDrill
T4C1.400
%
G90
G05
T1
X30.43Y-101.085
X30.43Y-102.035
X30.48Y-103.015
X34.53Y-87.745
X34.68Y-52.685
X34.69Y-61.395
X34.71Y-54.305
X34.72Y-63.015
X36.24Y-87.745
X36.39Y-52.685
X36.4Y-61.395
X36.42Y-54.305
X36.43Y-63.015
X37.96Y-87.695
X38.1Y-128.865
X38.11Y-52.635
X38.12Y-61.345
X38.14Y-54.255
X38.15Y-62.965
X39.12Y-128.865
X39.38Y-91.375
X39.97Y-128.865
X40.15Y-91.385
X40.92Y-128.865
X40.96Y-91.395
X41.81Y-91.375
X42.45Y-128.835
X42.84Y-91.365
X42.95Y-74.695
X42.96Y-73.915
X42.97Y-71.185
X42.99Y-73.145
X43.05Y-72.125
X43.2Y-68.255
X43.47Y-128.835
X44.18Y-99.485
X44.18Y-115.105
X44.21Y-111.825
X44.21Y-113.485
X44.23Y-101.205
X44.23Y-102.915
X44.24Y-110.335
X44.32Y-128.835
X44.94Y-90.905
X45.27Y-128.835
X45.44Y-109.045
X46.5Y-74.905
X46.73Y-108.035
X47.0Y-76.305
X47.0Y-76.305
X47.61Y-59.075
X47.64Y-60.695
X47.66Y-99.465
X47.71Y-101.185
X48.65Y-107.985
X49.28Y-99.435
X49.33Y-59.025
X49.33Y-101.155
X49.36Y-60.645
X49.5Y-46.975
X49.55Y-48.695
X49.55Y-50.405
X49.62Y-120.435
X49.62Y-121.455
X49.62Y-122.305
X49.62Y-123.255
X49.63Y-124.395
X49.63Y-125.415
X49.63Y-126.265
X49.63Y-127.215
X50.93Y-107.985
X51.04Y-59.025
X51.07Y-60.645
X51.12Y-46.945
X51.17Y-48.665
X51.17Y-50.375
X52.29Y-107.305
X52.29Y-108.255
X52.34Y-109.235
X57.85Y-68.315
X57.89Y-128.765
X57.9Y-70.035
X57.94Y-57.495
X57.97Y-59.115
X58.22Y-113.355
X58.91Y-128.765
X58.99Y-113.835
X59.45Y-74.445
X59.47Y-68.285
X59.52Y-70.005
X59.6Y-76.585
X59.65Y-57.495
X59.68Y-59.115
X59.76Y-128.765
X59.99Y-107.215
X59.99Y-108.165
X60.04Y-109.145
X60.07Y-113.835
X60.71Y-128.765
X61.05Y-94.395
X61.1Y-96.115
X61.16Y-74.445
X61.37Y-57.445
X61.4Y-59.065
X61.5Y-123.485
X61.5Y-124.435
X61.51Y-92.255
X61.55Y-125.415
X61.59Y-88.875
X62.67Y-94.365
X62.72Y-96.085
X62.79Y-60.455
X62.88Y-74.395
X63.49Y-78.745
X63.81Y-47.645
X63.84Y-49.265
X64.01Y-72.215
X65.03Y-77.655
X65.48Y-71.725
X65.52Y-47.645
X65.55Y-49.265
X66.82Y-113.225
X66.86Y-85.235
X67.24Y-47.595
X67.27Y-49.215
X67.42Y-113.885
X67.56Y-107.195
X67.56Y-108.145
X67.61Y-109.125
X68.39Y-113.875
X68.96Y-58.855
X68.99Y-60.475
X69.74Y-83.825
X69.97Y-128.765
X70.09Y-123.355
X70.09Y-124.305
X70.14Y-125.285
X70.43Y-61.715
X70.52Y-86.595
X70.68Y-58.805
X70.71Y-60.425
X70.99Y-128.765
X71.45Y-83.825
X71.84Y-128.765
X72.79Y-128.765
X73.46Y-113.775
X73.62Y-85.355
X73.98Y-91.805
X74.41Y-113.765
X75.15Y-107.345
X75.15Y-108.295
X75.2Y-109.275
X75.34Y-113.765
X76.17Y-90.315
X76.58Y-129.055
X77.59Y-90.395
X77.6Y-129.055
X78.22Y-123.625
X78.22Y-124.575
X78.27Y-125.555
X78.45Y-129.055
X78.69Y-63.485
X78.74Y-65.205
X78.74Y-66.915
X79.03Y-52.125
X79.06Y-53.745
X79.4Y-129.055
X79.62Y-80.085
X80.31Y-63.455
X80.36Y-65.175
X80.36Y-66.885
X80.74Y-52.125
X80.77Y-53.745
X81.15Y-95.765
X81.16Y-113.705
X81.2Y-97.485
X81.2Y-99.195
X81.22Y-57.305
X81.33Y-80.085
X82.11Y-113.695
X82.46Y-52.075
X82.49Y-53.695
X83.05Y-80.035
X83.06Y-107.395
X83.06Y-108.345
X83.093Y-61.722
X83.11Y-109.325
X83.16Y-113.675
X83.22Y-119.815
X83.22Y-120.835
X83.22Y-121.685
X83.22Y-122.635
X83.23Y-115.855
X83.23Y-116.875
X83.23Y-117.725
X83.23Y-118.675
X83.37Y-66.475
X83.5Y-76.155
X83.57Y-123.785
X83.57Y-124.805
X83.57Y-125.655
X83.57Y-126.605
X83.66Y-83.945
X83.73Y-93.055
X84.23Y-107.385
X84.23Y-108.335
X84.28Y-109.315
T2
X55.015Y-107.53
X55.015Y-108.83
X56.315Y-107.53
X56.315Y-108.83
X57.615Y-107.53
X57.615Y-108.83
X62.615Y-107.48
X62.615Y-108.78
X63.915Y-107.48
X63.915Y-108.78
X65.215Y-107.48
X65.215Y-108.78
X70.215Y-107.55
X70.215Y-108.85
X71.515Y-107.55
X71.515Y-108.85
X72.815Y-107.55
X72.815Y-108.85
X77.92Y-107.56
X77.92Y-108.86
X79.22Y-107.56
X79.22Y-108.86
X80.52Y-107.56
X80.52Y-108.86
T3
X30.782Y-70.585
X30.782Y-73.145
X30.782Y-75.78
X30.782Y-85.895
X30.807Y-83.38
X30.807Y-93.42
X30.807Y-95.98
X30.832Y-78.32
X30.832Y-80.88
X30.832Y-90.995
X32.84Y-120.047
X33.01Y-132.676
X34.44Y-116.876
X34.44Y-119.376
X34.61Y-129.505
X34.61Y-132.005
X36.04Y-116.205
X36.21Y-128.834
X51.25Y-132.657
X52.85Y-129.486
X52.85Y-131.986
X54.45Y-128.815
X55.758Y-60.41
X55.758Y-62.97
X55.758Y-75.655
X55.758Y-85.77
X55.782Y-73.145
X55.782Y-83.255
X55.807Y-78.195
X55.807Y-80.755
X55.807Y-93.42
X55.807Y-95.98
X61.87Y-53.055
X62.68Y-132.626
X64.28Y-129.455
X64.28Y-131.955
X65.88Y-128.784
X80.72Y-132.617
X82.32Y-129.446
X82.32Y-131.946
X83.92Y-128.775
T4
X44.54Y-118.245
X49.62Y-118.245
X59.86Y-118.212
X64.94Y-118.212
X70.02Y-118.212
X75.1Y-118.212
X80.18Y-118.212
M30
