%TF.GenerationSoftware,KiCad,Pcbnew,9.0.7*%
%TF.CreationDate,2026-08-12T04:56:44+05:30*%
%TF.ProjectId,ValveNode,56616c76-654e-46f6-9465-2e6b69636164,rev?*%
%TF.SameCoordinates,Original*%
%TF.FileFunction,Copper,L1,Top*%
%TF.FilePolarity,Positive*%
%FSLAX46Y46*%
G04 Gerber Fmt 4.6, Leading zero omitted, Abs format (unit mm)*
G04 Created by KiCad (PCBNEW 9.0.7) date 2026-08-12 04:56:44*
%MOMM*%
%LPD*%
G01*
G04 APERTURE LIST*
G04 Aperture macros list*
%AMRoundRect*
0 Rectangle with rounded corners*
0 $1 Rounding radius*
0 $2 $3 $4 $5 $6 $7 $8 $9 X,Y pos of 4 corners*
0 Add a 4 corners polygon primitive as box body*
4,1,4,$2,$3,$4,$5,$6,$7,$8,$9,$2,$3,0*
0 Add four circle primitives for the rounded corners*
1,1,$1+$1,$2,$3*
1,1,$1+$1,$4,$5*
1,1,$1+$1,$6,$7*
1,1,$1+$1,$8,$9*
0 Add four rect primitives between the rounded corners*
20,1,$1+$1,$2,$3,$4,$5,0*
20,1,$1+$1,$4,$5,$6,$7,0*
20,1,$1+$1,$6,$7,$8,$9,0*
20,1,$1+$1,$8,$9,$2,$3,0*%
G04 Aperture macros list end*
%TA.AperFunction,ComponentPad*%
%ADD10O,2.000000X1.200000*%
%TD*%
%TA.AperFunction,SMDPad,CuDef*%
%ADD11RoundRect,0.250000X0.325000X0.450000X-0.325000X0.450000X-0.325000X-0.450000X0.325000X-0.450000X0*%
%TD*%
%TA.AperFunction,ComponentPad*%
%ADD12RoundRect,0.249999X-0.790001X-1.550001X0.790001X-1.550001X0.790001X1.550001X-0.790001X1.550001X0*%
%TD*%
%TA.AperFunction,ComponentPad*%
%ADD13O,2.080000X3.600000*%
%TD*%
%TA.AperFunction,WasherPad*%
%ADD14C,4.500000*%
%TD*%
%TA.AperFunction,ComponentPad*%
%ADD15RoundRect,0.250000X-0.550000X0.550000X-0.550000X-0.550000X0.550000X-0.550000X0.550000X0.550000X0*%
%TD*%
%TA.AperFunction,ComponentPad*%
%ADD16C,1.600000*%
%TD*%
%TA.AperFunction,WasherPad*%
%ADD17C,5.000000*%
%TD*%
%TA.AperFunction,ComponentPad*%
%ADD18C,0.630000*%
%TD*%
%TA.AperFunction,SMDPad,CuDef*%
%ADD19R,3.300000X2.600000*%
%TD*%
%TA.AperFunction,SMDPad,CuDef*%
%ADD20RoundRect,0.250000X-0.425000X-1.600000X0.425000X-1.600000X0.425000X1.600000X-0.425000X1.600000X0*%
%TD*%
%TA.AperFunction,ComponentPad*%
%ADD21R,1.500000X2.000000*%
%TD*%
%TA.AperFunction,ViaPad*%
%ADD22C,0.800000*%
%TD*%
%TA.AperFunction,ViaPad*%
%ADD23C,0.600000*%
%TD*%
%TA.AperFunction,Conductor*%
%ADD24C,0.500000*%
%TD*%
%TA.AperFunction,Conductor*%
%ADD25C,1.000000*%
%TD*%
%TA.AperFunction,Conductor*%
%ADD26C,3.000000*%
%TD*%
%TA.AperFunction,Conductor*%
%ADD27C,0.200000*%
%TD*%
%TA.AperFunction,Conductor*%
%ADD28C,2.000000*%
%TD*%
%TA.AperFunction,Conductor*%
%ADD29C,1.500000*%
%TD*%
%TA.AperFunction,Conductor*%
%ADD30C,0.600000*%
%TD*%
G04 APERTURE END LIST*
D10*
%TO.P,U5,30,VIN/5V_Power_IN*%
%TO.N,+5V*%
X30807500Y-95980000D03*
%TO.P,U5,29,GND*%
%TO.N,GND*%
X30807500Y-93420000D03*
%TO.P,U5,28,D13*%
%TO.N,/Valve_LATCH*%
X30832500Y-90995000D03*
%TO.P,U5,25,D27*%
%TO.N,/BUSY*%
X30807500Y-83380000D03*
%TO.P,U5,24,D26*%
%TO.N,/DIO1*%
X30832500Y-80880000D03*
%TO.P,U5,23,D25*%
%TO.N,/RESET*%
X30832500Y-78320000D03*
%TO.P,U5,22,D33*%
%TO.N,/V2_LED*%
X30782500Y-75780000D03*
%TO.P,U5,21,D32*%
%TO.N,/V1_LED*%
X30782500Y-73145000D03*
%TO.P,U5,20,D35/Input_only*%
%TO.N,/Batt_Mon*%
X30782500Y-70585000D03*
%TO.P,U5,15,D23*%
%TO.N,/MOSI*%
X55757500Y-60410000D03*
%TO.P,U5,10,D19*%
%TO.N,/MISO*%
X55782500Y-73145000D03*
%TO.P,U5,9,D18*%
%TO.N,/SCK*%
X55757500Y-75655000D03*
%TO.P,U5,8,D5/BootSensitive*%
%TO.N,/NSS*%
X55807500Y-78195000D03*
%TO.P,U5,6,Rx2/D16*%
%TO.N,/Valve_CLK*%
X55782500Y-83255000D03*
%TO.P,U5,5,D4*%
%TO.N,/V4_LED*%
X55757500Y-85770000D03*
%TO.P,U5,2,GND*%
%TO.N,GND*%
X55807500Y-93420000D03*
%TO.P,U5,1,3V3_Out*%
%TO.N,+3.3V*%
X55807500Y-95980000D03*
%TO.P,U5,7,Tx2/D17*%
%TO.N,/Valve_DATA*%
X55807500Y-80755000D03*
%TO.P,U5,14,D22/I2C_SCL*%
%TO.N,/LoRa_LED*%
X55757500Y-62970000D03*
%TO.P,U5,26,D14*%
%TO.N,/V3_LED*%
X30782500Y-85895000D03*
%TD*%
D11*
%TO.P,D5,1,K*%
%TO.N,GND*%
X84665000Y-94695000D03*
%TO.P,D5,2,A*%
%TO.N,Net-(D5-A)*%
X82615000Y-94695000D03*
%TD*%
%TO.P,D4,1,K*%
%TO.N,GND*%
X84565000Y-85055000D03*
%TO.P,D4,2,A*%
%TO.N,Net-(D4-A)*%
X82515000Y-85055000D03*
%TD*%
%TO.P,D3,1,K*%
%TO.N,GND*%
X84712500Y-75165000D03*
%TO.P,D3,2,A*%
%TO.N,Net-(D3-A)*%
X82662500Y-75165000D03*
%TD*%
%TO.P,D2,1,K*%
%TO.N,GND*%
X71415000Y-55475000D03*
%TO.P,D2,2,A*%
%TO.N,Net-(D2-A)*%
X69365000Y-55475000D03*
%TD*%
%TO.P,D1,1,K*%
%TO.N,GND*%
X84320000Y-65255000D03*
%TO.P,D1,2,A*%
%TO.N,Net-(D1-A)*%
X82270000Y-65255000D03*
%TD*%
D12*
%TO.P,J5,1,Pin_1*%
%TO.N,/V4_OUT*%
X59860000Y-118212500D03*
D13*
%TO.P,J5,2,Pin_2*%
%TO.N,/V3_OUT*%
X64940000Y-118212500D03*
%TO.P,J5,3,Pin_3*%
%TO.N,/V2_OUT*%
X70020000Y-118212500D03*
%TO.P,J5,4,Pin_4*%
%TO.N,/V1_OUT*%
X75100000Y-118212500D03*
%TO.P,J5,5,Pin_5*%
%TO.N,/V_Com_OUT*%
X80180000Y-118212500D03*
%TD*%
D12*
%TO.P,J3,1,Pin_1*%
%TO.N,GND*%
X44540000Y-118245000D03*
D13*
%TO.P,J3,2,Pin_2*%
%TO.N,+8V*%
X49620000Y-118245000D03*
%TD*%
D14*
%TO.P,,*%
%TO.N,*%
X73470000Y-48955000D03*
%TD*%
D15*
%TO.P,C5,1*%
%TO.N,+5V*%
X36040000Y-116205000D03*
X34440000Y-116875937D03*
D16*
%TO.P,C5,2*%
%TO.N,GND*%
X34440000Y-119375937D03*
X32840000Y-120046874D03*
%TD*%
D15*
%TO.P,C2,1*%
%TO.N,+8V*%
X65880000Y-128784063D03*
X64280000Y-129455000D03*
D16*
%TO.P,C2,2*%
%TO.N,GND*%
X64280000Y-131955000D03*
X62680000Y-132625937D03*
%TD*%
D15*
%TO.P,C4,1*%
%TO.N,+8V*%
X36210000Y-128834063D03*
X34610000Y-129505000D03*
D16*
%TO.P,C4,2*%
%TO.N,GND*%
X34610000Y-132005000D03*
X33010000Y-132675937D03*
%TD*%
D14*
%TO.P,,*%
%TO.N,*%
X73470000Y-132955000D03*
%TD*%
D15*
%TO.P,C11,1*%
%TO.N,+8V*%
X83920000Y-128775000D03*
X82320000Y-129445937D03*
D16*
%TO.P,C11,2*%
%TO.N,GND*%
X82320000Y-131945937D03*
X80720000Y-132616874D03*
%TD*%
D14*
%TO.P,,*%
%TO.N,*%
X43470000Y-48955000D03*
%TD*%
D17*
%TO.P,,*%
%TO.N,*%
X-36100000Y-58145000D03*
%TD*%
%TO.P,,*%
%TO.N,*%
X-113100000Y-58145000D03*
%TD*%
D14*
%TO.P,,*%
%TO.N,*%
X43470000Y-132955000D03*
%TD*%
D17*
%TO.P,.,*%
%TO.N,*%
X-36100000Y-113145000D03*
%TD*%
%TO.P,,*%
%TO.N,*%
X-113100000Y-113145000D03*
%TD*%
D15*
%TO.P,C15,1*%
%TO.N,+8V*%
X54450000Y-128815000D03*
X52850000Y-129485937D03*
D16*
%TO.P,C15,2*%
%TO.N,GND*%
X52850000Y-131985937D03*
X51250000Y-132656874D03*
%TD*%
D18*
%TO.P,U9,9,GND*%
%TO.N,GND*%
X65215000Y-107480000D03*
X63915000Y-107480000D03*
X62615000Y-107480000D03*
D19*
X63915000Y-108130000D03*
D18*
X65215000Y-108780000D03*
X63915000Y-108780000D03*
X62615000Y-108780000D03*
%TD*%
%TO.P,U6,9,GND*%
%TO.N,GND*%
X72815000Y-107550000D03*
X71515000Y-107550000D03*
X70215000Y-107550000D03*
D19*
X71515000Y-108200000D03*
D18*
X72815000Y-108850000D03*
X71515000Y-108850000D03*
X70215000Y-108850000D03*
%TD*%
D20*
%TO.P,J2,2,Ext*%
%TO.N,GND*%
X54645000Y-47455000D03*
X60295000Y-47455000D03*
%TD*%
D21*
%TO.P,U7,1,ANT*%
%TO.N,Net-(J2-In)*%
X61870000Y-53055000D03*
%TD*%
D18*
%TO.P,U4,9,GND*%
%TO.N,GND*%
X77920000Y-108860000D03*
X79220000Y-108860000D03*
X80520000Y-108860000D03*
D19*
X79220000Y-108210000D03*
D18*
X77920000Y-107560000D03*
X79220000Y-107560000D03*
X80520000Y-107560000D03*
%TD*%
%TO.P,U10,9,GND*%
%TO.N,GND*%
X57615000Y-107530000D03*
X56315000Y-107530000D03*
X55015000Y-107530000D03*
D19*
X56315000Y-108180000D03*
D18*
X57615000Y-108830000D03*
X56315000Y-108830000D03*
X55015000Y-108830000D03*
%TD*%
D22*
%TO.N,GND*%
X68990000Y-60475000D03*
X70680000Y-58805000D03*
X70710000Y-60425000D03*
X68960000Y-58855000D03*
X47660000Y-99465000D03*
X49280000Y-99435000D03*
X47710000Y-101185000D03*
X49330000Y-101155000D03*
X61050000Y-94395000D03*
X62670000Y-94365000D03*
X61100000Y-96115000D03*
X62720000Y-96085000D03*
X70520000Y-86595000D03*
X71450000Y-83825000D03*
X69740000Y-83825000D03*
X57850000Y-68315000D03*
X59470000Y-68285000D03*
X57900000Y-70035000D03*
X59520000Y-70005000D03*
X80360000Y-65175000D03*
X78690000Y-63485000D03*
X78740000Y-66915000D03*
X80310000Y-63455000D03*
X78740000Y-65205000D03*
X80360000Y-66885000D03*
X80770000Y-53745000D03*
X82460000Y-52075000D03*
X79030000Y-52125000D03*
X82490000Y-53695000D03*
X80740000Y-52125000D03*
X79060000Y-53745000D03*
X49330000Y-59025000D03*
X47640000Y-60695000D03*
X51070000Y-60645000D03*
X47610000Y-59075000D03*
X49360000Y-60645000D03*
X51040000Y-59025000D03*
X59680000Y-59115000D03*
X61370000Y-57445000D03*
X57940000Y-57495000D03*
X61400000Y-59065000D03*
X59650000Y-57495000D03*
X57970000Y-59115000D03*
X65550000Y-49265000D03*
X67240000Y-47595000D03*
X63810000Y-47645000D03*
X67270000Y-49215000D03*
X65520000Y-47645000D03*
X63840000Y-49265000D03*
X51170000Y-48665000D03*
X49500000Y-46975000D03*
X49550000Y-50405000D03*
X51120000Y-46945000D03*
X49550000Y-48695000D03*
X51170000Y-50375000D03*
X36420000Y-54305000D03*
X38110000Y-52635000D03*
X34680000Y-52685000D03*
X38140000Y-54255000D03*
X36390000Y-52685000D03*
X34710000Y-54305000D03*
X36430000Y-63015000D03*
X34720000Y-63015000D03*
X38150000Y-62965000D03*
X36400000Y-61395000D03*
X34690000Y-61395000D03*
X38120000Y-61345000D03*
X36240000Y-87745000D03*
X34530000Y-87745000D03*
X37960000Y-87695000D03*
X44230000Y-101205000D03*
X44230000Y-102915000D03*
X44180000Y-99485000D03*
X81200000Y-97485000D03*
X81200000Y-99195000D03*
X81150000Y-95765000D03*
X77590000Y-90395000D03*
X64010000Y-72215000D03*
X61160000Y-74445000D03*
X59450000Y-74445000D03*
X62880000Y-74395000D03*
X81330000Y-80085000D03*
X83050000Y-80035000D03*
X79620000Y-80085000D03*
%TO.N,+5V*%
X42970000Y-71185000D03*
X43050000Y-72125000D03*
X42990000Y-73145000D03*
X42960000Y-73915000D03*
X39380000Y-91375000D03*
X40150000Y-91385000D03*
X40960000Y-91395000D03*
X41810000Y-91375000D03*
D23*
%TO.N,/LoRa_LED*%
X70430000Y-61715000D03*
X83092500Y-61722500D03*
D22*
%TO.N,GND*%
X30430000Y-102035000D03*
X30480000Y-103015000D03*
X30430000Y-101085000D03*
X70090000Y-124305000D03*
X70140000Y-125285000D03*
X70090000Y-123355000D03*
X78220000Y-124575000D03*
X78270000Y-125555000D03*
X78220000Y-123625000D03*
X61500000Y-124435000D03*
X61550000Y-125415000D03*
X61500000Y-123485000D03*
X52290000Y-108255000D03*
X52340000Y-109235000D03*
X52290000Y-107305000D03*
X84230000Y-108335000D03*
X84280000Y-109315000D03*
X84230000Y-107385000D03*
X83060000Y-108345000D03*
X83110000Y-109325000D03*
X83060000Y-107395000D03*
X75150000Y-108295000D03*
X75200000Y-109275000D03*
X75150000Y-107345000D03*
X67560000Y-108145000D03*
X67610000Y-109125000D03*
X67560000Y-107195000D03*
X60040000Y-109145000D03*
X59990000Y-108165000D03*
X59990000Y-107215000D03*
X46730000Y-108035000D03*
X44240000Y-110335000D03*
X44210000Y-111825000D03*
X44210000Y-113485000D03*
X44180000Y-115105000D03*
X50930000Y-107985000D03*
X48650000Y-107985000D03*
D23*
%TO.N,+8V*%
X83570000Y-124805000D03*
X83570000Y-125655000D03*
X83570000Y-123785000D03*
X83570000Y-126605000D03*
X83220000Y-120835000D03*
X83220000Y-121685000D03*
X83220000Y-119815000D03*
X83220000Y-122635000D03*
X83230000Y-116875000D03*
X83230000Y-117725000D03*
X83230000Y-115855000D03*
X83230000Y-118675000D03*
X77600000Y-129055000D03*
X78450000Y-129055000D03*
X76580000Y-129055000D03*
X79400000Y-129055000D03*
X70990000Y-128765000D03*
X71840000Y-128765000D03*
X69970000Y-128765000D03*
X72790000Y-128765000D03*
X58910000Y-128765000D03*
X59760000Y-128765000D03*
X57890000Y-128765000D03*
X60710000Y-128765000D03*
X43470000Y-128835000D03*
X44320000Y-128835000D03*
X42450000Y-128835000D03*
X45270000Y-128835000D03*
X39120000Y-128865000D03*
X39970000Y-128865000D03*
X38100000Y-128865000D03*
X40920000Y-128865000D03*
X49630000Y-125415000D03*
X49630000Y-126265000D03*
X49630000Y-124395000D03*
X49630000Y-127215000D03*
X49620000Y-123255000D03*
X49620000Y-122305000D03*
X49620000Y-121455000D03*
X49620000Y-120435000D03*
D22*
X68390000Y-113875000D03*
X67420000Y-113885000D03*
X60070000Y-113835000D03*
X58990000Y-113835000D03*
X83160000Y-113675000D03*
X82110000Y-113695000D03*
D23*
X75340000Y-113765000D03*
D22*
X74410000Y-113765000D03*
%TO.N,GND*%
X45440000Y-109045000D03*
%TO.N,Net-(D5-A)*%
X83730000Y-93055000D03*
%TO.N,Net-(D4-A)*%
X83660000Y-83945000D03*
%TO.N,Net-(D3-A)*%
X83500000Y-76155000D03*
%TO.N,Net-(D1-A)*%
X83370000Y-66475000D03*
%TO.N,/V2_LED*%
X65030000Y-77655000D03*
X47000000Y-76305000D03*
X47000000Y-76305000D03*
%TO.N,Net-(D16-K)*%
X43200000Y-68255000D03*
X44940000Y-90905000D03*
%TO.N,+5V*%
X42840000Y-91365000D03*
X42950000Y-74695000D03*
%TO.N,+3.3V*%
X63490000Y-78745000D03*
X61590000Y-88875000D03*
X61510000Y-92255000D03*
%TO.N,/V4_LED*%
X66860000Y-85235000D03*
X73620000Y-85355000D03*
%TO.N,/V1_LED*%
X46500000Y-74905000D03*
X59600000Y-76585000D03*
%TO.N,Net-(D2-A)*%
X81220000Y-57305000D03*
%TO.N,+3.3V*%
X76170000Y-90315000D03*
X73980000Y-91805000D03*
%TO.N,/MOSI*%
X65480000Y-71725000D03*
X62790000Y-60455000D03*
%TO.N,+8V*%
X81160000Y-113705000D03*
X73460000Y-113775000D03*
X66819633Y-113225367D03*
X58220000Y-113355000D03*
%TD*%
D24*
%TO.N,Net-(D2-A)*%
X80610000Y-57365000D02*
X70770000Y-57365000D01*
X69365000Y-56970000D02*
X69365000Y-55475000D01*
X70770000Y-57365000D02*
X69760000Y-57365000D01*
X69760000Y-57365000D02*
X69365000Y-56970000D01*
D25*
%TO.N,+5V*%
X42950000Y-74695000D02*
X42950000Y-70955000D01*
D24*
%TO.N,/V2_LED*%
X47000000Y-76305000D02*
X47000000Y-76505000D01*
X47000000Y-76505000D02*
X49940000Y-79445000D01*
X59660000Y-79445000D02*
X61450000Y-77655000D01*
X49940000Y-79445000D02*
X59660000Y-79445000D01*
X61450000Y-77655000D02*
X65030000Y-77655000D01*
%TO.N,/V1_LED*%
X59600000Y-76585000D02*
X57760000Y-76585000D01*
X57760000Y-76585000D02*
X57440000Y-76905000D01*
X54320000Y-76905000D02*
X52320000Y-74905000D01*
X52320000Y-74905000D02*
X46500000Y-74905000D01*
X57440000Y-76905000D02*
X54320000Y-76905000D01*
%TO.N,Net-(D16-K)*%
X43200000Y-68255000D02*
X43360000Y-68255000D01*
X43360000Y-68255000D02*
X44940000Y-69835000D01*
X44940000Y-69835000D02*
X44940000Y-90905000D01*
D25*
%TO.N,+5V*%
X39130000Y-91365000D02*
X39100000Y-91335000D01*
X42840000Y-91365000D02*
X39130000Y-91365000D01*
D24*
%TO.N,/LoRa_LED*%
X70437500Y-61722500D02*
X70430000Y-61715000D01*
X83092500Y-61722500D02*
X70437500Y-61722500D01*
D26*
%TO.N,GND*%
X79220000Y-108210000D02*
X84315000Y-108210000D01*
X71515000Y-108200000D02*
X79210000Y-108200000D01*
D27*
X79210000Y-108200000D02*
X79220000Y-108210000D01*
D26*
X63915000Y-108130000D02*
X71445000Y-108130000D01*
D27*
X71445000Y-108130000D02*
X71515000Y-108200000D01*
D26*
X56315000Y-108180000D02*
X63865000Y-108180000D01*
D27*
X63865000Y-108180000D02*
X63915000Y-108130000D01*
D26*
X50930000Y-107985000D02*
X51125000Y-108180000D01*
X51125000Y-108180000D02*
X56315000Y-108180000D01*
D28*
%TO.N,+8V*%
X83570000Y-125655000D02*
X83220000Y-125305000D01*
X83220000Y-125305000D02*
X83220000Y-114435000D01*
X83220000Y-114435000D02*
X82560000Y-113775000D01*
D29*
X81090000Y-113775000D02*
X82560000Y-113775000D01*
D28*
X83920000Y-128775000D02*
X83920000Y-126005000D01*
X83920000Y-126005000D02*
X83570000Y-125655000D01*
D29*
X78039063Y-128784063D02*
X78800000Y-129545000D01*
X70710937Y-128784063D02*
X78039063Y-128784063D01*
X78800000Y-129545000D02*
X78899063Y-129445937D01*
X78899063Y-129445937D02*
X82320000Y-129445937D01*
X54450000Y-128815000D02*
X63640000Y-128815000D01*
X63640000Y-128815000D02*
X64280000Y-129455000D01*
D28*
X49620000Y-123255000D02*
X49620000Y-127135000D01*
X49620000Y-122305000D02*
X49620000Y-123255000D01*
X49620000Y-121455000D02*
X49620000Y-122305000D01*
X49620000Y-120435000D02*
X49620000Y-121455000D01*
X49620000Y-127135000D02*
X49620000Y-126215000D01*
X49620000Y-126215000D02*
X52850000Y-129445000D01*
X52850000Y-129445000D02*
X52850000Y-129485937D01*
D29*
X67420000Y-113865735D02*
X67420000Y-124345000D01*
X67420000Y-124345000D02*
X65880000Y-125885000D01*
X67064633Y-113470367D02*
X67064633Y-113510368D01*
X66689265Y-113845735D02*
X58279265Y-113845735D01*
X66819633Y-113225367D02*
X67064633Y-113470367D01*
X58279265Y-113845735D02*
X58220000Y-113786470D01*
X67064633Y-113510368D02*
X67420000Y-113865735D01*
X65880000Y-125885000D02*
X65880000Y-128784063D01*
X66819633Y-113225367D02*
X67440001Y-113845735D01*
X67440001Y-113845735D02*
X73339265Y-113845735D01*
X73339265Y-113845735D02*
X73410000Y-113775000D01*
X66819633Y-113225367D02*
X66819633Y-113715367D01*
X66819633Y-113715367D02*
X66689265Y-113845735D01*
X58220000Y-113786470D02*
X58220000Y-113355000D01*
X56450000Y-115675000D02*
X56450000Y-124855000D01*
X56450000Y-124855000D02*
X56410000Y-124855000D01*
X56410000Y-124855000D02*
X54450000Y-126815000D01*
X54450000Y-126815000D02*
X54450000Y-128815000D01*
X58220000Y-113905000D02*
X56450000Y-115675000D01*
X58220000Y-113355000D02*
X58220000Y-113905000D01*
D30*
X83080000Y-113775000D02*
X83100000Y-113795000D01*
D29*
X82560000Y-113775000D02*
X83080000Y-113775000D01*
X73410000Y-113775000D02*
X72520000Y-114665000D01*
X72520000Y-126975000D02*
X70710937Y-128784063D01*
X72520000Y-114665000D02*
X72520000Y-126975000D01*
X70710937Y-128784063D02*
X65880000Y-128784063D01*
D24*
%TO.N,Net-(D5-A)*%
X83730000Y-93055000D02*
X82615000Y-94170000D01*
X82615000Y-94170000D02*
X82615000Y-94695000D01*
%TO.N,Net-(D4-A)*%
X83660000Y-83945000D02*
X83625000Y-83945000D01*
X83625000Y-83945000D02*
X82515000Y-85055000D01*
%TO.N,Net-(D3-A)*%
X82662500Y-75317500D02*
X83500000Y-76155000D01*
X82662500Y-75165000D02*
X82662500Y-75317500D01*
%TO.N,Net-(D1-A)*%
X83370000Y-66475000D02*
X83370000Y-66355000D01*
X83370000Y-66355000D02*
X82270000Y-65255000D01*
D25*
%TO.N,+5V*%
X42950000Y-91255000D02*
X42840000Y-91365000D01*
X42950000Y-74695000D02*
X42950000Y-91255000D01*
D24*
%TO.N,+3.3V*%
X61590000Y-88875000D02*
X61590000Y-80495000D01*
X63340000Y-78745000D02*
X63490000Y-78745000D01*
X63230000Y-78855000D02*
X63340000Y-78745000D01*
X61590000Y-80495000D02*
X63230000Y-78855000D01*
X61590000Y-92175000D02*
X61590000Y-88875000D01*
X61510000Y-92255000D02*
X61590000Y-92175000D01*
%TO.N,/V4_LED*%
X66980000Y-85355000D02*
X66860000Y-85235000D01*
X73620000Y-85355000D02*
X66980000Y-85355000D01*
%TO.N,Net-(D2-A)*%
X80610000Y-57365000D02*
X81160000Y-57365000D01*
X81160000Y-57365000D02*
X81220000Y-57305000D01*
%TO.N,+3.3V*%
X74680000Y-91805000D02*
X76170000Y-90315000D01*
X73980000Y-91805000D02*
X74680000Y-91805000D01*
%TO.N,/MOSI*%
X65550000Y-71655000D02*
X65480000Y-71725000D01*
X65550000Y-62015000D02*
X65550000Y-71655000D01*
X62790000Y-60455000D02*
X63990000Y-60455000D01*
X63990000Y-60455000D02*
X65550000Y-62015000D01*
D28*
%TO.N,+8V*%
X49620000Y-118245000D02*
X49620000Y-120435000D01*
X47920937Y-128834063D02*
X36210000Y-128834063D01*
X49620000Y-127135000D02*
X47920937Y-128834063D01*
D30*
X81090000Y-113775000D02*
X81160000Y-113705000D01*
D29*
X73410000Y-113775000D02*
X81090000Y-113775000D01*
%TD*%
%TA.AperFunction,Conductor*%
%TO.N,GND*%
G36*
X53427773Y-45565185D02*
G01*
X53473528Y-45617989D01*
X53483472Y-45687147D01*
X53481479Y-45695596D01*
X53481911Y-45695689D01*
X53480493Y-45702309D01*
X53470000Y-45805013D01*
X53470000Y-47205000D01*
X55819999Y-47205000D01*
X55819999Y-45805028D01*
X55819998Y-45805013D01*
X55809505Y-45702298D01*
X55808089Y-45695681D01*
X55811079Y-45695040D01*
X55809186Y-45638570D01*
X55844971Y-45578560D01*
X55907518Y-45547422D01*
X55929267Y-45545500D01*
X59010734Y-45545500D01*
X59077773Y-45565185D01*
X59123528Y-45617989D01*
X59133472Y-45687147D01*
X59131479Y-45695596D01*
X59131911Y-45695689D01*
X59130493Y-45702309D01*
X59120000Y-45805013D01*
X59120000Y-47205000D01*
X61469999Y-47205000D01*
X61469999Y-45805028D01*
X61469998Y-45805013D01*
X61459505Y-45702298D01*
X61458089Y-45695681D01*
X61461079Y-45695040D01*
X61459186Y-45638570D01*
X61494971Y-45578560D01*
X61557518Y-45547422D01*
X61579267Y-45545500D01*
X85095500Y-45545500D01*
X85162539Y-45565185D01*
X85208294Y-45617989D01*
X85219500Y-45669500D01*
X85219500Y-64055986D01*
X85199815Y-64123025D01*
X85147011Y-64168780D01*
X85077853Y-64178724D01*
X85030403Y-64161525D01*
X84964124Y-64120643D01*
X84964119Y-64120641D01*
X84797697Y-64065494D01*
X84797690Y-64065493D01*
X84694986Y-64055000D01*
X84570000Y-64055000D01*
X84570000Y-66454999D01*
X84694972Y-66454999D01*
X84694986Y-66454998D01*
X84797697Y-66444505D01*
X84964119Y-66389358D01*
X84964126Y-66389355D01*
X85030402Y-66348475D01*
X85097794Y-66330034D01*
X85164458Y-66350956D01*
X85209228Y-66404597D01*
X85219500Y-66454013D01*
X85219500Y-73841247D01*
X85199815Y-73908286D01*
X85147011Y-73954041D01*
X85090636Y-73964814D01*
X85090636Y-73965000D01*
X85089666Y-73965000D01*
X85089211Y-73965087D01*
X85087498Y-73965000D01*
X84962500Y-73965000D01*
X84962500Y-76364999D01*
X85087481Y-76364999D01*
X85089188Y-76364912D01*
X85089552Y-76364999D01*
X85090634Y-76364999D01*
X85090634Y-76365257D01*
X85157143Y-76381158D01*
X85205526Y-76431565D01*
X85219500Y-76488751D01*
X85219500Y-83752361D01*
X85199815Y-83819400D01*
X85147011Y-83865155D01*
X85077853Y-83875099D01*
X85056497Y-83870067D01*
X85042701Y-83865495D01*
X85042690Y-83865493D01*
X84939986Y-83855000D01*
X84815000Y-83855000D01*
X84815000Y-86254999D01*
X84939972Y-86254999D01*
X84939986Y-86254998D01*
X85042698Y-86244505D01*
X85056494Y-86239934D01*
X85126322Y-86237531D01*
X85186365Y-86273261D01*
X85217558Y-86335781D01*
X85219500Y-86357639D01*
X85219500Y-93376026D01*
X85199815Y-93443065D01*
X85147011Y-93488820D01*
X85082899Y-93499384D01*
X85039991Y-93495000D01*
X84915000Y-93495000D01*
X84915000Y-95894999D01*
X85039972Y-95894999D01*
X85039983Y-95894998D01*
X85082897Y-95890614D01*
X85151590Y-95903383D01*
X85202475Y-95951263D01*
X85219500Y-96013972D01*
X85219500Y-125394585D01*
X85199815Y-125461624D01*
X85147011Y-125507379D01*
X85077853Y-125517323D01*
X85014297Y-125488298D01*
X84985015Y-125450880D01*
X84958828Y-125399486D01*
X84946760Y-125375801D01*
X84835690Y-125222927D01*
X84760660Y-125147897D01*
X84760657Y-125147892D01*
X84456819Y-124844054D01*
X84423334Y-124782731D01*
X84420500Y-124756373D01*
X84420500Y-114340513D01*
X84390940Y-114153881D01*
X84332545Y-113974163D01*
X84246759Y-113805799D01*
X84233550Y-113787620D01*
X84233549Y-113787618D01*
X84135690Y-113652926D01*
X84020931Y-113538167D01*
X83994051Y-113497938D01*
X83978306Y-113459927D01*
X83968389Y-113435985D01*
X83922325Y-113324775D01*
X83922318Y-113324762D01*
X83818302Y-113169092D01*
X83818299Y-113169088D01*
X83685911Y-113036700D01*
X83685907Y-113036697D01*
X83530237Y-112932681D01*
X83530228Y-112932676D01*
X83357242Y-112861023D01*
X83355230Y-112860413D01*
X83352545Y-112859078D01*
X83351623Y-112858696D01*
X83351649Y-112858632D01*
X83318351Y-112842074D01*
X83189199Y-112748240D01*
X83020836Y-112662454D01*
X82841118Y-112604059D01*
X82654486Y-112574500D01*
X82654481Y-112574500D01*
X82465519Y-112574500D01*
X82465514Y-112574500D01*
X82278881Y-112604059D01*
X82099163Y-112662454D01*
X81930800Y-112748240D01*
X81858434Y-112800818D01*
X81792627Y-112824298D01*
X81785548Y-112824500D01*
X73316382Y-112824500D01*
X73262937Y-112835131D01*
X73262934Y-112835131D01*
X73258720Y-112835970D01*
X73132749Y-112861027D01*
X73100271Y-112874480D01*
X73065667Y-112888813D01*
X73058058Y-112890884D01*
X73048345Y-112890690D01*
X73025499Y-112895235D01*
X67885073Y-112895235D01*
X67818034Y-112875550D01*
X67797392Y-112858916D01*
X67425544Y-112487067D01*
X67425540Y-112487064D01*
X67269869Y-112383047D01*
X67269860Y-112383042D01*
X67168536Y-112341073D01*
X67168534Y-112341072D01*
X67096884Y-112311394D01*
X67096880Y-112311393D01*
X67096876Y-112311391D01*
X67005066Y-112293130D01*
X66913253Y-112274867D01*
X66913250Y-112274867D01*
X66726016Y-112274867D01*
X66726011Y-112274867D01*
X66542389Y-112311391D01*
X66542385Y-112311393D01*
X66542383Y-112311393D01*
X66542382Y-112311394D01*
X66470732Y-112341072D01*
X66470730Y-112341073D01*
X66369405Y-112383042D01*
X66369396Y-112383047D01*
X66213725Y-112487064D01*
X66213721Y-112487067D01*
X66081333Y-112619455D01*
X66081330Y-112619459D01*
X65977313Y-112775130D01*
X65977311Y-112775134D01*
X65977310Y-112775137D01*
X65959270Y-112818689D01*
X65915431Y-112873090D01*
X65849137Y-112895156D01*
X65844710Y-112895235D01*
X59122231Y-112895235D01*
X59055192Y-112875550D01*
X59019129Y-112840125D01*
X58958305Y-112749096D01*
X58958299Y-112749088D01*
X58825911Y-112616700D01*
X58825907Y-112616697D01*
X58670237Y-112512681D01*
X58670228Y-112512676D01*
X58497251Y-112441027D01*
X58497243Y-112441025D01*
X58313620Y-112404500D01*
X58313616Y-112404500D01*
X58126384Y-112404500D01*
X58126379Y-112404500D01*
X57942756Y-112441025D01*
X57942748Y-112441027D01*
X57769771Y-112512676D01*
X57769762Y-112512681D01*
X57614092Y-112616697D01*
X57614088Y-112616700D01*
X57481700Y-112749088D01*
X57481697Y-112749092D01*
X57377681Y-112904762D01*
X57377676Y-112904771D01*
X57306027Y-113077748D01*
X57306025Y-113077756D01*
X57269500Y-113261379D01*
X57269500Y-113459927D01*
X57249815Y-113526966D01*
X57233181Y-113547608D01*
X55711700Y-115069088D01*
X55711697Y-115069092D01*
X55607680Y-115224763D01*
X55607675Y-115224772D01*
X55565705Y-115326099D01*
X55536029Y-115397742D01*
X55536025Y-115397755D01*
X55527201Y-115442118D01*
X55499980Y-115578973D01*
X55499979Y-115578979D01*
X55499500Y-115581384D01*
X55499500Y-124369927D01*
X55479815Y-124436966D01*
X55463181Y-124457608D01*
X53711700Y-126209088D01*
X53711697Y-126209092D01*
X53607680Y-126364763D01*
X53607673Y-126364776D01*
X53577728Y-126437073D01*
X53577728Y-126437074D01*
X53536027Y-126537748D01*
X53536025Y-126537756D01*
X53499500Y-126721379D01*
X53499500Y-128024495D01*
X53498805Y-128028584D01*
X53499339Y-128030819D01*
X53492541Y-128065452D01*
X53473649Y-128119439D01*
X53432926Y-128176214D01*
X53367973Y-128201960D01*
X53299411Y-128188503D01*
X53268927Y-128166163D01*
X50856819Y-125754055D01*
X50823334Y-125692732D01*
X50820500Y-125666374D01*
X50820500Y-119344222D01*
X50826569Y-119305904D01*
X50829955Y-119295484D01*
X50843530Y-119209770D01*
X50860500Y-119102634D01*
X50860500Y-117387365D01*
X50840716Y-117262461D01*
X50829955Y-117194516D01*
X50769617Y-117008813D01*
X50769617Y-117008812D01*
X50738919Y-116948565D01*
X50680971Y-116834836D01*
X50662393Y-116809266D01*
X50566206Y-116676874D01*
X50566202Y-116676869D01*
X50428130Y-116538797D01*
X50428125Y-116538793D01*
X50270167Y-116424031D01*
X50270166Y-116424030D01*
X50270164Y-116424029D01*
X50206383Y-116391531D01*
X50096187Y-116335382D01*
X50096184Y-116335381D01*
X49910485Y-116275045D01*
X49717634Y-116244500D01*
X49717629Y-116244500D01*
X49522371Y-116244500D01*
X49522366Y-116244500D01*
X49329514Y-116275045D01*
X49143815Y-116335381D01*
X49143812Y-116335382D01*
X48969832Y-116424031D01*
X48811874Y-116538793D01*
X48811869Y-116538797D01*
X48673797Y-116676869D01*
X48673793Y-116676874D01*
X48559031Y-116834832D01*
X48470382Y-117008812D01*
X48470381Y-117008815D01*
X48410045Y-117194514D01*
X48379500Y-117387365D01*
X48379500Y-119102634D01*
X48410044Y-119295480D01*
X48410044Y-119295481D01*
X48413431Y-119305904D01*
X48419500Y-119344222D01*
X48419500Y-126586374D01*
X48399815Y-126653413D01*
X48383181Y-126674055D01*
X47459992Y-127597244D01*
X47398669Y-127630729D01*
X47372311Y-127633563D01*
X36115514Y-127633563D01*
X35928881Y-127663122D01*
X35749163Y-127721517D01*
X35580802Y-127807302D01*
X35580800Y-127807303D01*
X35523344Y-127849047D01*
X35491416Y-127865769D01*
X35447118Y-127881270D01*
X35337850Y-127961913D01*
X35257207Y-128071181D01*
X35241706Y-128115479D01*
X35224984Y-128147407D01*
X35183240Y-128204863D01*
X35183239Y-128204865D01*
X35097454Y-128373226D01*
X35082641Y-128418819D01*
X35043203Y-128476494D01*
X34978844Y-128503692D01*
X34964710Y-128504500D01*
X34005730Y-128504500D01*
X33975300Y-128507353D01*
X33975298Y-128507353D01*
X33847119Y-128552206D01*
X33847117Y-128552207D01*
X33737850Y-128632850D01*
X33657207Y-128742117D01*
X33657206Y-128742119D01*
X33612353Y-128870298D01*
X33612353Y-128870300D01*
X33609500Y-128900730D01*
X33609500Y-130109269D01*
X33612353Y-130139699D01*
X33612353Y-130139701D01*
X33657206Y-130267880D01*
X33657207Y-130267882D01*
X33737850Y-130377150D01*
X33847118Y-130457793D01*
X33865660Y-130464281D01*
X33975299Y-130502646D01*
X34005730Y-130505500D01*
X34235191Y-130505500D01*
X34302230Y-130525185D01*
X34347985Y-130577989D01*
X34357929Y-130647147D01*
X34328904Y-130710703D01*
X34273510Y-130747431D01*
X34110968Y-130800244D01*
X33928644Y-130893143D01*
X33884077Y-130925523D01*
X33884077Y-130925524D01*
X34563554Y-131605000D01*
X34557339Y-131605000D01*
X34455606Y-131632259D01*
X34364394Y-131684920D01*
X34289920Y-131759394D01*
X34237259Y-131850606D01*
X34210000Y-131952339D01*
X34210000Y-131958553D01*
X33530524Y-131279077D01*
X33530523Y-131279077D01*
X33498139Y-131323651D01*
X33483272Y-131352829D01*
X33435296Y-131403624D01*
X33367475Y-131420417D01*
X33334472Y-131414462D01*
X33314425Y-131407948D01*
X33314418Y-131407947D01*
X33112317Y-131375937D01*
X32907683Y-131375937D01*
X32705582Y-131407946D01*
X32510968Y-131471181D01*
X32328644Y-131564080D01*
X32284077Y-131596460D01*
X32284077Y-131596461D01*
X32963554Y-132275937D01*
X32957339Y-132275937D01*
X32855606Y-132303196D01*
X32764394Y-132355857D01*
X32689920Y-132430331D01*
X32637259Y-132521543D01*
X32610000Y-132623276D01*
X32610000Y-132629490D01*
X31930524Y-131950014D01*
X31930523Y-131950014D01*
X31898143Y-131994581D01*
X31805244Y-132176905D01*
X31742009Y-132371519D01*
X31710000Y-132573619D01*
X31710000Y-132778254D01*
X31742009Y-132980354D01*
X31805244Y-133174968D01*
X31898141Y-133357287D01*
X31898147Y-133357296D01*
X31930523Y-133401858D01*
X31930524Y-133401859D01*
X32610000Y-132722383D01*
X32610000Y-132728598D01*
X32637259Y-132830331D01*
X32689920Y-132921543D01*
X32764394Y-132996017D01*
X32855606Y-133048678D01*
X32957339Y-133075937D01*
X32963553Y-133075937D01*
X32284076Y-133755411D01*
X32328650Y-133787796D01*
X32510968Y-133880692D01*
X32705582Y-133943927D01*
X32907683Y-133975937D01*
X33112317Y-133975937D01*
X33314417Y-133943927D01*
X33509031Y-133880692D01*
X33691349Y-133787796D01*
X33735921Y-133755411D01*
X33056447Y-133075937D01*
X33062661Y-133075937D01*
X33164394Y-133048678D01*
X33255606Y-132996017D01*
X33330080Y-132921543D01*
X33382741Y-132830331D01*
X33410000Y-132728598D01*
X33410000Y-132722383D01*
X34089474Y-133401858D01*
X34121857Y-133357289D01*
X34121858Y-133357287D01*
X34136724Y-133328111D01*
X34184698Y-133277314D01*
X34252518Y-133260518D01*
X34285530Y-133266474D01*
X34305582Y-133272989D01*
X34305586Y-133272990D01*
X34507683Y-133305000D01*
X34712317Y-133305000D01*
X34914417Y-133272990D01*
X35109031Y-133209755D01*
X35291349Y-133116859D01*
X35335921Y-133084474D01*
X35068825Y-132817378D01*
X41019500Y-132817378D01*
X41019500Y-133092621D01*
X41050315Y-133366108D01*
X41050317Y-133366124D01*
X41111561Y-133634453D01*
X41111565Y-133634465D01*
X41202467Y-133894246D01*
X41321884Y-134142218D01*
X41321886Y-134142221D01*
X41468319Y-134375268D01*
X41639925Y-134590455D01*
X41834545Y-134785075D01*
X42049732Y-134956681D01*
X42282779Y-135103114D01*
X42530757Y-135222534D01*
X42725865Y-135290805D01*
X42790534Y-135313434D01*
X42790546Y-135313438D01*
X43058879Y-135374683D01*
X43332378Y-135405499D01*
X43332379Y-135405500D01*
X43332383Y-135405500D01*
X43607621Y-135405500D01*
X43607621Y-135405499D01*
X43881121Y-135374683D01*
X44149454Y-135313438D01*
X44409243Y-135222534D01*
X44657221Y-135103114D01*
X44890268Y-134956681D01*
X45105455Y-134785075D01*
X45300075Y-134590455D01*
X45471681Y-134375268D01*
X45618114Y-134142221D01*
X45737534Y-133894243D01*
X45792784Y-133736348D01*
X45823652Y-133648134D01*
X45828434Y-133634465D01*
X45828438Y-133634453D01*
X45889682Y-133366124D01*
X45889683Y-133366121D01*
X45920500Y-133092617D01*
X45920500Y-132817383D01*
X45905124Y-132680921D01*
X45891903Y-132563574D01*
X45889684Y-132543888D01*
X45889682Y-132543875D01*
X45865995Y-132440097D01*
X45828438Y-132275546D01*
X45821904Y-132256874D01*
X45787795Y-132159394D01*
X45737534Y-132015757D01*
X45737531Y-132015751D01*
X45737527Y-132015741D01*
X45618115Y-131767781D01*
X45575891Y-131700582D01*
X45471681Y-131534732D01*
X45300075Y-131319545D01*
X45105455Y-131124925D01*
X44890268Y-130953319D01*
X44657221Y-130806886D01*
X44657218Y-130806884D01*
X44409246Y-130687467D01*
X44149465Y-130596565D01*
X44149453Y-130596561D01*
X43881124Y-130535317D01*
X43881108Y-130535315D01*
X43607621Y-130504500D01*
X43607617Y-130504500D01*
X43332383Y-130504500D01*
X43332379Y-130504500D01*
X43058891Y-130535315D01*
X43058875Y-130535317D01*
X42790546Y-130596561D01*
X42790534Y-130596565D01*
X42530753Y-130687467D01*
X42282781Y-130806884D01*
X42049733Y-130953318D01*
X41834545Y-131124924D01*
X41639924Y-131319545D01*
X41468318Y-131534733D01*
X41321884Y-131767781D01*
X41202473Y-132015741D01*
X41202467Y-132015753D01*
X41111565Y-132275534D01*
X41111561Y-132275546D01*
X41050317Y-132543875D01*
X41050315Y-132543891D01*
X41019500Y-132817378D01*
X35068825Y-132817378D01*
X34656446Y-132405000D01*
X34662661Y-132405000D01*
X34764394Y-132377741D01*
X34855606Y-132325080D01*
X34930080Y-132250606D01*
X34982741Y-132159394D01*
X35010000Y-132057661D01*
X35010000Y-132051447D01*
X35689474Y-132730921D01*
X35721859Y-132686349D01*
X35814755Y-132504031D01*
X35877990Y-132309417D01*
X35910000Y-132107317D01*
X35910000Y-131902682D01*
X35877990Y-131700582D01*
X35814755Y-131505968D01*
X35721859Y-131323650D01*
X35689474Y-131279077D01*
X35689474Y-131279076D01*
X35010000Y-131958551D01*
X35010000Y-131952339D01*
X34982741Y-131850606D01*
X34930080Y-131759394D01*
X34855606Y-131684920D01*
X34764394Y-131632259D01*
X34662661Y-131605000D01*
X34656446Y-131605000D01*
X35335922Y-130925524D01*
X35335921Y-130925523D01*
X35291359Y-130893147D01*
X35291350Y-130893141D01*
X35109031Y-130800244D01*
X34946490Y-130747431D01*
X34888815Y-130707993D01*
X34861617Y-130643634D01*
X34873532Y-130574788D01*
X34920776Y-130523312D01*
X34984809Y-130505500D01*
X35214270Y-130505500D01*
X35244699Y-130502646D01*
X35244701Y-130502646D01*
X35323178Y-130475185D01*
X35372882Y-130457793D01*
X35482150Y-130377150D01*
X35562793Y-130267882D01*
X35590980Y-130187327D01*
X35607646Y-130139701D01*
X35607646Y-130139699D01*
X35610500Y-130109269D01*
X35610500Y-130072225D01*
X35630185Y-130005186D01*
X35682989Y-129959431D01*
X35752147Y-129949487D01*
X35772811Y-129954292D01*
X35880628Y-129989324D01*
X35928881Y-130005003D01*
X36115514Y-130034563D01*
X36115519Y-130034563D01*
X48015423Y-130034563D01*
X48202055Y-130005003D01*
X48381769Y-129946610D01*
X48550136Y-129860823D01*
X48703011Y-129749753D01*
X49992318Y-128460443D01*
X50053641Y-128426959D01*
X50123332Y-128431943D01*
X50167680Y-128460444D01*
X51818639Y-130111402D01*
X51831276Y-130126197D01*
X51864982Y-130172589D01*
X51881705Y-130204518D01*
X51897207Y-130248819D01*
X51977850Y-130358087D01*
X52087118Y-130438730D01*
X52126889Y-130452646D01*
X52131413Y-130454229D01*
X52153143Y-130464281D01*
X52158409Y-130467366D01*
X52220801Y-130512697D01*
X52335752Y-130571267D01*
X52338899Y-130573111D01*
X52360449Y-130596003D01*
X52383307Y-130617591D01*
X52384211Y-130621244D01*
X52386791Y-130623984D01*
X52392544Y-130654893D01*
X52400102Y-130685412D01*
X52398888Y-130688973D01*
X52399577Y-130692674D01*
X52387707Y-130721783D01*
X52377565Y-130751546D01*
X52374482Y-130754217D01*
X52373196Y-130757372D01*
X52360753Y-130766113D01*
X52332511Y-130790586D01*
X52168644Y-130874080D01*
X52124077Y-130906460D01*
X52124077Y-130906461D01*
X52803554Y-131585937D01*
X52797339Y-131585937D01*
X52695606Y-131613196D01*
X52604394Y-131665857D01*
X52529920Y-131740331D01*
X52477259Y-131831543D01*
X52450000Y-131933276D01*
X52450000Y-131939490D01*
X51770524Y-131260014D01*
X51770523Y-131260014D01*
X51738139Y-131304588D01*
X51723272Y-131333766D01*
X51675296Y-131384561D01*
X51607475Y-131401354D01*
X51574472Y-131395399D01*
X51554425Y-131388885D01*
X51554418Y-131388884D01*
X51352317Y-131356874D01*
X51147683Y-131356874D01*
X50945582Y-131388883D01*
X50750968Y-131452118D01*
X50568644Y-131545017D01*
X50524077Y-131577397D01*
X50524077Y-131577398D01*
X51203554Y-132256874D01*
X51197339Y-132256874D01*
X51095606Y-132284133D01*
X51004394Y-132336794D01*
X50929920Y-132411268D01*
X50877259Y-132502480D01*
X50850000Y-132604213D01*
X50850000Y-132610427D01*
X50170524Y-131930951D01*
X50170523Y-131930951D01*
X50138143Y-131975518D01*
X50045244Y-132157842D01*
X49982009Y-132352456D01*
X49950000Y-132554556D01*
X49950000Y-132759191D01*
X49982009Y-132961291D01*
X50045244Y-133155905D01*
X50138141Y-133338224D01*
X50138147Y-133338233D01*
X50170523Y-133382795D01*
X50170524Y-133382796D01*
X50850000Y-132703320D01*
X50850000Y-132709535D01*
X50877259Y-132811268D01*
X50929920Y-132902480D01*
X51004394Y-132976954D01*
X51095606Y-133029615D01*
X51197339Y-133056874D01*
X51203553Y-133056874D01*
X50524076Y-133736348D01*
X50568650Y-133768733D01*
X50750968Y-133861629D01*
X50945582Y-133924864D01*
X51147683Y-133956874D01*
X51352317Y-133956874D01*
X51554417Y-133924864D01*
X51749031Y-133861629D01*
X51931349Y-133768733D01*
X51975921Y-133736348D01*
X51296447Y-133056874D01*
X51302661Y-133056874D01*
X51404394Y-133029615D01*
X51495606Y-132976954D01*
X51570080Y-132902480D01*
X51622741Y-132811268D01*
X51650000Y-132709535D01*
X51650000Y-132703320D01*
X52329474Y-133382795D01*
X52361857Y-133338226D01*
X52361858Y-133338224D01*
X52376724Y-133309048D01*
X52424698Y-133258251D01*
X52492518Y-133241455D01*
X52525530Y-133247411D01*
X52545582Y-133253926D01*
X52545586Y-133253927D01*
X52747683Y-133285937D01*
X52952317Y-133285937D01*
X53154417Y-133253927D01*
X53349031Y-133190692D01*
X53531349Y-133097796D01*
X53575921Y-133065411D01*
X52896446Y-132385937D01*
X52902661Y-132385937D01*
X53004394Y-132358678D01*
X53095606Y-132306017D01*
X53170080Y-132231543D01*
X53222741Y-132140331D01*
X53250000Y-132038598D01*
X53250000Y-132032384D01*
X53929474Y-132711858D01*
X53961859Y-132667286D01*
X54054755Y-132484967D01*
X54056227Y-132480438D01*
X54056227Y-132480437D01*
X54056228Y-132480434D01*
X54117990Y-132290354D01*
X54150000Y-132088254D01*
X54150000Y-131883619D01*
X54117989Y-131681518D01*
X54117989Y-131681515D01*
X54101913Y-131632038D01*
X54054755Y-131486905D01*
X53961859Y-131304587D01*
X53929474Y-131260014D01*
X53929474Y-131260013D01*
X53250000Y-131939488D01*
X53250000Y-131933276D01*
X53222741Y-131831543D01*
X53170080Y-131740331D01*
X53095606Y-131665857D01*
X53004394Y-131613196D01*
X52902661Y-131585937D01*
X52896446Y-131585937D01*
X53575922Y-130906461D01*
X53575921Y-130906460D01*
X53531359Y-130874084D01*
X53531350Y-130874078D01*
X53367488Y-130790586D01*
X53360979Y-130784439D01*
X53352501Y-130781565D01*
X53335973Y-130760821D01*
X53316692Y-130742611D01*
X53314539Y-130733920D01*
X53308962Y-130726920D01*
X53306272Y-130700536D01*
X53299897Y-130674790D01*
X53302784Y-130666316D01*
X53301877Y-130657411D01*
X53313877Y-130633762D01*
X53322434Y-130608655D01*
X53330279Y-130601442D01*
X53333496Y-130595105D01*
X53353452Y-130580140D01*
X53361100Y-130573111D01*
X53364239Y-130571271D01*
X53479199Y-130512697D01*
X53541598Y-130467360D01*
X53546854Y-130464281D01*
X53551697Y-130463073D01*
X53568579Y-130454231D01*
X53612882Y-130438730D01*
X53722150Y-130358087D01*
X53802793Y-130248819D01*
X53818294Y-130204516D01*
X53835014Y-130172591D01*
X53876760Y-130115136D01*
X53962547Y-129946769D01*
X53977359Y-129901179D01*
X54016797Y-129843506D01*
X54081156Y-129816308D01*
X54095290Y-129815500D01*
X55054270Y-129815500D01*
X55084699Y-129812646D01*
X55132931Y-129795769D01*
X55199549Y-129772459D01*
X55240504Y-129765500D01*
X63155500Y-129765500D01*
X63222539Y-129785185D01*
X63268294Y-129837989D01*
X63279500Y-129889500D01*
X63279500Y-130059269D01*
X63282353Y-130089699D01*
X63282353Y-130089701D01*
X63327206Y-130217880D01*
X63327207Y-130217882D01*
X63407850Y-130327150D01*
X63517118Y-130407793D01*
X63559845Y-130422744D01*
X63645299Y-130452646D01*
X63675730Y-130455500D01*
X63905191Y-130455500D01*
X63972230Y-130475185D01*
X64017985Y-130527989D01*
X64027929Y-130597147D01*
X63998904Y-130660703D01*
X63943510Y-130697431D01*
X63780968Y-130750244D01*
X63598644Y-130843143D01*
X63554077Y-130875523D01*
X63554077Y-130875524D01*
X64233554Y-131555000D01*
X64227339Y-131555000D01*
X64125606Y-131582259D01*
X64034394Y-131634920D01*
X63959920Y-131709394D01*
X63907259Y-131800606D01*
X63880000Y-131902339D01*
X63880000Y-131908553D01*
X63200524Y-131229077D01*
X63200523Y-131229077D01*
X63168139Y-131273651D01*
X63153272Y-131302829D01*
X63105296Y-131353624D01*
X63037475Y-131370417D01*
X63004472Y-131364462D01*
X62984425Y-131357948D01*
X62984418Y-131357947D01*
X62782317Y-131325937D01*
X62577683Y-131325937D01*
X62375582Y-131357946D01*
X62180968Y-131421181D01*
X61998644Y-131514080D01*
X61954077Y-131546460D01*
X61954077Y-131546461D01*
X62633554Y-132225937D01*
X62627339Y-132225937D01*
X62525606Y-132253196D01*
X62434394Y-132305857D01*
X62359920Y-132380331D01*
X62307259Y-132471543D01*
X62280000Y-132573276D01*
X62280000Y-132579490D01*
X61600524Y-131900014D01*
X61600523Y-131900014D01*
X61568143Y-131944581D01*
X61475244Y-132126905D01*
X61412009Y-132321519D01*
X61380000Y-132523619D01*
X61380000Y-132728254D01*
X61412009Y-132930354D01*
X61475244Y-133124968D01*
X61568141Y-133307287D01*
X61568147Y-133307296D01*
X61600523Y-133351858D01*
X61600524Y-133351859D01*
X62280000Y-132672383D01*
X62280000Y-132678598D01*
X62307259Y-132780331D01*
X62359920Y-132871543D01*
X62434394Y-132946017D01*
X62525606Y-132998678D01*
X62627339Y-133025937D01*
X62633553Y-133025937D01*
X61954076Y-133705411D01*
X61998650Y-133737796D01*
X62180968Y-133830692D01*
X62375582Y-133893927D01*
X62577683Y-133925937D01*
X62782317Y-133925937D01*
X62984417Y-133893927D01*
X63179031Y-133830692D01*
X63361349Y-133737796D01*
X63405921Y-133705411D01*
X62726447Y-133025937D01*
X62732661Y-133025937D01*
X62834394Y-132998678D01*
X62925606Y-132946017D01*
X63000080Y-132871543D01*
X63052741Y-132780331D01*
X63080000Y-132678598D01*
X63080000Y-132672383D01*
X63759474Y-133351858D01*
X63791857Y-133307289D01*
X63791858Y-133307287D01*
X63806724Y-133278111D01*
X63854698Y-133227314D01*
X63922518Y-133210518D01*
X63955530Y-133216474D01*
X63975582Y-133222989D01*
X63975586Y-133222990D01*
X64177683Y-133255000D01*
X64382317Y-133255000D01*
X64584417Y-133222990D01*
X64779031Y-133159755D01*
X64961349Y-133066859D01*
X65005921Y-133034474D01*
X65005922Y-133034474D01*
X64873033Y-132901585D01*
X64788826Y-132817378D01*
X71019500Y-132817378D01*
X71019500Y-133092621D01*
X71050315Y-133366108D01*
X71050317Y-133366124D01*
X71111561Y-133634453D01*
X71111565Y-133634465D01*
X71202467Y-133894246D01*
X71321884Y-134142218D01*
X71321886Y-134142221D01*
X71468319Y-134375268D01*
X71639925Y-134590455D01*
X71834545Y-134785075D01*
X72049732Y-134956681D01*
X72282779Y-135103114D01*
X72530757Y-135222534D01*
X72725865Y-135290805D01*
X72790534Y-135313434D01*
X72790546Y-135313438D01*
X73058879Y-135374683D01*
X73332378Y-135405499D01*
X73332379Y-135405500D01*
X73332383Y-135405500D01*
X73607621Y-135405500D01*
X73607621Y-135405499D01*
X73881121Y-135374683D01*
X74149454Y-135313438D01*
X74409243Y-135222534D01*
X74657221Y-135103114D01*
X74890268Y-134956681D01*
X75105455Y-134785075D01*
X75300075Y-134590455D01*
X75471681Y-134375268D01*
X75618114Y-134142221D01*
X75737534Y-133894243D01*
X75828438Y-133634454D01*
X75828439Y-133634450D01*
X75831397Y-133621493D01*
X75889682Y-133366124D01*
X75889683Y-133366121D01*
X75920500Y-133092617D01*
X75920500Y-132817383D01*
X75889683Y-132543879D01*
X75828438Y-132275546D01*
X75821904Y-132256874D01*
X75787795Y-132159394D01*
X75737534Y-132015757D01*
X75737531Y-132015751D01*
X75737527Y-132015741D01*
X75618115Y-131767781D01*
X75544504Y-131650629D01*
X75501544Y-131582259D01*
X75471681Y-131534732D01*
X75300075Y-131319545D01*
X75105455Y-131124925D01*
X74890268Y-130953319D01*
X74657221Y-130806886D01*
X74657218Y-130806884D01*
X74409246Y-130687467D01*
X74149465Y-130596565D01*
X74149453Y-130596561D01*
X73881124Y-130535317D01*
X73881108Y-130535315D01*
X73607621Y-130504500D01*
X73607617Y-130504500D01*
X73332383Y-130504500D01*
X73332379Y-130504500D01*
X73058891Y-130535315D01*
X73058875Y-130535317D01*
X72790546Y-130596561D01*
X72790534Y-130596565D01*
X72530753Y-130687467D01*
X72282781Y-130806884D01*
X72049733Y-130953318D01*
X71834545Y-131124924D01*
X71639924Y-131319545D01*
X71468318Y-131534733D01*
X71321884Y-131767781D01*
X71202473Y-132015741D01*
X71202467Y-132015753D01*
X71111565Y-132275534D01*
X71111561Y-132275546D01*
X71050317Y-132543875D01*
X71050315Y-132543891D01*
X71019500Y-132817378D01*
X64788826Y-132817378D01*
X64326447Y-132355000D01*
X64332661Y-132355000D01*
X64434394Y-132327741D01*
X64525606Y-132275080D01*
X64600080Y-132200606D01*
X64652741Y-132109394D01*
X64680000Y-132007661D01*
X64680000Y-132001447D01*
X65359474Y-132680921D01*
X65391859Y-132636349D01*
X65484755Y-132454031D01*
X65547990Y-132259417D01*
X65580000Y-132057317D01*
X65580000Y-131852682D01*
X65547990Y-131650582D01*
X65484755Y-131455968D01*
X65391859Y-131273650D01*
X65359474Y-131229077D01*
X65359474Y-131229076D01*
X64680000Y-131908551D01*
X64680000Y-131902339D01*
X64652741Y-131800606D01*
X64600080Y-131709394D01*
X64525606Y-131634920D01*
X64434394Y-131582259D01*
X64332661Y-131555000D01*
X64326446Y-131555000D01*
X65005922Y-130875524D01*
X65005921Y-130875523D01*
X64961359Y-130843147D01*
X64961350Y-130843141D01*
X64779031Y-130750244D01*
X64616490Y-130697431D01*
X64558815Y-130657993D01*
X64531617Y-130593634D01*
X64543532Y-130524788D01*
X64590776Y-130473312D01*
X64654809Y-130455500D01*
X64884270Y-130455500D01*
X64914699Y-130452646D01*
X64914701Y-130452646D01*
X64978790Y-130430219D01*
X65042882Y-130407793D01*
X65152150Y-130327150D01*
X65232793Y-130217882D01*
X65268745Y-130115137D01*
X65277646Y-130089701D01*
X65277646Y-130089699D01*
X65280500Y-130059269D01*
X65280500Y-129908563D01*
X65300185Y-129841524D01*
X65352989Y-129795769D01*
X65404500Y-129784563D01*
X66484270Y-129784563D01*
X66514699Y-129781709D01*
X66576689Y-129760018D01*
X66629549Y-129741522D01*
X66670504Y-129734563D01*
X70617320Y-129734563D01*
X70617321Y-129734563D01*
X77593991Y-129734563D01*
X77661030Y-129754248D01*
X77681672Y-129770882D01*
X78061698Y-130150908D01*
X78128670Y-130217880D01*
X78194093Y-130283303D01*
X78349763Y-130387319D01*
X78349765Y-130387320D01*
X78349770Y-130387323D01*
X78451099Y-130429294D01*
X78522749Y-130458973D01*
X78706378Y-130495499D01*
X78706382Y-130495500D01*
X78706383Y-130495500D01*
X78893619Y-130495500D01*
X78893620Y-130495499D01*
X78954828Y-130483324D01*
X79077242Y-130458975D01*
X79077245Y-130458973D01*
X79077250Y-130458973D01*
X79205439Y-130405876D01*
X79252891Y-130396437D01*
X81529496Y-130396437D01*
X81570451Y-130403396D01*
X81685298Y-130443582D01*
X81685300Y-130443583D01*
X81715730Y-130446437D01*
X81945191Y-130446437D01*
X82012230Y-130466122D01*
X82057985Y-130518926D01*
X82067929Y-130588084D01*
X82038904Y-130651640D01*
X81983510Y-130688368D01*
X81820968Y-130741181D01*
X81638644Y-130834080D01*
X81594077Y-130866460D01*
X81594077Y-130866461D01*
X82273554Y-131545937D01*
X82267339Y-131545937D01*
X82165606Y-131573196D01*
X82074394Y-131625857D01*
X81999920Y-131700331D01*
X81947259Y-131791543D01*
X81920000Y-131893276D01*
X81920000Y-131899490D01*
X81240524Y-131220014D01*
X81240523Y-131220014D01*
X81208139Y-131264588D01*
X81193272Y-131293766D01*
X81145296Y-131344561D01*
X81077475Y-131361354D01*
X81044472Y-131355399D01*
X81024425Y-131348885D01*
X81024418Y-131348884D01*
X80822317Y-131316874D01*
X80617683Y-131316874D01*
X80415582Y-131348883D01*
X80220968Y-131412118D01*
X80038644Y-131505017D01*
X79994077Y-131537397D01*
X79994077Y-131537398D01*
X80673554Y-132216874D01*
X80667339Y-132216874D01*
X80565606Y-132244133D01*
X80474394Y-132296794D01*
X80399920Y-132371268D01*
X80347259Y-132462480D01*
X80320000Y-132564213D01*
X80320000Y-132570427D01*
X79640524Y-131890951D01*
X79640523Y-131890951D01*
X79608143Y-131935518D01*
X79515244Y-132117842D01*
X79452009Y-132312456D01*
X79420000Y-132514556D01*
X79420000Y-132719191D01*
X79452009Y-132921291D01*
X79515244Y-133115905D01*
X79608141Y-133298224D01*
X79608147Y-133298233D01*
X79640523Y-133342795D01*
X79640524Y-133342796D01*
X80320000Y-132663320D01*
X80320000Y-132669535D01*
X80347259Y-132771268D01*
X80399920Y-132862480D01*
X80474394Y-132936954D01*
X80565606Y-132989615D01*
X80667339Y-133016874D01*
X80673553Y-133016874D01*
X79994076Y-133696348D01*
X80038650Y-133728733D01*
X80220968Y-133821629D01*
X80415582Y-133884864D01*
X80617683Y-133916874D01*
X80822317Y-133916874D01*
X81024417Y-133884864D01*
X81219031Y-133821629D01*
X81401349Y-133728733D01*
X81445921Y-133696348D01*
X80766447Y-133016874D01*
X80772661Y-133016874D01*
X80874394Y-132989615D01*
X80965606Y-132936954D01*
X81040080Y-132862480D01*
X81092741Y-132771268D01*
X81120000Y-132669535D01*
X81120000Y-132663320D01*
X81799474Y-133342795D01*
X81831857Y-133298226D01*
X81831858Y-133298224D01*
X81846724Y-133269048D01*
X81894698Y-133218251D01*
X81962518Y-133201455D01*
X81995530Y-133207411D01*
X82015582Y-133213926D01*
X82015586Y-133213927D01*
X82217683Y-133245937D01*
X82422317Y-133245937D01*
X82624417Y-133213927D01*
X82819031Y-133150692D01*
X83001349Y-133057796D01*
X83045921Y-133025411D01*
X82366446Y-132345937D01*
X82372661Y-132345937D01*
X82474394Y-132318678D01*
X82565606Y-132266017D01*
X82640080Y-132191543D01*
X82692741Y-132100331D01*
X82720000Y-131998598D01*
X82720000Y-131992384D01*
X83399474Y-132671858D01*
X83431859Y-132627286D01*
X83524755Y-132444968D01*
X83587990Y-132250354D01*
X83620000Y-132048254D01*
X83620000Y-131843619D01*
X83587990Y-131641519D01*
X83524755Y-131446905D01*
X83431859Y-131264587D01*
X83399474Y-131220014D01*
X83399474Y-131220013D01*
X82720000Y-131899488D01*
X82720000Y-131893276D01*
X82692741Y-131791543D01*
X82640080Y-131700331D01*
X82565606Y-131625857D01*
X82474394Y-131573196D01*
X82372661Y-131545937D01*
X82366446Y-131545937D01*
X83045922Y-130866461D01*
X83045921Y-130866460D01*
X83001359Y-130834084D01*
X83001350Y-130834078D01*
X82819031Y-130741181D01*
X82656490Y-130688368D01*
X82598815Y-130648930D01*
X82571617Y-130584571D01*
X82583532Y-130515725D01*
X82630776Y-130464249D01*
X82694809Y-130446437D01*
X82924270Y-130446437D01*
X82954699Y-130443583D01*
X82954701Y-130443583D01*
X83018790Y-130421156D01*
X83082882Y-130398730D01*
X83192150Y-130318087D01*
X83272793Y-130208819D01*
X83307628Y-130109266D01*
X83317646Y-130080638D01*
X83317646Y-130080636D01*
X83320500Y-130050206D01*
X83320500Y-130013162D01*
X83340185Y-129946123D01*
X83392989Y-129900368D01*
X83462147Y-129890424D01*
X83482811Y-129895229D01*
X83590628Y-129930261D01*
X83638881Y-129945940D01*
X83825514Y-129975500D01*
X83825519Y-129975500D01*
X84014486Y-129975500D01*
X84201118Y-129945940D01*
X84380832Y-129887547D01*
X84549199Y-129801760D01*
X84606654Y-129760014D01*
X84638579Y-129743294D01*
X84682882Y-129727793D01*
X84792150Y-129647150D01*
X84872793Y-129537882D01*
X84888295Y-129493576D01*
X84899223Y-129470378D01*
X84901930Y-129465900D01*
X84946760Y-129404199D01*
X84987055Y-129325113D01*
X84989389Y-129321255D01*
X85011965Y-129300584D01*
X85032990Y-129278323D01*
X85037497Y-129277206D01*
X85040921Y-129274072D01*
X85071092Y-129268887D01*
X85100810Y-129261528D01*
X85105204Y-129263025D01*
X85109781Y-129262239D01*
X85137965Y-129274189D01*
X85166945Y-129284065D01*
X85169833Y-129287701D01*
X85174107Y-129289514D01*
X85191352Y-129314799D01*
X85210397Y-129338780D01*
X85211474Y-129344302D01*
X85213476Y-129347236D01*
X85213709Y-129355747D01*
X85219500Y-129385414D01*
X85219500Y-136220500D01*
X85199815Y-136287539D01*
X85147011Y-136333294D01*
X85095500Y-136344500D01*
X29244500Y-136344500D01*
X29177461Y-136324815D01*
X29131706Y-136272011D01*
X29120500Y-136220500D01*
X29120500Y-119944556D01*
X31540000Y-119944556D01*
X31540000Y-120149191D01*
X31572009Y-120351291D01*
X31635244Y-120545905D01*
X31728141Y-120728224D01*
X31728147Y-120728233D01*
X31760523Y-120772795D01*
X31760524Y-120772796D01*
X32440000Y-120093320D01*
X32440000Y-120099535D01*
X32467259Y-120201268D01*
X32519920Y-120292480D01*
X32594394Y-120366954D01*
X32685606Y-120419615D01*
X32787339Y-120446874D01*
X32793553Y-120446874D01*
X32114076Y-121126348D01*
X32158650Y-121158733D01*
X32340968Y-121251629D01*
X32535582Y-121314864D01*
X32737683Y-121346874D01*
X32942317Y-121346874D01*
X33144417Y-121314864D01*
X33339031Y-121251629D01*
X33521349Y-121158733D01*
X33565921Y-121126348D01*
X32886447Y-120446874D01*
X32892661Y-120446874D01*
X32994394Y-120419615D01*
X33085606Y-120366954D01*
X33160080Y-120292480D01*
X33212741Y-120201268D01*
X33240000Y-120099535D01*
X33240000Y-120093320D01*
X33919474Y-120772795D01*
X33951857Y-120728226D01*
X33951858Y-120728224D01*
X33966724Y-120699048D01*
X34014698Y-120648251D01*
X34082518Y-120631455D01*
X34115530Y-120637411D01*
X34135582Y-120643926D01*
X34135586Y-120643927D01*
X34337683Y-120675937D01*
X34542317Y-120675937D01*
X34744417Y-120643927D01*
X34939031Y-120580692D01*
X35121349Y-120487796D01*
X35165921Y-120455411D01*
X34486446Y-119775937D01*
X34492661Y-119775937D01*
X34594394Y-119748678D01*
X34685606Y-119696017D01*
X34760080Y-119621543D01*
X34812741Y-119530331D01*
X34840000Y-119428598D01*
X34840000Y-119422384D01*
X35519474Y-120101858D01*
X35551859Y-120057286D01*
X35644755Y-119874968D01*
X35707990Y-119680354D01*
X35740000Y-119478254D01*
X35740000Y-119273619D01*
X35707990Y-119071519D01*
X35644755Y-118876905D01*
X35551859Y-118694587D01*
X35519474Y-118650014D01*
X35519474Y-118650013D01*
X34840000Y-119329488D01*
X34840000Y-119323276D01*
X34812741Y-119221543D01*
X34760080Y-119130331D01*
X34685606Y-119055857D01*
X34594394Y-119003196D01*
X34492661Y-118975937D01*
X34486446Y-118975937D01*
X35106427Y-118355957D01*
X35165922Y-118296461D01*
X35165921Y-118296460D01*
X35121359Y-118264084D01*
X35121350Y-118264078D01*
X34939031Y-118171181D01*
X34776490Y-118118368D01*
X34718815Y-118078930D01*
X34691617Y-118014571D01*
X34703532Y-117945725D01*
X34750776Y-117894249D01*
X34814809Y-117876437D01*
X35044270Y-117876437D01*
X35074699Y-117873583D01*
X35074701Y-117873583D01*
X35138790Y-117851156D01*
X35202882Y-117828730D01*
X35312150Y-117748087D01*
X35392793Y-117638819D01*
X35425622Y-117545000D01*
X35437646Y-117510638D01*
X35437646Y-117510636D01*
X35440500Y-117480206D01*
X35440500Y-117329500D01*
X35460185Y-117262461D01*
X35512989Y-117216706D01*
X35564500Y-117205500D01*
X36644270Y-117205500D01*
X36674699Y-117202646D01*
X36674701Y-117202646D01*
X36738790Y-117180219D01*
X36802882Y-117157793D01*
X36912150Y-117077150D01*
X36992793Y-116967882D01*
X37015219Y-116903790D01*
X37037646Y-116839701D01*
X37037646Y-116839699D01*
X37040500Y-116809269D01*
X37040500Y-116645013D01*
X43000000Y-116645013D01*
X43000000Y-117995000D01*
X43885879Y-117995000D01*
X43866901Y-118040818D01*
X43840000Y-118176056D01*
X43840000Y-118313944D01*
X43866901Y-118449182D01*
X43885879Y-118495000D01*
X43000001Y-118495000D01*
X43000001Y-119844986D01*
X43010494Y-119947696D01*
X43010494Y-119947698D01*
X43065640Y-120114119D01*
X43065645Y-120114130D01*
X43157680Y-120263340D01*
X43157683Y-120263344D01*
X43281655Y-120387316D01*
X43281659Y-120387319D01*
X43430869Y-120479354D01*
X43430880Y-120479359D01*
X43597302Y-120534505D01*
X43700019Y-120544999D01*
X44289999Y-120544999D01*
X44290000Y-120544998D01*
X44290000Y-118899120D01*
X44335818Y-118918099D01*
X44471056Y-118945000D01*
X44608944Y-118945000D01*
X44744182Y-118918099D01*
X44790000Y-118899120D01*
X44790000Y-120544999D01*
X45379972Y-120544999D01*
X45379986Y-120544998D01*
X45482696Y-120534505D01*
X45482698Y-120534505D01*
X45649119Y-120479359D01*
X45649130Y-120479354D01*
X45798340Y-120387319D01*
X45798344Y-120387316D01*
X45922316Y-120263344D01*
X45922319Y-120263340D01*
X46014354Y-120114130D01*
X46014359Y-120114119D01*
X46069505Y-119947697D01*
X46079999Y-119844986D01*
X46080000Y-119844973D01*
X46080000Y-118495000D01*
X45194121Y-118495000D01*
X45213099Y-118449182D01*
X45240000Y-118313944D01*
X45240000Y-118176056D01*
X45213099Y-118040818D01*
X45194121Y-117995000D01*
X46079999Y-117995000D01*
X46079999Y-116645028D01*
X46079998Y-116645013D01*
X46069505Y-116542303D01*
X46069505Y-116542301D01*
X46014359Y-116375880D01*
X46014354Y-116375869D01*
X45922319Y-116226659D01*
X45922316Y-116226655D01*
X45798344Y-116102683D01*
X45798340Y-116102680D01*
X45649130Y-116010645D01*
X45649119Y-116010640D01*
X45482697Y-115955494D01*
X45379986Y-115945000D01*
X44790000Y-115945000D01*
X44790000Y-117590879D01*
X44744182Y-117571901D01*
X44608944Y-117545000D01*
X44471056Y-117545000D01*
X44335818Y-117571901D01*
X44290000Y-117590879D01*
X44290000Y-115945000D01*
X43700028Y-115945000D01*
X43700012Y-115945001D01*
X43597303Y-115955494D01*
X43597301Y-115955494D01*
X43430880Y-116010640D01*
X43430869Y-116010645D01*
X43281659Y-116102680D01*
X43281655Y-116102683D01*
X43157683Y-116226655D01*
X43157680Y-116226659D01*
X43065645Y-116375869D01*
X43065640Y-116375880D01*
X43010494Y-116542302D01*
X43000000Y-116645013D01*
X37040500Y-116645013D01*
X37040500Y-115600730D01*
X37037646Y-115570300D01*
X37037646Y-115570298D01*
X36992793Y-115442119D01*
X36992792Y-115442117D01*
X36912150Y-115332850D01*
X36802882Y-115252207D01*
X36802880Y-115252206D01*
X36674700Y-115207353D01*
X36644270Y-115204500D01*
X36644266Y-115204500D01*
X35435734Y-115204500D01*
X35435730Y-115204500D01*
X35405300Y-115207353D01*
X35405298Y-115207353D01*
X35277119Y-115252206D01*
X35277117Y-115252207D01*
X35167850Y-115332850D01*
X35087207Y-115442117D01*
X35087206Y-115442119D01*
X35042353Y-115570298D01*
X35042353Y-115570300D01*
X35039500Y-115600730D01*
X35039500Y-115751437D01*
X35019815Y-115818476D01*
X34967011Y-115864231D01*
X34915500Y-115875437D01*
X33835730Y-115875437D01*
X33805300Y-115878290D01*
X33805298Y-115878290D01*
X33677119Y-115923143D01*
X33677117Y-115923144D01*
X33567850Y-116003787D01*
X33487207Y-116113054D01*
X33487206Y-116113056D01*
X33442353Y-116241235D01*
X33442353Y-116241237D01*
X33439500Y-116271667D01*
X33439500Y-117480206D01*
X33442353Y-117510636D01*
X33442353Y-117510638D01*
X33482255Y-117624668D01*
X33487207Y-117638819D01*
X33567850Y-117748087D01*
X33677118Y-117828730D01*
X33719845Y-117843681D01*
X33805299Y-117873583D01*
X33835730Y-117876437D01*
X34065191Y-117876437D01*
X34132230Y-117896122D01*
X34177985Y-117948926D01*
X34187929Y-118018084D01*
X34158904Y-118081640D01*
X34103510Y-118118368D01*
X33940968Y-118171181D01*
X33758644Y-118264080D01*
X33714077Y-118296460D01*
X33714077Y-118296461D01*
X34393554Y-118975937D01*
X34387339Y-118975937D01*
X34285606Y-119003196D01*
X34194394Y-119055857D01*
X34119920Y-119130331D01*
X34067259Y-119221543D01*
X34040000Y-119323276D01*
X34040000Y-119329490D01*
X33360524Y-118650014D01*
X33360523Y-118650014D01*
X33328139Y-118694588D01*
X33313272Y-118723766D01*
X33265296Y-118774561D01*
X33197475Y-118791354D01*
X33164472Y-118785399D01*
X33144425Y-118778885D01*
X33144418Y-118778884D01*
X32942317Y-118746874D01*
X32737683Y-118746874D01*
X32535582Y-118778883D01*
X32340968Y-118842118D01*
X32158644Y-118935017D01*
X32114077Y-118967397D01*
X32114077Y-118967398D01*
X32793554Y-119646874D01*
X32787339Y-119646874D01*
X32685606Y-119674133D01*
X32594394Y-119726794D01*
X32519920Y-119801268D01*
X32467259Y-119892480D01*
X32440000Y-119994213D01*
X32440000Y-120000427D01*
X31760524Y-119320951D01*
X31760523Y-119320951D01*
X31728143Y-119365518D01*
X31635244Y-119547842D01*
X31572009Y-119742456D01*
X31540000Y-119944556D01*
X29120500Y-119944556D01*
X29120500Y-109527844D01*
X54165000Y-109527844D01*
X54171401Y-109587372D01*
X54171403Y-109587379D01*
X54221645Y-109722086D01*
X54221649Y-109722093D01*
X54307809Y-109837187D01*
X54307812Y-109837190D01*
X54422906Y-109923350D01*
X54422913Y-109923354D01*
X54557620Y-109973596D01*
X54557627Y-109973598D01*
X54617155Y-109979999D01*
X54617172Y-109980000D01*
X56065000Y-109980000D01*
X56065000Y-109433554D01*
X56064998Y-109433553D01*
X56565000Y-109433553D01*
X56565000Y-109980000D01*
X58012828Y-109980000D01*
X58012844Y-109979999D01*
X58072372Y-109973598D01*
X58072379Y-109973596D01*
X58207086Y-109923354D01*
X58207093Y-109923350D01*
X58322187Y-109837190D01*
X58322190Y-109837187D01*
X58408350Y-109722093D01*
X58408354Y-109722086D01*
X58458596Y-109587379D01*
X58458598Y-109587372D01*
X58464999Y-109527844D01*
X58465000Y-109527827D01*
X58465000Y-109477844D01*
X61765000Y-109477844D01*
X61771401Y-109537372D01*
X61771403Y-109537379D01*
X61821645Y-109672086D01*
X61821649Y-109672093D01*
X61907809Y-109787187D01*
X61907812Y-109787190D01*
X62022906Y-109873350D01*
X62022913Y-109873354D01*
X62157620Y-109923596D01*
X62157627Y-109923598D01*
X62217155Y-109929999D01*
X62217172Y-109930000D01*
X63665000Y-109930000D01*
X63665000Y-109383554D01*
X63664998Y-109383553D01*
X64165000Y-109383553D01*
X64165000Y-109930000D01*
X65612828Y-109930000D01*
X65612844Y-109929999D01*
X65672372Y-109923598D01*
X65672379Y-109923596D01*
X65807086Y-109873354D01*
X65807093Y-109873350D01*
X65922187Y-109787190D01*
X65922190Y-109787187D01*
X66008350Y-109672093D01*
X66008354Y-109672086D01*
X66054693Y-109547844D01*
X69365000Y-109547844D01*
X69371401Y-109607372D01*
X69371403Y-109607379D01*
X69421645Y-109742086D01*
X69421649Y-109742093D01*
X69507809Y-109857187D01*
X69507812Y-109857190D01*
X69622906Y-109943350D01*
X69622913Y-109943354D01*
X69757620Y-109993596D01*
X69757627Y-109993598D01*
X69817155Y-109999999D01*
X69817172Y-110000000D01*
X71265000Y-110000000D01*
X71265000Y-109453554D01*
X71264998Y-109453553D01*
X71765000Y-109453553D01*
X71765000Y-110000000D01*
X73212828Y-110000000D01*
X73212844Y-109999999D01*
X73272372Y-109993598D01*
X73272379Y-109993596D01*
X73407086Y-109943354D01*
X73407093Y-109943350D01*
X73522187Y-109857190D01*
X73522190Y-109857187D01*
X73608350Y-109742093D01*
X73608354Y-109742086D01*
X73658596Y-109607379D01*
X73658598Y-109607372D01*
X73663924Y-109557844D01*
X77070000Y-109557844D01*
X77076401Y-109617372D01*
X77076403Y-109617379D01*
X77126645Y-109752086D01*
X77126649Y-109752093D01*
X77212809Y-109867187D01*
X77212812Y-109867190D01*
X77327906Y-109953350D01*
X77327913Y-109953354D01*
X77462620Y-110003596D01*
X77462627Y-110003598D01*
X77522155Y-110009999D01*
X77522172Y-110010000D01*
X78970000Y-110010000D01*
X78970000Y-109463554D01*
X78969998Y-109463553D01*
X79470000Y-109463553D01*
X79470000Y-110010000D01*
X80917828Y-110010000D01*
X80917844Y-110009999D01*
X80977372Y-110003598D01*
X80977379Y-110003596D01*
X81112086Y-109953354D01*
X81112093Y-109953350D01*
X81227187Y-109867190D01*
X81227190Y-109867187D01*
X81313350Y-109752093D01*
X81313354Y-109752086D01*
X81363596Y-109617379D01*
X81363598Y-109617372D01*
X81369999Y-109557844D01*
X81370000Y-109557827D01*
X81370000Y-108460000D01*
X81273553Y-108460000D01*
X80116242Y-109617312D01*
X80054919Y-109650797D01*
X79985227Y-109645813D01*
X79940880Y-109617312D01*
X79870000Y-109546432D01*
X79799120Y-109617312D01*
X79737797Y-109650796D01*
X79668105Y-109645812D01*
X79623758Y-109617311D01*
X79470000Y-109463553D01*
X78969998Y-109463553D01*
X78816241Y-109617311D01*
X78754918Y-109650796D01*
X78685226Y-109645812D01*
X78640879Y-109617311D01*
X78570000Y-109546432D01*
X78499120Y-109617312D01*
X78437797Y-109650797D01*
X78368105Y-109645813D01*
X78323758Y-109617312D01*
X77533625Y-108827179D01*
X77755000Y-108827179D01*
X77755000Y-108892821D01*
X77780119Y-108953465D01*
X77826535Y-108999881D01*
X77887179Y-109025000D01*
X77952821Y-109025000D01*
X78013465Y-108999881D01*
X78059881Y-108953465D01*
X78085000Y-108892821D01*
X78085000Y-108860000D01*
X78273554Y-108860000D01*
X78570000Y-109156446D01*
X78866446Y-108860000D01*
X78833625Y-108827179D01*
X79055000Y-108827179D01*
X79055000Y-108892821D01*
X79080119Y-108953465D01*
X79126535Y-108999881D01*
X79187179Y-109025000D01*
X79252821Y-109025000D01*
X79313465Y-108999881D01*
X79359881Y-108953465D01*
X79385000Y-108892821D01*
X79385000Y-108860000D01*
X79573554Y-108860000D01*
X79870000Y-109156446D01*
X80166446Y-108860000D01*
X80133625Y-108827179D01*
X80355000Y-108827179D01*
X80355000Y-108892821D01*
X80380119Y-108953465D01*
X80426535Y-108999881D01*
X80487179Y-109025000D01*
X80552821Y-109025000D01*
X80613465Y-108999881D01*
X80659881Y-108953465D01*
X80685000Y-108892821D01*
X80685000Y-108827179D01*
X80659881Y-108766535D01*
X80613465Y-108720119D01*
X80552821Y-108695000D01*
X80487179Y-108695000D01*
X80426535Y-108720119D01*
X80380119Y-108766535D01*
X80355000Y-108827179D01*
X80133625Y-108827179D01*
X79870000Y-108563554D01*
X79573554Y-108860000D01*
X79385000Y-108860000D01*
X79385000Y-108827179D01*
X79359881Y-108766535D01*
X79313465Y-108720119D01*
X79252821Y-108695000D01*
X79187179Y-108695000D01*
X79126535Y-108720119D01*
X79080119Y-108766535D01*
X79055000Y-108827179D01*
X78833625Y-108827179D01*
X78570000Y-108563554D01*
X78273554Y-108860000D01*
X78085000Y-108860000D01*
X78085000Y-108827179D01*
X78059881Y-108766535D01*
X78013465Y-108720119D01*
X77952821Y-108695000D01*
X77887179Y-108695000D01*
X77826535Y-108720119D01*
X77780119Y-108766535D01*
X77755000Y-108827179D01*
X77533625Y-108827179D01*
X77166446Y-108460000D01*
X77873554Y-108460000D01*
X77920000Y-108506445D01*
X77966446Y-108460000D01*
X80473554Y-108460000D01*
X80520000Y-108506445D01*
X80566446Y-108460000D01*
X80473554Y-108460000D01*
X77966446Y-108460000D01*
X77873554Y-108460000D01*
X77166446Y-108460000D01*
X77070000Y-108460000D01*
X77070000Y-109557844D01*
X73663924Y-109557844D01*
X73664999Y-109547844D01*
X73665000Y-109547827D01*
X73665000Y-108450000D01*
X73568553Y-108450000D01*
X72411242Y-109607312D01*
X72349919Y-109640797D01*
X72280227Y-109635813D01*
X72235880Y-109607312D01*
X72165000Y-109536432D01*
X72094120Y-109607312D01*
X72032797Y-109640796D01*
X71963105Y-109635812D01*
X71918758Y-109607311D01*
X71765000Y-109453553D01*
X71264998Y-109453553D01*
X71111241Y-109607311D01*
X71049918Y-109640796D01*
X70980226Y-109635812D01*
X70935879Y-109607311D01*
X70865000Y-109536432D01*
X70794120Y-109607312D01*
X70732797Y-109640797D01*
X70663105Y-109635813D01*
X70618758Y-109607312D01*
X69828625Y-108817179D01*
X70050000Y-108817179D01*
X70050000Y-108882821D01*
X70075119Y-108943465D01*
X70121535Y-108989881D01*
X70182179Y-109015000D01*
X70247821Y-109015000D01*
X70308465Y-108989881D01*
X70354881Y-108943465D01*
X70380000Y-108882821D01*
X70380000Y-108850000D01*
X70568554Y-108850000D01*
X70865000Y-109146446D01*
X71161446Y-108850000D01*
X71128625Y-108817179D01*
X71350000Y-108817179D01*
X71350000Y-108882821D01*
X71375119Y-108943465D01*
X71421535Y-108989881D01*
X71482179Y-109015000D01*
X71547821Y-109015000D01*
X71608465Y-108989881D01*
X71654881Y-108943465D01*
X71680000Y-108882821D01*
X71680000Y-108850000D01*
X71868554Y-108850000D01*
X72165000Y-109146446D01*
X72461446Y-108850000D01*
X72428625Y-108817179D01*
X72650000Y-108817179D01*
X72650000Y-108882821D01*
X72675119Y-108943465D01*
X72721535Y-108989881D01*
X72782179Y-109015000D01*
X72847821Y-109015000D01*
X72908465Y-108989881D01*
X72954881Y-108943465D01*
X72980000Y-108882821D01*
X72980000Y-108817179D01*
X72954881Y-108756535D01*
X72908465Y-108710119D01*
X72847821Y-108685000D01*
X72782179Y-108685000D01*
X72721535Y-108710119D01*
X72675119Y-108756535D01*
X72650000Y-108817179D01*
X72428625Y-108817179D01*
X72165000Y-108553554D01*
X71868554Y-108850000D01*
X71680000Y-108850000D01*
X71680000Y-108817179D01*
X71654881Y-108756535D01*
X71608465Y-108710119D01*
X71547821Y-108685000D01*
X71482179Y-108685000D01*
X71421535Y-108710119D01*
X71375119Y-108756535D01*
X71350000Y-108817179D01*
X71128625Y-108817179D01*
X70865000Y-108553554D01*
X70568554Y-108850000D01*
X70380000Y-108850000D01*
X70380000Y-108817179D01*
X70354881Y-108756535D01*
X70308465Y-108710119D01*
X70247821Y-108685000D01*
X70182179Y-108685000D01*
X70121535Y-108710119D01*
X70075119Y-108756535D01*
X70050000Y-108817179D01*
X69828625Y-108817179D01*
X69461446Y-108450000D01*
X70168554Y-108450000D01*
X70215000Y-108496445D01*
X70261446Y-108450000D01*
X72768554Y-108450000D01*
X72815000Y-108496445D01*
X72861446Y-108450000D01*
X72768554Y-108450000D01*
X70261446Y-108450000D01*
X70168554Y-108450000D01*
X69461446Y-108450000D01*
X69365000Y-108450000D01*
X69365000Y-109547844D01*
X66054693Y-109547844D01*
X66058596Y-109537379D01*
X66058598Y-109537372D01*
X66064999Y-109477844D01*
X66065000Y-109477827D01*
X66065000Y-108380000D01*
X65968553Y-108380000D01*
X64811242Y-109537312D01*
X64749919Y-109570797D01*
X64680227Y-109565813D01*
X64635880Y-109537312D01*
X64565000Y-109466432D01*
X64494120Y-109537312D01*
X64432797Y-109570796D01*
X64363105Y-109565812D01*
X64318758Y-109537311D01*
X64165000Y-109383553D01*
X63664998Y-109383553D01*
X63511241Y-109537311D01*
X63449918Y-109570796D01*
X63380226Y-109565812D01*
X63335879Y-109537311D01*
X63265000Y-109466432D01*
X63194120Y-109537312D01*
X63132797Y-109570797D01*
X63063105Y-109565813D01*
X63018758Y-109537312D01*
X62228625Y-108747179D01*
X62450000Y-108747179D01*
X62450000Y-108812821D01*
X62475119Y-108873465D01*
X62521535Y-108919881D01*
X62582179Y-108945000D01*
X62647821Y-108945000D01*
X62708465Y-108919881D01*
X62754881Y-108873465D01*
X62780000Y-108812821D01*
X62780000Y-108780000D01*
X62968554Y-108780000D01*
X63265000Y-109076446D01*
X63561446Y-108780000D01*
X63528625Y-108747179D01*
X63750000Y-108747179D01*
X63750000Y-108812821D01*
X63775119Y-108873465D01*
X63821535Y-108919881D01*
X63882179Y-108945000D01*
X63947821Y-108945000D01*
X64008465Y-108919881D01*
X64054881Y-108873465D01*
X64080000Y-108812821D01*
X64080000Y-108780000D01*
X64268554Y-108780000D01*
X64565000Y-109076446D01*
X64861446Y-108780000D01*
X64828625Y-108747179D01*
X65050000Y-108747179D01*
X65050000Y-108812821D01*
X65075119Y-108873465D01*
X65121535Y-108919881D01*
X65182179Y-108945000D01*
X65247821Y-108945000D01*
X65308465Y-108919881D01*
X65354881Y-108873465D01*
X65380000Y-108812821D01*
X65380000Y-108747179D01*
X65354881Y-108686535D01*
X65308465Y-108640119D01*
X65247821Y-108615000D01*
X65182179Y-108615000D01*
X65121535Y-108640119D01*
X65075119Y-108686535D01*
X65050000Y-108747179D01*
X64828625Y-108747179D01*
X64565000Y-108483554D01*
X64268554Y-108780000D01*
X64080000Y-108780000D01*
X64080000Y-108747179D01*
X64054881Y-108686535D01*
X64008465Y-108640119D01*
X63947821Y-108615000D01*
X63882179Y-108615000D01*
X63821535Y-108640119D01*
X63775119Y-108686535D01*
X63750000Y-108747179D01*
X63528625Y-108747179D01*
X63265000Y-108483554D01*
X62968554Y-108780000D01*
X62780000Y-108780000D01*
X62780000Y-108747179D01*
X62754881Y-108686535D01*
X62708465Y-108640119D01*
X62647821Y-108615000D01*
X62582179Y-108615000D01*
X62521535Y-108640119D01*
X62475119Y-108686535D01*
X62450000Y-108747179D01*
X62228625Y-108747179D01*
X61861446Y-108380000D01*
X62568554Y-108380000D01*
X62615000Y-108426445D01*
X62661446Y-108380000D01*
X65168554Y-108380000D01*
X65215000Y-108426445D01*
X65261446Y-108380000D01*
X65168554Y-108380000D01*
X62661446Y-108380000D01*
X62568554Y-108380000D01*
X61861446Y-108380000D01*
X61765000Y-108380000D01*
X61765000Y-109477844D01*
X58465000Y-109477844D01*
X58465000Y-108430000D01*
X58368553Y-108430000D01*
X57211242Y-109587312D01*
X57149919Y-109620797D01*
X57080227Y-109615813D01*
X57035880Y-109587312D01*
X56965000Y-109516432D01*
X56894120Y-109587312D01*
X56832797Y-109620796D01*
X56763105Y-109615812D01*
X56718758Y-109587311D01*
X56565000Y-109433553D01*
X56064998Y-109433553D01*
X55911241Y-109587311D01*
X55849918Y-109620796D01*
X55780226Y-109615812D01*
X55735879Y-109587311D01*
X55665000Y-109516432D01*
X55594120Y-109587312D01*
X55532797Y-109620797D01*
X55463105Y-109615813D01*
X55418758Y-109587312D01*
X54628625Y-108797179D01*
X54850000Y-108797179D01*
X54850000Y-108862821D01*
X54875119Y-108923465D01*
X54921535Y-108969881D01*
X54982179Y-108995000D01*
X55047821Y-108995000D01*
X55108465Y-108969881D01*
X55154881Y-108923465D01*
X55180000Y-108862821D01*
X55180000Y-108830000D01*
X55368554Y-108830000D01*
X55665000Y-109126446D01*
X55961446Y-108830000D01*
X55928625Y-108797179D01*
X56150000Y-108797179D01*
X56150000Y-108862821D01*
X56175119Y-108923465D01*
X56221535Y-108969881D01*
X56282179Y-108995000D01*
X56347821Y-108995000D01*
X56408465Y-108969881D01*
X56454881Y-108923465D01*
X56480000Y-108862821D01*
X56480000Y-108830000D01*
X56668554Y-108830000D01*
X56965000Y-109126446D01*
X57261446Y-108830000D01*
X57228625Y-108797179D01*
X57450000Y-108797179D01*
X57450000Y-108862821D01*
X57475119Y-108923465D01*
X57521535Y-108969881D01*
X57582179Y-108995000D01*
X57647821Y-108995000D01*
X57708465Y-108969881D01*
X57754881Y-108923465D01*
X57780000Y-108862821D01*
X57780000Y-108797179D01*
X57754881Y-108736535D01*
X57708465Y-108690119D01*
X57647821Y-108665000D01*
X57582179Y-108665000D01*
X57521535Y-108690119D01*
X57475119Y-108736535D01*
X57450000Y-108797179D01*
X57228625Y-108797179D01*
X56965000Y-108533554D01*
X56668554Y-108830000D01*
X56480000Y-108830000D01*
X56480000Y-108797179D01*
X56454881Y-108736535D01*
X56408465Y-108690119D01*
X56347821Y-108665000D01*
X56282179Y-108665000D01*
X56221535Y-108690119D01*
X56175119Y-108736535D01*
X56150000Y-108797179D01*
X55928625Y-108797179D01*
X55665000Y-108533554D01*
X55368554Y-108830000D01*
X55180000Y-108830000D01*
X55180000Y-108797179D01*
X55154881Y-108736535D01*
X55108465Y-108690119D01*
X55047821Y-108665000D01*
X54982179Y-108665000D01*
X54921535Y-108690119D01*
X54875119Y-108736535D01*
X54850000Y-108797179D01*
X54628625Y-108797179D01*
X54261446Y-108430000D01*
X54968554Y-108430000D01*
X55015000Y-108476445D01*
X55061446Y-108430000D01*
X57568554Y-108430000D01*
X57615000Y-108476445D01*
X57661446Y-108430000D01*
X57568554Y-108430000D01*
X55061446Y-108430000D01*
X54968554Y-108430000D01*
X54261446Y-108430000D01*
X54165000Y-108430000D01*
X54165000Y-109527844D01*
X29120500Y-109527844D01*
X29120500Y-106832155D01*
X54165000Y-106832155D01*
X54165000Y-107930000D01*
X54261446Y-107930000D01*
X54968554Y-107930000D01*
X55061445Y-107930000D01*
X57568554Y-107930000D01*
X57661445Y-107930000D01*
X57615000Y-107883554D01*
X57568554Y-107930000D01*
X55061445Y-107930000D01*
X55015000Y-107883554D01*
X54968554Y-107930000D01*
X54261446Y-107930000D01*
X54261446Y-107929999D01*
X54378222Y-107813224D01*
X54694267Y-107497179D01*
X54850000Y-107497179D01*
X54850000Y-107562821D01*
X54875119Y-107623465D01*
X54921535Y-107669881D01*
X54982179Y-107695000D01*
X55047821Y-107695000D01*
X55108465Y-107669881D01*
X55154881Y-107623465D01*
X55180000Y-107562821D01*
X55180000Y-107530000D01*
X55368554Y-107530000D01*
X55665000Y-107826446D01*
X55961446Y-107530000D01*
X55928625Y-107497179D01*
X56150000Y-107497179D01*
X56150000Y-107562821D01*
X56175119Y-107623465D01*
X56221535Y-107669881D01*
X56282179Y-107695000D01*
X56347821Y-107695000D01*
X56408465Y-107669881D01*
X56454881Y-107623465D01*
X56480000Y-107562821D01*
X56480000Y-107530000D01*
X56668554Y-107530000D01*
X56965000Y-107826446D01*
X57261446Y-107530000D01*
X57228625Y-107497179D01*
X57450000Y-107497179D01*
X57450000Y-107562821D01*
X57475119Y-107623465D01*
X57521535Y-107669881D01*
X57582179Y-107695000D01*
X57647821Y-107695000D01*
X57708465Y-107669881D01*
X57754881Y-107623465D01*
X57780000Y-107562821D01*
X57780000Y-107497179D01*
X57754881Y-107436535D01*
X57708465Y-107390119D01*
X57647821Y-107365000D01*
X57582179Y-107365000D01*
X57521535Y-107390119D01*
X57475119Y-107436535D01*
X57450000Y-107497179D01*
X57228625Y-107497179D01*
X56965000Y-107233554D01*
X56668554Y-107530000D01*
X56480000Y-107530000D01*
X56480000Y-107497179D01*
X56454881Y-107436535D01*
X56408465Y-107390119D01*
X56347821Y-107365000D01*
X56282179Y-107365000D01*
X56221535Y-107390119D01*
X56175119Y-107436535D01*
X56150000Y-107497179D01*
X55928625Y-107497179D01*
X55665000Y-107233554D01*
X55368554Y-107530000D01*
X55180000Y-107530000D01*
X55180000Y-107497179D01*
X55154881Y-107436535D01*
X55108465Y-107390119D01*
X55047821Y-107365000D01*
X54982179Y-107365000D01*
X54921535Y-107390119D01*
X54875119Y-107436535D01*
X54850000Y-107497179D01*
X54694267Y-107497179D01*
X55418758Y-106772688D01*
X55480081Y-106739203D01*
X55549773Y-106744187D01*
X55594120Y-106772688D01*
X55664999Y-106843567D01*
X55735878Y-106772688D01*
X55797201Y-106739203D01*
X55866893Y-106744187D01*
X55911241Y-106772688D01*
X56064999Y-106926446D01*
X56565000Y-106926446D01*
X56718758Y-106772688D01*
X56780081Y-106739203D01*
X56849772Y-106744187D01*
X56894120Y-106772688D01*
X56965000Y-106843568D01*
X57035880Y-106772688D01*
X57097203Y-106739203D01*
X57166895Y-106744187D01*
X57211242Y-106772688D01*
X58368554Y-107930000D01*
X58465000Y-107930000D01*
X58465000Y-106832172D01*
X58464999Y-106832155D01*
X58460693Y-106792107D01*
X58459623Y-106782155D01*
X61765000Y-106782155D01*
X61765000Y-107880000D01*
X61861446Y-107880000D01*
X62568554Y-107880000D01*
X62661445Y-107880000D01*
X65168554Y-107880000D01*
X65261445Y-107880000D01*
X65215000Y-107833554D01*
X65168554Y-107880000D01*
X62661445Y-107880000D01*
X62615000Y-107833554D01*
X62568554Y-107880000D01*
X61861446Y-107880000D01*
X61861446Y-107879999D01*
X61978222Y-107763224D01*
X62294267Y-107447179D01*
X62450000Y-107447179D01*
X62450000Y-107512821D01*
X62475119Y-107573465D01*
X62521535Y-107619881D01*
X62582179Y-107645000D01*
X62647821Y-107645000D01*
X62708465Y-107619881D01*
X62754881Y-107573465D01*
X62780000Y-107512821D01*
X62780000Y-107480000D01*
X62968554Y-107480000D01*
X63265000Y-107776446D01*
X63561446Y-107480000D01*
X63528625Y-107447179D01*
X63750000Y-107447179D01*
X63750000Y-107512821D01*
X63775119Y-107573465D01*
X63821535Y-107619881D01*
X63882179Y-107645000D01*
X63947821Y-107645000D01*
X64008465Y-107619881D01*
X64054881Y-107573465D01*
X64080000Y-107512821D01*
X64080000Y-107480000D01*
X64268554Y-107480000D01*
X64565000Y-107776446D01*
X64861446Y-107480000D01*
X64828625Y-107447179D01*
X65050000Y-107447179D01*
X65050000Y-107512821D01*
X65075119Y-107573465D01*
X65121535Y-107619881D01*
X65182179Y-107645000D01*
X65247821Y-107645000D01*
X65308465Y-107619881D01*
X65354881Y-107573465D01*
X65380000Y-107512821D01*
X65380000Y-107447179D01*
X65354881Y-107386535D01*
X65308465Y-107340119D01*
X65247821Y-107315000D01*
X65182179Y-107315000D01*
X65121535Y-107340119D01*
X65075119Y-107386535D01*
X65050000Y-107447179D01*
X64828625Y-107447179D01*
X64565000Y-107183554D01*
X64268554Y-107480000D01*
X64080000Y-107480000D01*
X64080000Y-107447179D01*
X64054881Y-107386535D01*
X64008465Y-107340119D01*
X63947821Y-107315000D01*
X63882179Y-107315000D01*
X63821535Y-107340119D01*
X63775119Y-107386535D01*
X63750000Y-107447179D01*
X63528625Y-107447179D01*
X63265000Y-107183554D01*
X62968554Y-107480000D01*
X62780000Y-107480000D01*
X62780000Y-107447179D01*
X62754881Y-107386535D01*
X62708465Y-107340119D01*
X62647821Y-107315000D01*
X62582179Y-107315000D01*
X62521535Y-107340119D01*
X62475119Y-107386535D01*
X62450000Y-107447179D01*
X62294267Y-107447179D01*
X63018758Y-106722688D01*
X63080081Y-106689203D01*
X63149773Y-106694187D01*
X63194120Y-106722688D01*
X63264999Y-106793567D01*
X63335878Y-106722688D01*
X63397201Y-106689203D01*
X63466893Y-106694187D01*
X63511241Y-106722688D01*
X63664999Y-106876446D01*
X64165000Y-106876446D01*
X64318758Y-106722688D01*
X64380081Y-106689203D01*
X64449772Y-106694187D01*
X64494120Y-106722688D01*
X64565000Y-106793568D01*
X64635880Y-106722688D01*
X64697203Y-106689203D01*
X64766895Y-106694187D01*
X64811242Y-106722688D01*
X65968554Y-107880000D01*
X66065000Y-107880000D01*
X66065000Y-106852155D01*
X69365000Y-106852155D01*
X69365000Y-107950000D01*
X69461446Y-107950000D01*
X70168554Y-107950000D01*
X70261445Y-107950000D01*
X72768554Y-107950000D01*
X72861445Y-107950000D01*
X72815000Y-107903554D01*
X72768554Y-107950000D01*
X70261445Y-107950000D01*
X70215000Y-107903554D01*
X70168554Y-107950000D01*
X69461446Y-107950000D01*
X69461446Y-107949999D01*
X69578222Y-107833224D01*
X69894267Y-107517179D01*
X70050000Y-107517179D01*
X70050000Y-107582821D01*
X70075119Y-107643465D01*
X70121535Y-107689881D01*
X70182179Y-107715000D01*
X70247821Y-107715000D01*
X70308465Y-107689881D01*
X70354881Y-107643465D01*
X70380000Y-107582821D01*
X70380000Y-107550000D01*
X70568554Y-107550000D01*
X70865000Y-107846446D01*
X71161446Y-107550000D01*
X71128625Y-107517179D01*
X71350000Y-107517179D01*
X71350000Y-107582821D01*
X71375119Y-107643465D01*
X71421535Y-107689881D01*
X71482179Y-107715000D01*
X71547821Y-107715000D01*
X71608465Y-107689881D01*
X71654881Y-107643465D01*
X71680000Y-107582821D01*
X71680000Y-107550000D01*
X71868554Y-107550000D01*
X72165000Y-107846446D01*
X72461446Y-107550000D01*
X72428625Y-107517179D01*
X72650000Y-107517179D01*
X72650000Y-107582821D01*
X72675119Y-107643465D01*
X72721535Y-107689881D01*
X72782179Y-107715000D01*
X72847821Y-107715000D01*
X72908465Y-107689881D01*
X72954881Y-107643465D01*
X72980000Y-107582821D01*
X72980000Y-107517179D01*
X72954881Y-107456535D01*
X72908465Y-107410119D01*
X72847821Y-107385000D01*
X72782179Y-107385000D01*
X72721535Y-107410119D01*
X72675119Y-107456535D01*
X72650000Y-107517179D01*
X72428625Y-107517179D01*
X72165000Y-107253554D01*
X71868554Y-107550000D01*
X71680000Y-107550000D01*
X71680000Y-107517179D01*
X71654881Y-107456535D01*
X71608465Y-107410119D01*
X71547821Y-107385000D01*
X71482179Y-107385000D01*
X71421535Y-107410119D01*
X71375119Y-107456535D01*
X71350000Y-107517179D01*
X71128625Y-107517179D01*
X70865000Y-107253554D01*
X70568554Y-107550000D01*
X70380000Y-107550000D01*
X70380000Y-107517179D01*
X70354881Y-107456535D01*
X70308465Y-107410119D01*
X70247821Y-107385000D01*
X70182179Y-107385000D01*
X70121535Y-107410119D01*
X70075119Y-107456535D01*
X70050000Y-107517179D01*
X69894267Y-107517179D01*
X70618758Y-106792688D01*
X70680081Y-106759203D01*
X70749773Y-106764187D01*
X70794120Y-106792688D01*
X70864999Y-106863567D01*
X70935878Y-106792688D01*
X70997201Y-106759203D01*
X71066893Y-106764187D01*
X71111241Y-106792688D01*
X71264999Y-106946446D01*
X71765000Y-106946446D01*
X71918758Y-106792688D01*
X71980081Y-106759203D01*
X72049772Y-106764187D01*
X72094120Y-106792688D01*
X72165000Y-106863568D01*
X72235880Y-106792688D01*
X72297203Y-106759203D01*
X72366895Y-106764187D01*
X72411242Y-106792688D01*
X73568554Y-107950000D01*
X73665000Y-107950000D01*
X73665000Y-106862155D01*
X77070000Y-106862155D01*
X77070000Y-107960000D01*
X77166446Y-107960000D01*
X77873554Y-107960000D01*
X77966445Y-107960000D01*
X80473554Y-107960000D01*
X80566445Y-107960000D01*
X80520000Y-107913554D01*
X80473554Y-107960000D01*
X77966445Y-107960000D01*
X77920000Y-107913554D01*
X77873554Y-107960000D01*
X77166446Y-107960000D01*
X77166446Y-107959999D01*
X77283222Y-107843224D01*
X77599267Y-107527179D01*
X77755000Y-107527179D01*
X77755000Y-107592821D01*
X77780119Y-107653465D01*
X77826535Y-107699881D01*
X77887179Y-107725000D01*
X77952821Y-107725000D01*
X78013465Y-107699881D01*
X78059881Y-107653465D01*
X78085000Y-107592821D01*
X78085000Y-107560000D01*
X78273554Y-107560000D01*
X78570000Y-107856446D01*
X78866446Y-107560000D01*
X78833625Y-107527179D01*
X79055000Y-107527179D01*
X79055000Y-107592821D01*
X79080119Y-107653465D01*
X79126535Y-107699881D01*
X79187179Y-107725000D01*
X79252821Y-107725000D01*
X79313465Y-107699881D01*
X79359881Y-107653465D01*
X79385000Y-107592821D01*
X79385000Y-107560000D01*
X79573554Y-107560000D01*
X79870000Y-107856446D01*
X80166446Y-107560000D01*
X80133625Y-107527179D01*
X80355000Y-107527179D01*
X80355000Y-107592821D01*
X80380119Y-107653465D01*
X80426535Y-107699881D01*
X80487179Y-107725000D01*
X80552821Y-107725000D01*
X80613465Y-107699881D01*
X80659881Y-107653465D01*
X80685000Y-107592821D01*
X80685000Y-107527179D01*
X80659881Y-107466535D01*
X80613465Y-107420119D01*
X80552821Y-107395000D01*
X80487179Y-107395000D01*
X80426535Y-107420119D01*
X80380119Y-107466535D01*
X80355000Y-107527179D01*
X80133625Y-107527179D01*
X79870000Y-107263554D01*
X79573554Y-107560000D01*
X79385000Y-107560000D01*
X79385000Y-107527179D01*
X79359881Y-107466535D01*
X79313465Y-107420119D01*
X79252821Y-107395000D01*
X79187179Y-107395000D01*
X79126535Y-107420119D01*
X79080119Y-107466535D01*
X79055000Y-107527179D01*
X78833625Y-107527179D01*
X78570000Y-107263554D01*
X78273554Y-107560000D01*
X78085000Y-107560000D01*
X78085000Y-107527179D01*
X78059881Y-107466535D01*
X78013465Y-107420119D01*
X77952821Y-107395000D01*
X77887179Y-107395000D01*
X77826535Y-107420119D01*
X77780119Y-107466535D01*
X77755000Y-107527179D01*
X77599267Y-107527179D01*
X78323758Y-106802688D01*
X78385081Y-106769203D01*
X78454773Y-106774187D01*
X78499120Y-106802688D01*
X78569999Y-106873567D01*
X78640878Y-106802688D01*
X78702201Y-106769203D01*
X78771893Y-106774187D01*
X78816241Y-106802688D01*
X78969999Y-106956446D01*
X79470000Y-106956446D01*
X79623758Y-106802688D01*
X79685081Y-106769203D01*
X79754772Y-106774187D01*
X79799120Y-106802688D01*
X79870000Y-106873568D01*
X79940880Y-106802688D01*
X80002203Y-106769203D01*
X80071895Y-106774187D01*
X80116242Y-106802688D01*
X81273554Y-107960000D01*
X81370000Y-107960000D01*
X81370000Y-106862172D01*
X81369999Y-106862155D01*
X81363598Y-106802627D01*
X81363596Y-106802620D01*
X81313354Y-106667913D01*
X81313350Y-106667906D01*
X81227190Y-106552812D01*
X81227187Y-106552809D01*
X81112093Y-106466649D01*
X81112086Y-106466645D01*
X80977379Y-106416403D01*
X80977372Y-106416401D01*
X80917844Y-106410000D01*
X79470000Y-106410000D01*
X79470000Y-106956446D01*
X78969999Y-106956446D01*
X78970000Y-106956445D01*
X78970000Y-106410000D01*
X77522155Y-106410000D01*
X77462627Y-106416401D01*
X77462620Y-106416403D01*
X77327913Y-106466645D01*
X77327906Y-106466649D01*
X77212812Y-106552809D01*
X77212809Y-106552812D01*
X77126649Y-106667906D01*
X77126645Y-106667913D01*
X77076403Y-106802620D01*
X77076401Y-106802627D01*
X77070000Y-106862155D01*
X73665000Y-106862155D01*
X73665000Y-106852172D01*
X73664999Y-106852155D01*
X73658598Y-106792627D01*
X73658596Y-106792620D01*
X73608354Y-106657913D01*
X73608350Y-106657906D01*
X73522190Y-106542812D01*
X73522187Y-106542809D01*
X73407093Y-106456649D01*
X73407086Y-106456645D01*
X73272379Y-106406403D01*
X73272372Y-106406401D01*
X73212844Y-106400000D01*
X71765000Y-106400000D01*
X71765000Y-106946446D01*
X71264999Y-106946446D01*
X71265000Y-106946445D01*
X71265000Y-106400000D01*
X69817155Y-106400000D01*
X69757627Y-106406401D01*
X69757620Y-106406403D01*
X69622913Y-106456645D01*
X69622906Y-106456649D01*
X69507812Y-106542809D01*
X69507809Y-106542812D01*
X69421649Y-106657906D01*
X69421645Y-106657913D01*
X69371403Y-106792620D01*
X69371401Y-106792627D01*
X69365000Y-106852155D01*
X66065000Y-106852155D01*
X66065000Y-106782172D01*
X66064999Y-106782155D01*
X66058598Y-106722627D01*
X66058596Y-106722620D01*
X66008354Y-106587913D01*
X66008350Y-106587906D01*
X65922190Y-106472812D01*
X65922187Y-106472809D01*
X65807093Y-106386649D01*
X65807086Y-106386645D01*
X65672379Y-106336403D01*
X65672372Y-106336401D01*
X65612844Y-106330000D01*
X64165000Y-106330000D01*
X64165000Y-106876446D01*
X63664999Y-106876446D01*
X63665000Y-106876445D01*
X63665000Y-106330000D01*
X62217155Y-106330000D01*
X62157627Y-106336401D01*
X62157620Y-106336403D01*
X62022913Y-106386645D01*
X62022906Y-106386649D01*
X61907812Y-106472809D01*
X61907809Y-106472812D01*
X61821649Y-106587906D01*
X61821645Y-106587913D01*
X61771403Y-106722620D01*
X61771401Y-106722627D01*
X61765000Y-106782155D01*
X58459623Y-106782155D01*
X58458598Y-106772626D01*
X58458596Y-106772620D01*
X58408354Y-106637913D01*
X58408350Y-106637906D01*
X58322190Y-106522812D01*
X58322187Y-106522809D01*
X58207093Y-106436649D01*
X58207086Y-106436645D01*
X58072379Y-106386403D01*
X58072372Y-106386401D01*
X58012844Y-106380000D01*
X56565000Y-106380000D01*
X56565000Y-106926446D01*
X56064999Y-106926446D01*
X56065000Y-106926445D01*
X56065000Y-106380000D01*
X54617155Y-106380000D01*
X54557627Y-106386401D01*
X54557620Y-106386403D01*
X54422913Y-106436645D01*
X54422906Y-106436649D01*
X54307812Y-106522809D01*
X54307809Y-106522812D01*
X54221649Y-106637906D01*
X54221645Y-106637913D01*
X54171403Y-106772620D01*
X54171401Y-106772627D01*
X54165000Y-106832155D01*
X29120500Y-106832155D01*
X29120500Y-95901153D01*
X29607000Y-95901153D01*
X29607000Y-96058846D01*
X29637761Y-96213489D01*
X29637764Y-96213501D01*
X29698102Y-96359172D01*
X29698109Y-96359185D01*
X29785710Y-96490288D01*
X29785713Y-96490292D01*
X29897207Y-96601786D01*
X29897211Y-96601789D01*
X30028314Y-96689390D01*
X30028327Y-96689397D01*
X30173998Y-96749735D01*
X30174003Y-96749737D01*
X30328653Y-96780499D01*
X30328656Y-96780500D01*
X30328658Y-96780500D01*
X31286344Y-96780500D01*
X31286345Y-96780499D01*
X31440997Y-96749737D01*
X31586679Y-96689394D01*
X31717789Y-96601789D01*
X31829289Y-96490289D01*
X31916894Y-96359179D01*
X31977237Y-96213497D01*
X32008000Y-96058842D01*
X32008000Y-95901158D01*
X32008000Y-95901155D01*
X32007999Y-95901153D01*
X54607000Y-95901153D01*
X54607000Y-96058846D01*
X54637761Y-96213489D01*
X54637764Y-96213501D01*
X54698102Y-96359172D01*
X54698109Y-96359185D01*
X54785710Y-96490288D01*
X54785713Y-96490292D01*
X54897207Y-96601786D01*
X54897211Y-96601789D01*
X55028314Y-96689390D01*
X55028327Y-96689397D01*
X55173998Y-96749735D01*
X55174003Y-96749737D01*
X55328653Y-96780499D01*
X55328656Y-96780500D01*
X55328658Y-96780500D01*
X56286344Y-96780500D01*
X56286345Y-96780499D01*
X56440997Y-96749737D01*
X56586679Y-96689394D01*
X56717789Y-96601789D01*
X56829289Y-96490289D01*
X56916894Y-96359179D01*
X56977237Y-96213497D01*
X57008000Y-96058842D01*
X57008000Y-95901158D01*
X57008000Y-95901155D01*
X57007999Y-95901153D01*
X56993718Y-95829358D01*
X56977237Y-95746503D01*
X56922082Y-95613345D01*
X56916897Y-95600827D01*
X56916890Y-95600814D01*
X56829289Y-95469711D01*
X56829286Y-95469707D01*
X56717792Y-95358213D01*
X56717788Y-95358210D01*
X56586685Y-95270609D01*
X56586672Y-95270602D01*
X56441001Y-95210264D01*
X56440989Y-95210261D01*
X56286345Y-95179500D01*
X56286342Y-95179500D01*
X55328658Y-95179500D01*
X55328655Y-95179500D01*
X55174010Y-95210261D01*
X55173998Y-95210264D01*
X55028327Y-95270602D01*
X55028314Y-95270609D01*
X54897211Y-95358210D01*
X54897207Y-95358213D01*
X54785713Y-95469707D01*
X54785710Y-95469711D01*
X54698109Y-95600814D01*
X54698102Y-95600827D01*
X54637764Y-95746498D01*
X54637761Y-95746510D01*
X54607000Y-95901153D01*
X32007999Y-95901153D01*
X31993718Y-95829358D01*
X31977237Y-95746503D01*
X31922082Y-95613345D01*
X31916897Y-95600827D01*
X31916890Y-95600814D01*
X31829289Y-95469711D01*
X31829286Y-95469707D01*
X31717792Y-95358213D01*
X31717788Y-95358210D01*
X31586685Y-95270609D01*
X31586672Y-95270602D01*
X31441001Y-95210264D01*
X31440989Y-95210261D01*
X31286345Y-95179500D01*
X31286342Y-95179500D01*
X30328658Y-95179500D01*
X30328655Y-95179500D01*
X30174010Y-95210261D01*
X30173998Y-95210264D01*
X30028327Y-95270602D01*
X30028314Y-95270609D01*
X29897211Y-95358210D01*
X29897207Y-95358213D01*
X29785713Y-95469707D01*
X29785710Y-95469711D01*
X29698109Y-95600814D01*
X29698102Y-95600827D01*
X29637764Y-95746498D01*
X29637761Y-95746510D01*
X29607000Y-95901153D01*
X29120500Y-95901153D01*
X29120500Y-93801600D01*
X29140185Y-93734561D01*
X29192989Y-93688806D01*
X29262147Y-93678862D01*
X29325703Y-93707887D01*
X29362431Y-93763282D01*
X29388091Y-93842255D01*
X29466695Y-93996524D01*
X29568467Y-94136602D01*
X29690897Y-94259032D01*
X29830975Y-94360804D01*
X29985242Y-94439408D01*
X30149915Y-94492914D01*
X30320929Y-94520000D01*
X30557500Y-94520000D01*
X30557500Y-93735686D01*
X30561894Y-93740080D01*
X30653106Y-93792741D01*
X30754839Y-93820000D01*
X30860161Y-93820000D01*
X30961894Y-93792741D01*
X31053106Y-93740080D01*
X31057500Y-93735686D01*
X31057500Y-94520000D01*
X31294071Y-94520000D01*
X31465084Y-94492914D01*
X31629757Y-94439408D01*
X31784024Y-94360804D01*
X31924102Y-94259032D01*
X32046532Y-94136602D01*
X32148304Y-93996524D01*
X32226908Y-93842255D01*
X32280414Y-93677584D01*
X32281615Y-93670000D01*
X31123186Y-93670000D01*
X31127580Y-93665606D01*
X31180241Y-93574394D01*
X31207500Y-93472661D01*
X31207500Y-93367339D01*
X31180241Y-93265606D01*
X31127580Y-93174394D01*
X31123186Y-93170000D01*
X32281615Y-93170000D01*
X32281615Y-93169999D01*
X54333384Y-93169999D01*
X54333385Y-93170000D01*
X55491814Y-93170000D01*
X55487420Y-93174394D01*
X55434759Y-93265606D01*
X55407500Y-93367339D01*
X55407500Y-93472661D01*
X55434759Y-93574394D01*
X55487420Y-93665606D01*
X55491814Y-93670000D01*
X54333385Y-93670000D01*
X54334585Y-93677584D01*
X54388091Y-93842255D01*
X54466695Y-93996524D01*
X54568467Y-94136602D01*
X54690897Y-94259032D01*
X54830975Y-94360804D01*
X54985242Y-94439408D01*
X55149915Y-94492914D01*
X55320929Y-94520000D01*
X55557500Y-94520000D01*
X55557500Y-93735686D01*
X55561894Y-93740080D01*
X55653106Y-93792741D01*
X55754839Y-93820000D01*
X55860161Y-93820000D01*
X55961894Y-93792741D01*
X56053106Y-93740080D01*
X56057500Y-93735686D01*
X56057500Y-94520000D01*
X56294071Y-94520000D01*
X56465084Y-94492914D01*
X56629757Y-94439408D01*
X56784024Y-94360804D01*
X56924102Y-94259032D01*
X56992404Y-94190730D01*
X81839500Y-94190730D01*
X81839500Y-95199269D01*
X81842353Y-95229699D01*
X81842353Y-95229701D01*
X81887206Y-95357880D01*
X81887207Y-95357882D01*
X81967850Y-95467150D01*
X82077118Y-95547793D01*
X82119845Y-95562744D01*
X82205299Y-95592646D01*
X82235730Y-95595500D01*
X82235734Y-95595500D01*
X82994270Y-95595500D01*
X83024699Y-95592646D01*
X83024701Y-95592646D01*
X83088790Y-95570219D01*
X83152882Y-95547793D01*
X83262150Y-95467150D01*
X83342793Y-95357882D01*
X83365158Y-95293964D01*
X83405877Y-95237192D01*
X83470830Y-95211444D01*
X83539392Y-95224900D01*
X83589795Y-95273287D01*
X83599904Y-95295917D01*
X83655642Y-95464121D01*
X83655643Y-95464124D01*
X83747684Y-95613345D01*
X83871654Y-95737315D01*
X84020875Y-95829356D01*
X84020880Y-95829358D01*
X84187302Y-95884505D01*
X84187309Y-95884506D01*
X84290019Y-95894999D01*
X84414999Y-95894999D01*
X84415000Y-95894998D01*
X84415000Y-93495000D01*
X84384137Y-93495000D01*
X84317098Y-93475315D01*
X84271343Y-93422511D01*
X84261399Y-93353353D01*
X84276749Y-93309001D01*
X84289577Y-93286784D01*
X84330500Y-93134057D01*
X84330500Y-92975943D01*
X84289577Y-92823216D01*
X84284587Y-92814573D01*
X84210524Y-92686290D01*
X84210518Y-92686282D01*
X84098717Y-92574481D01*
X84098709Y-92574475D01*
X83961790Y-92495426D01*
X83961786Y-92495424D01*
X83961784Y-92495423D01*
X83809057Y-92454500D01*
X83650943Y-92454500D01*
X83498216Y-92495423D01*
X83498209Y-92495426D01*
X83361290Y-92574475D01*
X83361282Y-92574481D01*
X83249481Y-92686282D01*
X83249475Y-92686290D01*
X83170426Y-92823209D01*
X83170423Y-92823216D01*
X83129498Y-92975949D01*
X83128556Y-92983107D01*
X83100287Y-93047003D01*
X83093299Y-93054597D01*
X82389716Y-93758181D01*
X82328393Y-93791666D01*
X82302035Y-93794500D01*
X82235730Y-93794500D01*
X82205300Y-93797353D01*
X82205298Y-93797353D01*
X82077119Y-93842206D01*
X82077117Y-93842207D01*
X81967850Y-93922850D01*
X81887207Y-94032117D01*
X81887206Y-94032119D01*
X81842353Y-94160298D01*
X81842353Y-94160300D01*
X81839500Y-94190730D01*
X56992404Y-94190730D01*
X57046534Y-94136600D01*
X57046538Y-94136595D01*
X57062262Y-94114953D01*
X57062264Y-94114950D01*
X57148304Y-93996524D01*
X57226908Y-93842255D01*
X57280414Y-93677584D01*
X57281615Y-93670000D01*
X56123186Y-93670000D01*
X56127580Y-93665606D01*
X56180241Y-93574394D01*
X56207500Y-93472661D01*
X56207500Y-93367339D01*
X56180241Y-93265606D01*
X56127580Y-93174394D01*
X56123186Y-93170000D01*
X57281615Y-93170000D01*
X57281615Y-93169999D01*
X57280414Y-93162415D01*
X57226908Y-92997744D01*
X57148304Y-92843475D01*
X57046532Y-92703397D01*
X56924102Y-92580967D01*
X56784024Y-92479195D01*
X56629757Y-92400591D01*
X56465084Y-92347085D01*
X56294071Y-92320000D01*
X56057500Y-92320000D01*
X56057500Y-93104314D01*
X56053106Y-93099920D01*
X55961894Y-93047259D01*
X55860161Y-93020000D01*
X55754839Y-93020000D01*
X55653106Y-93047259D01*
X55561894Y-93099920D01*
X55557500Y-93104314D01*
X55557500Y-92320000D01*
X55320929Y-92320000D01*
X55149915Y-92347085D01*
X54985242Y-92400591D01*
X54830975Y-92479195D01*
X54690897Y-92580967D01*
X54568467Y-92703397D01*
X54466695Y-92843475D01*
X54388091Y-92997744D01*
X54334585Y-93162415D01*
X54333384Y-93169999D01*
X32281615Y-93169999D01*
X32280414Y-93162415D01*
X32226908Y-92997744D01*
X32148304Y-92843475D01*
X32046532Y-92703397D01*
X31924102Y-92580967D01*
X31784024Y-92479195D01*
X31629757Y-92400591D01*
X31465084Y-92347085D01*
X31294071Y-92320000D01*
X31057500Y-92320000D01*
X31057500Y-93104314D01*
X31053106Y-93099920D01*
X30961894Y-93047259D01*
X30860161Y-93020000D01*
X30754839Y-93020000D01*
X30653106Y-93047259D01*
X30561894Y-93099920D01*
X30557500Y-93104314D01*
X30557500Y-92320000D01*
X30320929Y-92320000D01*
X30149915Y-92347085D01*
X29985242Y-92400591D01*
X29830975Y-92479195D01*
X29690897Y-92580967D01*
X29568467Y-92703397D01*
X29466695Y-92843475D01*
X29388091Y-92997742D01*
X29362431Y-93076718D01*
X29322993Y-93134393D01*
X29258634Y-93161591D01*
X29189788Y-93149676D01*
X29138312Y-93102432D01*
X29120500Y-93038399D01*
X29120500Y-90916153D01*
X29632000Y-90916153D01*
X29632000Y-91073846D01*
X29662761Y-91228489D01*
X29662764Y-91228501D01*
X29723102Y-91374172D01*
X29723109Y-91374185D01*
X29810710Y-91505288D01*
X29810713Y-91505292D01*
X29922207Y-91616786D01*
X29922211Y-91616789D01*
X30053314Y-91704390D01*
X30053327Y-91704397D01*
X30198998Y-91764735D01*
X30199003Y-91764737D01*
X30335766Y-91791941D01*
X30353653Y-91795499D01*
X30353656Y-91795500D01*
X30353658Y-91795500D01*
X31311344Y-91795500D01*
X31311345Y-91795499D01*
X31465997Y-91764737D01*
X31611679Y-91704394D01*
X31742789Y-91616789D01*
X31854289Y-91505289D01*
X31921971Y-91403996D01*
X38399499Y-91403996D01*
X38426418Y-91539322D01*
X38426421Y-91539332D01*
X38479222Y-91666807D01*
X38555885Y-91781542D01*
X38619836Y-91845493D01*
X38619850Y-91845506D01*
X38619864Y-91845520D01*
X38658400Y-91884056D01*
X38683459Y-91909115D01*
X38798182Y-91985771D01*
X38798186Y-91985773D01*
X38798189Y-91985775D01*
X38872866Y-92016707D01*
X38925671Y-92038580D01*
X38952591Y-92043934D01*
X39049630Y-92063237D01*
X39061006Y-92065500D01*
X39061007Y-92065500D01*
X42908996Y-92065500D01*
X43017412Y-92043934D01*
X43044328Y-92038580D01*
X43108069Y-92012177D01*
X43171807Y-91985777D01*
X43171808Y-91985776D01*
X43171811Y-91985775D01*
X43286543Y-91909114D01*
X43494113Y-91701543D01*
X43495507Y-91699456D01*
X43498167Y-91695478D01*
X43570774Y-91586813D01*
X43590443Y-91539328D01*
X43621406Y-91464577D01*
X43623580Y-91459329D01*
X43634486Y-91404500D01*
X43645431Y-91349477D01*
X43650500Y-91323995D01*
X43650500Y-70886004D01*
X43623581Y-70750677D01*
X43623580Y-70750676D01*
X43623580Y-70750672D01*
X43581495Y-70649069D01*
X43570778Y-70623195D01*
X43570771Y-70623182D01*
X43494114Y-70508458D01*
X43494111Y-70508454D01*
X43396545Y-70410888D01*
X43396541Y-70410885D01*
X43281817Y-70334228D01*
X43281804Y-70334221D01*
X43154332Y-70281421D01*
X43154322Y-70281418D01*
X43018995Y-70254500D01*
X43018993Y-70254500D01*
X42881007Y-70254500D01*
X42881005Y-70254500D01*
X42745677Y-70281418D01*
X42745667Y-70281421D01*
X42618195Y-70334221D01*
X42618182Y-70334228D01*
X42503458Y-70410885D01*
X42503454Y-70410888D01*
X42405888Y-70508454D01*
X42405885Y-70508458D01*
X42329228Y-70623182D01*
X42329221Y-70623195D01*
X42276421Y-70750667D01*
X42276418Y-70750677D01*
X42249500Y-70886004D01*
X42249500Y-90540500D01*
X42229815Y-90607539D01*
X42177011Y-90653294D01*
X42125500Y-90664500D01*
X39332026Y-90664500D01*
X39307834Y-90662117D01*
X39168996Y-90634500D01*
X39168994Y-90634500D01*
X39031006Y-90634500D01*
X39031004Y-90634500D01*
X38895677Y-90661418D01*
X38895667Y-90661421D01*
X38768192Y-90714222D01*
X38653454Y-90790887D01*
X38555887Y-90888454D01*
X38479222Y-91003192D01*
X38426421Y-91130667D01*
X38426418Y-91130677D01*
X38399500Y-91266003D01*
X38399500Y-91266006D01*
X38399500Y-91403994D01*
X38399500Y-91403996D01*
X38399499Y-91403996D01*
X31921971Y-91403996D01*
X31941894Y-91374179D01*
X32002237Y-91228497D01*
X32033000Y-91073842D01*
X32033000Y-90916158D01*
X32033000Y-90916155D01*
X32032999Y-90916153D01*
X32011074Y-90805931D01*
X32002237Y-90761503D01*
X31982653Y-90714222D01*
X31941897Y-90615827D01*
X31941890Y-90615814D01*
X31854289Y-90484711D01*
X31854286Y-90484707D01*
X31742792Y-90373213D01*
X31742788Y-90373210D01*
X31611685Y-90285609D01*
X31611672Y-90285602D01*
X31466001Y-90225264D01*
X31465989Y-90225261D01*
X31311345Y-90194500D01*
X31311342Y-90194500D01*
X30353658Y-90194500D01*
X30353655Y-90194500D01*
X30199010Y-90225261D01*
X30198998Y-90225264D01*
X30053327Y-90285602D01*
X30053314Y-90285609D01*
X29922211Y-90373210D01*
X29922207Y-90373213D01*
X29810713Y-90484707D01*
X29810710Y-90484711D01*
X29723109Y-90615814D01*
X29723102Y-90615827D01*
X29662764Y-90761498D01*
X29662761Y-90761510D01*
X29632000Y-90916153D01*
X29120500Y-90916153D01*
X29120500Y-88519071D01*
X30131999Y-88519071D01*
X30156997Y-88644738D01*
X30156999Y-88644744D01*
X30206033Y-88763124D01*
X30206038Y-88763133D01*
X30277223Y-88869668D01*
X30277226Y-88869672D01*
X30367827Y-88960273D01*
X30367831Y-88960276D01*
X30474366Y-89031461D01*
X30474372Y-89031464D01*
X30474373Y-89031465D01*
X30592756Y-89080501D01*
X30592760Y-89080501D01*
X30592761Y-89080502D01*
X30718428Y-89105500D01*
X30718431Y-89105500D01*
X30846571Y-89105500D01*
X30931115Y-89088682D01*
X30972244Y-89080501D01*
X31090627Y-89031465D01*
X31197169Y-88960276D01*
X31287776Y-88869669D01*
X31358965Y-88763127D01*
X31408001Y-88644744D01*
X31433000Y-88519069D01*
X31433000Y-88390931D01*
X31433000Y-88390928D01*
X31408002Y-88265261D01*
X31408001Y-88265260D01*
X31408001Y-88265256D01*
X31358965Y-88146873D01*
X31358964Y-88146872D01*
X31358961Y-88146866D01*
X31287776Y-88040331D01*
X31287773Y-88040327D01*
X31197172Y-87949726D01*
X31197168Y-87949723D01*
X31090633Y-87878538D01*
X31090624Y-87878533D01*
X30972244Y-87829499D01*
X30972238Y-87829497D01*
X30846571Y-87804500D01*
X30846569Y-87804500D01*
X30718431Y-87804500D01*
X30718429Y-87804500D01*
X30592761Y-87829497D01*
X30592755Y-87829499D01*
X30474375Y-87878533D01*
X30474366Y-87878538D01*
X30367831Y-87949723D01*
X30367827Y-87949726D01*
X30277226Y-88040327D01*
X30277223Y-88040331D01*
X30206038Y-88146866D01*
X30206033Y-88146875D01*
X30156999Y-88265255D01*
X30156997Y-88265261D01*
X30132000Y-88390928D01*
X30132000Y-88390931D01*
X30132000Y-88519069D01*
X30132000Y-88519071D01*
X30131999Y-88519071D01*
X29120500Y-88519071D01*
X29120500Y-85816153D01*
X29582000Y-85816153D01*
X29582000Y-85973846D01*
X29612761Y-86128489D01*
X29612764Y-86128501D01*
X29673102Y-86274172D01*
X29673109Y-86274185D01*
X29760710Y-86405288D01*
X29760713Y-86405292D01*
X29872207Y-86516786D01*
X29872211Y-86516789D01*
X30003314Y-86604390D01*
X30003327Y-86604397D01*
X30148998Y-86664735D01*
X30149003Y-86664737D01*
X30303653Y-86695499D01*
X30303656Y-86695500D01*
X30303658Y-86695500D01*
X31261344Y-86695500D01*
X31261345Y-86695499D01*
X31415997Y-86664737D01*
X31561679Y-86604394D01*
X31692789Y-86516789D01*
X31804289Y-86405289D01*
X31891894Y-86274179D01*
X31952237Y-86128497D01*
X31983000Y-85973842D01*
X31983000Y-85816158D01*
X31983000Y-85816155D01*
X31982999Y-85816153D01*
X31964612Y-85723716D01*
X31952237Y-85661503D01*
X31940550Y-85633287D01*
X31891897Y-85515827D01*
X31891890Y-85515814D01*
X31804289Y-85384711D01*
X31804286Y-85384707D01*
X31692792Y-85273213D01*
X31692788Y-85273210D01*
X31561685Y-85185609D01*
X31561672Y-85185602D01*
X31416001Y-85125264D01*
X31415989Y-85125261D01*
X31261345Y-85094500D01*
X31261342Y-85094500D01*
X30303658Y-85094500D01*
X30303655Y-85094500D01*
X30149010Y-85125261D01*
X30148998Y-85125264D01*
X30003327Y-85185602D01*
X30003314Y-85185609D01*
X29872211Y-85273210D01*
X29872207Y-85273213D01*
X29760713Y-85384707D01*
X29760710Y-85384711D01*
X29673109Y-85515814D01*
X29673102Y-85515827D01*
X29612764Y-85661498D01*
X29612761Y-85661510D01*
X29582000Y-85816153D01*
X29120500Y-85816153D01*
X29120500Y-83301153D01*
X29607000Y-83301153D01*
X29607000Y-83458846D01*
X29637761Y-83613489D01*
X29637764Y-83613501D01*
X29698102Y-83759172D01*
X29698109Y-83759185D01*
X29785710Y-83890288D01*
X29785713Y-83890292D01*
X29897207Y-84001786D01*
X29897211Y-84001789D01*
X30028314Y-84089390D01*
X30028327Y-84089397D01*
X30097819Y-84118181D01*
X30174003Y-84149737D01*
X30309977Y-84176784D01*
X30328653Y-84180499D01*
X30328656Y-84180500D01*
X30328658Y-84180500D01*
X31286344Y-84180500D01*
X31286345Y-84180499D01*
X31440997Y-84149737D01*
X31586679Y-84089394D01*
X31717789Y-84001789D01*
X31829289Y-83890289D01*
X31916894Y-83759179D01*
X31977237Y-83613497D01*
X32008000Y-83458842D01*
X32008000Y-83301158D01*
X32008000Y-83301155D01*
X32007999Y-83301153D01*
X31977237Y-83146503D01*
X31925459Y-83021498D01*
X31916897Y-83000827D01*
X31916890Y-83000814D01*
X31829289Y-82869711D01*
X31829286Y-82869707D01*
X31717792Y-82758213D01*
X31717788Y-82758210D01*
X31586685Y-82670609D01*
X31586672Y-82670602D01*
X31441001Y-82610264D01*
X31440989Y-82610261D01*
X31286345Y-82579500D01*
X31286342Y-82579500D01*
X30328658Y-82579500D01*
X30328655Y-82579500D01*
X30174010Y-82610261D01*
X30173998Y-82610264D01*
X30028327Y-82670602D01*
X30028314Y-82670609D01*
X29897211Y-82758210D01*
X29897207Y-82758213D01*
X29785713Y-82869707D01*
X29785710Y-82869711D01*
X29698109Y-83000814D01*
X29698102Y-83000827D01*
X29637764Y-83146498D01*
X29637761Y-83146510D01*
X29607000Y-83301153D01*
X29120500Y-83301153D01*
X29120500Y-80801153D01*
X29632000Y-80801153D01*
X29632000Y-80958846D01*
X29662761Y-81113489D01*
X29662764Y-81113501D01*
X29723102Y-81259172D01*
X29723109Y-81259185D01*
X29810710Y-81390288D01*
X29810713Y-81390292D01*
X29922207Y-81501786D01*
X29922211Y-81501789D01*
X30053314Y-81589390D01*
X30053327Y-81589397D01*
X30198998Y-81649735D01*
X30199003Y-81649737D01*
X30353653Y-81680499D01*
X30353656Y-81680500D01*
X30353658Y-81680500D01*
X31311344Y-81680500D01*
X31311345Y-81680499D01*
X31465997Y-81649737D01*
X31611679Y-81589394D01*
X31742789Y-81501789D01*
X31854289Y-81390289D01*
X31941894Y-81259179D01*
X32002237Y-81113497D01*
X32033000Y-80958842D01*
X32033000Y-80801158D01*
X32033000Y-80801155D01*
X32032999Y-80801153D01*
X32009219Y-80681603D01*
X32002237Y-80646503D01*
X31950459Y-80521498D01*
X31941897Y-80500827D01*
X31941890Y-80500814D01*
X31854289Y-80369711D01*
X31854286Y-80369707D01*
X31742792Y-80258213D01*
X31742788Y-80258210D01*
X31611685Y-80170609D01*
X31611672Y-80170602D01*
X31466001Y-80110264D01*
X31465989Y-80110261D01*
X31311345Y-80079500D01*
X31311342Y-80079500D01*
X30353658Y-80079500D01*
X30353655Y-80079500D01*
X30199010Y-80110261D01*
X30198998Y-80110264D01*
X30053327Y-80170602D01*
X30053314Y-80170609D01*
X29922211Y-80258210D01*
X29922207Y-80258213D01*
X29810713Y-80369707D01*
X29810710Y-80369711D01*
X29723109Y-80500814D01*
X29723102Y-80500827D01*
X29662764Y-80646498D01*
X29662761Y-80646510D01*
X29632000Y-80801153D01*
X29120500Y-80801153D01*
X29120500Y-78241153D01*
X29632000Y-78241153D01*
X29632000Y-78398846D01*
X29662761Y-78553489D01*
X29662764Y-78553501D01*
X29723102Y-78699172D01*
X29723109Y-78699185D01*
X29810710Y-78830288D01*
X29810713Y-78830292D01*
X29922207Y-78941786D01*
X29922211Y-78941789D01*
X30053314Y-79029390D01*
X30053327Y-79029397D01*
X30198998Y-79089735D01*
X30199003Y-79089737D01*
X30319518Y-79113709D01*
X30353653Y-79120499D01*
X30353656Y-79120500D01*
X30353658Y-79120500D01*
X31311344Y-79120500D01*
X31311345Y-79120499D01*
X31465997Y-79089737D01*
X31611679Y-79029394D01*
X31742789Y-78941789D01*
X31854289Y-78830289D01*
X31941894Y-78699179D01*
X32002237Y-78553497D01*
X32033000Y-78398842D01*
X32033000Y-78241158D01*
X32033000Y-78241155D01*
X32032999Y-78241153D01*
X32022061Y-78186166D01*
X32002237Y-78086503D01*
X32002235Y-78086498D01*
X31941897Y-77940827D01*
X31941890Y-77940814D01*
X31854289Y-77809711D01*
X31854286Y-77809707D01*
X31742792Y-77698213D01*
X31742788Y-77698210D01*
X31611685Y-77610609D01*
X31611672Y-77610602D01*
X31466001Y-77550264D01*
X31465989Y-77550261D01*
X31311345Y-77519500D01*
X31311342Y-77519500D01*
X30353658Y-77519500D01*
X30353655Y-77519500D01*
X30199010Y-77550261D01*
X30198998Y-77550264D01*
X30053327Y-77610602D01*
X30053314Y-77610609D01*
X29922211Y-77698210D01*
X29922207Y-77698213D01*
X29810713Y-77809707D01*
X29810710Y-77809711D01*
X29723109Y-77940814D01*
X29723102Y-77940827D01*
X29662764Y-78086498D01*
X29662761Y-78086510D01*
X29632000Y-78241153D01*
X29120500Y-78241153D01*
X29120500Y-75701153D01*
X29582000Y-75701153D01*
X29582000Y-75858846D01*
X29612761Y-76013489D01*
X29612764Y-76013501D01*
X29673102Y-76159172D01*
X29673109Y-76159185D01*
X29760710Y-76290288D01*
X29760713Y-76290292D01*
X29872207Y-76401786D01*
X29872211Y-76401789D01*
X30003314Y-76489390D01*
X30003327Y-76489397D01*
X30117729Y-76536783D01*
X30149003Y-76549737D01*
X30303653Y-76580499D01*
X30303656Y-76580500D01*
X30303658Y-76580500D01*
X31261344Y-76580500D01*
X31261345Y-76580499D01*
X31415997Y-76549737D01*
X31561679Y-76489394D01*
X31692789Y-76401789D01*
X31804289Y-76290289D01*
X31891894Y-76159179D01*
X31893459Y-76155402D01*
X31914553Y-76104475D01*
X31952237Y-76013497D01*
X31983000Y-75858842D01*
X31983000Y-75701158D01*
X31983000Y-75701155D01*
X31982999Y-75701153D01*
X31961968Y-75595423D01*
X31952237Y-75546503D01*
X31935253Y-75505499D01*
X31891897Y-75400827D01*
X31891890Y-75400814D01*
X31804289Y-75269711D01*
X31804286Y-75269707D01*
X31692792Y-75158213D01*
X31692788Y-75158210D01*
X31561685Y-75070609D01*
X31561672Y-75070602D01*
X31416001Y-75010264D01*
X31415989Y-75010261D01*
X31261345Y-74979500D01*
X31261342Y-74979500D01*
X30303658Y-74979500D01*
X30303655Y-74979500D01*
X30149010Y-75010261D01*
X30148998Y-75010264D01*
X30003327Y-75070602D01*
X30003314Y-75070609D01*
X29872211Y-75158210D01*
X29872207Y-75158213D01*
X29760713Y-75269707D01*
X29760710Y-75269711D01*
X29673109Y-75400814D01*
X29673102Y-75400827D01*
X29612764Y-75546498D01*
X29612761Y-75546510D01*
X29582000Y-75701153D01*
X29120500Y-75701153D01*
X29120500Y-73066153D01*
X29582000Y-73066153D01*
X29582000Y-73223846D01*
X29612761Y-73378489D01*
X29612764Y-73378501D01*
X29673102Y-73524172D01*
X29673109Y-73524185D01*
X29760710Y-73655288D01*
X29760713Y-73655292D01*
X29872207Y-73766786D01*
X29872211Y-73766789D01*
X30003314Y-73854390D01*
X30003327Y-73854397D01*
X30133429Y-73908286D01*
X30149003Y-73914737D01*
X30303653Y-73945499D01*
X30303656Y-73945500D01*
X30303658Y-73945500D01*
X31261344Y-73945500D01*
X31261345Y-73945499D01*
X31415997Y-73914737D01*
X31561679Y-73854394D01*
X31692789Y-73766789D01*
X31804289Y-73655289D01*
X31891894Y-73524179D01*
X31952237Y-73378497D01*
X31983000Y-73223842D01*
X31983000Y-73066158D01*
X31983000Y-73066155D01*
X31982999Y-73066153D01*
X31952238Y-72911510D01*
X31952237Y-72911503D01*
X31952235Y-72911498D01*
X31891897Y-72765827D01*
X31891890Y-72765814D01*
X31804289Y-72634711D01*
X31804286Y-72634707D01*
X31692792Y-72523213D01*
X31692788Y-72523210D01*
X31561685Y-72435609D01*
X31561672Y-72435602D01*
X31416001Y-72375264D01*
X31415989Y-72375261D01*
X31261345Y-72344500D01*
X31261342Y-72344500D01*
X30303658Y-72344500D01*
X30303655Y-72344500D01*
X30149010Y-72375261D01*
X30148998Y-72375264D01*
X30003327Y-72435602D01*
X30003314Y-72435609D01*
X29872211Y-72523210D01*
X29872207Y-72523213D01*
X29760713Y-72634707D01*
X29760710Y-72634711D01*
X29673109Y-72765814D01*
X29673102Y-72765827D01*
X29612764Y-72911498D01*
X29612761Y-72911510D01*
X29582000Y-73066153D01*
X29120500Y-73066153D01*
X29120500Y-70506153D01*
X29582000Y-70506153D01*
X29582000Y-70663846D01*
X29612761Y-70818489D01*
X29612764Y-70818501D01*
X29673102Y-70964172D01*
X29673109Y-70964185D01*
X29760710Y-71095288D01*
X29760713Y-71095292D01*
X29872207Y-71206786D01*
X29872211Y-71206789D01*
X30003314Y-71294390D01*
X30003327Y-71294397D01*
X30148998Y-71354735D01*
X30149003Y-71354737D01*
X30303653Y-71385499D01*
X30303656Y-71385500D01*
X30303658Y-71385500D01*
X31261344Y-71385500D01*
X31261345Y-71385499D01*
X31415997Y-71354737D01*
X31561679Y-71294394D01*
X31692789Y-71206789D01*
X31804289Y-71095289D01*
X31891894Y-70964179D01*
X31952237Y-70818497D01*
X31983000Y-70663842D01*
X31983000Y-70506158D01*
X31983000Y-70506155D01*
X31982999Y-70506153D01*
X31952238Y-70351510D01*
X31952237Y-70351503D01*
X31945079Y-70334221D01*
X31891897Y-70205827D01*
X31891890Y-70205814D01*
X31804289Y-70074711D01*
X31804286Y-70074707D01*
X31692792Y-69963213D01*
X31692788Y-69963210D01*
X31561685Y-69875609D01*
X31561672Y-69875602D01*
X31416001Y-69815264D01*
X31415989Y-69815261D01*
X31261345Y-69784500D01*
X31261342Y-69784500D01*
X30303658Y-69784500D01*
X30303655Y-69784500D01*
X30149010Y-69815261D01*
X30148998Y-69815264D01*
X30003327Y-69875602D01*
X30003314Y-69875609D01*
X29872211Y-69963210D01*
X29872207Y-69963213D01*
X29760713Y-70074707D01*
X29760710Y-70074711D01*
X29673109Y-70205814D01*
X29673102Y-70205827D01*
X29612764Y-70351498D01*
X29612761Y-70351510D01*
X29582000Y-70506153D01*
X29120500Y-70506153D01*
X29120500Y-68109071D01*
X30081999Y-68109071D01*
X30106997Y-68234738D01*
X30106999Y-68234744D01*
X30156033Y-68353124D01*
X30156038Y-68353133D01*
X30227223Y-68459668D01*
X30227226Y-68459672D01*
X30317827Y-68550273D01*
X30317831Y-68550276D01*
X30424366Y-68621461D01*
X30424375Y-68621466D01*
X30451192Y-68632574D01*
X30542756Y-68670501D01*
X30542760Y-68670501D01*
X30542761Y-68670502D01*
X30668428Y-68695500D01*
X30668431Y-68695500D01*
X30796571Y-68695500D01*
X30881115Y-68678682D01*
X30922244Y-68670501D01*
X31040627Y-68621465D01*
X31147169Y-68550276D01*
X31237776Y-68459669D01*
X31308965Y-68353127D01*
X31358001Y-68234744D01*
X31369698Y-68175943D01*
X42599500Y-68175943D01*
X42599500Y-68334057D01*
X42633159Y-68459672D01*
X42640423Y-68486783D01*
X42640426Y-68486790D01*
X42719475Y-68623709D01*
X42719479Y-68623714D01*
X42719480Y-68623716D01*
X42831284Y-68735520D01*
X42831286Y-68735521D01*
X42831290Y-68735524D01*
X42968209Y-68814573D01*
X42968216Y-68814577D01*
X43120943Y-68855500D01*
X43120945Y-68855500D01*
X43272035Y-68855500D01*
X43339074Y-68875185D01*
X43359716Y-68891819D01*
X44453181Y-69985284D01*
X44486666Y-70046607D01*
X44489500Y-70072965D01*
X44489500Y-90455069D01*
X44469815Y-90522108D01*
X44463875Y-90530557D01*
X44459475Y-90536290D01*
X44380426Y-90673209D01*
X44380423Y-90673216D01*
X44339500Y-90825943D01*
X44339500Y-90984057D01*
X44378786Y-91130672D01*
X44380423Y-91136783D01*
X44380426Y-91136790D01*
X44459475Y-91273709D01*
X44459479Y-91273714D01*
X44459480Y-91273716D01*
X44571284Y-91385520D01*
X44571286Y-91385521D01*
X44571290Y-91385524D01*
X44699126Y-91459329D01*
X44708216Y-91464577D01*
X44860943Y-91505500D01*
X44860945Y-91505500D01*
X45019055Y-91505500D01*
X45019057Y-91505500D01*
X45171784Y-91464577D01*
X45308716Y-91385520D01*
X45420520Y-91273716D01*
X45499577Y-91136784D01*
X45540500Y-90984057D01*
X45540500Y-90934071D01*
X55156999Y-90934071D01*
X55181997Y-91059738D01*
X55181999Y-91059744D01*
X55231033Y-91178124D01*
X55231038Y-91178133D01*
X55302223Y-91284668D01*
X55302226Y-91284672D01*
X55392827Y-91375273D01*
X55392831Y-91375276D01*
X55499366Y-91446461D01*
X55499372Y-91446464D01*
X55499373Y-91446465D01*
X55617756Y-91495501D01*
X55617760Y-91495501D01*
X55617761Y-91495502D01*
X55743428Y-91520500D01*
X55743431Y-91520500D01*
X55871571Y-91520500D01*
X55956115Y-91503682D01*
X55997244Y-91495501D01*
X56115627Y-91446465D01*
X56222169Y-91375276D01*
X56312776Y-91284669D01*
X56383965Y-91178127D01*
X56433001Y-91059744D01*
X56444251Y-91003189D01*
X56458000Y-90934071D01*
X56458000Y-90805928D01*
X56433002Y-90680261D01*
X56433000Y-90680254D01*
X56425487Y-90662117D01*
X56383965Y-90561873D01*
X56383964Y-90561872D01*
X56383961Y-90561866D01*
X56312776Y-90455331D01*
X56312773Y-90455327D01*
X56222172Y-90364726D01*
X56222168Y-90364723D01*
X56115633Y-90293538D01*
X56115624Y-90293533D01*
X55997244Y-90244499D01*
X55997238Y-90244497D01*
X55871571Y-90219500D01*
X55871569Y-90219500D01*
X55743431Y-90219500D01*
X55743429Y-90219500D01*
X55617761Y-90244497D01*
X55617755Y-90244499D01*
X55499375Y-90293533D01*
X55499366Y-90293538D01*
X55392831Y-90364723D01*
X55392827Y-90364726D01*
X55302226Y-90455327D01*
X55302223Y-90455331D01*
X55231038Y-90561866D01*
X55231033Y-90561875D01*
X55182000Y-90680254D01*
X55181997Y-90680261D01*
X55157000Y-90805928D01*
X55157000Y-90805931D01*
X55157000Y-90934069D01*
X55157000Y-90934071D01*
X55156999Y-90934071D01*
X45540500Y-90934071D01*
X45540500Y-90825943D01*
X45499577Y-90673216D01*
X45492767Y-90661420D01*
X45420524Y-90536290D01*
X45420521Y-90536287D01*
X45420520Y-90536284D01*
X45420517Y-90536281D01*
X45416125Y-90530557D01*
X45390930Y-90465388D01*
X45390500Y-90455069D01*
X45390500Y-88394071D01*
X55106999Y-88394071D01*
X55131997Y-88519738D01*
X55131999Y-88519744D01*
X55181033Y-88638124D01*
X55181038Y-88638133D01*
X55252223Y-88744668D01*
X55252226Y-88744672D01*
X55342827Y-88835273D01*
X55342831Y-88835276D01*
X55449366Y-88906461D01*
X55449372Y-88906464D01*
X55449373Y-88906465D01*
X55567756Y-88955501D01*
X55567760Y-88955501D01*
X55567761Y-88955502D01*
X55693428Y-88980500D01*
X55693431Y-88980500D01*
X55821571Y-88980500D01*
X55923254Y-88960273D01*
X55947244Y-88955501D01*
X56065627Y-88906465D01*
X56172169Y-88835276D01*
X56262776Y-88744669D01*
X56333965Y-88638127D01*
X56383001Y-88519744D01*
X56408000Y-88394069D01*
X56408000Y-88265931D01*
X56408000Y-88265928D01*
X56383002Y-88140261D01*
X56383001Y-88140260D01*
X56383001Y-88140256D01*
X56333965Y-88021873D01*
X56333964Y-88021872D01*
X56333961Y-88021866D01*
X56262776Y-87915331D01*
X56262773Y-87915327D01*
X56172172Y-87824726D01*
X56172168Y-87824723D01*
X56065633Y-87753538D01*
X56065624Y-87753533D01*
X55947244Y-87704499D01*
X55947238Y-87704497D01*
X55821571Y-87679500D01*
X55821569Y-87679500D01*
X55693431Y-87679500D01*
X55693429Y-87679500D01*
X55567761Y-87704497D01*
X55567755Y-87704499D01*
X55449375Y-87753533D01*
X55449366Y-87753538D01*
X55342831Y-87824723D01*
X55342827Y-87824726D01*
X55252226Y-87915327D01*
X55252223Y-87915331D01*
X55181038Y-88021866D01*
X55181033Y-88021875D01*
X55131999Y-88140255D01*
X55131997Y-88140261D01*
X55107000Y-88265928D01*
X55107000Y-88265931D01*
X55107000Y-88394069D01*
X55107000Y-88394071D01*
X55106999Y-88394071D01*
X45390500Y-88394071D01*
X45390500Y-85691153D01*
X54557000Y-85691153D01*
X54557000Y-85848846D01*
X54587761Y-86003489D01*
X54587764Y-86003501D01*
X54648102Y-86149172D01*
X54648109Y-86149185D01*
X54735710Y-86280288D01*
X54735713Y-86280292D01*
X54847207Y-86391786D01*
X54847211Y-86391789D01*
X54978314Y-86479390D01*
X54978327Y-86479397D01*
X55068601Y-86516789D01*
X55124003Y-86539737D01*
X55278653Y-86570499D01*
X55278656Y-86570500D01*
X55278658Y-86570500D01*
X56236344Y-86570500D01*
X56236345Y-86570499D01*
X56390997Y-86539737D01*
X56536679Y-86479394D01*
X56667789Y-86391789D01*
X56779289Y-86280289D01*
X56866894Y-86149179D01*
X56927237Y-86003497D01*
X56958000Y-85848842D01*
X56958000Y-85691158D01*
X56958000Y-85691155D01*
X56957999Y-85691153D01*
X56940607Y-85603717D01*
X56927237Y-85536503D01*
X56918670Y-85515821D01*
X56866897Y-85390827D01*
X56866890Y-85390814D01*
X56779289Y-85259711D01*
X56779286Y-85259707D01*
X56667792Y-85148213D01*
X56667788Y-85148210D01*
X56536685Y-85060609D01*
X56536672Y-85060602D01*
X56391001Y-85000264D01*
X56390989Y-85000261D01*
X56236345Y-84969500D01*
X56236342Y-84969500D01*
X55278658Y-84969500D01*
X55278655Y-84969500D01*
X55124010Y-85000261D01*
X55123998Y-85000264D01*
X54978327Y-85060602D01*
X54978314Y-85060609D01*
X54847211Y-85148210D01*
X54847207Y-85148213D01*
X54735713Y-85259707D01*
X54735710Y-85259711D01*
X54648109Y-85390814D01*
X54648102Y-85390827D01*
X54587764Y-85536498D01*
X54587761Y-85536510D01*
X54557000Y-85691153D01*
X45390500Y-85691153D01*
X45390500Y-83176153D01*
X54582000Y-83176153D01*
X54582000Y-83333846D01*
X54612761Y-83488489D01*
X54612764Y-83488501D01*
X54673102Y-83634172D01*
X54673109Y-83634185D01*
X54760710Y-83765288D01*
X54760713Y-83765292D01*
X54872207Y-83876786D01*
X54872211Y-83876789D01*
X55003314Y-83964390D01*
X55003327Y-83964397D01*
X55093601Y-84001789D01*
X55149003Y-84024737D01*
X55303653Y-84055499D01*
X55303656Y-84055500D01*
X55303658Y-84055500D01*
X56261344Y-84055500D01*
X56261345Y-84055499D01*
X56415997Y-84024737D01*
X56561679Y-83964394D01*
X56692789Y-83876789D01*
X56804289Y-83765289D01*
X56891894Y-83634179D01*
X56952237Y-83488497D01*
X56983000Y-83333842D01*
X56983000Y-83176158D01*
X56983000Y-83176155D01*
X56982999Y-83176153D01*
X56952238Y-83021510D01*
X56952237Y-83021503D01*
X56943670Y-83000821D01*
X56891897Y-82875827D01*
X56891890Y-82875814D01*
X56804289Y-82744711D01*
X56804286Y-82744707D01*
X56692792Y-82633213D01*
X56692788Y-82633210D01*
X56561685Y-82545609D01*
X56561672Y-82545602D01*
X56416001Y-82485264D01*
X56415989Y-82485261D01*
X56261345Y-82454500D01*
X56261342Y-82454500D01*
X55303658Y-82454500D01*
X55303655Y-82454500D01*
X55149010Y-82485261D01*
X55148998Y-82485264D01*
X55003327Y-82545602D01*
X55003314Y-82545609D01*
X54872211Y-82633210D01*
X54872207Y-82633213D01*
X54760713Y-82744707D01*
X54760710Y-82744711D01*
X54673109Y-82875814D01*
X54673102Y-82875827D01*
X54612764Y-83021498D01*
X54612761Y-83021510D01*
X54582000Y-83176153D01*
X45390500Y-83176153D01*
X45390500Y-74825943D01*
X45899500Y-74825943D01*
X45899500Y-74984057D01*
X45922692Y-75070609D01*
X45940423Y-75136783D01*
X45940426Y-75136790D01*
X46019475Y-75273709D01*
X46019479Y-75273714D01*
X46019480Y-75273716D01*
X46131284Y-75385520D01*
X46131286Y-75385521D01*
X46131290Y-75385524D01*
X46193621Y-75421510D01*
X46268216Y-75464577D01*
X46420943Y-75505500D01*
X46420945Y-75505500D01*
X46579055Y-75505500D01*
X46579057Y-75505500D01*
X46731784Y-75464577D01*
X46868716Y-75385520D01*
X46868721Y-75385514D01*
X46874443Y-75381125D01*
X46939612Y-75355930D01*
X46949931Y-75355500D01*
X52082035Y-75355500D01*
X52149074Y-75375185D01*
X52169716Y-75391819D01*
X54043386Y-77265489D01*
X54146113Y-77324799D01*
X54170321Y-77331284D01*
X54170324Y-77331286D01*
X54170325Y-77331286D01*
X54200447Y-77339357D01*
X54260691Y-77355500D01*
X54260693Y-77355500D01*
X54815935Y-77355500D01*
X54882974Y-77375185D01*
X54928729Y-77427989D01*
X54938673Y-77497147D01*
X54909648Y-77560703D01*
X54901373Y-77568758D01*
X54901518Y-77568903D01*
X54785713Y-77684707D01*
X54785710Y-77684711D01*
X54698109Y-77815814D01*
X54698102Y-77815827D01*
X54637764Y-77961498D01*
X54637761Y-77961510D01*
X54607000Y-78116153D01*
X54607000Y-78273846D01*
X54637761Y-78428489D01*
X54637764Y-78428501D01*
X54698102Y-78574172D01*
X54698109Y-78574185D01*
X54785710Y-78705288D01*
X54785713Y-78705292D01*
X54863240Y-78782819D01*
X54896725Y-78844142D01*
X54891741Y-78913834D01*
X54849869Y-78969767D01*
X54784405Y-78994184D01*
X54775559Y-78994500D01*
X50177965Y-78994500D01*
X50110926Y-78974815D01*
X50090284Y-78958181D01*
X47633299Y-76501196D01*
X47599814Y-76439873D01*
X47600950Y-76392315D01*
X47599439Y-76392116D01*
X47600500Y-76384057D01*
X47600500Y-76225945D01*
X47600500Y-76225943D01*
X47559577Y-76073216D01*
X47555122Y-76065500D01*
X47480524Y-75936290D01*
X47480518Y-75936282D01*
X47368717Y-75824481D01*
X47368709Y-75824475D01*
X47231790Y-75745426D01*
X47231786Y-75745424D01*
X47231784Y-75745423D01*
X47079057Y-75704500D01*
X46920943Y-75704500D01*
X46768216Y-75745423D01*
X46768209Y-75745426D01*
X46631290Y-75824475D01*
X46631282Y-75824481D01*
X46519481Y-75936282D01*
X46519475Y-75936290D01*
X46440426Y-76073209D01*
X46440423Y-76073216D01*
X46399500Y-76225943D01*
X46399500Y-76384057D01*
X46436922Y-76523716D01*
X46440423Y-76536783D01*
X46440426Y-76536790D01*
X46519475Y-76673709D01*
X46519481Y-76673717D01*
X46631284Y-76785520D01*
X46645853Y-76793931D01*
X46671535Y-76813638D01*
X49663386Y-79805489D01*
X49766113Y-79864799D01*
X49790321Y-79871284D01*
X49790324Y-79871286D01*
X49790325Y-79871286D01*
X49820447Y-79879357D01*
X49880691Y-79895500D01*
X49880693Y-79895500D01*
X54844197Y-79895500D01*
X54911236Y-79915185D01*
X54956991Y-79967989D01*
X54966935Y-80037147D01*
X54937910Y-80100703D01*
X54913088Y-80122602D01*
X54897211Y-80133210D01*
X54897207Y-80133213D01*
X54785713Y-80244707D01*
X54785710Y-80244711D01*
X54698109Y-80375814D01*
X54698102Y-80375827D01*
X54637764Y-80521498D01*
X54637761Y-80521510D01*
X54607000Y-80676153D01*
X54607000Y-80833846D01*
X54637761Y-80988489D01*
X54637764Y-80988501D01*
X54698102Y-81134172D01*
X54698109Y-81134185D01*
X54785710Y-81265288D01*
X54785713Y-81265292D01*
X54897207Y-81376786D01*
X54897211Y-81376789D01*
X55028314Y-81464390D01*
X55028327Y-81464397D01*
X55118601Y-81501789D01*
X55174003Y-81524737D01*
X55328653Y-81555499D01*
X55328656Y-81555500D01*
X55328658Y-81555500D01*
X56286344Y-81555500D01*
X56286345Y-81555499D01*
X56440997Y-81524737D01*
X56586679Y-81464394D01*
X56717789Y-81376789D01*
X56829289Y-81265289D01*
X56916894Y-81134179D01*
X56977237Y-80988497D01*
X57008000Y-80833842D01*
X57008000Y-80676158D01*
X57008000Y-80676155D01*
X57007999Y-80676153D01*
X56977237Y-80521503D01*
X56968670Y-80500821D01*
X56916897Y-80375827D01*
X56916890Y-80375814D01*
X56829289Y-80244711D01*
X56829286Y-80244707D01*
X56717792Y-80133213D01*
X56717788Y-80133210D01*
X56701912Y-80122602D01*
X56657107Y-80068990D01*
X56648400Y-79999665D01*
X56678554Y-79936638D01*
X56737997Y-79899918D01*
X56770803Y-79895500D01*
X59719308Y-79895500D01*
X59719309Y-79895500D01*
X59809673Y-79871286D01*
X59833887Y-79864799D01*
X59936614Y-79805489D01*
X61600284Y-78141819D01*
X61661607Y-78108334D01*
X61687965Y-78105500D01*
X62980902Y-78105500D01*
X63047941Y-78125185D01*
X63093696Y-78177989D01*
X63103640Y-78247147D01*
X63074615Y-78310703D01*
X63068583Y-78317181D01*
X63009481Y-78376282D01*
X63009477Y-78376287D01*
X62932770Y-78509150D01*
X62913064Y-78534831D01*
X61229513Y-80218383D01*
X61229509Y-80218389D01*
X61170201Y-80321112D01*
X61170200Y-80321117D01*
X61139500Y-80435691D01*
X61139500Y-88425069D01*
X61119815Y-88492108D01*
X61113875Y-88500557D01*
X61109475Y-88506290D01*
X61030426Y-88643209D01*
X61030423Y-88643216D01*
X60989500Y-88795943D01*
X60989500Y-88954057D01*
X61023381Y-89080500D01*
X61030423Y-89106783D01*
X61030426Y-89106790D01*
X61109473Y-89243706D01*
X61109477Y-89243712D01*
X61109480Y-89243716D01*
X61109482Y-89243718D01*
X61113872Y-89249438D01*
X61139069Y-89314606D01*
X61139500Y-89324930D01*
X61139500Y-91724902D01*
X61119815Y-91791941D01*
X61103181Y-91812583D01*
X61029481Y-91886282D01*
X61029475Y-91886290D01*
X60950426Y-92023209D01*
X60950423Y-92023216D01*
X60909500Y-92175943D01*
X60909500Y-92334056D01*
X60950423Y-92486783D01*
X60950426Y-92486790D01*
X61029475Y-92623709D01*
X61029479Y-92623714D01*
X61029480Y-92623716D01*
X61141284Y-92735520D01*
X61141286Y-92735521D01*
X61141290Y-92735524D01*
X61278209Y-92814573D01*
X61278216Y-92814577D01*
X61430943Y-92855500D01*
X61430945Y-92855500D01*
X61589055Y-92855500D01*
X61589057Y-92855500D01*
X61741784Y-92814577D01*
X61878716Y-92735520D01*
X61990520Y-92623716D01*
X62069577Y-92486784D01*
X62110500Y-92334057D01*
X62110500Y-92175943D01*
X62069577Y-92023216D01*
X62057111Y-92001623D01*
X62052961Y-91986135D01*
X62045523Y-91974561D01*
X62040500Y-91939626D01*
X62040500Y-91725943D01*
X73379500Y-91725943D01*
X73379500Y-91884057D01*
X73416788Y-92023216D01*
X73420423Y-92036783D01*
X73420426Y-92036790D01*
X73499475Y-92173709D01*
X73499479Y-92173714D01*
X73499480Y-92173716D01*
X73611284Y-92285520D01*
X73611286Y-92285521D01*
X73611290Y-92285524D01*
X73748209Y-92364573D01*
X73748216Y-92364577D01*
X73900943Y-92405500D01*
X73900945Y-92405500D01*
X74059055Y-92405500D01*
X74059057Y-92405500D01*
X74211784Y-92364577D01*
X74348716Y-92285520D01*
X74348721Y-92285514D01*
X74354443Y-92281125D01*
X74419612Y-92255930D01*
X74429931Y-92255500D01*
X74739308Y-92255500D01*
X74739309Y-92255500D01*
X74829673Y-92231286D01*
X74853887Y-92224799D01*
X74956614Y-92165489D01*
X76170404Y-90951698D01*
X76231725Y-90918215D01*
X76241901Y-90916441D01*
X76249045Y-90915500D01*
X76249057Y-90915500D01*
X76401784Y-90874577D01*
X76538716Y-90795520D01*
X76650520Y-90683716D01*
X76729577Y-90546784D01*
X76770500Y-90394057D01*
X76770500Y-90235943D01*
X76729577Y-90083216D01*
X76729573Y-90083209D01*
X76650524Y-89946290D01*
X76650518Y-89946282D01*
X76538717Y-89834481D01*
X76538709Y-89834475D01*
X76401790Y-89755426D01*
X76401786Y-89755424D01*
X76401784Y-89755423D01*
X76249057Y-89714500D01*
X76090943Y-89714500D01*
X75938216Y-89755423D01*
X75938209Y-89755426D01*
X75801290Y-89834475D01*
X75801282Y-89834481D01*
X75689481Y-89946282D01*
X75689475Y-89946290D01*
X75610426Y-90083209D01*
X75610423Y-90083216D01*
X75569498Y-90235949D01*
X75568556Y-90243107D01*
X75540287Y-90307003D01*
X75533299Y-90314597D01*
X74529716Y-91318181D01*
X74502788Y-91332884D01*
X74476970Y-91349477D01*
X74470769Y-91350368D01*
X74468393Y-91351666D01*
X74442035Y-91354500D01*
X74429931Y-91354500D01*
X74362892Y-91334815D01*
X74354443Y-91328875D01*
X74348709Y-91324475D01*
X74211790Y-91245426D01*
X74211786Y-91245424D01*
X74211784Y-91245423D01*
X74059057Y-91204500D01*
X73900943Y-91204500D01*
X73748216Y-91245423D01*
X73748209Y-91245426D01*
X73611290Y-91324475D01*
X73611282Y-91324481D01*
X73499481Y-91436282D01*
X73499475Y-91436290D01*
X73420426Y-91573209D01*
X73420423Y-91573216D01*
X73379500Y-91725943D01*
X62040500Y-91725943D01*
X62040500Y-89324930D01*
X62060185Y-89257891D01*
X62066128Y-89249438D01*
X62070512Y-89243723D01*
X62070520Y-89243716D01*
X62149577Y-89106784D01*
X62190500Y-88954057D01*
X62190500Y-88795943D01*
X62149577Y-88643216D01*
X62146637Y-88638124D01*
X62070524Y-88506290D01*
X62070521Y-88506287D01*
X62070520Y-88506284D01*
X62070517Y-88506281D01*
X62066125Y-88500557D01*
X62040930Y-88435388D01*
X62040500Y-88425069D01*
X62040500Y-85155943D01*
X66259500Y-85155943D01*
X66259500Y-85314057D01*
X66291654Y-85434055D01*
X66300423Y-85466783D01*
X66300426Y-85466790D01*
X66379475Y-85603709D01*
X66379479Y-85603714D01*
X66379480Y-85603716D01*
X66491284Y-85715520D01*
X66491286Y-85715521D01*
X66491290Y-85715524D01*
X66628209Y-85794573D01*
X66628216Y-85794577D01*
X66780943Y-85835500D01*
X66780945Y-85835500D01*
X66939055Y-85835500D01*
X66939057Y-85835500D01*
X67035251Y-85809724D01*
X67067344Y-85805500D01*
X73170069Y-85805500D01*
X73237108Y-85825185D01*
X73245557Y-85831125D01*
X73251281Y-85835517D01*
X73251284Y-85835520D01*
X73251287Y-85835521D01*
X73251290Y-85835524D01*
X73376464Y-85907792D01*
X73388216Y-85914577D01*
X73540943Y-85955500D01*
X73540945Y-85955500D01*
X73699055Y-85955500D01*
X73699057Y-85955500D01*
X73851784Y-85914577D01*
X73988716Y-85835520D01*
X74100520Y-85723716D01*
X74179577Y-85586784D01*
X74220500Y-85434057D01*
X74220500Y-85275943D01*
X74179577Y-85123216D01*
X74143431Y-85060609D01*
X74100524Y-84986290D01*
X74100518Y-84986282D01*
X73988717Y-84874481D01*
X73988709Y-84874475D01*
X73851790Y-84795426D01*
X73851786Y-84795424D01*
X73851784Y-84795423D01*
X73699057Y-84754500D01*
X73540943Y-84754500D01*
X73388216Y-84795423D01*
X73388209Y-84795426D01*
X73251290Y-84874475D01*
X73245557Y-84878875D01*
X73180388Y-84904070D01*
X73170069Y-84904500D01*
X67430098Y-84904500D01*
X67363059Y-84884815D01*
X67342417Y-84868181D01*
X67228717Y-84754481D01*
X67228709Y-84754475D01*
X67091790Y-84675426D01*
X67091786Y-84675424D01*
X67091784Y-84675423D01*
X66939057Y-84634500D01*
X66780943Y-84634500D01*
X66628216Y-84675423D01*
X66628209Y-84675426D01*
X66491290Y-84754475D01*
X66491282Y-84754481D01*
X66379481Y-84866282D01*
X66379475Y-84866290D01*
X66300426Y-85003209D01*
X66300423Y-85003216D01*
X66259500Y-85155943D01*
X62040500Y-85155943D01*
X62040500Y-84550730D01*
X81739500Y-84550730D01*
X81739500Y-85559269D01*
X81742353Y-85589699D01*
X81742353Y-85589701D01*
X81786382Y-85715524D01*
X81787207Y-85717882D01*
X81867850Y-85827150D01*
X81977118Y-85907793D01*
X81996503Y-85914576D01*
X82105299Y-85952646D01*
X82135730Y-85955500D01*
X82135734Y-85955500D01*
X82894270Y-85955500D01*
X82924699Y-85952646D01*
X82924701Y-85952646D01*
X82988790Y-85930219D01*
X83052882Y-85907793D01*
X83162150Y-85827150D01*
X83242793Y-85717882D01*
X83265158Y-85653964D01*
X83305877Y-85597192D01*
X83370830Y-85571444D01*
X83439392Y-85584900D01*
X83489795Y-85633287D01*
X83499904Y-85655917D01*
X83555642Y-85824121D01*
X83555643Y-85824124D01*
X83647684Y-85973345D01*
X83771654Y-86097315D01*
X83920875Y-86189356D01*
X83920880Y-86189358D01*
X84087302Y-86244505D01*
X84087309Y-86244506D01*
X84190019Y-86254999D01*
X84314999Y-86254999D01*
X84315000Y-86254998D01*
X84315000Y-83855000D01*
X84299321Y-83839321D01*
X84285677Y-83835315D01*
X84239922Y-83782511D01*
X84232941Y-83763093D01*
X84231894Y-83759185D01*
X84219577Y-83713216D01*
X84173949Y-83634185D01*
X84140524Y-83576290D01*
X84140518Y-83576282D01*
X84028717Y-83464481D01*
X84028709Y-83464475D01*
X83891790Y-83385426D01*
X83891786Y-83385424D01*
X83891784Y-83385423D01*
X83739057Y-83344500D01*
X83580943Y-83344500D01*
X83428216Y-83385423D01*
X83428209Y-83385426D01*
X83291290Y-83464475D01*
X83291282Y-83464481D01*
X83179481Y-83576282D01*
X83179475Y-83576290D01*
X83100426Y-83713209D01*
X83100423Y-83713214D01*
X83065371Y-83844032D01*
X83033277Y-83899619D01*
X82814716Y-84118181D01*
X82753393Y-84151666D01*
X82727035Y-84154500D01*
X82135730Y-84154500D01*
X82105300Y-84157353D01*
X82105298Y-84157353D01*
X81977119Y-84202206D01*
X81977117Y-84202207D01*
X81867850Y-84282850D01*
X81787207Y-84392117D01*
X81787206Y-84392119D01*
X81742353Y-84520298D01*
X81742353Y-84520300D01*
X81739500Y-84550730D01*
X62040500Y-84550730D01*
X62040500Y-80732964D01*
X62060185Y-80665925D01*
X62076814Y-80645288D01*
X63340283Y-79381818D01*
X63401606Y-79348334D01*
X63427964Y-79345500D01*
X63569055Y-79345500D01*
X63569057Y-79345500D01*
X63721784Y-79304577D01*
X63858716Y-79225520D01*
X63970520Y-79113716D01*
X64049577Y-78976784D01*
X64090500Y-78824057D01*
X64090500Y-78665943D01*
X64049577Y-78513216D01*
X64047230Y-78509150D01*
X63970524Y-78376290D01*
X63970518Y-78376282D01*
X63911417Y-78317181D01*
X63877932Y-78255858D01*
X63882916Y-78186166D01*
X63924788Y-78130233D01*
X63990252Y-78105816D01*
X63999098Y-78105500D01*
X64580069Y-78105500D01*
X64647108Y-78125185D01*
X64655557Y-78131125D01*
X64661281Y-78135517D01*
X64661284Y-78135520D01*
X64661287Y-78135521D01*
X64661290Y-78135524D01*
X64734843Y-78177989D01*
X64798216Y-78214577D01*
X64950943Y-78255500D01*
X64950945Y-78255500D01*
X65109055Y-78255500D01*
X65109057Y-78255500D01*
X65261784Y-78214577D01*
X65398716Y-78135520D01*
X65510520Y-78023716D01*
X65589577Y-77886784D01*
X65630500Y-77734057D01*
X65630500Y-77575943D01*
X65589577Y-77423216D01*
X65561847Y-77375185D01*
X65510524Y-77286290D01*
X65510518Y-77286282D01*
X65398717Y-77174481D01*
X65398709Y-77174475D01*
X65261790Y-77095426D01*
X65261786Y-77095424D01*
X65261784Y-77095423D01*
X65109057Y-77054500D01*
X64950943Y-77054500D01*
X64798216Y-77095423D01*
X64798209Y-77095426D01*
X64661290Y-77174475D01*
X64655557Y-77178875D01*
X64590388Y-77204070D01*
X64580069Y-77204500D01*
X61390691Y-77204500D01*
X61321944Y-77222920D01*
X61276112Y-77235201D01*
X61276107Y-77235204D01*
X61232695Y-77260267D01*
X61232696Y-77260268D01*
X61173389Y-77294508D01*
X61173383Y-77294513D01*
X59509716Y-78958181D01*
X59448393Y-78991666D01*
X59422035Y-78994500D01*
X56839441Y-78994500D01*
X56772402Y-78974815D01*
X56726647Y-78922011D01*
X56716703Y-78852853D01*
X56745728Y-78789297D01*
X56751760Y-78782819D01*
X56829286Y-78705292D01*
X56829289Y-78705289D01*
X56916894Y-78574179D01*
X56977237Y-78428497D01*
X57008000Y-78273842D01*
X57008000Y-78116158D01*
X57008000Y-78116155D01*
X57007999Y-78116153D01*
X56989612Y-78023716D01*
X56977237Y-77961503D01*
X56968670Y-77940821D01*
X56916897Y-77815827D01*
X56916890Y-77815814D01*
X56829289Y-77684711D01*
X56829286Y-77684707D01*
X56713482Y-77568903D01*
X56714982Y-77567402D01*
X56681063Y-77517600D01*
X56679197Y-77447756D01*
X56715388Y-77387989D01*
X56778146Y-77357277D01*
X56799065Y-77355500D01*
X57499308Y-77355500D01*
X57499309Y-77355500D01*
X57589673Y-77331286D01*
X57613887Y-77324799D01*
X57716614Y-77265489D01*
X57910284Y-77071819D01*
X57971607Y-77038334D01*
X57997965Y-77035500D01*
X59150069Y-77035500D01*
X59217108Y-77055185D01*
X59225557Y-77061125D01*
X59231281Y-77065517D01*
X59231284Y-77065520D01*
X59231287Y-77065521D01*
X59231290Y-77065524D01*
X59283083Y-77095426D01*
X59368216Y-77144577D01*
X59520943Y-77185500D01*
X59520945Y-77185500D01*
X59679055Y-77185500D01*
X59679057Y-77185500D01*
X59831784Y-77144577D01*
X59968716Y-77065520D01*
X60080520Y-76953716D01*
X60159577Y-76816784D01*
X60200500Y-76664057D01*
X60200500Y-76505943D01*
X60159577Y-76353216D01*
X60153518Y-76342722D01*
X60080524Y-76216290D01*
X60080518Y-76216282D01*
X59968717Y-76104481D01*
X59968709Y-76104475D01*
X59831790Y-76025426D01*
X59831786Y-76025424D01*
X59831784Y-76025423D01*
X59679057Y-75984500D01*
X59520943Y-75984500D01*
X59368216Y-76025423D01*
X59368209Y-76025426D01*
X59231290Y-76104475D01*
X59225557Y-76108875D01*
X59160388Y-76134070D01*
X59150069Y-76134500D01*
X57700691Y-76134500D01*
X57631944Y-76152920D01*
X57586112Y-76165201D01*
X57586107Y-76165204D01*
X57542695Y-76190267D01*
X57542696Y-76190268D01*
X57483389Y-76224508D01*
X57483383Y-76224513D01*
X57289716Y-76418181D01*
X57228393Y-76451666D01*
X57202035Y-76454500D01*
X56789441Y-76454500D01*
X56722402Y-76434815D01*
X56676647Y-76382011D01*
X56666703Y-76312853D01*
X56695728Y-76249297D01*
X56701760Y-76242819D01*
X56779286Y-76165292D01*
X56779289Y-76165289D01*
X56866894Y-76034179D01*
X56927237Y-75888497D01*
X56958000Y-75733842D01*
X56958000Y-75576158D01*
X56958000Y-75576155D01*
X56957999Y-75576153D01*
X56927238Y-75421510D01*
X56927237Y-75421503D01*
X56918670Y-75400821D01*
X56866897Y-75275827D01*
X56866890Y-75275814D01*
X56779289Y-75144711D01*
X56779286Y-75144707D01*
X56667792Y-75033213D01*
X56667788Y-75033210D01*
X56536685Y-74945609D01*
X56536672Y-74945602D01*
X56391001Y-74885264D01*
X56390989Y-74885261D01*
X56236345Y-74854500D01*
X56236342Y-74854500D01*
X55278658Y-74854500D01*
X55278655Y-74854500D01*
X55124010Y-74885261D01*
X55123998Y-74885264D01*
X54978327Y-74945602D01*
X54978314Y-74945609D01*
X54847211Y-75033210D01*
X54847207Y-75033213D01*
X54735713Y-75144707D01*
X54735710Y-75144711D01*
X54648109Y-75275814D01*
X54648102Y-75275827D01*
X54587764Y-75421498D01*
X54587761Y-75421510D01*
X54557000Y-75576153D01*
X54557000Y-75733846D01*
X54587761Y-75888489D01*
X54587764Y-75888501D01*
X54648102Y-76034172D01*
X54648109Y-76034185D01*
X54735710Y-76165288D01*
X54735713Y-76165292D01*
X54813240Y-76242819D01*
X54823852Y-76262255D01*
X54838353Y-76278989D01*
X54840269Y-76292320D01*
X54846725Y-76304142D01*
X54845145Y-76326228D01*
X54848297Y-76348147D01*
X54842701Y-76360398D01*
X54841741Y-76373834D01*
X54828470Y-76391560D01*
X54819272Y-76411703D01*
X54807940Y-76418985D01*
X54799869Y-76429767D01*
X54779123Y-76437504D01*
X54760494Y-76449477D01*
X54738575Y-76452628D01*
X54734405Y-76454184D01*
X54725559Y-76454500D01*
X54557965Y-76454500D01*
X54490926Y-76434815D01*
X54470284Y-76418181D01*
X52712833Y-74660730D01*
X81887000Y-74660730D01*
X81887000Y-75669269D01*
X81889853Y-75699699D01*
X81889853Y-75699701D01*
X81933517Y-75824481D01*
X81934707Y-75827882D01*
X82015350Y-75937150D01*
X82124618Y-76017793D01*
X82146432Y-76025426D01*
X82252799Y-76062646D01*
X82283230Y-76065500D01*
X82283234Y-76065500D01*
X82722033Y-76065500D01*
X82751469Y-76074143D01*
X82781459Y-76080667D01*
X82786475Y-76084422D01*
X82789072Y-76085185D01*
X82809713Y-76101818D01*
X82863298Y-76155402D01*
X82896784Y-76216725D01*
X82898556Y-76226893D01*
X82899498Y-76234050D01*
X82907056Y-76262255D01*
X82939692Y-76384057D01*
X82940423Y-76386783D01*
X82940426Y-76386790D01*
X83019475Y-76523709D01*
X83019479Y-76523714D01*
X83019480Y-76523716D01*
X83131284Y-76635520D01*
X83131286Y-76635521D01*
X83131290Y-76635524D01*
X83268209Y-76714573D01*
X83268216Y-76714577D01*
X83420943Y-76755500D01*
X83420945Y-76755500D01*
X83579055Y-76755500D01*
X83579057Y-76755500D01*
X83731784Y-76714577D01*
X83868716Y-76635520D01*
X83980520Y-76523716D01*
X84052854Y-76398427D01*
X84103420Y-76350213D01*
X84172027Y-76336989D01*
X84199246Y-76342722D01*
X84234805Y-76354505D01*
X84234809Y-76354506D01*
X84337519Y-76364999D01*
X84462499Y-76364999D01*
X84462500Y-76364998D01*
X84462500Y-73965000D01*
X84337527Y-73965000D01*
X84337512Y-73965001D01*
X84234802Y-73975494D01*
X84068380Y-74030641D01*
X84068375Y-74030643D01*
X83919154Y-74122684D01*
X83795184Y-74246654D01*
X83703143Y-74395875D01*
X83703141Y-74395880D01*
X83647405Y-74564082D01*
X83607632Y-74621527D01*
X83543117Y-74648350D01*
X83474341Y-74636035D01*
X83423141Y-74588492D01*
X83412658Y-74566033D01*
X83390293Y-74502119D01*
X83390292Y-74502117D01*
X83309650Y-74392850D01*
X83200382Y-74312207D01*
X83200380Y-74312206D01*
X83072200Y-74267353D01*
X83041770Y-74264500D01*
X83041766Y-74264500D01*
X82283234Y-74264500D01*
X82283230Y-74264500D01*
X82252800Y-74267353D01*
X82252798Y-74267353D01*
X82124619Y-74312206D01*
X82124617Y-74312207D01*
X82015350Y-74392850D01*
X81934707Y-74502117D01*
X81934706Y-74502119D01*
X81889853Y-74630298D01*
X81889853Y-74630300D01*
X81887000Y-74660730D01*
X52712833Y-74660730D01*
X52596616Y-74544513D01*
X52596614Y-74544511D01*
X52523188Y-74502118D01*
X52493888Y-74485201D01*
X52481780Y-74481957D01*
X52469673Y-74478713D01*
X52469670Y-74478712D01*
X52431478Y-74468478D01*
X52379309Y-74454500D01*
X52379308Y-74454500D01*
X46949931Y-74454500D01*
X46882892Y-74434815D01*
X46874443Y-74428875D01*
X46868709Y-74424475D01*
X46731790Y-74345426D01*
X46731786Y-74345424D01*
X46731784Y-74345423D01*
X46579057Y-74304500D01*
X46420943Y-74304500D01*
X46268216Y-74345423D01*
X46268209Y-74345426D01*
X46131290Y-74424475D01*
X46131282Y-74424481D01*
X46019481Y-74536282D01*
X46019475Y-74536290D01*
X45940426Y-74673209D01*
X45940423Y-74673216D01*
X45899500Y-74825943D01*
X45390500Y-74825943D01*
X45390500Y-73066153D01*
X54582000Y-73066153D01*
X54582000Y-73223846D01*
X54612761Y-73378489D01*
X54612764Y-73378501D01*
X54673102Y-73524172D01*
X54673109Y-73524185D01*
X54760710Y-73655288D01*
X54760713Y-73655292D01*
X54872207Y-73766786D01*
X54872211Y-73766789D01*
X55003314Y-73854390D01*
X55003327Y-73854397D01*
X55133429Y-73908286D01*
X55149003Y-73914737D01*
X55303653Y-73945499D01*
X55303656Y-73945500D01*
X55303658Y-73945500D01*
X56261344Y-73945500D01*
X56261345Y-73945499D01*
X56415997Y-73914737D01*
X56561679Y-73854394D01*
X56692789Y-73766789D01*
X56804289Y-73655289D01*
X56891894Y-73524179D01*
X56952237Y-73378497D01*
X56983000Y-73223842D01*
X56983000Y-73066158D01*
X56983000Y-73066155D01*
X56982999Y-73066153D01*
X56952238Y-72911510D01*
X56952237Y-72911503D01*
X56952235Y-72911498D01*
X56891897Y-72765827D01*
X56891890Y-72765814D01*
X56804289Y-72634711D01*
X56804286Y-72634707D01*
X56692792Y-72523213D01*
X56692788Y-72523210D01*
X56561685Y-72435609D01*
X56561672Y-72435602D01*
X56416001Y-72375264D01*
X56415989Y-72375261D01*
X56261345Y-72344500D01*
X56261342Y-72344500D01*
X55303658Y-72344500D01*
X55303655Y-72344500D01*
X55149010Y-72375261D01*
X55148998Y-72375264D01*
X55003327Y-72435602D01*
X55003314Y-72435609D01*
X54872211Y-72523210D01*
X54872207Y-72523213D01*
X54760713Y-72634707D01*
X54760710Y-72634711D01*
X54673109Y-72765814D01*
X54673102Y-72765827D01*
X54612764Y-72911498D01*
X54612761Y-72911510D01*
X54582000Y-73066153D01*
X45390500Y-73066153D01*
X45390500Y-70649071D01*
X55131999Y-70649071D01*
X55156997Y-70774738D01*
X55156999Y-70774744D01*
X55206033Y-70893124D01*
X55206038Y-70893133D01*
X55277223Y-70999668D01*
X55277226Y-70999672D01*
X55367827Y-71090273D01*
X55367831Y-71090276D01*
X55474366Y-71161461D01*
X55474372Y-71161464D01*
X55474373Y-71161465D01*
X55592756Y-71210501D01*
X55592760Y-71210501D01*
X55592761Y-71210502D01*
X55718428Y-71235500D01*
X55718431Y-71235500D01*
X55846571Y-71235500D01*
X55931115Y-71218682D01*
X55972244Y-71210501D01*
X56090627Y-71161465D01*
X56197169Y-71090276D01*
X56287776Y-70999669D01*
X56358965Y-70893127D01*
X56408001Y-70774744D01*
X56430061Y-70663844D01*
X56433000Y-70649071D01*
X56433000Y-70520928D01*
X56408002Y-70395261D01*
X56408001Y-70395260D01*
X56408001Y-70395256D01*
X56360849Y-70281421D01*
X56358966Y-70276875D01*
X56358961Y-70276866D01*
X56287776Y-70170331D01*
X56287773Y-70170327D01*
X56197172Y-70079726D01*
X56197168Y-70079723D01*
X56090633Y-70008538D01*
X56090624Y-70008533D01*
X55972244Y-69959499D01*
X55972238Y-69959497D01*
X55846571Y-69934500D01*
X55846569Y-69934500D01*
X55718431Y-69934500D01*
X55718429Y-69934500D01*
X55592761Y-69959497D01*
X55592755Y-69959499D01*
X55474375Y-70008533D01*
X55474366Y-70008538D01*
X55367831Y-70079723D01*
X55367827Y-70079726D01*
X55277226Y-70170327D01*
X55277223Y-70170331D01*
X55206038Y-70276866D01*
X55206033Y-70276875D01*
X55156999Y-70395255D01*
X55156997Y-70395261D01*
X55132000Y-70520928D01*
X55132000Y-70520931D01*
X55132000Y-70649069D01*
X55132000Y-70649071D01*
X55131999Y-70649071D01*
X45390500Y-70649071D01*
X45390500Y-69775693D01*
X45390500Y-69775691D01*
X45359799Y-69661114D01*
X45359797Y-69661110D01*
X45334731Y-69617694D01*
X45300493Y-69558392D01*
X45300487Y-69558384D01*
X43851174Y-68109071D01*
X55081999Y-68109071D01*
X55106997Y-68234738D01*
X55106999Y-68234744D01*
X55156033Y-68353124D01*
X55156038Y-68353133D01*
X55227223Y-68459668D01*
X55227226Y-68459672D01*
X55317827Y-68550273D01*
X55317831Y-68550276D01*
X55424366Y-68621461D01*
X55424375Y-68621466D01*
X55451192Y-68632574D01*
X55542756Y-68670501D01*
X55542760Y-68670501D01*
X55542761Y-68670502D01*
X55668428Y-68695500D01*
X55668431Y-68695500D01*
X55796571Y-68695500D01*
X55881115Y-68678682D01*
X55922244Y-68670501D01*
X56040627Y-68621465D01*
X56147169Y-68550276D01*
X56237776Y-68459669D01*
X56308965Y-68353127D01*
X56358001Y-68234744D01*
X56369698Y-68175943D01*
X56383000Y-68109071D01*
X56383000Y-67980928D01*
X56358002Y-67855261D01*
X56358001Y-67855260D01*
X56358001Y-67855256D01*
X56308965Y-67736873D01*
X56308964Y-67736872D01*
X56308961Y-67736866D01*
X56237776Y-67630331D01*
X56237773Y-67630327D01*
X56147172Y-67539726D01*
X56147168Y-67539723D01*
X56040633Y-67468538D01*
X56040624Y-67468533D01*
X55922244Y-67419499D01*
X55922238Y-67419497D01*
X55796571Y-67394500D01*
X55796569Y-67394500D01*
X55668431Y-67394500D01*
X55668429Y-67394500D01*
X55542761Y-67419497D01*
X55542755Y-67419499D01*
X55424375Y-67468533D01*
X55424366Y-67468538D01*
X55317831Y-67539723D01*
X55317827Y-67539726D01*
X55227226Y-67630327D01*
X55227223Y-67630331D01*
X55156038Y-67736866D01*
X55156033Y-67736875D01*
X55106999Y-67855255D01*
X55106997Y-67855261D01*
X55082000Y-67980928D01*
X55082000Y-67980931D01*
X55082000Y-68109069D01*
X55082000Y-68109071D01*
X55081999Y-68109071D01*
X43851174Y-68109071D01*
X43763276Y-68021173D01*
X43743572Y-67995495D01*
X43680520Y-67886284D01*
X43568716Y-67774480D01*
X43568714Y-67774479D01*
X43568709Y-67774475D01*
X43431790Y-67695426D01*
X43431786Y-67695424D01*
X43431784Y-67695423D01*
X43279057Y-67654500D01*
X43120943Y-67654500D01*
X42968216Y-67695423D01*
X42968209Y-67695426D01*
X42831290Y-67774475D01*
X42831282Y-67774481D01*
X42719481Y-67886282D01*
X42719475Y-67886290D01*
X42640426Y-68023209D01*
X42640423Y-68023216D01*
X42599500Y-68175943D01*
X31369698Y-68175943D01*
X31376127Y-68143624D01*
X31376127Y-68143623D01*
X31382999Y-68109073D01*
X31383000Y-68109071D01*
X31383000Y-67980928D01*
X31358002Y-67855261D01*
X31358001Y-67855260D01*
X31358001Y-67855256D01*
X31308965Y-67736873D01*
X31308964Y-67736872D01*
X31308961Y-67736866D01*
X31237776Y-67630331D01*
X31237773Y-67630327D01*
X31147172Y-67539726D01*
X31147168Y-67539723D01*
X31040633Y-67468538D01*
X31040624Y-67468533D01*
X30922244Y-67419499D01*
X30922238Y-67419497D01*
X30796571Y-67394500D01*
X30796569Y-67394500D01*
X30668431Y-67394500D01*
X30668429Y-67394500D01*
X30542761Y-67419497D01*
X30542755Y-67419499D01*
X30424375Y-67468533D01*
X30424366Y-67468538D01*
X30317831Y-67539723D01*
X30317827Y-67539726D01*
X30227226Y-67630327D01*
X30227223Y-67630331D01*
X30156038Y-67736866D01*
X30156033Y-67736875D01*
X30106999Y-67855255D01*
X30106997Y-67855261D01*
X30082000Y-67980928D01*
X30082000Y-67980931D01*
X30082000Y-68109069D01*
X30082000Y-68109071D01*
X30081999Y-68109071D01*
X29120500Y-68109071D01*
X29120500Y-65549071D01*
X30081999Y-65549071D01*
X30106997Y-65674738D01*
X30106999Y-65674744D01*
X30156033Y-65793124D01*
X30156038Y-65793133D01*
X30227223Y-65899668D01*
X30227226Y-65899672D01*
X30317827Y-65990273D01*
X30317831Y-65990276D01*
X30424366Y-66061461D01*
X30424372Y-66061464D01*
X30424373Y-66061465D01*
X30542756Y-66110501D01*
X30542760Y-66110501D01*
X30542761Y-66110502D01*
X30668428Y-66135500D01*
X30668431Y-66135500D01*
X30796571Y-66135500D01*
X30881115Y-66118682D01*
X30922244Y-66110501D01*
X31040627Y-66061465D01*
X31147169Y-65990276D01*
X31237776Y-65899669D01*
X31308965Y-65793127D01*
X31358001Y-65674744D01*
X31383000Y-65549071D01*
X55081999Y-65549071D01*
X55106997Y-65674738D01*
X55106999Y-65674744D01*
X55156033Y-65793124D01*
X55156038Y-65793133D01*
X55227223Y-65899668D01*
X55227226Y-65899672D01*
X55317827Y-65990273D01*
X55317831Y-65990276D01*
X55424366Y-66061461D01*
X55424372Y-66061464D01*
X55424373Y-66061465D01*
X55542756Y-66110501D01*
X55542760Y-66110501D01*
X55542761Y-66110502D01*
X55668428Y-66135500D01*
X55668431Y-66135500D01*
X55796571Y-66135500D01*
X55881115Y-66118682D01*
X55922244Y-66110501D01*
X56040627Y-66061465D01*
X56147169Y-65990276D01*
X56237776Y-65899669D01*
X56308965Y-65793127D01*
X56358001Y-65674744D01*
X56383000Y-65549069D01*
X56383000Y-65420931D01*
X56383000Y-65420928D01*
X56358002Y-65295261D01*
X56358001Y-65295260D01*
X56358001Y-65295256D01*
X56308965Y-65176873D01*
X56308964Y-65176872D01*
X56308961Y-65176866D01*
X56237776Y-65070331D01*
X56237773Y-65070327D01*
X56147172Y-64979726D01*
X56147168Y-64979723D01*
X56040633Y-64908538D01*
X56040624Y-64908533D01*
X55922244Y-64859499D01*
X55922238Y-64859497D01*
X55796571Y-64834500D01*
X55796569Y-64834500D01*
X55668431Y-64834500D01*
X55668429Y-64834500D01*
X55542761Y-64859497D01*
X55542755Y-64859499D01*
X55424375Y-64908533D01*
X55424366Y-64908538D01*
X55317831Y-64979723D01*
X55317827Y-64979726D01*
X55227226Y-65070327D01*
X55227223Y-65070331D01*
X55156038Y-65176866D01*
X55156033Y-65176875D01*
X55106999Y-65295255D01*
X55106997Y-65295261D01*
X55082000Y-65420928D01*
X55082000Y-65420931D01*
X55082000Y-65549069D01*
X55082000Y-65549071D01*
X55081999Y-65549071D01*
X31383000Y-65549071D01*
X31383000Y-65549069D01*
X31383000Y-65420931D01*
X31383000Y-65420928D01*
X31358002Y-65295261D01*
X31358001Y-65295260D01*
X31358001Y-65295256D01*
X31308965Y-65176873D01*
X31308964Y-65176872D01*
X31308961Y-65176866D01*
X31237776Y-65070331D01*
X31237773Y-65070327D01*
X31147172Y-64979726D01*
X31147168Y-64979723D01*
X31040633Y-64908538D01*
X31040624Y-64908533D01*
X30922244Y-64859499D01*
X30922238Y-64859497D01*
X30796571Y-64834500D01*
X30796569Y-64834500D01*
X30668431Y-64834500D01*
X30668429Y-64834500D01*
X30542761Y-64859497D01*
X30542755Y-64859499D01*
X30424375Y-64908533D01*
X30424366Y-64908538D01*
X30317831Y-64979723D01*
X30317827Y-64979726D01*
X30227226Y-65070327D01*
X30227223Y-65070331D01*
X30156038Y-65176866D01*
X30156033Y-65176875D01*
X30106999Y-65295255D01*
X30106997Y-65295261D01*
X30082000Y-65420928D01*
X30082000Y-65420931D01*
X30082000Y-65549069D01*
X30082000Y-65549071D01*
X30081999Y-65549071D01*
X29120500Y-65549071D01*
X29120500Y-63034071D01*
X30106999Y-63034071D01*
X30131997Y-63159738D01*
X30131999Y-63159744D01*
X30181033Y-63278124D01*
X30181038Y-63278133D01*
X30252223Y-63384668D01*
X30252226Y-63384672D01*
X30342827Y-63475273D01*
X30342831Y-63475276D01*
X30449366Y-63546461D01*
X30449372Y-63546464D01*
X30449373Y-63546465D01*
X30567756Y-63595501D01*
X30567760Y-63595501D01*
X30567761Y-63595502D01*
X30693428Y-63620500D01*
X30693431Y-63620500D01*
X30821571Y-63620500D01*
X30906115Y-63603682D01*
X30947244Y-63595501D01*
X31065627Y-63546465D01*
X31172169Y-63475276D01*
X31262776Y-63384669D01*
X31333965Y-63278127D01*
X31383001Y-63159744D01*
X31405061Y-63048844D01*
X31408000Y-63034071D01*
X31408000Y-62905929D01*
X31405061Y-62891153D01*
X54557000Y-62891153D01*
X54557000Y-63048846D01*
X54587761Y-63203489D01*
X54587764Y-63203501D01*
X54648102Y-63349172D01*
X54648109Y-63349185D01*
X54735710Y-63480288D01*
X54735713Y-63480292D01*
X54847207Y-63591786D01*
X54847211Y-63591789D01*
X54978314Y-63679390D01*
X54978327Y-63679397D01*
X55123998Y-63739735D01*
X55124003Y-63739737D01*
X55278653Y-63770499D01*
X55278656Y-63770500D01*
X55278658Y-63770500D01*
X56236344Y-63770500D01*
X56236345Y-63770499D01*
X56390997Y-63739737D01*
X56536679Y-63679394D01*
X56667789Y-63591789D01*
X56779289Y-63480289D01*
X56866894Y-63349179D01*
X56927237Y-63203497D01*
X56958000Y-63048842D01*
X56958000Y-62891158D01*
X56958000Y-62891155D01*
X56957999Y-62891153D01*
X56927238Y-62736510D01*
X56927237Y-62736503D01*
X56927235Y-62736498D01*
X56866897Y-62590827D01*
X56866890Y-62590814D01*
X56779289Y-62459711D01*
X56779286Y-62459707D01*
X56667792Y-62348213D01*
X56667788Y-62348210D01*
X56536685Y-62260609D01*
X56536672Y-62260602D01*
X56391001Y-62200264D01*
X56390989Y-62200261D01*
X56236345Y-62169500D01*
X56236342Y-62169500D01*
X55278658Y-62169500D01*
X55278655Y-62169500D01*
X55124010Y-62200261D01*
X55123998Y-62200264D01*
X54978327Y-62260602D01*
X54978314Y-62260609D01*
X54847211Y-62348210D01*
X54847207Y-62348213D01*
X54735713Y-62459707D01*
X54735710Y-62459711D01*
X54648109Y-62590814D01*
X54648102Y-62590827D01*
X54587764Y-62736498D01*
X54587761Y-62736510D01*
X54557000Y-62891153D01*
X31405061Y-62891153D01*
X31383002Y-62780261D01*
X31383001Y-62780260D01*
X31383001Y-62780256D01*
X31333965Y-62661873D01*
X31333964Y-62661872D01*
X31333961Y-62661866D01*
X31262776Y-62555331D01*
X31262773Y-62555327D01*
X31172172Y-62464726D01*
X31172168Y-62464723D01*
X31065633Y-62393538D01*
X31065624Y-62393533D01*
X30947244Y-62344499D01*
X30947238Y-62344497D01*
X30821571Y-62319500D01*
X30821569Y-62319500D01*
X30693431Y-62319500D01*
X30693429Y-62319500D01*
X30567761Y-62344497D01*
X30567755Y-62344499D01*
X30449375Y-62393533D01*
X30449366Y-62393538D01*
X30342831Y-62464723D01*
X30342827Y-62464726D01*
X30252226Y-62555327D01*
X30252223Y-62555331D01*
X30181038Y-62661866D01*
X30181033Y-62661875D01*
X30131999Y-62780255D01*
X30131997Y-62780261D01*
X30107000Y-62905928D01*
X30107000Y-62905929D01*
X30107000Y-62905931D01*
X30107000Y-63034069D01*
X30107000Y-63034071D01*
X30106999Y-63034071D01*
X29120500Y-63034071D01*
X29120500Y-60474071D01*
X30106999Y-60474071D01*
X30131997Y-60599738D01*
X30131999Y-60599744D01*
X30181033Y-60718124D01*
X30181038Y-60718133D01*
X30252223Y-60824668D01*
X30252226Y-60824672D01*
X30342827Y-60915273D01*
X30342831Y-60915276D01*
X30449366Y-60986461D01*
X30449372Y-60986464D01*
X30449373Y-60986465D01*
X30567756Y-61035501D01*
X30567760Y-61035501D01*
X30567761Y-61035502D01*
X30693428Y-61060500D01*
X30693431Y-61060500D01*
X30821571Y-61060500D01*
X30906115Y-61043682D01*
X30947244Y-61035501D01*
X31065627Y-60986465D01*
X31172169Y-60915276D01*
X31262776Y-60824669D01*
X31333965Y-60718127D01*
X31383001Y-60599744D01*
X31405061Y-60488844D01*
X31408000Y-60474071D01*
X31408000Y-60345929D01*
X31405061Y-60331153D01*
X54557000Y-60331153D01*
X54557000Y-60488846D01*
X54587761Y-60643489D01*
X54587764Y-60643501D01*
X54648102Y-60789172D01*
X54648109Y-60789185D01*
X54735710Y-60920288D01*
X54735713Y-60920292D01*
X54847207Y-61031786D01*
X54847211Y-61031789D01*
X54978314Y-61119390D01*
X54978327Y-61119397D01*
X55123998Y-61179735D01*
X55124003Y-61179737D01*
X55278653Y-61210499D01*
X55278656Y-61210500D01*
X55278658Y-61210500D01*
X56236344Y-61210500D01*
X56236345Y-61210499D01*
X56390997Y-61179737D01*
X56536679Y-61119394D01*
X56667789Y-61031789D01*
X56779289Y-60920289D01*
X56866894Y-60789179D01*
X56927237Y-60643497D01*
X56958000Y-60488842D01*
X56958000Y-60375943D01*
X62189500Y-60375943D01*
X62189500Y-60534057D01*
X62218826Y-60643501D01*
X62230423Y-60686783D01*
X62230426Y-60686790D01*
X62309475Y-60823709D01*
X62309479Y-60823714D01*
X62309480Y-60823716D01*
X62421284Y-60935520D01*
X62421286Y-60935521D01*
X62421290Y-60935524D01*
X62558209Y-61014573D01*
X62558216Y-61014577D01*
X62710943Y-61055500D01*
X62710945Y-61055500D01*
X62869055Y-61055500D01*
X62869057Y-61055500D01*
X63021784Y-61014577D01*
X63158716Y-60935520D01*
X63158721Y-60935514D01*
X63164443Y-60931125D01*
X63229612Y-60905930D01*
X63239931Y-60905500D01*
X63752035Y-60905500D01*
X63819074Y-60925185D01*
X63839716Y-60941819D01*
X65063181Y-62165284D01*
X65096666Y-62226607D01*
X65099500Y-62252965D01*
X65099500Y-71204902D01*
X65079815Y-71271941D01*
X65063181Y-71292583D01*
X64999481Y-71356282D01*
X64999475Y-71356290D01*
X64920426Y-71493209D01*
X64920423Y-71493216D01*
X64879500Y-71645943D01*
X64879500Y-71804056D01*
X64920423Y-71956783D01*
X64920426Y-71956790D01*
X64999475Y-72093709D01*
X64999479Y-72093714D01*
X64999480Y-72093716D01*
X65111284Y-72205520D01*
X65111286Y-72205521D01*
X65111290Y-72205524D01*
X65248209Y-72284573D01*
X65248216Y-72284577D01*
X65400943Y-72325500D01*
X65400945Y-72325500D01*
X65559055Y-72325500D01*
X65559057Y-72325500D01*
X65711784Y-72284577D01*
X65848716Y-72205520D01*
X65960520Y-72093716D01*
X66039577Y-71956784D01*
X66080500Y-71804057D01*
X66080500Y-71645943D01*
X66039577Y-71493216D01*
X66017112Y-71454305D01*
X66000500Y-71392306D01*
X66000500Y-64750730D01*
X81494500Y-64750730D01*
X81494500Y-65759269D01*
X81497353Y-65789699D01*
X81497353Y-65789701D01*
X81542206Y-65917880D01*
X81542207Y-65917882D01*
X81622850Y-66027150D01*
X81732118Y-66107793D01*
X81774845Y-66122744D01*
X81860299Y-66152646D01*
X81890730Y-66155500D01*
X81890734Y-66155500D01*
X82482035Y-66155500D01*
X82511475Y-66164144D01*
X82541462Y-66170668D01*
X82546477Y-66174422D01*
X82549074Y-66175185D01*
X82569716Y-66191819D01*
X82733181Y-66355284D01*
X82766666Y-66416607D01*
X82769500Y-66442965D01*
X82769500Y-66554056D01*
X82810423Y-66706783D01*
X82810426Y-66706790D01*
X82889475Y-66843709D01*
X82889479Y-66843714D01*
X82889480Y-66843716D01*
X83001284Y-66955520D01*
X83001286Y-66955521D01*
X83001290Y-66955524D01*
X83138209Y-67034573D01*
X83138216Y-67034577D01*
X83290943Y-67075500D01*
X83290945Y-67075500D01*
X83449055Y-67075500D01*
X83449057Y-67075500D01*
X83601784Y-67034577D01*
X83738716Y-66955520D01*
X83850520Y-66843716D01*
X83929577Y-66706784D01*
X83970500Y-66554057D01*
X83970500Y-66554055D01*
X83972416Y-66546905D01*
X84008781Y-66487245D01*
X84065123Y-66459875D01*
X84070000Y-66454999D01*
X84070000Y-64055000D01*
X83945027Y-64055000D01*
X83945012Y-64055001D01*
X83842302Y-64065494D01*
X83675880Y-64120641D01*
X83675875Y-64120643D01*
X83526654Y-64212684D01*
X83402684Y-64336654D01*
X83310643Y-64485875D01*
X83310641Y-64485880D01*
X83254905Y-64654082D01*
X83215132Y-64711527D01*
X83150617Y-64738350D01*
X83081841Y-64726035D01*
X83030641Y-64678492D01*
X83020158Y-64656033D01*
X82997793Y-64592119D01*
X82997792Y-64592117D01*
X82917150Y-64482850D01*
X82807882Y-64402207D01*
X82807880Y-64402206D01*
X82679700Y-64357353D01*
X82649270Y-64354500D01*
X82649266Y-64354500D01*
X81890734Y-64354500D01*
X81890730Y-64354500D01*
X81860300Y-64357353D01*
X81860298Y-64357353D01*
X81732119Y-64402206D01*
X81732117Y-64402207D01*
X81622850Y-64482850D01*
X81542207Y-64592117D01*
X81542206Y-64592119D01*
X81497353Y-64720298D01*
X81497353Y-64720300D01*
X81494500Y-64750730D01*
X66000500Y-64750730D01*
X66000500Y-61955693D01*
X66000500Y-61955691D01*
X65969799Y-61841114D01*
X65969799Y-61841113D01*
X65910489Y-61738386D01*
X65821211Y-61649108D01*
X69929500Y-61649108D01*
X69929500Y-61780892D01*
X69931510Y-61788392D01*
X69963608Y-61908187D01*
X69991035Y-61955691D01*
X70029500Y-62022314D01*
X70122686Y-62115500D01*
X70236814Y-62181392D01*
X70364108Y-62215500D01*
X70364110Y-62215500D01*
X70495890Y-62215500D01*
X70495892Y-62215500D01*
X70623186Y-62181392D01*
X70623187Y-62181391D01*
X70631037Y-62179288D01*
X70631313Y-62180320D01*
X70668110Y-62173000D01*
X82838563Y-62173000D01*
X82891250Y-62187118D01*
X82891804Y-62185781D01*
X82899307Y-62188888D01*
X82899314Y-62188892D01*
X83026608Y-62223000D01*
X83026610Y-62223000D01*
X83158390Y-62223000D01*
X83158392Y-62223000D01*
X83285686Y-62188892D01*
X83399814Y-62123000D01*
X83493000Y-62029814D01*
X83558892Y-61915686D01*
X83593000Y-61788392D01*
X83593000Y-61656608D01*
X83558892Y-61529314D01*
X83493000Y-61415186D01*
X83399814Y-61322000D01*
X83313212Y-61272000D01*
X83285687Y-61256108D01*
X83222039Y-61239054D01*
X83158392Y-61222000D01*
X83026608Y-61222000D01*
X82899314Y-61256108D01*
X82891804Y-61259219D01*
X82891250Y-61257881D01*
X82838563Y-61272000D01*
X70696928Y-61272000D01*
X70634926Y-61255386D01*
X70623188Y-61248608D01*
X70538323Y-61225869D01*
X70495892Y-61214500D01*
X70364108Y-61214500D01*
X70236812Y-61248608D01*
X70122686Y-61314500D01*
X70122683Y-61314502D01*
X70029502Y-61407683D01*
X70029500Y-61407686D01*
X69963608Y-61521812D01*
X69961598Y-61529314D01*
X69929500Y-61649108D01*
X65821211Y-61649108D01*
X64266614Y-60094511D01*
X64215250Y-60064856D01*
X64163888Y-60035201D01*
X64151780Y-60031957D01*
X64139673Y-60028713D01*
X64139670Y-60028712D01*
X64101478Y-60018478D01*
X64049309Y-60004500D01*
X64049308Y-60004500D01*
X63239931Y-60004500D01*
X63172892Y-59984815D01*
X63164443Y-59978875D01*
X63158709Y-59974475D01*
X63021790Y-59895426D01*
X63021786Y-59895424D01*
X63021784Y-59895423D01*
X62869057Y-59854500D01*
X62710943Y-59854500D01*
X62558216Y-59895423D01*
X62558209Y-59895426D01*
X62421290Y-59974475D01*
X62421282Y-59974481D01*
X62309481Y-60086282D01*
X62309475Y-60086290D01*
X62230426Y-60223209D01*
X62230423Y-60223216D01*
X62189500Y-60375943D01*
X56958000Y-60375943D01*
X56958000Y-60331158D01*
X56958000Y-60331155D01*
X56957999Y-60331153D01*
X56927238Y-60176510D01*
X56927237Y-60176503D01*
X56927235Y-60176498D01*
X56866897Y-60030827D01*
X56866890Y-60030814D01*
X56779289Y-59899711D01*
X56779286Y-59899707D01*
X56667792Y-59788213D01*
X56667788Y-59788210D01*
X56536685Y-59700609D01*
X56536672Y-59700602D01*
X56391001Y-59640264D01*
X56390989Y-59640261D01*
X56236345Y-59609500D01*
X56236342Y-59609500D01*
X55278658Y-59609500D01*
X55278655Y-59609500D01*
X55124010Y-59640261D01*
X55123998Y-59640264D01*
X54978327Y-59700602D01*
X54978314Y-59700609D01*
X54847211Y-59788210D01*
X54847207Y-59788213D01*
X54735713Y-59899707D01*
X54735710Y-59899711D01*
X54648109Y-60030814D01*
X54648102Y-60030827D01*
X54587764Y-60176498D01*
X54587761Y-60176510D01*
X54557000Y-60331153D01*
X31405061Y-60331153D01*
X31383002Y-60220261D01*
X31383001Y-60220260D01*
X31383001Y-60220256D01*
X31333965Y-60101873D01*
X31333964Y-60101872D01*
X31333961Y-60101866D01*
X31262776Y-59995331D01*
X31262773Y-59995327D01*
X31172172Y-59904726D01*
X31172168Y-59904723D01*
X31065633Y-59833538D01*
X31065624Y-59833533D01*
X30947244Y-59784499D01*
X30947238Y-59784497D01*
X30821571Y-59759500D01*
X30821569Y-59759500D01*
X30693431Y-59759500D01*
X30693429Y-59759500D01*
X30567761Y-59784497D01*
X30567755Y-59784499D01*
X30449375Y-59833533D01*
X30449366Y-59833538D01*
X30342831Y-59904723D01*
X30342827Y-59904726D01*
X30252226Y-59995327D01*
X30252223Y-59995331D01*
X30181038Y-60101866D01*
X30181033Y-60101875D01*
X30131999Y-60220255D01*
X30131997Y-60220261D01*
X30107000Y-60345928D01*
X30107000Y-60345929D01*
X30107000Y-60345931D01*
X30107000Y-60474069D01*
X30107000Y-60474071D01*
X30106999Y-60474071D01*
X29120500Y-60474071D01*
X29120500Y-54970730D01*
X68589500Y-54970730D01*
X68589500Y-55979269D01*
X68592353Y-56009699D01*
X68592353Y-56009701D01*
X68637206Y-56137880D01*
X68637207Y-56137882D01*
X68717850Y-56247150D01*
X68827118Y-56327793D01*
X68827121Y-56327794D01*
X68831452Y-56329310D01*
X68888229Y-56370030D01*
X68913978Y-56434982D01*
X68914500Y-56446352D01*
X68914500Y-57029310D01*
X68926264Y-57073216D01*
X68926265Y-57073216D01*
X68945201Y-57143887D01*
X69004511Y-57246614D01*
X69483386Y-57725489D01*
X69483387Y-57725490D01*
X69483389Y-57725491D01*
X69542693Y-57759729D01*
X69542696Y-57759732D01*
X69576937Y-57779500D01*
X69586114Y-57784799D01*
X69700691Y-57815500D01*
X70710691Y-57815500D01*
X80550691Y-57815500D01*
X80869985Y-57815500D01*
X80931984Y-57832112D01*
X80988216Y-57864577D01*
X81140943Y-57905500D01*
X81140945Y-57905500D01*
X81299055Y-57905500D01*
X81299057Y-57905500D01*
X81451784Y-57864577D01*
X81588716Y-57785520D01*
X81700520Y-57673716D01*
X81779577Y-57536784D01*
X81820500Y-57384057D01*
X81820500Y-57225943D01*
X81779577Y-57073216D01*
X81754228Y-57029309D01*
X81700524Y-56936290D01*
X81700518Y-56936282D01*
X81588717Y-56824481D01*
X81588709Y-56824475D01*
X81451790Y-56745426D01*
X81451786Y-56745424D01*
X81451784Y-56745423D01*
X81299057Y-56704500D01*
X81140943Y-56704500D01*
X80988216Y-56745423D01*
X80988209Y-56745426D01*
X80851290Y-56824475D01*
X80851282Y-56824481D01*
X80797583Y-56878181D01*
X80736260Y-56911666D01*
X80709902Y-56914500D01*
X71879494Y-56914500D01*
X71812455Y-56894815D01*
X71766700Y-56842011D01*
X71756756Y-56772853D01*
X71785781Y-56709297D01*
X71844559Y-56671523D01*
X71866892Y-56667142D01*
X71892697Y-56664505D01*
X72059119Y-56609358D01*
X72059124Y-56609356D01*
X72208345Y-56517315D01*
X72332315Y-56393345D01*
X72424356Y-56244124D01*
X72424358Y-56244119D01*
X72479505Y-56077697D01*
X72479506Y-56077690D01*
X72489999Y-55974986D01*
X72490000Y-55974973D01*
X72490000Y-55725000D01*
X71539000Y-55725000D01*
X71471961Y-55705315D01*
X71426206Y-55652511D01*
X71415000Y-55601000D01*
X71415000Y-55475000D01*
X71289000Y-55475000D01*
X71221961Y-55455315D01*
X71176206Y-55402511D01*
X71165000Y-55351000D01*
X71165000Y-55225000D01*
X71665000Y-55225000D01*
X72489999Y-55225000D01*
X72489999Y-54975028D01*
X72489998Y-54975013D01*
X72479505Y-54872302D01*
X72424358Y-54705880D01*
X72424356Y-54705875D01*
X72332315Y-54556654D01*
X72208345Y-54432684D01*
X72059124Y-54340643D01*
X72059119Y-54340641D01*
X71892697Y-54285494D01*
X71892690Y-54285493D01*
X71789986Y-54275000D01*
X71665000Y-54275000D01*
X71665000Y-55225000D01*
X71165000Y-55225000D01*
X71165000Y-54275000D01*
X71040027Y-54275000D01*
X71040012Y-54275001D01*
X70937302Y-54285494D01*
X70770880Y-54340641D01*
X70770875Y-54340643D01*
X70621654Y-54432684D01*
X70497684Y-54556654D01*
X70405643Y-54705875D01*
X70405641Y-54705880D01*
X70349905Y-54874082D01*
X70310132Y-54931527D01*
X70245617Y-54958350D01*
X70176841Y-54946035D01*
X70125641Y-54898492D01*
X70115158Y-54876033D01*
X70092793Y-54812119D01*
X70092792Y-54812117D01*
X70012150Y-54702850D01*
X69902882Y-54622207D01*
X69902880Y-54622206D01*
X69774700Y-54577353D01*
X69744270Y-54574500D01*
X69744266Y-54574500D01*
X68985734Y-54574500D01*
X68985730Y-54574500D01*
X68955300Y-54577353D01*
X68955298Y-54577353D01*
X68827119Y-54622206D01*
X68827117Y-54622207D01*
X68717850Y-54702850D01*
X68637207Y-54812117D01*
X68637206Y-54812119D01*
X68592353Y-54940298D01*
X68592353Y-54940300D01*
X68589500Y-54970730D01*
X29120500Y-54970730D01*
X29120500Y-52035247D01*
X60919500Y-52035247D01*
X60919500Y-54074752D01*
X60931131Y-54133229D01*
X60931132Y-54133230D01*
X60975447Y-54199552D01*
X61041769Y-54243867D01*
X61041770Y-54243868D01*
X61100247Y-54255499D01*
X61100250Y-54255500D01*
X61100252Y-54255500D01*
X62639750Y-54255500D01*
X62639751Y-54255499D01*
X62654568Y-54252552D01*
X62698229Y-54243868D01*
X62698229Y-54243867D01*
X62698231Y-54243867D01*
X62764552Y-54199552D01*
X62808867Y-54133231D01*
X62808867Y-54133229D01*
X62808868Y-54133229D01*
X62820499Y-54074752D01*
X62820500Y-54074750D01*
X62820500Y-52035249D01*
X62820499Y-52035247D01*
X62808868Y-51976770D01*
X62808867Y-51976769D01*
X62764552Y-51910447D01*
X62698230Y-51866132D01*
X62698229Y-51866131D01*
X62639752Y-51854500D01*
X62639748Y-51854500D01*
X61100252Y-51854500D01*
X61100247Y-51854500D01*
X61041770Y-51866131D01*
X61041769Y-51866132D01*
X60975447Y-51910447D01*
X60931132Y-51976769D01*
X60931131Y-51976770D01*
X60919500Y-52035247D01*
X29120500Y-52035247D01*
X29120500Y-48817378D01*
X41019500Y-48817378D01*
X41019500Y-49092621D01*
X41050315Y-49366108D01*
X41050317Y-49366124D01*
X41111561Y-49634453D01*
X41111565Y-49634465D01*
X41202467Y-49894246D01*
X41321884Y-50142218D01*
X41321886Y-50142221D01*
X41468319Y-50375268D01*
X41639925Y-50590455D01*
X41834545Y-50785075D01*
X42049732Y-50956681D01*
X42282779Y-51103114D01*
X42530757Y-51222534D01*
X42725865Y-51290805D01*
X42790534Y-51313434D01*
X42790546Y-51313438D01*
X43058879Y-51374683D01*
X43332378Y-51405499D01*
X43332379Y-51405500D01*
X43332383Y-51405500D01*
X43607621Y-51405500D01*
X43607621Y-51405499D01*
X43881121Y-51374683D01*
X44149454Y-51313438D01*
X44409243Y-51222534D01*
X44657221Y-51103114D01*
X44890268Y-50956681D01*
X45105455Y-50785075D01*
X45300075Y-50590455D01*
X45471681Y-50375268D01*
X45618114Y-50142221D01*
X45737534Y-49894243D01*
X45828438Y-49634454D01*
X45889683Y-49366121D01*
X45919106Y-49104986D01*
X53470001Y-49104986D01*
X53480494Y-49207697D01*
X53535641Y-49374119D01*
X53535643Y-49374124D01*
X53627684Y-49523345D01*
X53751654Y-49647315D01*
X53900875Y-49739356D01*
X53900880Y-49739358D01*
X54067302Y-49794505D01*
X54067309Y-49794506D01*
X54170019Y-49804999D01*
X54394999Y-49804999D01*
X54895000Y-49804999D01*
X55119972Y-49804999D01*
X55119986Y-49804998D01*
X55222697Y-49794505D01*
X55389119Y-49739358D01*
X55389124Y-49739356D01*
X55538345Y-49647315D01*
X55662315Y-49523345D01*
X55754356Y-49374124D01*
X55754358Y-49374119D01*
X55809505Y-49207697D01*
X55809506Y-49207690D01*
X55819999Y-49104986D01*
X59120001Y-49104986D01*
X59130494Y-49207697D01*
X59185641Y-49374119D01*
X59185643Y-49374124D01*
X59277684Y-49523345D01*
X59401654Y-49647315D01*
X59550875Y-49739356D01*
X59550880Y-49739358D01*
X59717302Y-49794505D01*
X59717309Y-49794506D01*
X59820019Y-49804999D01*
X60044999Y-49804999D01*
X60545000Y-49804999D01*
X60769972Y-49804999D01*
X60769986Y-49804998D01*
X60872697Y-49794505D01*
X61039119Y-49739358D01*
X61039124Y-49739356D01*
X61188345Y-49647315D01*
X61312315Y-49523345D01*
X61404356Y-49374124D01*
X61404358Y-49374119D01*
X61459505Y-49207697D01*
X61459506Y-49207690D01*
X61469999Y-49104986D01*
X61470000Y-49104973D01*
X61470000Y-48817378D01*
X71019500Y-48817378D01*
X71019500Y-49092621D01*
X71050315Y-49366108D01*
X71050317Y-49366124D01*
X71111561Y-49634453D01*
X71111565Y-49634465D01*
X71202467Y-49894246D01*
X71321884Y-50142218D01*
X71321886Y-50142221D01*
X71468319Y-50375268D01*
X71639925Y-50590455D01*
X71834545Y-50785075D01*
X72049732Y-50956681D01*
X72282779Y-51103114D01*
X72530757Y-51222534D01*
X72725865Y-51290805D01*
X72790534Y-51313434D01*
X72790546Y-51313438D01*
X73058879Y-51374683D01*
X73332378Y-51405499D01*
X73332379Y-51405500D01*
X73332383Y-51405500D01*
X73607621Y-51405500D01*
X73607621Y-51405499D01*
X73881121Y-51374683D01*
X74149454Y-51313438D01*
X74409243Y-51222534D01*
X74657221Y-51103114D01*
X74890268Y-50956681D01*
X75105455Y-50785075D01*
X75300075Y-50590455D01*
X75471681Y-50375268D01*
X75618114Y-50142221D01*
X75737534Y-49894243D01*
X75828438Y-49634454D01*
X75889683Y-49366121D01*
X75920500Y-49092617D01*
X75920500Y-48817383D01*
X75889683Y-48543879D01*
X75828438Y-48275546D01*
X75737534Y-48015757D01*
X75618114Y-47767779D01*
X75471681Y-47534732D01*
X75300075Y-47319545D01*
X75105455Y-47124925D01*
X74890268Y-46953319D01*
X74657221Y-46806886D01*
X74657218Y-46806884D01*
X74409246Y-46687467D01*
X74149465Y-46596565D01*
X74149453Y-46596561D01*
X73881124Y-46535317D01*
X73881108Y-46535315D01*
X73607621Y-46504500D01*
X73607617Y-46504500D01*
X73332383Y-46504500D01*
X73332379Y-46504500D01*
X73058891Y-46535315D01*
X73058875Y-46535317D01*
X72790546Y-46596561D01*
X72790534Y-46596565D01*
X72530753Y-46687467D01*
X72282781Y-46806884D01*
X72049733Y-46953318D01*
X71834545Y-47124924D01*
X71639924Y-47319545D01*
X71468318Y-47534733D01*
X71321884Y-47767781D01*
X71202467Y-48015753D01*
X71111565Y-48275534D01*
X71111561Y-48275546D01*
X71050317Y-48543875D01*
X71050315Y-48543891D01*
X71019500Y-48817378D01*
X61470000Y-48817378D01*
X61470000Y-47705000D01*
X60545000Y-47705000D01*
X60545000Y-49804999D01*
X60044999Y-49804999D01*
X60045000Y-49804998D01*
X60045000Y-47705000D01*
X59120001Y-47705000D01*
X59120001Y-49104986D01*
X55819999Y-49104986D01*
X55820000Y-49104973D01*
X55820000Y-47705000D01*
X54895000Y-47705000D01*
X54895000Y-49804999D01*
X54394999Y-49804999D01*
X54395000Y-49804998D01*
X54395000Y-47705000D01*
X53470001Y-47705000D01*
X53470001Y-49104986D01*
X45919106Y-49104986D01*
X45920500Y-49092617D01*
X45920500Y-48817383D01*
X45889683Y-48543879D01*
X45828438Y-48275546D01*
X45737534Y-48015757D01*
X45618114Y-47767779D01*
X45471681Y-47534732D01*
X45300075Y-47319545D01*
X45105455Y-47124925D01*
X44890268Y-46953319D01*
X44657221Y-46806886D01*
X44657218Y-46806884D01*
X44409246Y-46687467D01*
X44149465Y-46596565D01*
X44149453Y-46596561D01*
X43881124Y-46535317D01*
X43881108Y-46535315D01*
X43607621Y-46504500D01*
X43607617Y-46504500D01*
X43332383Y-46504500D01*
X43332379Y-46504500D01*
X43058891Y-46535315D01*
X43058875Y-46535317D01*
X42790546Y-46596561D01*
X42790534Y-46596565D01*
X42530753Y-46687467D01*
X42282781Y-46806884D01*
X42049733Y-46953318D01*
X41834545Y-47124924D01*
X41639924Y-47319545D01*
X41468318Y-47534733D01*
X41321884Y-47767781D01*
X41202467Y-48015753D01*
X41111565Y-48275534D01*
X41111561Y-48275546D01*
X41050317Y-48543875D01*
X41050315Y-48543891D01*
X41019500Y-48817378D01*
X29120500Y-48817378D01*
X29120500Y-45669500D01*
X29140185Y-45602461D01*
X29192989Y-45556706D01*
X29244500Y-45545500D01*
X53360734Y-45545500D01*
X53427773Y-45565185D01*
G37*
%TD.AperFunction*%
%TA.AperFunction,Conductor*%
G36*
X81828413Y-114745185D02*
G01*
X81849055Y-114761819D01*
X81983181Y-114895945D01*
X82016666Y-114957268D01*
X82019500Y-114983626D01*
X82019500Y-125399486D01*
X82049059Y-125586118D01*
X82083701Y-125692732D01*
X82107453Y-125765832D01*
X82193240Y-125934199D01*
X82304310Y-126087074D01*
X82654308Y-126437071D01*
X82654310Y-126437074D01*
X82683183Y-126465947D01*
X82716667Y-126527270D01*
X82716666Y-126527274D01*
X82719500Y-126553626D01*
X82719500Y-128321437D01*
X82699815Y-128388476D01*
X82647011Y-128434231D01*
X82595500Y-128445437D01*
X81715730Y-128445437D01*
X81685300Y-128448290D01*
X81685298Y-128448291D01*
X81570451Y-128488478D01*
X81529496Y-128495437D01*
X79146009Y-128495437D01*
X79078970Y-128475752D01*
X79058328Y-128459118D01*
X78644974Y-128045763D01*
X78644970Y-128045760D01*
X78489299Y-127941743D01*
X78489286Y-127941736D01*
X78369029Y-127891925D01*
X78369025Y-127891924D01*
X78361901Y-127888973D01*
X78316314Y-127870090D01*
X78224496Y-127851826D01*
X78220100Y-127850951D01*
X78220098Y-127850951D01*
X78132683Y-127833563D01*
X78132680Y-127833563D01*
X78132679Y-127833563D01*
X73305009Y-127833563D01*
X73237970Y-127813878D01*
X73192215Y-127761074D01*
X73182271Y-127691916D01*
X73211296Y-127628360D01*
X73217328Y-127621882D01*
X73258301Y-127580909D01*
X73276748Y-127553302D01*
X73362322Y-127425231D01*
X73433973Y-127252251D01*
X73460767Y-127117547D01*
X73470500Y-127068617D01*
X73470500Y-126881384D01*
X73470500Y-117354865D01*
X73859500Y-117354865D01*
X73859500Y-119070134D01*
X73890045Y-119262985D01*
X73950381Y-119448684D01*
X73950382Y-119448687D01*
X74039031Y-119622667D01*
X74153793Y-119780625D01*
X74153797Y-119780630D01*
X74291869Y-119918702D01*
X74291874Y-119918706D01*
X74369883Y-119975382D01*
X74449836Y-120033471D01*
X74550280Y-120084650D01*
X74623812Y-120122117D01*
X74623815Y-120122118D01*
X74707139Y-120149191D01*
X74809516Y-120182455D01*
X74898835Y-120196601D01*
X75002366Y-120213000D01*
X75002371Y-120213000D01*
X75197634Y-120213000D01*
X75291125Y-120198191D01*
X75390484Y-120182455D01*
X75576187Y-120122117D01*
X75750164Y-120033471D01*
X75908132Y-119918701D01*
X76046201Y-119780632D01*
X76160971Y-119622664D01*
X76249617Y-119448687D01*
X76309955Y-119262984D01*
X76335353Y-119102629D01*
X76340500Y-119070134D01*
X76340500Y-117354865D01*
X78939500Y-117354865D01*
X78939500Y-119070134D01*
X78970045Y-119262985D01*
X79030381Y-119448684D01*
X79030382Y-119448687D01*
X79119031Y-119622667D01*
X79233793Y-119780625D01*
X79233797Y-119780630D01*
X79371869Y-119918702D01*
X79371874Y-119918706D01*
X79449883Y-119975382D01*
X79529836Y-120033471D01*
X79630280Y-120084650D01*
X79703812Y-120122117D01*
X79703815Y-120122118D01*
X79787139Y-120149191D01*
X79889516Y-120182455D01*
X79978835Y-120196601D01*
X80082366Y-120213000D01*
X80082371Y-120213000D01*
X80277634Y-120213000D01*
X80371125Y-120198191D01*
X80470484Y-120182455D01*
X80656187Y-120122117D01*
X80830164Y-120033471D01*
X80988132Y-119918701D01*
X81126201Y-119780632D01*
X81240971Y-119622664D01*
X81329617Y-119448687D01*
X81389955Y-119262984D01*
X81415353Y-119102629D01*
X81420500Y-119070134D01*
X81420500Y-117354865D01*
X81395102Y-117194514D01*
X81389955Y-117162016D01*
X81359786Y-117069164D01*
X81329618Y-116976315D01*
X81329617Y-116976312D01*
X81260008Y-116839699D01*
X81240971Y-116802336D01*
X81149818Y-116676874D01*
X81126206Y-116644374D01*
X81126202Y-116644369D01*
X80988130Y-116506297D01*
X80988125Y-116506293D01*
X80830167Y-116391531D01*
X80830166Y-116391530D01*
X80830164Y-116391529D01*
X80774426Y-116363129D01*
X80656187Y-116302882D01*
X80656184Y-116302881D01*
X80470485Y-116242545D01*
X80277634Y-116212000D01*
X80277629Y-116212000D01*
X80082371Y-116212000D01*
X80082366Y-116212000D01*
X79889514Y-116242545D01*
X79703815Y-116302881D01*
X79703812Y-116302882D01*
X79529832Y-116391531D01*
X79371874Y-116506293D01*
X79371869Y-116506297D01*
X79233797Y-116644369D01*
X79233793Y-116644374D01*
X79119031Y-116802332D01*
X79030382Y-116976312D01*
X79030381Y-116976315D01*
X78970045Y-117162014D01*
X78939500Y-117354865D01*
X76340500Y-117354865D01*
X76315102Y-117194514D01*
X76309955Y-117162016D01*
X76279786Y-117069164D01*
X76249618Y-116976315D01*
X76249617Y-116976312D01*
X76180008Y-116839699D01*
X76160971Y-116802336D01*
X76069818Y-116676874D01*
X76046206Y-116644374D01*
X76046202Y-116644369D01*
X75908130Y-116506297D01*
X75908125Y-116506293D01*
X75750167Y-116391531D01*
X75750166Y-116391530D01*
X75750164Y-116391529D01*
X75694426Y-116363129D01*
X75576187Y-116302882D01*
X75576184Y-116302881D01*
X75390485Y-116242545D01*
X75197634Y-116212000D01*
X75197629Y-116212000D01*
X75002371Y-116212000D01*
X75002366Y-116212000D01*
X74809514Y-116242545D01*
X74623815Y-116302881D01*
X74623812Y-116302882D01*
X74449832Y-116391531D01*
X74291874Y-116506293D01*
X74291869Y-116506297D01*
X74153797Y-116644369D01*
X74153793Y-116644374D01*
X74039031Y-116802332D01*
X73950382Y-116976312D01*
X73950381Y-116976315D01*
X73890045Y-117162014D01*
X73859500Y-117354865D01*
X73470500Y-117354865D01*
X73470500Y-115110072D01*
X73490185Y-115043033D01*
X73506819Y-115022391D01*
X73767391Y-114761819D01*
X73828714Y-114728334D01*
X73855072Y-114725500D01*
X80996384Y-114725500D01*
X81761374Y-114725500D01*
X81828413Y-114745185D01*
G37*
%TD.AperFunction*%
%TA.AperFunction,Conductor*%
G36*
X66412539Y-114815920D02*
G01*
X66458294Y-114868724D01*
X66469500Y-114920235D01*
X66469500Y-123899927D01*
X66449815Y-123966966D01*
X66433181Y-123987608D01*
X65141700Y-125279088D01*
X65141697Y-125279092D01*
X65037680Y-125434763D01*
X65037677Y-125434769D01*
X65037677Y-125434770D01*
X65024026Y-125467727D01*
X64968299Y-125602266D01*
X64968294Y-125602278D01*
X64966028Y-125607745D01*
X64966024Y-125607759D01*
X64934583Y-125765830D01*
X64934583Y-125765834D01*
X64929500Y-125791384D01*
X64929500Y-127993558D01*
X64922542Y-128034512D01*
X64882353Y-128149365D01*
X64879500Y-128179793D01*
X64879500Y-128330500D01*
X64876949Y-128339185D01*
X64878238Y-128348147D01*
X64867259Y-128372187D01*
X64859815Y-128397539D01*
X64852974Y-128403466D01*
X64849213Y-128411703D01*
X64826978Y-128425992D01*
X64807011Y-128443294D01*
X64796496Y-128445581D01*
X64790435Y-128449477D01*
X64755500Y-128454500D01*
X64675072Y-128454500D01*
X64608033Y-128434815D01*
X64587391Y-128418181D01*
X64245911Y-128076700D01*
X64245907Y-128076697D01*
X64090236Y-127972680D01*
X64090223Y-127972673D01*
X63983079Y-127928293D01*
X63983072Y-127928291D01*
X63976334Y-127925500D01*
X63917251Y-127901027D01*
X63817925Y-127881270D01*
X63813130Y-127880316D01*
X63813126Y-127880315D01*
X63733619Y-127864500D01*
X63733617Y-127864500D01*
X63733616Y-127864500D01*
X55524500Y-127864500D01*
X55457461Y-127844815D01*
X55411706Y-127792011D01*
X55400500Y-127740500D01*
X55400500Y-127260071D01*
X55420185Y-127193032D01*
X55436814Y-127172395D01*
X56926728Y-125682480D01*
X56945507Y-125667068D01*
X57055908Y-125593302D01*
X57188302Y-125460908D01*
X57292322Y-125305231D01*
X57363973Y-125132251D01*
X57400500Y-124948616D01*
X57400500Y-116608229D01*
X58619500Y-116608229D01*
X58619500Y-119816760D01*
X58619501Y-119816766D01*
X58622354Y-119847200D01*
X58622354Y-119847202D01*
X58622355Y-119847203D01*
X58622355Y-119847205D01*
X58667206Y-119975382D01*
X58747849Y-120084650D01*
X58787779Y-120114119D01*
X58857117Y-120165293D01*
X58899844Y-120180244D01*
X58985298Y-120210146D01*
X58992323Y-120210804D01*
X59015733Y-120213000D01*
X60704266Y-120212999D01*
X60734700Y-120210146D01*
X60862883Y-120165293D01*
X60972150Y-120084650D01*
X61052793Y-119975383D01*
X61089634Y-119870097D01*
X61097646Y-119847202D01*
X61097646Y-119847200D01*
X61097855Y-119844973D01*
X61100500Y-119816767D01*
X61100499Y-117354865D01*
X63699500Y-117354865D01*
X63699500Y-119070134D01*
X63730045Y-119262985D01*
X63790381Y-119448684D01*
X63790382Y-119448687D01*
X63879031Y-119622667D01*
X63993793Y-119780625D01*
X63993797Y-119780630D01*
X64131869Y-119918702D01*
X64131874Y-119918706D01*
X64209883Y-119975382D01*
X64289836Y-120033471D01*
X64390280Y-120084650D01*
X64463812Y-120122117D01*
X64463815Y-120122118D01*
X64547139Y-120149191D01*
X64649516Y-120182455D01*
X64738835Y-120196601D01*
X64842366Y-120213000D01*
X64842371Y-120213000D01*
X65037634Y-120213000D01*
X65131125Y-120198191D01*
X65230484Y-120182455D01*
X65416187Y-120122117D01*
X65590164Y-120033471D01*
X65748132Y-119918701D01*
X65886201Y-119780632D01*
X66000971Y-119622664D01*
X66089617Y-119448687D01*
X66149955Y-119262984D01*
X66175353Y-119102629D01*
X66180500Y-119070134D01*
X66180500Y-117354865D01*
X66155102Y-117194514D01*
X66149955Y-117162016D01*
X66119786Y-117069164D01*
X66089618Y-116976315D01*
X66089617Y-116976312D01*
X66020008Y-116839699D01*
X66000971Y-116802336D01*
X65909818Y-116676874D01*
X65886206Y-116644374D01*
X65886202Y-116644369D01*
X65748130Y-116506297D01*
X65748125Y-116506293D01*
X65590167Y-116391531D01*
X65590166Y-116391530D01*
X65590164Y-116391529D01*
X65534426Y-116363129D01*
X65416187Y-116302882D01*
X65416184Y-116302881D01*
X65230485Y-116242545D01*
X65037634Y-116212000D01*
X65037629Y-116212000D01*
X64842371Y-116212000D01*
X64842366Y-116212000D01*
X64649514Y-116242545D01*
X64463815Y-116302881D01*
X64463812Y-116302882D01*
X64289832Y-116391531D01*
X64131874Y-116506293D01*
X64131869Y-116506297D01*
X63993797Y-116644369D01*
X63993793Y-116644374D01*
X63879031Y-116802332D01*
X63790382Y-116976312D01*
X63790381Y-116976315D01*
X63730045Y-117162014D01*
X63699500Y-117354865D01*
X61100499Y-117354865D01*
X61100499Y-116608234D01*
X61097646Y-116577800D01*
X61052793Y-116449617D01*
X61033908Y-116424029D01*
X60972150Y-116340349D01*
X60883665Y-116275045D01*
X60862883Y-116259707D01*
X60862881Y-116259706D01*
X60734701Y-116214853D01*
X60704270Y-116212000D01*
X59015739Y-116212000D01*
X59001751Y-116213311D01*
X58985300Y-116214854D01*
X58985297Y-116214854D01*
X58985296Y-116214855D01*
X58985294Y-116214855D01*
X58857117Y-116259706D01*
X58747849Y-116340349D01*
X58667206Y-116449618D01*
X58622353Y-116577797D01*
X58622353Y-116577799D01*
X58619500Y-116608229D01*
X57400500Y-116608229D01*
X57400500Y-116120072D01*
X57420185Y-116053033D01*
X57436819Y-116032391D01*
X58636656Y-114832554D01*
X58697979Y-114799069D01*
X58724337Y-114796235D01*
X66345500Y-114796235D01*
X66412539Y-114815920D01*
G37*
%TD.AperFunction*%
%TA.AperFunction,Conductor*%
G36*
X71512539Y-114815920D02*
G01*
X71558294Y-114868724D01*
X71569500Y-114920235D01*
X71569500Y-126529928D01*
X71549815Y-126596967D01*
X71533181Y-126617609D01*
X70353546Y-127797244D01*
X70292223Y-127830729D01*
X70265865Y-127833563D01*
X66954500Y-127833563D01*
X66887461Y-127813878D01*
X66841706Y-127761074D01*
X66830500Y-127709563D01*
X66830500Y-126330072D01*
X66850185Y-126263033D01*
X66866819Y-126242391D01*
X68158299Y-124950911D01*
X68158302Y-124950908D01*
X68262323Y-124795230D01*
X68333973Y-124622250D01*
X68370500Y-124438617D01*
X68370500Y-124251383D01*
X68370500Y-117354865D01*
X68779500Y-117354865D01*
X68779500Y-119070134D01*
X68810045Y-119262985D01*
X68870381Y-119448684D01*
X68870382Y-119448687D01*
X68959031Y-119622667D01*
X69073793Y-119780625D01*
X69073797Y-119780630D01*
X69211869Y-119918702D01*
X69211874Y-119918706D01*
X69289883Y-119975382D01*
X69369836Y-120033471D01*
X69470280Y-120084650D01*
X69543812Y-120122117D01*
X69543815Y-120122118D01*
X69627139Y-120149191D01*
X69729516Y-120182455D01*
X69818835Y-120196601D01*
X69922366Y-120213000D01*
X69922371Y-120213000D01*
X70117634Y-120213000D01*
X70211125Y-120198191D01*
X70310484Y-120182455D01*
X70496187Y-120122117D01*
X70670164Y-120033471D01*
X70828132Y-119918701D01*
X70966201Y-119780632D01*
X71080971Y-119622664D01*
X71169617Y-119448687D01*
X71229955Y-119262984D01*
X71255353Y-119102629D01*
X71260500Y-119070134D01*
X71260500Y-117354865D01*
X71235102Y-117194514D01*
X71229955Y-117162016D01*
X71199786Y-117069164D01*
X71169618Y-116976315D01*
X71169617Y-116976312D01*
X71100008Y-116839699D01*
X71080971Y-116802336D01*
X70989818Y-116676874D01*
X70966206Y-116644374D01*
X70966202Y-116644369D01*
X70828130Y-116506297D01*
X70828125Y-116506293D01*
X70670167Y-116391531D01*
X70670166Y-116391530D01*
X70670164Y-116391529D01*
X70614426Y-116363129D01*
X70496187Y-116302882D01*
X70496184Y-116302881D01*
X70310485Y-116242545D01*
X70117634Y-116212000D01*
X70117629Y-116212000D01*
X69922371Y-116212000D01*
X69922366Y-116212000D01*
X69729514Y-116242545D01*
X69543815Y-116302881D01*
X69543812Y-116302882D01*
X69369832Y-116391531D01*
X69211874Y-116506293D01*
X69211869Y-116506297D01*
X69073797Y-116644369D01*
X69073793Y-116644374D01*
X68959031Y-116802332D01*
X68870382Y-116976312D01*
X68870381Y-116976315D01*
X68810045Y-117162014D01*
X68779500Y-117354865D01*
X68370500Y-117354865D01*
X68370500Y-114920235D01*
X68390185Y-114853196D01*
X68442989Y-114807441D01*
X68494500Y-114796235D01*
X71445500Y-114796235D01*
X71512539Y-114815920D01*
G37*
%TD.AperFunction*%
%TD*%
M02*
