%TF.GenerationSoftware,KiCad,Pcbnew,9.0.7*%
%TF.CreationDate,2026-08-12T04:56:44+05:30*%
%TF.ProjectId,ValveNode,56616c76-654e-46f6-9465-2e6b69636164,rev?*%
%TF.SameCoordinates,Original*%
%TF.FileFunction,Legend,Top*%
%TF.FilePolarity,Positive*%
%FSLAX46Y46*%
G04 Gerber Fmt 4.6, Leading zero omitted, Abs format (unit mm)*
G04 Created by KiCad (PCBNEW 9.0.7) date 2026-08-12 04:56:44*
%MOMM*%
%LPD*%
G01*
G04 APERTURE LIST*
%ADD10C,0.400000*%
%ADD11C,0.250000*%
%ADD12C,0.500000*%
%ADD13C,0.300000*%
%ADD14C,0.240000*%
%ADD15C,0.150000*%
%ADD16C,1.000000*%
%ADD17C,0.875000*%
%ADD18C,0.100000*%
%ADD19C,0.120000*%
G04 APERTURE END LIST*
D10*
X41586966Y-110044676D02*
X41396490Y-109949438D01*
X41396490Y-109949438D02*
X41110776Y-109949438D01*
X41110776Y-109949438D02*
X40825061Y-110044676D01*
X40825061Y-110044676D02*
X40634585Y-110235152D01*
X40634585Y-110235152D02*
X40539347Y-110425628D01*
X40539347Y-110425628D02*
X40444109Y-110806580D01*
X40444109Y-110806580D02*
X40444109Y-111092295D01*
X40444109Y-111092295D02*
X40539347Y-111473247D01*
X40539347Y-111473247D02*
X40634585Y-111663723D01*
X40634585Y-111663723D02*
X40825061Y-111854200D01*
X40825061Y-111854200D02*
X41110776Y-111949438D01*
X41110776Y-111949438D02*
X41301252Y-111949438D01*
X41301252Y-111949438D02*
X41586966Y-111854200D01*
X41586966Y-111854200D02*
X41682204Y-111758961D01*
X41682204Y-111758961D02*
X41682204Y-111092295D01*
X41682204Y-111092295D02*
X41301252Y-111092295D01*
X42539347Y-111949438D02*
X42539347Y-109949438D01*
X42539347Y-109949438D02*
X43682204Y-111949438D01*
X43682204Y-111949438D02*
X43682204Y-109949438D01*
X44634585Y-111949438D02*
X44634585Y-109949438D01*
X44634585Y-109949438D02*
X45110775Y-109949438D01*
X45110775Y-109949438D02*
X45396490Y-110044676D01*
X45396490Y-110044676D02*
X45586966Y-110235152D01*
X45586966Y-110235152D02*
X45682204Y-110425628D01*
X45682204Y-110425628D02*
X45777442Y-110806580D01*
X45777442Y-110806580D02*
X45777442Y-111092295D01*
X45777442Y-111092295D02*
X45682204Y-111473247D01*
X45682204Y-111473247D02*
X45586966Y-111663723D01*
X45586966Y-111663723D02*
X45396490Y-111854200D01*
X45396490Y-111854200D02*
X45110775Y-111949438D01*
X45110775Y-111949438D02*
X44634585Y-111949438D01*
X47279347Y-111307533D02*
X48803157Y-111307533D01*
X48041252Y-112069438D02*
X48041252Y-110545628D01*
X50041251Y-110926580D02*
X49850775Y-110831342D01*
X49850775Y-110831342D02*
X49755537Y-110736104D01*
X49755537Y-110736104D02*
X49660299Y-110545628D01*
X49660299Y-110545628D02*
X49660299Y-110450390D01*
X49660299Y-110450390D02*
X49755537Y-110259914D01*
X49755537Y-110259914D02*
X49850775Y-110164676D01*
X49850775Y-110164676D02*
X50041251Y-110069438D01*
X50041251Y-110069438D02*
X50422204Y-110069438D01*
X50422204Y-110069438D02*
X50612680Y-110164676D01*
X50612680Y-110164676D02*
X50707918Y-110259914D01*
X50707918Y-110259914D02*
X50803156Y-110450390D01*
X50803156Y-110450390D02*
X50803156Y-110545628D01*
X50803156Y-110545628D02*
X50707918Y-110736104D01*
X50707918Y-110736104D02*
X50612680Y-110831342D01*
X50612680Y-110831342D02*
X50422204Y-110926580D01*
X50422204Y-110926580D02*
X50041251Y-110926580D01*
X50041251Y-110926580D02*
X49850775Y-111021819D01*
X49850775Y-111021819D02*
X49755537Y-111117057D01*
X49755537Y-111117057D02*
X49660299Y-111307533D01*
X49660299Y-111307533D02*
X49660299Y-111688485D01*
X49660299Y-111688485D02*
X49755537Y-111878961D01*
X49755537Y-111878961D02*
X49850775Y-111974200D01*
X49850775Y-111974200D02*
X50041251Y-112069438D01*
X50041251Y-112069438D02*
X50422204Y-112069438D01*
X50422204Y-112069438D02*
X50612680Y-111974200D01*
X50612680Y-111974200D02*
X50707918Y-111878961D01*
X50707918Y-111878961D02*
X50803156Y-111688485D01*
X50803156Y-111688485D02*
X50803156Y-111307533D01*
X50803156Y-111307533D02*
X50707918Y-111117057D01*
X50707918Y-111117057D02*
X50612680Y-111021819D01*
X50612680Y-111021819D02*
X50422204Y-110926580D01*
X51374585Y-110069438D02*
X52041251Y-112069438D01*
X52041251Y-112069438D02*
X52707918Y-110069438D01*
X58463633Y-109429438D02*
X59130299Y-111429438D01*
X59130299Y-111429438D02*
X59796966Y-109429438D01*
X61320776Y-110096104D02*
X61320776Y-111429438D01*
X60844585Y-109334200D02*
X60368395Y-110762771D01*
X60368395Y-110762771D02*
X61606490Y-110762771D01*
X63783633Y-109379438D02*
X64450299Y-111379438D01*
X64450299Y-111379438D02*
X65116966Y-109379438D01*
X65593157Y-109379438D02*
X66831252Y-109379438D01*
X66831252Y-109379438D02*
X66164585Y-110141342D01*
X66164585Y-110141342D02*
X66450300Y-110141342D01*
X66450300Y-110141342D02*
X66640776Y-110236580D01*
X66640776Y-110236580D02*
X66736014Y-110331819D01*
X66736014Y-110331819D02*
X66831252Y-110522295D01*
X66831252Y-110522295D02*
X66831252Y-110998485D01*
X66831252Y-110998485D02*
X66736014Y-111188961D01*
X66736014Y-111188961D02*
X66640776Y-111284200D01*
X66640776Y-111284200D02*
X66450300Y-111379438D01*
X66450300Y-111379438D02*
X65878871Y-111379438D01*
X65878871Y-111379438D02*
X65688395Y-111284200D01*
X65688395Y-111284200D02*
X65593157Y-111188961D01*
X68623633Y-109379438D02*
X69290299Y-111379438D01*
X69290299Y-111379438D02*
X69956966Y-109379438D01*
X70528395Y-109569914D02*
X70623633Y-109474676D01*
X70623633Y-109474676D02*
X70814109Y-109379438D01*
X70814109Y-109379438D02*
X71290300Y-109379438D01*
X71290300Y-109379438D02*
X71480776Y-109474676D01*
X71480776Y-109474676D02*
X71576014Y-109569914D01*
X71576014Y-109569914D02*
X71671252Y-109760390D01*
X71671252Y-109760390D02*
X71671252Y-109950866D01*
X71671252Y-109950866D02*
X71576014Y-110236580D01*
X71576014Y-110236580D02*
X70433157Y-111379438D01*
X70433157Y-111379438D02*
X71671252Y-111379438D01*
X73333633Y-109319438D02*
X74000299Y-111319438D01*
X74000299Y-111319438D02*
X74666966Y-109319438D01*
X76381252Y-111319438D02*
X75238395Y-111319438D01*
X75809823Y-111319438D02*
X75809823Y-109319438D01*
X75809823Y-109319438D02*
X75619347Y-109605152D01*
X75619347Y-109605152D02*
X75428871Y-109795628D01*
X75428871Y-109795628D02*
X75238395Y-109890866D01*
X81163961Y-110842795D02*
X81259200Y-110938033D01*
X81259200Y-110938033D02*
X81354438Y-111223747D01*
X81354438Y-111223747D02*
X81354438Y-111414223D01*
X81354438Y-111414223D02*
X81259200Y-111699938D01*
X81259200Y-111699938D02*
X81068723Y-111890414D01*
X81068723Y-111890414D02*
X80878247Y-111985652D01*
X80878247Y-111985652D02*
X80497295Y-112080890D01*
X80497295Y-112080890D02*
X80211580Y-112080890D01*
X80211580Y-112080890D02*
X79830628Y-111985652D01*
X79830628Y-111985652D02*
X79640152Y-111890414D01*
X79640152Y-111890414D02*
X79449676Y-111699938D01*
X79449676Y-111699938D02*
X79354438Y-111414223D01*
X79354438Y-111414223D02*
X79354438Y-111223747D01*
X79354438Y-111223747D02*
X79449676Y-110938033D01*
X79449676Y-110938033D02*
X79544914Y-110842795D01*
X79354438Y-109604700D02*
X79354438Y-109223747D01*
X79354438Y-109223747D02*
X79449676Y-109033271D01*
X79449676Y-109033271D02*
X79640152Y-108842795D01*
X79640152Y-108842795D02*
X80021104Y-108747557D01*
X80021104Y-108747557D02*
X80687771Y-108747557D01*
X80687771Y-108747557D02*
X81068723Y-108842795D01*
X81068723Y-108842795D02*
X81259200Y-109033271D01*
X81259200Y-109033271D02*
X81354438Y-109223747D01*
X81354438Y-109223747D02*
X81354438Y-109604700D01*
X81354438Y-109604700D02*
X81259200Y-109795176D01*
X81259200Y-109795176D02*
X81068723Y-109985652D01*
X81068723Y-109985652D02*
X80687771Y-110080890D01*
X80687771Y-110080890D02*
X80021104Y-110080890D01*
X80021104Y-110080890D02*
X79640152Y-109985652D01*
X79640152Y-109985652D02*
X79449676Y-109795176D01*
X79449676Y-109795176D02*
X79354438Y-109604700D01*
X81354438Y-107890414D02*
X79354438Y-107890414D01*
X79354438Y-107890414D02*
X80783009Y-107223747D01*
X80783009Y-107223747D02*
X79354438Y-106557081D01*
X79354438Y-106557081D02*
X81354438Y-106557081D01*
D11*
X32987330Y-92519857D02*
X32844473Y-92448428D01*
X32844473Y-92448428D02*
X32630187Y-92448428D01*
X32630187Y-92448428D02*
X32415901Y-92519857D01*
X32415901Y-92519857D02*
X32273044Y-92662714D01*
X32273044Y-92662714D02*
X32201615Y-92805571D01*
X32201615Y-92805571D02*
X32130187Y-93091285D01*
X32130187Y-93091285D02*
X32130187Y-93305571D01*
X32130187Y-93305571D02*
X32201615Y-93591285D01*
X32201615Y-93591285D02*
X32273044Y-93734142D01*
X32273044Y-93734142D02*
X32415901Y-93877000D01*
X32415901Y-93877000D02*
X32630187Y-93948428D01*
X32630187Y-93948428D02*
X32773044Y-93948428D01*
X32773044Y-93948428D02*
X32987330Y-93877000D01*
X32987330Y-93877000D02*
X33058758Y-93805571D01*
X33058758Y-93805571D02*
X33058758Y-93305571D01*
X33058758Y-93305571D02*
X32773044Y-93305571D01*
X33701615Y-93948428D02*
X33701615Y-92448428D01*
X33701615Y-92448428D02*
X34558758Y-93948428D01*
X34558758Y-93948428D02*
X34558758Y-92448428D01*
X35273044Y-93948428D02*
X35273044Y-92448428D01*
X35273044Y-92448428D02*
X35630187Y-92448428D01*
X35630187Y-92448428D02*
X35844473Y-92519857D01*
X35844473Y-92519857D02*
X35987330Y-92662714D01*
X35987330Y-92662714D02*
X36058759Y-92805571D01*
X36058759Y-92805571D02*
X36130187Y-93091285D01*
X36130187Y-93091285D02*
X36130187Y-93305571D01*
X36130187Y-93305571D02*
X36058759Y-93591285D01*
X36058759Y-93591285D02*
X35987330Y-93734142D01*
X35987330Y-93734142D02*
X35844473Y-93877000D01*
X35844473Y-93877000D02*
X35630187Y-93948428D01*
X35630187Y-93948428D02*
X35273044Y-93948428D01*
X32995901Y-95228428D02*
X32281615Y-95228428D01*
X32281615Y-95228428D02*
X32210187Y-95942714D01*
X32210187Y-95942714D02*
X32281615Y-95871285D01*
X32281615Y-95871285D02*
X32424473Y-95799857D01*
X32424473Y-95799857D02*
X32781615Y-95799857D01*
X32781615Y-95799857D02*
X32924473Y-95871285D01*
X32924473Y-95871285D02*
X32995901Y-95942714D01*
X32995901Y-95942714D02*
X33067330Y-96085571D01*
X33067330Y-96085571D02*
X33067330Y-96442714D01*
X33067330Y-96442714D02*
X32995901Y-96585571D01*
X32995901Y-96585571D02*
X32924473Y-96657000D01*
X32924473Y-96657000D02*
X32781615Y-96728428D01*
X32781615Y-96728428D02*
X32424473Y-96728428D01*
X32424473Y-96728428D02*
X32281615Y-96657000D01*
X32281615Y-96657000D02*
X32210187Y-96585571D01*
X33495901Y-95228428D02*
X33995901Y-96728428D01*
X33995901Y-96728428D02*
X34495901Y-95228428D01*
X58307330Y-92759857D02*
X58164473Y-92688428D01*
X58164473Y-92688428D02*
X57950187Y-92688428D01*
X57950187Y-92688428D02*
X57735901Y-92759857D01*
X57735901Y-92759857D02*
X57593044Y-92902714D01*
X57593044Y-92902714D02*
X57521615Y-93045571D01*
X57521615Y-93045571D02*
X57450187Y-93331285D01*
X57450187Y-93331285D02*
X57450187Y-93545571D01*
X57450187Y-93545571D02*
X57521615Y-93831285D01*
X57521615Y-93831285D02*
X57593044Y-93974142D01*
X57593044Y-93974142D02*
X57735901Y-94117000D01*
X57735901Y-94117000D02*
X57950187Y-94188428D01*
X57950187Y-94188428D02*
X58093044Y-94188428D01*
X58093044Y-94188428D02*
X58307330Y-94117000D01*
X58307330Y-94117000D02*
X58378758Y-94045571D01*
X58378758Y-94045571D02*
X58378758Y-93545571D01*
X58378758Y-93545571D02*
X58093044Y-93545571D01*
X59021615Y-94188428D02*
X59021615Y-92688428D01*
X59021615Y-92688428D02*
X59878758Y-94188428D01*
X59878758Y-94188428D02*
X59878758Y-92688428D01*
X60593044Y-94188428D02*
X60593044Y-92688428D01*
X60593044Y-92688428D02*
X60950187Y-92688428D01*
X60950187Y-92688428D02*
X61164473Y-92759857D01*
X61164473Y-92759857D02*
X61307330Y-92902714D01*
X61307330Y-92902714D02*
X61378759Y-93045571D01*
X61378759Y-93045571D02*
X61450187Y-93331285D01*
X61450187Y-93331285D02*
X61450187Y-93545571D01*
X61450187Y-93545571D02*
X61378759Y-93831285D01*
X61378759Y-93831285D02*
X61307330Y-93974142D01*
X61307330Y-93974142D02*
X61164473Y-94117000D01*
X61164473Y-94117000D02*
X60950187Y-94188428D01*
X60950187Y-94188428D02*
X60593044Y-94188428D01*
X57488758Y-95218428D02*
X58417330Y-95218428D01*
X58417330Y-95218428D02*
X57917330Y-95789857D01*
X57917330Y-95789857D02*
X58131615Y-95789857D01*
X58131615Y-95789857D02*
X58274473Y-95861285D01*
X58274473Y-95861285D02*
X58345901Y-95932714D01*
X58345901Y-95932714D02*
X58417330Y-96075571D01*
X58417330Y-96075571D02*
X58417330Y-96432714D01*
X58417330Y-96432714D02*
X58345901Y-96575571D01*
X58345901Y-96575571D02*
X58274473Y-96647000D01*
X58274473Y-96647000D02*
X58131615Y-96718428D01*
X58131615Y-96718428D02*
X57703044Y-96718428D01*
X57703044Y-96718428D02*
X57560187Y-96647000D01*
X57560187Y-96647000D02*
X57488758Y-96575571D01*
X58845901Y-95218428D02*
X59345901Y-96718428D01*
X59345901Y-96718428D02*
X59845901Y-95218428D01*
X60203043Y-95218428D02*
X61131615Y-95218428D01*
X61131615Y-95218428D02*
X60631615Y-95789857D01*
X60631615Y-95789857D02*
X60845900Y-95789857D01*
X60845900Y-95789857D02*
X60988758Y-95861285D01*
X60988758Y-95861285D02*
X61060186Y-95932714D01*
X61060186Y-95932714D02*
X61131615Y-96075571D01*
X61131615Y-96075571D02*
X61131615Y-96432714D01*
X61131615Y-96432714D02*
X61060186Y-96575571D01*
X61060186Y-96575571D02*
X60988758Y-96647000D01*
X60988758Y-96647000D02*
X60845900Y-96718428D01*
X60845900Y-96718428D02*
X60417329Y-96718428D01*
X60417329Y-96718428D02*
X60274472Y-96647000D01*
X60274472Y-96647000D02*
X60203043Y-96575571D01*
X83847330Y-92754142D02*
X83847330Y-93468428D01*
X83347330Y-91968428D02*
X83847330Y-92754142D01*
X83847330Y-92754142D02*
X84347330Y-91968428D01*
X83757330Y-83134142D02*
X83757330Y-83848428D01*
X83257330Y-82348428D02*
X83757330Y-83134142D01*
X83757330Y-83134142D02*
X84257330Y-82348428D01*
X83907330Y-73284142D02*
X83907330Y-73998428D01*
X83407330Y-72498428D02*
X83907330Y-73284142D01*
X83907330Y-73284142D02*
X84407330Y-72498428D01*
X83407330Y-63394142D02*
X83407330Y-64108428D01*
X82907330Y-62608428D02*
X83407330Y-63394142D01*
X83407330Y-63394142D02*
X83907330Y-62608428D01*
X81461615Y-96297000D02*
X82604473Y-96297000D01*
X82033044Y-96868428D02*
X82033044Y-95725571D01*
X81251615Y-86687000D02*
X82394473Y-86687000D01*
X81823044Y-87258428D02*
X81823044Y-86115571D01*
X81521615Y-76737000D02*
X82664473Y-76737000D01*
X82093044Y-77308428D02*
X82093044Y-76165571D01*
D10*
X75488871Y-93097057D02*
X76488871Y-96097057D01*
X76488871Y-96097057D02*
X77488871Y-93097057D01*
X79774586Y-94097057D02*
X79774586Y-96097057D01*
X79060300Y-92954200D02*
X78346014Y-95097057D01*
X78346014Y-95097057D02*
X80203157Y-95097057D01*
X75438871Y-83337057D02*
X76438871Y-86337057D01*
X76438871Y-86337057D02*
X77438871Y-83337057D01*
X78153157Y-83337057D02*
X80010300Y-83337057D01*
X80010300Y-83337057D02*
X79010300Y-84479914D01*
X79010300Y-84479914D02*
X79438871Y-84479914D01*
X79438871Y-84479914D02*
X79724586Y-84622771D01*
X79724586Y-84622771D02*
X79867443Y-84765628D01*
X79867443Y-84765628D02*
X80010300Y-85051342D01*
X80010300Y-85051342D02*
X80010300Y-85765628D01*
X80010300Y-85765628D02*
X79867443Y-86051342D01*
X79867443Y-86051342D02*
X79724586Y-86194200D01*
X79724586Y-86194200D02*
X79438871Y-86337057D01*
X79438871Y-86337057D02*
X78581728Y-86337057D01*
X78581728Y-86337057D02*
X78296014Y-86194200D01*
X78296014Y-86194200D02*
X78153157Y-86051342D01*
X75498871Y-73607057D02*
X76498871Y-76607057D01*
X76498871Y-76607057D02*
X77498871Y-73607057D01*
X78356014Y-73892771D02*
X78498871Y-73749914D01*
X78498871Y-73749914D02*
X78784586Y-73607057D01*
X78784586Y-73607057D02*
X79498871Y-73607057D01*
X79498871Y-73607057D02*
X79784586Y-73749914D01*
X79784586Y-73749914D02*
X79927443Y-73892771D01*
X79927443Y-73892771D02*
X80070300Y-74178485D01*
X80070300Y-74178485D02*
X80070300Y-74464200D01*
X80070300Y-74464200D02*
X79927443Y-74892771D01*
X79927443Y-74892771D02*
X78213157Y-76607057D01*
X78213157Y-76607057D02*
X80070300Y-76607057D01*
X75448871Y-63847057D02*
X76448871Y-66847057D01*
X76448871Y-66847057D02*
X77448871Y-63847057D01*
X80020300Y-66847057D02*
X78306014Y-66847057D01*
X79163157Y-66847057D02*
X79163157Y-63847057D01*
X79163157Y-63847057D02*
X78877443Y-64275628D01*
X78877443Y-64275628D02*
X78591728Y-64561342D01*
X78591728Y-64561342D02*
X78306014Y-64704200D01*
D11*
X80901615Y-66557000D02*
X82044473Y-66557000D01*
X81473044Y-67128428D02*
X81473044Y-65985571D01*
D10*
X67026014Y-60437057D02*
X65597442Y-60437057D01*
X65597442Y-60437057D02*
X65597442Y-57437057D01*
X68454585Y-60437057D02*
X68168870Y-60294200D01*
X68168870Y-60294200D02*
X68026013Y-60151342D01*
X68026013Y-60151342D02*
X67883156Y-59865628D01*
X67883156Y-59865628D02*
X67883156Y-59008485D01*
X67883156Y-59008485D02*
X68026013Y-58722771D01*
X68026013Y-58722771D02*
X68168870Y-58579914D01*
X68168870Y-58579914D02*
X68454585Y-58437057D01*
X68454585Y-58437057D02*
X68883156Y-58437057D01*
X68883156Y-58437057D02*
X69168870Y-58579914D01*
X69168870Y-58579914D02*
X69311728Y-58722771D01*
X69311728Y-58722771D02*
X69454585Y-59008485D01*
X69454585Y-59008485D02*
X69454585Y-59865628D01*
X69454585Y-59865628D02*
X69311728Y-60151342D01*
X69311728Y-60151342D02*
X69168870Y-60294200D01*
X69168870Y-60294200D02*
X68883156Y-60437057D01*
X68883156Y-60437057D02*
X68454585Y-60437057D01*
X72454585Y-60437057D02*
X71454585Y-59008485D01*
X70740299Y-60437057D02*
X70740299Y-57437057D01*
X70740299Y-57437057D02*
X71883156Y-57437057D01*
X71883156Y-57437057D02*
X72168871Y-57579914D01*
X72168871Y-57579914D02*
X72311728Y-57722771D01*
X72311728Y-57722771D02*
X72454585Y-58008485D01*
X72454585Y-58008485D02*
X72454585Y-58437057D01*
X72454585Y-58437057D02*
X72311728Y-58722771D01*
X72311728Y-58722771D02*
X72168871Y-58865628D01*
X72168871Y-58865628D02*
X71883156Y-59008485D01*
X71883156Y-59008485D02*
X70740299Y-59008485D01*
X75026014Y-60437057D02*
X75026014Y-58865628D01*
X75026014Y-58865628D02*
X74883156Y-58579914D01*
X74883156Y-58579914D02*
X74597442Y-58437057D01*
X74597442Y-58437057D02*
X74026014Y-58437057D01*
X74026014Y-58437057D02*
X73740299Y-58579914D01*
X75026014Y-60294200D02*
X74740299Y-60437057D01*
X74740299Y-60437057D02*
X74026014Y-60437057D01*
X74026014Y-60437057D02*
X73740299Y-60294200D01*
X73740299Y-60294200D02*
X73597442Y-60008485D01*
X73597442Y-60008485D02*
X73597442Y-59722771D01*
X73597442Y-59722771D02*
X73740299Y-59437057D01*
X73740299Y-59437057D02*
X74026014Y-59294200D01*
X74026014Y-59294200D02*
X74740299Y-59294200D01*
X74740299Y-59294200D02*
X75026014Y-59151342D01*
D11*
X67605901Y-55525809D02*
X67748758Y-55573428D01*
X67748758Y-55573428D02*
X67796377Y-55621047D01*
X67796377Y-55621047D02*
X67843996Y-55716285D01*
X67843996Y-55716285D02*
X67843996Y-55859142D01*
X67843996Y-55859142D02*
X67796377Y-55954380D01*
X67796377Y-55954380D02*
X67748758Y-56002000D01*
X67748758Y-56002000D02*
X67653520Y-56049619D01*
X67653520Y-56049619D02*
X67272568Y-56049619D01*
X67272568Y-56049619D02*
X67272568Y-55049619D01*
X67272568Y-55049619D02*
X67605901Y-55049619D01*
X67605901Y-55049619D02*
X67701139Y-55097238D01*
X67701139Y-55097238D02*
X67748758Y-55144857D01*
X67748758Y-55144857D02*
X67796377Y-55240095D01*
X67796377Y-55240095D02*
X67796377Y-55335333D01*
X67796377Y-55335333D02*
X67748758Y-55430571D01*
X67748758Y-55430571D02*
X67701139Y-55478190D01*
X67701139Y-55478190D02*
X67605901Y-55525809D01*
X67605901Y-55525809D02*
X67272568Y-55525809D01*
X67741615Y-56867000D02*
X68884473Y-56867000D01*
X68313044Y-57438428D02*
X68313044Y-56295571D01*
D12*
X245394476Y-82402243D02*
X245299238Y-82592719D01*
X245299238Y-82592719D02*
X245299238Y-82878433D01*
X245299238Y-82878433D02*
X245394476Y-83164148D01*
X245394476Y-83164148D02*
X245584952Y-83354624D01*
X245584952Y-83354624D02*
X245775428Y-83449862D01*
X245775428Y-83449862D02*
X246156380Y-83545100D01*
X246156380Y-83545100D02*
X246442095Y-83545100D01*
X246442095Y-83545100D02*
X246823047Y-83449862D01*
X246823047Y-83449862D02*
X247013523Y-83354624D01*
X247013523Y-83354624D02*
X247204000Y-83164148D01*
X247204000Y-83164148D02*
X247299238Y-82878433D01*
X247299238Y-82878433D02*
X247299238Y-82687957D01*
X247299238Y-82687957D02*
X247204000Y-82402243D01*
X247204000Y-82402243D02*
X247108761Y-82307005D01*
X247108761Y-82307005D02*
X246442095Y-82307005D01*
X246442095Y-82307005D02*
X246442095Y-82687957D01*
X247299238Y-81449862D02*
X245299238Y-81449862D01*
X245299238Y-81449862D02*
X247299238Y-80307005D01*
X247299238Y-80307005D02*
X245299238Y-80307005D01*
X247299238Y-79354624D02*
X245299238Y-79354624D01*
X245299238Y-79354624D02*
X245299238Y-78878434D01*
X245299238Y-78878434D02*
X245394476Y-78592719D01*
X245394476Y-78592719D02*
X245584952Y-78402243D01*
X245584952Y-78402243D02*
X245775428Y-78307005D01*
X245775428Y-78307005D02*
X246156380Y-78211767D01*
X246156380Y-78211767D02*
X246442095Y-78211767D01*
X246442095Y-78211767D02*
X246823047Y-78307005D01*
X246823047Y-78307005D02*
X247013523Y-78402243D01*
X247013523Y-78402243D02*
X247204000Y-78592719D01*
X247204000Y-78592719D02*
X247299238Y-78878434D01*
X247299238Y-78878434D02*
X247299238Y-79354624D01*
D13*
X30021653Y-48070609D02*
X30421653Y-49270609D01*
X30421653Y-49270609D02*
X30821653Y-48070609D01*
X31735939Y-49270609D02*
X31735939Y-48642038D01*
X31735939Y-48642038D02*
X31678796Y-48527752D01*
X31678796Y-48527752D02*
X31564510Y-48470609D01*
X31564510Y-48470609D02*
X31335939Y-48470609D01*
X31335939Y-48470609D02*
X31221653Y-48527752D01*
X31735939Y-49213467D02*
X31621653Y-49270609D01*
X31621653Y-49270609D02*
X31335939Y-49270609D01*
X31335939Y-49270609D02*
X31221653Y-49213467D01*
X31221653Y-49213467D02*
X31164510Y-49099181D01*
X31164510Y-49099181D02*
X31164510Y-48984895D01*
X31164510Y-48984895D02*
X31221653Y-48870609D01*
X31221653Y-48870609D02*
X31335939Y-48813467D01*
X31335939Y-48813467D02*
X31621653Y-48813467D01*
X31621653Y-48813467D02*
X31735939Y-48756324D01*
X32478795Y-49270609D02*
X32364510Y-49213467D01*
X32364510Y-49213467D02*
X32307367Y-49099181D01*
X32307367Y-49099181D02*
X32307367Y-48070609D01*
X32821652Y-48470609D02*
X33107366Y-49270609D01*
X33107366Y-49270609D02*
X33393081Y-48470609D01*
X34307367Y-49213467D02*
X34193081Y-49270609D01*
X34193081Y-49270609D02*
X33964510Y-49270609D01*
X33964510Y-49270609D02*
X33850224Y-49213467D01*
X33850224Y-49213467D02*
X33793081Y-49099181D01*
X33793081Y-49099181D02*
X33793081Y-48642038D01*
X33793081Y-48642038D02*
X33850224Y-48527752D01*
X33850224Y-48527752D02*
X33964510Y-48470609D01*
X33964510Y-48470609D02*
X34193081Y-48470609D01*
X34193081Y-48470609D02*
X34307367Y-48527752D01*
X34307367Y-48527752D02*
X34364510Y-48642038D01*
X34364510Y-48642038D02*
X34364510Y-48756324D01*
X34364510Y-48756324D02*
X33793081Y-48870609D01*
X35793081Y-49270609D02*
X35793081Y-48070609D01*
X35793081Y-48070609D02*
X36478795Y-49270609D01*
X36478795Y-49270609D02*
X36478795Y-48070609D01*
X37221652Y-49270609D02*
X37107367Y-49213467D01*
X37107367Y-49213467D02*
X37050224Y-49156324D01*
X37050224Y-49156324D02*
X36993081Y-49042038D01*
X36993081Y-49042038D02*
X36993081Y-48699181D01*
X36993081Y-48699181D02*
X37050224Y-48584895D01*
X37050224Y-48584895D02*
X37107367Y-48527752D01*
X37107367Y-48527752D02*
X37221652Y-48470609D01*
X37221652Y-48470609D02*
X37393081Y-48470609D01*
X37393081Y-48470609D02*
X37507367Y-48527752D01*
X37507367Y-48527752D02*
X37564510Y-48584895D01*
X37564510Y-48584895D02*
X37621652Y-48699181D01*
X37621652Y-48699181D02*
X37621652Y-49042038D01*
X37621652Y-49042038D02*
X37564510Y-49156324D01*
X37564510Y-49156324D02*
X37507367Y-49213467D01*
X37507367Y-49213467D02*
X37393081Y-49270609D01*
X37393081Y-49270609D02*
X37221652Y-49270609D01*
X38650224Y-49270609D02*
X38650224Y-48070609D01*
X38650224Y-49213467D02*
X38535938Y-49270609D01*
X38535938Y-49270609D02*
X38307366Y-49270609D01*
X38307366Y-49270609D02*
X38193081Y-49213467D01*
X38193081Y-49213467D02*
X38135938Y-49156324D01*
X38135938Y-49156324D02*
X38078795Y-49042038D01*
X38078795Y-49042038D02*
X38078795Y-48699181D01*
X38078795Y-48699181D02*
X38135938Y-48584895D01*
X38135938Y-48584895D02*
X38193081Y-48527752D01*
X38193081Y-48527752D02*
X38307366Y-48470609D01*
X38307366Y-48470609D02*
X38535938Y-48470609D01*
X38535938Y-48470609D02*
X38650224Y-48527752D01*
X39678795Y-49213467D02*
X39564509Y-49270609D01*
X39564509Y-49270609D02*
X39335938Y-49270609D01*
X39335938Y-49270609D02*
X39221652Y-49213467D01*
X39221652Y-49213467D02*
X39164509Y-49099181D01*
X39164509Y-49099181D02*
X39164509Y-48642038D01*
X39164509Y-48642038D02*
X39221652Y-48527752D01*
X39221652Y-48527752D02*
X39335938Y-48470609D01*
X39335938Y-48470609D02*
X39564509Y-48470609D01*
X39564509Y-48470609D02*
X39678795Y-48527752D01*
X39678795Y-48527752D02*
X39735938Y-48642038D01*
X39735938Y-48642038D02*
X39735938Y-48756324D01*
X39735938Y-48756324D02*
X39164509Y-48870609D01*
X32764511Y-50002542D02*
X33164511Y-51202542D01*
X33164511Y-51202542D02*
X33564511Y-50002542D01*
X33964511Y-51202542D02*
X33964511Y-50002542D01*
X33964511Y-50002542D02*
X34650225Y-51202542D01*
X34650225Y-51202542D02*
X34650225Y-50002542D01*
X35735940Y-50402542D02*
X35735940Y-51202542D01*
X35450225Y-49945400D02*
X35164511Y-50802542D01*
X35164511Y-50802542D02*
X35907368Y-50802542D01*
D14*
X34897143Y-77280545D02*
X35611429Y-77280545D01*
X34754286Y-77709116D02*
X35254286Y-76209116D01*
X35254286Y-76209116D02*
X35754286Y-77709116D01*
X36897143Y-76709116D02*
X36897143Y-77923402D01*
X36897143Y-77923402D02*
X36825714Y-78066259D01*
X36825714Y-78066259D02*
X36754285Y-78137688D01*
X36754285Y-78137688D02*
X36611428Y-78209116D01*
X36611428Y-78209116D02*
X36397143Y-78209116D01*
X36397143Y-78209116D02*
X36254285Y-78137688D01*
X36897143Y-77637688D02*
X36754285Y-77709116D01*
X36754285Y-77709116D02*
X36468571Y-77709116D01*
X36468571Y-77709116D02*
X36325714Y-77637688D01*
X36325714Y-77637688D02*
X36254285Y-77566259D01*
X36254285Y-77566259D02*
X36182857Y-77423402D01*
X36182857Y-77423402D02*
X36182857Y-76994830D01*
X36182857Y-76994830D02*
X36254285Y-76851973D01*
X36254285Y-76851973D02*
X36325714Y-76780545D01*
X36325714Y-76780545D02*
X36468571Y-76709116D01*
X36468571Y-76709116D02*
X36754285Y-76709116D01*
X36754285Y-76709116D02*
X36897143Y-76780545D01*
X37611428Y-77709116D02*
X37611428Y-76709116D01*
X37611428Y-76994830D02*
X37682857Y-76851973D01*
X37682857Y-76851973D02*
X37754286Y-76780545D01*
X37754286Y-76780545D02*
X37897143Y-76709116D01*
X37897143Y-76709116D02*
X38040000Y-76709116D01*
X38539999Y-77709116D02*
X38539999Y-76709116D01*
X38539999Y-76209116D02*
X38468571Y-76280545D01*
X38468571Y-76280545D02*
X38539999Y-76351973D01*
X38539999Y-76351973D02*
X38611428Y-76280545D01*
X38611428Y-76280545D02*
X38539999Y-76209116D01*
X38539999Y-76209116D02*
X38539999Y-76351973D01*
X40325714Y-77637688D02*
X40540000Y-77709116D01*
X40540000Y-77709116D02*
X40897142Y-77709116D01*
X40897142Y-77709116D02*
X41040000Y-77637688D01*
X41040000Y-77637688D02*
X41111428Y-77566259D01*
X41111428Y-77566259D02*
X41182857Y-77423402D01*
X41182857Y-77423402D02*
X41182857Y-77280545D01*
X41182857Y-77280545D02*
X41111428Y-77137688D01*
X41111428Y-77137688D02*
X41040000Y-77066259D01*
X41040000Y-77066259D02*
X40897142Y-76994830D01*
X40897142Y-76994830D02*
X40611428Y-76923402D01*
X40611428Y-76923402D02*
X40468571Y-76851973D01*
X40468571Y-76851973D02*
X40397142Y-76780545D01*
X40397142Y-76780545D02*
X40325714Y-76637688D01*
X40325714Y-76637688D02*
X40325714Y-76494830D01*
X40325714Y-76494830D02*
X40397142Y-76351973D01*
X40397142Y-76351973D02*
X40468571Y-76280545D01*
X40468571Y-76280545D02*
X40611428Y-76209116D01*
X40611428Y-76209116D02*
X40968571Y-76209116D01*
X40968571Y-76209116D02*
X41182857Y-76280545D01*
X42397142Y-77637688D02*
X42254285Y-77709116D01*
X42254285Y-77709116D02*
X41968571Y-77709116D01*
X41968571Y-77709116D02*
X41825713Y-77637688D01*
X41825713Y-77637688D02*
X41754285Y-77494830D01*
X41754285Y-77494830D02*
X41754285Y-76923402D01*
X41754285Y-76923402D02*
X41825713Y-76780545D01*
X41825713Y-76780545D02*
X41968571Y-76709116D01*
X41968571Y-76709116D02*
X42254285Y-76709116D01*
X42254285Y-76709116D02*
X42397142Y-76780545D01*
X42397142Y-76780545D02*
X42468571Y-76923402D01*
X42468571Y-76923402D02*
X42468571Y-77066259D01*
X42468571Y-77066259D02*
X41754285Y-77209116D01*
X43111427Y-76709116D02*
X43111427Y-77709116D01*
X43111427Y-76851973D02*
X43182856Y-76780545D01*
X43182856Y-76780545D02*
X43325713Y-76709116D01*
X43325713Y-76709116D02*
X43539999Y-76709116D01*
X43539999Y-76709116D02*
X43682856Y-76780545D01*
X43682856Y-76780545D02*
X43754285Y-76923402D01*
X43754285Y-76923402D02*
X43754285Y-77709116D01*
X44397142Y-77637688D02*
X44539999Y-77709116D01*
X44539999Y-77709116D02*
X44825713Y-77709116D01*
X44825713Y-77709116D02*
X44968570Y-77637688D01*
X44968570Y-77637688D02*
X45039999Y-77494830D01*
X45039999Y-77494830D02*
X45039999Y-77423402D01*
X45039999Y-77423402D02*
X44968570Y-77280545D01*
X44968570Y-77280545D02*
X44825713Y-77209116D01*
X44825713Y-77209116D02*
X44611428Y-77209116D01*
X44611428Y-77209116D02*
X44468570Y-77137688D01*
X44468570Y-77137688D02*
X44397142Y-76994830D01*
X44397142Y-76994830D02*
X44397142Y-76923402D01*
X44397142Y-76923402D02*
X44468570Y-76780545D01*
X44468570Y-76780545D02*
X44611428Y-76709116D01*
X44611428Y-76709116D02*
X44825713Y-76709116D01*
X44825713Y-76709116D02*
X44968570Y-76780545D01*
X45897142Y-77709116D02*
X45754285Y-77637688D01*
X45754285Y-77637688D02*
X45682856Y-77566259D01*
X45682856Y-77566259D02*
X45611428Y-77423402D01*
X45611428Y-77423402D02*
X45611428Y-76994830D01*
X45611428Y-76994830D02*
X45682856Y-76851973D01*
X45682856Y-76851973D02*
X45754285Y-76780545D01*
X45754285Y-76780545D02*
X45897142Y-76709116D01*
X45897142Y-76709116D02*
X46111428Y-76709116D01*
X46111428Y-76709116D02*
X46254285Y-76780545D01*
X46254285Y-76780545D02*
X46325714Y-76851973D01*
X46325714Y-76851973D02*
X46397142Y-76994830D01*
X46397142Y-76994830D02*
X46397142Y-77423402D01*
X46397142Y-77423402D02*
X46325714Y-77566259D01*
X46325714Y-77566259D02*
X46254285Y-77637688D01*
X46254285Y-77637688D02*
X46111428Y-77709116D01*
X46111428Y-77709116D02*
X45897142Y-77709116D01*
X47039999Y-77709116D02*
X47039999Y-76709116D01*
X47039999Y-76994830D02*
X47111428Y-76851973D01*
X47111428Y-76851973D02*
X47182857Y-76780545D01*
X47182857Y-76780545D02*
X47325714Y-76709116D01*
X47325714Y-76709116D02*
X47468571Y-76709116D01*
X47897142Y-77637688D02*
X48039999Y-77709116D01*
X48039999Y-77709116D02*
X48325713Y-77709116D01*
X48325713Y-77709116D02*
X48468570Y-77637688D01*
X48468570Y-77637688D02*
X48539999Y-77494830D01*
X48539999Y-77494830D02*
X48539999Y-77423402D01*
X48539999Y-77423402D02*
X48468570Y-77280545D01*
X48468570Y-77280545D02*
X48325713Y-77209116D01*
X48325713Y-77209116D02*
X48111428Y-77209116D01*
X48111428Y-77209116D02*
X47968570Y-77137688D01*
X47968570Y-77137688D02*
X47897142Y-76994830D01*
X47897142Y-76994830D02*
X47897142Y-76923402D01*
X47897142Y-76923402D02*
X47968570Y-76780545D01*
X47968570Y-76780545D02*
X48111428Y-76709116D01*
X48111428Y-76709116D02*
X48325713Y-76709116D01*
X48325713Y-76709116D02*
X48468570Y-76780545D01*
X36004286Y-80124032D02*
X36004286Y-79338318D01*
X36004286Y-79338318D02*
X35932857Y-79195461D01*
X35932857Y-79195461D02*
X35790000Y-79124032D01*
X35790000Y-79124032D02*
X35504286Y-79124032D01*
X35504286Y-79124032D02*
X35361428Y-79195461D01*
X36004286Y-80052604D02*
X35861428Y-80124032D01*
X35861428Y-80124032D02*
X35504286Y-80124032D01*
X35504286Y-80124032D02*
X35361428Y-80052604D01*
X35361428Y-80052604D02*
X35290000Y-79909746D01*
X35290000Y-79909746D02*
X35290000Y-79766889D01*
X35290000Y-79766889D02*
X35361428Y-79624032D01*
X35361428Y-79624032D02*
X35504286Y-79552604D01*
X35504286Y-79552604D02*
X35861428Y-79552604D01*
X35861428Y-79552604D02*
X36004286Y-79481175D01*
X36718571Y-79124032D02*
X36718571Y-80124032D01*
X36718571Y-79266889D02*
X36790000Y-79195461D01*
X36790000Y-79195461D02*
X36932857Y-79124032D01*
X36932857Y-79124032D02*
X37147143Y-79124032D01*
X37147143Y-79124032D02*
X37290000Y-79195461D01*
X37290000Y-79195461D02*
X37361429Y-79338318D01*
X37361429Y-79338318D02*
X37361429Y-80124032D01*
X38718572Y-80124032D02*
X38718572Y-78624032D01*
X38718572Y-80052604D02*
X38575714Y-80124032D01*
X38575714Y-80124032D02*
X38290000Y-80124032D01*
X38290000Y-80124032D02*
X38147143Y-80052604D01*
X38147143Y-80052604D02*
X38075714Y-79981175D01*
X38075714Y-79981175D02*
X38004286Y-79838318D01*
X38004286Y-79838318D02*
X38004286Y-79409746D01*
X38004286Y-79409746D02*
X38075714Y-79266889D01*
X38075714Y-79266889D02*
X38147143Y-79195461D01*
X38147143Y-79195461D02*
X38290000Y-79124032D01*
X38290000Y-79124032D02*
X38575714Y-79124032D01*
X38575714Y-79124032D02*
X38718572Y-79195461D01*
X41432857Y-79981175D02*
X41361429Y-80052604D01*
X41361429Y-80052604D02*
X41147143Y-80124032D01*
X41147143Y-80124032D02*
X41004286Y-80124032D01*
X41004286Y-80124032D02*
X40790000Y-80052604D01*
X40790000Y-80052604D02*
X40647143Y-79909746D01*
X40647143Y-79909746D02*
X40575714Y-79766889D01*
X40575714Y-79766889D02*
X40504286Y-79481175D01*
X40504286Y-79481175D02*
X40504286Y-79266889D01*
X40504286Y-79266889D02*
X40575714Y-78981175D01*
X40575714Y-78981175D02*
X40647143Y-78838318D01*
X40647143Y-78838318D02*
X40790000Y-78695461D01*
X40790000Y-78695461D02*
X41004286Y-78624032D01*
X41004286Y-78624032D02*
X41147143Y-78624032D01*
X41147143Y-78624032D02*
X41361429Y-78695461D01*
X41361429Y-78695461D02*
X41432857Y-78766889D01*
X42290000Y-80124032D02*
X42147143Y-80052604D01*
X42147143Y-80052604D02*
X42075714Y-79981175D01*
X42075714Y-79981175D02*
X42004286Y-79838318D01*
X42004286Y-79838318D02*
X42004286Y-79409746D01*
X42004286Y-79409746D02*
X42075714Y-79266889D01*
X42075714Y-79266889D02*
X42147143Y-79195461D01*
X42147143Y-79195461D02*
X42290000Y-79124032D01*
X42290000Y-79124032D02*
X42504286Y-79124032D01*
X42504286Y-79124032D02*
X42647143Y-79195461D01*
X42647143Y-79195461D02*
X42718572Y-79266889D01*
X42718572Y-79266889D02*
X42790000Y-79409746D01*
X42790000Y-79409746D02*
X42790000Y-79838318D01*
X42790000Y-79838318D02*
X42718572Y-79981175D01*
X42718572Y-79981175D02*
X42647143Y-80052604D01*
X42647143Y-80052604D02*
X42504286Y-80124032D01*
X42504286Y-80124032D02*
X42290000Y-80124032D01*
X43432857Y-79124032D02*
X43432857Y-80124032D01*
X43432857Y-79266889D02*
X43504286Y-79195461D01*
X43504286Y-79195461D02*
X43647143Y-79124032D01*
X43647143Y-79124032D02*
X43861429Y-79124032D01*
X43861429Y-79124032D02*
X44004286Y-79195461D01*
X44004286Y-79195461D02*
X44075715Y-79338318D01*
X44075715Y-79338318D02*
X44075715Y-80124032D01*
X44575715Y-79124032D02*
X45147143Y-79124032D01*
X44790000Y-78624032D02*
X44790000Y-79909746D01*
X44790000Y-79909746D02*
X44861429Y-80052604D01*
X44861429Y-80052604D02*
X45004286Y-80124032D01*
X45004286Y-80124032D02*
X45147143Y-80124032D01*
X45647143Y-80124032D02*
X45647143Y-79124032D01*
X45647143Y-79409746D02*
X45718572Y-79266889D01*
X45718572Y-79266889D02*
X45790001Y-79195461D01*
X45790001Y-79195461D02*
X45932858Y-79124032D01*
X45932858Y-79124032D02*
X46075715Y-79124032D01*
X46790000Y-80124032D02*
X46647143Y-80052604D01*
X46647143Y-80052604D02*
X46575714Y-79981175D01*
X46575714Y-79981175D02*
X46504286Y-79838318D01*
X46504286Y-79838318D02*
X46504286Y-79409746D01*
X46504286Y-79409746D02*
X46575714Y-79266889D01*
X46575714Y-79266889D02*
X46647143Y-79195461D01*
X46647143Y-79195461D02*
X46790000Y-79124032D01*
X46790000Y-79124032D02*
X47004286Y-79124032D01*
X47004286Y-79124032D02*
X47147143Y-79195461D01*
X47147143Y-79195461D02*
X47218572Y-79266889D01*
X47218572Y-79266889D02*
X47290000Y-79409746D01*
X47290000Y-79409746D02*
X47290000Y-79838318D01*
X47290000Y-79838318D02*
X47218572Y-79981175D01*
X47218572Y-79981175D02*
X47147143Y-80052604D01*
X47147143Y-80052604D02*
X47004286Y-80124032D01*
X47004286Y-80124032D02*
X46790000Y-80124032D01*
X48147143Y-80124032D02*
X48004286Y-80052604D01*
X48004286Y-80052604D02*
X47932857Y-79909746D01*
X47932857Y-79909746D02*
X47932857Y-78624032D01*
X48647143Y-80052604D02*
X48790000Y-80124032D01*
X48790000Y-80124032D02*
X49075714Y-80124032D01*
X49075714Y-80124032D02*
X49218571Y-80052604D01*
X49218571Y-80052604D02*
X49290000Y-79909746D01*
X49290000Y-79909746D02*
X49290000Y-79838318D01*
X49290000Y-79838318D02*
X49218571Y-79695461D01*
X49218571Y-79695461D02*
X49075714Y-79624032D01*
X49075714Y-79624032D02*
X48861429Y-79624032D01*
X48861429Y-79624032D02*
X48718571Y-79552604D01*
X48718571Y-79552604D02*
X48647143Y-79409746D01*
X48647143Y-79409746D02*
X48647143Y-79338318D01*
X48647143Y-79338318D02*
X48718571Y-79195461D01*
X48718571Y-79195461D02*
X48861429Y-79124032D01*
X48861429Y-79124032D02*
X49075714Y-79124032D01*
X49075714Y-79124032D02*
X49218571Y-79195461D01*
X37718572Y-82110377D02*
X38432858Y-82110377D01*
X37575715Y-82538948D02*
X38075715Y-81038948D01*
X38075715Y-81038948D02*
X38575715Y-82538948D01*
X39718572Y-81538948D02*
X39718572Y-82538948D01*
X39075714Y-81538948D02*
X39075714Y-82324662D01*
X39075714Y-82324662D02*
X39147143Y-82467520D01*
X39147143Y-82467520D02*
X39290000Y-82538948D01*
X39290000Y-82538948D02*
X39504286Y-82538948D01*
X39504286Y-82538948D02*
X39647143Y-82467520D01*
X39647143Y-82467520D02*
X39718572Y-82396091D01*
X41075715Y-81538948D02*
X41075715Y-82753234D01*
X41075715Y-82753234D02*
X41004286Y-82896091D01*
X41004286Y-82896091D02*
X40932857Y-82967520D01*
X40932857Y-82967520D02*
X40790000Y-83038948D01*
X40790000Y-83038948D02*
X40575715Y-83038948D01*
X40575715Y-83038948D02*
X40432857Y-82967520D01*
X41075715Y-82467520D02*
X40932857Y-82538948D01*
X40932857Y-82538948D02*
X40647143Y-82538948D01*
X40647143Y-82538948D02*
X40504286Y-82467520D01*
X40504286Y-82467520D02*
X40432857Y-82396091D01*
X40432857Y-82396091D02*
X40361429Y-82253234D01*
X40361429Y-82253234D02*
X40361429Y-81824662D01*
X40361429Y-81824662D02*
X40432857Y-81681805D01*
X40432857Y-81681805D02*
X40504286Y-81610377D01*
X40504286Y-81610377D02*
X40647143Y-81538948D01*
X40647143Y-81538948D02*
X40932857Y-81538948D01*
X40932857Y-81538948D02*
X41075715Y-81610377D01*
X41718572Y-81181805D02*
X41790000Y-81110377D01*
X41790000Y-81110377D02*
X41932858Y-81038948D01*
X41932858Y-81038948D02*
X42290000Y-81038948D01*
X42290000Y-81038948D02*
X42432858Y-81110377D01*
X42432858Y-81110377D02*
X42504286Y-81181805D01*
X42504286Y-81181805D02*
X42575715Y-81324662D01*
X42575715Y-81324662D02*
X42575715Y-81467520D01*
X42575715Y-81467520D02*
X42504286Y-81681805D01*
X42504286Y-81681805D02*
X41647143Y-82538948D01*
X41647143Y-82538948D02*
X42575715Y-82538948D01*
X43504286Y-81038948D02*
X43647143Y-81038948D01*
X43647143Y-81038948D02*
X43790000Y-81110377D01*
X43790000Y-81110377D02*
X43861429Y-81181805D01*
X43861429Y-81181805D02*
X43932857Y-81324662D01*
X43932857Y-81324662D02*
X44004286Y-81610377D01*
X44004286Y-81610377D02*
X44004286Y-81967520D01*
X44004286Y-81967520D02*
X43932857Y-82253234D01*
X43932857Y-82253234D02*
X43861429Y-82396091D01*
X43861429Y-82396091D02*
X43790000Y-82467520D01*
X43790000Y-82467520D02*
X43647143Y-82538948D01*
X43647143Y-82538948D02*
X43504286Y-82538948D01*
X43504286Y-82538948D02*
X43361429Y-82467520D01*
X43361429Y-82467520D02*
X43290000Y-82396091D01*
X43290000Y-82396091D02*
X43218571Y-82253234D01*
X43218571Y-82253234D02*
X43147143Y-81967520D01*
X43147143Y-81967520D02*
X43147143Y-81610377D01*
X43147143Y-81610377D02*
X43218571Y-81324662D01*
X43218571Y-81324662D02*
X43290000Y-81181805D01*
X43290000Y-81181805D02*
X43361429Y-81110377D01*
X43361429Y-81110377D02*
X43504286Y-81038948D01*
X44575714Y-81181805D02*
X44647142Y-81110377D01*
X44647142Y-81110377D02*
X44790000Y-81038948D01*
X44790000Y-81038948D02*
X45147142Y-81038948D01*
X45147142Y-81038948D02*
X45290000Y-81110377D01*
X45290000Y-81110377D02*
X45361428Y-81181805D01*
X45361428Y-81181805D02*
X45432857Y-81324662D01*
X45432857Y-81324662D02*
X45432857Y-81467520D01*
X45432857Y-81467520D02*
X45361428Y-81681805D01*
X45361428Y-81681805D02*
X44504285Y-82538948D01*
X44504285Y-82538948D02*
X45432857Y-82538948D01*
X46718571Y-81038948D02*
X46432856Y-81038948D01*
X46432856Y-81038948D02*
X46289999Y-81110377D01*
X46289999Y-81110377D02*
X46218571Y-81181805D01*
X46218571Y-81181805D02*
X46075713Y-81396091D01*
X46075713Y-81396091D02*
X46004285Y-81681805D01*
X46004285Y-81681805D02*
X46004285Y-82253234D01*
X46004285Y-82253234D02*
X46075713Y-82396091D01*
X46075713Y-82396091D02*
X46147142Y-82467520D01*
X46147142Y-82467520D02*
X46289999Y-82538948D01*
X46289999Y-82538948D02*
X46575713Y-82538948D01*
X46575713Y-82538948D02*
X46718571Y-82467520D01*
X46718571Y-82467520D02*
X46789999Y-82396091D01*
X46789999Y-82396091D02*
X46861428Y-82253234D01*
X46861428Y-82253234D02*
X46861428Y-81896091D01*
X46861428Y-81896091D02*
X46789999Y-81753234D01*
X46789999Y-81753234D02*
X46718571Y-81681805D01*
X46718571Y-81681805D02*
X46575713Y-81610377D01*
X46575713Y-81610377D02*
X46289999Y-81610377D01*
X46289999Y-81610377D02*
X46147142Y-81681805D01*
X46147142Y-81681805D02*
X46075713Y-81753234D01*
X46075713Y-81753234D02*
X46004285Y-81896091D01*
D15*
X58020595Y-101729819D02*
X58020595Y-102539342D01*
X58020595Y-102539342D02*
X58068214Y-102634580D01*
X58068214Y-102634580D02*
X58115833Y-102682200D01*
X58115833Y-102682200D02*
X58211071Y-102729819D01*
X58211071Y-102729819D02*
X58401547Y-102729819D01*
X58401547Y-102729819D02*
X58496785Y-102682200D01*
X58496785Y-102682200D02*
X58544404Y-102634580D01*
X58544404Y-102634580D02*
X58592023Y-102539342D01*
X58592023Y-102539342D02*
X58592023Y-101729819D01*
X59544404Y-101729819D02*
X59068214Y-101729819D01*
X59068214Y-101729819D02*
X59020595Y-102206009D01*
X59020595Y-102206009D02*
X59068214Y-102158390D01*
X59068214Y-102158390D02*
X59163452Y-102110771D01*
X59163452Y-102110771D02*
X59401547Y-102110771D01*
X59401547Y-102110771D02*
X59496785Y-102158390D01*
X59496785Y-102158390D02*
X59544404Y-102206009D01*
X59544404Y-102206009D02*
X59592023Y-102301247D01*
X59592023Y-102301247D02*
X59592023Y-102539342D01*
X59592023Y-102539342D02*
X59544404Y-102634580D01*
X59544404Y-102634580D02*
X59496785Y-102682200D01*
X59496785Y-102682200D02*
X59401547Y-102729819D01*
X59401547Y-102729819D02*
X59163452Y-102729819D01*
X59163452Y-102729819D02*
X59068214Y-102682200D01*
X59068214Y-102682200D02*
X59020595Y-102634580D01*
X35627142Y-97291009D02*
X35960475Y-97291009D01*
X36103332Y-97814819D02*
X35627142Y-97814819D01*
X35627142Y-97814819D02*
X35627142Y-96814819D01*
X35627142Y-96814819D02*
X36103332Y-96814819D01*
X36484285Y-97767200D02*
X36627142Y-97814819D01*
X36627142Y-97814819D02*
X36865237Y-97814819D01*
X36865237Y-97814819D02*
X36960475Y-97767200D01*
X36960475Y-97767200D02*
X37008094Y-97719580D01*
X37008094Y-97719580D02*
X37055713Y-97624342D01*
X37055713Y-97624342D02*
X37055713Y-97529104D01*
X37055713Y-97529104D02*
X37008094Y-97433866D01*
X37008094Y-97433866D02*
X36960475Y-97386247D01*
X36960475Y-97386247D02*
X36865237Y-97338628D01*
X36865237Y-97338628D02*
X36674761Y-97291009D01*
X36674761Y-97291009D02*
X36579523Y-97243390D01*
X36579523Y-97243390D02*
X36531904Y-97195771D01*
X36531904Y-97195771D02*
X36484285Y-97100533D01*
X36484285Y-97100533D02*
X36484285Y-97005295D01*
X36484285Y-97005295D02*
X36531904Y-96910057D01*
X36531904Y-96910057D02*
X36579523Y-96862438D01*
X36579523Y-96862438D02*
X36674761Y-96814819D01*
X36674761Y-96814819D02*
X36912856Y-96814819D01*
X36912856Y-96814819D02*
X37055713Y-96862438D01*
X37484285Y-97814819D02*
X37484285Y-96814819D01*
X37484285Y-96814819D02*
X37865237Y-96814819D01*
X37865237Y-96814819D02*
X37960475Y-96862438D01*
X37960475Y-96862438D02*
X38008094Y-96910057D01*
X38008094Y-96910057D02*
X38055713Y-97005295D01*
X38055713Y-97005295D02*
X38055713Y-97148152D01*
X38055713Y-97148152D02*
X38008094Y-97243390D01*
X38008094Y-97243390D02*
X37960475Y-97291009D01*
X37960475Y-97291009D02*
X37865237Y-97338628D01*
X37865237Y-97338628D02*
X37484285Y-97338628D01*
X38389047Y-96814819D02*
X39008094Y-96814819D01*
X39008094Y-96814819D02*
X38674761Y-97195771D01*
X38674761Y-97195771D02*
X38817618Y-97195771D01*
X38817618Y-97195771D02*
X38912856Y-97243390D01*
X38912856Y-97243390D02*
X38960475Y-97291009D01*
X38960475Y-97291009D02*
X39008094Y-97386247D01*
X39008094Y-97386247D02*
X39008094Y-97624342D01*
X39008094Y-97624342D02*
X38960475Y-97719580D01*
X38960475Y-97719580D02*
X38912856Y-97767200D01*
X38912856Y-97767200D02*
X38817618Y-97814819D01*
X38817618Y-97814819D02*
X38531904Y-97814819D01*
X38531904Y-97814819D02*
X38436666Y-97767200D01*
X38436666Y-97767200D02*
X38389047Y-97719580D01*
X39389047Y-96910057D02*
X39436666Y-96862438D01*
X39436666Y-96862438D02*
X39531904Y-96814819D01*
X39531904Y-96814819D02*
X39769999Y-96814819D01*
X39769999Y-96814819D02*
X39865237Y-96862438D01*
X39865237Y-96862438D02*
X39912856Y-96910057D01*
X39912856Y-96910057D02*
X39960475Y-97005295D01*
X39960475Y-97005295D02*
X39960475Y-97100533D01*
X39960475Y-97100533D02*
X39912856Y-97243390D01*
X39912856Y-97243390D02*
X39341428Y-97814819D01*
X39341428Y-97814819D02*
X39960475Y-97814819D01*
X41150952Y-97433866D02*
X41912857Y-97433866D01*
X43150952Y-97814819D02*
X43150952Y-96814819D01*
X43150952Y-96814819D02*
X43389047Y-96814819D01*
X43389047Y-96814819D02*
X43531904Y-96862438D01*
X43531904Y-96862438D02*
X43627142Y-96957676D01*
X43627142Y-96957676D02*
X43674761Y-97052914D01*
X43674761Y-97052914D02*
X43722380Y-97243390D01*
X43722380Y-97243390D02*
X43722380Y-97386247D01*
X43722380Y-97386247D02*
X43674761Y-97576723D01*
X43674761Y-97576723D02*
X43627142Y-97671961D01*
X43627142Y-97671961D02*
X43531904Y-97767200D01*
X43531904Y-97767200D02*
X43389047Y-97814819D01*
X43389047Y-97814819D02*
X43150952Y-97814819D01*
X44531904Y-97767200D02*
X44436666Y-97814819D01*
X44436666Y-97814819D02*
X44246190Y-97814819D01*
X44246190Y-97814819D02*
X44150952Y-97767200D01*
X44150952Y-97767200D02*
X44103333Y-97671961D01*
X44103333Y-97671961D02*
X44103333Y-97291009D01*
X44103333Y-97291009D02*
X44150952Y-97195771D01*
X44150952Y-97195771D02*
X44246190Y-97148152D01*
X44246190Y-97148152D02*
X44436666Y-97148152D01*
X44436666Y-97148152D02*
X44531904Y-97195771D01*
X44531904Y-97195771D02*
X44579523Y-97291009D01*
X44579523Y-97291009D02*
X44579523Y-97386247D01*
X44579523Y-97386247D02*
X44103333Y-97481485D01*
X44912857Y-97148152D02*
X45150952Y-97814819D01*
X45150952Y-97814819D02*
X45389047Y-97148152D01*
X46531905Y-97814819D02*
X46531905Y-96814819D01*
X47103333Y-97814819D02*
X46674762Y-97243390D01*
X47103333Y-96814819D02*
X46531905Y-97386247D01*
X47531905Y-97814819D02*
X47531905Y-97148152D01*
X47531905Y-96814819D02*
X47484286Y-96862438D01*
X47484286Y-96862438D02*
X47531905Y-96910057D01*
X47531905Y-96910057D02*
X47579524Y-96862438D01*
X47579524Y-96862438D02*
X47531905Y-96814819D01*
X47531905Y-96814819D02*
X47531905Y-96910057D01*
X47865238Y-97148152D02*
X48246190Y-97148152D01*
X48008095Y-96814819D02*
X48008095Y-97671961D01*
X48008095Y-97671961D02*
X48055714Y-97767200D01*
X48055714Y-97767200D02*
X48150952Y-97814819D01*
X48150952Y-97814819D02*
X48246190Y-97814819D01*
X49246191Y-96814819D02*
X49865238Y-96814819D01*
X49865238Y-96814819D02*
X49531905Y-97195771D01*
X49531905Y-97195771D02*
X49674762Y-97195771D01*
X49674762Y-97195771D02*
X49770000Y-97243390D01*
X49770000Y-97243390D02*
X49817619Y-97291009D01*
X49817619Y-97291009D02*
X49865238Y-97386247D01*
X49865238Y-97386247D02*
X49865238Y-97624342D01*
X49865238Y-97624342D02*
X49817619Y-97719580D01*
X49817619Y-97719580D02*
X49770000Y-97767200D01*
X49770000Y-97767200D02*
X49674762Y-97814819D01*
X49674762Y-97814819D02*
X49389048Y-97814819D01*
X49389048Y-97814819D02*
X49293810Y-97767200D01*
X49293810Y-97767200D02*
X49246191Y-97719580D01*
X50484286Y-96814819D02*
X50579524Y-96814819D01*
X50579524Y-96814819D02*
X50674762Y-96862438D01*
X50674762Y-96862438D02*
X50722381Y-96910057D01*
X50722381Y-96910057D02*
X50770000Y-97005295D01*
X50770000Y-97005295D02*
X50817619Y-97195771D01*
X50817619Y-97195771D02*
X50817619Y-97433866D01*
X50817619Y-97433866D02*
X50770000Y-97624342D01*
X50770000Y-97624342D02*
X50722381Y-97719580D01*
X50722381Y-97719580D02*
X50674762Y-97767200D01*
X50674762Y-97767200D02*
X50579524Y-97814819D01*
X50579524Y-97814819D02*
X50484286Y-97814819D01*
X50484286Y-97814819D02*
X50389048Y-97767200D01*
X50389048Y-97767200D02*
X50341429Y-97719580D01*
X50341429Y-97719580D02*
X50293810Y-97624342D01*
X50293810Y-97624342D02*
X50246191Y-97433866D01*
X50246191Y-97433866D02*
X50246191Y-97195771D01*
X50246191Y-97195771D02*
X50293810Y-97005295D01*
X50293810Y-97005295D02*
X50341429Y-96910057D01*
X50341429Y-96910057D02*
X50389048Y-96862438D01*
X50389048Y-96862438D02*
X50484286Y-96814819D01*
X52008096Y-97814819D02*
X52008096Y-96814819D01*
X52008096Y-96814819D02*
X52389048Y-96814819D01*
X52389048Y-96814819D02*
X52484286Y-96862438D01*
X52484286Y-96862438D02*
X52531905Y-96910057D01*
X52531905Y-96910057D02*
X52579524Y-97005295D01*
X52579524Y-97005295D02*
X52579524Y-97148152D01*
X52579524Y-97148152D02*
X52531905Y-97243390D01*
X52531905Y-97243390D02*
X52484286Y-97291009D01*
X52484286Y-97291009D02*
X52389048Y-97338628D01*
X52389048Y-97338628D02*
X52008096Y-97338628D01*
X53008096Y-97814819D02*
X53008096Y-97148152D01*
X53008096Y-96814819D02*
X52960477Y-96862438D01*
X52960477Y-96862438D02*
X53008096Y-96910057D01*
X53008096Y-96910057D02*
X53055715Y-96862438D01*
X53055715Y-96862438D02*
X53008096Y-96814819D01*
X53008096Y-96814819D02*
X53008096Y-96910057D01*
X53484286Y-97148152D02*
X53484286Y-97814819D01*
X53484286Y-97243390D02*
X53531905Y-97195771D01*
X53531905Y-97195771D02*
X53627143Y-97148152D01*
X53627143Y-97148152D02*
X53770000Y-97148152D01*
X53770000Y-97148152D02*
X53865238Y-97195771D01*
X53865238Y-97195771D02*
X53912857Y-97291009D01*
X53912857Y-97291009D02*
X53912857Y-97814819D01*
D16*
X38028928Y-102617285D02*
X38028928Y-106260142D01*
X38028928Y-106260142D02*
X38243214Y-106688714D01*
X38243214Y-106688714D02*
X38457500Y-106903000D01*
X38457500Y-106903000D02*
X38886071Y-107117285D01*
X38886071Y-107117285D02*
X39743214Y-107117285D01*
X39743214Y-107117285D02*
X40171785Y-106903000D01*
X40171785Y-106903000D02*
X40386071Y-106688714D01*
X40386071Y-106688714D02*
X40600357Y-106260142D01*
X40600357Y-106260142D02*
X40600357Y-102617285D01*
X42528928Y-106903000D02*
X43171786Y-107117285D01*
X43171786Y-107117285D02*
X44243214Y-107117285D01*
X44243214Y-107117285D02*
X44671786Y-106903000D01*
X44671786Y-106903000D02*
X44886071Y-106688714D01*
X44886071Y-106688714D02*
X45100357Y-106260142D01*
X45100357Y-106260142D02*
X45100357Y-105831571D01*
X45100357Y-105831571D02*
X44886071Y-105403000D01*
X44886071Y-105403000D02*
X44671786Y-105188714D01*
X44671786Y-105188714D02*
X44243214Y-104974428D01*
X44243214Y-104974428D02*
X43386071Y-104760142D01*
X43386071Y-104760142D02*
X42957500Y-104545857D01*
X42957500Y-104545857D02*
X42743214Y-104331571D01*
X42743214Y-104331571D02*
X42528928Y-103903000D01*
X42528928Y-103903000D02*
X42528928Y-103474428D01*
X42528928Y-103474428D02*
X42743214Y-103045857D01*
X42743214Y-103045857D02*
X42957500Y-102831571D01*
X42957500Y-102831571D02*
X43386071Y-102617285D01*
X43386071Y-102617285D02*
X44457500Y-102617285D01*
X44457500Y-102617285D02*
X45100357Y-102831571D01*
X48528928Y-104760142D02*
X49171785Y-104974428D01*
X49171785Y-104974428D02*
X49386071Y-105188714D01*
X49386071Y-105188714D02*
X49600357Y-105617285D01*
X49600357Y-105617285D02*
X49600357Y-106260142D01*
X49600357Y-106260142D02*
X49386071Y-106688714D01*
X49386071Y-106688714D02*
X49171785Y-106903000D01*
X49171785Y-106903000D02*
X48743214Y-107117285D01*
X48743214Y-107117285D02*
X47028928Y-107117285D01*
X47028928Y-107117285D02*
X47028928Y-102617285D01*
X47028928Y-102617285D02*
X48528928Y-102617285D01*
X48528928Y-102617285D02*
X48957500Y-102831571D01*
X48957500Y-102831571D02*
X49171785Y-103045857D01*
X49171785Y-103045857D02*
X49386071Y-103474428D01*
X49386071Y-103474428D02*
X49386071Y-103903000D01*
X49386071Y-103903000D02*
X49171785Y-104331571D01*
X49171785Y-104331571D02*
X48957500Y-104545857D01*
X48957500Y-104545857D02*
X48528928Y-104760142D01*
X48528928Y-104760142D02*
X47028928Y-104760142D01*
D15*
D17*
X33420832Y-56593667D02*
X35087499Y-56593667D01*
X33087499Y-57593667D02*
X34254166Y-54093667D01*
X34254166Y-54093667D02*
X35420832Y-57593667D01*
X36587499Y-55260334D02*
X36587499Y-57593667D01*
X36587499Y-55593667D02*
X36754166Y-55427001D01*
X36754166Y-55427001D02*
X37087499Y-55260334D01*
X37087499Y-55260334D02*
X37587499Y-55260334D01*
X37587499Y-55260334D02*
X37920832Y-55427001D01*
X37920832Y-55427001D02*
X38087499Y-55760334D01*
X38087499Y-55760334D02*
X38087499Y-57593667D01*
X39254166Y-55260334D02*
X40587499Y-55260334D01*
X39754166Y-54093667D02*
X39754166Y-57093667D01*
X39754166Y-57093667D02*
X39920833Y-57427001D01*
X39920833Y-57427001D02*
X40254166Y-57593667D01*
X40254166Y-57593667D02*
X40587499Y-57593667D01*
X43087499Y-57427001D02*
X42754166Y-57593667D01*
X42754166Y-57593667D02*
X42087499Y-57593667D01*
X42087499Y-57593667D02*
X41754166Y-57427001D01*
X41754166Y-57427001D02*
X41587499Y-57093667D01*
X41587499Y-57093667D02*
X41587499Y-55760334D01*
X41587499Y-55760334D02*
X41754166Y-55427001D01*
X41754166Y-55427001D02*
X42087499Y-55260334D01*
X42087499Y-55260334D02*
X42754166Y-55260334D01*
X42754166Y-55260334D02*
X43087499Y-55427001D01*
X43087499Y-55427001D02*
X43254166Y-55760334D01*
X43254166Y-55760334D02*
X43254166Y-56093667D01*
X43254166Y-56093667D02*
X41587499Y-56427001D01*
X44754166Y-55260334D02*
X44754166Y-57593667D01*
X44754166Y-55593667D02*
X44920833Y-55427001D01*
X44920833Y-55427001D02*
X45254166Y-55260334D01*
X45254166Y-55260334D02*
X45754166Y-55260334D01*
X45754166Y-55260334D02*
X46087499Y-55427001D01*
X46087499Y-55427001D02*
X46254166Y-55760334D01*
X46254166Y-55760334D02*
X46254166Y-57593667D01*
X47920833Y-55260334D02*
X47920833Y-57593667D01*
X47920833Y-55593667D02*
X48087500Y-55427001D01*
X48087500Y-55427001D02*
X48420833Y-55260334D01*
X48420833Y-55260334D02*
X48920833Y-55260334D01*
X48920833Y-55260334D02*
X49254166Y-55427001D01*
X49254166Y-55427001D02*
X49420833Y-55760334D01*
X49420833Y-55760334D02*
X49420833Y-57593667D01*
X52587500Y-57593667D02*
X52587500Y-55760334D01*
X52587500Y-55760334D02*
X52420833Y-55427001D01*
X52420833Y-55427001D02*
X52087500Y-55260334D01*
X52087500Y-55260334D02*
X51420833Y-55260334D01*
X51420833Y-55260334D02*
X51087500Y-55427001D01*
X52587500Y-57427001D02*
X52254167Y-57593667D01*
X52254167Y-57593667D02*
X51420833Y-57593667D01*
X51420833Y-57593667D02*
X51087500Y-57427001D01*
X51087500Y-57427001D02*
X50920833Y-57093667D01*
X50920833Y-57093667D02*
X50920833Y-56760334D01*
X50920833Y-56760334D02*
X51087500Y-56427001D01*
X51087500Y-56427001D02*
X51420833Y-56260334D01*
X51420833Y-56260334D02*
X52254167Y-56260334D01*
X52254167Y-56260334D02*
X52587500Y-56093667D01*
D15*
X83821905Y-96899819D02*
X83821905Y-95899819D01*
X83821905Y-95899819D02*
X84060000Y-95899819D01*
X84060000Y-95899819D02*
X84202857Y-95947438D01*
X84202857Y-95947438D02*
X84298095Y-96042676D01*
X84298095Y-96042676D02*
X84345714Y-96137914D01*
X84345714Y-96137914D02*
X84393333Y-96328390D01*
X84393333Y-96328390D02*
X84393333Y-96471247D01*
X84393333Y-96471247D02*
X84345714Y-96661723D01*
X84345714Y-96661723D02*
X84298095Y-96756961D01*
X84298095Y-96756961D02*
X84202857Y-96852200D01*
X84202857Y-96852200D02*
X84060000Y-96899819D01*
X84060000Y-96899819D02*
X83821905Y-96899819D01*
X85298095Y-95899819D02*
X84821905Y-95899819D01*
X84821905Y-95899819D02*
X84774286Y-96376009D01*
X84774286Y-96376009D02*
X84821905Y-96328390D01*
X84821905Y-96328390D02*
X84917143Y-96280771D01*
X84917143Y-96280771D02*
X85155238Y-96280771D01*
X85155238Y-96280771D02*
X85250476Y-96328390D01*
X85250476Y-96328390D02*
X85298095Y-96376009D01*
X85298095Y-96376009D02*
X85345714Y-96471247D01*
X85345714Y-96471247D02*
X85345714Y-96709342D01*
X85345714Y-96709342D02*
X85298095Y-96804580D01*
X85298095Y-96804580D02*
X85250476Y-96852200D01*
X85250476Y-96852200D02*
X85155238Y-96899819D01*
X85155238Y-96899819D02*
X84917143Y-96899819D01*
X84917143Y-96899819D02*
X84821905Y-96852200D01*
X84821905Y-96852200D02*
X84774286Y-96804580D01*
X83741905Y-87309819D02*
X83741905Y-86309819D01*
X83741905Y-86309819D02*
X83980000Y-86309819D01*
X83980000Y-86309819D02*
X84122857Y-86357438D01*
X84122857Y-86357438D02*
X84218095Y-86452676D01*
X84218095Y-86452676D02*
X84265714Y-86547914D01*
X84265714Y-86547914D02*
X84313333Y-86738390D01*
X84313333Y-86738390D02*
X84313333Y-86881247D01*
X84313333Y-86881247D02*
X84265714Y-87071723D01*
X84265714Y-87071723D02*
X84218095Y-87166961D01*
X84218095Y-87166961D02*
X84122857Y-87262200D01*
X84122857Y-87262200D02*
X83980000Y-87309819D01*
X83980000Y-87309819D02*
X83741905Y-87309819D01*
X85170476Y-86643152D02*
X85170476Y-87309819D01*
X84932381Y-86262200D02*
X84694286Y-86976485D01*
X84694286Y-86976485D02*
X85313333Y-86976485D01*
X83761905Y-77409819D02*
X83761905Y-76409819D01*
X83761905Y-76409819D02*
X84000000Y-76409819D01*
X84000000Y-76409819D02*
X84142857Y-76457438D01*
X84142857Y-76457438D02*
X84238095Y-76552676D01*
X84238095Y-76552676D02*
X84285714Y-76647914D01*
X84285714Y-76647914D02*
X84333333Y-76838390D01*
X84333333Y-76838390D02*
X84333333Y-76981247D01*
X84333333Y-76981247D02*
X84285714Y-77171723D01*
X84285714Y-77171723D02*
X84238095Y-77266961D01*
X84238095Y-77266961D02*
X84142857Y-77362200D01*
X84142857Y-77362200D02*
X84000000Y-77409819D01*
X84000000Y-77409819D02*
X83761905Y-77409819D01*
X84666667Y-76409819D02*
X85285714Y-76409819D01*
X85285714Y-76409819D02*
X84952381Y-76790771D01*
X84952381Y-76790771D02*
X85095238Y-76790771D01*
X85095238Y-76790771D02*
X85190476Y-76838390D01*
X85190476Y-76838390D02*
X85238095Y-76886009D01*
X85238095Y-76886009D02*
X85285714Y-76981247D01*
X85285714Y-76981247D02*
X85285714Y-77219342D01*
X85285714Y-77219342D02*
X85238095Y-77314580D01*
X85238095Y-77314580D02*
X85190476Y-77362200D01*
X85190476Y-77362200D02*
X85095238Y-77409819D01*
X85095238Y-77409819D02*
X84809524Y-77409819D01*
X84809524Y-77409819D02*
X84714286Y-77362200D01*
X84714286Y-77362200D02*
X84666667Y-77314580D01*
X72741905Y-55939819D02*
X72741905Y-54939819D01*
X72741905Y-54939819D02*
X72980000Y-54939819D01*
X72980000Y-54939819D02*
X73122857Y-54987438D01*
X73122857Y-54987438D02*
X73218095Y-55082676D01*
X73218095Y-55082676D02*
X73265714Y-55177914D01*
X73265714Y-55177914D02*
X73313333Y-55368390D01*
X73313333Y-55368390D02*
X73313333Y-55511247D01*
X73313333Y-55511247D02*
X73265714Y-55701723D01*
X73265714Y-55701723D02*
X73218095Y-55796961D01*
X73218095Y-55796961D02*
X73122857Y-55892200D01*
X73122857Y-55892200D02*
X72980000Y-55939819D01*
X72980000Y-55939819D02*
X72741905Y-55939819D01*
X73694286Y-55035057D02*
X73741905Y-54987438D01*
X73741905Y-54987438D02*
X73837143Y-54939819D01*
X73837143Y-54939819D02*
X74075238Y-54939819D01*
X74075238Y-54939819D02*
X74170476Y-54987438D01*
X74170476Y-54987438D02*
X74218095Y-55035057D01*
X74218095Y-55035057D02*
X74265714Y-55130295D01*
X74265714Y-55130295D02*
X74265714Y-55225533D01*
X74265714Y-55225533D02*
X74218095Y-55368390D01*
X74218095Y-55368390D02*
X73646667Y-55939819D01*
X73646667Y-55939819D02*
X74265714Y-55939819D01*
X83741905Y-67529819D02*
X83741905Y-66529819D01*
X83741905Y-66529819D02*
X83980000Y-66529819D01*
X83980000Y-66529819D02*
X84122857Y-66577438D01*
X84122857Y-66577438D02*
X84218095Y-66672676D01*
X84218095Y-66672676D02*
X84265714Y-66767914D01*
X84265714Y-66767914D02*
X84313333Y-66958390D01*
X84313333Y-66958390D02*
X84313333Y-67101247D01*
X84313333Y-67101247D02*
X84265714Y-67291723D01*
X84265714Y-67291723D02*
X84218095Y-67386961D01*
X84218095Y-67386961D02*
X84122857Y-67482200D01*
X84122857Y-67482200D02*
X83980000Y-67529819D01*
X83980000Y-67529819D02*
X83741905Y-67529819D01*
X85265714Y-67529819D02*
X84694286Y-67529819D01*
X84980000Y-67529819D02*
X84980000Y-66529819D01*
X84980000Y-66529819D02*
X84884762Y-66672676D01*
X84884762Y-66672676D02*
X84789524Y-66767914D01*
X84789524Y-66767914D02*
X84694286Y-66815533D01*
X84206666Y-112519819D02*
X84206666Y-113234104D01*
X84206666Y-113234104D02*
X84159047Y-113376961D01*
X84159047Y-113376961D02*
X84063809Y-113472200D01*
X84063809Y-113472200D02*
X83920952Y-113519819D01*
X83920952Y-113519819D02*
X83825714Y-113519819D01*
X85159047Y-112519819D02*
X84682857Y-112519819D01*
X84682857Y-112519819D02*
X84635238Y-112996009D01*
X84635238Y-112996009D02*
X84682857Y-112948390D01*
X84682857Y-112948390D02*
X84778095Y-112900771D01*
X84778095Y-112900771D02*
X85016190Y-112900771D01*
X85016190Y-112900771D02*
X85111428Y-112948390D01*
X85111428Y-112948390D02*
X85159047Y-112996009D01*
X85159047Y-112996009D02*
X85206666Y-113091247D01*
X85206666Y-113091247D02*
X85206666Y-113329342D01*
X85206666Y-113329342D02*
X85159047Y-113424580D01*
X85159047Y-113424580D02*
X85111428Y-113472200D01*
X85111428Y-113472200D02*
X85016190Y-113519819D01*
X85016190Y-113519819D02*
X84778095Y-113519819D01*
X84778095Y-113519819D02*
X84682857Y-113472200D01*
X84682857Y-113472200D02*
X84635238Y-113424580D01*
X53776666Y-112809819D02*
X53776666Y-113524104D01*
X53776666Y-113524104D02*
X53729047Y-113666961D01*
X53729047Y-113666961D02*
X53633809Y-113762200D01*
X53633809Y-113762200D02*
X53490952Y-113809819D01*
X53490952Y-113809819D02*
X53395714Y-113809819D01*
X54157619Y-112809819D02*
X54776666Y-112809819D01*
X54776666Y-112809819D02*
X54443333Y-113190771D01*
X54443333Y-113190771D02*
X54586190Y-113190771D01*
X54586190Y-113190771D02*
X54681428Y-113238390D01*
X54681428Y-113238390D02*
X54729047Y-113286009D01*
X54729047Y-113286009D02*
X54776666Y-113381247D01*
X54776666Y-113381247D02*
X54776666Y-113619342D01*
X54776666Y-113619342D02*
X54729047Y-113714580D01*
X54729047Y-113714580D02*
X54681428Y-113762200D01*
X54681428Y-113762200D02*
X54586190Y-113809819D01*
X54586190Y-113809819D02*
X54300476Y-113809819D01*
X54300476Y-113809819D02*
X54205238Y-113762200D01*
X54205238Y-113762200D02*
X54157619Y-113714580D01*
X30253333Y-113645517D02*
X30205714Y-113693137D01*
X30205714Y-113693137D02*
X30062857Y-113740756D01*
X30062857Y-113740756D02*
X29967619Y-113740756D01*
X29967619Y-113740756D02*
X29824762Y-113693137D01*
X29824762Y-113693137D02*
X29729524Y-113597898D01*
X29729524Y-113597898D02*
X29681905Y-113502660D01*
X29681905Y-113502660D02*
X29634286Y-113312184D01*
X29634286Y-113312184D02*
X29634286Y-113169327D01*
X29634286Y-113169327D02*
X29681905Y-112978851D01*
X29681905Y-112978851D02*
X29729524Y-112883613D01*
X29729524Y-112883613D02*
X29824762Y-112788375D01*
X29824762Y-112788375D02*
X29967619Y-112740756D01*
X29967619Y-112740756D02*
X30062857Y-112740756D01*
X30062857Y-112740756D02*
X30205714Y-112788375D01*
X30205714Y-112788375D02*
X30253333Y-112835994D01*
X31158095Y-112740756D02*
X30681905Y-112740756D01*
X30681905Y-112740756D02*
X30634286Y-113216946D01*
X30634286Y-113216946D02*
X30681905Y-113169327D01*
X30681905Y-113169327D02*
X30777143Y-113121708D01*
X30777143Y-113121708D02*
X31015238Y-113121708D01*
X31015238Y-113121708D02*
X31110476Y-113169327D01*
X31110476Y-113169327D02*
X31158095Y-113216946D01*
X31158095Y-113216946D02*
X31205714Y-113312184D01*
X31205714Y-113312184D02*
X31205714Y-113550279D01*
X31205714Y-113550279D02*
X31158095Y-113645517D01*
X31158095Y-113645517D02*
X31110476Y-113693137D01*
X31110476Y-113693137D02*
X31015238Y-113740756D01*
X31015238Y-113740756D02*
X30777143Y-113740756D01*
X30777143Y-113740756D02*
X30681905Y-113693137D01*
X30681905Y-113693137D02*
X30634286Y-113645517D01*
X29633333Y-112190756D02*
X29061905Y-112190756D01*
X29347619Y-112190756D02*
X29347619Y-111190756D01*
X29347619Y-111190756D02*
X29252381Y-111333613D01*
X29252381Y-111333613D02*
X29157143Y-111428851D01*
X29157143Y-111428851D02*
X29061905Y-111476470D01*
X30252381Y-111190756D02*
X30347619Y-111190756D01*
X30347619Y-111190756D02*
X30442857Y-111238375D01*
X30442857Y-111238375D02*
X30490476Y-111285994D01*
X30490476Y-111285994D02*
X30538095Y-111381232D01*
X30538095Y-111381232D02*
X30585714Y-111571708D01*
X30585714Y-111571708D02*
X30585714Y-111809803D01*
X30585714Y-111809803D02*
X30538095Y-112000279D01*
X30538095Y-112000279D02*
X30490476Y-112095517D01*
X30490476Y-112095517D02*
X30442857Y-112143137D01*
X30442857Y-112143137D02*
X30347619Y-112190756D01*
X30347619Y-112190756D02*
X30252381Y-112190756D01*
X30252381Y-112190756D02*
X30157143Y-112143137D01*
X30157143Y-112143137D02*
X30109524Y-112095517D01*
X30109524Y-112095517D02*
X30061905Y-112000279D01*
X30061905Y-112000279D02*
X30014286Y-111809803D01*
X30014286Y-111809803D02*
X30014286Y-111571708D01*
X30014286Y-111571708D02*
X30061905Y-111381232D01*
X30061905Y-111381232D02*
X30109524Y-111285994D01*
X30109524Y-111285994D02*
X30157143Y-111238375D01*
X30157143Y-111238375D02*
X30252381Y-111190756D01*
X31204762Y-111190756D02*
X31300000Y-111190756D01*
X31300000Y-111190756D02*
X31395238Y-111238375D01*
X31395238Y-111238375D02*
X31442857Y-111285994D01*
X31442857Y-111285994D02*
X31490476Y-111381232D01*
X31490476Y-111381232D02*
X31538095Y-111571708D01*
X31538095Y-111571708D02*
X31538095Y-111809803D01*
X31538095Y-111809803D02*
X31490476Y-112000279D01*
X31490476Y-112000279D02*
X31442857Y-112095517D01*
X31442857Y-112095517D02*
X31395238Y-112143137D01*
X31395238Y-112143137D02*
X31300000Y-112190756D01*
X31300000Y-112190756D02*
X31204762Y-112190756D01*
X31204762Y-112190756D02*
X31109524Y-112143137D01*
X31109524Y-112143137D02*
X31061905Y-112095517D01*
X31061905Y-112095517D02*
X31014286Y-112000279D01*
X31014286Y-112000279D02*
X30966667Y-111809803D01*
X30966667Y-111809803D02*
X30966667Y-111571708D01*
X30966667Y-111571708D02*
X31014286Y-111381232D01*
X31014286Y-111381232D02*
X31061905Y-111285994D01*
X31061905Y-111285994D02*
X31109524Y-111238375D01*
X31109524Y-111238375D02*
X31204762Y-111190756D01*
X32157143Y-111190756D02*
X32252381Y-111190756D01*
X32252381Y-111190756D02*
X32347619Y-111238375D01*
X32347619Y-111238375D02*
X32395238Y-111285994D01*
X32395238Y-111285994D02*
X32442857Y-111381232D01*
X32442857Y-111381232D02*
X32490476Y-111571708D01*
X32490476Y-111571708D02*
X32490476Y-111809803D01*
X32490476Y-111809803D02*
X32442857Y-112000279D01*
X32442857Y-112000279D02*
X32395238Y-112095517D01*
X32395238Y-112095517D02*
X32347619Y-112143137D01*
X32347619Y-112143137D02*
X32252381Y-112190756D01*
X32252381Y-112190756D02*
X32157143Y-112190756D01*
X32157143Y-112190756D02*
X32061905Y-112143137D01*
X32061905Y-112143137D02*
X32014286Y-112095517D01*
X32014286Y-112095517D02*
X31966667Y-112000279D01*
X31966667Y-112000279D02*
X31919048Y-111809803D01*
X31919048Y-111809803D02*
X31919048Y-111571708D01*
X31919048Y-111571708D02*
X31966667Y-111381232D01*
X31966667Y-111381232D02*
X32014286Y-111285994D01*
X32014286Y-111285994D02*
X32061905Y-111238375D01*
X32061905Y-111238375D02*
X32157143Y-111190756D01*
X32919048Y-112190756D02*
X32919048Y-111524089D01*
X32919048Y-111619327D02*
X32966667Y-111571708D01*
X32966667Y-111571708D02*
X33061905Y-111524089D01*
X33061905Y-111524089D02*
X33204762Y-111524089D01*
X33204762Y-111524089D02*
X33300000Y-111571708D01*
X33300000Y-111571708D02*
X33347619Y-111666946D01*
X33347619Y-111666946D02*
X33347619Y-112190756D01*
X33347619Y-111666946D02*
X33395238Y-111571708D01*
X33395238Y-111571708D02*
X33490476Y-111524089D01*
X33490476Y-111524089D02*
X33633333Y-111524089D01*
X33633333Y-111524089D02*
X33728572Y-111571708D01*
X33728572Y-111571708D02*
X33776191Y-111666946D01*
X33776191Y-111666946D02*
X33776191Y-112190756D01*
X34109524Y-111524089D02*
X34490476Y-111524089D01*
X34252381Y-112190756D02*
X34252381Y-111333613D01*
X34252381Y-111333613D02*
X34300000Y-111238375D01*
X34300000Y-111238375D02*
X34395238Y-111190756D01*
X34395238Y-111190756D02*
X34490476Y-111190756D01*
X35252381Y-112190756D02*
X35252381Y-111190756D01*
X35252381Y-112143137D02*
X35157143Y-112190756D01*
X35157143Y-112190756D02*
X34966667Y-112190756D01*
X34966667Y-112190756D02*
X34871429Y-112143137D01*
X34871429Y-112143137D02*
X34823810Y-112095517D01*
X34823810Y-112095517D02*
X34776191Y-112000279D01*
X34776191Y-112000279D02*
X34776191Y-111714565D01*
X34776191Y-111714565D02*
X34823810Y-111619327D01*
X34823810Y-111619327D02*
X34871429Y-111571708D01*
X34871429Y-111571708D02*
X34966667Y-111524089D01*
X34966667Y-111524089D02*
X35157143Y-111524089D01*
X35157143Y-111524089D02*
X35252381Y-111571708D01*
X35776191Y-112143137D02*
X35776191Y-112190756D01*
X35776191Y-112190756D02*
X35728572Y-112285994D01*
X35728572Y-112285994D02*
X35680953Y-112333613D01*
X36157143Y-111285994D02*
X36204762Y-111238375D01*
X36204762Y-111238375D02*
X36300000Y-111190756D01*
X36300000Y-111190756D02*
X36538095Y-111190756D01*
X36538095Y-111190756D02*
X36633333Y-111238375D01*
X36633333Y-111238375D02*
X36680952Y-111285994D01*
X36680952Y-111285994D02*
X36728571Y-111381232D01*
X36728571Y-111381232D02*
X36728571Y-111476470D01*
X36728571Y-111476470D02*
X36680952Y-111619327D01*
X36680952Y-111619327D02*
X36109524Y-112190756D01*
X36109524Y-112190756D02*
X36728571Y-112190756D01*
X37633333Y-111190756D02*
X37157143Y-111190756D01*
X37157143Y-111190756D02*
X37109524Y-111666946D01*
X37109524Y-111666946D02*
X37157143Y-111619327D01*
X37157143Y-111619327D02*
X37252381Y-111571708D01*
X37252381Y-111571708D02*
X37490476Y-111571708D01*
X37490476Y-111571708D02*
X37585714Y-111619327D01*
X37585714Y-111619327D02*
X37633333Y-111666946D01*
X37633333Y-111666946D02*
X37680952Y-111762184D01*
X37680952Y-111762184D02*
X37680952Y-112000279D01*
X37680952Y-112000279D02*
X37633333Y-112095517D01*
X37633333Y-112095517D02*
X37585714Y-112143137D01*
X37585714Y-112143137D02*
X37490476Y-112190756D01*
X37490476Y-112190756D02*
X37252381Y-112190756D01*
X37252381Y-112190756D02*
X37157143Y-112143137D01*
X37157143Y-112143137D02*
X37109524Y-112095517D01*
X37966667Y-111190756D02*
X38300000Y-112190756D01*
X38300000Y-112190756D02*
X38633333Y-111190756D01*
X59883333Y-126524580D02*
X59835714Y-126572200D01*
X59835714Y-126572200D02*
X59692857Y-126619819D01*
X59692857Y-126619819D02*
X59597619Y-126619819D01*
X59597619Y-126619819D02*
X59454762Y-126572200D01*
X59454762Y-126572200D02*
X59359524Y-126476961D01*
X59359524Y-126476961D02*
X59311905Y-126381723D01*
X59311905Y-126381723D02*
X59264286Y-126191247D01*
X59264286Y-126191247D02*
X59264286Y-126048390D01*
X59264286Y-126048390D02*
X59311905Y-125857914D01*
X59311905Y-125857914D02*
X59359524Y-125762676D01*
X59359524Y-125762676D02*
X59454762Y-125667438D01*
X59454762Y-125667438D02*
X59597619Y-125619819D01*
X59597619Y-125619819D02*
X59692857Y-125619819D01*
X59692857Y-125619819D02*
X59835714Y-125667438D01*
X59835714Y-125667438D02*
X59883333Y-125715057D01*
X60264286Y-125715057D02*
X60311905Y-125667438D01*
X60311905Y-125667438D02*
X60407143Y-125619819D01*
X60407143Y-125619819D02*
X60645238Y-125619819D01*
X60645238Y-125619819D02*
X60740476Y-125667438D01*
X60740476Y-125667438D02*
X60788095Y-125715057D01*
X60788095Y-125715057D02*
X60835714Y-125810295D01*
X60835714Y-125810295D02*
X60835714Y-125905533D01*
X60835714Y-125905533D02*
X60788095Y-126048390D01*
X60788095Y-126048390D02*
X60216667Y-126619819D01*
X60216667Y-126619819D02*
X60835714Y-126619819D01*
X58523333Y-124849819D02*
X57951905Y-124849819D01*
X58237619Y-124849819D02*
X58237619Y-123849819D01*
X58237619Y-123849819D02*
X58142381Y-123992676D01*
X58142381Y-123992676D02*
X58047143Y-124087914D01*
X58047143Y-124087914D02*
X57951905Y-124135533D01*
X59142381Y-123849819D02*
X59237619Y-123849819D01*
X59237619Y-123849819D02*
X59332857Y-123897438D01*
X59332857Y-123897438D02*
X59380476Y-123945057D01*
X59380476Y-123945057D02*
X59428095Y-124040295D01*
X59428095Y-124040295D02*
X59475714Y-124230771D01*
X59475714Y-124230771D02*
X59475714Y-124468866D01*
X59475714Y-124468866D02*
X59428095Y-124659342D01*
X59428095Y-124659342D02*
X59380476Y-124754580D01*
X59380476Y-124754580D02*
X59332857Y-124802200D01*
X59332857Y-124802200D02*
X59237619Y-124849819D01*
X59237619Y-124849819D02*
X59142381Y-124849819D01*
X59142381Y-124849819D02*
X59047143Y-124802200D01*
X59047143Y-124802200D02*
X58999524Y-124754580D01*
X58999524Y-124754580D02*
X58951905Y-124659342D01*
X58951905Y-124659342D02*
X58904286Y-124468866D01*
X58904286Y-124468866D02*
X58904286Y-124230771D01*
X58904286Y-124230771D02*
X58951905Y-124040295D01*
X58951905Y-124040295D02*
X58999524Y-123945057D01*
X58999524Y-123945057D02*
X59047143Y-123897438D01*
X59047143Y-123897438D02*
X59142381Y-123849819D01*
X60094762Y-123849819D02*
X60190000Y-123849819D01*
X60190000Y-123849819D02*
X60285238Y-123897438D01*
X60285238Y-123897438D02*
X60332857Y-123945057D01*
X60332857Y-123945057D02*
X60380476Y-124040295D01*
X60380476Y-124040295D02*
X60428095Y-124230771D01*
X60428095Y-124230771D02*
X60428095Y-124468866D01*
X60428095Y-124468866D02*
X60380476Y-124659342D01*
X60380476Y-124659342D02*
X60332857Y-124754580D01*
X60332857Y-124754580D02*
X60285238Y-124802200D01*
X60285238Y-124802200D02*
X60190000Y-124849819D01*
X60190000Y-124849819D02*
X60094762Y-124849819D01*
X60094762Y-124849819D02*
X59999524Y-124802200D01*
X59999524Y-124802200D02*
X59951905Y-124754580D01*
X59951905Y-124754580D02*
X59904286Y-124659342D01*
X59904286Y-124659342D02*
X59856667Y-124468866D01*
X59856667Y-124468866D02*
X59856667Y-124230771D01*
X59856667Y-124230771D02*
X59904286Y-124040295D01*
X59904286Y-124040295D02*
X59951905Y-123945057D01*
X59951905Y-123945057D02*
X59999524Y-123897438D01*
X59999524Y-123897438D02*
X60094762Y-123849819D01*
X61047143Y-123849819D02*
X61142381Y-123849819D01*
X61142381Y-123849819D02*
X61237619Y-123897438D01*
X61237619Y-123897438D02*
X61285238Y-123945057D01*
X61285238Y-123945057D02*
X61332857Y-124040295D01*
X61332857Y-124040295D02*
X61380476Y-124230771D01*
X61380476Y-124230771D02*
X61380476Y-124468866D01*
X61380476Y-124468866D02*
X61332857Y-124659342D01*
X61332857Y-124659342D02*
X61285238Y-124754580D01*
X61285238Y-124754580D02*
X61237619Y-124802200D01*
X61237619Y-124802200D02*
X61142381Y-124849819D01*
X61142381Y-124849819D02*
X61047143Y-124849819D01*
X61047143Y-124849819D02*
X60951905Y-124802200D01*
X60951905Y-124802200D02*
X60904286Y-124754580D01*
X60904286Y-124754580D02*
X60856667Y-124659342D01*
X60856667Y-124659342D02*
X60809048Y-124468866D01*
X60809048Y-124468866D02*
X60809048Y-124230771D01*
X60809048Y-124230771D02*
X60856667Y-124040295D01*
X60856667Y-124040295D02*
X60904286Y-123945057D01*
X60904286Y-123945057D02*
X60951905Y-123897438D01*
X60951905Y-123897438D02*
X61047143Y-123849819D01*
X61809048Y-124849819D02*
X61809048Y-124183152D01*
X61809048Y-124278390D02*
X61856667Y-124230771D01*
X61856667Y-124230771D02*
X61951905Y-124183152D01*
X61951905Y-124183152D02*
X62094762Y-124183152D01*
X62094762Y-124183152D02*
X62190000Y-124230771D01*
X62190000Y-124230771D02*
X62237619Y-124326009D01*
X62237619Y-124326009D02*
X62237619Y-124849819D01*
X62237619Y-124326009D02*
X62285238Y-124230771D01*
X62285238Y-124230771D02*
X62380476Y-124183152D01*
X62380476Y-124183152D02*
X62523333Y-124183152D01*
X62523333Y-124183152D02*
X62618572Y-124230771D01*
X62618572Y-124230771D02*
X62666191Y-124326009D01*
X62666191Y-124326009D02*
X62666191Y-124849819D01*
X62999524Y-124183152D02*
X63380476Y-124183152D01*
X63142381Y-124849819D02*
X63142381Y-123992676D01*
X63142381Y-123992676D02*
X63190000Y-123897438D01*
X63190000Y-123897438D02*
X63285238Y-123849819D01*
X63285238Y-123849819D02*
X63380476Y-123849819D01*
X64142381Y-124849819D02*
X64142381Y-123849819D01*
X64142381Y-124802200D02*
X64047143Y-124849819D01*
X64047143Y-124849819D02*
X63856667Y-124849819D01*
X63856667Y-124849819D02*
X63761429Y-124802200D01*
X63761429Y-124802200D02*
X63713810Y-124754580D01*
X63713810Y-124754580D02*
X63666191Y-124659342D01*
X63666191Y-124659342D02*
X63666191Y-124373628D01*
X63666191Y-124373628D02*
X63713810Y-124278390D01*
X63713810Y-124278390D02*
X63761429Y-124230771D01*
X63761429Y-124230771D02*
X63856667Y-124183152D01*
X63856667Y-124183152D02*
X64047143Y-124183152D01*
X64047143Y-124183152D02*
X64142381Y-124230771D01*
X64666191Y-124802200D02*
X64666191Y-124849819D01*
X64666191Y-124849819D02*
X64618572Y-124945057D01*
X64618572Y-124945057D02*
X64570953Y-124992676D01*
X65047143Y-123945057D02*
X65094762Y-123897438D01*
X65094762Y-123897438D02*
X65190000Y-123849819D01*
X65190000Y-123849819D02*
X65428095Y-123849819D01*
X65428095Y-123849819D02*
X65523333Y-123897438D01*
X65523333Y-123897438D02*
X65570952Y-123945057D01*
X65570952Y-123945057D02*
X65618571Y-124040295D01*
X65618571Y-124040295D02*
X65618571Y-124135533D01*
X65618571Y-124135533D02*
X65570952Y-124278390D01*
X65570952Y-124278390D02*
X64999524Y-124849819D01*
X64999524Y-124849819D02*
X65618571Y-124849819D01*
X66523333Y-123849819D02*
X66047143Y-123849819D01*
X66047143Y-123849819D02*
X65999524Y-124326009D01*
X65999524Y-124326009D02*
X66047143Y-124278390D01*
X66047143Y-124278390D02*
X66142381Y-124230771D01*
X66142381Y-124230771D02*
X66380476Y-124230771D01*
X66380476Y-124230771D02*
X66475714Y-124278390D01*
X66475714Y-124278390D02*
X66523333Y-124326009D01*
X66523333Y-124326009D02*
X66570952Y-124421247D01*
X66570952Y-124421247D02*
X66570952Y-124659342D01*
X66570952Y-124659342D02*
X66523333Y-124754580D01*
X66523333Y-124754580D02*
X66475714Y-124802200D01*
X66475714Y-124802200D02*
X66380476Y-124849819D01*
X66380476Y-124849819D02*
X66142381Y-124849819D01*
X66142381Y-124849819D02*
X66047143Y-124802200D01*
X66047143Y-124802200D02*
X65999524Y-124754580D01*
X66856667Y-123849819D02*
X67190000Y-124849819D01*
X67190000Y-124849819D02*
X67523333Y-123849819D01*
X29773333Y-127084580D02*
X29725714Y-127132200D01*
X29725714Y-127132200D02*
X29582857Y-127179819D01*
X29582857Y-127179819D02*
X29487619Y-127179819D01*
X29487619Y-127179819D02*
X29344762Y-127132200D01*
X29344762Y-127132200D02*
X29249524Y-127036961D01*
X29249524Y-127036961D02*
X29201905Y-126941723D01*
X29201905Y-126941723D02*
X29154286Y-126751247D01*
X29154286Y-126751247D02*
X29154286Y-126608390D01*
X29154286Y-126608390D02*
X29201905Y-126417914D01*
X29201905Y-126417914D02*
X29249524Y-126322676D01*
X29249524Y-126322676D02*
X29344762Y-126227438D01*
X29344762Y-126227438D02*
X29487619Y-126179819D01*
X29487619Y-126179819D02*
X29582857Y-126179819D01*
X29582857Y-126179819D02*
X29725714Y-126227438D01*
X29725714Y-126227438D02*
X29773333Y-126275057D01*
X30630476Y-126513152D02*
X30630476Y-127179819D01*
X30392381Y-126132200D02*
X30154286Y-126846485D01*
X30154286Y-126846485D02*
X30773333Y-126846485D01*
X29733333Y-125449819D02*
X29161905Y-125449819D01*
X29447619Y-125449819D02*
X29447619Y-124449819D01*
X29447619Y-124449819D02*
X29352381Y-124592676D01*
X29352381Y-124592676D02*
X29257143Y-124687914D01*
X29257143Y-124687914D02*
X29161905Y-124735533D01*
X30352381Y-124449819D02*
X30447619Y-124449819D01*
X30447619Y-124449819D02*
X30542857Y-124497438D01*
X30542857Y-124497438D02*
X30590476Y-124545057D01*
X30590476Y-124545057D02*
X30638095Y-124640295D01*
X30638095Y-124640295D02*
X30685714Y-124830771D01*
X30685714Y-124830771D02*
X30685714Y-125068866D01*
X30685714Y-125068866D02*
X30638095Y-125259342D01*
X30638095Y-125259342D02*
X30590476Y-125354580D01*
X30590476Y-125354580D02*
X30542857Y-125402200D01*
X30542857Y-125402200D02*
X30447619Y-125449819D01*
X30447619Y-125449819D02*
X30352381Y-125449819D01*
X30352381Y-125449819D02*
X30257143Y-125402200D01*
X30257143Y-125402200D02*
X30209524Y-125354580D01*
X30209524Y-125354580D02*
X30161905Y-125259342D01*
X30161905Y-125259342D02*
X30114286Y-125068866D01*
X30114286Y-125068866D02*
X30114286Y-124830771D01*
X30114286Y-124830771D02*
X30161905Y-124640295D01*
X30161905Y-124640295D02*
X30209524Y-124545057D01*
X30209524Y-124545057D02*
X30257143Y-124497438D01*
X30257143Y-124497438D02*
X30352381Y-124449819D01*
X31304762Y-124449819D02*
X31400000Y-124449819D01*
X31400000Y-124449819D02*
X31495238Y-124497438D01*
X31495238Y-124497438D02*
X31542857Y-124545057D01*
X31542857Y-124545057D02*
X31590476Y-124640295D01*
X31590476Y-124640295D02*
X31638095Y-124830771D01*
X31638095Y-124830771D02*
X31638095Y-125068866D01*
X31638095Y-125068866D02*
X31590476Y-125259342D01*
X31590476Y-125259342D02*
X31542857Y-125354580D01*
X31542857Y-125354580D02*
X31495238Y-125402200D01*
X31495238Y-125402200D02*
X31400000Y-125449819D01*
X31400000Y-125449819D02*
X31304762Y-125449819D01*
X31304762Y-125449819D02*
X31209524Y-125402200D01*
X31209524Y-125402200D02*
X31161905Y-125354580D01*
X31161905Y-125354580D02*
X31114286Y-125259342D01*
X31114286Y-125259342D02*
X31066667Y-125068866D01*
X31066667Y-125068866D02*
X31066667Y-124830771D01*
X31066667Y-124830771D02*
X31114286Y-124640295D01*
X31114286Y-124640295D02*
X31161905Y-124545057D01*
X31161905Y-124545057D02*
X31209524Y-124497438D01*
X31209524Y-124497438D02*
X31304762Y-124449819D01*
X32257143Y-124449819D02*
X32352381Y-124449819D01*
X32352381Y-124449819D02*
X32447619Y-124497438D01*
X32447619Y-124497438D02*
X32495238Y-124545057D01*
X32495238Y-124545057D02*
X32542857Y-124640295D01*
X32542857Y-124640295D02*
X32590476Y-124830771D01*
X32590476Y-124830771D02*
X32590476Y-125068866D01*
X32590476Y-125068866D02*
X32542857Y-125259342D01*
X32542857Y-125259342D02*
X32495238Y-125354580D01*
X32495238Y-125354580D02*
X32447619Y-125402200D01*
X32447619Y-125402200D02*
X32352381Y-125449819D01*
X32352381Y-125449819D02*
X32257143Y-125449819D01*
X32257143Y-125449819D02*
X32161905Y-125402200D01*
X32161905Y-125402200D02*
X32114286Y-125354580D01*
X32114286Y-125354580D02*
X32066667Y-125259342D01*
X32066667Y-125259342D02*
X32019048Y-125068866D01*
X32019048Y-125068866D02*
X32019048Y-124830771D01*
X32019048Y-124830771D02*
X32066667Y-124640295D01*
X32066667Y-124640295D02*
X32114286Y-124545057D01*
X32114286Y-124545057D02*
X32161905Y-124497438D01*
X32161905Y-124497438D02*
X32257143Y-124449819D01*
X33019048Y-125449819D02*
X33019048Y-124783152D01*
X33019048Y-124878390D02*
X33066667Y-124830771D01*
X33066667Y-124830771D02*
X33161905Y-124783152D01*
X33161905Y-124783152D02*
X33304762Y-124783152D01*
X33304762Y-124783152D02*
X33400000Y-124830771D01*
X33400000Y-124830771D02*
X33447619Y-124926009D01*
X33447619Y-124926009D02*
X33447619Y-125449819D01*
X33447619Y-124926009D02*
X33495238Y-124830771D01*
X33495238Y-124830771D02*
X33590476Y-124783152D01*
X33590476Y-124783152D02*
X33733333Y-124783152D01*
X33733333Y-124783152D02*
X33828572Y-124830771D01*
X33828572Y-124830771D02*
X33876191Y-124926009D01*
X33876191Y-124926009D02*
X33876191Y-125449819D01*
X34209524Y-124783152D02*
X34590476Y-124783152D01*
X34352381Y-125449819D02*
X34352381Y-124592676D01*
X34352381Y-124592676D02*
X34400000Y-124497438D01*
X34400000Y-124497438D02*
X34495238Y-124449819D01*
X34495238Y-124449819D02*
X34590476Y-124449819D01*
X35352381Y-125449819D02*
X35352381Y-124449819D01*
X35352381Y-125402200D02*
X35257143Y-125449819D01*
X35257143Y-125449819D02*
X35066667Y-125449819D01*
X35066667Y-125449819D02*
X34971429Y-125402200D01*
X34971429Y-125402200D02*
X34923810Y-125354580D01*
X34923810Y-125354580D02*
X34876191Y-125259342D01*
X34876191Y-125259342D02*
X34876191Y-124973628D01*
X34876191Y-124973628D02*
X34923810Y-124878390D01*
X34923810Y-124878390D02*
X34971429Y-124830771D01*
X34971429Y-124830771D02*
X35066667Y-124783152D01*
X35066667Y-124783152D02*
X35257143Y-124783152D01*
X35257143Y-124783152D02*
X35352381Y-124830771D01*
X35876191Y-125402200D02*
X35876191Y-125449819D01*
X35876191Y-125449819D02*
X35828572Y-125545057D01*
X35828572Y-125545057D02*
X35780953Y-125592676D01*
X36257143Y-124545057D02*
X36304762Y-124497438D01*
X36304762Y-124497438D02*
X36400000Y-124449819D01*
X36400000Y-124449819D02*
X36638095Y-124449819D01*
X36638095Y-124449819D02*
X36733333Y-124497438D01*
X36733333Y-124497438D02*
X36780952Y-124545057D01*
X36780952Y-124545057D02*
X36828571Y-124640295D01*
X36828571Y-124640295D02*
X36828571Y-124735533D01*
X36828571Y-124735533D02*
X36780952Y-124878390D01*
X36780952Y-124878390D02*
X36209524Y-125449819D01*
X36209524Y-125449819D02*
X36828571Y-125449819D01*
X37733333Y-124449819D02*
X37257143Y-124449819D01*
X37257143Y-124449819D02*
X37209524Y-124926009D01*
X37209524Y-124926009D02*
X37257143Y-124878390D01*
X37257143Y-124878390D02*
X37352381Y-124830771D01*
X37352381Y-124830771D02*
X37590476Y-124830771D01*
X37590476Y-124830771D02*
X37685714Y-124878390D01*
X37685714Y-124878390D02*
X37733333Y-124926009D01*
X37733333Y-124926009D02*
X37780952Y-125021247D01*
X37780952Y-125021247D02*
X37780952Y-125259342D01*
X37780952Y-125259342D02*
X37733333Y-125354580D01*
X37733333Y-125354580D02*
X37685714Y-125402200D01*
X37685714Y-125402200D02*
X37590476Y-125449819D01*
X37590476Y-125449819D02*
X37352381Y-125449819D01*
X37352381Y-125449819D02*
X37257143Y-125402200D01*
X37257143Y-125402200D02*
X37209524Y-125354580D01*
X38066667Y-124449819D02*
X38400000Y-125449819D01*
X38400000Y-125449819D02*
X38733333Y-124449819D01*
X2713095Y220180D02*
X2713095Y1220180D01*
X2713095Y743990D02*
X3284523Y743990D01*
X3284523Y220180D02*
X3284523Y1220180D01*
X4284523Y220180D02*
X3713095Y220180D01*
X3998809Y220180D02*
X3998809Y1220180D01*
X3998809Y1220180D02*
X3903571Y1077323D01*
X3903571Y1077323D02*
X3808333Y982085D01*
X3808333Y982085D02*
X3713095Y934466D01*
X76557142Y-127034580D02*
X76509523Y-127082200D01*
X76509523Y-127082200D02*
X76366666Y-127129819D01*
X76366666Y-127129819D02*
X76271428Y-127129819D01*
X76271428Y-127129819D02*
X76128571Y-127082200D01*
X76128571Y-127082200D02*
X76033333Y-126986961D01*
X76033333Y-126986961D02*
X75985714Y-126891723D01*
X75985714Y-126891723D02*
X75938095Y-126701247D01*
X75938095Y-126701247D02*
X75938095Y-126558390D01*
X75938095Y-126558390D02*
X75985714Y-126367914D01*
X75985714Y-126367914D02*
X76033333Y-126272676D01*
X76033333Y-126272676D02*
X76128571Y-126177438D01*
X76128571Y-126177438D02*
X76271428Y-126129819D01*
X76271428Y-126129819D02*
X76366666Y-126129819D01*
X76366666Y-126129819D02*
X76509523Y-126177438D01*
X76509523Y-126177438D02*
X76557142Y-126225057D01*
X77509523Y-127129819D02*
X76938095Y-127129819D01*
X77223809Y-127129819D02*
X77223809Y-126129819D01*
X77223809Y-126129819D02*
X77128571Y-126272676D01*
X77128571Y-126272676D02*
X77033333Y-126367914D01*
X77033333Y-126367914D02*
X76938095Y-126415533D01*
X78461904Y-127129819D02*
X77890476Y-127129819D01*
X78176190Y-127129819D02*
X78176190Y-126129819D01*
X78176190Y-126129819D02*
X78080952Y-126272676D01*
X78080952Y-126272676D02*
X77985714Y-126367914D01*
X77985714Y-126367914D02*
X77890476Y-126415533D01*
X75413333Y-125279819D02*
X74841905Y-125279819D01*
X75127619Y-125279819D02*
X75127619Y-124279819D01*
X75127619Y-124279819D02*
X75032381Y-124422676D01*
X75032381Y-124422676D02*
X74937143Y-124517914D01*
X74937143Y-124517914D02*
X74841905Y-124565533D01*
X76032381Y-124279819D02*
X76127619Y-124279819D01*
X76127619Y-124279819D02*
X76222857Y-124327438D01*
X76222857Y-124327438D02*
X76270476Y-124375057D01*
X76270476Y-124375057D02*
X76318095Y-124470295D01*
X76318095Y-124470295D02*
X76365714Y-124660771D01*
X76365714Y-124660771D02*
X76365714Y-124898866D01*
X76365714Y-124898866D02*
X76318095Y-125089342D01*
X76318095Y-125089342D02*
X76270476Y-125184580D01*
X76270476Y-125184580D02*
X76222857Y-125232200D01*
X76222857Y-125232200D02*
X76127619Y-125279819D01*
X76127619Y-125279819D02*
X76032381Y-125279819D01*
X76032381Y-125279819D02*
X75937143Y-125232200D01*
X75937143Y-125232200D02*
X75889524Y-125184580D01*
X75889524Y-125184580D02*
X75841905Y-125089342D01*
X75841905Y-125089342D02*
X75794286Y-124898866D01*
X75794286Y-124898866D02*
X75794286Y-124660771D01*
X75794286Y-124660771D02*
X75841905Y-124470295D01*
X75841905Y-124470295D02*
X75889524Y-124375057D01*
X75889524Y-124375057D02*
X75937143Y-124327438D01*
X75937143Y-124327438D02*
X76032381Y-124279819D01*
X76984762Y-124279819D02*
X77080000Y-124279819D01*
X77080000Y-124279819D02*
X77175238Y-124327438D01*
X77175238Y-124327438D02*
X77222857Y-124375057D01*
X77222857Y-124375057D02*
X77270476Y-124470295D01*
X77270476Y-124470295D02*
X77318095Y-124660771D01*
X77318095Y-124660771D02*
X77318095Y-124898866D01*
X77318095Y-124898866D02*
X77270476Y-125089342D01*
X77270476Y-125089342D02*
X77222857Y-125184580D01*
X77222857Y-125184580D02*
X77175238Y-125232200D01*
X77175238Y-125232200D02*
X77080000Y-125279819D01*
X77080000Y-125279819D02*
X76984762Y-125279819D01*
X76984762Y-125279819D02*
X76889524Y-125232200D01*
X76889524Y-125232200D02*
X76841905Y-125184580D01*
X76841905Y-125184580D02*
X76794286Y-125089342D01*
X76794286Y-125089342D02*
X76746667Y-124898866D01*
X76746667Y-124898866D02*
X76746667Y-124660771D01*
X76746667Y-124660771D02*
X76794286Y-124470295D01*
X76794286Y-124470295D02*
X76841905Y-124375057D01*
X76841905Y-124375057D02*
X76889524Y-124327438D01*
X76889524Y-124327438D02*
X76984762Y-124279819D01*
X77937143Y-124279819D02*
X78032381Y-124279819D01*
X78032381Y-124279819D02*
X78127619Y-124327438D01*
X78127619Y-124327438D02*
X78175238Y-124375057D01*
X78175238Y-124375057D02*
X78222857Y-124470295D01*
X78222857Y-124470295D02*
X78270476Y-124660771D01*
X78270476Y-124660771D02*
X78270476Y-124898866D01*
X78270476Y-124898866D02*
X78222857Y-125089342D01*
X78222857Y-125089342D02*
X78175238Y-125184580D01*
X78175238Y-125184580D02*
X78127619Y-125232200D01*
X78127619Y-125232200D02*
X78032381Y-125279819D01*
X78032381Y-125279819D02*
X77937143Y-125279819D01*
X77937143Y-125279819D02*
X77841905Y-125232200D01*
X77841905Y-125232200D02*
X77794286Y-125184580D01*
X77794286Y-125184580D02*
X77746667Y-125089342D01*
X77746667Y-125089342D02*
X77699048Y-124898866D01*
X77699048Y-124898866D02*
X77699048Y-124660771D01*
X77699048Y-124660771D02*
X77746667Y-124470295D01*
X77746667Y-124470295D02*
X77794286Y-124375057D01*
X77794286Y-124375057D02*
X77841905Y-124327438D01*
X77841905Y-124327438D02*
X77937143Y-124279819D01*
X78699048Y-125279819D02*
X78699048Y-124613152D01*
X78699048Y-124708390D02*
X78746667Y-124660771D01*
X78746667Y-124660771D02*
X78841905Y-124613152D01*
X78841905Y-124613152D02*
X78984762Y-124613152D01*
X78984762Y-124613152D02*
X79080000Y-124660771D01*
X79080000Y-124660771D02*
X79127619Y-124756009D01*
X79127619Y-124756009D02*
X79127619Y-125279819D01*
X79127619Y-124756009D02*
X79175238Y-124660771D01*
X79175238Y-124660771D02*
X79270476Y-124613152D01*
X79270476Y-124613152D02*
X79413333Y-124613152D01*
X79413333Y-124613152D02*
X79508572Y-124660771D01*
X79508572Y-124660771D02*
X79556191Y-124756009D01*
X79556191Y-124756009D02*
X79556191Y-125279819D01*
X79889524Y-124613152D02*
X80270476Y-124613152D01*
X80032381Y-125279819D02*
X80032381Y-124422676D01*
X80032381Y-124422676D02*
X80080000Y-124327438D01*
X80080000Y-124327438D02*
X80175238Y-124279819D01*
X80175238Y-124279819D02*
X80270476Y-124279819D01*
X81032381Y-125279819D02*
X81032381Y-124279819D01*
X81032381Y-125232200D02*
X80937143Y-125279819D01*
X80937143Y-125279819D02*
X80746667Y-125279819D01*
X80746667Y-125279819D02*
X80651429Y-125232200D01*
X80651429Y-125232200D02*
X80603810Y-125184580D01*
X80603810Y-125184580D02*
X80556191Y-125089342D01*
X80556191Y-125089342D02*
X80556191Y-124803628D01*
X80556191Y-124803628D02*
X80603810Y-124708390D01*
X80603810Y-124708390D02*
X80651429Y-124660771D01*
X80651429Y-124660771D02*
X80746667Y-124613152D01*
X80746667Y-124613152D02*
X80937143Y-124613152D01*
X80937143Y-124613152D02*
X81032381Y-124660771D01*
X81556191Y-125232200D02*
X81556191Y-125279819D01*
X81556191Y-125279819D02*
X81508572Y-125375057D01*
X81508572Y-125375057D02*
X81460953Y-125422676D01*
X81937143Y-124375057D02*
X81984762Y-124327438D01*
X81984762Y-124327438D02*
X82080000Y-124279819D01*
X82080000Y-124279819D02*
X82318095Y-124279819D01*
X82318095Y-124279819D02*
X82413333Y-124327438D01*
X82413333Y-124327438D02*
X82460952Y-124375057D01*
X82460952Y-124375057D02*
X82508571Y-124470295D01*
X82508571Y-124470295D02*
X82508571Y-124565533D01*
X82508571Y-124565533D02*
X82460952Y-124708390D01*
X82460952Y-124708390D02*
X81889524Y-125279819D01*
X81889524Y-125279819D02*
X82508571Y-125279819D01*
X83413333Y-124279819D02*
X82937143Y-124279819D01*
X82937143Y-124279819D02*
X82889524Y-124756009D01*
X82889524Y-124756009D02*
X82937143Y-124708390D01*
X82937143Y-124708390D02*
X83032381Y-124660771D01*
X83032381Y-124660771D02*
X83270476Y-124660771D01*
X83270476Y-124660771D02*
X83365714Y-124708390D01*
X83365714Y-124708390D02*
X83413333Y-124756009D01*
X83413333Y-124756009D02*
X83460952Y-124851247D01*
X83460952Y-124851247D02*
X83460952Y-125089342D01*
X83460952Y-125089342D02*
X83413333Y-125184580D01*
X83413333Y-125184580D02*
X83365714Y-125232200D01*
X83365714Y-125232200D02*
X83270476Y-125279819D01*
X83270476Y-125279819D02*
X83032381Y-125279819D01*
X83032381Y-125279819D02*
X82937143Y-125232200D01*
X82937143Y-125232200D02*
X82889524Y-125184580D01*
X83746667Y-124279819D02*
X84080000Y-125279819D01*
X84080000Y-125279819D02*
X84413333Y-124279819D01*
X-32890419Y-114644999D02*
X-32842800Y-114597380D01*
X-32842800Y-114597380D02*
X-32795180Y-114644999D01*
X-32795180Y-114644999D02*
X-32842800Y-114692618D01*
X-32842800Y-114692618D02*
X-32890419Y-114644999D01*
X-32890419Y-114644999D02*
X-32795180Y-114644999D01*
X46737142Y-126884580D02*
X46689523Y-126932200D01*
X46689523Y-126932200D02*
X46546666Y-126979819D01*
X46546666Y-126979819D02*
X46451428Y-126979819D01*
X46451428Y-126979819D02*
X46308571Y-126932200D01*
X46308571Y-126932200D02*
X46213333Y-126836961D01*
X46213333Y-126836961D02*
X46165714Y-126741723D01*
X46165714Y-126741723D02*
X46118095Y-126551247D01*
X46118095Y-126551247D02*
X46118095Y-126408390D01*
X46118095Y-126408390D02*
X46165714Y-126217914D01*
X46165714Y-126217914D02*
X46213333Y-126122676D01*
X46213333Y-126122676D02*
X46308571Y-126027438D01*
X46308571Y-126027438D02*
X46451428Y-125979819D01*
X46451428Y-125979819D02*
X46546666Y-125979819D01*
X46546666Y-125979819D02*
X46689523Y-126027438D01*
X46689523Y-126027438D02*
X46737142Y-126075057D01*
X47689523Y-126979819D02*
X47118095Y-126979819D01*
X47403809Y-126979819D02*
X47403809Y-125979819D01*
X47403809Y-125979819D02*
X47308571Y-126122676D01*
X47308571Y-126122676D02*
X47213333Y-126217914D01*
X47213333Y-126217914D02*
X47118095Y-126265533D01*
X48594285Y-125979819D02*
X48118095Y-125979819D01*
X48118095Y-125979819D02*
X48070476Y-126456009D01*
X48070476Y-126456009D02*
X48118095Y-126408390D01*
X48118095Y-126408390D02*
X48213333Y-126360771D01*
X48213333Y-126360771D02*
X48451428Y-126360771D01*
X48451428Y-126360771D02*
X48546666Y-126408390D01*
X48546666Y-126408390D02*
X48594285Y-126456009D01*
X48594285Y-126456009D02*
X48641904Y-126551247D01*
X48641904Y-126551247D02*
X48641904Y-126789342D01*
X48641904Y-126789342D02*
X48594285Y-126884580D01*
X48594285Y-126884580D02*
X48546666Y-126932200D01*
X48546666Y-126932200D02*
X48451428Y-126979819D01*
X48451428Y-126979819D02*
X48213333Y-126979819D01*
X48213333Y-126979819D02*
X48118095Y-126932200D01*
X48118095Y-126932200D02*
X48070476Y-126884580D01*
X46243333Y-125399819D02*
X45671905Y-125399819D01*
X45957619Y-125399819D02*
X45957619Y-124399819D01*
X45957619Y-124399819D02*
X45862381Y-124542676D01*
X45862381Y-124542676D02*
X45767143Y-124637914D01*
X45767143Y-124637914D02*
X45671905Y-124685533D01*
X46862381Y-124399819D02*
X46957619Y-124399819D01*
X46957619Y-124399819D02*
X47052857Y-124447438D01*
X47052857Y-124447438D02*
X47100476Y-124495057D01*
X47100476Y-124495057D02*
X47148095Y-124590295D01*
X47148095Y-124590295D02*
X47195714Y-124780771D01*
X47195714Y-124780771D02*
X47195714Y-125018866D01*
X47195714Y-125018866D02*
X47148095Y-125209342D01*
X47148095Y-125209342D02*
X47100476Y-125304580D01*
X47100476Y-125304580D02*
X47052857Y-125352200D01*
X47052857Y-125352200D02*
X46957619Y-125399819D01*
X46957619Y-125399819D02*
X46862381Y-125399819D01*
X46862381Y-125399819D02*
X46767143Y-125352200D01*
X46767143Y-125352200D02*
X46719524Y-125304580D01*
X46719524Y-125304580D02*
X46671905Y-125209342D01*
X46671905Y-125209342D02*
X46624286Y-125018866D01*
X46624286Y-125018866D02*
X46624286Y-124780771D01*
X46624286Y-124780771D02*
X46671905Y-124590295D01*
X46671905Y-124590295D02*
X46719524Y-124495057D01*
X46719524Y-124495057D02*
X46767143Y-124447438D01*
X46767143Y-124447438D02*
X46862381Y-124399819D01*
X47814762Y-124399819D02*
X47910000Y-124399819D01*
X47910000Y-124399819D02*
X48005238Y-124447438D01*
X48005238Y-124447438D02*
X48052857Y-124495057D01*
X48052857Y-124495057D02*
X48100476Y-124590295D01*
X48100476Y-124590295D02*
X48148095Y-124780771D01*
X48148095Y-124780771D02*
X48148095Y-125018866D01*
X48148095Y-125018866D02*
X48100476Y-125209342D01*
X48100476Y-125209342D02*
X48052857Y-125304580D01*
X48052857Y-125304580D02*
X48005238Y-125352200D01*
X48005238Y-125352200D02*
X47910000Y-125399819D01*
X47910000Y-125399819D02*
X47814762Y-125399819D01*
X47814762Y-125399819D02*
X47719524Y-125352200D01*
X47719524Y-125352200D02*
X47671905Y-125304580D01*
X47671905Y-125304580D02*
X47624286Y-125209342D01*
X47624286Y-125209342D02*
X47576667Y-125018866D01*
X47576667Y-125018866D02*
X47576667Y-124780771D01*
X47576667Y-124780771D02*
X47624286Y-124590295D01*
X47624286Y-124590295D02*
X47671905Y-124495057D01*
X47671905Y-124495057D02*
X47719524Y-124447438D01*
X47719524Y-124447438D02*
X47814762Y-124399819D01*
X48767143Y-124399819D02*
X48862381Y-124399819D01*
X48862381Y-124399819D02*
X48957619Y-124447438D01*
X48957619Y-124447438D02*
X49005238Y-124495057D01*
X49005238Y-124495057D02*
X49052857Y-124590295D01*
X49052857Y-124590295D02*
X49100476Y-124780771D01*
X49100476Y-124780771D02*
X49100476Y-125018866D01*
X49100476Y-125018866D02*
X49052857Y-125209342D01*
X49052857Y-125209342D02*
X49005238Y-125304580D01*
X49005238Y-125304580D02*
X48957619Y-125352200D01*
X48957619Y-125352200D02*
X48862381Y-125399819D01*
X48862381Y-125399819D02*
X48767143Y-125399819D01*
X48767143Y-125399819D02*
X48671905Y-125352200D01*
X48671905Y-125352200D02*
X48624286Y-125304580D01*
X48624286Y-125304580D02*
X48576667Y-125209342D01*
X48576667Y-125209342D02*
X48529048Y-125018866D01*
X48529048Y-125018866D02*
X48529048Y-124780771D01*
X48529048Y-124780771D02*
X48576667Y-124590295D01*
X48576667Y-124590295D02*
X48624286Y-124495057D01*
X48624286Y-124495057D02*
X48671905Y-124447438D01*
X48671905Y-124447438D02*
X48767143Y-124399819D01*
X49529048Y-125399819D02*
X49529048Y-124733152D01*
X49529048Y-124828390D02*
X49576667Y-124780771D01*
X49576667Y-124780771D02*
X49671905Y-124733152D01*
X49671905Y-124733152D02*
X49814762Y-124733152D01*
X49814762Y-124733152D02*
X49910000Y-124780771D01*
X49910000Y-124780771D02*
X49957619Y-124876009D01*
X49957619Y-124876009D02*
X49957619Y-125399819D01*
X49957619Y-124876009D02*
X50005238Y-124780771D01*
X50005238Y-124780771D02*
X50100476Y-124733152D01*
X50100476Y-124733152D02*
X50243333Y-124733152D01*
X50243333Y-124733152D02*
X50338572Y-124780771D01*
X50338572Y-124780771D02*
X50386191Y-124876009D01*
X50386191Y-124876009D02*
X50386191Y-125399819D01*
X50719524Y-124733152D02*
X51100476Y-124733152D01*
X50862381Y-125399819D02*
X50862381Y-124542676D01*
X50862381Y-124542676D02*
X50910000Y-124447438D01*
X50910000Y-124447438D02*
X51005238Y-124399819D01*
X51005238Y-124399819D02*
X51100476Y-124399819D01*
X51862381Y-125399819D02*
X51862381Y-124399819D01*
X51862381Y-125352200D02*
X51767143Y-125399819D01*
X51767143Y-125399819D02*
X51576667Y-125399819D01*
X51576667Y-125399819D02*
X51481429Y-125352200D01*
X51481429Y-125352200D02*
X51433810Y-125304580D01*
X51433810Y-125304580D02*
X51386191Y-125209342D01*
X51386191Y-125209342D02*
X51386191Y-124923628D01*
X51386191Y-124923628D02*
X51433810Y-124828390D01*
X51433810Y-124828390D02*
X51481429Y-124780771D01*
X51481429Y-124780771D02*
X51576667Y-124733152D01*
X51576667Y-124733152D02*
X51767143Y-124733152D01*
X51767143Y-124733152D02*
X51862381Y-124780771D01*
X52386191Y-125352200D02*
X52386191Y-125399819D01*
X52386191Y-125399819D02*
X52338572Y-125495057D01*
X52338572Y-125495057D02*
X52290953Y-125542676D01*
X52767143Y-124495057D02*
X52814762Y-124447438D01*
X52814762Y-124447438D02*
X52910000Y-124399819D01*
X52910000Y-124399819D02*
X53148095Y-124399819D01*
X53148095Y-124399819D02*
X53243333Y-124447438D01*
X53243333Y-124447438D02*
X53290952Y-124495057D01*
X53290952Y-124495057D02*
X53338571Y-124590295D01*
X53338571Y-124590295D02*
X53338571Y-124685533D01*
X53338571Y-124685533D02*
X53290952Y-124828390D01*
X53290952Y-124828390D02*
X52719524Y-125399819D01*
X52719524Y-125399819D02*
X53338571Y-125399819D01*
X54243333Y-124399819D02*
X53767143Y-124399819D01*
X53767143Y-124399819D02*
X53719524Y-124876009D01*
X53719524Y-124876009D02*
X53767143Y-124828390D01*
X53767143Y-124828390D02*
X53862381Y-124780771D01*
X53862381Y-124780771D02*
X54100476Y-124780771D01*
X54100476Y-124780771D02*
X54195714Y-124828390D01*
X54195714Y-124828390D02*
X54243333Y-124876009D01*
X54243333Y-124876009D02*
X54290952Y-124971247D01*
X54290952Y-124971247D02*
X54290952Y-125209342D01*
X54290952Y-125209342D02*
X54243333Y-125304580D01*
X54243333Y-125304580D02*
X54195714Y-125352200D01*
X54195714Y-125352200D02*
X54100476Y-125399819D01*
X54100476Y-125399819D02*
X53862381Y-125399819D01*
X53862381Y-125399819D02*
X53767143Y-125352200D01*
X53767143Y-125352200D02*
X53719524Y-125304580D01*
X54576667Y-124399819D02*
X54910000Y-125399819D01*
X54910000Y-125399819D02*
X55243333Y-124399819D01*
X61676666Y-46469819D02*
X61676666Y-47184104D01*
X61676666Y-47184104D02*
X61629047Y-47326961D01*
X61629047Y-47326961D02*
X61533809Y-47422200D01*
X61533809Y-47422200D02*
X61390952Y-47469819D01*
X61390952Y-47469819D02*
X61295714Y-47469819D01*
X62105238Y-46565057D02*
X62152857Y-46517438D01*
X62152857Y-46517438D02*
X62248095Y-46469819D01*
X62248095Y-46469819D02*
X62486190Y-46469819D01*
X62486190Y-46469819D02*
X62581428Y-46517438D01*
X62581428Y-46517438D02*
X62629047Y-46565057D01*
X62629047Y-46565057D02*
X62676666Y-46660295D01*
X62676666Y-46660295D02*
X62676666Y-46755533D01*
X62676666Y-46755533D02*
X62629047Y-46898390D01*
X62629047Y-46898390D02*
X62057619Y-47469819D01*
X62057619Y-47469819D02*
X62676666Y-47469819D01*
%TO.C,U5*%
D13*
X36807500Y-101620000D02*
X50507500Y-101620000D01*
X50507500Y-108020000D01*
X36807500Y-108020000D01*
X36807500Y-101620000D01*
X29457500Y-98266000D02*
X57132500Y-98266000D01*
X57132500Y-108020000D01*
X29457500Y-108020000D01*
X29457500Y-98266000D01*
D18*
X29457500Y-58820000D02*
X57182500Y-58820000D01*
X57182500Y-98266000D01*
X29457500Y-98266000D01*
X29457500Y-58820000D01*
D13*
X29457500Y-53220000D02*
X57182500Y-53220000D01*
X57182500Y-58820000D01*
X29457500Y-58820000D01*
X29457500Y-53220000D01*
D19*
%TO.C,D5*%
X85500000Y-95655000D02*
X85500000Y-93735000D01*
X85500000Y-93735000D02*
X82640000Y-93735000D01*
X82640000Y-95655000D02*
X85500000Y-95655000D01*
%TO.C,D4*%
X85400000Y-86015000D02*
X85400000Y-84095000D01*
X85400000Y-84095000D02*
X82540000Y-84095000D01*
X82540000Y-86015000D02*
X85400000Y-86015000D01*
%TO.C,D3*%
X85547500Y-76125000D02*
X85547500Y-74205000D01*
X85547500Y-74205000D02*
X82687500Y-74205000D01*
X82687500Y-76125000D02*
X85547500Y-76125000D01*
%TO.C,D2*%
X72250000Y-56435000D02*
X72250000Y-54515000D01*
X72250000Y-54515000D02*
X69390000Y-54515000D01*
X69390000Y-56435000D02*
X72250000Y-56435000D01*
%TO.C,D1*%
X85155000Y-66215000D02*
X85155000Y-64295000D01*
X85155000Y-64295000D02*
X82295000Y-64295000D01*
X82295000Y-66215000D02*
X85155000Y-66215000D01*
%TO.C,J5*%
X56210000Y-114112500D02*
X58750000Y-114112500D01*
X57120000Y-115112500D02*
X82920000Y-115112500D01*
X57120000Y-120412500D02*
X57120000Y-115112500D01*
X57860000Y-120412500D02*
X57120000Y-120412500D01*
X59560000Y-112502500D02*
X60160000Y-112502500D01*
X59860000Y-113102500D02*
X59560000Y-112502500D01*
X60160000Y-112502500D02*
X59860000Y-113102500D01*
X60860000Y-114112500D02*
X63940000Y-114112500D01*
X61860000Y-120412500D02*
X62940000Y-120412500D01*
X65940000Y-114112500D02*
X69020000Y-114112500D01*
X66940000Y-120412500D02*
X68020000Y-120412500D01*
X71020000Y-114112500D02*
X74100000Y-114112500D01*
X72020000Y-120412500D02*
X73100000Y-120412500D01*
X76100000Y-114112500D02*
X79180000Y-114112500D01*
X77100000Y-120412500D02*
X78180000Y-120412500D01*
X82920000Y-115112500D02*
X82920000Y-120412500D01*
X82920000Y-120412500D02*
X82180000Y-120412500D01*
X83830000Y-114112500D02*
X81290000Y-114112500D01*
X56210000Y-113302500D02*
X83830000Y-113302500D01*
X83830000Y-122122500D01*
X56210000Y-122122500D01*
X56210000Y-113302500D01*
X58860000Y-113302500D02*
X60860000Y-113302500D01*
X60860000Y-115112500D01*
X58860000Y-115112500D01*
X58860000Y-113302500D01*
X63940000Y-113302500D02*
X65940000Y-113302500D01*
X65940000Y-115112500D01*
X63940000Y-115112500D01*
X63940000Y-113302500D01*
X69020000Y-113302500D02*
X71020000Y-113302500D01*
X71020000Y-115112500D01*
X69020000Y-115112500D01*
X69020000Y-113302500D01*
X74100000Y-113302500D02*
X76100000Y-113302500D01*
X76100000Y-115112500D01*
X74100000Y-115112500D01*
X74100000Y-113302500D01*
X79180000Y-113302500D02*
X81180000Y-113302500D01*
X81180000Y-115112500D01*
X79180000Y-115112500D01*
X79180000Y-113302500D01*
X61846842Y-120428321D02*
G75*
G02*
X57860000Y-120412500I-1986842J1665821D01*
G01*
X66926842Y-120428321D02*
G75*
G02*
X62940000Y-120412500I-1986842J1665821D01*
G01*
X72006842Y-120428321D02*
G75*
G02*
X68020000Y-120412500I-1986842J1665821D01*
G01*
X77086842Y-120428321D02*
G75*
G02*
X73100000Y-120412500I-1986842J1665821D01*
G01*
X82166842Y-120428321D02*
G75*
G02*
X78180000Y-120412500I-1986842J1665821D01*
G01*
%TO.C,J3*%
X40890000Y-114145000D02*
X43430000Y-114145000D01*
X41800000Y-115145000D02*
X52360000Y-115145000D01*
X41800000Y-120445000D02*
X41800000Y-115145000D01*
X42540000Y-120445000D02*
X41800000Y-120445000D01*
X44240000Y-112535000D02*
X44840000Y-112535000D01*
X44540000Y-113135000D02*
X44240000Y-112535000D01*
X44840000Y-112535000D02*
X44540000Y-113135000D01*
X45540000Y-114145000D02*
X48620000Y-114145000D01*
X46540000Y-120445000D02*
X47620000Y-120445000D01*
X52360000Y-115145000D02*
X52360000Y-120445000D01*
X52360000Y-120445000D02*
X51620000Y-120445000D01*
X53270000Y-114145000D02*
X50730000Y-114145000D01*
X40890000Y-113335000D02*
X53270000Y-113335000D01*
X53270000Y-122155000D01*
X40890000Y-122155000D01*
X40890000Y-113335000D01*
X43540000Y-113335000D02*
X45540000Y-113335000D01*
X45540000Y-115145000D01*
X43540000Y-115145000D01*
X43540000Y-113335000D01*
X48620000Y-113335000D02*
X50620000Y-113335000D01*
X50620000Y-115145000D01*
X48620000Y-115145000D01*
X48620000Y-113335000D01*
X46526842Y-120460821D02*
G75*
G02*
X42540000Y-120445000I-1986842J1665821D01*
G01*
X51606842Y-120460821D02*
G75*
G02*
X47620000Y-120445000I-1986842J1665821D01*
G01*
%TO.C,C5*%
X39520000Y-118165937D02*
X29360000Y-118165937D01*
X39520000Y-118125937D02*
X29360000Y-118125937D01*
X39519000Y-118245937D02*
X29361000Y-118245937D01*
X39519000Y-118205937D02*
X29361000Y-118205937D01*
X39517000Y-118285937D02*
X29363000Y-118285937D01*
X39516000Y-118325937D02*
X29364000Y-118325937D01*
X39514000Y-118365937D02*
X35480000Y-118365937D01*
X39512000Y-118405937D02*
X35480000Y-118405937D01*
X39510000Y-118445937D02*
X35480000Y-118445937D01*
X39507000Y-118485937D02*
X35480000Y-118485937D01*
X39504000Y-118525937D02*
X35480000Y-118525937D01*
X39501000Y-118565937D02*
X35480000Y-118565937D01*
X39497000Y-118605937D02*
X35480000Y-118605937D01*
X39494000Y-118645937D02*
X35480000Y-118645937D01*
X39489000Y-118685937D02*
X35480000Y-118685937D01*
X39485000Y-118725937D02*
X35480000Y-118725937D01*
X39480000Y-118765937D02*
X35480000Y-118765937D01*
X39475000Y-118805937D02*
X35480000Y-118805937D01*
X39469000Y-118845937D02*
X35480000Y-118845937D01*
X39463000Y-118885937D02*
X35480000Y-118885937D01*
X39457000Y-118925937D02*
X35480000Y-118925937D01*
X39451000Y-118965937D02*
X35480000Y-118965937D01*
X39444000Y-119005937D02*
X35480000Y-119005937D01*
X39437000Y-119045937D02*
X35480000Y-119045937D01*
X39429000Y-119085937D02*
X35480000Y-119085937D01*
X39421000Y-119125937D02*
X35480000Y-119125937D01*
X39413000Y-119165937D02*
X35480000Y-119165937D01*
X39405000Y-119205937D02*
X35480000Y-119205937D01*
X39396000Y-119245937D02*
X35480000Y-119245937D01*
X39387000Y-119285937D02*
X35480000Y-119285937D01*
X39377000Y-119325937D02*
X35480000Y-119325937D01*
X39368000Y-119365937D02*
X35480000Y-119365937D01*
X39357000Y-119405937D02*
X35480000Y-119405937D01*
X39347000Y-119445937D02*
X35480000Y-119445937D01*
X39336000Y-119485937D02*
X35480000Y-119485937D01*
X39325000Y-119525937D02*
X35480000Y-119525937D01*
X39313000Y-119565937D02*
X35480000Y-119565937D01*
X39301000Y-119605937D02*
X35480000Y-119605937D01*
X39289000Y-119645937D02*
X35480000Y-119645937D01*
X39277000Y-119685937D02*
X35480000Y-119685937D01*
X39264000Y-119725937D02*
X35480000Y-119725937D01*
X39250000Y-119765937D02*
X35480000Y-119765937D01*
X39237000Y-119805937D02*
X35480000Y-119805937D01*
X39222000Y-119845937D02*
X35480000Y-119845937D01*
X39208000Y-119885937D02*
X35480000Y-119885937D01*
X39193000Y-119925937D02*
X35480000Y-119925937D01*
X39178000Y-119965937D02*
X35480000Y-119965937D01*
X39162000Y-120005937D02*
X35480000Y-120005937D01*
X39146000Y-120045937D02*
X35480000Y-120045937D01*
X39130000Y-120085937D02*
X35480000Y-120085937D01*
X39113000Y-120125937D02*
X35480000Y-120125937D01*
X39096000Y-120165937D02*
X35480000Y-120165937D01*
X39078000Y-120205937D02*
X35480000Y-120205937D01*
X39060000Y-120245937D02*
X35480000Y-120245937D01*
X39042000Y-120285937D02*
X35480000Y-120285937D01*
X39023000Y-120325937D02*
X35480000Y-120325937D01*
X39004000Y-120365937D02*
X35480000Y-120365937D01*
X38984000Y-120405937D02*
X35480000Y-120405937D01*
X38964000Y-120445937D02*
X33880000Y-120445937D01*
X38944000Y-120485937D02*
X33880000Y-120485937D01*
X38923000Y-120525937D02*
X33880000Y-120525937D01*
X38901000Y-120565937D02*
X33880000Y-120565937D01*
X38879000Y-120605937D02*
X33880000Y-120605937D01*
X38857000Y-120645937D02*
X33880000Y-120645937D01*
X38834000Y-120685937D02*
X33880000Y-120685937D01*
X38811000Y-120725937D02*
X33880000Y-120725937D01*
X38787000Y-120765937D02*
X33880000Y-120765937D01*
X38763000Y-120805937D02*
X33880000Y-120805937D01*
X38738000Y-120845937D02*
X33880000Y-120845937D01*
X38712000Y-120885937D02*
X33880000Y-120885937D01*
X38687000Y-120925937D02*
X33880000Y-120925937D01*
X38660000Y-120965937D02*
X33880000Y-120965937D01*
X38633000Y-121005937D02*
X33880000Y-121005937D01*
X38606000Y-121045937D02*
X33880000Y-121045937D01*
X38578000Y-121085937D02*
X33880000Y-121085937D01*
X38549000Y-121125937D02*
X30331000Y-121125937D01*
X38520000Y-121165937D02*
X30360000Y-121165937D01*
X38490000Y-121205937D02*
X30390000Y-121205937D01*
X38460000Y-121245937D02*
X30420000Y-121245937D01*
X38428000Y-121285937D02*
X30452000Y-121285937D01*
X38397000Y-121325937D02*
X30483000Y-121325937D01*
X38364000Y-121365937D02*
X30516000Y-121365937D01*
X38331000Y-121405937D02*
X30549000Y-121405937D01*
X38298000Y-121445937D02*
X30582000Y-121445937D01*
X38263000Y-121485937D02*
X30617000Y-121485937D01*
X38228000Y-121525937D02*
X30652000Y-121525937D01*
X38192000Y-121565937D02*
X30688000Y-121565937D01*
X38156000Y-121605937D02*
X30724000Y-121605937D01*
X38118000Y-121645937D02*
X30762000Y-121645937D01*
X38080000Y-121685937D02*
X30800000Y-121685937D01*
X38041000Y-121725937D02*
X30839000Y-121725937D01*
X38001000Y-121765937D02*
X30879000Y-121765937D01*
X37960000Y-121805937D02*
X30920000Y-121805937D01*
X37918000Y-121845937D02*
X30962000Y-121845937D01*
X37875000Y-121885937D02*
X31005000Y-121885937D01*
X37831000Y-121925937D02*
X31049000Y-121925937D01*
X37815000Y-113146291D02*
X36815000Y-113146291D01*
X37787000Y-121965937D02*
X31093000Y-121965937D01*
X37741000Y-122005937D02*
X31139000Y-122005937D01*
X37694000Y-122045937D02*
X31186000Y-122045937D01*
X37645000Y-122085937D02*
X31235000Y-122085937D01*
X37596000Y-122125937D02*
X31284000Y-122125937D01*
X37545000Y-122165937D02*
X31335000Y-122165937D01*
X37493000Y-122205937D02*
X31387000Y-122205937D01*
X37440000Y-122245937D02*
X31440000Y-122245937D01*
X37385000Y-122285937D02*
X31495000Y-122285937D01*
X37328000Y-122325937D02*
X31552000Y-122325937D01*
X37315000Y-112646291D02*
X37315000Y-113646291D01*
X37270000Y-122365937D02*
X31610000Y-122365937D01*
X37210000Y-122405937D02*
X31670000Y-122405937D01*
X37148000Y-122445937D02*
X31732000Y-122445937D01*
X37084000Y-122485937D02*
X31796000Y-122485937D01*
X37018000Y-122525937D02*
X31862000Y-122525937D01*
X36950000Y-122565937D02*
X31930000Y-122565937D01*
X36879000Y-122605937D02*
X32001000Y-122605937D01*
X36805000Y-122645937D02*
X32075000Y-122645937D01*
X36728000Y-122685937D02*
X32152000Y-122685937D01*
X36648000Y-122725937D02*
X32232000Y-122725937D01*
X36564000Y-122765937D02*
X32316000Y-122765937D01*
X36477000Y-122805937D02*
X32403000Y-122805937D01*
X36384000Y-122845937D02*
X32496000Y-122845937D01*
X36286000Y-122885937D02*
X32594000Y-122885937D01*
X36182000Y-122925937D02*
X32698000Y-122925937D01*
X36070000Y-122965937D02*
X32810000Y-122965937D01*
X35949000Y-123005937D02*
X32931000Y-123005937D01*
X35817000Y-123045937D02*
X33063000Y-123045937D01*
X35670000Y-123085937D02*
X33210000Y-123085937D01*
X35502000Y-123125937D02*
X33378000Y-123125937D01*
X35302000Y-123165937D02*
X33578000Y-123165937D01*
X35039000Y-123205937D02*
X33841000Y-123205937D01*
X33400000Y-119005937D02*
X29436000Y-119005937D01*
X33400000Y-118965937D02*
X29429000Y-118965937D01*
X33400000Y-118925937D02*
X29423000Y-118925937D01*
X33400000Y-118885937D02*
X29417000Y-118885937D01*
X33400000Y-118845937D02*
X29411000Y-118845937D01*
X33400000Y-118805937D02*
X29405000Y-118805937D01*
X33400000Y-118765937D02*
X29400000Y-118765937D01*
X33400000Y-118725937D02*
X29395000Y-118725937D01*
X33400000Y-118685937D02*
X29391000Y-118685937D01*
X33400000Y-118645937D02*
X29386000Y-118645937D01*
X33400000Y-118605937D02*
X29383000Y-118605937D01*
X33400000Y-118565937D02*
X29379000Y-118565937D01*
X33400000Y-118525937D02*
X29376000Y-118525937D01*
X33400000Y-118485937D02*
X29373000Y-118485937D01*
X33400000Y-118445937D02*
X29370000Y-118445937D01*
X33400000Y-118405937D02*
X29368000Y-118405937D01*
X33400000Y-118365937D02*
X29366000Y-118365937D01*
X31800000Y-121085937D02*
X30302000Y-121085937D01*
X31800000Y-121045937D02*
X30274000Y-121045937D01*
X31800000Y-121005937D02*
X30247000Y-121005937D01*
X31800000Y-120965937D02*
X30220000Y-120965937D01*
X31800000Y-120925937D02*
X30193000Y-120925937D01*
X31800000Y-120885937D02*
X30168000Y-120885937D01*
X31800000Y-120845937D02*
X30142000Y-120845937D01*
X31800000Y-120805937D02*
X30117000Y-120805937D01*
X31800000Y-120765937D02*
X30093000Y-120765937D01*
X31800000Y-120725937D02*
X30069000Y-120725937D01*
X31800000Y-120685937D02*
X30046000Y-120685937D01*
X31800000Y-120645937D02*
X30023000Y-120645937D01*
X31800000Y-120605937D02*
X30001000Y-120605937D01*
X31800000Y-120565937D02*
X29979000Y-120565937D01*
X31800000Y-120525937D02*
X29957000Y-120525937D01*
X31800000Y-120485937D02*
X29936000Y-120485937D01*
X31800000Y-120445937D02*
X29916000Y-120445937D01*
X31800000Y-120405937D02*
X29896000Y-120405937D01*
X31800000Y-120365937D02*
X29876000Y-120365937D01*
X31800000Y-120325937D02*
X29857000Y-120325937D01*
X31800000Y-120285937D02*
X29838000Y-120285937D01*
X31800000Y-120245937D02*
X29820000Y-120245937D01*
X31800000Y-120205937D02*
X29802000Y-120205937D01*
X31800000Y-120165937D02*
X29784000Y-120165937D01*
X31800000Y-120125937D02*
X29767000Y-120125937D01*
X31800000Y-120085937D02*
X29750000Y-120085937D01*
X31800000Y-120045937D02*
X29734000Y-120045937D01*
X31800000Y-120005937D02*
X29718000Y-120005937D01*
X31800000Y-119965937D02*
X29702000Y-119965937D01*
X31800000Y-119925937D02*
X29687000Y-119925937D01*
X31800000Y-119885937D02*
X29672000Y-119885937D01*
X31800000Y-119845937D02*
X29658000Y-119845937D01*
X31800000Y-119805937D02*
X29643000Y-119805937D01*
X31800000Y-119765937D02*
X29630000Y-119765937D01*
X31800000Y-119725937D02*
X29616000Y-119725937D01*
X31800000Y-119685937D02*
X29603000Y-119685937D01*
X31800000Y-119645937D02*
X29591000Y-119645937D01*
X31800000Y-119605937D02*
X29579000Y-119605937D01*
X31800000Y-119565937D02*
X29567000Y-119565937D01*
X31800000Y-119525937D02*
X29555000Y-119525937D01*
X31800000Y-119485937D02*
X29544000Y-119485937D01*
X31800000Y-119445937D02*
X29533000Y-119445937D01*
X31800000Y-119405937D02*
X29523000Y-119405937D01*
X31800000Y-119365937D02*
X29512000Y-119365937D01*
X31800000Y-119325937D02*
X29503000Y-119325937D01*
X31800000Y-119285937D02*
X29493000Y-119285937D01*
X31800000Y-119245937D02*
X29484000Y-119245937D01*
X31800000Y-119205937D02*
X29475000Y-119205937D01*
X31800000Y-119165937D02*
X29467000Y-119165937D01*
X31800000Y-119125937D02*
X29459000Y-119125937D01*
X31800000Y-119085937D02*
X29451000Y-119085937D01*
X31800000Y-119045937D02*
X29443000Y-119045937D01*
X39560000Y-118125937D02*
G75*
G02*
X29320000Y-118125937I-5120000J0D01*
G01*
X29320000Y-118125937D02*
G75*
G02*
X39560000Y-118125937I5120000J0D01*
G01*
%TO.C,C2*%
X64879000Y-135785000D02*
X63681000Y-135785000D01*
X65142000Y-135745000D02*
X63418000Y-135745000D01*
X65342000Y-135705000D02*
X63218000Y-135705000D01*
X65510000Y-135665000D02*
X63050000Y-135665000D01*
X65657000Y-135625000D02*
X62903000Y-135625000D01*
X65789000Y-135585000D02*
X62771000Y-135585000D01*
X65910000Y-135545000D02*
X62650000Y-135545000D01*
X66022000Y-135505000D02*
X62538000Y-135505000D01*
X66126000Y-135465000D02*
X62434000Y-135465000D01*
X66224000Y-135425000D02*
X62336000Y-135425000D01*
X66317000Y-135385000D02*
X62243000Y-135385000D01*
X66404000Y-135345000D02*
X62156000Y-135345000D01*
X66488000Y-135305000D02*
X62072000Y-135305000D01*
X66568000Y-135265000D02*
X61992000Y-135265000D01*
X66645000Y-135225000D02*
X61915000Y-135225000D01*
X66719000Y-135185000D02*
X61841000Y-135185000D01*
X66790000Y-135145000D02*
X61770000Y-135145000D01*
X66858000Y-135105000D02*
X61702000Y-135105000D01*
X66924000Y-135065000D02*
X61636000Y-135065000D01*
X66988000Y-135025000D02*
X61572000Y-135025000D01*
X67050000Y-134985000D02*
X61510000Y-134985000D01*
X67110000Y-134945000D02*
X61450000Y-134945000D01*
X67168000Y-134905000D02*
X61392000Y-134905000D01*
X67225000Y-134865000D02*
X61335000Y-134865000D01*
X67280000Y-134825000D02*
X61280000Y-134825000D01*
X67333000Y-134785000D02*
X61227000Y-134785000D01*
X67385000Y-134745000D02*
X61175000Y-134745000D01*
X67436000Y-134705000D02*
X61124000Y-134705000D01*
X67485000Y-134665000D02*
X61075000Y-134665000D01*
X67534000Y-134625000D02*
X61026000Y-134625000D01*
X67581000Y-134585000D02*
X60979000Y-134585000D01*
X67627000Y-134545000D02*
X60933000Y-134545000D01*
X67671000Y-134505000D02*
X60889000Y-134505000D01*
X67715000Y-134465000D02*
X60845000Y-134465000D01*
X67758000Y-134425000D02*
X60802000Y-134425000D01*
X67800000Y-134385000D02*
X60760000Y-134385000D01*
X67841000Y-134345000D02*
X60719000Y-134345000D01*
X67881000Y-134305000D02*
X60679000Y-134305000D01*
X67920000Y-134265000D02*
X60640000Y-134265000D01*
X67958000Y-134225000D02*
X60602000Y-134225000D01*
X67996000Y-134185000D02*
X60564000Y-134185000D01*
X68032000Y-134145000D02*
X60528000Y-134145000D01*
X68068000Y-134105000D02*
X60492000Y-134105000D01*
X68103000Y-134065000D02*
X60457000Y-134065000D01*
X68138000Y-134025000D02*
X60422000Y-134025000D01*
X68171000Y-133985000D02*
X60389000Y-133985000D01*
X68204000Y-133945000D02*
X60356000Y-133945000D01*
X68237000Y-133905000D02*
X60323000Y-133905000D01*
X68268000Y-133865000D02*
X60292000Y-133865000D01*
X68300000Y-133825000D02*
X60260000Y-133825000D01*
X68330000Y-133785000D02*
X60230000Y-133785000D01*
X68360000Y-133745000D02*
X60200000Y-133745000D01*
X68389000Y-133705000D02*
X60171000Y-133705000D01*
X61640000Y-133665000D02*
X60142000Y-133665000D01*
X68418000Y-133665000D02*
X63720000Y-133665000D01*
X61640000Y-133625000D02*
X60114000Y-133625000D01*
X68446000Y-133625000D02*
X63720000Y-133625000D01*
X61640000Y-133585000D02*
X60087000Y-133585000D01*
X68473000Y-133585000D02*
X63720000Y-133585000D01*
X61640000Y-133545000D02*
X60060000Y-133545000D01*
X68500000Y-133545000D02*
X63720000Y-133545000D01*
X61640000Y-133505000D02*
X60033000Y-133505000D01*
X68527000Y-133505000D02*
X63720000Y-133505000D01*
X61640000Y-133465000D02*
X60008000Y-133465000D01*
X68552000Y-133465000D02*
X63720000Y-133465000D01*
X61640000Y-133425000D02*
X59982000Y-133425000D01*
X68578000Y-133425000D02*
X63720000Y-133425000D01*
X61640000Y-133385000D02*
X59957000Y-133385000D01*
X68603000Y-133385000D02*
X63720000Y-133385000D01*
X61640000Y-133345000D02*
X59933000Y-133345000D01*
X68627000Y-133345000D02*
X63720000Y-133345000D01*
X61640000Y-133305000D02*
X59909000Y-133305000D01*
X68651000Y-133305000D02*
X63720000Y-133305000D01*
X61640000Y-133265000D02*
X59886000Y-133265000D01*
X68674000Y-133265000D02*
X63720000Y-133265000D01*
X61640000Y-133225000D02*
X59863000Y-133225000D01*
X68697000Y-133225000D02*
X63720000Y-133225000D01*
X61640000Y-133185000D02*
X59841000Y-133185000D01*
X68719000Y-133185000D02*
X63720000Y-133185000D01*
X61640000Y-133145000D02*
X59819000Y-133145000D01*
X68741000Y-133145000D02*
X63720000Y-133145000D01*
X61640000Y-133105000D02*
X59797000Y-133105000D01*
X68763000Y-133105000D02*
X63720000Y-133105000D01*
X61640000Y-133065000D02*
X59776000Y-133065000D01*
X68784000Y-133065000D02*
X63720000Y-133065000D01*
X61640000Y-133025000D02*
X59756000Y-133025000D01*
X68804000Y-133025000D02*
X63720000Y-133025000D01*
X61640000Y-132985000D02*
X59736000Y-132985000D01*
X68824000Y-132985000D02*
X65320000Y-132985000D01*
X61640000Y-132945000D02*
X59716000Y-132945000D01*
X68844000Y-132945000D02*
X65320000Y-132945000D01*
X61640000Y-132905000D02*
X59697000Y-132905000D01*
X68863000Y-132905000D02*
X65320000Y-132905000D01*
X61640000Y-132865000D02*
X59678000Y-132865000D01*
X68882000Y-132865000D02*
X65320000Y-132865000D01*
X61640000Y-132825000D02*
X59660000Y-132825000D01*
X68900000Y-132825000D02*
X65320000Y-132825000D01*
X61640000Y-132785000D02*
X59642000Y-132785000D01*
X68918000Y-132785000D02*
X65320000Y-132785000D01*
X61640000Y-132745000D02*
X59624000Y-132745000D01*
X68936000Y-132745000D02*
X65320000Y-132745000D01*
X61640000Y-132705000D02*
X59607000Y-132705000D01*
X68953000Y-132705000D02*
X65320000Y-132705000D01*
X61640000Y-132665000D02*
X59590000Y-132665000D01*
X68970000Y-132665000D02*
X65320000Y-132665000D01*
X61640000Y-132625000D02*
X59574000Y-132625000D01*
X68986000Y-132625000D02*
X65320000Y-132625000D01*
X61640000Y-132585000D02*
X59558000Y-132585000D01*
X69002000Y-132585000D02*
X65320000Y-132585000D01*
X61640000Y-132545000D02*
X59542000Y-132545000D01*
X69018000Y-132545000D02*
X65320000Y-132545000D01*
X61640000Y-132505000D02*
X59527000Y-132505000D01*
X69033000Y-132505000D02*
X65320000Y-132505000D01*
X61640000Y-132465000D02*
X59512000Y-132465000D01*
X69048000Y-132465000D02*
X65320000Y-132465000D01*
X61640000Y-132425000D02*
X59498000Y-132425000D01*
X69062000Y-132425000D02*
X65320000Y-132425000D01*
X61640000Y-132385000D02*
X59483000Y-132385000D01*
X69077000Y-132385000D02*
X65320000Y-132385000D01*
X61640000Y-132345000D02*
X59470000Y-132345000D01*
X69090000Y-132345000D02*
X65320000Y-132345000D01*
X61640000Y-132305000D02*
X59456000Y-132305000D01*
X69104000Y-132305000D02*
X65320000Y-132305000D01*
X61640000Y-132265000D02*
X59443000Y-132265000D01*
X69117000Y-132265000D02*
X65320000Y-132265000D01*
X61640000Y-132225000D02*
X59431000Y-132225000D01*
X69129000Y-132225000D02*
X65320000Y-132225000D01*
X61640000Y-132185000D02*
X59419000Y-132185000D01*
X69141000Y-132185000D02*
X65320000Y-132185000D01*
X61640000Y-132145000D02*
X59407000Y-132145000D01*
X69153000Y-132145000D02*
X65320000Y-132145000D01*
X61640000Y-132105000D02*
X59395000Y-132105000D01*
X69165000Y-132105000D02*
X65320000Y-132105000D01*
X61640000Y-132065000D02*
X59384000Y-132065000D01*
X69176000Y-132065000D02*
X65320000Y-132065000D01*
X61640000Y-132025000D02*
X59373000Y-132025000D01*
X69187000Y-132025000D02*
X65320000Y-132025000D01*
X61640000Y-131985000D02*
X59363000Y-131985000D01*
X69197000Y-131985000D02*
X65320000Y-131985000D01*
X61640000Y-131945000D02*
X59352000Y-131945000D01*
X69208000Y-131945000D02*
X65320000Y-131945000D01*
X61640000Y-131905000D02*
X59343000Y-131905000D01*
X69217000Y-131905000D02*
X65320000Y-131905000D01*
X61640000Y-131865000D02*
X59333000Y-131865000D01*
X69227000Y-131865000D02*
X65320000Y-131865000D01*
X61640000Y-131825000D02*
X59324000Y-131825000D01*
X69236000Y-131825000D02*
X65320000Y-131825000D01*
X61640000Y-131785000D02*
X59315000Y-131785000D01*
X69245000Y-131785000D02*
X65320000Y-131785000D01*
X61640000Y-131745000D02*
X59307000Y-131745000D01*
X69253000Y-131745000D02*
X65320000Y-131745000D01*
X61640000Y-131705000D02*
X59299000Y-131705000D01*
X69261000Y-131705000D02*
X65320000Y-131705000D01*
X61640000Y-131665000D02*
X59291000Y-131665000D01*
X69269000Y-131665000D02*
X65320000Y-131665000D01*
X61640000Y-131625000D02*
X59283000Y-131625000D01*
X69277000Y-131625000D02*
X65320000Y-131625000D01*
X63240000Y-131585000D02*
X59276000Y-131585000D01*
X69284000Y-131585000D02*
X65320000Y-131585000D01*
X63240000Y-131545000D02*
X59269000Y-131545000D01*
X69291000Y-131545000D02*
X65320000Y-131545000D01*
X63240000Y-131505000D02*
X59263000Y-131505000D01*
X69297000Y-131505000D02*
X65320000Y-131505000D01*
X63240000Y-131465000D02*
X59257000Y-131465000D01*
X69303000Y-131465000D02*
X65320000Y-131465000D01*
X63240000Y-131425000D02*
X59251000Y-131425000D01*
X69309000Y-131425000D02*
X65320000Y-131425000D01*
X63240000Y-131385000D02*
X59245000Y-131385000D01*
X69315000Y-131385000D02*
X65320000Y-131385000D01*
X63240000Y-131345000D02*
X59240000Y-131345000D01*
X69320000Y-131345000D02*
X65320000Y-131345000D01*
X63240000Y-131305000D02*
X59235000Y-131305000D01*
X69325000Y-131305000D02*
X65320000Y-131305000D01*
X63240000Y-131265000D02*
X59231000Y-131265000D01*
X69329000Y-131265000D02*
X65320000Y-131265000D01*
X63240000Y-131225000D02*
X59226000Y-131225000D01*
X69334000Y-131225000D02*
X65320000Y-131225000D01*
X63240000Y-131185000D02*
X59223000Y-131185000D01*
X69337000Y-131185000D02*
X65320000Y-131185000D01*
X63240000Y-131145000D02*
X59219000Y-131145000D01*
X69341000Y-131145000D02*
X65320000Y-131145000D01*
X63240000Y-131105000D02*
X59216000Y-131105000D01*
X69344000Y-131105000D02*
X65320000Y-131105000D01*
X63240000Y-131065000D02*
X59213000Y-131065000D01*
X69347000Y-131065000D02*
X65320000Y-131065000D01*
X63240000Y-131025000D02*
X59210000Y-131025000D01*
X69350000Y-131025000D02*
X65320000Y-131025000D01*
X63240000Y-130985000D02*
X59208000Y-130985000D01*
X69352000Y-130985000D02*
X65320000Y-130985000D01*
X63240000Y-130945000D02*
X59206000Y-130945000D01*
X69354000Y-130945000D02*
X65320000Y-130945000D01*
X69356000Y-130905000D02*
X59204000Y-130905000D01*
X69357000Y-130865000D02*
X59203000Y-130865000D01*
X69359000Y-130825000D02*
X59201000Y-130825000D01*
X69359000Y-130785000D02*
X59201000Y-130785000D01*
X69360000Y-130745000D02*
X59200000Y-130745000D01*
X69360000Y-130705000D02*
X59200000Y-130705000D01*
X67655000Y-125725354D02*
X66655000Y-125725354D01*
X67155000Y-125225354D02*
X67155000Y-126225354D01*
X69400000Y-130705000D02*
G75*
G02*
X59160000Y-130705000I-5120000J0D01*
G01*
X59160000Y-130705000D02*
G75*
G02*
X69400000Y-130705000I5120000J0D01*
G01*
%TO.C,C4*%
X39690000Y-130795000D02*
X29530000Y-130795000D01*
X39690000Y-130755000D02*
X29530000Y-130755000D01*
X39689000Y-130875000D02*
X29531000Y-130875000D01*
X39689000Y-130835000D02*
X29531000Y-130835000D01*
X39687000Y-130915000D02*
X29533000Y-130915000D01*
X39686000Y-130955000D02*
X29534000Y-130955000D01*
X39684000Y-130995000D02*
X35650000Y-130995000D01*
X39682000Y-131035000D02*
X35650000Y-131035000D01*
X39680000Y-131075000D02*
X35650000Y-131075000D01*
X39677000Y-131115000D02*
X35650000Y-131115000D01*
X39674000Y-131155000D02*
X35650000Y-131155000D01*
X39671000Y-131195000D02*
X35650000Y-131195000D01*
X39667000Y-131235000D02*
X35650000Y-131235000D01*
X39664000Y-131275000D02*
X35650000Y-131275000D01*
X39659000Y-131315000D02*
X35650000Y-131315000D01*
X39655000Y-131355000D02*
X35650000Y-131355000D01*
X39650000Y-131395000D02*
X35650000Y-131395000D01*
X39645000Y-131435000D02*
X35650000Y-131435000D01*
X39639000Y-131475000D02*
X35650000Y-131475000D01*
X39633000Y-131515000D02*
X35650000Y-131515000D01*
X39627000Y-131555000D02*
X35650000Y-131555000D01*
X39621000Y-131595000D02*
X35650000Y-131595000D01*
X39614000Y-131635000D02*
X35650000Y-131635000D01*
X39607000Y-131675000D02*
X35650000Y-131675000D01*
X39599000Y-131715000D02*
X35650000Y-131715000D01*
X39591000Y-131755000D02*
X35650000Y-131755000D01*
X39583000Y-131795000D02*
X35650000Y-131795000D01*
X39575000Y-131835000D02*
X35650000Y-131835000D01*
X39566000Y-131875000D02*
X35650000Y-131875000D01*
X39557000Y-131915000D02*
X35650000Y-131915000D01*
X39547000Y-131955000D02*
X35650000Y-131955000D01*
X39538000Y-131995000D02*
X35650000Y-131995000D01*
X39527000Y-132035000D02*
X35650000Y-132035000D01*
X39517000Y-132075000D02*
X35650000Y-132075000D01*
X39506000Y-132115000D02*
X35650000Y-132115000D01*
X39495000Y-132155000D02*
X35650000Y-132155000D01*
X39483000Y-132195000D02*
X35650000Y-132195000D01*
X39471000Y-132235000D02*
X35650000Y-132235000D01*
X39459000Y-132275000D02*
X35650000Y-132275000D01*
X39447000Y-132315000D02*
X35650000Y-132315000D01*
X39434000Y-132355000D02*
X35650000Y-132355000D01*
X39420000Y-132395000D02*
X35650000Y-132395000D01*
X39407000Y-132435000D02*
X35650000Y-132435000D01*
X39392000Y-132475000D02*
X35650000Y-132475000D01*
X39378000Y-132515000D02*
X35650000Y-132515000D01*
X39363000Y-132555000D02*
X35650000Y-132555000D01*
X39348000Y-132595000D02*
X35650000Y-132595000D01*
X39332000Y-132635000D02*
X35650000Y-132635000D01*
X39316000Y-132675000D02*
X35650000Y-132675000D01*
X39300000Y-132715000D02*
X35650000Y-132715000D01*
X39283000Y-132755000D02*
X35650000Y-132755000D01*
X39266000Y-132795000D02*
X35650000Y-132795000D01*
X39248000Y-132835000D02*
X35650000Y-132835000D01*
X39230000Y-132875000D02*
X35650000Y-132875000D01*
X39212000Y-132915000D02*
X35650000Y-132915000D01*
X39193000Y-132955000D02*
X35650000Y-132955000D01*
X39174000Y-132995000D02*
X35650000Y-132995000D01*
X39154000Y-133035000D02*
X35650000Y-133035000D01*
X39134000Y-133075000D02*
X34050000Y-133075000D01*
X39114000Y-133115000D02*
X34050000Y-133115000D01*
X39093000Y-133155000D02*
X34050000Y-133155000D01*
X39071000Y-133195000D02*
X34050000Y-133195000D01*
X39049000Y-133235000D02*
X34050000Y-133235000D01*
X39027000Y-133275000D02*
X34050000Y-133275000D01*
X39004000Y-133315000D02*
X34050000Y-133315000D01*
X38981000Y-133355000D02*
X34050000Y-133355000D01*
X38957000Y-133395000D02*
X34050000Y-133395000D01*
X38933000Y-133435000D02*
X34050000Y-133435000D01*
X38908000Y-133475000D02*
X34050000Y-133475000D01*
X38882000Y-133515000D02*
X34050000Y-133515000D01*
X38857000Y-133555000D02*
X34050000Y-133555000D01*
X38830000Y-133595000D02*
X34050000Y-133595000D01*
X38803000Y-133635000D02*
X34050000Y-133635000D01*
X38776000Y-133675000D02*
X34050000Y-133675000D01*
X38748000Y-133715000D02*
X34050000Y-133715000D01*
X38719000Y-133755000D02*
X30501000Y-133755000D01*
X38690000Y-133795000D02*
X30530000Y-133795000D01*
X38660000Y-133835000D02*
X30560000Y-133835000D01*
X38630000Y-133875000D02*
X30590000Y-133875000D01*
X38598000Y-133915000D02*
X30622000Y-133915000D01*
X38567000Y-133955000D02*
X30653000Y-133955000D01*
X38534000Y-133995000D02*
X30686000Y-133995000D01*
X38501000Y-134035000D02*
X30719000Y-134035000D01*
X38468000Y-134075000D02*
X30752000Y-134075000D01*
X38433000Y-134115000D02*
X30787000Y-134115000D01*
X38398000Y-134155000D02*
X30822000Y-134155000D01*
X38362000Y-134195000D02*
X30858000Y-134195000D01*
X38326000Y-134235000D02*
X30894000Y-134235000D01*
X38288000Y-134275000D02*
X30932000Y-134275000D01*
X38250000Y-134315000D02*
X30970000Y-134315000D01*
X38211000Y-134355000D02*
X31009000Y-134355000D01*
X38171000Y-134395000D02*
X31049000Y-134395000D01*
X38130000Y-134435000D02*
X31090000Y-134435000D01*
X38088000Y-134475000D02*
X31132000Y-134475000D01*
X38045000Y-134515000D02*
X31175000Y-134515000D01*
X38001000Y-134555000D02*
X31219000Y-134555000D01*
X37985000Y-125775354D02*
X36985000Y-125775354D01*
X37957000Y-134595000D02*
X31263000Y-134595000D01*
X37911000Y-134635000D02*
X31309000Y-134635000D01*
X37864000Y-134675000D02*
X31356000Y-134675000D01*
X37815000Y-134715000D02*
X31405000Y-134715000D01*
X37766000Y-134755000D02*
X31454000Y-134755000D01*
X37715000Y-134795000D02*
X31505000Y-134795000D01*
X37663000Y-134835000D02*
X31557000Y-134835000D01*
X37610000Y-134875000D02*
X31610000Y-134875000D01*
X37555000Y-134915000D02*
X31665000Y-134915000D01*
X37498000Y-134955000D02*
X31722000Y-134955000D01*
X37485000Y-125275354D02*
X37485000Y-126275354D01*
X37440000Y-134995000D02*
X31780000Y-134995000D01*
X37380000Y-135035000D02*
X31840000Y-135035000D01*
X37318000Y-135075000D02*
X31902000Y-135075000D01*
X37254000Y-135115000D02*
X31966000Y-135115000D01*
X37188000Y-135155000D02*
X32032000Y-135155000D01*
X37120000Y-135195000D02*
X32100000Y-135195000D01*
X37049000Y-135235000D02*
X32171000Y-135235000D01*
X36975000Y-135275000D02*
X32245000Y-135275000D01*
X36898000Y-135315000D02*
X32322000Y-135315000D01*
X36818000Y-135355000D02*
X32402000Y-135355000D01*
X36734000Y-135395000D02*
X32486000Y-135395000D01*
X36647000Y-135435000D02*
X32573000Y-135435000D01*
X36554000Y-135475000D02*
X32666000Y-135475000D01*
X36456000Y-135515000D02*
X32764000Y-135515000D01*
X36352000Y-135555000D02*
X32868000Y-135555000D01*
X36240000Y-135595000D02*
X32980000Y-135595000D01*
X36119000Y-135635000D02*
X33101000Y-135635000D01*
X35987000Y-135675000D02*
X33233000Y-135675000D01*
X35840000Y-135715000D02*
X33380000Y-135715000D01*
X35672000Y-135755000D02*
X33548000Y-135755000D01*
X35472000Y-135795000D02*
X33748000Y-135795000D01*
X35209000Y-135835000D02*
X34011000Y-135835000D01*
X33570000Y-131635000D02*
X29606000Y-131635000D01*
X33570000Y-131595000D02*
X29599000Y-131595000D01*
X33570000Y-131555000D02*
X29593000Y-131555000D01*
X33570000Y-131515000D02*
X29587000Y-131515000D01*
X33570000Y-131475000D02*
X29581000Y-131475000D01*
X33570000Y-131435000D02*
X29575000Y-131435000D01*
X33570000Y-131395000D02*
X29570000Y-131395000D01*
X33570000Y-131355000D02*
X29565000Y-131355000D01*
X33570000Y-131315000D02*
X29561000Y-131315000D01*
X33570000Y-131275000D02*
X29556000Y-131275000D01*
X33570000Y-131235000D02*
X29553000Y-131235000D01*
X33570000Y-131195000D02*
X29549000Y-131195000D01*
X33570000Y-131155000D02*
X29546000Y-131155000D01*
X33570000Y-131115000D02*
X29543000Y-131115000D01*
X33570000Y-131075000D02*
X29540000Y-131075000D01*
X33570000Y-131035000D02*
X29538000Y-131035000D01*
X33570000Y-130995000D02*
X29536000Y-130995000D01*
X31970000Y-133715000D02*
X30472000Y-133715000D01*
X31970000Y-133675000D02*
X30444000Y-133675000D01*
X31970000Y-133635000D02*
X30417000Y-133635000D01*
X31970000Y-133595000D02*
X30390000Y-133595000D01*
X31970000Y-133555000D02*
X30363000Y-133555000D01*
X31970000Y-133515000D02*
X30338000Y-133515000D01*
X31970000Y-133475000D02*
X30312000Y-133475000D01*
X31970000Y-133435000D02*
X30287000Y-133435000D01*
X31970000Y-133395000D02*
X30263000Y-133395000D01*
X31970000Y-133355000D02*
X30239000Y-133355000D01*
X31970000Y-133315000D02*
X30216000Y-133315000D01*
X31970000Y-133275000D02*
X30193000Y-133275000D01*
X31970000Y-133235000D02*
X30171000Y-133235000D01*
X31970000Y-133195000D02*
X30149000Y-133195000D01*
X31970000Y-133155000D02*
X30127000Y-133155000D01*
X31970000Y-133115000D02*
X30106000Y-133115000D01*
X31970000Y-133075000D02*
X30086000Y-133075000D01*
X31970000Y-133035000D02*
X30066000Y-133035000D01*
X31970000Y-132995000D02*
X30046000Y-132995000D01*
X31970000Y-132955000D02*
X30027000Y-132955000D01*
X31970000Y-132915000D02*
X30008000Y-132915000D01*
X31970000Y-132875000D02*
X29990000Y-132875000D01*
X31970000Y-132835000D02*
X29972000Y-132835000D01*
X31970000Y-132795000D02*
X29954000Y-132795000D01*
X31970000Y-132755000D02*
X29937000Y-132755000D01*
X31970000Y-132715000D02*
X29920000Y-132715000D01*
X31970000Y-132675000D02*
X29904000Y-132675000D01*
X31970000Y-132635000D02*
X29888000Y-132635000D01*
X31970000Y-132595000D02*
X29872000Y-132595000D01*
X31970000Y-132555000D02*
X29857000Y-132555000D01*
X31970000Y-132515000D02*
X29842000Y-132515000D01*
X31970000Y-132475000D02*
X29828000Y-132475000D01*
X31970000Y-132435000D02*
X29813000Y-132435000D01*
X31970000Y-132395000D02*
X29800000Y-132395000D01*
X31970000Y-132355000D02*
X29786000Y-132355000D01*
X31970000Y-132315000D02*
X29773000Y-132315000D01*
X31970000Y-132275000D02*
X29761000Y-132275000D01*
X31970000Y-132235000D02*
X29749000Y-132235000D01*
X31970000Y-132195000D02*
X29737000Y-132195000D01*
X31970000Y-132155000D02*
X29725000Y-132155000D01*
X31970000Y-132115000D02*
X29714000Y-132115000D01*
X31970000Y-132075000D02*
X29703000Y-132075000D01*
X31970000Y-132035000D02*
X29693000Y-132035000D01*
X31970000Y-131995000D02*
X29682000Y-131995000D01*
X31970000Y-131955000D02*
X29673000Y-131955000D01*
X31970000Y-131915000D02*
X29663000Y-131915000D01*
X31970000Y-131875000D02*
X29654000Y-131875000D01*
X31970000Y-131835000D02*
X29645000Y-131835000D01*
X31970000Y-131795000D02*
X29637000Y-131795000D01*
X31970000Y-131755000D02*
X29629000Y-131755000D01*
X31970000Y-131715000D02*
X29621000Y-131715000D01*
X31970000Y-131675000D02*
X29613000Y-131675000D01*
X39730000Y-130755000D02*
G75*
G02*
X29490000Y-130755000I-5120000J0D01*
G01*
X29490000Y-130755000D02*
G75*
G02*
X39730000Y-130755000I5120000J0D01*
G01*
%TO.C,C11*%
X82919000Y-135775937D02*
X81721000Y-135775937D01*
X83182000Y-135735937D02*
X81458000Y-135735937D01*
X83382000Y-135695937D02*
X81258000Y-135695937D01*
X83550000Y-135655937D02*
X81090000Y-135655937D01*
X83697000Y-135615937D02*
X80943000Y-135615937D01*
X83829000Y-135575937D02*
X80811000Y-135575937D01*
X83950000Y-135535937D02*
X80690000Y-135535937D01*
X84062000Y-135495937D02*
X80578000Y-135495937D01*
X84166000Y-135455937D02*
X80474000Y-135455937D01*
X84264000Y-135415937D02*
X80376000Y-135415937D01*
X84357000Y-135375937D02*
X80283000Y-135375937D01*
X84444000Y-135335937D02*
X80196000Y-135335937D01*
X84528000Y-135295937D02*
X80112000Y-135295937D01*
X84608000Y-135255937D02*
X80032000Y-135255937D01*
X84685000Y-135215937D02*
X79955000Y-135215937D01*
X84759000Y-135175937D02*
X79881000Y-135175937D01*
X84830000Y-135135937D02*
X79810000Y-135135937D01*
X84898000Y-135095937D02*
X79742000Y-135095937D01*
X84964000Y-135055937D02*
X79676000Y-135055937D01*
X85028000Y-135015937D02*
X79612000Y-135015937D01*
X85090000Y-134975937D02*
X79550000Y-134975937D01*
X85150000Y-134935937D02*
X79490000Y-134935937D01*
X85208000Y-134895937D02*
X79432000Y-134895937D01*
X85265000Y-134855937D02*
X79375000Y-134855937D01*
X85320000Y-134815937D02*
X79320000Y-134815937D01*
X85373000Y-134775937D02*
X79267000Y-134775937D01*
X85425000Y-134735937D02*
X79215000Y-134735937D01*
X85476000Y-134695937D02*
X79164000Y-134695937D01*
X85525000Y-134655937D02*
X79115000Y-134655937D01*
X85574000Y-134615937D02*
X79066000Y-134615937D01*
X85621000Y-134575937D02*
X79019000Y-134575937D01*
X85667000Y-134535937D02*
X78973000Y-134535937D01*
X85711000Y-134495937D02*
X78929000Y-134495937D01*
X85755000Y-134455937D02*
X78885000Y-134455937D01*
X85798000Y-134415937D02*
X78842000Y-134415937D01*
X85840000Y-134375937D02*
X78800000Y-134375937D01*
X85881000Y-134335937D02*
X78759000Y-134335937D01*
X85921000Y-134295937D02*
X78719000Y-134295937D01*
X85960000Y-134255937D02*
X78680000Y-134255937D01*
X85998000Y-134215937D02*
X78642000Y-134215937D01*
X86036000Y-134175937D02*
X78604000Y-134175937D01*
X86072000Y-134135937D02*
X78568000Y-134135937D01*
X86108000Y-134095937D02*
X78532000Y-134095937D01*
X86143000Y-134055937D02*
X78497000Y-134055937D01*
X86178000Y-134015937D02*
X78462000Y-134015937D01*
X86211000Y-133975937D02*
X78429000Y-133975937D01*
X86244000Y-133935937D02*
X78396000Y-133935937D01*
X86277000Y-133895937D02*
X78363000Y-133895937D01*
X86308000Y-133855937D02*
X78332000Y-133855937D01*
X86340000Y-133815937D02*
X78300000Y-133815937D01*
X86370000Y-133775937D02*
X78270000Y-133775937D01*
X86400000Y-133735937D02*
X78240000Y-133735937D01*
X86429000Y-133695937D02*
X78211000Y-133695937D01*
X79680000Y-133655937D02*
X78182000Y-133655937D01*
X86458000Y-133655937D02*
X81760000Y-133655937D01*
X79680000Y-133615937D02*
X78154000Y-133615937D01*
X86486000Y-133615937D02*
X81760000Y-133615937D01*
X79680000Y-133575937D02*
X78127000Y-133575937D01*
X86513000Y-133575937D02*
X81760000Y-133575937D01*
X79680000Y-133535937D02*
X78100000Y-133535937D01*
X86540000Y-133535937D02*
X81760000Y-133535937D01*
X79680000Y-133495937D02*
X78073000Y-133495937D01*
X86567000Y-133495937D02*
X81760000Y-133495937D01*
X79680000Y-133455937D02*
X78048000Y-133455937D01*
X86592000Y-133455937D02*
X81760000Y-133455937D01*
X79680000Y-133415937D02*
X78022000Y-133415937D01*
X86618000Y-133415937D02*
X81760000Y-133415937D01*
X79680000Y-133375937D02*
X77997000Y-133375937D01*
X86643000Y-133375937D02*
X81760000Y-133375937D01*
X79680000Y-133335937D02*
X77973000Y-133335937D01*
X86667000Y-133335937D02*
X81760000Y-133335937D01*
X79680000Y-133295937D02*
X77949000Y-133295937D01*
X86691000Y-133295937D02*
X81760000Y-133295937D01*
X79680000Y-133255937D02*
X77926000Y-133255937D01*
X86714000Y-133255937D02*
X81760000Y-133255937D01*
X79680000Y-133215937D02*
X77903000Y-133215937D01*
X86737000Y-133215937D02*
X81760000Y-133215937D01*
X79680000Y-133175937D02*
X77881000Y-133175937D01*
X86759000Y-133175937D02*
X81760000Y-133175937D01*
X79680000Y-133135937D02*
X77859000Y-133135937D01*
X86781000Y-133135937D02*
X81760000Y-133135937D01*
X79680000Y-133095937D02*
X77837000Y-133095937D01*
X86803000Y-133095937D02*
X81760000Y-133095937D01*
X79680000Y-133055937D02*
X77816000Y-133055937D01*
X86824000Y-133055937D02*
X81760000Y-133055937D01*
X79680000Y-133015937D02*
X77796000Y-133015937D01*
X86844000Y-133015937D02*
X81760000Y-133015937D01*
X79680000Y-132975937D02*
X77776000Y-132975937D01*
X86864000Y-132975937D02*
X83360000Y-132975937D01*
X79680000Y-132935937D02*
X77756000Y-132935937D01*
X86884000Y-132935937D02*
X83360000Y-132935937D01*
X79680000Y-132895937D02*
X77737000Y-132895937D01*
X86903000Y-132895937D02*
X83360000Y-132895937D01*
X79680000Y-132855937D02*
X77718000Y-132855937D01*
X86922000Y-132855937D02*
X83360000Y-132855937D01*
X79680000Y-132815937D02*
X77700000Y-132815937D01*
X86940000Y-132815937D02*
X83360000Y-132815937D01*
X79680000Y-132775937D02*
X77682000Y-132775937D01*
X86958000Y-132775937D02*
X83360000Y-132775937D01*
X79680000Y-132735937D02*
X77664000Y-132735937D01*
X86976000Y-132735937D02*
X83360000Y-132735937D01*
X79680000Y-132695937D02*
X77647000Y-132695937D01*
X86993000Y-132695937D02*
X83360000Y-132695937D01*
X79680000Y-132655937D02*
X77630000Y-132655937D01*
X87010000Y-132655937D02*
X83360000Y-132655937D01*
X79680000Y-132615937D02*
X77614000Y-132615937D01*
X87026000Y-132615937D02*
X83360000Y-132615937D01*
X79680000Y-132575937D02*
X77598000Y-132575937D01*
X87042000Y-132575937D02*
X83360000Y-132575937D01*
X79680000Y-132535937D02*
X77582000Y-132535937D01*
X87058000Y-132535937D02*
X83360000Y-132535937D01*
X79680000Y-132495937D02*
X77567000Y-132495937D01*
X87073000Y-132495937D02*
X83360000Y-132495937D01*
X79680000Y-132455937D02*
X77552000Y-132455937D01*
X87088000Y-132455937D02*
X83360000Y-132455937D01*
X79680000Y-132415937D02*
X77538000Y-132415937D01*
X87102000Y-132415937D02*
X83360000Y-132415937D01*
X79680000Y-132375937D02*
X77523000Y-132375937D01*
X87117000Y-132375937D02*
X83360000Y-132375937D01*
X79680000Y-132335937D02*
X77510000Y-132335937D01*
X87130000Y-132335937D02*
X83360000Y-132335937D01*
X79680000Y-132295937D02*
X77496000Y-132295937D01*
X87144000Y-132295937D02*
X83360000Y-132295937D01*
X79680000Y-132255937D02*
X77483000Y-132255937D01*
X87157000Y-132255937D02*
X83360000Y-132255937D01*
X79680000Y-132215937D02*
X77471000Y-132215937D01*
X87169000Y-132215937D02*
X83360000Y-132215937D01*
X79680000Y-132175937D02*
X77459000Y-132175937D01*
X87181000Y-132175937D02*
X83360000Y-132175937D01*
X79680000Y-132135937D02*
X77447000Y-132135937D01*
X87193000Y-132135937D02*
X83360000Y-132135937D01*
X79680000Y-132095937D02*
X77435000Y-132095937D01*
X87205000Y-132095937D02*
X83360000Y-132095937D01*
X79680000Y-132055937D02*
X77424000Y-132055937D01*
X87216000Y-132055937D02*
X83360000Y-132055937D01*
X79680000Y-132015937D02*
X77413000Y-132015937D01*
X87227000Y-132015937D02*
X83360000Y-132015937D01*
X79680000Y-131975937D02*
X77403000Y-131975937D01*
X87237000Y-131975937D02*
X83360000Y-131975937D01*
X79680000Y-131935937D02*
X77392000Y-131935937D01*
X87248000Y-131935937D02*
X83360000Y-131935937D01*
X79680000Y-131895937D02*
X77383000Y-131895937D01*
X87257000Y-131895937D02*
X83360000Y-131895937D01*
X79680000Y-131855937D02*
X77373000Y-131855937D01*
X87267000Y-131855937D02*
X83360000Y-131855937D01*
X79680000Y-131815937D02*
X77364000Y-131815937D01*
X87276000Y-131815937D02*
X83360000Y-131815937D01*
X79680000Y-131775937D02*
X77355000Y-131775937D01*
X87285000Y-131775937D02*
X83360000Y-131775937D01*
X79680000Y-131735937D02*
X77347000Y-131735937D01*
X87293000Y-131735937D02*
X83360000Y-131735937D01*
X79680000Y-131695937D02*
X77339000Y-131695937D01*
X87301000Y-131695937D02*
X83360000Y-131695937D01*
X79680000Y-131655937D02*
X77331000Y-131655937D01*
X87309000Y-131655937D02*
X83360000Y-131655937D01*
X79680000Y-131615937D02*
X77323000Y-131615937D01*
X87317000Y-131615937D02*
X83360000Y-131615937D01*
X81280000Y-131575937D02*
X77316000Y-131575937D01*
X87324000Y-131575937D02*
X83360000Y-131575937D01*
X81280000Y-131535937D02*
X77309000Y-131535937D01*
X87331000Y-131535937D02*
X83360000Y-131535937D01*
X81280000Y-131495937D02*
X77303000Y-131495937D01*
X87337000Y-131495937D02*
X83360000Y-131495937D01*
X81280000Y-131455937D02*
X77297000Y-131455937D01*
X87343000Y-131455937D02*
X83360000Y-131455937D01*
X81280000Y-131415937D02*
X77291000Y-131415937D01*
X87349000Y-131415937D02*
X83360000Y-131415937D01*
X81280000Y-131375937D02*
X77285000Y-131375937D01*
X87355000Y-131375937D02*
X83360000Y-131375937D01*
X81280000Y-131335937D02*
X77280000Y-131335937D01*
X87360000Y-131335937D02*
X83360000Y-131335937D01*
X81280000Y-131295937D02*
X77275000Y-131295937D01*
X87365000Y-131295937D02*
X83360000Y-131295937D01*
X81280000Y-131255937D02*
X77271000Y-131255937D01*
X87369000Y-131255937D02*
X83360000Y-131255937D01*
X81280000Y-131215937D02*
X77266000Y-131215937D01*
X87374000Y-131215937D02*
X83360000Y-131215937D01*
X81280000Y-131175937D02*
X77263000Y-131175937D01*
X87377000Y-131175937D02*
X83360000Y-131175937D01*
X81280000Y-131135937D02*
X77259000Y-131135937D01*
X87381000Y-131135937D02*
X83360000Y-131135937D01*
X81280000Y-131095937D02*
X77256000Y-131095937D01*
X87384000Y-131095937D02*
X83360000Y-131095937D01*
X81280000Y-131055937D02*
X77253000Y-131055937D01*
X87387000Y-131055937D02*
X83360000Y-131055937D01*
X81280000Y-131015937D02*
X77250000Y-131015937D01*
X87390000Y-131015937D02*
X83360000Y-131015937D01*
X81280000Y-130975937D02*
X77248000Y-130975937D01*
X87392000Y-130975937D02*
X83360000Y-130975937D01*
X81280000Y-130935937D02*
X77246000Y-130935937D01*
X87394000Y-130935937D02*
X83360000Y-130935937D01*
X87396000Y-130895937D02*
X77244000Y-130895937D01*
X87397000Y-130855937D02*
X77243000Y-130855937D01*
X87399000Y-130815937D02*
X77241000Y-130815937D01*
X87399000Y-130775937D02*
X77241000Y-130775937D01*
X87400000Y-130735937D02*
X77240000Y-130735937D01*
X87400000Y-130695937D02*
X77240000Y-130695937D01*
X85695000Y-125716291D02*
X84695000Y-125716291D01*
X85195000Y-125216291D02*
X85195000Y-126216291D01*
X87440000Y-130695937D02*
G75*
G02*
X77200000Y-130695937I-5120000J0D01*
G01*
X77200000Y-130695937D02*
G75*
G02*
X87440000Y-130695937I5120000J0D01*
G01*
%TO.C,C15*%
X53449000Y-135815937D02*
X52251000Y-135815937D01*
X53712000Y-135775937D02*
X51988000Y-135775937D01*
X53912000Y-135735937D02*
X51788000Y-135735937D01*
X54080000Y-135695937D02*
X51620000Y-135695937D01*
X54227000Y-135655937D02*
X51473000Y-135655937D01*
X54359000Y-135615937D02*
X51341000Y-135615937D01*
X54480000Y-135575937D02*
X51220000Y-135575937D01*
X54592000Y-135535937D02*
X51108000Y-135535937D01*
X54696000Y-135495937D02*
X51004000Y-135495937D01*
X54794000Y-135455937D02*
X50906000Y-135455937D01*
X54887000Y-135415937D02*
X50813000Y-135415937D01*
X54974000Y-135375937D02*
X50726000Y-135375937D01*
X55058000Y-135335937D02*
X50642000Y-135335937D01*
X55138000Y-135295937D02*
X50562000Y-135295937D01*
X55215000Y-135255937D02*
X50485000Y-135255937D01*
X55289000Y-135215937D02*
X50411000Y-135215937D01*
X55360000Y-135175937D02*
X50340000Y-135175937D01*
X55428000Y-135135937D02*
X50272000Y-135135937D01*
X55494000Y-135095937D02*
X50206000Y-135095937D01*
X55558000Y-135055937D02*
X50142000Y-135055937D01*
X55620000Y-135015937D02*
X50080000Y-135015937D01*
X55680000Y-134975937D02*
X50020000Y-134975937D01*
X55738000Y-134935937D02*
X49962000Y-134935937D01*
X55795000Y-134895937D02*
X49905000Y-134895937D01*
X55850000Y-134855937D02*
X49850000Y-134855937D01*
X55903000Y-134815937D02*
X49797000Y-134815937D01*
X55955000Y-134775937D02*
X49745000Y-134775937D01*
X56006000Y-134735937D02*
X49694000Y-134735937D01*
X56055000Y-134695937D02*
X49645000Y-134695937D01*
X56104000Y-134655937D02*
X49596000Y-134655937D01*
X56151000Y-134615937D02*
X49549000Y-134615937D01*
X56197000Y-134575937D02*
X49503000Y-134575937D01*
X56241000Y-134535937D02*
X49459000Y-134535937D01*
X56285000Y-134495937D02*
X49415000Y-134495937D01*
X56328000Y-134455937D02*
X49372000Y-134455937D01*
X56370000Y-134415937D02*
X49330000Y-134415937D01*
X56411000Y-134375937D02*
X49289000Y-134375937D01*
X56451000Y-134335937D02*
X49249000Y-134335937D01*
X56490000Y-134295937D02*
X49210000Y-134295937D01*
X56528000Y-134255937D02*
X49172000Y-134255937D01*
X56566000Y-134215937D02*
X49134000Y-134215937D01*
X56602000Y-134175937D02*
X49098000Y-134175937D01*
X56638000Y-134135937D02*
X49062000Y-134135937D01*
X56673000Y-134095937D02*
X49027000Y-134095937D01*
X56708000Y-134055937D02*
X48992000Y-134055937D01*
X56741000Y-134015937D02*
X48959000Y-134015937D01*
X56774000Y-133975937D02*
X48926000Y-133975937D01*
X56807000Y-133935937D02*
X48893000Y-133935937D01*
X56838000Y-133895937D02*
X48862000Y-133895937D01*
X56870000Y-133855937D02*
X48830000Y-133855937D01*
X56900000Y-133815937D02*
X48800000Y-133815937D01*
X56930000Y-133775937D02*
X48770000Y-133775937D01*
X56959000Y-133735937D02*
X48741000Y-133735937D01*
X50210000Y-133695937D02*
X48712000Y-133695937D01*
X56988000Y-133695937D02*
X52290000Y-133695937D01*
X50210000Y-133655937D02*
X48684000Y-133655937D01*
X57016000Y-133655937D02*
X52290000Y-133655937D01*
X50210000Y-133615937D02*
X48657000Y-133615937D01*
X57043000Y-133615937D02*
X52290000Y-133615937D01*
X50210000Y-133575937D02*
X48630000Y-133575937D01*
X57070000Y-133575937D02*
X52290000Y-133575937D01*
X50210000Y-133535937D02*
X48603000Y-133535937D01*
X57097000Y-133535937D02*
X52290000Y-133535937D01*
X50210000Y-133495937D02*
X48578000Y-133495937D01*
X57122000Y-133495937D02*
X52290000Y-133495937D01*
X50210000Y-133455937D02*
X48552000Y-133455937D01*
X57148000Y-133455937D02*
X52290000Y-133455937D01*
X50210000Y-133415937D02*
X48527000Y-133415937D01*
X57173000Y-133415937D02*
X52290000Y-133415937D01*
X50210000Y-133375937D02*
X48503000Y-133375937D01*
X57197000Y-133375937D02*
X52290000Y-133375937D01*
X50210000Y-133335937D02*
X48479000Y-133335937D01*
X57221000Y-133335937D02*
X52290000Y-133335937D01*
X50210000Y-133295937D02*
X48456000Y-133295937D01*
X57244000Y-133295937D02*
X52290000Y-133295937D01*
X50210000Y-133255937D02*
X48433000Y-133255937D01*
X57267000Y-133255937D02*
X52290000Y-133255937D01*
X50210000Y-133215937D02*
X48411000Y-133215937D01*
X57289000Y-133215937D02*
X52290000Y-133215937D01*
X50210000Y-133175937D02*
X48389000Y-133175937D01*
X57311000Y-133175937D02*
X52290000Y-133175937D01*
X50210000Y-133135937D02*
X48367000Y-133135937D01*
X57333000Y-133135937D02*
X52290000Y-133135937D01*
X50210000Y-133095937D02*
X48346000Y-133095937D01*
X57354000Y-133095937D02*
X52290000Y-133095937D01*
X50210000Y-133055937D02*
X48326000Y-133055937D01*
X57374000Y-133055937D02*
X52290000Y-133055937D01*
X50210000Y-133015937D02*
X48306000Y-133015937D01*
X57394000Y-133015937D02*
X53890000Y-133015937D01*
X50210000Y-132975937D02*
X48286000Y-132975937D01*
X57414000Y-132975937D02*
X53890000Y-132975937D01*
X50210000Y-132935937D02*
X48267000Y-132935937D01*
X57433000Y-132935937D02*
X53890000Y-132935937D01*
X50210000Y-132895937D02*
X48248000Y-132895937D01*
X57452000Y-132895937D02*
X53890000Y-132895937D01*
X50210000Y-132855937D02*
X48230000Y-132855937D01*
X57470000Y-132855937D02*
X53890000Y-132855937D01*
X50210000Y-132815937D02*
X48212000Y-132815937D01*
X57488000Y-132815937D02*
X53890000Y-132815937D01*
X50210000Y-132775937D02*
X48194000Y-132775937D01*
X57506000Y-132775937D02*
X53890000Y-132775937D01*
X50210000Y-132735937D02*
X48177000Y-132735937D01*
X57523000Y-132735937D02*
X53890000Y-132735937D01*
X50210000Y-132695937D02*
X48160000Y-132695937D01*
X57540000Y-132695937D02*
X53890000Y-132695937D01*
X50210000Y-132655937D02*
X48144000Y-132655937D01*
X57556000Y-132655937D02*
X53890000Y-132655937D01*
X50210000Y-132615937D02*
X48128000Y-132615937D01*
X57572000Y-132615937D02*
X53890000Y-132615937D01*
X50210000Y-132575937D02*
X48112000Y-132575937D01*
X57588000Y-132575937D02*
X53890000Y-132575937D01*
X50210000Y-132535937D02*
X48097000Y-132535937D01*
X57603000Y-132535937D02*
X53890000Y-132535937D01*
X50210000Y-132495937D02*
X48082000Y-132495937D01*
X57618000Y-132495937D02*
X53890000Y-132495937D01*
X50210000Y-132455937D02*
X48068000Y-132455937D01*
X57632000Y-132455937D02*
X53890000Y-132455937D01*
X50210000Y-132415937D02*
X48053000Y-132415937D01*
X57647000Y-132415937D02*
X53890000Y-132415937D01*
X50210000Y-132375937D02*
X48040000Y-132375937D01*
X57660000Y-132375937D02*
X53890000Y-132375937D01*
X50210000Y-132335937D02*
X48026000Y-132335937D01*
X57674000Y-132335937D02*
X53890000Y-132335937D01*
X50210000Y-132295937D02*
X48013000Y-132295937D01*
X57687000Y-132295937D02*
X53890000Y-132295937D01*
X50210000Y-132255937D02*
X48001000Y-132255937D01*
X57699000Y-132255937D02*
X53890000Y-132255937D01*
X50210000Y-132215937D02*
X47989000Y-132215937D01*
X57711000Y-132215937D02*
X53890000Y-132215937D01*
X50210000Y-132175937D02*
X47977000Y-132175937D01*
X57723000Y-132175937D02*
X53890000Y-132175937D01*
X50210000Y-132135937D02*
X47965000Y-132135937D01*
X57735000Y-132135937D02*
X53890000Y-132135937D01*
X50210000Y-132095937D02*
X47954000Y-132095937D01*
X57746000Y-132095937D02*
X53890000Y-132095937D01*
X50210000Y-132055937D02*
X47943000Y-132055937D01*
X57757000Y-132055937D02*
X53890000Y-132055937D01*
X50210000Y-132015937D02*
X47933000Y-132015937D01*
X57767000Y-132015937D02*
X53890000Y-132015937D01*
X50210000Y-131975937D02*
X47922000Y-131975937D01*
X57778000Y-131975937D02*
X53890000Y-131975937D01*
X50210000Y-131935937D02*
X47913000Y-131935937D01*
X57787000Y-131935937D02*
X53890000Y-131935937D01*
X50210000Y-131895937D02*
X47903000Y-131895937D01*
X57797000Y-131895937D02*
X53890000Y-131895937D01*
X50210000Y-131855937D02*
X47894000Y-131855937D01*
X57806000Y-131855937D02*
X53890000Y-131855937D01*
X50210000Y-131815937D02*
X47885000Y-131815937D01*
X57815000Y-131815937D02*
X53890000Y-131815937D01*
X50210000Y-131775937D02*
X47877000Y-131775937D01*
X57823000Y-131775937D02*
X53890000Y-131775937D01*
X50210000Y-131735937D02*
X47869000Y-131735937D01*
X57831000Y-131735937D02*
X53890000Y-131735937D01*
X50210000Y-131695937D02*
X47861000Y-131695937D01*
X57839000Y-131695937D02*
X53890000Y-131695937D01*
X50210000Y-131655937D02*
X47853000Y-131655937D01*
X57847000Y-131655937D02*
X53890000Y-131655937D01*
X51810000Y-131615937D02*
X47846000Y-131615937D01*
X57854000Y-131615937D02*
X53890000Y-131615937D01*
X51810000Y-131575937D02*
X47839000Y-131575937D01*
X57861000Y-131575937D02*
X53890000Y-131575937D01*
X51810000Y-131535937D02*
X47833000Y-131535937D01*
X57867000Y-131535937D02*
X53890000Y-131535937D01*
X51810000Y-131495937D02*
X47827000Y-131495937D01*
X57873000Y-131495937D02*
X53890000Y-131495937D01*
X51810000Y-131455937D02*
X47821000Y-131455937D01*
X57879000Y-131455937D02*
X53890000Y-131455937D01*
X51810000Y-131415937D02*
X47815000Y-131415937D01*
X57885000Y-131415937D02*
X53890000Y-131415937D01*
X51810000Y-131375937D02*
X47810000Y-131375937D01*
X57890000Y-131375937D02*
X53890000Y-131375937D01*
X51810000Y-131335937D02*
X47805000Y-131335937D01*
X57895000Y-131335937D02*
X53890000Y-131335937D01*
X51810000Y-131295937D02*
X47801000Y-131295937D01*
X57899000Y-131295937D02*
X53890000Y-131295937D01*
X51810000Y-131255937D02*
X47796000Y-131255937D01*
X57904000Y-131255937D02*
X53890000Y-131255937D01*
X51810000Y-131215937D02*
X47793000Y-131215937D01*
X57907000Y-131215937D02*
X53890000Y-131215937D01*
X51810000Y-131175937D02*
X47789000Y-131175937D01*
X57911000Y-131175937D02*
X53890000Y-131175937D01*
X51810000Y-131135937D02*
X47786000Y-131135937D01*
X57914000Y-131135937D02*
X53890000Y-131135937D01*
X51810000Y-131095937D02*
X47783000Y-131095937D01*
X57917000Y-131095937D02*
X53890000Y-131095937D01*
X51810000Y-131055937D02*
X47780000Y-131055937D01*
X57920000Y-131055937D02*
X53890000Y-131055937D01*
X51810000Y-131015937D02*
X47778000Y-131015937D01*
X57922000Y-131015937D02*
X53890000Y-131015937D01*
X51810000Y-130975937D02*
X47776000Y-130975937D01*
X57924000Y-130975937D02*
X53890000Y-130975937D01*
X57926000Y-130935937D02*
X47774000Y-130935937D01*
X57927000Y-130895937D02*
X47773000Y-130895937D01*
X57929000Y-130855937D02*
X47771000Y-130855937D01*
X57929000Y-130815937D02*
X47771000Y-130815937D01*
X57930000Y-130775937D02*
X47770000Y-130775937D01*
X57930000Y-130735937D02*
X47770000Y-130735937D01*
X56225000Y-125756291D02*
X55225000Y-125756291D01*
X55725000Y-125256291D02*
X55725000Y-126256291D01*
X57970000Y-130735937D02*
G75*
G02*
X47730000Y-130735937I-5120000J0D01*
G01*
X47730000Y-130735937D02*
G75*
G02*
X57970000Y-130735937I5120000J0D01*
G01*
%TD*%
M02*
