%TF.GenerationSoftware,KiCad,Pcbnew,9.0.7*%
%TF.CreationDate,2026-09-09T09:09:22+05:30*%
%TF.ProjectId,PumpNodeNew,50756d70-4e6f-4646-954e-65772e6b6963,rev?*%
%TF.SameCoordinates,Original*%
%TF.FileFunction,Legend,Bot*%
%TF.FilePolarity,Positive*%
%FSLAX46Y46*%
G04 Gerber Fmt 4.6, Leading zero omitted, Abs format (unit mm)*
G04 Created by KiCad (PCBNEW 9.0.7) date 2026-09-09 09:09:22*
%MOMM*%
%LPD*%
G01*
G04 APERTURE LIST*
%ADD10C,0.200000*%
%ADD11C,0.300000*%
%ADD12C,0.240000*%
%ADD13C,0.150000*%
%ADD14C,0.120000*%
G04 APERTURE END LIST*
D10*
X236540326Y-107182219D02*
X236540326Y-106182219D01*
X236540326Y-106182219D02*
X236159374Y-106182219D01*
X236159374Y-106182219D02*
X236064136Y-106229838D01*
X236064136Y-106229838D02*
X236016517Y-106277457D01*
X236016517Y-106277457D02*
X235968898Y-106372695D01*
X235968898Y-106372695D02*
X235968898Y-106515552D01*
X235968898Y-106515552D02*
X236016517Y-106610790D01*
X236016517Y-106610790D02*
X236064136Y-106658409D01*
X236064136Y-106658409D02*
X236159374Y-106706028D01*
X236159374Y-106706028D02*
X236540326Y-106706028D01*
X235635564Y-106182219D02*
X235397469Y-107182219D01*
X235397469Y-107182219D02*
X235206993Y-106467933D01*
X235206993Y-106467933D02*
X235016517Y-107182219D01*
X235016517Y-107182219D02*
X234778422Y-106182219D01*
X233826041Y-107182219D02*
X234159374Y-106706028D01*
X234397469Y-107182219D02*
X234397469Y-106182219D01*
X234397469Y-106182219D02*
X234016517Y-106182219D01*
X234016517Y-106182219D02*
X233921279Y-106229838D01*
X233921279Y-106229838D02*
X233873660Y-106277457D01*
X233873660Y-106277457D02*
X233826041Y-106372695D01*
X233826041Y-106372695D02*
X233826041Y-106515552D01*
X233826041Y-106515552D02*
X233873660Y-106610790D01*
X233873660Y-106610790D02*
X233921279Y-106658409D01*
X233921279Y-106658409D02*
X234016517Y-106706028D01*
X234016517Y-106706028D02*
X234397469Y-106706028D01*
X233111755Y-107563171D02*
X233159374Y-107515552D01*
X233159374Y-107515552D02*
X233254612Y-107372695D01*
X233254612Y-107372695D02*
X233302231Y-107277457D01*
X233302231Y-107277457D02*
X233349850Y-107134600D01*
X233349850Y-107134600D02*
X233397469Y-106896504D01*
X233397469Y-106896504D02*
X233397469Y-106706028D01*
X233397469Y-106706028D02*
X233349850Y-106467933D01*
X233349850Y-106467933D02*
X233302231Y-106325076D01*
X233302231Y-106325076D02*
X233254612Y-106229838D01*
X233254612Y-106229838D02*
X233159374Y-106086980D01*
X233159374Y-106086980D02*
X233111755Y-106039361D01*
X232206993Y-106229838D02*
X232302231Y-106182219D01*
X232302231Y-106182219D02*
X232445088Y-106182219D01*
X232445088Y-106182219D02*
X232587945Y-106229838D01*
X232587945Y-106229838D02*
X232683183Y-106325076D01*
X232683183Y-106325076D02*
X232730802Y-106420314D01*
X232730802Y-106420314D02*
X232778421Y-106610790D01*
X232778421Y-106610790D02*
X232778421Y-106753647D01*
X232778421Y-106753647D02*
X232730802Y-106944123D01*
X232730802Y-106944123D02*
X232683183Y-107039361D01*
X232683183Y-107039361D02*
X232587945Y-107134600D01*
X232587945Y-107134600D02*
X232445088Y-107182219D01*
X232445088Y-107182219D02*
X232349850Y-107182219D01*
X232349850Y-107182219D02*
X232206993Y-107134600D01*
X232206993Y-107134600D02*
X232159374Y-107086980D01*
X232159374Y-107086980D02*
X232159374Y-106753647D01*
X232159374Y-106753647D02*
X232349850Y-106753647D01*
X231826040Y-107563171D02*
X231778421Y-107515552D01*
X231778421Y-107515552D02*
X231683183Y-107372695D01*
X231683183Y-107372695D02*
X231635564Y-107277457D01*
X231635564Y-107277457D02*
X231587945Y-107134600D01*
X231587945Y-107134600D02*
X231540326Y-106896504D01*
X231540326Y-106896504D02*
X231540326Y-106706028D01*
X231540326Y-106706028D02*
X231587945Y-106467933D01*
X231587945Y-106467933D02*
X231635564Y-106325076D01*
X231635564Y-106325076D02*
X231683183Y-106229838D01*
X231683183Y-106229838D02*
X231778421Y-106086980D01*
X231778421Y-106086980D02*
X231826040Y-106039361D01*
X236134136Y-101242219D02*
X236610326Y-101242219D01*
X236610326Y-101242219D02*
X236610326Y-100242219D01*
X235657945Y-101242219D02*
X235753183Y-101194600D01*
X235753183Y-101194600D02*
X235800802Y-101146980D01*
X235800802Y-101146980D02*
X235848421Y-101051742D01*
X235848421Y-101051742D02*
X235848421Y-100766028D01*
X235848421Y-100766028D02*
X235800802Y-100670790D01*
X235800802Y-100670790D02*
X235753183Y-100623171D01*
X235753183Y-100623171D02*
X235657945Y-100575552D01*
X235657945Y-100575552D02*
X235515088Y-100575552D01*
X235515088Y-100575552D02*
X235419850Y-100623171D01*
X235419850Y-100623171D02*
X235372231Y-100670790D01*
X235372231Y-100670790D02*
X235324612Y-100766028D01*
X235324612Y-100766028D02*
X235324612Y-101051742D01*
X235324612Y-101051742D02*
X235372231Y-101146980D01*
X235372231Y-101146980D02*
X235419850Y-101194600D01*
X235419850Y-101194600D02*
X235515088Y-101242219D01*
X235515088Y-101242219D02*
X235657945Y-101242219D01*
X234324612Y-101242219D02*
X234657945Y-100766028D01*
X234896040Y-101242219D02*
X234896040Y-100242219D01*
X234896040Y-100242219D02*
X234515088Y-100242219D01*
X234515088Y-100242219D02*
X234419850Y-100289838D01*
X234419850Y-100289838D02*
X234372231Y-100337457D01*
X234372231Y-100337457D02*
X234324612Y-100432695D01*
X234324612Y-100432695D02*
X234324612Y-100575552D01*
X234324612Y-100575552D02*
X234372231Y-100670790D01*
X234372231Y-100670790D02*
X234419850Y-100718409D01*
X234419850Y-100718409D02*
X234515088Y-100766028D01*
X234515088Y-100766028D02*
X234896040Y-100766028D01*
X233467469Y-101242219D02*
X233467469Y-100718409D01*
X233467469Y-100718409D02*
X233515088Y-100623171D01*
X233515088Y-100623171D02*
X233610326Y-100575552D01*
X233610326Y-100575552D02*
X233800802Y-100575552D01*
X233800802Y-100575552D02*
X233896040Y-100623171D01*
X233467469Y-101194600D02*
X233562707Y-101242219D01*
X233562707Y-101242219D02*
X233800802Y-101242219D01*
X233800802Y-101242219D02*
X233896040Y-101194600D01*
X233896040Y-101194600D02*
X233943659Y-101099361D01*
X233943659Y-101099361D02*
X233943659Y-101004123D01*
X233943659Y-101004123D02*
X233896040Y-100908885D01*
X233896040Y-100908885D02*
X233800802Y-100861266D01*
X233800802Y-100861266D02*
X233562707Y-100861266D01*
X233562707Y-100861266D02*
X233467469Y-100813647D01*
X232705564Y-101623171D02*
X232753183Y-101575552D01*
X232753183Y-101575552D02*
X232848421Y-101432695D01*
X232848421Y-101432695D02*
X232896040Y-101337457D01*
X232896040Y-101337457D02*
X232943659Y-101194600D01*
X232943659Y-101194600D02*
X232991278Y-100956504D01*
X232991278Y-100956504D02*
X232991278Y-100766028D01*
X232991278Y-100766028D02*
X232943659Y-100527933D01*
X232943659Y-100527933D02*
X232896040Y-100385076D01*
X232896040Y-100385076D02*
X232848421Y-100289838D01*
X232848421Y-100289838D02*
X232753183Y-100146980D01*
X232753183Y-100146980D02*
X232705564Y-100099361D01*
X231991278Y-100718409D02*
X231848421Y-100766028D01*
X231848421Y-100766028D02*
X231800802Y-100813647D01*
X231800802Y-100813647D02*
X231753183Y-100908885D01*
X231753183Y-100908885D02*
X231753183Y-101051742D01*
X231753183Y-101051742D02*
X231800802Y-101146980D01*
X231800802Y-101146980D02*
X231848421Y-101194600D01*
X231848421Y-101194600D02*
X231943659Y-101242219D01*
X231943659Y-101242219D02*
X232324611Y-101242219D01*
X232324611Y-101242219D02*
X232324611Y-100242219D01*
X232324611Y-100242219D02*
X231991278Y-100242219D01*
X231991278Y-100242219D02*
X231896040Y-100289838D01*
X231896040Y-100289838D02*
X231848421Y-100337457D01*
X231848421Y-100337457D02*
X231800802Y-100432695D01*
X231800802Y-100432695D02*
X231800802Y-100527933D01*
X231800802Y-100527933D02*
X231848421Y-100623171D01*
X231848421Y-100623171D02*
X231896040Y-100670790D01*
X231896040Y-100670790D02*
X231991278Y-100718409D01*
X231991278Y-100718409D02*
X232324611Y-100718409D01*
X231419849Y-101623171D02*
X231372230Y-101575552D01*
X231372230Y-101575552D02*
X231276992Y-101432695D01*
X231276992Y-101432695D02*
X231229373Y-101337457D01*
X231229373Y-101337457D02*
X231181754Y-101194600D01*
X231181754Y-101194600D02*
X231134135Y-100956504D01*
X231134135Y-100956504D02*
X231134135Y-100766028D01*
X231134135Y-100766028D02*
X231181754Y-100527933D01*
X231181754Y-100527933D02*
X231229373Y-100385076D01*
X231229373Y-100385076D02*
X231276992Y-100289838D01*
X231276992Y-100289838D02*
X231372230Y-100146980D01*
X231372230Y-100146980D02*
X231419849Y-100099361D01*
X236430326Y-94932219D02*
X236430326Y-93932219D01*
X236430326Y-93932219D02*
X236049374Y-93932219D01*
X236049374Y-93932219D02*
X235954136Y-93979838D01*
X235954136Y-93979838D02*
X235906517Y-94027457D01*
X235906517Y-94027457D02*
X235858898Y-94122695D01*
X235858898Y-94122695D02*
X235858898Y-94265552D01*
X235858898Y-94265552D02*
X235906517Y-94360790D01*
X235906517Y-94360790D02*
X235954136Y-94408409D01*
X235954136Y-94408409D02*
X236049374Y-94456028D01*
X236049374Y-94456028D02*
X236430326Y-94456028D01*
X235430326Y-93932219D02*
X235430326Y-94741742D01*
X235430326Y-94741742D02*
X235382707Y-94836980D01*
X235382707Y-94836980D02*
X235335088Y-94884600D01*
X235335088Y-94884600D02*
X235239850Y-94932219D01*
X235239850Y-94932219D02*
X235049374Y-94932219D01*
X235049374Y-94932219D02*
X234954136Y-94884600D01*
X234954136Y-94884600D02*
X234906517Y-94836980D01*
X234906517Y-94836980D02*
X234858898Y-94741742D01*
X234858898Y-94741742D02*
X234858898Y-93932219D01*
X234382707Y-94932219D02*
X234382707Y-93932219D01*
X234382707Y-93932219D02*
X234049374Y-94646504D01*
X234049374Y-94646504D02*
X233716041Y-93932219D01*
X233716041Y-93932219D02*
X233716041Y-94932219D01*
X233239850Y-94932219D02*
X233239850Y-93932219D01*
X233239850Y-93932219D02*
X232858898Y-93932219D01*
X232858898Y-93932219D02*
X232763660Y-93979838D01*
X232763660Y-93979838D02*
X232716041Y-94027457D01*
X232716041Y-94027457D02*
X232668422Y-94122695D01*
X232668422Y-94122695D02*
X232668422Y-94265552D01*
X232668422Y-94265552D02*
X232716041Y-94360790D01*
X232716041Y-94360790D02*
X232763660Y-94408409D01*
X232763660Y-94408409D02*
X232858898Y-94456028D01*
X232858898Y-94456028D02*
X233239850Y-94456028D01*
X231954136Y-95313171D02*
X232001755Y-95265552D01*
X232001755Y-95265552D02*
X232096993Y-95122695D01*
X232096993Y-95122695D02*
X232144612Y-95027457D01*
X232144612Y-95027457D02*
X232192231Y-94884600D01*
X232192231Y-94884600D02*
X232239850Y-94646504D01*
X232239850Y-94646504D02*
X232239850Y-94456028D01*
X232239850Y-94456028D02*
X232192231Y-94217933D01*
X232192231Y-94217933D02*
X232144612Y-94075076D01*
X232144612Y-94075076D02*
X232096993Y-93979838D01*
X232096993Y-93979838D02*
X232001755Y-93836980D01*
X232001755Y-93836980D02*
X231954136Y-93789361D01*
X231382707Y-94456028D02*
X231382707Y-94932219D01*
X231716040Y-93932219D02*
X231382707Y-94456028D01*
X231382707Y-94456028D02*
X231049374Y-93932219D01*
X230811278Y-95313171D02*
X230763659Y-95265552D01*
X230763659Y-95265552D02*
X230668421Y-95122695D01*
X230668421Y-95122695D02*
X230620802Y-95027457D01*
X230620802Y-95027457D02*
X230573183Y-94884600D01*
X230573183Y-94884600D02*
X230525564Y-94646504D01*
X230525564Y-94646504D02*
X230525564Y-94456028D01*
X230525564Y-94456028D02*
X230573183Y-94217933D01*
X230573183Y-94217933D02*
X230620802Y-94075076D01*
X230620802Y-94075076D02*
X230668421Y-93979838D01*
X230668421Y-93979838D02*
X230763659Y-93836980D01*
X230763659Y-93836980D02*
X230811278Y-93789361D01*
X200730326Y-54161266D02*
X199968422Y-54161266D01*
X200349374Y-54542219D02*
X200349374Y-53780314D01*
X176766517Y-63042219D02*
X177337945Y-63042219D01*
X177052231Y-63042219D02*
X177052231Y-62042219D01*
X177052231Y-62042219D02*
X177147469Y-62185076D01*
X177147469Y-62185076D02*
X177242707Y-62280314D01*
X177242707Y-62280314D02*
X177337945Y-62327933D01*
X180575564Y-56821028D02*
X181432707Y-56821028D01*
X181004136Y-56821028D02*
X181004136Y-55321028D01*
X181004136Y-55321028D02*
X181146993Y-55535314D01*
X181146993Y-55535314D02*
X181289850Y-55678171D01*
X181289850Y-55678171D02*
X181432707Y-55749600D01*
X231553733Y-108595326D02*
X231553733Y-107833422D01*
X231172780Y-108214374D02*
X231934685Y-108214374D01*
X211370326Y-51291266D02*
X210608422Y-51291266D01*
X210989374Y-51672219D02*
X210989374Y-50910314D01*
X231633733Y-96925326D02*
X231633733Y-96163422D01*
X231252780Y-96544374D02*
X232014685Y-96544374D01*
X231743733Y-102875326D02*
X231743733Y-102113422D01*
X231362780Y-102494374D02*
X232124685Y-102494374D01*
D11*
X165314285Y-102360609D02*
X165314285Y-101160609D01*
X165314285Y-101160609D02*
X164857142Y-101160609D01*
X164857142Y-101160609D02*
X164742857Y-101217752D01*
X164742857Y-101217752D02*
X164685714Y-101274895D01*
X164685714Y-101274895D02*
X164628571Y-101389181D01*
X164628571Y-101389181D02*
X164628571Y-101560609D01*
X164628571Y-101560609D02*
X164685714Y-101674895D01*
X164685714Y-101674895D02*
X164742857Y-101732038D01*
X164742857Y-101732038D02*
X164857142Y-101789181D01*
X164857142Y-101789181D02*
X165314285Y-101789181D01*
X164114285Y-101160609D02*
X164114285Y-102132038D01*
X164114285Y-102132038D02*
X164057142Y-102246324D01*
X164057142Y-102246324D02*
X164000000Y-102303467D01*
X164000000Y-102303467D02*
X163885714Y-102360609D01*
X163885714Y-102360609D02*
X163657142Y-102360609D01*
X163657142Y-102360609D02*
X163542857Y-102303467D01*
X163542857Y-102303467D02*
X163485714Y-102246324D01*
X163485714Y-102246324D02*
X163428571Y-102132038D01*
X163428571Y-102132038D02*
X163428571Y-101160609D01*
X162857142Y-102360609D02*
X162857142Y-101160609D01*
X162857142Y-101160609D02*
X162457142Y-102017752D01*
X162457142Y-102017752D02*
X162057142Y-101160609D01*
X162057142Y-101160609D02*
X162057142Y-102360609D01*
X161485713Y-102360609D02*
X161485713Y-101160609D01*
X161485713Y-101160609D02*
X161028570Y-101160609D01*
X161028570Y-101160609D02*
X160914285Y-101217752D01*
X160914285Y-101217752D02*
X160857142Y-101274895D01*
X160857142Y-101274895D02*
X160799999Y-101389181D01*
X160799999Y-101389181D02*
X160799999Y-101560609D01*
X160799999Y-101560609D02*
X160857142Y-101674895D01*
X160857142Y-101674895D02*
X160914285Y-101732038D01*
X160914285Y-101732038D02*
X161028570Y-101789181D01*
X161028570Y-101789181D02*
X161485713Y-101789181D01*
X159371427Y-102360609D02*
X159371427Y-101160609D01*
X159371427Y-101160609D02*
X158685713Y-102360609D01*
X158685713Y-102360609D02*
X158685713Y-101160609D01*
X157942856Y-102360609D02*
X158057141Y-102303467D01*
X158057141Y-102303467D02*
X158114284Y-102246324D01*
X158114284Y-102246324D02*
X158171427Y-102132038D01*
X158171427Y-102132038D02*
X158171427Y-101789181D01*
X158171427Y-101789181D02*
X158114284Y-101674895D01*
X158114284Y-101674895D02*
X158057141Y-101617752D01*
X158057141Y-101617752D02*
X157942856Y-101560609D01*
X157942856Y-101560609D02*
X157771427Y-101560609D01*
X157771427Y-101560609D02*
X157657141Y-101617752D01*
X157657141Y-101617752D02*
X157599999Y-101674895D01*
X157599999Y-101674895D02*
X157542856Y-101789181D01*
X157542856Y-101789181D02*
X157542856Y-102132038D01*
X157542856Y-102132038D02*
X157599999Y-102246324D01*
X157599999Y-102246324D02*
X157657141Y-102303467D01*
X157657141Y-102303467D02*
X157771427Y-102360609D01*
X157771427Y-102360609D02*
X157942856Y-102360609D01*
X156514285Y-102360609D02*
X156514285Y-101160609D01*
X156514285Y-102303467D02*
X156628570Y-102360609D01*
X156628570Y-102360609D02*
X156857142Y-102360609D01*
X156857142Y-102360609D02*
X156971427Y-102303467D01*
X156971427Y-102303467D02*
X157028570Y-102246324D01*
X157028570Y-102246324D02*
X157085713Y-102132038D01*
X157085713Y-102132038D02*
X157085713Y-101789181D01*
X157085713Y-101789181D02*
X157028570Y-101674895D01*
X157028570Y-101674895D02*
X156971427Y-101617752D01*
X156971427Y-101617752D02*
X156857142Y-101560609D01*
X156857142Y-101560609D02*
X156628570Y-101560609D01*
X156628570Y-101560609D02*
X156514285Y-101617752D01*
X155485713Y-102303467D02*
X155599999Y-102360609D01*
X155599999Y-102360609D02*
X155828571Y-102360609D01*
X155828571Y-102360609D02*
X155942856Y-102303467D01*
X155942856Y-102303467D02*
X155999999Y-102189181D01*
X155999999Y-102189181D02*
X155999999Y-101732038D01*
X155999999Y-101732038D02*
X155942856Y-101617752D01*
X155942856Y-101617752D02*
X155828571Y-101560609D01*
X155828571Y-101560609D02*
X155599999Y-101560609D01*
X155599999Y-101560609D02*
X155485713Y-101617752D01*
X155485713Y-101617752D02*
X155428571Y-101732038D01*
X155428571Y-101732038D02*
X155428571Y-101846324D01*
X155428571Y-101846324D02*
X155999999Y-101960609D01*
X161342856Y-104292542D02*
X161342856Y-103092542D01*
X161342856Y-103092542D02*
X160885713Y-103092542D01*
X160885713Y-103092542D02*
X160771428Y-103149685D01*
X160771428Y-103149685D02*
X160714285Y-103206828D01*
X160714285Y-103206828D02*
X160657142Y-103321114D01*
X160657142Y-103321114D02*
X160657142Y-103492542D01*
X160657142Y-103492542D02*
X160714285Y-103606828D01*
X160714285Y-103606828D02*
X160771428Y-103663971D01*
X160771428Y-103663971D02*
X160885713Y-103721114D01*
X160885713Y-103721114D02*
X161342856Y-103721114D01*
X160142856Y-104292542D02*
X160142856Y-103092542D01*
X160142856Y-103092542D02*
X159457142Y-104292542D01*
X159457142Y-104292542D02*
X159457142Y-103092542D01*
D12*
X165964285Y-94388939D02*
X165392857Y-94388939D01*
X166078571Y-94731796D02*
X165678571Y-93531796D01*
X165678571Y-93531796D02*
X165278571Y-94731796D01*
X164364286Y-93931796D02*
X164364286Y-94903225D01*
X164364286Y-94903225D02*
X164421428Y-95017511D01*
X164421428Y-95017511D02*
X164478571Y-95074654D01*
X164478571Y-95074654D02*
X164592857Y-95131796D01*
X164592857Y-95131796D02*
X164764286Y-95131796D01*
X164764286Y-95131796D02*
X164878571Y-95074654D01*
X164364286Y-94674654D02*
X164478571Y-94731796D01*
X164478571Y-94731796D02*
X164707143Y-94731796D01*
X164707143Y-94731796D02*
X164821428Y-94674654D01*
X164821428Y-94674654D02*
X164878571Y-94617511D01*
X164878571Y-94617511D02*
X164935714Y-94503225D01*
X164935714Y-94503225D02*
X164935714Y-94160368D01*
X164935714Y-94160368D02*
X164878571Y-94046082D01*
X164878571Y-94046082D02*
X164821428Y-93988939D01*
X164821428Y-93988939D02*
X164707143Y-93931796D01*
X164707143Y-93931796D02*
X164478571Y-93931796D01*
X164478571Y-93931796D02*
X164364286Y-93988939D01*
X163792857Y-94731796D02*
X163792857Y-93931796D01*
X163792857Y-94160368D02*
X163735714Y-94046082D01*
X163735714Y-94046082D02*
X163678572Y-93988939D01*
X163678572Y-93988939D02*
X163564286Y-93931796D01*
X163564286Y-93931796D02*
X163450000Y-93931796D01*
X163050000Y-94731796D02*
X163050000Y-93931796D01*
X163050000Y-93531796D02*
X163107143Y-93588939D01*
X163107143Y-93588939D02*
X163050000Y-93646082D01*
X163050000Y-93646082D02*
X162992857Y-93588939D01*
X162992857Y-93588939D02*
X163050000Y-93531796D01*
X163050000Y-93531796D02*
X163050000Y-93646082D01*
X161621428Y-94674654D02*
X161450000Y-94731796D01*
X161450000Y-94731796D02*
X161164285Y-94731796D01*
X161164285Y-94731796D02*
X161050000Y-94674654D01*
X161050000Y-94674654D02*
X160992857Y-94617511D01*
X160992857Y-94617511D02*
X160935714Y-94503225D01*
X160935714Y-94503225D02*
X160935714Y-94388939D01*
X160935714Y-94388939D02*
X160992857Y-94274654D01*
X160992857Y-94274654D02*
X161050000Y-94217511D01*
X161050000Y-94217511D02*
X161164285Y-94160368D01*
X161164285Y-94160368D02*
X161392857Y-94103225D01*
X161392857Y-94103225D02*
X161507142Y-94046082D01*
X161507142Y-94046082D02*
X161564285Y-93988939D01*
X161564285Y-93988939D02*
X161621428Y-93874654D01*
X161621428Y-93874654D02*
X161621428Y-93760368D01*
X161621428Y-93760368D02*
X161564285Y-93646082D01*
X161564285Y-93646082D02*
X161507142Y-93588939D01*
X161507142Y-93588939D02*
X161392857Y-93531796D01*
X161392857Y-93531796D02*
X161107142Y-93531796D01*
X161107142Y-93531796D02*
X160935714Y-93588939D01*
X159964285Y-94674654D02*
X160078571Y-94731796D01*
X160078571Y-94731796D02*
X160307143Y-94731796D01*
X160307143Y-94731796D02*
X160421428Y-94674654D01*
X160421428Y-94674654D02*
X160478571Y-94560368D01*
X160478571Y-94560368D02*
X160478571Y-94103225D01*
X160478571Y-94103225D02*
X160421428Y-93988939D01*
X160421428Y-93988939D02*
X160307143Y-93931796D01*
X160307143Y-93931796D02*
X160078571Y-93931796D01*
X160078571Y-93931796D02*
X159964285Y-93988939D01*
X159964285Y-93988939D02*
X159907143Y-94103225D01*
X159907143Y-94103225D02*
X159907143Y-94217511D01*
X159907143Y-94217511D02*
X160478571Y-94331796D01*
X159392857Y-93931796D02*
X159392857Y-94731796D01*
X159392857Y-94046082D02*
X159335714Y-93988939D01*
X159335714Y-93988939D02*
X159221429Y-93931796D01*
X159221429Y-93931796D02*
X159050000Y-93931796D01*
X159050000Y-93931796D02*
X158935714Y-93988939D01*
X158935714Y-93988939D02*
X158878572Y-94103225D01*
X158878572Y-94103225D02*
X158878572Y-94731796D01*
X158364286Y-94674654D02*
X158250000Y-94731796D01*
X158250000Y-94731796D02*
X158021429Y-94731796D01*
X158021429Y-94731796D02*
X157907143Y-94674654D01*
X157907143Y-94674654D02*
X157850000Y-94560368D01*
X157850000Y-94560368D02*
X157850000Y-94503225D01*
X157850000Y-94503225D02*
X157907143Y-94388939D01*
X157907143Y-94388939D02*
X158021429Y-94331796D01*
X158021429Y-94331796D02*
X158192858Y-94331796D01*
X158192858Y-94331796D02*
X158307143Y-94274654D01*
X158307143Y-94274654D02*
X158364286Y-94160368D01*
X158364286Y-94160368D02*
X158364286Y-94103225D01*
X158364286Y-94103225D02*
X158307143Y-93988939D01*
X158307143Y-93988939D02*
X158192858Y-93931796D01*
X158192858Y-93931796D02*
X158021429Y-93931796D01*
X158021429Y-93931796D02*
X157907143Y-93988939D01*
X157164286Y-94731796D02*
X157278571Y-94674654D01*
X157278571Y-94674654D02*
X157335714Y-94617511D01*
X157335714Y-94617511D02*
X157392857Y-94503225D01*
X157392857Y-94503225D02*
X157392857Y-94160368D01*
X157392857Y-94160368D02*
X157335714Y-94046082D01*
X157335714Y-94046082D02*
X157278571Y-93988939D01*
X157278571Y-93988939D02*
X157164286Y-93931796D01*
X157164286Y-93931796D02*
X156992857Y-93931796D01*
X156992857Y-93931796D02*
X156878571Y-93988939D01*
X156878571Y-93988939D02*
X156821429Y-94046082D01*
X156821429Y-94046082D02*
X156764286Y-94160368D01*
X156764286Y-94160368D02*
X156764286Y-94503225D01*
X156764286Y-94503225D02*
X156821429Y-94617511D01*
X156821429Y-94617511D02*
X156878571Y-94674654D01*
X156878571Y-94674654D02*
X156992857Y-94731796D01*
X156992857Y-94731796D02*
X157164286Y-94731796D01*
X156250000Y-94731796D02*
X156250000Y-93931796D01*
X156250000Y-94160368D02*
X156192857Y-94046082D01*
X156192857Y-94046082D02*
X156135715Y-93988939D01*
X156135715Y-93988939D02*
X156021429Y-93931796D01*
X156021429Y-93931796D02*
X155907143Y-93931796D01*
X155564286Y-94674654D02*
X155450000Y-94731796D01*
X155450000Y-94731796D02*
X155221429Y-94731796D01*
X155221429Y-94731796D02*
X155107143Y-94674654D01*
X155107143Y-94674654D02*
X155050000Y-94560368D01*
X155050000Y-94560368D02*
X155050000Y-94503225D01*
X155050000Y-94503225D02*
X155107143Y-94388939D01*
X155107143Y-94388939D02*
X155221429Y-94331796D01*
X155221429Y-94331796D02*
X155392858Y-94331796D01*
X155392858Y-94331796D02*
X155507143Y-94274654D01*
X155507143Y-94274654D02*
X155564286Y-94160368D01*
X155564286Y-94160368D02*
X155564286Y-94103225D01*
X155564286Y-94103225D02*
X155507143Y-93988939D01*
X155507143Y-93988939D02*
X155392858Y-93931796D01*
X155392858Y-93931796D02*
X155221429Y-93931796D01*
X155221429Y-93931796D02*
X155107143Y-93988939D01*
X165078570Y-96663729D02*
X165078570Y-96035158D01*
X165078570Y-96035158D02*
X165135712Y-95920872D01*
X165135712Y-95920872D02*
X165249998Y-95863729D01*
X165249998Y-95863729D02*
X165478570Y-95863729D01*
X165478570Y-95863729D02*
X165592855Y-95920872D01*
X165078570Y-96606587D02*
X165192855Y-96663729D01*
X165192855Y-96663729D02*
X165478570Y-96663729D01*
X165478570Y-96663729D02*
X165592855Y-96606587D01*
X165592855Y-96606587D02*
X165649998Y-96492301D01*
X165649998Y-96492301D02*
X165649998Y-96378015D01*
X165649998Y-96378015D02*
X165592855Y-96263729D01*
X165592855Y-96263729D02*
X165478570Y-96206587D01*
X165478570Y-96206587D02*
X165192855Y-96206587D01*
X165192855Y-96206587D02*
X165078570Y-96149444D01*
X164507141Y-95863729D02*
X164507141Y-96663729D01*
X164507141Y-95978015D02*
X164449998Y-95920872D01*
X164449998Y-95920872D02*
X164335713Y-95863729D01*
X164335713Y-95863729D02*
X164164284Y-95863729D01*
X164164284Y-95863729D02*
X164049998Y-95920872D01*
X164049998Y-95920872D02*
X163992856Y-96035158D01*
X163992856Y-96035158D02*
X163992856Y-96663729D01*
X162907142Y-96663729D02*
X162907142Y-95463729D01*
X162907142Y-96606587D02*
X163021427Y-96663729D01*
X163021427Y-96663729D02*
X163249999Y-96663729D01*
X163249999Y-96663729D02*
X163364284Y-96606587D01*
X163364284Y-96606587D02*
X163421427Y-96549444D01*
X163421427Y-96549444D02*
X163478570Y-96435158D01*
X163478570Y-96435158D02*
X163478570Y-96092301D01*
X163478570Y-96092301D02*
X163421427Y-95978015D01*
X163421427Y-95978015D02*
X163364284Y-95920872D01*
X163364284Y-95920872D02*
X163249999Y-95863729D01*
X163249999Y-95863729D02*
X163021427Y-95863729D01*
X163021427Y-95863729D02*
X162907142Y-95920872D01*
X160735713Y-96549444D02*
X160792856Y-96606587D01*
X160792856Y-96606587D02*
X160964284Y-96663729D01*
X160964284Y-96663729D02*
X161078570Y-96663729D01*
X161078570Y-96663729D02*
X161249999Y-96606587D01*
X161249999Y-96606587D02*
X161364284Y-96492301D01*
X161364284Y-96492301D02*
X161421427Y-96378015D01*
X161421427Y-96378015D02*
X161478570Y-96149444D01*
X161478570Y-96149444D02*
X161478570Y-95978015D01*
X161478570Y-95978015D02*
X161421427Y-95749444D01*
X161421427Y-95749444D02*
X161364284Y-95635158D01*
X161364284Y-95635158D02*
X161249999Y-95520872D01*
X161249999Y-95520872D02*
X161078570Y-95463729D01*
X161078570Y-95463729D02*
X160964284Y-95463729D01*
X160964284Y-95463729D02*
X160792856Y-95520872D01*
X160792856Y-95520872D02*
X160735713Y-95578015D01*
X160049999Y-96663729D02*
X160164284Y-96606587D01*
X160164284Y-96606587D02*
X160221427Y-96549444D01*
X160221427Y-96549444D02*
X160278570Y-96435158D01*
X160278570Y-96435158D02*
X160278570Y-96092301D01*
X160278570Y-96092301D02*
X160221427Y-95978015D01*
X160221427Y-95978015D02*
X160164284Y-95920872D01*
X160164284Y-95920872D02*
X160049999Y-95863729D01*
X160049999Y-95863729D02*
X159878570Y-95863729D01*
X159878570Y-95863729D02*
X159764284Y-95920872D01*
X159764284Y-95920872D02*
X159707142Y-95978015D01*
X159707142Y-95978015D02*
X159649999Y-96092301D01*
X159649999Y-96092301D02*
X159649999Y-96435158D01*
X159649999Y-96435158D02*
X159707142Y-96549444D01*
X159707142Y-96549444D02*
X159764284Y-96606587D01*
X159764284Y-96606587D02*
X159878570Y-96663729D01*
X159878570Y-96663729D02*
X160049999Y-96663729D01*
X159135713Y-95863729D02*
X159135713Y-96663729D01*
X159135713Y-95978015D02*
X159078570Y-95920872D01*
X159078570Y-95920872D02*
X158964285Y-95863729D01*
X158964285Y-95863729D02*
X158792856Y-95863729D01*
X158792856Y-95863729D02*
X158678570Y-95920872D01*
X158678570Y-95920872D02*
X158621428Y-96035158D01*
X158621428Y-96035158D02*
X158621428Y-96663729D01*
X158221428Y-95863729D02*
X157764285Y-95863729D01*
X158049999Y-95463729D02*
X158049999Y-96492301D01*
X158049999Y-96492301D02*
X157992856Y-96606587D01*
X157992856Y-96606587D02*
X157878571Y-96663729D01*
X157878571Y-96663729D02*
X157764285Y-96663729D01*
X157364285Y-96663729D02*
X157364285Y-95863729D01*
X157364285Y-96092301D02*
X157307142Y-95978015D01*
X157307142Y-95978015D02*
X157250000Y-95920872D01*
X157250000Y-95920872D02*
X157135714Y-95863729D01*
X157135714Y-95863729D02*
X157021428Y-95863729D01*
X156450000Y-96663729D02*
X156564285Y-96606587D01*
X156564285Y-96606587D02*
X156621428Y-96549444D01*
X156621428Y-96549444D02*
X156678571Y-96435158D01*
X156678571Y-96435158D02*
X156678571Y-96092301D01*
X156678571Y-96092301D02*
X156621428Y-95978015D01*
X156621428Y-95978015D02*
X156564285Y-95920872D01*
X156564285Y-95920872D02*
X156450000Y-95863729D01*
X156450000Y-95863729D02*
X156278571Y-95863729D01*
X156278571Y-95863729D02*
X156164285Y-95920872D01*
X156164285Y-95920872D02*
X156107143Y-95978015D01*
X156107143Y-95978015D02*
X156050000Y-96092301D01*
X156050000Y-96092301D02*
X156050000Y-96435158D01*
X156050000Y-96435158D02*
X156107143Y-96549444D01*
X156107143Y-96549444D02*
X156164285Y-96606587D01*
X156164285Y-96606587D02*
X156278571Y-96663729D01*
X156278571Y-96663729D02*
X156450000Y-96663729D01*
X155364286Y-96663729D02*
X155478571Y-96606587D01*
X155478571Y-96606587D02*
X155535714Y-96492301D01*
X155535714Y-96492301D02*
X155535714Y-95463729D01*
X154964286Y-96606587D02*
X154850000Y-96663729D01*
X154850000Y-96663729D02*
X154621429Y-96663729D01*
X154621429Y-96663729D02*
X154507143Y-96606587D01*
X154507143Y-96606587D02*
X154450000Y-96492301D01*
X154450000Y-96492301D02*
X154450000Y-96435158D01*
X154450000Y-96435158D02*
X154507143Y-96320872D01*
X154507143Y-96320872D02*
X154621429Y-96263729D01*
X154621429Y-96263729D02*
X154792858Y-96263729D01*
X154792858Y-96263729D02*
X154907143Y-96206587D01*
X154907143Y-96206587D02*
X154964286Y-96092301D01*
X154964286Y-96092301D02*
X154964286Y-96035158D01*
X154964286Y-96035158D02*
X154907143Y-95920872D01*
X154907143Y-95920872D02*
X154792858Y-95863729D01*
X154792858Y-95863729D02*
X154621429Y-95863729D01*
X154621429Y-95863729D02*
X154507143Y-95920872D01*
X163735713Y-98538520D02*
X163564285Y-98595662D01*
X163564285Y-98595662D02*
X163278570Y-98595662D01*
X163278570Y-98595662D02*
X163164285Y-98538520D01*
X163164285Y-98538520D02*
X163107142Y-98481377D01*
X163107142Y-98481377D02*
X163049999Y-98367091D01*
X163049999Y-98367091D02*
X163049999Y-98252805D01*
X163049999Y-98252805D02*
X163107142Y-98138520D01*
X163107142Y-98138520D02*
X163164285Y-98081377D01*
X163164285Y-98081377D02*
X163278570Y-98024234D01*
X163278570Y-98024234D02*
X163507142Y-97967091D01*
X163507142Y-97967091D02*
X163621427Y-97909948D01*
X163621427Y-97909948D02*
X163678570Y-97852805D01*
X163678570Y-97852805D02*
X163735713Y-97738520D01*
X163735713Y-97738520D02*
X163735713Y-97624234D01*
X163735713Y-97624234D02*
X163678570Y-97509948D01*
X163678570Y-97509948D02*
X163621427Y-97452805D01*
X163621427Y-97452805D02*
X163507142Y-97395662D01*
X163507142Y-97395662D02*
X163221427Y-97395662D01*
X163221427Y-97395662D02*
X163049999Y-97452805D01*
X162078570Y-98538520D02*
X162192856Y-98595662D01*
X162192856Y-98595662D02*
X162421428Y-98595662D01*
X162421428Y-98595662D02*
X162535713Y-98538520D01*
X162535713Y-98538520D02*
X162592856Y-98424234D01*
X162592856Y-98424234D02*
X162592856Y-97967091D01*
X162592856Y-97967091D02*
X162535713Y-97852805D01*
X162535713Y-97852805D02*
X162421428Y-97795662D01*
X162421428Y-97795662D02*
X162192856Y-97795662D01*
X162192856Y-97795662D02*
X162078570Y-97852805D01*
X162078570Y-97852805D02*
X162021428Y-97967091D01*
X162021428Y-97967091D02*
X162021428Y-98081377D01*
X162021428Y-98081377D02*
X162592856Y-98195662D01*
X161507142Y-97795662D02*
X161507142Y-98995662D01*
X161507142Y-97852805D02*
X161392857Y-97795662D01*
X161392857Y-97795662D02*
X161164285Y-97795662D01*
X161164285Y-97795662D02*
X161049999Y-97852805D01*
X161049999Y-97852805D02*
X160992857Y-97909948D01*
X160992857Y-97909948D02*
X160935714Y-98024234D01*
X160935714Y-98024234D02*
X160935714Y-98367091D01*
X160935714Y-98367091D02*
X160992857Y-98481377D01*
X160992857Y-98481377D02*
X161049999Y-98538520D01*
X161049999Y-98538520D02*
X161164285Y-98595662D01*
X161164285Y-98595662D02*
X161392857Y-98595662D01*
X161392857Y-98595662D02*
X161507142Y-98538520D01*
X160478571Y-97509948D02*
X160421428Y-97452805D01*
X160421428Y-97452805D02*
X160307143Y-97395662D01*
X160307143Y-97395662D02*
X160021428Y-97395662D01*
X160021428Y-97395662D02*
X159907143Y-97452805D01*
X159907143Y-97452805D02*
X159850000Y-97509948D01*
X159850000Y-97509948D02*
X159792857Y-97624234D01*
X159792857Y-97624234D02*
X159792857Y-97738520D01*
X159792857Y-97738520D02*
X159850000Y-97909948D01*
X159850000Y-97909948D02*
X160535714Y-98595662D01*
X160535714Y-98595662D02*
X159792857Y-98595662D01*
X159050000Y-97395662D02*
X158935714Y-97395662D01*
X158935714Y-97395662D02*
X158821428Y-97452805D01*
X158821428Y-97452805D02*
X158764286Y-97509948D01*
X158764286Y-97509948D02*
X158707143Y-97624234D01*
X158707143Y-97624234D02*
X158650000Y-97852805D01*
X158650000Y-97852805D02*
X158650000Y-98138520D01*
X158650000Y-98138520D02*
X158707143Y-98367091D01*
X158707143Y-98367091D02*
X158764286Y-98481377D01*
X158764286Y-98481377D02*
X158821428Y-98538520D01*
X158821428Y-98538520D02*
X158935714Y-98595662D01*
X158935714Y-98595662D02*
X159050000Y-98595662D01*
X159050000Y-98595662D02*
X159164286Y-98538520D01*
X159164286Y-98538520D02*
X159221428Y-98481377D01*
X159221428Y-98481377D02*
X159278571Y-98367091D01*
X159278571Y-98367091D02*
X159335714Y-98138520D01*
X159335714Y-98138520D02*
X159335714Y-97852805D01*
X159335714Y-97852805D02*
X159278571Y-97624234D01*
X159278571Y-97624234D02*
X159221428Y-97509948D01*
X159221428Y-97509948D02*
X159164286Y-97452805D01*
X159164286Y-97452805D02*
X159050000Y-97395662D01*
X158192857Y-97509948D02*
X158135714Y-97452805D01*
X158135714Y-97452805D02*
X158021429Y-97395662D01*
X158021429Y-97395662D02*
X157735714Y-97395662D01*
X157735714Y-97395662D02*
X157621429Y-97452805D01*
X157621429Y-97452805D02*
X157564286Y-97509948D01*
X157564286Y-97509948D02*
X157507143Y-97624234D01*
X157507143Y-97624234D02*
X157507143Y-97738520D01*
X157507143Y-97738520D02*
X157564286Y-97909948D01*
X157564286Y-97909948D02*
X158250000Y-98595662D01*
X158250000Y-98595662D02*
X157507143Y-98595662D01*
X156478572Y-97395662D02*
X156707143Y-97395662D01*
X156707143Y-97395662D02*
X156821429Y-97452805D01*
X156821429Y-97452805D02*
X156878572Y-97509948D01*
X156878572Y-97509948D02*
X156992857Y-97681377D01*
X156992857Y-97681377D02*
X157050000Y-97909948D01*
X157050000Y-97909948D02*
X157050000Y-98367091D01*
X157050000Y-98367091D02*
X156992857Y-98481377D01*
X156992857Y-98481377D02*
X156935714Y-98538520D01*
X156935714Y-98538520D02*
X156821429Y-98595662D01*
X156821429Y-98595662D02*
X156592857Y-98595662D01*
X156592857Y-98595662D02*
X156478572Y-98538520D01*
X156478572Y-98538520D02*
X156421429Y-98481377D01*
X156421429Y-98481377D02*
X156364286Y-98367091D01*
X156364286Y-98367091D02*
X156364286Y-98081377D01*
X156364286Y-98081377D02*
X156421429Y-97967091D01*
X156421429Y-97967091D02*
X156478572Y-97909948D01*
X156478572Y-97909948D02*
X156592857Y-97852805D01*
X156592857Y-97852805D02*
X156821429Y-97852805D01*
X156821429Y-97852805D02*
X156935714Y-97909948D01*
X156935714Y-97909948D02*
X156992857Y-97967091D01*
X156992857Y-97967091D02*
X157050000Y-98081377D01*
D13*
X232218094Y-109699819D02*
X232218094Y-108699819D01*
X232218094Y-108699819D02*
X231979999Y-108699819D01*
X231979999Y-108699819D02*
X231837142Y-108747438D01*
X231837142Y-108747438D02*
X231741904Y-108842676D01*
X231741904Y-108842676D02*
X231694285Y-108937914D01*
X231694285Y-108937914D02*
X231646666Y-109128390D01*
X231646666Y-109128390D02*
X231646666Y-109271247D01*
X231646666Y-109271247D02*
X231694285Y-109461723D01*
X231694285Y-109461723D02*
X231741904Y-109556961D01*
X231741904Y-109556961D02*
X231837142Y-109652200D01*
X231837142Y-109652200D02*
X231979999Y-109699819D01*
X231979999Y-109699819D02*
X232218094Y-109699819D01*
X230694285Y-109699819D02*
X231265713Y-109699819D01*
X230979999Y-109699819D02*
X230979999Y-108699819D01*
X230979999Y-108699819D02*
X231075237Y-108842676D01*
X231075237Y-108842676D02*
X231170475Y-108937914D01*
X231170475Y-108937914D02*
X231265713Y-108985533D01*
X232328094Y-104149819D02*
X232328094Y-103149819D01*
X232328094Y-103149819D02*
X232089999Y-103149819D01*
X232089999Y-103149819D02*
X231947142Y-103197438D01*
X231947142Y-103197438D02*
X231851904Y-103292676D01*
X231851904Y-103292676D02*
X231804285Y-103387914D01*
X231804285Y-103387914D02*
X231756666Y-103578390D01*
X231756666Y-103578390D02*
X231756666Y-103721247D01*
X231756666Y-103721247D02*
X231804285Y-103911723D01*
X231804285Y-103911723D02*
X231851904Y-104006961D01*
X231851904Y-104006961D02*
X231947142Y-104102200D01*
X231947142Y-104102200D02*
X232089999Y-104149819D01*
X232089999Y-104149819D02*
X232328094Y-104149819D01*
X231375713Y-103245057D02*
X231328094Y-103197438D01*
X231328094Y-103197438D02*
X231232856Y-103149819D01*
X231232856Y-103149819D02*
X230994761Y-103149819D01*
X230994761Y-103149819D02*
X230899523Y-103197438D01*
X230899523Y-103197438D02*
X230851904Y-103245057D01*
X230851904Y-103245057D02*
X230804285Y-103340295D01*
X230804285Y-103340295D02*
X230804285Y-103435533D01*
X230804285Y-103435533D02*
X230851904Y-103578390D01*
X230851904Y-103578390D02*
X231423332Y-104149819D01*
X231423332Y-104149819D02*
X230804285Y-104149819D01*
X232288094Y-97979819D02*
X232288094Y-96979819D01*
X232288094Y-96979819D02*
X232049999Y-96979819D01*
X232049999Y-96979819D02*
X231907142Y-97027438D01*
X231907142Y-97027438D02*
X231811904Y-97122676D01*
X231811904Y-97122676D02*
X231764285Y-97217914D01*
X231764285Y-97217914D02*
X231716666Y-97408390D01*
X231716666Y-97408390D02*
X231716666Y-97551247D01*
X231716666Y-97551247D02*
X231764285Y-97741723D01*
X231764285Y-97741723D02*
X231811904Y-97836961D01*
X231811904Y-97836961D02*
X231907142Y-97932200D01*
X231907142Y-97932200D02*
X232049999Y-97979819D01*
X232049999Y-97979819D02*
X232288094Y-97979819D01*
X231383332Y-96979819D02*
X230764285Y-96979819D01*
X230764285Y-96979819D02*
X231097618Y-97360771D01*
X231097618Y-97360771D02*
X230954761Y-97360771D01*
X230954761Y-97360771D02*
X230859523Y-97408390D01*
X230859523Y-97408390D02*
X230811904Y-97456009D01*
X230811904Y-97456009D02*
X230764285Y-97551247D01*
X230764285Y-97551247D02*
X230764285Y-97789342D01*
X230764285Y-97789342D02*
X230811904Y-97884580D01*
X230811904Y-97884580D02*
X230859523Y-97932200D01*
X230859523Y-97932200D02*
X230954761Y-97979819D01*
X230954761Y-97979819D02*
X231240475Y-97979819D01*
X231240475Y-97979819D02*
X231335713Y-97932200D01*
X231335713Y-97932200D02*
X231383332Y-97884580D01*
X213096666Y-73939819D02*
X213429999Y-73463628D01*
X213668094Y-73939819D02*
X213668094Y-72939819D01*
X213668094Y-72939819D02*
X213287142Y-72939819D01*
X213287142Y-72939819D02*
X213191904Y-72987438D01*
X213191904Y-72987438D02*
X213144285Y-73035057D01*
X213144285Y-73035057D02*
X213096666Y-73130295D01*
X213096666Y-73130295D02*
X213096666Y-73273152D01*
X213096666Y-73273152D02*
X213144285Y-73368390D01*
X213144285Y-73368390D02*
X213191904Y-73416009D01*
X213191904Y-73416009D02*
X213287142Y-73463628D01*
X213287142Y-73463628D02*
X213668094Y-73463628D01*
X212763332Y-72939819D02*
X212096666Y-72939819D01*
X212096666Y-72939819D02*
X212525237Y-73939819D01*
X216970476Y-75409819D02*
X217541904Y-75409819D01*
X217256190Y-75409819D02*
X217256190Y-74409819D01*
X217256190Y-74409819D02*
X217351428Y-74552676D01*
X217351428Y-74552676D02*
X217446666Y-74647914D01*
X217446666Y-74647914D02*
X217541904Y-74695533D01*
X216351428Y-74409819D02*
X216256190Y-74409819D01*
X216256190Y-74409819D02*
X216160952Y-74457438D01*
X216160952Y-74457438D02*
X216113333Y-74505057D01*
X216113333Y-74505057D02*
X216065714Y-74600295D01*
X216065714Y-74600295D02*
X216018095Y-74790771D01*
X216018095Y-74790771D02*
X216018095Y-75028866D01*
X216018095Y-75028866D02*
X216065714Y-75219342D01*
X216065714Y-75219342D02*
X216113333Y-75314580D01*
X216113333Y-75314580D02*
X216160952Y-75362200D01*
X216160952Y-75362200D02*
X216256190Y-75409819D01*
X216256190Y-75409819D02*
X216351428Y-75409819D01*
X216351428Y-75409819D02*
X216446666Y-75362200D01*
X216446666Y-75362200D02*
X216494285Y-75314580D01*
X216494285Y-75314580D02*
X216541904Y-75219342D01*
X216541904Y-75219342D02*
X216589523Y-75028866D01*
X216589523Y-75028866D02*
X216589523Y-74790771D01*
X216589523Y-74790771D02*
X216541904Y-74600295D01*
X216541904Y-74600295D02*
X216494285Y-74505057D01*
X216494285Y-74505057D02*
X216446666Y-74457438D01*
X216446666Y-74457438D02*
X216351428Y-74409819D01*
X215589523Y-75409819D02*
X215589523Y-74409819D01*
X215018095Y-75409819D02*
X215446666Y-74838390D01*
X215018095Y-74409819D02*
X215589523Y-74981247D01*
X173601904Y-61489819D02*
X173601904Y-62299342D01*
X173601904Y-62299342D02*
X173554285Y-62394580D01*
X173554285Y-62394580D02*
X173506666Y-62442200D01*
X173506666Y-62442200D02*
X173411428Y-62489819D01*
X173411428Y-62489819D02*
X173220952Y-62489819D01*
X173220952Y-62489819D02*
X173125714Y-62442200D01*
X173125714Y-62442200D02*
X173078095Y-62394580D01*
X173078095Y-62394580D02*
X173030476Y-62299342D01*
X173030476Y-62299342D02*
X173030476Y-61489819D01*
X172030476Y-62489819D02*
X172601904Y-62489819D01*
X172316190Y-62489819D02*
X172316190Y-61489819D01*
X172316190Y-61489819D02*
X172411428Y-61632676D01*
X172411428Y-61632676D02*
X172506666Y-61727914D01*
X172506666Y-61727914D02*
X172601904Y-61775533D01*
X175959047Y-73289819D02*
X175959047Y-74099342D01*
X175959047Y-74099342D02*
X175911428Y-74194580D01*
X175911428Y-74194580D02*
X175863809Y-74242200D01*
X175863809Y-74242200D02*
X175768571Y-74289819D01*
X175768571Y-74289819D02*
X175578095Y-74289819D01*
X175578095Y-74289819D02*
X175482857Y-74242200D01*
X175482857Y-74242200D02*
X175435238Y-74194580D01*
X175435238Y-74194580D02*
X175387619Y-74099342D01*
X175387619Y-74099342D02*
X175387619Y-73289819D01*
X174435238Y-74289819D02*
X174911428Y-74289819D01*
X174911428Y-74289819D02*
X174911428Y-73289819D01*
X174101904Y-74289819D02*
X174101904Y-73289819D01*
X174101904Y-73289819D02*
X173530476Y-74289819D01*
X173530476Y-74289819D02*
X173530476Y-73289819D01*
X173101904Y-73385057D02*
X173054285Y-73337438D01*
X173054285Y-73337438D02*
X172959047Y-73289819D01*
X172959047Y-73289819D02*
X172720952Y-73289819D01*
X172720952Y-73289819D02*
X172625714Y-73337438D01*
X172625714Y-73337438D02*
X172578095Y-73385057D01*
X172578095Y-73385057D02*
X172530476Y-73480295D01*
X172530476Y-73480295D02*
X172530476Y-73575533D01*
X172530476Y-73575533D02*
X172578095Y-73718390D01*
X172578095Y-73718390D02*
X173149523Y-74289819D01*
X173149523Y-74289819D02*
X172530476Y-74289819D01*
X171911428Y-73289819D02*
X171816190Y-73289819D01*
X171816190Y-73289819D02*
X171720952Y-73337438D01*
X171720952Y-73337438D02*
X171673333Y-73385057D01*
X171673333Y-73385057D02*
X171625714Y-73480295D01*
X171625714Y-73480295D02*
X171578095Y-73670771D01*
X171578095Y-73670771D02*
X171578095Y-73908866D01*
X171578095Y-73908866D02*
X171625714Y-74099342D01*
X171625714Y-74099342D02*
X171673333Y-74194580D01*
X171673333Y-74194580D02*
X171720952Y-74242200D01*
X171720952Y-74242200D02*
X171816190Y-74289819D01*
X171816190Y-74289819D02*
X171911428Y-74289819D01*
X171911428Y-74289819D02*
X172006666Y-74242200D01*
X172006666Y-74242200D02*
X172054285Y-74194580D01*
X172054285Y-74194580D02*
X172101904Y-74099342D01*
X172101904Y-74099342D02*
X172149523Y-73908866D01*
X172149523Y-73908866D02*
X172149523Y-73670771D01*
X172149523Y-73670771D02*
X172101904Y-73480295D01*
X172101904Y-73480295D02*
X172054285Y-73385057D01*
X172054285Y-73385057D02*
X172006666Y-73337438D01*
X172006666Y-73337438D02*
X171911428Y-73289819D01*
X170959047Y-73289819D02*
X170863809Y-73289819D01*
X170863809Y-73289819D02*
X170768571Y-73337438D01*
X170768571Y-73337438D02*
X170720952Y-73385057D01*
X170720952Y-73385057D02*
X170673333Y-73480295D01*
X170673333Y-73480295D02*
X170625714Y-73670771D01*
X170625714Y-73670771D02*
X170625714Y-73908866D01*
X170625714Y-73908866D02*
X170673333Y-74099342D01*
X170673333Y-74099342D02*
X170720952Y-74194580D01*
X170720952Y-74194580D02*
X170768571Y-74242200D01*
X170768571Y-74242200D02*
X170863809Y-74289819D01*
X170863809Y-74289819D02*
X170959047Y-74289819D01*
X170959047Y-74289819D02*
X171054285Y-74242200D01*
X171054285Y-74242200D02*
X171101904Y-74194580D01*
X171101904Y-74194580D02*
X171149523Y-74099342D01*
X171149523Y-74099342D02*
X171197142Y-73908866D01*
X171197142Y-73908866D02*
X171197142Y-73670771D01*
X171197142Y-73670771D02*
X171149523Y-73480295D01*
X171149523Y-73480295D02*
X171101904Y-73385057D01*
X171101904Y-73385057D02*
X171054285Y-73337438D01*
X171054285Y-73337438D02*
X170959047Y-73289819D01*
X170292380Y-73289819D02*
X169673333Y-73289819D01*
X169673333Y-73289819D02*
X170006666Y-73670771D01*
X170006666Y-73670771D02*
X169863809Y-73670771D01*
X169863809Y-73670771D02*
X169768571Y-73718390D01*
X169768571Y-73718390D02*
X169720952Y-73766009D01*
X169720952Y-73766009D02*
X169673333Y-73861247D01*
X169673333Y-73861247D02*
X169673333Y-74099342D01*
X169673333Y-74099342D02*
X169720952Y-74194580D01*
X169720952Y-74194580D02*
X169768571Y-74242200D01*
X169768571Y-74242200D02*
X169863809Y-74289819D01*
X169863809Y-74289819D02*
X170149523Y-74289819D01*
X170149523Y-74289819D02*
X170244761Y-74242200D01*
X170244761Y-74242200D02*
X170292380Y-74194580D01*
X225176666Y-108929819D02*
X225509999Y-108453628D01*
X225748094Y-108929819D02*
X225748094Y-107929819D01*
X225748094Y-107929819D02*
X225367142Y-107929819D01*
X225367142Y-107929819D02*
X225271904Y-107977438D01*
X225271904Y-107977438D02*
X225224285Y-108025057D01*
X225224285Y-108025057D02*
X225176666Y-108120295D01*
X225176666Y-108120295D02*
X225176666Y-108263152D01*
X225176666Y-108263152D02*
X225224285Y-108358390D01*
X225224285Y-108358390D02*
X225271904Y-108406009D01*
X225271904Y-108406009D02*
X225367142Y-108453628D01*
X225367142Y-108453628D02*
X225748094Y-108453628D01*
X224224285Y-108929819D02*
X224795713Y-108929819D01*
X224509999Y-108929819D02*
X224509999Y-107929819D01*
X224509999Y-107929819D02*
X224605237Y-108072676D01*
X224605237Y-108072676D02*
X224700475Y-108167914D01*
X224700475Y-108167914D02*
X224795713Y-108215533D01*
X220241904Y-108145057D02*
X220194285Y-108097438D01*
X220194285Y-108097438D02*
X220099047Y-108049819D01*
X220099047Y-108049819D02*
X219860952Y-108049819D01*
X219860952Y-108049819D02*
X219765714Y-108097438D01*
X219765714Y-108097438D02*
X219718095Y-108145057D01*
X219718095Y-108145057D02*
X219670476Y-108240295D01*
X219670476Y-108240295D02*
X219670476Y-108335533D01*
X219670476Y-108335533D02*
X219718095Y-108478390D01*
X219718095Y-108478390D02*
X220289523Y-109049819D01*
X220289523Y-109049819D02*
X219670476Y-109049819D01*
X219241904Y-109049819D02*
X219241904Y-108049819D01*
X218670476Y-109049819D02*
X219099047Y-108478390D01*
X218670476Y-108049819D02*
X219241904Y-108621247D01*
X218289523Y-108145057D02*
X218241904Y-108097438D01*
X218241904Y-108097438D02*
X218146666Y-108049819D01*
X218146666Y-108049819D02*
X217908571Y-108049819D01*
X217908571Y-108049819D02*
X217813333Y-108097438D01*
X217813333Y-108097438D02*
X217765714Y-108145057D01*
X217765714Y-108145057D02*
X217718095Y-108240295D01*
X217718095Y-108240295D02*
X217718095Y-108335533D01*
X217718095Y-108335533D02*
X217765714Y-108478390D01*
X217765714Y-108478390D02*
X218337142Y-109049819D01*
X218337142Y-109049819D02*
X217718095Y-109049819D01*
X206296666Y-75464580D02*
X206344285Y-75512200D01*
X206344285Y-75512200D02*
X206487142Y-75559819D01*
X206487142Y-75559819D02*
X206582380Y-75559819D01*
X206582380Y-75559819D02*
X206725237Y-75512200D01*
X206725237Y-75512200D02*
X206820475Y-75416961D01*
X206820475Y-75416961D02*
X206868094Y-75321723D01*
X206868094Y-75321723D02*
X206915713Y-75131247D01*
X206915713Y-75131247D02*
X206915713Y-74988390D01*
X206915713Y-74988390D02*
X206868094Y-74797914D01*
X206868094Y-74797914D02*
X206820475Y-74702676D01*
X206820475Y-74702676D02*
X206725237Y-74607438D01*
X206725237Y-74607438D02*
X206582380Y-74559819D01*
X206582380Y-74559819D02*
X206487142Y-74559819D01*
X206487142Y-74559819D02*
X206344285Y-74607438D01*
X206344285Y-74607438D02*
X206296666Y-74655057D01*
X205963332Y-74559819D02*
X205344285Y-74559819D01*
X205344285Y-74559819D02*
X205677618Y-74940771D01*
X205677618Y-74940771D02*
X205534761Y-74940771D01*
X205534761Y-74940771D02*
X205439523Y-74988390D01*
X205439523Y-74988390D02*
X205391904Y-75036009D01*
X205391904Y-75036009D02*
X205344285Y-75131247D01*
X205344285Y-75131247D02*
X205344285Y-75369342D01*
X205344285Y-75369342D02*
X205391904Y-75464580D01*
X205391904Y-75464580D02*
X205439523Y-75512200D01*
X205439523Y-75512200D02*
X205534761Y-75559819D01*
X205534761Y-75559819D02*
X205820475Y-75559819D01*
X205820475Y-75559819D02*
X205915713Y-75512200D01*
X205915713Y-75512200D02*
X205963332Y-75464580D01*
X209997619Y-73889819D02*
X210569047Y-73889819D01*
X210283333Y-73889819D02*
X210283333Y-72889819D01*
X210283333Y-72889819D02*
X210378571Y-73032676D01*
X210378571Y-73032676D02*
X210473809Y-73127914D01*
X210473809Y-73127914D02*
X210569047Y-73175533D01*
X209378571Y-72889819D02*
X209283333Y-72889819D01*
X209283333Y-72889819D02*
X209188095Y-72937438D01*
X209188095Y-72937438D02*
X209140476Y-72985057D01*
X209140476Y-72985057D02*
X209092857Y-73080295D01*
X209092857Y-73080295D02*
X209045238Y-73270771D01*
X209045238Y-73270771D02*
X209045238Y-73508866D01*
X209045238Y-73508866D02*
X209092857Y-73699342D01*
X209092857Y-73699342D02*
X209140476Y-73794580D01*
X209140476Y-73794580D02*
X209188095Y-73842200D01*
X209188095Y-73842200D02*
X209283333Y-73889819D01*
X209283333Y-73889819D02*
X209378571Y-73889819D01*
X209378571Y-73889819D02*
X209473809Y-73842200D01*
X209473809Y-73842200D02*
X209521428Y-73794580D01*
X209521428Y-73794580D02*
X209569047Y-73699342D01*
X209569047Y-73699342D02*
X209616666Y-73508866D01*
X209616666Y-73508866D02*
X209616666Y-73270771D01*
X209616666Y-73270771D02*
X209569047Y-73080295D01*
X209569047Y-73080295D02*
X209521428Y-72985057D01*
X209521428Y-72985057D02*
X209473809Y-72937438D01*
X209473809Y-72937438D02*
X209378571Y-72889819D01*
X208426190Y-72889819D02*
X208330952Y-72889819D01*
X208330952Y-72889819D02*
X208235714Y-72937438D01*
X208235714Y-72937438D02*
X208188095Y-72985057D01*
X208188095Y-72985057D02*
X208140476Y-73080295D01*
X208140476Y-73080295D02*
X208092857Y-73270771D01*
X208092857Y-73270771D02*
X208092857Y-73508866D01*
X208092857Y-73508866D02*
X208140476Y-73699342D01*
X208140476Y-73699342D02*
X208188095Y-73794580D01*
X208188095Y-73794580D02*
X208235714Y-73842200D01*
X208235714Y-73842200D02*
X208330952Y-73889819D01*
X208330952Y-73889819D02*
X208426190Y-73889819D01*
X208426190Y-73889819D02*
X208521428Y-73842200D01*
X208521428Y-73842200D02*
X208569047Y-73794580D01*
X208569047Y-73794580D02*
X208616666Y-73699342D01*
X208616666Y-73699342D02*
X208664285Y-73508866D01*
X208664285Y-73508866D02*
X208664285Y-73270771D01*
X208664285Y-73270771D02*
X208616666Y-73080295D01*
X208616666Y-73080295D02*
X208569047Y-72985057D01*
X208569047Y-72985057D02*
X208521428Y-72937438D01*
X208521428Y-72937438D02*
X208426190Y-72889819D01*
X207664285Y-73223152D02*
X207664285Y-74223152D01*
X207664285Y-73270771D02*
X207569047Y-73223152D01*
X207569047Y-73223152D02*
X207378571Y-73223152D01*
X207378571Y-73223152D02*
X207283333Y-73270771D01*
X207283333Y-73270771D02*
X207235714Y-73318390D01*
X207235714Y-73318390D02*
X207188095Y-73413628D01*
X207188095Y-73413628D02*
X207188095Y-73699342D01*
X207188095Y-73699342D02*
X207235714Y-73794580D01*
X207235714Y-73794580D02*
X207283333Y-73842200D01*
X207283333Y-73842200D02*
X207378571Y-73889819D01*
X207378571Y-73889819D02*
X207569047Y-73889819D01*
X207569047Y-73889819D02*
X207664285Y-73842200D01*
X206426190Y-73366009D02*
X206759523Y-73366009D01*
X206759523Y-73889819D02*
X206759523Y-72889819D01*
X206759523Y-72889819D02*
X206283333Y-72889819D01*
X210146666Y-77909819D02*
X210479999Y-77433628D01*
X210718094Y-77909819D02*
X210718094Y-76909819D01*
X210718094Y-76909819D02*
X210337142Y-76909819D01*
X210337142Y-76909819D02*
X210241904Y-76957438D01*
X210241904Y-76957438D02*
X210194285Y-77005057D01*
X210194285Y-77005057D02*
X210146666Y-77100295D01*
X210146666Y-77100295D02*
X210146666Y-77243152D01*
X210146666Y-77243152D02*
X210194285Y-77338390D01*
X210194285Y-77338390D02*
X210241904Y-77386009D01*
X210241904Y-77386009D02*
X210337142Y-77433628D01*
X210337142Y-77433628D02*
X210718094Y-77433628D01*
X209670475Y-77909819D02*
X209479999Y-77909819D01*
X209479999Y-77909819D02*
X209384761Y-77862200D01*
X209384761Y-77862200D02*
X209337142Y-77814580D01*
X209337142Y-77814580D02*
X209241904Y-77671723D01*
X209241904Y-77671723D02*
X209194285Y-77481247D01*
X209194285Y-77481247D02*
X209194285Y-77100295D01*
X209194285Y-77100295D02*
X209241904Y-77005057D01*
X209241904Y-77005057D02*
X209289523Y-76957438D01*
X209289523Y-76957438D02*
X209384761Y-76909819D01*
X209384761Y-76909819D02*
X209575237Y-76909819D01*
X209575237Y-76909819D02*
X209670475Y-76957438D01*
X209670475Y-76957438D02*
X209718094Y-77005057D01*
X209718094Y-77005057D02*
X209765713Y-77100295D01*
X209765713Y-77100295D02*
X209765713Y-77338390D01*
X209765713Y-77338390D02*
X209718094Y-77433628D01*
X209718094Y-77433628D02*
X209670475Y-77481247D01*
X209670475Y-77481247D02*
X209575237Y-77528866D01*
X209575237Y-77528866D02*
X209384761Y-77528866D01*
X209384761Y-77528866D02*
X209289523Y-77481247D01*
X209289523Y-77481247D02*
X209241904Y-77433628D01*
X209241904Y-77433628D02*
X209194285Y-77338390D01*
X217874285Y-77203152D02*
X217874285Y-77869819D01*
X218112380Y-76822200D02*
X218350475Y-77536485D01*
X218350475Y-77536485D02*
X217731428Y-77536485D01*
X217445713Y-76869819D02*
X216779047Y-76869819D01*
X216779047Y-76869819D02*
X217207618Y-77869819D01*
X216207618Y-76869819D02*
X216112380Y-76869819D01*
X216112380Y-76869819D02*
X216017142Y-76917438D01*
X216017142Y-76917438D02*
X215969523Y-76965057D01*
X215969523Y-76965057D02*
X215921904Y-77060295D01*
X215921904Y-77060295D02*
X215874285Y-77250771D01*
X215874285Y-77250771D02*
X215874285Y-77488866D01*
X215874285Y-77488866D02*
X215921904Y-77679342D01*
X215921904Y-77679342D02*
X215969523Y-77774580D01*
X215969523Y-77774580D02*
X216017142Y-77822200D01*
X216017142Y-77822200D02*
X216112380Y-77869819D01*
X216112380Y-77869819D02*
X216207618Y-77869819D01*
X216207618Y-77869819D02*
X216302856Y-77822200D01*
X216302856Y-77822200D02*
X216350475Y-77774580D01*
X216350475Y-77774580D02*
X216398094Y-77679342D01*
X216398094Y-77679342D02*
X216445713Y-77488866D01*
X216445713Y-77488866D02*
X216445713Y-77250771D01*
X216445713Y-77250771D02*
X216398094Y-77060295D01*
X216398094Y-77060295D02*
X216350475Y-76965057D01*
X216350475Y-76965057D02*
X216302856Y-76917438D01*
X216302856Y-76917438D02*
X216207618Y-76869819D01*
X215445713Y-77346009D02*
X215112380Y-77346009D01*
X214969523Y-77869819D02*
X215445713Y-77869819D01*
X215445713Y-77869819D02*
X215445713Y-76869819D01*
X215445713Y-76869819D02*
X214969523Y-76869819D01*
X225146666Y-96949819D02*
X225479999Y-96473628D01*
X225718094Y-96949819D02*
X225718094Y-95949819D01*
X225718094Y-95949819D02*
X225337142Y-95949819D01*
X225337142Y-95949819D02*
X225241904Y-95997438D01*
X225241904Y-95997438D02*
X225194285Y-96045057D01*
X225194285Y-96045057D02*
X225146666Y-96140295D01*
X225146666Y-96140295D02*
X225146666Y-96283152D01*
X225146666Y-96283152D02*
X225194285Y-96378390D01*
X225194285Y-96378390D02*
X225241904Y-96426009D01*
X225241904Y-96426009D02*
X225337142Y-96473628D01*
X225337142Y-96473628D02*
X225718094Y-96473628D01*
X224241904Y-95949819D02*
X224718094Y-95949819D01*
X224718094Y-95949819D02*
X224765713Y-96426009D01*
X224765713Y-96426009D02*
X224718094Y-96378390D01*
X224718094Y-96378390D02*
X224622856Y-96330771D01*
X224622856Y-96330771D02*
X224384761Y-96330771D01*
X224384761Y-96330771D02*
X224289523Y-96378390D01*
X224289523Y-96378390D02*
X224241904Y-96426009D01*
X224241904Y-96426009D02*
X224194285Y-96521247D01*
X224194285Y-96521247D02*
X224194285Y-96759342D01*
X224194285Y-96759342D02*
X224241904Y-96854580D01*
X224241904Y-96854580D02*
X224289523Y-96902200D01*
X224289523Y-96902200D02*
X224384761Y-96949819D01*
X224384761Y-96949819D02*
X224622856Y-96949819D01*
X224622856Y-96949819D02*
X224718094Y-96902200D01*
X224718094Y-96902200D02*
X224765713Y-96854580D01*
X220134285Y-96273152D02*
X220134285Y-96939819D01*
X220372380Y-95892200D02*
X220610475Y-96606485D01*
X220610475Y-96606485D02*
X219991428Y-96606485D01*
X219705713Y-95939819D02*
X219039047Y-95939819D01*
X219039047Y-95939819D02*
X219467618Y-96939819D01*
X218467618Y-95939819D02*
X218372380Y-95939819D01*
X218372380Y-95939819D02*
X218277142Y-95987438D01*
X218277142Y-95987438D02*
X218229523Y-96035057D01*
X218229523Y-96035057D02*
X218181904Y-96130295D01*
X218181904Y-96130295D02*
X218134285Y-96320771D01*
X218134285Y-96320771D02*
X218134285Y-96558866D01*
X218134285Y-96558866D02*
X218181904Y-96749342D01*
X218181904Y-96749342D02*
X218229523Y-96844580D01*
X218229523Y-96844580D02*
X218277142Y-96892200D01*
X218277142Y-96892200D02*
X218372380Y-96939819D01*
X218372380Y-96939819D02*
X218467618Y-96939819D01*
X218467618Y-96939819D02*
X218562856Y-96892200D01*
X218562856Y-96892200D02*
X218610475Y-96844580D01*
X218610475Y-96844580D02*
X218658094Y-96749342D01*
X218658094Y-96749342D02*
X218705713Y-96558866D01*
X218705713Y-96558866D02*
X218705713Y-96320771D01*
X218705713Y-96320771D02*
X218658094Y-96130295D01*
X218658094Y-96130295D02*
X218610475Y-96035057D01*
X218610475Y-96035057D02*
X218562856Y-95987438D01*
X218562856Y-95987438D02*
X218467618Y-95939819D01*
X217705713Y-96416009D02*
X217372380Y-96416009D01*
X217229523Y-96939819D02*
X217705713Y-96939819D01*
X217705713Y-96939819D02*
X217705713Y-95939819D01*
X217705713Y-95939819D02*
X217229523Y-95939819D01*
X207761904Y-55059819D02*
X207761904Y-55869342D01*
X207761904Y-55869342D02*
X207714285Y-55964580D01*
X207714285Y-55964580D02*
X207666666Y-56012200D01*
X207666666Y-56012200D02*
X207571428Y-56059819D01*
X207571428Y-56059819D02*
X207380952Y-56059819D01*
X207380952Y-56059819D02*
X207285714Y-56012200D01*
X207285714Y-56012200D02*
X207238095Y-55964580D01*
X207238095Y-55964580D02*
X207190476Y-55869342D01*
X207190476Y-55869342D02*
X207190476Y-55059819D01*
X206571428Y-55488390D02*
X206666666Y-55440771D01*
X206666666Y-55440771D02*
X206714285Y-55393152D01*
X206714285Y-55393152D02*
X206761904Y-55297914D01*
X206761904Y-55297914D02*
X206761904Y-55250295D01*
X206761904Y-55250295D02*
X206714285Y-55155057D01*
X206714285Y-55155057D02*
X206666666Y-55107438D01*
X206666666Y-55107438D02*
X206571428Y-55059819D01*
X206571428Y-55059819D02*
X206380952Y-55059819D01*
X206380952Y-55059819D02*
X206285714Y-55107438D01*
X206285714Y-55107438D02*
X206238095Y-55155057D01*
X206238095Y-55155057D02*
X206190476Y-55250295D01*
X206190476Y-55250295D02*
X206190476Y-55297914D01*
X206190476Y-55297914D02*
X206238095Y-55393152D01*
X206238095Y-55393152D02*
X206285714Y-55440771D01*
X206285714Y-55440771D02*
X206380952Y-55488390D01*
X206380952Y-55488390D02*
X206571428Y-55488390D01*
X206571428Y-55488390D02*
X206666666Y-55536009D01*
X206666666Y-55536009D02*
X206714285Y-55583628D01*
X206714285Y-55583628D02*
X206761904Y-55678866D01*
X206761904Y-55678866D02*
X206761904Y-55869342D01*
X206761904Y-55869342D02*
X206714285Y-55964580D01*
X206714285Y-55964580D02*
X206666666Y-56012200D01*
X206666666Y-56012200D02*
X206571428Y-56059819D01*
X206571428Y-56059819D02*
X206380952Y-56059819D01*
X206380952Y-56059819D02*
X206285714Y-56012200D01*
X206285714Y-56012200D02*
X206238095Y-55964580D01*
X206238095Y-55964580D02*
X206190476Y-55869342D01*
X206190476Y-55869342D02*
X206190476Y-55678866D01*
X206190476Y-55678866D02*
X206238095Y-55583628D01*
X206238095Y-55583628D02*
X206285714Y-55536009D01*
X206285714Y-55536009D02*
X206380952Y-55488390D01*
X210396667Y-50701033D02*
X210063334Y-50701033D01*
X210463334Y-50901033D02*
X210230001Y-50201033D01*
X210230001Y-50201033D02*
X209996667Y-50901033D01*
X209763334Y-50901033D02*
X209763334Y-50201033D01*
X209763334Y-50201033D02*
X209496667Y-50201033D01*
X209496667Y-50201033D02*
X209430001Y-50234366D01*
X209430001Y-50234366D02*
X209396667Y-50267700D01*
X209396667Y-50267700D02*
X209363334Y-50334366D01*
X209363334Y-50334366D02*
X209363334Y-50434366D01*
X209363334Y-50434366D02*
X209396667Y-50501033D01*
X209396667Y-50501033D02*
X209430001Y-50534366D01*
X209430001Y-50534366D02*
X209496667Y-50567700D01*
X209496667Y-50567700D02*
X209763334Y-50567700D01*
X209096667Y-50267700D02*
X209063334Y-50234366D01*
X209063334Y-50234366D02*
X208996667Y-50201033D01*
X208996667Y-50201033D02*
X208830001Y-50201033D01*
X208830001Y-50201033D02*
X208763334Y-50234366D01*
X208763334Y-50234366D02*
X208730001Y-50267700D01*
X208730001Y-50267700D02*
X208696667Y-50334366D01*
X208696667Y-50334366D02*
X208696667Y-50401033D01*
X208696667Y-50401033D02*
X208730001Y-50501033D01*
X208730001Y-50501033D02*
X209130001Y-50901033D01*
X209130001Y-50901033D02*
X208696667Y-50901033D01*
X208030000Y-50901033D02*
X208430000Y-50901033D01*
X208230000Y-50901033D02*
X208230000Y-50201033D01*
X208230000Y-50201033D02*
X208296667Y-50301033D01*
X208296667Y-50301033D02*
X208363334Y-50367700D01*
X208363334Y-50367700D02*
X208430000Y-50401033D01*
X207363333Y-50901033D02*
X207763333Y-50901033D01*
X207563333Y-50901033D02*
X207563333Y-50201033D01*
X207563333Y-50201033D02*
X207630000Y-50301033D01*
X207630000Y-50301033D02*
X207696667Y-50367700D01*
X207696667Y-50367700D02*
X207763333Y-50401033D01*
X207096666Y-50267700D02*
X207063333Y-50234366D01*
X207063333Y-50234366D02*
X206996666Y-50201033D01*
X206996666Y-50201033D02*
X206830000Y-50201033D01*
X206830000Y-50201033D02*
X206763333Y-50234366D01*
X206763333Y-50234366D02*
X206730000Y-50267700D01*
X206730000Y-50267700D02*
X206696666Y-50334366D01*
X206696666Y-50334366D02*
X206696666Y-50401033D01*
X206696666Y-50401033D02*
X206730000Y-50501033D01*
X206730000Y-50501033D02*
X207130000Y-50901033D01*
X207130000Y-50901033D02*
X206696666Y-50901033D01*
X206396666Y-50901033D02*
X206396666Y-50201033D01*
X205996666Y-50901033D02*
X206296666Y-50501033D01*
X205996666Y-50201033D02*
X206396666Y-50601033D01*
X205696666Y-50634366D02*
X205163333Y-50634366D01*
X204896666Y-50201033D02*
X204463332Y-50201033D01*
X204463332Y-50201033D02*
X204696666Y-50467700D01*
X204696666Y-50467700D02*
X204596666Y-50467700D01*
X204596666Y-50467700D02*
X204529999Y-50501033D01*
X204529999Y-50501033D02*
X204496666Y-50534366D01*
X204496666Y-50534366D02*
X204463332Y-50601033D01*
X204463332Y-50601033D02*
X204463332Y-50767700D01*
X204463332Y-50767700D02*
X204496666Y-50834366D01*
X204496666Y-50834366D02*
X204529999Y-50867700D01*
X204529999Y-50867700D02*
X204596666Y-50901033D01*
X204596666Y-50901033D02*
X204796666Y-50901033D01*
X204796666Y-50901033D02*
X204863332Y-50867700D01*
X204863332Y-50867700D02*
X204896666Y-50834366D01*
X204163332Y-50834366D02*
X204129999Y-50867700D01*
X204129999Y-50867700D02*
X204163332Y-50901033D01*
X204163332Y-50901033D02*
X204196665Y-50867700D01*
X204196665Y-50867700D02*
X204163332Y-50834366D01*
X204163332Y-50834366D02*
X204163332Y-50901033D01*
X203896666Y-50201033D02*
X203463332Y-50201033D01*
X203463332Y-50201033D02*
X203696666Y-50467700D01*
X203696666Y-50467700D02*
X203596666Y-50467700D01*
X203596666Y-50467700D02*
X203529999Y-50501033D01*
X203529999Y-50501033D02*
X203496666Y-50534366D01*
X203496666Y-50534366D02*
X203463332Y-50601033D01*
X203463332Y-50601033D02*
X203463332Y-50767700D01*
X203463332Y-50767700D02*
X203496666Y-50834366D01*
X203496666Y-50834366D02*
X203529999Y-50867700D01*
X203529999Y-50867700D02*
X203596666Y-50901033D01*
X203596666Y-50901033D02*
X203796666Y-50901033D01*
X203796666Y-50901033D02*
X203863332Y-50867700D01*
X203863332Y-50867700D02*
X203896666Y-50834366D01*
X204340000Y-55534366D02*
X204373333Y-55567700D01*
X204373333Y-55567700D02*
X204473333Y-55601033D01*
X204473333Y-55601033D02*
X204540000Y-55601033D01*
X204540000Y-55601033D02*
X204640000Y-55567700D01*
X204640000Y-55567700D02*
X204706667Y-55501033D01*
X204706667Y-55501033D02*
X204740000Y-55434366D01*
X204740000Y-55434366D02*
X204773333Y-55301033D01*
X204773333Y-55301033D02*
X204773333Y-55201033D01*
X204773333Y-55201033D02*
X204740000Y-55067700D01*
X204740000Y-55067700D02*
X204706667Y-55001033D01*
X204706667Y-55001033D02*
X204640000Y-54934366D01*
X204640000Y-54934366D02*
X204540000Y-54901033D01*
X204540000Y-54901033D02*
X204473333Y-54901033D01*
X204473333Y-54901033D02*
X204373333Y-54934366D01*
X204373333Y-54934366D02*
X204340000Y-54967700D01*
X203673333Y-55601033D02*
X204073333Y-55601033D01*
X203873333Y-55601033D02*
X203873333Y-54901033D01*
X203873333Y-54901033D02*
X203940000Y-55001033D01*
X203940000Y-55001033D02*
X204006667Y-55067700D01*
X204006667Y-55067700D02*
X204073333Y-55101033D01*
X203440000Y-54901033D02*
X203006666Y-54901033D01*
X203006666Y-54901033D02*
X203240000Y-55167700D01*
X203240000Y-55167700D02*
X203140000Y-55167700D01*
X203140000Y-55167700D02*
X203073333Y-55201033D01*
X203073333Y-55201033D02*
X203040000Y-55234366D01*
X203040000Y-55234366D02*
X203006666Y-55301033D01*
X203006666Y-55301033D02*
X203006666Y-55467700D01*
X203006666Y-55467700D02*
X203040000Y-55534366D01*
X203040000Y-55534366D02*
X203073333Y-55567700D01*
X203073333Y-55567700D02*
X203140000Y-55601033D01*
X203140000Y-55601033D02*
X203340000Y-55601033D01*
X203340000Y-55601033D02*
X203406666Y-55567700D01*
X203406666Y-55567700D02*
X203440000Y-55534366D01*
X204703333Y-56651033D02*
X205103333Y-56651033D01*
X204903333Y-56651033D02*
X204903333Y-55951033D01*
X204903333Y-55951033D02*
X204970000Y-56051033D01*
X204970000Y-56051033D02*
X205036667Y-56117700D01*
X205036667Y-56117700D02*
X205103333Y-56151033D01*
X204270000Y-55951033D02*
X204203333Y-55951033D01*
X204203333Y-55951033D02*
X204136666Y-55984366D01*
X204136666Y-55984366D02*
X204103333Y-56017700D01*
X204103333Y-56017700D02*
X204070000Y-56084366D01*
X204070000Y-56084366D02*
X204036666Y-56217700D01*
X204036666Y-56217700D02*
X204036666Y-56384366D01*
X204036666Y-56384366D02*
X204070000Y-56517700D01*
X204070000Y-56517700D02*
X204103333Y-56584366D01*
X204103333Y-56584366D02*
X204136666Y-56617700D01*
X204136666Y-56617700D02*
X204203333Y-56651033D01*
X204203333Y-56651033D02*
X204270000Y-56651033D01*
X204270000Y-56651033D02*
X204336666Y-56617700D01*
X204336666Y-56617700D02*
X204370000Y-56584366D01*
X204370000Y-56584366D02*
X204403333Y-56517700D01*
X204403333Y-56517700D02*
X204436666Y-56384366D01*
X204436666Y-56384366D02*
X204436666Y-56217700D01*
X204436666Y-56217700D02*
X204403333Y-56084366D01*
X204403333Y-56084366D02*
X204370000Y-56017700D01*
X204370000Y-56017700D02*
X204336666Y-55984366D01*
X204336666Y-55984366D02*
X204270000Y-55951033D01*
X203603333Y-55951033D02*
X203536666Y-55951033D01*
X203536666Y-55951033D02*
X203469999Y-55984366D01*
X203469999Y-55984366D02*
X203436666Y-56017700D01*
X203436666Y-56017700D02*
X203403333Y-56084366D01*
X203403333Y-56084366D02*
X203369999Y-56217700D01*
X203369999Y-56217700D02*
X203369999Y-56384366D01*
X203369999Y-56384366D02*
X203403333Y-56517700D01*
X203403333Y-56517700D02*
X203436666Y-56584366D01*
X203436666Y-56584366D02*
X203469999Y-56617700D01*
X203469999Y-56617700D02*
X203536666Y-56651033D01*
X203536666Y-56651033D02*
X203603333Y-56651033D01*
X203603333Y-56651033D02*
X203669999Y-56617700D01*
X203669999Y-56617700D02*
X203703333Y-56584366D01*
X203703333Y-56584366D02*
X203736666Y-56517700D01*
X203736666Y-56517700D02*
X203769999Y-56384366D01*
X203769999Y-56384366D02*
X203769999Y-56217700D01*
X203769999Y-56217700D02*
X203736666Y-56084366D01*
X203736666Y-56084366D02*
X203703333Y-56017700D01*
X203703333Y-56017700D02*
X203669999Y-55984366D01*
X203669999Y-55984366D02*
X203603333Y-55951033D01*
X203069999Y-56184366D02*
X203069999Y-56651033D01*
X203069999Y-56251033D02*
X203036666Y-56217700D01*
X203036666Y-56217700D02*
X202969999Y-56184366D01*
X202969999Y-56184366D02*
X202869999Y-56184366D01*
X202869999Y-56184366D02*
X202803332Y-56217700D01*
X202803332Y-56217700D02*
X202769999Y-56284366D01*
X202769999Y-56284366D02*
X202769999Y-56651033D01*
X202203333Y-56284366D02*
X202436666Y-56284366D01*
X202436666Y-56651033D02*
X202436666Y-55951033D01*
X202436666Y-55951033D02*
X202103333Y-55951033D01*
X191061904Y-74809819D02*
X191061904Y-75619342D01*
X191061904Y-75619342D02*
X191014285Y-75714580D01*
X191014285Y-75714580D02*
X190966666Y-75762200D01*
X190966666Y-75762200D02*
X190871428Y-75809819D01*
X190871428Y-75809819D02*
X190680952Y-75809819D01*
X190680952Y-75809819D02*
X190585714Y-75762200D01*
X190585714Y-75762200D02*
X190538095Y-75714580D01*
X190538095Y-75714580D02*
X190490476Y-75619342D01*
X190490476Y-75619342D02*
X190490476Y-74809819D01*
X190109523Y-74809819D02*
X189442857Y-74809819D01*
X189442857Y-74809819D02*
X189871428Y-75809819D01*
X195641427Y-77179819D02*
X195641427Y-76179819D01*
X195212856Y-77132200D02*
X195069999Y-77179819D01*
X195069999Y-77179819D02*
X194831904Y-77179819D01*
X194831904Y-77179819D02*
X194736666Y-77132200D01*
X194736666Y-77132200D02*
X194689047Y-77084580D01*
X194689047Y-77084580D02*
X194641428Y-76989342D01*
X194641428Y-76989342D02*
X194641428Y-76894104D01*
X194641428Y-76894104D02*
X194689047Y-76798866D01*
X194689047Y-76798866D02*
X194736666Y-76751247D01*
X194736666Y-76751247D02*
X194831904Y-76703628D01*
X194831904Y-76703628D02*
X195022380Y-76656009D01*
X195022380Y-76656009D02*
X195117618Y-76608390D01*
X195117618Y-76608390D02*
X195165237Y-76560771D01*
X195165237Y-76560771D02*
X195212856Y-76465533D01*
X195212856Y-76465533D02*
X195212856Y-76370295D01*
X195212856Y-76370295D02*
X195165237Y-76275057D01*
X195165237Y-76275057D02*
X195117618Y-76227438D01*
X195117618Y-76227438D02*
X195022380Y-76179819D01*
X195022380Y-76179819D02*
X194784285Y-76179819D01*
X194784285Y-76179819D02*
X194641428Y-76227438D01*
X193641428Y-77084580D02*
X193689047Y-77132200D01*
X193689047Y-77132200D02*
X193831904Y-77179819D01*
X193831904Y-77179819D02*
X193927142Y-77179819D01*
X193927142Y-77179819D02*
X194069999Y-77132200D01*
X194069999Y-77132200D02*
X194165237Y-77036961D01*
X194165237Y-77036961D02*
X194212856Y-76941723D01*
X194212856Y-76941723D02*
X194260475Y-76751247D01*
X194260475Y-76751247D02*
X194260475Y-76608390D01*
X194260475Y-76608390D02*
X194212856Y-76417914D01*
X194212856Y-76417914D02*
X194165237Y-76322676D01*
X194165237Y-76322676D02*
X194069999Y-76227438D01*
X194069999Y-76227438D02*
X193927142Y-76179819D01*
X193927142Y-76179819D02*
X193831904Y-76179819D01*
X193831904Y-76179819D02*
X193689047Y-76227438D01*
X193689047Y-76227438D02*
X193641428Y-76275057D01*
X193212856Y-76798866D02*
X192450952Y-76798866D01*
X192022380Y-77132200D02*
X191879523Y-77179819D01*
X191879523Y-77179819D02*
X191641428Y-77179819D01*
X191641428Y-77179819D02*
X191546190Y-77132200D01*
X191546190Y-77132200D02*
X191498571Y-77084580D01*
X191498571Y-77084580D02*
X191450952Y-76989342D01*
X191450952Y-76989342D02*
X191450952Y-76894104D01*
X191450952Y-76894104D02*
X191498571Y-76798866D01*
X191498571Y-76798866D02*
X191546190Y-76751247D01*
X191546190Y-76751247D02*
X191641428Y-76703628D01*
X191641428Y-76703628D02*
X191831904Y-76656009D01*
X191831904Y-76656009D02*
X191927142Y-76608390D01*
X191927142Y-76608390D02*
X191974761Y-76560771D01*
X191974761Y-76560771D02*
X192022380Y-76465533D01*
X192022380Y-76465533D02*
X192022380Y-76370295D01*
X192022380Y-76370295D02*
X191974761Y-76275057D01*
X191974761Y-76275057D02*
X191927142Y-76227438D01*
X191927142Y-76227438D02*
X191831904Y-76179819D01*
X191831904Y-76179819D02*
X191593809Y-76179819D01*
X191593809Y-76179819D02*
X191450952Y-76227438D01*
X191117618Y-76179819D02*
X190450952Y-77179819D01*
X190450952Y-76179819D02*
X191117618Y-77179819D01*
X189546190Y-77179819D02*
X190117618Y-77179819D01*
X189831904Y-77179819D02*
X189831904Y-76179819D01*
X189831904Y-76179819D02*
X189927142Y-76322676D01*
X189927142Y-76322676D02*
X190022380Y-76417914D01*
X190022380Y-76417914D02*
X190117618Y-76465533D01*
X189165237Y-76275057D02*
X189117618Y-76227438D01*
X189117618Y-76227438D02*
X189022380Y-76179819D01*
X189022380Y-76179819D02*
X188784285Y-76179819D01*
X188784285Y-76179819D02*
X188689047Y-76227438D01*
X188689047Y-76227438D02*
X188641428Y-76275057D01*
X188641428Y-76275057D02*
X188593809Y-76370295D01*
X188593809Y-76370295D02*
X188593809Y-76465533D01*
X188593809Y-76465533D02*
X188641428Y-76608390D01*
X188641428Y-76608390D02*
X189212856Y-77179819D01*
X189212856Y-77179819D02*
X188593809Y-77179819D01*
X187736666Y-76179819D02*
X187927142Y-76179819D01*
X187927142Y-76179819D02*
X188022380Y-76227438D01*
X188022380Y-76227438D02*
X188069999Y-76275057D01*
X188069999Y-76275057D02*
X188165237Y-76417914D01*
X188165237Y-76417914D02*
X188212856Y-76608390D01*
X188212856Y-76608390D02*
X188212856Y-76989342D01*
X188212856Y-76989342D02*
X188165237Y-77084580D01*
X188165237Y-77084580D02*
X188117618Y-77132200D01*
X188117618Y-77132200D02*
X188022380Y-77179819D01*
X188022380Y-77179819D02*
X187831904Y-77179819D01*
X187831904Y-77179819D02*
X187736666Y-77132200D01*
X187736666Y-77132200D02*
X187689047Y-77084580D01*
X187689047Y-77084580D02*
X187641428Y-76989342D01*
X187641428Y-76989342D02*
X187641428Y-76751247D01*
X187641428Y-76751247D02*
X187689047Y-76656009D01*
X187689047Y-76656009D02*
X187736666Y-76608390D01*
X187736666Y-76608390D02*
X187831904Y-76560771D01*
X187831904Y-76560771D02*
X188022380Y-76560771D01*
X188022380Y-76560771D02*
X188117618Y-76608390D01*
X188117618Y-76608390D02*
X188165237Y-76656009D01*
X188165237Y-76656009D02*
X188212856Y-76751247D01*
X187260475Y-76275057D02*
X187212856Y-76227438D01*
X187212856Y-76227438D02*
X187117618Y-76179819D01*
X187117618Y-76179819D02*
X186879523Y-76179819D01*
X186879523Y-76179819D02*
X186784285Y-76227438D01*
X186784285Y-76227438D02*
X186736666Y-76275057D01*
X186736666Y-76275057D02*
X186689047Y-76370295D01*
X186689047Y-76370295D02*
X186689047Y-76465533D01*
X186689047Y-76465533D02*
X186736666Y-76608390D01*
X186736666Y-76608390D02*
X187308094Y-77179819D01*
X187308094Y-77179819D02*
X186689047Y-77179819D01*
X186260475Y-76798866D02*
X185498571Y-76798866D01*
X184689047Y-76656009D02*
X184546190Y-76703628D01*
X184546190Y-76703628D02*
X184498571Y-76751247D01*
X184498571Y-76751247D02*
X184450952Y-76846485D01*
X184450952Y-76846485D02*
X184450952Y-76989342D01*
X184450952Y-76989342D02*
X184498571Y-77084580D01*
X184498571Y-77084580D02*
X184546190Y-77132200D01*
X184546190Y-77132200D02*
X184641428Y-77179819D01*
X184641428Y-77179819D02*
X185022380Y-77179819D01*
X185022380Y-77179819D02*
X185022380Y-76179819D01*
X185022380Y-76179819D02*
X184689047Y-76179819D01*
X184689047Y-76179819D02*
X184593809Y-76227438D01*
X184593809Y-76227438D02*
X184546190Y-76275057D01*
X184546190Y-76275057D02*
X184498571Y-76370295D01*
X184498571Y-76370295D02*
X184498571Y-76465533D01*
X184498571Y-76465533D02*
X184546190Y-76560771D01*
X184546190Y-76560771D02*
X184593809Y-76608390D01*
X184593809Y-76608390D02*
X184689047Y-76656009D01*
X184689047Y-76656009D02*
X185022380Y-76656009D01*
X210452857Y-80619819D02*
X210786190Y-80143628D01*
X211024285Y-80619819D02*
X211024285Y-79619819D01*
X211024285Y-79619819D02*
X210643333Y-79619819D01*
X210643333Y-79619819D02*
X210548095Y-79667438D01*
X210548095Y-79667438D02*
X210500476Y-79715057D01*
X210500476Y-79715057D02*
X210452857Y-79810295D01*
X210452857Y-79810295D02*
X210452857Y-79953152D01*
X210452857Y-79953152D02*
X210500476Y-80048390D01*
X210500476Y-80048390D02*
X210548095Y-80096009D01*
X210548095Y-80096009D02*
X210643333Y-80143628D01*
X210643333Y-80143628D02*
X211024285Y-80143628D01*
X209500476Y-80619819D02*
X210071904Y-80619819D01*
X209786190Y-80619819D02*
X209786190Y-79619819D01*
X209786190Y-79619819D02*
X209881428Y-79762676D01*
X209881428Y-79762676D02*
X209976666Y-79857914D01*
X209976666Y-79857914D02*
X210071904Y-79905533D01*
X208548095Y-80619819D02*
X209119523Y-80619819D01*
X208833809Y-80619819D02*
X208833809Y-79619819D01*
X208833809Y-79619819D02*
X208929047Y-79762676D01*
X208929047Y-79762676D02*
X209024285Y-79857914D01*
X209024285Y-79857914D02*
X209119523Y-79905533D01*
X217914285Y-80073152D02*
X217914285Y-80739819D01*
X218152380Y-79692200D02*
X218390475Y-80406485D01*
X218390475Y-80406485D02*
X217771428Y-80406485D01*
X217485713Y-79739819D02*
X216819047Y-79739819D01*
X216819047Y-79739819D02*
X217247618Y-80739819D01*
X216247618Y-79739819D02*
X216152380Y-79739819D01*
X216152380Y-79739819D02*
X216057142Y-79787438D01*
X216057142Y-79787438D02*
X216009523Y-79835057D01*
X216009523Y-79835057D02*
X215961904Y-79930295D01*
X215961904Y-79930295D02*
X215914285Y-80120771D01*
X215914285Y-80120771D02*
X215914285Y-80358866D01*
X215914285Y-80358866D02*
X215961904Y-80549342D01*
X215961904Y-80549342D02*
X216009523Y-80644580D01*
X216009523Y-80644580D02*
X216057142Y-80692200D01*
X216057142Y-80692200D02*
X216152380Y-80739819D01*
X216152380Y-80739819D02*
X216247618Y-80739819D01*
X216247618Y-80739819D02*
X216342856Y-80692200D01*
X216342856Y-80692200D02*
X216390475Y-80644580D01*
X216390475Y-80644580D02*
X216438094Y-80549342D01*
X216438094Y-80549342D02*
X216485713Y-80358866D01*
X216485713Y-80358866D02*
X216485713Y-80120771D01*
X216485713Y-80120771D02*
X216438094Y-79930295D01*
X216438094Y-79930295D02*
X216390475Y-79835057D01*
X216390475Y-79835057D02*
X216342856Y-79787438D01*
X216342856Y-79787438D02*
X216247618Y-79739819D01*
X215485713Y-80216009D02*
X215152380Y-80216009D01*
X215009523Y-80739819D02*
X215485713Y-80739819D01*
X215485713Y-80739819D02*
X215485713Y-79739819D01*
X215485713Y-79739819D02*
X215009523Y-79739819D01*
X206286666Y-83094580D02*
X206334285Y-83142200D01*
X206334285Y-83142200D02*
X206477142Y-83189819D01*
X206477142Y-83189819D02*
X206572380Y-83189819D01*
X206572380Y-83189819D02*
X206715237Y-83142200D01*
X206715237Y-83142200D02*
X206810475Y-83046961D01*
X206810475Y-83046961D02*
X206858094Y-82951723D01*
X206858094Y-82951723D02*
X206905713Y-82761247D01*
X206905713Y-82761247D02*
X206905713Y-82618390D01*
X206905713Y-82618390D02*
X206858094Y-82427914D01*
X206858094Y-82427914D02*
X206810475Y-82332676D01*
X206810475Y-82332676D02*
X206715237Y-82237438D01*
X206715237Y-82237438D02*
X206572380Y-82189819D01*
X206572380Y-82189819D02*
X206477142Y-82189819D01*
X206477142Y-82189819D02*
X206334285Y-82237438D01*
X206334285Y-82237438D02*
X206286666Y-82285057D01*
X205715237Y-82618390D02*
X205810475Y-82570771D01*
X205810475Y-82570771D02*
X205858094Y-82523152D01*
X205858094Y-82523152D02*
X205905713Y-82427914D01*
X205905713Y-82427914D02*
X205905713Y-82380295D01*
X205905713Y-82380295D02*
X205858094Y-82285057D01*
X205858094Y-82285057D02*
X205810475Y-82237438D01*
X205810475Y-82237438D02*
X205715237Y-82189819D01*
X205715237Y-82189819D02*
X205524761Y-82189819D01*
X205524761Y-82189819D02*
X205429523Y-82237438D01*
X205429523Y-82237438D02*
X205381904Y-82285057D01*
X205381904Y-82285057D02*
X205334285Y-82380295D01*
X205334285Y-82380295D02*
X205334285Y-82427914D01*
X205334285Y-82427914D02*
X205381904Y-82523152D01*
X205381904Y-82523152D02*
X205429523Y-82570771D01*
X205429523Y-82570771D02*
X205524761Y-82618390D01*
X205524761Y-82618390D02*
X205715237Y-82618390D01*
X205715237Y-82618390D02*
X205810475Y-82666009D01*
X205810475Y-82666009D02*
X205858094Y-82713628D01*
X205858094Y-82713628D02*
X205905713Y-82808866D01*
X205905713Y-82808866D02*
X205905713Y-82999342D01*
X205905713Y-82999342D02*
X205858094Y-83094580D01*
X205858094Y-83094580D02*
X205810475Y-83142200D01*
X205810475Y-83142200D02*
X205715237Y-83189819D01*
X205715237Y-83189819D02*
X205524761Y-83189819D01*
X205524761Y-83189819D02*
X205429523Y-83142200D01*
X205429523Y-83142200D02*
X205381904Y-83094580D01*
X205381904Y-83094580D02*
X205334285Y-82999342D01*
X205334285Y-82999342D02*
X205334285Y-82808866D01*
X205334285Y-82808866D02*
X205381904Y-82713628D01*
X205381904Y-82713628D02*
X205429523Y-82666009D01*
X205429523Y-82666009D02*
X205524761Y-82618390D01*
X209607619Y-84589819D02*
X210179047Y-84589819D01*
X209893333Y-84589819D02*
X209893333Y-83589819D01*
X209893333Y-83589819D02*
X209988571Y-83732676D01*
X209988571Y-83732676D02*
X210083809Y-83827914D01*
X210083809Y-83827914D02*
X210179047Y-83875533D01*
X208988571Y-83589819D02*
X208893333Y-83589819D01*
X208893333Y-83589819D02*
X208798095Y-83637438D01*
X208798095Y-83637438D02*
X208750476Y-83685057D01*
X208750476Y-83685057D02*
X208702857Y-83780295D01*
X208702857Y-83780295D02*
X208655238Y-83970771D01*
X208655238Y-83970771D02*
X208655238Y-84208866D01*
X208655238Y-84208866D02*
X208702857Y-84399342D01*
X208702857Y-84399342D02*
X208750476Y-84494580D01*
X208750476Y-84494580D02*
X208798095Y-84542200D01*
X208798095Y-84542200D02*
X208893333Y-84589819D01*
X208893333Y-84589819D02*
X208988571Y-84589819D01*
X208988571Y-84589819D02*
X209083809Y-84542200D01*
X209083809Y-84542200D02*
X209131428Y-84494580D01*
X209131428Y-84494580D02*
X209179047Y-84399342D01*
X209179047Y-84399342D02*
X209226666Y-84208866D01*
X209226666Y-84208866D02*
X209226666Y-83970771D01*
X209226666Y-83970771D02*
X209179047Y-83780295D01*
X209179047Y-83780295D02*
X209131428Y-83685057D01*
X209131428Y-83685057D02*
X209083809Y-83637438D01*
X209083809Y-83637438D02*
X208988571Y-83589819D01*
X208036190Y-83589819D02*
X207940952Y-83589819D01*
X207940952Y-83589819D02*
X207845714Y-83637438D01*
X207845714Y-83637438D02*
X207798095Y-83685057D01*
X207798095Y-83685057D02*
X207750476Y-83780295D01*
X207750476Y-83780295D02*
X207702857Y-83970771D01*
X207702857Y-83970771D02*
X207702857Y-84208866D01*
X207702857Y-84208866D02*
X207750476Y-84399342D01*
X207750476Y-84399342D02*
X207798095Y-84494580D01*
X207798095Y-84494580D02*
X207845714Y-84542200D01*
X207845714Y-84542200D02*
X207940952Y-84589819D01*
X207940952Y-84589819D02*
X208036190Y-84589819D01*
X208036190Y-84589819D02*
X208131428Y-84542200D01*
X208131428Y-84542200D02*
X208179047Y-84494580D01*
X208179047Y-84494580D02*
X208226666Y-84399342D01*
X208226666Y-84399342D02*
X208274285Y-84208866D01*
X208274285Y-84208866D02*
X208274285Y-83970771D01*
X208274285Y-83970771D02*
X208226666Y-83780295D01*
X208226666Y-83780295D02*
X208179047Y-83685057D01*
X208179047Y-83685057D02*
X208131428Y-83637438D01*
X208131428Y-83637438D02*
X208036190Y-83589819D01*
X207274285Y-83923152D02*
X207274285Y-84923152D01*
X207274285Y-83970771D02*
X207179047Y-83923152D01*
X207179047Y-83923152D02*
X206988571Y-83923152D01*
X206988571Y-83923152D02*
X206893333Y-83970771D01*
X206893333Y-83970771D02*
X206845714Y-84018390D01*
X206845714Y-84018390D02*
X206798095Y-84113628D01*
X206798095Y-84113628D02*
X206798095Y-84399342D01*
X206798095Y-84399342D02*
X206845714Y-84494580D01*
X206845714Y-84494580D02*
X206893333Y-84542200D01*
X206893333Y-84542200D02*
X206988571Y-84589819D01*
X206988571Y-84589819D02*
X207179047Y-84589819D01*
X207179047Y-84589819D02*
X207274285Y-84542200D01*
X206036190Y-84066009D02*
X206369523Y-84066009D01*
X206369523Y-84589819D02*
X206369523Y-83589819D01*
X206369523Y-83589819D02*
X205893333Y-83589819D01*
X225196666Y-102889819D02*
X225529999Y-102413628D01*
X225768094Y-102889819D02*
X225768094Y-101889819D01*
X225768094Y-101889819D02*
X225387142Y-101889819D01*
X225387142Y-101889819D02*
X225291904Y-101937438D01*
X225291904Y-101937438D02*
X225244285Y-101985057D01*
X225244285Y-101985057D02*
X225196666Y-102080295D01*
X225196666Y-102080295D02*
X225196666Y-102223152D01*
X225196666Y-102223152D02*
X225244285Y-102318390D01*
X225244285Y-102318390D02*
X225291904Y-102366009D01*
X225291904Y-102366009D02*
X225387142Y-102413628D01*
X225387142Y-102413628D02*
X225768094Y-102413628D01*
X224815713Y-101985057D02*
X224768094Y-101937438D01*
X224768094Y-101937438D02*
X224672856Y-101889819D01*
X224672856Y-101889819D02*
X224434761Y-101889819D01*
X224434761Y-101889819D02*
X224339523Y-101937438D01*
X224339523Y-101937438D02*
X224291904Y-101985057D01*
X224291904Y-101985057D02*
X224244285Y-102080295D01*
X224244285Y-102080295D02*
X224244285Y-102175533D01*
X224244285Y-102175533D02*
X224291904Y-102318390D01*
X224291904Y-102318390D02*
X224863332Y-102889819D01*
X224863332Y-102889819D02*
X224244285Y-102889819D01*
X220254285Y-102263152D02*
X220254285Y-102929819D01*
X220492380Y-101882200D02*
X220730475Y-102596485D01*
X220730475Y-102596485D02*
X220111428Y-102596485D01*
X219825713Y-101929819D02*
X219159047Y-101929819D01*
X219159047Y-101929819D02*
X219587618Y-102929819D01*
X218587618Y-101929819D02*
X218492380Y-101929819D01*
X218492380Y-101929819D02*
X218397142Y-101977438D01*
X218397142Y-101977438D02*
X218349523Y-102025057D01*
X218349523Y-102025057D02*
X218301904Y-102120295D01*
X218301904Y-102120295D02*
X218254285Y-102310771D01*
X218254285Y-102310771D02*
X218254285Y-102548866D01*
X218254285Y-102548866D02*
X218301904Y-102739342D01*
X218301904Y-102739342D02*
X218349523Y-102834580D01*
X218349523Y-102834580D02*
X218397142Y-102882200D01*
X218397142Y-102882200D02*
X218492380Y-102929819D01*
X218492380Y-102929819D02*
X218587618Y-102929819D01*
X218587618Y-102929819D02*
X218682856Y-102882200D01*
X218682856Y-102882200D02*
X218730475Y-102834580D01*
X218730475Y-102834580D02*
X218778094Y-102739342D01*
X218778094Y-102739342D02*
X218825713Y-102548866D01*
X218825713Y-102548866D02*
X218825713Y-102310771D01*
X218825713Y-102310771D02*
X218778094Y-102120295D01*
X218778094Y-102120295D02*
X218730475Y-102025057D01*
X218730475Y-102025057D02*
X218682856Y-101977438D01*
X218682856Y-101977438D02*
X218587618Y-101929819D01*
X217825713Y-102406009D02*
X217492380Y-102406009D01*
X217349523Y-102929819D02*
X217825713Y-102929819D01*
X217825713Y-102929819D02*
X217825713Y-101929819D01*
X217825713Y-101929819D02*
X217349523Y-101929819D01*
X191848094Y-80269819D02*
X191848094Y-79269819D01*
X191848094Y-79269819D02*
X191609999Y-79269819D01*
X191609999Y-79269819D02*
X191467142Y-79317438D01*
X191467142Y-79317438D02*
X191371904Y-79412676D01*
X191371904Y-79412676D02*
X191324285Y-79507914D01*
X191324285Y-79507914D02*
X191276666Y-79698390D01*
X191276666Y-79698390D02*
X191276666Y-79841247D01*
X191276666Y-79841247D02*
X191324285Y-80031723D01*
X191324285Y-80031723D02*
X191371904Y-80126961D01*
X191371904Y-80126961D02*
X191467142Y-80222200D01*
X191467142Y-80222200D02*
X191609999Y-80269819D01*
X191609999Y-80269819D02*
X191848094Y-80269819D01*
X190943332Y-79269819D02*
X190276666Y-79269819D01*
X190276666Y-79269819D02*
X190705237Y-80269819D01*
X190200475Y-81859819D02*
X190200475Y-80859819D01*
X190200475Y-80859819D02*
X189819523Y-80859819D01*
X189819523Y-80859819D02*
X189724285Y-80907438D01*
X189724285Y-80907438D02*
X189676666Y-80955057D01*
X189676666Y-80955057D02*
X189629047Y-81050295D01*
X189629047Y-81050295D02*
X189629047Y-81193152D01*
X189629047Y-81193152D02*
X189676666Y-81288390D01*
X189676666Y-81288390D02*
X189724285Y-81336009D01*
X189724285Y-81336009D02*
X189819523Y-81383628D01*
X189819523Y-81383628D02*
X190200475Y-81383628D01*
X189200475Y-81336009D02*
X188867142Y-81336009D01*
X188724285Y-81859819D02*
X189200475Y-81859819D01*
X189200475Y-81859819D02*
X189200475Y-80859819D01*
X189200475Y-80859819D02*
X188724285Y-80859819D01*
X188343332Y-81812200D02*
X188200475Y-81859819D01*
X188200475Y-81859819D02*
X187962380Y-81859819D01*
X187962380Y-81859819D02*
X187867142Y-81812200D01*
X187867142Y-81812200D02*
X187819523Y-81764580D01*
X187819523Y-81764580D02*
X187771904Y-81669342D01*
X187771904Y-81669342D02*
X187771904Y-81574104D01*
X187771904Y-81574104D02*
X187819523Y-81478866D01*
X187819523Y-81478866D02*
X187867142Y-81431247D01*
X187867142Y-81431247D02*
X187962380Y-81383628D01*
X187962380Y-81383628D02*
X188152856Y-81336009D01*
X188152856Y-81336009D02*
X188248094Y-81288390D01*
X188248094Y-81288390D02*
X188295713Y-81240771D01*
X188295713Y-81240771D02*
X188343332Y-81145533D01*
X188343332Y-81145533D02*
X188343332Y-81050295D01*
X188343332Y-81050295D02*
X188295713Y-80955057D01*
X188295713Y-80955057D02*
X188248094Y-80907438D01*
X188248094Y-80907438D02*
X188152856Y-80859819D01*
X188152856Y-80859819D02*
X187914761Y-80859819D01*
X187914761Y-80859819D02*
X187771904Y-80907438D01*
X187343332Y-81859819D02*
X187343332Y-80859819D01*
X187343332Y-80859819D02*
X187105237Y-80859819D01*
X187105237Y-80859819D02*
X186962380Y-80907438D01*
X186962380Y-80907438D02*
X186867142Y-81002676D01*
X186867142Y-81002676D02*
X186819523Y-81097914D01*
X186819523Y-81097914D02*
X186771904Y-81288390D01*
X186771904Y-81288390D02*
X186771904Y-81431247D01*
X186771904Y-81431247D02*
X186819523Y-81621723D01*
X186819523Y-81621723D02*
X186867142Y-81716961D01*
X186867142Y-81716961D02*
X186962380Y-81812200D01*
X186962380Y-81812200D02*
X187105237Y-81859819D01*
X187105237Y-81859819D02*
X187343332Y-81859819D01*
X213402857Y-84729819D02*
X213736190Y-84253628D01*
X213974285Y-84729819D02*
X213974285Y-83729819D01*
X213974285Y-83729819D02*
X213593333Y-83729819D01*
X213593333Y-83729819D02*
X213498095Y-83777438D01*
X213498095Y-83777438D02*
X213450476Y-83825057D01*
X213450476Y-83825057D02*
X213402857Y-83920295D01*
X213402857Y-83920295D02*
X213402857Y-84063152D01*
X213402857Y-84063152D02*
X213450476Y-84158390D01*
X213450476Y-84158390D02*
X213498095Y-84206009D01*
X213498095Y-84206009D02*
X213593333Y-84253628D01*
X213593333Y-84253628D02*
X213974285Y-84253628D01*
X212450476Y-84729819D02*
X213021904Y-84729819D01*
X212736190Y-84729819D02*
X212736190Y-83729819D01*
X212736190Y-83729819D02*
X212831428Y-83872676D01*
X212831428Y-83872676D02*
X212926666Y-83967914D01*
X212926666Y-83967914D02*
X213021904Y-84015533D01*
X212069523Y-83825057D02*
X212021904Y-83777438D01*
X212021904Y-83777438D02*
X211926666Y-83729819D01*
X211926666Y-83729819D02*
X211688571Y-83729819D01*
X211688571Y-83729819D02*
X211593333Y-83777438D01*
X211593333Y-83777438D02*
X211545714Y-83825057D01*
X211545714Y-83825057D02*
X211498095Y-83920295D01*
X211498095Y-83920295D02*
X211498095Y-84015533D01*
X211498095Y-84015533D02*
X211545714Y-84158390D01*
X211545714Y-84158390D02*
X212117142Y-84729819D01*
X212117142Y-84729819D02*
X211498095Y-84729819D01*
X217020476Y-83219819D02*
X217591904Y-83219819D01*
X217306190Y-83219819D02*
X217306190Y-82219819D01*
X217306190Y-82219819D02*
X217401428Y-82362676D01*
X217401428Y-82362676D02*
X217496666Y-82457914D01*
X217496666Y-82457914D02*
X217591904Y-82505533D01*
X216401428Y-82219819D02*
X216306190Y-82219819D01*
X216306190Y-82219819D02*
X216210952Y-82267438D01*
X216210952Y-82267438D02*
X216163333Y-82315057D01*
X216163333Y-82315057D02*
X216115714Y-82410295D01*
X216115714Y-82410295D02*
X216068095Y-82600771D01*
X216068095Y-82600771D02*
X216068095Y-82838866D01*
X216068095Y-82838866D02*
X216115714Y-83029342D01*
X216115714Y-83029342D02*
X216163333Y-83124580D01*
X216163333Y-83124580D02*
X216210952Y-83172200D01*
X216210952Y-83172200D02*
X216306190Y-83219819D01*
X216306190Y-83219819D02*
X216401428Y-83219819D01*
X216401428Y-83219819D02*
X216496666Y-83172200D01*
X216496666Y-83172200D02*
X216544285Y-83124580D01*
X216544285Y-83124580D02*
X216591904Y-83029342D01*
X216591904Y-83029342D02*
X216639523Y-82838866D01*
X216639523Y-82838866D02*
X216639523Y-82600771D01*
X216639523Y-82600771D02*
X216591904Y-82410295D01*
X216591904Y-82410295D02*
X216544285Y-82315057D01*
X216544285Y-82315057D02*
X216496666Y-82267438D01*
X216496666Y-82267438D02*
X216401428Y-82219819D01*
X215639523Y-83219819D02*
X215639523Y-82219819D01*
X215068095Y-83219819D02*
X215496666Y-82648390D01*
X215068095Y-82219819D02*
X215639523Y-82791247D01*
X200349580Y-51442142D02*
X200397200Y-51394523D01*
X200397200Y-51394523D02*
X200444819Y-51251666D01*
X200444819Y-51251666D02*
X200444819Y-51156428D01*
X200444819Y-51156428D02*
X200397200Y-51013571D01*
X200397200Y-51013571D02*
X200301961Y-50918333D01*
X200301961Y-50918333D02*
X200206723Y-50870714D01*
X200206723Y-50870714D02*
X200016247Y-50823095D01*
X200016247Y-50823095D02*
X199873390Y-50823095D01*
X199873390Y-50823095D02*
X199682914Y-50870714D01*
X199682914Y-50870714D02*
X199587676Y-50918333D01*
X199587676Y-50918333D02*
X199492438Y-51013571D01*
X199492438Y-51013571D02*
X199444819Y-51156428D01*
X199444819Y-51156428D02*
X199444819Y-51251666D01*
X199444819Y-51251666D02*
X199492438Y-51394523D01*
X199492438Y-51394523D02*
X199540057Y-51442142D01*
X200444819Y-52394523D02*
X200444819Y-51823095D01*
X200444819Y-52108809D02*
X199444819Y-52108809D01*
X199444819Y-52108809D02*
X199587676Y-52013571D01*
X199587676Y-52013571D02*
X199682914Y-51918333D01*
X199682914Y-51918333D02*
X199730533Y-51823095D01*
X199540057Y-52775476D02*
X199492438Y-52823095D01*
X199492438Y-52823095D02*
X199444819Y-52918333D01*
X199444819Y-52918333D02*
X199444819Y-53156428D01*
X199444819Y-53156428D02*
X199492438Y-53251666D01*
X199492438Y-53251666D02*
X199540057Y-53299285D01*
X199540057Y-53299285D02*
X199635295Y-53346904D01*
X199635295Y-53346904D02*
X199730533Y-53346904D01*
X199730533Y-53346904D02*
X199873390Y-53299285D01*
X199873390Y-53299285D02*
X200444819Y-52727857D01*
X200444819Y-52727857D02*
X200444819Y-53346904D01*
X201784819Y-55767380D02*
X201784819Y-55195952D01*
X201784819Y-55481666D02*
X200784819Y-55481666D01*
X200784819Y-55481666D02*
X200927676Y-55386428D01*
X200927676Y-55386428D02*
X201022914Y-55291190D01*
X201022914Y-55291190D02*
X201070533Y-55195952D01*
X200784819Y-56386428D02*
X200784819Y-56481666D01*
X200784819Y-56481666D02*
X200832438Y-56576904D01*
X200832438Y-56576904D02*
X200880057Y-56624523D01*
X200880057Y-56624523D02*
X200975295Y-56672142D01*
X200975295Y-56672142D02*
X201165771Y-56719761D01*
X201165771Y-56719761D02*
X201403866Y-56719761D01*
X201403866Y-56719761D02*
X201594342Y-56672142D01*
X201594342Y-56672142D02*
X201689580Y-56624523D01*
X201689580Y-56624523D02*
X201737200Y-56576904D01*
X201737200Y-56576904D02*
X201784819Y-56481666D01*
X201784819Y-56481666D02*
X201784819Y-56386428D01*
X201784819Y-56386428D02*
X201737200Y-56291190D01*
X201737200Y-56291190D02*
X201689580Y-56243571D01*
X201689580Y-56243571D02*
X201594342Y-56195952D01*
X201594342Y-56195952D02*
X201403866Y-56148333D01*
X201403866Y-56148333D02*
X201165771Y-56148333D01*
X201165771Y-56148333D02*
X200975295Y-56195952D01*
X200975295Y-56195952D02*
X200880057Y-56243571D01*
X200880057Y-56243571D02*
X200832438Y-56291190D01*
X200832438Y-56291190D02*
X200784819Y-56386428D01*
X201784819Y-57148333D02*
X201118152Y-57148333D01*
X201213390Y-57148333D02*
X201165771Y-57195952D01*
X201165771Y-57195952D02*
X201118152Y-57291190D01*
X201118152Y-57291190D02*
X201118152Y-57434047D01*
X201118152Y-57434047D02*
X201165771Y-57529285D01*
X201165771Y-57529285D02*
X201261009Y-57576904D01*
X201261009Y-57576904D02*
X201784819Y-57576904D01*
X201261009Y-57576904D02*
X201165771Y-57624523D01*
X201165771Y-57624523D02*
X201118152Y-57719761D01*
X201118152Y-57719761D02*
X201118152Y-57862618D01*
X201118152Y-57862618D02*
X201165771Y-57957857D01*
X201165771Y-57957857D02*
X201261009Y-58005476D01*
X201261009Y-58005476D02*
X201784819Y-58005476D01*
X201118152Y-58338809D02*
X201118152Y-58719761D01*
X201784819Y-58481666D02*
X200927676Y-58481666D01*
X200927676Y-58481666D02*
X200832438Y-58529285D01*
X200832438Y-58529285D02*
X200784819Y-58624523D01*
X200784819Y-58624523D02*
X200784819Y-58719761D01*
X201784819Y-59481666D02*
X200784819Y-59481666D01*
X201737200Y-59481666D02*
X201784819Y-59386428D01*
X201784819Y-59386428D02*
X201784819Y-59195952D01*
X201784819Y-59195952D02*
X201737200Y-59100714D01*
X201737200Y-59100714D02*
X201689580Y-59053095D01*
X201689580Y-59053095D02*
X201594342Y-59005476D01*
X201594342Y-59005476D02*
X201308628Y-59005476D01*
X201308628Y-59005476D02*
X201213390Y-59053095D01*
X201213390Y-59053095D02*
X201165771Y-59100714D01*
X201165771Y-59100714D02*
X201118152Y-59195952D01*
X201118152Y-59195952D02*
X201118152Y-59386428D01*
X201118152Y-59386428D02*
X201165771Y-59481666D01*
X201737200Y-60005476D02*
X201784819Y-60005476D01*
X201784819Y-60005476D02*
X201880057Y-59957857D01*
X201880057Y-59957857D02*
X201927676Y-59910238D01*
X201784819Y-60957856D02*
X201784819Y-60386428D01*
X201784819Y-60672142D02*
X200784819Y-60672142D01*
X200784819Y-60672142D02*
X200927676Y-60576904D01*
X200927676Y-60576904D02*
X201022914Y-60481666D01*
X201022914Y-60481666D02*
X201070533Y-60386428D01*
X200784819Y-61576904D02*
X200784819Y-61672142D01*
X200784819Y-61672142D02*
X200832438Y-61767380D01*
X200832438Y-61767380D02*
X200880057Y-61814999D01*
X200880057Y-61814999D02*
X200975295Y-61862618D01*
X200975295Y-61862618D02*
X201165771Y-61910237D01*
X201165771Y-61910237D02*
X201403866Y-61910237D01*
X201403866Y-61910237D02*
X201594342Y-61862618D01*
X201594342Y-61862618D02*
X201689580Y-61814999D01*
X201689580Y-61814999D02*
X201737200Y-61767380D01*
X201737200Y-61767380D02*
X201784819Y-61672142D01*
X201784819Y-61672142D02*
X201784819Y-61576904D01*
X201784819Y-61576904D02*
X201737200Y-61481666D01*
X201737200Y-61481666D02*
X201689580Y-61434047D01*
X201689580Y-61434047D02*
X201594342Y-61386428D01*
X201594342Y-61386428D02*
X201403866Y-61338809D01*
X201403866Y-61338809D02*
X201165771Y-61338809D01*
X201165771Y-61338809D02*
X200975295Y-61386428D01*
X200975295Y-61386428D02*
X200880057Y-61434047D01*
X200880057Y-61434047D02*
X200832438Y-61481666D01*
X200832438Y-61481666D02*
X200784819Y-61576904D01*
X200784819Y-62195952D02*
X201784819Y-62529285D01*
X201784819Y-62529285D02*
X200784819Y-62862618D01*
X201118152Y-63815000D02*
X201118152Y-64195952D01*
X200784819Y-63957857D02*
X201641961Y-63957857D01*
X201641961Y-63957857D02*
X201737200Y-64005476D01*
X201737200Y-64005476D02*
X201784819Y-64100714D01*
X201784819Y-64100714D02*
X201784819Y-64195952D01*
X201737200Y-64910238D02*
X201784819Y-64815000D01*
X201784819Y-64815000D02*
X201784819Y-64624524D01*
X201784819Y-64624524D02*
X201737200Y-64529286D01*
X201737200Y-64529286D02*
X201641961Y-64481667D01*
X201641961Y-64481667D02*
X201261009Y-64481667D01*
X201261009Y-64481667D02*
X201165771Y-64529286D01*
X201165771Y-64529286D02*
X201118152Y-64624524D01*
X201118152Y-64624524D02*
X201118152Y-64815000D01*
X201118152Y-64815000D02*
X201165771Y-64910238D01*
X201165771Y-64910238D02*
X201261009Y-64957857D01*
X201261009Y-64957857D02*
X201356247Y-64957857D01*
X201356247Y-64957857D02*
X201451485Y-64481667D01*
X201118152Y-65386429D02*
X201784819Y-65386429D01*
X201213390Y-65386429D02*
X201165771Y-65434048D01*
X201165771Y-65434048D02*
X201118152Y-65529286D01*
X201118152Y-65529286D02*
X201118152Y-65672143D01*
X201118152Y-65672143D02*
X201165771Y-65767381D01*
X201165771Y-65767381D02*
X201261009Y-65815000D01*
X201261009Y-65815000D02*
X201784819Y-65815000D01*
X201118152Y-66148334D02*
X201118152Y-66529286D01*
X200784819Y-66291191D02*
X201641961Y-66291191D01*
X201641961Y-66291191D02*
X201737200Y-66338810D01*
X201737200Y-66338810D02*
X201784819Y-66434048D01*
X201784819Y-66434048D02*
X201784819Y-66529286D01*
X199376666Y-78784580D02*
X199424285Y-78832200D01*
X199424285Y-78832200D02*
X199567142Y-78879819D01*
X199567142Y-78879819D02*
X199662380Y-78879819D01*
X199662380Y-78879819D02*
X199805237Y-78832200D01*
X199805237Y-78832200D02*
X199900475Y-78736961D01*
X199900475Y-78736961D02*
X199948094Y-78641723D01*
X199948094Y-78641723D02*
X199995713Y-78451247D01*
X199995713Y-78451247D02*
X199995713Y-78308390D01*
X199995713Y-78308390D02*
X199948094Y-78117914D01*
X199948094Y-78117914D02*
X199900475Y-78022676D01*
X199900475Y-78022676D02*
X199805237Y-77927438D01*
X199805237Y-77927438D02*
X199662380Y-77879819D01*
X199662380Y-77879819D02*
X199567142Y-77879819D01*
X199567142Y-77879819D02*
X199424285Y-77927438D01*
X199424285Y-77927438D02*
X199376666Y-77975057D01*
X198519523Y-77879819D02*
X198709999Y-77879819D01*
X198709999Y-77879819D02*
X198805237Y-77927438D01*
X198805237Y-77927438D02*
X198852856Y-77975057D01*
X198852856Y-77975057D02*
X198948094Y-78117914D01*
X198948094Y-78117914D02*
X198995713Y-78308390D01*
X198995713Y-78308390D02*
X198995713Y-78689342D01*
X198995713Y-78689342D02*
X198948094Y-78784580D01*
X198948094Y-78784580D02*
X198900475Y-78832200D01*
X198900475Y-78832200D02*
X198805237Y-78879819D01*
X198805237Y-78879819D02*
X198614761Y-78879819D01*
X198614761Y-78879819D02*
X198519523Y-78832200D01*
X198519523Y-78832200D02*
X198471904Y-78784580D01*
X198471904Y-78784580D02*
X198424285Y-78689342D01*
X198424285Y-78689342D02*
X198424285Y-78451247D01*
X198424285Y-78451247D02*
X198471904Y-78356009D01*
X198471904Y-78356009D02*
X198519523Y-78308390D01*
X198519523Y-78308390D02*
X198614761Y-78260771D01*
X198614761Y-78260771D02*
X198805237Y-78260771D01*
X198805237Y-78260771D02*
X198900475Y-78308390D01*
X198900475Y-78308390D02*
X198948094Y-78356009D01*
X198948094Y-78356009D02*
X198995713Y-78451247D01*
X200557619Y-80229819D02*
X201129047Y-80229819D01*
X200843333Y-80229819D02*
X200843333Y-79229819D01*
X200843333Y-79229819D02*
X200938571Y-79372676D01*
X200938571Y-79372676D02*
X201033809Y-79467914D01*
X201033809Y-79467914D02*
X201129047Y-79515533D01*
X199938571Y-79229819D02*
X199843333Y-79229819D01*
X199843333Y-79229819D02*
X199748095Y-79277438D01*
X199748095Y-79277438D02*
X199700476Y-79325057D01*
X199700476Y-79325057D02*
X199652857Y-79420295D01*
X199652857Y-79420295D02*
X199605238Y-79610771D01*
X199605238Y-79610771D02*
X199605238Y-79848866D01*
X199605238Y-79848866D02*
X199652857Y-80039342D01*
X199652857Y-80039342D02*
X199700476Y-80134580D01*
X199700476Y-80134580D02*
X199748095Y-80182200D01*
X199748095Y-80182200D02*
X199843333Y-80229819D01*
X199843333Y-80229819D02*
X199938571Y-80229819D01*
X199938571Y-80229819D02*
X200033809Y-80182200D01*
X200033809Y-80182200D02*
X200081428Y-80134580D01*
X200081428Y-80134580D02*
X200129047Y-80039342D01*
X200129047Y-80039342D02*
X200176666Y-79848866D01*
X200176666Y-79848866D02*
X200176666Y-79610771D01*
X200176666Y-79610771D02*
X200129047Y-79420295D01*
X200129047Y-79420295D02*
X200081428Y-79325057D01*
X200081428Y-79325057D02*
X200033809Y-79277438D01*
X200033809Y-79277438D02*
X199938571Y-79229819D01*
X198986190Y-79229819D02*
X198890952Y-79229819D01*
X198890952Y-79229819D02*
X198795714Y-79277438D01*
X198795714Y-79277438D02*
X198748095Y-79325057D01*
X198748095Y-79325057D02*
X198700476Y-79420295D01*
X198700476Y-79420295D02*
X198652857Y-79610771D01*
X198652857Y-79610771D02*
X198652857Y-79848866D01*
X198652857Y-79848866D02*
X198700476Y-80039342D01*
X198700476Y-80039342D02*
X198748095Y-80134580D01*
X198748095Y-80134580D02*
X198795714Y-80182200D01*
X198795714Y-80182200D02*
X198890952Y-80229819D01*
X198890952Y-80229819D02*
X198986190Y-80229819D01*
X198986190Y-80229819D02*
X199081428Y-80182200D01*
X199081428Y-80182200D02*
X199129047Y-80134580D01*
X199129047Y-80134580D02*
X199176666Y-80039342D01*
X199176666Y-80039342D02*
X199224285Y-79848866D01*
X199224285Y-79848866D02*
X199224285Y-79610771D01*
X199224285Y-79610771D02*
X199176666Y-79420295D01*
X199176666Y-79420295D02*
X199129047Y-79325057D01*
X199129047Y-79325057D02*
X199081428Y-79277438D01*
X199081428Y-79277438D02*
X198986190Y-79229819D01*
X198224285Y-79563152D02*
X198224285Y-80229819D01*
X198224285Y-79658390D02*
X198176666Y-79610771D01*
X198176666Y-79610771D02*
X198081428Y-79563152D01*
X198081428Y-79563152D02*
X197938571Y-79563152D01*
X197938571Y-79563152D02*
X197843333Y-79610771D01*
X197843333Y-79610771D02*
X197795714Y-79706009D01*
X197795714Y-79706009D02*
X197795714Y-80229819D01*
X196986190Y-79706009D02*
X197319523Y-79706009D01*
X197319523Y-80229819D02*
X197319523Y-79229819D01*
X197319523Y-79229819D02*
X196843333Y-79229819D01*
X210656666Y-106044580D02*
X210704285Y-106092200D01*
X210704285Y-106092200D02*
X210847142Y-106139819D01*
X210847142Y-106139819D02*
X210942380Y-106139819D01*
X210942380Y-106139819D02*
X211085237Y-106092200D01*
X211085237Y-106092200D02*
X211180475Y-105996961D01*
X211180475Y-105996961D02*
X211228094Y-105901723D01*
X211228094Y-105901723D02*
X211275713Y-105711247D01*
X211275713Y-105711247D02*
X211275713Y-105568390D01*
X211275713Y-105568390D02*
X211228094Y-105377914D01*
X211228094Y-105377914D02*
X211180475Y-105282676D01*
X211180475Y-105282676D02*
X211085237Y-105187438D01*
X211085237Y-105187438D02*
X210942380Y-105139819D01*
X210942380Y-105139819D02*
X210847142Y-105139819D01*
X210847142Y-105139819D02*
X210704285Y-105187438D01*
X210704285Y-105187438D02*
X210656666Y-105235057D01*
X210323332Y-105139819D02*
X209656666Y-105139819D01*
X209656666Y-105139819D02*
X210085237Y-106139819D01*
X209277619Y-107679819D02*
X209849047Y-107679819D01*
X209563333Y-107679819D02*
X209563333Y-106679819D01*
X209563333Y-106679819D02*
X209658571Y-106822676D01*
X209658571Y-106822676D02*
X209753809Y-106917914D01*
X209753809Y-106917914D02*
X209849047Y-106965533D01*
X208658571Y-106679819D02*
X208563333Y-106679819D01*
X208563333Y-106679819D02*
X208468095Y-106727438D01*
X208468095Y-106727438D02*
X208420476Y-106775057D01*
X208420476Y-106775057D02*
X208372857Y-106870295D01*
X208372857Y-106870295D02*
X208325238Y-107060771D01*
X208325238Y-107060771D02*
X208325238Y-107298866D01*
X208325238Y-107298866D02*
X208372857Y-107489342D01*
X208372857Y-107489342D02*
X208420476Y-107584580D01*
X208420476Y-107584580D02*
X208468095Y-107632200D01*
X208468095Y-107632200D02*
X208563333Y-107679819D01*
X208563333Y-107679819D02*
X208658571Y-107679819D01*
X208658571Y-107679819D02*
X208753809Y-107632200D01*
X208753809Y-107632200D02*
X208801428Y-107584580D01*
X208801428Y-107584580D02*
X208849047Y-107489342D01*
X208849047Y-107489342D02*
X208896666Y-107298866D01*
X208896666Y-107298866D02*
X208896666Y-107060771D01*
X208896666Y-107060771D02*
X208849047Y-106870295D01*
X208849047Y-106870295D02*
X208801428Y-106775057D01*
X208801428Y-106775057D02*
X208753809Y-106727438D01*
X208753809Y-106727438D02*
X208658571Y-106679819D01*
X207706190Y-106679819D02*
X207610952Y-106679819D01*
X207610952Y-106679819D02*
X207515714Y-106727438D01*
X207515714Y-106727438D02*
X207468095Y-106775057D01*
X207468095Y-106775057D02*
X207420476Y-106870295D01*
X207420476Y-106870295D02*
X207372857Y-107060771D01*
X207372857Y-107060771D02*
X207372857Y-107298866D01*
X207372857Y-107298866D02*
X207420476Y-107489342D01*
X207420476Y-107489342D02*
X207468095Y-107584580D01*
X207468095Y-107584580D02*
X207515714Y-107632200D01*
X207515714Y-107632200D02*
X207610952Y-107679819D01*
X207610952Y-107679819D02*
X207706190Y-107679819D01*
X207706190Y-107679819D02*
X207801428Y-107632200D01*
X207801428Y-107632200D02*
X207849047Y-107584580D01*
X207849047Y-107584580D02*
X207896666Y-107489342D01*
X207896666Y-107489342D02*
X207944285Y-107298866D01*
X207944285Y-107298866D02*
X207944285Y-107060771D01*
X207944285Y-107060771D02*
X207896666Y-106870295D01*
X207896666Y-106870295D02*
X207849047Y-106775057D01*
X207849047Y-106775057D02*
X207801428Y-106727438D01*
X207801428Y-106727438D02*
X207706190Y-106679819D01*
X206944285Y-107013152D02*
X206944285Y-107679819D01*
X206944285Y-107108390D02*
X206896666Y-107060771D01*
X206896666Y-107060771D02*
X206801428Y-107013152D01*
X206801428Y-107013152D02*
X206658571Y-107013152D01*
X206658571Y-107013152D02*
X206563333Y-107060771D01*
X206563333Y-107060771D02*
X206515714Y-107156009D01*
X206515714Y-107156009D02*
X206515714Y-107679819D01*
X205706190Y-107156009D02*
X206039523Y-107156009D01*
X206039523Y-107679819D02*
X206039523Y-106679819D01*
X206039523Y-106679819D02*
X205563333Y-106679819D01*
X181958094Y-80079819D02*
X181958094Y-79079819D01*
X181958094Y-79079819D02*
X181719999Y-79079819D01*
X181719999Y-79079819D02*
X181577142Y-79127438D01*
X181577142Y-79127438D02*
X181481904Y-79222676D01*
X181481904Y-79222676D02*
X181434285Y-79317914D01*
X181434285Y-79317914D02*
X181386666Y-79508390D01*
X181386666Y-79508390D02*
X181386666Y-79651247D01*
X181386666Y-79651247D02*
X181434285Y-79841723D01*
X181434285Y-79841723D02*
X181481904Y-79936961D01*
X181481904Y-79936961D02*
X181577142Y-80032200D01*
X181577142Y-80032200D02*
X181719999Y-80079819D01*
X181719999Y-80079819D02*
X181958094Y-80079819D01*
X180529523Y-79079819D02*
X180719999Y-79079819D01*
X180719999Y-79079819D02*
X180815237Y-79127438D01*
X180815237Y-79127438D02*
X180862856Y-79175057D01*
X180862856Y-79175057D02*
X180958094Y-79317914D01*
X180958094Y-79317914D02*
X181005713Y-79508390D01*
X181005713Y-79508390D02*
X181005713Y-79889342D01*
X181005713Y-79889342D02*
X180958094Y-79984580D01*
X180958094Y-79984580D02*
X180910475Y-80032200D01*
X180910475Y-80032200D02*
X180815237Y-80079819D01*
X180815237Y-80079819D02*
X180624761Y-80079819D01*
X180624761Y-80079819D02*
X180529523Y-80032200D01*
X180529523Y-80032200D02*
X180481904Y-79984580D01*
X180481904Y-79984580D02*
X180434285Y-79889342D01*
X180434285Y-79889342D02*
X180434285Y-79651247D01*
X180434285Y-79651247D02*
X180481904Y-79556009D01*
X180481904Y-79556009D02*
X180529523Y-79508390D01*
X180529523Y-79508390D02*
X180624761Y-79460771D01*
X180624761Y-79460771D02*
X180815237Y-79460771D01*
X180815237Y-79460771D02*
X180910475Y-79508390D01*
X180910475Y-79508390D02*
X180958094Y-79556009D01*
X180958094Y-79556009D02*
X181005713Y-79651247D01*
X185890475Y-81859819D02*
X185890475Y-80859819D01*
X185890475Y-80859819D02*
X185509523Y-80859819D01*
X185509523Y-80859819D02*
X185414285Y-80907438D01*
X185414285Y-80907438D02*
X185366666Y-80955057D01*
X185366666Y-80955057D02*
X185319047Y-81050295D01*
X185319047Y-81050295D02*
X185319047Y-81193152D01*
X185319047Y-81193152D02*
X185366666Y-81288390D01*
X185366666Y-81288390D02*
X185414285Y-81336009D01*
X185414285Y-81336009D02*
X185509523Y-81383628D01*
X185509523Y-81383628D02*
X185890475Y-81383628D01*
X184890475Y-81336009D02*
X184557142Y-81336009D01*
X184414285Y-81859819D02*
X184890475Y-81859819D01*
X184890475Y-81859819D02*
X184890475Y-80859819D01*
X184890475Y-80859819D02*
X184414285Y-80859819D01*
X184033332Y-81812200D02*
X183890475Y-81859819D01*
X183890475Y-81859819D02*
X183652380Y-81859819D01*
X183652380Y-81859819D02*
X183557142Y-81812200D01*
X183557142Y-81812200D02*
X183509523Y-81764580D01*
X183509523Y-81764580D02*
X183461904Y-81669342D01*
X183461904Y-81669342D02*
X183461904Y-81574104D01*
X183461904Y-81574104D02*
X183509523Y-81478866D01*
X183509523Y-81478866D02*
X183557142Y-81431247D01*
X183557142Y-81431247D02*
X183652380Y-81383628D01*
X183652380Y-81383628D02*
X183842856Y-81336009D01*
X183842856Y-81336009D02*
X183938094Y-81288390D01*
X183938094Y-81288390D02*
X183985713Y-81240771D01*
X183985713Y-81240771D02*
X184033332Y-81145533D01*
X184033332Y-81145533D02*
X184033332Y-81050295D01*
X184033332Y-81050295D02*
X183985713Y-80955057D01*
X183985713Y-80955057D02*
X183938094Y-80907438D01*
X183938094Y-80907438D02*
X183842856Y-80859819D01*
X183842856Y-80859819D02*
X183604761Y-80859819D01*
X183604761Y-80859819D02*
X183461904Y-80907438D01*
X183033332Y-81859819D02*
X183033332Y-80859819D01*
X183033332Y-80859819D02*
X182795237Y-80859819D01*
X182795237Y-80859819D02*
X182652380Y-80907438D01*
X182652380Y-80907438D02*
X182557142Y-81002676D01*
X182557142Y-81002676D02*
X182509523Y-81097914D01*
X182509523Y-81097914D02*
X182461904Y-81288390D01*
X182461904Y-81288390D02*
X182461904Y-81431247D01*
X182461904Y-81431247D02*
X182509523Y-81621723D01*
X182509523Y-81621723D02*
X182557142Y-81716961D01*
X182557142Y-81716961D02*
X182652380Y-81812200D01*
X182652380Y-81812200D02*
X182795237Y-81859819D01*
X182795237Y-81859819D02*
X183033332Y-81859819D01*
X220478094Y-59819819D02*
X220478094Y-60629342D01*
X220478094Y-60629342D02*
X220430475Y-60724580D01*
X220430475Y-60724580D02*
X220382856Y-60772200D01*
X220382856Y-60772200D02*
X220287618Y-60819819D01*
X220287618Y-60819819D02*
X220097142Y-60819819D01*
X220097142Y-60819819D02*
X220001904Y-60772200D01*
X220001904Y-60772200D02*
X219954285Y-60724580D01*
X219954285Y-60724580D02*
X219906666Y-60629342D01*
X219906666Y-60629342D02*
X219906666Y-59819819D01*
X218906666Y-60819819D02*
X219478094Y-60819819D01*
X219192380Y-60819819D02*
X219192380Y-59819819D01*
X219192380Y-59819819D02*
X219287618Y-59962676D01*
X219287618Y-59962676D02*
X219382856Y-60057914D01*
X219382856Y-60057914D02*
X219478094Y-60105533D01*
X218573332Y-59819819D02*
X217954285Y-59819819D01*
X217954285Y-59819819D02*
X218287618Y-60200771D01*
X218287618Y-60200771D02*
X218144761Y-60200771D01*
X218144761Y-60200771D02*
X218049523Y-60248390D01*
X218049523Y-60248390D02*
X218001904Y-60296009D01*
X218001904Y-60296009D02*
X217954285Y-60391247D01*
X217954285Y-60391247D02*
X217954285Y-60629342D01*
X217954285Y-60629342D02*
X218001904Y-60724580D01*
X218001904Y-60724580D02*
X218049523Y-60772200D01*
X218049523Y-60772200D02*
X218144761Y-60819819D01*
X218144761Y-60819819D02*
X218430475Y-60819819D01*
X218430475Y-60819819D02*
X218525713Y-60772200D01*
X218525713Y-60772200D02*
X218573332Y-60724580D01*
X224027499Y-62004104D02*
X223551309Y-62004104D01*
X224122737Y-62289819D02*
X223789404Y-61289819D01*
X223789404Y-61289819D02*
X223456071Y-62289819D01*
X223122737Y-62289819D02*
X223122737Y-61289819D01*
X223122737Y-61289819D02*
X222789404Y-62004104D01*
X222789404Y-62004104D02*
X222456071Y-61289819D01*
X222456071Y-61289819D02*
X222456071Y-62289819D01*
X222027499Y-62242200D02*
X221884642Y-62289819D01*
X221884642Y-62289819D02*
X221646547Y-62289819D01*
X221646547Y-62289819D02*
X221551309Y-62242200D01*
X221551309Y-62242200D02*
X221503690Y-62194580D01*
X221503690Y-62194580D02*
X221456071Y-62099342D01*
X221456071Y-62099342D02*
X221456071Y-62004104D01*
X221456071Y-62004104D02*
X221503690Y-61908866D01*
X221503690Y-61908866D02*
X221551309Y-61861247D01*
X221551309Y-61861247D02*
X221646547Y-61813628D01*
X221646547Y-61813628D02*
X221837023Y-61766009D01*
X221837023Y-61766009D02*
X221932261Y-61718390D01*
X221932261Y-61718390D02*
X221979880Y-61670771D01*
X221979880Y-61670771D02*
X222027499Y-61575533D01*
X222027499Y-61575533D02*
X222027499Y-61480295D01*
X222027499Y-61480295D02*
X221979880Y-61385057D01*
X221979880Y-61385057D02*
X221932261Y-61337438D01*
X221932261Y-61337438D02*
X221837023Y-61289819D01*
X221837023Y-61289819D02*
X221598928Y-61289819D01*
X221598928Y-61289819D02*
X221456071Y-61337438D01*
X220503690Y-62289819D02*
X221075118Y-62289819D01*
X220789404Y-62289819D02*
X220789404Y-61289819D01*
X220789404Y-61289819D02*
X220884642Y-61432676D01*
X220884642Y-61432676D02*
X220979880Y-61527914D01*
X220979880Y-61527914D02*
X221075118Y-61575533D01*
X219551309Y-62289819D02*
X220122737Y-62289819D01*
X219837023Y-62289819D02*
X219837023Y-61289819D01*
X219837023Y-61289819D02*
X219932261Y-61432676D01*
X219932261Y-61432676D02*
X220027499Y-61527914D01*
X220027499Y-61527914D02*
X220122737Y-61575533D01*
X218598928Y-62289819D02*
X219170356Y-62289819D01*
X218884642Y-62289819D02*
X218884642Y-61289819D01*
X218884642Y-61289819D02*
X218979880Y-61432676D01*
X218979880Y-61432676D02*
X219075118Y-61527914D01*
X219075118Y-61527914D02*
X219170356Y-61575533D01*
X218265594Y-61289819D02*
X217598928Y-61289819D01*
X217598928Y-61289819D02*
X218027499Y-62289819D01*
X217217975Y-61908866D02*
X216456071Y-61908866D01*
X215503690Y-61289819D02*
X215979880Y-61289819D01*
X215979880Y-61289819D02*
X216027499Y-61766009D01*
X216027499Y-61766009D02*
X215979880Y-61718390D01*
X215979880Y-61718390D02*
X215884642Y-61670771D01*
X215884642Y-61670771D02*
X215646547Y-61670771D01*
X215646547Y-61670771D02*
X215551309Y-61718390D01*
X215551309Y-61718390D02*
X215503690Y-61766009D01*
X215503690Y-61766009D02*
X215456071Y-61861247D01*
X215456071Y-61861247D02*
X215456071Y-62099342D01*
X215456071Y-62099342D02*
X215503690Y-62194580D01*
X215503690Y-62194580D02*
X215551309Y-62242200D01*
X215551309Y-62242200D02*
X215646547Y-62289819D01*
X215646547Y-62289819D02*
X215884642Y-62289819D01*
X215884642Y-62289819D02*
X215979880Y-62242200D01*
X215979880Y-62242200D02*
X216027499Y-62194580D01*
X215027499Y-62194580D02*
X214979880Y-62242200D01*
X214979880Y-62242200D02*
X215027499Y-62289819D01*
X215027499Y-62289819D02*
X215075118Y-62242200D01*
X215075118Y-62242200D02*
X215027499Y-62194580D01*
X215027499Y-62194580D02*
X215027499Y-62289819D01*
X214360833Y-61289819D02*
X214265595Y-61289819D01*
X214265595Y-61289819D02*
X214170357Y-61337438D01*
X214170357Y-61337438D02*
X214122738Y-61385057D01*
X214122738Y-61385057D02*
X214075119Y-61480295D01*
X214075119Y-61480295D02*
X214027500Y-61670771D01*
X214027500Y-61670771D02*
X214027500Y-61908866D01*
X214027500Y-61908866D02*
X214075119Y-62099342D01*
X214075119Y-62099342D02*
X214122738Y-62194580D01*
X214122738Y-62194580D02*
X214170357Y-62242200D01*
X214170357Y-62242200D02*
X214265595Y-62289819D01*
X214265595Y-62289819D02*
X214360833Y-62289819D01*
X214360833Y-62289819D02*
X214456071Y-62242200D01*
X214456071Y-62242200D02*
X214503690Y-62194580D01*
X214503690Y-62194580D02*
X214551309Y-62099342D01*
X214551309Y-62099342D02*
X214598928Y-61908866D01*
X214598928Y-61908866D02*
X214598928Y-61670771D01*
X214598928Y-61670771D02*
X214551309Y-61480295D01*
X214551309Y-61480295D02*
X214503690Y-61385057D01*
X214503690Y-61385057D02*
X214456071Y-61337438D01*
X214456071Y-61337438D02*
X214360833Y-61289819D01*
X226212857Y-92719819D02*
X226546190Y-92243628D01*
X226784285Y-92719819D02*
X226784285Y-91719819D01*
X226784285Y-91719819D02*
X226403333Y-91719819D01*
X226403333Y-91719819D02*
X226308095Y-91767438D01*
X226308095Y-91767438D02*
X226260476Y-91815057D01*
X226260476Y-91815057D02*
X226212857Y-91910295D01*
X226212857Y-91910295D02*
X226212857Y-92053152D01*
X226212857Y-92053152D02*
X226260476Y-92148390D01*
X226260476Y-92148390D02*
X226308095Y-92196009D01*
X226308095Y-92196009D02*
X226403333Y-92243628D01*
X226403333Y-92243628D02*
X226784285Y-92243628D01*
X225260476Y-92719819D02*
X225831904Y-92719819D01*
X225546190Y-92719819D02*
X225546190Y-91719819D01*
X225546190Y-91719819D02*
X225641428Y-91862676D01*
X225641428Y-91862676D02*
X225736666Y-91957914D01*
X225736666Y-91957914D02*
X225831904Y-92005533D01*
X224927142Y-91719819D02*
X224308095Y-91719819D01*
X224308095Y-91719819D02*
X224641428Y-92100771D01*
X224641428Y-92100771D02*
X224498571Y-92100771D01*
X224498571Y-92100771D02*
X224403333Y-92148390D01*
X224403333Y-92148390D02*
X224355714Y-92196009D01*
X224355714Y-92196009D02*
X224308095Y-92291247D01*
X224308095Y-92291247D02*
X224308095Y-92529342D01*
X224308095Y-92529342D02*
X224355714Y-92624580D01*
X224355714Y-92624580D02*
X224403333Y-92672200D01*
X224403333Y-92672200D02*
X224498571Y-92719819D01*
X224498571Y-92719819D02*
X224784285Y-92719819D01*
X224784285Y-92719819D02*
X224879523Y-92672200D01*
X224879523Y-92672200D02*
X224927142Y-92624580D01*
X220180476Y-92669819D02*
X220751904Y-92669819D01*
X220466190Y-92669819D02*
X220466190Y-91669819D01*
X220466190Y-91669819D02*
X220561428Y-91812676D01*
X220561428Y-91812676D02*
X220656666Y-91907914D01*
X220656666Y-91907914D02*
X220751904Y-91955533D01*
X219561428Y-91669819D02*
X219466190Y-91669819D01*
X219466190Y-91669819D02*
X219370952Y-91717438D01*
X219370952Y-91717438D02*
X219323333Y-91765057D01*
X219323333Y-91765057D02*
X219275714Y-91860295D01*
X219275714Y-91860295D02*
X219228095Y-92050771D01*
X219228095Y-92050771D02*
X219228095Y-92288866D01*
X219228095Y-92288866D02*
X219275714Y-92479342D01*
X219275714Y-92479342D02*
X219323333Y-92574580D01*
X219323333Y-92574580D02*
X219370952Y-92622200D01*
X219370952Y-92622200D02*
X219466190Y-92669819D01*
X219466190Y-92669819D02*
X219561428Y-92669819D01*
X219561428Y-92669819D02*
X219656666Y-92622200D01*
X219656666Y-92622200D02*
X219704285Y-92574580D01*
X219704285Y-92574580D02*
X219751904Y-92479342D01*
X219751904Y-92479342D02*
X219799523Y-92288866D01*
X219799523Y-92288866D02*
X219799523Y-92050771D01*
X219799523Y-92050771D02*
X219751904Y-91860295D01*
X219751904Y-91860295D02*
X219704285Y-91765057D01*
X219704285Y-91765057D02*
X219656666Y-91717438D01*
X219656666Y-91717438D02*
X219561428Y-91669819D01*
X218799523Y-92669819D02*
X218799523Y-91669819D01*
X218228095Y-92669819D02*
X218656666Y-92098390D01*
X218228095Y-91669819D02*
X218799523Y-92241247D01*
X212569580Y-52452142D02*
X212617200Y-52404523D01*
X212617200Y-52404523D02*
X212664819Y-52261666D01*
X212664819Y-52261666D02*
X212664819Y-52166428D01*
X212664819Y-52166428D02*
X212617200Y-52023571D01*
X212617200Y-52023571D02*
X212521961Y-51928333D01*
X212521961Y-51928333D02*
X212426723Y-51880714D01*
X212426723Y-51880714D02*
X212236247Y-51833095D01*
X212236247Y-51833095D02*
X212093390Y-51833095D01*
X212093390Y-51833095D02*
X211902914Y-51880714D01*
X211902914Y-51880714D02*
X211807676Y-51928333D01*
X211807676Y-51928333D02*
X211712438Y-52023571D01*
X211712438Y-52023571D02*
X211664819Y-52166428D01*
X211664819Y-52166428D02*
X211664819Y-52261666D01*
X211664819Y-52261666D02*
X211712438Y-52404523D01*
X211712438Y-52404523D02*
X211760057Y-52452142D01*
X212664819Y-53404523D02*
X212664819Y-52833095D01*
X212664819Y-53118809D02*
X211664819Y-53118809D01*
X211664819Y-53118809D02*
X211807676Y-53023571D01*
X211807676Y-53023571D02*
X211902914Y-52928333D01*
X211902914Y-52928333D02*
X211950533Y-52833095D01*
X211664819Y-54023571D02*
X211664819Y-54118809D01*
X211664819Y-54118809D02*
X211712438Y-54214047D01*
X211712438Y-54214047D02*
X211760057Y-54261666D01*
X211760057Y-54261666D02*
X211855295Y-54309285D01*
X211855295Y-54309285D02*
X212045771Y-54356904D01*
X212045771Y-54356904D02*
X212283866Y-54356904D01*
X212283866Y-54356904D02*
X212474342Y-54309285D01*
X212474342Y-54309285D02*
X212569580Y-54261666D01*
X212569580Y-54261666D02*
X212617200Y-54214047D01*
X212617200Y-54214047D02*
X212664819Y-54118809D01*
X212664819Y-54118809D02*
X212664819Y-54023571D01*
X212664819Y-54023571D02*
X212617200Y-53928333D01*
X212617200Y-53928333D02*
X212569580Y-53880714D01*
X212569580Y-53880714D02*
X212474342Y-53833095D01*
X212474342Y-53833095D02*
X212283866Y-53785476D01*
X212283866Y-53785476D02*
X212045771Y-53785476D01*
X212045771Y-53785476D02*
X211855295Y-53833095D01*
X211855295Y-53833095D02*
X211760057Y-53880714D01*
X211760057Y-53880714D02*
X211712438Y-53928333D01*
X211712438Y-53928333D02*
X211664819Y-54023571D01*
X210594819Y-55707380D02*
X210594819Y-55135952D01*
X210594819Y-55421666D02*
X209594819Y-55421666D01*
X209594819Y-55421666D02*
X209737676Y-55326428D01*
X209737676Y-55326428D02*
X209832914Y-55231190D01*
X209832914Y-55231190D02*
X209880533Y-55135952D01*
X209594819Y-56326428D02*
X209594819Y-56421666D01*
X209594819Y-56421666D02*
X209642438Y-56516904D01*
X209642438Y-56516904D02*
X209690057Y-56564523D01*
X209690057Y-56564523D02*
X209785295Y-56612142D01*
X209785295Y-56612142D02*
X209975771Y-56659761D01*
X209975771Y-56659761D02*
X210213866Y-56659761D01*
X210213866Y-56659761D02*
X210404342Y-56612142D01*
X210404342Y-56612142D02*
X210499580Y-56564523D01*
X210499580Y-56564523D02*
X210547200Y-56516904D01*
X210547200Y-56516904D02*
X210594819Y-56421666D01*
X210594819Y-56421666D02*
X210594819Y-56326428D01*
X210594819Y-56326428D02*
X210547200Y-56231190D01*
X210547200Y-56231190D02*
X210499580Y-56183571D01*
X210499580Y-56183571D02*
X210404342Y-56135952D01*
X210404342Y-56135952D02*
X210213866Y-56088333D01*
X210213866Y-56088333D02*
X209975771Y-56088333D01*
X209975771Y-56088333D02*
X209785295Y-56135952D01*
X209785295Y-56135952D02*
X209690057Y-56183571D01*
X209690057Y-56183571D02*
X209642438Y-56231190D01*
X209642438Y-56231190D02*
X209594819Y-56326428D01*
X210594819Y-57088333D02*
X209928152Y-57088333D01*
X210023390Y-57088333D02*
X209975771Y-57135952D01*
X209975771Y-57135952D02*
X209928152Y-57231190D01*
X209928152Y-57231190D02*
X209928152Y-57374047D01*
X209928152Y-57374047D02*
X209975771Y-57469285D01*
X209975771Y-57469285D02*
X210071009Y-57516904D01*
X210071009Y-57516904D02*
X210594819Y-57516904D01*
X210071009Y-57516904D02*
X209975771Y-57564523D01*
X209975771Y-57564523D02*
X209928152Y-57659761D01*
X209928152Y-57659761D02*
X209928152Y-57802618D01*
X209928152Y-57802618D02*
X209975771Y-57897857D01*
X209975771Y-57897857D02*
X210071009Y-57945476D01*
X210071009Y-57945476D02*
X210594819Y-57945476D01*
X209928152Y-58278809D02*
X209928152Y-58659761D01*
X210594819Y-58421666D02*
X209737676Y-58421666D01*
X209737676Y-58421666D02*
X209642438Y-58469285D01*
X209642438Y-58469285D02*
X209594819Y-58564523D01*
X209594819Y-58564523D02*
X209594819Y-58659761D01*
X210594819Y-59421666D02*
X209594819Y-59421666D01*
X210547200Y-59421666D02*
X210594819Y-59326428D01*
X210594819Y-59326428D02*
X210594819Y-59135952D01*
X210594819Y-59135952D02*
X210547200Y-59040714D01*
X210547200Y-59040714D02*
X210499580Y-58993095D01*
X210499580Y-58993095D02*
X210404342Y-58945476D01*
X210404342Y-58945476D02*
X210118628Y-58945476D01*
X210118628Y-58945476D02*
X210023390Y-58993095D01*
X210023390Y-58993095D02*
X209975771Y-59040714D01*
X209975771Y-59040714D02*
X209928152Y-59135952D01*
X209928152Y-59135952D02*
X209928152Y-59326428D01*
X209928152Y-59326428D02*
X209975771Y-59421666D01*
X210547200Y-59945476D02*
X210594819Y-59945476D01*
X210594819Y-59945476D02*
X210690057Y-59897857D01*
X210690057Y-59897857D02*
X210737676Y-59850238D01*
X210594819Y-60897856D02*
X210594819Y-60326428D01*
X210594819Y-60612142D02*
X209594819Y-60612142D01*
X209594819Y-60612142D02*
X209737676Y-60516904D01*
X209737676Y-60516904D02*
X209832914Y-60421666D01*
X209832914Y-60421666D02*
X209880533Y-60326428D01*
X209594819Y-61516904D02*
X209594819Y-61612142D01*
X209594819Y-61612142D02*
X209642438Y-61707380D01*
X209642438Y-61707380D02*
X209690057Y-61754999D01*
X209690057Y-61754999D02*
X209785295Y-61802618D01*
X209785295Y-61802618D02*
X209975771Y-61850237D01*
X209975771Y-61850237D02*
X210213866Y-61850237D01*
X210213866Y-61850237D02*
X210404342Y-61802618D01*
X210404342Y-61802618D02*
X210499580Y-61754999D01*
X210499580Y-61754999D02*
X210547200Y-61707380D01*
X210547200Y-61707380D02*
X210594819Y-61612142D01*
X210594819Y-61612142D02*
X210594819Y-61516904D01*
X210594819Y-61516904D02*
X210547200Y-61421666D01*
X210547200Y-61421666D02*
X210499580Y-61374047D01*
X210499580Y-61374047D02*
X210404342Y-61326428D01*
X210404342Y-61326428D02*
X210213866Y-61278809D01*
X210213866Y-61278809D02*
X209975771Y-61278809D01*
X209975771Y-61278809D02*
X209785295Y-61326428D01*
X209785295Y-61326428D02*
X209690057Y-61374047D01*
X209690057Y-61374047D02*
X209642438Y-61421666D01*
X209642438Y-61421666D02*
X209594819Y-61516904D01*
X209594819Y-62135952D02*
X210594819Y-62469285D01*
X210594819Y-62469285D02*
X209594819Y-62802618D01*
X209928152Y-63755000D02*
X209928152Y-64135952D01*
X209594819Y-63897857D02*
X210451961Y-63897857D01*
X210451961Y-63897857D02*
X210547200Y-63945476D01*
X210547200Y-63945476D02*
X210594819Y-64040714D01*
X210594819Y-64040714D02*
X210594819Y-64135952D01*
X210547200Y-64850238D02*
X210594819Y-64755000D01*
X210594819Y-64755000D02*
X210594819Y-64564524D01*
X210594819Y-64564524D02*
X210547200Y-64469286D01*
X210547200Y-64469286D02*
X210451961Y-64421667D01*
X210451961Y-64421667D02*
X210071009Y-64421667D01*
X210071009Y-64421667D02*
X209975771Y-64469286D01*
X209975771Y-64469286D02*
X209928152Y-64564524D01*
X209928152Y-64564524D02*
X209928152Y-64755000D01*
X209928152Y-64755000D02*
X209975771Y-64850238D01*
X209975771Y-64850238D02*
X210071009Y-64897857D01*
X210071009Y-64897857D02*
X210166247Y-64897857D01*
X210166247Y-64897857D02*
X210261485Y-64421667D01*
X209928152Y-65326429D02*
X210594819Y-65326429D01*
X210023390Y-65326429D02*
X209975771Y-65374048D01*
X209975771Y-65374048D02*
X209928152Y-65469286D01*
X209928152Y-65469286D02*
X209928152Y-65612143D01*
X209928152Y-65612143D02*
X209975771Y-65707381D01*
X209975771Y-65707381D02*
X210071009Y-65755000D01*
X210071009Y-65755000D02*
X210594819Y-65755000D01*
X209928152Y-66088334D02*
X209928152Y-66469286D01*
X209594819Y-66231191D02*
X210451961Y-66231191D01*
X210451961Y-66231191D02*
X210547200Y-66278810D01*
X210547200Y-66278810D02*
X210594819Y-66374048D01*
X210594819Y-66374048D02*
X210594819Y-66469286D01*
D14*
%TO.C,R7*%
X213117064Y-74240000D02*
X212662936Y-74240000D01*
X213117064Y-75710000D02*
X212662936Y-75710000D01*
%TO.C,U1*%
X174900000Y-62875000D02*
X170780000Y-62875000D01*
X170780000Y-62875000D02*
X170780000Y-62930000D01*
X174900000Y-62930000D02*
X174900000Y-62875000D01*
X170780000Y-72940000D02*
X170780000Y-72995000D01*
X174900000Y-72995000D02*
X174900000Y-72940000D01*
X170780000Y-72995000D02*
X174900000Y-72995000D01*
X175440000Y-62925000D02*
X175200000Y-62595000D01*
X175680000Y-62595000D01*
X175440000Y-62925000D01*
G36*
X175440000Y-62925000D02*
G01*
X175200000Y-62595000D01*
X175680000Y-62595000D01*
X175440000Y-62925000D01*
G37*
%TO.C,R1*%
X222322936Y-107720000D02*
X222777064Y-107720000D01*
X222322936Y-109190000D02*
X222777064Y-109190000D01*
%TO.C,C3*%
X208258748Y-74290000D02*
X208781252Y-74290000D01*
X208258748Y-75760000D02*
X208781252Y-75760000D01*
%TO.C,R9*%
X213097064Y-76670000D02*
X212642936Y-76670000D01*
X213097064Y-78140000D02*
X212642936Y-78140000D01*
%TO.C,J2*%
X182370000Y-50605000D02*
X183480000Y-50605000D01*
X182370000Y-53855000D02*
X183480000Y-53855000D01*
X184070000Y-54905000D02*
X184320000Y-54405000D01*
X184320000Y-54405000D02*
X184570000Y-54905000D01*
X184570000Y-54905000D02*
X184070000Y-54905000D01*
X185160000Y-50605000D02*
X186270000Y-50605000D01*
X185160000Y-53855000D02*
X186270000Y-53855000D01*
%TO.C,R5*%
X222342936Y-95730000D02*
X222797064Y-95730000D01*
X222342936Y-97200000D02*
X222797064Y-97200000D01*
%TO.C,U8*%
X205457500Y-52155000D02*
X205457500Y-53975000D01*
X205457500Y-53975000D02*
X205507500Y-53975000D01*
X205507500Y-52155000D02*
X205457500Y-52155000D01*
X206627500Y-53975000D02*
X207407500Y-53975000D01*
X208527500Y-53975000D02*
X208577500Y-53975000D01*
X208577500Y-52155000D02*
X208527500Y-52155000D01*
X208577500Y-53975000D02*
X208577500Y-52155000D01*
X205507500Y-51615000D02*
X205177500Y-51855000D01*
X205177500Y-51375000D01*
X205507500Y-51615000D01*
G36*
X205507500Y-51615000D02*
G01*
X205177500Y-51855000D01*
X205177500Y-51375000D01*
X205507500Y-51615000D01*
G37*
%TO.C,C13*%
X203155000Y-53256252D02*
X203155000Y-52733748D01*
X204625000Y-53256252D02*
X204625000Y-52733748D01*
D13*
%TO.C,U7*%
X182560000Y-56425000D02*
X182560000Y-72925000D01*
X182560000Y-72925000D02*
X183310000Y-72925000D01*
X183310000Y-56425000D02*
X182560000Y-56425000D01*
X199310000Y-56425000D02*
X200060000Y-56425000D01*
X200060000Y-56425000D02*
X200060000Y-72925000D01*
X200060000Y-72925000D02*
X199310000Y-72925000D01*
D14*
X183310000Y-56125000D02*
X182810000Y-56125000D01*
X183310000Y-55625000D01*
X183310000Y-56125000D01*
G36*
X183310000Y-56125000D02*
G01*
X182810000Y-56125000D01*
X183310000Y-55625000D01*
X183310000Y-56125000D01*
G37*
%TO.C,R11*%
X213107064Y-79450000D02*
X212652936Y-79450000D01*
X213107064Y-80920000D02*
X212652936Y-80920000D01*
%TO.C,C8*%
X208278748Y-81930000D02*
X208801252Y-81930000D01*
X208278748Y-83400000D02*
X208801252Y-83400000D01*
%TO.C,R2*%
X222322936Y-101740000D02*
X222777064Y-101740000D01*
X222322936Y-103210000D02*
X222777064Y-103210000D01*
%TO.C,D7*%
X189895000Y-80675000D02*
X187210000Y-80675000D01*
X189895000Y-78755000D02*
X189895000Y-80675000D01*
X187210000Y-78755000D02*
X189895000Y-78755000D01*
%TO.C,R12*%
X213037064Y-81970000D02*
X212582936Y-81970000D01*
X213037064Y-83440000D02*
X212582936Y-83440000D01*
%TO.C,C12*%
X200965000Y-53246252D02*
X200965000Y-52723748D01*
X202435000Y-53246252D02*
X202435000Y-52723748D01*
%TO.C,C6*%
X195481252Y-78950000D02*
X194958748Y-78950000D01*
X195481252Y-80420000D02*
X194958748Y-80420000D01*
%TO.C,C7*%
X208081252Y-104820000D02*
X207558748Y-104820000D01*
X208081252Y-106290000D02*
X207558748Y-106290000D01*
%TO.C,D6*%
X183110000Y-78745000D02*
X185795000Y-78745000D01*
X185795000Y-78745000D02*
X185795000Y-80665000D01*
X185795000Y-80665000D02*
X183110000Y-80665000D01*
%TO.C,U13*%
X216050000Y-53385000D02*
X217310000Y-53385000D01*
X216050000Y-57145000D02*
X216050000Y-53385000D01*
X222870000Y-53385000D02*
X221610000Y-53385000D01*
X222870000Y-57145000D02*
X222870000Y-53385000D01*
X223100000Y-58665000D02*
X222770000Y-58425000D01*
X223100000Y-58185000D01*
X223100000Y-58665000D01*
G36*
X223100000Y-58665000D02*
G01*
X222770000Y-58425000D01*
X223100000Y-58185000D01*
X223100000Y-58665000D01*
G37*
%TO.C,R13*%
X222362936Y-91460000D02*
X222817064Y-91460000D01*
X222362936Y-92930000D02*
X222817064Y-92930000D01*
%TO.C,C10*%
X209375000Y-52833748D02*
X209375000Y-53356252D01*
X210845000Y-52833748D02*
X210845000Y-53356252D01*
%TD*%
M02*
