%TF.GenerationSoftware,KiCad,Pcbnew,9.0.7*%
%TF.CreationDate,2026-09-09T09:09:22+05:30*%
%TF.ProjectId,PumpNodeNew,50756d70-4e6f-4646-954e-65772e6b6963,rev?*%
%TF.SameCoordinates,Original*%
%TF.FileFunction,Legend,Top*%
%TF.FilePolarity,Positive*%
%FSLAX46Y46*%
G04 Gerber Fmt 4.6, Leading zero omitted, Abs format (unit mm)*
G04 Created by KiCad (PCBNEW 9.0.7) date 2026-09-09 09:09:22*
%MOMM*%
%LPD*%
G01*
G04 APERTURE LIST*
%ADD10C,0.500000*%
%ADD11C,0.250000*%
%ADD12C,0.300000*%
%ADD13C,0.175000*%
%ADD14C,0.200000*%
%ADD15C,0.240000*%
%ADD16C,0.150000*%
%ADD17C,0.875000*%
%ADD18C,1.000000*%
%ADD19C,0.120000*%
%ADD20C,0.100000*%
G04 APERTURE END LIST*
D10*
X169305137Y-76514238D02*
X169305137Y-74514238D01*
X169305137Y-74514238D02*
X170067042Y-74514238D01*
X170067042Y-74514238D02*
X170257518Y-74609476D01*
X170257518Y-74609476D02*
X170352756Y-74704714D01*
X170352756Y-74704714D02*
X170447994Y-74895190D01*
X170447994Y-74895190D02*
X170447994Y-75180904D01*
X170447994Y-75180904D02*
X170352756Y-75371380D01*
X170352756Y-75371380D02*
X170257518Y-75466619D01*
X170257518Y-75466619D02*
X170067042Y-75561857D01*
X170067042Y-75561857D02*
X169305137Y-75561857D01*
X171305137Y-74514238D02*
X171305137Y-76133285D01*
X171305137Y-76133285D02*
X171400375Y-76323761D01*
X171400375Y-76323761D02*
X171495613Y-76419000D01*
X171495613Y-76419000D02*
X171686089Y-76514238D01*
X171686089Y-76514238D02*
X172067042Y-76514238D01*
X172067042Y-76514238D02*
X172257518Y-76419000D01*
X172257518Y-76419000D02*
X172352756Y-76323761D01*
X172352756Y-76323761D02*
X172447994Y-76133285D01*
X172447994Y-76133285D02*
X172447994Y-74514238D01*
X173400375Y-76514238D02*
X173400375Y-74514238D01*
X173400375Y-74514238D02*
X174067042Y-75942809D01*
X174067042Y-75942809D02*
X174733708Y-74514238D01*
X174733708Y-74514238D02*
X174733708Y-76514238D01*
X175686089Y-76514238D02*
X175686089Y-74514238D01*
X175686089Y-74514238D02*
X176447994Y-74514238D01*
X176447994Y-74514238D02*
X176638470Y-74609476D01*
X176638470Y-74609476D02*
X176733708Y-74704714D01*
X176733708Y-74704714D02*
X176828946Y-74895190D01*
X176828946Y-74895190D02*
X176828946Y-75180904D01*
X176828946Y-75180904D02*
X176733708Y-75371380D01*
X176733708Y-75371380D02*
X176638470Y-75466619D01*
X176638470Y-75466619D02*
X176447994Y-75561857D01*
X176447994Y-75561857D02*
X175686089Y-75561857D01*
X180354476Y-76592243D02*
X180259238Y-76782719D01*
X180259238Y-76782719D02*
X180259238Y-77068433D01*
X180259238Y-77068433D02*
X180354476Y-77354148D01*
X180354476Y-77354148D02*
X180544952Y-77544624D01*
X180544952Y-77544624D02*
X180735428Y-77639862D01*
X180735428Y-77639862D02*
X181116380Y-77735100D01*
X181116380Y-77735100D02*
X181402095Y-77735100D01*
X181402095Y-77735100D02*
X181783047Y-77639862D01*
X181783047Y-77639862D02*
X181973523Y-77544624D01*
X181973523Y-77544624D02*
X182164000Y-77354148D01*
X182164000Y-77354148D02*
X182259238Y-77068433D01*
X182259238Y-77068433D02*
X182259238Y-76877957D01*
X182259238Y-76877957D02*
X182164000Y-76592243D01*
X182164000Y-76592243D02*
X182068761Y-76497005D01*
X182068761Y-76497005D02*
X181402095Y-76497005D01*
X181402095Y-76497005D02*
X181402095Y-76877957D01*
X182259238Y-75639862D02*
X180259238Y-75639862D01*
X180259238Y-75639862D02*
X182259238Y-74497005D01*
X182259238Y-74497005D02*
X180259238Y-74497005D01*
X182259238Y-73544624D02*
X180259238Y-73544624D01*
X180259238Y-73544624D02*
X180259238Y-73068434D01*
X180259238Y-73068434D02*
X180354476Y-72782719D01*
X180354476Y-72782719D02*
X180544952Y-72592243D01*
X180544952Y-72592243D02*
X180735428Y-72497005D01*
X180735428Y-72497005D02*
X181116380Y-72401767D01*
X181116380Y-72401767D02*
X181402095Y-72401767D01*
X181402095Y-72401767D02*
X181783047Y-72497005D01*
X181783047Y-72497005D02*
X181973523Y-72592243D01*
X181973523Y-72592243D02*
X182164000Y-72782719D01*
X182164000Y-72782719D02*
X182259238Y-73068434D01*
X182259238Y-73068434D02*
X182259238Y-73544624D01*
X190039238Y-77409862D02*
X188039238Y-77409862D01*
X190039238Y-76457481D02*
X188039238Y-76457481D01*
X188039238Y-76457481D02*
X190039238Y-75314624D01*
X190039238Y-75314624D02*
X188039238Y-75314624D01*
X188229714Y-74457481D02*
X188134476Y-74362243D01*
X188134476Y-74362243D02*
X188039238Y-74171767D01*
X188039238Y-74171767D02*
X188039238Y-73695576D01*
X188039238Y-73695576D02*
X188134476Y-73505100D01*
X188134476Y-73505100D02*
X188229714Y-73409862D01*
X188229714Y-73409862D02*
X188420190Y-73314624D01*
X188420190Y-73314624D02*
X188610666Y-73314624D01*
X188610666Y-73314624D02*
X188896380Y-73409862D01*
X188896380Y-73409862D02*
X190039238Y-74552719D01*
X190039238Y-74552719D02*
X190039238Y-73314624D01*
X193014476Y-76502243D02*
X192919238Y-76692719D01*
X192919238Y-76692719D02*
X192919238Y-76978433D01*
X192919238Y-76978433D02*
X193014476Y-77264148D01*
X193014476Y-77264148D02*
X193204952Y-77454624D01*
X193204952Y-77454624D02*
X193395428Y-77549862D01*
X193395428Y-77549862D02*
X193776380Y-77645100D01*
X193776380Y-77645100D02*
X194062095Y-77645100D01*
X194062095Y-77645100D02*
X194443047Y-77549862D01*
X194443047Y-77549862D02*
X194633523Y-77454624D01*
X194633523Y-77454624D02*
X194824000Y-77264148D01*
X194824000Y-77264148D02*
X194919238Y-76978433D01*
X194919238Y-76978433D02*
X194919238Y-76787957D01*
X194919238Y-76787957D02*
X194824000Y-76502243D01*
X194824000Y-76502243D02*
X194728761Y-76407005D01*
X194728761Y-76407005D02*
X194062095Y-76407005D01*
X194062095Y-76407005D02*
X194062095Y-76787957D01*
X194919238Y-75549862D02*
X192919238Y-75549862D01*
X192919238Y-75549862D02*
X194919238Y-74407005D01*
X194919238Y-74407005D02*
X192919238Y-74407005D01*
X194919238Y-73454624D02*
X192919238Y-73454624D01*
X192919238Y-73454624D02*
X192919238Y-72978434D01*
X192919238Y-72978434D02*
X193014476Y-72692719D01*
X193014476Y-72692719D02*
X193204952Y-72502243D01*
X193204952Y-72502243D02*
X193395428Y-72407005D01*
X193395428Y-72407005D02*
X193776380Y-72311767D01*
X193776380Y-72311767D02*
X194062095Y-72311767D01*
X194062095Y-72311767D02*
X194443047Y-72407005D01*
X194443047Y-72407005D02*
X194633523Y-72502243D01*
X194633523Y-72502243D02*
X194824000Y-72692719D01*
X194824000Y-72692719D02*
X194919238Y-72978434D01*
X194919238Y-72978434D02*
X194919238Y-73454624D01*
D11*
X233111615Y-101185142D02*
X232540187Y-101185142D01*
X232540187Y-101185142D02*
X232540187Y-99985142D01*
X233683044Y-101185142D02*
X233568759Y-101128000D01*
X233568759Y-101128000D02*
X233511616Y-101070857D01*
X233511616Y-101070857D02*
X233454473Y-100956571D01*
X233454473Y-100956571D02*
X233454473Y-100613714D01*
X233454473Y-100613714D02*
X233511616Y-100499428D01*
X233511616Y-100499428D02*
X233568759Y-100442285D01*
X233568759Y-100442285D02*
X233683044Y-100385142D01*
X233683044Y-100385142D02*
X233854473Y-100385142D01*
X233854473Y-100385142D02*
X233968759Y-100442285D01*
X233968759Y-100442285D02*
X234025902Y-100499428D01*
X234025902Y-100499428D02*
X234083044Y-100613714D01*
X234083044Y-100613714D02*
X234083044Y-100956571D01*
X234083044Y-100956571D02*
X234025902Y-101070857D01*
X234025902Y-101070857D02*
X233968759Y-101128000D01*
X233968759Y-101128000D02*
X233854473Y-101185142D01*
X233854473Y-101185142D02*
X233683044Y-101185142D01*
X235283044Y-101185142D02*
X234883044Y-100613714D01*
X234597330Y-101185142D02*
X234597330Y-99985142D01*
X234597330Y-99985142D02*
X235054473Y-99985142D01*
X235054473Y-99985142D02*
X235168758Y-100042285D01*
X235168758Y-100042285D02*
X235225901Y-100099428D01*
X235225901Y-100099428D02*
X235283044Y-100213714D01*
X235283044Y-100213714D02*
X235283044Y-100385142D01*
X235283044Y-100385142D02*
X235225901Y-100499428D01*
X235225901Y-100499428D02*
X235168758Y-100556571D01*
X235168758Y-100556571D02*
X235054473Y-100613714D01*
X235054473Y-100613714D02*
X234597330Y-100613714D01*
X236311616Y-101185142D02*
X236311616Y-100556571D01*
X236311616Y-100556571D02*
X236254473Y-100442285D01*
X236254473Y-100442285D02*
X236140187Y-100385142D01*
X236140187Y-100385142D02*
X235911616Y-100385142D01*
X235911616Y-100385142D02*
X235797330Y-100442285D01*
X236311616Y-101128000D02*
X236197330Y-101185142D01*
X236197330Y-101185142D02*
X235911616Y-101185142D01*
X235911616Y-101185142D02*
X235797330Y-101128000D01*
X235797330Y-101128000D02*
X235740187Y-101013714D01*
X235740187Y-101013714D02*
X235740187Y-100899428D01*
X235740187Y-100899428D02*
X235797330Y-100785142D01*
X235797330Y-100785142D02*
X235911616Y-100728000D01*
X235911616Y-100728000D02*
X236197330Y-100728000D01*
X236197330Y-100728000D02*
X236311616Y-100670857D01*
D10*
X157965137Y-93734238D02*
X157965137Y-91734238D01*
X157965137Y-91734238D02*
X158727042Y-91734238D01*
X158727042Y-91734238D02*
X158917518Y-91829476D01*
X158917518Y-91829476D02*
X159012756Y-91924714D01*
X159012756Y-91924714D02*
X159107994Y-92115190D01*
X159107994Y-92115190D02*
X159107994Y-92400904D01*
X159107994Y-92400904D02*
X159012756Y-92591380D01*
X159012756Y-92591380D02*
X158917518Y-92686619D01*
X158917518Y-92686619D02*
X158727042Y-92781857D01*
X158727042Y-92781857D02*
X157965137Y-92781857D01*
X159965137Y-91734238D02*
X159965137Y-93353285D01*
X159965137Y-93353285D02*
X160060375Y-93543761D01*
X160060375Y-93543761D02*
X160155613Y-93639000D01*
X160155613Y-93639000D02*
X160346089Y-93734238D01*
X160346089Y-93734238D02*
X160727042Y-93734238D01*
X160727042Y-93734238D02*
X160917518Y-93639000D01*
X160917518Y-93639000D02*
X161012756Y-93543761D01*
X161012756Y-93543761D02*
X161107994Y-93353285D01*
X161107994Y-93353285D02*
X161107994Y-91734238D01*
X162060375Y-93734238D02*
X162060375Y-91734238D01*
X162060375Y-91734238D02*
X162727042Y-93162809D01*
X162727042Y-93162809D02*
X163393708Y-91734238D01*
X163393708Y-91734238D02*
X163393708Y-93734238D01*
X164346089Y-93734238D02*
X164346089Y-91734238D01*
X164346089Y-91734238D02*
X165107994Y-91734238D01*
X165107994Y-91734238D02*
X165298470Y-91829476D01*
X165298470Y-91829476D02*
X165393708Y-91924714D01*
X165393708Y-91924714D02*
X165488946Y-92115190D01*
X165488946Y-92115190D02*
X165488946Y-92400904D01*
X165488946Y-92400904D02*
X165393708Y-92591380D01*
X165393708Y-92591380D02*
X165298470Y-92686619D01*
X165298470Y-92686619D02*
X165107994Y-92781857D01*
X165107994Y-92781857D02*
X164346089Y-92781857D01*
D12*
X155173082Y-106190609D02*
X155173082Y-104990609D01*
X155173082Y-104990609D02*
X155630225Y-104990609D01*
X155630225Y-104990609D02*
X155744510Y-105047752D01*
X155744510Y-105047752D02*
X155801653Y-105104895D01*
X155801653Y-105104895D02*
X155858796Y-105219181D01*
X155858796Y-105219181D02*
X155858796Y-105390609D01*
X155858796Y-105390609D02*
X155801653Y-105504895D01*
X155801653Y-105504895D02*
X155744510Y-105562038D01*
X155744510Y-105562038D02*
X155630225Y-105619181D01*
X155630225Y-105619181D02*
X155173082Y-105619181D01*
X156887368Y-105390609D02*
X156887368Y-106190609D01*
X156373082Y-105390609D02*
X156373082Y-106019181D01*
X156373082Y-106019181D02*
X156430225Y-106133467D01*
X156430225Y-106133467D02*
X156544510Y-106190609D01*
X156544510Y-106190609D02*
X156715939Y-106190609D01*
X156715939Y-106190609D02*
X156830225Y-106133467D01*
X156830225Y-106133467D02*
X156887368Y-106076324D01*
X157458796Y-106190609D02*
X157458796Y-105390609D01*
X157458796Y-105504895D02*
X157515939Y-105447752D01*
X157515939Y-105447752D02*
X157630224Y-105390609D01*
X157630224Y-105390609D02*
X157801653Y-105390609D01*
X157801653Y-105390609D02*
X157915939Y-105447752D01*
X157915939Y-105447752D02*
X157973082Y-105562038D01*
X157973082Y-105562038D02*
X157973082Y-106190609D01*
X157973082Y-105562038D02*
X158030224Y-105447752D01*
X158030224Y-105447752D02*
X158144510Y-105390609D01*
X158144510Y-105390609D02*
X158315939Y-105390609D01*
X158315939Y-105390609D02*
X158430224Y-105447752D01*
X158430224Y-105447752D02*
X158487367Y-105562038D01*
X158487367Y-105562038D02*
X158487367Y-106190609D01*
X159058796Y-105390609D02*
X159058796Y-106590609D01*
X159058796Y-105447752D02*
X159173082Y-105390609D01*
X159173082Y-105390609D02*
X159401653Y-105390609D01*
X159401653Y-105390609D02*
X159515939Y-105447752D01*
X159515939Y-105447752D02*
X159573082Y-105504895D01*
X159573082Y-105504895D02*
X159630224Y-105619181D01*
X159630224Y-105619181D02*
X159630224Y-105962038D01*
X159630224Y-105962038D02*
X159573082Y-106076324D01*
X159573082Y-106076324D02*
X159515939Y-106133467D01*
X159515939Y-106133467D02*
X159401653Y-106190609D01*
X159401653Y-106190609D02*
X159173082Y-106190609D01*
X159173082Y-106190609D02*
X159058796Y-106133467D01*
X161058796Y-106190609D02*
X161058796Y-104990609D01*
X161058796Y-104990609D02*
X161744510Y-106190609D01*
X161744510Y-106190609D02*
X161744510Y-104990609D01*
X162487367Y-106190609D02*
X162373082Y-106133467D01*
X162373082Y-106133467D02*
X162315939Y-106076324D01*
X162315939Y-106076324D02*
X162258796Y-105962038D01*
X162258796Y-105962038D02*
X162258796Y-105619181D01*
X162258796Y-105619181D02*
X162315939Y-105504895D01*
X162315939Y-105504895D02*
X162373082Y-105447752D01*
X162373082Y-105447752D02*
X162487367Y-105390609D01*
X162487367Y-105390609D02*
X162658796Y-105390609D01*
X162658796Y-105390609D02*
X162773082Y-105447752D01*
X162773082Y-105447752D02*
X162830225Y-105504895D01*
X162830225Y-105504895D02*
X162887367Y-105619181D01*
X162887367Y-105619181D02*
X162887367Y-105962038D01*
X162887367Y-105962038D02*
X162830225Y-106076324D01*
X162830225Y-106076324D02*
X162773082Y-106133467D01*
X162773082Y-106133467D02*
X162658796Y-106190609D01*
X162658796Y-106190609D02*
X162487367Y-106190609D01*
X163915939Y-106190609D02*
X163915939Y-104990609D01*
X163915939Y-106133467D02*
X163801653Y-106190609D01*
X163801653Y-106190609D02*
X163573081Y-106190609D01*
X163573081Y-106190609D02*
X163458796Y-106133467D01*
X163458796Y-106133467D02*
X163401653Y-106076324D01*
X163401653Y-106076324D02*
X163344510Y-105962038D01*
X163344510Y-105962038D02*
X163344510Y-105619181D01*
X163344510Y-105619181D02*
X163401653Y-105504895D01*
X163401653Y-105504895D02*
X163458796Y-105447752D01*
X163458796Y-105447752D02*
X163573081Y-105390609D01*
X163573081Y-105390609D02*
X163801653Y-105390609D01*
X163801653Y-105390609D02*
X163915939Y-105447752D01*
X164944510Y-106133467D02*
X164830224Y-106190609D01*
X164830224Y-106190609D02*
X164601653Y-106190609D01*
X164601653Y-106190609D02*
X164487367Y-106133467D01*
X164487367Y-106133467D02*
X164430224Y-106019181D01*
X164430224Y-106019181D02*
X164430224Y-105562038D01*
X164430224Y-105562038D02*
X164487367Y-105447752D01*
X164487367Y-105447752D02*
X164601653Y-105390609D01*
X164601653Y-105390609D02*
X164830224Y-105390609D01*
X164830224Y-105390609D02*
X164944510Y-105447752D01*
X164944510Y-105447752D02*
X165001653Y-105562038D01*
X165001653Y-105562038D02*
X165001653Y-105676324D01*
X165001653Y-105676324D02*
X164430224Y-105790609D01*
X157915940Y-108122542D02*
X157915940Y-106922542D01*
X157915940Y-106922542D02*
X158373083Y-106922542D01*
X158373083Y-106922542D02*
X158487368Y-106979685D01*
X158487368Y-106979685D02*
X158544511Y-107036828D01*
X158544511Y-107036828D02*
X158601654Y-107151114D01*
X158601654Y-107151114D02*
X158601654Y-107322542D01*
X158601654Y-107322542D02*
X158544511Y-107436828D01*
X158544511Y-107436828D02*
X158487368Y-107493971D01*
X158487368Y-107493971D02*
X158373083Y-107551114D01*
X158373083Y-107551114D02*
X157915940Y-107551114D01*
X159115940Y-108122542D02*
X159115940Y-106922542D01*
X159115940Y-106922542D02*
X159801654Y-108122542D01*
X159801654Y-108122542D02*
X159801654Y-106922542D01*
D10*
X198237333Y-78129862D02*
X198237333Y-76606053D01*
X198999238Y-77367957D02*
X197475428Y-77367957D01*
X197856380Y-75367958D02*
X197761142Y-75558434D01*
X197761142Y-75558434D02*
X197665904Y-75653672D01*
X197665904Y-75653672D02*
X197475428Y-75748910D01*
X197475428Y-75748910D02*
X197380190Y-75748910D01*
X197380190Y-75748910D02*
X197189714Y-75653672D01*
X197189714Y-75653672D02*
X197094476Y-75558434D01*
X197094476Y-75558434D02*
X196999238Y-75367958D01*
X196999238Y-75367958D02*
X196999238Y-74987005D01*
X196999238Y-74987005D02*
X197094476Y-74796529D01*
X197094476Y-74796529D02*
X197189714Y-74701291D01*
X197189714Y-74701291D02*
X197380190Y-74606053D01*
X197380190Y-74606053D02*
X197475428Y-74606053D01*
X197475428Y-74606053D02*
X197665904Y-74701291D01*
X197665904Y-74701291D02*
X197761142Y-74796529D01*
X197761142Y-74796529D02*
X197856380Y-74987005D01*
X197856380Y-74987005D02*
X197856380Y-75367958D01*
X197856380Y-75367958D02*
X197951619Y-75558434D01*
X197951619Y-75558434D02*
X198046857Y-75653672D01*
X198046857Y-75653672D02*
X198237333Y-75748910D01*
X198237333Y-75748910D02*
X198618285Y-75748910D01*
X198618285Y-75748910D02*
X198808761Y-75653672D01*
X198808761Y-75653672D02*
X198904000Y-75558434D01*
X198904000Y-75558434D02*
X198999238Y-75367958D01*
X198999238Y-75367958D02*
X198999238Y-74987005D01*
X198999238Y-74987005D02*
X198904000Y-74796529D01*
X198904000Y-74796529D02*
X198808761Y-74701291D01*
X198808761Y-74701291D02*
X198618285Y-74606053D01*
X198618285Y-74606053D02*
X198237333Y-74606053D01*
X198237333Y-74606053D02*
X198046857Y-74701291D01*
X198046857Y-74701291D02*
X197951619Y-74796529D01*
X197951619Y-74796529D02*
X197856380Y-74987005D01*
X196999238Y-74034624D02*
X198999238Y-73367958D01*
X198999238Y-73367958D02*
X196999238Y-72701291D01*
D11*
X232160187Y-94875142D02*
X232160187Y-93675142D01*
X232160187Y-93675142D02*
X232617330Y-93675142D01*
X232617330Y-93675142D02*
X232731615Y-93732285D01*
X232731615Y-93732285D02*
X232788758Y-93789428D01*
X232788758Y-93789428D02*
X232845901Y-93903714D01*
X232845901Y-93903714D02*
X232845901Y-94075142D01*
X232845901Y-94075142D02*
X232788758Y-94189428D01*
X232788758Y-94189428D02*
X232731615Y-94246571D01*
X232731615Y-94246571D02*
X232617330Y-94303714D01*
X232617330Y-94303714D02*
X232160187Y-94303714D01*
X233874473Y-94075142D02*
X233874473Y-94875142D01*
X233360187Y-94075142D02*
X233360187Y-94703714D01*
X233360187Y-94703714D02*
X233417330Y-94818000D01*
X233417330Y-94818000D02*
X233531615Y-94875142D01*
X233531615Y-94875142D02*
X233703044Y-94875142D01*
X233703044Y-94875142D02*
X233817330Y-94818000D01*
X233817330Y-94818000D02*
X233874473Y-94760857D01*
X234445901Y-94875142D02*
X234445901Y-94075142D01*
X234445901Y-94189428D02*
X234503044Y-94132285D01*
X234503044Y-94132285D02*
X234617329Y-94075142D01*
X234617329Y-94075142D02*
X234788758Y-94075142D01*
X234788758Y-94075142D02*
X234903044Y-94132285D01*
X234903044Y-94132285D02*
X234960187Y-94246571D01*
X234960187Y-94246571D02*
X234960187Y-94875142D01*
X234960187Y-94246571D02*
X235017329Y-94132285D01*
X235017329Y-94132285D02*
X235131615Y-94075142D01*
X235131615Y-94075142D02*
X235303044Y-94075142D01*
X235303044Y-94075142D02*
X235417329Y-94132285D01*
X235417329Y-94132285D02*
X235474472Y-94246571D01*
X235474472Y-94246571D02*
X235474472Y-94875142D01*
X236045901Y-94075142D02*
X236045901Y-95275142D01*
X236045901Y-94132285D02*
X236160187Y-94075142D01*
X236160187Y-94075142D02*
X236388758Y-94075142D01*
X236388758Y-94075142D02*
X236503044Y-94132285D01*
X236503044Y-94132285D02*
X236560187Y-94189428D01*
X236560187Y-94189428D02*
X236617329Y-94303714D01*
X236617329Y-94303714D02*
X236617329Y-94646571D01*
X236617329Y-94646571D02*
X236560187Y-94760857D01*
X236560187Y-94760857D02*
X236503044Y-94818000D01*
X236503044Y-94818000D02*
X236388758Y-94875142D01*
X236388758Y-94875142D02*
X236160187Y-94875142D01*
X236160187Y-94875142D02*
X236045901Y-94818000D01*
D10*
X186269238Y-77429862D02*
X184269238Y-77429862D01*
X186269238Y-76477481D02*
X184269238Y-76477481D01*
X184269238Y-76477481D02*
X186269238Y-75334624D01*
X186269238Y-75334624D02*
X184269238Y-75334624D01*
X186269238Y-73334624D02*
X186269238Y-74477481D01*
X186269238Y-73906053D02*
X184269238Y-73906053D01*
X184269238Y-73906053D02*
X184554952Y-74096529D01*
X184554952Y-74096529D02*
X184745428Y-74287005D01*
X184745428Y-74287005D02*
X184840666Y-74477481D01*
D13*
X226218464Y-104993566D02*
X226151797Y-104960233D01*
X226151797Y-104960233D02*
X226051797Y-104960233D01*
X226051797Y-104960233D02*
X225951797Y-104993566D01*
X225951797Y-104993566D02*
X225885131Y-105060233D01*
X225885131Y-105060233D02*
X225851797Y-105126900D01*
X225851797Y-105126900D02*
X225818464Y-105260233D01*
X225818464Y-105260233D02*
X225818464Y-105360233D01*
X225818464Y-105360233D02*
X225851797Y-105493566D01*
X225851797Y-105493566D02*
X225885131Y-105560233D01*
X225885131Y-105560233D02*
X225951797Y-105626900D01*
X225951797Y-105626900D02*
X226051797Y-105660233D01*
X226051797Y-105660233D02*
X226118464Y-105660233D01*
X226118464Y-105660233D02*
X226218464Y-105626900D01*
X226218464Y-105626900D02*
X226251797Y-105593566D01*
X226251797Y-105593566D02*
X226251797Y-105360233D01*
X226251797Y-105360233D02*
X226118464Y-105360233D01*
X226551797Y-105660233D02*
X226551797Y-104960233D01*
X226551797Y-104960233D02*
X226951797Y-105660233D01*
X226951797Y-105660233D02*
X226951797Y-104960233D01*
X227285130Y-105660233D02*
X227285130Y-104960233D01*
X227285130Y-104960233D02*
X227451797Y-104960233D01*
X227451797Y-104960233D02*
X227551797Y-104993566D01*
X227551797Y-104993566D02*
X227618464Y-105060233D01*
X227618464Y-105060233D02*
X227651797Y-105126900D01*
X227651797Y-105126900D02*
X227685130Y-105260233D01*
X227685130Y-105260233D02*
X227685130Y-105360233D01*
X227685130Y-105360233D02*
X227651797Y-105493566D01*
X227651797Y-105493566D02*
X227618464Y-105560233D01*
X227618464Y-105560233D02*
X227551797Y-105626900D01*
X227551797Y-105626900D02*
X227451797Y-105660233D01*
X227451797Y-105660233D02*
X227285130Y-105660233D01*
D14*
X203685863Y-108942219D02*
X203209673Y-108942219D01*
X203209673Y-108942219D02*
X203162054Y-109418409D01*
X203162054Y-109418409D02*
X203209673Y-109370790D01*
X203209673Y-109370790D02*
X203304911Y-109323171D01*
X203304911Y-109323171D02*
X203543006Y-109323171D01*
X203543006Y-109323171D02*
X203638244Y-109370790D01*
X203638244Y-109370790D02*
X203685863Y-109418409D01*
X203685863Y-109418409D02*
X203733482Y-109513647D01*
X203733482Y-109513647D02*
X203733482Y-109751742D01*
X203733482Y-109751742D02*
X203685863Y-109846980D01*
X203685863Y-109846980D02*
X203638244Y-109894600D01*
X203638244Y-109894600D02*
X203543006Y-109942219D01*
X203543006Y-109942219D02*
X203304911Y-109942219D01*
X203304911Y-109942219D02*
X203209673Y-109894600D01*
X203209673Y-109894600D02*
X203162054Y-109846980D01*
X204019197Y-108942219D02*
X204352530Y-109942219D01*
X204352530Y-109942219D02*
X204685863Y-108942219D01*
D11*
X233070187Y-107295142D02*
X233070187Y-106095142D01*
X233070187Y-106095142D02*
X233527330Y-106095142D01*
X233527330Y-106095142D02*
X233641615Y-106152285D01*
X233641615Y-106152285D02*
X233698758Y-106209428D01*
X233698758Y-106209428D02*
X233755901Y-106323714D01*
X233755901Y-106323714D02*
X233755901Y-106495142D01*
X233755901Y-106495142D02*
X233698758Y-106609428D01*
X233698758Y-106609428D02*
X233641615Y-106666571D01*
X233641615Y-106666571D02*
X233527330Y-106723714D01*
X233527330Y-106723714D02*
X233070187Y-106723714D01*
X234155901Y-106095142D02*
X234441615Y-107295142D01*
X234441615Y-107295142D02*
X234670187Y-106438000D01*
X234670187Y-106438000D02*
X234898758Y-107295142D01*
X234898758Y-107295142D02*
X235184473Y-106095142D01*
X236327330Y-107295142D02*
X235927330Y-106723714D01*
X235641616Y-107295142D02*
X235641616Y-106095142D01*
X235641616Y-106095142D02*
X236098759Y-106095142D01*
X236098759Y-106095142D02*
X236213044Y-106152285D01*
X236213044Y-106152285D02*
X236270187Y-106209428D01*
X236270187Y-106209428D02*
X236327330Y-106323714D01*
X236327330Y-106323714D02*
X236327330Y-106495142D01*
X236327330Y-106495142D02*
X236270187Y-106609428D01*
X236270187Y-106609428D02*
X236213044Y-106666571D01*
X236213044Y-106666571D02*
X236098759Y-106723714D01*
X236098759Y-106723714D02*
X235641616Y-106723714D01*
D15*
X154805714Y-98098939D02*
X155377143Y-98098939D01*
X154691428Y-98441796D02*
X155091428Y-97241796D01*
X155091428Y-97241796D02*
X155491428Y-98441796D01*
X156405714Y-97641796D02*
X156405714Y-98613225D01*
X156405714Y-98613225D02*
X156348571Y-98727511D01*
X156348571Y-98727511D02*
X156291428Y-98784654D01*
X156291428Y-98784654D02*
X156177142Y-98841796D01*
X156177142Y-98841796D02*
X156005714Y-98841796D01*
X156005714Y-98841796D02*
X155891428Y-98784654D01*
X156405714Y-98384654D02*
X156291428Y-98441796D01*
X156291428Y-98441796D02*
X156062856Y-98441796D01*
X156062856Y-98441796D02*
X155948571Y-98384654D01*
X155948571Y-98384654D02*
X155891428Y-98327511D01*
X155891428Y-98327511D02*
X155834285Y-98213225D01*
X155834285Y-98213225D02*
X155834285Y-97870368D01*
X155834285Y-97870368D02*
X155891428Y-97756082D01*
X155891428Y-97756082D02*
X155948571Y-97698939D01*
X155948571Y-97698939D02*
X156062856Y-97641796D01*
X156062856Y-97641796D02*
X156291428Y-97641796D01*
X156291428Y-97641796D02*
X156405714Y-97698939D01*
X156977142Y-98441796D02*
X156977142Y-97641796D01*
X156977142Y-97870368D02*
X157034285Y-97756082D01*
X157034285Y-97756082D02*
X157091428Y-97698939D01*
X157091428Y-97698939D02*
X157205713Y-97641796D01*
X157205713Y-97641796D02*
X157319999Y-97641796D01*
X157719999Y-98441796D02*
X157719999Y-97641796D01*
X157719999Y-97241796D02*
X157662856Y-97298939D01*
X157662856Y-97298939D02*
X157719999Y-97356082D01*
X157719999Y-97356082D02*
X157777142Y-97298939D01*
X157777142Y-97298939D02*
X157719999Y-97241796D01*
X157719999Y-97241796D02*
X157719999Y-97356082D01*
X159148571Y-98384654D02*
X159320000Y-98441796D01*
X159320000Y-98441796D02*
X159605714Y-98441796D01*
X159605714Y-98441796D02*
X159720000Y-98384654D01*
X159720000Y-98384654D02*
X159777142Y-98327511D01*
X159777142Y-98327511D02*
X159834285Y-98213225D01*
X159834285Y-98213225D02*
X159834285Y-98098939D01*
X159834285Y-98098939D02*
X159777142Y-97984654D01*
X159777142Y-97984654D02*
X159720000Y-97927511D01*
X159720000Y-97927511D02*
X159605714Y-97870368D01*
X159605714Y-97870368D02*
X159377142Y-97813225D01*
X159377142Y-97813225D02*
X159262857Y-97756082D01*
X159262857Y-97756082D02*
X159205714Y-97698939D01*
X159205714Y-97698939D02*
X159148571Y-97584654D01*
X159148571Y-97584654D02*
X159148571Y-97470368D01*
X159148571Y-97470368D02*
X159205714Y-97356082D01*
X159205714Y-97356082D02*
X159262857Y-97298939D01*
X159262857Y-97298939D02*
X159377142Y-97241796D01*
X159377142Y-97241796D02*
X159662857Y-97241796D01*
X159662857Y-97241796D02*
X159834285Y-97298939D01*
X160805714Y-98384654D02*
X160691428Y-98441796D01*
X160691428Y-98441796D02*
X160462857Y-98441796D01*
X160462857Y-98441796D02*
X160348571Y-98384654D01*
X160348571Y-98384654D02*
X160291428Y-98270368D01*
X160291428Y-98270368D02*
X160291428Y-97813225D01*
X160291428Y-97813225D02*
X160348571Y-97698939D01*
X160348571Y-97698939D02*
X160462857Y-97641796D01*
X160462857Y-97641796D02*
X160691428Y-97641796D01*
X160691428Y-97641796D02*
X160805714Y-97698939D01*
X160805714Y-97698939D02*
X160862857Y-97813225D01*
X160862857Y-97813225D02*
X160862857Y-97927511D01*
X160862857Y-97927511D02*
X160291428Y-98041796D01*
X161377142Y-97641796D02*
X161377142Y-98441796D01*
X161377142Y-97756082D02*
X161434285Y-97698939D01*
X161434285Y-97698939D02*
X161548570Y-97641796D01*
X161548570Y-97641796D02*
X161719999Y-97641796D01*
X161719999Y-97641796D02*
X161834285Y-97698939D01*
X161834285Y-97698939D02*
X161891428Y-97813225D01*
X161891428Y-97813225D02*
X161891428Y-98441796D01*
X162405713Y-98384654D02*
X162519999Y-98441796D01*
X162519999Y-98441796D02*
X162748570Y-98441796D01*
X162748570Y-98441796D02*
X162862856Y-98384654D01*
X162862856Y-98384654D02*
X162919999Y-98270368D01*
X162919999Y-98270368D02*
X162919999Y-98213225D01*
X162919999Y-98213225D02*
X162862856Y-98098939D01*
X162862856Y-98098939D02*
X162748570Y-98041796D01*
X162748570Y-98041796D02*
X162577142Y-98041796D01*
X162577142Y-98041796D02*
X162462856Y-97984654D01*
X162462856Y-97984654D02*
X162405713Y-97870368D01*
X162405713Y-97870368D02*
X162405713Y-97813225D01*
X162405713Y-97813225D02*
X162462856Y-97698939D01*
X162462856Y-97698939D02*
X162577142Y-97641796D01*
X162577142Y-97641796D02*
X162748570Y-97641796D01*
X162748570Y-97641796D02*
X162862856Y-97698939D01*
X163605713Y-98441796D02*
X163491428Y-98384654D01*
X163491428Y-98384654D02*
X163434285Y-98327511D01*
X163434285Y-98327511D02*
X163377142Y-98213225D01*
X163377142Y-98213225D02*
X163377142Y-97870368D01*
X163377142Y-97870368D02*
X163434285Y-97756082D01*
X163434285Y-97756082D02*
X163491428Y-97698939D01*
X163491428Y-97698939D02*
X163605713Y-97641796D01*
X163605713Y-97641796D02*
X163777142Y-97641796D01*
X163777142Y-97641796D02*
X163891428Y-97698939D01*
X163891428Y-97698939D02*
X163948571Y-97756082D01*
X163948571Y-97756082D02*
X164005713Y-97870368D01*
X164005713Y-97870368D02*
X164005713Y-98213225D01*
X164005713Y-98213225D02*
X163948571Y-98327511D01*
X163948571Y-98327511D02*
X163891428Y-98384654D01*
X163891428Y-98384654D02*
X163777142Y-98441796D01*
X163777142Y-98441796D02*
X163605713Y-98441796D01*
X164519999Y-98441796D02*
X164519999Y-97641796D01*
X164519999Y-97870368D02*
X164577142Y-97756082D01*
X164577142Y-97756082D02*
X164634285Y-97698939D01*
X164634285Y-97698939D02*
X164748570Y-97641796D01*
X164748570Y-97641796D02*
X164862856Y-97641796D01*
X165205713Y-98384654D02*
X165319999Y-98441796D01*
X165319999Y-98441796D02*
X165548570Y-98441796D01*
X165548570Y-98441796D02*
X165662856Y-98384654D01*
X165662856Y-98384654D02*
X165719999Y-98270368D01*
X165719999Y-98270368D02*
X165719999Y-98213225D01*
X165719999Y-98213225D02*
X165662856Y-98098939D01*
X165662856Y-98098939D02*
X165548570Y-98041796D01*
X165548570Y-98041796D02*
X165377142Y-98041796D01*
X165377142Y-98041796D02*
X165262856Y-97984654D01*
X165262856Y-97984654D02*
X165205713Y-97870368D01*
X165205713Y-97870368D02*
X165205713Y-97813225D01*
X165205713Y-97813225D02*
X165262856Y-97698939D01*
X165262856Y-97698939D02*
X165377142Y-97641796D01*
X165377142Y-97641796D02*
X165548570Y-97641796D01*
X165548570Y-97641796D02*
X165662856Y-97698939D01*
X155691430Y-100373729D02*
X155691430Y-99745158D01*
X155691430Y-99745158D02*
X155634287Y-99630872D01*
X155634287Y-99630872D02*
X155520001Y-99573729D01*
X155520001Y-99573729D02*
X155291430Y-99573729D01*
X155291430Y-99573729D02*
X155177144Y-99630872D01*
X155691430Y-100316587D02*
X155577144Y-100373729D01*
X155577144Y-100373729D02*
X155291430Y-100373729D01*
X155291430Y-100373729D02*
X155177144Y-100316587D01*
X155177144Y-100316587D02*
X155120001Y-100202301D01*
X155120001Y-100202301D02*
X155120001Y-100088015D01*
X155120001Y-100088015D02*
X155177144Y-99973729D01*
X155177144Y-99973729D02*
X155291430Y-99916587D01*
X155291430Y-99916587D02*
X155577144Y-99916587D01*
X155577144Y-99916587D02*
X155691430Y-99859444D01*
X156262858Y-99573729D02*
X156262858Y-100373729D01*
X156262858Y-99688015D02*
X156320001Y-99630872D01*
X156320001Y-99630872D02*
X156434286Y-99573729D01*
X156434286Y-99573729D02*
X156605715Y-99573729D01*
X156605715Y-99573729D02*
X156720001Y-99630872D01*
X156720001Y-99630872D02*
X156777144Y-99745158D01*
X156777144Y-99745158D02*
X156777144Y-100373729D01*
X157862858Y-100373729D02*
X157862858Y-99173729D01*
X157862858Y-100316587D02*
X157748572Y-100373729D01*
X157748572Y-100373729D02*
X157520000Y-100373729D01*
X157520000Y-100373729D02*
X157405715Y-100316587D01*
X157405715Y-100316587D02*
X157348572Y-100259444D01*
X157348572Y-100259444D02*
X157291429Y-100145158D01*
X157291429Y-100145158D02*
X157291429Y-99802301D01*
X157291429Y-99802301D02*
X157348572Y-99688015D01*
X157348572Y-99688015D02*
X157405715Y-99630872D01*
X157405715Y-99630872D02*
X157520000Y-99573729D01*
X157520000Y-99573729D02*
X157748572Y-99573729D01*
X157748572Y-99573729D02*
X157862858Y-99630872D01*
X160034286Y-100259444D02*
X159977143Y-100316587D01*
X159977143Y-100316587D02*
X159805715Y-100373729D01*
X159805715Y-100373729D02*
X159691429Y-100373729D01*
X159691429Y-100373729D02*
X159520000Y-100316587D01*
X159520000Y-100316587D02*
X159405715Y-100202301D01*
X159405715Y-100202301D02*
X159348572Y-100088015D01*
X159348572Y-100088015D02*
X159291429Y-99859444D01*
X159291429Y-99859444D02*
X159291429Y-99688015D01*
X159291429Y-99688015D02*
X159348572Y-99459444D01*
X159348572Y-99459444D02*
X159405715Y-99345158D01*
X159405715Y-99345158D02*
X159520000Y-99230872D01*
X159520000Y-99230872D02*
X159691429Y-99173729D01*
X159691429Y-99173729D02*
X159805715Y-99173729D01*
X159805715Y-99173729D02*
X159977143Y-99230872D01*
X159977143Y-99230872D02*
X160034286Y-99288015D01*
X160720000Y-100373729D02*
X160605715Y-100316587D01*
X160605715Y-100316587D02*
X160548572Y-100259444D01*
X160548572Y-100259444D02*
X160491429Y-100145158D01*
X160491429Y-100145158D02*
X160491429Y-99802301D01*
X160491429Y-99802301D02*
X160548572Y-99688015D01*
X160548572Y-99688015D02*
X160605715Y-99630872D01*
X160605715Y-99630872D02*
X160720000Y-99573729D01*
X160720000Y-99573729D02*
X160891429Y-99573729D01*
X160891429Y-99573729D02*
X161005715Y-99630872D01*
X161005715Y-99630872D02*
X161062858Y-99688015D01*
X161062858Y-99688015D02*
X161120000Y-99802301D01*
X161120000Y-99802301D02*
X161120000Y-100145158D01*
X161120000Y-100145158D02*
X161062858Y-100259444D01*
X161062858Y-100259444D02*
X161005715Y-100316587D01*
X161005715Y-100316587D02*
X160891429Y-100373729D01*
X160891429Y-100373729D02*
X160720000Y-100373729D01*
X161634286Y-99573729D02*
X161634286Y-100373729D01*
X161634286Y-99688015D02*
X161691429Y-99630872D01*
X161691429Y-99630872D02*
X161805714Y-99573729D01*
X161805714Y-99573729D02*
X161977143Y-99573729D01*
X161977143Y-99573729D02*
X162091429Y-99630872D01*
X162091429Y-99630872D02*
X162148572Y-99745158D01*
X162148572Y-99745158D02*
X162148572Y-100373729D01*
X162548571Y-99573729D02*
X163005714Y-99573729D01*
X162720000Y-99173729D02*
X162720000Y-100202301D01*
X162720000Y-100202301D02*
X162777143Y-100316587D01*
X162777143Y-100316587D02*
X162891428Y-100373729D01*
X162891428Y-100373729D02*
X163005714Y-100373729D01*
X163405714Y-100373729D02*
X163405714Y-99573729D01*
X163405714Y-99802301D02*
X163462857Y-99688015D01*
X163462857Y-99688015D02*
X163520000Y-99630872D01*
X163520000Y-99630872D02*
X163634285Y-99573729D01*
X163634285Y-99573729D02*
X163748571Y-99573729D01*
X164319999Y-100373729D02*
X164205714Y-100316587D01*
X164205714Y-100316587D02*
X164148571Y-100259444D01*
X164148571Y-100259444D02*
X164091428Y-100145158D01*
X164091428Y-100145158D02*
X164091428Y-99802301D01*
X164091428Y-99802301D02*
X164148571Y-99688015D01*
X164148571Y-99688015D02*
X164205714Y-99630872D01*
X164205714Y-99630872D02*
X164319999Y-99573729D01*
X164319999Y-99573729D02*
X164491428Y-99573729D01*
X164491428Y-99573729D02*
X164605714Y-99630872D01*
X164605714Y-99630872D02*
X164662857Y-99688015D01*
X164662857Y-99688015D02*
X164719999Y-99802301D01*
X164719999Y-99802301D02*
X164719999Y-100145158D01*
X164719999Y-100145158D02*
X164662857Y-100259444D01*
X164662857Y-100259444D02*
X164605714Y-100316587D01*
X164605714Y-100316587D02*
X164491428Y-100373729D01*
X164491428Y-100373729D02*
X164319999Y-100373729D01*
X165405713Y-100373729D02*
X165291428Y-100316587D01*
X165291428Y-100316587D02*
X165234285Y-100202301D01*
X165234285Y-100202301D02*
X165234285Y-99173729D01*
X165805713Y-100316587D02*
X165919999Y-100373729D01*
X165919999Y-100373729D02*
X166148570Y-100373729D01*
X166148570Y-100373729D02*
X166262856Y-100316587D01*
X166262856Y-100316587D02*
X166319999Y-100202301D01*
X166319999Y-100202301D02*
X166319999Y-100145158D01*
X166319999Y-100145158D02*
X166262856Y-100030872D01*
X166262856Y-100030872D02*
X166148570Y-99973729D01*
X166148570Y-99973729D02*
X165977142Y-99973729D01*
X165977142Y-99973729D02*
X165862856Y-99916587D01*
X165862856Y-99916587D02*
X165805713Y-99802301D01*
X165805713Y-99802301D02*
X165805713Y-99745158D01*
X165805713Y-99745158D02*
X165862856Y-99630872D01*
X165862856Y-99630872D02*
X165977142Y-99573729D01*
X165977142Y-99573729D02*
X166148570Y-99573729D01*
X166148570Y-99573729D02*
X166262856Y-99630872D01*
X157034286Y-102248520D02*
X157205715Y-102305662D01*
X157205715Y-102305662D02*
X157491429Y-102305662D01*
X157491429Y-102305662D02*
X157605715Y-102248520D01*
X157605715Y-102248520D02*
X157662857Y-102191377D01*
X157662857Y-102191377D02*
X157720000Y-102077091D01*
X157720000Y-102077091D02*
X157720000Y-101962805D01*
X157720000Y-101962805D02*
X157662857Y-101848520D01*
X157662857Y-101848520D02*
X157605715Y-101791377D01*
X157605715Y-101791377D02*
X157491429Y-101734234D01*
X157491429Y-101734234D02*
X157262857Y-101677091D01*
X157262857Y-101677091D02*
X157148572Y-101619948D01*
X157148572Y-101619948D02*
X157091429Y-101562805D01*
X157091429Y-101562805D02*
X157034286Y-101448520D01*
X157034286Y-101448520D02*
X157034286Y-101334234D01*
X157034286Y-101334234D02*
X157091429Y-101219948D01*
X157091429Y-101219948D02*
X157148572Y-101162805D01*
X157148572Y-101162805D02*
X157262857Y-101105662D01*
X157262857Y-101105662D02*
X157548572Y-101105662D01*
X157548572Y-101105662D02*
X157720000Y-101162805D01*
X158691429Y-102248520D02*
X158577143Y-102305662D01*
X158577143Y-102305662D02*
X158348572Y-102305662D01*
X158348572Y-102305662D02*
X158234286Y-102248520D01*
X158234286Y-102248520D02*
X158177143Y-102134234D01*
X158177143Y-102134234D02*
X158177143Y-101677091D01*
X158177143Y-101677091D02*
X158234286Y-101562805D01*
X158234286Y-101562805D02*
X158348572Y-101505662D01*
X158348572Y-101505662D02*
X158577143Y-101505662D01*
X158577143Y-101505662D02*
X158691429Y-101562805D01*
X158691429Y-101562805D02*
X158748572Y-101677091D01*
X158748572Y-101677091D02*
X158748572Y-101791377D01*
X158748572Y-101791377D02*
X158177143Y-101905662D01*
X159262857Y-101505662D02*
X159262857Y-102705662D01*
X159262857Y-101562805D02*
X159377143Y-101505662D01*
X159377143Y-101505662D02*
X159605714Y-101505662D01*
X159605714Y-101505662D02*
X159720000Y-101562805D01*
X159720000Y-101562805D02*
X159777143Y-101619948D01*
X159777143Y-101619948D02*
X159834285Y-101734234D01*
X159834285Y-101734234D02*
X159834285Y-102077091D01*
X159834285Y-102077091D02*
X159777143Y-102191377D01*
X159777143Y-102191377D02*
X159720000Y-102248520D01*
X159720000Y-102248520D02*
X159605714Y-102305662D01*
X159605714Y-102305662D02*
X159377143Y-102305662D01*
X159377143Y-102305662D02*
X159262857Y-102248520D01*
X160291428Y-101219948D02*
X160348571Y-101162805D01*
X160348571Y-101162805D02*
X160462857Y-101105662D01*
X160462857Y-101105662D02*
X160748571Y-101105662D01*
X160748571Y-101105662D02*
X160862857Y-101162805D01*
X160862857Y-101162805D02*
X160919999Y-101219948D01*
X160919999Y-101219948D02*
X160977142Y-101334234D01*
X160977142Y-101334234D02*
X160977142Y-101448520D01*
X160977142Y-101448520D02*
X160919999Y-101619948D01*
X160919999Y-101619948D02*
X160234285Y-102305662D01*
X160234285Y-102305662D02*
X160977142Y-102305662D01*
X161719999Y-101105662D02*
X161834285Y-101105662D01*
X161834285Y-101105662D02*
X161948571Y-101162805D01*
X161948571Y-101162805D02*
X162005714Y-101219948D01*
X162005714Y-101219948D02*
X162062856Y-101334234D01*
X162062856Y-101334234D02*
X162119999Y-101562805D01*
X162119999Y-101562805D02*
X162119999Y-101848520D01*
X162119999Y-101848520D02*
X162062856Y-102077091D01*
X162062856Y-102077091D02*
X162005714Y-102191377D01*
X162005714Y-102191377D02*
X161948571Y-102248520D01*
X161948571Y-102248520D02*
X161834285Y-102305662D01*
X161834285Y-102305662D02*
X161719999Y-102305662D01*
X161719999Y-102305662D02*
X161605714Y-102248520D01*
X161605714Y-102248520D02*
X161548571Y-102191377D01*
X161548571Y-102191377D02*
X161491428Y-102077091D01*
X161491428Y-102077091D02*
X161434285Y-101848520D01*
X161434285Y-101848520D02*
X161434285Y-101562805D01*
X161434285Y-101562805D02*
X161491428Y-101334234D01*
X161491428Y-101334234D02*
X161548571Y-101219948D01*
X161548571Y-101219948D02*
X161605714Y-101162805D01*
X161605714Y-101162805D02*
X161719999Y-101105662D01*
X162577142Y-101219948D02*
X162634285Y-101162805D01*
X162634285Y-101162805D02*
X162748571Y-101105662D01*
X162748571Y-101105662D02*
X163034285Y-101105662D01*
X163034285Y-101105662D02*
X163148571Y-101162805D01*
X163148571Y-101162805D02*
X163205713Y-101219948D01*
X163205713Y-101219948D02*
X163262856Y-101334234D01*
X163262856Y-101334234D02*
X163262856Y-101448520D01*
X163262856Y-101448520D02*
X163205713Y-101619948D01*
X163205713Y-101619948D02*
X162519999Y-102305662D01*
X162519999Y-102305662D02*
X163262856Y-102305662D01*
X164291428Y-101105662D02*
X164062856Y-101105662D01*
X164062856Y-101105662D02*
X163948570Y-101162805D01*
X163948570Y-101162805D02*
X163891428Y-101219948D01*
X163891428Y-101219948D02*
X163777142Y-101391377D01*
X163777142Y-101391377D02*
X163719999Y-101619948D01*
X163719999Y-101619948D02*
X163719999Y-102077091D01*
X163719999Y-102077091D02*
X163777142Y-102191377D01*
X163777142Y-102191377D02*
X163834285Y-102248520D01*
X163834285Y-102248520D02*
X163948570Y-102305662D01*
X163948570Y-102305662D02*
X164177142Y-102305662D01*
X164177142Y-102305662D02*
X164291428Y-102248520D01*
X164291428Y-102248520D02*
X164348570Y-102191377D01*
X164348570Y-102191377D02*
X164405713Y-102077091D01*
X164405713Y-102077091D02*
X164405713Y-101791377D01*
X164405713Y-101791377D02*
X164348570Y-101677091D01*
X164348570Y-101677091D02*
X164291428Y-101619948D01*
X164291428Y-101619948D02*
X164177142Y-101562805D01*
X164177142Y-101562805D02*
X163948570Y-101562805D01*
X163948570Y-101562805D02*
X163834285Y-101619948D01*
X163834285Y-101619948D02*
X163777142Y-101677091D01*
X163777142Y-101677091D02*
X163719999Y-101791377D01*
D14*
X227153006Y-108937742D02*
X227895863Y-108937742D01*
X227895863Y-108937742D02*
X227495863Y-109394885D01*
X227495863Y-109394885D02*
X227667292Y-109394885D01*
X227667292Y-109394885D02*
X227781578Y-109452028D01*
X227781578Y-109452028D02*
X227838720Y-109509171D01*
X227838720Y-109509171D02*
X227895863Y-109623457D01*
X227895863Y-109623457D02*
X227895863Y-109909171D01*
X227895863Y-109909171D02*
X227838720Y-110023457D01*
X227838720Y-110023457D02*
X227781578Y-110080600D01*
X227781578Y-110080600D02*
X227667292Y-110137742D01*
X227667292Y-110137742D02*
X227324435Y-110137742D01*
X227324435Y-110137742D02*
X227210149Y-110080600D01*
X227210149Y-110080600D02*
X227153006Y-110023457D01*
X228410149Y-110023457D02*
X228467292Y-110080600D01*
X228467292Y-110080600D02*
X228410149Y-110137742D01*
X228410149Y-110137742D02*
X228353006Y-110080600D01*
X228353006Y-110080600D02*
X228410149Y-110023457D01*
X228410149Y-110023457D02*
X228410149Y-110137742D01*
X228867292Y-108937742D02*
X229610149Y-108937742D01*
X229610149Y-108937742D02*
X229210149Y-109394885D01*
X229210149Y-109394885D02*
X229381578Y-109394885D01*
X229381578Y-109394885D02*
X229495864Y-109452028D01*
X229495864Y-109452028D02*
X229553006Y-109509171D01*
X229553006Y-109509171D02*
X229610149Y-109623457D01*
X229610149Y-109623457D02*
X229610149Y-109909171D01*
X229610149Y-109909171D02*
X229553006Y-110023457D01*
X229553006Y-110023457D02*
X229495864Y-110080600D01*
X229495864Y-110080600D02*
X229381578Y-110137742D01*
X229381578Y-110137742D02*
X229038721Y-110137742D01*
X229038721Y-110137742D02*
X228924435Y-110080600D01*
X228924435Y-110080600D02*
X228867292Y-110023457D01*
X229953006Y-108937742D02*
X230353006Y-110137742D01*
X230353006Y-110137742D02*
X230753006Y-108937742D01*
D13*
X206288464Y-105113566D02*
X206221797Y-105080233D01*
X206221797Y-105080233D02*
X206121797Y-105080233D01*
X206121797Y-105080233D02*
X206021797Y-105113566D01*
X206021797Y-105113566D02*
X205955131Y-105180233D01*
X205955131Y-105180233D02*
X205921797Y-105246900D01*
X205921797Y-105246900D02*
X205888464Y-105380233D01*
X205888464Y-105380233D02*
X205888464Y-105480233D01*
X205888464Y-105480233D02*
X205921797Y-105613566D01*
X205921797Y-105613566D02*
X205955131Y-105680233D01*
X205955131Y-105680233D02*
X206021797Y-105746900D01*
X206021797Y-105746900D02*
X206121797Y-105780233D01*
X206121797Y-105780233D02*
X206188464Y-105780233D01*
X206188464Y-105780233D02*
X206288464Y-105746900D01*
X206288464Y-105746900D02*
X206321797Y-105713566D01*
X206321797Y-105713566D02*
X206321797Y-105480233D01*
X206321797Y-105480233D02*
X206188464Y-105480233D01*
X206621797Y-105780233D02*
X206621797Y-105080233D01*
X206621797Y-105080233D02*
X207021797Y-105780233D01*
X207021797Y-105780233D02*
X207021797Y-105080233D01*
X207355130Y-105780233D02*
X207355130Y-105080233D01*
X207355130Y-105080233D02*
X207521797Y-105080233D01*
X207521797Y-105080233D02*
X207621797Y-105113566D01*
X207621797Y-105113566D02*
X207688464Y-105180233D01*
X207688464Y-105180233D02*
X207721797Y-105246900D01*
X207721797Y-105246900D02*
X207755130Y-105380233D01*
X207755130Y-105380233D02*
X207755130Y-105480233D01*
X207755130Y-105480233D02*
X207721797Y-105613566D01*
X207721797Y-105613566D02*
X207688464Y-105680233D01*
X207688464Y-105680233D02*
X207621797Y-105746900D01*
X207621797Y-105746900D02*
X207521797Y-105780233D01*
X207521797Y-105780233D02*
X207355130Y-105780233D01*
D16*
X185036666Y-77889819D02*
X185036666Y-78604104D01*
X185036666Y-78604104D02*
X184989047Y-78746961D01*
X184989047Y-78746961D02*
X184893809Y-78842200D01*
X184893809Y-78842200D02*
X184750952Y-78889819D01*
X184750952Y-78889819D02*
X184655714Y-78889819D01*
X186036666Y-78889819D02*
X185465238Y-78889819D01*
X185750952Y-78889819D02*
X185750952Y-77889819D01*
X185750952Y-77889819D02*
X185655714Y-78032676D01*
X185655714Y-78032676D02*
X185560476Y-78127914D01*
X185560476Y-78127914D02*
X185465238Y-78175533D01*
X172436666Y-77879819D02*
X172436666Y-78594104D01*
X172436666Y-78594104D02*
X172389047Y-78736961D01*
X172389047Y-78736961D02*
X172293809Y-78832200D01*
X172293809Y-78832200D02*
X172150952Y-78879819D01*
X172150952Y-78879819D02*
X172055714Y-78879819D01*
X173341428Y-78213152D02*
X173341428Y-78879819D01*
X173103333Y-77832200D02*
X172865238Y-78546485D01*
X172865238Y-78546485D02*
X173484285Y-78546485D01*
X196076666Y-77889819D02*
X196076666Y-78604104D01*
X196076666Y-78604104D02*
X196029047Y-78746961D01*
X196029047Y-78746961D02*
X195933809Y-78842200D01*
X195933809Y-78842200D02*
X195790952Y-78889819D01*
X195790952Y-78889819D02*
X195695714Y-78889819D01*
X196457619Y-77889819D02*
X197076666Y-77889819D01*
X197076666Y-77889819D02*
X196743333Y-78270771D01*
X196743333Y-78270771D02*
X196886190Y-78270771D01*
X196886190Y-78270771D02*
X196981428Y-78318390D01*
X196981428Y-78318390D02*
X197029047Y-78366009D01*
X197029047Y-78366009D02*
X197076666Y-78461247D01*
X197076666Y-78461247D02*
X197076666Y-78699342D01*
X197076666Y-78699342D02*
X197029047Y-78794580D01*
X197029047Y-78794580D02*
X196981428Y-78842200D01*
X196981428Y-78842200D02*
X196886190Y-78889819D01*
X196886190Y-78889819D02*
X196600476Y-78889819D01*
X196600476Y-78889819D02*
X196505238Y-78842200D01*
X196505238Y-78842200D02*
X196457619Y-78794580D01*
X230323333Y-62194580D02*
X230275714Y-62242200D01*
X230275714Y-62242200D02*
X230132857Y-62289819D01*
X230132857Y-62289819D02*
X230037619Y-62289819D01*
X230037619Y-62289819D02*
X229894762Y-62242200D01*
X229894762Y-62242200D02*
X229799524Y-62146961D01*
X229799524Y-62146961D02*
X229751905Y-62051723D01*
X229751905Y-62051723D02*
X229704286Y-61861247D01*
X229704286Y-61861247D02*
X229704286Y-61718390D01*
X229704286Y-61718390D02*
X229751905Y-61527914D01*
X229751905Y-61527914D02*
X229799524Y-61432676D01*
X229799524Y-61432676D02*
X229894762Y-61337438D01*
X229894762Y-61337438D02*
X230037619Y-61289819D01*
X230037619Y-61289819D02*
X230132857Y-61289819D01*
X230132857Y-61289819D02*
X230275714Y-61337438D01*
X230275714Y-61337438D02*
X230323333Y-61385057D01*
X231228095Y-61289819D02*
X230751905Y-61289819D01*
X230751905Y-61289819D02*
X230704286Y-61766009D01*
X230704286Y-61766009D02*
X230751905Y-61718390D01*
X230751905Y-61718390D02*
X230847143Y-61670771D01*
X230847143Y-61670771D02*
X231085238Y-61670771D01*
X231085238Y-61670771D02*
X231180476Y-61718390D01*
X231180476Y-61718390D02*
X231228095Y-61766009D01*
X231228095Y-61766009D02*
X231275714Y-61861247D01*
X231275714Y-61861247D02*
X231275714Y-62099342D01*
X231275714Y-62099342D02*
X231228095Y-62194580D01*
X231228095Y-62194580D02*
X231180476Y-62242200D01*
X231180476Y-62242200D02*
X231085238Y-62289819D01*
X231085238Y-62289819D02*
X230847143Y-62289819D01*
X230847143Y-62289819D02*
X230751905Y-62242200D01*
X230751905Y-62242200D02*
X230704286Y-62194580D01*
X226338095Y-62935057D02*
X226385714Y-62887438D01*
X226385714Y-62887438D02*
X226480952Y-62839819D01*
X226480952Y-62839819D02*
X226719047Y-62839819D01*
X226719047Y-62839819D02*
X226814285Y-62887438D01*
X226814285Y-62887438D02*
X226861904Y-62935057D01*
X226861904Y-62935057D02*
X226909523Y-63030295D01*
X226909523Y-63030295D02*
X226909523Y-63125533D01*
X226909523Y-63125533D02*
X226861904Y-63268390D01*
X226861904Y-63268390D02*
X226290476Y-63839819D01*
X226290476Y-63839819D02*
X226909523Y-63839819D01*
X227290476Y-62935057D02*
X227338095Y-62887438D01*
X227338095Y-62887438D02*
X227433333Y-62839819D01*
X227433333Y-62839819D02*
X227671428Y-62839819D01*
X227671428Y-62839819D02*
X227766666Y-62887438D01*
X227766666Y-62887438D02*
X227814285Y-62935057D01*
X227814285Y-62935057D02*
X227861904Y-63030295D01*
X227861904Y-63030295D02*
X227861904Y-63125533D01*
X227861904Y-63125533D02*
X227814285Y-63268390D01*
X227814285Y-63268390D02*
X227242857Y-63839819D01*
X227242857Y-63839819D02*
X227861904Y-63839819D01*
X228480952Y-62839819D02*
X228576190Y-62839819D01*
X228576190Y-62839819D02*
X228671428Y-62887438D01*
X228671428Y-62887438D02*
X228719047Y-62935057D01*
X228719047Y-62935057D02*
X228766666Y-63030295D01*
X228766666Y-63030295D02*
X228814285Y-63220771D01*
X228814285Y-63220771D02*
X228814285Y-63458866D01*
X228814285Y-63458866D02*
X228766666Y-63649342D01*
X228766666Y-63649342D02*
X228719047Y-63744580D01*
X228719047Y-63744580D02*
X228671428Y-63792200D01*
X228671428Y-63792200D02*
X228576190Y-63839819D01*
X228576190Y-63839819D02*
X228480952Y-63839819D01*
X228480952Y-63839819D02*
X228385714Y-63792200D01*
X228385714Y-63792200D02*
X228338095Y-63744580D01*
X228338095Y-63744580D02*
X228290476Y-63649342D01*
X228290476Y-63649342D02*
X228242857Y-63458866D01*
X228242857Y-63458866D02*
X228242857Y-63220771D01*
X228242857Y-63220771D02*
X228290476Y-63030295D01*
X228290476Y-63030295D02*
X228338095Y-62935057D01*
X228338095Y-62935057D02*
X228385714Y-62887438D01*
X228385714Y-62887438D02*
X228480952Y-62839819D01*
X229242857Y-63839819D02*
X229242857Y-63173152D01*
X229242857Y-63268390D02*
X229290476Y-63220771D01*
X229290476Y-63220771D02*
X229385714Y-63173152D01*
X229385714Y-63173152D02*
X229528571Y-63173152D01*
X229528571Y-63173152D02*
X229623809Y-63220771D01*
X229623809Y-63220771D02*
X229671428Y-63316009D01*
X229671428Y-63316009D02*
X229671428Y-63839819D01*
X229671428Y-63316009D02*
X229719047Y-63220771D01*
X229719047Y-63220771D02*
X229814285Y-63173152D01*
X229814285Y-63173152D02*
X229957142Y-63173152D01*
X229957142Y-63173152D02*
X230052381Y-63220771D01*
X230052381Y-63220771D02*
X230100000Y-63316009D01*
X230100000Y-63316009D02*
X230100000Y-63839819D01*
X230433333Y-63173152D02*
X230814285Y-63173152D01*
X230576190Y-63839819D02*
X230576190Y-62982676D01*
X230576190Y-62982676D02*
X230623809Y-62887438D01*
X230623809Y-62887438D02*
X230719047Y-62839819D01*
X230719047Y-62839819D02*
X230814285Y-62839819D01*
X231576190Y-63839819D02*
X231576190Y-62839819D01*
X231576190Y-63792200D02*
X231480952Y-63839819D01*
X231480952Y-63839819D02*
X231290476Y-63839819D01*
X231290476Y-63839819D02*
X231195238Y-63792200D01*
X231195238Y-63792200D02*
X231147619Y-63744580D01*
X231147619Y-63744580D02*
X231100000Y-63649342D01*
X231100000Y-63649342D02*
X231100000Y-63363628D01*
X231100000Y-63363628D02*
X231147619Y-63268390D01*
X231147619Y-63268390D02*
X231195238Y-63220771D01*
X231195238Y-63220771D02*
X231290476Y-63173152D01*
X231290476Y-63173152D02*
X231480952Y-63173152D01*
X231480952Y-63173152D02*
X231576190Y-63220771D01*
X232100000Y-63792200D02*
X232100000Y-63839819D01*
X232100000Y-63839819D02*
X232052381Y-63935057D01*
X232052381Y-63935057D02*
X232004762Y-63982676D01*
X232480952Y-62935057D02*
X232528571Y-62887438D01*
X232528571Y-62887438D02*
X232623809Y-62839819D01*
X232623809Y-62839819D02*
X232861904Y-62839819D01*
X232861904Y-62839819D02*
X232957142Y-62887438D01*
X232957142Y-62887438D02*
X233004761Y-62935057D01*
X233004761Y-62935057D02*
X233052380Y-63030295D01*
X233052380Y-63030295D02*
X233052380Y-63125533D01*
X233052380Y-63125533D02*
X233004761Y-63268390D01*
X233004761Y-63268390D02*
X232433333Y-63839819D01*
X232433333Y-63839819D02*
X233052380Y-63839819D01*
X233957142Y-62839819D02*
X233480952Y-62839819D01*
X233480952Y-62839819D02*
X233433333Y-63316009D01*
X233433333Y-63316009D02*
X233480952Y-63268390D01*
X233480952Y-63268390D02*
X233576190Y-63220771D01*
X233576190Y-63220771D02*
X233814285Y-63220771D01*
X233814285Y-63220771D02*
X233909523Y-63268390D01*
X233909523Y-63268390D02*
X233957142Y-63316009D01*
X233957142Y-63316009D02*
X234004761Y-63411247D01*
X234004761Y-63411247D02*
X234004761Y-63649342D01*
X234004761Y-63649342D02*
X233957142Y-63744580D01*
X233957142Y-63744580D02*
X233909523Y-63792200D01*
X233909523Y-63792200D02*
X233814285Y-63839819D01*
X233814285Y-63839819D02*
X233576190Y-63839819D01*
X233576190Y-63839819D02*
X233480952Y-63792200D01*
X233480952Y-63792200D02*
X233433333Y-63744580D01*
X234290476Y-62839819D02*
X234623809Y-63839819D01*
X234623809Y-63839819D02*
X234957142Y-62839819D01*
X204913333Y-58894580D02*
X204865714Y-58942200D01*
X204865714Y-58942200D02*
X204722857Y-58989819D01*
X204722857Y-58989819D02*
X204627619Y-58989819D01*
X204627619Y-58989819D02*
X204484762Y-58942200D01*
X204484762Y-58942200D02*
X204389524Y-58846961D01*
X204389524Y-58846961D02*
X204341905Y-58751723D01*
X204341905Y-58751723D02*
X204294286Y-58561247D01*
X204294286Y-58561247D02*
X204294286Y-58418390D01*
X204294286Y-58418390D02*
X204341905Y-58227914D01*
X204341905Y-58227914D02*
X204389524Y-58132676D01*
X204389524Y-58132676D02*
X204484762Y-58037438D01*
X204484762Y-58037438D02*
X204627619Y-57989819D01*
X204627619Y-57989819D02*
X204722857Y-57989819D01*
X204722857Y-57989819D02*
X204865714Y-58037438D01*
X204865714Y-58037438D02*
X204913333Y-58085057D01*
X205770476Y-58323152D02*
X205770476Y-58989819D01*
X205532381Y-57942200D02*
X205294286Y-58656485D01*
X205294286Y-58656485D02*
X205913333Y-58656485D01*
X199288095Y-59855057D02*
X199335714Y-59807438D01*
X199335714Y-59807438D02*
X199430952Y-59759819D01*
X199430952Y-59759819D02*
X199669047Y-59759819D01*
X199669047Y-59759819D02*
X199764285Y-59807438D01*
X199764285Y-59807438D02*
X199811904Y-59855057D01*
X199811904Y-59855057D02*
X199859523Y-59950295D01*
X199859523Y-59950295D02*
X199859523Y-60045533D01*
X199859523Y-60045533D02*
X199811904Y-60188390D01*
X199811904Y-60188390D02*
X199240476Y-60759819D01*
X199240476Y-60759819D02*
X199859523Y-60759819D01*
X200240476Y-59855057D02*
X200288095Y-59807438D01*
X200288095Y-59807438D02*
X200383333Y-59759819D01*
X200383333Y-59759819D02*
X200621428Y-59759819D01*
X200621428Y-59759819D02*
X200716666Y-59807438D01*
X200716666Y-59807438D02*
X200764285Y-59855057D01*
X200764285Y-59855057D02*
X200811904Y-59950295D01*
X200811904Y-59950295D02*
X200811904Y-60045533D01*
X200811904Y-60045533D02*
X200764285Y-60188390D01*
X200764285Y-60188390D02*
X200192857Y-60759819D01*
X200192857Y-60759819D02*
X200811904Y-60759819D01*
X201430952Y-59759819D02*
X201526190Y-59759819D01*
X201526190Y-59759819D02*
X201621428Y-59807438D01*
X201621428Y-59807438D02*
X201669047Y-59855057D01*
X201669047Y-59855057D02*
X201716666Y-59950295D01*
X201716666Y-59950295D02*
X201764285Y-60140771D01*
X201764285Y-60140771D02*
X201764285Y-60378866D01*
X201764285Y-60378866D02*
X201716666Y-60569342D01*
X201716666Y-60569342D02*
X201669047Y-60664580D01*
X201669047Y-60664580D02*
X201621428Y-60712200D01*
X201621428Y-60712200D02*
X201526190Y-60759819D01*
X201526190Y-60759819D02*
X201430952Y-60759819D01*
X201430952Y-60759819D02*
X201335714Y-60712200D01*
X201335714Y-60712200D02*
X201288095Y-60664580D01*
X201288095Y-60664580D02*
X201240476Y-60569342D01*
X201240476Y-60569342D02*
X201192857Y-60378866D01*
X201192857Y-60378866D02*
X201192857Y-60140771D01*
X201192857Y-60140771D02*
X201240476Y-59950295D01*
X201240476Y-59950295D02*
X201288095Y-59855057D01*
X201288095Y-59855057D02*
X201335714Y-59807438D01*
X201335714Y-59807438D02*
X201430952Y-59759819D01*
X202192857Y-60759819D02*
X202192857Y-60093152D01*
X202192857Y-60188390D02*
X202240476Y-60140771D01*
X202240476Y-60140771D02*
X202335714Y-60093152D01*
X202335714Y-60093152D02*
X202478571Y-60093152D01*
X202478571Y-60093152D02*
X202573809Y-60140771D01*
X202573809Y-60140771D02*
X202621428Y-60236009D01*
X202621428Y-60236009D02*
X202621428Y-60759819D01*
X202621428Y-60236009D02*
X202669047Y-60140771D01*
X202669047Y-60140771D02*
X202764285Y-60093152D01*
X202764285Y-60093152D02*
X202907142Y-60093152D01*
X202907142Y-60093152D02*
X203002381Y-60140771D01*
X203002381Y-60140771D02*
X203050000Y-60236009D01*
X203050000Y-60236009D02*
X203050000Y-60759819D01*
X203383333Y-60093152D02*
X203764285Y-60093152D01*
X203526190Y-60759819D02*
X203526190Y-59902676D01*
X203526190Y-59902676D02*
X203573809Y-59807438D01*
X203573809Y-59807438D02*
X203669047Y-59759819D01*
X203669047Y-59759819D02*
X203764285Y-59759819D01*
X204526190Y-60759819D02*
X204526190Y-59759819D01*
X204526190Y-60712200D02*
X204430952Y-60759819D01*
X204430952Y-60759819D02*
X204240476Y-60759819D01*
X204240476Y-60759819D02*
X204145238Y-60712200D01*
X204145238Y-60712200D02*
X204097619Y-60664580D01*
X204097619Y-60664580D02*
X204050000Y-60569342D01*
X204050000Y-60569342D02*
X204050000Y-60283628D01*
X204050000Y-60283628D02*
X204097619Y-60188390D01*
X204097619Y-60188390D02*
X204145238Y-60140771D01*
X204145238Y-60140771D02*
X204240476Y-60093152D01*
X204240476Y-60093152D02*
X204430952Y-60093152D01*
X204430952Y-60093152D02*
X204526190Y-60140771D01*
X205050000Y-60712200D02*
X205050000Y-60759819D01*
X205050000Y-60759819D02*
X205002381Y-60855057D01*
X205002381Y-60855057D02*
X204954762Y-60902676D01*
X205430952Y-59855057D02*
X205478571Y-59807438D01*
X205478571Y-59807438D02*
X205573809Y-59759819D01*
X205573809Y-59759819D02*
X205811904Y-59759819D01*
X205811904Y-59759819D02*
X205907142Y-59807438D01*
X205907142Y-59807438D02*
X205954761Y-59855057D01*
X205954761Y-59855057D02*
X206002380Y-59950295D01*
X206002380Y-59950295D02*
X206002380Y-60045533D01*
X206002380Y-60045533D02*
X205954761Y-60188390D01*
X205954761Y-60188390D02*
X205383333Y-60759819D01*
X205383333Y-60759819D02*
X206002380Y-60759819D01*
X206907142Y-59759819D02*
X206430952Y-59759819D01*
X206430952Y-59759819D02*
X206383333Y-60236009D01*
X206383333Y-60236009D02*
X206430952Y-60188390D01*
X206430952Y-60188390D02*
X206526190Y-60140771D01*
X206526190Y-60140771D02*
X206764285Y-60140771D01*
X206764285Y-60140771D02*
X206859523Y-60188390D01*
X206859523Y-60188390D02*
X206907142Y-60236009D01*
X206907142Y-60236009D02*
X206954761Y-60331247D01*
X206954761Y-60331247D02*
X206954761Y-60569342D01*
X206954761Y-60569342D02*
X206907142Y-60664580D01*
X206907142Y-60664580D02*
X206859523Y-60712200D01*
X206859523Y-60712200D02*
X206764285Y-60759819D01*
X206764285Y-60759819D02*
X206526190Y-60759819D01*
X206526190Y-60759819D02*
X206430952Y-60712200D01*
X206430952Y-60712200D02*
X206383333Y-60664580D01*
X207240476Y-59759819D02*
X207573809Y-60759819D01*
X207573809Y-60759819D02*
X207907142Y-59759819D01*
X2713095Y220180D02*
X2713095Y1220180D01*
X2713095Y743990D02*
X3284523Y743990D01*
X3284523Y220180D02*
X3284523Y1220180D01*
X4284523Y220180D02*
X3713095Y220180D01*
X3998809Y220180D02*
X3998809Y1220180D01*
X3998809Y1220180D02*
X3903571Y1077323D01*
X3903571Y1077323D02*
X3808333Y982085D01*
X3808333Y982085D02*
X3713095Y934466D01*
X237039580Y-114644999D02*
X237087200Y-114597380D01*
X237087200Y-114597380D02*
X237134819Y-114644999D01*
X237134819Y-114644999D02*
X237087200Y-114692618D01*
X237087200Y-114692618D02*
X237039580Y-114644999D01*
X237039580Y-114644999D02*
X237134819Y-114644999D01*
X213998095Y-107099819D02*
X213998095Y-107909342D01*
X213998095Y-107909342D02*
X214045714Y-108004580D01*
X214045714Y-108004580D02*
X214093333Y-108052200D01*
X214093333Y-108052200D02*
X214188571Y-108099819D01*
X214188571Y-108099819D02*
X214379047Y-108099819D01*
X214379047Y-108099819D02*
X214474285Y-108052200D01*
X214474285Y-108052200D02*
X214521904Y-108004580D01*
X214521904Y-108004580D02*
X214569523Y-107909342D01*
X214569523Y-107909342D02*
X214569523Y-107099819D01*
X215521904Y-107099819D02*
X215045714Y-107099819D01*
X215045714Y-107099819D02*
X214998095Y-107576009D01*
X214998095Y-107576009D02*
X215045714Y-107528390D01*
X215045714Y-107528390D02*
X215140952Y-107480771D01*
X215140952Y-107480771D02*
X215379047Y-107480771D01*
X215379047Y-107480771D02*
X215474285Y-107528390D01*
X215474285Y-107528390D02*
X215521904Y-107576009D01*
X215521904Y-107576009D02*
X215569523Y-107671247D01*
X215569523Y-107671247D02*
X215569523Y-107909342D01*
X215569523Y-107909342D02*
X215521904Y-108004580D01*
X215521904Y-108004580D02*
X215474285Y-108052200D01*
X215474285Y-108052200D02*
X215379047Y-108099819D01*
X215379047Y-108099819D02*
X215140952Y-108099819D01*
X215140952Y-108099819D02*
X215045714Y-108052200D01*
X215045714Y-108052200D02*
X214998095Y-108004580D01*
D17*
X206583332Y-68688667D02*
X208249999Y-68688667D01*
X206249999Y-69688667D02*
X207416666Y-66188667D01*
X207416666Y-66188667D02*
X208583332Y-69688667D01*
X209749999Y-67355334D02*
X209749999Y-69688667D01*
X209749999Y-67688667D02*
X209916666Y-67522001D01*
X209916666Y-67522001D02*
X210249999Y-67355334D01*
X210249999Y-67355334D02*
X210749999Y-67355334D01*
X210749999Y-67355334D02*
X211083332Y-67522001D01*
X211083332Y-67522001D02*
X211249999Y-67855334D01*
X211249999Y-67855334D02*
X211249999Y-69688667D01*
X212416666Y-67355334D02*
X213749999Y-67355334D01*
X212916666Y-66188667D02*
X212916666Y-69188667D01*
X212916666Y-69188667D02*
X213083333Y-69522001D01*
X213083333Y-69522001D02*
X213416666Y-69688667D01*
X213416666Y-69688667D02*
X213749999Y-69688667D01*
X216249999Y-69522001D02*
X215916666Y-69688667D01*
X215916666Y-69688667D02*
X215249999Y-69688667D01*
X215249999Y-69688667D02*
X214916666Y-69522001D01*
X214916666Y-69522001D02*
X214749999Y-69188667D01*
X214749999Y-69188667D02*
X214749999Y-67855334D01*
X214749999Y-67855334D02*
X214916666Y-67522001D01*
X214916666Y-67522001D02*
X215249999Y-67355334D01*
X215249999Y-67355334D02*
X215916666Y-67355334D01*
X215916666Y-67355334D02*
X216249999Y-67522001D01*
X216249999Y-67522001D02*
X216416666Y-67855334D01*
X216416666Y-67855334D02*
X216416666Y-68188667D01*
X216416666Y-68188667D02*
X214749999Y-68522001D01*
X217916666Y-67355334D02*
X217916666Y-69688667D01*
X217916666Y-67688667D02*
X218083333Y-67522001D01*
X218083333Y-67522001D02*
X218416666Y-67355334D01*
X218416666Y-67355334D02*
X218916666Y-67355334D01*
X218916666Y-67355334D02*
X219249999Y-67522001D01*
X219249999Y-67522001D02*
X219416666Y-67855334D01*
X219416666Y-67855334D02*
X219416666Y-69688667D01*
X221083333Y-67355334D02*
X221083333Y-69688667D01*
X221083333Y-67688667D02*
X221250000Y-67522001D01*
X221250000Y-67522001D02*
X221583333Y-67355334D01*
X221583333Y-67355334D02*
X222083333Y-67355334D01*
X222083333Y-67355334D02*
X222416666Y-67522001D01*
X222416666Y-67522001D02*
X222583333Y-67855334D01*
X222583333Y-67855334D02*
X222583333Y-69688667D01*
X225750000Y-69688667D02*
X225750000Y-67855334D01*
X225750000Y-67855334D02*
X225583333Y-67522001D01*
X225583333Y-67522001D02*
X225250000Y-67355334D01*
X225250000Y-67355334D02*
X224583333Y-67355334D01*
X224583333Y-67355334D02*
X224250000Y-67522001D01*
X225750000Y-69522001D02*
X225416667Y-69688667D01*
X225416667Y-69688667D02*
X224583333Y-69688667D01*
X224583333Y-69688667D02*
X224250000Y-69522001D01*
X224250000Y-69522001D02*
X224083333Y-69188667D01*
X224083333Y-69188667D02*
X224083333Y-68855334D01*
X224083333Y-68855334D02*
X224250000Y-68522001D01*
X224250000Y-68522001D02*
X224583333Y-68355334D01*
X224583333Y-68355334D02*
X225416667Y-68355334D01*
X225416667Y-68355334D02*
X225750000Y-68188667D01*
D16*
D18*
X211191428Y-114712285D02*
X211191428Y-118355142D01*
X211191428Y-118355142D02*
X211405714Y-118783714D01*
X211405714Y-118783714D02*
X211620000Y-118998000D01*
X211620000Y-118998000D02*
X212048571Y-119212285D01*
X212048571Y-119212285D02*
X212905714Y-119212285D01*
X212905714Y-119212285D02*
X213334285Y-118998000D01*
X213334285Y-118998000D02*
X213548571Y-118783714D01*
X213548571Y-118783714D02*
X213762857Y-118355142D01*
X213762857Y-118355142D02*
X213762857Y-114712285D01*
X215691428Y-118998000D02*
X216334286Y-119212285D01*
X216334286Y-119212285D02*
X217405714Y-119212285D01*
X217405714Y-119212285D02*
X217834286Y-118998000D01*
X217834286Y-118998000D02*
X218048571Y-118783714D01*
X218048571Y-118783714D02*
X218262857Y-118355142D01*
X218262857Y-118355142D02*
X218262857Y-117926571D01*
X218262857Y-117926571D02*
X218048571Y-117498000D01*
X218048571Y-117498000D02*
X217834286Y-117283714D01*
X217834286Y-117283714D02*
X217405714Y-117069428D01*
X217405714Y-117069428D02*
X216548571Y-116855142D01*
X216548571Y-116855142D02*
X216120000Y-116640857D01*
X216120000Y-116640857D02*
X215905714Y-116426571D01*
X215905714Y-116426571D02*
X215691428Y-115998000D01*
X215691428Y-115998000D02*
X215691428Y-115569428D01*
X215691428Y-115569428D02*
X215905714Y-115140857D01*
X215905714Y-115140857D02*
X216120000Y-114926571D01*
X216120000Y-114926571D02*
X216548571Y-114712285D01*
X216548571Y-114712285D02*
X217620000Y-114712285D01*
X217620000Y-114712285D02*
X218262857Y-114926571D01*
X221691428Y-116855142D02*
X222334285Y-117069428D01*
X222334285Y-117069428D02*
X222548571Y-117283714D01*
X222548571Y-117283714D02*
X222762857Y-117712285D01*
X222762857Y-117712285D02*
X222762857Y-118355142D01*
X222762857Y-118355142D02*
X222548571Y-118783714D01*
X222548571Y-118783714D02*
X222334285Y-118998000D01*
X222334285Y-118998000D02*
X221905714Y-119212285D01*
X221905714Y-119212285D02*
X220191428Y-119212285D01*
X220191428Y-119212285D02*
X220191428Y-114712285D01*
X220191428Y-114712285D02*
X221691428Y-114712285D01*
X221691428Y-114712285D02*
X222120000Y-114926571D01*
X222120000Y-114926571D02*
X222334285Y-115140857D01*
X222334285Y-115140857D02*
X222548571Y-115569428D01*
X222548571Y-115569428D02*
X222548571Y-115998000D01*
X222548571Y-115998000D02*
X222334285Y-116426571D01*
X222334285Y-116426571D02*
X222120000Y-116640857D01*
X222120000Y-116640857D02*
X221691428Y-116855142D01*
X221691428Y-116855142D02*
X220191428Y-116855142D01*
D16*
X206527142Y-109386009D02*
X206860475Y-109386009D01*
X207003332Y-109909819D02*
X206527142Y-109909819D01*
X206527142Y-109909819D02*
X206527142Y-108909819D01*
X206527142Y-108909819D02*
X207003332Y-108909819D01*
X207384285Y-109862200D02*
X207527142Y-109909819D01*
X207527142Y-109909819D02*
X207765237Y-109909819D01*
X207765237Y-109909819D02*
X207860475Y-109862200D01*
X207860475Y-109862200D02*
X207908094Y-109814580D01*
X207908094Y-109814580D02*
X207955713Y-109719342D01*
X207955713Y-109719342D02*
X207955713Y-109624104D01*
X207955713Y-109624104D02*
X207908094Y-109528866D01*
X207908094Y-109528866D02*
X207860475Y-109481247D01*
X207860475Y-109481247D02*
X207765237Y-109433628D01*
X207765237Y-109433628D02*
X207574761Y-109386009D01*
X207574761Y-109386009D02*
X207479523Y-109338390D01*
X207479523Y-109338390D02*
X207431904Y-109290771D01*
X207431904Y-109290771D02*
X207384285Y-109195533D01*
X207384285Y-109195533D02*
X207384285Y-109100295D01*
X207384285Y-109100295D02*
X207431904Y-109005057D01*
X207431904Y-109005057D02*
X207479523Y-108957438D01*
X207479523Y-108957438D02*
X207574761Y-108909819D01*
X207574761Y-108909819D02*
X207812856Y-108909819D01*
X207812856Y-108909819D02*
X207955713Y-108957438D01*
X208384285Y-109909819D02*
X208384285Y-108909819D01*
X208384285Y-108909819D02*
X208765237Y-108909819D01*
X208765237Y-108909819D02*
X208860475Y-108957438D01*
X208860475Y-108957438D02*
X208908094Y-109005057D01*
X208908094Y-109005057D02*
X208955713Y-109100295D01*
X208955713Y-109100295D02*
X208955713Y-109243152D01*
X208955713Y-109243152D02*
X208908094Y-109338390D01*
X208908094Y-109338390D02*
X208860475Y-109386009D01*
X208860475Y-109386009D02*
X208765237Y-109433628D01*
X208765237Y-109433628D02*
X208384285Y-109433628D01*
X209289047Y-108909819D02*
X209908094Y-108909819D01*
X209908094Y-108909819D02*
X209574761Y-109290771D01*
X209574761Y-109290771D02*
X209717618Y-109290771D01*
X209717618Y-109290771D02*
X209812856Y-109338390D01*
X209812856Y-109338390D02*
X209860475Y-109386009D01*
X209860475Y-109386009D02*
X209908094Y-109481247D01*
X209908094Y-109481247D02*
X209908094Y-109719342D01*
X209908094Y-109719342D02*
X209860475Y-109814580D01*
X209860475Y-109814580D02*
X209812856Y-109862200D01*
X209812856Y-109862200D02*
X209717618Y-109909819D01*
X209717618Y-109909819D02*
X209431904Y-109909819D01*
X209431904Y-109909819D02*
X209336666Y-109862200D01*
X209336666Y-109862200D02*
X209289047Y-109814580D01*
X210289047Y-109005057D02*
X210336666Y-108957438D01*
X210336666Y-108957438D02*
X210431904Y-108909819D01*
X210431904Y-108909819D02*
X210669999Y-108909819D01*
X210669999Y-108909819D02*
X210765237Y-108957438D01*
X210765237Y-108957438D02*
X210812856Y-109005057D01*
X210812856Y-109005057D02*
X210860475Y-109100295D01*
X210860475Y-109100295D02*
X210860475Y-109195533D01*
X210860475Y-109195533D02*
X210812856Y-109338390D01*
X210812856Y-109338390D02*
X210241428Y-109909819D01*
X210241428Y-109909819D02*
X210860475Y-109909819D01*
X212050952Y-109528866D02*
X212812857Y-109528866D01*
X214050952Y-109909819D02*
X214050952Y-108909819D01*
X214050952Y-108909819D02*
X214289047Y-108909819D01*
X214289047Y-108909819D02*
X214431904Y-108957438D01*
X214431904Y-108957438D02*
X214527142Y-109052676D01*
X214527142Y-109052676D02*
X214574761Y-109147914D01*
X214574761Y-109147914D02*
X214622380Y-109338390D01*
X214622380Y-109338390D02*
X214622380Y-109481247D01*
X214622380Y-109481247D02*
X214574761Y-109671723D01*
X214574761Y-109671723D02*
X214527142Y-109766961D01*
X214527142Y-109766961D02*
X214431904Y-109862200D01*
X214431904Y-109862200D02*
X214289047Y-109909819D01*
X214289047Y-109909819D02*
X214050952Y-109909819D01*
X215431904Y-109862200D02*
X215336666Y-109909819D01*
X215336666Y-109909819D02*
X215146190Y-109909819D01*
X215146190Y-109909819D02*
X215050952Y-109862200D01*
X215050952Y-109862200D02*
X215003333Y-109766961D01*
X215003333Y-109766961D02*
X215003333Y-109386009D01*
X215003333Y-109386009D02*
X215050952Y-109290771D01*
X215050952Y-109290771D02*
X215146190Y-109243152D01*
X215146190Y-109243152D02*
X215336666Y-109243152D01*
X215336666Y-109243152D02*
X215431904Y-109290771D01*
X215431904Y-109290771D02*
X215479523Y-109386009D01*
X215479523Y-109386009D02*
X215479523Y-109481247D01*
X215479523Y-109481247D02*
X215003333Y-109576485D01*
X215812857Y-109243152D02*
X216050952Y-109909819D01*
X216050952Y-109909819D02*
X216289047Y-109243152D01*
X217431905Y-109909819D02*
X217431905Y-108909819D01*
X218003333Y-109909819D02*
X217574762Y-109338390D01*
X218003333Y-108909819D02*
X217431905Y-109481247D01*
X218431905Y-109909819D02*
X218431905Y-109243152D01*
X218431905Y-108909819D02*
X218384286Y-108957438D01*
X218384286Y-108957438D02*
X218431905Y-109005057D01*
X218431905Y-109005057D02*
X218479524Y-108957438D01*
X218479524Y-108957438D02*
X218431905Y-108909819D01*
X218431905Y-108909819D02*
X218431905Y-109005057D01*
X218765238Y-109243152D02*
X219146190Y-109243152D01*
X218908095Y-108909819D02*
X218908095Y-109766961D01*
X218908095Y-109766961D02*
X218955714Y-109862200D01*
X218955714Y-109862200D02*
X219050952Y-109909819D01*
X219050952Y-109909819D02*
X219146190Y-109909819D01*
X220146191Y-108909819D02*
X220765238Y-108909819D01*
X220765238Y-108909819D02*
X220431905Y-109290771D01*
X220431905Y-109290771D02*
X220574762Y-109290771D01*
X220574762Y-109290771D02*
X220670000Y-109338390D01*
X220670000Y-109338390D02*
X220717619Y-109386009D01*
X220717619Y-109386009D02*
X220765238Y-109481247D01*
X220765238Y-109481247D02*
X220765238Y-109719342D01*
X220765238Y-109719342D02*
X220717619Y-109814580D01*
X220717619Y-109814580D02*
X220670000Y-109862200D01*
X220670000Y-109862200D02*
X220574762Y-109909819D01*
X220574762Y-109909819D02*
X220289048Y-109909819D01*
X220289048Y-109909819D02*
X220193810Y-109862200D01*
X220193810Y-109862200D02*
X220146191Y-109814580D01*
X221384286Y-108909819D02*
X221479524Y-108909819D01*
X221479524Y-108909819D02*
X221574762Y-108957438D01*
X221574762Y-108957438D02*
X221622381Y-109005057D01*
X221622381Y-109005057D02*
X221670000Y-109100295D01*
X221670000Y-109100295D02*
X221717619Y-109290771D01*
X221717619Y-109290771D02*
X221717619Y-109528866D01*
X221717619Y-109528866D02*
X221670000Y-109719342D01*
X221670000Y-109719342D02*
X221622381Y-109814580D01*
X221622381Y-109814580D02*
X221574762Y-109862200D01*
X221574762Y-109862200D02*
X221479524Y-109909819D01*
X221479524Y-109909819D02*
X221384286Y-109909819D01*
X221384286Y-109909819D02*
X221289048Y-109862200D01*
X221289048Y-109862200D02*
X221241429Y-109814580D01*
X221241429Y-109814580D02*
X221193810Y-109719342D01*
X221193810Y-109719342D02*
X221146191Y-109528866D01*
X221146191Y-109528866D02*
X221146191Y-109290771D01*
X221146191Y-109290771D02*
X221193810Y-109100295D01*
X221193810Y-109100295D02*
X221241429Y-109005057D01*
X221241429Y-109005057D02*
X221289048Y-108957438D01*
X221289048Y-108957438D02*
X221384286Y-108909819D01*
X222908096Y-109909819D02*
X222908096Y-108909819D01*
X222908096Y-108909819D02*
X223289048Y-108909819D01*
X223289048Y-108909819D02*
X223384286Y-108957438D01*
X223384286Y-108957438D02*
X223431905Y-109005057D01*
X223431905Y-109005057D02*
X223479524Y-109100295D01*
X223479524Y-109100295D02*
X223479524Y-109243152D01*
X223479524Y-109243152D02*
X223431905Y-109338390D01*
X223431905Y-109338390D02*
X223384286Y-109386009D01*
X223384286Y-109386009D02*
X223289048Y-109433628D01*
X223289048Y-109433628D02*
X222908096Y-109433628D01*
X223908096Y-109909819D02*
X223908096Y-109243152D01*
X223908096Y-108909819D02*
X223860477Y-108957438D01*
X223860477Y-108957438D02*
X223908096Y-109005057D01*
X223908096Y-109005057D02*
X223955715Y-108957438D01*
X223955715Y-108957438D02*
X223908096Y-108909819D01*
X223908096Y-108909819D02*
X223908096Y-109005057D01*
X224384286Y-109243152D02*
X224384286Y-109909819D01*
X224384286Y-109338390D02*
X224431905Y-109290771D01*
X224431905Y-109290771D02*
X224527143Y-109243152D01*
X224527143Y-109243152D02*
X224670000Y-109243152D01*
X224670000Y-109243152D02*
X224765238Y-109290771D01*
X224765238Y-109290771D02*
X224812857Y-109386009D01*
X224812857Y-109386009D02*
X224812857Y-109909819D01*
X-32890419Y-114644999D02*
X-32842800Y-114597380D01*
X-32842800Y-114597380D02*
X-32795180Y-114644999D01*
X-32795180Y-114644999D02*
X-32842800Y-114692618D01*
X-32842800Y-114692618D02*
X-32890419Y-114644999D01*
X-32890419Y-114644999D02*
X-32795180Y-114644999D01*
X156711905Y-64929819D02*
X156711905Y-63929819D01*
X157283333Y-64929819D02*
X156854762Y-64358390D01*
X157283333Y-63929819D02*
X156711905Y-64501247D01*
X158235714Y-64929819D02*
X157664286Y-64929819D01*
X157950000Y-64929819D02*
X157950000Y-63929819D01*
X157950000Y-63929819D02*
X157854762Y-64072676D01*
X157854762Y-64072676D02*
X157759524Y-64167914D01*
X157759524Y-64167914D02*
X157664286Y-64215533D01*
X163907142Y-63737438D02*
X163811904Y-63689819D01*
X163811904Y-63689819D02*
X163669047Y-63689819D01*
X163669047Y-63689819D02*
X163526190Y-63737438D01*
X163526190Y-63737438D02*
X163430952Y-63832676D01*
X163430952Y-63832676D02*
X163383333Y-63927914D01*
X163383333Y-63927914D02*
X163335714Y-64118390D01*
X163335714Y-64118390D02*
X163335714Y-64261247D01*
X163335714Y-64261247D02*
X163383333Y-64451723D01*
X163383333Y-64451723D02*
X163430952Y-64546961D01*
X163430952Y-64546961D02*
X163526190Y-64642200D01*
X163526190Y-64642200D02*
X163669047Y-64689819D01*
X163669047Y-64689819D02*
X163764285Y-64689819D01*
X163764285Y-64689819D02*
X163907142Y-64642200D01*
X163907142Y-64642200D02*
X163954761Y-64594580D01*
X163954761Y-64594580D02*
X163954761Y-64261247D01*
X163954761Y-64261247D02*
X163764285Y-64261247D01*
X164811904Y-63689819D02*
X164621428Y-63689819D01*
X164621428Y-63689819D02*
X164526190Y-63737438D01*
X164526190Y-63737438D02*
X164478571Y-63785057D01*
X164478571Y-63785057D02*
X164383333Y-63927914D01*
X164383333Y-63927914D02*
X164335714Y-64118390D01*
X164335714Y-64118390D02*
X164335714Y-64499342D01*
X164335714Y-64499342D02*
X164383333Y-64594580D01*
X164383333Y-64594580D02*
X164430952Y-64642200D01*
X164430952Y-64642200D02*
X164526190Y-64689819D01*
X164526190Y-64689819D02*
X164716666Y-64689819D01*
X164716666Y-64689819D02*
X164811904Y-64642200D01*
X164811904Y-64642200D02*
X164859523Y-64594580D01*
X164859523Y-64594580D02*
X164907142Y-64499342D01*
X164907142Y-64499342D02*
X164907142Y-64261247D01*
X164907142Y-64261247D02*
X164859523Y-64166009D01*
X164859523Y-64166009D02*
X164811904Y-64118390D01*
X164811904Y-64118390D02*
X164716666Y-64070771D01*
X164716666Y-64070771D02*
X164526190Y-64070771D01*
X164526190Y-64070771D02*
X164430952Y-64118390D01*
X164430952Y-64118390D02*
X164383333Y-64166009D01*
X164383333Y-64166009D02*
X164335714Y-64261247D01*
X165288095Y-64404104D02*
X165764285Y-64404104D01*
X165192857Y-64689819D02*
X165526190Y-63689819D01*
X165526190Y-63689819D02*
X165859523Y-64689819D01*
X154969048Y-66848866D02*
X155730953Y-66848866D01*
X155350000Y-67229819D02*
X155350000Y-66467914D01*
X188526666Y-51409819D02*
X188526666Y-52124104D01*
X188526666Y-52124104D02*
X188479047Y-52266961D01*
X188479047Y-52266961D02*
X188383809Y-52362200D01*
X188383809Y-52362200D02*
X188240952Y-52409819D01*
X188240952Y-52409819D02*
X188145714Y-52409819D01*
X188955238Y-51505057D02*
X189002857Y-51457438D01*
X189002857Y-51457438D02*
X189098095Y-51409819D01*
X189098095Y-51409819D02*
X189336190Y-51409819D01*
X189336190Y-51409819D02*
X189431428Y-51457438D01*
X189431428Y-51457438D02*
X189479047Y-51505057D01*
X189479047Y-51505057D02*
X189526666Y-51600295D01*
X189526666Y-51600295D02*
X189526666Y-51695533D01*
X189526666Y-51695533D02*
X189479047Y-51838390D01*
X189479047Y-51838390D02*
X188907619Y-52409819D01*
X188907619Y-52409819D02*
X189526666Y-52409819D01*
D19*
%TO.C,J1*%
X179550000Y-79075000D02*
X191110000Y-79075000D01*
X179550000Y-81195000D02*
X191110000Y-81195000D01*
X179550000Y-84595000D02*
X191110000Y-84595000D01*
X179550000Y-85895000D02*
X191110000Y-85895000D01*
X179550000Y-86615000D02*
X179550000Y-79075000D01*
X180520000Y-79295000D02*
X182520000Y-79295000D01*
X180520000Y-79795000D02*
X180520000Y-79295000D01*
X181220000Y-86615000D02*
X179550000Y-86615000D01*
X182520000Y-79295000D02*
X182520000Y-79795000D01*
X182520000Y-79795000D02*
X180520000Y-79795000D01*
X184330000Y-79295000D02*
X186330000Y-79295000D01*
X184330000Y-79795000D02*
X184330000Y-79295000D01*
X186330000Y-79295000D02*
X186330000Y-79795000D01*
X186330000Y-79795000D02*
X184330000Y-79795000D01*
X188140000Y-79295000D02*
X190140000Y-79295000D01*
X188140000Y-79795000D02*
X188140000Y-79295000D01*
X190140000Y-79295000D02*
X190140000Y-79795000D01*
X190140000Y-79795000D02*
X188140000Y-79795000D01*
X191110000Y-79075000D02*
X191110000Y-86615000D01*
X191110000Y-86615000D02*
X181820000Y-86615000D01*
X181960000Y-87225000D02*
X181080000Y-87225000D01*
X181520000Y-86615000D01*
X181960000Y-87225000D01*
G36*
X181960000Y-87225000D02*
G01*
X181080000Y-87225000D01*
X181520000Y-86615000D01*
X181960000Y-87225000D01*
G37*
%TO.C,J4*%
X169265000Y-79052500D02*
X177015000Y-79052500D01*
X169265000Y-81172500D02*
X177015000Y-81172500D01*
X169265000Y-84572500D02*
X177015000Y-84572500D01*
X169265000Y-85872500D02*
X177015000Y-85872500D01*
X169265000Y-86592500D02*
X169265000Y-79052500D01*
X170235000Y-79272500D02*
X172235000Y-79272500D01*
X170235000Y-79772500D02*
X170235000Y-79272500D01*
X170935000Y-86592500D02*
X169265000Y-86592500D01*
X172235000Y-79272500D02*
X172235000Y-79772500D01*
X172235000Y-79772500D02*
X170235000Y-79772500D01*
X174045000Y-79272500D02*
X176045000Y-79272500D01*
X174045000Y-79772500D02*
X174045000Y-79272500D01*
X176045000Y-79272500D02*
X176045000Y-79772500D01*
X176045000Y-79772500D02*
X174045000Y-79772500D01*
X177015000Y-79052500D02*
X177015000Y-86592500D01*
X177015000Y-86592500D02*
X171535000Y-86592500D01*
X171675000Y-87202500D02*
X170795000Y-87202500D01*
X171235000Y-86592500D01*
X171675000Y-87202500D01*
G36*
X171675000Y-87202500D02*
G01*
X170795000Y-87202500D01*
X171235000Y-86592500D01*
X171675000Y-87202500D01*
G37*
%TO.C,J3*%
X192215000Y-79112500D02*
X199965000Y-79112500D01*
X192215000Y-81232500D02*
X199965000Y-81232500D01*
X192215000Y-84632500D02*
X199965000Y-84632500D01*
X192215000Y-85932500D02*
X199965000Y-85932500D01*
X192215000Y-86652500D02*
X192215000Y-79112500D01*
X193185000Y-79332500D02*
X195185000Y-79332500D01*
X193185000Y-79832500D02*
X193185000Y-79332500D01*
X193885000Y-86652500D02*
X192215000Y-86652500D01*
X195185000Y-79332500D02*
X195185000Y-79832500D01*
X195185000Y-79832500D02*
X193185000Y-79832500D01*
X196995000Y-79332500D02*
X198995000Y-79332500D01*
X196995000Y-79832500D02*
X196995000Y-79332500D01*
X198995000Y-79332500D02*
X198995000Y-79832500D01*
X198995000Y-79832500D02*
X196995000Y-79832500D01*
X199965000Y-79112500D02*
X199965000Y-86652500D01*
X199965000Y-86652500D02*
X194485000Y-86652500D01*
X194625000Y-87262500D02*
X193745000Y-87262500D01*
X194185000Y-86652500D01*
X194625000Y-87262500D01*
G36*
X194625000Y-87262500D02*
G01*
X193745000Y-87262500D01*
X194185000Y-86652500D01*
X194625000Y-87262500D01*
G37*
%TO.C,C5*%
X220680000Y-56955000D02*
X230840000Y-56955000D01*
X220680000Y-56995000D02*
X230840000Y-56995000D01*
X220681000Y-56875000D02*
X230839000Y-56875000D01*
X220681000Y-56915000D02*
X230839000Y-56915000D01*
X220683000Y-56835000D02*
X230837000Y-56835000D01*
X220684000Y-56795000D02*
X230836000Y-56795000D01*
X220686000Y-56755000D02*
X224720000Y-56755000D01*
X220688000Y-56715000D02*
X224720000Y-56715000D01*
X220690000Y-56675000D02*
X224720000Y-56675000D01*
X220693000Y-56635000D02*
X224720000Y-56635000D01*
X220696000Y-56595000D02*
X224720000Y-56595000D01*
X220699000Y-56555000D02*
X224720000Y-56555000D01*
X220703000Y-56515000D02*
X224720000Y-56515000D01*
X220706000Y-56475000D02*
X224720000Y-56475000D01*
X220711000Y-56435000D02*
X224720000Y-56435000D01*
X220715000Y-56395000D02*
X224720000Y-56395000D01*
X220720000Y-56355000D02*
X224720000Y-56355000D01*
X220725000Y-56315000D02*
X224720000Y-56315000D01*
X220731000Y-56275000D02*
X224720000Y-56275000D01*
X220737000Y-56235000D02*
X224720000Y-56235000D01*
X220743000Y-56195000D02*
X224720000Y-56195000D01*
X220749000Y-56155000D02*
X224720000Y-56155000D01*
X220756000Y-56115000D02*
X224720000Y-56115000D01*
X220763000Y-56075000D02*
X224720000Y-56075000D01*
X220771000Y-56035000D02*
X224720000Y-56035000D01*
X220779000Y-55995000D02*
X224720000Y-55995000D01*
X220787000Y-55955000D02*
X224720000Y-55955000D01*
X220795000Y-55915000D02*
X224720000Y-55915000D01*
X220804000Y-55875000D02*
X224720000Y-55875000D01*
X220813000Y-55835000D02*
X224720000Y-55835000D01*
X220823000Y-55795000D02*
X224720000Y-55795000D01*
X220832000Y-55755000D02*
X224720000Y-55755000D01*
X220843000Y-55715000D02*
X224720000Y-55715000D01*
X220853000Y-55675000D02*
X224720000Y-55675000D01*
X220864000Y-55635000D02*
X224720000Y-55635000D01*
X220875000Y-55595000D02*
X224720000Y-55595000D01*
X220887000Y-55555000D02*
X224720000Y-55555000D01*
X220899000Y-55515000D02*
X224720000Y-55515000D01*
X220911000Y-55475000D02*
X224720000Y-55475000D01*
X220923000Y-55435000D02*
X224720000Y-55435000D01*
X220936000Y-55395000D02*
X224720000Y-55395000D01*
X220950000Y-55355000D02*
X224720000Y-55355000D01*
X220963000Y-55315000D02*
X224720000Y-55315000D01*
X220978000Y-55275000D02*
X224720000Y-55275000D01*
X220992000Y-55235000D02*
X224720000Y-55235000D01*
X221007000Y-55195000D02*
X224720000Y-55195000D01*
X221022000Y-55155000D02*
X224720000Y-55155000D01*
X221038000Y-55115000D02*
X224720000Y-55115000D01*
X221054000Y-55075000D02*
X224720000Y-55075000D01*
X221070000Y-55035000D02*
X224720000Y-55035000D01*
X221087000Y-54995000D02*
X224720000Y-54995000D01*
X221104000Y-54955000D02*
X224720000Y-54955000D01*
X221122000Y-54915000D02*
X224720000Y-54915000D01*
X221140000Y-54875000D02*
X224720000Y-54875000D01*
X221158000Y-54835000D02*
X224720000Y-54835000D01*
X221177000Y-54795000D02*
X224720000Y-54795000D01*
X221196000Y-54755000D02*
X224720000Y-54755000D01*
X221216000Y-54715000D02*
X224720000Y-54715000D01*
X221236000Y-54675000D02*
X226320000Y-54675000D01*
X221256000Y-54635000D02*
X226320000Y-54635000D01*
X221277000Y-54595000D02*
X226320000Y-54595000D01*
X221299000Y-54555000D02*
X226320000Y-54555000D01*
X221321000Y-54515000D02*
X226320000Y-54515000D01*
X221343000Y-54475000D02*
X226320000Y-54475000D01*
X221366000Y-54435000D02*
X226320000Y-54435000D01*
X221389000Y-54395000D02*
X226320000Y-54395000D01*
X221413000Y-54355000D02*
X226320000Y-54355000D01*
X221437000Y-54315000D02*
X226320000Y-54315000D01*
X221462000Y-54275000D02*
X226320000Y-54275000D01*
X221488000Y-54235000D02*
X226320000Y-54235000D01*
X221513000Y-54195000D02*
X226320000Y-54195000D01*
X221540000Y-54155000D02*
X226320000Y-54155000D01*
X221567000Y-54115000D02*
X226320000Y-54115000D01*
X221594000Y-54075000D02*
X226320000Y-54075000D01*
X221622000Y-54035000D02*
X226320000Y-54035000D01*
X221651000Y-53995000D02*
X229869000Y-53995000D01*
X221680000Y-53955000D02*
X229840000Y-53955000D01*
X221710000Y-53915000D02*
X229810000Y-53915000D01*
X221740000Y-53875000D02*
X229780000Y-53875000D01*
X221772000Y-53835000D02*
X229748000Y-53835000D01*
X221803000Y-53795000D02*
X229717000Y-53795000D01*
X221836000Y-53755000D02*
X229684000Y-53755000D01*
X221869000Y-53715000D02*
X229651000Y-53715000D01*
X221902000Y-53675000D02*
X229618000Y-53675000D01*
X221937000Y-53635000D02*
X229583000Y-53635000D01*
X221972000Y-53595000D02*
X229548000Y-53595000D01*
X222008000Y-53555000D02*
X229512000Y-53555000D01*
X222044000Y-53515000D02*
X229476000Y-53515000D01*
X222082000Y-53475000D02*
X229438000Y-53475000D01*
X222120000Y-53435000D02*
X229400000Y-53435000D01*
X222159000Y-53395000D02*
X229361000Y-53395000D01*
X222199000Y-53355000D02*
X229321000Y-53355000D01*
X222240000Y-53315000D02*
X229280000Y-53315000D01*
X222282000Y-53275000D02*
X229238000Y-53275000D01*
X222325000Y-53235000D02*
X229195000Y-53235000D01*
X222369000Y-53195000D02*
X229151000Y-53195000D01*
X222385000Y-61974646D02*
X223385000Y-61974646D01*
X222413000Y-53155000D02*
X229107000Y-53155000D01*
X222459000Y-53115000D02*
X229061000Y-53115000D01*
X222506000Y-53075000D02*
X229014000Y-53075000D01*
X222555000Y-53035000D02*
X228965000Y-53035000D01*
X222604000Y-52995000D02*
X228916000Y-52995000D01*
X222655000Y-52955000D02*
X228865000Y-52955000D01*
X222707000Y-52915000D02*
X228813000Y-52915000D01*
X222760000Y-52875000D02*
X228760000Y-52875000D01*
X222815000Y-52835000D02*
X228705000Y-52835000D01*
X222872000Y-52795000D02*
X228648000Y-52795000D01*
X222885000Y-62474646D02*
X222885000Y-61474646D01*
X222930000Y-52755000D02*
X228590000Y-52755000D01*
X222990000Y-52715000D02*
X228530000Y-52715000D01*
X223052000Y-52675000D02*
X228468000Y-52675000D01*
X223116000Y-52635000D02*
X228404000Y-52635000D01*
X223182000Y-52595000D02*
X228338000Y-52595000D01*
X223250000Y-52555000D02*
X228270000Y-52555000D01*
X223321000Y-52515000D02*
X228199000Y-52515000D01*
X223395000Y-52475000D02*
X228125000Y-52475000D01*
X223472000Y-52435000D02*
X228048000Y-52435000D01*
X223552000Y-52395000D02*
X227968000Y-52395000D01*
X223636000Y-52355000D02*
X227884000Y-52355000D01*
X223723000Y-52315000D02*
X227797000Y-52315000D01*
X223816000Y-52275000D02*
X227704000Y-52275000D01*
X223914000Y-52235000D02*
X227606000Y-52235000D01*
X224018000Y-52195000D02*
X227502000Y-52195000D01*
X224130000Y-52155000D02*
X227390000Y-52155000D01*
X224251000Y-52115000D02*
X227269000Y-52115000D01*
X224383000Y-52075000D02*
X227137000Y-52075000D01*
X224530000Y-52035000D02*
X226990000Y-52035000D01*
X224698000Y-51995000D02*
X226822000Y-51995000D01*
X224898000Y-51955000D02*
X226622000Y-51955000D01*
X225161000Y-51915000D02*
X226359000Y-51915000D01*
X226800000Y-56115000D02*
X230764000Y-56115000D01*
X226800000Y-56155000D02*
X230771000Y-56155000D01*
X226800000Y-56195000D02*
X230777000Y-56195000D01*
X226800000Y-56235000D02*
X230783000Y-56235000D01*
X226800000Y-56275000D02*
X230789000Y-56275000D01*
X226800000Y-56315000D02*
X230795000Y-56315000D01*
X226800000Y-56355000D02*
X230800000Y-56355000D01*
X226800000Y-56395000D02*
X230805000Y-56395000D01*
X226800000Y-56435000D02*
X230809000Y-56435000D01*
X226800000Y-56475000D02*
X230814000Y-56475000D01*
X226800000Y-56515000D02*
X230817000Y-56515000D01*
X226800000Y-56555000D02*
X230821000Y-56555000D01*
X226800000Y-56595000D02*
X230824000Y-56595000D01*
X226800000Y-56635000D02*
X230827000Y-56635000D01*
X226800000Y-56675000D02*
X230830000Y-56675000D01*
X226800000Y-56715000D02*
X230832000Y-56715000D01*
X226800000Y-56755000D02*
X230834000Y-56755000D01*
X228400000Y-54035000D02*
X229898000Y-54035000D01*
X228400000Y-54075000D02*
X229926000Y-54075000D01*
X228400000Y-54115000D02*
X229953000Y-54115000D01*
X228400000Y-54155000D02*
X229980000Y-54155000D01*
X228400000Y-54195000D02*
X230007000Y-54195000D01*
X228400000Y-54235000D02*
X230032000Y-54235000D01*
X228400000Y-54275000D02*
X230058000Y-54275000D01*
X228400000Y-54315000D02*
X230083000Y-54315000D01*
X228400000Y-54355000D02*
X230107000Y-54355000D01*
X228400000Y-54395000D02*
X230131000Y-54395000D01*
X228400000Y-54435000D02*
X230154000Y-54435000D01*
X228400000Y-54475000D02*
X230177000Y-54475000D01*
X228400000Y-54515000D02*
X230199000Y-54515000D01*
X228400000Y-54555000D02*
X230221000Y-54555000D01*
X228400000Y-54595000D02*
X230243000Y-54595000D01*
X228400000Y-54635000D02*
X230264000Y-54635000D01*
X228400000Y-54675000D02*
X230284000Y-54675000D01*
X228400000Y-54715000D02*
X230304000Y-54715000D01*
X228400000Y-54755000D02*
X230324000Y-54755000D01*
X228400000Y-54795000D02*
X230343000Y-54795000D01*
X228400000Y-54835000D02*
X230362000Y-54835000D01*
X228400000Y-54875000D02*
X230380000Y-54875000D01*
X228400000Y-54915000D02*
X230398000Y-54915000D01*
X228400000Y-54955000D02*
X230416000Y-54955000D01*
X228400000Y-54995000D02*
X230433000Y-54995000D01*
X228400000Y-55035000D02*
X230450000Y-55035000D01*
X228400000Y-55075000D02*
X230466000Y-55075000D01*
X228400000Y-55115000D02*
X230482000Y-55115000D01*
X228400000Y-55155000D02*
X230498000Y-55155000D01*
X228400000Y-55195000D02*
X230513000Y-55195000D01*
X228400000Y-55235000D02*
X230528000Y-55235000D01*
X228400000Y-55275000D02*
X230542000Y-55275000D01*
X228400000Y-55315000D02*
X230557000Y-55315000D01*
X228400000Y-55355000D02*
X230570000Y-55355000D01*
X228400000Y-55395000D02*
X230584000Y-55395000D01*
X228400000Y-55435000D02*
X230597000Y-55435000D01*
X228400000Y-55475000D02*
X230609000Y-55475000D01*
X228400000Y-55515000D02*
X230621000Y-55515000D01*
X228400000Y-55555000D02*
X230633000Y-55555000D01*
X228400000Y-55595000D02*
X230645000Y-55595000D01*
X228400000Y-55635000D02*
X230656000Y-55635000D01*
X228400000Y-55675000D02*
X230667000Y-55675000D01*
X228400000Y-55715000D02*
X230677000Y-55715000D01*
X228400000Y-55755000D02*
X230688000Y-55755000D01*
X228400000Y-55795000D02*
X230697000Y-55795000D01*
X228400000Y-55835000D02*
X230707000Y-55835000D01*
X228400000Y-55875000D02*
X230716000Y-55875000D01*
X228400000Y-55915000D02*
X230725000Y-55915000D01*
X228400000Y-55955000D02*
X230733000Y-55955000D01*
X228400000Y-55995000D02*
X230741000Y-55995000D01*
X228400000Y-56035000D02*
X230749000Y-56035000D01*
X228400000Y-56075000D02*
X230757000Y-56075000D01*
X230880000Y-56995000D02*
G75*
G02*
X220640000Y-56995000I-5120000J0D01*
G01*
X220640000Y-56995000D02*
G75*
G02*
X230880000Y-56995000I5120000J0D01*
G01*
%TO.C,C4*%
X207670000Y-57005000D02*
X217830000Y-57005000D01*
X207670000Y-57045000D02*
X217830000Y-57045000D01*
X207671000Y-56925000D02*
X217829000Y-56925000D01*
X207671000Y-56965000D02*
X217829000Y-56965000D01*
X207673000Y-56885000D02*
X217827000Y-56885000D01*
X207674000Y-56845000D02*
X217826000Y-56845000D01*
X207676000Y-56805000D02*
X211710000Y-56805000D01*
X207678000Y-56765000D02*
X211710000Y-56765000D01*
X207680000Y-56725000D02*
X211710000Y-56725000D01*
X207683000Y-56685000D02*
X211710000Y-56685000D01*
X207686000Y-56645000D02*
X211710000Y-56645000D01*
X207689000Y-56605000D02*
X211710000Y-56605000D01*
X207693000Y-56565000D02*
X211710000Y-56565000D01*
X207696000Y-56525000D02*
X211710000Y-56525000D01*
X207701000Y-56485000D02*
X211710000Y-56485000D01*
X207705000Y-56445000D02*
X211710000Y-56445000D01*
X207710000Y-56405000D02*
X211710000Y-56405000D01*
X207715000Y-56365000D02*
X211710000Y-56365000D01*
X207721000Y-56325000D02*
X211710000Y-56325000D01*
X207727000Y-56285000D02*
X211710000Y-56285000D01*
X207733000Y-56245000D02*
X211710000Y-56245000D01*
X207739000Y-56205000D02*
X211710000Y-56205000D01*
X207746000Y-56165000D02*
X211710000Y-56165000D01*
X207753000Y-56125000D02*
X211710000Y-56125000D01*
X207761000Y-56085000D02*
X211710000Y-56085000D01*
X207769000Y-56045000D02*
X211710000Y-56045000D01*
X207777000Y-56005000D02*
X211710000Y-56005000D01*
X207785000Y-55965000D02*
X211710000Y-55965000D01*
X207794000Y-55925000D02*
X211710000Y-55925000D01*
X207803000Y-55885000D02*
X211710000Y-55885000D01*
X207813000Y-55845000D02*
X211710000Y-55845000D01*
X207822000Y-55805000D02*
X211710000Y-55805000D01*
X207833000Y-55765000D02*
X211710000Y-55765000D01*
X207843000Y-55725000D02*
X211710000Y-55725000D01*
X207854000Y-55685000D02*
X211710000Y-55685000D01*
X207865000Y-55645000D02*
X211710000Y-55645000D01*
X207877000Y-55605000D02*
X211710000Y-55605000D01*
X207889000Y-55565000D02*
X211710000Y-55565000D01*
X207901000Y-55525000D02*
X211710000Y-55525000D01*
X207913000Y-55485000D02*
X211710000Y-55485000D01*
X207926000Y-55445000D02*
X211710000Y-55445000D01*
X207940000Y-55405000D02*
X211710000Y-55405000D01*
X207953000Y-55365000D02*
X211710000Y-55365000D01*
X207968000Y-55325000D02*
X211710000Y-55325000D01*
X207982000Y-55285000D02*
X211710000Y-55285000D01*
X207997000Y-55245000D02*
X211710000Y-55245000D01*
X208012000Y-55205000D02*
X211710000Y-55205000D01*
X208028000Y-55165000D02*
X211710000Y-55165000D01*
X208044000Y-55125000D02*
X211710000Y-55125000D01*
X208060000Y-55085000D02*
X211710000Y-55085000D01*
X208077000Y-55045000D02*
X211710000Y-55045000D01*
X208094000Y-55005000D02*
X211710000Y-55005000D01*
X208112000Y-54965000D02*
X211710000Y-54965000D01*
X208130000Y-54925000D02*
X211710000Y-54925000D01*
X208148000Y-54885000D02*
X211710000Y-54885000D01*
X208167000Y-54845000D02*
X211710000Y-54845000D01*
X208186000Y-54805000D02*
X211710000Y-54805000D01*
X208206000Y-54765000D02*
X211710000Y-54765000D01*
X208226000Y-54725000D02*
X213310000Y-54725000D01*
X208246000Y-54685000D02*
X213310000Y-54685000D01*
X208267000Y-54645000D02*
X213310000Y-54645000D01*
X208289000Y-54605000D02*
X213310000Y-54605000D01*
X208311000Y-54565000D02*
X213310000Y-54565000D01*
X208333000Y-54525000D02*
X213310000Y-54525000D01*
X208356000Y-54485000D02*
X213310000Y-54485000D01*
X208379000Y-54445000D02*
X213310000Y-54445000D01*
X208403000Y-54405000D02*
X213310000Y-54405000D01*
X208427000Y-54365000D02*
X213310000Y-54365000D01*
X208452000Y-54325000D02*
X213310000Y-54325000D01*
X208478000Y-54285000D02*
X213310000Y-54285000D01*
X208503000Y-54245000D02*
X213310000Y-54245000D01*
X208530000Y-54205000D02*
X213310000Y-54205000D01*
X208557000Y-54165000D02*
X213310000Y-54165000D01*
X208584000Y-54125000D02*
X213310000Y-54125000D01*
X208612000Y-54085000D02*
X213310000Y-54085000D01*
X208641000Y-54045000D02*
X216859000Y-54045000D01*
X208670000Y-54005000D02*
X216830000Y-54005000D01*
X208700000Y-53965000D02*
X216800000Y-53965000D01*
X208730000Y-53925000D02*
X216770000Y-53925000D01*
X208762000Y-53885000D02*
X216738000Y-53885000D01*
X208793000Y-53845000D02*
X216707000Y-53845000D01*
X208826000Y-53805000D02*
X216674000Y-53805000D01*
X208859000Y-53765000D02*
X216641000Y-53765000D01*
X208892000Y-53725000D02*
X216608000Y-53725000D01*
X208927000Y-53685000D02*
X216573000Y-53685000D01*
X208962000Y-53645000D02*
X216538000Y-53645000D01*
X208998000Y-53605000D02*
X216502000Y-53605000D01*
X209034000Y-53565000D02*
X216466000Y-53565000D01*
X209072000Y-53525000D02*
X216428000Y-53525000D01*
X209110000Y-53485000D02*
X216390000Y-53485000D01*
X209149000Y-53445000D02*
X216351000Y-53445000D01*
X209189000Y-53405000D02*
X216311000Y-53405000D01*
X209230000Y-53365000D02*
X216270000Y-53365000D01*
X209272000Y-53325000D02*
X216228000Y-53325000D01*
X209315000Y-53285000D02*
X216185000Y-53285000D01*
X209359000Y-53245000D02*
X216141000Y-53245000D01*
X209375000Y-62024646D02*
X210375000Y-62024646D01*
X209403000Y-53205000D02*
X216097000Y-53205000D01*
X209449000Y-53165000D02*
X216051000Y-53165000D01*
X209496000Y-53125000D02*
X216004000Y-53125000D01*
X209545000Y-53085000D02*
X215955000Y-53085000D01*
X209594000Y-53045000D02*
X215906000Y-53045000D01*
X209645000Y-53005000D02*
X215855000Y-53005000D01*
X209697000Y-52965000D02*
X215803000Y-52965000D01*
X209750000Y-52925000D02*
X215750000Y-52925000D01*
X209805000Y-52885000D02*
X215695000Y-52885000D01*
X209862000Y-52845000D02*
X215638000Y-52845000D01*
X209875000Y-62524646D02*
X209875000Y-61524646D01*
X209920000Y-52805000D02*
X215580000Y-52805000D01*
X209980000Y-52765000D02*
X215520000Y-52765000D01*
X210042000Y-52725000D02*
X215458000Y-52725000D01*
X210106000Y-52685000D02*
X215394000Y-52685000D01*
X210172000Y-52645000D02*
X215328000Y-52645000D01*
X210240000Y-52605000D02*
X215260000Y-52605000D01*
X210311000Y-52565000D02*
X215189000Y-52565000D01*
X210385000Y-52525000D02*
X215115000Y-52525000D01*
X210462000Y-52485000D02*
X215038000Y-52485000D01*
X210542000Y-52445000D02*
X214958000Y-52445000D01*
X210626000Y-52405000D02*
X214874000Y-52405000D01*
X210713000Y-52365000D02*
X214787000Y-52365000D01*
X210806000Y-52325000D02*
X214694000Y-52325000D01*
X210904000Y-52285000D02*
X214596000Y-52285000D01*
X211008000Y-52245000D02*
X214492000Y-52245000D01*
X211120000Y-52205000D02*
X214380000Y-52205000D01*
X211241000Y-52165000D02*
X214259000Y-52165000D01*
X211373000Y-52125000D02*
X214127000Y-52125000D01*
X211520000Y-52085000D02*
X213980000Y-52085000D01*
X211688000Y-52045000D02*
X213812000Y-52045000D01*
X211888000Y-52005000D02*
X213612000Y-52005000D01*
X212151000Y-51965000D02*
X213349000Y-51965000D01*
X213790000Y-56165000D02*
X217754000Y-56165000D01*
X213790000Y-56205000D02*
X217761000Y-56205000D01*
X213790000Y-56245000D02*
X217767000Y-56245000D01*
X213790000Y-56285000D02*
X217773000Y-56285000D01*
X213790000Y-56325000D02*
X217779000Y-56325000D01*
X213790000Y-56365000D02*
X217785000Y-56365000D01*
X213790000Y-56405000D02*
X217790000Y-56405000D01*
X213790000Y-56445000D02*
X217795000Y-56445000D01*
X213790000Y-56485000D02*
X217799000Y-56485000D01*
X213790000Y-56525000D02*
X217804000Y-56525000D01*
X213790000Y-56565000D02*
X217807000Y-56565000D01*
X213790000Y-56605000D02*
X217811000Y-56605000D01*
X213790000Y-56645000D02*
X217814000Y-56645000D01*
X213790000Y-56685000D02*
X217817000Y-56685000D01*
X213790000Y-56725000D02*
X217820000Y-56725000D01*
X213790000Y-56765000D02*
X217822000Y-56765000D01*
X213790000Y-56805000D02*
X217824000Y-56805000D01*
X215390000Y-54085000D02*
X216888000Y-54085000D01*
X215390000Y-54125000D02*
X216916000Y-54125000D01*
X215390000Y-54165000D02*
X216943000Y-54165000D01*
X215390000Y-54205000D02*
X216970000Y-54205000D01*
X215390000Y-54245000D02*
X216997000Y-54245000D01*
X215390000Y-54285000D02*
X217022000Y-54285000D01*
X215390000Y-54325000D02*
X217048000Y-54325000D01*
X215390000Y-54365000D02*
X217073000Y-54365000D01*
X215390000Y-54405000D02*
X217097000Y-54405000D01*
X215390000Y-54445000D02*
X217121000Y-54445000D01*
X215390000Y-54485000D02*
X217144000Y-54485000D01*
X215390000Y-54525000D02*
X217167000Y-54525000D01*
X215390000Y-54565000D02*
X217189000Y-54565000D01*
X215390000Y-54605000D02*
X217211000Y-54605000D01*
X215390000Y-54645000D02*
X217233000Y-54645000D01*
X215390000Y-54685000D02*
X217254000Y-54685000D01*
X215390000Y-54725000D02*
X217274000Y-54725000D01*
X215390000Y-54765000D02*
X217294000Y-54765000D01*
X215390000Y-54805000D02*
X217314000Y-54805000D01*
X215390000Y-54845000D02*
X217333000Y-54845000D01*
X215390000Y-54885000D02*
X217352000Y-54885000D01*
X215390000Y-54925000D02*
X217370000Y-54925000D01*
X215390000Y-54965000D02*
X217388000Y-54965000D01*
X215390000Y-55005000D02*
X217406000Y-55005000D01*
X215390000Y-55045000D02*
X217423000Y-55045000D01*
X215390000Y-55085000D02*
X217440000Y-55085000D01*
X215390000Y-55125000D02*
X217456000Y-55125000D01*
X215390000Y-55165000D02*
X217472000Y-55165000D01*
X215390000Y-55205000D02*
X217488000Y-55205000D01*
X215390000Y-55245000D02*
X217503000Y-55245000D01*
X215390000Y-55285000D02*
X217518000Y-55285000D01*
X215390000Y-55325000D02*
X217532000Y-55325000D01*
X215390000Y-55365000D02*
X217547000Y-55365000D01*
X215390000Y-55405000D02*
X217560000Y-55405000D01*
X215390000Y-55445000D02*
X217574000Y-55445000D01*
X215390000Y-55485000D02*
X217587000Y-55485000D01*
X215390000Y-55525000D02*
X217599000Y-55525000D01*
X215390000Y-55565000D02*
X217611000Y-55565000D01*
X215390000Y-55605000D02*
X217623000Y-55605000D01*
X215390000Y-55645000D02*
X217635000Y-55645000D01*
X215390000Y-55685000D02*
X217646000Y-55685000D01*
X215390000Y-55725000D02*
X217657000Y-55725000D01*
X215390000Y-55765000D02*
X217667000Y-55765000D01*
X215390000Y-55805000D02*
X217678000Y-55805000D01*
X215390000Y-55845000D02*
X217687000Y-55845000D01*
X215390000Y-55885000D02*
X217697000Y-55885000D01*
X215390000Y-55925000D02*
X217706000Y-55925000D01*
X215390000Y-55965000D02*
X217715000Y-55965000D01*
X215390000Y-56005000D02*
X217723000Y-56005000D01*
X215390000Y-56045000D02*
X217731000Y-56045000D01*
X215390000Y-56085000D02*
X217739000Y-56085000D01*
X215390000Y-56125000D02*
X217747000Y-56125000D01*
X217870000Y-57045000D02*
G75*
G02*
X207630000Y-57045000I-5120000J0D01*
G01*
X207630000Y-57045000D02*
G75*
G02*
X217870000Y-57045000I5120000J0D01*
G01*
%TO.C,U5*%
D12*
X202620000Y-65315000D02*
X230345000Y-65315000D01*
X230345000Y-70915000D01*
X202620000Y-70915000D01*
X202620000Y-65315000D01*
D20*
X202620000Y-70915000D02*
X230345000Y-70915000D01*
X230345000Y-110361000D01*
X202620000Y-110361000D01*
X202620000Y-70915000D01*
D12*
X202620000Y-110361000D02*
X230295000Y-110361000D01*
X230295000Y-120115000D01*
X202620000Y-120115000D01*
X202620000Y-110361000D01*
X209970000Y-113715000D02*
X223670000Y-113715000D01*
X223670000Y-120115000D01*
X209970000Y-120115000D01*
X209970000Y-113715000D01*
D19*
%TO.C,K1*%
X156280000Y-85925000D02*
X166700000Y-85925000D01*
X166700000Y-85925000D02*
X166700000Y-65405000D01*
X158950000Y-84555000D02*
X159585000Y-84555000D01*
X164030000Y-84555000D02*
X163395000Y-84555000D01*
X159585000Y-83539000D02*
X159585000Y-84555000D01*
X159585000Y-83539000D02*
X159204000Y-83920000D01*
X159585000Y-83539000D02*
X159966000Y-83920000D01*
X163395000Y-83539000D02*
X163395000Y-84555000D01*
X163395000Y-83539000D02*
X163014000Y-83920000D01*
X163395000Y-83539000D02*
X163776000Y-83920000D01*
X160855000Y-82015000D02*
X159585000Y-80745000D01*
X162125000Y-82015000D02*
X163395000Y-80745000D01*
X159585000Y-80491000D02*
X159204000Y-80110000D01*
X159585000Y-80491000D02*
X159966000Y-80110000D01*
X163395000Y-80491000D02*
X163014000Y-80110000D01*
X163395000Y-80491000D02*
X163776000Y-80110000D01*
X158950000Y-79475000D02*
X159585000Y-79475000D01*
X159585000Y-79475000D02*
X159585000Y-80491000D01*
X163395000Y-79475000D02*
X163395000Y-80491000D01*
X164030000Y-79475000D02*
X163395000Y-79475000D01*
X158950000Y-74395000D02*
X160855000Y-74395000D01*
X160855000Y-74395000D02*
X160855000Y-82015000D01*
X162125000Y-74395000D02*
X162125000Y-82015000D01*
X164030000Y-74395000D02*
X162125000Y-74395000D01*
X160220000Y-69825000D02*
X160220000Y-69315000D01*
X162760000Y-69825000D02*
X160220000Y-69825000D01*
X157680000Y-69315000D02*
X160220000Y-69315000D01*
X160220000Y-69315000D02*
X160220000Y-68805000D01*
X162760000Y-69315000D02*
X162760000Y-69825000D01*
X162760000Y-69315000D02*
X165300000Y-69315000D01*
X165300000Y-69315000D02*
X165300000Y-68045000D01*
X160220000Y-68805000D02*
X162760000Y-68805000D01*
X160982000Y-68805000D02*
X161998000Y-69825000D01*
X162760000Y-68805000D02*
X162760000Y-69315000D01*
X157680000Y-68045000D02*
X157680000Y-69315000D01*
X156280000Y-65405000D02*
X156280000Y-85925000D01*
X160982000Y-65405000D02*
X156280000Y-65405000D01*
X166700000Y-65405000D02*
X161998000Y-65405000D01*
D16*
X160985000Y-82015000D02*
G75*
G02*
X160725000Y-82015000I-130000J0D01*
G01*
X160725000Y-82015000D02*
G75*
G02*
X160985000Y-82015000I130000J0D01*
G01*
X162255000Y-82015000D02*
G75*
G02*
X161995000Y-82015000I-130000J0D01*
G01*
X161995000Y-82015000D02*
G75*
G02*
X162255000Y-82015000I130000J0D01*
G01*
D19*
X161490000Y-65405000D02*
X161290000Y-65065589D01*
X161690000Y-65065589D01*
X161490000Y-65405000D01*
G36*
X161490000Y-65405000D02*
G01*
X161290000Y-65065589D01*
X161690000Y-65065589D01*
X161490000Y-65405000D01*
G37*
%TD*%
M02*
