%TF.GenerationSoftware,KiCad,Pcbnew,9.0.7*%
%TF.CreationDate,2026-09-09T09:09:22+05:30*%
%TF.ProjectId,PumpNodeNew,50756d70-4e6f-4646-954e-65772e6b6963,rev?*%
%TF.SameCoordinates,Original*%
%TF.FileFunction,Copper,L1,Top*%
%TF.FilePolarity,Positive*%
%FSLAX46Y46*%
G04 Gerber Fmt 4.6, Leading zero omitted, Abs format (unit mm)*
G04 Created by KiCad (PCBNEW 9.0.7) date 2026-09-09 09:09:22*
%MOMM*%
%LPD*%
G01*
G04 APERTURE LIST*
G04 Aperture macros list*
%AMRoundRect*
0 Rectangle with rounded corners*
0 $1 Rounding radius*
0 $2 $3 $4 $5 $6 $7 $8 $9 X,Y pos of 4 corners*
0 Add a 4 corners polygon primitive as box body*
4,1,4,$2,$3,$4,$5,$6,$7,$8,$9,$2,$3,0*
0 Add four circle primitives for the rounded corners*
1,1,$1+$1,$2,$3*
1,1,$1+$1,$4,$5*
1,1,$1+$1,$6,$7*
1,1,$1+$1,$8,$9*
0 Add four rect primitives between the rounded corners*
20,1,$1+$1,$2,$3,$4,$5,0*
20,1,$1+$1,$4,$5,$6,$7,0*
20,1,$1+$1,$6,$7,$8,$9,0*
20,1,$1+$1,$8,$9,$2,$3,0*%
G04 Aperture macros list end*
%TA.AperFunction,ComponentPad*%
%ADD10R,1.800000X1.800000*%
%TD*%
%TA.AperFunction,ComponentPad*%
%ADD11C,1.800000*%
%TD*%
%TA.AperFunction,ComponentPad*%
%ADD12RoundRect,0.250000X-0.625000X-0.625000X0.625000X-0.625000X0.625000X0.625000X-0.625000X0.625000X0*%
%TD*%
%TA.AperFunction,ComponentPad*%
%ADD13C,1.750000*%
%TD*%
%TA.AperFunction,ComponentPad*%
%ADD14RoundRect,0.250000X0.550000X-0.550000X0.550000X0.550000X-0.550000X0.550000X-0.550000X-0.550000X0*%
%TD*%
%TA.AperFunction,ComponentPad*%
%ADD15C,1.600000*%
%TD*%
%TA.AperFunction,WasherPad*%
%ADD16C,5.000000*%
%TD*%
%TA.AperFunction,ComponentPad*%
%ADD17O,2.200000X1.500000*%
%TD*%
%TA.AperFunction,ComponentPad*%
%ADD18C,2.000000*%
%TD*%
%TA.AperFunction,ComponentPad*%
%ADD19RoundRect,0.250000X-0.750000X-0.750000X0.750000X-0.750000X0.750000X0.750000X-0.750000X0.750000X0*%
%TD*%
%TA.AperFunction,SMDPad,CuDef*%
%ADD20RoundRect,0.250000X-0.425000X-1.600000X0.425000X-1.600000X0.425000X1.600000X-0.425000X1.600000X0*%
%TD*%
%TA.AperFunction,ComponentPad*%
%ADD21R,1.500000X2.000000*%
%TD*%
%TA.AperFunction,ViaPad*%
%ADD22C,0.800000*%
%TD*%
%TA.AperFunction,Conductor*%
%ADD23C,0.500000*%
%TD*%
%TA.AperFunction,Conductor*%
%ADD24C,1.000000*%
%TD*%
%TA.AperFunction,Conductor*%
%ADD25C,0.700000*%
%TD*%
G04 APERTURE END LIST*
D10*
%TO.P,D1,1,K*%
%TO.N,GND*%
X235770000Y-108465000D03*
D11*
%TO.P,D1,2,A*%
%TO.N,Net-(D1-A)*%
X233230000Y-108465000D03*
%TD*%
D10*
%TO.P,D2,1,K*%
%TO.N,GND*%
X235750000Y-102465000D03*
D11*
%TO.P,D2,2,A*%
%TO.N,Net-(D2-A)*%
X233210000Y-102465000D03*
%TD*%
D10*
%TO.P,D3,1,K*%
%TO.N,GND*%
X235760000Y-96445000D03*
D11*
%TO.P,D3,2,A*%
%TO.N,Net-(D3-A)*%
X233220000Y-96445000D03*
%TD*%
D12*
%TO.P,J1,1,Pin_1*%
%TO.N,GND*%
X181520000Y-82895000D03*
D13*
%TO.P,J1,2,Pin_2*%
%TO.N,/IN1_CON*%
X185330000Y-82895000D03*
%TO.P,J1,3,Pin_3*%
%TO.N,/IN4_CON*%
X189140000Y-82895000D03*
%TD*%
D12*
%TO.P,J4,1,Pin_1*%
%TO.N,/RLY_COMM*%
X171235000Y-82872500D03*
D13*
%TO.P,J4,2,Pin_2*%
%TO.N,/RL1_CON_1*%
X175045000Y-82872500D03*
%TD*%
D12*
%TO.P,J3,1,Pin_1*%
%TO.N,GND*%
X194185000Y-82932500D03*
D13*
%TO.P,J3,2,Pin_2*%
%TO.N,+8V*%
X197995000Y-82932500D03*
%TD*%
D14*
%TO.P,C5,1*%
%TO.N,+5V*%
X224160000Y-58915937D03*
X225760000Y-58245000D03*
D15*
%TO.P,C5,2*%
%TO.N,GND*%
X225760000Y-55745000D03*
X227360000Y-55074063D03*
%TD*%
D14*
%TO.P,C4,1*%
%TO.N,+8V*%
X211150000Y-58965937D03*
X212750000Y-58295000D03*
D15*
%TO.P,C4,2*%
%TO.N,GND*%
X212750000Y-55795000D03*
X214350000Y-55124063D03*
%TD*%
D16*
%TO.P,,*%
%TO.N,*%
X156830000Y-58145000D03*
%TD*%
%TO.P,,*%
%TO.N,*%
X233830000Y-58145000D03*
%TD*%
%TO.P,.,*%
%TO.N,*%
X233830000Y-113145000D03*
%TD*%
D17*
%TO.P,U5,1,3V3_Out*%
%TO.N,+3.3V*%
X228970000Y-108075000D03*
%TO.P,U5,2,GND*%
%TO.N,GND*%
X228970000Y-105515000D03*
%TO.P,U5,5,D4*%
%TO.N,/LoRa_LED*%
X228920000Y-97865000D03*
%TO.P,U5,6,Rx2/D16*%
%TO.N,/Pump_ON_Yellow_LED*%
X228945000Y-95350000D03*
%TO.P,U5,8,D5/BootSensitive*%
%TO.N,/NSS*%
X228970000Y-90290000D03*
%TO.P,U5,9,D18*%
%TO.N,/SCK*%
X228920000Y-87750000D03*
%TO.P,U5,10,D19*%
%TO.N,/MISO*%
X228945000Y-85240000D03*
%TO.P,U5,15,D23*%
%TO.N,/MOSI*%
X228920000Y-72505000D03*
%TO.P,U5,16,EN*%
%TO.N,unconnected-(U5-EN-Pad16)*%
X203920000Y-72505000D03*
%TO.P,U5,17,VP(36)/Input_only*%
%TO.N,/IN1_MCU*%
X203920000Y-75065000D03*
%TO.P,U5,20,D35/Input_only*%
%TO.N,/IN4_MCU*%
X203945000Y-82680000D03*
%TO.P,U5,21,D32*%
%TO.N,/RELAY1_MCU*%
X203945000Y-85240000D03*
%TO.P,U5,22,D33*%
%TO.N,/IN1_LED_MCU*%
X203945000Y-87875000D03*
%TO.P,U5,23,D25*%
%TO.N,/RESET*%
X203995000Y-90415000D03*
%TO.P,U5,24,D26*%
%TO.N,/DIO1*%
X203995000Y-92975000D03*
%TO.P,U5,25,D27*%
%TO.N,/BUSY*%
X203970000Y-95475000D03*
%TO.P,U5,28,D13*%
%TO.N,/IN4_LED_MCU*%
X203995000Y-103090000D03*
%TO.P,U5,29,GND*%
%TO.N,GND*%
X203970000Y-105515000D03*
%TO.P,U5,30,VIN/5V_Power_IN*%
%TO.N,+5V*%
X203970000Y-108075000D03*
%TD*%
D16*
%TO.P,,*%
%TO.N,*%
X-36100000Y-58145000D03*
%TD*%
%TO.P,,*%
%TO.N,*%
X-113100000Y-58145000D03*
%TD*%
%TO.P,.,*%
%TO.N,*%
X-36100000Y-113145000D03*
%TD*%
D18*
%TO.P,K1,11*%
%TO.N,unconnected-(K1-Pad11)*%
X157680000Y-74395000D03*
%TO.P,K1,12*%
%TO.N,unconnected-(K1-Pad12)*%
X157680000Y-79475000D03*
%TO.P,K1,14*%
%TO.N,unconnected-(K1-Pad14)*%
X157680000Y-84555000D03*
%TO.P,K1,21*%
%TO.N,/RLY_COMM*%
X165300000Y-74395000D03*
%TO.P,K1,22*%
%TO.N,unconnected-(K1-Pad22)*%
X165300000Y-79475000D03*
%TO.P,K1,24*%
%TO.N,/RL1_CON_1*%
X165300000Y-84555000D03*
D19*
%TO.P,K1,A1*%
%TO.N,+5V*%
X157680000Y-66775000D03*
D18*
%TO.P,K1,A2*%
%TO.N,/RELAY1_COIL*%
X165300000Y-66775000D03*
%TD*%
D16*
%TO.P,,*%
%TO.N,*%
X-113100000Y-113145000D03*
%TD*%
%TO.P,,*%
%TO.N,*%
X156830000Y-113145000D03*
%TD*%
D20*
%TO.P,J2,2,Ext*%
%TO.N,GND*%
X181495000Y-52395000D03*
X187145000Y-52395000D03*
%TD*%
D21*
%TO.P,U7,1,ANT*%
%TO.N,Net-(J2-In)*%
X184310000Y-56675000D03*
%TD*%
D22*
%TO.N,GND*%
X222950000Y-55755000D03*
X221430000Y-55755000D03*
X220810000Y-60325000D03*
X222620000Y-60375000D03*
X176190000Y-74105000D03*
X177430000Y-75425000D03*
X174830000Y-75405000D03*
X176180000Y-75385000D03*
X177440000Y-74145000D03*
X174840000Y-74125000D03*
X207780000Y-78855000D03*
X211780000Y-72165000D03*
X208120000Y-59155000D03*
X177840000Y-51755000D03*
X166520000Y-59925000D03*
X176590000Y-51715000D03*
X209350000Y-59155000D03*
X176580000Y-52995000D03*
X186320000Y-59255000D03*
X217750000Y-113425000D03*
X187820000Y-64365000D03*
X209300000Y-72165000D03*
X191830000Y-59155000D03*
X199600000Y-70425000D03*
X205510000Y-55665000D03*
X165280000Y-58605000D03*
X194650000Y-52965000D03*
X214860000Y-106365000D03*
X234470000Y-87125000D03*
X219000000Y-113425000D03*
X214870000Y-105085000D03*
X187830000Y-63085000D03*
X208130000Y-57875000D03*
X219010000Y-112145000D03*
X192050000Y-52945000D03*
X194660000Y-51685000D03*
X208060000Y-70845000D03*
X206870000Y-59155000D03*
X184100000Y-63045000D03*
X197140000Y-51685000D03*
X183820000Y-59215000D03*
X211130000Y-106325000D03*
X163920000Y-59905000D03*
X182750000Y-63065000D03*
X205620000Y-59115000D03*
X209240000Y-55705000D03*
X182470000Y-59235000D03*
X209360000Y-57875000D03*
X165270000Y-59885000D03*
X216500000Y-113385000D03*
X234470000Y-85875000D03*
X211790000Y-70885000D03*
X197130000Y-52965000D03*
X213640000Y-105085000D03*
X209310000Y-70885000D03*
X205630000Y-57835000D03*
X186590000Y-64365000D03*
X210550000Y-72165000D03*
X209010000Y-78855000D03*
X210910000Y-81585000D03*
X169050000Y-55645000D03*
X233190000Y-85865000D03*
X210860000Y-74585000D03*
X228850000Y-63055000D03*
X195910000Y-51685000D03*
X175240000Y-51735000D03*
X212380000Y-106365000D03*
X210920000Y-76085000D03*
X208010000Y-55705000D03*
X193400000Y-52925000D03*
X193110000Y-59165000D03*
X217760000Y-112145000D03*
X231450000Y-63075000D03*
X205390000Y-81325000D03*
X233920000Y-64355000D03*
X182740000Y-64345000D03*
X215150000Y-113405000D03*
X206700000Y-72145000D03*
X182750000Y-61745000D03*
X220240000Y-112145000D03*
X198250000Y-70445000D03*
X232690000Y-64355000D03*
X216510000Y-112105000D03*
X185350000Y-63085000D03*
X211140000Y-105045000D03*
X230200000Y-63035000D03*
X213630000Y-106365000D03*
X163930000Y-58625000D03*
X204270000Y-59135000D03*
X206760000Y-55705000D03*
X204280000Y-57855000D03*
X166530000Y-58645000D03*
X187830000Y-61765000D03*
X185350000Y-61765000D03*
X206710000Y-70865000D03*
X230190000Y-64315000D03*
X233190000Y-84635000D03*
X212390000Y-105085000D03*
X234470000Y-84645000D03*
X208220000Y-76435000D03*
X228840000Y-64335000D03*
X167800000Y-55655000D03*
X233930000Y-63075000D03*
X206880000Y-57875000D03*
X177830000Y-53035000D03*
X166450000Y-55655000D03*
X187550000Y-59255000D03*
X192060000Y-51665000D03*
X210830000Y-83585000D03*
X175230000Y-53015000D03*
X186600000Y-63085000D03*
X210560000Y-70885000D03*
X185340000Y-64365000D03*
X233170000Y-89715000D03*
X220230000Y-113425000D03*
X231440000Y-64355000D03*
X184090000Y-64325000D03*
X193410000Y-51645000D03*
X234450000Y-89725000D03*
X233190000Y-87115000D03*
X206620000Y-81325000D03*
X208050000Y-72125000D03*
X186600000Y-61765000D03*
X234430000Y-88375000D03*
X184100000Y-61725000D03*
X185070000Y-59255000D03*
X206990000Y-53635000D03*
X233150000Y-88365000D03*
X195900000Y-52965000D03*
X232700000Y-63075000D03*
X194470000Y-61905000D03*
X215160000Y-112125000D03*
X194460000Y-63185000D03*
%TO.N,+3.3V*%
X213550000Y-95505000D03*
X213600000Y-89425000D03*
%TO.N,+5V*%
X217540000Y-61865000D03*
X218680000Y-61165000D03*
X201310000Y-59155000D03*
X217950000Y-61335000D03*
X178780000Y-60515000D03*
X217520000Y-73495000D03*
X217610000Y-88555000D03*
X217580000Y-98295000D03*
X217500000Y-71895000D03*
X217470000Y-71235000D03*
X179420000Y-60515000D03*
X217490000Y-87835000D03*
X217550000Y-86975000D03*
X178130000Y-60505000D03*
X201310000Y-59805000D03*
X217670000Y-99125000D03*
X217580000Y-97425000D03*
X201320000Y-60425000D03*
X217500000Y-72615000D03*
X217550000Y-96635000D03*
X219340000Y-60915000D03*
X217490000Y-89355000D03*
%TO.N,/MISO*%
X226450000Y-67205000D03*
X222000000Y-67195000D03*
%TO.N,/MOSI*%
X226600000Y-66215000D03*
X221260000Y-66095000D03*
%TO.N,/BUSY*%
X219840000Y-93165000D03*
X219790000Y-88735000D03*
%TO.N,/SCK*%
X222970000Y-68095000D03*
X229960000Y-67895000D03*
%TO.N,/NSS*%
X220630000Y-65165000D03*
X225470000Y-65035000D03*
%TO.N,/RELAY1_MCU*%
X201550000Y-75285000D03*
X201550000Y-81015000D03*
%TD*%
D23*
%TO.N,/MISO*%
X222000000Y-67195000D02*
X226440000Y-67195000D01*
X226440000Y-67195000D02*
X226450000Y-67205000D01*
D24*
%TO.N,+8V*%
X212750000Y-58295000D02*
X212750000Y-59895000D01*
X212750000Y-59895000D02*
X212050000Y-60595000D01*
X201690000Y-62395000D02*
X201650000Y-62395000D01*
X203490000Y-60595000D02*
X201690000Y-62395000D01*
X212050000Y-60595000D02*
X203490000Y-60595000D01*
X201650000Y-71745000D02*
X200510000Y-72885000D01*
X201650000Y-62395000D02*
X201650000Y-71745000D01*
X200510000Y-72885000D02*
X199430000Y-72885000D01*
X199430000Y-72885000D02*
X197995000Y-74320000D01*
X197995000Y-74320000D02*
X197995000Y-82932500D01*
D23*
%TO.N,/RELAY1_MCU*%
X201550000Y-75285000D02*
X201550000Y-81015000D01*
%TO.N,+3.3V*%
X213600000Y-89425000D02*
X213600000Y-95455000D01*
X213600000Y-95455000D02*
X213550000Y-95505000D01*
D25*
%TO.N,+5V*%
X177820000Y-60515000D02*
X177810000Y-60505000D01*
D24*
X218980000Y-61245000D02*
X219290000Y-60935000D01*
X218160000Y-61245000D02*
X218830000Y-61245000D01*
X217550000Y-89415000D02*
X217490000Y-89355000D01*
X217490000Y-89355000D02*
X217490000Y-87005000D01*
D25*
X179430000Y-60525000D02*
X179420000Y-60515000D01*
D24*
X217470000Y-71235000D02*
X217470000Y-62265000D01*
D25*
X201320000Y-60425000D02*
X201220000Y-60525000D01*
D24*
X217540000Y-61865000D02*
X217540000Y-62195000D01*
X217550000Y-96635000D02*
X217550000Y-99915000D01*
X217550000Y-96635000D02*
X217550000Y-89415000D01*
D25*
X201320000Y-59085000D02*
X201340000Y-59065000D01*
D24*
X217540000Y-61865000D02*
X218160000Y-61245000D01*
D25*
X201220000Y-60525000D02*
X179430000Y-60525000D01*
D24*
X217470000Y-62265000D02*
X217470000Y-62025000D01*
X217540000Y-62195000D02*
X217470000Y-62265000D01*
X217470000Y-71235000D02*
X217470000Y-73585000D01*
X218830000Y-61245000D02*
X218980000Y-61245000D01*
D25*
X179420000Y-60515000D02*
X177820000Y-60515000D01*
X201320000Y-60425000D02*
X201320000Y-59085000D01*
D23*
%TO.N,/MOSI*%
X226570000Y-66245000D02*
X226600000Y-66215000D01*
X225170000Y-66095000D02*
X225320000Y-66245000D01*
X225320000Y-66245000D02*
X226570000Y-66245000D01*
X221260000Y-66095000D02*
X225170000Y-66095000D01*
%TO.N,/BUSY*%
X219840000Y-93165000D02*
X219790000Y-93115000D01*
X219790000Y-93115000D02*
X219790000Y-88735000D01*
%TO.N,/SCK*%
X222970000Y-68095000D02*
X227480000Y-68095000D01*
X227680000Y-67895000D02*
X229960000Y-67895000D01*
X227480000Y-68095000D02*
X227680000Y-67895000D01*
%TO.N,/NSS*%
X225340000Y-65165000D02*
X225470000Y-65035000D01*
X220630000Y-65165000D02*
X225340000Y-65165000D01*
%TD*%
%TA.AperFunction,Conductor*%
%TO.N,GND*%
G36*
X180428117Y-50175185D02*
G01*
X180473872Y-50227989D01*
X180483816Y-50297147D01*
X180466617Y-50344597D01*
X180385643Y-50475875D01*
X180385641Y-50475880D01*
X180330494Y-50642302D01*
X180330493Y-50642309D01*
X180320000Y-50745013D01*
X180320000Y-52145000D01*
X182669999Y-52145000D01*
X182669999Y-50745028D01*
X182669998Y-50745013D01*
X182659505Y-50642302D01*
X182604358Y-50475880D01*
X182604356Y-50475875D01*
X182523383Y-50344597D01*
X182504943Y-50277204D01*
X182525866Y-50210541D01*
X182579508Y-50165771D01*
X182628922Y-50155500D01*
X182866000Y-50155500D01*
X182933039Y-50175185D01*
X182978794Y-50227989D01*
X182990000Y-50279500D01*
X182990000Y-56445000D01*
X182990000Y-58205000D01*
X183080000Y-58295000D01*
X185690000Y-58295000D01*
X185700000Y-58285000D01*
X185700000Y-54044986D01*
X185970001Y-54044986D01*
X185980494Y-54147697D01*
X186035641Y-54314119D01*
X186035643Y-54314124D01*
X186127684Y-54463345D01*
X186251654Y-54587315D01*
X186400875Y-54679356D01*
X186400880Y-54679358D01*
X186567302Y-54734505D01*
X186567309Y-54734506D01*
X186670019Y-54744999D01*
X186894999Y-54744999D01*
X187395000Y-54744999D01*
X187619972Y-54744999D01*
X187619986Y-54744998D01*
X187722697Y-54734505D01*
X187889119Y-54679358D01*
X187889128Y-54679354D01*
X187924971Y-54657246D01*
X187924974Y-54657244D01*
X188038345Y-54587315D01*
X188162315Y-54463345D01*
X188254356Y-54314124D01*
X188254358Y-54314119D01*
X188309505Y-54147697D01*
X188309506Y-54147690D01*
X188316500Y-54079242D01*
X188316500Y-54079240D01*
X188319999Y-54044991D01*
X188320000Y-54044973D01*
X188320000Y-52645000D01*
X187395000Y-52645000D01*
X187395000Y-54744999D01*
X186894999Y-54744999D01*
X186895000Y-54744998D01*
X186895000Y-52645000D01*
X185970001Y-52645000D01*
X185970001Y-54044986D01*
X185700000Y-54044986D01*
X185700000Y-50279500D01*
X185719685Y-50212461D01*
X185772489Y-50166706D01*
X185824000Y-50155500D01*
X186011078Y-50155500D01*
X186078117Y-50175185D01*
X186123872Y-50227989D01*
X186133816Y-50297147D01*
X186116617Y-50344597D01*
X186035643Y-50475875D01*
X186035641Y-50475880D01*
X185980494Y-50642302D01*
X185980493Y-50642309D01*
X185970000Y-50745013D01*
X185970000Y-52145000D01*
X188319999Y-52145000D01*
X188319999Y-50745028D01*
X188319998Y-50745013D01*
X188309505Y-50642302D01*
X188254358Y-50475880D01*
X188254356Y-50475875D01*
X188173383Y-50344597D01*
X188154943Y-50277204D01*
X188175866Y-50210541D01*
X188229508Y-50165771D01*
X188278922Y-50155500D01*
X231661324Y-50155500D01*
X231728363Y-50175185D01*
X231749005Y-50191819D01*
X236333181Y-54775995D01*
X236366666Y-54837318D01*
X236369500Y-54863676D01*
X236369500Y-56680355D01*
X236349815Y-56747394D01*
X236297011Y-56793149D01*
X236227853Y-56803093D01*
X236164297Y-56774068D01*
X236140506Y-56746327D01*
X236041764Y-56589182D01*
X236035892Y-56579836D01*
X235846779Y-56342696D01*
X235632304Y-56128221D01*
X235395164Y-55939108D01*
X235165820Y-55795001D01*
X235138338Y-55777733D01*
X234865068Y-55646133D01*
X234578783Y-55545957D01*
X234578771Y-55545953D01*
X234350556Y-55493864D01*
X234283063Y-55478460D01*
X234283060Y-55478459D01*
X234283048Y-55478457D01*
X233981663Y-55444500D01*
X233981657Y-55444500D01*
X233678343Y-55444500D01*
X233678336Y-55444500D01*
X233376951Y-55478457D01*
X233376937Y-55478460D01*
X233081228Y-55545953D01*
X233081216Y-55545957D01*
X232794931Y-55646133D01*
X232521661Y-55777733D01*
X232264837Y-55939107D01*
X232027696Y-56128220D01*
X231813220Y-56342696D01*
X231624107Y-56579837D01*
X231462733Y-56836661D01*
X231331133Y-57109931D01*
X231230957Y-57396216D01*
X231230953Y-57396228D01*
X231163460Y-57691937D01*
X231163457Y-57691951D01*
X231129500Y-57993336D01*
X231129500Y-58296663D01*
X231163457Y-58598048D01*
X231163460Y-58598062D01*
X231230953Y-58893771D01*
X231230957Y-58893783D01*
X231331133Y-59180068D01*
X231462733Y-59453338D01*
X231462735Y-59453341D01*
X231624108Y-59710164D01*
X231750560Y-59868730D01*
X231810021Y-59943292D01*
X231813221Y-59947304D01*
X232027696Y-60161779D01*
X232264836Y-60350892D01*
X232521659Y-60512265D01*
X232794935Y-60643868D01*
X232957892Y-60700889D01*
X233081216Y-60744042D01*
X233081228Y-60744046D01*
X233376937Y-60811540D01*
X233376946Y-60811541D01*
X233376951Y-60811542D01*
X233577874Y-60834180D01*
X233678337Y-60845499D01*
X233678340Y-60845500D01*
X233678343Y-60845500D01*
X233981660Y-60845500D01*
X233981661Y-60845499D01*
X234135694Y-60828144D01*
X234283048Y-60811542D01*
X234283051Y-60811541D01*
X234283063Y-60811540D01*
X234578772Y-60744046D01*
X234865065Y-60643868D01*
X235138341Y-60512265D01*
X235395164Y-60350892D01*
X235632304Y-60161779D01*
X235846779Y-59947304D01*
X236035892Y-59710164D01*
X236140506Y-59543671D01*
X236192841Y-59497381D01*
X236261894Y-59486733D01*
X236325743Y-59515108D01*
X236364115Y-59573497D01*
X236369500Y-59609644D01*
X236369500Y-94921000D01*
X236349815Y-94988039D01*
X236297011Y-95033794D01*
X236245500Y-95045000D01*
X236010000Y-95045000D01*
X236010000Y-96011988D01*
X235952993Y-95979075D01*
X235825826Y-95945000D01*
X235694174Y-95945000D01*
X235567007Y-95979075D01*
X235510000Y-96011988D01*
X235510000Y-95045000D01*
X234812155Y-95045000D01*
X234752627Y-95051401D01*
X234752620Y-95051403D01*
X234617913Y-95101645D01*
X234617906Y-95101649D01*
X234502812Y-95187809D01*
X234502809Y-95187812D01*
X234416649Y-95302906D01*
X234416645Y-95302913D01*
X234366403Y-95437620D01*
X234366401Y-95437627D01*
X234360000Y-95497155D01*
X234360000Y-95760159D01*
X234340315Y-95827198D01*
X234287511Y-95872953D01*
X234218353Y-95882897D01*
X234154797Y-95853872D01*
X234135682Y-95833045D01*
X234103281Y-95788450D01*
X234059414Y-95728072D01*
X233936928Y-95605586D01*
X233796788Y-95503768D01*
X233642445Y-95425127D01*
X233477701Y-95371598D01*
X233477699Y-95371597D01*
X233477698Y-95371597D01*
X233346271Y-95350781D01*
X233306611Y-95344500D01*
X233133389Y-95344500D01*
X233093728Y-95350781D01*
X232962302Y-95371597D01*
X232797552Y-95425128D01*
X232643211Y-95503768D01*
X232563256Y-95561859D01*
X232503072Y-95605586D01*
X232503070Y-95605588D01*
X232503069Y-95605588D01*
X232380588Y-95728069D01*
X232380588Y-95728070D01*
X232380586Y-95728072D01*
X232336859Y-95788256D01*
X232278768Y-95868211D01*
X232200128Y-96022552D01*
X232146597Y-96187302D01*
X232138416Y-96238956D01*
X232119500Y-96358389D01*
X232119500Y-96531611D01*
X232146598Y-96702701D01*
X232192866Y-96845099D01*
X232200128Y-96867447D01*
X232239643Y-96945000D01*
X232278768Y-97021788D01*
X232380586Y-97161928D01*
X232503072Y-97284414D01*
X232643212Y-97386232D01*
X232797555Y-97464873D01*
X232962299Y-97518402D01*
X233133389Y-97545500D01*
X233133390Y-97545500D01*
X233306610Y-97545500D01*
X233306611Y-97545500D01*
X233477701Y-97518402D01*
X233642445Y-97464873D01*
X233796788Y-97386232D01*
X233936928Y-97284414D01*
X234059414Y-97161928D01*
X234135682Y-97056953D01*
X234191012Y-97014289D01*
X234260626Y-97008310D01*
X234322421Y-97040916D01*
X234356778Y-97101755D01*
X234360000Y-97129840D01*
X234360000Y-97392844D01*
X234366401Y-97452372D01*
X234366403Y-97452379D01*
X234416645Y-97587086D01*
X234416649Y-97587093D01*
X234502809Y-97702187D01*
X234502812Y-97702190D01*
X234617906Y-97788350D01*
X234617913Y-97788354D01*
X234752620Y-97838596D01*
X234752627Y-97838598D01*
X234812155Y-97844999D01*
X234812172Y-97845000D01*
X235510000Y-97845000D01*
X235510000Y-96878012D01*
X235567007Y-96910925D01*
X235694174Y-96945000D01*
X235825826Y-96945000D01*
X235952993Y-96910925D01*
X236010000Y-96878012D01*
X236010000Y-97845000D01*
X236245500Y-97845000D01*
X236312539Y-97864685D01*
X236358294Y-97917489D01*
X236369500Y-97969000D01*
X236369500Y-100941000D01*
X236349815Y-101008039D01*
X236297011Y-101053794D01*
X236245500Y-101065000D01*
X236000000Y-101065000D01*
X236000000Y-102031988D01*
X235942993Y-101999075D01*
X235815826Y-101965000D01*
X235684174Y-101965000D01*
X235557007Y-101999075D01*
X235500000Y-102031988D01*
X235500000Y-101065000D01*
X234802155Y-101065000D01*
X234742627Y-101071401D01*
X234742620Y-101071403D01*
X234607913Y-101121645D01*
X234607906Y-101121649D01*
X234492812Y-101207809D01*
X234492809Y-101207812D01*
X234406649Y-101322906D01*
X234406645Y-101322913D01*
X234356403Y-101457620D01*
X234356401Y-101457627D01*
X234350000Y-101517155D01*
X234350000Y-101780159D01*
X234330315Y-101847198D01*
X234277511Y-101892953D01*
X234208353Y-101902897D01*
X234144797Y-101873872D01*
X234125682Y-101853045D01*
X234093281Y-101808450D01*
X234049414Y-101748072D01*
X233926928Y-101625586D01*
X233786788Y-101523768D01*
X233632445Y-101445127D01*
X233467701Y-101391598D01*
X233467699Y-101391597D01*
X233467698Y-101391597D01*
X233336271Y-101370781D01*
X233296611Y-101364500D01*
X233123389Y-101364500D01*
X233083728Y-101370781D01*
X232952302Y-101391597D01*
X232787552Y-101445128D01*
X232633211Y-101523768D01*
X232553256Y-101581859D01*
X232493072Y-101625586D01*
X232493070Y-101625588D01*
X232493069Y-101625588D01*
X232370588Y-101748069D01*
X232370588Y-101748070D01*
X232370586Y-101748072D01*
X232326859Y-101808256D01*
X232268768Y-101888211D01*
X232190128Y-102042552D01*
X232136597Y-102207302D01*
X232130202Y-102247681D01*
X232109500Y-102378389D01*
X232109500Y-102551611D01*
X232136598Y-102722701D01*
X232190127Y-102887445D01*
X232268768Y-103041788D01*
X232370586Y-103181928D01*
X232493072Y-103304414D01*
X232633212Y-103406232D01*
X232787555Y-103484873D01*
X232952299Y-103538402D01*
X233123389Y-103565500D01*
X233123390Y-103565500D01*
X233296610Y-103565500D01*
X233296611Y-103565500D01*
X233467701Y-103538402D01*
X233632445Y-103484873D01*
X233786788Y-103406232D01*
X233926928Y-103304414D01*
X234049414Y-103181928D01*
X234125682Y-103076953D01*
X234181012Y-103034289D01*
X234250626Y-103028310D01*
X234312421Y-103060916D01*
X234346778Y-103121755D01*
X234350000Y-103149840D01*
X234350000Y-103412844D01*
X234356401Y-103472372D01*
X234356403Y-103472379D01*
X234406645Y-103607086D01*
X234406649Y-103607093D01*
X234492809Y-103722187D01*
X234492812Y-103722190D01*
X234607906Y-103808350D01*
X234607913Y-103808354D01*
X234742620Y-103858596D01*
X234742627Y-103858598D01*
X234802155Y-103864999D01*
X234802172Y-103865000D01*
X235500000Y-103865000D01*
X235500000Y-102898012D01*
X235557007Y-102930925D01*
X235684174Y-102965000D01*
X235815826Y-102965000D01*
X235942993Y-102930925D01*
X236000000Y-102898012D01*
X236000000Y-103865000D01*
X236245500Y-103865000D01*
X236312539Y-103884685D01*
X236358294Y-103937489D01*
X236369500Y-103989000D01*
X236369500Y-106941000D01*
X236349815Y-107008039D01*
X236297011Y-107053794D01*
X236245500Y-107065000D01*
X236020000Y-107065000D01*
X236020000Y-108031988D01*
X235962993Y-107999075D01*
X235835826Y-107965000D01*
X235704174Y-107965000D01*
X235577007Y-107999075D01*
X235520000Y-108031988D01*
X235520000Y-107065000D01*
X234822155Y-107065000D01*
X234762627Y-107071401D01*
X234762620Y-107071403D01*
X234627913Y-107121645D01*
X234627906Y-107121649D01*
X234512812Y-107207809D01*
X234512809Y-107207812D01*
X234426649Y-107322906D01*
X234426645Y-107322913D01*
X234376403Y-107457620D01*
X234376401Y-107457627D01*
X234370000Y-107517155D01*
X234370000Y-107780159D01*
X234350315Y-107847198D01*
X234297511Y-107892953D01*
X234228353Y-107902897D01*
X234164797Y-107873872D01*
X234145682Y-107853045D01*
X234105512Y-107797756D01*
X234069414Y-107748072D01*
X233946928Y-107625586D01*
X233806788Y-107523768D01*
X233652445Y-107445127D01*
X233487701Y-107391598D01*
X233487699Y-107391597D01*
X233487698Y-107391597D01*
X233356271Y-107370781D01*
X233316611Y-107364500D01*
X233143389Y-107364500D01*
X233103728Y-107370781D01*
X232972302Y-107391597D01*
X232807552Y-107445128D01*
X232653211Y-107523768D01*
X232573256Y-107581859D01*
X232513072Y-107625586D01*
X232513070Y-107625588D01*
X232513069Y-107625588D01*
X232390588Y-107748069D01*
X232390588Y-107748070D01*
X232390586Y-107748072D01*
X232354488Y-107797756D01*
X232288768Y-107888211D01*
X232210128Y-108042552D01*
X232156597Y-108207302D01*
X232129500Y-108378389D01*
X232129500Y-108551610D01*
X232149978Y-108680908D01*
X232156598Y-108722701D01*
X232210127Y-108887445D01*
X232288768Y-109041788D01*
X232390586Y-109181928D01*
X232513072Y-109304414D01*
X232653212Y-109406232D01*
X232807555Y-109484873D01*
X232972299Y-109538402D01*
X233143389Y-109565500D01*
X233143390Y-109565500D01*
X233316610Y-109565500D01*
X233316611Y-109565500D01*
X233487701Y-109538402D01*
X233652445Y-109484873D01*
X233806788Y-109406232D01*
X233946928Y-109304414D01*
X234069414Y-109181928D01*
X234145682Y-109076953D01*
X234201012Y-109034289D01*
X234270626Y-109028310D01*
X234332421Y-109060916D01*
X234366778Y-109121755D01*
X234370000Y-109149840D01*
X234370000Y-109412844D01*
X234376401Y-109472372D01*
X234376403Y-109472379D01*
X234426645Y-109607086D01*
X234426649Y-109607093D01*
X234512809Y-109722187D01*
X234512812Y-109722190D01*
X234627906Y-109808350D01*
X234627913Y-109808354D01*
X234762620Y-109858596D01*
X234762627Y-109858598D01*
X234822155Y-109864999D01*
X234822172Y-109865000D01*
X235520000Y-109865000D01*
X235520000Y-108898012D01*
X235577007Y-108930925D01*
X235704174Y-108965000D01*
X235835826Y-108965000D01*
X235962993Y-108930925D01*
X236020000Y-108898012D01*
X236020000Y-109865000D01*
X236245500Y-109865000D01*
X236312539Y-109884685D01*
X236358294Y-109937489D01*
X236369500Y-109989000D01*
X236369500Y-111680355D01*
X236349815Y-111747394D01*
X236297011Y-111793149D01*
X236227853Y-111803093D01*
X236164297Y-111774068D01*
X236140506Y-111746327D01*
X236041764Y-111589182D01*
X236035892Y-111579836D01*
X235846779Y-111342696D01*
X235632304Y-111128221D01*
X235395164Y-110939108D01*
X235138341Y-110777735D01*
X235138338Y-110777733D01*
X234865068Y-110646133D01*
X234578783Y-110545957D01*
X234578771Y-110545953D01*
X234350556Y-110493864D01*
X234283063Y-110478460D01*
X234283060Y-110478459D01*
X234283048Y-110478457D01*
X233981663Y-110444500D01*
X233981657Y-110444500D01*
X233678343Y-110444500D01*
X233678336Y-110444500D01*
X233376951Y-110478457D01*
X233376937Y-110478460D01*
X233081228Y-110545953D01*
X233081216Y-110545957D01*
X232794931Y-110646133D01*
X232521661Y-110777733D01*
X232264837Y-110939107D01*
X232027696Y-111128220D01*
X231813220Y-111342696D01*
X231624107Y-111579837D01*
X231462733Y-111836661D01*
X231331133Y-112109931D01*
X231230957Y-112396216D01*
X231230953Y-112396228D01*
X231163460Y-112691937D01*
X231163457Y-112691951D01*
X231129500Y-112993336D01*
X231129500Y-113296663D01*
X231163457Y-113598048D01*
X231163460Y-113598062D01*
X231230953Y-113893771D01*
X231230957Y-113893783D01*
X231331133Y-114180068D01*
X231462733Y-114453338D01*
X231462735Y-114453341D01*
X231624108Y-114710164D01*
X231813221Y-114947304D01*
X232027696Y-115161779D01*
X232264836Y-115350892D01*
X232521659Y-115512265D01*
X232794935Y-115643868D01*
X233009951Y-115719105D01*
X233081216Y-115744042D01*
X233081228Y-115744046D01*
X233376937Y-115811540D01*
X233376946Y-115811541D01*
X233376951Y-115811542D01*
X233577874Y-115834180D01*
X233678337Y-115845499D01*
X233678340Y-115845500D01*
X233678343Y-115845500D01*
X233981660Y-115845500D01*
X233981661Y-115845499D01*
X234135694Y-115828144D01*
X234283048Y-115811542D01*
X234283051Y-115811541D01*
X234283063Y-115811540D01*
X234578772Y-115744046D01*
X234865065Y-115643868D01*
X235138341Y-115512265D01*
X235395164Y-115350892D01*
X235632304Y-115161779D01*
X235846779Y-114947304D01*
X236035892Y-114710164D01*
X236140506Y-114543671D01*
X236192841Y-114497381D01*
X236261894Y-114486733D01*
X236325743Y-114515108D01*
X236364115Y-114573497D01*
X236369500Y-114609644D01*
X236369500Y-116396324D01*
X236349815Y-116463363D01*
X236333181Y-116484005D01*
X231699005Y-121118181D01*
X231637682Y-121151666D01*
X231611324Y-121154500D01*
X202544500Y-121154500D01*
X202477461Y-121134815D01*
X202431706Y-121082011D01*
X202420500Y-121030500D01*
X202420500Y-107981379D01*
X202669500Y-107981379D01*
X202669500Y-108168620D01*
X202706025Y-108352243D01*
X202706027Y-108352251D01*
X202777676Y-108525228D01*
X202777681Y-108525237D01*
X202881697Y-108680907D01*
X202881700Y-108680911D01*
X203014088Y-108813299D01*
X203014092Y-108813302D01*
X203169762Y-108917318D01*
X203169768Y-108917321D01*
X203169769Y-108917322D01*
X203342749Y-108988973D01*
X203526379Y-109025499D01*
X203526383Y-109025500D01*
X203526384Y-109025500D01*
X204413617Y-109025500D01*
X204413618Y-109025499D01*
X204597251Y-108988973D01*
X204770231Y-108917322D01*
X204925908Y-108813302D01*
X205058302Y-108680908D01*
X205162322Y-108525231D01*
X205233973Y-108352251D01*
X205270500Y-108168616D01*
X205270500Y-107981384D01*
X205270499Y-107981379D01*
X227669500Y-107981379D01*
X227669500Y-108168620D01*
X227706025Y-108352243D01*
X227706027Y-108352251D01*
X227777676Y-108525228D01*
X227777681Y-108525237D01*
X227881697Y-108680907D01*
X227881700Y-108680911D01*
X228014088Y-108813299D01*
X228014092Y-108813302D01*
X228169762Y-108917318D01*
X228169768Y-108917321D01*
X228169769Y-108917322D01*
X228342749Y-108988973D01*
X228526379Y-109025499D01*
X228526383Y-109025500D01*
X228526384Y-109025500D01*
X229413617Y-109025500D01*
X229413618Y-109025499D01*
X229597251Y-108988973D01*
X229770231Y-108917322D01*
X229925908Y-108813302D01*
X230058302Y-108680908D01*
X230162322Y-108525231D01*
X230233973Y-108352251D01*
X230270500Y-108168616D01*
X230270500Y-107981384D01*
X230233973Y-107797749D01*
X230162661Y-107625588D01*
X230162323Y-107624771D01*
X230162318Y-107624762D01*
X230058302Y-107469092D01*
X230058299Y-107469088D01*
X229925911Y-107336700D01*
X229925907Y-107336697D01*
X229770237Y-107232681D01*
X229770228Y-107232676D01*
X229597251Y-107161027D01*
X229597243Y-107161025D01*
X229413620Y-107124500D01*
X229413616Y-107124500D01*
X228526384Y-107124500D01*
X228526379Y-107124500D01*
X228342756Y-107161025D01*
X228342748Y-107161027D01*
X228169771Y-107232676D01*
X228169762Y-107232681D01*
X228014092Y-107336697D01*
X228014088Y-107336700D01*
X227881700Y-107469088D01*
X227881697Y-107469092D01*
X227777681Y-107624762D01*
X227777676Y-107624771D01*
X227706027Y-107797748D01*
X227706025Y-107797756D01*
X227669500Y-107981379D01*
X205270499Y-107981379D01*
X205233973Y-107797749D01*
X205162661Y-107625588D01*
X205162323Y-107624771D01*
X205162318Y-107624762D01*
X205058302Y-107469092D01*
X205058299Y-107469088D01*
X204925911Y-107336700D01*
X204925907Y-107336697D01*
X204770237Y-107232681D01*
X204770228Y-107232676D01*
X204597251Y-107161027D01*
X204597243Y-107161025D01*
X204413620Y-107124500D01*
X204413616Y-107124500D01*
X203526384Y-107124500D01*
X203526379Y-107124500D01*
X203342756Y-107161025D01*
X203342748Y-107161027D01*
X203169771Y-107232676D01*
X203169762Y-107232681D01*
X203014092Y-107336697D01*
X203014088Y-107336700D01*
X202881700Y-107469088D01*
X202881697Y-107469092D01*
X202777681Y-107624762D01*
X202777676Y-107624771D01*
X202706027Y-107797748D01*
X202706025Y-107797756D01*
X202669500Y-107981379D01*
X202420500Y-107981379D01*
X202420500Y-106372288D01*
X202440185Y-106305249D01*
X202492989Y-106259494D01*
X202562147Y-106249550D01*
X202625703Y-106278575D01*
X202644818Y-106299403D01*
X202666551Y-106329316D01*
X202666556Y-106329322D01*
X202805678Y-106468444D01*
X202964856Y-106584095D01*
X203140164Y-106673418D01*
X203327294Y-106734221D01*
X203521618Y-106765000D01*
X203720000Y-106765000D01*
X203720000Y-106063482D01*
X203738409Y-106074111D01*
X203891009Y-106115000D01*
X204048991Y-106115000D01*
X204201591Y-106074111D01*
X204220000Y-106063482D01*
X204220000Y-106765000D01*
X204418382Y-106765000D01*
X204612705Y-106734221D01*
X204799835Y-106673418D01*
X204975143Y-106584095D01*
X205134321Y-106468444D01*
X205273444Y-106329321D01*
X205389095Y-106170143D01*
X205478418Y-105994837D01*
X205539218Y-105807716D01*
X205545984Y-105765000D01*
X204518482Y-105765000D01*
X204529111Y-105746591D01*
X204570000Y-105593991D01*
X204570000Y-105436009D01*
X204529111Y-105283409D01*
X204518482Y-105265000D01*
X205545984Y-105265000D01*
X227394016Y-105265000D01*
X228421518Y-105265000D01*
X228410889Y-105283409D01*
X228370000Y-105436009D01*
X228370000Y-105593991D01*
X228410889Y-105746591D01*
X228421518Y-105765000D01*
X227394016Y-105765000D01*
X227400781Y-105807716D01*
X227461581Y-105994837D01*
X227550904Y-106170143D01*
X227666555Y-106329321D01*
X227805678Y-106468444D01*
X227964856Y-106584095D01*
X228140164Y-106673418D01*
X228327294Y-106734221D01*
X228521618Y-106765000D01*
X228720000Y-106765000D01*
X228720000Y-106063482D01*
X228738409Y-106074111D01*
X228891009Y-106115000D01*
X229048991Y-106115000D01*
X229201591Y-106074111D01*
X229220000Y-106063482D01*
X229220000Y-106765000D01*
X229418382Y-106765000D01*
X229612705Y-106734221D01*
X229799835Y-106673418D01*
X229975143Y-106584095D01*
X230134321Y-106468444D01*
X230273444Y-106329321D01*
X230389095Y-106170143D01*
X230478418Y-105994837D01*
X230539218Y-105807716D01*
X230545984Y-105765000D01*
X229518482Y-105765000D01*
X229529111Y-105746591D01*
X229570000Y-105593991D01*
X229570000Y-105436009D01*
X229529111Y-105283409D01*
X229518482Y-105265000D01*
X230545984Y-105265000D01*
X230539218Y-105222283D01*
X230478418Y-105035162D01*
X230389095Y-104859856D01*
X230273444Y-104700678D01*
X230134321Y-104561555D01*
X229975143Y-104445904D01*
X229799835Y-104356581D01*
X229612705Y-104295778D01*
X229418382Y-104265000D01*
X229220000Y-104265000D01*
X229220000Y-104966517D01*
X229201591Y-104955889D01*
X229048991Y-104915000D01*
X228891009Y-104915000D01*
X228738409Y-104955889D01*
X228720000Y-104966517D01*
X228720000Y-104265000D01*
X228521618Y-104265000D01*
X228327294Y-104295778D01*
X228140164Y-104356581D01*
X227964856Y-104445904D01*
X227805678Y-104561555D01*
X227666555Y-104700678D01*
X227550904Y-104859856D01*
X227461581Y-105035162D01*
X227400781Y-105222283D01*
X227394016Y-105265000D01*
X205545984Y-105265000D01*
X205539218Y-105222283D01*
X205478418Y-105035162D01*
X205389095Y-104859856D01*
X205273444Y-104700678D01*
X205134321Y-104561555D01*
X204975143Y-104445904D01*
X204799835Y-104356581D01*
X204612705Y-104295778D01*
X204487144Y-104275891D01*
X204424009Y-104245962D01*
X204387078Y-104186650D01*
X204388076Y-104116788D01*
X204426686Y-104058555D01*
X204482351Y-104031801D01*
X204535968Y-104021135D01*
X204622251Y-104003973D01*
X204795231Y-103932322D01*
X204950908Y-103828302D01*
X205083302Y-103695908D01*
X205187322Y-103540231D01*
X205258973Y-103367251D01*
X205295500Y-103183616D01*
X205295500Y-102996384D01*
X205295349Y-102995628D01*
X205276196Y-102899332D01*
X205272595Y-102881228D01*
X228119500Y-102881228D01*
X228119500Y-103048771D01*
X228152182Y-103213074D01*
X228152184Y-103213082D01*
X228216295Y-103367860D01*
X228309373Y-103507162D01*
X228427837Y-103625626D01*
X228520494Y-103687537D01*
X228567137Y-103718703D01*
X228721918Y-103782816D01*
X228886228Y-103815499D01*
X228886232Y-103815500D01*
X228886233Y-103815500D01*
X229053768Y-103815500D01*
X229053769Y-103815499D01*
X229218082Y-103782816D01*
X229372863Y-103718703D01*
X229512162Y-103625626D01*
X229630626Y-103507162D01*
X229723703Y-103367863D01*
X229787816Y-103213082D01*
X229820500Y-103048767D01*
X229820500Y-102881233D01*
X229787816Y-102716918D01*
X229723703Y-102562137D01*
X229702782Y-102530826D01*
X229643703Y-102442407D01*
X229630628Y-102422840D01*
X229630623Y-102422834D01*
X229512162Y-102304373D01*
X229372860Y-102211295D01*
X229218082Y-102147184D01*
X229218074Y-102147182D01*
X229053771Y-102114500D01*
X229053767Y-102114500D01*
X228886233Y-102114500D01*
X228886228Y-102114500D01*
X228721925Y-102147182D01*
X228721917Y-102147184D01*
X228567139Y-102211295D01*
X228427837Y-102304373D01*
X228309373Y-102422837D01*
X228216295Y-102562139D01*
X228152184Y-102716917D01*
X228152182Y-102716925D01*
X228119500Y-102881228D01*
X205272595Y-102881228D01*
X205258974Y-102812756D01*
X205258973Y-102812749D01*
X205187322Y-102639769D01*
X205187321Y-102639768D01*
X205187318Y-102639762D01*
X205083302Y-102484092D01*
X205083299Y-102484088D01*
X204950911Y-102351700D01*
X204950907Y-102351697D01*
X204795237Y-102247681D01*
X204795228Y-102247676D01*
X204622251Y-102176027D01*
X204622243Y-102176025D01*
X204438620Y-102139500D01*
X204438616Y-102139500D01*
X203551384Y-102139500D01*
X203551379Y-102139500D01*
X203367756Y-102176025D01*
X203367748Y-102176027D01*
X203194771Y-102247676D01*
X203194762Y-102247681D01*
X203039092Y-102351697D01*
X203039088Y-102351700D01*
X202906700Y-102484088D01*
X202906697Y-102484092D01*
X202802681Y-102639762D01*
X202802676Y-102639771D01*
X202731027Y-102812748D01*
X202731025Y-102812756D01*
X202694500Y-102996379D01*
X202694500Y-103183620D01*
X202731025Y-103367243D01*
X202731027Y-103367251D01*
X202802676Y-103540228D01*
X202802681Y-103540237D01*
X202906697Y-103695907D01*
X202906700Y-103695911D01*
X203039088Y-103828299D01*
X203039092Y-103828302D01*
X203194762Y-103932318D01*
X203194768Y-103932321D01*
X203194769Y-103932322D01*
X203367749Y-104003973D01*
X203424194Y-104015200D01*
X203485483Y-104027392D01*
X203547394Y-104059777D01*
X203581968Y-104120492D01*
X203578229Y-104190262D01*
X203537363Y-104246934D01*
X203480691Y-104271482D01*
X203327293Y-104295778D01*
X203140164Y-104356581D01*
X202964856Y-104445904D01*
X202805678Y-104561555D01*
X202666553Y-104700680D01*
X202644817Y-104730598D01*
X202589487Y-104773263D01*
X202519873Y-104779241D01*
X202458078Y-104746634D01*
X202423722Y-104685795D01*
X202420500Y-104657711D01*
X202420500Y-100466228D01*
X203094500Y-100466228D01*
X203094500Y-100633771D01*
X203127182Y-100798074D01*
X203127184Y-100798082D01*
X203191295Y-100952860D01*
X203284373Y-101092162D01*
X203402837Y-101210626D01*
X203451015Y-101242817D01*
X203542137Y-101303703D01*
X203696918Y-101367816D01*
X203861228Y-101400499D01*
X203861232Y-101400500D01*
X203861233Y-101400500D01*
X204028768Y-101400500D01*
X204028769Y-101400499D01*
X204193082Y-101367816D01*
X204347863Y-101303703D01*
X204487162Y-101210626D01*
X204605626Y-101092162D01*
X204698703Y-100952863D01*
X204762816Y-100798082D01*
X204795500Y-100633767D01*
X204795500Y-100466233D01*
X204762816Y-100301918D01*
X204698703Y-100147137D01*
X204615182Y-100022139D01*
X204605626Y-100007837D01*
X204487162Y-99889373D01*
X204347860Y-99796295D01*
X204193082Y-99732184D01*
X204193074Y-99732182D01*
X204028771Y-99699500D01*
X204028767Y-99699500D01*
X203861233Y-99699500D01*
X203861228Y-99699500D01*
X203696925Y-99732182D01*
X203696917Y-99732184D01*
X203542139Y-99796295D01*
X203402837Y-99889373D01*
X203284373Y-100007837D01*
X203191295Y-100147139D01*
X203127184Y-100301917D01*
X203127182Y-100301925D01*
X203094500Y-100466228D01*
X202420500Y-100466228D01*
X202420500Y-97906228D01*
X203094500Y-97906228D01*
X203094500Y-98073771D01*
X203127182Y-98238074D01*
X203127184Y-98238082D01*
X203191295Y-98392860D01*
X203284373Y-98532162D01*
X203402837Y-98650626D01*
X203487683Y-98707318D01*
X203542137Y-98743703D01*
X203696918Y-98807816D01*
X203861228Y-98840499D01*
X203861232Y-98840500D01*
X203861233Y-98840500D01*
X204028768Y-98840500D01*
X204028769Y-98840499D01*
X204193082Y-98807816D01*
X204347863Y-98743703D01*
X204487162Y-98650626D01*
X204605626Y-98532162D01*
X204698703Y-98392863D01*
X204762816Y-98238082D01*
X204795500Y-98073767D01*
X204795500Y-97906233D01*
X204762816Y-97741918D01*
X204713227Y-97622201D01*
X204698704Y-97587139D01*
X204698673Y-97587093D01*
X204652776Y-97518402D01*
X204605626Y-97447837D01*
X204487162Y-97329373D01*
X204347860Y-97236295D01*
X204193082Y-97172184D01*
X204193074Y-97172182D01*
X204028771Y-97139500D01*
X204028767Y-97139500D01*
X203861233Y-97139500D01*
X203861228Y-97139500D01*
X203696925Y-97172182D01*
X203696917Y-97172184D01*
X203542139Y-97236295D01*
X203402837Y-97329373D01*
X203284373Y-97447837D01*
X203191295Y-97587139D01*
X203127184Y-97741917D01*
X203127182Y-97741925D01*
X203094500Y-97906228D01*
X202420500Y-97906228D01*
X202420500Y-95381379D01*
X202669500Y-95381379D01*
X202669500Y-95568620D01*
X202706025Y-95752243D01*
X202706027Y-95752251D01*
X202777676Y-95925228D01*
X202777681Y-95925237D01*
X202881697Y-96080907D01*
X202881700Y-96080911D01*
X203014088Y-96213299D01*
X203014092Y-96213302D01*
X203169762Y-96317318D01*
X203169768Y-96317321D01*
X203169769Y-96317322D01*
X203342749Y-96388973D01*
X203526379Y-96425499D01*
X203526383Y-96425500D01*
X203526384Y-96425500D01*
X204413617Y-96425500D01*
X204413618Y-96425499D01*
X204597251Y-96388973D01*
X204770231Y-96317322D01*
X204925908Y-96213302D01*
X205058302Y-96080908D01*
X205162322Y-95925231D01*
X205233973Y-95752251D01*
X205270500Y-95568616D01*
X205270500Y-95425943D01*
X212949500Y-95425943D01*
X212949500Y-95584056D01*
X212990423Y-95736783D01*
X212990426Y-95736790D01*
X213069475Y-95873709D01*
X213069479Y-95873714D01*
X213069480Y-95873716D01*
X213181284Y-95985520D01*
X213181286Y-95985521D01*
X213181290Y-95985524D01*
X213245431Y-96022555D01*
X213318216Y-96064577D01*
X213470943Y-96105500D01*
X213470945Y-96105500D01*
X213629055Y-96105500D01*
X213629057Y-96105500D01*
X213781784Y-96064577D01*
X213918716Y-95985520D01*
X214030520Y-95873716D01*
X214109577Y-95736784D01*
X214150500Y-95584057D01*
X214150500Y-95425943D01*
X214109577Y-95273216D01*
X214067112Y-95199663D01*
X214050500Y-95137664D01*
X214050500Y-89874930D01*
X214070185Y-89807891D01*
X214076128Y-89799438D01*
X214080512Y-89793723D01*
X214080520Y-89793716D01*
X214159577Y-89656784D01*
X214200500Y-89504057D01*
X214200500Y-89423996D01*
X216789499Y-89423996D01*
X216816418Y-89559322D01*
X216816420Y-89559328D01*
X216840061Y-89616402D01*
X216849500Y-89663855D01*
X216849500Y-96566007D01*
X216849500Y-99983993D01*
X216849500Y-99983995D01*
X216849499Y-99983995D01*
X216876418Y-100119322D01*
X216876421Y-100119332D01*
X216929221Y-100246804D01*
X216929228Y-100246817D01*
X217005885Y-100361541D01*
X217005888Y-100361545D01*
X217103454Y-100459111D01*
X217103458Y-100459114D01*
X217218182Y-100535771D01*
X217218195Y-100535778D01*
X217345667Y-100588578D01*
X217345672Y-100588580D01*
X217345676Y-100588580D01*
X217345677Y-100588581D01*
X217481004Y-100615500D01*
X217481007Y-100615500D01*
X217618995Y-100615500D01*
X217710041Y-100597389D01*
X217754328Y-100588580D01*
X217881811Y-100535775D01*
X217996542Y-100459114D01*
X218094114Y-100361542D01*
X218107687Y-100341228D01*
X228069500Y-100341228D01*
X228069500Y-100508771D01*
X228102182Y-100673074D01*
X228102184Y-100673082D01*
X228166295Y-100827860D01*
X228259373Y-100967162D01*
X228377837Y-101085626D01*
X228431744Y-101121645D01*
X228517137Y-101178703D01*
X228671918Y-101242816D01*
X228836228Y-101275499D01*
X228836232Y-101275500D01*
X228836233Y-101275500D01*
X229003768Y-101275500D01*
X229003769Y-101275499D01*
X229168082Y-101242816D01*
X229322863Y-101178703D01*
X229462162Y-101085626D01*
X229580626Y-100967162D01*
X229673703Y-100827863D01*
X229737816Y-100673082D01*
X229770500Y-100508767D01*
X229770500Y-100341233D01*
X229737816Y-100176918D01*
X229673703Y-100022137D01*
X229642537Y-99975494D01*
X229580626Y-99882837D01*
X229462162Y-99764373D01*
X229322860Y-99671295D01*
X229168082Y-99607184D01*
X229168074Y-99607182D01*
X229003771Y-99574500D01*
X229003767Y-99574500D01*
X228836233Y-99574500D01*
X228836228Y-99574500D01*
X228671925Y-99607182D01*
X228671917Y-99607184D01*
X228517139Y-99671295D01*
X228377837Y-99764373D01*
X228259373Y-99882837D01*
X228166295Y-100022139D01*
X228102184Y-100176917D01*
X228102182Y-100176925D01*
X228069500Y-100341228D01*
X218107687Y-100341228D01*
X218133954Y-100301917D01*
X218157787Y-100266250D01*
X218170771Y-100246817D01*
X218170771Y-100246816D01*
X218170775Y-100246811D01*
X218223580Y-100119328D01*
X218250500Y-99983993D01*
X218250500Y-99295023D01*
X218254725Y-99262930D01*
X218270500Y-99204057D01*
X218270500Y-99045943D01*
X218254725Y-98987068D01*
X218250500Y-98954976D01*
X218250500Y-97771379D01*
X227619500Y-97771379D01*
X227619500Y-97958620D01*
X227656025Y-98142243D01*
X227656027Y-98142251D01*
X227727676Y-98315228D01*
X227727681Y-98315237D01*
X227831697Y-98470907D01*
X227831700Y-98470911D01*
X227964088Y-98603299D01*
X227964092Y-98603302D01*
X228119762Y-98707318D01*
X228119768Y-98707321D01*
X228119769Y-98707322D01*
X228292749Y-98778973D01*
X228437749Y-98807815D01*
X228476379Y-98815499D01*
X228476383Y-98815500D01*
X228476384Y-98815500D01*
X229363617Y-98815500D01*
X229363618Y-98815499D01*
X229547251Y-98778973D01*
X229720231Y-98707322D01*
X229875908Y-98603302D01*
X230008302Y-98470908D01*
X230112322Y-98315231D01*
X230183973Y-98142251D01*
X230220500Y-97958616D01*
X230220500Y-97771384D01*
X230183973Y-97587749D01*
X230112322Y-97414769D01*
X230112321Y-97414768D01*
X230112318Y-97414762D01*
X230008302Y-97259092D01*
X230008299Y-97259088D01*
X229875911Y-97126700D01*
X229875907Y-97126697D01*
X229720237Y-97022681D01*
X229720228Y-97022676D01*
X229547251Y-96951027D01*
X229547243Y-96951025D01*
X229363620Y-96914500D01*
X229363616Y-96914500D01*
X228476384Y-96914500D01*
X228476379Y-96914500D01*
X228292756Y-96951025D01*
X228292748Y-96951027D01*
X228119771Y-97022676D01*
X228119762Y-97022681D01*
X227964092Y-97126697D01*
X227964088Y-97126700D01*
X227831700Y-97259088D01*
X227831697Y-97259092D01*
X227727681Y-97414762D01*
X227727676Y-97414771D01*
X227656027Y-97587748D01*
X227656025Y-97587756D01*
X227619500Y-97771379D01*
X218250500Y-97771379D01*
X218250500Y-95256379D01*
X227644500Y-95256379D01*
X227644500Y-95443620D01*
X227681025Y-95627243D01*
X227681027Y-95627251D01*
X227752676Y-95800228D01*
X227752681Y-95800237D01*
X227856697Y-95955907D01*
X227856700Y-95955911D01*
X227989088Y-96088299D01*
X227989092Y-96088302D01*
X228144762Y-96192318D01*
X228144768Y-96192321D01*
X228144769Y-96192322D01*
X228317749Y-96263973D01*
X228501379Y-96300499D01*
X228501383Y-96300500D01*
X228501384Y-96300500D01*
X229388617Y-96300500D01*
X229388618Y-96300499D01*
X229572251Y-96263973D01*
X229745231Y-96192322D01*
X229900908Y-96088302D01*
X230033302Y-95955908D01*
X230137322Y-95800231D01*
X230208973Y-95627251D01*
X230245500Y-95443616D01*
X230245500Y-95256384D01*
X230208973Y-95072749D01*
X230137322Y-94899769D01*
X230137321Y-94899768D01*
X230137318Y-94899762D01*
X230033302Y-94744092D01*
X230033299Y-94744088D01*
X229900911Y-94611700D01*
X229900907Y-94611697D01*
X229745237Y-94507681D01*
X229745228Y-94507676D01*
X229572251Y-94436027D01*
X229572243Y-94436025D01*
X229388620Y-94399500D01*
X229388616Y-94399500D01*
X228501384Y-94399500D01*
X228501379Y-94399500D01*
X228317756Y-94436025D01*
X228317748Y-94436027D01*
X228144771Y-94507676D01*
X228144762Y-94507681D01*
X227989092Y-94611697D01*
X227989088Y-94611700D01*
X227856700Y-94744088D01*
X227856697Y-94744092D01*
X227752681Y-94899762D01*
X227752676Y-94899771D01*
X227681027Y-95072748D01*
X227681025Y-95072756D01*
X227644500Y-95256379D01*
X218250500Y-95256379D01*
X218250500Y-89346005D01*
X218246368Y-89325234D01*
X218231624Y-89251114D01*
X218223580Y-89210672D01*
X218197980Y-89148869D01*
X218196425Y-89144019D01*
X218196195Y-89134779D01*
X218190500Y-89106145D01*
X218190500Y-88725023D01*
X218194725Y-88692930D01*
X218204636Y-88655943D01*
X219189500Y-88655943D01*
X219189500Y-88814057D01*
X219224446Y-88944475D01*
X219230423Y-88966783D01*
X219230426Y-88966790D01*
X219309473Y-89103706D01*
X219309477Y-89103712D01*
X219309480Y-89103716D01*
X219309482Y-89103718D01*
X219313872Y-89109438D01*
X219339069Y-89174606D01*
X219339500Y-89184930D01*
X219339500Y-92797664D01*
X219322888Y-92859663D01*
X219280423Y-92933215D01*
X219280423Y-92933216D01*
X219239500Y-93085943D01*
X219239500Y-93244057D01*
X219241694Y-93252243D01*
X219280423Y-93396783D01*
X219280426Y-93396790D01*
X219359475Y-93533709D01*
X219359479Y-93533714D01*
X219359480Y-93533716D01*
X219471284Y-93645520D01*
X219471286Y-93645521D01*
X219471290Y-93645524D01*
X219566511Y-93700499D01*
X219608216Y-93724577D01*
X219760943Y-93765500D01*
X219760945Y-93765500D01*
X219919055Y-93765500D01*
X219919057Y-93765500D01*
X220071784Y-93724577D01*
X220208716Y-93645520D01*
X220320520Y-93533716D01*
X220399577Y-93396784D01*
X220440500Y-93244057D01*
X220440500Y-93085943D01*
X220399577Y-92933216D01*
X220369652Y-92881384D01*
X220340566Y-92831004D01*
X220340564Y-92831001D01*
X220320520Y-92796284D01*
X220290464Y-92766228D01*
X228119500Y-92766228D01*
X228119500Y-92933771D01*
X228152182Y-93098074D01*
X228152184Y-93098082D01*
X228216295Y-93252860D01*
X228309373Y-93392162D01*
X228427837Y-93510626D01*
X228520494Y-93572537D01*
X228567137Y-93603703D01*
X228721918Y-93667816D01*
X228886228Y-93700499D01*
X228886232Y-93700500D01*
X228886233Y-93700500D01*
X229053768Y-93700500D01*
X229053769Y-93700499D01*
X229218082Y-93667816D01*
X229372863Y-93603703D01*
X229512162Y-93510626D01*
X229630626Y-93392162D01*
X229723703Y-93252863D01*
X229787816Y-93098082D01*
X229820500Y-92933767D01*
X229820500Y-92766233D01*
X229787816Y-92601918D01*
X229723703Y-92447137D01*
X229671552Y-92369088D01*
X229630626Y-92307837D01*
X229512162Y-92189373D01*
X229372860Y-92096295D01*
X229218082Y-92032184D01*
X229218074Y-92032182D01*
X229053771Y-91999500D01*
X229053767Y-91999500D01*
X228886233Y-91999500D01*
X228886228Y-91999500D01*
X228721925Y-92032182D01*
X228721917Y-92032184D01*
X228567139Y-92096295D01*
X228427837Y-92189373D01*
X228309373Y-92307837D01*
X228216295Y-92447139D01*
X228152184Y-92601917D01*
X228152182Y-92601925D01*
X228119500Y-92766228D01*
X220290464Y-92766228D01*
X220272556Y-92748320D01*
X220268733Y-92743672D01*
X220257305Y-92716847D01*
X220243334Y-92691260D01*
X220242296Y-92681614D01*
X220241350Y-92679392D01*
X220241783Y-92676841D01*
X220240500Y-92664902D01*
X220240500Y-90196379D01*
X227669500Y-90196379D01*
X227669500Y-90383620D01*
X227706025Y-90567243D01*
X227706027Y-90567251D01*
X227777676Y-90740228D01*
X227777681Y-90740237D01*
X227881697Y-90895907D01*
X227881700Y-90895911D01*
X228014088Y-91028299D01*
X228014092Y-91028302D01*
X228169762Y-91132318D01*
X228169768Y-91132321D01*
X228169769Y-91132322D01*
X228342749Y-91203973D01*
X228526379Y-91240499D01*
X228526383Y-91240500D01*
X228526384Y-91240500D01*
X229413617Y-91240500D01*
X229413618Y-91240499D01*
X229597251Y-91203973D01*
X229770231Y-91132322D01*
X229925908Y-91028302D01*
X230058302Y-90895908D01*
X230162322Y-90740231D01*
X230233973Y-90567251D01*
X230270500Y-90383616D01*
X230270500Y-90196384D01*
X230233973Y-90012749D01*
X230162322Y-89839769D01*
X230162321Y-89839768D01*
X230162318Y-89839762D01*
X230058302Y-89684092D01*
X230058299Y-89684088D01*
X229925911Y-89551700D01*
X229925907Y-89551697D01*
X229770237Y-89447681D01*
X229770228Y-89447676D01*
X229597251Y-89376027D01*
X229597243Y-89376025D01*
X229413620Y-89339500D01*
X229413616Y-89339500D01*
X228526384Y-89339500D01*
X228526379Y-89339500D01*
X228342756Y-89376025D01*
X228342748Y-89376027D01*
X228169771Y-89447676D01*
X228169762Y-89447681D01*
X228014092Y-89551697D01*
X228014088Y-89551700D01*
X227881700Y-89684088D01*
X227881697Y-89684092D01*
X227777681Y-89839762D01*
X227777676Y-89839771D01*
X227706027Y-90012748D01*
X227706025Y-90012756D01*
X227669500Y-90196379D01*
X220240500Y-90196379D01*
X220240500Y-89184930D01*
X220260185Y-89117891D01*
X220266128Y-89109438D01*
X220270512Y-89103723D01*
X220270520Y-89103716D01*
X220349577Y-88966784D01*
X220390500Y-88814057D01*
X220390500Y-88655943D01*
X220349577Y-88503216D01*
X220349573Y-88503209D01*
X220270524Y-88366290D01*
X220270518Y-88366282D01*
X220158717Y-88254481D01*
X220158709Y-88254475D01*
X220021790Y-88175426D01*
X220021786Y-88175424D01*
X220021784Y-88175423D01*
X219869057Y-88134500D01*
X219710943Y-88134500D01*
X219558216Y-88175423D01*
X219558209Y-88175426D01*
X219421290Y-88254475D01*
X219421282Y-88254481D01*
X219309481Y-88366282D01*
X219309475Y-88366290D01*
X219230426Y-88503209D01*
X219230423Y-88503216D01*
X219189500Y-88655943D01*
X218204636Y-88655943D01*
X218210500Y-88634057D01*
X218210500Y-88475943D01*
X218194725Y-88417068D01*
X218190500Y-88384976D01*
X218190500Y-87656379D01*
X227619500Y-87656379D01*
X227619500Y-87843620D01*
X227656025Y-88027243D01*
X227656027Y-88027251D01*
X227727676Y-88200228D01*
X227727681Y-88200237D01*
X227831697Y-88355907D01*
X227831700Y-88355911D01*
X227964088Y-88488299D01*
X227964092Y-88488302D01*
X228119762Y-88592318D01*
X228119768Y-88592321D01*
X228119769Y-88592322D01*
X228292749Y-88663973D01*
X228438327Y-88692930D01*
X228476379Y-88700499D01*
X228476383Y-88700500D01*
X228476384Y-88700500D01*
X229363617Y-88700500D01*
X229363618Y-88700499D01*
X229547251Y-88663973D01*
X229720231Y-88592322D01*
X229875908Y-88488302D01*
X230008302Y-88355908D01*
X230112322Y-88200231D01*
X230183973Y-88027251D01*
X230220500Y-87843616D01*
X230220500Y-87656384D01*
X230183973Y-87472749D01*
X230112322Y-87299769D01*
X230112321Y-87299768D01*
X230112318Y-87299762D01*
X230008302Y-87144092D01*
X230008299Y-87144088D01*
X229875911Y-87011700D01*
X229875907Y-87011697D01*
X229720237Y-86907681D01*
X229720228Y-86907676D01*
X229547251Y-86836027D01*
X229547243Y-86836025D01*
X229363620Y-86799500D01*
X229363616Y-86799500D01*
X228476384Y-86799500D01*
X228476379Y-86799500D01*
X228292756Y-86836025D01*
X228292748Y-86836027D01*
X228119771Y-86907676D01*
X228119762Y-86907681D01*
X227964092Y-87011697D01*
X227964088Y-87011700D01*
X227831700Y-87144088D01*
X227831697Y-87144092D01*
X227727681Y-87299762D01*
X227727676Y-87299771D01*
X227656027Y-87472748D01*
X227656025Y-87472756D01*
X227619500Y-87656379D01*
X218190500Y-87656379D01*
X218190500Y-86936004D01*
X218163581Y-86800677D01*
X218163580Y-86800676D01*
X218163580Y-86800672D01*
X218153977Y-86777489D01*
X218110778Y-86673195D01*
X218110771Y-86673182D01*
X218034114Y-86558458D01*
X218034111Y-86558454D01*
X217936545Y-86460888D01*
X217936541Y-86460885D01*
X217821817Y-86384228D01*
X217821804Y-86384221D01*
X217694332Y-86331421D01*
X217694322Y-86331418D01*
X217558995Y-86304500D01*
X217558993Y-86304500D01*
X217421007Y-86304500D01*
X217421005Y-86304500D01*
X217285677Y-86331418D01*
X217285667Y-86331421D01*
X217158195Y-86384221D01*
X217158182Y-86384228D01*
X217043458Y-86460885D01*
X217043454Y-86460888D01*
X216945888Y-86558454D01*
X216945885Y-86558458D01*
X216869228Y-86673182D01*
X216869221Y-86673195D01*
X216816421Y-86800667D01*
X216816418Y-86800677D01*
X216789500Y-86936004D01*
X216789500Y-86936007D01*
X216789500Y-89286006D01*
X216789500Y-89423994D01*
X216789500Y-89423996D01*
X216789499Y-89423996D01*
X214200500Y-89423996D01*
X214200500Y-89345943D01*
X214159577Y-89193216D01*
X214148833Y-89174606D01*
X214080524Y-89056290D01*
X214080518Y-89056282D01*
X213968717Y-88944481D01*
X213968709Y-88944475D01*
X213831790Y-88865426D01*
X213831786Y-88865424D01*
X213831784Y-88865423D01*
X213679057Y-88824500D01*
X213520943Y-88824500D01*
X213368216Y-88865423D01*
X213368209Y-88865426D01*
X213231290Y-88944475D01*
X213231282Y-88944481D01*
X213119481Y-89056282D01*
X213119475Y-89056290D01*
X213040426Y-89193209D01*
X213040423Y-89193216D01*
X212999500Y-89345943D01*
X212999500Y-89504057D01*
X213017887Y-89572676D01*
X213040423Y-89656783D01*
X213040426Y-89656790D01*
X213119473Y-89793706D01*
X213119477Y-89793712D01*
X213119480Y-89793716D01*
X213119482Y-89793718D01*
X213123872Y-89799438D01*
X213149069Y-89864606D01*
X213149500Y-89874930D01*
X213149500Y-95004902D01*
X213129815Y-95071941D01*
X213113181Y-95092583D01*
X213069481Y-95136282D01*
X213069475Y-95136290D01*
X212990426Y-95273209D01*
X212990423Y-95273216D01*
X212949500Y-95425943D01*
X205270500Y-95425943D01*
X205270500Y-95381384D01*
X205233973Y-95197749D01*
X205162322Y-95024769D01*
X205162321Y-95024768D01*
X205162318Y-95024762D01*
X205058302Y-94869092D01*
X205058299Y-94869088D01*
X204925911Y-94736700D01*
X204925907Y-94736697D01*
X204770237Y-94632681D01*
X204770228Y-94632676D01*
X204597251Y-94561027D01*
X204597243Y-94561025D01*
X204413620Y-94524500D01*
X204413616Y-94524500D01*
X203526384Y-94524500D01*
X203526379Y-94524500D01*
X203342756Y-94561025D01*
X203342748Y-94561027D01*
X203169771Y-94632676D01*
X203169762Y-94632681D01*
X203014092Y-94736697D01*
X203014088Y-94736700D01*
X202881700Y-94869088D01*
X202881697Y-94869092D01*
X202777681Y-95024762D01*
X202777676Y-95024771D01*
X202706027Y-95197748D01*
X202706025Y-95197756D01*
X202669500Y-95381379D01*
X202420500Y-95381379D01*
X202420500Y-92881379D01*
X202694500Y-92881379D01*
X202694500Y-93068620D01*
X202731025Y-93252243D01*
X202731027Y-93252251D01*
X202802676Y-93425228D01*
X202802681Y-93425237D01*
X202906697Y-93580907D01*
X202906700Y-93580911D01*
X203039088Y-93713299D01*
X203039092Y-93713302D01*
X203194762Y-93817318D01*
X203194768Y-93817321D01*
X203194769Y-93817322D01*
X203367749Y-93888973D01*
X203551379Y-93925499D01*
X203551383Y-93925500D01*
X203551384Y-93925500D01*
X204438617Y-93925500D01*
X204438618Y-93925499D01*
X204622251Y-93888973D01*
X204795231Y-93817322D01*
X204950908Y-93713302D01*
X205083302Y-93580908D01*
X205187322Y-93425231D01*
X205258973Y-93252251D01*
X205295500Y-93068616D01*
X205295500Y-92881384D01*
X205258973Y-92697749D01*
X205187322Y-92524769D01*
X205187321Y-92524768D01*
X205187318Y-92524762D01*
X205083302Y-92369092D01*
X205083299Y-92369088D01*
X204950911Y-92236700D01*
X204950907Y-92236697D01*
X204795237Y-92132681D01*
X204795228Y-92132676D01*
X204622251Y-92061027D01*
X204622243Y-92061025D01*
X204438620Y-92024500D01*
X204438616Y-92024500D01*
X203551384Y-92024500D01*
X203551379Y-92024500D01*
X203367756Y-92061025D01*
X203367748Y-92061027D01*
X203194771Y-92132676D01*
X203194762Y-92132681D01*
X203039092Y-92236697D01*
X203039088Y-92236700D01*
X202906700Y-92369088D01*
X202906697Y-92369092D01*
X202802681Y-92524762D01*
X202802676Y-92524771D01*
X202731027Y-92697748D01*
X202731025Y-92697756D01*
X202694500Y-92881379D01*
X202420500Y-92881379D01*
X202420500Y-90321379D01*
X202694500Y-90321379D01*
X202694500Y-90508620D01*
X202731025Y-90692243D01*
X202731027Y-90692251D01*
X202802676Y-90865228D01*
X202802681Y-90865237D01*
X202906697Y-91020907D01*
X202906700Y-91020911D01*
X203039088Y-91153299D01*
X203039092Y-91153302D01*
X203194762Y-91257318D01*
X203194768Y-91257321D01*
X203194769Y-91257322D01*
X203367749Y-91328973D01*
X203551379Y-91365499D01*
X203551383Y-91365500D01*
X203551384Y-91365500D01*
X204438617Y-91365500D01*
X204438618Y-91365499D01*
X204622251Y-91328973D01*
X204795231Y-91257322D01*
X204950908Y-91153302D01*
X205083302Y-91020908D01*
X205187322Y-90865231D01*
X205258973Y-90692251D01*
X205295500Y-90508616D01*
X205295500Y-90321384D01*
X205258973Y-90137749D01*
X205187322Y-89964769D01*
X205187321Y-89964768D01*
X205187318Y-89964762D01*
X205083302Y-89809092D01*
X205083299Y-89809088D01*
X204950911Y-89676700D01*
X204950907Y-89676697D01*
X204795237Y-89572681D01*
X204795228Y-89572676D01*
X204622251Y-89501027D01*
X204622243Y-89501025D01*
X204438620Y-89464500D01*
X204438616Y-89464500D01*
X203551384Y-89464500D01*
X203551379Y-89464500D01*
X203367756Y-89501025D01*
X203367748Y-89501027D01*
X203194771Y-89572676D01*
X203194762Y-89572681D01*
X203039092Y-89676697D01*
X203039088Y-89676700D01*
X202906700Y-89809088D01*
X202906697Y-89809092D01*
X202802681Y-89964762D01*
X202802676Y-89964771D01*
X202731027Y-90137748D01*
X202731025Y-90137756D01*
X202694500Y-90321379D01*
X202420500Y-90321379D01*
X202420500Y-88101486D01*
X202440185Y-88034447D01*
X202492989Y-87988692D01*
X202562147Y-87978748D01*
X202625703Y-88007773D01*
X202663477Y-88066551D01*
X202666117Y-88077295D01*
X202681025Y-88152243D01*
X202681027Y-88152251D01*
X202752676Y-88325228D01*
X202752681Y-88325237D01*
X202856697Y-88480907D01*
X202856700Y-88480911D01*
X202989088Y-88613299D01*
X202989092Y-88613302D01*
X203144762Y-88717318D01*
X203144768Y-88717321D01*
X203144769Y-88717322D01*
X203317749Y-88788973D01*
X203443846Y-88814055D01*
X203501379Y-88825499D01*
X203501383Y-88825500D01*
X203501384Y-88825500D01*
X204388617Y-88825500D01*
X204388618Y-88825499D01*
X204572251Y-88788973D01*
X204745231Y-88717322D01*
X204900908Y-88613302D01*
X205033302Y-88480908D01*
X205137322Y-88325231D01*
X205208973Y-88152251D01*
X205245500Y-87968616D01*
X205245500Y-87781384D01*
X205208973Y-87597749D01*
X205137322Y-87424769D01*
X205137321Y-87424768D01*
X205137318Y-87424762D01*
X205033302Y-87269092D01*
X205033299Y-87269088D01*
X204900911Y-87136700D01*
X204900907Y-87136697D01*
X204745739Y-87033017D01*
X204745738Y-87033016D01*
X204745736Y-87033015D01*
X204745235Y-87032680D01*
X204745228Y-87032676D01*
X204572251Y-86961027D01*
X204572243Y-86961025D01*
X204388620Y-86924500D01*
X204388616Y-86924500D01*
X203501384Y-86924500D01*
X203501379Y-86924500D01*
X203317756Y-86961025D01*
X203317748Y-86961027D01*
X203144771Y-87032676D01*
X203144762Y-87032681D01*
X202989092Y-87136697D01*
X202989088Y-87136700D01*
X202856700Y-87269088D01*
X202856697Y-87269092D01*
X202752681Y-87424762D01*
X202752676Y-87424771D01*
X202681027Y-87597748D01*
X202681025Y-87597756D01*
X202666117Y-87672704D01*
X202633732Y-87734615D01*
X202573017Y-87769189D01*
X202503247Y-87765450D01*
X202446575Y-87724583D01*
X202420994Y-87659565D01*
X202420500Y-87648513D01*
X202420500Y-86539110D01*
X202420500Y-86539108D01*
X202386392Y-86411814D01*
X202320500Y-86297686D01*
X202227314Y-86204500D01*
X202139799Y-86153973D01*
X202113187Y-86138608D01*
X202049539Y-86121554D01*
X201985892Y-86104500D01*
X201985891Y-86104500D01*
X177964000Y-86104500D01*
X177896961Y-86084815D01*
X177851206Y-86032011D01*
X177840000Y-85980500D01*
X177840000Y-85146379D01*
X202644500Y-85146379D01*
X202644500Y-85333620D01*
X202681025Y-85517243D01*
X202681027Y-85517251D01*
X202752676Y-85690228D01*
X202752681Y-85690237D01*
X202856697Y-85845907D01*
X202856700Y-85845911D01*
X202989088Y-85978299D01*
X202989092Y-85978302D01*
X203144762Y-86082318D01*
X203144771Y-86082323D01*
X203183956Y-86098554D01*
X203317749Y-86153973D01*
X203501379Y-86190499D01*
X203501383Y-86190500D01*
X203501384Y-86190500D01*
X204388617Y-86190500D01*
X204388618Y-86190499D01*
X204572251Y-86153973D01*
X204745231Y-86082322D01*
X204900908Y-85978302D01*
X205033302Y-85845908D01*
X205137322Y-85690231D01*
X205208973Y-85517251D01*
X205245500Y-85333616D01*
X205245500Y-85146384D01*
X205245499Y-85146379D01*
X227644500Y-85146379D01*
X227644500Y-85333620D01*
X227681025Y-85517243D01*
X227681027Y-85517251D01*
X227752676Y-85690228D01*
X227752681Y-85690237D01*
X227856697Y-85845907D01*
X227856700Y-85845911D01*
X227989088Y-85978299D01*
X227989092Y-85978302D01*
X228144762Y-86082318D01*
X228144771Y-86082323D01*
X228183956Y-86098554D01*
X228317749Y-86153973D01*
X228501379Y-86190499D01*
X228501383Y-86190500D01*
X228501384Y-86190500D01*
X229388617Y-86190500D01*
X229388618Y-86190499D01*
X229572251Y-86153973D01*
X229745231Y-86082322D01*
X229900908Y-85978302D01*
X230033302Y-85845908D01*
X230137322Y-85690231D01*
X230208973Y-85517251D01*
X230245500Y-85333616D01*
X230245500Y-85146384D01*
X230208973Y-84962749D01*
X230137322Y-84789769D01*
X230137321Y-84789768D01*
X230137318Y-84789762D01*
X230033302Y-84634092D01*
X230033299Y-84634088D01*
X229900911Y-84501700D01*
X229900907Y-84501697D01*
X229745237Y-84397681D01*
X229745228Y-84397676D01*
X229572251Y-84326027D01*
X229572243Y-84326025D01*
X229388620Y-84289500D01*
X229388616Y-84289500D01*
X228501384Y-84289500D01*
X228501379Y-84289500D01*
X228317756Y-84326025D01*
X228317748Y-84326027D01*
X228144771Y-84397676D01*
X228144762Y-84397681D01*
X227989092Y-84501697D01*
X227989088Y-84501700D01*
X227856700Y-84634088D01*
X227856697Y-84634092D01*
X227752681Y-84789762D01*
X227752676Y-84789771D01*
X227681027Y-84962748D01*
X227681025Y-84962756D01*
X227644500Y-85146379D01*
X205245499Y-85146379D01*
X205208973Y-84962749D01*
X205137322Y-84789769D01*
X205137321Y-84789768D01*
X205137318Y-84789762D01*
X205033302Y-84634092D01*
X205033299Y-84634088D01*
X204900911Y-84501700D01*
X204900907Y-84501697D01*
X204745237Y-84397681D01*
X204745228Y-84397676D01*
X204572251Y-84326027D01*
X204572243Y-84326025D01*
X204388620Y-84289500D01*
X204388616Y-84289500D01*
X203501384Y-84289500D01*
X203501379Y-84289500D01*
X203317756Y-84326025D01*
X203317748Y-84326027D01*
X203144771Y-84397676D01*
X203144762Y-84397681D01*
X202989092Y-84501697D01*
X202989088Y-84501700D01*
X202856700Y-84634088D01*
X202856697Y-84634092D01*
X202752681Y-84789762D01*
X202752676Y-84789771D01*
X202681027Y-84962748D01*
X202681025Y-84962756D01*
X202644500Y-85146379D01*
X177840000Y-85146379D01*
X177840000Y-82220013D01*
X180145000Y-82220013D01*
X180145000Y-82645000D01*
X181029252Y-82645000D01*
X181007482Y-82682708D01*
X180970000Y-82822591D01*
X180970000Y-82967409D01*
X181007482Y-83107292D01*
X181029252Y-83145000D01*
X180145001Y-83145000D01*
X180145001Y-83569986D01*
X180155494Y-83672697D01*
X180210641Y-83839119D01*
X180210643Y-83839124D01*
X180302684Y-83988345D01*
X180426654Y-84112315D01*
X180575875Y-84204356D01*
X180575880Y-84204358D01*
X180742302Y-84259505D01*
X180742309Y-84259506D01*
X180845019Y-84269999D01*
X181269999Y-84269999D01*
X181270000Y-84269998D01*
X181270000Y-83385747D01*
X181307708Y-83407518D01*
X181447591Y-83445000D01*
X181592409Y-83445000D01*
X181732292Y-83407518D01*
X181770000Y-83385747D01*
X181770000Y-84269999D01*
X182194972Y-84269999D01*
X182194986Y-84269998D01*
X182297697Y-84259505D01*
X182464119Y-84204358D01*
X182464124Y-84204356D01*
X182613345Y-84112315D01*
X182737315Y-83988345D01*
X182829356Y-83839124D01*
X182829358Y-83839119D01*
X182884505Y-83672697D01*
X182884506Y-83672690D01*
X182894999Y-83569986D01*
X182895000Y-83569973D01*
X182895000Y-83145000D01*
X182010748Y-83145000D01*
X182032518Y-83107292D01*
X182070000Y-82967409D01*
X182070000Y-82822591D01*
X182066720Y-82810350D01*
X184254500Y-82810350D01*
X184254500Y-82979649D01*
X184280981Y-83146847D01*
X184333296Y-83307853D01*
X184352402Y-83345349D01*
X184403186Y-83445018D01*
X184410152Y-83458688D01*
X184509648Y-83595634D01*
X184509652Y-83595639D01*
X184629360Y-83715347D01*
X184629365Y-83715351D01*
X184680980Y-83752851D01*
X184766315Y-83814850D01*
X184839907Y-83852347D01*
X184917146Y-83891703D01*
X184917148Y-83891703D01*
X184917151Y-83891705D01*
X185003450Y-83919745D01*
X185078152Y-83944018D01*
X185245351Y-83970500D01*
X185245356Y-83970500D01*
X185414649Y-83970500D01*
X185581847Y-83944018D01*
X185627436Y-83929205D01*
X185742849Y-83891705D01*
X185893685Y-83814850D01*
X186030641Y-83715346D01*
X186150346Y-83595641D01*
X186249850Y-83458685D01*
X186326705Y-83307849D01*
X186379018Y-83146847D01*
X186381650Y-83130228D01*
X186405500Y-82979649D01*
X186405500Y-82810350D01*
X188064500Y-82810350D01*
X188064500Y-82979649D01*
X188090981Y-83146847D01*
X188143296Y-83307853D01*
X188162402Y-83345349D01*
X188213186Y-83445018D01*
X188220152Y-83458688D01*
X188319648Y-83595634D01*
X188319652Y-83595639D01*
X188439360Y-83715347D01*
X188439365Y-83715351D01*
X188490980Y-83752851D01*
X188576315Y-83814850D01*
X188649907Y-83852347D01*
X188727146Y-83891703D01*
X188727148Y-83891703D01*
X188727151Y-83891705D01*
X188813450Y-83919745D01*
X188888152Y-83944018D01*
X189055351Y-83970500D01*
X189055356Y-83970500D01*
X189224649Y-83970500D01*
X189391847Y-83944018D01*
X189437436Y-83929205D01*
X189552849Y-83891705D01*
X189703685Y-83814850D01*
X189840641Y-83715346D01*
X189960346Y-83595641D01*
X190059850Y-83458685D01*
X190136705Y-83307849D01*
X190189018Y-83146847D01*
X190192471Y-83125039D01*
X190194579Y-83111739D01*
X190194579Y-83111738D01*
X190215500Y-82979649D01*
X190215500Y-82810350D01*
X190189018Y-82643152D01*
X190161120Y-82557292D01*
X190136705Y-82482151D01*
X190136703Y-82482148D01*
X190136703Y-82482146D01*
X190059849Y-82331313D01*
X190056894Y-82327246D01*
X190056893Y-82327243D01*
X190006231Y-82257513D01*
X192810000Y-82257513D01*
X192810000Y-82682500D01*
X193694252Y-82682500D01*
X193672482Y-82720208D01*
X193635000Y-82860091D01*
X193635000Y-83004909D01*
X193672482Y-83144792D01*
X193694252Y-83182500D01*
X192810001Y-83182500D01*
X192810001Y-83607486D01*
X192820494Y-83710197D01*
X192875641Y-83876619D01*
X192875643Y-83876624D01*
X192967684Y-84025845D01*
X193091654Y-84149815D01*
X193240875Y-84241856D01*
X193240880Y-84241858D01*
X193407302Y-84297005D01*
X193407309Y-84297006D01*
X193510019Y-84307499D01*
X193934999Y-84307499D01*
X193935000Y-84307498D01*
X193935000Y-83423247D01*
X193972708Y-83445018D01*
X194112591Y-83482500D01*
X194257409Y-83482500D01*
X194397292Y-83445018D01*
X194435000Y-83423247D01*
X194435000Y-84307499D01*
X194859972Y-84307499D01*
X194859986Y-84307498D01*
X194962697Y-84297005D01*
X195129119Y-84241858D01*
X195129124Y-84241856D01*
X195278345Y-84149815D01*
X195402315Y-84025845D01*
X195494356Y-83876624D01*
X195494358Y-83876619D01*
X195549505Y-83710197D01*
X195549506Y-83710190D01*
X195559999Y-83607486D01*
X195560000Y-83607473D01*
X195560000Y-83182500D01*
X194675748Y-83182500D01*
X194697518Y-83144792D01*
X194735000Y-83004909D01*
X194735000Y-82860091D01*
X194731720Y-82847850D01*
X196919500Y-82847850D01*
X196919500Y-83017149D01*
X196945981Y-83184347D01*
X196998296Y-83345353D01*
X197075152Y-83496188D01*
X197174648Y-83633134D01*
X197174652Y-83633139D01*
X197294360Y-83752847D01*
X197294365Y-83752851D01*
X197379696Y-83814847D01*
X197431315Y-83852350D01*
X197527425Y-83901320D01*
X197582146Y-83929203D01*
X197582148Y-83929203D01*
X197582151Y-83929205D01*
X197668450Y-83957245D01*
X197743152Y-83981518D01*
X197910351Y-84008000D01*
X197910356Y-84008000D01*
X198079649Y-84008000D01*
X198246847Y-83981518D01*
X198407849Y-83929205D01*
X198558685Y-83852350D01*
X198695641Y-83752846D01*
X198815346Y-83633141D01*
X198914850Y-83496185D01*
X198991705Y-83345349D01*
X199044018Y-83184347D01*
X199049957Y-83146848D01*
X199070500Y-83017149D01*
X199070500Y-82847850D01*
X199044018Y-82680652D01*
X199023859Y-82618611D01*
X199016588Y-82596232D01*
X199013387Y-82586379D01*
X202644500Y-82586379D01*
X202644500Y-82773620D01*
X202681025Y-82957243D01*
X202681027Y-82957251D01*
X202752676Y-83130228D01*
X202752681Y-83130237D01*
X202856697Y-83285907D01*
X202856700Y-83285911D01*
X202989088Y-83418299D01*
X202989092Y-83418302D01*
X203144762Y-83522318D01*
X203144768Y-83522321D01*
X203144769Y-83522322D01*
X203317749Y-83593973D01*
X203501379Y-83630499D01*
X203501383Y-83630500D01*
X203501384Y-83630500D01*
X204388617Y-83630500D01*
X204388618Y-83630499D01*
X204572251Y-83593973D01*
X204745231Y-83522322D01*
X204900908Y-83418302D01*
X205033302Y-83285908D01*
X205137322Y-83130231D01*
X205208973Y-82957251D01*
X205245500Y-82773616D01*
X205245500Y-82596228D01*
X228094500Y-82596228D01*
X228094500Y-82763771D01*
X228127182Y-82928074D01*
X228127184Y-82928082D01*
X228191295Y-83082860D01*
X228284373Y-83222162D01*
X228402837Y-83340626D01*
X228409906Y-83345349D01*
X228542137Y-83433703D01*
X228542138Y-83433703D01*
X228542139Y-83433704D01*
X228577201Y-83448227D01*
X228696918Y-83497816D01*
X228861228Y-83530499D01*
X228861232Y-83530500D01*
X228861233Y-83530500D01*
X229028768Y-83530500D01*
X229028769Y-83530499D01*
X229193082Y-83497816D01*
X229347863Y-83433703D01*
X229487162Y-83340626D01*
X229605626Y-83222162D01*
X229698703Y-83082863D01*
X229762816Y-82928082D01*
X229795500Y-82763767D01*
X229795500Y-82596233D01*
X229762816Y-82431918D01*
X229698703Y-82277137D01*
X229660534Y-82220013D01*
X229605626Y-82137837D01*
X229487162Y-82019373D01*
X229347860Y-81926295D01*
X229193082Y-81862184D01*
X229193074Y-81862182D01*
X229028771Y-81829500D01*
X229028767Y-81829500D01*
X228861233Y-81829500D01*
X228861228Y-81829500D01*
X228696925Y-81862182D01*
X228696917Y-81862184D01*
X228542139Y-81926295D01*
X228402837Y-82019373D01*
X228284373Y-82137837D01*
X228191295Y-82277139D01*
X228127184Y-82431917D01*
X228127182Y-82431925D01*
X228094500Y-82596228D01*
X205245500Y-82596228D01*
X205245500Y-82586384D01*
X205208973Y-82402749D01*
X205137322Y-82229769D01*
X205137321Y-82229768D01*
X205137318Y-82229762D01*
X205033302Y-82074092D01*
X205033299Y-82074088D01*
X204900911Y-81941700D01*
X204900907Y-81941697D01*
X204745237Y-81837681D01*
X204745228Y-81837676D01*
X204572251Y-81766027D01*
X204572243Y-81766025D01*
X204388620Y-81729500D01*
X204388616Y-81729500D01*
X203501384Y-81729500D01*
X203501379Y-81729500D01*
X203317756Y-81766025D01*
X203317748Y-81766027D01*
X203144771Y-81837676D01*
X203144762Y-81837681D01*
X202989092Y-81941697D01*
X202989088Y-81941700D01*
X202856700Y-82074088D01*
X202856697Y-82074092D01*
X202752681Y-82229762D01*
X202752676Y-82229771D01*
X202681027Y-82402748D01*
X202681025Y-82402756D01*
X202644500Y-82586379D01*
X199013387Y-82586379D01*
X198991705Y-82519651D01*
X198991703Y-82519648D01*
X198991703Y-82519646D01*
X198963820Y-82464925D01*
X198914850Y-82368815D01*
X198905585Y-82356062D01*
X198815352Y-82231866D01*
X198815348Y-82231862D01*
X198815346Y-82231859D01*
X198731818Y-82148331D01*
X198698334Y-82087007D01*
X198695500Y-82060650D01*
X198695500Y-75205943D01*
X200949500Y-75205943D01*
X200949500Y-75364057D01*
X200990009Y-75515237D01*
X200990423Y-75516783D01*
X200990426Y-75516790D01*
X201069473Y-75653706D01*
X201069477Y-75653712D01*
X201069480Y-75653716D01*
X201069482Y-75653718D01*
X201073872Y-75659438D01*
X201099069Y-75724606D01*
X201099500Y-75734930D01*
X201099500Y-80565069D01*
X201079815Y-80632108D01*
X201073875Y-80640557D01*
X201069475Y-80646290D01*
X200990426Y-80783209D01*
X200990423Y-80783216D01*
X200949500Y-80935943D01*
X200949500Y-81094056D01*
X200990423Y-81246783D01*
X200990426Y-81246790D01*
X201069475Y-81383709D01*
X201069479Y-81383714D01*
X201069480Y-81383716D01*
X201181284Y-81495520D01*
X201181286Y-81495521D01*
X201181290Y-81495524D01*
X201241861Y-81530494D01*
X201318216Y-81574577D01*
X201470943Y-81615500D01*
X201470945Y-81615500D01*
X201629055Y-81615500D01*
X201629057Y-81615500D01*
X201781784Y-81574577D01*
X201918716Y-81495520D01*
X202030520Y-81383716D01*
X202109577Y-81246784D01*
X202150500Y-81094057D01*
X202150500Y-80935943D01*
X202109577Y-80783216D01*
X202051234Y-80682162D01*
X202030524Y-80646290D01*
X202030521Y-80646287D01*
X202030520Y-80646284D01*
X202030517Y-80646281D01*
X202026125Y-80640557D01*
X202000930Y-80575388D01*
X202000500Y-80565069D01*
X202000500Y-80056228D01*
X203044500Y-80056228D01*
X203044500Y-80223771D01*
X203077182Y-80388074D01*
X203077184Y-80388082D01*
X203141295Y-80542860D01*
X203234373Y-80682162D01*
X203352837Y-80800626D01*
X203445494Y-80862537D01*
X203492137Y-80893703D01*
X203646918Y-80957816D01*
X203811228Y-80990499D01*
X203811232Y-80990500D01*
X203811233Y-80990500D01*
X203978768Y-80990500D01*
X203978769Y-80990499D01*
X204143082Y-80957816D01*
X204297863Y-80893703D01*
X204437162Y-80800626D01*
X204555626Y-80682162D01*
X204648703Y-80542863D01*
X204712816Y-80388082D01*
X204745500Y-80223767D01*
X204745500Y-80056233D01*
X204745499Y-80056228D01*
X228044500Y-80056228D01*
X228044500Y-80223771D01*
X228077182Y-80388074D01*
X228077184Y-80388082D01*
X228141295Y-80542860D01*
X228234373Y-80682162D01*
X228352837Y-80800626D01*
X228445494Y-80862537D01*
X228492137Y-80893703D01*
X228646918Y-80957816D01*
X228811228Y-80990499D01*
X228811232Y-80990500D01*
X228811233Y-80990500D01*
X228978768Y-80990500D01*
X228978769Y-80990499D01*
X229143082Y-80957816D01*
X229297863Y-80893703D01*
X229437162Y-80800626D01*
X229555626Y-80682162D01*
X229648703Y-80542863D01*
X229712816Y-80388082D01*
X229745500Y-80223767D01*
X229745500Y-80056233D01*
X229712816Y-79891918D01*
X229648703Y-79737137D01*
X229617537Y-79690494D01*
X229555626Y-79597837D01*
X229437162Y-79479373D01*
X229297860Y-79386295D01*
X229143082Y-79322184D01*
X229143074Y-79322182D01*
X228978771Y-79289500D01*
X228978767Y-79289500D01*
X228811233Y-79289500D01*
X228811228Y-79289500D01*
X228646925Y-79322182D01*
X228646917Y-79322184D01*
X228492139Y-79386295D01*
X228352837Y-79479373D01*
X228234373Y-79597837D01*
X228141295Y-79737139D01*
X228077184Y-79891917D01*
X228077182Y-79891925D01*
X228044500Y-80056228D01*
X204745499Y-80056228D01*
X204712816Y-79891918D01*
X204648703Y-79737137D01*
X204617537Y-79690494D01*
X204555626Y-79597837D01*
X204437162Y-79479373D01*
X204297860Y-79386295D01*
X204143082Y-79322184D01*
X204143074Y-79322182D01*
X203978771Y-79289500D01*
X203978767Y-79289500D01*
X203811233Y-79289500D01*
X203811228Y-79289500D01*
X203646925Y-79322182D01*
X203646917Y-79322184D01*
X203492139Y-79386295D01*
X203352837Y-79479373D01*
X203234373Y-79597837D01*
X203141295Y-79737139D01*
X203077184Y-79891917D01*
X203077182Y-79891925D01*
X203044500Y-80056228D01*
X202000500Y-80056228D01*
X202000500Y-77496228D01*
X203044500Y-77496228D01*
X203044500Y-77663771D01*
X203077182Y-77828074D01*
X203077184Y-77828082D01*
X203141295Y-77982860D01*
X203234373Y-78122162D01*
X203352837Y-78240626D01*
X203445494Y-78302537D01*
X203492137Y-78333703D01*
X203646918Y-78397816D01*
X203811228Y-78430499D01*
X203811232Y-78430500D01*
X203811233Y-78430500D01*
X203978768Y-78430500D01*
X203978769Y-78430499D01*
X204143082Y-78397816D01*
X204297863Y-78333703D01*
X204437162Y-78240626D01*
X204555626Y-78122162D01*
X204648703Y-77982863D01*
X204712816Y-77828082D01*
X204745500Y-77663767D01*
X204745500Y-77496233D01*
X204745499Y-77496228D01*
X228044500Y-77496228D01*
X228044500Y-77663771D01*
X228077182Y-77828074D01*
X228077184Y-77828082D01*
X228141295Y-77982860D01*
X228234373Y-78122162D01*
X228352837Y-78240626D01*
X228445494Y-78302537D01*
X228492137Y-78333703D01*
X228646918Y-78397816D01*
X228811228Y-78430499D01*
X228811232Y-78430500D01*
X228811233Y-78430500D01*
X228978768Y-78430500D01*
X228978769Y-78430499D01*
X229143082Y-78397816D01*
X229297863Y-78333703D01*
X229437162Y-78240626D01*
X229555626Y-78122162D01*
X229648703Y-77982863D01*
X229712816Y-77828082D01*
X229745500Y-77663767D01*
X229745500Y-77496233D01*
X229712816Y-77331918D01*
X229648703Y-77177137D01*
X229617537Y-77130494D01*
X229555626Y-77037837D01*
X229437162Y-76919373D01*
X229297860Y-76826295D01*
X229143082Y-76762184D01*
X229143074Y-76762182D01*
X228978771Y-76729500D01*
X228978767Y-76729500D01*
X228811233Y-76729500D01*
X228811228Y-76729500D01*
X228646925Y-76762182D01*
X228646917Y-76762184D01*
X228492139Y-76826295D01*
X228352837Y-76919373D01*
X228234373Y-77037837D01*
X228141295Y-77177139D01*
X228077184Y-77331917D01*
X228077182Y-77331925D01*
X228044500Y-77496228D01*
X204745499Y-77496228D01*
X204712816Y-77331918D01*
X204648703Y-77177137D01*
X204617537Y-77130494D01*
X204555626Y-77037837D01*
X204437162Y-76919373D01*
X204297860Y-76826295D01*
X204143082Y-76762184D01*
X204143074Y-76762182D01*
X203978771Y-76729500D01*
X203978767Y-76729500D01*
X203811233Y-76729500D01*
X203811228Y-76729500D01*
X203646925Y-76762182D01*
X203646917Y-76762184D01*
X203492139Y-76826295D01*
X203352837Y-76919373D01*
X203234373Y-77037837D01*
X203141295Y-77177139D01*
X203077184Y-77331917D01*
X203077182Y-77331925D01*
X203044500Y-77496228D01*
X202000500Y-77496228D01*
X202000500Y-75734930D01*
X202020185Y-75667891D01*
X202026128Y-75659438D01*
X202030512Y-75653723D01*
X202030520Y-75653716D01*
X202109577Y-75516784D01*
X202150500Y-75364057D01*
X202150500Y-75205943D01*
X202109577Y-75053216D01*
X202062329Y-74971379D01*
X202619500Y-74971379D01*
X202619500Y-75158620D01*
X202656025Y-75342243D01*
X202656027Y-75342251D01*
X202727676Y-75515228D01*
X202727681Y-75515237D01*
X202831697Y-75670907D01*
X202831700Y-75670911D01*
X202964088Y-75803299D01*
X202964092Y-75803302D01*
X203119762Y-75907318D01*
X203119768Y-75907321D01*
X203119769Y-75907322D01*
X203292749Y-75978973D01*
X203476379Y-76015499D01*
X203476383Y-76015500D01*
X203476384Y-76015500D01*
X204363617Y-76015500D01*
X204363618Y-76015499D01*
X204547251Y-75978973D01*
X204720231Y-75907322D01*
X204875908Y-75803302D01*
X205008302Y-75670908D01*
X205112322Y-75515231D01*
X205183973Y-75342251D01*
X205220500Y-75158616D01*
X205220500Y-74981228D01*
X228069500Y-74981228D01*
X228069500Y-75148771D01*
X228102182Y-75313074D01*
X228102184Y-75313082D01*
X228166295Y-75467860D01*
X228259373Y-75607162D01*
X228377837Y-75725626D01*
X228391762Y-75734930D01*
X228517137Y-75818703D01*
X228671918Y-75882816D01*
X228836228Y-75915499D01*
X228836232Y-75915500D01*
X228836233Y-75915500D01*
X229003768Y-75915500D01*
X229003769Y-75915499D01*
X229168082Y-75882816D01*
X229322863Y-75818703D01*
X229462162Y-75725626D01*
X229580626Y-75607162D01*
X229673703Y-75467863D01*
X229737816Y-75313082D01*
X229770500Y-75148767D01*
X229770500Y-74981233D01*
X229737816Y-74816918D01*
X229673703Y-74662137D01*
X229614703Y-74573837D01*
X229580626Y-74522837D01*
X229462162Y-74404373D01*
X229322860Y-74311295D01*
X229168082Y-74247184D01*
X229168074Y-74247182D01*
X229003771Y-74214500D01*
X229003767Y-74214500D01*
X228836233Y-74214500D01*
X228836228Y-74214500D01*
X228671925Y-74247182D01*
X228671917Y-74247184D01*
X228517139Y-74311295D01*
X228377837Y-74404373D01*
X228259373Y-74522837D01*
X228166295Y-74662139D01*
X228102184Y-74816917D01*
X228102182Y-74816925D01*
X228069500Y-74981228D01*
X205220500Y-74981228D01*
X205220500Y-74971384D01*
X205183973Y-74787749D01*
X205112322Y-74614769D01*
X205112321Y-74614768D01*
X205112318Y-74614762D01*
X205008302Y-74459092D01*
X205008299Y-74459088D01*
X204875911Y-74326700D01*
X204875907Y-74326697D01*
X204720237Y-74222681D01*
X204720228Y-74222676D01*
X204547251Y-74151027D01*
X204547243Y-74151025D01*
X204363620Y-74114500D01*
X204363616Y-74114500D01*
X203476384Y-74114500D01*
X203476379Y-74114500D01*
X203292756Y-74151025D01*
X203292748Y-74151027D01*
X203119771Y-74222676D01*
X203119762Y-74222681D01*
X202964092Y-74326697D01*
X202964088Y-74326700D01*
X202831700Y-74459088D01*
X202831697Y-74459092D01*
X202727681Y-74614762D01*
X202727676Y-74614771D01*
X202656027Y-74787748D01*
X202656025Y-74787756D01*
X202619500Y-74971379D01*
X202062329Y-74971379D01*
X202030520Y-74916284D01*
X201918716Y-74804480D01*
X201918714Y-74804479D01*
X201918709Y-74804475D01*
X201781790Y-74725426D01*
X201781786Y-74725424D01*
X201781784Y-74725423D01*
X201629057Y-74684500D01*
X201470943Y-74684500D01*
X201318216Y-74725423D01*
X201318209Y-74725426D01*
X201181290Y-74804475D01*
X201181282Y-74804481D01*
X201069481Y-74916282D01*
X201069475Y-74916290D01*
X200990426Y-75053209D01*
X200990423Y-75053216D01*
X200949500Y-75205943D01*
X198695500Y-75205943D01*
X198695500Y-74661518D01*
X198715185Y-74594479D01*
X198731819Y-74573837D01*
X199651661Y-73653995D01*
X216769499Y-73653995D01*
X216796418Y-73789322D01*
X216796421Y-73789332D01*
X216849221Y-73916804D01*
X216849228Y-73916817D01*
X216925885Y-74031541D01*
X216925888Y-74031545D01*
X217023454Y-74129111D01*
X217023458Y-74129114D01*
X217138182Y-74205771D01*
X217138195Y-74205778D01*
X217247382Y-74251004D01*
X217265672Y-74258580D01*
X217265676Y-74258580D01*
X217265677Y-74258581D01*
X217401004Y-74285500D01*
X217401007Y-74285500D01*
X217538995Y-74285500D01*
X217630041Y-74267389D01*
X217674328Y-74258580D01*
X217801811Y-74205775D01*
X217916542Y-74129114D01*
X218014114Y-74031542D01*
X218090775Y-73916811D01*
X218143580Y-73789328D01*
X218170500Y-73653993D01*
X218170500Y-72411379D01*
X227619500Y-72411379D01*
X227619500Y-72598620D01*
X227656025Y-72782243D01*
X227656027Y-72782251D01*
X227727676Y-72955228D01*
X227727681Y-72955237D01*
X227831697Y-73110907D01*
X227831700Y-73110911D01*
X227964088Y-73243299D01*
X227964092Y-73243302D01*
X228119762Y-73347318D01*
X228119768Y-73347321D01*
X228119769Y-73347322D01*
X228292749Y-73418973D01*
X228476379Y-73455499D01*
X228476383Y-73455500D01*
X228476384Y-73455500D01*
X229363617Y-73455500D01*
X229363618Y-73455499D01*
X229547251Y-73418973D01*
X229720231Y-73347322D01*
X229875908Y-73243302D01*
X230008302Y-73110908D01*
X230112322Y-72955231D01*
X230183973Y-72782251D01*
X230220500Y-72598616D01*
X230220500Y-72411384D01*
X230183973Y-72227749D01*
X230112322Y-72054769D01*
X230112321Y-72054768D01*
X230112318Y-72054762D01*
X230008302Y-71899092D01*
X230008299Y-71899088D01*
X229875911Y-71766700D01*
X229875907Y-71766697D01*
X229720237Y-71662681D01*
X229720228Y-71662676D01*
X229547251Y-71591027D01*
X229547243Y-71591025D01*
X229363620Y-71554500D01*
X229363616Y-71554500D01*
X228476384Y-71554500D01*
X228476379Y-71554500D01*
X228292756Y-71591025D01*
X228292748Y-71591027D01*
X228119771Y-71662676D01*
X228119762Y-71662681D01*
X227964092Y-71766697D01*
X227964088Y-71766700D01*
X227831700Y-71899088D01*
X227831697Y-71899092D01*
X227727681Y-72054762D01*
X227727676Y-72054771D01*
X227656027Y-72227748D01*
X227656027Y-72227749D01*
X227619500Y-72411379D01*
X218170500Y-72411379D01*
X218170500Y-71166007D01*
X218170500Y-65085943D01*
X220029500Y-65085943D01*
X220029500Y-65244057D01*
X220035592Y-65266790D01*
X220070423Y-65396783D01*
X220070426Y-65396790D01*
X220149475Y-65533709D01*
X220149479Y-65533714D01*
X220149480Y-65533716D01*
X220261284Y-65645520D01*
X220261286Y-65645521D01*
X220261290Y-65645524D01*
X220398209Y-65724573D01*
X220398216Y-65724577D01*
X220550943Y-65765500D01*
X220550945Y-65765500D01*
X220565006Y-65765500D01*
X220632045Y-65785185D01*
X220677800Y-65837989D01*
X220687744Y-65907147D01*
X220684781Y-65921592D01*
X220659500Y-66015943D01*
X220659500Y-66174057D01*
X220691654Y-66294055D01*
X220700423Y-66326783D01*
X220700426Y-66326790D01*
X220779475Y-66463709D01*
X220779479Y-66463714D01*
X220779480Y-66463716D01*
X220891284Y-66575520D01*
X220891286Y-66575521D01*
X220891290Y-66575524D01*
X220943192Y-66605489D01*
X221028216Y-66654577D01*
X221180943Y-66695500D01*
X221180945Y-66695500D01*
X221339055Y-66695500D01*
X221339057Y-66695500D01*
X221352663Y-66691854D01*
X221422513Y-66693515D01*
X221480376Y-66732677D01*
X221507881Y-66796905D01*
X221496295Y-66865807D01*
X221492146Y-66873627D01*
X221440423Y-66963215D01*
X221440423Y-66963216D01*
X221399500Y-67115943D01*
X221399500Y-67274057D01*
X221437127Y-67414481D01*
X221440423Y-67426783D01*
X221440426Y-67426790D01*
X221519475Y-67563709D01*
X221519479Y-67563714D01*
X221519480Y-67563716D01*
X221631284Y-67675520D01*
X221631286Y-67675521D01*
X221631290Y-67675524D01*
X221739299Y-67737882D01*
X221768216Y-67754577D01*
X221920943Y-67795500D01*
X221920945Y-67795500D01*
X222079055Y-67795500D01*
X222079057Y-67795500D01*
X222231784Y-67754577D01*
X222231794Y-67754571D01*
X222233153Y-67754009D01*
X222234405Y-67753874D01*
X222239635Y-67752473D01*
X222239853Y-67753288D01*
X222302621Y-67746534D01*
X222365103Y-67777804D01*
X222400761Y-67837890D01*
X222400390Y-67900659D01*
X222380723Y-67974057D01*
X222369500Y-68015943D01*
X222369500Y-68174057D01*
X222393525Y-68263717D01*
X222410423Y-68326783D01*
X222410426Y-68326790D01*
X222489475Y-68463709D01*
X222489479Y-68463714D01*
X222489480Y-68463716D01*
X222601284Y-68575520D01*
X222601286Y-68575521D01*
X222601290Y-68575524D01*
X222738209Y-68654573D01*
X222738216Y-68654577D01*
X222890943Y-68695500D01*
X222890945Y-68695500D01*
X223049055Y-68695500D01*
X223049057Y-68695500D01*
X223201784Y-68654577D01*
X223338716Y-68575520D01*
X223338721Y-68575514D01*
X223344443Y-68571125D01*
X223409612Y-68545930D01*
X223419931Y-68545500D01*
X227539308Y-68545500D01*
X227539309Y-68545500D01*
X227629673Y-68521286D01*
X227653887Y-68514799D01*
X227756614Y-68455489D01*
X227830284Y-68381819D01*
X227891607Y-68348334D01*
X227917965Y-68345500D01*
X229510069Y-68345500D01*
X229577108Y-68365185D01*
X229585557Y-68371125D01*
X229591281Y-68375517D01*
X229591284Y-68375520D01*
X229591287Y-68375521D01*
X229591290Y-68375524D01*
X229728209Y-68454573D01*
X229728216Y-68454577D01*
X229880943Y-68495500D01*
X229880945Y-68495500D01*
X230039055Y-68495500D01*
X230039057Y-68495500D01*
X230191784Y-68454577D01*
X230328716Y-68375520D01*
X230440520Y-68263716D01*
X230519577Y-68126784D01*
X230560500Y-67974057D01*
X230560500Y-67815943D01*
X230519577Y-67663216D01*
X230509349Y-67645500D01*
X230440524Y-67526290D01*
X230440518Y-67526282D01*
X230328717Y-67414481D01*
X230328709Y-67414475D01*
X230191790Y-67335426D01*
X230191786Y-67335424D01*
X230191784Y-67335423D01*
X230039057Y-67294500D01*
X229880943Y-67294500D01*
X229728216Y-67335423D01*
X229728209Y-67335426D01*
X229591290Y-67414475D01*
X229585557Y-67418875D01*
X229520388Y-67444070D01*
X229510069Y-67444500D01*
X227620691Y-67444500D01*
X227530325Y-67468713D01*
X227530324Y-67468712D01*
X227506115Y-67475200D01*
X227506106Y-67475204D01*
X227403392Y-67534505D01*
X227403384Y-67534511D01*
X227329715Y-67608181D01*
X227302787Y-67622884D01*
X227276969Y-67639477D01*
X227270768Y-67640368D01*
X227268392Y-67641666D01*
X227242034Y-67644500D01*
X227104426Y-67644500D01*
X227037387Y-67624815D01*
X226991632Y-67572011D01*
X226981688Y-67502853D01*
X226997037Y-67458503D01*
X227009577Y-67436784D01*
X227050500Y-67284057D01*
X227050500Y-67125943D01*
X227009577Y-66973216D01*
X226940298Y-66853221D01*
X226923826Y-66785321D01*
X226946679Y-66719295D01*
X226963532Y-66701830D01*
X226962969Y-66701267D01*
X227009663Y-66654573D01*
X227080520Y-66583716D01*
X227159577Y-66446784D01*
X227200500Y-66294057D01*
X227200500Y-66135943D01*
X227159577Y-65983216D01*
X227134799Y-65940298D01*
X227080524Y-65846290D01*
X227080518Y-65846282D01*
X226968717Y-65734481D01*
X226968709Y-65734475D01*
X226831790Y-65655426D01*
X226831786Y-65655424D01*
X226831784Y-65655423D01*
X226679057Y-65614500D01*
X226520943Y-65614500D01*
X226368216Y-65655423D01*
X226368209Y-65655426D01*
X226231290Y-65734475D01*
X226231282Y-65734481D01*
X226207583Y-65758181D01*
X226146260Y-65791666D01*
X226119902Y-65794500D01*
X225818282Y-65794500D01*
X225751243Y-65774815D01*
X225705488Y-65722011D01*
X225695544Y-65652853D01*
X225724569Y-65589297D01*
X225756283Y-65563112D01*
X225838716Y-65515520D01*
X225950520Y-65403716D01*
X226029577Y-65266784D01*
X226070500Y-65114057D01*
X226070500Y-64955943D01*
X226029577Y-64803216D01*
X226025574Y-64796282D01*
X225950524Y-64666290D01*
X225950518Y-64666282D01*
X225838717Y-64554481D01*
X225838709Y-64554475D01*
X225701790Y-64475426D01*
X225701786Y-64475424D01*
X225701784Y-64475423D01*
X225549057Y-64434500D01*
X225390943Y-64434500D01*
X225238216Y-64475423D01*
X225238209Y-64475426D01*
X225101290Y-64554475D01*
X225101282Y-64554481D01*
X224983733Y-64672031D01*
X224982761Y-64671059D01*
X224933282Y-64707189D01*
X224891333Y-64714500D01*
X221079931Y-64714500D01*
X221012892Y-64694815D01*
X221004443Y-64688875D01*
X220998709Y-64684475D01*
X220861790Y-64605426D01*
X220861786Y-64605424D01*
X220861784Y-64605423D01*
X220709057Y-64564500D01*
X220550943Y-64564500D01*
X220398216Y-64605423D01*
X220398209Y-64605426D01*
X220261290Y-64684475D01*
X220261282Y-64684481D01*
X220149481Y-64796282D01*
X220149475Y-64796290D01*
X220070426Y-64933209D01*
X220070423Y-64933216D01*
X220029500Y-65085943D01*
X218170500Y-65085943D01*
X218170500Y-62527997D01*
X218179939Y-62480544D01*
X218213580Y-62399328D01*
X218240500Y-62263994D01*
X218240500Y-62206518D01*
X218249144Y-62177077D01*
X218255668Y-62147091D01*
X218259422Y-62142075D01*
X218260185Y-62139479D01*
X218276819Y-62118837D01*
X218413837Y-61981819D01*
X218475160Y-61948334D01*
X218501518Y-61945500D01*
X219048996Y-61945500D01*
X219140040Y-61927389D01*
X219184328Y-61918580D01*
X219248069Y-61892177D01*
X219311807Y-61865777D01*
X219311808Y-61865776D01*
X219311811Y-61865775D01*
X219426543Y-61789114D01*
X219834114Y-61381543D01*
X219910775Y-61266811D01*
X219963580Y-61139329D01*
X219990499Y-61003994D01*
X219990499Y-60866006D01*
X219963580Y-60730672D01*
X219910775Y-60603189D01*
X219834114Y-60488457D01*
X219834112Y-60488454D01*
X219736545Y-60390887D01*
X219676683Y-60350889D01*
X219621811Y-60314225D01*
X219621808Y-60314223D01*
X219621807Y-60314223D01*
X219494331Y-60261421D01*
X219494329Y-60261420D01*
X219494328Y-60261420D01*
X219494323Y-60261419D01*
X219494319Y-60261418D01*
X219358998Y-60234501D01*
X219358994Y-60234501D01*
X219221006Y-60234501D01*
X219221001Y-60234501D01*
X219085678Y-60261418D01*
X219085668Y-60261421D01*
X218958190Y-60314224D01*
X218843456Y-60390886D01*
X218801817Y-60432526D01*
X218726160Y-60508182D01*
X218664840Y-60541666D01*
X218638481Y-60544500D01*
X218091005Y-60544500D01*
X218023976Y-60557833D01*
X217990461Y-60564500D01*
X217955671Y-60571420D01*
X217955669Y-60571420D01*
X217955668Y-60571421D01*
X217955660Y-60571423D01*
X217902865Y-60593292D01*
X217828191Y-60624223D01*
X217738012Y-60684480D01*
X217738011Y-60684481D01*
X217713454Y-60700888D01*
X217713453Y-60700889D01*
X216995888Y-61418453D01*
X216995887Y-61418454D01*
X216919223Y-61533192D01*
X216864090Y-61666297D01*
X216863087Y-61665881D01*
X216852438Y-61688380D01*
X216849225Y-61693188D01*
X216796420Y-61820671D01*
X216796418Y-61820677D01*
X216769500Y-61956004D01*
X216769500Y-61956007D01*
X216769500Y-62196006D01*
X216769500Y-62196007D01*
X216769500Y-71166007D01*
X216769500Y-73653993D01*
X216769500Y-73653995D01*
X216769499Y-73653995D01*
X199651661Y-73653995D01*
X199683837Y-73621819D01*
X199745160Y-73588334D01*
X199771518Y-73585500D01*
X200578996Y-73585500D01*
X200670040Y-73567389D01*
X200714328Y-73558580D01*
X200778069Y-73532177D01*
X200841807Y-73505777D01*
X200841808Y-73505776D01*
X200841811Y-73505775D01*
X200956543Y-73429114D01*
X201974277Y-72411379D01*
X202619500Y-72411379D01*
X202619500Y-72598620D01*
X202656025Y-72782243D01*
X202656027Y-72782251D01*
X202727676Y-72955228D01*
X202727681Y-72955237D01*
X202831697Y-73110907D01*
X202831700Y-73110911D01*
X202964088Y-73243299D01*
X202964092Y-73243302D01*
X203119762Y-73347318D01*
X203119768Y-73347321D01*
X203119769Y-73347322D01*
X203292749Y-73418973D01*
X203476379Y-73455499D01*
X203476383Y-73455500D01*
X203476384Y-73455500D01*
X204363617Y-73455500D01*
X204363618Y-73455499D01*
X204547251Y-73418973D01*
X204720231Y-73347322D01*
X204875908Y-73243302D01*
X205008302Y-73110908D01*
X205112322Y-72955231D01*
X205183973Y-72782251D01*
X205220500Y-72598616D01*
X205220500Y-72411384D01*
X205183973Y-72227749D01*
X205112322Y-72054769D01*
X205112321Y-72054768D01*
X205112318Y-72054762D01*
X205008302Y-71899092D01*
X205008299Y-71899088D01*
X204875911Y-71766700D01*
X204875907Y-71766697D01*
X204720237Y-71662681D01*
X204720228Y-71662676D01*
X204547251Y-71591027D01*
X204547243Y-71591025D01*
X204363620Y-71554500D01*
X204363616Y-71554500D01*
X203476384Y-71554500D01*
X203476379Y-71554500D01*
X203292756Y-71591025D01*
X203292748Y-71591027D01*
X203119771Y-71662676D01*
X203119762Y-71662681D01*
X202964092Y-71766697D01*
X202964088Y-71766700D01*
X202831700Y-71899088D01*
X202831697Y-71899092D01*
X202727681Y-72054762D01*
X202727676Y-72054771D01*
X202656027Y-72227748D01*
X202656027Y-72227749D01*
X202619500Y-72411379D01*
X201974277Y-72411379D01*
X202194113Y-72191543D01*
X202198819Y-72184501D01*
X202270775Y-72076811D01*
X202323580Y-71949328D01*
X202323899Y-71947727D01*
X202325358Y-71940394D01*
X202331685Y-71908581D01*
X202331685Y-71908580D01*
X202350500Y-71813993D01*
X202350500Y-62776518D01*
X202370185Y-62709479D01*
X202386819Y-62688837D01*
X203743837Y-61331819D01*
X203805160Y-61298334D01*
X203831518Y-61295500D01*
X212118996Y-61295500D01*
X212210040Y-61277389D01*
X212254328Y-61268580D01*
X212318069Y-61242177D01*
X212381807Y-61215777D01*
X212381808Y-61215776D01*
X212381811Y-61215775D01*
X212496543Y-61139114D01*
X213294113Y-60341543D01*
X213303529Y-60327452D01*
X213312369Y-60314223D01*
X213347651Y-60261418D01*
X213370775Y-60226811D01*
X213404130Y-60146284D01*
X213423580Y-60099329D01*
X213433210Y-60050913D01*
X213450500Y-59963993D01*
X213450500Y-59355480D01*
X213470185Y-59288441D01*
X213506628Y-59254968D01*
X213505405Y-59253311D01*
X213512882Y-59247793D01*
X213622150Y-59167150D01*
X213702793Y-59057882D01*
X213725662Y-58992526D01*
X213747646Y-58929701D01*
X213747646Y-58929699D01*
X213750500Y-58899269D01*
X213750500Y-58311667D01*
X223159500Y-58311667D01*
X223159500Y-59520206D01*
X223162353Y-59550636D01*
X223162353Y-59550638D01*
X223207206Y-59678817D01*
X223207207Y-59678819D01*
X223287850Y-59788087D01*
X223397118Y-59868730D01*
X223439845Y-59883681D01*
X223525299Y-59913583D01*
X223555730Y-59916437D01*
X223555734Y-59916437D01*
X224764270Y-59916437D01*
X224794699Y-59913583D01*
X224794701Y-59913583D01*
X224858790Y-59891156D01*
X224922882Y-59868730D01*
X225032150Y-59788087D01*
X225112793Y-59678819D01*
X225140150Y-59600636D01*
X225157646Y-59550638D01*
X225157646Y-59550636D01*
X225160500Y-59520206D01*
X225160500Y-59369500D01*
X225180185Y-59302461D01*
X225232989Y-59256706D01*
X225284500Y-59245500D01*
X226364270Y-59245500D01*
X226394699Y-59242646D01*
X226394701Y-59242646D01*
X226458790Y-59220219D01*
X226522882Y-59197793D01*
X226632150Y-59117150D01*
X226712793Y-59007882D01*
X226742421Y-58923209D01*
X226757646Y-58879701D01*
X226757646Y-58879699D01*
X226760500Y-58849269D01*
X226760500Y-57640730D01*
X226757646Y-57610300D01*
X226757646Y-57610298D01*
X226712793Y-57482119D01*
X226712792Y-57482117D01*
X226669051Y-57422850D01*
X226632150Y-57372850D01*
X226522882Y-57292207D01*
X226522880Y-57292206D01*
X226394700Y-57247353D01*
X226364270Y-57244500D01*
X226364266Y-57244500D01*
X226134809Y-57244500D01*
X226067770Y-57224815D01*
X226022015Y-57172011D01*
X226012071Y-57102853D01*
X226041096Y-57039297D01*
X226096490Y-57002569D01*
X226259031Y-56949755D01*
X226441349Y-56856859D01*
X226485921Y-56824474D01*
X225806447Y-56145000D01*
X225812661Y-56145000D01*
X225914394Y-56117741D01*
X226005606Y-56065080D01*
X226080080Y-55990606D01*
X226132741Y-55899394D01*
X226160000Y-55797661D01*
X226160000Y-55791446D01*
X226839474Y-56470921D01*
X226871857Y-56426352D01*
X226871858Y-56426350D01*
X226886724Y-56397174D01*
X226934698Y-56346377D01*
X227002518Y-56329581D01*
X227035530Y-56335537D01*
X227055582Y-56342052D01*
X227055586Y-56342053D01*
X227257683Y-56374063D01*
X227462317Y-56374063D01*
X227664417Y-56342053D01*
X227859031Y-56278818D01*
X228041349Y-56185922D01*
X228085921Y-56153537D01*
X227406446Y-55474063D01*
X227412661Y-55474063D01*
X227514394Y-55446804D01*
X227605606Y-55394143D01*
X227680080Y-55319669D01*
X227732741Y-55228457D01*
X227760000Y-55126724D01*
X227760000Y-55120510D01*
X228439474Y-55799984D01*
X228471859Y-55755412D01*
X228564755Y-55573094D01*
X228627990Y-55378480D01*
X228660000Y-55176380D01*
X228660000Y-54971745D01*
X228627990Y-54769645D01*
X228564755Y-54575031D01*
X228471859Y-54392713D01*
X228439474Y-54348140D01*
X228439474Y-54348139D01*
X227760000Y-55027614D01*
X227760000Y-55021402D01*
X227732741Y-54919669D01*
X227680080Y-54828457D01*
X227605606Y-54753983D01*
X227514394Y-54701322D01*
X227412661Y-54674063D01*
X227406446Y-54674063D01*
X228085922Y-53994587D01*
X228085921Y-53994586D01*
X228041359Y-53962210D01*
X228041350Y-53962204D01*
X227859031Y-53869307D01*
X227664417Y-53806072D01*
X227462317Y-53774063D01*
X227257683Y-53774063D01*
X227055582Y-53806072D01*
X226860968Y-53869307D01*
X226678644Y-53962206D01*
X226634077Y-53994586D01*
X226634077Y-53994587D01*
X227313554Y-54674063D01*
X227307339Y-54674063D01*
X227205606Y-54701322D01*
X227114394Y-54753983D01*
X227039920Y-54828457D01*
X226987259Y-54919669D01*
X226960000Y-55021402D01*
X226960000Y-55027616D01*
X226280524Y-54348140D01*
X226280523Y-54348140D01*
X226248139Y-54392714D01*
X226233272Y-54421892D01*
X226185296Y-54472687D01*
X226117475Y-54489480D01*
X226084472Y-54483525D01*
X226064425Y-54477011D01*
X226064418Y-54477010D01*
X225862317Y-54445000D01*
X225657683Y-54445000D01*
X225455582Y-54477009D01*
X225260968Y-54540244D01*
X225078644Y-54633143D01*
X225034077Y-54665523D01*
X225034077Y-54665524D01*
X225713554Y-55345000D01*
X225707339Y-55345000D01*
X225605606Y-55372259D01*
X225514394Y-55424920D01*
X225439920Y-55499394D01*
X225387259Y-55590606D01*
X225360000Y-55692339D01*
X225360000Y-55698553D01*
X224680524Y-55019077D01*
X224680523Y-55019077D01*
X224648143Y-55063644D01*
X224555244Y-55245968D01*
X224492009Y-55440582D01*
X224460000Y-55642682D01*
X224460000Y-55847317D01*
X224492009Y-56049417D01*
X224555244Y-56244031D01*
X224648141Y-56426350D01*
X224648147Y-56426359D01*
X224680523Y-56470921D01*
X224680524Y-56470922D01*
X225360000Y-55791446D01*
X225360000Y-55797661D01*
X225387259Y-55899394D01*
X225439920Y-55990606D01*
X225514394Y-56065080D01*
X225605606Y-56117741D01*
X225707339Y-56145000D01*
X225713553Y-56145000D01*
X225034076Y-56824474D01*
X225078650Y-56856859D01*
X225260968Y-56949755D01*
X225423510Y-57002569D01*
X225481185Y-57042007D01*
X225508383Y-57106366D01*
X225496468Y-57175212D01*
X225449224Y-57226688D01*
X225385191Y-57244500D01*
X225155730Y-57244500D01*
X225125300Y-57247353D01*
X225125298Y-57247353D01*
X224997119Y-57292206D01*
X224997117Y-57292207D01*
X224887850Y-57372850D01*
X224807207Y-57482117D01*
X224807206Y-57482119D01*
X224762353Y-57610298D01*
X224762353Y-57610300D01*
X224759500Y-57640730D01*
X224759500Y-57791437D01*
X224739815Y-57858476D01*
X224687011Y-57904231D01*
X224635500Y-57915437D01*
X223555730Y-57915437D01*
X223525300Y-57918290D01*
X223525298Y-57918290D01*
X223397119Y-57963143D01*
X223397117Y-57963144D01*
X223287850Y-58043787D01*
X223207207Y-58153054D01*
X223207206Y-58153056D01*
X223162353Y-58281235D01*
X223162353Y-58281237D01*
X223159500Y-58311667D01*
X213750500Y-58311667D01*
X213750500Y-57690730D01*
X213747646Y-57660300D01*
X213747646Y-57660298D01*
X213702793Y-57532119D01*
X213702792Y-57532117D01*
X213665892Y-57482119D01*
X213622150Y-57422850D01*
X213512882Y-57342207D01*
X213512880Y-57342206D01*
X213384700Y-57297353D01*
X213354270Y-57294500D01*
X213354266Y-57294500D01*
X213124809Y-57294500D01*
X213057770Y-57274815D01*
X213012015Y-57222011D01*
X213002071Y-57152853D01*
X213031096Y-57089297D01*
X213086490Y-57052569D01*
X213249031Y-56999755D01*
X213431349Y-56906859D01*
X213475921Y-56874474D01*
X212796447Y-56195000D01*
X212802661Y-56195000D01*
X212904394Y-56167741D01*
X212995606Y-56115080D01*
X213070080Y-56040606D01*
X213122741Y-55949394D01*
X213150000Y-55847661D01*
X213150000Y-55841446D01*
X213829474Y-56520921D01*
X213861857Y-56476352D01*
X213861858Y-56476350D01*
X213876724Y-56447174D01*
X213924698Y-56396377D01*
X213992518Y-56379581D01*
X214025530Y-56385537D01*
X214045582Y-56392052D01*
X214045586Y-56392053D01*
X214247683Y-56424063D01*
X214452317Y-56424063D01*
X214654417Y-56392053D01*
X214849031Y-56328818D01*
X215031349Y-56235922D01*
X215075921Y-56203537D01*
X214396446Y-55524063D01*
X214402661Y-55524063D01*
X214504394Y-55496804D01*
X214595606Y-55444143D01*
X214670080Y-55369669D01*
X214722741Y-55278457D01*
X214750000Y-55176724D01*
X214750000Y-55170510D01*
X215429474Y-55849984D01*
X215461859Y-55805412D01*
X215554756Y-55623091D01*
X215562422Y-55599499D01*
X215562422Y-55599497D01*
X215617990Y-55428480D01*
X215650000Y-55226380D01*
X215650000Y-55021745D01*
X215617989Y-54819644D01*
X215617989Y-54819641D01*
X215595719Y-54751101D01*
X215554755Y-54625031D01*
X215461859Y-54442713D01*
X215429474Y-54398140D01*
X215429474Y-54398139D01*
X214750000Y-55077614D01*
X214750000Y-55071402D01*
X214722741Y-54969669D01*
X214670080Y-54878457D01*
X214595606Y-54803983D01*
X214504394Y-54751322D01*
X214402661Y-54724063D01*
X214396446Y-54724063D01*
X215075922Y-54044587D01*
X215075921Y-54044586D01*
X215031359Y-54012210D01*
X215031350Y-54012204D01*
X214849031Y-53919307D01*
X214654417Y-53856072D01*
X214452317Y-53824063D01*
X214247683Y-53824063D01*
X214045582Y-53856072D01*
X213850968Y-53919307D01*
X213668644Y-54012206D01*
X213624077Y-54044586D01*
X213624077Y-54044587D01*
X214303554Y-54724063D01*
X214297339Y-54724063D01*
X214195606Y-54751322D01*
X214104394Y-54803983D01*
X214029920Y-54878457D01*
X213977259Y-54969669D01*
X213950000Y-55071402D01*
X213950000Y-55077616D01*
X213270524Y-54398140D01*
X213270523Y-54398140D01*
X213238139Y-54442714D01*
X213223272Y-54471892D01*
X213175296Y-54522687D01*
X213107475Y-54539480D01*
X213074472Y-54533525D01*
X213054425Y-54527011D01*
X213054418Y-54527010D01*
X212852317Y-54495000D01*
X212647683Y-54495000D01*
X212445582Y-54527009D01*
X212250968Y-54590244D01*
X212068644Y-54683143D01*
X212024077Y-54715523D01*
X212024077Y-54715524D01*
X212703554Y-55395000D01*
X212697339Y-55395000D01*
X212595606Y-55422259D01*
X212504394Y-55474920D01*
X212429920Y-55549394D01*
X212377259Y-55640606D01*
X212350000Y-55742339D01*
X212350000Y-55748553D01*
X211670524Y-55069077D01*
X211670523Y-55069077D01*
X211638143Y-55113644D01*
X211545244Y-55295968D01*
X211482009Y-55490582D01*
X211450000Y-55692682D01*
X211450000Y-55897317D01*
X211482009Y-56099417D01*
X211545244Y-56294031D01*
X211638141Y-56476350D01*
X211638147Y-56476359D01*
X211670523Y-56520921D01*
X211670524Y-56520922D01*
X212350000Y-55841446D01*
X212350000Y-55847661D01*
X212377259Y-55949394D01*
X212429920Y-56040606D01*
X212504394Y-56115080D01*
X212595606Y-56167741D01*
X212697339Y-56195000D01*
X212703553Y-56195000D01*
X212024076Y-56874474D01*
X212068650Y-56906859D01*
X212250968Y-56999755D01*
X212413510Y-57052569D01*
X212471185Y-57092007D01*
X212498383Y-57156366D01*
X212486468Y-57225212D01*
X212439224Y-57276688D01*
X212375191Y-57294500D01*
X212145730Y-57294500D01*
X212115300Y-57297353D01*
X212115298Y-57297353D01*
X211987119Y-57342206D01*
X211987117Y-57342207D01*
X211877850Y-57422850D01*
X211797207Y-57532117D01*
X211797206Y-57532119D01*
X211752353Y-57660298D01*
X211752353Y-57660300D01*
X211749500Y-57690730D01*
X211749500Y-57841437D01*
X211729815Y-57908476D01*
X211677011Y-57954231D01*
X211625500Y-57965437D01*
X210545730Y-57965437D01*
X210515300Y-57968290D01*
X210515298Y-57968290D01*
X210387119Y-58013143D01*
X210387117Y-58013144D01*
X210277850Y-58093787D01*
X210197207Y-58203054D01*
X210197206Y-58203056D01*
X210152353Y-58331235D01*
X210152353Y-58331237D01*
X210149500Y-58361667D01*
X210149500Y-59570206D01*
X210152353Y-59600636D01*
X210152353Y-59600638D01*
X210197461Y-59729545D01*
X210201023Y-59799324D01*
X210166295Y-59859951D01*
X210104302Y-59892179D01*
X210080420Y-59894500D01*
X203421005Y-59894500D01*
X203370734Y-59904500D01*
X203325071Y-59913583D01*
X203302488Y-59918074D01*
X203285668Y-59921420D01*
X203285660Y-59921423D01*
X203232865Y-59943292D01*
X203158191Y-59974223D01*
X203064565Y-60036783D01*
X203043457Y-60050886D01*
X203043451Y-60050891D01*
X201332635Y-61761706D01*
X201313845Y-61777127D01*
X201203458Y-61850885D01*
X201203454Y-61850888D01*
X201105888Y-61948454D01*
X201105885Y-61948458D01*
X201029228Y-62063182D01*
X201029221Y-62063195D01*
X200976421Y-62190667D01*
X200976418Y-62190677D01*
X200949500Y-62326004D01*
X200949500Y-71403481D01*
X200929815Y-71470520D01*
X200913181Y-71491162D01*
X200256162Y-72148181D01*
X200194839Y-72181666D01*
X200168481Y-72184500D01*
X199361003Y-72184500D01*
X199259537Y-72204682D01*
X199259525Y-72204685D01*
X199252591Y-72206065D01*
X199225671Y-72211420D01*
X199186250Y-72227749D01*
X199181540Y-72229699D01*
X199181524Y-72229705D01*
X199098193Y-72264222D01*
X199098191Y-72264223D01*
X199052850Y-72294520D01*
X199052849Y-72294520D01*
X198983461Y-72340883D01*
X198983453Y-72340889D01*
X197450888Y-73873453D01*
X197450885Y-73873456D01*
X197382690Y-73975518D01*
X197382691Y-73975519D01*
X197374226Y-73988187D01*
X197374223Y-73988192D01*
X197321420Y-74115671D01*
X197321418Y-74115677D01*
X197294500Y-74251004D01*
X197294500Y-82060650D01*
X197274815Y-82127689D01*
X197258182Y-82148331D01*
X197174647Y-82231866D01*
X197075152Y-82368811D01*
X196998296Y-82519646D01*
X196945981Y-82680652D01*
X196919500Y-82847850D01*
X194731720Y-82847850D01*
X194697518Y-82720208D01*
X194675748Y-82682500D01*
X195559999Y-82682500D01*
X195559999Y-82257528D01*
X195559998Y-82257513D01*
X195549505Y-82154802D01*
X195494358Y-81988380D01*
X195494356Y-81988375D01*
X195402315Y-81839154D01*
X195278345Y-81715184D01*
X195129124Y-81623143D01*
X195129119Y-81623141D01*
X194962697Y-81567994D01*
X194962690Y-81567993D01*
X194859986Y-81557500D01*
X194435000Y-81557500D01*
X194435000Y-82441752D01*
X194397292Y-82419982D01*
X194257409Y-82382500D01*
X194112591Y-82382500D01*
X193972708Y-82419982D01*
X193935000Y-82441752D01*
X193935000Y-81557500D01*
X193510028Y-81557500D01*
X193510012Y-81557501D01*
X193407302Y-81567994D01*
X193240880Y-81623141D01*
X193240875Y-81623143D01*
X193091654Y-81715184D01*
X192967684Y-81839154D01*
X192875643Y-81988375D01*
X192875641Y-81988380D01*
X192820494Y-82154802D01*
X192820493Y-82154809D01*
X192810000Y-82257513D01*
X190006231Y-82257513D01*
X189960351Y-82194365D01*
X189960347Y-82194360D01*
X189840639Y-82074652D01*
X189840634Y-82074648D01*
X189703688Y-81975152D01*
X189703687Y-81975151D01*
X189703685Y-81975150D01*
X189638030Y-81941697D01*
X189552853Y-81898296D01*
X189391847Y-81845981D01*
X189224649Y-81819500D01*
X189224644Y-81819500D01*
X189055356Y-81819500D01*
X189055351Y-81819500D01*
X188888152Y-81845981D01*
X188727146Y-81898296D01*
X188576311Y-81975152D01*
X188439365Y-82074648D01*
X188439360Y-82074652D01*
X188319652Y-82194360D01*
X188319648Y-82194365D01*
X188220152Y-82331311D01*
X188143296Y-82482146D01*
X188090981Y-82643152D01*
X188064500Y-82810350D01*
X186405500Y-82810350D01*
X186379018Y-82643152D01*
X186351120Y-82557292D01*
X186326705Y-82482151D01*
X186326703Y-82482148D01*
X186326703Y-82482146D01*
X186286251Y-82402756D01*
X186249850Y-82331315D01*
X186196230Y-82257513D01*
X186150351Y-82194365D01*
X186150347Y-82194360D01*
X186030639Y-82074652D01*
X186030634Y-82074648D01*
X185893688Y-81975152D01*
X185893687Y-81975151D01*
X185893685Y-81975150D01*
X185828030Y-81941697D01*
X185742853Y-81898296D01*
X185581847Y-81845981D01*
X185414649Y-81819500D01*
X185414644Y-81819500D01*
X185245356Y-81819500D01*
X185245351Y-81819500D01*
X185078152Y-81845981D01*
X184917146Y-81898296D01*
X184766311Y-81975152D01*
X184629365Y-82074648D01*
X184629360Y-82074652D01*
X184509652Y-82194360D01*
X184509648Y-82194365D01*
X184410152Y-82331311D01*
X184333296Y-82482146D01*
X184280981Y-82643152D01*
X184254500Y-82810350D01*
X182066720Y-82810350D01*
X182032518Y-82682708D01*
X182010748Y-82645000D01*
X182894999Y-82645000D01*
X182894999Y-82220028D01*
X182894998Y-82220013D01*
X182884505Y-82117302D01*
X182829358Y-81950880D01*
X182829356Y-81950875D01*
X182737315Y-81801654D01*
X182613345Y-81677684D01*
X182464124Y-81585643D01*
X182464119Y-81585641D01*
X182297697Y-81530494D01*
X182297690Y-81530493D01*
X182194986Y-81520000D01*
X181770000Y-81520000D01*
X181770000Y-82404252D01*
X181732292Y-82382482D01*
X181592409Y-82345000D01*
X181447591Y-82345000D01*
X181307708Y-82382482D01*
X181270000Y-82404252D01*
X181270000Y-81520000D01*
X180845028Y-81520000D01*
X180845012Y-81520001D01*
X180742302Y-81530494D01*
X180575880Y-81585641D01*
X180575875Y-81585643D01*
X180426654Y-81677684D01*
X180302684Y-81801654D01*
X180210643Y-81950875D01*
X180210641Y-81950880D01*
X180155494Y-82117302D01*
X180155493Y-82117309D01*
X180145000Y-82220013D01*
X177840000Y-82220013D01*
X177840000Y-77265000D01*
X169621362Y-77265000D01*
X169554323Y-77245315D01*
X169533681Y-77228681D01*
X169126319Y-76821319D01*
X169092834Y-76759996D01*
X169090000Y-76733638D01*
X169090000Y-74485000D01*
X169081966Y-74465607D01*
X169062146Y-74429308D01*
X169059323Y-74404620D01*
X169040038Y-72967837D01*
X169040093Y-72962141D01*
X169040318Y-72955237D01*
X169070000Y-72045000D01*
X169069998Y-72045000D01*
X169069999Y-72044999D01*
X154494665Y-72064394D01*
X154427599Y-72044799D01*
X154381774Y-71992056D01*
X154370500Y-71940394D01*
X154370500Y-65970730D01*
X156479500Y-65970730D01*
X156479500Y-67579269D01*
X156482353Y-67609699D01*
X156482353Y-67609701D01*
X156527206Y-67737880D01*
X156527207Y-67737882D01*
X156607850Y-67847150D01*
X156717118Y-67927793D01*
X156759845Y-67942744D01*
X156845299Y-67972646D01*
X156875730Y-67975500D01*
X156875734Y-67975500D01*
X158484270Y-67975500D01*
X158514699Y-67972646D01*
X158514701Y-67972646D01*
X158578790Y-67950219D01*
X158642882Y-67927793D01*
X158752150Y-67847150D01*
X158832793Y-67737882D01*
X158865469Y-67644500D01*
X158877646Y-67609701D01*
X158877646Y-67609699D01*
X158880500Y-67579269D01*
X158880500Y-66680513D01*
X164099500Y-66680513D01*
X164099500Y-66869486D01*
X164129059Y-67056118D01*
X164187454Y-67235836D01*
X164273240Y-67404199D01*
X164384310Y-67557073D01*
X164517927Y-67690690D01*
X164670801Y-67801760D01*
X164698637Y-67815943D01*
X164839163Y-67887545D01*
X164839165Y-67887545D01*
X164839168Y-67887547D01*
X164935497Y-67918846D01*
X165018881Y-67945940D01*
X165205514Y-67975500D01*
X165205519Y-67975500D01*
X165394486Y-67975500D01*
X165581118Y-67945940D01*
X165636971Y-67927792D01*
X165760832Y-67887547D01*
X165929199Y-67801760D01*
X166082073Y-67690690D01*
X166215690Y-67557073D01*
X166326760Y-67404199D01*
X166412547Y-67235832D01*
X166470940Y-67056118D01*
X166500500Y-66869486D01*
X166500500Y-66680513D01*
X166470940Y-66493881D01*
X166412545Y-66314163D01*
X166341157Y-66174057D01*
X166326760Y-66145801D01*
X166215690Y-65992927D01*
X166082073Y-65859310D01*
X165929199Y-65748240D01*
X165760836Y-65662454D01*
X165581118Y-65604059D01*
X165394486Y-65574500D01*
X165394481Y-65574500D01*
X165205519Y-65574500D01*
X165205514Y-65574500D01*
X165018881Y-65604059D01*
X164839163Y-65662454D01*
X164670800Y-65748240D01*
X164607130Y-65794500D01*
X164517927Y-65859310D01*
X164517925Y-65859312D01*
X164517924Y-65859312D01*
X164384312Y-65992924D01*
X164384312Y-65992925D01*
X164384310Y-65992927D01*
X164367588Y-66015943D01*
X164273240Y-66145800D01*
X164187454Y-66314163D01*
X164129059Y-66493881D01*
X164099500Y-66680513D01*
X158880500Y-66680513D01*
X158880500Y-65970730D01*
X158877646Y-65940300D01*
X158877646Y-65940298D01*
X158832793Y-65812119D01*
X158832792Y-65812117D01*
X158819790Y-65794500D01*
X158752150Y-65702850D01*
X158642882Y-65622207D01*
X158642880Y-65622206D01*
X158514700Y-65577353D01*
X158484270Y-65574500D01*
X158484266Y-65574500D01*
X156875734Y-65574500D01*
X156875730Y-65574500D01*
X156845300Y-65577353D01*
X156845298Y-65577353D01*
X156717119Y-65622206D01*
X156717117Y-65622207D01*
X156607850Y-65702850D01*
X156527207Y-65812117D01*
X156527206Y-65812119D01*
X156482353Y-65940298D01*
X156482353Y-65940300D01*
X156479500Y-65970730D01*
X154370500Y-65970730D01*
X154370500Y-59736963D01*
X154390185Y-59669924D01*
X154442989Y-59624169D01*
X154512147Y-59614225D01*
X154575703Y-59643250D01*
X154599493Y-59670990D01*
X154624108Y-59710164D01*
X154750560Y-59868730D01*
X154810021Y-59943292D01*
X154813221Y-59947304D01*
X155027696Y-60161779D01*
X155264836Y-60350892D01*
X155521659Y-60512265D01*
X155794935Y-60643868D01*
X155957892Y-60700889D01*
X156081216Y-60744042D01*
X156081228Y-60744046D01*
X156376937Y-60811540D01*
X156376946Y-60811541D01*
X156376951Y-60811542D01*
X156577874Y-60834180D01*
X156678337Y-60845499D01*
X156678340Y-60845500D01*
X156678343Y-60845500D01*
X156981660Y-60845500D01*
X156981661Y-60845499D01*
X157135694Y-60828144D01*
X157283048Y-60811542D01*
X157283051Y-60811541D01*
X157283063Y-60811540D01*
X157578772Y-60744046D01*
X157865065Y-60643868D01*
X158138341Y-60512265D01*
X158265245Y-60432526D01*
X177259500Y-60432526D01*
X177259500Y-60577474D01*
X177297016Y-60717485D01*
X177369490Y-60843015D01*
X177481985Y-60955510D01*
X177603213Y-61025500D01*
X177607515Y-61027984D01*
X177747525Y-61065500D01*
X177747526Y-61065500D01*
X177885335Y-61065500D01*
X177917428Y-61069725D01*
X177929233Y-61072888D01*
X178050943Y-61105500D01*
X178050945Y-61105500D01*
X178209055Y-61105500D01*
X178209057Y-61105500D01*
X178330767Y-61072888D01*
X178342572Y-61069725D01*
X178374665Y-61065500D01*
X178501637Y-61065500D01*
X178540179Y-61073165D01*
X178540365Y-61072473D01*
X178548214Y-61074576D01*
X178548216Y-61074577D01*
X178700943Y-61115500D01*
X178700945Y-61115500D01*
X178859055Y-61115500D01*
X178859057Y-61115500D01*
X179011784Y-61074577D01*
X179011785Y-61074576D01*
X179019635Y-61072473D01*
X179019746Y-61072888D01*
X179023428Y-61070523D01*
X179058363Y-61065500D01*
X179141637Y-61065500D01*
X179180179Y-61073165D01*
X179180365Y-61072473D01*
X179188214Y-61074576D01*
X179188216Y-61074577D01*
X179340943Y-61115500D01*
X179340945Y-61115500D01*
X179499055Y-61115500D01*
X179499057Y-61115500D01*
X179611012Y-61085501D01*
X179632572Y-61079725D01*
X179664665Y-61075500D01*
X201292472Y-61075500D01*
X201292474Y-61075500D01*
X201292475Y-61075500D01*
X201432485Y-61037984D01*
X201432487Y-61037982D01*
X201432489Y-61037982D01*
X201432490Y-61037981D01*
X201487644Y-61006138D01*
X201517554Y-60993749D01*
X201551780Y-60984578D01*
X201551778Y-60984578D01*
X201551784Y-60984577D01*
X201602134Y-60955508D01*
X201688709Y-60905524D01*
X201688708Y-60905524D01*
X201688716Y-60905520D01*
X201800520Y-60793716D01*
X201879577Y-60656784D01*
X201920500Y-60504057D01*
X201920500Y-60345943D01*
X201879577Y-60193216D01*
X201879576Y-60193214D01*
X201877473Y-60185365D01*
X201877888Y-60185253D01*
X201875523Y-60181572D01*
X201870500Y-60146637D01*
X201870500Y-60049664D01*
X201874725Y-60017571D01*
X201881572Y-59992016D01*
X201910500Y-59884057D01*
X201910500Y-59725943D01*
X201874725Y-59592428D01*
X201870500Y-59560335D01*
X201870500Y-59399664D01*
X201874725Y-59367571D01*
X201892171Y-59302461D01*
X201910500Y-59234057D01*
X201910500Y-59075943D01*
X201894723Y-59017065D01*
X201892537Y-59000457D01*
X201891560Y-59000586D01*
X201890499Y-58992533D01*
X201890499Y-58992526D01*
X201852984Y-58852515D01*
X201780510Y-58726985D01*
X201678015Y-58624490D01*
X201552485Y-58552016D01*
X201412474Y-58514501D01*
X201267526Y-58514501D01*
X201127514Y-58552016D01*
X201001986Y-58624489D01*
X201001981Y-58624493D01*
X200978167Y-58648306D01*
X200952499Y-58668003D01*
X200941285Y-58674478D01*
X200829478Y-58786286D01*
X200829475Y-58786290D01*
X200750426Y-58923209D01*
X200750423Y-58923216D01*
X200709500Y-59075943D01*
X200709500Y-59234057D01*
X200742035Y-59355480D01*
X200750424Y-59386786D01*
X200750424Y-59386787D01*
X200752885Y-59391049D01*
X200757035Y-59406537D01*
X200764477Y-59418117D01*
X200769500Y-59453052D01*
X200769500Y-59506947D01*
X200752890Y-59568942D01*
X200750425Y-59573211D01*
X200750423Y-59573216D01*
X200709500Y-59725943D01*
X200709500Y-59850500D01*
X200689815Y-59917539D01*
X200637011Y-59963294D01*
X200585500Y-59974500D01*
X179718052Y-59974500D01*
X179656054Y-59957888D01*
X179651784Y-59955423D01*
X179499057Y-59914500D01*
X179340943Y-59914500D01*
X179188216Y-59955423D01*
X179188214Y-59955423D01*
X179180365Y-59957527D01*
X179180253Y-59957111D01*
X179176572Y-59959477D01*
X179141637Y-59964500D01*
X179058363Y-59964500D01*
X179019820Y-59956834D01*
X179019635Y-59957527D01*
X179011785Y-59955423D01*
X179011784Y-59955423D01*
X178859057Y-59914500D01*
X178700943Y-59914500D01*
X178548216Y-59955423D01*
X178548214Y-59955423D01*
X178540365Y-59957527D01*
X178540253Y-59957111D01*
X178536572Y-59959477D01*
X178501637Y-59964500D01*
X178428052Y-59964500D01*
X178366054Y-59947888D01*
X178361784Y-59945423D01*
X178209057Y-59904500D01*
X178050943Y-59904500D01*
X177890367Y-59947526D01*
X177890181Y-59946833D01*
X177851637Y-59954500D01*
X177737526Y-59954500D01*
X177632517Y-59982637D01*
X177597514Y-59992016D01*
X177471986Y-60064489D01*
X177471983Y-60064491D01*
X177369491Y-60166983D01*
X177369489Y-60166986D01*
X177297016Y-60292514D01*
X177284510Y-60339185D01*
X177259500Y-60432526D01*
X158265245Y-60432526D01*
X158395164Y-60350892D01*
X158401368Y-60345945D01*
X158424552Y-60327456D01*
X158424557Y-60327452D01*
X158507358Y-60261420D01*
X158632304Y-60161779D01*
X158846779Y-59947304D01*
X159035892Y-59710164D01*
X159197265Y-59453341D01*
X159328868Y-59180065D01*
X159429046Y-58893772D01*
X159496540Y-58598063D01*
X159530500Y-58296657D01*
X159530500Y-57993343D01*
X159515304Y-57858476D01*
X159496542Y-57691951D01*
X159496541Y-57691946D01*
X159496540Y-57691937D01*
X159429046Y-57396228D01*
X159328868Y-57109935D01*
X159197265Y-56836659D01*
X159035892Y-56579836D01*
X158846779Y-56342696D01*
X158632304Y-56128221D01*
X158395164Y-55939108D01*
X158165820Y-55795001D01*
X158138338Y-55777733D01*
X157865068Y-55646133D01*
X157578783Y-55545957D01*
X157578771Y-55545953D01*
X157350556Y-55493864D01*
X157283063Y-55478460D01*
X157283060Y-55478459D01*
X157283048Y-55478457D01*
X156981663Y-55444500D01*
X156981657Y-55444500D01*
X156678343Y-55444500D01*
X156678336Y-55444500D01*
X156376951Y-55478457D01*
X156376937Y-55478460D01*
X156081228Y-55545953D01*
X156081216Y-55545957D01*
X155794931Y-55646133D01*
X155521661Y-55777733D01*
X155264837Y-55939107D01*
X155027696Y-56128220D01*
X154813220Y-56342696D01*
X154624105Y-56579839D01*
X154599493Y-56619009D01*
X154547158Y-56665300D01*
X154478105Y-56675947D01*
X154414257Y-56647572D01*
X154375885Y-56589182D01*
X154370500Y-56553036D01*
X154370500Y-54913676D01*
X154390185Y-54846637D01*
X154406819Y-54825995D01*
X155187828Y-54044986D01*
X180320001Y-54044986D01*
X180330494Y-54147697D01*
X180385641Y-54314119D01*
X180385643Y-54314124D01*
X180477684Y-54463345D01*
X180601654Y-54587315D01*
X180750875Y-54679356D01*
X180750880Y-54679358D01*
X180917302Y-54734505D01*
X180917309Y-54734506D01*
X181020019Y-54744999D01*
X181244999Y-54744999D01*
X181745000Y-54744999D01*
X181969972Y-54744999D01*
X181969986Y-54744998D01*
X182072697Y-54734505D01*
X182239119Y-54679358D01*
X182239124Y-54679356D01*
X182388345Y-54587315D01*
X182512315Y-54463345D01*
X182604356Y-54314124D01*
X182604358Y-54314119D01*
X182659505Y-54147697D01*
X182659506Y-54147690D01*
X182669999Y-54044986D01*
X182670000Y-54044973D01*
X182670000Y-52645000D01*
X181745000Y-52645000D01*
X181745000Y-54744999D01*
X181244999Y-54744999D01*
X181245000Y-54744998D01*
X181245000Y-52645000D01*
X180320001Y-52645000D01*
X180320001Y-54044986D01*
X155187828Y-54044986D01*
X159040995Y-50191819D01*
X159102318Y-50158334D01*
X159128676Y-50155500D01*
X180361078Y-50155500D01*
X180428117Y-50175185D01*
G37*
%TD.AperFunction*%
%TD*%
M02*
