M48
; DRILL file {KiCad 9.0.7} date 2026-09-09T09:09:25+0530
; FORMAT={-:-/ absolute / metric / decimal}
; #@! TF.CreationDate,2026-09-09T09:09:25+05:30
; #@! TF.GenerationSoftware,Kicad,Pcbnew,9.0.7
; #@! TF.FileFunction,Plated,1,2,PTH
FMAT,2
METRIC
; #@! TA.AperFunction,Plated,PTH,ViaDrill
T1C0.300
; #@! TA.AperFunction,Plated,PTH,ComponentDrill
T2C0.800
; #@! TA.AperFunction,Plated,PTH,ComponentDrill
T3C1.000
; #@! TA.AperFunction,Plated,PTH,ComponentDrill
T4C1.100
; #@! TA.AperFunction,Plated,PTH,ComponentDrill
T5C1.200
%
G90
G05
T1
X163.92Y-59.905
X163.93Y-58.625
X165.27Y-59.885
X165.28Y-58.605
X166.45Y-55.655
X166.52Y-59.925
X166.53Y-58.645
X167.8Y-55.655
X169.05Y-55.645
X174.83Y-75.405
X174.84Y-74.125
X175.23Y-53.015
X175.24Y-51.735
X176.18Y-75.385
X176.19Y-74.105
X176.58Y-52.995
X176.59Y-51.715
X177.43Y-75.425
X177.44Y-74.145
X177.83Y-53.035
X177.84Y-51.755
X178.13Y-60.505
X178.78Y-60.515
X179.42Y-60.515
X182.47Y-59.235
X182.74Y-64.345
X182.75Y-61.745
X182.75Y-63.065
X183.82Y-59.215
X184.09Y-64.325
X184.1Y-61.725
X184.1Y-63.045
X185.07Y-59.255
X185.34Y-64.365
X185.35Y-61.765
X185.35Y-63.085
X186.32Y-59.255
X186.59Y-64.365
X186.6Y-61.765
X186.6Y-63.085
X187.55Y-59.255
X187.82Y-64.365
X187.83Y-61.765
X187.83Y-63.085
X191.83Y-59.155
X192.05Y-52.945
X192.06Y-51.665
X193.11Y-59.165
X193.4Y-52.925
X193.41Y-51.645
X194.46Y-63.185
X194.47Y-61.905
X194.65Y-52.965
X194.66Y-51.685
X195.9Y-52.965
X195.91Y-51.685
X197.13Y-52.965
X197.14Y-51.685
X198.25Y-70.445
X199.6Y-70.425
X201.31Y-59.155
X201.31Y-59.805
X201.32Y-60.425
X201.55Y-75.285
X201.55Y-81.015
X204.27Y-59.135
X204.28Y-57.855
X205.39Y-81.325
X205.51Y-55.665
X205.62Y-59.115
X205.63Y-57.835
X206.62Y-81.325
X206.7Y-72.145
X206.71Y-70.865
X206.76Y-55.705
X206.87Y-59.155
X206.88Y-57.875
X206.99Y-53.635
X207.78Y-78.855
X208.01Y-55.705
X208.05Y-72.125
X208.06Y-70.845
X208.12Y-59.155
X208.13Y-57.875
X208.22Y-76.435
X209.01Y-78.855
X209.24Y-55.705
X209.3Y-72.165
X209.31Y-70.885
X209.35Y-59.155
X209.36Y-57.875
X210.55Y-72.165
X210.56Y-70.885
X210.83Y-83.585
X210.86Y-74.585
X210.91Y-81.585
X210.92Y-76.085
X211.13Y-106.325
X211.14Y-105.045
X211.78Y-72.165
X211.79Y-70.885
X212.38Y-106.365
X212.39Y-105.085
X213.55Y-95.505
X213.6Y-89.425
X213.63Y-106.365
X213.64Y-105.085
X214.86Y-106.365
X214.87Y-105.085
X215.15Y-113.405
X215.16Y-112.125
X216.5Y-113.385
X216.51Y-112.105
X217.47Y-71.235
X217.49Y-87.835
X217.49Y-89.355
X217.5Y-71.895
X217.5Y-72.615
X217.52Y-73.495
X217.54Y-61.865
X217.55Y-86.975
X217.55Y-96.635
X217.58Y-97.425
X217.58Y-98.295
X217.61Y-88.555
X217.67Y-99.125
X217.75Y-113.425
X217.76Y-112.145
X217.95Y-61.335
X218.68Y-61.165
X219.0Y-113.425
X219.01Y-112.145
X219.34Y-60.915
X219.79Y-88.735
X219.84Y-93.165
X220.23Y-113.425
X220.24Y-112.145
X220.63Y-65.165
X220.81Y-60.325
X221.26Y-66.095
X221.43Y-55.755
X222.0Y-67.195
X222.62Y-60.375
X222.95Y-55.755
X222.97Y-68.095
X225.47Y-65.035
X226.45Y-67.205
X226.6Y-66.215
X228.84Y-64.335
X228.85Y-63.055
X229.96Y-67.895
X230.19Y-64.315
X230.2Y-63.035
X231.44Y-64.355
X231.45Y-63.075
X232.69Y-64.355
X232.7Y-63.075
X233.15Y-88.365
X233.17Y-89.715
X233.19Y-84.635
X233.19Y-85.865
X233.19Y-87.115
X233.92Y-64.355
X233.93Y-63.075
X234.43Y-88.375
X234.45Y-89.725
X234.47Y-84.645
X234.47Y-85.875
X234.47Y-87.125
T2
X184.31Y-56.675
X211.15Y-58.966
X212.75Y-55.795
X212.75Y-58.295
X214.35Y-55.124
X224.16Y-58.916
X225.76Y-55.745
X225.76Y-58.245
X227.36Y-55.074
T3
X157.68Y-66.775
X157.68Y-74.395
X157.68Y-79.475
X157.68Y-84.555
X165.3Y-66.775
X165.3Y-74.395
X165.3Y-79.475
X165.3Y-84.555
X233.21Y-102.465
X233.22Y-96.445
X233.23Y-108.465
X235.75Y-102.465
X235.76Y-96.445
X235.77Y-108.465
T4
X171.235Y-82.873
X175.045Y-82.873
X181.52Y-82.895
X185.33Y-82.895
X189.14Y-82.895
X194.185Y-82.932
X197.995Y-82.932
T5
X203.92Y-72.505
X203.92Y-75.065
X203.945Y-82.68
X203.945Y-85.24
X203.945Y-87.875
X203.97Y-95.475
X203.97Y-105.515
X203.97Y-108.075
X203.995Y-90.415
X203.995Y-92.975
X203.995Y-103.09
X228.92Y-72.505
X228.92Y-87.75
X228.92Y-97.865
X228.945Y-85.24
X228.945Y-95.35
X228.97Y-90.29
X228.97Y-105.515
X228.97Y-108.075
M30
