%TF.GenerationSoftware,KiCad,Pcbnew,9.0.7*%
%TF.CreationDate,2026-09-15T20:24:58+05:30*%
%TF.ProjectId,PumpNodeNew,50756d70-4e6f-4646-954e-65772e6b6963,rev?*%
%TF.SameCoordinates,Original*%
%TF.FileFunction,Profile,NP*%
%FSLAX46Y46*%
G04 Gerber Fmt 4.6, Leading zero omitted, Abs format (unit mm)*
G04 Created by KiCad (PCBNEW 9.0.7) date 2026-09-15 20:24:58*
%MOMM*%
%LPD*%
G01*
G04 APERTURE LIST*
%TA.AperFunction,Profile*%
%ADD10C,0.050000*%
%TD*%
G04 APERTURE END LIST*
D10*
X151427500Y-98610000D02*
X151427500Y-124720000D01*
X153012500Y-116415000D02*
X153012500Y-98610000D01*
X151430000Y-90965000D02*
X153010000Y-90965000D01*
X151427500Y-98610000D02*
X153010000Y-98610000D01*
X164182500Y-124805000D02*
X164182500Y-116415000D01*
X194182500Y-52805000D02*
X199132500Y-57755000D01*
X105307500Y-119770000D02*
X105307500Y-62720000D01*
X110257500Y-124720000D02*
X151427500Y-124720000D01*
X105307500Y-57720000D02*
X110307500Y-52720000D01*
X110257500Y-124720000D02*
X105307500Y-119770000D01*
X105307500Y-62720000D02*
X105307500Y-57720000D01*
X199132500Y-119805000D02*
X194132500Y-124805000D01*
X199132500Y-57755000D02*
X199132500Y-114805000D01*
X199132500Y-114805000D02*
X199132500Y-119805000D01*
X164182500Y-116415000D02*
X153012500Y-116415000D01*
X140257500Y-52720000D02*
X140257500Y-61110000D01*
X110307500Y-52720000D02*
X140257500Y-52720000D01*
X153012500Y-90965000D02*
X153012500Y-52805000D01*
X140257500Y-61110000D02*
X151427500Y-61110000D01*
X194182500Y-52805000D02*
X153012500Y-52805000D01*
X194132500Y-124805000D02*
X164182500Y-124805000D01*
X151427500Y-61110000D02*
X151427500Y-90965000D01*
M02*
