M48
; DRILL file {KiCad 9.0.7} date 2026-09-11T09:01:25+0530
; FORMAT={-:-/ absolute / metric / decimal}
; #@! TF.CreationDate,2026-09-11T09:01:25+05:30
; #@! TF.GenerationSoftware,Kicad,Pcbnew,9.0.7
; #@! TF.FileFunction,Plated,1,2,PTH
FMAT,2
METRIC
; #@! TA.AperFunction,Plated,PTH,ViaDrill
T1C0.300
; #@! TA.AperFunction,Plated,PTH,ComponentDrill
T2C0.800
; #@! TA.AperFunction,Plated,PTH,ComponentDrill
T3C1.000
; #@! TA.AperFunction,Plated,PTH,ComponentDrill
T4C1.100
; #@! TA.AperFunction,Plated,PTH,ComponentDrill
T5C1.200
%
G90
G05
T1
X106.657Y-110.63
X106.657Y-112.05
X107.397Y-93.23
X107.397Y-94.44
X107.397Y-95.6
X107.397Y-96.81
X107.867Y-112.05
X107.887Y-110.63
X108.817Y-93.23
X108.817Y-94.46
X108.817Y-95.6
X108.817Y-96.83
X109.027Y-110.63
X109.027Y-112.05
X109.468Y-100.64
X109.617Y-99.94
X110.218Y-99.34
X110.237Y-112.05
X110.257Y-110.63
X112.887Y-119.62
X112.887Y-120.83
X112.887Y-121.99
X112.887Y-123.2
X114.207Y-57.32
X114.207Y-58.53
X114.207Y-59.69
X114.207Y-60.9
X114.307Y-119.62
X114.307Y-120.85
X114.307Y-121.99
X114.307Y-123.22
X115.627Y-57.32
X115.627Y-58.55
X115.627Y-59.69
X115.627Y-60.92
X117.767Y-106.29
X117.777Y-103.81
X117.787Y-105.27
X117.797Y-102.79
X117.907Y-100.16
X117.947Y-99.35
X117.977Y-89.91
X118.307Y-100.75
X118.787Y-101.23
X118.938Y-102.79
X118.938Y-103.81
X119.578Y-101.38
X119.578Y-112.75
X119.578Y-113.96
X119.578Y-115.12
X119.578Y-116.33
X120.147Y-103.81
X120.167Y-102.79
X120.307Y-101.38
X120.997Y-112.75
X120.997Y-113.98
X120.997Y-115.12
X120.997Y-116.35
X122.997Y-112.48
X123.027Y-107.76
X123.987Y-107.79
X124.257Y-101.46
X124.457Y-112.4
X125.097Y-101.4
X125.417Y-103.5
X125.557Y-71.35
X125.557Y-72.56
X125.557Y-73.72
X125.557Y-74.93
X126.017Y-101.46
X126.767Y-101.73
X126.917Y-102.35
X126.977Y-71.35
X126.977Y-72.58
X126.977Y-73.72
X126.977Y-74.95
X131.398Y-113.65
X131.398Y-114.86
X131.398Y-116.02
X131.398Y-117.23
X131.847Y-89.96
X132.118Y-100.93
X132.817Y-113.65
X132.817Y-114.88
X132.817Y-116.02
X132.817Y-117.25
X133.077Y-108.58
X133.077Y-109.81
X133.077Y-110.95
X134.097Y-108.6
X134.097Y-109.81
X134.097Y-110.97
X134.457Y-100.95
X135.838Y-121.2
X135.838Y-122.41
X137.047Y-55.18
X137.047Y-56.39
X137.047Y-57.55
X137.047Y-58.76
X137.257Y-121.2
X137.257Y-122.43
X137.618Y-117.45
X138.468Y-55.18
X138.468Y-56.41
X138.468Y-57.55
X138.468Y-58.78
X138.847Y-117.45
X139.987Y-117.45
X141.218Y-117.45
X147.947Y-117.02
X147.947Y-118.23
X147.947Y-119.39
X147.947Y-120.6
X149.368Y-117.02
X149.368Y-118.25
X149.368Y-119.39
X149.368Y-120.62
X155.072Y-56.905
X155.072Y-58.135
X155.072Y-59.275
X155.072Y-60.505
X156.493Y-56.925
X156.493Y-58.135
X156.493Y-59.295
X156.493Y-60.505
X163.222Y-60.075
X164.452Y-60.075
X165.593Y-60.075
X165.972Y-118.745
X165.972Y-119.975
X165.972Y-121.115
X165.972Y-122.345
X166.822Y-60.075
X167.183Y-55.095
X167.183Y-56.325
X167.392Y-118.765
X167.392Y-119.975
X167.392Y-121.135
X167.392Y-122.345
X168.602Y-55.115
X168.602Y-56.325
X169.982Y-76.575
X170.343Y-66.555
X170.343Y-67.715
X170.343Y-68.925
X171.362Y-66.575
X171.362Y-67.715
X171.362Y-68.945
X171.623Y-60.275
X171.623Y-61.505
X171.623Y-62.645
X171.623Y-63.875
X172.322Y-76.595
X172.593Y-87.565
X173.042Y-60.295
X173.042Y-61.505
X173.042Y-62.665
X173.042Y-63.875
X177.463Y-102.575
X177.463Y-103.805
X177.463Y-104.945
X177.463Y-106.175
X177.522Y-75.175
X177.672Y-75.795
X178.422Y-76.065
X178.882Y-102.595
X178.882Y-103.805
X178.882Y-104.965
X178.882Y-106.175
X179.022Y-74.025
X179.343Y-76.125
X179.982Y-65.125
X180.183Y-76.065
X180.452Y-69.735
X181.412Y-69.765
X181.442Y-65.045
X183.442Y-61.175
X183.442Y-62.405
X183.442Y-63.545
X183.442Y-64.775
X184.132Y-76.145
X184.272Y-74.735
X184.292Y-73.715
X184.862Y-61.195
X184.862Y-62.405
X184.862Y-63.565
X184.862Y-64.775
X184.862Y-76.145
X185.502Y-73.715
X185.502Y-74.735
X185.653Y-76.295
X186.132Y-76.775
X186.463Y-87.615
X186.492Y-78.175
X186.532Y-77.365
X186.642Y-74.735
X186.653Y-72.255
X186.662Y-73.715
X186.672Y-71.235
X188.812Y-116.605
X188.812Y-117.835
X188.812Y-118.975
X188.812Y-120.205
X190.132Y-54.305
X190.132Y-55.535
X190.132Y-56.675
X190.132Y-57.905
X190.232Y-116.625
X190.232Y-117.835
X190.232Y-118.995
X190.232Y-120.205
X191.552Y-54.325
X191.552Y-55.535
X191.552Y-56.695
X191.552Y-57.905
X194.183Y-66.895
X194.202Y-65.475
X194.222Y-78.185
X194.822Y-77.585
X194.972Y-76.885
X195.412Y-65.475
X195.412Y-66.895
X195.623Y-80.695
X195.623Y-81.925
X195.623Y-83.065
X195.623Y-84.295
X196.552Y-66.895
X196.572Y-65.475
X197.042Y-80.715
X197.042Y-81.925
X197.042Y-83.085
X197.042Y-84.295
X197.782Y-65.475
X197.782Y-66.895
T2
X133.607Y-121.95
X170.832Y-55.575
T3
X106.407Y-65.91
X106.417Y-77.93
X106.427Y-71.91
X108.947Y-65.91
X108.957Y-77.93
X108.968Y-71.91
X141.957Y-94.34
X141.957Y-99.42
X141.957Y-104.5
X141.957Y-112.12
X149.577Y-94.34
X149.577Y-99.42
X149.577Y-104.5
X149.577Y-112.12
X154.862Y-65.405
X154.862Y-73.025
X154.862Y-78.105
X154.862Y-83.185
X162.482Y-65.405
X162.482Y-73.025
X162.482Y-78.105
X162.482Y-83.185
X195.472Y-105.615
X195.482Y-99.595
X195.492Y-111.615
X198.012Y-105.615
X198.022Y-99.595
X198.032Y-111.615
T4
X146.827Y-63.97
X146.827Y-67.78
X146.838Y-72.61
X146.838Y-76.42
X146.838Y-80.23
X146.998Y-85.38
X146.998Y-89.19
X157.442Y-88.335
X157.442Y-92.145
X157.602Y-97.295
X157.602Y-101.105
X157.602Y-104.915
X157.612Y-109.745
X157.612Y-113.555
T5
X112.96Y-67.635
X112.96Y-70.195
X112.96Y-85.42
X112.985Y-80.36
X112.985Y-90.47
X113.01Y-77.845
X113.01Y-87.96
X113.01Y-103.205
X137.935Y-72.62
X137.935Y-82.735
X137.935Y-85.295
X137.96Y-67.635
X137.96Y-70.195
X137.96Y-80.235
X137.985Y-87.835
X137.985Y-90.47
X137.985Y-93.03
X138.01Y-100.645
X166.43Y-76.88
X166.455Y-84.495
X166.455Y-87.055
X166.455Y-89.69
X166.48Y-97.29
X166.48Y-107.33
X166.48Y-109.89
X166.505Y-92.23
X166.505Y-94.79
X166.505Y-104.905
X191.43Y-74.32
X191.43Y-89.565
X191.43Y-99.68
X191.455Y-87.055
X191.455Y-97.165
X191.48Y-92.105
X191.48Y-107.33
X191.48Y-109.89
M30
