%TF.GenerationSoftware,KiCad,Pcbnew,9.0.7*%
%TF.CreationDate,2026-09-09T09:09:22+05:30*%
%TF.ProjectId,PumpNodeNew,50756d70-4e6f-4646-954e-65772e6b6963,rev?*%
%TF.SameCoordinates,Original*%
%TF.FileFunction,Soldermask,Bot*%
%TF.FilePolarity,Negative*%
%FSLAX46Y46*%
G04 Gerber Fmt 4.6, Leading zero omitted, Abs format (unit mm)*
G04 Created by KiCad (PCBNEW 9.0.7) date 2026-09-09 09:09:22*
%MOMM*%
%LPD*%
G01*
G04 APERTURE LIST*
G04 Aperture macros list*
%AMRoundRect*
0 Rectangle with rounded corners*
0 $1 Rounding radius*
0 $2 $3 $4 $5 $6 $7 $8 $9 X,Y pos of 4 corners*
0 Add a 4 corners polygon primitive as box body*
4,1,4,$2,$3,$4,$5,$6,$7,$8,$9,$2,$3,0*
0 Add four circle primitives for the rounded corners*
1,1,$1+$1,$2,$3*
1,1,$1+$1,$4,$5*
1,1,$1+$1,$6,$7*
1,1,$1+$1,$8,$9*
0 Add four rect primitives between the rounded corners*
20,1,$1+$1,$2,$3,$4,$5,0*
20,1,$1+$1,$4,$5,$6,$7,0*
20,1,$1+$1,$6,$7,$8,$9,0*
20,1,$1+$1,$8,$9,$2,$3,0*%
G04 Aperture macros list end*
%ADD10R,1.800000X1.800000*%
%ADD11C,1.800000*%
%ADD12RoundRect,0.250000X-0.625000X-0.625000X0.625000X-0.625000X0.625000X0.625000X-0.625000X0.625000X0*%
%ADD13C,1.750000*%
%ADD14RoundRect,0.250000X0.550000X-0.550000X0.550000X0.550000X-0.550000X0.550000X-0.550000X-0.550000X0*%
%ADD15C,1.600000*%
%ADD16C,3.200000*%
%ADD17C,5.000000*%
%ADD18C,1.200000*%
%ADD19O,2.200000X1.500000*%
%ADD20C,2.000000*%
%ADD21RoundRect,0.250000X-0.750000X-0.750000X0.750000X-0.750000X0.750000X0.750000X-0.750000X0.750000X0*%
%ADD22RoundRect,0.250000X0.262500X0.450000X-0.262500X0.450000X-0.262500X-0.450000X0.262500X-0.450000X0*%
%ADD23RoundRect,0.150000X0.825000X0.150000X-0.825000X0.150000X-0.825000X-0.150000X0.825000X-0.150000X0*%
%ADD24RoundRect,0.250000X-0.262500X-0.450000X0.262500X-0.450000X0.262500X0.450000X-0.262500X0.450000X0*%
%ADD25RoundRect,0.250000X-0.250000X-0.475000X0.250000X-0.475000X0.250000X0.475000X-0.250000X0.475000X0*%
%ADD26RoundRect,0.250000X-0.385000X-1.350000X0.385000X-1.350000X0.385000X1.350000X-0.385000X1.350000X0*%
%ADD27RoundRect,0.250000X-0.425000X-1.600000X0.425000X-1.600000X0.425000X1.600000X-0.425000X1.600000X0*%
%ADD28RoundRect,0.150000X-0.150000X0.512500X-0.150000X-0.512500X0.150000X-0.512500X0.150000X0.512500X0*%
%ADD29RoundRect,0.250000X0.475000X-0.250000X0.475000X0.250000X-0.475000X0.250000X-0.475000X-0.250000X0*%
%ADD30R,1.500000X2.000000*%
%ADD31RoundRect,0.243750X0.243750X0.456250X-0.243750X0.456250X-0.243750X-0.456250X0.243750X-0.456250X0*%
%ADD32RoundRect,0.250000X0.250000X0.475000X-0.250000X0.475000X-0.250000X-0.475000X0.250000X-0.475000X0*%
%ADD33RoundRect,0.375000X0.375000X-0.625000X0.375000X0.625000X-0.375000X0.625000X-0.375000X-0.625000X0*%
%ADD34RoundRect,0.500000X1.400000X-0.500000X1.400000X0.500000X-1.400000X0.500000X-1.400000X-0.500000X0*%
%ADD35RoundRect,0.250000X-0.475000X0.250000X-0.475000X-0.250000X0.475000X-0.250000X0.475000X0.250000X0*%
G04 APERTURE END LIST*
D10*
%TO.C,D1*%
X235770000Y-108465000D03*
D11*
X233230000Y-108465000D03*
%TD*%
D10*
%TO.C,D2*%
X235750000Y-102465000D03*
D11*
X233210000Y-102465000D03*
%TD*%
D10*
%TO.C,D3*%
X235760000Y-96445000D03*
D11*
X233220000Y-96445000D03*
%TD*%
D12*
%TO.C,J1*%
X181520000Y-82895000D03*
D13*
X185330000Y-82895000D03*
X189140000Y-82895000D03*
%TD*%
D12*
%TO.C,J4*%
X171235000Y-82872500D03*
D13*
X175045000Y-82872500D03*
%TD*%
D12*
%TO.C,J3*%
X194185000Y-82932500D03*
D13*
X197995000Y-82932500D03*
%TD*%
D14*
%TO.C,C5*%
X224160000Y-58915937D03*
X225760000Y-58245000D03*
D15*
X225760000Y-55745000D03*
X227360000Y-55074063D03*
%TD*%
D14*
%TO.C,C4*%
X211150000Y-58965937D03*
X212750000Y-58295000D03*
D15*
X212750000Y-55795000D03*
X214350000Y-55124063D03*
%TD*%
D16*
%TO.C,H1*%
X3475000Y-3475000D03*
%TD*%
D17*
%TO.C,*%
X156830000Y-58145000D03*
%TD*%
%TO.C,*%
X233830000Y-58145000D03*
%TD*%
%TO.C,.*%
X233830000Y-113145000D03*
%TD*%
D18*
%TO.C,U5*%
X203895000Y-77580000D03*
X203895000Y-80140000D03*
X203945000Y-97990000D03*
X203945000Y-100550000D03*
X228895000Y-77580000D03*
X228895000Y-80140000D03*
X228920000Y-75065000D03*
X228920000Y-100425000D03*
X228945000Y-82680000D03*
X228970000Y-92850000D03*
X228970000Y-102965000D03*
D19*
X228970000Y-108075000D03*
X228970000Y-105515000D03*
X228920000Y-97865000D03*
X228945000Y-95350000D03*
X228970000Y-90290000D03*
X228920000Y-87750000D03*
X228945000Y-85240000D03*
X228920000Y-72505000D03*
X203920000Y-72505000D03*
X203920000Y-75065000D03*
X203945000Y-82680000D03*
X203945000Y-85240000D03*
X203945000Y-87875000D03*
X203995000Y-90415000D03*
X203995000Y-92975000D03*
X203970000Y-95475000D03*
X203995000Y-103090000D03*
X203970000Y-105515000D03*
X203970000Y-108075000D03*
%TD*%
D17*
%TO.C,*%
X-36100000Y-58145000D03*
%TD*%
%TO.C,*%
X-113100000Y-58145000D03*
%TD*%
%TO.C,.*%
X-36100000Y-113145000D03*
%TD*%
D20*
%TO.C,K1*%
X157680000Y-74395000D03*
X157680000Y-79475000D03*
X157680000Y-84555000D03*
X165300000Y-74395000D03*
X165300000Y-79475000D03*
X165300000Y-84555000D03*
D21*
X157680000Y-66775000D03*
D20*
X165300000Y-66775000D03*
%TD*%
D17*
%TO.C,*%
X-113100000Y-113145000D03*
%TD*%
%TO.C,*%
X156830000Y-113145000D03*
%TD*%
D22*
%TO.C,R7*%
X213802500Y-74975000D03*
X211977500Y-74975000D03*
%TD*%
D23*
%TO.C,U1*%
X175315000Y-63490000D03*
X175315000Y-71110000D03*
X175315000Y-72380000D03*
X170365000Y-72380000D03*
X170365000Y-71110000D03*
X170365000Y-63490000D03*
%TD*%
D24*
%TO.C,R1*%
X221637500Y-108455000D03*
X223462500Y-108455000D03*
%TD*%
D25*
%TO.C,C3*%
X207570000Y-75025000D03*
X209470000Y-75025000D03*
%TD*%
D22*
%TO.C,R9*%
X213782500Y-77405000D03*
X211957500Y-77405000D03*
%TD*%
D26*
%TO.C,J2*%
X184320000Y-52145000D03*
D27*
X181495000Y-52395000D03*
X187145000Y-52395000D03*
%TD*%
D24*
%TO.C,R5*%
X221657500Y-96465000D03*
X223482500Y-96465000D03*
%TD*%
D28*
%TO.C,U8*%
X206067500Y-51927500D03*
X207017500Y-51927500D03*
X207967500Y-51927500D03*
X207967500Y-54202500D03*
X206067500Y-54202500D03*
%TD*%
D29*
%TO.C,C13*%
X203890000Y-53945000D03*
X203890000Y-52045000D03*
%TD*%
D30*
%TO.C,U7*%
X184310000Y-56675000D03*
X186310000Y-56675000D03*
X188310000Y-56675000D03*
X190310000Y-56675000D03*
X194310000Y-56675000D03*
X198310000Y-72675000D03*
X196310000Y-72675000D03*
X192310000Y-72675000D03*
X190310000Y-72675000D03*
X188310000Y-72675000D03*
X186310000Y-72675000D03*
X184310000Y-72675000D03*
%TD*%
D22*
%TO.C,R11*%
X213792500Y-80185000D03*
X211967500Y-80185000D03*
%TD*%
D25*
%TO.C,C8*%
X207590000Y-82665000D03*
X209490000Y-82665000D03*
%TD*%
D24*
%TO.C,R2*%
X221637500Y-102475000D03*
X223462500Y-102475000D03*
%TD*%
D31*
%TO.C,D7*%
X189147500Y-79715000D03*
X187272500Y-79715000D03*
%TD*%
D22*
%TO.C,R12*%
X213722500Y-82705000D03*
X211897500Y-82705000D03*
%TD*%
D29*
%TO.C,C12*%
X201700000Y-53935000D03*
X201700000Y-52035000D03*
%TD*%
D32*
%TO.C,C6*%
X196170000Y-79685000D03*
X194270000Y-79685000D03*
%TD*%
%TO.C,C7*%
X208770000Y-105555000D03*
X206870000Y-105555000D03*
%TD*%
D31*
%TO.C,D6*%
X185047500Y-79705000D03*
X183172500Y-79705000D03*
%TD*%
D33*
%TO.C,U13*%
X221760000Y-58445000D03*
X219460000Y-58445000D03*
D34*
X219460000Y-52145000D03*
D33*
X217160000Y-58445000D03*
%TD*%
D24*
%TO.C,R13*%
X221677500Y-92195000D03*
X223502500Y-92195000D03*
%TD*%
D35*
%TO.C,C10*%
X210110000Y-52145000D03*
X210110000Y-54045000D03*
%TD*%
M02*
