%TF.GenerationSoftware,KiCad,Pcbnew,9.0.7*%
%TF.CreationDate,2026-09-11T09:01:21+05:30*%
%TF.ProjectId,PumpNodeNew,50756d70-4e6f-4646-954e-65772e6b6963,rev?*%
%TF.SameCoordinates,Original*%
%TF.FileFunction,Paste,Bot*%
%TF.FilePolarity,Positive*%
%FSLAX46Y46*%
G04 Gerber Fmt 4.6, Leading zero omitted, Abs format (unit mm)*
G04 Created by KiCad (PCBNEW 9.0.7) date 2026-09-11 09:01:21*
%MOMM*%
%LPD*%
G01*
G04 APERTURE LIST*
G04 Aperture macros list*
%AMRoundRect*
0 Rectangle with rounded corners*
0 $1 Rounding radius*
0 $2 $3 $4 $5 $6 $7 $8 $9 X,Y pos of 4 corners*
0 Add a 4 corners polygon primitive as box body*
4,1,4,$2,$3,$4,$5,$6,$7,$8,$9,$2,$3,0*
0 Add four circle primitives for the rounded corners*
1,1,$1+$1,$2,$3*
1,1,$1+$1,$4,$5*
1,1,$1+$1,$6,$7*
1,1,$1+$1,$8,$9*
0 Add four rect primitives between the rounded corners*
20,1,$1+$1,$2,$3,$4,$5,0*
20,1,$1+$1,$4,$5,$6,$7,0*
20,1,$1+$1,$6,$7,$8,$9,0*
20,1,$1+$1,$8,$9,$2,$3,0*%
G04 Aperture macros list end*
%ADD10RoundRect,0.150000X-0.512500X-0.150000X0.512500X-0.150000X0.512500X0.150000X-0.512500X0.150000X0*%
%ADD11RoundRect,0.250000X0.250000X0.475000X-0.250000X0.475000X-0.250000X-0.475000X0.250000X-0.475000X0*%
%ADD12RoundRect,0.150000X0.825000X0.150000X-0.825000X0.150000X-0.825000X-0.150000X0.825000X-0.150000X0*%
%ADD13RoundRect,0.250000X-0.250000X-0.475000X0.250000X-0.475000X0.250000X0.475000X-0.250000X0.475000X0*%
%ADD14RoundRect,0.250000X-0.262500X-0.450000X0.262500X-0.450000X0.262500X0.450000X-0.262500X0.450000X0*%
%ADD15RoundRect,0.243750X0.456250X-0.243750X0.456250X0.243750X-0.456250X0.243750X-0.456250X-0.243750X0*%
%ADD16RoundRect,0.150000X0.512500X0.150000X-0.512500X0.150000X-0.512500X-0.150000X0.512500X-0.150000X0*%
%ADD17RoundRect,0.243750X-0.456250X0.243750X-0.456250X-0.243750X0.456250X-0.243750X0.456250X0.243750X0*%
%ADD18RoundRect,0.250000X0.475000X-0.250000X0.475000X0.250000X-0.475000X0.250000X-0.475000X-0.250000X0*%
%ADD19RoundRect,0.250000X0.262500X0.450000X-0.262500X0.450000X-0.262500X-0.450000X0.262500X-0.450000X0*%
%ADD20R,1.500000X2.000000*%
%ADD21RoundRect,0.250000X0.450000X-0.262500X0.450000X0.262500X-0.450000X0.262500X-0.450000X-0.262500X0*%
%ADD22RoundRect,0.250000X-0.450000X0.262500X-0.450000X-0.262500X0.450000X-0.262500X0.450000X0.262500X0*%
%ADD23RoundRect,0.375000X-0.625000X-0.375000X0.625000X-0.375000X0.625000X0.375000X-0.625000X0.375000X0*%
%ADD24RoundRect,0.500000X-0.500000X-1.400000X0.500000X-1.400000X0.500000X1.400000X-0.500000X1.400000X0*%
%ADD25RoundRect,0.375000X0.625000X0.375000X-0.625000X0.375000X-0.625000X-0.375000X0.625000X-0.375000X0*%
%ADD26RoundRect,0.500000X0.500000X1.400000X-0.500000X1.400000X-0.500000X-1.400000X0.500000X-1.400000X0*%
%ADD27RoundRect,0.250000X-0.475000X0.250000X-0.475000X-0.250000X0.475000X-0.250000X0.475000X0.250000X0*%
%ADD28RoundRect,0.150000X-0.825000X-0.150000X0.825000X-0.150000X0.825000X0.150000X-0.825000X0.150000X0*%
G04 APERTURE END LIST*
D10*
%TO.C,U8*%
X109550000Y-108970000D03*
X109550000Y-108020000D03*
X109550000Y-107070000D03*
X111825000Y-107070000D03*
X111825000Y-108970000D03*
%TD*%
D11*
%TO.C,C10*%
X109407500Y-104390000D03*
X107507500Y-104390000D03*
%TD*%
D12*
%TO.C,U1*%
X130112500Y-91386713D03*
X130112500Y-99006713D03*
X130112500Y-100276713D03*
X125162500Y-100276713D03*
X125162500Y-99006713D03*
X125162500Y-91386713D03*
%TD*%
D13*
%TO.C,C3*%
X169362500Y-78075000D03*
X171262500Y-78075000D03*
%TD*%
%TO.C,C8*%
X169432500Y-85975000D03*
X171332500Y-85975000D03*
%TD*%
D14*
%TO.C,R12*%
X133175000Y-94290000D03*
X135000000Y-94290000D03*
%TD*%
D15*
%TO.C,D7*%
X155022500Y-105812500D03*
X155022500Y-103937500D03*
%TD*%
D14*
%TO.C,R7*%
X133175000Y-96890000D03*
X135000000Y-96890000D03*
%TD*%
D15*
%TO.C,D6*%
X155042500Y-98812500D03*
X155042500Y-96937500D03*
%TD*%
D13*
%TO.C,C12*%
X111787500Y-110740000D03*
X113687500Y-110740000D03*
%TD*%
D16*
%TO.C,U8*%
X194890000Y-68555000D03*
X194890000Y-69505000D03*
X194890000Y-70455000D03*
X192615000Y-70455000D03*
X192615000Y-68555000D03*
%TD*%
D17*
%TO.C,D7*%
X149417500Y-71712500D03*
X149417500Y-73587500D03*
%TD*%
D18*
%TO.C,C6*%
X161482500Y-112295000D03*
X161482500Y-110395000D03*
%TD*%
D19*
%TO.C,R13*%
X117910000Y-85470000D03*
X116085000Y-85470000D03*
%TD*%
D20*
%TO.C,U7*%
X172832500Y-55575000D03*
X174832500Y-55575000D03*
X176832500Y-55575000D03*
X180832500Y-55575000D03*
X184832500Y-71575000D03*
X182832500Y-71575000D03*
X178832500Y-71575000D03*
X176832500Y-71575000D03*
X174832500Y-71575000D03*
X172832500Y-71575000D03*
X170832500Y-71575000D03*
%TD*%
D19*
%TO.C,R5*%
X109370000Y-85620000D03*
X107545000Y-85620000D03*
%TD*%
D14*
%TO.C,R1*%
X187140000Y-111605000D03*
X188965000Y-111605000D03*
%TD*%
D11*
%TO.C,C13*%
X192592500Y-64415000D03*
X190692500Y-64415000D03*
%TD*%
D19*
%TO.C,R12*%
X171265000Y-83235000D03*
X169440000Y-83235000D03*
%TD*%
D13*
%TO.C,C7*%
X195022500Y-75685000D03*
X196922500Y-75685000D03*
%TD*%
D17*
%TO.C,D6*%
X149397500Y-78712500D03*
X149397500Y-80587500D03*
%TD*%
D11*
%TO.C,C3*%
X135077500Y-99450000D03*
X133177500Y-99450000D03*
%TD*%
D13*
%TO.C,C10*%
X195032500Y-73135000D03*
X196932500Y-73135000D03*
%TD*%
%TO.C,C13*%
X111847500Y-113110000D03*
X113747500Y-113110000D03*
%TD*%
D19*
%TO.C,R1*%
X117300000Y-65920000D03*
X115475000Y-65920000D03*
%TD*%
D21*
%TO.C,R9*%
X142967500Y-80562500D03*
X142967500Y-78737500D03*
%TD*%
D22*
%TO.C,R9*%
X161472500Y-96962500D03*
X161472500Y-98787500D03*
%TD*%
%TO.C,R11*%
X161592500Y-103952500D03*
X161592500Y-105777500D03*
%TD*%
D19*
%TO.C,R2*%
X109400000Y-82990000D03*
X107575000Y-82990000D03*
%TD*%
D23*
%TO.C,U13*%
X171222500Y-120397500D03*
X171222500Y-118097500D03*
D24*
X177522500Y-118097500D03*
D23*
X171222500Y-115797500D03*
%TD*%
D21*
%TO.C,R11*%
X142847500Y-73572500D03*
X142847500Y-71747500D03*
%TD*%
D14*
%TO.C,R13*%
X186530000Y-92055000D03*
X188355000Y-92055000D03*
%TD*%
D20*
%TO.C,U7*%
X131607500Y-121950000D03*
X129607500Y-121950000D03*
X127607500Y-121950000D03*
X123607500Y-121950000D03*
X119607500Y-105950000D03*
X121607500Y-105950000D03*
X125607500Y-105950000D03*
X127607500Y-105950000D03*
X129607500Y-105950000D03*
X131607500Y-105950000D03*
X133607500Y-105950000D03*
%TD*%
D19*
%TO.C,R7*%
X171265000Y-80635000D03*
X169440000Y-80635000D03*
%TD*%
D25*
%TO.C,U13*%
X133217500Y-57127500D03*
X133217500Y-59427500D03*
D26*
X126917500Y-59427500D03*
D25*
X133217500Y-61727500D03*
%TD*%
D14*
%TO.C,R2*%
X195040000Y-94535000D03*
X196865000Y-94535000D03*
%TD*%
D11*
%TO.C,C12*%
X192652500Y-66785000D03*
X190752500Y-66785000D03*
%TD*%
%TO.C,C7*%
X109417500Y-101840000D03*
X107517500Y-101840000D03*
%TD*%
D14*
%TO.C,R5*%
X195070000Y-91905000D03*
X196895000Y-91905000D03*
%TD*%
D27*
%TO.C,C6*%
X142957500Y-65230000D03*
X142957500Y-67130000D03*
%TD*%
D28*
%TO.C,U1*%
X174327500Y-86138287D03*
X174327500Y-78518287D03*
X174327500Y-77248287D03*
X179277500Y-77248287D03*
X179277500Y-78518287D03*
X179277500Y-86138287D03*
%TD*%
D11*
%TO.C,C8*%
X135007500Y-91550000D03*
X133107500Y-91550000D03*
%TD*%
M02*
