%TF.GenerationSoftware,KiCad,Pcbnew,9.0.7*%
%TF.CreationDate,2026-09-11T09:01:21+05:30*%
%TF.ProjectId,PumpNodeNew,50756d70-4e6f-4646-954e-65772e6b6963,rev?*%
%TF.SameCoordinates,Original*%
%TF.FileFunction,Legend,Top*%
%TF.FilePolarity,Positive*%
%FSLAX46Y46*%
G04 Gerber Fmt 4.6, Leading zero omitted, Abs format (unit mm)*
G04 Created by KiCad (PCBNEW 9.0.7) date 2026-09-11 09:01:21*
%MOMM*%
%LPD*%
G01*
G04 APERTURE LIST*
%ADD10C,0.500000*%
%ADD11C,0.250000*%
%ADD12C,0.200000*%
%ADD13C,0.375000*%
%ADD14C,0.175000*%
%ADD15C,0.150000*%
%ADD16C,0.240000*%
%ADD17C,0.300000*%
%ADD18C,0.875000*%
%ADD19C,1.000000*%
%ADD20C,0.120000*%
%ADD21C,0.100000*%
G04 APERTURE END LIST*
D10*
X140251976Y-79697243D02*
X140156738Y-79887719D01*
X140156738Y-79887719D02*
X140156738Y-80173433D01*
X140156738Y-80173433D02*
X140251976Y-80459148D01*
X140251976Y-80459148D02*
X140442452Y-80649624D01*
X140442452Y-80649624D02*
X140632928Y-80744862D01*
X140632928Y-80744862D02*
X141013880Y-80840100D01*
X141013880Y-80840100D02*
X141299595Y-80840100D01*
X141299595Y-80840100D02*
X141680547Y-80744862D01*
X141680547Y-80744862D02*
X141871023Y-80649624D01*
X141871023Y-80649624D02*
X142061500Y-80459148D01*
X142061500Y-80459148D02*
X142156738Y-80173433D01*
X142156738Y-80173433D02*
X142156738Y-79982957D01*
X142156738Y-79982957D02*
X142061500Y-79697243D01*
X142061500Y-79697243D02*
X141966261Y-79602005D01*
X141966261Y-79602005D02*
X141299595Y-79602005D01*
X141299595Y-79602005D02*
X141299595Y-79982957D01*
X142096738Y-77194862D02*
X140096738Y-77194862D01*
X142096738Y-75194862D02*
X142096738Y-76337719D01*
X142096738Y-75766291D02*
X140096738Y-75766291D01*
X140096738Y-75766291D02*
X140382452Y-75956767D01*
X140382452Y-75956767D02*
X140572928Y-76147243D01*
X140572928Y-76147243D02*
X140668166Y-76337719D01*
D11*
X109065884Y-73189857D02*
X109637312Y-73189857D01*
X109637312Y-73189857D02*
X109637312Y-74389857D01*
X108494455Y-73189857D02*
X108608740Y-73247000D01*
X108608740Y-73247000D02*
X108665883Y-73304142D01*
X108665883Y-73304142D02*
X108723026Y-73418428D01*
X108723026Y-73418428D02*
X108723026Y-73761285D01*
X108723026Y-73761285D02*
X108665883Y-73875571D01*
X108665883Y-73875571D02*
X108608740Y-73932714D01*
X108608740Y-73932714D02*
X108494455Y-73989857D01*
X108494455Y-73989857D02*
X108323026Y-73989857D01*
X108323026Y-73989857D02*
X108208740Y-73932714D01*
X108208740Y-73932714D02*
X108151598Y-73875571D01*
X108151598Y-73875571D02*
X108094455Y-73761285D01*
X108094455Y-73761285D02*
X108094455Y-73418428D01*
X108094455Y-73418428D02*
X108151598Y-73304142D01*
X108151598Y-73304142D02*
X108208740Y-73247000D01*
X108208740Y-73247000D02*
X108323026Y-73189857D01*
X108323026Y-73189857D02*
X108494455Y-73189857D01*
X106894455Y-73189857D02*
X107294455Y-73761285D01*
X107580169Y-73189857D02*
X107580169Y-74389857D01*
X107580169Y-74389857D02*
X107123026Y-74389857D01*
X107123026Y-74389857D02*
X107008741Y-74332714D01*
X107008741Y-74332714D02*
X106951598Y-74275571D01*
X106951598Y-74275571D02*
X106894455Y-74161285D01*
X106894455Y-74161285D02*
X106894455Y-73989857D01*
X106894455Y-73989857D02*
X106951598Y-73875571D01*
X106951598Y-73875571D02*
X107008741Y-73818428D01*
X107008741Y-73818428D02*
X107123026Y-73761285D01*
X107123026Y-73761285D02*
X107580169Y-73761285D01*
X105865884Y-73189857D02*
X105865884Y-73818428D01*
X105865884Y-73818428D02*
X105923026Y-73932714D01*
X105923026Y-73932714D02*
X106037312Y-73989857D01*
X106037312Y-73989857D02*
X106265884Y-73989857D01*
X106265884Y-73989857D02*
X106380169Y-73932714D01*
X105865884Y-73247000D02*
X105980169Y-73189857D01*
X105980169Y-73189857D02*
X106265884Y-73189857D01*
X106265884Y-73189857D02*
X106380169Y-73247000D01*
X106380169Y-73247000D02*
X106437312Y-73361285D01*
X106437312Y-73361285D02*
X106437312Y-73475571D01*
X106437312Y-73475571D02*
X106380169Y-73589857D01*
X106380169Y-73589857D02*
X106265884Y-73647000D01*
X106265884Y-73647000D02*
X105980169Y-73647000D01*
X105980169Y-73647000D02*
X105865884Y-73704142D01*
X195374115Y-104335142D02*
X194802687Y-104335142D01*
X194802687Y-104335142D02*
X194802687Y-103135142D01*
X195945544Y-104335142D02*
X195831259Y-104278000D01*
X195831259Y-104278000D02*
X195774116Y-104220857D01*
X195774116Y-104220857D02*
X195716973Y-104106571D01*
X195716973Y-104106571D02*
X195716973Y-103763714D01*
X195716973Y-103763714D02*
X195774116Y-103649428D01*
X195774116Y-103649428D02*
X195831259Y-103592285D01*
X195831259Y-103592285D02*
X195945544Y-103535142D01*
X195945544Y-103535142D02*
X196116973Y-103535142D01*
X196116973Y-103535142D02*
X196231259Y-103592285D01*
X196231259Y-103592285D02*
X196288402Y-103649428D01*
X196288402Y-103649428D02*
X196345544Y-103763714D01*
X196345544Y-103763714D02*
X196345544Y-104106571D01*
X196345544Y-104106571D02*
X196288402Y-104220857D01*
X196288402Y-104220857D02*
X196231259Y-104278000D01*
X196231259Y-104278000D02*
X196116973Y-104335142D01*
X196116973Y-104335142D02*
X195945544Y-104335142D01*
X197545544Y-104335142D02*
X197145544Y-103763714D01*
X196859830Y-104335142D02*
X196859830Y-103135142D01*
X196859830Y-103135142D02*
X197316973Y-103135142D01*
X197316973Y-103135142D02*
X197431258Y-103192285D01*
X197431258Y-103192285D02*
X197488401Y-103249428D01*
X197488401Y-103249428D02*
X197545544Y-103363714D01*
X197545544Y-103363714D02*
X197545544Y-103535142D01*
X197545544Y-103535142D02*
X197488401Y-103649428D01*
X197488401Y-103649428D02*
X197431258Y-103706571D01*
X197431258Y-103706571D02*
X197316973Y-103763714D01*
X197316973Y-103763714D02*
X196859830Y-103763714D01*
X198574116Y-104335142D02*
X198574116Y-103706571D01*
X198574116Y-103706571D02*
X198516973Y-103592285D01*
X198516973Y-103592285D02*
X198402687Y-103535142D01*
X198402687Y-103535142D02*
X198174116Y-103535142D01*
X198174116Y-103535142D02*
X198059830Y-103592285D01*
X198574116Y-104278000D02*
X198459830Y-104335142D01*
X198459830Y-104335142D02*
X198174116Y-104335142D01*
X198174116Y-104335142D02*
X198059830Y-104278000D01*
X198059830Y-104278000D02*
X198002687Y-104163714D01*
X198002687Y-104163714D02*
X198002687Y-104049428D01*
X198002687Y-104049428D02*
X198059830Y-103935142D01*
X198059830Y-103935142D02*
X198174116Y-103878000D01*
X198174116Y-103878000D02*
X198459830Y-103878000D01*
X198459830Y-103878000D02*
X198574116Y-103820857D01*
D12*
X189386935Y-110932219D02*
X190005982Y-110932219D01*
X190005982Y-110932219D02*
X189672649Y-111313171D01*
X189672649Y-111313171D02*
X189815506Y-111313171D01*
X189815506Y-111313171D02*
X189910744Y-111360790D01*
X189910744Y-111360790D02*
X189958363Y-111408409D01*
X189958363Y-111408409D02*
X190005982Y-111503647D01*
X190005982Y-111503647D02*
X190005982Y-111741742D01*
X190005982Y-111741742D02*
X189958363Y-111836980D01*
X189958363Y-111836980D02*
X189910744Y-111884600D01*
X189910744Y-111884600D02*
X189815506Y-111932219D01*
X189815506Y-111932219D02*
X189529792Y-111932219D01*
X189529792Y-111932219D02*
X189434554Y-111884600D01*
X189434554Y-111884600D02*
X189386935Y-111836980D01*
X190434554Y-111836980D02*
X190482173Y-111884600D01*
X190482173Y-111884600D02*
X190434554Y-111932219D01*
X190434554Y-111932219D02*
X190386935Y-111884600D01*
X190386935Y-111884600D02*
X190434554Y-111836980D01*
X190434554Y-111836980D02*
X190434554Y-111932219D01*
X190815506Y-110932219D02*
X191434553Y-110932219D01*
X191434553Y-110932219D02*
X191101220Y-111313171D01*
X191101220Y-111313171D02*
X191244077Y-111313171D01*
X191244077Y-111313171D02*
X191339315Y-111360790D01*
X191339315Y-111360790D02*
X191386934Y-111408409D01*
X191386934Y-111408409D02*
X191434553Y-111503647D01*
X191434553Y-111503647D02*
X191434553Y-111741742D01*
X191434553Y-111741742D02*
X191386934Y-111836980D01*
X191386934Y-111836980D02*
X191339315Y-111884600D01*
X191339315Y-111884600D02*
X191244077Y-111932219D01*
X191244077Y-111932219D02*
X190958363Y-111932219D01*
X190958363Y-111932219D02*
X190863125Y-111884600D01*
X190863125Y-111884600D02*
X190815506Y-111836980D01*
X191720268Y-110932219D02*
X192053601Y-111932219D01*
X192053601Y-111932219D02*
X192386934Y-110932219D01*
D10*
X162343261Y-100330137D02*
X164343261Y-100330137D01*
X162343261Y-102330137D02*
X162343261Y-101187280D01*
X162343261Y-101758708D02*
X164343261Y-101758708D01*
X164343261Y-101758708D02*
X164057547Y-101568232D01*
X164057547Y-101568232D02*
X163867071Y-101377756D01*
X163867071Y-101377756D02*
X163771833Y-101187280D01*
X164188023Y-97827756D02*
X164283261Y-97637280D01*
X164283261Y-97637280D02*
X164283261Y-97351566D01*
X164283261Y-97351566D02*
X164188023Y-97065851D01*
X164188023Y-97065851D02*
X163997547Y-96875375D01*
X163997547Y-96875375D02*
X163807071Y-96780137D01*
X163807071Y-96780137D02*
X163426119Y-96684899D01*
X163426119Y-96684899D02*
X163140404Y-96684899D01*
X163140404Y-96684899D02*
X162759452Y-96780137D01*
X162759452Y-96780137D02*
X162568976Y-96875375D01*
X162568976Y-96875375D02*
X162378500Y-97065851D01*
X162378500Y-97065851D02*
X162283261Y-97351566D01*
X162283261Y-97351566D02*
X162283261Y-97542042D01*
X162283261Y-97542042D02*
X162378500Y-97827756D01*
X162378500Y-97827756D02*
X162473738Y-97922994D01*
X162473738Y-97922994D02*
X163140404Y-97922994D01*
X163140404Y-97922994D02*
X163140404Y-97542042D01*
D11*
X110017312Y-79499857D02*
X110017312Y-80699857D01*
X110017312Y-80699857D02*
X109560169Y-80699857D01*
X109560169Y-80699857D02*
X109445884Y-80642714D01*
X109445884Y-80642714D02*
X109388741Y-80585571D01*
X109388741Y-80585571D02*
X109331598Y-80471285D01*
X109331598Y-80471285D02*
X109331598Y-80299857D01*
X109331598Y-80299857D02*
X109388741Y-80185571D01*
X109388741Y-80185571D02*
X109445884Y-80128428D01*
X109445884Y-80128428D02*
X109560169Y-80071285D01*
X109560169Y-80071285D02*
X110017312Y-80071285D01*
X108303027Y-80299857D02*
X108303027Y-79499857D01*
X108817312Y-80299857D02*
X108817312Y-79671285D01*
X108817312Y-79671285D02*
X108760169Y-79557000D01*
X108760169Y-79557000D02*
X108645884Y-79499857D01*
X108645884Y-79499857D02*
X108474455Y-79499857D01*
X108474455Y-79499857D02*
X108360169Y-79557000D01*
X108360169Y-79557000D02*
X108303027Y-79614142D01*
X107731598Y-79499857D02*
X107731598Y-80299857D01*
X107731598Y-80185571D02*
X107674455Y-80242714D01*
X107674455Y-80242714D02*
X107560170Y-80299857D01*
X107560170Y-80299857D02*
X107388741Y-80299857D01*
X107388741Y-80299857D02*
X107274455Y-80242714D01*
X107274455Y-80242714D02*
X107217313Y-80128428D01*
X107217313Y-80128428D02*
X107217313Y-79499857D01*
X107217313Y-80128428D02*
X107160170Y-80242714D01*
X107160170Y-80242714D02*
X107045884Y-80299857D01*
X107045884Y-80299857D02*
X106874455Y-80299857D01*
X106874455Y-80299857D02*
X106760170Y-80242714D01*
X106760170Y-80242714D02*
X106703027Y-80128428D01*
X106703027Y-80128428D02*
X106703027Y-79499857D01*
X106131598Y-80299857D02*
X106131598Y-79099857D01*
X106131598Y-80242714D02*
X106017313Y-80299857D01*
X106017313Y-80299857D02*
X105788741Y-80299857D01*
X105788741Y-80299857D02*
X105674455Y-80242714D01*
X105674455Y-80242714D02*
X105617313Y-80185571D01*
X105617313Y-80185571D02*
X105560170Y-80071285D01*
X105560170Y-80071285D02*
X105560170Y-79728428D01*
X105560170Y-79728428D02*
X105617313Y-79614142D01*
X105617313Y-79614142D02*
X105674455Y-79557000D01*
X105674455Y-79557000D02*
X105788741Y-79499857D01*
X105788741Y-79499857D02*
X106017313Y-79499857D01*
X106017313Y-79499857D02*
X106131598Y-79557000D01*
X109107312Y-67079857D02*
X109107312Y-68279857D01*
X109107312Y-68279857D02*
X108650169Y-68279857D01*
X108650169Y-68279857D02*
X108535884Y-68222714D01*
X108535884Y-68222714D02*
X108478741Y-68165571D01*
X108478741Y-68165571D02*
X108421598Y-68051285D01*
X108421598Y-68051285D02*
X108421598Y-67879857D01*
X108421598Y-67879857D02*
X108478741Y-67765571D01*
X108478741Y-67765571D02*
X108535884Y-67708428D01*
X108535884Y-67708428D02*
X108650169Y-67651285D01*
X108650169Y-67651285D02*
X109107312Y-67651285D01*
X108021598Y-68279857D02*
X107735884Y-67079857D01*
X107735884Y-67079857D02*
X107507312Y-67937000D01*
X107507312Y-67937000D02*
X107278741Y-67079857D01*
X107278741Y-67079857D02*
X106993027Y-68279857D01*
X105850169Y-67079857D02*
X106250169Y-67651285D01*
X106535883Y-67079857D02*
X106535883Y-68279857D01*
X106535883Y-68279857D02*
X106078740Y-68279857D01*
X106078740Y-68279857D02*
X105964455Y-68222714D01*
X105964455Y-68222714D02*
X105907312Y-68165571D01*
X105907312Y-68165571D02*
X105850169Y-68051285D01*
X105850169Y-68051285D02*
X105850169Y-67879857D01*
X105850169Y-67879857D02*
X105907312Y-67765571D01*
X105907312Y-67765571D02*
X105964455Y-67708428D01*
X105964455Y-67708428D02*
X106078740Y-67651285D01*
X106078740Y-67651285D02*
X106535883Y-67651285D01*
D13*
X142044428Y-89836147D02*
X140544428Y-89836147D01*
X140544428Y-89836147D02*
X140544428Y-89264718D01*
X140544428Y-89264718D02*
X140615857Y-89121861D01*
X140615857Y-89121861D02*
X140687285Y-89050432D01*
X140687285Y-89050432D02*
X140830142Y-88979004D01*
X140830142Y-88979004D02*
X141044428Y-88979004D01*
X141044428Y-88979004D02*
X141187285Y-89050432D01*
X141187285Y-89050432D02*
X141258714Y-89121861D01*
X141258714Y-89121861D02*
X141330142Y-89264718D01*
X141330142Y-89264718D02*
X141330142Y-89836147D01*
X140544428Y-88336147D02*
X141758714Y-88336147D01*
X141758714Y-88336147D02*
X141901571Y-88264718D01*
X141901571Y-88264718D02*
X141973000Y-88193290D01*
X141973000Y-88193290D02*
X142044428Y-88050432D01*
X142044428Y-88050432D02*
X142044428Y-87764718D01*
X142044428Y-87764718D02*
X141973000Y-87621861D01*
X141973000Y-87621861D02*
X141901571Y-87550432D01*
X141901571Y-87550432D02*
X141758714Y-87479004D01*
X141758714Y-87479004D02*
X140544428Y-87479004D01*
X142044428Y-86764718D02*
X140544428Y-86764718D01*
X140544428Y-86764718D02*
X141615857Y-86264718D01*
X141615857Y-86264718D02*
X140544428Y-85764718D01*
X140544428Y-85764718D02*
X142044428Y-85764718D01*
X142044428Y-85050432D02*
X140544428Y-85050432D01*
X140544428Y-85050432D02*
X140544428Y-84479003D01*
X140544428Y-84479003D02*
X140615857Y-84336146D01*
X140615857Y-84336146D02*
X140687285Y-84264717D01*
X140687285Y-84264717D02*
X140830142Y-84193289D01*
X140830142Y-84193289D02*
X141044428Y-84193289D01*
X141044428Y-84193289D02*
X141187285Y-84264717D01*
X141187285Y-84264717D02*
X141258714Y-84336146D01*
X141258714Y-84336146D02*
X141330142Y-84479003D01*
X141330142Y-84479003D02*
X141330142Y-85050432D01*
X141513000Y-65646147D02*
X141513000Y-64503290D01*
X142084428Y-65074718D02*
X140941571Y-65074718D01*
X141227285Y-63574718D02*
X141155857Y-63717575D01*
X141155857Y-63717575D02*
X141084428Y-63789004D01*
X141084428Y-63789004D02*
X140941571Y-63860432D01*
X140941571Y-63860432D02*
X140870142Y-63860432D01*
X140870142Y-63860432D02*
X140727285Y-63789004D01*
X140727285Y-63789004D02*
X140655857Y-63717575D01*
X140655857Y-63717575D02*
X140584428Y-63574718D01*
X140584428Y-63574718D02*
X140584428Y-63289004D01*
X140584428Y-63289004D02*
X140655857Y-63146147D01*
X140655857Y-63146147D02*
X140727285Y-63074718D01*
X140727285Y-63074718D02*
X140870142Y-63003289D01*
X140870142Y-63003289D02*
X140941571Y-63003289D01*
X140941571Y-63003289D02*
X141084428Y-63074718D01*
X141084428Y-63074718D02*
X141155857Y-63146147D01*
X141155857Y-63146147D02*
X141227285Y-63289004D01*
X141227285Y-63289004D02*
X141227285Y-63574718D01*
X141227285Y-63574718D02*
X141298714Y-63717575D01*
X141298714Y-63717575D02*
X141370142Y-63789004D01*
X141370142Y-63789004D02*
X141513000Y-63860432D01*
X141513000Y-63860432D02*
X141798714Y-63860432D01*
X141798714Y-63860432D02*
X141941571Y-63789004D01*
X141941571Y-63789004D02*
X142013000Y-63717575D01*
X142013000Y-63717575D02*
X142084428Y-63574718D01*
X142084428Y-63574718D02*
X142084428Y-63289004D01*
X142084428Y-63289004D02*
X142013000Y-63146147D01*
X142013000Y-63146147D02*
X141941571Y-63074718D01*
X141941571Y-63074718D02*
X141798714Y-63003289D01*
X141798714Y-63003289D02*
X141513000Y-63003289D01*
X141513000Y-63003289D02*
X141370142Y-63074718D01*
X141370142Y-63074718D02*
X141298714Y-63146147D01*
X141298714Y-63146147D02*
X141227285Y-63289004D01*
X140584428Y-62574718D02*
X142084428Y-62074718D01*
X142084428Y-62074718D02*
X140584428Y-61574718D01*
D14*
X136099035Y-70711433D02*
X136165702Y-70744766D01*
X136165702Y-70744766D02*
X136265702Y-70744766D01*
X136265702Y-70744766D02*
X136365702Y-70711433D01*
X136365702Y-70711433D02*
X136432369Y-70644766D01*
X136432369Y-70644766D02*
X136465702Y-70578100D01*
X136465702Y-70578100D02*
X136499035Y-70444766D01*
X136499035Y-70444766D02*
X136499035Y-70344766D01*
X136499035Y-70344766D02*
X136465702Y-70211433D01*
X136465702Y-70211433D02*
X136432369Y-70144766D01*
X136432369Y-70144766D02*
X136365702Y-70078100D01*
X136365702Y-70078100D02*
X136265702Y-70044766D01*
X136265702Y-70044766D02*
X136199035Y-70044766D01*
X136199035Y-70044766D02*
X136099035Y-70078100D01*
X136099035Y-70078100D02*
X136065702Y-70111433D01*
X136065702Y-70111433D02*
X136065702Y-70344766D01*
X136065702Y-70344766D02*
X136199035Y-70344766D01*
X135765702Y-70044766D02*
X135765702Y-70744766D01*
X135765702Y-70744766D02*
X135365702Y-70044766D01*
X135365702Y-70044766D02*
X135365702Y-70744766D01*
X135032369Y-70044766D02*
X135032369Y-70744766D01*
X135032369Y-70744766D02*
X134865702Y-70744766D01*
X134865702Y-70744766D02*
X134765702Y-70711433D01*
X134765702Y-70711433D02*
X134699036Y-70644766D01*
X134699036Y-70644766D02*
X134665702Y-70578100D01*
X134665702Y-70578100D02*
X134632369Y-70444766D01*
X134632369Y-70444766D02*
X134632369Y-70344766D01*
X134632369Y-70344766D02*
X134665702Y-70211433D01*
X134665702Y-70211433D02*
X134699036Y-70144766D01*
X134699036Y-70144766D02*
X134765702Y-70078100D01*
X134765702Y-70078100D02*
X134865702Y-70044766D01*
X134865702Y-70044766D02*
X135032369Y-70044766D01*
D15*
X138225833Y-123335180D02*
X138225833Y-122620895D01*
X138225833Y-122620895D02*
X138273452Y-122478038D01*
X138273452Y-122478038D02*
X138368690Y-122382800D01*
X138368690Y-122382800D02*
X138511547Y-122335180D01*
X138511547Y-122335180D02*
X138606785Y-122335180D01*
X137797261Y-123239942D02*
X137749642Y-123287561D01*
X137749642Y-123287561D02*
X137654404Y-123335180D01*
X137654404Y-123335180D02*
X137416309Y-123335180D01*
X137416309Y-123335180D02*
X137321071Y-123287561D01*
X137321071Y-123287561D02*
X137273452Y-123239942D01*
X137273452Y-123239942D02*
X137225833Y-123144704D01*
X137225833Y-123144704D02*
X137225833Y-123049466D01*
X137225833Y-123049466D02*
X137273452Y-122906609D01*
X137273452Y-122906609D02*
X137844880Y-122335180D01*
X137844880Y-122335180D02*
X137225833Y-122335180D01*
D14*
X168340964Y-106813566D02*
X168274297Y-106780233D01*
X168274297Y-106780233D02*
X168174297Y-106780233D01*
X168174297Y-106780233D02*
X168074297Y-106813566D01*
X168074297Y-106813566D02*
X168007631Y-106880233D01*
X168007631Y-106880233D02*
X167974297Y-106946900D01*
X167974297Y-106946900D02*
X167940964Y-107080233D01*
X167940964Y-107080233D02*
X167940964Y-107180233D01*
X167940964Y-107180233D02*
X167974297Y-107313566D01*
X167974297Y-107313566D02*
X168007631Y-107380233D01*
X168007631Y-107380233D02*
X168074297Y-107446900D01*
X168074297Y-107446900D02*
X168174297Y-107480233D01*
X168174297Y-107480233D02*
X168240964Y-107480233D01*
X168240964Y-107480233D02*
X168340964Y-107446900D01*
X168340964Y-107446900D02*
X168374297Y-107413566D01*
X168374297Y-107413566D02*
X168374297Y-107180233D01*
X168374297Y-107180233D02*
X168240964Y-107180233D01*
X168674297Y-107480233D02*
X168674297Y-106780233D01*
X168674297Y-106780233D02*
X169074297Y-107480233D01*
X169074297Y-107480233D02*
X169074297Y-106780233D01*
X169407630Y-107480233D02*
X169407630Y-106780233D01*
X169407630Y-106780233D02*
X169574297Y-106780233D01*
X169574297Y-106780233D02*
X169674297Y-106813566D01*
X169674297Y-106813566D02*
X169740964Y-106880233D01*
X169740964Y-106880233D02*
X169774297Y-106946900D01*
X169774297Y-106946900D02*
X169807630Y-107080233D01*
X169807630Y-107080233D02*
X169807630Y-107180233D01*
X169807630Y-107180233D02*
X169774297Y-107313566D01*
X169774297Y-107313566D02*
X169740964Y-107380233D01*
X169740964Y-107380233D02*
X169674297Y-107446900D01*
X169674297Y-107446900D02*
X169574297Y-107480233D01*
X169574297Y-107480233D02*
X169407630Y-107480233D01*
D16*
X126891785Y-122776060D02*
X126320357Y-122776060D01*
X127006071Y-122433203D02*
X126606071Y-123633203D01*
X126606071Y-123633203D02*
X126206071Y-122433203D01*
X125291786Y-123233203D02*
X125291786Y-122261774D01*
X125291786Y-122261774D02*
X125348928Y-122147488D01*
X125348928Y-122147488D02*
X125406071Y-122090346D01*
X125406071Y-122090346D02*
X125520357Y-122033203D01*
X125520357Y-122033203D02*
X125691786Y-122033203D01*
X125691786Y-122033203D02*
X125806071Y-122090346D01*
X125291786Y-122490346D02*
X125406071Y-122433203D01*
X125406071Y-122433203D02*
X125634643Y-122433203D01*
X125634643Y-122433203D02*
X125748928Y-122490346D01*
X125748928Y-122490346D02*
X125806071Y-122547488D01*
X125806071Y-122547488D02*
X125863214Y-122661774D01*
X125863214Y-122661774D02*
X125863214Y-123004631D01*
X125863214Y-123004631D02*
X125806071Y-123118917D01*
X125806071Y-123118917D02*
X125748928Y-123176060D01*
X125748928Y-123176060D02*
X125634643Y-123233203D01*
X125634643Y-123233203D02*
X125406071Y-123233203D01*
X125406071Y-123233203D02*
X125291786Y-123176060D01*
X124720357Y-122433203D02*
X124720357Y-123233203D01*
X124720357Y-123004631D02*
X124663214Y-123118917D01*
X124663214Y-123118917D02*
X124606072Y-123176060D01*
X124606072Y-123176060D02*
X124491786Y-123233203D01*
X124491786Y-123233203D02*
X124377500Y-123233203D01*
X123977500Y-122433203D02*
X123977500Y-123233203D01*
X123977500Y-123633203D02*
X124034643Y-123576060D01*
X124034643Y-123576060D02*
X123977500Y-123518917D01*
X123977500Y-123518917D02*
X123920357Y-123576060D01*
X123920357Y-123576060D02*
X123977500Y-123633203D01*
X123977500Y-123633203D02*
X123977500Y-123518917D01*
X122548928Y-122490346D02*
X122377500Y-122433203D01*
X122377500Y-122433203D02*
X122091785Y-122433203D01*
X122091785Y-122433203D02*
X121977500Y-122490346D01*
X121977500Y-122490346D02*
X121920357Y-122547488D01*
X121920357Y-122547488D02*
X121863214Y-122661774D01*
X121863214Y-122661774D02*
X121863214Y-122776060D01*
X121863214Y-122776060D02*
X121920357Y-122890346D01*
X121920357Y-122890346D02*
X121977500Y-122947488D01*
X121977500Y-122947488D02*
X122091785Y-123004631D01*
X122091785Y-123004631D02*
X122320357Y-123061774D01*
X122320357Y-123061774D02*
X122434642Y-123118917D01*
X122434642Y-123118917D02*
X122491785Y-123176060D01*
X122491785Y-123176060D02*
X122548928Y-123290346D01*
X122548928Y-123290346D02*
X122548928Y-123404631D01*
X122548928Y-123404631D02*
X122491785Y-123518917D01*
X122491785Y-123518917D02*
X122434642Y-123576060D01*
X122434642Y-123576060D02*
X122320357Y-123633203D01*
X122320357Y-123633203D02*
X122034642Y-123633203D01*
X122034642Y-123633203D02*
X121863214Y-123576060D01*
X120891785Y-122490346D02*
X121006071Y-122433203D01*
X121006071Y-122433203D02*
X121234643Y-122433203D01*
X121234643Y-122433203D02*
X121348928Y-122490346D01*
X121348928Y-122490346D02*
X121406071Y-122604631D01*
X121406071Y-122604631D02*
X121406071Y-123061774D01*
X121406071Y-123061774D02*
X121348928Y-123176060D01*
X121348928Y-123176060D02*
X121234643Y-123233203D01*
X121234643Y-123233203D02*
X121006071Y-123233203D01*
X121006071Y-123233203D02*
X120891785Y-123176060D01*
X120891785Y-123176060D02*
X120834643Y-123061774D01*
X120834643Y-123061774D02*
X120834643Y-122947488D01*
X120834643Y-122947488D02*
X121406071Y-122833203D01*
X120320357Y-123233203D02*
X120320357Y-122433203D01*
X120320357Y-123118917D02*
X120263214Y-123176060D01*
X120263214Y-123176060D02*
X120148929Y-123233203D01*
X120148929Y-123233203D02*
X119977500Y-123233203D01*
X119977500Y-123233203D02*
X119863214Y-123176060D01*
X119863214Y-123176060D02*
X119806072Y-123061774D01*
X119806072Y-123061774D02*
X119806072Y-122433203D01*
X119291786Y-122490346D02*
X119177500Y-122433203D01*
X119177500Y-122433203D02*
X118948929Y-122433203D01*
X118948929Y-122433203D02*
X118834643Y-122490346D01*
X118834643Y-122490346D02*
X118777500Y-122604631D01*
X118777500Y-122604631D02*
X118777500Y-122661774D01*
X118777500Y-122661774D02*
X118834643Y-122776060D01*
X118834643Y-122776060D02*
X118948929Y-122833203D01*
X118948929Y-122833203D02*
X119120358Y-122833203D01*
X119120358Y-122833203D02*
X119234643Y-122890346D01*
X119234643Y-122890346D02*
X119291786Y-123004631D01*
X119291786Y-123004631D02*
X119291786Y-123061774D01*
X119291786Y-123061774D02*
X119234643Y-123176060D01*
X119234643Y-123176060D02*
X119120358Y-123233203D01*
X119120358Y-123233203D02*
X118948929Y-123233203D01*
X118948929Y-123233203D02*
X118834643Y-123176060D01*
X118091786Y-122433203D02*
X118206071Y-122490346D01*
X118206071Y-122490346D02*
X118263214Y-122547488D01*
X118263214Y-122547488D02*
X118320357Y-122661774D01*
X118320357Y-122661774D02*
X118320357Y-123004631D01*
X118320357Y-123004631D02*
X118263214Y-123118917D01*
X118263214Y-123118917D02*
X118206071Y-123176060D01*
X118206071Y-123176060D02*
X118091786Y-123233203D01*
X118091786Y-123233203D02*
X117920357Y-123233203D01*
X117920357Y-123233203D02*
X117806071Y-123176060D01*
X117806071Y-123176060D02*
X117748929Y-123118917D01*
X117748929Y-123118917D02*
X117691786Y-123004631D01*
X117691786Y-123004631D02*
X117691786Y-122661774D01*
X117691786Y-122661774D02*
X117748929Y-122547488D01*
X117748929Y-122547488D02*
X117806071Y-122490346D01*
X117806071Y-122490346D02*
X117920357Y-122433203D01*
X117920357Y-122433203D02*
X118091786Y-122433203D01*
X117177500Y-122433203D02*
X117177500Y-123233203D01*
X117177500Y-123004631D02*
X117120357Y-123118917D01*
X117120357Y-123118917D02*
X117063215Y-123176060D01*
X117063215Y-123176060D02*
X116948929Y-123233203D01*
X116948929Y-123233203D02*
X116834643Y-123233203D01*
X116491786Y-122490346D02*
X116377500Y-122433203D01*
X116377500Y-122433203D02*
X116148929Y-122433203D01*
X116148929Y-122433203D02*
X116034643Y-122490346D01*
X116034643Y-122490346D02*
X115977500Y-122604631D01*
X115977500Y-122604631D02*
X115977500Y-122661774D01*
X115977500Y-122661774D02*
X116034643Y-122776060D01*
X116034643Y-122776060D02*
X116148929Y-122833203D01*
X116148929Y-122833203D02*
X116320358Y-122833203D01*
X116320358Y-122833203D02*
X116434643Y-122890346D01*
X116434643Y-122890346D02*
X116491786Y-123004631D01*
X116491786Y-123004631D02*
X116491786Y-123061774D01*
X116491786Y-123061774D02*
X116434643Y-123176060D01*
X116434643Y-123176060D02*
X116320358Y-123233203D01*
X116320358Y-123233203D02*
X116148929Y-123233203D01*
X116148929Y-123233203D02*
X116034643Y-123176060D01*
X126006070Y-120501270D02*
X126006070Y-121129841D01*
X126006070Y-121129841D02*
X126063212Y-121244127D01*
X126063212Y-121244127D02*
X126177498Y-121301270D01*
X126177498Y-121301270D02*
X126406070Y-121301270D01*
X126406070Y-121301270D02*
X126520355Y-121244127D01*
X126006070Y-120558413D02*
X126120355Y-120501270D01*
X126120355Y-120501270D02*
X126406070Y-120501270D01*
X126406070Y-120501270D02*
X126520355Y-120558413D01*
X126520355Y-120558413D02*
X126577498Y-120672698D01*
X126577498Y-120672698D02*
X126577498Y-120786984D01*
X126577498Y-120786984D02*
X126520355Y-120901270D01*
X126520355Y-120901270D02*
X126406070Y-120958413D01*
X126406070Y-120958413D02*
X126120355Y-120958413D01*
X126120355Y-120958413D02*
X126006070Y-121015555D01*
X125434641Y-121301270D02*
X125434641Y-120501270D01*
X125434641Y-121186984D02*
X125377498Y-121244127D01*
X125377498Y-121244127D02*
X125263213Y-121301270D01*
X125263213Y-121301270D02*
X125091784Y-121301270D01*
X125091784Y-121301270D02*
X124977498Y-121244127D01*
X124977498Y-121244127D02*
X124920356Y-121129841D01*
X124920356Y-121129841D02*
X124920356Y-120501270D01*
X123834642Y-120501270D02*
X123834642Y-121701270D01*
X123834642Y-120558413D02*
X123948927Y-120501270D01*
X123948927Y-120501270D02*
X124177499Y-120501270D01*
X124177499Y-120501270D02*
X124291784Y-120558413D01*
X124291784Y-120558413D02*
X124348927Y-120615555D01*
X124348927Y-120615555D02*
X124406070Y-120729841D01*
X124406070Y-120729841D02*
X124406070Y-121072698D01*
X124406070Y-121072698D02*
X124348927Y-121186984D01*
X124348927Y-121186984D02*
X124291784Y-121244127D01*
X124291784Y-121244127D02*
X124177499Y-121301270D01*
X124177499Y-121301270D02*
X123948927Y-121301270D01*
X123948927Y-121301270D02*
X123834642Y-121244127D01*
X121663213Y-120615555D02*
X121720356Y-120558413D01*
X121720356Y-120558413D02*
X121891784Y-120501270D01*
X121891784Y-120501270D02*
X122006070Y-120501270D01*
X122006070Y-120501270D02*
X122177499Y-120558413D01*
X122177499Y-120558413D02*
X122291784Y-120672698D01*
X122291784Y-120672698D02*
X122348927Y-120786984D01*
X122348927Y-120786984D02*
X122406070Y-121015555D01*
X122406070Y-121015555D02*
X122406070Y-121186984D01*
X122406070Y-121186984D02*
X122348927Y-121415555D01*
X122348927Y-121415555D02*
X122291784Y-121529841D01*
X122291784Y-121529841D02*
X122177499Y-121644127D01*
X122177499Y-121644127D02*
X122006070Y-121701270D01*
X122006070Y-121701270D02*
X121891784Y-121701270D01*
X121891784Y-121701270D02*
X121720356Y-121644127D01*
X121720356Y-121644127D02*
X121663213Y-121586984D01*
X120977499Y-120501270D02*
X121091784Y-120558413D01*
X121091784Y-120558413D02*
X121148927Y-120615555D01*
X121148927Y-120615555D02*
X121206070Y-120729841D01*
X121206070Y-120729841D02*
X121206070Y-121072698D01*
X121206070Y-121072698D02*
X121148927Y-121186984D01*
X121148927Y-121186984D02*
X121091784Y-121244127D01*
X121091784Y-121244127D02*
X120977499Y-121301270D01*
X120977499Y-121301270D02*
X120806070Y-121301270D01*
X120806070Y-121301270D02*
X120691784Y-121244127D01*
X120691784Y-121244127D02*
X120634642Y-121186984D01*
X120634642Y-121186984D02*
X120577499Y-121072698D01*
X120577499Y-121072698D02*
X120577499Y-120729841D01*
X120577499Y-120729841D02*
X120634642Y-120615555D01*
X120634642Y-120615555D02*
X120691784Y-120558413D01*
X120691784Y-120558413D02*
X120806070Y-120501270D01*
X120806070Y-120501270D02*
X120977499Y-120501270D01*
X120063213Y-121301270D02*
X120063213Y-120501270D01*
X120063213Y-121186984D02*
X120006070Y-121244127D01*
X120006070Y-121244127D02*
X119891785Y-121301270D01*
X119891785Y-121301270D02*
X119720356Y-121301270D01*
X119720356Y-121301270D02*
X119606070Y-121244127D01*
X119606070Y-121244127D02*
X119548928Y-121129841D01*
X119548928Y-121129841D02*
X119548928Y-120501270D01*
X119148928Y-121301270D02*
X118691785Y-121301270D01*
X118977499Y-121701270D02*
X118977499Y-120672698D01*
X118977499Y-120672698D02*
X118920356Y-120558413D01*
X118920356Y-120558413D02*
X118806071Y-120501270D01*
X118806071Y-120501270D02*
X118691785Y-120501270D01*
X118291785Y-120501270D02*
X118291785Y-121301270D01*
X118291785Y-121072698D02*
X118234642Y-121186984D01*
X118234642Y-121186984D02*
X118177500Y-121244127D01*
X118177500Y-121244127D02*
X118063214Y-121301270D01*
X118063214Y-121301270D02*
X117948928Y-121301270D01*
X117377500Y-120501270D02*
X117491785Y-120558413D01*
X117491785Y-120558413D02*
X117548928Y-120615555D01*
X117548928Y-120615555D02*
X117606071Y-120729841D01*
X117606071Y-120729841D02*
X117606071Y-121072698D01*
X117606071Y-121072698D02*
X117548928Y-121186984D01*
X117548928Y-121186984D02*
X117491785Y-121244127D01*
X117491785Y-121244127D02*
X117377500Y-121301270D01*
X117377500Y-121301270D02*
X117206071Y-121301270D01*
X117206071Y-121301270D02*
X117091785Y-121244127D01*
X117091785Y-121244127D02*
X117034643Y-121186984D01*
X117034643Y-121186984D02*
X116977500Y-121072698D01*
X116977500Y-121072698D02*
X116977500Y-120729841D01*
X116977500Y-120729841D02*
X117034643Y-120615555D01*
X117034643Y-120615555D02*
X117091785Y-120558413D01*
X117091785Y-120558413D02*
X117206071Y-120501270D01*
X117206071Y-120501270D02*
X117377500Y-120501270D01*
X116291786Y-120501270D02*
X116406071Y-120558413D01*
X116406071Y-120558413D02*
X116463214Y-120672698D01*
X116463214Y-120672698D02*
X116463214Y-121701270D01*
X115891786Y-120558413D02*
X115777500Y-120501270D01*
X115777500Y-120501270D02*
X115548929Y-120501270D01*
X115548929Y-120501270D02*
X115434643Y-120558413D01*
X115434643Y-120558413D02*
X115377500Y-120672698D01*
X115377500Y-120672698D02*
X115377500Y-120729841D01*
X115377500Y-120729841D02*
X115434643Y-120844127D01*
X115434643Y-120844127D02*
X115548929Y-120901270D01*
X115548929Y-120901270D02*
X115720358Y-120901270D01*
X115720358Y-120901270D02*
X115834643Y-120958413D01*
X115834643Y-120958413D02*
X115891786Y-121072698D01*
X115891786Y-121072698D02*
X115891786Y-121129841D01*
X115891786Y-121129841D02*
X115834643Y-121244127D01*
X115834643Y-121244127D02*
X115720358Y-121301270D01*
X115720358Y-121301270D02*
X115548929Y-121301270D01*
X115548929Y-121301270D02*
X115434643Y-121244127D01*
X124663213Y-118626480D02*
X124491785Y-118569337D01*
X124491785Y-118569337D02*
X124206070Y-118569337D01*
X124206070Y-118569337D02*
X124091785Y-118626480D01*
X124091785Y-118626480D02*
X124034642Y-118683622D01*
X124034642Y-118683622D02*
X123977499Y-118797908D01*
X123977499Y-118797908D02*
X123977499Y-118912194D01*
X123977499Y-118912194D02*
X124034642Y-119026480D01*
X124034642Y-119026480D02*
X124091785Y-119083622D01*
X124091785Y-119083622D02*
X124206070Y-119140765D01*
X124206070Y-119140765D02*
X124434642Y-119197908D01*
X124434642Y-119197908D02*
X124548927Y-119255051D01*
X124548927Y-119255051D02*
X124606070Y-119312194D01*
X124606070Y-119312194D02*
X124663213Y-119426480D01*
X124663213Y-119426480D02*
X124663213Y-119540765D01*
X124663213Y-119540765D02*
X124606070Y-119655051D01*
X124606070Y-119655051D02*
X124548927Y-119712194D01*
X124548927Y-119712194D02*
X124434642Y-119769337D01*
X124434642Y-119769337D02*
X124148927Y-119769337D01*
X124148927Y-119769337D02*
X123977499Y-119712194D01*
X123006070Y-118626480D02*
X123120356Y-118569337D01*
X123120356Y-118569337D02*
X123348928Y-118569337D01*
X123348928Y-118569337D02*
X123463213Y-118626480D01*
X123463213Y-118626480D02*
X123520356Y-118740765D01*
X123520356Y-118740765D02*
X123520356Y-119197908D01*
X123520356Y-119197908D02*
X123463213Y-119312194D01*
X123463213Y-119312194D02*
X123348928Y-119369337D01*
X123348928Y-119369337D02*
X123120356Y-119369337D01*
X123120356Y-119369337D02*
X123006070Y-119312194D01*
X123006070Y-119312194D02*
X122948928Y-119197908D01*
X122948928Y-119197908D02*
X122948928Y-119083622D01*
X122948928Y-119083622D02*
X123520356Y-118969337D01*
X122434642Y-119369337D02*
X122434642Y-118169337D01*
X122434642Y-119312194D02*
X122320357Y-119369337D01*
X122320357Y-119369337D02*
X122091785Y-119369337D01*
X122091785Y-119369337D02*
X121977499Y-119312194D01*
X121977499Y-119312194D02*
X121920357Y-119255051D01*
X121920357Y-119255051D02*
X121863214Y-119140765D01*
X121863214Y-119140765D02*
X121863214Y-118797908D01*
X121863214Y-118797908D02*
X121920357Y-118683622D01*
X121920357Y-118683622D02*
X121977499Y-118626480D01*
X121977499Y-118626480D02*
X122091785Y-118569337D01*
X122091785Y-118569337D02*
X122320357Y-118569337D01*
X122320357Y-118569337D02*
X122434642Y-118626480D01*
X121406071Y-119655051D02*
X121348928Y-119712194D01*
X121348928Y-119712194D02*
X121234643Y-119769337D01*
X121234643Y-119769337D02*
X120948928Y-119769337D01*
X120948928Y-119769337D02*
X120834643Y-119712194D01*
X120834643Y-119712194D02*
X120777500Y-119655051D01*
X120777500Y-119655051D02*
X120720357Y-119540765D01*
X120720357Y-119540765D02*
X120720357Y-119426480D01*
X120720357Y-119426480D02*
X120777500Y-119255051D01*
X120777500Y-119255051D02*
X121463214Y-118569337D01*
X121463214Y-118569337D02*
X120720357Y-118569337D01*
X119977500Y-119769337D02*
X119863214Y-119769337D01*
X119863214Y-119769337D02*
X119748928Y-119712194D01*
X119748928Y-119712194D02*
X119691786Y-119655051D01*
X119691786Y-119655051D02*
X119634643Y-119540765D01*
X119634643Y-119540765D02*
X119577500Y-119312194D01*
X119577500Y-119312194D02*
X119577500Y-119026480D01*
X119577500Y-119026480D02*
X119634643Y-118797908D01*
X119634643Y-118797908D02*
X119691786Y-118683622D01*
X119691786Y-118683622D02*
X119748928Y-118626480D01*
X119748928Y-118626480D02*
X119863214Y-118569337D01*
X119863214Y-118569337D02*
X119977500Y-118569337D01*
X119977500Y-118569337D02*
X120091786Y-118626480D01*
X120091786Y-118626480D02*
X120148928Y-118683622D01*
X120148928Y-118683622D02*
X120206071Y-118797908D01*
X120206071Y-118797908D02*
X120263214Y-119026480D01*
X120263214Y-119026480D02*
X120263214Y-119312194D01*
X120263214Y-119312194D02*
X120206071Y-119540765D01*
X120206071Y-119540765D02*
X120148928Y-119655051D01*
X120148928Y-119655051D02*
X120091786Y-119712194D01*
X120091786Y-119712194D02*
X119977500Y-119769337D01*
X119120357Y-119655051D02*
X119063214Y-119712194D01*
X119063214Y-119712194D02*
X118948929Y-119769337D01*
X118948929Y-119769337D02*
X118663214Y-119769337D01*
X118663214Y-119769337D02*
X118548929Y-119712194D01*
X118548929Y-119712194D02*
X118491786Y-119655051D01*
X118491786Y-119655051D02*
X118434643Y-119540765D01*
X118434643Y-119540765D02*
X118434643Y-119426480D01*
X118434643Y-119426480D02*
X118491786Y-119255051D01*
X118491786Y-119255051D02*
X119177500Y-118569337D01*
X119177500Y-118569337D02*
X118434643Y-118569337D01*
X117406072Y-119769337D02*
X117634643Y-119769337D01*
X117634643Y-119769337D02*
X117748929Y-119712194D01*
X117748929Y-119712194D02*
X117806072Y-119655051D01*
X117806072Y-119655051D02*
X117920357Y-119483622D01*
X117920357Y-119483622D02*
X117977500Y-119255051D01*
X117977500Y-119255051D02*
X117977500Y-118797908D01*
X117977500Y-118797908D02*
X117920357Y-118683622D01*
X117920357Y-118683622D02*
X117863214Y-118626480D01*
X117863214Y-118626480D02*
X117748929Y-118569337D01*
X117748929Y-118569337D02*
X117520357Y-118569337D01*
X117520357Y-118569337D02*
X117406072Y-118626480D01*
X117406072Y-118626480D02*
X117348929Y-118683622D01*
X117348929Y-118683622D02*
X117291786Y-118797908D01*
X117291786Y-118797908D02*
X117291786Y-119083622D01*
X117291786Y-119083622D02*
X117348929Y-119197908D01*
X117348929Y-119197908D02*
X117406072Y-119255051D01*
X117406072Y-119255051D02*
X117520357Y-119312194D01*
X117520357Y-119312194D02*
X117748929Y-119312194D01*
X117748929Y-119312194D02*
X117863214Y-119255051D01*
X117863214Y-119255051D02*
X117920357Y-119197908D01*
X117920357Y-119197908D02*
X117977500Y-119083622D01*
D17*
X125874417Y-115344390D02*
X125874417Y-116544390D01*
X125874417Y-116544390D02*
X125417274Y-116544390D01*
X125417274Y-116544390D02*
X125302989Y-116487247D01*
X125302989Y-116487247D02*
X125245846Y-116430104D01*
X125245846Y-116430104D02*
X125188703Y-116315818D01*
X125188703Y-116315818D02*
X125188703Y-116144390D01*
X125188703Y-116144390D02*
X125245846Y-116030104D01*
X125245846Y-116030104D02*
X125302989Y-115972961D01*
X125302989Y-115972961D02*
X125417274Y-115915818D01*
X125417274Y-115915818D02*
X125874417Y-115915818D01*
X124160132Y-116144390D02*
X124160132Y-115344390D01*
X124674417Y-116144390D02*
X124674417Y-115515818D01*
X124674417Y-115515818D02*
X124617274Y-115401533D01*
X124617274Y-115401533D02*
X124502989Y-115344390D01*
X124502989Y-115344390D02*
X124331560Y-115344390D01*
X124331560Y-115344390D02*
X124217274Y-115401533D01*
X124217274Y-115401533D02*
X124160132Y-115458675D01*
X123588703Y-115344390D02*
X123588703Y-116144390D01*
X123588703Y-116030104D02*
X123531560Y-116087247D01*
X123531560Y-116087247D02*
X123417275Y-116144390D01*
X123417275Y-116144390D02*
X123245846Y-116144390D01*
X123245846Y-116144390D02*
X123131560Y-116087247D01*
X123131560Y-116087247D02*
X123074418Y-115972961D01*
X123074418Y-115972961D02*
X123074418Y-115344390D01*
X123074418Y-115972961D02*
X123017275Y-116087247D01*
X123017275Y-116087247D02*
X122902989Y-116144390D01*
X122902989Y-116144390D02*
X122731560Y-116144390D01*
X122731560Y-116144390D02*
X122617275Y-116087247D01*
X122617275Y-116087247D02*
X122560132Y-115972961D01*
X122560132Y-115972961D02*
X122560132Y-115344390D01*
X121988703Y-116144390D02*
X121988703Y-114944390D01*
X121988703Y-116087247D02*
X121874418Y-116144390D01*
X121874418Y-116144390D02*
X121645846Y-116144390D01*
X121645846Y-116144390D02*
X121531560Y-116087247D01*
X121531560Y-116087247D02*
X121474418Y-116030104D01*
X121474418Y-116030104D02*
X121417275Y-115915818D01*
X121417275Y-115915818D02*
X121417275Y-115572961D01*
X121417275Y-115572961D02*
X121474418Y-115458675D01*
X121474418Y-115458675D02*
X121531560Y-115401533D01*
X121531560Y-115401533D02*
X121645846Y-115344390D01*
X121645846Y-115344390D02*
X121874418Y-115344390D01*
X121874418Y-115344390D02*
X121988703Y-115401533D01*
X119988703Y-115344390D02*
X119988703Y-116544390D01*
X119988703Y-116544390D02*
X119302989Y-115344390D01*
X119302989Y-115344390D02*
X119302989Y-116544390D01*
X118560132Y-115344390D02*
X118674417Y-115401533D01*
X118674417Y-115401533D02*
X118731560Y-115458675D01*
X118731560Y-115458675D02*
X118788703Y-115572961D01*
X118788703Y-115572961D02*
X118788703Y-115915818D01*
X118788703Y-115915818D02*
X118731560Y-116030104D01*
X118731560Y-116030104D02*
X118674417Y-116087247D01*
X118674417Y-116087247D02*
X118560132Y-116144390D01*
X118560132Y-116144390D02*
X118388703Y-116144390D01*
X118388703Y-116144390D02*
X118274417Y-116087247D01*
X118274417Y-116087247D02*
X118217275Y-116030104D01*
X118217275Y-116030104D02*
X118160132Y-115915818D01*
X118160132Y-115915818D02*
X118160132Y-115572961D01*
X118160132Y-115572961D02*
X118217275Y-115458675D01*
X118217275Y-115458675D02*
X118274417Y-115401533D01*
X118274417Y-115401533D02*
X118388703Y-115344390D01*
X118388703Y-115344390D02*
X118560132Y-115344390D01*
X117131561Y-115344390D02*
X117131561Y-116544390D01*
X117131561Y-115401533D02*
X117245846Y-115344390D01*
X117245846Y-115344390D02*
X117474418Y-115344390D01*
X117474418Y-115344390D02*
X117588703Y-115401533D01*
X117588703Y-115401533D02*
X117645846Y-115458675D01*
X117645846Y-115458675D02*
X117702989Y-115572961D01*
X117702989Y-115572961D02*
X117702989Y-115915818D01*
X117702989Y-115915818D02*
X117645846Y-116030104D01*
X117645846Y-116030104D02*
X117588703Y-116087247D01*
X117588703Y-116087247D02*
X117474418Y-116144390D01*
X117474418Y-116144390D02*
X117245846Y-116144390D01*
X117245846Y-116144390D02*
X117131561Y-116087247D01*
X116102989Y-115401533D02*
X116217275Y-115344390D01*
X116217275Y-115344390D02*
X116445847Y-115344390D01*
X116445847Y-115344390D02*
X116560132Y-115401533D01*
X116560132Y-115401533D02*
X116617275Y-115515818D01*
X116617275Y-115515818D02*
X116617275Y-115972961D01*
X116617275Y-115972961D02*
X116560132Y-116087247D01*
X116560132Y-116087247D02*
X116445847Y-116144390D01*
X116445847Y-116144390D02*
X116217275Y-116144390D01*
X116217275Y-116144390D02*
X116102989Y-116087247D01*
X116102989Y-116087247D02*
X116045847Y-115972961D01*
X116045847Y-115972961D02*
X116045847Y-115858675D01*
X116045847Y-115858675D02*
X116617275Y-115744390D01*
X123131559Y-113412457D02*
X123131559Y-114612457D01*
X123131559Y-114612457D02*
X122674416Y-114612457D01*
X122674416Y-114612457D02*
X122560131Y-114555314D01*
X122560131Y-114555314D02*
X122502988Y-114498171D01*
X122502988Y-114498171D02*
X122445845Y-114383885D01*
X122445845Y-114383885D02*
X122445845Y-114212457D01*
X122445845Y-114212457D02*
X122502988Y-114098171D01*
X122502988Y-114098171D02*
X122560131Y-114041028D01*
X122560131Y-114041028D02*
X122674416Y-113983885D01*
X122674416Y-113983885D02*
X123131559Y-113983885D01*
X121931559Y-113412457D02*
X121931559Y-114612457D01*
X121931559Y-114612457D02*
X121245845Y-113412457D01*
X121245845Y-113412457D02*
X121245845Y-114612457D01*
D11*
X194422687Y-98025142D02*
X194422687Y-96825142D01*
X194422687Y-96825142D02*
X194879830Y-96825142D01*
X194879830Y-96825142D02*
X194994115Y-96882285D01*
X194994115Y-96882285D02*
X195051258Y-96939428D01*
X195051258Y-96939428D02*
X195108401Y-97053714D01*
X195108401Y-97053714D02*
X195108401Y-97225142D01*
X195108401Y-97225142D02*
X195051258Y-97339428D01*
X195051258Y-97339428D02*
X194994115Y-97396571D01*
X194994115Y-97396571D02*
X194879830Y-97453714D01*
X194879830Y-97453714D02*
X194422687Y-97453714D01*
X196136973Y-97225142D02*
X196136973Y-98025142D01*
X195622687Y-97225142D02*
X195622687Y-97853714D01*
X195622687Y-97853714D02*
X195679830Y-97968000D01*
X195679830Y-97968000D02*
X195794115Y-98025142D01*
X195794115Y-98025142D02*
X195965544Y-98025142D01*
X195965544Y-98025142D02*
X196079830Y-97968000D01*
X196079830Y-97968000D02*
X196136973Y-97910857D01*
X196708401Y-98025142D02*
X196708401Y-97225142D01*
X196708401Y-97339428D02*
X196765544Y-97282285D01*
X196765544Y-97282285D02*
X196879829Y-97225142D01*
X196879829Y-97225142D02*
X197051258Y-97225142D01*
X197051258Y-97225142D02*
X197165544Y-97282285D01*
X197165544Y-97282285D02*
X197222687Y-97396571D01*
X197222687Y-97396571D02*
X197222687Y-98025142D01*
X197222687Y-97396571D02*
X197279829Y-97282285D01*
X197279829Y-97282285D02*
X197394115Y-97225142D01*
X197394115Y-97225142D02*
X197565544Y-97225142D01*
X197565544Y-97225142D02*
X197679829Y-97282285D01*
X197679829Y-97282285D02*
X197736972Y-97396571D01*
X197736972Y-97396571D02*
X197736972Y-98025142D01*
X198308401Y-97225142D02*
X198308401Y-98425142D01*
X198308401Y-97282285D02*
X198422687Y-97225142D01*
X198422687Y-97225142D02*
X198651258Y-97225142D01*
X198651258Y-97225142D02*
X198765544Y-97282285D01*
X198765544Y-97282285D02*
X198822687Y-97339428D01*
X198822687Y-97339428D02*
X198879829Y-97453714D01*
X198879829Y-97453714D02*
X198879829Y-97796571D01*
X198879829Y-97796571D02*
X198822687Y-97910857D01*
X198822687Y-97910857D02*
X198765544Y-97968000D01*
X198765544Y-97968000D02*
X198651258Y-98025142D01*
X198651258Y-98025142D02*
X198422687Y-98025142D01*
X198422687Y-98025142D02*
X198308401Y-97968000D01*
D12*
X137941636Y-66712780D02*
X138417826Y-66712780D01*
X138417826Y-66712780D02*
X138465445Y-66236590D01*
X138465445Y-66236590D02*
X138417826Y-66284209D01*
X138417826Y-66284209D02*
X138322588Y-66331828D01*
X138322588Y-66331828D02*
X138084493Y-66331828D01*
X138084493Y-66331828D02*
X137989255Y-66284209D01*
X137989255Y-66284209D02*
X137941636Y-66236590D01*
X137941636Y-66236590D02*
X137894017Y-66141352D01*
X137894017Y-66141352D02*
X137894017Y-65903257D01*
X137894017Y-65903257D02*
X137941636Y-65808019D01*
X137941636Y-65808019D02*
X137989255Y-65760400D01*
X137989255Y-65760400D02*
X138084493Y-65712780D01*
X138084493Y-65712780D02*
X138322588Y-65712780D01*
X138322588Y-65712780D02*
X138417826Y-65760400D01*
X138417826Y-65760400D02*
X138465445Y-65808019D01*
X137608302Y-66712780D02*
X137274969Y-65712780D01*
X137274969Y-65712780D02*
X136941636Y-66712780D01*
D10*
X142136738Y-73164862D02*
X140136738Y-73164862D01*
X140327214Y-72307719D02*
X140231976Y-72212481D01*
X140231976Y-72212481D02*
X140136738Y-72022005D01*
X140136738Y-72022005D02*
X140136738Y-71545814D01*
X140136738Y-71545814D02*
X140231976Y-71355338D01*
X140231976Y-71355338D02*
X140327214Y-71260100D01*
X140327214Y-71260100D02*
X140517690Y-71164862D01*
X140517690Y-71164862D02*
X140708166Y-71164862D01*
X140708166Y-71164862D02*
X140993880Y-71260100D01*
X140993880Y-71260100D02*
X142136738Y-72402957D01*
X142136738Y-72402957D02*
X142136738Y-71164862D01*
D14*
X115959035Y-70511433D02*
X116025702Y-70544766D01*
X116025702Y-70544766D02*
X116125702Y-70544766D01*
X116125702Y-70544766D02*
X116225702Y-70511433D01*
X116225702Y-70511433D02*
X116292369Y-70444766D01*
X116292369Y-70444766D02*
X116325702Y-70378100D01*
X116325702Y-70378100D02*
X116359035Y-70244766D01*
X116359035Y-70244766D02*
X116359035Y-70144766D01*
X116359035Y-70144766D02*
X116325702Y-70011433D01*
X116325702Y-70011433D02*
X116292369Y-69944766D01*
X116292369Y-69944766D02*
X116225702Y-69878100D01*
X116225702Y-69878100D02*
X116125702Y-69844766D01*
X116125702Y-69844766D02*
X116059035Y-69844766D01*
X116059035Y-69844766D02*
X115959035Y-69878100D01*
X115959035Y-69878100D02*
X115925702Y-69911433D01*
X115925702Y-69911433D02*
X115925702Y-70144766D01*
X115925702Y-70144766D02*
X116059035Y-70144766D01*
X115625702Y-69844766D02*
X115625702Y-70544766D01*
X115625702Y-70544766D02*
X115225702Y-69844766D01*
X115225702Y-69844766D02*
X115225702Y-70544766D01*
X114892369Y-69844766D02*
X114892369Y-70544766D01*
X114892369Y-70544766D02*
X114725702Y-70544766D01*
X114725702Y-70544766D02*
X114625702Y-70511433D01*
X114625702Y-70511433D02*
X114559036Y-70444766D01*
X114559036Y-70444766D02*
X114525702Y-70378100D01*
X114525702Y-70378100D02*
X114492369Y-70244766D01*
X114492369Y-70244766D02*
X114492369Y-70144766D01*
X114492369Y-70144766D02*
X114525702Y-70011433D01*
X114525702Y-70011433D02*
X114559036Y-69944766D01*
X114559036Y-69944766D02*
X114625702Y-69878100D01*
X114625702Y-69878100D02*
X114725702Y-69844766D01*
X114725702Y-69844766D02*
X114892369Y-69844766D01*
D16*
X177548214Y-54748939D02*
X178119643Y-54748939D01*
X177433928Y-55091796D02*
X177833928Y-53891796D01*
X177833928Y-53891796D02*
X178233928Y-55091796D01*
X179148214Y-54291796D02*
X179148214Y-55263225D01*
X179148214Y-55263225D02*
X179091071Y-55377511D01*
X179091071Y-55377511D02*
X179033928Y-55434654D01*
X179033928Y-55434654D02*
X178919642Y-55491796D01*
X178919642Y-55491796D02*
X178748214Y-55491796D01*
X178748214Y-55491796D02*
X178633928Y-55434654D01*
X179148214Y-55034654D02*
X179033928Y-55091796D01*
X179033928Y-55091796D02*
X178805356Y-55091796D01*
X178805356Y-55091796D02*
X178691071Y-55034654D01*
X178691071Y-55034654D02*
X178633928Y-54977511D01*
X178633928Y-54977511D02*
X178576785Y-54863225D01*
X178576785Y-54863225D02*
X178576785Y-54520368D01*
X178576785Y-54520368D02*
X178633928Y-54406082D01*
X178633928Y-54406082D02*
X178691071Y-54348939D01*
X178691071Y-54348939D02*
X178805356Y-54291796D01*
X178805356Y-54291796D02*
X179033928Y-54291796D01*
X179033928Y-54291796D02*
X179148214Y-54348939D01*
X179719642Y-55091796D02*
X179719642Y-54291796D01*
X179719642Y-54520368D02*
X179776785Y-54406082D01*
X179776785Y-54406082D02*
X179833928Y-54348939D01*
X179833928Y-54348939D02*
X179948213Y-54291796D01*
X179948213Y-54291796D02*
X180062499Y-54291796D01*
X180462499Y-55091796D02*
X180462499Y-54291796D01*
X180462499Y-53891796D02*
X180405356Y-53948939D01*
X180405356Y-53948939D02*
X180462499Y-54006082D01*
X180462499Y-54006082D02*
X180519642Y-53948939D01*
X180519642Y-53948939D02*
X180462499Y-53891796D01*
X180462499Y-53891796D02*
X180462499Y-54006082D01*
X181891071Y-55034654D02*
X182062500Y-55091796D01*
X182062500Y-55091796D02*
X182348214Y-55091796D01*
X182348214Y-55091796D02*
X182462500Y-55034654D01*
X182462500Y-55034654D02*
X182519642Y-54977511D01*
X182519642Y-54977511D02*
X182576785Y-54863225D01*
X182576785Y-54863225D02*
X182576785Y-54748939D01*
X182576785Y-54748939D02*
X182519642Y-54634654D01*
X182519642Y-54634654D02*
X182462500Y-54577511D01*
X182462500Y-54577511D02*
X182348214Y-54520368D01*
X182348214Y-54520368D02*
X182119642Y-54463225D01*
X182119642Y-54463225D02*
X182005357Y-54406082D01*
X182005357Y-54406082D02*
X181948214Y-54348939D01*
X181948214Y-54348939D02*
X181891071Y-54234654D01*
X181891071Y-54234654D02*
X181891071Y-54120368D01*
X181891071Y-54120368D02*
X181948214Y-54006082D01*
X181948214Y-54006082D02*
X182005357Y-53948939D01*
X182005357Y-53948939D02*
X182119642Y-53891796D01*
X182119642Y-53891796D02*
X182405357Y-53891796D01*
X182405357Y-53891796D02*
X182576785Y-53948939D01*
X183548214Y-55034654D02*
X183433928Y-55091796D01*
X183433928Y-55091796D02*
X183205357Y-55091796D01*
X183205357Y-55091796D02*
X183091071Y-55034654D01*
X183091071Y-55034654D02*
X183033928Y-54920368D01*
X183033928Y-54920368D02*
X183033928Y-54463225D01*
X183033928Y-54463225D02*
X183091071Y-54348939D01*
X183091071Y-54348939D02*
X183205357Y-54291796D01*
X183205357Y-54291796D02*
X183433928Y-54291796D01*
X183433928Y-54291796D02*
X183548214Y-54348939D01*
X183548214Y-54348939D02*
X183605357Y-54463225D01*
X183605357Y-54463225D02*
X183605357Y-54577511D01*
X183605357Y-54577511D02*
X183033928Y-54691796D01*
X184119642Y-54291796D02*
X184119642Y-55091796D01*
X184119642Y-54406082D02*
X184176785Y-54348939D01*
X184176785Y-54348939D02*
X184291070Y-54291796D01*
X184291070Y-54291796D02*
X184462499Y-54291796D01*
X184462499Y-54291796D02*
X184576785Y-54348939D01*
X184576785Y-54348939D02*
X184633928Y-54463225D01*
X184633928Y-54463225D02*
X184633928Y-55091796D01*
X185148213Y-55034654D02*
X185262499Y-55091796D01*
X185262499Y-55091796D02*
X185491070Y-55091796D01*
X185491070Y-55091796D02*
X185605356Y-55034654D01*
X185605356Y-55034654D02*
X185662499Y-54920368D01*
X185662499Y-54920368D02*
X185662499Y-54863225D01*
X185662499Y-54863225D02*
X185605356Y-54748939D01*
X185605356Y-54748939D02*
X185491070Y-54691796D01*
X185491070Y-54691796D02*
X185319642Y-54691796D01*
X185319642Y-54691796D02*
X185205356Y-54634654D01*
X185205356Y-54634654D02*
X185148213Y-54520368D01*
X185148213Y-54520368D02*
X185148213Y-54463225D01*
X185148213Y-54463225D02*
X185205356Y-54348939D01*
X185205356Y-54348939D02*
X185319642Y-54291796D01*
X185319642Y-54291796D02*
X185491070Y-54291796D01*
X185491070Y-54291796D02*
X185605356Y-54348939D01*
X186348213Y-55091796D02*
X186233928Y-55034654D01*
X186233928Y-55034654D02*
X186176785Y-54977511D01*
X186176785Y-54977511D02*
X186119642Y-54863225D01*
X186119642Y-54863225D02*
X186119642Y-54520368D01*
X186119642Y-54520368D02*
X186176785Y-54406082D01*
X186176785Y-54406082D02*
X186233928Y-54348939D01*
X186233928Y-54348939D02*
X186348213Y-54291796D01*
X186348213Y-54291796D02*
X186519642Y-54291796D01*
X186519642Y-54291796D02*
X186633928Y-54348939D01*
X186633928Y-54348939D02*
X186691071Y-54406082D01*
X186691071Y-54406082D02*
X186748213Y-54520368D01*
X186748213Y-54520368D02*
X186748213Y-54863225D01*
X186748213Y-54863225D02*
X186691071Y-54977511D01*
X186691071Y-54977511D02*
X186633928Y-55034654D01*
X186633928Y-55034654D02*
X186519642Y-55091796D01*
X186519642Y-55091796D02*
X186348213Y-55091796D01*
X187262499Y-55091796D02*
X187262499Y-54291796D01*
X187262499Y-54520368D02*
X187319642Y-54406082D01*
X187319642Y-54406082D02*
X187376785Y-54348939D01*
X187376785Y-54348939D02*
X187491070Y-54291796D01*
X187491070Y-54291796D02*
X187605356Y-54291796D01*
X187948213Y-55034654D02*
X188062499Y-55091796D01*
X188062499Y-55091796D02*
X188291070Y-55091796D01*
X188291070Y-55091796D02*
X188405356Y-55034654D01*
X188405356Y-55034654D02*
X188462499Y-54920368D01*
X188462499Y-54920368D02*
X188462499Y-54863225D01*
X188462499Y-54863225D02*
X188405356Y-54748939D01*
X188405356Y-54748939D02*
X188291070Y-54691796D01*
X188291070Y-54691796D02*
X188119642Y-54691796D01*
X188119642Y-54691796D02*
X188005356Y-54634654D01*
X188005356Y-54634654D02*
X187948213Y-54520368D01*
X187948213Y-54520368D02*
X187948213Y-54463225D01*
X187948213Y-54463225D02*
X188005356Y-54348939D01*
X188005356Y-54348939D02*
X188119642Y-54291796D01*
X188119642Y-54291796D02*
X188291070Y-54291796D01*
X188291070Y-54291796D02*
X188405356Y-54348939D01*
X178433930Y-57023729D02*
X178433930Y-56395158D01*
X178433930Y-56395158D02*
X178376787Y-56280872D01*
X178376787Y-56280872D02*
X178262501Y-56223729D01*
X178262501Y-56223729D02*
X178033930Y-56223729D01*
X178033930Y-56223729D02*
X177919644Y-56280872D01*
X178433930Y-56966587D02*
X178319644Y-57023729D01*
X178319644Y-57023729D02*
X178033930Y-57023729D01*
X178033930Y-57023729D02*
X177919644Y-56966587D01*
X177919644Y-56966587D02*
X177862501Y-56852301D01*
X177862501Y-56852301D02*
X177862501Y-56738015D01*
X177862501Y-56738015D02*
X177919644Y-56623729D01*
X177919644Y-56623729D02*
X178033930Y-56566587D01*
X178033930Y-56566587D02*
X178319644Y-56566587D01*
X178319644Y-56566587D02*
X178433930Y-56509444D01*
X179005358Y-56223729D02*
X179005358Y-57023729D01*
X179005358Y-56338015D02*
X179062501Y-56280872D01*
X179062501Y-56280872D02*
X179176786Y-56223729D01*
X179176786Y-56223729D02*
X179348215Y-56223729D01*
X179348215Y-56223729D02*
X179462501Y-56280872D01*
X179462501Y-56280872D02*
X179519644Y-56395158D01*
X179519644Y-56395158D02*
X179519644Y-57023729D01*
X180605358Y-57023729D02*
X180605358Y-55823729D01*
X180605358Y-56966587D02*
X180491072Y-57023729D01*
X180491072Y-57023729D02*
X180262500Y-57023729D01*
X180262500Y-57023729D02*
X180148215Y-56966587D01*
X180148215Y-56966587D02*
X180091072Y-56909444D01*
X180091072Y-56909444D02*
X180033929Y-56795158D01*
X180033929Y-56795158D02*
X180033929Y-56452301D01*
X180033929Y-56452301D02*
X180091072Y-56338015D01*
X180091072Y-56338015D02*
X180148215Y-56280872D01*
X180148215Y-56280872D02*
X180262500Y-56223729D01*
X180262500Y-56223729D02*
X180491072Y-56223729D01*
X180491072Y-56223729D02*
X180605358Y-56280872D01*
X182776786Y-56909444D02*
X182719643Y-56966587D01*
X182719643Y-56966587D02*
X182548215Y-57023729D01*
X182548215Y-57023729D02*
X182433929Y-57023729D01*
X182433929Y-57023729D02*
X182262500Y-56966587D01*
X182262500Y-56966587D02*
X182148215Y-56852301D01*
X182148215Y-56852301D02*
X182091072Y-56738015D01*
X182091072Y-56738015D02*
X182033929Y-56509444D01*
X182033929Y-56509444D02*
X182033929Y-56338015D01*
X182033929Y-56338015D02*
X182091072Y-56109444D01*
X182091072Y-56109444D02*
X182148215Y-55995158D01*
X182148215Y-55995158D02*
X182262500Y-55880872D01*
X182262500Y-55880872D02*
X182433929Y-55823729D01*
X182433929Y-55823729D02*
X182548215Y-55823729D01*
X182548215Y-55823729D02*
X182719643Y-55880872D01*
X182719643Y-55880872D02*
X182776786Y-55938015D01*
X183462500Y-57023729D02*
X183348215Y-56966587D01*
X183348215Y-56966587D02*
X183291072Y-56909444D01*
X183291072Y-56909444D02*
X183233929Y-56795158D01*
X183233929Y-56795158D02*
X183233929Y-56452301D01*
X183233929Y-56452301D02*
X183291072Y-56338015D01*
X183291072Y-56338015D02*
X183348215Y-56280872D01*
X183348215Y-56280872D02*
X183462500Y-56223729D01*
X183462500Y-56223729D02*
X183633929Y-56223729D01*
X183633929Y-56223729D02*
X183748215Y-56280872D01*
X183748215Y-56280872D02*
X183805358Y-56338015D01*
X183805358Y-56338015D02*
X183862500Y-56452301D01*
X183862500Y-56452301D02*
X183862500Y-56795158D01*
X183862500Y-56795158D02*
X183805358Y-56909444D01*
X183805358Y-56909444D02*
X183748215Y-56966587D01*
X183748215Y-56966587D02*
X183633929Y-57023729D01*
X183633929Y-57023729D02*
X183462500Y-57023729D01*
X184376786Y-56223729D02*
X184376786Y-57023729D01*
X184376786Y-56338015D02*
X184433929Y-56280872D01*
X184433929Y-56280872D02*
X184548214Y-56223729D01*
X184548214Y-56223729D02*
X184719643Y-56223729D01*
X184719643Y-56223729D02*
X184833929Y-56280872D01*
X184833929Y-56280872D02*
X184891072Y-56395158D01*
X184891072Y-56395158D02*
X184891072Y-57023729D01*
X185291071Y-56223729D02*
X185748214Y-56223729D01*
X185462500Y-55823729D02*
X185462500Y-56852301D01*
X185462500Y-56852301D02*
X185519643Y-56966587D01*
X185519643Y-56966587D02*
X185633928Y-57023729D01*
X185633928Y-57023729D02*
X185748214Y-57023729D01*
X186148214Y-57023729D02*
X186148214Y-56223729D01*
X186148214Y-56452301D02*
X186205357Y-56338015D01*
X186205357Y-56338015D02*
X186262500Y-56280872D01*
X186262500Y-56280872D02*
X186376785Y-56223729D01*
X186376785Y-56223729D02*
X186491071Y-56223729D01*
X187062499Y-57023729D02*
X186948214Y-56966587D01*
X186948214Y-56966587D02*
X186891071Y-56909444D01*
X186891071Y-56909444D02*
X186833928Y-56795158D01*
X186833928Y-56795158D02*
X186833928Y-56452301D01*
X186833928Y-56452301D02*
X186891071Y-56338015D01*
X186891071Y-56338015D02*
X186948214Y-56280872D01*
X186948214Y-56280872D02*
X187062499Y-56223729D01*
X187062499Y-56223729D02*
X187233928Y-56223729D01*
X187233928Y-56223729D02*
X187348214Y-56280872D01*
X187348214Y-56280872D02*
X187405357Y-56338015D01*
X187405357Y-56338015D02*
X187462499Y-56452301D01*
X187462499Y-56452301D02*
X187462499Y-56795158D01*
X187462499Y-56795158D02*
X187405357Y-56909444D01*
X187405357Y-56909444D02*
X187348214Y-56966587D01*
X187348214Y-56966587D02*
X187233928Y-57023729D01*
X187233928Y-57023729D02*
X187062499Y-57023729D01*
X188148213Y-57023729D02*
X188033928Y-56966587D01*
X188033928Y-56966587D02*
X187976785Y-56852301D01*
X187976785Y-56852301D02*
X187976785Y-55823729D01*
X188548213Y-56966587D02*
X188662499Y-57023729D01*
X188662499Y-57023729D02*
X188891070Y-57023729D01*
X188891070Y-57023729D02*
X189005356Y-56966587D01*
X189005356Y-56966587D02*
X189062499Y-56852301D01*
X189062499Y-56852301D02*
X189062499Y-56795158D01*
X189062499Y-56795158D02*
X189005356Y-56680872D01*
X189005356Y-56680872D02*
X188891070Y-56623729D01*
X188891070Y-56623729D02*
X188719642Y-56623729D01*
X188719642Y-56623729D02*
X188605356Y-56566587D01*
X188605356Y-56566587D02*
X188548213Y-56452301D01*
X188548213Y-56452301D02*
X188548213Y-56395158D01*
X188548213Y-56395158D02*
X188605356Y-56280872D01*
X188605356Y-56280872D02*
X188719642Y-56223729D01*
X188719642Y-56223729D02*
X188891070Y-56223729D01*
X188891070Y-56223729D02*
X189005356Y-56280872D01*
X179776786Y-58898520D02*
X179948215Y-58955662D01*
X179948215Y-58955662D02*
X180233929Y-58955662D01*
X180233929Y-58955662D02*
X180348215Y-58898520D01*
X180348215Y-58898520D02*
X180405357Y-58841377D01*
X180405357Y-58841377D02*
X180462500Y-58727091D01*
X180462500Y-58727091D02*
X180462500Y-58612805D01*
X180462500Y-58612805D02*
X180405357Y-58498520D01*
X180405357Y-58498520D02*
X180348215Y-58441377D01*
X180348215Y-58441377D02*
X180233929Y-58384234D01*
X180233929Y-58384234D02*
X180005357Y-58327091D01*
X180005357Y-58327091D02*
X179891072Y-58269948D01*
X179891072Y-58269948D02*
X179833929Y-58212805D01*
X179833929Y-58212805D02*
X179776786Y-58098520D01*
X179776786Y-58098520D02*
X179776786Y-57984234D01*
X179776786Y-57984234D02*
X179833929Y-57869948D01*
X179833929Y-57869948D02*
X179891072Y-57812805D01*
X179891072Y-57812805D02*
X180005357Y-57755662D01*
X180005357Y-57755662D02*
X180291072Y-57755662D01*
X180291072Y-57755662D02*
X180462500Y-57812805D01*
X181433929Y-58898520D02*
X181319643Y-58955662D01*
X181319643Y-58955662D02*
X181091072Y-58955662D01*
X181091072Y-58955662D02*
X180976786Y-58898520D01*
X180976786Y-58898520D02*
X180919643Y-58784234D01*
X180919643Y-58784234D02*
X180919643Y-58327091D01*
X180919643Y-58327091D02*
X180976786Y-58212805D01*
X180976786Y-58212805D02*
X181091072Y-58155662D01*
X181091072Y-58155662D02*
X181319643Y-58155662D01*
X181319643Y-58155662D02*
X181433929Y-58212805D01*
X181433929Y-58212805D02*
X181491072Y-58327091D01*
X181491072Y-58327091D02*
X181491072Y-58441377D01*
X181491072Y-58441377D02*
X180919643Y-58555662D01*
X182005357Y-58155662D02*
X182005357Y-59355662D01*
X182005357Y-58212805D02*
X182119643Y-58155662D01*
X182119643Y-58155662D02*
X182348214Y-58155662D01*
X182348214Y-58155662D02*
X182462500Y-58212805D01*
X182462500Y-58212805D02*
X182519643Y-58269948D01*
X182519643Y-58269948D02*
X182576785Y-58384234D01*
X182576785Y-58384234D02*
X182576785Y-58727091D01*
X182576785Y-58727091D02*
X182519643Y-58841377D01*
X182519643Y-58841377D02*
X182462500Y-58898520D01*
X182462500Y-58898520D02*
X182348214Y-58955662D01*
X182348214Y-58955662D02*
X182119643Y-58955662D01*
X182119643Y-58955662D02*
X182005357Y-58898520D01*
X183033928Y-57869948D02*
X183091071Y-57812805D01*
X183091071Y-57812805D02*
X183205357Y-57755662D01*
X183205357Y-57755662D02*
X183491071Y-57755662D01*
X183491071Y-57755662D02*
X183605357Y-57812805D01*
X183605357Y-57812805D02*
X183662499Y-57869948D01*
X183662499Y-57869948D02*
X183719642Y-57984234D01*
X183719642Y-57984234D02*
X183719642Y-58098520D01*
X183719642Y-58098520D02*
X183662499Y-58269948D01*
X183662499Y-58269948D02*
X182976785Y-58955662D01*
X182976785Y-58955662D02*
X183719642Y-58955662D01*
X184462499Y-57755662D02*
X184576785Y-57755662D01*
X184576785Y-57755662D02*
X184691071Y-57812805D01*
X184691071Y-57812805D02*
X184748214Y-57869948D01*
X184748214Y-57869948D02*
X184805356Y-57984234D01*
X184805356Y-57984234D02*
X184862499Y-58212805D01*
X184862499Y-58212805D02*
X184862499Y-58498520D01*
X184862499Y-58498520D02*
X184805356Y-58727091D01*
X184805356Y-58727091D02*
X184748214Y-58841377D01*
X184748214Y-58841377D02*
X184691071Y-58898520D01*
X184691071Y-58898520D02*
X184576785Y-58955662D01*
X184576785Y-58955662D02*
X184462499Y-58955662D01*
X184462499Y-58955662D02*
X184348214Y-58898520D01*
X184348214Y-58898520D02*
X184291071Y-58841377D01*
X184291071Y-58841377D02*
X184233928Y-58727091D01*
X184233928Y-58727091D02*
X184176785Y-58498520D01*
X184176785Y-58498520D02*
X184176785Y-58212805D01*
X184176785Y-58212805D02*
X184233928Y-57984234D01*
X184233928Y-57984234D02*
X184291071Y-57869948D01*
X184291071Y-57869948D02*
X184348214Y-57812805D01*
X184348214Y-57812805D02*
X184462499Y-57755662D01*
X185319642Y-57869948D02*
X185376785Y-57812805D01*
X185376785Y-57812805D02*
X185491071Y-57755662D01*
X185491071Y-57755662D02*
X185776785Y-57755662D01*
X185776785Y-57755662D02*
X185891071Y-57812805D01*
X185891071Y-57812805D02*
X185948213Y-57869948D01*
X185948213Y-57869948D02*
X186005356Y-57984234D01*
X186005356Y-57984234D02*
X186005356Y-58098520D01*
X186005356Y-58098520D02*
X185948213Y-58269948D01*
X185948213Y-58269948D02*
X185262499Y-58955662D01*
X185262499Y-58955662D02*
X186005356Y-58955662D01*
X187033928Y-57755662D02*
X186805356Y-57755662D01*
X186805356Y-57755662D02*
X186691070Y-57812805D01*
X186691070Y-57812805D02*
X186633928Y-57869948D01*
X186633928Y-57869948D02*
X186519642Y-58041377D01*
X186519642Y-58041377D02*
X186462499Y-58269948D01*
X186462499Y-58269948D02*
X186462499Y-58727091D01*
X186462499Y-58727091D02*
X186519642Y-58841377D01*
X186519642Y-58841377D02*
X186576785Y-58898520D01*
X186576785Y-58898520D02*
X186691070Y-58955662D01*
X186691070Y-58955662D02*
X186919642Y-58955662D01*
X186919642Y-58955662D02*
X187033928Y-58898520D01*
X187033928Y-58898520D02*
X187091070Y-58841377D01*
X187091070Y-58841377D02*
X187148213Y-58727091D01*
X187148213Y-58727091D02*
X187148213Y-58441377D01*
X187148213Y-58441377D02*
X187091070Y-58327091D01*
X187091070Y-58327091D02*
X187033928Y-58269948D01*
X187033928Y-58269948D02*
X186919642Y-58212805D01*
X186919642Y-58212805D02*
X186691070Y-58212805D01*
X186691070Y-58212805D02*
X186576785Y-58269948D01*
X186576785Y-58269948D02*
X186519642Y-58327091D01*
X186519642Y-58327091D02*
X186462499Y-58441377D01*
D12*
X166498363Y-110812219D02*
X166022173Y-110812219D01*
X166022173Y-110812219D02*
X165974554Y-111288409D01*
X165974554Y-111288409D02*
X166022173Y-111240790D01*
X166022173Y-111240790D02*
X166117411Y-111193171D01*
X166117411Y-111193171D02*
X166355506Y-111193171D01*
X166355506Y-111193171D02*
X166450744Y-111240790D01*
X166450744Y-111240790D02*
X166498363Y-111288409D01*
X166498363Y-111288409D02*
X166545982Y-111383647D01*
X166545982Y-111383647D02*
X166545982Y-111621742D01*
X166545982Y-111621742D02*
X166498363Y-111716980D01*
X166498363Y-111716980D02*
X166450744Y-111764600D01*
X166450744Y-111764600D02*
X166355506Y-111812219D01*
X166355506Y-111812219D02*
X166117411Y-111812219D01*
X166117411Y-111812219D02*
X166022173Y-111764600D01*
X166022173Y-111764600D02*
X165974554Y-111716980D01*
X166831697Y-110812219D02*
X167165030Y-111812219D01*
X167165030Y-111812219D02*
X167498363Y-110812219D01*
D13*
X162927000Y-111878852D02*
X162927000Y-113021710D01*
X162355571Y-112450281D02*
X163498428Y-112450281D01*
X163212714Y-113950281D02*
X163284142Y-113807424D01*
X163284142Y-113807424D02*
X163355571Y-113735995D01*
X163355571Y-113735995D02*
X163498428Y-113664567D01*
X163498428Y-113664567D02*
X163569857Y-113664567D01*
X163569857Y-113664567D02*
X163712714Y-113735995D01*
X163712714Y-113735995D02*
X163784142Y-113807424D01*
X163784142Y-113807424D02*
X163855571Y-113950281D01*
X163855571Y-113950281D02*
X163855571Y-114235995D01*
X163855571Y-114235995D02*
X163784142Y-114378853D01*
X163784142Y-114378853D02*
X163712714Y-114450281D01*
X163712714Y-114450281D02*
X163569857Y-114521710D01*
X163569857Y-114521710D02*
X163498428Y-114521710D01*
X163498428Y-114521710D02*
X163355571Y-114450281D01*
X163355571Y-114450281D02*
X163284142Y-114378853D01*
X163284142Y-114378853D02*
X163212714Y-114235995D01*
X163212714Y-114235995D02*
X163212714Y-113950281D01*
X163212714Y-113950281D02*
X163141285Y-113807424D01*
X163141285Y-113807424D02*
X163069857Y-113735995D01*
X163069857Y-113735995D02*
X162927000Y-113664567D01*
X162927000Y-113664567D02*
X162641285Y-113664567D01*
X162641285Y-113664567D02*
X162498428Y-113735995D01*
X162498428Y-113735995D02*
X162427000Y-113807424D01*
X162427000Y-113807424D02*
X162355571Y-113950281D01*
X162355571Y-113950281D02*
X162355571Y-114235995D01*
X162355571Y-114235995D02*
X162427000Y-114378853D01*
X162427000Y-114378853D02*
X162498428Y-114450281D01*
X162498428Y-114450281D02*
X162641285Y-114521710D01*
X162641285Y-114521710D02*
X162927000Y-114521710D01*
X162927000Y-114521710D02*
X163069857Y-114450281D01*
X163069857Y-114450281D02*
X163141285Y-114378853D01*
X163141285Y-114378853D02*
X163212714Y-114235995D01*
X163855571Y-114950281D02*
X162355571Y-115450281D01*
X162355571Y-115450281D02*
X163855571Y-115950281D01*
X162395571Y-87688852D02*
X163895571Y-87688852D01*
X163895571Y-87688852D02*
X163895571Y-88260281D01*
X163895571Y-88260281D02*
X163824142Y-88403138D01*
X163824142Y-88403138D02*
X163752714Y-88474567D01*
X163752714Y-88474567D02*
X163609857Y-88545995D01*
X163609857Y-88545995D02*
X163395571Y-88545995D01*
X163395571Y-88545995D02*
X163252714Y-88474567D01*
X163252714Y-88474567D02*
X163181285Y-88403138D01*
X163181285Y-88403138D02*
X163109857Y-88260281D01*
X163109857Y-88260281D02*
X163109857Y-87688852D01*
X163895571Y-89188852D02*
X162681285Y-89188852D01*
X162681285Y-89188852D02*
X162538428Y-89260281D01*
X162538428Y-89260281D02*
X162467000Y-89331710D01*
X162467000Y-89331710D02*
X162395571Y-89474567D01*
X162395571Y-89474567D02*
X162395571Y-89760281D01*
X162395571Y-89760281D02*
X162467000Y-89903138D01*
X162467000Y-89903138D02*
X162538428Y-89974567D01*
X162538428Y-89974567D02*
X162681285Y-90045995D01*
X162681285Y-90045995D02*
X163895571Y-90045995D01*
X162395571Y-90760281D02*
X163895571Y-90760281D01*
X163895571Y-90760281D02*
X162824142Y-91260281D01*
X162824142Y-91260281D02*
X163895571Y-91760281D01*
X163895571Y-91760281D02*
X162395571Y-91760281D01*
X162395571Y-92474567D02*
X163895571Y-92474567D01*
X163895571Y-92474567D02*
X163895571Y-93045996D01*
X163895571Y-93045996D02*
X163824142Y-93188853D01*
X163824142Y-93188853D02*
X163752714Y-93260282D01*
X163752714Y-93260282D02*
X163609857Y-93331710D01*
X163609857Y-93331710D02*
X163395571Y-93331710D01*
X163395571Y-93331710D02*
X163252714Y-93260282D01*
X163252714Y-93260282D02*
X163181285Y-93188853D01*
X163181285Y-93188853D02*
X163109857Y-93045996D01*
X163109857Y-93045996D02*
X163109857Y-92474567D01*
D14*
X188480964Y-107013566D02*
X188414297Y-106980233D01*
X188414297Y-106980233D02*
X188314297Y-106980233D01*
X188314297Y-106980233D02*
X188214297Y-107013566D01*
X188214297Y-107013566D02*
X188147631Y-107080233D01*
X188147631Y-107080233D02*
X188114297Y-107146900D01*
X188114297Y-107146900D02*
X188080964Y-107280233D01*
X188080964Y-107280233D02*
X188080964Y-107380233D01*
X188080964Y-107380233D02*
X188114297Y-107513566D01*
X188114297Y-107513566D02*
X188147631Y-107580233D01*
X188147631Y-107580233D02*
X188214297Y-107646900D01*
X188214297Y-107646900D02*
X188314297Y-107680233D01*
X188314297Y-107680233D02*
X188380964Y-107680233D01*
X188380964Y-107680233D02*
X188480964Y-107646900D01*
X188480964Y-107646900D02*
X188514297Y-107613566D01*
X188514297Y-107613566D02*
X188514297Y-107380233D01*
X188514297Y-107380233D02*
X188380964Y-107380233D01*
X188814297Y-107680233D02*
X188814297Y-106980233D01*
X188814297Y-106980233D02*
X189214297Y-107680233D01*
X189214297Y-107680233D02*
X189214297Y-106980233D01*
X189547630Y-107680233D02*
X189547630Y-106980233D01*
X189547630Y-106980233D02*
X189714297Y-106980233D01*
X189714297Y-106980233D02*
X189814297Y-107013566D01*
X189814297Y-107013566D02*
X189880964Y-107080233D01*
X189880964Y-107080233D02*
X189914297Y-107146900D01*
X189914297Y-107146900D02*
X189947630Y-107280233D01*
X189947630Y-107280233D02*
X189947630Y-107380233D01*
X189947630Y-107380233D02*
X189914297Y-107513566D01*
X189914297Y-107513566D02*
X189880964Y-107580233D01*
X189880964Y-107580233D02*
X189814297Y-107646900D01*
X189814297Y-107646900D02*
X189714297Y-107680233D01*
X189714297Y-107680233D02*
X189547630Y-107680233D01*
D12*
X115053064Y-66592780D02*
X114434017Y-66592780D01*
X114434017Y-66592780D02*
X114767350Y-66211828D01*
X114767350Y-66211828D02*
X114624493Y-66211828D01*
X114624493Y-66211828D02*
X114529255Y-66164209D01*
X114529255Y-66164209D02*
X114481636Y-66116590D01*
X114481636Y-66116590D02*
X114434017Y-66021352D01*
X114434017Y-66021352D02*
X114434017Y-65783257D01*
X114434017Y-65783257D02*
X114481636Y-65688019D01*
X114481636Y-65688019D02*
X114529255Y-65640400D01*
X114529255Y-65640400D02*
X114624493Y-65592780D01*
X114624493Y-65592780D02*
X114910207Y-65592780D01*
X114910207Y-65592780D02*
X115005445Y-65640400D01*
X115005445Y-65640400D02*
X115053064Y-65688019D01*
X114005445Y-65688019D02*
X113957826Y-65640400D01*
X113957826Y-65640400D02*
X114005445Y-65592780D01*
X114005445Y-65592780D02*
X114053064Y-65640400D01*
X114053064Y-65640400D02*
X114005445Y-65688019D01*
X114005445Y-65688019D02*
X114005445Y-65592780D01*
X113624493Y-66592780D02*
X113005446Y-66592780D01*
X113005446Y-66592780D02*
X113338779Y-66211828D01*
X113338779Y-66211828D02*
X113195922Y-66211828D01*
X113195922Y-66211828D02*
X113100684Y-66164209D01*
X113100684Y-66164209D02*
X113053065Y-66116590D01*
X113053065Y-66116590D02*
X113005446Y-66021352D01*
X113005446Y-66021352D02*
X113005446Y-65783257D01*
X113005446Y-65783257D02*
X113053065Y-65688019D01*
X113053065Y-65688019D02*
X113100684Y-65640400D01*
X113100684Y-65640400D02*
X113195922Y-65592780D01*
X113195922Y-65592780D02*
X113481636Y-65592780D01*
X113481636Y-65592780D02*
X113576874Y-65640400D01*
X113576874Y-65640400D02*
X113624493Y-65688019D01*
X112719731Y-66592780D02*
X112386398Y-65592780D01*
X112386398Y-65592780D02*
X112053065Y-66592780D01*
D17*
X178565582Y-62180609D02*
X178565582Y-60980609D01*
X178565582Y-60980609D02*
X179022725Y-60980609D01*
X179022725Y-60980609D02*
X179137010Y-61037752D01*
X179137010Y-61037752D02*
X179194153Y-61094895D01*
X179194153Y-61094895D02*
X179251296Y-61209181D01*
X179251296Y-61209181D02*
X179251296Y-61380609D01*
X179251296Y-61380609D02*
X179194153Y-61494895D01*
X179194153Y-61494895D02*
X179137010Y-61552038D01*
X179137010Y-61552038D02*
X179022725Y-61609181D01*
X179022725Y-61609181D02*
X178565582Y-61609181D01*
X180279868Y-61380609D02*
X180279868Y-62180609D01*
X179765582Y-61380609D02*
X179765582Y-62009181D01*
X179765582Y-62009181D02*
X179822725Y-62123467D01*
X179822725Y-62123467D02*
X179937010Y-62180609D01*
X179937010Y-62180609D02*
X180108439Y-62180609D01*
X180108439Y-62180609D02*
X180222725Y-62123467D01*
X180222725Y-62123467D02*
X180279868Y-62066324D01*
X180851296Y-62180609D02*
X180851296Y-61380609D01*
X180851296Y-61494895D02*
X180908439Y-61437752D01*
X180908439Y-61437752D02*
X181022724Y-61380609D01*
X181022724Y-61380609D02*
X181194153Y-61380609D01*
X181194153Y-61380609D02*
X181308439Y-61437752D01*
X181308439Y-61437752D02*
X181365582Y-61552038D01*
X181365582Y-61552038D02*
X181365582Y-62180609D01*
X181365582Y-61552038D02*
X181422724Y-61437752D01*
X181422724Y-61437752D02*
X181537010Y-61380609D01*
X181537010Y-61380609D02*
X181708439Y-61380609D01*
X181708439Y-61380609D02*
X181822724Y-61437752D01*
X181822724Y-61437752D02*
X181879867Y-61552038D01*
X181879867Y-61552038D02*
X181879867Y-62180609D01*
X182451296Y-61380609D02*
X182451296Y-62580609D01*
X182451296Y-61437752D02*
X182565582Y-61380609D01*
X182565582Y-61380609D02*
X182794153Y-61380609D01*
X182794153Y-61380609D02*
X182908439Y-61437752D01*
X182908439Y-61437752D02*
X182965582Y-61494895D01*
X182965582Y-61494895D02*
X183022724Y-61609181D01*
X183022724Y-61609181D02*
X183022724Y-61952038D01*
X183022724Y-61952038D02*
X182965582Y-62066324D01*
X182965582Y-62066324D02*
X182908439Y-62123467D01*
X182908439Y-62123467D02*
X182794153Y-62180609D01*
X182794153Y-62180609D02*
X182565582Y-62180609D01*
X182565582Y-62180609D02*
X182451296Y-62123467D01*
X184451296Y-62180609D02*
X184451296Y-60980609D01*
X184451296Y-60980609D02*
X185137010Y-62180609D01*
X185137010Y-62180609D02*
X185137010Y-60980609D01*
X185879867Y-62180609D02*
X185765582Y-62123467D01*
X185765582Y-62123467D02*
X185708439Y-62066324D01*
X185708439Y-62066324D02*
X185651296Y-61952038D01*
X185651296Y-61952038D02*
X185651296Y-61609181D01*
X185651296Y-61609181D02*
X185708439Y-61494895D01*
X185708439Y-61494895D02*
X185765582Y-61437752D01*
X185765582Y-61437752D02*
X185879867Y-61380609D01*
X185879867Y-61380609D02*
X186051296Y-61380609D01*
X186051296Y-61380609D02*
X186165582Y-61437752D01*
X186165582Y-61437752D02*
X186222725Y-61494895D01*
X186222725Y-61494895D02*
X186279867Y-61609181D01*
X186279867Y-61609181D02*
X186279867Y-61952038D01*
X186279867Y-61952038D02*
X186222725Y-62066324D01*
X186222725Y-62066324D02*
X186165582Y-62123467D01*
X186165582Y-62123467D02*
X186051296Y-62180609D01*
X186051296Y-62180609D02*
X185879867Y-62180609D01*
X187308439Y-62180609D02*
X187308439Y-60980609D01*
X187308439Y-62123467D02*
X187194153Y-62180609D01*
X187194153Y-62180609D02*
X186965581Y-62180609D01*
X186965581Y-62180609D02*
X186851296Y-62123467D01*
X186851296Y-62123467D02*
X186794153Y-62066324D01*
X186794153Y-62066324D02*
X186737010Y-61952038D01*
X186737010Y-61952038D02*
X186737010Y-61609181D01*
X186737010Y-61609181D02*
X186794153Y-61494895D01*
X186794153Y-61494895D02*
X186851296Y-61437752D01*
X186851296Y-61437752D02*
X186965581Y-61380609D01*
X186965581Y-61380609D02*
X187194153Y-61380609D01*
X187194153Y-61380609D02*
X187308439Y-61437752D01*
X188337010Y-62123467D02*
X188222724Y-62180609D01*
X188222724Y-62180609D02*
X187994153Y-62180609D01*
X187994153Y-62180609D02*
X187879867Y-62123467D01*
X187879867Y-62123467D02*
X187822724Y-62009181D01*
X187822724Y-62009181D02*
X187822724Y-61552038D01*
X187822724Y-61552038D02*
X187879867Y-61437752D01*
X187879867Y-61437752D02*
X187994153Y-61380609D01*
X187994153Y-61380609D02*
X188222724Y-61380609D01*
X188222724Y-61380609D02*
X188337010Y-61437752D01*
X188337010Y-61437752D02*
X188394153Y-61552038D01*
X188394153Y-61552038D02*
X188394153Y-61666324D01*
X188394153Y-61666324D02*
X187822724Y-61780609D01*
X181308440Y-64112542D02*
X181308440Y-62912542D01*
X181308440Y-62912542D02*
X181765583Y-62912542D01*
X181765583Y-62912542D02*
X181879868Y-62969685D01*
X181879868Y-62969685D02*
X181937011Y-63026828D01*
X181937011Y-63026828D02*
X181994154Y-63141114D01*
X181994154Y-63141114D02*
X181994154Y-63312542D01*
X181994154Y-63312542D02*
X181937011Y-63426828D01*
X181937011Y-63426828D02*
X181879868Y-63483971D01*
X181879868Y-63483971D02*
X181765583Y-63541114D01*
X181765583Y-63541114D02*
X181308440Y-63541114D01*
X182508440Y-64112542D02*
X182508440Y-62912542D01*
X182508440Y-62912542D02*
X183194154Y-64112542D01*
X183194154Y-64112542D02*
X183194154Y-62912542D01*
D10*
X163948023Y-110087756D02*
X164043261Y-109897280D01*
X164043261Y-109897280D02*
X164043261Y-109611566D01*
X164043261Y-109611566D02*
X163948023Y-109325851D01*
X163948023Y-109325851D02*
X163757547Y-109135375D01*
X163757547Y-109135375D02*
X163567071Y-109040137D01*
X163567071Y-109040137D02*
X163186119Y-108944899D01*
X163186119Y-108944899D02*
X162900404Y-108944899D01*
X162900404Y-108944899D02*
X162519452Y-109040137D01*
X162519452Y-109040137D02*
X162328976Y-109135375D01*
X162328976Y-109135375D02*
X162138500Y-109325851D01*
X162138500Y-109325851D02*
X162043261Y-109611566D01*
X162043261Y-109611566D02*
X162043261Y-109802042D01*
X162043261Y-109802042D02*
X162138500Y-110087756D01*
X162138500Y-110087756D02*
X162233738Y-110182994D01*
X162233738Y-110182994D02*
X162900404Y-110182994D01*
X162900404Y-110182994D02*
X162900404Y-109802042D01*
X140491976Y-67437243D02*
X140396738Y-67627719D01*
X140396738Y-67627719D02*
X140396738Y-67913433D01*
X140396738Y-67913433D02*
X140491976Y-68199148D01*
X140491976Y-68199148D02*
X140682452Y-68389624D01*
X140682452Y-68389624D02*
X140872928Y-68484862D01*
X140872928Y-68484862D02*
X141253880Y-68580100D01*
X141253880Y-68580100D02*
X141539595Y-68580100D01*
X141539595Y-68580100D02*
X141920547Y-68484862D01*
X141920547Y-68484862D02*
X142111023Y-68389624D01*
X142111023Y-68389624D02*
X142301500Y-68199148D01*
X142301500Y-68199148D02*
X142396738Y-67913433D01*
X142396738Y-67913433D02*
X142396738Y-67722957D01*
X142396738Y-67722957D02*
X142301500Y-67437243D01*
X142301500Y-67437243D02*
X142206261Y-67342005D01*
X142206261Y-67342005D02*
X141539595Y-67342005D01*
X141539595Y-67342005D02*
X141539595Y-67722957D01*
X162303261Y-104360137D02*
X164303261Y-104360137D01*
X164112785Y-105217280D02*
X164208023Y-105312518D01*
X164208023Y-105312518D02*
X164303261Y-105502994D01*
X164303261Y-105502994D02*
X164303261Y-105979185D01*
X164303261Y-105979185D02*
X164208023Y-106169661D01*
X164208023Y-106169661D02*
X164112785Y-106264899D01*
X164112785Y-106264899D02*
X163922309Y-106360137D01*
X163922309Y-106360137D02*
X163731833Y-106360137D01*
X163731833Y-106360137D02*
X163446119Y-106264899D01*
X163446119Y-106264899D02*
X162303261Y-105122042D01*
X162303261Y-105122042D02*
X162303261Y-106360137D01*
D11*
X195332687Y-110445142D02*
X195332687Y-109245142D01*
X195332687Y-109245142D02*
X195789830Y-109245142D01*
X195789830Y-109245142D02*
X195904115Y-109302285D01*
X195904115Y-109302285D02*
X195961258Y-109359428D01*
X195961258Y-109359428D02*
X196018401Y-109473714D01*
X196018401Y-109473714D02*
X196018401Y-109645142D01*
X196018401Y-109645142D02*
X195961258Y-109759428D01*
X195961258Y-109759428D02*
X195904115Y-109816571D01*
X195904115Y-109816571D02*
X195789830Y-109873714D01*
X195789830Y-109873714D02*
X195332687Y-109873714D01*
X196418401Y-109245142D02*
X196704115Y-110445142D01*
X196704115Y-110445142D02*
X196932687Y-109588000D01*
X196932687Y-109588000D02*
X197161258Y-110445142D01*
X197161258Y-110445142D02*
X197446973Y-109245142D01*
X198589830Y-110445142D02*
X198189830Y-109873714D01*
X197904116Y-110445142D02*
X197904116Y-109245142D01*
X197904116Y-109245142D02*
X198361259Y-109245142D01*
X198361259Y-109245142D02*
X198475544Y-109302285D01*
X198475544Y-109302285D02*
X198532687Y-109359428D01*
X198532687Y-109359428D02*
X198589830Y-109473714D01*
X198589830Y-109473714D02*
X198589830Y-109645142D01*
X198589830Y-109645142D02*
X198532687Y-109759428D01*
X198532687Y-109759428D02*
X198475544Y-109816571D01*
X198475544Y-109816571D02*
X198361259Y-109873714D01*
X198361259Y-109873714D02*
X197904116Y-109873714D01*
D15*
X137654166Y-122224819D02*
X137654166Y-122939104D01*
X137654166Y-122939104D02*
X137606547Y-123081961D01*
X137606547Y-123081961D02*
X137511309Y-123177200D01*
X137511309Y-123177200D02*
X137368452Y-123224819D01*
X137368452Y-123224819D02*
X137273214Y-123224819D01*
X138082738Y-122320057D02*
X138130357Y-122272438D01*
X138130357Y-122272438D02*
X138225595Y-122224819D01*
X138225595Y-122224819D02*
X138463690Y-122224819D01*
X138463690Y-122224819D02*
X138558928Y-122272438D01*
X138558928Y-122272438D02*
X138606547Y-122320057D01*
X138606547Y-122320057D02*
X138654166Y-122415295D01*
X138654166Y-122415295D02*
X138654166Y-122510533D01*
X138654166Y-122510533D02*
X138606547Y-122653390D01*
X138606547Y-122653390D02*
X138035119Y-123224819D01*
X138035119Y-123224819D02*
X138654166Y-123224819D01*
X141996666Y-69134819D02*
X141996666Y-69849104D01*
X141996666Y-69849104D02*
X141949047Y-69991961D01*
X141949047Y-69991961D02*
X141853809Y-70087200D01*
X141853809Y-70087200D02*
X141710952Y-70134819D01*
X141710952Y-70134819D02*
X141615714Y-70134819D01*
X142377619Y-69134819D02*
X142996666Y-69134819D01*
X142996666Y-69134819D02*
X142663333Y-69515771D01*
X142663333Y-69515771D02*
X142806190Y-69515771D01*
X142806190Y-69515771D02*
X142901428Y-69563390D01*
X142901428Y-69563390D02*
X142949047Y-69611009D01*
X142949047Y-69611009D02*
X142996666Y-69706247D01*
X142996666Y-69706247D02*
X142996666Y-69944342D01*
X142996666Y-69944342D02*
X142949047Y-70039580D01*
X142949047Y-70039580D02*
X142901428Y-70087200D01*
X142901428Y-70087200D02*
X142806190Y-70134819D01*
X142806190Y-70134819D02*
X142520476Y-70134819D01*
X142520476Y-70134819D02*
X142425238Y-70087200D01*
X142425238Y-70087200D02*
X142377619Y-70039580D01*
X161949166Y-94899819D02*
X161949166Y-95614104D01*
X161949166Y-95614104D02*
X161901547Y-95756961D01*
X161901547Y-95756961D02*
X161806309Y-95852200D01*
X161806309Y-95852200D02*
X161663452Y-95899819D01*
X161663452Y-95899819D02*
X161568214Y-95899819D01*
X162949166Y-95899819D02*
X162377738Y-95899819D01*
X162663452Y-95899819D02*
X162663452Y-94899819D01*
X162663452Y-94899819D02*
X162568214Y-95042676D01*
X162568214Y-95042676D02*
X162472976Y-95137914D01*
X162472976Y-95137914D02*
X162377738Y-95185533D01*
X141824166Y-81534819D02*
X141824166Y-82249104D01*
X141824166Y-82249104D02*
X141776547Y-82391961D01*
X141776547Y-82391961D02*
X141681309Y-82487200D01*
X141681309Y-82487200D02*
X141538452Y-82534819D01*
X141538452Y-82534819D02*
X141443214Y-82534819D01*
X142824166Y-82534819D02*
X142252738Y-82534819D01*
X142538452Y-82534819D02*
X142538452Y-81534819D01*
X142538452Y-81534819D02*
X142443214Y-81677676D01*
X142443214Y-81677676D02*
X142347976Y-81772914D01*
X142347976Y-81772914D02*
X142252738Y-81820533D01*
X143122319Y-92203333D02*
X143836604Y-92203333D01*
X143836604Y-92203333D02*
X143979461Y-92250952D01*
X143979461Y-92250952D02*
X144074700Y-92346190D01*
X144074700Y-92346190D02*
X144122319Y-92489047D01*
X144122319Y-92489047D02*
X144122319Y-92584285D01*
X143455652Y-91298571D02*
X144122319Y-91298571D01*
X143074700Y-91536666D02*
X143788985Y-91774761D01*
X143788985Y-91774761D02*
X143788985Y-91155714D01*
X149069405Y-114875113D02*
X149069405Y-113875113D01*
X149640833Y-114875113D02*
X149212262Y-114303684D01*
X149640833Y-113875113D02*
X149069405Y-114446541D01*
X150593214Y-114875113D02*
X150021786Y-114875113D01*
X150307500Y-114875113D02*
X150307500Y-113875113D01*
X150307500Y-113875113D02*
X150212262Y-114017970D01*
X150212262Y-114017970D02*
X150117024Y-114113208D01*
X150117024Y-114113208D02*
X150021786Y-114160827D01*
X142064642Y-114162732D02*
X141969404Y-114115113D01*
X141969404Y-114115113D02*
X141826547Y-114115113D01*
X141826547Y-114115113D02*
X141683690Y-114162732D01*
X141683690Y-114162732D02*
X141588452Y-114257970D01*
X141588452Y-114257970D02*
X141540833Y-114353208D01*
X141540833Y-114353208D02*
X141493214Y-114543684D01*
X141493214Y-114543684D02*
X141493214Y-114686541D01*
X141493214Y-114686541D02*
X141540833Y-114877017D01*
X141540833Y-114877017D02*
X141588452Y-114972255D01*
X141588452Y-114972255D02*
X141683690Y-115067494D01*
X141683690Y-115067494D02*
X141826547Y-115115113D01*
X141826547Y-115115113D02*
X141921785Y-115115113D01*
X141921785Y-115115113D02*
X142064642Y-115067494D01*
X142064642Y-115067494D02*
X142112261Y-115019874D01*
X142112261Y-115019874D02*
X142112261Y-114686541D01*
X142112261Y-114686541D02*
X141921785Y-114686541D01*
X142969404Y-114115113D02*
X142778928Y-114115113D01*
X142778928Y-114115113D02*
X142683690Y-114162732D01*
X142683690Y-114162732D02*
X142636071Y-114210351D01*
X142636071Y-114210351D02*
X142540833Y-114353208D01*
X142540833Y-114353208D02*
X142493214Y-114543684D01*
X142493214Y-114543684D02*
X142493214Y-114924636D01*
X142493214Y-114924636D02*
X142540833Y-115019874D01*
X142540833Y-115019874D02*
X142588452Y-115067494D01*
X142588452Y-115067494D02*
X142683690Y-115115113D01*
X142683690Y-115115113D02*
X142874166Y-115115113D01*
X142874166Y-115115113D02*
X142969404Y-115067494D01*
X142969404Y-115067494D02*
X143017023Y-115019874D01*
X143017023Y-115019874D02*
X143064642Y-114924636D01*
X143064642Y-114924636D02*
X143064642Y-114686541D01*
X143064642Y-114686541D02*
X143017023Y-114591303D01*
X143017023Y-114591303D02*
X142969404Y-114543684D01*
X142969404Y-114543684D02*
X142874166Y-114496065D01*
X142874166Y-114496065D02*
X142683690Y-114496065D01*
X142683690Y-114496065D02*
X142588452Y-114543684D01*
X142588452Y-114543684D02*
X142540833Y-114591303D01*
X142540833Y-114591303D02*
X142493214Y-114686541D01*
X143445595Y-114829398D02*
X143921785Y-114829398D01*
X143350357Y-115115113D02*
X143683690Y-114115113D01*
X143683690Y-114115113D02*
X144017023Y-115115113D01*
X126408095Y-69074819D02*
X126408095Y-69884342D01*
X126408095Y-69884342D02*
X126455714Y-69979580D01*
X126455714Y-69979580D02*
X126503333Y-70027200D01*
X126503333Y-70027200D02*
X126598571Y-70074819D01*
X126598571Y-70074819D02*
X126789047Y-70074819D01*
X126789047Y-70074819D02*
X126884285Y-70027200D01*
X126884285Y-70027200D02*
X126931904Y-69979580D01*
X126931904Y-69979580D02*
X126979523Y-69884342D01*
X126979523Y-69884342D02*
X126979523Y-69074819D01*
X127931904Y-69074819D02*
X127455714Y-69074819D01*
X127455714Y-69074819D02*
X127408095Y-69551009D01*
X127408095Y-69551009D02*
X127455714Y-69503390D01*
X127455714Y-69503390D02*
X127550952Y-69455771D01*
X127550952Y-69455771D02*
X127789047Y-69455771D01*
X127789047Y-69455771D02*
X127884285Y-69503390D01*
X127884285Y-69503390D02*
X127931904Y-69551009D01*
X127931904Y-69551009D02*
X127979523Y-69646247D01*
X127979523Y-69646247D02*
X127979523Y-69884342D01*
X127979523Y-69884342D02*
X127931904Y-69979580D01*
X127931904Y-69979580D02*
X127884285Y-70027200D01*
X127884285Y-70027200D02*
X127789047Y-70074819D01*
X127789047Y-70074819D02*
X127550952Y-70074819D01*
X127550952Y-70074819D02*
X127455714Y-70027200D01*
X127455714Y-70027200D02*
X127408095Y-69979580D01*
X117117142Y-67851009D02*
X117450475Y-67851009D01*
X117593332Y-68374819D02*
X117117142Y-68374819D01*
X117117142Y-68374819D02*
X117117142Y-67374819D01*
X117117142Y-67374819D02*
X117593332Y-67374819D01*
X117974285Y-68327200D02*
X118117142Y-68374819D01*
X118117142Y-68374819D02*
X118355237Y-68374819D01*
X118355237Y-68374819D02*
X118450475Y-68327200D01*
X118450475Y-68327200D02*
X118498094Y-68279580D01*
X118498094Y-68279580D02*
X118545713Y-68184342D01*
X118545713Y-68184342D02*
X118545713Y-68089104D01*
X118545713Y-68089104D02*
X118498094Y-67993866D01*
X118498094Y-67993866D02*
X118450475Y-67946247D01*
X118450475Y-67946247D02*
X118355237Y-67898628D01*
X118355237Y-67898628D02*
X118164761Y-67851009D01*
X118164761Y-67851009D02*
X118069523Y-67803390D01*
X118069523Y-67803390D02*
X118021904Y-67755771D01*
X118021904Y-67755771D02*
X117974285Y-67660533D01*
X117974285Y-67660533D02*
X117974285Y-67565295D01*
X117974285Y-67565295D02*
X118021904Y-67470057D01*
X118021904Y-67470057D02*
X118069523Y-67422438D01*
X118069523Y-67422438D02*
X118164761Y-67374819D01*
X118164761Y-67374819D02*
X118402856Y-67374819D01*
X118402856Y-67374819D02*
X118545713Y-67422438D01*
X118974285Y-68374819D02*
X118974285Y-67374819D01*
X118974285Y-67374819D02*
X119355237Y-67374819D01*
X119355237Y-67374819D02*
X119450475Y-67422438D01*
X119450475Y-67422438D02*
X119498094Y-67470057D01*
X119498094Y-67470057D02*
X119545713Y-67565295D01*
X119545713Y-67565295D02*
X119545713Y-67708152D01*
X119545713Y-67708152D02*
X119498094Y-67803390D01*
X119498094Y-67803390D02*
X119450475Y-67851009D01*
X119450475Y-67851009D02*
X119355237Y-67898628D01*
X119355237Y-67898628D02*
X118974285Y-67898628D01*
X119879047Y-67374819D02*
X120498094Y-67374819D01*
X120498094Y-67374819D02*
X120164761Y-67755771D01*
X120164761Y-67755771D02*
X120307618Y-67755771D01*
X120307618Y-67755771D02*
X120402856Y-67803390D01*
X120402856Y-67803390D02*
X120450475Y-67851009D01*
X120450475Y-67851009D02*
X120498094Y-67946247D01*
X120498094Y-67946247D02*
X120498094Y-68184342D01*
X120498094Y-68184342D02*
X120450475Y-68279580D01*
X120450475Y-68279580D02*
X120402856Y-68327200D01*
X120402856Y-68327200D02*
X120307618Y-68374819D01*
X120307618Y-68374819D02*
X120021904Y-68374819D01*
X120021904Y-68374819D02*
X119926666Y-68327200D01*
X119926666Y-68327200D02*
X119879047Y-68279580D01*
X120879047Y-67470057D02*
X120926666Y-67422438D01*
X120926666Y-67422438D02*
X121021904Y-67374819D01*
X121021904Y-67374819D02*
X121259999Y-67374819D01*
X121259999Y-67374819D02*
X121355237Y-67422438D01*
X121355237Y-67422438D02*
X121402856Y-67470057D01*
X121402856Y-67470057D02*
X121450475Y-67565295D01*
X121450475Y-67565295D02*
X121450475Y-67660533D01*
X121450475Y-67660533D02*
X121402856Y-67803390D01*
X121402856Y-67803390D02*
X120831428Y-68374819D01*
X120831428Y-68374819D02*
X121450475Y-68374819D01*
X122640952Y-67993866D02*
X123402857Y-67993866D01*
X124640952Y-68374819D02*
X124640952Y-67374819D01*
X124640952Y-67374819D02*
X124879047Y-67374819D01*
X124879047Y-67374819D02*
X125021904Y-67422438D01*
X125021904Y-67422438D02*
X125117142Y-67517676D01*
X125117142Y-67517676D02*
X125164761Y-67612914D01*
X125164761Y-67612914D02*
X125212380Y-67803390D01*
X125212380Y-67803390D02*
X125212380Y-67946247D01*
X125212380Y-67946247D02*
X125164761Y-68136723D01*
X125164761Y-68136723D02*
X125117142Y-68231961D01*
X125117142Y-68231961D02*
X125021904Y-68327200D01*
X125021904Y-68327200D02*
X124879047Y-68374819D01*
X124879047Y-68374819D02*
X124640952Y-68374819D01*
X126021904Y-68327200D02*
X125926666Y-68374819D01*
X125926666Y-68374819D02*
X125736190Y-68374819D01*
X125736190Y-68374819D02*
X125640952Y-68327200D01*
X125640952Y-68327200D02*
X125593333Y-68231961D01*
X125593333Y-68231961D02*
X125593333Y-67851009D01*
X125593333Y-67851009D02*
X125640952Y-67755771D01*
X125640952Y-67755771D02*
X125736190Y-67708152D01*
X125736190Y-67708152D02*
X125926666Y-67708152D01*
X125926666Y-67708152D02*
X126021904Y-67755771D01*
X126021904Y-67755771D02*
X126069523Y-67851009D01*
X126069523Y-67851009D02*
X126069523Y-67946247D01*
X126069523Y-67946247D02*
X125593333Y-68041485D01*
X126402857Y-67708152D02*
X126640952Y-68374819D01*
X126640952Y-68374819D02*
X126879047Y-67708152D01*
X128021905Y-68374819D02*
X128021905Y-67374819D01*
X128593333Y-68374819D02*
X128164762Y-67803390D01*
X128593333Y-67374819D02*
X128021905Y-67946247D01*
X129021905Y-68374819D02*
X129021905Y-67708152D01*
X129021905Y-67374819D02*
X128974286Y-67422438D01*
X128974286Y-67422438D02*
X129021905Y-67470057D01*
X129021905Y-67470057D02*
X129069524Y-67422438D01*
X129069524Y-67422438D02*
X129021905Y-67374819D01*
X129021905Y-67374819D02*
X129021905Y-67470057D01*
X129355238Y-67708152D02*
X129736190Y-67708152D01*
X129498095Y-67374819D02*
X129498095Y-68231961D01*
X129498095Y-68231961D02*
X129545714Y-68327200D01*
X129545714Y-68327200D02*
X129640952Y-68374819D01*
X129640952Y-68374819D02*
X129736190Y-68374819D01*
X130736191Y-67374819D02*
X131355238Y-67374819D01*
X131355238Y-67374819D02*
X131021905Y-67755771D01*
X131021905Y-67755771D02*
X131164762Y-67755771D01*
X131164762Y-67755771D02*
X131260000Y-67803390D01*
X131260000Y-67803390D02*
X131307619Y-67851009D01*
X131307619Y-67851009D02*
X131355238Y-67946247D01*
X131355238Y-67946247D02*
X131355238Y-68184342D01*
X131355238Y-68184342D02*
X131307619Y-68279580D01*
X131307619Y-68279580D02*
X131260000Y-68327200D01*
X131260000Y-68327200D02*
X131164762Y-68374819D01*
X131164762Y-68374819D02*
X130879048Y-68374819D01*
X130879048Y-68374819D02*
X130783810Y-68327200D01*
X130783810Y-68327200D02*
X130736191Y-68279580D01*
X131974286Y-67374819D02*
X132069524Y-67374819D01*
X132069524Y-67374819D02*
X132164762Y-67422438D01*
X132164762Y-67422438D02*
X132212381Y-67470057D01*
X132212381Y-67470057D02*
X132260000Y-67565295D01*
X132260000Y-67565295D02*
X132307619Y-67755771D01*
X132307619Y-67755771D02*
X132307619Y-67993866D01*
X132307619Y-67993866D02*
X132260000Y-68184342D01*
X132260000Y-68184342D02*
X132212381Y-68279580D01*
X132212381Y-68279580D02*
X132164762Y-68327200D01*
X132164762Y-68327200D02*
X132069524Y-68374819D01*
X132069524Y-68374819D02*
X131974286Y-68374819D01*
X131974286Y-68374819D02*
X131879048Y-68327200D01*
X131879048Y-68327200D02*
X131831429Y-68279580D01*
X131831429Y-68279580D02*
X131783810Y-68184342D01*
X131783810Y-68184342D02*
X131736191Y-67993866D01*
X131736191Y-67993866D02*
X131736191Y-67755771D01*
X131736191Y-67755771D02*
X131783810Y-67565295D01*
X131783810Y-67565295D02*
X131831429Y-67470057D01*
X131831429Y-67470057D02*
X131879048Y-67422438D01*
X131879048Y-67422438D02*
X131974286Y-67374819D01*
X133498096Y-68374819D02*
X133498096Y-67374819D01*
X133498096Y-67374819D02*
X133879048Y-67374819D01*
X133879048Y-67374819D02*
X133974286Y-67422438D01*
X133974286Y-67422438D02*
X134021905Y-67470057D01*
X134021905Y-67470057D02*
X134069524Y-67565295D01*
X134069524Y-67565295D02*
X134069524Y-67708152D01*
X134069524Y-67708152D02*
X134021905Y-67803390D01*
X134021905Y-67803390D02*
X133974286Y-67851009D01*
X133974286Y-67851009D02*
X133879048Y-67898628D01*
X133879048Y-67898628D02*
X133498096Y-67898628D01*
X134498096Y-68374819D02*
X134498096Y-67708152D01*
X134498096Y-67374819D02*
X134450477Y-67422438D01*
X134450477Y-67422438D02*
X134498096Y-67470057D01*
X134498096Y-67470057D02*
X134545715Y-67422438D01*
X134545715Y-67422438D02*
X134498096Y-67374819D01*
X134498096Y-67374819D02*
X134498096Y-67470057D01*
X134974286Y-67708152D02*
X134974286Y-68374819D01*
X134974286Y-67803390D02*
X135021905Y-67755771D01*
X135021905Y-67755771D02*
X135117143Y-67708152D01*
X135117143Y-67708152D02*
X135260000Y-67708152D01*
X135260000Y-67708152D02*
X135355238Y-67755771D01*
X135355238Y-67755771D02*
X135402857Y-67851009D01*
X135402857Y-67851009D02*
X135402857Y-68374819D01*
D18*
X134814167Y-107176332D02*
X133147500Y-107176332D01*
X135147500Y-106176332D02*
X133980834Y-109676332D01*
X133980834Y-109676332D02*
X132814167Y-106176332D01*
X131647500Y-108509665D02*
X131647500Y-106176332D01*
X131647500Y-108176332D02*
X131480834Y-108342999D01*
X131480834Y-108342999D02*
X131147500Y-108509665D01*
X131147500Y-108509665D02*
X130647500Y-108509665D01*
X130647500Y-108509665D02*
X130314167Y-108342999D01*
X130314167Y-108342999D02*
X130147500Y-108009665D01*
X130147500Y-108009665D02*
X130147500Y-106176332D01*
X128980833Y-108509665D02*
X127647500Y-108509665D01*
X128480833Y-109676332D02*
X128480833Y-106676332D01*
X128480833Y-106676332D02*
X128314167Y-106342999D01*
X128314167Y-106342999D02*
X127980833Y-106176332D01*
X127980833Y-106176332D02*
X127647500Y-106176332D01*
X125147500Y-106342999D02*
X125480833Y-106176332D01*
X125480833Y-106176332D02*
X126147500Y-106176332D01*
X126147500Y-106176332D02*
X126480833Y-106342999D01*
X126480833Y-106342999D02*
X126647500Y-106676332D01*
X126647500Y-106676332D02*
X126647500Y-108009665D01*
X126647500Y-108009665D02*
X126480833Y-108342999D01*
X126480833Y-108342999D02*
X126147500Y-108509665D01*
X126147500Y-108509665D02*
X125480833Y-108509665D01*
X125480833Y-108509665D02*
X125147500Y-108342999D01*
X125147500Y-108342999D02*
X124980833Y-108009665D01*
X124980833Y-108009665D02*
X124980833Y-107676332D01*
X124980833Y-107676332D02*
X126647500Y-107342999D01*
X123480833Y-108509665D02*
X123480833Y-106176332D01*
X123480833Y-108176332D02*
X123314167Y-108342999D01*
X123314167Y-108342999D02*
X122980833Y-108509665D01*
X122980833Y-108509665D02*
X122480833Y-108509665D01*
X122480833Y-108509665D02*
X122147500Y-108342999D01*
X122147500Y-108342999D02*
X121980833Y-108009665D01*
X121980833Y-108009665D02*
X121980833Y-106176332D01*
X120314166Y-108509665D02*
X120314166Y-106176332D01*
X120314166Y-108176332D02*
X120147500Y-108342999D01*
X120147500Y-108342999D02*
X119814166Y-108509665D01*
X119814166Y-108509665D02*
X119314166Y-108509665D01*
X119314166Y-108509665D02*
X118980833Y-108342999D01*
X118980833Y-108342999D02*
X118814166Y-108009665D01*
X118814166Y-108009665D02*
X118814166Y-106176332D01*
X115647499Y-106176332D02*
X115647499Y-108009665D01*
X115647499Y-108009665D02*
X115814166Y-108342999D01*
X115814166Y-108342999D02*
X116147499Y-108509665D01*
X116147499Y-108509665D02*
X116814166Y-108509665D01*
X116814166Y-108509665D02*
X117147499Y-108342999D01*
X115647499Y-106342999D02*
X115980833Y-106176332D01*
X115980833Y-106176332D02*
X116814166Y-106176332D01*
X116814166Y-106176332D02*
X117147499Y-106342999D01*
X117147499Y-106342999D02*
X117314166Y-106676332D01*
X117314166Y-106676332D02*
X117314166Y-107009665D01*
X117314166Y-107009665D02*
X117147499Y-107342999D01*
X117147499Y-107342999D02*
X116814166Y-107509665D01*
X116814166Y-107509665D02*
X115980833Y-107509665D01*
X115980833Y-107509665D02*
X115647499Y-107676332D01*
D15*
D19*
X131446071Y-61282714D02*
X131446071Y-57639857D01*
X131446071Y-57639857D02*
X131231785Y-57211285D01*
X131231785Y-57211285D02*
X131017500Y-56997000D01*
X131017500Y-56997000D02*
X130588928Y-56782714D01*
X130588928Y-56782714D02*
X129731785Y-56782714D01*
X129731785Y-56782714D02*
X129303214Y-56997000D01*
X129303214Y-56997000D02*
X129088928Y-57211285D01*
X129088928Y-57211285D02*
X128874642Y-57639857D01*
X128874642Y-57639857D02*
X128874642Y-61282714D01*
X126946071Y-56997000D02*
X126303214Y-56782714D01*
X126303214Y-56782714D02*
X125231785Y-56782714D01*
X125231785Y-56782714D02*
X124803214Y-56997000D01*
X124803214Y-56997000D02*
X124588928Y-57211285D01*
X124588928Y-57211285D02*
X124374642Y-57639857D01*
X124374642Y-57639857D02*
X124374642Y-58068428D01*
X124374642Y-58068428D02*
X124588928Y-58497000D01*
X124588928Y-58497000D02*
X124803214Y-58711285D01*
X124803214Y-58711285D02*
X125231785Y-58925571D01*
X125231785Y-58925571D02*
X126088928Y-59139857D01*
X126088928Y-59139857D02*
X126517499Y-59354142D01*
X126517499Y-59354142D02*
X126731785Y-59568428D01*
X126731785Y-59568428D02*
X126946071Y-59997000D01*
X126946071Y-59997000D02*
X126946071Y-60425571D01*
X126946071Y-60425571D02*
X126731785Y-60854142D01*
X126731785Y-60854142D02*
X126517499Y-61068428D01*
X126517499Y-61068428D02*
X126088928Y-61282714D01*
X126088928Y-61282714D02*
X125017499Y-61282714D01*
X125017499Y-61282714D02*
X124374642Y-61068428D01*
X120946071Y-59139857D02*
X120303214Y-58925571D01*
X120303214Y-58925571D02*
X120088928Y-58711285D01*
X120088928Y-58711285D02*
X119874642Y-58282714D01*
X119874642Y-58282714D02*
X119874642Y-57639857D01*
X119874642Y-57639857D02*
X120088928Y-57211285D01*
X120088928Y-57211285D02*
X120303214Y-56997000D01*
X120303214Y-56997000D02*
X120731785Y-56782714D01*
X120731785Y-56782714D02*
X122446071Y-56782714D01*
X122446071Y-56782714D02*
X122446071Y-61282714D01*
X122446071Y-61282714D02*
X120946071Y-61282714D01*
X120946071Y-61282714D02*
X120517500Y-61068428D01*
X120517500Y-61068428D02*
X120303214Y-60854142D01*
X120303214Y-60854142D02*
X120088928Y-60425571D01*
X120088928Y-60425571D02*
X120088928Y-59997000D01*
X120088928Y-59997000D02*
X120303214Y-59568428D01*
X120303214Y-59568428D02*
X120517500Y-59354142D01*
X120517500Y-59354142D02*
X120946071Y-59139857D01*
X120946071Y-59139857D02*
X122446071Y-59139857D01*
D15*
X153894405Y-63559525D02*
X153894405Y-62559525D01*
X154465833Y-63559525D02*
X154037262Y-62988096D01*
X154465833Y-62559525D02*
X153894405Y-63130953D01*
X155418214Y-63559525D02*
X154846786Y-63559525D01*
X155132500Y-63559525D02*
X155132500Y-62559525D01*
X155132500Y-62559525D02*
X155037262Y-62702382D01*
X155037262Y-62702382D02*
X154942024Y-62797620D01*
X154942024Y-62797620D02*
X154846786Y-62845239D01*
X161089642Y-62367144D02*
X160994404Y-62319525D01*
X160994404Y-62319525D02*
X160851547Y-62319525D01*
X160851547Y-62319525D02*
X160708690Y-62367144D01*
X160708690Y-62367144D02*
X160613452Y-62462382D01*
X160613452Y-62462382D02*
X160565833Y-62557620D01*
X160565833Y-62557620D02*
X160518214Y-62748096D01*
X160518214Y-62748096D02*
X160518214Y-62890953D01*
X160518214Y-62890953D02*
X160565833Y-63081429D01*
X160565833Y-63081429D02*
X160613452Y-63176667D01*
X160613452Y-63176667D02*
X160708690Y-63271906D01*
X160708690Y-63271906D02*
X160851547Y-63319525D01*
X160851547Y-63319525D02*
X160946785Y-63319525D01*
X160946785Y-63319525D02*
X161089642Y-63271906D01*
X161089642Y-63271906D02*
X161137261Y-63224286D01*
X161137261Y-63224286D02*
X161137261Y-62890953D01*
X161137261Y-62890953D02*
X160946785Y-62890953D01*
X161994404Y-62319525D02*
X161803928Y-62319525D01*
X161803928Y-62319525D02*
X161708690Y-62367144D01*
X161708690Y-62367144D02*
X161661071Y-62414763D01*
X161661071Y-62414763D02*
X161565833Y-62557620D01*
X161565833Y-62557620D02*
X161518214Y-62748096D01*
X161518214Y-62748096D02*
X161518214Y-63129048D01*
X161518214Y-63129048D02*
X161565833Y-63224286D01*
X161565833Y-63224286D02*
X161613452Y-63271906D01*
X161613452Y-63271906D02*
X161708690Y-63319525D01*
X161708690Y-63319525D02*
X161899166Y-63319525D01*
X161899166Y-63319525D02*
X161994404Y-63271906D01*
X161994404Y-63271906D02*
X162042023Y-63224286D01*
X162042023Y-63224286D02*
X162089642Y-63129048D01*
X162089642Y-63129048D02*
X162089642Y-62890953D01*
X162089642Y-62890953D02*
X162042023Y-62795715D01*
X162042023Y-62795715D02*
X161994404Y-62748096D01*
X161994404Y-62748096D02*
X161899166Y-62700477D01*
X161899166Y-62700477D02*
X161708690Y-62700477D01*
X161708690Y-62700477D02*
X161613452Y-62748096D01*
X161613452Y-62748096D02*
X161565833Y-62795715D01*
X161565833Y-62795715D02*
X161518214Y-62890953D01*
X162470595Y-63033810D02*
X162946785Y-63033810D01*
X162375357Y-63319525D02*
X162708690Y-62319525D01*
X162708690Y-62319525D02*
X163042023Y-63319525D01*
X198342080Y-118404999D02*
X198389700Y-118357380D01*
X198389700Y-118357380D02*
X198437319Y-118404999D01*
X198437319Y-118404999D02*
X198389700Y-118452618D01*
X198389700Y-118452618D02*
X198342080Y-118404999D01*
X198342080Y-118404999D02*
X198437319Y-118404999D01*
X-32890419Y-114644999D02*
X-32842800Y-114597380D01*
X-32842800Y-114597380D02*
X-32795180Y-114644999D01*
X-32795180Y-114644999D02*
X-32842800Y-114692618D01*
X-32842800Y-114692618D02*
X-32890419Y-114644999D01*
X-32890419Y-114644999D02*
X-32795180Y-114644999D01*
X160227319Y-85988333D02*
X160941604Y-85988333D01*
X160941604Y-85988333D02*
X161084461Y-86035952D01*
X161084461Y-86035952D02*
X161179700Y-86131190D01*
X161179700Y-86131190D02*
X161227319Y-86274047D01*
X161227319Y-86274047D02*
X161227319Y-86369285D01*
X160560652Y-85083571D02*
X161227319Y-85083571D01*
X160179700Y-85321666D02*
X160893985Y-85559761D01*
X160893985Y-85559761D02*
X160893985Y-84940714D01*
X176508095Y-107359819D02*
X176508095Y-108169342D01*
X176508095Y-108169342D02*
X176555714Y-108264580D01*
X176555714Y-108264580D02*
X176603333Y-108312200D01*
X176603333Y-108312200D02*
X176698571Y-108359819D01*
X176698571Y-108359819D02*
X176889047Y-108359819D01*
X176889047Y-108359819D02*
X176984285Y-108312200D01*
X176984285Y-108312200D02*
X177031904Y-108264580D01*
X177031904Y-108264580D02*
X177079523Y-108169342D01*
X177079523Y-108169342D02*
X177079523Y-107359819D01*
X178031904Y-107359819D02*
X177555714Y-107359819D01*
X177555714Y-107359819D02*
X177508095Y-107836009D01*
X177508095Y-107836009D02*
X177555714Y-107788390D01*
X177555714Y-107788390D02*
X177650952Y-107740771D01*
X177650952Y-107740771D02*
X177889047Y-107740771D01*
X177889047Y-107740771D02*
X177984285Y-107788390D01*
X177984285Y-107788390D02*
X178031904Y-107836009D01*
X178031904Y-107836009D02*
X178079523Y-107931247D01*
X178079523Y-107931247D02*
X178079523Y-108169342D01*
X178079523Y-108169342D02*
X178031904Y-108264580D01*
X178031904Y-108264580D02*
X177984285Y-108312200D01*
X177984285Y-108312200D02*
X177889047Y-108359819D01*
X177889047Y-108359819D02*
X177650952Y-108359819D01*
X177650952Y-108359819D02*
X177555714Y-108312200D01*
X177555714Y-108312200D02*
X177508095Y-108264580D01*
D19*
X172993928Y-116242285D02*
X172993928Y-119885142D01*
X172993928Y-119885142D02*
X173208214Y-120313714D01*
X173208214Y-120313714D02*
X173422500Y-120528000D01*
X173422500Y-120528000D02*
X173851071Y-120742285D01*
X173851071Y-120742285D02*
X174708214Y-120742285D01*
X174708214Y-120742285D02*
X175136785Y-120528000D01*
X175136785Y-120528000D02*
X175351071Y-120313714D01*
X175351071Y-120313714D02*
X175565357Y-119885142D01*
X175565357Y-119885142D02*
X175565357Y-116242285D01*
X177493928Y-120528000D02*
X178136786Y-120742285D01*
X178136786Y-120742285D02*
X179208214Y-120742285D01*
X179208214Y-120742285D02*
X179636786Y-120528000D01*
X179636786Y-120528000D02*
X179851071Y-120313714D01*
X179851071Y-120313714D02*
X180065357Y-119885142D01*
X180065357Y-119885142D02*
X180065357Y-119456571D01*
X180065357Y-119456571D02*
X179851071Y-119028000D01*
X179851071Y-119028000D02*
X179636786Y-118813714D01*
X179636786Y-118813714D02*
X179208214Y-118599428D01*
X179208214Y-118599428D02*
X178351071Y-118385142D01*
X178351071Y-118385142D02*
X177922500Y-118170857D01*
X177922500Y-118170857D02*
X177708214Y-117956571D01*
X177708214Y-117956571D02*
X177493928Y-117528000D01*
X177493928Y-117528000D02*
X177493928Y-117099428D01*
X177493928Y-117099428D02*
X177708214Y-116670857D01*
X177708214Y-116670857D02*
X177922500Y-116456571D01*
X177922500Y-116456571D02*
X178351071Y-116242285D01*
X178351071Y-116242285D02*
X179422500Y-116242285D01*
X179422500Y-116242285D02*
X180065357Y-116456571D01*
X183493928Y-118385142D02*
X184136785Y-118599428D01*
X184136785Y-118599428D02*
X184351071Y-118813714D01*
X184351071Y-118813714D02*
X184565357Y-119242285D01*
X184565357Y-119242285D02*
X184565357Y-119885142D01*
X184565357Y-119885142D02*
X184351071Y-120313714D01*
X184351071Y-120313714D02*
X184136785Y-120528000D01*
X184136785Y-120528000D02*
X183708214Y-120742285D01*
X183708214Y-120742285D02*
X181993928Y-120742285D01*
X181993928Y-120742285D02*
X181993928Y-116242285D01*
X181993928Y-116242285D02*
X183493928Y-116242285D01*
X183493928Y-116242285D02*
X183922500Y-116456571D01*
X183922500Y-116456571D02*
X184136785Y-116670857D01*
X184136785Y-116670857D02*
X184351071Y-117099428D01*
X184351071Y-117099428D02*
X184351071Y-117528000D01*
X184351071Y-117528000D02*
X184136785Y-117956571D01*
X184136785Y-117956571D02*
X183922500Y-118170857D01*
X183922500Y-118170857D02*
X183493928Y-118385142D01*
X183493928Y-118385142D02*
X181993928Y-118385142D01*
D15*
X169037142Y-109536009D02*
X169370475Y-109536009D01*
X169513332Y-110059819D02*
X169037142Y-110059819D01*
X169037142Y-110059819D02*
X169037142Y-109059819D01*
X169037142Y-109059819D02*
X169513332Y-109059819D01*
X169894285Y-110012200D02*
X170037142Y-110059819D01*
X170037142Y-110059819D02*
X170275237Y-110059819D01*
X170275237Y-110059819D02*
X170370475Y-110012200D01*
X170370475Y-110012200D02*
X170418094Y-109964580D01*
X170418094Y-109964580D02*
X170465713Y-109869342D01*
X170465713Y-109869342D02*
X170465713Y-109774104D01*
X170465713Y-109774104D02*
X170418094Y-109678866D01*
X170418094Y-109678866D02*
X170370475Y-109631247D01*
X170370475Y-109631247D02*
X170275237Y-109583628D01*
X170275237Y-109583628D02*
X170084761Y-109536009D01*
X170084761Y-109536009D02*
X169989523Y-109488390D01*
X169989523Y-109488390D02*
X169941904Y-109440771D01*
X169941904Y-109440771D02*
X169894285Y-109345533D01*
X169894285Y-109345533D02*
X169894285Y-109250295D01*
X169894285Y-109250295D02*
X169941904Y-109155057D01*
X169941904Y-109155057D02*
X169989523Y-109107438D01*
X169989523Y-109107438D02*
X170084761Y-109059819D01*
X170084761Y-109059819D02*
X170322856Y-109059819D01*
X170322856Y-109059819D02*
X170465713Y-109107438D01*
X170894285Y-110059819D02*
X170894285Y-109059819D01*
X170894285Y-109059819D02*
X171275237Y-109059819D01*
X171275237Y-109059819D02*
X171370475Y-109107438D01*
X171370475Y-109107438D02*
X171418094Y-109155057D01*
X171418094Y-109155057D02*
X171465713Y-109250295D01*
X171465713Y-109250295D02*
X171465713Y-109393152D01*
X171465713Y-109393152D02*
X171418094Y-109488390D01*
X171418094Y-109488390D02*
X171370475Y-109536009D01*
X171370475Y-109536009D02*
X171275237Y-109583628D01*
X171275237Y-109583628D02*
X170894285Y-109583628D01*
X171799047Y-109059819D02*
X172418094Y-109059819D01*
X172418094Y-109059819D02*
X172084761Y-109440771D01*
X172084761Y-109440771D02*
X172227618Y-109440771D01*
X172227618Y-109440771D02*
X172322856Y-109488390D01*
X172322856Y-109488390D02*
X172370475Y-109536009D01*
X172370475Y-109536009D02*
X172418094Y-109631247D01*
X172418094Y-109631247D02*
X172418094Y-109869342D01*
X172418094Y-109869342D02*
X172370475Y-109964580D01*
X172370475Y-109964580D02*
X172322856Y-110012200D01*
X172322856Y-110012200D02*
X172227618Y-110059819D01*
X172227618Y-110059819D02*
X171941904Y-110059819D01*
X171941904Y-110059819D02*
X171846666Y-110012200D01*
X171846666Y-110012200D02*
X171799047Y-109964580D01*
X172799047Y-109155057D02*
X172846666Y-109107438D01*
X172846666Y-109107438D02*
X172941904Y-109059819D01*
X172941904Y-109059819D02*
X173179999Y-109059819D01*
X173179999Y-109059819D02*
X173275237Y-109107438D01*
X173275237Y-109107438D02*
X173322856Y-109155057D01*
X173322856Y-109155057D02*
X173370475Y-109250295D01*
X173370475Y-109250295D02*
X173370475Y-109345533D01*
X173370475Y-109345533D02*
X173322856Y-109488390D01*
X173322856Y-109488390D02*
X172751428Y-110059819D01*
X172751428Y-110059819D02*
X173370475Y-110059819D01*
X174560952Y-109678866D02*
X175322857Y-109678866D01*
X176560952Y-110059819D02*
X176560952Y-109059819D01*
X176560952Y-109059819D02*
X176799047Y-109059819D01*
X176799047Y-109059819D02*
X176941904Y-109107438D01*
X176941904Y-109107438D02*
X177037142Y-109202676D01*
X177037142Y-109202676D02*
X177084761Y-109297914D01*
X177084761Y-109297914D02*
X177132380Y-109488390D01*
X177132380Y-109488390D02*
X177132380Y-109631247D01*
X177132380Y-109631247D02*
X177084761Y-109821723D01*
X177084761Y-109821723D02*
X177037142Y-109916961D01*
X177037142Y-109916961D02*
X176941904Y-110012200D01*
X176941904Y-110012200D02*
X176799047Y-110059819D01*
X176799047Y-110059819D02*
X176560952Y-110059819D01*
X177941904Y-110012200D02*
X177846666Y-110059819D01*
X177846666Y-110059819D02*
X177656190Y-110059819D01*
X177656190Y-110059819D02*
X177560952Y-110012200D01*
X177560952Y-110012200D02*
X177513333Y-109916961D01*
X177513333Y-109916961D02*
X177513333Y-109536009D01*
X177513333Y-109536009D02*
X177560952Y-109440771D01*
X177560952Y-109440771D02*
X177656190Y-109393152D01*
X177656190Y-109393152D02*
X177846666Y-109393152D01*
X177846666Y-109393152D02*
X177941904Y-109440771D01*
X177941904Y-109440771D02*
X177989523Y-109536009D01*
X177989523Y-109536009D02*
X177989523Y-109631247D01*
X177989523Y-109631247D02*
X177513333Y-109726485D01*
X178322857Y-109393152D02*
X178560952Y-110059819D01*
X178560952Y-110059819D02*
X178799047Y-109393152D01*
X179941905Y-110059819D02*
X179941905Y-109059819D01*
X180513333Y-110059819D02*
X180084762Y-109488390D01*
X180513333Y-109059819D02*
X179941905Y-109631247D01*
X180941905Y-110059819D02*
X180941905Y-109393152D01*
X180941905Y-109059819D02*
X180894286Y-109107438D01*
X180894286Y-109107438D02*
X180941905Y-109155057D01*
X180941905Y-109155057D02*
X180989524Y-109107438D01*
X180989524Y-109107438D02*
X180941905Y-109059819D01*
X180941905Y-109059819D02*
X180941905Y-109155057D01*
X181275238Y-109393152D02*
X181656190Y-109393152D01*
X181418095Y-109059819D02*
X181418095Y-109916961D01*
X181418095Y-109916961D02*
X181465714Y-110012200D01*
X181465714Y-110012200D02*
X181560952Y-110059819D01*
X181560952Y-110059819D02*
X181656190Y-110059819D01*
X182656191Y-109059819D02*
X183275238Y-109059819D01*
X183275238Y-109059819D02*
X182941905Y-109440771D01*
X182941905Y-109440771D02*
X183084762Y-109440771D01*
X183084762Y-109440771D02*
X183180000Y-109488390D01*
X183180000Y-109488390D02*
X183227619Y-109536009D01*
X183227619Y-109536009D02*
X183275238Y-109631247D01*
X183275238Y-109631247D02*
X183275238Y-109869342D01*
X183275238Y-109869342D02*
X183227619Y-109964580D01*
X183227619Y-109964580D02*
X183180000Y-110012200D01*
X183180000Y-110012200D02*
X183084762Y-110059819D01*
X183084762Y-110059819D02*
X182799048Y-110059819D01*
X182799048Y-110059819D02*
X182703810Y-110012200D01*
X182703810Y-110012200D02*
X182656191Y-109964580D01*
X183894286Y-109059819D02*
X183989524Y-109059819D01*
X183989524Y-109059819D02*
X184084762Y-109107438D01*
X184084762Y-109107438D02*
X184132381Y-109155057D01*
X184132381Y-109155057D02*
X184180000Y-109250295D01*
X184180000Y-109250295D02*
X184227619Y-109440771D01*
X184227619Y-109440771D02*
X184227619Y-109678866D01*
X184227619Y-109678866D02*
X184180000Y-109869342D01*
X184180000Y-109869342D02*
X184132381Y-109964580D01*
X184132381Y-109964580D02*
X184084762Y-110012200D01*
X184084762Y-110012200D02*
X183989524Y-110059819D01*
X183989524Y-110059819D02*
X183894286Y-110059819D01*
X183894286Y-110059819D02*
X183799048Y-110012200D01*
X183799048Y-110012200D02*
X183751429Y-109964580D01*
X183751429Y-109964580D02*
X183703810Y-109869342D01*
X183703810Y-109869342D02*
X183656191Y-109678866D01*
X183656191Y-109678866D02*
X183656191Y-109440771D01*
X183656191Y-109440771D02*
X183703810Y-109250295D01*
X183703810Y-109250295D02*
X183751429Y-109155057D01*
X183751429Y-109155057D02*
X183799048Y-109107438D01*
X183799048Y-109107438D02*
X183894286Y-109059819D01*
X185418096Y-110059819D02*
X185418096Y-109059819D01*
X185418096Y-109059819D02*
X185799048Y-109059819D01*
X185799048Y-109059819D02*
X185894286Y-109107438D01*
X185894286Y-109107438D02*
X185941905Y-109155057D01*
X185941905Y-109155057D02*
X185989524Y-109250295D01*
X185989524Y-109250295D02*
X185989524Y-109393152D01*
X185989524Y-109393152D02*
X185941905Y-109488390D01*
X185941905Y-109488390D02*
X185894286Y-109536009D01*
X185894286Y-109536009D02*
X185799048Y-109583628D01*
X185799048Y-109583628D02*
X185418096Y-109583628D01*
X186418096Y-110059819D02*
X186418096Y-109393152D01*
X186418096Y-109059819D02*
X186370477Y-109107438D01*
X186370477Y-109107438D02*
X186418096Y-109155057D01*
X186418096Y-109155057D02*
X186465715Y-109107438D01*
X186465715Y-109107438D02*
X186418096Y-109059819D01*
X186418096Y-109059819D02*
X186418096Y-109155057D01*
X186894286Y-109393152D02*
X186894286Y-110059819D01*
X186894286Y-109488390D02*
X186941905Y-109440771D01*
X186941905Y-109440771D02*
X187037143Y-109393152D01*
X187037143Y-109393152D02*
X187180000Y-109393152D01*
X187180000Y-109393152D02*
X187275238Y-109440771D01*
X187275238Y-109440771D02*
X187322857Y-109536009D01*
X187322857Y-109536009D02*
X187322857Y-110059819D01*
D18*
X169625832Y-70348667D02*
X171292499Y-70348667D01*
X169292499Y-71348667D02*
X170459166Y-67848667D01*
X170459166Y-67848667D02*
X171625832Y-71348667D01*
X172792499Y-69015334D02*
X172792499Y-71348667D01*
X172792499Y-69348667D02*
X172959166Y-69182001D01*
X172959166Y-69182001D02*
X173292499Y-69015334D01*
X173292499Y-69015334D02*
X173792499Y-69015334D01*
X173792499Y-69015334D02*
X174125832Y-69182001D01*
X174125832Y-69182001D02*
X174292499Y-69515334D01*
X174292499Y-69515334D02*
X174292499Y-71348667D01*
X175459166Y-69015334D02*
X176792499Y-69015334D01*
X175959166Y-67848667D02*
X175959166Y-70848667D01*
X175959166Y-70848667D02*
X176125833Y-71182001D01*
X176125833Y-71182001D02*
X176459166Y-71348667D01*
X176459166Y-71348667D02*
X176792499Y-71348667D01*
X179292499Y-71182001D02*
X178959166Y-71348667D01*
X178959166Y-71348667D02*
X178292499Y-71348667D01*
X178292499Y-71348667D02*
X177959166Y-71182001D01*
X177959166Y-71182001D02*
X177792499Y-70848667D01*
X177792499Y-70848667D02*
X177792499Y-69515334D01*
X177792499Y-69515334D02*
X177959166Y-69182001D01*
X177959166Y-69182001D02*
X178292499Y-69015334D01*
X178292499Y-69015334D02*
X178959166Y-69015334D01*
X178959166Y-69015334D02*
X179292499Y-69182001D01*
X179292499Y-69182001D02*
X179459166Y-69515334D01*
X179459166Y-69515334D02*
X179459166Y-69848667D01*
X179459166Y-69848667D02*
X177792499Y-70182001D01*
X180959166Y-69015334D02*
X180959166Y-71348667D01*
X180959166Y-69348667D02*
X181125833Y-69182001D01*
X181125833Y-69182001D02*
X181459166Y-69015334D01*
X181459166Y-69015334D02*
X181959166Y-69015334D01*
X181959166Y-69015334D02*
X182292499Y-69182001D01*
X182292499Y-69182001D02*
X182459166Y-69515334D01*
X182459166Y-69515334D02*
X182459166Y-71348667D01*
X184125833Y-69015334D02*
X184125833Y-71348667D01*
X184125833Y-69348667D02*
X184292500Y-69182001D01*
X184292500Y-69182001D02*
X184625833Y-69015334D01*
X184625833Y-69015334D02*
X185125833Y-69015334D01*
X185125833Y-69015334D02*
X185459166Y-69182001D01*
X185459166Y-69182001D02*
X185625833Y-69515334D01*
X185625833Y-69515334D02*
X185625833Y-71348667D01*
X188792500Y-71348667D02*
X188792500Y-69515334D01*
X188792500Y-69515334D02*
X188625833Y-69182001D01*
X188625833Y-69182001D02*
X188292500Y-69015334D01*
X188292500Y-69015334D02*
X187625833Y-69015334D01*
X187625833Y-69015334D02*
X187292500Y-69182001D01*
X188792500Y-71182001D02*
X188459167Y-71348667D01*
X188459167Y-71348667D02*
X187625833Y-71348667D01*
X187625833Y-71348667D02*
X187292500Y-71182001D01*
X187292500Y-71182001D02*
X187125833Y-70848667D01*
X187125833Y-70848667D02*
X187125833Y-70515334D01*
X187125833Y-70515334D02*
X187292500Y-70182001D01*
X187292500Y-70182001D02*
X187625833Y-70015334D01*
X187625833Y-70015334D02*
X188459167Y-70015334D01*
X188459167Y-70015334D02*
X188792500Y-69848667D01*
D15*
X106817080Y-59119999D02*
X106864700Y-59072380D01*
X106864700Y-59072380D02*
X106912319Y-59119999D01*
X106912319Y-59119999D02*
X106864700Y-59167618D01*
X106864700Y-59167618D02*
X106817080Y-59119999D01*
X106817080Y-59119999D02*
X106912319Y-59119999D01*
X161776666Y-107299819D02*
X161776666Y-108014104D01*
X161776666Y-108014104D02*
X161729047Y-108156961D01*
X161729047Y-108156961D02*
X161633809Y-108252200D01*
X161633809Y-108252200D02*
X161490952Y-108299819D01*
X161490952Y-108299819D02*
X161395714Y-108299819D01*
X162157619Y-107299819D02*
X162776666Y-107299819D01*
X162776666Y-107299819D02*
X162443333Y-107680771D01*
X162443333Y-107680771D02*
X162586190Y-107680771D01*
X162586190Y-107680771D02*
X162681428Y-107728390D01*
X162681428Y-107728390D02*
X162729047Y-107776009D01*
X162729047Y-107776009D02*
X162776666Y-107871247D01*
X162776666Y-107871247D02*
X162776666Y-108109342D01*
X162776666Y-108109342D02*
X162729047Y-108204580D01*
X162729047Y-108204580D02*
X162681428Y-108252200D01*
X162681428Y-108252200D02*
X162586190Y-108299819D01*
X162586190Y-108299819D02*
X162300476Y-108299819D01*
X162300476Y-108299819D02*
X162205238Y-108252200D01*
X162205238Y-108252200D02*
X162157619Y-108204580D01*
X166214166Y-54189819D02*
X166214166Y-54904104D01*
X166214166Y-54904104D02*
X166166547Y-55046961D01*
X166166547Y-55046961D02*
X166071309Y-55142200D01*
X166071309Y-55142200D02*
X165928452Y-55189819D01*
X165928452Y-55189819D02*
X165833214Y-55189819D01*
X166642738Y-54285057D02*
X166690357Y-54237438D01*
X166690357Y-54237438D02*
X166785595Y-54189819D01*
X166785595Y-54189819D02*
X167023690Y-54189819D01*
X167023690Y-54189819D02*
X167118928Y-54237438D01*
X167118928Y-54237438D02*
X167166547Y-54285057D01*
X167166547Y-54285057D02*
X167214166Y-54380295D01*
X167214166Y-54380295D02*
X167214166Y-54475533D01*
X167214166Y-54475533D02*
X167166547Y-54618390D01*
X167166547Y-54618390D02*
X166595119Y-55189819D01*
X166595119Y-55189819D02*
X167214166Y-55189819D01*
D20*
%TO.C,J3*%
X143007500Y-62000000D02*
X150547500Y-62000000D01*
X143007500Y-69750000D02*
X143007500Y-62000000D01*
X143227500Y-62970000D02*
X143727500Y-62970000D01*
X143227500Y-64970000D02*
X143227500Y-62970000D01*
X143227500Y-66780000D02*
X143727500Y-66780000D01*
X143227500Y-68780000D02*
X143227500Y-66780000D01*
X143727500Y-62970000D02*
X143727500Y-64970000D01*
X143727500Y-64970000D02*
X143227500Y-64970000D01*
X143727500Y-66780000D02*
X143727500Y-68780000D01*
X143727500Y-68780000D02*
X143227500Y-68780000D01*
X145127500Y-69750000D02*
X145127500Y-62000000D01*
X148527500Y-69750000D02*
X148527500Y-62000000D01*
X149827500Y-69750000D02*
X149827500Y-62000000D01*
X150547500Y-62000000D02*
X150547500Y-67480000D01*
X150547500Y-68080000D02*
X150547500Y-69750000D01*
X150547500Y-69750000D02*
X143007500Y-69750000D01*
X151157500Y-68220000D02*
X150547500Y-67780000D01*
X151157500Y-67340000D01*
X151157500Y-68220000D01*
G36*
X151157500Y-68220000D02*
G01*
X150547500Y-67780000D01*
X151157500Y-67340000D01*
X151157500Y-68220000D01*
G37*
%TO.C,J1*%
X153882500Y-95325000D02*
X161422500Y-95325000D01*
X153882500Y-96995000D02*
X153882500Y-95325000D01*
X153882500Y-106885000D02*
X153882500Y-97595000D01*
X154602500Y-95325000D02*
X154602500Y-106885000D01*
X155902500Y-95325000D02*
X155902500Y-106885000D01*
X159302500Y-95325000D02*
X159302500Y-106885000D01*
X160702500Y-96295000D02*
X161202500Y-96295000D01*
X160702500Y-98295000D02*
X160702500Y-96295000D01*
X160702500Y-100105000D02*
X161202500Y-100105000D01*
X160702500Y-102105000D02*
X160702500Y-100105000D01*
X160702500Y-103915000D02*
X161202500Y-103915000D01*
X160702500Y-105915000D02*
X160702500Y-103915000D01*
X161202500Y-96295000D02*
X161202500Y-98295000D01*
X161202500Y-98295000D02*
X160702500Y-98295000D01*
X161202500Y-100105000D02*
X161202500Y-102105000D01*
X161202500Y-102105000D02*
X160702500Y-102105000D01*
X161202500Y-103915000D02*
X161202500Y-105915000D01*
X161202500Y-105915000D02*
X160702500Y-105915000D01*
X161422500Y-95325000D02*
X161422500Y-106885000D01*
X161422500Y-106885000D02*
X153882500Y-106885000D01*
X153882500Y-97295000D02*
X153272500Y-97735000D01*
X153272500Y-96855000D01*
X153882500Y-97295000D01*
G36*
X153882500Y-97295000D02*
G01*
X153272500Y-97735000D01*
X153272500Y-96855000D01*
X153882500Y-97295000D01*
G37*
X143017500Y-70640000D02*
X150557500Y-70640000D01*
X143017500Y-82200000D02*
X143017500Y-70640000D01*
X143237500Y-71610000D02*
X143737500Y-71610000D01*
X143237500Y-73610000D02*
X143237500Y-71610000D01*
X143237500Y-75420000D02*
X143737500Y-75420000D01*
X143237500Y-77420000D02*
X143237500Y-75420000D01*
X143237500Y-79230000D02*
X143737500Y-79230000D01*
X143237500Y-81230000D02*
X143237500Y-79230000D01*
X143737500Y-71610000D02*
X143737500Y-73610000D01*
X143737500Y-73610000D02*
X143237500Y-73610000D01*
X143737500Y-75420000D02*
X143737500Y-77420000D01*
X143737500Y-77420000D02*
X143237500Y-77420000D01*
X143737500Y-79230000D02*
X143737500Y-81230000D01*
X143737500Y-81230000D02*
X143237500Y-81230000D01*
X145137500Y-82200000D02*
X145137500Y-70640000D01*
X148537500Y-82200000D02*
X148537500Y-70640000D01*
X149837500Y-82200000D02*
X149837500Y-70640000D01*
X150557500Y-70640000D02*
X150557500Y-79930000D01*
X150557500Y-80530000D02*
X150557500Y-82200000D01*
X150557500Y-82200000D02*
X143017500Y-82200000D01*
X151167500Y-80670000D02*
X150557500Y-80230000D01*
X151167500Y-79790000D01*
X151167500Y-80670000D01*
G36*
X151167500Y-80670000D02*
G01*
X150557500Y-80230000D01*
X151167500Y-79790000D01*
X151167500Y-80670000D01*
G37*
%TO.C,J4*%
X143177500Y-83410000D02*
X150717500Y-83410000D01*
X143177500Y-91160000D02*
X143177500Y-83410000D01*
X143397500Y-84380000D02*
X143897500Y-84380000D01*
X143397500Y-86380000D02*
X143397500Y-84380000D01*
X143397500Y-88190000D02*
X143897500Y-88190000D01*
X143397500Y-90190000D02*
X143397500Y-88190000D01*
X143897500Y-84380000D02*
X143897500Y-86380000D01*
X143897500Y-86380000D02*
X143397500Y-86380000D01*
X143897500Y-88190000D02*
X143897500Y-90190000D01*
X143897500Y-90190000D02*
X143397500Y-90190000D01*
X145297500Y-91160000D02*
X145297500Y-83410000D01*
X148697500Y-91160000D02*
X148697500Y-83410000D01*
X149997500Y-91160000D02*
X149997500Y-83410000D01*
X150717500Y-83410000D02*
X150717500Y-88890000D01*
X150717500Y-89490000D02*
X150717500Y-91160000D01*
X150717500Y-91160000D02*
X143177500Y-91160000D01*
X151327500Y-89630000D02*
X150717500Y-89190000D01*
X151327500Y-88750000D01*
X151327500Y-89630000D01*
G36*
X151327500Y-89630000D02*
G01*
X150717500Y-89190000D01*
X151327500Y-88750000D01*
X151327500Y-89630000D01*
G37*
%TO.C,K1*%
X140557500Y-92970294D02*
X140557500Y-113490294D01*
X140557500Y-113490294D02*
X145259500Y-113490294D01*
X141957500Y-109580294D02*
X141957500Y-110850294D01*
X143227500Y-94340294D02*
X143862500Y-94340294D01*
X143227500Y-99420294D02*
X143862500Y-99420294D01*
X143227500Y-104500294D02*
X145132500Y-104500294D01*
X143862500Y-95356294D02*
X143481500Y-94975294D01*
X143862500Y-95356294D02*
X143862500Y-94340294D01*
X143862500Y-95356294D02*
X144243500Y-94975294D01*
X143862500Y-98404294D02*
X143481500Y-98785294D01*
X143862500Y-98404294D02*
X144243500Y-98785294D01*
X143862500Y-99420294D02*
X143862500Y-98404294D01*
X144497500Y-109070294D02*
X147037500Y-109070294D01*
X144497500Y-109580294D02*
X141957500Y-109580294D01*
X144497500Y-109580294D02*
X144497500Y-109070294D01*
X144497500Y-110090294D02*
X144497500Y-109580294D01*
X145132500Y-96880294D02*
X143862500Y-98150294D01*
X145132500Y-104500294D02*
X145132500Y-96880294D01*
X146275500Y-110090294D02*
X145259500Y-109070294D01*
X146275500Y-113490294D02*
X150977500Y-113490294D01*
X146402500Y-96880294D02*
X147672500Y-98150294D01*
X146402500Y-104500294D02*
X146402500Y-96880294D01*
X147037500Y-109070294D02*
X147037500Y-109580294D01*
X147037500Y-109580294D02*
X147037500Y-110090294D01*
X147037500Y-110090294D02*
X144497500Y-110090294D01*
X147672500Y-95356294D02*
X147291500Y-94975294D01*
X147672500Y-95356294D02*
X147672500Y-94340294D01*
X147672500Y-95356294D02*
X148053500Y-94975294D01*
X147672500Y-98404294D02*
X147291500Y-98785294D01*
X147672500Y-98404294D02*
X148053500Y-98785294D01*
X147672500Y-99420294D02*
X147672500Y-98404294D01*
X148307500Y-94340294D02*
X147672500Y-94340294D01*
X148307500Y-99420294D02*
X147672500Y-99420294D01*
X148307500Y-104500294D02*
X146402500Y-104500294D01*
X149577500Y-109580294D02*
X147037500Y-109580294D01*
X149577500Y-110850294D02*
X149577500Y-109580294D01*
X150977500Y-92970294D02*
X140557500Y-92970294D01*
X150977500Y-113490294D02*
X150977500Y-92970294D01*
D15*
X145262500Y-96880294D02*
G75*
G02*
X145002500Y-96880294I-130000J0D01*
G01*
X145002500Y-96880294D02*
G75*
G02*
X145262500Y-96880294I130000J0D01*
G01*
X146532500Y-96880294D02*
G75*
G02*
X146272500Y-96880294I-130000J0D01*
G01*
X146272500Y-96880294D02*
G75*
G02*
X146532500Y-96880294I130000J0D01*
G01*
D20*
X145967500Y-113829705D02*
X145567500Y-113829705D01*
X145767500Y-113490294D01*
X145967500Y-113829705D01*
G36*
X145967500Y-113829705D02*
G01*
X145567500Y-113829705D01*
X145767500Y-113490294D01*
X145967500Y-113829705D01*
G37*
%TO.C,U5*%
D17*
X131960000Y-61995000D02*
X118260000Y-61995000D01*
X118260000Y-55595000D01*
X131960000Y-55595000D01*
X131960000Y-61995000D01*
X139310000Y-65349000D02*
X111635000Y-65349000D01*
X111635000Y-55595000D01*
X139310000Y-55595000D01*
X139310000Y-65349000D01*
D21*
X139310000Y-104795000D02*
X111585000Y-104795000D01*
X111585000Y-65349000D01*
X139310000Y-65349000D01*
X139310000Y-104795000D01*
D17*
X139310000Y-110395000D02*
X111585000Y-110395000D01*
X111585000Y-104795000D01*
X139310000Y-104795000D01*
X139310000Y-110395000D01*
D20*
%TO.C,K1*%
X153462500Y-64034706D02*
X153462500Y-84554706D01*
X153462500Y-84554706D02*
X163882500Y-84554706D01*
X154862500Y-66674706D02*
X154862500Y-67944706D01*
X154862500Y-67944706D02*
X157402500Y-67944706D01*
X156132500Y-73024706D02*
X158037500Y-73024706D01*
X156132500Y-78104706D02*
X156767500Y-78104706D01*
X156132500Y-83184706D02*
X156767500Y-83184706D01*
X156767500Y-78104706D02*
X156767500Y-79120706D01*
X156767500Y-79120706D02*
X156386500Y-78739706D01*
X156767500Y-79120706D02*
X157148500Y-78739706D01*
X156767500Y-82168706D02*
X156386500Y-82549706D01*
X156767500Y-82168706D02*
X156767500Y-83184706D01*
X156767500Y-82168706D02*
X157148500Y-82549706D01*
X157402500Y-67434706D02*
X159942500Y-67434706D01*
X157402500Y-67944706D02*
X157402500Y-67434706D01*
X157402500Y-68454706D02*
X157402500Y-67944706D01*
X158037500Y-73024706D02*
X158037500Y-80644706D01*
X158037500Y-80644706D02*
X156767500Y-79374706D01*
X158164500Y-64034706D02*
X153462500Y-64034706D01*
X158164500Y-67434706D02*
X159180500Y-68454706D01*
X159307500Y-73024706D02*
X159307500Y-80644706D01*
X159307500Y-80644706D02*
X160577500Y-79374706D01*
X159942500Y-67434706D02*
X159942500Y-67944706D01*
X159942500Y-67944706D02*
X159942500Y-68454706D01*
X159942500Y-67944706D02*
X162482500Y-67944706D01*
X159942500Y-68454706D02*
X157402500Y-68454706D01*
X160577500Y-78104706D02*
X160577500Y-79120706D01*
X160577500Y-79120706D02*
X160196500Y-78739706D01*
X160577500Y-79120706D02*
X160958500Y-78739706D01*
X160577500Y-82168706D02*
X160196500Y-82549706D01*
X160577500Y-82168706D02*
X160577500Y-83184706D01*
X160577500Y-82168706D02*
X160958500Y-82549706D01*
X161212500Y-73024706D02*
X159307500Y-73024706D01*
X161212500Y-78104706D02*
X160577500Y-78104706D01*
X161212500Y-83184706D02*
X160577500Y-83184706D01*
X162482500Y-67944706D02*
X162482500Y-66674706D01*
X163882500Y-64034706D02*
X159180500Y-64034706D01*
X163882500Y-84554706D02*
X163882500Y-64034706D01*
D15*
X158167500Y-80644706D02*
G75*
G02*
X157907500Y-80644706I-130000J0D01*
G01*
X157907500Y-80644706D02*
G75*
G02*
X158167500Y-80644706I130000J0D01*
G01*
X159437500Y-80644706D02*
G75*
G02*
X159177500Y-80644706I-130000J0D01*
G01*
X159177500Y-80644706D02*
G75*
G02*
X159437500Y-80644706I130000J0D01*
G01*
D20*
X158672500Y-64034706D02*
X158472500Y-63695295D01*
X158872500Y-63695295D01*
X158672500Y-64034706D01*
G36*
X158672500Y-64034706D02*
G01*
X158472500Y-63695295D01*
X158872500Y-63695295D01*
X158672500Y-64034706D01*
G37*
%TO.C,J4*%
X153722500Y-86365000D02*
X161262500Y-86365000D01*
X153722500Y-88035000D02*
X153722500Y-86365000D01*
X153722500Y-94115000D02*
X153722500Y-88635000D01*
X154442500Y-86365000D02*
X154442500Y-94115000D01*
X155742500Y-86365000D02*
X155742500Y-94115000D01*
X159142500Y-86365000D02*
X159142500Y-94115000D01*
X160542500Y-87335000D02*
X161042500Y-87335000D01*
X160542500Y-89335000D02*
X160542500Y-87335000D01*
X160542500Y-91145000D02*
X161042500Y-91145000D01*
X160542500Y-93145000D02*
X160542500Y-91145000D01*
X161042500Y-87335000D02*
X161042500Y-89335000D01*
X161042500Y-89335000D02*
X160542500Y-89335000D01*
X161042500Y-91145000D02*
X161042500Y-93145000D01*
X161042500Y-93145000D02*
X160542500Y-93145000D01*
X161262500Y-86365000D02*
X161262500Y-94115000D01*
X161262500Y-94115000D02*
X153722500Y-94115000D01*
X153722500Y-88335000D02*
X153112500Y-88775000D01*
X153112500Y-87895000D01*
X153722500Y-88335000D01*
G36*
X153722500Y-88335000D02*
G01*
X153112500Y-88775000D01*
X153112500Y-87895000D01*
X153722500Y-88335000D01*
G37*
%TO.C,U5*%
D17*
X165130000Y-67130000D02*
X192855000Y-67130000D01*
X192855000Y-72730000D01*
X165130000Y-72730000D01*
X165130000Y-67130000D01*
D21*
X165130000Y-72730000D02*
X192855000Y-72730000D01*
X192855000Y-112176000D01*
X165130000Y-112176000D01*
X165130000Y-72730000D01*
D17*
X165130000Y-112176000D02*
X192805000Y-112176000D01*
X192805000Y-121930000D01*
X165130000Y-121930000D01*
X165130000Y-112176000D01*
X172480000Y-115530000D02*
X186180000Y-115530000D01*
X186180000Y-121930000D01*
X172480000Y-121930000D01*
X172480000Y-115530000D01*
D20*
%TO.C,J3*%
X153892500Y-107775000D02*
X161432500Y-107775000D01*
X153892500Y-109445000D02*
X153892500Y-107775000D01*
X153892500Y-115525000D02*
X153892500Y-110045000D01*
X154612500Y-107775000D02*
X154612500Y-115525000D01*
X155912500Y-107775000D02*
X155912500Y-115525000D01*
X159312500Y-107775000D02*
X159312500Y-115525000D01*
X160712500Y-108745000D02*
X161212500Y-108745000D01*
X160712500Y-110745000D02*
X160712500Y-108745000D01*
X160712500Y-112555000D02*
X161212500Y-112555000D01*
X160712500Y-114555000D02*
X160712500Y-112555000D01*
X161212500Y-108745000D02*
X161212500Y-110745000D01*
X161212500Y-110745000D02*
X160712500Y-110745000D01*
X161212500Y-112555000D02*
X161212500Y-114555000D01*
X161212500Y-114555000D02*
X160712500Y-114555000D01*
X161432500Y-107775000D02*
X161432500Y-115525000D01*
X161432500Y-115525000D02*
X153892500Y-115525000D01*
X153892500Y-109745000D02*
X153282500Y-110185000D01*
X153282500Y-109305000D01*
X153892500Y-109745000D01*
G36*
X153892500Y-109745000D02*
G01*
X153282500Y-110185000D01*
X153282500Y-109305000D01*
X153892500Y-109745000D01*
G37*
%TD*%
M02*
