%TF.GenerationSoftware,KiCad,Pcbnew,9.0.7*%
%TF.CreationDate,2026-09-15T20:24:58+05:30*%
%TF.ProjectId,PumpNodeNew,50756d70-4e6f-4646-954e-65772e6b6963,rev?*%
%TF.SameCoordinates,Original*%
%TF.FileFunction,Copper,L1,Top*%
%TF.FilePolarity,Positive*%
%FSLAX46Y46*%
G04 Gerber Fmt 4.6, Leading zero omitted, Abs format (unit mm)*
G04 Created by KiCad (PCBNEW 9.0.7) date 2026-09-15 20:24:58*
%MOMM*%
%LPD*%
G01*
G04 APERTURE LIST*
G04 Aperture macros list*
%AMRoundRect*
0 Rectangle with rounded corners*
0 $1 Rounding radius*
0 $2 $3 $4 $5 $6 $7 $8 $9 X,Y pos of 4 corners*
0 Add a 4 corners polygon primitive as box body*
4,1,4,$2,$3,$4,$5,$6,$7,$8,$9,$2,$3,0*
0 Add four circle primitives for the rounded corners*
1,1,$1+$1,$2,$3*
1,1,$1+$1,$4,$5*
1,1,$1+$1,$6,$7*
1,1,$1+$1,$8,$9*
0 Add four rect primitives between the rounded corners*
20,1,$1+$1,$2,$3,$4,$5,0*
20,1,$1+$1,$4,$5,$6,$7,0*
20,1,$1+$1,$6,$7,$8,$9,0*
20,1,$1+$1,$8,$9,$2,$3,0*%
G04 Aperture macros list end*
%TA.AperFunction,ComponentPad*%
%ADD10R,1.800000X1.800000*%
%TD*%
%TA.AperFunction,ComponentPad*%
%ADD11C,1.800000*%
%TD*%
%TA.AperFunction,ComponentPad*%
%ADD12RoundRect,0.250000X0.625000X-0.625000X0.625000X0.625000X-0.625000X0.625000X-0.625000X-0.625000X0*%
%TD*%
%TA.AperFunction,ComponentPad*%
%ADD13C,1.750000*%
%TD*%
%TA.AperFunction,ComponentPad*%
%ADD14RoundRect,0.250000X-0.625000X0.625000X-0.625000X-0.625000X0.625000X-0.625000X0.625000X0.625000X0*%
%TD*%
%TA.AperFunction,WasherPad*%
%ADD15C,5.000000*%
%TD*%
%TA.AperFunction,ComponentPad*%
%ADD16C,2.000000*%
%TD*%
%TA.AperFunction,ComponentPad*%
%ADD17RoundRect,0.250000X0.750000X0.750000X-0.750000X0.750000X-0.750000X-0.750000X0.750000X-0.750000X0*%
%TD*%
%TA.AperFunction,ComponentPad*%
%ADD18O,2.200000X1.500000*%
%TD*%
%TA.AperFunction,ComponentPad*%
%ADD19RoundRect,0.250000X-0.750000X-0.750000X0.750000X-0.750000X0.750000X0.750000X-0.750000X0.750000X0*%
%TD*%
%TA.AperFunction,SMDPad,CuDef*%
%ADD20RoundRect,0.250000X-0.425000X-1.600000X0.425000X-1.600000X0.425000X1.600000X-0.425000X1.600000X0*%
%TD*%
%TA.AperFunction,ComponentPad*%
%ADD21R,1.500000X2.000000*%
%TD*%
%TA.AperFunction,SMDPad,CuDef*%
%ADD22RoundRect,0.250000X0.425000X1.600000X-0.425000X1.600000X-0.425000X-1.600000X0.425000X-1.600000X0*%
%TD*%
%TA.AperFunction,ViaPad*%
%ADD23C,0.600000*%
%TD*%
%TA.AperFunction,Conductor*%
%ADD24C,0.500000*%
%TD*%
%TA.AperFunction,Conductor*%
%ADD25C,1.000000*%
%TD*%
G04 APERTURE END LIST*
D10*
%TO.P,D3,1,K*%
%TO.N,GND*%
X198022500Y-99595000D03*
D11*
%TO.P,D3,2,A*%
%TO.N,Net-(D3-A)*%
X195482500Y-99595000D03*
%TD*%
D10*
%TO.P,D1,1,K*%
%TO.N,GND*%
X198032500Y-111615000D03*
D11*
%TO.P,D1,2,A*%
%TO.N,Net-(D1-A)*%
X195492500Y-111615000D03*
%TD*%
D12*
%TO.P,J3,1,Pin_1*%
%TO.N,GND*%
X146827500Y-67780000D03*
D13*
%TO.P,J3,2,Pin_2*%
%TO.N,+8V*%
X146827500Y-63970000D03*
%TD*%
D10*
%TO.P,D1,1,K*%
%TO.N,GND*%
X106407500Y-65910000D03*
D11*
%TO.P,D1,2,A*%
%TO.N,Net-(D1-A)*%
X108947500Y-65910000D03*
%TD*%
D14*
%TO.P,J1,1,Pin_1*%
%TO.N,GND*%
X157602500Y-97295000D03*
D13*
%TO.P,J1,2,Pin_2*%
%TO.N,/IN1_CON*%
X157602500Y-101105000D03*
%TO.P,J1,3,Pin_3*%
%TO.N,/IN4_CON*%
X157602500Y-104915000D03*
%TD*%
D12*
%TO.P,J1,1,Pin_1*%
%TO.N,GND*%
X146837500Y-80230000D03*
D13*
%TO.P,J1,2,Pin_2*%
%TO.N,/IN1_CON*%
X146837500Y-76420000D03*
%TO.P,J1,3,Pin_3*%
%TO.N,/IN4_CON*%
X146837500Y-72610000D03*
%TD*%
D12*
%TO.P,J4,1,Pin_1*%
%TO.N,/RLY_COMM*%
X146997500Y-89190000D03*
D13*
%TO.P,J4,2,Pin_2*%
%TO.N,/RL1_CON_1*%
X146997500Y-85380000D03*
%TD*%
D10*
%TO.P,D2,1,K*%
%TO.N,GND*%
X106427500Y-71910000D03*
D11*
%TO.P,D2,2,A*%
%TO.N,Net-(D2-A)*%
X108967500Y-71910000D03*
%TD*%
D15*
%TO.P,,*%
%TO.N,*%
X196092500Y-61295000D03*
%TD*%
D16*
%TO.P,K1,11*%
%TO.N,/RLY_COMM*%
X149577500Y-104500294D03*
%TO.P,K1,12*%
%TO.N,unconnected-(K1-Pad12)*%
X149577500Y-99420294D03*
%TO.P,K1,14*%
%TO.N,/RL1_CON_1*%
X149577500Y-94340294D03*
%TO.P,K1,21*%
%TO.N,unconnected-(K1-Pad21)*%
X141957500Y-104500294D03*
%TO.P,K1,22*%
%TO.N,unconnected-(K1-Pad22)*%
X141957500Y-99420294D03*
%TO.P,K1,24*%
%TO.N,unconnected-(K1-Pad24)*%
X141957500Y-94340294D03*
D17*
%TO.P,K1,A1*%
%TO.N,+5V*%
X149577500Y-112120294D03*
D16*
%TO.P,K1,A2*%
%TO.N,/RELAY1_COIL*%
X141957500Y-112120294D03*
%TD*%
D18*
%TO.P,U5,1,3V3_Out*%
%TO.N,+3.3V*%
X112960000Y-67635000D03*
%TO.P,U5,2,GND*%
%TO.N,GND*%
X112960000Y-70195000D03*
%TO.P,U5,5,D4*%
%TO.N,/LoRa_LED*%
X113010000Y-77845000D03*
%TO.P,U5,6,Rx2/D16*%
%TO.N,/Pump_ON_Yellow_LED*%
X112985000Y-80360000D03*
%TO.P,U5,8,D5/BootSensitive*%
%TO.N,/NSS*%
X112960000Y-85420000D03*
%TO.P,U5,9,D18*%
%TO.N,/SCK*%
X113010000Y-87960000D03*
%TO.P,U5,10,D19*%
%TO.N,/MISO*%
X112985000Y-90470000D03*
%TO.P,U5,15,D23*%
%TO.N,/MOSI*%
X113010000Y-103205000D03*
%TO.P,U5,17,VP(36)/Input_only*%
%TO.N,/IN1_MCU*%
X138010000Y-100645000D03*
%TO.P,U5,20,D35/Input_only*%
%TO.N,/IN4_MCU*%
X137985000Y-93030000D03*
%TO.P,U5,21,D32*%
%TO.N,/RELAY1_MCU*%
X137985000Y-90470000D03*
%TO.P,U5,22,D33*%
%TO.N,unconnected-(U5-D33-Pad22)*%
X137985000Y-87835000D03*
%TO.P,U5,23,D25*%
%TO.N,/RESET*%
X137935000Y-85295000D03*
%TO.P,U5,24,D26*%
%TO.N,/DIO1*%
X137935000Y-82735000D03*
%TO.P,U5,25,D27*%
%TO.N,/BUSY*%
X137960000Y-80235000D03*
%TO.P,U5,28,D13*%
%TO.N,unconnected-(U5-D13-Pad28)*%
X137935000Y-72620000D03*
%TO.P,U5,29,GND*%
%TO.N,GND*%
X137960000Y-70195000D03*
%TO.P,U5,30,VIN/5V_Power_IN*%
%TO.N,+5V*%
X137960000Y-67635000D03*
%TD*%
D10*
%TO.P,D3,1,K*%
%TO.N,GND*%
X106417500Y-77930000D03*
D11*
%TO.P,D3,2,A*%
%TO.N,Net-(D3-A)*%
X108957500Y-77930000D03*
%TD*%
D15*
%TO.P,,*%
%TO.N,*%
X-36100000Y-58145000D03*
%TD*%
D16*
%TO.P,K1,11*%
%TO.N,/RLY_COMM*%
X154862500Y-73024706D03*
%TO.P,K1,12*%
%TO.N,unconnected-(K1-Pad12)*%
X154862500Y-78104706D03*
%TO.P,K1,14*%
%TO.N,/RL1_CON_1*%
X154862500Y-83184706D03*
%TO.P,K1,21*%
%TO.N,unconnected-(K1-Pad21)*%
X162482500Y-73024706D03*
%TO.P,K1,22*%
%TO.N,unconnected-(K1-Pad22)*%
X162482500Y-78104706D03*
%TO.P,K1,24*%
%TO.N,unconnected-(K1-Pad24)*%
X162482500Y-83184706D03*
D19*
%TO.P,K1,A1*%
%TO.N,+5V*%
X154862500Y-65404706D03*
D16*
%TO.P,K1,A2*%
%TO.N,/RELAY1_COIL*%
X162482500Y-65404706D03*
%TD*%
D15*
%TO.P,,*%
%TO.N,*%
X-113100000Y-58145000D03*
%TD*%
%TO.P,.,*%
%TO.N,*%
X196092500Y-116295000D03*
%TD*%
D10*
%TO.P,D2,1,K*%
%TO.N,GND*%
X198012500Y-105615000D03*
D11*
%TO.P,D2,2,A*%
%TO.N,Net-(D2-A)*%
X195472500Y-105615000D03*
%TD*%
D15*
%TO.P,,*%
%TO.N,*%
X108347500Y-116230000D03*
%TD*%
%TO.P,.,*%
%TO.N,*%
X-36100000Y-113145000D03*
%TD*%
D14*
%TO.P,J4,1,Pin_1*%
%TO.N,/RLY_COMM*%
X157442500Y-88335000D03*
D13*
%TO.P,J4,2,Pin_2*%
%TO.N,/RL1_CON_1*%
X157442500Y-92145000D03*
%TD*%
D18*
%TO.P,U5,1,3V3_Out*%
%TO.N,+3.3V*%
X191480000Y-109890000D03*
%TO.P,U5,2,GND*%
%TO.N,GND*%
X191480000Y-107330000D03*
%TO.P,U5,5,D4*%
%TO.N,/LoRa_LED*%
X191430000Y-99680000D03*
%TO.P,U5,6,Rx2/D16*%
%TO.N,/Pump_ON_Yellow_LED*%
X191455000Y-97165000D03*
%TO.P,U5,8,D5/BootSensitive*%
%TO.N,/NSS*%
X191480000Y-92105000D03*
%TO.P,U5,9,D18*%
%TO.N,/SCK*%
X191430000Y-89565000D03*
%TO.P,U5,10,D19*%
%TO.N,/MISO*%
X191455000Y-87055000D03*
%TO.P,U5,15,D23*%
%TO.N,/MOSI*%
X191430000Y-74320000D03*
%TO.P,U5,17,VP(36)/Input_only*%
%TO.N,/IN1_MCU*%
X166430000Y-76880000D03*
%TO.P,U5,20,D35/Input_only*%
%TO.N,/IN4_MCU*%
X166455000Y-84495000D03*
%TO.P,U5,21,D32*%
%TO.N,/RELAY1_MCU*%
X166455000Y-87055000D03*
%TO.P,U5,22,D33*%
%TO.N,unconnected-(U5-D33-Pad22)*%
X166455000Y-89690000D03*
%TO.P,U5,23,D25*%
%TO.N,/RESET*%
X166505000Y-92230000D03*
%TO.P,U5,24,D26*%
%TO.N,/DIO1*%
X166505000Y-94790000D03*
%TO.P,U5,25,D27*%
%TO.N,/BUSY*%
X166480000Y-97290000D03*
%TO.P,U5,28,D13*%
%TO.N,unconnected-(U5-D13-Pad28)*%
X166505000Y-104905000D03*
%TO.P,U5,29,GND*%
%TO.N,GND*%
X166480000Y-107330000D03*
%TO.P,U5,30,VIN/5V_Power_IN*%
%TO.N,+5V*%
X166480000Y-109890000D03*
%TD*%
D15*
%TO.P,,*%
%TO.N,*%
X-113100000Y-113145000D03*
%TD*%
%TO.P,.,*%
%TO.N,*%
X108347500Y-61230000D03*
%TD*%
D14*
%TO.P,J3,1,Pin_1*%
%TO.N,GND*%
X157612500Y-109745000D03*
D13*
%TO.P,J3,2,Pin_2*%
%TO.N,+8V*%
X157612500Y-113555000D03*
%TD*%
D20*
%TO.P,J2,2,Ext*%
%TO.N,GND*%
X159182500Y-55175000D03*
X164832500Y-55175000D03*
%TD*%
D21*
%TO.P,U7,1,ANT*%
%TO.N,Net-(J2-In)*%
X170832500Y-55575000D03*
%TD*%
D22*
%TO.P,J2,2,Ext*%
%TO.N,N/C*%
X145352500Y-122330000D03*
X139702500Y-122330000D03*
%TD*%
D21*
%TO.P,U7,1,ANT*%
%TO.N,Net-(J2-In)*%
X133607500Y-121950000D03*
%TD*%
D23*
%TO.N,GND*%
X137047500Y-57550000D03*
X165972500Y-122345000D03*
X132817500Y-113650000D03*
X171362500Y-68945000D03*
X149367500Y-120620000D03*
X106657500Y-110630000D03*
X194202500Y-65475000D03*
X137047500Y-56390000D03*
X131397500Y-116020000D03*
X165972500Y-119975000D03*
X108817500Y-96830000D03*
X190132500Y-54305000D03*
X165972500Y-118745000D03*
X186642500Y-74735000D03*
X147947500Y-117020000D03*
X172322500Y-76595000D03*
X135837500Y-121200000D03*
X191552500Y-55535000D03*
X184862500Y-62405000D03*
X107397500Y-96810000D03*
X183442500Y-62405000D03*
X107397500Y-94440000D03*
X117767500Y-106290000D03*
X194182500Y-66895000D03*
X134097500Y-109810000D03*
X186662500Y-73715000D03*
X155072500Y-60505000D03*
X197042500Y-84295000D03*
X195622500Y-81925000D03*
X133077500Y-110950000D03*
X173042500Y-61505000D03*
X171362500Y-67715000D03*
X112887500Y-121990000D03*
X117777500Y-103810000D03*
X107397500Y-93230000D03*
X156492500Y-56925000D03*
X110257500Y-110630000D03*
X118937500Y-103810000D03*
X190132500Y-56675000D03*
X120167500Y-102790000D03*
X107397500Y-95600000D03*
X139987500Y-117450000D03*
X178882500Y-104965000D03*
X156492500Y-58135000D03*
X119577500Y-115120000D03*
X171622500Y-63875000D03*
X168602500Y-55115000D03*
X106657500Y-112050000D03*
X119577500Y-112750000D03*
X167392500Y-122345000D03*
X164452500Y-60075000D03*
X137257500Y-121200000D03*
X190232500Y-120205000D03*
X186672500Y-71235000D03*
X184862500Y-64775000D03*
X114307500Y-121990000D03*
X184862500Y-61195000D03*
X125417500Y-103500000D03*
X138467500Y-56410000D03*
X110237500Y-112050000D03*
X188812500Y-120205000D03*
X155072500Y-58135000D03*
X141217500Y-117450000D03*
X163222500Y-60075000D03*
X149367500Y-119390000D03*
X195622500Y-84295000D03*
X147947500Y-120600000D03*
X132817500Y-116020000D03*
X183442500Y-63545000D03*
X132817500Y-117250000D03*
X115627500Y-58550000D03*
X126977500Y-74950000D03*
X149367500Y-118250000D03*
X188812500Y-117835000D03*
X138847500Y-117450000D03*
X177462500Y-102575000D03*
X135837500Y-122410000D03*
X155072500Y-59275000D03*
X170342500Y-67715000D03*
X114207500Y-59690000D03*
X107887500Y-110630000D03*
X108817500Y-94460000D03*
X125557500Y-74930000D03*
X115627500Y-57320000D03*
X186652500Y-72255000D03*
X108817500Y-95600000D03*
X115627500Y-60920000D03*
X190232500Y-116625000D03*
X114307500Y-119620000D03*
X171622500Y-61505000D03*
X119577500Y-116330000D03*
X190132500Y-57905000D03*
X133077500Y-109810000D03*
X155072500Y-56905000D03*
X115627500Y-59690000D03*
X134097500Y-110970000D03*
X137617500Y-117450000D03*
X114207500Y-60900000D03*
X197782500Y-66895000D03*
X184272500Y-74735000D03*
X178882500Y-103805000D03*
X190232500Y-117835000D03*
X118937500Y-102790000D03*
X169982500Y-76575000D03*
X167182500Y-55095000D03*
X137257500Y-122430000D03*
X120997500Y-115120000D03*
X147947500Y-119390000D03*
X165972500Y-121115000D03*
X114207500Y-57320000D03*
X197782500Y-65475000D03*
X185502500Y-74735000D03*
X173042500Y-62665000D03*
X147947500Y-118230000D03*
X112887500Y-123200000D03*
X170342500Y-66555000D03*
X183442500Y-61175000D03*
X183442500Y-64775000D03*
X149367500Y-117020000D03*
X188812500Y-118975000D03*
X184862500Y-63565000D03*
X126977500Y-72580000D03*
X137047500Y-55180000D03*
X167392500Y-119975000D03*
X170342500Y-68925000D03*
X156492500Y-60505000D03*
X178882500Y-102595000D03*
X112887500Y-119620000D03*
X114307500Y-123220000D03*
X195412500Y-66895000D03*
X167392500Y-121135000D03*
X184292500Y-73715000D03*
X171622500Y-62645000D03*
X167182500Y-56325000D03*
X191552500Y-57905000D03*
X195622500Y-80695000D03*
X165592500Y-60075000D03*
X112887500Y-120830000D03*
X125557500Y-72560000D03*
X166822500Y-60075000D03*
X191552500Y-54325000D03*
X185502500Y-73715000D03*
X134457500Y-100950000D03*
X131397500Y-117230000D03*
X109027500Y-110630000D03*
X196572500Y-65475000D03*
X188812500Y-116605000D03*
X173042500Y-63875000D03*
X167392500Y-118765000D03*
X134097500Y-108600000D03*
X120997500Y-116350000D03*
X132117500Y-100930000D03*
X138467500Y-55180000D03*
X195622500Y-83065000D03*
X125557500Y-71350000D03*
X120147500Y-103810000D03*
X138467500Y-58780000D03*
X120997500Y-112750000D03*
X190232500Y-118995000D03*
X114207500Y-58530000D03*
X171622500Y-60275000D03*
X138467500Y-57550000D03*
X195412500Y-65475000D03*
X177462500Y-106175000D03*
X171362500Y-66575000D03*
X126977500Y-73720000D03*
X156492500Y-59295000D03*
X177462500Y-104945000D03*
X132817500Y-114880000D03*
X117797500Y-102790000D03*
X109027500Y-112050000D03*
X137047500Y-58760000D03*
X196552500Y-66895000D03*
X179022500Y-74025000D03*
X119577500Y-113960000D03*
X177462500Y-103805000D03*
X120997500Y-113980000D03*
X117787500Y-105270000D03*
X168602500Y-56325000D03*
X131397500Y-114860000D03*
X197042500Y-80715000D03*
X114307500Y-120850000D03*
X126977500Y-71350000D03*
X133077500Y-108580000D03*
X131397500Y-113650000D03*
X125557500Y-73720000D03*
X108817500Y-93230000D03*
X107867500Y-112050000D03*
X197042500Y-83085000D03*
X197042500Y-81925000D03*
X190132500Y-55535000D03*
X173042500Y-60295000D03*
X178882500Y-106175000D03*
X191552500Y-56695000D03*
%TO.N,+3.3V*%
X117977500Y-89910000D03*
X186462500Y-87615000D03*
X172592500Y-87565000D03*
X131847500Y-89960000D03*
%TO.N,+5V*%
X185652500Y-76295000D03*
X126917500Y-102350000D03*
X184862500Y-76145000D03*
X194222500Y-78185000D03*
X180182500Y-76065000D03*
X110217500Y-99340000D03*
X178422500Y-76065000D03*
X179342500Y-76125000D03*
X186532500Y-77365000D03*
X124257500Y-101460000D03*
X119577500Y-101380000D03*
X126767500Y-101730000D03*
X117907500Y-100160000D03*
X126017500Y-101460000D03*
X125097500Y-101400000D03*
X109617500Y-99940000D03*
X186132500Y-76775000D03*
X194972500Y-76885000D03*
X194822500Y-77585000D03*
X177672500Y-75795000D03*
X120307500Y-101380000D03*
X177522500Y-75175000D03*
X118787500Y-101230000D03*
X109467500Y-100640000D03*
X117947500Y-99350000D03*
X186492500Y-78175000D03*
X184132500Y-76145000D03*
X118307500Y-100750000D03*
%TO.N,/DIO1*%
X181442500Y-65045000D03*
X181412500Y-69765000D03*
X123027500Y-107760000D03*
X122997500Y-112480000D03*
%TO.N,/RESET*%
X179982500Y-65125000D03*
X180452500Y-69735000D03*
X123987500Y-107790000D03*
X124457500Y-112400000D03*
%TD*%
D24*
%TO.N,+3.3V*%
X172592500Y-87565000D02*
X186412500Y-87565000D01*
X186412500Y-87565000D02*
X186462500Y-87615000D01*
X118027500Y-89960000D02*
X117977500Y-89910000D01*
X131847500Y-89960000D02*
X118027500Y-89960000D01*
D25*
%TO.N,+5V*%
X109547500Y-100020000D02*
X109547500Y-100560000D01*
X194692500Y-77505000D02*
X194892500Y-77505000D01*
X194892500Y-77505000D02*
X194892500Y-76965000D01*
X193862500Y-78175000D02*
X193942500Y-78255000D01*
X186492500Y-77245000D02*
X186492500Y-78175000D01*
X186492500Y-78175000D02*
X193862500Y-78175000D01*
X177802500Y-76125000D02*
X177482500Y-75805000D01*
X179342500Y-76125000D02*
X185372500Y-76125000D01*
X117947500Y-99350000D02*
X110577500Y-99350000D01*
X110577500Y-99350000D02*
X110497500Y-99270000D01*
X109547500Y-100560000D02*
X109467500Y-100640000D01*
X109747500Y-100020000D02*
X109547500Y-100020000D01*
X117947500Y-100280000D02*
X117947500Y-99350000D01*
X119067500Y-101400000D02*
X117947500Y-100280000D01*
X193942500Y-78255000D02*
X194692500Y-77505000D01*
X177482500Y-75075000D02*
X177462500Y-75055000D01*
X126957500Y-102450000D02*
X126977500Y-102470000D01*
X179342500Y-76125000D02*
X177802500Y-76125000D01*
X126637500Y-101400000D02*
X126957500Y-101720000D01*
X125097500Y-101400000D02*
X126637500Y-101400000D01*
X177482500Y-75805000D02*
X177482500Y-75075000D01*
X126957500Y-101720000D02*
X126957500Y-102450000D01*
X185372500Y-76125000D02*
X186492500Y-77245000D01*
X194892500Y-76965000D02*
X194972500Y-76885000D01*
X125097500Y-101400000D02*
X119067500Y-101400000D01*
X110497500Y-99270000D02*
X109747500Y-100020000D01*
D24*
%TO.N,/DIO1*%
X122997500Y-112480000D02*
X122997500Y-111290000D01*
X122997500Y-111290000D02*
X123027500Y-111260000D01*
X181442500Y-66235000D02*
X181412500Y-66265000D01*
X181442500Y-65045000D02*
X181442500Y-66235000D01*
X123027500Y-111260000D02*
X123027500Y-107760000D01*
X181412500Y-66265000D02*
X181412500Y-69765000D01*
%TO.N,/RESET*%
X180452500Y-65595000D02*
X179982500Y-65125000D01*
X123987500Y-107790000D02*
X123987500Y-111930000D01*
X123987500Y-111930000D02*
X124457500Y-112400000D01*
X180452500Y-69735000D02*
X180452500Y-65595000D01*
%TD*%
%TA.AperFunction,Conductor*%
%TO.N,GND*%
G36*
X157959652Y-53325185D02*
G01*
X158005407Y-53377989D01*
X158015971Y-53442103D01*
X158007500Y-53525013D01*
X158007500Y-54925000D01*
X159058500Y-54925000D01*
X159125539Y-54944685D01*
X159171294Y-54997489D01*
X159182500Y-55049000D01*
X159182500Y-55175000D01*
X159308500Y-55175000D01*
X159375539Y-55194685D01*
X159421294Y-55247489D01*
X159432500Y-55299000D01*
X159432500Y-57524999D01*
X159657472Y-57524999D01*
X159657486Y-57524998D01*
X159760197Y-57514505D01*
X159926619Y-57459358D01*
X159926624Y-57459356D01*
X160075845Y-57367315D01*
X160199815Y-57243345D01*
X160291856Y-57094124D01*
X160291858Y-57094119D01*
X160347005Y-56927697D01*
X160347006Y-56927690D01*
X160355142Y-56848060D01*
X160381538Y-56783369D01*
X160438719Y-56743217D01*
X160508530Y-56740354D01*
X160568807Y-56775688D01*
X160600412Y-56838001D01*
X160602500Y-56860663D01*
X160602500Y-58095000D01*
X162262500Y-59755000D01*
X170522500Y-59755000D01*
X172032500Y-58245000D01*
X172032500Y-54045000D01*
X171892500Y-53905000D01*
X169882500Y-53905000D01*
X169882499Y-53905000D01*
X169632500Y-54155000D01*
X169632500Y-54168566D01*
X169649666Y-54200004D01*
X169652500Y-54226362D01*
X169652500Y-57533638D01*
X169632815Y-57600677D01*
X169616181Y-57621319D01*
X169478819Y-57758681D01*
X169417496Y-57792166D01*
X169391138Y-57795000D01*
X164103862Y-57795000D01*
X164036823Y-57775315D01*
X164016181Y-57758681D01*
X163868995Y-57611495D01*
X163835510Y-57550172D01*
X163840494Y-57480480D01*
X163882366Y-57424547D01*
X163947830Y-57400130D01*
X164016103Y-57414982D01*
X164021773Y-57418275D01*
X164088375Y-57459356D01*
X164088380Y-57459358D01*
X164254802Y-57514505D01*
X164254809Y-57514506D01*
X164357519Y-57524999D01*
X164582499Y-57524999D01*
X165082500Y-57524999D01*
X165307472Y-57524999D01*
X165307486Y-57524998D01*
X165410197Y-57514505D01*
X165576619Y-57459358D01*
X165576624Y-57459356D01*
X165725845Y-57367315D01*
X165849815Y-57243345D01*
X165941856Y-57094124D01*
X165941858Y-57094119D01*
X165997005Y-56927697D01*
X165997006Y-56927690D01*
X166007499Y-56824986D01*
X166007500Y-56824973D01*
X166007500Y-55425000D01*
X165082500Y-55425000D01*
X165082500Y-57524999D01*
X164582499Y-57524999D01*
X164582500Y-57524998D01*
X164582500Y-55299000D01*
X164602185Y-55231961D01*
X164654989Y-55186206D01*
X164706500Y-55175000D01*
X164832500Y-55175000D01*
X164832500Y-55049000D01*
X164852185Y-54981961D01*
X164904989Y-54936206D01*
X164956500Y-54925000D01*
X166007499Y-54925000D01*
X166007499Y-53525028D01*
X166007498Y-53525013D01*
X165999028Y-53442102D01*
X166011797Y-53373409D01*
X166059678Y-53322525D01*
X166122386Y-53305500D01*
X193923824Y-53305500D01*
X193990863Y-53325185D01*
X194011505Y-53341819D01*
X198595681Y-57925995D01*
X198629166Y-57987318D01*
X198632000Y-58013676D01*
X198632000Y-59830355D01*
X198612315Y-59897394D01*
X198559511Y-59943149D01*
X198490353Y-59953093D01*
X198426797Y-59924068D01*
X198403006Y-59896327D01*
X198356494Y-59822305D01*
X198298392Y-59729836D01*
X198109279Y-59492696D01*
X197894804Y-59278221D01*
X197657664Y-59089108D01*
X197400841Y-58927735D01*
X197400838Y-58927733D01*
X197127568Y-58796133D01*
X196841283Y-58695957D01*
X196841271Y-58695953D01*
X196613056Y-58643864D01*
X196545563Y-58628460D01*
X196545560Y-58628459D01*
X196545548Y-58628457D01*
X196244163Y-58594500D01*
X196244157Y-58594500D01*
X195940843Y-58594500D01*
X195940836Y-58594500D01*
X195639451Y-58628457D01*
X195639437Y-58628460D01*
X195343728Y-58695953D01*
X195343716Y-58695957D01*
X195057431Y-58796133D01*
X194784161Y-58927733D01*
X194527337Y-59089107D01*
X194290196Y-59278220D01*
X194075720Y-59492696D01*
X193886607Y-59729837D01*
X193725233Y-59986661D01*
X193593633Y-60259931D01*
X193493457Y-60546216D01*
X193493453Y-60546228D01*
X193425960Y-60841937D01*
X193425957Y-60841951D01*
X193392000Y-61143336D01*
X193392000Y-61446663D01*
X193425957Y-61748048D01*
X193425960Y-61748062D01*
X193493453Y-62043771D01*
X193493457Y-62043783D01*
X193593633Y-62330068D01*
X193725233Y-62603338D01*
X193725235Y-62603341D01*
X193886608Y-62860164D01*
X194075721Y-63097304D01*
X194290196Y-63311779D01*
X194527336Y-63500892D01*
X194784159Y-63662265D01*
X195057435Y-63793868D01*
X195272451Y-63869105D01*
X195343716Y-63894042D01*
X195343728Y-63894046D01*
X195639437Y-63961540D01*
X195639446Y-63961541D01*
X195639451Y-63961542D01*
X195840374Y-63984180D01*
X195940837Y-63995499D01*
X195940840Y-63995500D01*
X195940843Y-63995500D01*
X196244160Y-63995500D01*
X196244161Y-63995499D01*
X196398194Y-63978144D01*
X196545548Y-63961542D01*
X196545551Y-63961541D01*
X196545563Y-63961540D01*
X196841272Y-63894046D01*
X197127565Y-63793868D01*
X197400841Y-63662265D01*
X197657664Y-63500892D01*
X197894804Y-63311779D01*
X198109279Y-63097304D01*
X198298392Y-62860164D01*
X198403006Y-62693671D01*
X198455341Y-62647381D01*
X198524394Y-62636733D01*
X198588243Y-62665108D01*
X198626615Y-62723497D01*
X198632000Y-62759644D01*
X198632000Y-98071000D01*
X198612315Y-98138039D01*
X198559511Y-98183794D01*
X198508000Y-98195000D01*
X198272500Y-98195000D01*
X198272500Y-99161988D01*
X198215493Y-99129075D01*
X198088326Y-99095000D01*
X197956674Y-99095000D01*
X197829507Y-99129075D01*
X197772500Y-99161988D01*
X197772500Y-98195000D01*
X197074655Y-98195000D01*
X197015127Y-98201401D01*
X197015120Y-98201403D01*
X196880413Y-98251645D01*
X196880406Y-98251649D01*
X196765312Y-98337809D01*
X196765309Y-98337812D01*
X196679149Y-98452906D01*
X196679145Y-98452913D01*
X196628903Y-98587620D01*
X196628901Y-98587627D01*
X196622500Y-98647155D01*
X196622500Y-98910159D01*
X196602815Y-98977198D01*
X196550011Y-99022953D01*
X196480853Y-99032897D01*
X196417297Y-99003872D01*
X196398182Y-98983045D01*
X196350425Y-98917314D01*
X196321914Y-98878072D01*
X196199428Y-98755586D01*
X196059288Y-98653768D01*
X195904945Y-98575127D01*
X195740201Y-98521598D01*
X195740199Y-98521597D01*
X195740198Y-98521597D01*
X195608771Y-98500781D01*
X195569111Y-98494500D01*
X195395889Y-98494500D01*
X195356228Y-98500781D01*
X195224802Y-98521597D01*
X195060052Y-98575128D01*
X194905711Y-98653768D01*
X194825756Y-98711859D01*
X194765572Y-98755586D01*
X194765570Y-98755588D01*
X194765569Y-98755588D01*
X194643088Y-98878069D01*
X194643088Y-98878070D01*
X194643086Y-98878072D01*
X194614575Y-98917314D01*
X194541268Y-99018211D01*
X194462628Y-99172552D01*
X194409097Y-99337302D01*
X194382000Y-99508389D01*
X194382000Y-99681611D01*
X194409098Y-99852701D01*
X194462627Y-100017445D01*
X194541268Y-100171788D01*
X194643086Y-100311928D01*
X194765572Y-100434414D01*
X194905712Y-100536232D01*
X195060055Y-100614873D01*
X195224799Y-100668402D01*
X195395889Y-100695500D01*
X195395890Y-100695500D01*
X195569110Y-100695500D01*
X195569111Y-100695500D01*
X195740201Y-100668402D01*
X195904945Y-100614873D01*
X196059288Y-100536232D01*
X196199428Y-100434414D01*
X196321914Y-100311928D01*
X196398182Y-100206953D01*
X196453512Y-100164289D01*
X196523126Y-100158310D01*
X196584921Y-100190916D01*
X196619278Y-100251755D01*
X196622500Y-100279840D01*
X196622500Y-100542844D01*
X196628901Y-100602372D01*
X196628903Y-100602379D01*
X196679145Y-100737086D01*
X196679149Y-100737093D01*
X196765309Y-100852187D01*
X196765312Y-100852190D01*
X196880406Y-100938350D01*
X196880413Y-100938354D01*
X197015120Y-100988596D01*
X197015127Y-100988598D01*
X197074655Y-100994999D01*
X197074672Y-100995000D01*
X197772500Y-100995000D01*
X197772500Y-100028012D01*
X197829507Y-100060925D01*
X197956674Y-100095000D01*
X198088326Y-100095000D01*
X198215493Y-100060925D01*
X198272500Y-100028012D01*
X198272500Y-100995000D01*
X198508000Y-100995000D01*
X198575039Y-101014685D01*
X198620794Y-101067489D01*
X198632000Y-101119000D01*
X198632000Y-104091000D01*
X198612315Y-104158039D01*
X198559511Y-104203794D01*
X198508000Y-104215000D01*
X198262500Y-104215000D01*
X198262500Y-105181988D01*
X198205493Y-105149075D01*
X198078326Y-105115000D01*
X197946674Y-105115000D01*
X197819507Y-105149075D01*
X197762500Y-105181988D01*
X197762500Y-104215000D01*
X197064655Y-104215000D01*
X197005127Y-104221401D01*
X197005120Y-104221403D01*
X196870413Y-104271645D01*
X196870406Y-104271649D01*
X196755312Y-104357809D01*
X196755309Y-104357812D01*
X196669149Y-104472906D01*
X196669145Y-104472913D01*
X196618903Y-104607620D01*
X196618901Y-104607627D01*
X196612500Y-104667155D01*
X196612500Y-104930159D01*
X196592815Y-104997198D01*
X196540011Y-105042953D01*
X196470853Y-105052897D01*
X196407297Y-105023872D01*
X196388182Y-105003045D01*
X196355781Y-104958450D01*
X196311914Y-104898072D01*
X196189428Y-104775586D01*
X196049288Y-104673768D01*
X195894945Y-104595127D01*
X195730201Y-104541598D01*
X195730199Y-104541597D01*
X195730198Y-104541597D01*
X195598771Y-104520781D01*
X195559111Y-104514500D01*
X195385889Y-104514500D01*
X195346228Y-104520781D01*
X195214802Y-104541597D01*
X195050052Y-104595128D01*
X194895711Y-104673768D01*
X194815756Y-104731859D01*
X194755572Y-104775586D01*
X194755570Y-104775588D01*
X194755569Y-104775588D01*
X194633088Y-104898069D01*
X194633088Y-104898070D01*
X194633086Y-104898072D01*
X194589359Y-104958256D01*
X194531268Y-105038211D01*
X194452628Y-105192552D01*
X194399097Y-105357302D01*
X194372000Y-105528389D01*
X194372000Y-105701610D01*
X194396373Y-105855500D01*
X194399098Y-105872701D01*
X194452627Y-106037445D01*
X194531268Y-106191788D01*
X194633086Y-106331928D01*
X194755572Y-106454414D01*
X194895712Y-106556232D01*
X195050055Y-106634873D01*
X195214799Y-106688402D01*
X195385889Y-106715500D01*
X195385890Y-106715500D01*
X195559110Y-106715500D01*
X195559111Y-106715500D01*
X195730201Y-106688402D01*
X195894945Y-106634873D01*
X196049288Y-106556232D01*
X196189428Y-106454414D01*
X196311914Y-106331928D01*
X196388182Y-106226953D01*
X196443512Y-106184289D01*
X196513126Y-106178310D01*
X196574921Y-106210916D01*
X196609278Y-106271755D01*
X196612500Y-106299840D01*
X196612500Y-106562844D01*
X196618901Y-106622372D01*
X196618903Y-106622379D01*
X196669145Y-106757086D01*
X196669149Y-106757093D01*
X196755309Y-106872187D01*
X196755312Y-106872190D01*
X196870406Y-106958350D01*
X196870413Y-106958354D01*
X197005120Y-107008596D01*
X197005127Y-107008598D01*
X197064655Y-107014999D01*
X197064672Y-107015000D01*
X197762500Y-107015000D01*
X197762500Y-106048012D01*
X197819507Y-106080925D01*
X197946674Y-106115000D01*
X198078326Y-106115000D01*
X198205493Y-106080925D01*
X198262500Y-106048012D01*
X198262500Y-107015000D01*
X198508000Y-107015000D01*
X198575039Y-107034685D01*
X198620794Y-107087489D01*
X198632000Y-107139000D01*
X198632000Y-110091000D01*
X198612315Y-110158039D01*
X198559511Y-110203794D01*
X198508000Y-110215000D01*
X198282500Y-110215000D01*
X198282500Y-111181988D01*
X198225493Y-111149075D01*
X198098326Y-111115000D01*
X197966674Y-111115000D01*
X197839507Y-111149075D01*
X197782500Y-111181988D01*
X197782500Y-110215000D01*
X197084655Y-110215000D01*
X197025127Y-110221401D01*
X197025120Y-110221403D01*
X196890413Y-110271645D01*
X196890406Y-110271649D01*
X196775312Y-110357809D01*
X196775309Y-110357812D01*
X196689149Y-110472906D01*
X196689145Y-110472913D01*
X196638903Y-110607620D01*
X196638901Y-110607627D01*
X196632500Y-110667155D01*
X196632500Y-110930159D01*
X196612815Y-110997198D01*
X196560011Y-111042953D01*
X196490853Y-111052897D01*
X196427297Y-111023872D01*
X196408182Y-111003045D01*
X196375781Y-110958450D01*
X196331914Y-110898072D01*
X196209428Y-110775586D01*
X196069288Y-110673768D01*
X195914945Y-110595127D01*
X195750201Y-110541598D01*
X195750199Y-110541597D01*
X195750198Y-110541597D01*
X195618771Y-110520781D01*
X195579111Y-110514500D01*
X195405889Y-110514500D01*
X195366228Y-110520781D01*
X195234802Y-110541597D01*
X195070052Y-110595128D01*
X194915711Y-110673768D01*
X194894576Y-110689124D01*
X194775572Y-110775586D01*
X194775570Y-110775588D01*
X194775569Y-110775588D01*
X194653088Y-110898069D01*
X194653088Y-110898070D01*
X194653086Y-110898072D01*
X194609359Y-110958256D01*
X194551268Y-111038211D01*
X194472628Y-111192552D01*
X194419097Y-111357302D01*
X194408849Y-111422007D01*
X194392000Y-111528389D01*
X194392000Y-111701611D01*
X194419098Y-111872701D01*
X194472627Y-112037445D01*
X194551268Y-112191788D01*
X194653086Y-112331928D01*
X194775572Y-112454414D01*
X194915712Y-112556232D01*
X195070055Y-112634873D01*
X195234799Y-112688402D01*
X195405889Y-112715500D01*
X195405890Y-112715500D01*
X195579110Y-112715500D01*
X195579111Y-112715500D01*
X195750201Y-112688402D01*
X195914945Y-112634873D01*
X196069288Y-112556232D01*
X196209428Y-112454414D01*
X196331914Y-112331928D01*
X196408182Y-112226953D01*
X196463512Y-112184289D01*
X196533126Y-112178310D01*
X196594921Y-112210916D01*
X196629278Y-112271755D01*
X196632500Y-112299840D01*
X196632500Y-112562844D01*
X196638901Y-112622372D01*
X196638903Y-112622379D01*
X196689145Y-112757086D01*
X196689149Y-112757093D01*
X196775309Y-112872187D01*
X196775312Y-112872190D01*
X196890406Y-112958350D01*
X196890413Y-112958354D01*
X197025120Y-113008596D01*
X197025127Y-113008598D01*
X197084655Y-113014999D01*
X197084672Y-113015000D01*
X197782500Y-113015000D01*
X197782500Y-112048012D01*
X197839507Y-112080925D01*
X197966674Y-112115000D01*
X198098326Y-112115000D01*
X198225493Y-112080925D01*
X198282500Y-112048012D01*
X198282500Y-113015000D01*
X198508000Y-113015000D01*
X198575039Y-113034685D01*
X198620794Y-113087489D01*
X198632000Y-113139000D01*
X198632000Y-114830355D01*
X198612315Y-114897394D01*
X198559511Y-114943149D01*
X198490353Y-114953093D01*
X198426797Y-114924068D01*
X198403006Y-114896327D01*
X198356494Y-114822305D01*
X198298392Y-114729836D01*
X198109279Y-114492696D01*
X197894804Y-114278221D01*
X197657664Y-114089108D01*
X197400841Y-113927735D01*
X197400838Y-113927733D01*
X197127568Y-113796133D01*
X196841283Y-113695957D01*
X196841271Y-113695953D01*
X196594563Y-113639644D01*
X196545563Y-113628460D01*
X196545560Y-113628459D01*
X196545548Y-113628457D01*
X196244163Y-113594500D01*
X196244157Y-113594500D01*
X195940843Y-113594500D01*
X195940836Y-113594500D01*
X195639451Y-113628457D01*
X195639437Y-113628460D01*
X195343728Y-113695953D01*
X195343716Y-113695957D01*
X195057431Y-113796133D01*
X194784161Y-113927733D01*
X194527337Y-114089107D01*
X194290196Y-114278220D01*
X194075720Y-114492696D01*
X193886607Y-114729837D01*
X193725233Y-114986661D01*
X193593633Y-115259931D01*
X193493457Y-115546216D01*
X193493453Y-115546228D01*
X193425960Y-115841937D01*
X193425957Y-115841951D01*
X193392000Y-116143336D01*
X193392000Y-116446663D01*
X193425957Y-116748048D01*
X193425960Y-116748062D01*
X193493453Y-117043771D01*
X193493457Y-117043783D01*
X193593633Y-117330068D01*
X193725233Y-117603338D01*
X193725235Y-117603341D01*
X193886608Y-117860164D01*
X194075721Y-118097304D01*
X194290196Y-118311779D01*
X194527336Y-118500892D01*
X194784159Y-118662265D01*
X195057435Y-118793868D01*
X195272451Y-118869105D01*
X195343716Y-118894042D01*
X195343728Y-118894046D01*
X195639437Y-118961540D01*
X195639446Y-118961541D01*
X195639451Y-118961542D01*
X195840374Y-118984180D01*
X195940837Y-118995499D01*
X195940840Y-118995500D01*
X195940843Y-118995500D01*
X196244160Y-118995500D01*
X196244161Y-118995499D01*
X196398194Y-118978144D01*
X196545548Y-118961542D01*
X196545551Y-118961541D01*
X196545563Y-118961540D01*
X196841272Y-118894046D01*
X197127565Y-118793868D01*
X197400841Y-118662265D01*
X197657664Y-118500892D01*
X197894804Y-118311779D01*
X198109279Y-118097304D01*
X198298392Y-117860164D01*
X198403006Y-117693671D01*
X198455341Y-117647381D01*
X198524394Y-117636733D01*
X198588243Y-117665108D01*
X198626615Y-117723497D01*
X198632000Y-117759644D01*
X198632000Y-119546324D01*
X198612315Y-119613363D01*
X198595681Y-119634005D01*
X193961505Y-124268181D01*
X193900182Y-124301666D01*
X193873824Y-124304500D01*
X164807000Y-124304500D01*
X164739961Y-124284815D01*
X164694206Y-124232011D01*
X164683000Y-124180500D01*
X164683000Y-116349110D01*
X164683000Y-116349108D01*
X164648892Y-116221814D01*
X164583000Y-116107686D01*
X164489814Y-116014500D01*
X164432750Y-115981554D01*
X164375687Y-115948608D01*
X164312039Y-115931554D01*
X164248392Y-115914500D01*
X164248391Y-115914500D01*
X153637000Y-115914500D01*
X153569961Y-115894815D01*
X153524206Y-115842011D01*
X153513000Y-115790500D01*
X153513000Y-113470350D01*
X156537000Y-113470350D01*
X156537000Y-113639649D01*
X156563481Y-113806847D01*
X156615796Y-113967853D01*
X156692652Y-114118688D01*
X156792148Y-114255634D01*
X156792152Y-114255639D01*
X156911860Y-114375347D01*
X156911865Y-114375351D01*
X157031317Y-114462137D01*
X157048815Y-114474850D01*
X157144925Y-114523820D01*
X157199646Y-114551703D01*
X157199648Y-114551703D01*
X157199651Y-114551705D01*
X157285950Y-114579745D01*
X157360652Y-114604018D01*
X157527851Y-114630500D01*
X157527856Y-114630500D01*
X157697149Y-114630500D01*
X157864347Y-114604018D01*
X158025349Y-114551705D01*
X158176185Y-114474850D01*
X158313141Y-114375346D01*
X158432846Y-114255641D01*
X158532350Y-114118685D01*
X158609205Y-113967849D01*
X158661518Y-113806847D01*
X158663215Y-113796132D01*
X158688000Y-113639649D01*
X158688000Y-113470350D01*
X158661518Y-113303152D01*
X158609203Y-113142146D01*
X158554448Y-113034685D01*
X158532350Y-112991315D01*
X158445799Y-112872187D01*
X158432851Y-112854365D01*
X158432847Y-112854360D01*
X158313139Y-112734652D01*
X158313134Y-112734648D01*
X158176188Y-112635152D01*
X158176187Y-112635151D01*
X158176185Y-112635150D01*
X158129082Y-112611150D01*
X158025353Y-112558296D01*
X157864347Y-112505981D01*
X157697149Y-112479500D01*
X157697144Y-112479500D01*
X157527856Y-112479500D01*
X157527851Y-112479500D01*
X157360652Y-112505981D01*
X157199646Y-112558296D01*
X157048811Y-112635152D01*
X156911865Y-112734648D01*
X156911860Y-112734652D01*
X156792152Y-112854360D01*
X156792148Y-112854365D01*
X156692652Y-112991311D01*
X156615796Y-113142146D01*
X156563481Y-113303152D01*
X156537000Y-113470350D01*
X153513000Y-113470350D01*
X153513000Y-109070013D01*
X156237500Y-109070013D01*
X156237500Y-109495000D01*
X157121752Y-109495000D01*
X157099982Y-109532708D01*
X157062500Y-109672591D01*
X157062500Y-109817409D01*
X157099982Y-109957292D01*
X157121752Y-109995000D01*
X156237501Y-109995000D01*
X156237501Y-110419986D01*
X156247994Y-110522697D01*
X156303141Y-110689119D01*
X156303143Y-110689124D01*
X156395184Y-110838345D01*
X156519154Y-110962315D01*
X156668375Y-111054356D01*
X156668380Y-111054358D01*
X156834802Y-111109505D01*
X156834809Y-111109506D01*
X156937519Y-111119999D01*
X157362499Y-111119999D01*
X157362500Y-111119998D01*
X157362500Y-110235747D01*
X157400208Y-110257518D01*
X157540091Y-110295000D01*
X157684909Y-110295000D01*
X157824792Y-110257518D01*
X157862500Y-110235747D01*
X157862500Y-111119999D01*
X158287472Y-111119999D01*
X158287486Y-111119998D01*
X158390197Y-111109505D01*
X158556619Y-111054358D01*
X158556624Y-111054356D01*
X158705845Y-110962315D01*
X158829815Y-110838345D01*
X158921856Y-110689124D01*
X158921858Y-110689119D01*
X158977005Y-110522697D01*
X158977006Y-110522690D01*
X158987499Y-110419986D01*
X158987500Y-110419973D01*
X158987500Y-109995000D01*
X158103248Y-109995000D01*
X158125018Y-109957292D01*
X158162500Y-109817409D01*
X158162500Y-109796379D01*
X165179500Y-109796379D01*
X165179500Y-109983620D01*
X165216025Y-110167243D01*
X165216027Y-110167251D01*
X165287676Y-110340228D01*
X165287681Y-110340237D01*
X165391697Y-110495907D01*
X165391700Y-110495911D01*
X165524088Y-110628299D01*
X165524092Y-110628302D01*
X165679762Y-110732318D01*
X165679768Y-110732321D01*
X165679769Y-110732322D01*
X165852749Y-110803973D01*
X166025550Y-110838345D01*
X166036379Y-110840499D01*
X166036383Y-110840500D01*
X166036384Y-110840500D01*
X166923617Y-110840500D01*
X166923618Y-110840499D01*
X167107251Y-110803973D01*
X167280231Y-110732322D01*
X167435908Y-110628302D01*
X167568302Y-110495908D01*
X167672322Y-110340231D01*
X167743973Y-110167251D01*
X167780500Y-109983616D01*
X167780500Y-109796384D01*
X167780499Y-109796379D01*
X190179500Y-109796379D01*
X190179500Y-109983620D01*
X190216025Y-110167243D01*
X190216027Y-110167251D01*
X190287676Y-110340228D01*
X190287681Y-110340237D01*
X190391697Y-110495907D01*
X190391700Y-110495911D01*
X190524088Y-110628299D01*
X190524092Y-110628302D01*
X190679762Y-110732318D01*
X190679768Y-110732321D01*
X190679769Y-110732322D01*
X190852749Y-110803973D01*
X191025550Y-110838345D01*
X191036379Y-110840499D01*
X191036383Y-110840500D01*
X191036384Y-110840500D01*
X191923617Y-110840500D01*
X191923618Y-110840499D01*
X192107251Y-110803973D01*
X192280231Y-110732322D01*
X192435908Y-110628302D01*
X192568302Y-110495908D01*
X192672322Y-110340231D01*
X192743973Y-110167251D01*
X192780500Y-109983616D01*
X192780500Y-109796384D01*
X192743973Y-109612749D01*
X192672322Y-109439769D01*
X192672321Y-109439768D01*
X192672318Y-109439762D01*
X192568302Y-109284092D01*
X192568299Y-109284088D01*
X192435911Y-109151700D01*
X192435907Y-109151697D01*
X192280237Y-109047681D01*
X192280228Y-109047676D01*
X192107251Y-108976027D01*
X192107243Y-108976025D01*
X191923620Y-108939500D01*
X191923616Y-108939500D01*
X191036384Y-108939500D01*
X191036379Y-108939500D01*
X190852756Y-108976025D01*
X190852748Y-108976027D01*
X190679771Y-109047676D01*
X190679762Y-109047681D01*
X190524092Y-109151697D01*
X190524088Y-109151700D01*
X190391700Y-109284088D01*
X190391697Y-109284092D01*
X190287681Y-109439762D01*
X190287676Y-109439771D01*
X190216027Y-109612748D01*
X190216025Y-109612756D01*
X190179500Y-109796379D01*
X167780499Y-109796379D01*
X167743973Y-109612749D01*
X167672322Y-109439769D01*
X167672321Y-109439768D01*
X167672318Y-109439762D01*
X167568302Y-109284092D01*
X167568299Y-109284088D01*
X167435911Y-109151700D01*
X167435907Y-109151697D01*
X167280237Y-109047681D01*
X167280228Y-109047676D01*
X167107251Y-108976027D01*
X167107243Y-108976025D01*
X166923620Y-108939500D01*
X166923616Y-108939500D01*
X166036384Y-108939500D01*
X166036379Y-108939500D01*
X165852756Y-108976025D01*
X165852748Y-108976027D01*
X165679771Y-109047676D01*
X165679762Y-109047681D01*
X165524092Y-109151697D01*
X165524088Y-109151700D01*
X165391700Y-109284088D01*
X165391697Y-109284092D01*
X165287681Y-109439762D01*
X165287676Y-109439771D01*
X165216027Y-109612748D01*
X165216025Y-109612756D01*
X165179500Y-109796379D01*
X158162500Y-109796379D01*
X158162500Y-109672591D01*
X158125018Y-109532708D01*
X158103248Y-109495000D01*
X158987499Y-109495000D01*
X158987499Y-109070028D01*
X158987498Y-109070013D01*
X158977005Y-108967302D01*
X158921858Y-108800880D01*
X158921856Y-108800875D01*
X158829815Y-108651654D01*
X158705845Y-108527684D01*
X158556624Y-108435643D01*
X158556619Y-108435641D01*
X158390197Y-108380494D01*
X158390190Y-108380493D01*
X158287486Y-108370000D01*
X157862500Y-108370000D01*
X157862500Y-109254252D01*
X157824792Y-109232482D01*
X157684909Y-109195000D01*
X157540091Y-109195000D01*
X157400208Y-109232482D01*
X157362500Y-109254252D01*
X157362500Y-108370000D01*
X156937528Y-108370000D01*
X156937512Y-108370001D01*
X156834802Y-108380494D01*
X156668380Y-108435641D01*
X156668375Y-108435643D01*
X156519154Y-108527684D01*
X156395184Y-108651654D01*
X156303143Y-108800875D01*
X156303141Y-108800880D01*
X156247994Y-108967302D01*
X156247993Y-108967309D01*
X156237500Y-109070013D01*
X153513000Y-109070013D01*
X153513000Y-107080000D01*
X164904016Y-107080000D01*
X165931518Y-107080000D01*
X165920889Y-107098409D01*
X165880000Y-107251009D01*
X165880000Y-107408991D01*
X165920889Y-107561591D01*
X165931518Y-107580000D01*
X164904016Y-107580000D01*
X164910781Y-107622716D01*
X164971581Y-107809837D01*
X165060904Y-107985143D01*
X165176555Y-108144321D01*
X165315678Y-108283444D01*
X165474856Y-108399095D01*
X165650164Y-108488418D01*
X165837294Y-108549221D01*
X166031618Y-108580000D01*
X166230000Y-108580000D01*
X166230000Y-107878482D01*
X166248409Y-107889111D01*
X166401009Y-107930000D01*
X166558991Y-107930000D01*
X166711591Y-107889111D01*
X166730000Y-107878482D01*
X166730000Y-108580000D01*
X166928382Y-108580000D01*
X167122705Y-108549221D01*
X167309835Y-108488418D01*
X167485143Y-108399095D01*
X167644321Y-108283444D01*
X167783444Y-108144321D01*
X167899095Y-107985143D01*
X167988418Y-107809837D01*
X168049218Y-107622716D01*
X168055984Y-107580000D01*
X167028482Y-107580000D01*
X167039111Y-107561591D01*
X167080000Y-107408991D01*
X167080000Y-107251009D01*
X167039111Y-107098409D01*
X167028482Y-107080000D01*
X168055984Y-107080000D01*
X189904016Y-107080000D01*
X190931518Y-107080000D01*
X190920889Y-107098409D01*
X190880000Y-107251009D01*
X190880000Y-107408991D01*
X190920889Y-107561591D01*
X190931518Y-107580000D01*
X189904016Y-107580000D01*
X189910781Y-107622716D01*
X189971581Y-107809837D01*
X190060904Y-107985143D01*
X190176555Y-108144321D01*
X190315678Y-108283444D01*
X190474856Y-108399095D01*
X190650164Y-108488418D01*
X190837294Y-108549221D01*
X191031618Y-108580000D01*
X191230000Y-108580000D01*
X191230000Y-107878482D01*
X191248409Y-107889111D01*
X191401009Y-107930000D01*
X191558991Y-107930000D01*
X191711591Y-107889111D01*
X191730000Y-107878482D01*
X191730000Y-108580000D01*
X191928382Y-108580000D01*
X192122705Y-108549221D01*
X192309835Y-108488418D01*
X192485143Y-108399095D01*
X192644321Y-108283444D01*
X192783444Y-108144321D01*
X192899095Y-107985143D01*
X192988418Y-107809837D01*
X193049218Y-107622716D01*
X193055984Y-107580000D01*
X192028482Y-107580000D01*
X192039111Y-107561591D01*
X192080000Y-107408991D01*
X192080000Y-107251009D01*
X192039111Y-107098409D01*
X192028482Y-107080000D01*
X193055984Y-107080000D01*
X193049218Y-107037283D01*
X192988418Y-106850162D01*
X192899095Y-106674856D01*
X192783444Y-106515678D01*
X192644321Y-106376555D01*
X192485143Y-106260904D01*
X192309835Y-106171581D01*
X192122705Y-106110778D01*
X191928382Y-106080000D01*
X191730000Y-106080000D01*
X191730000Y-106781517D01*
X191711591Y-106770889D01*
X191558991Y-106730000D01*
X191401009Y-106730000D01*
X191248409Y-106770889D01*
X191230000Y-106781517D01*
X191230000Y-106080000D01*
X191031618Y-106080000D01*
X190837294Y-106110778D01*
X190650164Y-106171581D01*
X190474856Y-106260904D01*
X190315678Y-106376555D01*
X190176555Y-106515678D01*
X190060904Y-106674856D01*
X189971581Y-106850162D01*
X189910781Y-107037283D01*
X189904016Y-107080000D01*
X168055984Y-107080000D01*
X168049218Y-107037283D01*
X167988418Y-106850162D01*
X167899095Y-106674856D01*
X167783444Y-106515678D01*
X167644321Y-106376555D01*
X167485143Y-106260904D01*
X167309835Y-106171581D01*
X167122705Y-106110778D01*
X166997144Y-106090891D01*
X166934009Y-106060962D01*
X166897078Y-106001650D01*
X166898076Y-105931788D01*
X166936686Y-105873555D01*
X166992351Y-105846801D01*
X167052446Y-105834847D01*
X167132251Y-105818973D01*
X167305231Y-105747322D01*
X167460908Y-105643302D01*
X167593302Y-105510908D01*
X167697322Y-105355231D01*
X167768973Y-105182251D01*
X167805500Y-104998616D01*
X167805500Y-104811384D01*
X167798380Y-104775588D01*
X167786196Y-104714332D01*
X167782595Y-104696228D01*
X190629500Y-104696228D01*
X190629500Y-104863771D01*
X190662182Y-105028074D01*
X190662184Y-105028082D01*
X190726295Y-105182860D01*
X190819373Y-105322162D01*
X190937837Y-105440626D01*
X191030494Y-105502537D01*
X191077137Y-105533703D01*
X191231918Y-105597816D01*
X191396228Y-105630499D01*
X191396232Y-105630500D01*
X191396233Y-105630500D01*
X191563768Y-105630500D01*
X191563769Y-105630499D01*
X191728082Y-105597816D01*
X191882863Y-105533703D01*
X192022162Y-105440626D01*
X192022165Y-105440623D01*
X192026953Y-105435836D01*
X192140623Y-105322165D01*
X192140626Y-105322162D01*
X192150093Y-105307993D01*
X192233703Y-105182863D01*
X192297816Y-105028082D01*
X192330500Y-104863767D01*
X192330500Y-104696233D01*
X192297816Y-104531918D01*
X192233703Y-104377137D01*
X192163218Y-104271649D01*
X192140626Y-104237837D01*
X192022162Y-104119373D01*
X191882860Y-104026295D01*
X191728082Y-103962184D01*
X191728074Y-103962182D01*
X191563771Y-103929500D01*
X191563767Y-103929500D01*
X191396233Y-103929500D01*
X191396228Y-103929500D01*
X191231925Y-103962182D01*
X191231917Y-103962184D01*
X191077139Y-104026295D01*
X190937837Y-104119373D01*
X190819373Y-104237837D01*
X190726295Y-104377139D01*
X190662184Y-104531917D01*
X190662182Y-104531925D01*
X190629500Y-104696228D01*
X167782595Y-104696228D01*
X167768974Y-104627756D01*
X167768973Y-104627749D01*
X167697322Y-104454769D01*
X167697321Y-104454768D01*
X167697318Y-104454762D01*
X167593302Y-104299092D01*
X167593299Y-104299088D01*
X167460911Y-104166700D01*
X167460907Y-104166697D01*
X167305237Y-104062681D01*
X167305228Y-104062676D01*
X167132251Y-103991027D01*
X167132243Y-103991025D01*
X166948620Y-103954500D01*
X166948616Y-103954500D01*
X166061384Y-103954500D01*
X166061379Y-103954500D01*
X165877756Y-103991025D01*
X165877748Y-103991027D01*
X165704771Y-104062676D01*
X165704762Y-104062681D01*
X165549092Y-104166697D01*
X165549088Y-104166700D01*
X165416700Y-104299088D01*
X165416697Y-104299092D01*
X165312681Y-104454762D01*
X165312676Y-104454771D01*
X165241027Y-104627748D01*
X165241025Y-104627756D01*
X165204500Y-104811379D01*
X165204500Y-104998620D01*
X165241025Y-105182243D01*
X165241027Y-105182251D01*
X165312676Y-105355228D01*
X165312681Y-105355237D01*
X165416697Y-105510907D01*
X165416700Y-105510911D01*
X165549088Y-105643299D01*
X165549092Y-105643302D01*
X165704762Y-105747318D01*
X165704768Y-105747321D01*
X165704769Y-105747322D01*
X165877749Y-105818973D01*
X165934194Y-105830200D01*
X165995483Y-105842392D01*
X166057394Y-105874777D01*
X166091968Y-105935492D01*
X166088229Y-106005262D01*
X166047363Y-106061934D01*
X165990691Y-106086482D01*
X165837293Y-106110778D01*
X165650164Y-106171581D01*
X165474856Y-106260904D01*
X165315678Y-106376555D01*
X165176555Y-106515678D01*
X165060904Y-106674856D01*
X164971581Y-106850162D01*
X164910781Y-107037283D01*
X164904016Y-107080000D01*
X153513000Y-107080000D01*
X153513000Y-104830350D01*
X156527000Y-104830350D01*
X156527000Y-104999649D01*
X156553481Y-105166847D01*
X156605796Y-105327853D01*
X156682652Y-105478688D01*
X156782148Y-105615634D01*
X156782152Y-105615639D01*
X156901860Y-105735347D01*
X156901865Y-105735351D01*
X157001849Y-105807993D01*
X157038815Y-105834850D01*
X157113094Y-105872697D01*
X157189646Y-105911703D01*
X157189648Y-105911703D01*
X157189651Y-105911705D01*
X157275950Y-105939745D01*
X157350652Y-105964018D01*
X157517851Y-105990500D01*
X157517856Y-105990500D01*
X157687149Y-105990500D01*
X157854347Y-105964018D01*
X158015349Y-105911705D01*
X158166185Y-105834850D01*
X158303141Y-105735346D01*
X158422846Y-105615641D01*
X158522350Y-105478685D01*
X158599205Y-105327849D01*
X158651518Y-105166847D01*
X158671892Y-105038211D01*
X158678000Y-104999649D01*
X158678000Y-104830350D01*
X158651518Y-104663152D01*
X158608877Y-104531918D01*
X158599205Y-104502151D01*
X158599203Y-104502148D01*
X158599203Y-104502146D01*
X158571320Y-104447425D01*
X158522350Y-104351315D01*
X158484405Y-104299088D01*
X158422851Y-104214365D01*
X158422847Y-104214360D01*
X158303139Y-104094652D01*
X158303134Y-104094648D01*
X158166188Y-103995152D01*
X158166187Y-103995151D01*
X158166185Y-103995150D01*
X158101482Y-103962182D01*
X158015353Y-103918296D01*
X157854347Y-103865981D01*
X157687149Y-103839500D01*
X157687144Y-103839500D01*
X157517856Y-103839500D01*
X157517851Y-103839500D01*
X157350652Y-103865981D01*
X157189646Y-103918296D01*
X157038811Y-103995152D01*
X156901865Y-104094648D01*
X156901860Y-104094652D01*
X156782152Y-104214360D01*
X156782148Y-104214365D01*
X156682652Y-104351311D01*
X156605796Y-104502146D01*
X156553481Y-104663152D01*
X156527000Y-104830350D01*
X153513000Y-104830350D01*
X153513000Y-102281228D01*
X165604500Y-102281228D01*
X165604500Y-102448771D01*
X165637182Y-102613074D01*
X165637184Y-102613082D01*
X165701295Y-102767860D01*
X165794373Y-102907162D01*
X165912837Y-103025626D01*
X165961015Y-103057817D01*
X166052137Y-103118703D01*
X166206918Y-103182816D01*
X166371228Y-103215499D01*
X166371232Y-103215500D01*
X166371233Y-103215500D01*
X166538768Y-103215500D01*
X166538769Y-103215499D01*
X166703082Y-103182816D01*
X166857863Y-103118703D01*
X166997162Y-103025626D01*
X167115626Y-102907162D01*
X167208703Y-102767863D01*
X167272816Y-102613082D01*
X167305500Y-102448767D01*
X167305500Y-102281233D01*
X167305344Y-102280452D01*
X167284237Y-102174332D01*
X167280636Y-102156228D01*
X190579500Y-102156228D01*
X190579500Y-102323771D01*
X190612182Y-102488074D01*
X190612184Y-102488082D01*
X190676295Y-102642860D01*
X190769373Y-102782162D01*
X190887837Y-102900626D01*
X190980494Y-102962537D01*
X191027137Y-102993703D01*
X191181918Y-103057816D01*
X191346228Y-103090499D01*
X191346232Y-103090500D01*
X191346233Y-103090500D01*
X191513768Y-103090500D01*
X191513769Y-103090499D01*
X191678082Y-103057816D01*
X191832863Y-102993703D01*
X191972162Y-102900626D01*
X192090626Y-102782162D01*
X192183703Y-102642863D01*
X192247816Y-102488082D01*
X192280500Y-102323767D01*
X192280500Y-102156233D01*
X192247816Y-101991918D01*
X192183703Y-101837137D01*
X192152537Y-101790494D01*
X192090626Y-101697837D01*
X191972162Y-101579373D01*
X191832860Y-101486295D01*
X191678082Y-101422184D01*
X191678074Y-101422182D01*
X191513771Y-101389500D01*
X191513767Y-101389500D01*
X191346233Y-101389500D01*
X191346228Y-101389500D01*
X191181925Y-101422182D01*
X191181917Y-101422184D01*
X191027139Y-101486295D01*
X190887837Y-101579373D01*
X190769373Y-101697837D01*
X190676295Y-101837139D01*
X190612184Y-101991917D01*
X190612182Y-101991925D01*
X190579500Y-102156228D01*
X167280636Y-102156228D01*
X167272817Y-102116925D01*
X167272816Y-102116918D01*
X167208703Y-101962137D01*
X167125182Y-101837139D01*
X167115626Y-101822837D01*
X166997162Y-101704373D01*
X166857860Y-101611295D01*
X166703082Y-101547184D01*
X166703074Y-101547182D01*
X166538771Y-101514500D01*
X166538767Y-101514500D01*
X166371233Y-101514500D01*
X166371228Y-101514500D01*
X166206925Y-101547182D01*
X166206917Y-101547184D01*
X166052139Y-101611295D01*
X165912837Y-101704373D01*
X165794373Y-101822837D01*
X165701295Y-101962139D01*
X165637184Y-102116917D01*
X165637182Y-102116925D01*
X165604500Y-102281228D01*
X153513000Y-102281228D01*
X153513000Y-101020350D01*
X156527000Y-101020350D01*
X156527000Y-101189649D01*
X156553481Y-101356847D01*
X156605796Y-101517853D01*
X156682652Y-101668688D01*
X156782148Y-101805634D01*
X156782152Y-101805639D01*
X156901860Y-101925347D01*
X156901865Y-101925351D01*
X156952500Y-101962139D01*
X157038815Y-102024850D01*
X157134925Y-102073820D01*
X157189646Y-102101703D01*
X157189648Y-102101703D01*
X157189651Y-102101705D01*
X157275950Y-102129745D01*
X157350652Y-102154018D01*
X157517851Y-102180500D01*
X157517856Y-102180500D01*
X157687149Y-102180500D01*
X157854347Y-102154018D01*
X158015349Y-102101705D01*
X158166185Y-102024850D01*
X158303141Y-101925346D01*
X158422846Y-101805641D01*
X158522350Y-101668685D01*
X158599205Y-101517849D01*
X158651518Y-101356847D01*
X158678000Y-101189649D01*
X158678000Y-101020350D01*
X158651518Y-100853152D01*
X158627245Y-100778450D01*
X158599205Y-100692151D01*
X158599203Y-100692148D01*
X158599203Y-100692146D01*
X158559829Y-100614871D01*
X158522350Y-100541315D01*
X158467359Y-100465626D01*
X158422851Y-100404365D01*
X158422847Y-100404360D01*
X158303139Y-100284652D01*
X158303134Y-100284648D01*
X158166188Y-100185152D01*
X158166187Y-100185151D01*
X158166185Y-100185150D01*
X158113509Y-100158310D01*
X158015353Y-100108296D01*
X157854347Y-100055981D01*
X157687149Y-100029500D01*
X157687144Y-100029500D01*
X157517856Y-100029500D01*
X157517851Y-100029500D01*
X157350652Y-100055981D01*
X157189646Y-100108296D01*
X157038811Y-100185152D01*
X156901865Y-100284648D01*
X156901860Y-100284652D01*
X156782152Y-100404360D01*
X156782148Y-100404365D01*
X156682652Y-100541311D01*
X156605796Y-100692146D01*
X156553481Y-100853152D01*
X156527000Y-101020350D01*
X153513000Y-101020350D01*
X153513000Y-99721228D01*
X165604500Y-99721228D01*
X165604500Y-99888771D01*
X165637182Y-100053074D01*
X165637184Y-100053082D01*
X165701295Y-100207860D01*
X165794373Y-100347162D01*
X165912837Y-100465626D01*
X165997683Y-100522318D01*
X166052137Y-100558703D01*
X166206918Y-100622816D01*
X166371228Y-100655499D01*
X166371232Y-100655500D01*
X166371233Y-100655500D01*
X166538768Y-100655500D01*
X166538769Y-100655499D01*
X166703082Y-100622816D01*
X166857863Y-100558703D01*
X166997162Y-100465626D01*
X167115626Y-100347162D01*
X167208703Y-100207863D01*
X167272816Y-100053082D01*
X167305500Y-99888767D01*
X167305500Y-99721233D01*
X167297619Y-99681610D01*
X167282278Y-99604483D01*
X167278677Y-99586379D01*
X190129500Y-99586379D01*
X190129500Y-99773620D01*
X190166025Y-99957243D01*
X190166027Y-99957251D01*
X190237676Y-100130228D01*
X190237681Y-100130237D01*
X190341697Y-100285907D01*
X190341700Y-100285911D01*
X190474088Y-100418299D01*
X190474092Y-100418302D01*
X190629762Y-100522318D01*
X190629771Y-100522323D01*
X190668956Y-100538554D01*
X190802749Y-100593973D01*
X190947749Y-100622815D01*
X190986379Y-100630499D01*
X190986383Y-100630500D01*
X190986384Y-100630500D01*
X191873617Y-100630500D01*
X191873618Y-100630499D01*
X192057251Y-100593973D01*
X192230231Y-100522322D01*
X192385908Y-100418302D01*
X192518302Y-100285908D01*
X192622322Y-100130231D01*
X192693973Y-99957251D01*
X192730500Y-99773616D01*
X192730500Y-99586384D01*
X192724639Y-99556917D01*
X192718829Y-99527708D01*
X192693974Y-99402756D01*
X192693973Y-99402749D01*
X192622322Y-99229769D01*
X192622321Y-99229768D01*
X192622318Y-99229762D01*
X192518302Y-99074092D01*
X192518299Y-99074088D01*
X192385911Y-98941700D01*
X192385907Y-98941697D01*
X192230237Y-98837681D01*
X192230228Y-98837676D01*
X192057251Y-98766027D01*
X192057243Y-98766025D01*
X191873620Y-98729500D01*
X191873616Y-98729500D01*
X190986384Y-98729500D01*
X190986379Y-98729500D01*
X190802756Y-98766025D01*
X190802748Y-98766027D01*
X190629771Y-98837676D01*
X190629762Y-98837681D01*
X190474092Y-98941697D01*
X190474088Y-98941700D01*
X190341700Y-99074088D01*
X190341697Y-99074092D01*
X190237681Y-99229762D01*
X190237676Y-99229771D01*
X190166027Y-99402748D01*
X190166025Y-99402756D01*
X190129500Y-99586379D01*
X167278677Y-99586379D01*
X167272817Y-99556923D01*
X167272816Y-99556922D01*
X167272816Y-99556918D01*
X167223227Y-99437201D01*
X167208704Y-99402139D01*
X167115626Y-99262837D01*
X166997162Y-99144373D01*
X166857860Y-99051295D01*
X166703082Y-98987184D01*
X166703074Y-98987182D01*
X166538771Y-98954500D01*
X166538767Y-98954500D01*
X166371233Y-98954500D01*
X166371228Y-98954500D01*
X166206925Y-98987182D01*
X166206917Y-98987184D01*
X166052139Y-99051295D01*
X165912837Y-99144373D01*
X165794373Y-99262837D01*
X165701295Y-99402139D01*
X165637184Y-99556917D01*
X165637182Y-99556925D01*
X165604500Y-99721228D01*
X153513000Y-99721228D01*
X153513000Y-98544110D01*
X153513000Y-98544108D01*
X153478892Y-98416814D01*
X153413000Y-98302686D01*
X153319814Y-98209500D01*
X153205686Y-98143608D01*
X153094405Y-98113790D01*
X153034746Y-98077426D01*
X153004217Y-98014579D01*
X153002500Y-97994016D01*
X153002500Y-96620013D01*
X156227500Y-96620013D01*
X156227500Y-97045000D01*
X157111752Y-97045000D01*
X157089982Y-97082708D01*
X157052500Y-97222591D01*
X157052500Y-97367409D01*
X157089982Y-97507292D01*
X157111752Y-97545000D01*
X156227501Y-97545000D01*
X156227501Y-97969986D01*
X156237994Y-98072697D01*
X156293141Y-98239119D01*
X156293143Y-98239124D01*
X156385184Y-98388345D01*
X156509154Y-98512315D01*
X156658375Y-98604356D01*
X156658380Y-98604358D01*
X156824802Y-98659505D01*
X156824809Y-98659506D01*
X156927519Y-98669999D01*
X157352499Y-98669999D01*
X157352500Y-98669998D01*
X157352500Y-97785747D01*
X157390208Y-97807518D01*
X157530091Y-97845000D01*
X157674909Y-97845000D01*
X157814792Y-97807518D01*
X157852500Y-97785747D01*
X157852500Y-98669999D01*
X158277472Y-98669999D01*
X158277486Y-98669998D01*
X158380197Y-98659505D01*
X158546619Y-98604358D01*
X158546624Y-98604356D01*
X158695845Y-98512315D01*
X158819815Y-98388345D01*
X158911856Y-98239124D01*
X158911858Y-98239119D01*
X158967005Y-98072697D01*
X158967006Y-98072690D01*
X158977499Y-97969986D01*
X158977500Y-97969973D01*
X158977500Y-97545000D01*
X158093248Y-97545000D01*
X158115018Y-97507292D01*
X158152500Y-97367409D01*
X158152500Y-97222591D01*
X158145476Y-97196379D01*
X165179500Y-97196379D01*
X165179500Y-97383620D01*
X165216025Y-97567243D01*
X165216027Y-97567251D01*
X165287676Y-97740228D01*
X165287681Y-97740237D01*
X165391697Y-97895907D01*
X165391700Y-97895911D01*
X165524088Y-98028299D01*
X165524092Y-98028302D01*
X165679762Y-98132318D01*
X165679768Y-98132321D01*
X165679769Y-98132322D01*
X165852749Y-98203973D01*
X166029441Y-98239119D01*
X166036379Y-98240499D01*
X166036383Y-98240500D01*
X166036384Y-98240500D01*
X166923617Y-98240500D01*
X166923618Y-98240499D01*
X167107251Y-98203973D01*
X167280231Y-98132322D01*
X167435908Y-98028302D01*
X167568302Y-97895908D01*
X167672322Y-97740231D01*
X167743973Y-97567251D01*
X167780500Y-97383616D01*
X167780500Y-97196384D01*
X167780350Y-97195630D01*
X167759237Y-97089483D01*
X167755636Y-97071379D01*
X190154500Y-97071379D01*
X190154500Y-97258620D01*
X190191025Y-97442243D01*
X190191027Y-97442251D01*
X190262676Y-97615228D01*
X190262681Y-97615237D01*
X190366697Y-97770907D01*
X190366700Y-97770911D01*
X190499088Y-97903299D01*
X190499092Y-97903302D01*
X190654762Y-98007318D01*
X190654768Y-98007321D01*
X190654769Y-98007322D01*
X190827749Y-98078973D01*
X190981220Y-98109500D01*
X191011379Y-98115499D01*
X191011383Y-98115500D01*
X191011384Y-98115500D01*
X191898617Y-98115500D01*
X191898618Y-98115499D01*
X192082251Y-98078973D01*
X192255231Y-98007322D01*
X192410908Y-97903302D01*
X192543302Y-97770908D01*
X192647322Y-97615231D01*
X192718973Y-97442251D01*
X192755500Y-97258616D01*
X192755500Y-97071384D01*
X192718973Y-96887749D01*
X192647322Y-96714769D01*
X192647321Y-96714768D01*
X192647318Y-96714762D01*
X192543302Y-96559092D01*
X192543299Y-96559088D01*
X192410911Y-96426700D01*
X192410907Y-96426697D01*
X192255237Y-96322681D01*
X192255228Y-96322676D01*
X192082251Y-96251027D01*
X192082243Y-96251025D01*
X191898620Y-96214500D01*
X191898616Y-96214500D01*
X191011384Y-96214500D01*
X191011379Y-96214500D01*
X190827756Y-96251025D01*
X190827748Y-96251027D01*
X190654771Y-96322676D01*
X190654762Y-96322681D01*
X190499092Y-96426697D01*
X190499088Y-96426700D01*
X190366700Y-96559088D01*
X190366697Y-96559092D01*
X190262681Y-96714762D01*
X190262676Y-96714771D01*
X190191027Y-96887748D01*
X190191025Y-96887756D01*
X190154500Y-97071379D01*
X167755636Y-97071379D01*
X167743974Y-97012756D01*
X167743973Y-97012749D01*
X167672322Y-96839769D01*
X167672321Y-96839768D01*
X167672318Y-96839762D01*
X167568302Y-96684092D01*
X167568299Y-96684088D01*
X167435911Y-96551700D01*
X167435907Y-96551697D01*
X167280237Y-96447681D01*
X167280228Y-96447676D01*
X167107251Y-96376027D01*
X167107243Y-96376025D01*
X166923620Y-96339500D01*
X166923616Y-96339500D01*
X166036384Y-96339500D01*
X166036379Y-96339500D01*
X165852756Y-96376025D01*
X165852748Y-96376027D01*
X165679771Y-96447676D01*
X165679762Y-96447681D01*
X165524092Y-96551697D01*
X165524088Y-96551700D01*
X165391700Y-96684088D01*
X165391697Y-96684092D01*
X165287681Y-96839762D01*
X165287676Y-96839771D01*
X165216027Y-97012748D01*
X165216025Y-97012756D01*
X165179500Y-97196379D01*
X158145476Y-97196379D01*
X158115018Y-97082708D01*
X158093248Y-97045000D01*
X158977499Y-97045000D01*
X158977499Y-96620028D01*
X158977498Y-96620013D01*
X158967005Y-96517302D01*
X158911858Y-96350880D01*
X158911856Y-96350875D01*
X158819815Y-96201654D01*
X158695845Y-96077684D01*
X158546624Y-95985643D01*
X158546619Y-95985641D01*
X158380197Y-95930494D01*
X158380190Y-95930493D01*
X158277486Y-95920000D01*
X157852500Y-95920000D01*
X157852500Y-96804252D01*
X157814792Y-96782482D01*
X157674909Y-96745000D01*
X157530091Y-96745000D01*
X157390208Y-96782482D01*
X157352500Y-96804252D01*
X157352500Y-95920000D01*
X156927528Y-95920000D01*
X156927512Y-95920001D01*
X156824802Y-95930494D01*
X156658380Y-95985641D01*
X156658375Y-95985643D01*
X156509154Y-96077684D01*
X156385184Y-96201654D01*
X156293143Y-96350875D01*
X156293141Y-96350880D01*
X156237994Y-96517302D01*
X156237993Y-96517309D01*
X156227500Y-96620013D01*
X153002500Y-96620013D01*
X153002500Y-94696379D01*
X165204500Y-94696379D01*
X165204500Y-94883620D01*
X165241025Y-95067243D01*
X165241027Y-95067251D01*
X165312676Y-95240228D01*
X165312681Y-95240237D01*
X165416697Y-95395907D01*
X165416700Y-95395911D01*
X165549088Y-95528299D01*
X165549092Y-95528302D01*
X165704762Y-95632318D01*
X165704768Y-95632321D01*
X165704769Y-95632322D01*
X165877749Y-95703973D01*
X166061379Y-95740499D01*
X166061383Y-95740500D01*
X166061384Y-95740500D01*
X166948617Y-95740500D01*
X166948618Y-95740499D01*
X167132251Y-95703973D01*
X167305231Y-95632322D01*
X167460908Y-95528302D01*
X167593302Y-95395908D01*
X167697322Y-95240231D01*
X167768973Y-95067251D01*
X167805500Y-94883616D01*
X167805500Y-94696384D01*
X167805349Y-94695628D01*
X167786196Y-94599332D01*
X167782595Y-94581228D01*
X190629500Y-94581228D01*
X190629500Y-94748771D01*
X190662182Y-94913074D01*
X190662184Y-94913082D01*
X190726295Y-95067860D01*
X190819373Y-95207162D01*
X190937837Y-95325626D01*
X191030494Y-95387537D01*
X191077137Y-95418703D01*
X191231918Y-95482816D01*
X191396228Y-95515499D01*
X191396232Y-95515500D01*
X191396233Y-95515500D01*
X191563768Y-95515500D01*
X191563769Y-95515499D01*
X191728082Y-95482816D01*
X191882863Y-95418703D01*
X192022162Y-95325626D01*
X192140626Y-95207162D01*
X192233703Y-95067863D01*
X192297816Y-94913082D01*
X192330500Y-94748767D01*
X192330500Y-94581233D01*
X192297816Y-94416918D01*
X192234889Y-94265000D01*
X192233704Y-94262139D01*
X192140626Y-94122837D01*
X192022162Y-94004373D01*
X191882860Y-93911295D01*
X191728082Y-93847184D01*
X191728074Y-93847182D01*
X191563771Y-93814500D01*
X191563767Y-93814500D01*
X191396233Y-93814500D01*
X191396228Y-93814500D01*
X191231925Y-93847182D01*
X191231917Y-93847184D01*
X191077139Y-93911295D01*
X190937837Y-94004373D01*
X190819373Y-94122837D01*
X190726295Y-94262139D01*
X190662184Y-94416917D01*
X190662182Y-94416925D01*
X190629500Y-94581228D01*
X167782595Y-94581228D01*
X167768974Y-94512756D01*
X167768973Y-94512749D01*
X167697322Y-94339769D01*
X167697321Y-94339768D01*
X167697318Y-94339762D01*
X167593302Y-94184092D01*
X167593299Y-94184088D01*
X167460911Y-94051700D01*
X167460907Y-94051697D01*
X167305237Y-93947681D01*
X167305228Y-93947676D01*
X167132251Y-93876027D01*
X167132243Y-93876025D01*
X166948620Y-93839500D01*
X166948616Y-93839500D01*
X166061384Y-93839500D01*
X166061379Y-93839500D01*
X165877756Y-93876025D01*
X165877748Y-93876027D01*
X165704771Y-93947676D01*
X165704762Y-93947681D01*
X165549092Y-94051697D01*
X165549088Y-94051700D01*
X165416700Y-94184088D01*
X165416697Y-94184092D01*
X165312681Y-94339762D01*
X165312676Y-94339771D01*
X165241027Y-94512748D01*
X165241025Y-94512756D01*
X165204500Y-94696379D01*
X153002500Y-94696379D01*
X153002500Y-94434362D01*
X153022185Y-94367323D01*
X153074989Y-94321568D01*
X153144147Y-94311624D01*
X153207703Y-94340649D01*
X153214181Y-94346681D01*
X153252500Y-94385000D01*
X162072500Y-94385000D01*
X162192500Y-94265000D01*
X162192500Y-92136379D01*
X165204500Y-92136379D01*
X165204500Y-92323620D01*
X165241025Y-92507243D01*
X165241027Y-92507251D01*
X165312676Y-92680228D01*
X165312681Y-92680237D01*
X165416697Y-92835907D01*
X165416700Y-92835911D01*
X165549088Y-92968299D01*
X165549092Y-92968302D01*
X165704762Y-93072318D01*
X165704768Y-93072321D01*
X165704769Y-93072322D01*
X165877749Y-93143973D01*
X166061379Y-93180499D01*
X166061383Y-93180500D01*
X166061384Y-93180500D01*
X166948617Y-93180500D01*
X166948618Y-93180499D01*
X167132251Y-93143973D01*
X167305231Y-93072322D01*
X167460908Y-92968302D01*
X167593302Y-92835908D01*
X167697322Y-92680231D01*
X167768973Y-92507251D01*
X167805500Y-92323616D01*
X167805500Y-92136384D01*
X167805350Y-92135630D01*
X167784237Y-92029483D01*
X167780636Y-92011379D01*
X190179500Y-92011379D01*
X190179500Y-92198620D01*
X190216025Y-92382243D01*
X190216027Y-92382251D01*
X190287676Y-92555228D01*
X190287681Y-92555237D01*
X190391697Y-92710907D01*
X190391700Y-92710911D01*
X190524088Y-92843299D01*
X190524092Y-92843302D01*
X190679762Y-92947318D01*
X190679768Y-92947321D01*
X190679769Y-92947322D01*
X190852749Y-93018973D01*
X191036379Y-93055499D01*
X191036383Y-93055500D01*
X191036384Y-93055500D01*
X191923617Y-93055500D01*
X191923618Y-93055499D01*
X192107251Y-93018973D01*
X192280231Y-92947322D01*
X192435908Y-92843302D01*
X192568302Y-92710908D01*
X192672322Y-92555231D01*
X192743973Y-92382251D01*
X192780500Y-92198616D01*
X192780500Y-92011384D01*
X192743973Y-91827749D01*
X192672322Y-91654769D01*
X192672321Y-91654768D01*
X192672318Y-91654762D01*
X192568302Y-91499092D01*
X192568299Y-91499088D01*
X192435911Y-91366700D01*
X192435907Y-91366697D01*
X192280237Y-91262681D01*
X192280228Y-91262676D01*
X192107251Y-91191027D01*
X192107243Y-91191025D01*
X191923620Y-91154500D01*
X191923616Y-91154500D01*
X191036384Y-91154500D01*
X191036379Y-91154500D01*
X190852756Y-91191025D01*
X190852748Y-91191027D01*
X190679771Y-91262676D01*
X190679762Y-91262681D01*
X190524092Y-91366697D01*
X190524088Y-91366700D01*
X190391700Y-91499088D01*
X190391697Y-91499092D01*
X190287681Y-91654762D01*
X190287676Y-91654771D01*
X190216027Y-91827748D01*
X190216025Y-91827756D01*
X190179500Y-92011379D01*
X167780636Y-92011379D01*
X167768974Y-91952756D01*
X167768973Y-91952749D01*
X167697322Y-91779769D01*
X167697321Y-91779768D01*
X167697318Y-91779762D01*
X167593302Y-91624092D01*
X167593299Y-91624088D01*
X167460911Y-91491700D01*
X167460907Y-91491697D01*
X167305237Y-91387681D01*
X167305228Y-91387676D01*
X167132251Y-91316027D01*
X167132243Y-91316025D01*
X166948620Y-91279500D01*
X166948616Y-91279500D01*
X166061384Y-91279500D01*
X166061379Y-91279500D01*
X165877756Y-91316025D01*
X165877748Y-91316027D01*
X165704771Y-91387676D01*
X165704762Y-91387681D01*
X165549092Y-91491697D01*
X165549088Y-91491700D01*
X165416700Y-91624088D01*
X165416697Y-91624092D01*
X165312681Y-91779762D01*
X165312676Y-91779771D01*
X165241027Y-91952748D01*
X165241025Y-91952756D01*
X165204500Y-92136379D01*
X162192500Y-92136379D01*
X162192500Y-89596379D01*
X165154500Y-89596379D01*
X165154500Y-89783620D01*
X165191025Y-89967243D01*
X165191027Y-89967251D01*
X165262676Y-90140228D01*
X165262681Y-90140237D01*
X165366697Y-90295907D01*
X165366700Y-90295911D01*
X165499088Y-90428299D01*
X165499092Y-90428302D01*
X165654762Y-90532318D01*
X165654768Y-90532321D01*
X165654769Y-90532322D01*
X165827749Y-90603973D01*
X166011379Y-90640499D01*
X166011383Y-90640500D01*
X166011384Y-90640500D01*
X166898617Y-90640500D01*
X166898618Y-90640499D01*
X167082251Y-90603973D01*
X167255231Y-90532322D01*
X167410908Y-90428302D01*
X167543302Y-90295908D01*
X167647322Y-90140231D01*
X167718973Y-89967251D01*
X167755500Y-89783616D01*
X167755500Y-89596384D01*
X167755350Y-89595630D01*
X167734237Y-89489483D01*
X167730636Y-89471379D01*
X190129500Y-89471379D01*
X190129500Y-89658620D01*
X190166025Y-89842243D01*
X190166027Y-89842251D01*
X190237676Y-90015228D01*
X190237681Y-90015237D01*
X190341697Y-90170907D01*
X190341700Y-90170911D01*
X190474088Y-90303299D01*
X190474092Y-90303302D01*
X190629762Y-90407318D01*
X190629768Y-90407321D01*
X190629769Y-90407322D01*
X190802749Y-90478973D01*
X190901462Y-90498608D01*
X190986379Y-90515499D01*
X190986383Y-90515500D01*
X190986384Y-90515500D01*
X191873617Y-90515500D01*
X191873618Y-90515499D01*
X192057251Y-90478973D01*
X192230231Y-90407322D01*
X192385908Y-90303302D01*
X192518302Y-90170908D01*
X192622322Y-90015231D01*
X192693973Y-89842251D01*
X192730500Y-89658616D01*
X192730500Y-89471384D01*
X192693973Y-89287749D01*
X192622322Y-89114769D01*
X192622321Y-89114768D01*
X192622318Y-89114762D01*
X192518302Y-88959092D01*
X192518299Y-88959088D01*
X192385911Y-88826700D01*
X192385907Y-88826697D01*
X192230237Y-88722681D01*
X192230228Y-88722676D01*
X192057251Y-88651027D01*
X192057243Y-88651025D01*
X191873620Y-88614500D01*
X191873616Y-88614500D01*
X190986384Y-88614500D01*
X190986379Y-88614500D01*
X190802756Y-88651025D01*
X190802748Y-88651027D01*
X190629771Y-88722676D01*
X190629762Y-88722681D01*
X190474092Y-88826697D01*
X190474088Y-88826700D01*
X190341700Y-88959088D01*
X190341697Y-88959092D01*
X190237681Y-89114762D01*
X190237676Y-89114771D01*
X190166027Y-89287748D01*
X190166025Y-89287756D01*
X190129500Y-89471379D01*
X167730636Y-89471379D01*
X167718974Y-89412756D01*
X167718973Y-89412749D01*
X167647322Y-89239769D01*
X167647321Y-89239768D01*
X167647318Y-89239762D01*
X167543302Y-89084092D01*
X167543299Y-89084088D01*
X167410911Y-88951700D01*
X167410907Y-88951697D01*
X167255237Y-88847681D01*
X167255228Y-88847676D01*
X167082251Y-88776027D01*
X167082243Y-88776025D01*
X166898620Y-88739500D01*
X166898616Y-88739500D01*
X166011384Y-88739500D01*
X166011379Y-88739500D01*
X165827756Y-88776025D01*
X165827748Y-88776027D01*
X165654771Y-88847676D01*
X165654762Y-88847681D01*
X165499092Y-88951697D01*
X165499088Y-88951700D01*
X165366700Y-89084088D01*
X165366697Y-89084092D01*
X165262681Y-89239762D01*
X165262676Y-89239771D01*
X165191027Y-89412748D01*
X165191025Y-89412756D01*
X165154500Y-89596379D01*
X162192500Y-89596379D01*
X162192500Y-86961379D01*
X165154500Y-86961379D01*
X165154500Y-87148620D01*
X165191025Y-87332243D01*
X165191027Y-87332251D01*
X165262676Y-87505228D01*
X165262681Y-87505237D01*
X165366697Y-87660907D01*
X165366700Y-87660911D01*
X165499088Y-87793299D01*
X165499092Y-87793302D01*
X165654762Y-87897318D01*
X165654768Y-87897321D01*
X165654769Y-87897322D01*
X165827749Y-87968973D01*
X166011379Y-88005499D01*
X166011383Y-88005500D01*
X166011384Y-88005500D01*
X166898617Y-88005500D01*
X166898618Y-88005499D01*
X167082251Y-87968973D01*
X167255231Y-87897322D01*
X167410908Y-87793302D01*
X167543302Y-87660908D01*
X167647322Y-87505231D01*
X167649858Y-87499108D01*
X172092000Y-87499108D01*
X172092000Y-87630892D01*
X172105397Y-87680890D01*
X172126108Y-87758187D01*
X172146382Y-87793302D01*
X172192000Y-87872314D01*
X172285186Y-87965500D01*
X172384021Y-88022563D01*
X172393925Y-88028281D01*
X172399314Y-88031392D01*
X172526608Y-88065500D01*
X172526610Y-88065500D01*
X172658390Y-88065500D01*
X172658392Y-88065500D01*
X172785686Y-88031392D01*
X172785694Y-88031387D01*
X172793196Y-88028281D01*
X172793749Y-88029618D01*
X172846437Y-88015500D01*
X186121960Y-88015500D01*
X186183960Y-88032113D01*
X186269314Y-88081392D01*
X186396608Y-88115500D01*
X186396610Y-88115500D01*
X186528390Y-88115500D01*
X186528392Y-88115500D01*
X186655686Y-88081392D01*
X186769814Y-88015500D01*
X186863000Y-87922314D01*
X186928892Y-87808186D01*
X186963000Y-87680892D01*
X186963000Y-87549108D01*
X186928892Y-87421814D01*
X186863000Y-87307686D01*
X186769814Y-87214500D01*
X186712750Y-87181554D01*
X186655687Y-87148608D01*
X186592039Y-87131554D01*
X186528392Y-87114500D01*
X186528391Y-87114500D01*
X172846437Y-87114500D01*
X172810569Y-87109199D01*
X172796849Y-87105053D01*
X172785686Y-87098608D01*
X172658392Y-87064500D01*
X172526608Y-87064500D01*
X172399312Y-87098608D01*
X172285186Y-87164500D01*
X172285183Y-87164502D01*
X172192002Y-87257683D01*
X172192000Y-87257686D01*
X172126108Y-87371812D01*
X172106892Y-87443528D01*
X172092000Y-87499108D01*
X167649858Y-87499108D01*
X167718973Y-87332251D01*
X167755500Y-87148616D01*
X167755500Y-86961384D01*
X167755499Y-86961379D01*
X190154500Y-86961379D01*
X190154500Y-87148620D01*
X190191025Y-87332243D01*
X190191027Y-87332251D01*
X190262676Y-87505228D01*
X190262681Y-87505237D01*
X190366697Y-87660907D01*
X190366700Y-87660911D01*
X190499088Y-87793299D01*
X190499092Y-87793302D01*
X190654762Y-87897318D01*
X190654768Y-87897321D01*
X190654769Y-87897322D01*
X190827749Y-87968973D01*
X191011379Y-88005499D01*
X191011383Y-88005500D01*
X191011384Y-88005500D01*
X191898617Y-88005500D01*
X191898618Y-88005499D01*
X192082251Y-87968973D01*
X192255231Y-87897322D01*
X192410908Y-87793302D01*
X192543302Y-87660908D01*
X192647322Y-87505231D01*
X192718973Y-87332251D01*
X192755500Y-87148616D01*
X192755500Y-86961384D01*
X192718973Y-86777749D01*
X192647322Y-86604769D01*
X192647321Y-86604768D01*
X192647318Y-86604762D01*
X192543302Y-86449092D01*
X192543299Y-86449088D01*
X192410911Y-86316700D01*
X192410907Y-86316697D01*
X192255237Y-86212681D01*
X192255228Y-86212676D01*
X192082251Y-86141027D01*
X192082243Y-86141025D01*
X191898620Y-86104500D01*
X191898616Y-86104500D01*
X191011384Y-86104500D01*
X191011379Y-86104500D01*
X190827756Y-86141025D01*
X190827748Y-86141027D01*
X190654771Y-86212676D01*
X190654762Y-86212681D01*
X190499092Y-86316697D01*
X190499088Y-86316700D01*
X190366700Y-86449088D01*
X190366697Y-86449092D01*
X190262681Y-86604762D01*
X190262676Y-86604771D01*
X190191027Y-86777748D01*
X190191025Y-86777756D01*
X190154500Y-86961379D01*
X167755499Y-86961379D01*
X167718973Y-86777749D01*
X167647322Y-86604769D01*
X167647321Y-86604768D01*
X167647318Y-86604762D01*
X167543302Y-86449092D01*
X167543299Y-86449088D01*
X167410911Y-86316700D01*
X167410907Y-86316697D01*
X167255237Y-86212681D01*
X167255228Y-86212676D01*
X167082251Y-86141027D01*
X167082243Y-86141025D01*
X166898620Y-86104500D01*
X166898616Y-86104500D01*
X166011384Y-86104500D01*
X166011379Y-86104500D01*
X165827756Y-86141025D01*
X165827748Y-86141027D01*
X165654771Y-86212676D01*
X165654762Y-86212681D01*
X165499092Y-86316697D01*
X165499088Y-86316700D01*
X165366700Y-86449088D01*
X165366697Y-86449092D01*
X165262681Y-86604762D01*
X165262676Y-86604771D01*
X165191027Y-86777748D01*
X165191025Y-86777756D01*
X165154500Y-86961379D01*
X162192500Y-86961379D01*
X162192500Y-86356362D01*
X162212185Y-86289323D01*
X162228819Y-86268681D01*
X163776181Y-84721319D01*
X163837504Y-84687834D01*
X163863862Y-84685000D01*
X164012500Y-84685000D01*
X164012500Y-84401379D01*
X165154500Y-84401379D01*
X165154500Y-84588620D01*
X165191025Y-84772243D01*
X165191027Y-84772251D01*
X165262676Y-84945228D01*
X165262681Y-84945237D01*
X165366697Y-85100907D01*
X165366700Y-85100911D01*
X165499088Y-85233299D01*
X165499092Y-85233302D01*
X165654762Y-85337318D01*
X165654768Y-85337321D01*
X165654769Y-85337322D01*
X165827749Y-85408973D01*
X166011379Y-85445499D01*
X166011383Y-85445500D01*
X166011384Y-85445500D01*
X166898617Y-85445500D01*
X166898618Y-85445499D01*
X167082251Y-85408973D01*
X167255231Y-85337322D01*
X167410908Y-85233302D01*
X167543302Y-85100908D01*
X167647322Y-84945231D01*
X167718973Y-84772251D01*
X167755500Y-84588616D01*
X167755500Y-84411228D01*
X190604500Y-84411228D01*
X190604500Y-84578771D01*
X190637182Y-84743074D01*
X190637184Y-84743082D01*
X190701295Y-84897860D01*
X190794373Y-85037162D01*
X190912837Y-85155626D01*
X191005494Y-85217537D01*
X191052137Y-85248703D01*
X191206918Y-85312816D01*
X191371228Y-85345499D01*
X191371232Y-85345500D01*
X191371233Y-85345500D01*
X191538768Y-85345500D01*
X191538769Y-85345499D01*
X191703082Y-85312816D01*
X191857863Y-85248703D01*
X191997162Y-85155626D01*
X192115626Y-85037162D01*
X192208703Y-84897863D01*
X192272816Y-84743082D01*
X192305500Y-84578767D01*
X192305500Y-84411233D01*
X192272816Y-84246918D01*
X192208703Y-84092137D01*
X192177048Y-84044762D01*
X192115626Y-83952837D01*
X191997162Y-83834373D01*
X191857860Y-83741295D01*
X191703082Y-83677184D01*
X191703074Y-83677182D01*
X191538771Y-83644500D01*
X191538767Y-83644500D01*
X191371233Y-83644500D01*
X191371228Y-83644500D01*
X191206925Y-83677182D01*
X191206917Y-83677184D01*
X191052139Y-83741295D01*
X190912837Y-83834373D01*
X190794373Y-83952837D01*
X190701295Y-84092139D01*
X190637184Y-84246917D01*
X190637182Y-84246925D01*
X190604500Y-84411228D01*
X167755500Y-84411228D01*
X167755500Y-84401384D01*
X167718973Y-84217749D01*
X167647322Y-84044769D01*
X167647321Y-84044768D01*
X167647318Y-84044762D01*
X167543302Y-83889092D01*
X167543299Y-83889088D01*
X167410911Y-83756700D01*
X167410907Y-83756697D01*
X167255237Y-83652681D01*
X167255228Y-83652676D01*
X167082251Y-83581027D01*
X167082243Y-83581025D01*
X166898620Y-83544500D01*
X166898616Y-83544500D01*
X166011384Y-83544500D01*
X166011379Y-83544500D01*
X165827756Y-83581025D01*
X165827748Y-83581027D01*
X165654771Y-83652676D01*
X165654762Y-83652681D01*
X165499092Y-83756697D01*
X165499088Y-83756700D01*
X165366700Y-83889088D01*
X165366697Y-83889092D01*
X165262681Y-84044762D01*
X165262676Y-84044771D01*
X165191027Y-84217748D01*
X165191025Y-84217756D01*
X165154500Y-84401379D01*
X164012500Y-84401379D01*
X164012500Y-81871228D01*
X165554500Y-81871228D01*
X165554500Y-82038771D01*
X165587182Y-82203074D01*
X165587184Y-82203082D01*
X165651295Y-82357860D01*
X165744373Y-82497162D01*
X165862837Y-82615626D01*
X165955494Y-82677537D01*
X166002137Y-82708703D01*
X166156918Y-82772816D01*
X166321228Y-82805499D01*
X166321232Y-82805500D01*
X166321233Y-82805500D01*
X166488768Y-82805500D01*
X166488769Y-82805499D01*
X166653082Y-82772816D01*
X166807863Y-82708703D01*
X166947162Y-82615626D01*
X167065626Y-82497162D01*
X167158703Y-82357863D01*
X167222816Y-82203082D01*
X167255500Y-82038767D01*
X167255500Y-81871233D01*
X167255499Y-81871228D01*
X190554500Y-81871228D01*
X190554500Y-82038771D01*
X190587182Y-82203074D01*
X190587184Y-82203082D01*
X190651295Y-82357860D01*
X190744373Y-82497162D01*
X190862837Y-82615626D01*
X190955494Y-82677537D01*
X191002137Y-82708703D01*
X191156918Y-82772816D01*
X191321228Y-82805499D01*
X191321232Y-82805500D01*
X191321233Y-82805500D01*
X191488768Y-82805500D01*
X191488769Y-82805499D01*
X191653082Y-82772816D01*
X191807863Y-82708703D01*
X191947162Y-82615626D01*
X192065626Y-82497162D01*
X192158703Y-82357863D01*
X192222816Y-82203082D01*
X192255500Y-82038767D01*
X192255500Y-81871233D01*
X192222816Y-81706918D01*
X192158703Y-81552137D01*
X192127537Y-81505494D01*
X192065626Y-81412837D01*
X191947162Y-81294373D01*
X191807860Y-81201295D01*
X191653082Y-81137184D01*
X191653074Y-81137182D01*
X191488771Y-81104500D01*
X191488767Y-81104500D01*
X191321233Y-81104500D01*
X191321228Y-81104500D01*
X191156925Y-81137182D01*
X191156917Y-81137184D01*
X191002139Y-81201295D01*
X190862837Y-81294373D01*
X190744373Y-81412837D01*
X190651295Y-81552139D01*
X190587184Y-81706917D01*
X190587182Y-81706925D01*
X190554500Y-81871228D01*
X167255499Y-81871228D01*
X167222816Y-81706918D01*
X167158703Y-81552137D01*
X167127537Y-81505494D01*
X167065626Y-81412837D01*
X166947162Y-81294373D01*
X166807860Y-81201295D01*
X166653082Y-81137184D01*
X166653074Y-81137182D01*
X166488771Y-81104500D01*
X166488767Y-81104500D01*
X166321233Y-81104500D01*
X166321228Y-81104500D01*
X166156925Y-81137182D01*
X166156917Y-81137184D01*
X166002139Y-81201295D01*
X165862837Y-81294373D01*
X165744373Y-81412837D01*
X165651295Y-81552139D01*
X165587184Y-81706917D01*
X165587182Y-81706925D01*
X165554500Y-81871228D01*
X164012500Y-81871228D01*
X164012500Y-79311228D01*
X165554500Y-79311228D01*
X165554500Y-79478771D01*
X165587182Y-79643074D01*
X165587184Y-79643082D01*
X165651295Y-79797860D01*
X165744373Y-79937162D01*
X165862837Y-80055626D01*
X165955494Y-80117537D01*
X166002137Y-80148703D01*
X166156918Y-80212816D01*
X166321228Y-80245499D01*
X166321232Y-80245500D01*
X166321233Y-80245500D01*
X166488768Y-80245500D01*
X166488769Y-80245499D01*
X166653082Y-80212816D01*
X166807863Y-80148703D01*
X166947162Y-80055626D01*
X167065626Y-79937162D01*
X167158703Y-79797863D01*
X167222816Y-79643082D01*
X167255500Y-79478767D01*
X167255500Y-79311233D01*
X167222816Y-79146918D01*
X167158703Y-78992137D01*
X167116236Y-78928581D01*
X167065626Y-78852837D01*
X166947162Y-78734373D01*
X166807860Y-78641295D01*
X166653082Y-78577184D01*
X166653074Y-78577182D01*
X166488771Y-78544500D01*
X166488767Y-78544500D01*
X166321233Y-78544500D01*
X166321228Y-78544500D01*
X166156925Y-78577182D01*
X166156917Y-78577184D01*
X166002139Y-78641295D01*
X165862837Y-78734373D01*
X165744373Y-78852837D01*
X165651295Y-78992139D01*
X165587184Y-79146917D01*
X165587182Y-79146925D01*
X165554500Y-79311228D01*
X164012500Y-79311228D01*
X164012500Y-76786379D01*
X165129500Y-76786379D01*
X165129500Y-76973620D01*
X165166025Y-77157243D01*
X165166027Y-77157251D01*
X165237676Y-77330228D01*
X165237681Y-77330237D01*
X165341697Y-77485907D01*
X165341700Y-77485911D01*
X165474088Y-77618299D01*
X165474092Y-77618302D01*
X165629762Y-77722318D01*
X165629768Y-77722321D01*
X165629769Y-77722322D01*
X165802749Y-77793973D01*
X165986379Y-77830499D01*
X165986383Y-77830500D01*
X165986384Y-77830500D01*
X166873617Y-77830500D01*
X166873618Y-77830499D01*
X167057251Y-77793973D01*
X167230231Y-77722322D01*
X167385908Y-77618302D01*
X167518302Y-77485908D01*
X167622322Y-77330231D01*
X167693973Y-77157251D01*
X167730500Y-76973616D01*
X167730500Y-76786384D01*
X167693973Y-76602749D01*
X167625921Y-76438457D01*
X167622323Y-76429771D01*
X167622318Y-76429762D01*
X167518302Y-76274092D01*
X167518299Y-76274088D01*
X167385911Y-76141700D01*
X167385907Y-76141697D01*
X167230237Y-76037681D01*
X167230228Y-76037676D01*
X167057251Y-75966027D01*
X167057243Y-75966025D01*
X166873620Y-75929500D01*
X166873616Y-75929500D01*
X165986384Y-75929500D01*
X165986379Y-75929500D01*
X165802756Y-75966025D01*
X165802748Y-75966027D01*
X165629771Y-76037676D01*
X165629762Y-76037681D01*
X165474092Y-76141697D01*
X165474088Y-76141700D01*
X165341700Y-76274088D01*
X165341697Y-76274092D01*
X165237681Y-76429762D01*
X165237676Y-76429771D01*
X165166027Y-76602748D01*
X165166025Y-76602756D01*
X165129500Y-76786379D01*
X164012500Y-76786379D01*
X164012500Y-74236228D01*
X165579500Y-74236228D01*
X165579500Y-74403771D01*
X165612182Y-74568074D01*
X165612184Y-74568082D01*
X165676295Y-74722860D01*
X165769373Y-74862162D01*
X165887837Y-74980626D01*
X165925823Y-75006007D01*
X166027137Y-75073703D01*
X166181918Y-75137816D01*
X166346228Y-75170499D01*
X166346232Y-75170500D01*
X166346233Y-75170500D01*
X166513768Y-75170500D01*
X166513769Y-75170499D01*
X166678082Y-75137816D01*
X166832863Y-75073703D01*
X166964115Y-74986003D01*
X176762000Y-74986003D01*
X176762000Y-75123996D01*
X176779617Y-75212559D01*
X176782000Y-75236751D01*
X176782000Y-75736006D01*
X176782000Y-75873994D01*
X176782000Y-75873996D01*
X176781999Y-75873996D01*
X176808918Y-76009322D01*
X176808921Y-76009332D01*
X176861722Y-76136807D01*
X176916891Y-76219373D01*
X176938386Y-76251543D01*
X177258386Y-76571542D01*
X177318761Y-76631917D01*
X177355959Y-76669115D01*
X177470682Y-76745771D01*
X177470686Y-76745773D01*
X177470689Y-76745775D01*
X177545366Y-76776707D01*
X177598171Y-76798580D01*
X177625091Y-76803934D01*
X177722130Y-76823237D01*
X177733506Y-76825500D01*
X177733507Y-76825500D01*
X179273507Y-76825500D01*
X185030981Y-76825500D01*
X185098020Y-76845185D01*
X185118662Y-76861819D01*
X185755681Y-77498838D01*
X185789166Y-77560161D01*
X185792000Y-77586519D01*
X185792000Y-78106006D01*
X185792000Y-78106007D01*
X185792000Y-78243993D01*
X185792000Y-78243995D01*
X185791999Y-78243995D01*
X185818918Y-78379322D01*
X185818921Y-78379332D01*
X185871721Y-78506804D01*
X185871728Y-78506817D01*
X185948385Y-78621541D01*
X185948388Y-78621545D01*
X186045954Y-78719111D01*
X186045958Y-78719114D01*
X186160682Y-78795771D01*
X186160695Y-78795778D01*
X186288167Y-78848578D01*
X186288172Y-78848580D01*
X186288176Y-78848580D01*
X186288177Y-78848581D01*
X186423504Y-78875500D01*
X186423507Y-78875500D01*
X190514030Y-78875500D01*
X190581069Y-78895185D01*
X190626824Y-78947989D01*
X190636768Y-79017147D01*
X190628591Y-79046953D01*
X190587184Y-79146917D01*
X190587182Y-79146925D01*
X190554500Y-79311228D01*
X190554500Y-79478771D01*
X190587182Y-79643074D01*
X190587184Y-79643082D01*
X190651295Y-79797860D01*
X190744373Y-79937162D01*
X190862837Y-80055626D01*
X190955494Y-80117537D01*
X191002137Y-80148703D01*
X191156918Y-80212816D01*
X191321228Y-80245499D01*
X191321232Y-80245500D01*
X191321233Y-80245500D01*
X191488768Y-80245500D01*
X191488769Y-80245499D01*
X191653082Y-80212816D01*
X191807863Y-80148703D01*
X191947162Y-80055626D01*
X192065626Y-79937162D01*
X192158703Y-79797863D01*
X192222816Y-79643082D01*
X192255500Y-79478767D01*
X192255500Y-79311233D01*
X192222816Y-79146918D01*
X192181409Y-79046953D01*
X192173940Y-78977483D01*
X192205215Y-78915004D01*
X192265304Y-78879352D01*
X192295970Y-78875500D01*
X193585359Y-78875500D01*
X193632811Y-78884939D01*
X193738167Y-78928578D01*
X193738172Y-78928580D01*
X193738176Y-78928580D01*
X193738177Y-78928581D01*
X193873503Y-78955500D01*
X193873506Y-78955500D01*
X194011496Y-78955500D01*
X194102540Y-78937389D01*
X194146828Y-78928580D01*
X194227451Y-78895185D01*
X194274307Y-78875777D01*
X194274308Y-78875776D01*
X194274311Y-78875775D01*
X194389043Y-78799114D01*
X194961315Y-78226840D01*
X195022636Y-78193357D01*
X195024702Y-78192926D01*
X195096828Y-78178580D01*
X195224311Y-78125775D01*
X195339042Y-78049114D01*
X195436614Y-77951542D01*
X195513275Y-77836811D01*
X195566080Y-77709328D01*
X195574889Y-77665041D01*
X195593000Y-77573995D01*
X195593000Y-77242139D01*
X195602439Y-77194686D01*
X195646080Y-77089328D01*
X195669097Y-76973616D01*
X195673000Y-76953996D01*
X195673000Y-76816003D01*
X195646081Y-76680677D01*
X195646080Y-76680676D01*
X195646080Y-76680672D01*
X195641293Y-76669114D01*
X195593277Y-76553192D01*
X195516612Y-76438454D01*
X195419045Y-76340887D01*
X195304307Y-76264222D01*
X195176832Y-76211421D01*
X195176822Y-76211418D01*
X195041496Y-76184500D01*
X195041494Y-76184500D01*
X194903506Y-76184500D01*
X194903504Y-76184500D01*
X194768177Y-76211418D01*
X194768167Y-76211421D01*
X194640692Y-76264222D01*
X194525954Y-76340887D01*
X194348387Y-76518454D01*
X194271722Y-76633192D01*
X194218921Y-76760667D01*
X194218918Y-76760679D01*
X194194344Y-76884221D01*
X194192000Y-76896005D01*
X194192000Y-76963481D01*
X194172315Y-77030520D01*
X194155681Y-77051162D01*
X193768662Y-77438181D01*
X193707339Y-77471666D01*
X193680981Y-77474500D01*
X192287643Y-77474500D01*
X192220604Y-77454815D01*
X192174849Y-77402011D01*
X192164905Y-77332853D01*
X192181802Y-77288747D01*
X192180834Y-77288230D01*
X192183697Y-77282870D01*
X192183703Y-77282863D01*
X192247816Y-77128082D01*
X192280500Y-76963767D01*
X192280500Y-76796233D01*
X192247816Y-76631918D01*
X192183703Y-76477137D01*
X192152048Y-76429762D01*
X192090626Y-76337837D01*
X191972162Y-76219373D01*
X191832860Y-76126295D01*
X191678082Y-76062184D01*
X191678074Y-76062182D01*
X191513771Y-76029500D01*
X191513767Y-76029500D01*
X191346233Y-76029500D01*
X191346228Y-76029500D01*
X191181925Y-76062182D01*
X191181917Y-76062184D01*
X191027139Y-76126295D01*
X190887837Y-76219373D01*
X190769373Y-76337837D01*
X190676295Y-76477139D01*
X190612184Y-76631917D01*
X190612182Y-76631925D01*
X190579500Y-76796228D01*
X190579500Y-76963771D01*
X190612182Y-77128074D01*
X190612184Y-77128082D01*
X190676296Y-77282861D01*
X190679166Y-77288230D01*
X190677768Y-77288976D01*
X190696337Y-77348296D01*
X190677847Y-77415675D01*
X190625865Y-77462361D01*
X190572357Y-77474500D01*
X187317000Y-77474500D01*
X187249961Y-77454815D01*
X187204206Y-77402011D01*
X187193000Y-77350500D01*
X187193000Y-77176004D01*
X187169464Y-77057686D01*
X187166080Y-77040671D01*
X187146573Y-76993577D01*
X187113276Y-76913190D01*
X187036612Y-76798454D01*
X185819045Y-75580887D01*
X185704307Y-75504222D01*
X185576832Y-75451421D01*
X185576822Y-75451418D01*
X185441496Y-75424500D01*
X185441494Y-75424500D01*
X185441493Y-75424500D01*
X179411493Y-75424500D01*
X178307000Y-75424500D01*
X178239961Y-75404815D01*
X178194206Y-75352011D01*
X178183000Y-75300500D01*
X178183000Y-75006004D01*
X178182999Y-75006002D01*
X178156082Y-74870681D01*
X178156077Y-74870663D01*
X178154844Y-74867687D01*
X178154841Y-74867681D01*
X178143160Y-74839482D01*
X178103275Y-74743189D01*
X178026614Y-74628457D01*
X178026612Y-74628454D01*
X177909045Y-74510887D01*
X177794307Y-74434222D01*
X177666832Y-74381421D01*
X177666822Y-74381418D01*
X177531496Y-74354500D01*
X177531494Y-74354500D01*
X177393506Y-74354500D01*
X177393504Y-74354500D01*
X177258177Y-74381418D01*
X177258167Y-74381421D01*
X177130692Y-74434222D01*
X177015954Y-74510887D01*
X176918387Y-74608454D01*
X176841722Y-74723192D01*
X176788921Y-74850667D01*
X176788918Y-74850677D01*
X176762000Y-74986003D01*
X166964115Y-74986003D01*
X166972162Y-74980626D01*
X166972165Y-74980623D01*
X167060556Y-74892233D01*
X167090623Y-74862165D01*
X167090626Y-74862162D01*
X167098307Y-74850667D01*
X167183703Y-74722863D01*
X167247816Y-74568082D01*
X167280500Y-74403767D01*
X167280500Y-74236233D01*
X167278540Y-74226379D01*
X190129500Y-74226379D01*
X190129500Y-74413620D01*
X190166025Y-74597243D01*
X190166027Y-74597251D01*
X190237676Y-74770228D01*
X190237681Y-74770237D01*
X190341697Y-74925907D01*
X190341700Y-74925911D01*
X190474088Y-75058299D01*
X190474092Y-75058302D01*
X190629762Y-75162318D01*
X190629768Y-75162321D01*
X190629769Y-75162322D01*
X190802749Y-75233973D01*
X190986379Y-75270499D01*
X190986383Y-75270500D01*
X190986384Y-75270500D01*
X191873617Y-75270500D01*
X191873618Y-75270499D01*
X192057251Y-75233973D01*
X192230231Y-75162322D01*
X192385908Y-75058302D01*
X192518302Y-74925908D01*
X192622322Y-74770231D01*
X192693973Y-74597251D01*
X192730500Y-74413616D01*
X192730500Y-74226384D01*
X192693973Y-74042749D01*
X192622322Y-73869769D01*
X192622321Y-73869768D01*
X192622318Y-73869762D01*
X192518302Y-73714092D01*
X192518299Y-73714088D01*
X192385911Y-73581700D01*
X192385907Y-73581697D01*
X192230237Y-73477681D01*
X192230228Y-73477676D01*
X192057251Y-73406027D01*
X192057243Y-73406025D01*
X191873620Y-73369500D01*
X191873616Y-73369500D01*
X190986384Y-73369500D01*
X190986379Y-73369500D01*
X190802756Y-73406025D01*
X190802748Y-73406027D01*
X190629771Y-73477676D01*
X190629762Y-73477681D01*
X190474092Y-73581697D01*
X190474088Y-73581700D01*
X190341700Y-73714088D01*
X190341697Y-73714092D01*
X190237681Y-73869762D01*
X190237676Y-73869771D01*
X190166027Y-74042748D01*
X190166025Y-74042756D01*
X190129500Y-74226379D01*
X167278540Y-74226379D01*
X167247816Y-74071918D01*
X167183703Y-73917137D01*
X167152048Y-73869762D01*
X167090626Y-73777837D01*
X166972162Y-73659373D01*
X166832860Y-73566295D01*
X166678082Y-73502184D01*
X166678074Y-73502182D01*
X166513771Y-73469500D01*
X166513767Y-73469500D01*
X166346233Y-73469500D01*
X166346228Y-73469500D01*
X166181925Y-73502182D01*
X166181917Y-73502184D01*
X166027139Y-73566295D01*
X165887837Y-73659373D01*
X165769373Y-73777837D01*
X165676295Y-73917139D01*
X165612184Y-74071917D01*
X165612182Y-74071925D01*
X165579500Y-74236228D01*
X164012500Y-74236228D01*
X164012500Y-69537500D01*
X163892500Y-69417500D01*
X153637000Y-69417500D01*
X153569961Y-69397815D01*
X153524206Y-69345011D01*
X153513000Y-69293500D01*
X153513000Y-66477890D01*
X153532685Y-66410851D01*
X153585489Y-66365096D01*
X153654647Y-66355152D01*
X153718203Y-66384177D01*
X153736765Y-66404250D01*
X153790350Y-66476856D01*
X153899618Y-66557499D01*
X153942345Y-66572450D01*
X154027799Y-66602352D01*
X154058230Y-66605206D01*
X154058234Y-66605206D01*
X155666770Y-66605206D01*
X155697199Y-66602352D01*
X155697201Y-66602352D01*
X155761290Y-66579925D01*
X155825382Y-66557499D01*
X155934650Y-66476856D01*
X156015293Y-66367588D01*
X156040935Y-66294306D01*
X156060146Y-66239407D01*
X156060146Y-66239405D01*
X156063000Y-66208975D01*
X156063000Y-65310219D01*
X161282000Y-65310219D01*
X161282000Y-65499192D01*
X161311559Y-65685824D01*
X161369954Y-65865542D01*
X161455740Y-66033905D01*
X161566810Y-66186779D01*
X161700427Y-66320396D01*
X161853301Y-66431466D01*
X161932847Y-66471996D01*
X162021663Y-66517251D01*
X162021665Y-66517251D01*
X162021668Y-66517253D01*
X162117997Y-66548552D01*
X162201381Y-66575646D01*
X162388014Y-66605206D01*
X162388019Y-66605206D01*
X162576986Y-66605206D01*
X162763618Y-66575646D01*
X162819471Y-66557498D01*
X162943332Y-66517253D01*
X163111699Y-66431466D01*
X163264573Y-66320396D01*
X163398190Y-66186779D01*
X163509260Y-66033905D01*
X163595047Y-65865538D01*
X163653440Y-65685824D01*
X163683000Y-65499192D01*
X163683000Y-65310219D01*
X163653440Y-65123587D01*
X163642299Y-65089300D01*
X163632489Y-65059108D01*
X179482000Y-65059108D01*
X179482000Y-65190892D01*
X179494672Y-65238186D01*
X179516108Y-65318187D01*
X179516223Y-65318386D01*
X179582000Y-65432314D01*
X179675186Y-65525500D01*
X179789314Y-65591392D01*
X179789316Y-65591392D01*
X179796826Y-65594504D01*
X179796271Y-65595841D01*
X179801804Y-65599035D01*
X179815256Y-65601962D01*
X179843510Y-65623113D01*
X179965681Y-65745284D01*
X179999166Y-65806607D01*
X180002000Y-65832965D01*
X180002000Y-69481062D01*
X179987883Y-69533751D01*
X179989219Y-69534304D01*
X179986108Y-69541814D01*
X179952000Y-69669108D01*
X179952000Y-69800892D01*
X179969054Y-69864539D01*
X179986108Y-69928187D01*
X180003429Y-69958187D01*
X180052000Y-70042314D01*
X180145186Y-70135500D01*
X180259314Y-70201392D01*
X180386608Y-70235500D01*
X180386610Y-70235500D01*
X180518390Y-70235500D01*
X180518392Y-70235500D01*
X180645686Y-70201392D01*
X180759814Y-70135500D01*
X180829963Y-70065350D01*
X180891282Y-70031868D01*
X180960974Y-70036852D01*
X181004084Y-70068735D01*
X181006253Y-70066567D01*
X181011999Y-70072313D01*
X181012000Y-70072314D01*
X181105186Y-70165500D01*
X181219314Y-70231392D01*
X181346608Y-70265500D01*
X181346610Y-70265500D01*
X181478390Y-70265500D01*
X181478392Y-70265500D01*
X181605686Y-70231392D01*
X181719814Y-70165500D01*
X181813000Y-70072314D01*
X181878892Y-69958186D01*
X181913000Y-69830892D01*
X181913000Y-69699108D01*
X181878892Y-69571814D01*
X181878888Y-69571807D01*
X181875781Y-69564304D01*
X181877116Y-69563751D01*
X181863000Y-69511062D01*
X181863000Y-66422594D01*
X181867225Y-66390500D01*
X181893000Y-66294309D01*
X181893000Y-65298936D01*
X181907118Y-65246246D01*
X181905782Y-65245693D01*
X181908888Y-65238192D01*
X181908892Y-65238186D01*
X181943000Y-65110892D01*
X181943000Y-64979108D01*
X181908892Y-64851814D01*
X181843000Y-64737686D01*
X181749814Y-64644500D01*
X181673493Y-64600436D01*
X181635687Y-64578608D01*
X181572039Y-64561554D01*
X181508392Y-64544500D01*
X181376608Y-64544500D01*
X181249312Y-64578608D01*
X181135186Y-64644500D01*
X181135183Y-64644502D01*
X181042002Y-64737683D01*
X181042000Y-64737686D01*
X180976108Y-64851812D01*
X180942000Y-64979108D01*
X180942000Y-65110893D01*
X180945395Y-65123563D01*
X180943732Y-65193413D01*
X180904568Y-65251275D01*
X180840339Y-65278778D01*
X180771437Y-65267191D01*
X180737939Y-65243336D01*
X180480613Y-64986010D01*
X180453341Y-64938771D01*
X180452004Y-64939326D01*
X180448892Y-64931815D01*
X180448892Y-64931814D01*
X180383000Y-64817686D01*
X180289814Y-64724500D01*
X180232750Y-64691554D01*
X180175687Y-64658608D01*
X180112039Y-64641554D01*
X180048392Y-64624500D01*
X179916608Y-64624500D01*
X179789312Y-64658608D01*
X179675186Y-64724500D01*
X179675183Y-64724502D01*
X179582002Y-64817683D01*
X179582000Y-64817686D01*
X179516108Y-64931812D01*
X179503435Y-64979110D01*
X179482000Y-65059108D01*
X163632489Y-65059108D01*
X163595045Y-64943869D01*
X163530751Y-64817686D01*
X163509260Y-64775507D01*
X163398190Y-64622633D01*
X163264573Y-64489016D01*
X163111699Y-64377946D01*
X162943336Y-64292160D01*
X162763618Y-64233765D01*
X162576986Y-64204206D01*
X162576981Y-64204206D01*
X162388019Y-64204206D01*
X162388014Y-64204206D01*
X162201381Y-64233765D01*
X162021663Y-64292160D01*
X161853300Y-64377946D01*
X161766079Y-64441316D01*
X161700427Y-64489016D01*
X161700425Y-64489018D01*
X161700424Y-64489018D01*
X161566812Y-64622630D01*
X161566812Y-64622631D01*
X161566810Y-64622633D01*
X161540673Y-64658608D01*
X161455740Y-64775506D01*
X161369954Y-64943869D01*
X161311559Y-65123587D01*
X161282000Y-65310219D01*
X156063000Y-65310219D01*
X156063000Y-64600436D01*
X156060146Y-64570006D01*
X156060146Y-64570004D01*
X156015293Y-64441825D01*
X156015292Y-64441823D01*
X155934650Y-64332556D01*
X155825382Y-64251913D01*
X155825380Y-64251912D01*
X155697200Y-64207059D01*
X155666770Y-64204206D01*
X155666766Y-64204206D01*
X154058234Y-64204206D01*
X154058230Y-64204206D01*
X154027800Y-64207059D01*
X154027798Y-64207059D01*
X153899619Y-64251912D01*
X153899617Y-64251913D01*
X153791752Y-64331521D01*
X153790350Y-64332556D01*
X153771054Y-64358702D01*
X153736770Y-64405155D01*
X153681123Y-64447405D01*
X153611466Y-64452864D01*
X153549917Y-64419796D01*
X153516016Y-64358702D01*
X153513000Y-64331521D01*
X153513000Y-56824986D01*
X158007501Y-56824986D01*
X158017994Y-56927697D01*
X158073141Y-57094119D01*
X158073143Y-57094124D01*
X158165184Y-57243345D01*
X158289154Y-57367315D01*
X158438375Y-57459356D01*
X158438380Y-57459358D01*
X158604802Y-57514505D01*
X158604809Y-57514506D01*
X158707519Y-57524999D01*
X158932499Y-57524999D01*
X158932500Y-57524998D01*
X158932500Y-55425000D01*
X158007501Y-55425000D01*
X158007501Y-56824986D01*
X153513000Y-56824986D01*
X153513000Y-53429500D01*
X153532685Y-53362461D01*
X153585489Y-53316706D01*
X153637000Y-53305500D01*
X157892613Y-53305500D01*
X157959652Y-53325185D01*
G37*
%TD.AperFunction*%
%TD*%
%TA.AperFunction,Conductor*%
%TO.N,GND*%
G36*
X139700039Y-53240185D02*
G01*
X139745794Y-53292989D01*
X139757000Y-53344500D01*
X139757000Y-61175891D01*
X139791108Y-61303187D01*
X139824054Y-61360250D01*
X139857000Y-61417314D01*
X139950186Y-61510500D01*
X140064314Y-61576392D01*
X140191608Y-61610500D01*
X150803000Y-61610500D01*
X150870039Y-61630185D01*
X150915794Y-61682989D01*
X150927000Y-61734500D01*
X150927000Y-83016000D01*
X150907315Y-83083039D01*
X150854511Y-83128794D01*
X150803000Y-83140000D01*
X142367499Y-83140000D01*
X142247500Y-83259999D01*
X142247500Y-91168638D01*
X142227815Y-91235677D01*
X142211181Y-91256319D01*
X140663819Y-92803681D01*
X140602496Y-92837166D01*
X140576138Y-92840000D01*
X140427500Y-92840000D01*
X140427500Y-107987500D01*
X140547500Y-108107500D01*
X150803000Y-108107500D01*
X150870039Y-108127185D01*
X150915794Y-108179989D01*
X150927000Y-108231500D01*
X150927000Y-111047109D01*
X150907315Y-111114148D01*
X150854511Y-111159903D01*
X150785353Y-111169847D01*
X150721797Y-111140822D01*
X150703230Y-111120743D01*
X150649650Y-111048144D01*
X150540382Y-110967501D01*
X150540380Y-110967500D01*
X150412200Y-110922647D01*
X150381770Y-110919794D01*
X150381766Y-110919794D01*
X148773234Y-110919794D01*
X148773230Y-110919794D01*
X148742800Y-110922647D01*
X148742798Y-110922647D01*
X148614619Y-110967500D01*
X148614617Y-110967501D01*
X148505350Y-111048144D01*
X148424707Y-111157411D01*
X148424706Y-111157413D01*
X148379853Y-111285592D01*
X148379853Y-111285594D01*
X148377000Y-111316024D01*
X148377000Y-112924563D01*
X148379853Y-112954993D01*
X148379853Y-112954995D01*
X148424706Y-113083174D01*
X148424707Y-113083176D01*
X148505350Y-113192444D01*
X148614618Y-113273087D01*
X148657345Y-113288038D01*
X148742799Y-113317940D01*
X148773230Y-113320794D01*
X148773234Y-113320794D01*
X150381770Y-113320794D01*
X150412199Y-113317940D01*
X150412201Y-113317940D01*
X150476290Y-113295513D01*
X150540382Y-113273087D01*
X150649650Y-113192444D01*
X150703231Y-113119842D01*
X150758877Y-113077594D01*
X150828533Y-113072135D01*
X150890082Y-113105202D01*
X150923984Y-113166296D01*
X150927000Y-113193478D01*
X150927000Y-124095500D01*
X150907315Y-124162539D01*
X150854511Y-124208294D01*
X150803000Y-124219500D01*
X146328245Y-124219500D01*
X146261206Y-124199815D01*
X146215451Y-124147011D01*
X146205507Y-124077853D01*
X146211204Y-124054545D01*
X146225145Y-124014701D01*
X146225146Y-124014699D01*
X146228000Y-123984269D01*
X146228000Y-120675730D01*
X146225146Y-120645300D01*
X146225146Y-120645298D01*
X146180293Y-120517119D01*
X146180292Y-120517117D01*
X146099650Y-120407850D01*
X145990382Y-120327207D01*
X145990380Y-120327206D01*
X145862200Y-120282353D01*
X145831770Y-120279500D01*
X145831766Y-120279500D01*
X144873234Y-120279500D01*
X144873230Y-120279500D01*
X144842800Y-120282353D01*
X144842798Y-120282353D01*
X144714619Y-120327206D01*
X144714617Y-120327207D01*
X144605350Y-120407850D01*
X144524707Y-120517117D01*
X144524706Y-120517119D01*
X144479853Y-120645298D01*
X144479853Y-120645300D01*
X144477000Y-120675730D01*
X144477000Y-123984269D01*
X144479853Y-124014699D01*
X144479854Y-124014701D01*
X144493796Y-124054545D01*
X144497358Y-124124324D01*
X144462630Y-124184951D01*
X144400636Y-124217179D01*
X144376755Y-124219500D01*
X143961500Y-124219500D01*
X143894461Y-124199815D01*
X143848706Y-124147011D01*
X143837500Y-124095500D01*
X143837500Y-119430000D01*
X142177500Y-117770000D01*
X133917500Y-117770000D01*
X133917499Y-117770000D01*
X132407500Y-119279999D01*
X132407500Y-119280000D01*
X132407500Y-123480000D01*
X132547500Y-123620000D01*
X134557500Y-123620000D01*
X134807500Y-123370000D01*
X134807500Y-123356433D01*
X134790334Y-123324996D01*
X134787500Y-123298638D01*
X134787500Y-119991362D01*
X134796144Y-119961921D01*
X134802668Y-119931935D01*
X134806422Y-119926919D01*
X134807185Y-119924323D01*
X134823819Y-119903681D01*
X134961181Y-119766319D01*
X135022504Y-119732834D01*
X135048862Y-119730000D01*
X140336138Y-119730000D01*
X140403177Y-119749685D01*
X140423819Y-119766319D01*
X140741181Y-120083681D01*
X140774666Y-120145004D01*
X140777500Y-120171362D01*
X140777500Y-120493784D01*
X140757815Y-120560823D01*
X140705011Y-120606578D01*
X140635853Y-120616522D01*
X140572297Y-120587497D01*
X140536459Y-120534740D01*
X140530293Y-120517119D01*
X140530293Y-120517118D01*
X140449650Y-120407850D01*
X140340382Y-120327207D01*
X140340380Y-120327206D01*
X140212200Y-120282353D01*
X140181770Y-120279500D01*
X140181766Y-120279500D01*
X139223234Y-120279500D01*
X139223230Y-120279500D01*
X139192800Y-120282353D01*
X139192798Y-120282353D01*
X139064619Y-120327206D01*
X139064617Y-120327207D01*
X138955350Y-120407850D01*
X138874707Y-120517117D01*
X138874706Y-120517119D01*
X138829853Y-120645298D01*
X138829853Y-120645300D01*
X138827000Y-120675730D01*
X138827000Y-123984269D01*
X138829853Y-124014699D01*
X138829854Y-124014701D01*
X138843796Y-124054545D01*
X138847358Y-124124324D01*
X138812630Y-124184951D01*
X138750636Y-124217179D01*
X138726755Y-124219500D01*
X110516176Y-124219500D01*
X110449137Y-124199815D01*
X110428495Y-124183181D01*
X105844319Y-119599005D01*
X105810834Y-119537682D01*
X105808000Y-119511324D01*
X105808000Y-117694644D01*
X105827685Y-117627605D01*
X105880489Y-117581850D01*
X105949647Y-117571906D01*
X106013203Y-117600931D01*
X106036993Y-117628671D01*
X106141608Y-117795164D01*
X106330721Y-118032304D01*
X106545196Y-118246779D01*
X106782336Y-118435892D01*
X107039159Y-118597265D01*
X107312435Y-118728868D01*
X107527451Y-118804105D01*
X107598716Y-118829042D01*
X107598728Y-118829046D01*
X107894437Y-118896540D01*
X107894446Y-118896541D01*
X107894451Y-118896542D01*
X108095374Y-118919180D01*
X108195837Y-118930499D01*
X108195840Y-118930500D01*
X108195843Y-118930500D01*
X108499160Y-118930500D01*
X108499161Y-118930499D01*
X108653194Y-118913144D01*
X108800548Y-118896542D01*
X108800551Y-118896541D01*
X108800563Y-118896540D01*
X109096272Y-118829046D01*
X109382565Y-118728868D01*
X109655841Y-118597265D01*
X109912664Y-118435892D01*
X110149804Y-118246779D01*
X110364279Y-118032304D01*
X110553392Y-117795164D01*
X110714765Y-117538341D01*
X110846368Y-117265065D01*
X110946546Y-116978772D01*
X111014040Y-116683063D01*
X111048000Y-116381657D01*
X111048000Y-116078343D01*
X111014040Y-115776937D01*
X110946546Y-115481228D01*
X110846368Y-115194935D01*
X110714765Y-114921659D01*
X110553392Y-114664836D01*
X110364279Y-114427696D01*
X110149804Y-114213221D01*
X109912664Y-114024108D01*
X109655841Y-113862735D01*
X109655838Y-113862733D01*
X109382568Y-113731133D01*
X109096283Y-113630957D01*
X109096271Y-113630953D01*
X108868056Y-113578864D01*
X108800563Y-113563460D01*
X108800560Y-113563459D01*
X108800548Y-113563457D01*
X108499163Y-113529500D01*
X108499157Y-113529500D01*
X108195843Y-113529500D01*
X108195836Y-113529500D01*
X107894451Y-113563457D01*
X107894437Y-113563460D01*
X107598728Y-113630953D01*
X107598716Y-113630957D01*
X107312431Y-113731133D01*
X107039161Y-113862733D01*
X106782337Y-114024107D01*
X106545196Y-114213220D01*
X106330720Y-114427696D01*
X106141607Y-114664837D01*
X106036994Y-114831327D01*
X105984659Y-114877618D01*
X105915605Y-114888266D01*
X105851757Y-114859891D01*
X105813385Y-114801501D01*
X105808000Y-114765355D01*
X105808000Y-112414108D01*
X122497000Y-112414108D01*
X122497000Y-112422889D01*
X122497000Y-112545891D01*
X122531108Y-112673187D01*
X122550811Y-112707313D01*
X122597000Y-112787314D01*
X122690186Y-112880500D01*
X122804314Y-112946392D01*
X122931608Y-112980500D01*
X122931610Y-112980500D01*
X123063390Y-112980500D01*
X123063392Y-112980500D01*
X123190686Y-112946392D01*
X123304814Y-112880500D01*
X123398000Y-112787314D01*
X123463892Y-112673186D01*
X123498000Y-112545892D01*
X123498000Y-112414108D01*
X123494605Y-112401437D01*
X123496266Y-112331590D01*
X123535428Y-112273727D01*
X123599656Y-112246221D01*
X123668558Y-112257806D01*
X123702060Y-112281663D01*
X123959387Y-112538990D01*
X123986663Y-112586233D01*
X123987999Y-112585680D01*
X123991107Y-112593185D01*
X124018956Y-112641421D01*
X124057000Y-112707314D01*
X124150186Y-112800500D01*
X124264314Y-112866392D01*
X124391608Y-112900500D01*
X124391610Y-112900500D01*
X124523390Y-112900500D01*
X124523392Y-112900500D01*
X124650686Y-112866392D01*
X124764814Y-112800500D01*
X124858000Y-112707314D01*
X124923892Y-112593186D01*
X124958000Y-112465892D01*
X124958000Y-112334108D01*
X124923892Y-112206814D01*
X124858000Y-112092686D01*
X124791121Y-112025807D01*
X140757000Y-112025807D01*
X140757000Y-112214780D01*
X140786559Y-112401412D01*
X140844954Y-112581130D01*
X140891860Y-112673187D01*
X140930740Y-112749493D01*
X141041810Y-112902367D01*
X141175427Y-113035984D01*
X141328301Y-113147054D01*
X141366066Y-113166296D01*
X141496663Y-113232839D01*
X141496665Y-113232839D01*
X141496668Y-113232841D01*
X141592997Y-113264140D01*
X141676381Y-113291234D01*
X141863014Y-113320794D01*
X141863019Y-113320794D01*
X142051986Y-113320794D01*
X142238618Y-113291234D01*
X142294471Y-113273086D01*
X142418332Y-113232841D01*
X142586699Y-113147054D01*
X142739573Y-113035984D01*
X142873190Y-112902367D01*
X142984260Y-112749493D01*
X143070047Y-112581126D01*
X143128440Y-112401412D01*
X143158000Y-112214780D01*
X143158000Y-112025807D01*
X143128440Y-111839175D01*
X143089195Y-111718393D01*
X143070047Y-111659462D01*
X143070045Y-111659459D01*
X143070045Y-111659457D01*
X142984259Y-111491094D01*
X142873190Y-111338221D01*
X142739573Y-111204604D01*
X142586699Y-111093534D01*
X142418336Y-111007748D01*
X142238618Y-110949353D01*
X142051986Y-110919794D01*
X142051981Y-110919794D01*
X141863019Y-110919794D01*
X141863014Y-110919794D01*
X141676381Y-110949353D01*
X141496663Y-111007748D01*
X141328300Y-111093534D01*
X141263215Y-111140822D01*
X141175427Y-111204604D01*
X141175425Y-111204606D01*
X141175424Y-111204606D01*
X141041812Y-111338218D01*
X141041812Y-111338219D01*
X141041810Y-111338221D01*
X140994110Y-111403873D01*
X140930740Y-111491094D01*
X140844954Y-111659457D01*
X140786559Y-111839175D01*
X140757000Y-112025807D01*
X124791121Y-112025807D01*
X124764814Y-111999500D01*
X124698921Y-111961456D01*
X124650685Y-111933607D01*
X124643180Y-111930499D01*
X124643733Y-111929163D01*
X124638189Y-111925962D01*
X124624744Y-111923038D01*
X124596490Y-111901887D01*
X124474319Y-111779716D01*
X124440834Y-111718393D01*
X124438000Y-111692035D01*
X124438000Y-108043936D01*
X124452118Y-107991246D01*
X124450782Y-107990693D01*
X124453888Y-107983192D01*
X124453892Y-107983186D01*
X124488000Y-107855892D01*
X124488000Y-107724108D01*
X124453892Y-107596814D01*
X124388000Y-107482686D01*
X124294814Y-107389500D01*
X124237750Y-107356554D01*
X124180687Y-107323608D01*
X124068723Y-107293608D01*
X124053392Y-107289500D01*
X123921608Y-107289500D01*
X123794312Y-107323608D01*
X123680186Y-107389500D01*
X123610039Y-107459647D01*
X123548715Y-107493131D01*
X123479024Y-107488146D01*
X123435917Y-107456262D01*
X123433747Y-107458433D01*
X123334816Y-107359502D01*
X123334814Y-107359500D01*
X123272647Y-107323608D01*
X123220687Y-107293608D01*
X123157039Y-107276554D01*
X123093392Y-107259500D01*
X122961608Y-107259500D01*
X122834312Y-107293608D01*
X122720186Y-107359500D01*
X122720183Y-107359502D01*
X122627002Y-107452683D01*
X122627000Y-107452686D01*
X122561108Y-107566812D01*
X122543481Y-107632600D01*
X122527000Y-107694108D01*
X122527000Y-107825892D01*
X122551519Y-107917399D01*
X122561108Y-107953186D01*
X122564218Y-107960693D01*
X122562881Y-107961246D01*
X122577000Y-108013936D01*
X122577000Y-111102404D01*
X122572775Y-111134497D01*
X122547000Y-111230691D01*
X122547000Y-112226062D01*
X122546526Y-112227828D01*
X122542472Y-112259264D01*
X122538256Y-112274431D01*
X122531108Y-112286814D01*
X122497000Y-112414108D01*
X105808000Y-112414108D01*
X105808000Y-103111379D01*
X111709500Y-103111379D01*
X111709500Y-103298620D01*
X111746025Y-103482243D01*
X111746027Y-103482251D01*
X111817676Y-103655228D01*
X111817681Y-103655237D01*
X111921697Y-103810907D01*
X111921700Y-103810911D01*
X112054088Y-103943299D01*
X112054092Y-103943302D01*
X112209762Y-104047318D01*
X112209768Y-104047321D01*
X112209769Y-104047322D01*
X112382749Y-104118973D01*
X112566379Y-104155499D01*
X112566383Y-104155500D01*
X112566384Y-104155500D01*
X113453617Y-104155500D01*
X113453618Y-104155499D01*
X113637251Y-104118973D01*
X113810231Y-104047322D01*
X113965908Y-103943302D01*
X114098302Y-103810908D01*
X114202322Y-103655231D01*
X114273973Y-103482251D01*
X114310500Y-103298616D01*
X114310500Y-103111384D01*
X114273973Y-102927749D01*
X114202322Y-102754769D01*
X114202321Y-102754768D01*
X114202318Y-102754762D01*
X114098302Y-102599092D01*
X114098299Y-102599088D01*
X113965911Y-102466700D01*
X113965907Y-102466697D01*
X113810237Y-102362681D01*
X113810228Y-102362676D01*
X113637251Y-102291027D01*
X113637243Y-102291025D01*
X113453620Y-102254500D01*
X113453616Y-102254500D01*
X112566384Y-102254500D01*
X112566379Y-102254500D01*
X112382756Y-102291025D01*
X112382748Y-102291027D01*
X112209771Y-102362676D01*
X112209762Y-102362681D01*
X112054092Y-102466697D01*
X112054088Y-102466700D01*
X111921700Y-102599088D01*
X111921697Y-102599092D01*
X111817681Y-102754762D01*
X111817676Y-102754771D01*
X111746027Y-102927748D01*
X111746025Y-102927756D01*
X111709500Y-103111379D01*
X105808000Y-103111379D01*
X105808000Y-100708996D01*
X108766999Y-100708996D01*
X108793918Y-100844322D01*
X108793921Y-100844332D01*
X108846722Y-100971807D01*
X108923387Y-101086545D01*
X109020954Y-101184112D01*
X109135692Y-101260777D01*
X109243969Y-101305626D01*
X109263172Y-101313580D01*
X109263176Y-101313580D01*
X109263177Y-101313581D01*
X109398503Y-101340500D01*
X109398506Y-101340500D01*
X109536496Y-101340500D01*
X109627540Y-101322389D01*
X109671828Y-101313580D01*
X109768689Y-101273459D01*
X109799307Y-101260777D01*
X109799308Y-101260776D01*
X109799311Y-101260775D01*
X109914043Y-101184114D01*
X110091614Y-101006543D01*
X110168275Y-100891811D01*
X110221080Y-100764328D01*
X110235695Y-100690855D01*
X110248000Y-100628996D01*
X110248000Y-100561519D01*
X110267685Y-100494480D01*
X110284319Y-100473838D01*
X110671338Y-100086819D01*
X110732661Y-100053334D01*
X110759019Y-100050500D01*
X112152357Y-100050500D01*
X112219396Y-100070185D01*
X112265151Y-100122989D01*
X112275095Y-100192147D01*
X112258197Y-100236252D01*
X112259166Y-100236770D01*
X112256296Y-100242138D01*
X112192184Y-100396917D01*
X112192182Y-100396925D01*
X112159500Y-100561228D01*
X112159500Y-100728771D01*
X112192182Y-100893074D01*
X112192184Y-100893082D01*
X112256295Y-101047860D01*
X112349373Y-101187162D01*
X112467837Y-101305626D01*
X112479743Y-101313581D01*
X112607137Y-101398703D01*
X112761918Y-101462816D01*
X112926228Y-101495499D01*
X112926232Y-101495500D01*
X112926233Y-101495500D01*
X113093768Y-101495500D01*
X113093769Y-101495499D01*
X113258082Y-101462816D01*
X113412863Y-101398703D01*
X113552162Y-101305626D01*
X113670626Y-101187162D01*
X113763703Y-101047863D01*
X113827816Y-100893082D01*
X113860500Y-100728767D01*
X113860500Y-100561233D01*
X113827816Y-100396918D01*
X113763703Y-100242137D01*
X113763700Y-100242133D01*
X113760834Y-100236770D01*
X113762231Y-100236023D01*
X113743663Y-100176704D01*
X113762153Y-100109325D01*
X113814135Y-100062639D01*
X113867643Y-100050500D01*
X117123000Y-100050500D01*
X117190039Y-100070185D01*
X117235794Y-100122989D01*
X117247000Y-100174500D01*
X117247000Y-100211006D01*
X117247000Y-100348994D01*
X117247000Y-100348996D01*
X117246999Y-100348996D01*
X117273918Y-100484322D01*
X117273921Y-100484332D01*
X117326722Y-100611807D01*
X117403387Y-100726545D01*
X118620954Y-101944112D01*
X118735690Y-102020776D01*
X118834290Y-102061617D01*
X118863171Y-102073580D01*
X118863172Y-102073580D01*
X118863177Y-102073582D01*
X118890045Y-102078925D01*
X118890051Y-102078926D01*
X118890091Y-102078934D01*
X118980437Y-102096905D01*
X118998506Y-102100500D01*
X118998507Y-102100500D01*
X125028507Y-102100500D01*
X126133000Y-102100500D01*
X126200039Y-102120185D01*
X126245794Y-102172989D01*
X126257000Y-102224500D01*
X126257000Y-102381006D01*
X126257000Y-102518994D01*
X126257000Y-102518996D01*
X126256999Y-102518996D01*
X126283918Y-102654322D01*
X126283921Y-102654332D01*
X126336722Y-102781807D01*
X126413387Y-102896545D01*
X126530954Y-103014112D01*
X126530957Y-103014114D01*
X126645689Y-103090775D01*
X126773171Y-103143580D01*
X126908501Y-103170498D01*
X126908505Y-103170499D01*
X126908506Y-103170499D01*
X127046495Y-103170499D01*
X127046496Y-103170498D01*
X127181828Y-103143580D01*
X127235791Y-103121228D01*
X137159500Y-103121228D01*
X137159500Y-103288771D01*
X137192182Y-103453074D01*
X137192184Y-103453082D01*
X137256295Y-103607860D01*
X137349373Y-103747162D01*
X137467837Y-103865626D01*
X137560494Y-103927537D01*
X137607137Y-103958703D01*
X137761918Y-104022816D01*
X137926228Y-104055499D01*
X137926232Y-104055500D01*
X137926233Y-104055500D01*
X138093768Y-104055500D01*
X138093769Y-104055499D01*
X138258082Y-104022816D01*
X138412863Y-103958703D01*
X138552162Y-103865626D01*
X138670626Y-103747162D01*
X138763703Y-103607863D01*
X138827816Y-103453082D01*
X138860500Y-103288767D01*
X138860500Y-103121233D01*
X138827816Y-102956918D01*
X138763703Y-102802137D01*
X138732048Y-102754762D01*
X138670626Y-102662837D01*
X138552162Y-102544373D01*
X138412860Y-102451295D01*
X138258082Y-102387184D01*
X138258074Y-102387182D01*
X138093771Y-102354500D01*
X138093767Y-102354500D01*
X137926233Y-102354500D01*
X137926228Y-102354500D01*
X137761925Y-102387182D01*
X137761917Y-102387184D01*
X137607139Y-102451295D01*
X137467837Y-102544373D01*
X137349373Y-102662837D01*
X137256295Y-102802139D01*
X137192184Y-102956917D01*
X137192182Y-102956925D01*
X137159500Y-103121228D01*
X127235791Y-103121228D01*
X127309311Y-103090775D01*
X127424043Y-103014114D01*
X127521614Y-102916543D01*
X127598275Y-102801811D01*
X127651080Y-102674328D01*
X127677999Y-102538994D01*
X127677999Y-102401006D01*
X127660382Y-102312436D01*
X127658000Y-102288246D01*
X127658000Y-101651004D01*
X127637118Y-101546028D01*
X127637117Y-101546026D01*
X127635285Y-101536814D01*
X127631080Y-101515671D01*
X127592564Y-101422686D01*
X127591492Y-101420097D01*
X127578278Y-101388195D01*
X127578271Y-101388182D01*
X127501615Y-101273459D01*
X127479063Y-101250907D01*
X127404042Y-101175886D01*
X127084043Y-100855886D01*
X126969311Y-100779225D01*
X126969312Y-100779225D01*
X126969307Y-100779222D01*
X126841832Y-100726421D01*
X126841822Y-100726418D01*
X126706496Y-100699500D01*
X126706494Y-100699500D01*
X126706493Y-100699500D01*
X125166493Y-100699500D01*
X119409019Y-100699500D01*
X119379578Y-100690855D01*
X119349592Y-100684332D01*
X119344576Y-100680577D01*
X119341980Y-100679815D01*
X119321338Y-100663181D01*
X119209536Y-100551379D01*
X136709500Y-100551379D01*
X136709500Y-100738620D01*
X136746025Y-100922243D01*
X136746027Y-100922251D01*
X136817676Y-101095228D01*
X136817681Y-101095237D01*
X136921697Y-101250907D01*
X136921700Y-101250911D01*
X137054088Y-101383299D01*
X137054092Y-101383302D01*
X137209762Y-101487318D01*
X137209768Y-101487321D01*
X137209769Y-101487322D01*
X137382749Y-101558973D01*
X137566379Y-101595499D01*
X137566383Y-101595500D01*
X137566384Y-101595500D01*
X138453617Y-101595500D01*
X138453618Y-101595499D01*
X138637251Y-101558973D01*
X138810231Y-101487322D01*
X138965908Y-101383302D01*
X139098302Y-101250908D01*
X139202322Y-101095231D01*
X139273973Y-100922251D01*
X139310500Y-100738616D01*
X139310500Y-100551384D01*
X139273973Y-100367749D01*
X139202322Y-100194769D01*
X139202321Y-100194768D01*
X139202318Y-100194762D01*
X139098302Y-100039092D01*
X139098299Y-100039088D01*
X138965911Y-99906700D01*
X138965907Y-99906697D01*
X138810237Y-99802681D01*
X138810228Y-99802676D01*
X138637251Y-99731027D01*
X138637243Y-99731025D01*
X138453620Y-99694500D01*
X138453616Y-99694500D01*
X137566384Y-99694500D01*
X137566379Y-99694500D01*
X137382756Y-99731025D01*
X137382748Y-99731027D01*
X137209771Y-99802676D01*
X137209762Y-99802681D01*
X137054092Y-99906697D01*
X137054088Y-99906700D01*
X136921700Y-100039088D01*
X136921697Y-100039092D01*
X136817681Y-100194762D01*
X136817676Y-100194771D01*
X136746027Y-100367748D01*
X136746025Y-100367756D01*
X136709500Y-100551379D01*
X119209536Y-100551379D01*
X118684319Y-100026162D01*
X118650834Y-99964839D01*
X118648000Y-99938481D01*
X118648000Y-99281004D01*
X118621081Y-99145677D01*
X118621080Y-99145676D01*
X118621080Y-99145672D01*
X118621078Y-99145667D01*
X118568278Y-99018195D01*
X118568271Y-99018182D01*
X118491614Y-98903458D01*
X118491611Y-98903454D01*
X118394045Y-98805888D01*
X118394041Y-98805885D01*
X118279317Y-98729228D01*
X118279304Y-98729221D01*
X118151832Y-98676421D01*
X118151822Y-98676418D01*
X118016495Y-98649500D01*
X118016493Y-98649500D01*
X113925970Y-98649500D01*
X113858931Y-98629815D01*
X113813176Y-98577011D01*
X113803232Y-98507853D01*
X113811409Y-98478047D01*
X113819772Y-98457854D01*
X113852816Y-98378082D01*
X113885500Y-98213767D01*
X113885500Y-98046233D01*
X113885499Y-98046228D01*
X137184500Y-98046228D01*
X137184500Y-98213771D01*
X137217182Y-98378074D01*
X137217184Y-98378082D01*
X137281295Y-98532860D01*
X137374373Y-98672162D01*
X137492837Y-98790626D01*
X137585494Y-98852537D01*
X137632137Y-98883703D01*
X137786918Y-98947816D01*
X137951228Y-98980499D01*
X137951232Y-98980500D01*
X137951233Y-98980500D01*
X138118768Y-98980500D01*
X138118769Y-98980499D01*
X138283082Y-98947816D01*
X138437863Y-98883703D01*
X138577162Y-98790626D01*
X138695626Y-98672162D01*
X138788703Y-98532863D01*
X138852816Y-98378082D01*
X138885500Y-98213767D01*
X138885500Y-98046233D01*
X138852816Y-97881918D01*
X138788703Y-97727137D01*
X138757537Y-97680494D01*
X138695626Y-97587837D01*
X138577162Y-97469373D01*
X138437860Y-97376295D01*
X138283082Y-97312184D01*
X138283074Y-97312182D01*
X138118771Y-97279500D01*
X138118767Y-97279500D01*
X137951233Y-97279500D01*
X137951228Y-97279500D01*
X137786925Y-97312182D01*
X137786917Y-97312184D01*
X137632139Y-97376295D01*
X137492837Y-97469373D01*
X137374373Y-97587837D01*
X137281295Y-97727139D01*
X137217184Y-97881917D01*
X137217182Y-97881925D01*
X137184500Y-98046228D01*
X113885499Y-98046228D01*
X113852816Y-97881918D01*
X113788703Y-97727137D01*
X113757537Y-97680494D01*
X113695626Y-97587837D01*
X113577162Y-97469373D01*
X113437860Y-97376295D01*
X113283082Y-97312184D01*
X113283074Y-97312182D01*
X113118771Y-97279500D01*
X113118767Y-97279500D01*
X112951233Y-97279500D01*
X112951228Y-97279500D01*
X112786925Y-97312182D01*
X112786917Y-97312184D01*
X112632139Y-97376295D01*
X112492837Y-97469373D01*
X112374373Y-97587837D01*
X112281295Y-97727139D01*
X112217184Y-97881917D01*
X112217182Y-97881925D01*
X112184500Y-98046228D01*
X112184500Y-98213771D01*
X112217182Y-98378074D01*
X112217184Y-98378082D01*
X112258591Y-98478047D01*
X112266060Y-98547517D01*
X112234785Y-98609996D01*
X112174696Y-98645648D01*
X112144030Y-98649500D01*
X110854641Y-98649500D01*
X110807189Y-98640061D01*
X110701832Y-98596421D01*
X110701822Y-98596418D01*
X110566496Y-98569500D01*
X110566494Y-98569500D01*
X110428506Y-98569500D01*
X110428501Y-98569500D01*
X110315622Y-98591953D01*
X110293173Y-98596419D01*
X110293169Y-98596420D01*
X110165690Y-98649223D01*
X110050954Y-98725887D01*
X109478684Y-99298157D01*
X109417361Y-99331642D01*
X109415195Y-99332093D01*
X109343177Y-99346418D01*
X109343167Y-99346421D01*
X109215695Y-99399221D01*
X109215682Y-99399228D01*
X109100958Y-99475885D01*
X109100954Y-99475888D01*
X109003388Y-99573454D01*
X109003385Y-99573458D01*
X108926728Y-99688182D01*
X108926721Y-99688195D01*
X108873921Y-99815667D01*
X108873918Y-99815677D01*
X108847000Y-99951004D01*
X108847000Y-100282859D01*
X108837561Y-100330311D01*
X108793921Y-100435667D01*
X108793918Y-100435677D01*
X108767000Y-100571003D01*
X108767000Y-100571006D01*
X108767000Y-100708994D01*
X108767000Y-100708996D01*
X108766999Y-100708996D01*
X105808000Y-100708996D01*
X105808000Y-95486228D01*
X112184500Y-95486228D01*
X112184500Y-95653771D01*
X112217182Y-95818074D01*
X112217184Y-95818082D01*
X112281295Y-95972860D01*
X112374373Y-96112162D01*
X112492837Y-96230626D01*
X112585494Y-96292537D01*
X112632137Y-96323703D01*
X112786918Y-96387816D01*
X112951228Y-96420499D01*
X112951232Y-96420500D01*
X112951233Y-96420500D01*
X113118768Y-96420500D01*
X113118769Y-96420499D01*
X113283082Y-96387816D01*
X113437863Y-96323703D01*
X113577162Y-96230626D01*
X113695626Y-96112162D01*
X113788703Y-95972863D01*
X113852816Y-95818082D01*
X113885500Y-95653767D01*
X113885500Y-95486233D01*
X113885499Y-95486228D01*
X137184500Y-95486228D01*
X137184500Y-95653771D01*
X137217182Y-95818074D01*
X137217184Y-95818082D01*
X137281295Y-95972860D01*
X137374373Y-96112162D01*
X137492837Y-96230626D01*
X137585494Y-96292537D01*
X137632137Y-96323703D01*
X137786918Y-96387816D01*
X137951228Y-96420499D01*
X137951232Y-96420500D01*
X137951233Y-96420500D01*
X138118768Y-96420500D01*
X138118769Y-96420499D01*
X138283082Y-96387816D01*
X138437863Y-96323703D01*
X138577162Y-96230626D01*
X138695626Y-96112162D01*
X138788703Y-95972863D01*
X138852816Y-95818082D01*
X138885500Y-95653767D01*
X138885500Y-95486233D01*
X138852816Y-95321918D01*
X138788703Y-95167137D01*
X138757537Y-95120494D01*
X138695626Y-95027837D01*
X138577162Y-94909373D01*
X138437860Y-94816295D01*
X138283082Y-94752184D01*
X138283074Y-94752182D01*
X138118771Y-94719500D01*
X138118767Y-94719500D01*
X137951233Y-94719500D01*
X137951228Y-94719500D01*
X137786925Y-94752182D01*
X137786917Y-94752184D01*
X137632139Y-94816295D01*
X137492837Y-94909373D01*
X137374373Y-95027837D01*
X137281295Y-95167139D01*
X137217184Y-95321917D01*
X137217182Y-95321925D01*
X137184500Y-95486228D01*
X113885499Y-95486228D01*
X113852816Y-95321918D01*
X113788703Y-95167137D01*
X113757537Y-95120494D01*
X113695626Y-95027837D01*
X113577162Y-94909373D01*
X113437860Y-94816295D01*
X113283082Y-94752184D01*
X113283074Y-94752182D01*
X113118771Y-94719500D01*
X113118767Y-94719500D01*
X112951233Y-94719500D01*
X112951228Y-94719500D01*
X112786925Y-94752182D01*
X112786917Y-94752184D01*
X112632139Y-94816295D01*
X112492837Y-94909373D01*
X112374373Y-95027837D01*
X112281295Y-95167139D01*
X112217184Y-95321917D01*
X112217182Y-95321925D01*
X112184500Y-95486228D01*
X105808000Y-95486228D01*
X105808000Y-92946228D01*
X112134500Y-92946228D01*
X112134500Y-93113771D01*
X112167182Y-93278074D01*
X112167184Y-93278082D01*
X112231295Y-93432860D01*
X112324373Y-93572162D01*
X112442837Y-93690626D01*
X112535494Y-93752537D01*
X112582137Y-93783703D01*
X112736918Y-93847816D01*
X112901228Y-93880499D01*
X112901232Y-93880500D01*
X112901233Y-93880500D01*
X113068768Y-93880500D01*
X113068769Y-93880499D01*
X113233082Y-93847816D01*
X113387863Y-93783703D01*
X113527162Y-93690626D01*
X113645626Y-93572162D01*
X113738703Y-93432863D01*
X113802816Y-93278082D01*
X113835500Y-93113767D01*
X113835500Y-92946233D01*
X113833540Y-92936379D01*
X136684500Y-92936379D01*
X136684500Y-93123620D01*
X136721025Y-93307243D01*
X136721027Y-93307251D01*
X136792676Y-93480228D01*
X136792681Y-93480237D01*
X136896697Y-93635907D01*
X136896700Y-93635911D01*
X137029088Y-93768299D01*
X137029092Y-93768302D01*
X137184762Y-93872318D01*
X137184768Y-93872321D01*
X137184769Y-93872322D01*
X137357749Y-93943973D01*
X137541379Y-93980499D01*
X137541383Y-93980500D01*
X137541384Y-93980500D01*
X138428617Y-93980500D01*
X138428618Y-93980499D01*
X138612251Y-93943973D01*
X138785231Y-93872322D01*
X138940908Y-93768302D01*
X139073302Y-93635908D01*
X139177322Y-93480231D01*
X139248973Y-93307251D01*
X139285500Y-93123616D01*
X139285500Y-92936384D01*
X139248973Y-92752749D01*
X139177322Y-92579769D01*
X139177321Y-92579768D01*
X139177318Y-92579762D01*
X139073302Y-92424092D01*
X139073299Y-92424088D01*
X138940911Y-92291700D01*
X138940907Y-92291697D01*
X138785237Y-92187681D01*
X138785228Y-92187676D01*
X138612251Y-92116027D01*
X138612243Y-92116025D01*
X138428620Y-92079500D01*
X138428616Y-92079500D01*
X137541384Y-92079500D01*
X137541379Y-92079500D01*
X137357756Y-92116025D01*
X137357748Y-92116027D01*
X137184771Y-92187676D01*
X137184762Y-92187681D01*
X137029092Y-92291697D01*
X137029088Y-92291700D01*
X136896700Y-92424088D01*
X136896697Y-92424092D01*
X136792681Y-92579762D01*
X136792676Y-92579771D01*
X136721027Y-92752748D01*
X136721025Y-92752756D01*
X136684500Y-92936379D01*
X113833540Y-92936379D01*
X113802816Y-92781918D01*
X113738703Y-92627137D01*
X113707048Y-92579762D01*
X113645626Y-92487837D01*
X113527162Y-92369373D01*
X113387860Y-92276295D01*
X113233082Y-92212184D01*
X113233074Y-92212182D01*
X113068771Y-92179500D01*
X113068767Y-92179500D01*
X112901233Y-92179500D01*
X112901228Y-92179500D01*
X112736925Y-92212182D01*
X112736917Y-92212184D01*
X112582139Y-92276295D01*
X112442837Y-92369373D01*
X112324373Y-92487837D01*
X112231295Y-92627139D01*
X112167184Y-92781917D01*
X112167182Y-92781925D01*
X112134500Y-92946228D01*
X105808000Y-92946228D01*
X105808000Y-90376379D01*
X111684500Y-90376379D01*
X111684500Y-90563620D01*
X111721025Y-90747243D01*
X111721027Y-90747251D01*
X111792676Y-90920228D01*
X111792681Y-90920237D01*
X111896697Y-91075907D01*
X111896700Y-91075911D01*
X112029088Y-91208299D01*
X112029092Y-91208302D01*
X112184762Y-91312318D01*
X112184768Y-91312321D01*
X112184769Y-91312322D01*
X112357749Y-91383973D01*
X112541379Y-91420499D01*
X112541383Y-91420500D01*
X112541384Y-91420500D01*
X113428617Y-91420500D01*
X113428618Y-91420499D01*
X113612251Y-91383973D01*
X113785231Y-91312322D01*
X113940908Y-91208302D01*
X114073302Y-91075908D01*
X114177322Y-90920231D01*
X114248973Y-90747251D01*
X114285500Y-90563616D01*
X114285500Y-90376384D01*
X114248973Y-90192749D01*
X114179858Y-90025891D01*
X114177323Y-90019771D01*
X114177318Y-90019762D01*
X114100551Y-89904872D01*
X114073302Y-89864092D01*
X114073299Y-89864088D01*
X114053319Y-89844108D01*
X117477000Y-89844108D01*
X117477000Y-89975891D01*
X117511108Y-90103187D01*
X117539976Y-90153186D01*
X117577000Y-90217314D01*
X117670186Y-90310500D01*
X117784314Y-90376392D01*
X117911608Y-90410500D01*
X117968191Y-90410500D01*
X131593563Y-90410500D01*
X131646250Y-90424618D01*
X131646804Y-90423281D01*
X131654307Y-90426388D01*
X131654314Y-90426392D01*
X131781608Y-90460500D01*
X131781610Y-90460500D01*
X131913390Y-90460500D01*
X131913392Y-90460500D01*
X132040686Y-90426392D01*
X132127311Y-90376379D01*
X136684500Y-90376379D01*
X136684500Y-90563620D01*
X136721025Y-90747243D01*
X136721027Y-90747251D01*
X136792676Y-90920228D01*
X136792681Y-90920237D01*
X136896697Y-91075907D01*
X136896700Y-91075911D01*
X137029088Y-91208299D01*
X137029092Y-91208302D01*
X137184762Y-91312318D01*
X137184768Y-91312321D01*
X137184769Y-91312322D01*
X137357749Y-91383973D01*
X137541379Y-91420499D01*
X137541383Y-91420500D01*
X137541384Y-91420500D01*
X138428617Y-91420500D01*
X138428618Y-91420499D01*
X138612251Y-91383973D01*
X138785231Y-91312322D01*
X138940908Y-91208302D01*
X139073302Y-91075908D01*
X139177322Y-90920231D01*
X139248973Y-90747251D01*
X139285500Y-90563616D01*
X139285500Y-90376384D01*
X139248973Y-90192749D01*
X139179858Y-90025891D01*
X139177323Y-90019771D01*
X139177318Y-90019762D01*
X139073302Y-89864092D01*
X139073299Y-89864088D01*
X138940911Y-89731700D01*
X138940907Y-89731697D01*
X138785237Y-89627681D01*
X138785228Y-89627676D01*
X138612251Y-89556027D01*
X138612243Y-89556025D01*
X138428620Y-89519500D01*
X138428616Y-89519500D01*
X137541384Y-89519500D01*
X137541379Y-89519500D01*
X137357756Y-89556025D01*
X137357748Y-89556027D01*
X137184771Y-89627676D01*
X137184762Y-89627681D01*
X137029092Y-89731697D01*
X137029088Y-89731700D01*
X136896700Y-89864088D01*
X136896697Y-89864092D01*
X136792681Y-90019762D01*
X136792676Y-90019771D01*
X136721027Y-90192748D01*
X136721025Y-90192756D01*
X136684500Y-90376379D01*
X132127311Y-90376379D01*
X132154814Y-90360500D01*
X132248000Y-90267314D01*
X132313892Y-90153186D01*
X132348000Y-90025892D01*
X132348000Y-89894108D01*
X132313892Y-89766814D01*
X132248000Y-89652686D01*
X132154814Y-89559500D01*
X132085532Y-89519500D01*
X132040687Y-89493608D01*
X131977039Y-89476554D01*
X131913392Y-89459500D01*
X131781608Y-89459500D01*
X131654314Y-89493608D01*
X131646804Y-89496719D01*
X131646250Y-89495381D01*
X131593563Y-89509500D01*
X118318040Y-89509500D01*
X118256040Y-89492887D01*
X118170688Y-89443609D01*
X118170687Y-89443608D01*
X118170686Y-89443608D01*
X118043392Y-89409500D01*
X117911608Y-89409500D01*
X117784312Y-89443608D01*
X117670186Y-89509500D01*
X117670183Y-89509502D01*
X117577002Y-89602683D01*
X117577000Y-89602686D01*
X117511108Y-89716812D01*
X117477000Y-89844108D01*
X114053319Y-89844108D01*
X113940911Y-89731700D01*
X113940907Y-89731697D01*
X113785237Y-89627681D01*
X113785228Y-89627676D01*
X113612251Y-89556027D01*
X113612243Y-89556025D01*
X113428620Y-89519500D01*
X113428616Y-89519500D01*
X112541384Y-89519500D01*
X112541379Y-89519500D01*
X112357756Y-89556025D01*
X112357748Y-89556027D01*
X112184771Y-89627676D01*
X112184762Y-89627681D01*
X112029092Y-89731697D01*
X112029088Y-89731700D01*
X111896700Y-89864088D01*
X111896697Y-89864092D01*
X111792681Y-90019762D01*
X111792676Y-90019771D01*
X111721027Y-90192748D01*
X111721025Y-90192756D01*
X111684500Y-90376379D01*
X105808000Y-90376379D01*
X105808000Y-87866379D01*
X111709500Y-87866379D01*
X111709500Y-88053620D01*
X111746025Y-88237243D01*
X111746027Y-88237251D01*
X111817676Y-88410228D01*
X111817681Y-88410237D01*
X111921697Y-88565907D01*
X111921700Y-88565911D01*
X112054088Y-88698299D01*
X112054092Y-88698302D01*
X112209762Y-88802318D01*
X112209768Y-88802321D01*
X112209769Y-88802322D01*
X112382749Y-88873973D01*
X112566379Y-88910499D01*
X112566383Y-88910500D01*
X112566384Y-88910500D01*
X113453617Y-88910500D01*
X113453618Y-88910499D01*
X113637251Y-88873973D01*
X113810231Y-88802322D01*
X113965908Y-88698302D01*
X114098302Y-88565908D01*
X114202322Y-88410231D01*
X114273973Y-88237251D01*
X114310500Y-88053616D01*
X114310500Y-87866384D01*
X114310350Y-87865630D01*
X114289237Y-87759483D01*
X114285636Y-87741379D01*
X136684500Y-87741379D01*
X136684500Y-87928620D01*
X136721025Y-88112243D01*
X136721027Y-88112251D01*
X136792676Y-88285228D01*
X136792681Y-88285237D01*
X136896697Y-88440907D01*
X136896700Y-88440911D01*
X137029088Y-88573299D01*
X137029092Y-88573302D01*
X137184762Y-88677318D01*
X137184768Y-88677321D01*
X137184769Y-88677322D01*
X137357749Y-88748973D01*
X137541379Y-88785499D01*
X137541383Y-88785500D01*
X137541384Y-88785500D01*
X138428617Y-88785500D01*
X138428618Y-88785499D01*
X138612251Y-88748973D01*
X138785231Y-88677322D01*
X138940908Y-88573302D01*
X139073302Y-88440908D01*
X139177322Y-88285231D01*
X139248973Y-88112251D01*
X139285500Y-87928616D01*
X139285500Y-87741384D01*
X139248973Y-87557749D01*
X139177322Y-87384769D01*
X139177321Y-87384768D01*
X139177318Y-87384762D01*
X139073302Y-87229092D01*
X139073299Y-87229088D01*
X138940911Y-87096700D01*
X138940907Y-87096697D01*
X138785237Y-86992681D01*
X138785228Y-86992676D01*
X138612251Y-86921027D01*
X138612243Y-86921025D01*
X138428620Y-86884500D01*
X138428616Y-86884500D01*
X137541384Y-86884500D01*
X137541379Y-86884500D01*
X137357756Y-86921025D01*
X137357748Y-86921027D01*
X137184771Y-86992676D01*
X137184762Y-86992681D01*
X137029092Y-87096697D01*
X137029088Y-87096700D01*
X136896700Y-87229088D01*
X136896697Y-87229092D01*
X136792681Y-87384762D01*
X136792676Y-87384771D01*
X136721027Y-87557748D01*
X136721025Y-87557756D01*
X136684500Y-87741379D01*
X114285636Y-87741379D01*
X114273974Y-87682756D01*
X114273973Y-87682749D01*
X114202322Y-87509769D01*
X114202321Y-87509768D01*
X114202318Y-87509762D01*
X114098302Y-87354092D01*
X114098299Y-87354088D01*
X113965911Y-87221700D01*
X113965907Y-87221697D01*
X113810237Y-87117681D01*
X113810228Y-87117676D01*
X113637251Y-87046027D01*
X113637243Y-87046025D01*
X113453620Y-87009500D01*
X113453616Y-87009500D01*
X112566384Y-87009500D01*
X112566379Y-87009500D01*
X112382756Y-87046025D01*
X112382748Y-87046027D01*
X112209771Y-87117676D01*
X112209762Y-87117681D01*
X112054092Y-87221697D01*
X112054088Y-87221700D01*
X111921700Y-87354088D01*
X111921697Y-87354092D01*
X111817681Y-87509762D01*
X111817676Y-87509771D01*
X111746027Y-87682748D01*
X111746025Y-87682756D01*
X111709500Y-87866379D01*
X105808000Y-87866379D01*
X105808000Y-85326379D01*
X111659500Y-85326379D01*
X111659500Y-85513620D01*
X111696025Y-85697243D01*
X111696027Y-85697251D01*
X111767676Y-85870228D01*
X111767681Y-85870237D01*
X111871697Y-86025907D01*
X111871700Y-86025911D01*
X112004088Y-86158299D01*
X112004092Y-86158302D01*
X112159762Y-86262318D01*
X112159768Y-86262321D01*
X112159769Y-86262322D01*
X112332749Y-86333973D01*
X112516379Y-86370499D01*
X112516383Y-86370500D01*
X112516384Y-86370500D01*
X113403617Y-86370500D01*
X113403618Y-86370499D01*
X113587251Y-86333973D01*
X113760231Y-86262322D01*
X113915908Y-86158302D01*
X114048302Y-86025908D01*
X114152322Y-85870231D01*
X114223973Y-85697251D01*
X114260500Y-85513616D01*
X114260500Y-85326384D01*
X114260350Y-85325630D01*
X114239237Y-85219483D01*
X114235636Y-85201379D01*
X136634500Y-85201379D01*
X136634500Y-85388620D01*
X136671025Y-85572243D01*
X136671027Y-85572251D01*
X136742676Y-85745228D01*
X136742681Y-85745237D01*
X136846697Y-85900907D01*
X136846700Y-85900911D01*
X136979088Y-86033299D01*
X136979092Y-86033302D01*
X137134762Y-86137318D01*
X137134768Y-86137321D01*
X137134769Y-86137322D01*
X137307749Y-86208973D01*
X137491379Y-86245499D01*
X137491383Y-86245500D01*
X137491384Y-86245500D01*
X138378617Y-86245500D01*
X138378618Y-86245499D01*
X138562251Y-86208973D01*
X138735231Y-86137322D01*
X138890908Y-86033302D01*
X139023302Y-85900908D01*
X139127322Y-85745231D01*
X139198973Y-85572251D01*
X139235500Y-85388616D01*
X139235500Y-85201384D01*
X139198973Y-85017749D01*
X139127322Y-84844769D01*
X139127321Y-84844768D01*
X139127318Y-84844762D01*
X139023302Y-84689092D01*
X139023299Y-84689088D01*
X138890911Y-84556700D01*
X138890907Y-84556697D01*
X138735237Y-84452681D01*
X138735228Y-84452676D01*
X138562251Y-84381027D01*
X138562243Y-84381025D01*
X138378620Y-84344500D01*
X138378616Y-84344500D01*
X137491384Y-84344500D01*
X137491379Y-84344500D01*
X137307756Y-84381025D01*
X137307748Y-84381027D01*
X137134771Y-84452676D01*
X137134762Y-84452681D01*
X136979092Y-84556697D01*
X136979088Y-84556700D01*
X136846700Y-84689088D01*
X136846697Y-84689092D01*
X136742681Y-84844762D01*
X136742676Y-84844771D01*
X136671027Y-85017748D01*
X136671025Y-85017756D01*
X136634500Y-85201379D01*
X114235636Y-85201379D01*
X114223974Y-85142756D01*
X114223973Y-85142749D01*
X114152322Y-84969769D01*
X114152321Y-84969768D01*
X114152318Y-84969762D01*
X114048302Y-84814092D01*
X114048299Y-84814088D01*
X113915911Y-84681700D01*
X113915907Y-84681697D01*
X113760237Y-84577681D01*
X113760228Y-84577676D01*
X113587251Y-84506027D01*
X113587243Y-84506025D01*
X113403620Y-84469500D01*
X113403616Y-84469500D01*
X112516384Y-84469500D01*
X112516379Y-84469500D01*
X112332756Y-84506025D01*
X112332748Y-84506027D01*
X112159771Y-84577676D01*
X112159762Y-84577681D01*
X112004092Y-84681697D01*
X112004088Y-84681700D01*
X111871700Y-84814088D01*
X111871697Y-84814092D01*
X111767681Y-84969762D01*
X111767676Y-84969771D01*
X111696027Y-85142748D01*
X111696025Y-85142756D01*
X111659500Y-85326379D01*
X105808000Y-85326379D01*
X105808000Y-82776228D01*
X112109500Y-82776228D01*
X112109500Y-82943771D01*
X112142182Y-83108074D01*
X112142184Y-83108082D01*
X112206295Y-83262860D01*
X112299373Y-83402162D01*
X112417837Y-83520626D01*
X112502683Y-83577318D01*
X112557137Y-83613703D01*
X112711918Y-83677816D01*
X112876228Y-83710499D01*
X112876232Y-83710500D01*
X112876233Y-83710500D01*
X113043768Y-83710500D01*
X113043769Y-83710499D01*
X113208082Y-83677816D01*
X113362863Y-83613703D01*
X113502162Y-83520626D01*
X113620626Y-83402162D01*
X113713703Y-83262863D01*
X113777816Y-83108082D01*
X113810500Y-82943767D01*
X113810500Y-82776233D01*
X113810345Y-82775453D01*
X113787278Y-82659483D01*
X113783677Y-82641379D01*
X136634500Y-82641379D01*
X136634500Y-82828620D01*
X136671025Y-83012243D01*
X136671027Y-83012251D01*
X136742676Y-83185228D01*
X136742681Y-83185237D01*
X136846697Y-83340907D01*
X136846700Y-83340911D01*
X136979088Y-83473299D01*
X136979092Y-83473302D01*
X137134762Y-83577318D01*
X137134768Y-83577321D01*
X137134769Y-83577322D01*
X137307749Y-83648973D01*
X137452749Y-83677815D01*
X137491379Y-83685499D01*
X137491383Y-83685500D01*
X137491384Y-83685500D01*
X138378617Y-83685500D01*
X138378618Y-83685499D01*
X138562251Y-83648973D01*
X138735231Y-83577322D01*
X138890908Y-83473302D01*
X139023302Y-83340908D01*
X139127322Y-83185231D01*
X139198973Y-83012251D01*
X139235500Y-82828616D01*
X139235500Y-82641384D01*
X139198973Y-82457749D01*
X139127322Y-82284769D01*
X139127321Y-82284768D01*
X139127318Y-82284762D01*
X139023302Y-82129092D01*
X139023299Y-82129088D01*
X138890911Y-81996700D01*
X138890907Y-81996697D01*
X138735237Y-81892681D01*
X138735228Y-81892676D01*
X138562251Y-81821027D01*
X138562243Y-81821025D01*
X138378620Y-81784500D01*
X138378616Y-81784500D01*
X137491384Y-81784500D01*
X137491379Y-81784500D01*
X137307756Y-81821025D01*
X137307748Y-81821027D01*
X137134771Y-81892676D01*
X137134762Y-81892681D01*
X136979092Y-81996697D01*
X136979088Y-81996700D01*
X136846700Y-82129088D01*
X136846697Y-82129092D01*
X136742681Y-82284762D01*
X136742676Y-82284771D01*
X136671027Y-82457748D01*
X136671025Y-82457756D01*
X136634500Y-82641379D01*
X113783677Y-82641379D01*
X113777817Y-82611923D01*
X113777816Y-82611922D01*
X113777816Y-82611918D01*
X113728227Y-82492201D01*
X113713704Y-82457139D01*
X113620626Y-82317837D01*
X113502162Y-82199373D01*
X113362860Y-82106295D01*
X113208082Y-82042184D01*
X113208074Y-82042182D01*
X113043771Y-82009500D01*
X113043767Y-82009500D01*
X112876233Y-82009500D01*
X112876228Y-82009500D01*
X112711925Y-82042182D01*
X112711917Y-82042184D01*
X112557139Y-82106295D01*
X112417837Y-82199373D01*
X112299373Y-82317837D01*
X112206295Y-82457139D01*
X112142184Y-82611917D01*
X112142182Y-82611925D01*
X112109500Y-82776228D01*
X105808000Y-82776228D01*
X105808000Y-80266379D01*
X111684500Y-80266379D01*
X111684500Y-80453620D01*
X111721025Y-80637243D01*
X111721027Y-80637251D01*
X111792676Y-80810228D01*
X111792681Y-80810237D01*
X111896697Y-80965907D01*
X111896700Y-80965911D01*
X112029088Y-81098299D01*
X112029092Y-81098302D01*
X112184762Y-81202318D01*
X112184768Y-81202321D01*
X112184769Y-81202322D01*
X112357749Y-81273973D01*
X112541379Y-81310499D01*
X112541383Y-81310500D01*
X112541384Y-81310500D01*
X113428617Y-81310500D01*
X113428618Y-81310499D01*
X113612251Y-81273973D01*
X113785231Y-81202322D01*
X113940908Y-81098302D01*
X114073302Y-80965908D01*
X114177322Y-80810231D01*
X114248973Y-80637251D01*
X114285500Y-80453616D01*
X114285500Y-80266384D01*
X114285350Y-80265630D01*
X114264237Y-80159483D01*
X114260636Y-80141379D01*
X136659500Y-80141379D01*
X136659500Y-80328620D01*
X136696025Y-80512243D01*
X136696027Y-80512251D01*
X136767676Y-80685228D01*
X136767681Y-80685237D01*
X136871697Y-80840907D01*
X136871700Y-80840911D01*
X137004088Y-80973299D01*
X137004092Y-80973302D01*
X137159762Y-81077318D01*
X137159768Y-81077321D01*
X137159769Y-81077322D01*
X137332749Y-81148973D01*
X137459193Y-81174124D01*
X137516379Y-81185499D01*
X137516383Y-81185500D01*
X137516384Y-81185500D01*
X138403617Y-81185500D01*
X138403618Y-81185499D01*
X138587251Y-81148973D01*
X138760231Y-81077322D01*
X138915908Y-80973302D01*
X139048302Y-80840908D01*
X139152322Y-80685231D01*
X139223973Y-80512251D01*
X139237889Y-80442292D01*
X139245417Y-80404447D01*
X139260499Y-80328620D01*
X139260500Y-80328617D01*
X139260500Y-80141383D01*
X139260499Y-80141379D01*
X139223974Y-79957756D01*
X139223973Y-79957749D01*
X139152322Y-79784769D01*
X139152321Y-79784768D01*
X139152318Y-79784762D01*
X139048300Y-79629089D01*
X138974224Y-79555013D01*
X145462500Y-79555013D01*
X145462500Y-79980000D01*
X146346752Y-79980000D01*
X146324982Y-80017708D01*
X146287500Y-80157591D01*
X146287500Y-80302409D01*
X146324982Y-80442292D01*
X146346752Y-80480000D01*
X145462501Y-80480000D01*
X145462501Y-80904986D01*
X145472994Y-81007697D01*
X145528141Y-81174119D01*
X145528143Y-81174124D01*
X145620184Y-81323345D01*
X145744154Y-81447315D01*
X145893375Y-81539356D01*
X145893380Y-81539358D01*
X146059802Y-81594505D01*
X146059809Y-81594506D01*
X146162519Y-81604999D01*
X146587499Y-81604999D01*
X146587500Y-81604998D01*
X146587500Y-80720747D01*
X146625208Y-80742518D01*
X146765091Y-80780000D01*
X146909909Y-80780000D01*
X147049792Y-80742518D01*
X147087500Y-80720747D01*
X147087500Y-81604999D01*
X147512472Y-81604999D01*
X147512486Y-81604998D01*
X147615197Y-81594505D01*
X147781619Y-81539358D01*
X147781624Y-81539356D01*
X147930845Y-81447315D01*
X148054815Y-81323345D01*
X148146856Y-81174124D01*
X148146858Y-81174119D01*
X148202005Y-81007697D01*
X148202006Y-81007690D01*
X148212499Y-80904986D01*
X148212500Y-80904973D01*
X148212500Y-80480000D01*
X147328248Y-80480000D01*
X147350018Y-80442292D01*
X147387500Y-80302409D01*
X147387500Y-80157591D01*
X147350018Y-80017708D01*
X147328248Y-79980000D01*
X148212499Y-79980000D01*
X148212499Y-79555028D01*
X148212498Y-79555013D01*
X148202005Y-79452302D01*
X148146858Y-79285880D01*
X148146856Y-79285875D01*
X148054815Y-79136654D01*
X147930845Y-79012684D01*
X147781624Y-78920643D01*
X147781619Y-78920641D01*
X147615197Y-78865494D01*
X147615190Y-78865493D01*
X147512486Y-78855000D01*
X147087500Y-78855000D01*
X147087500Y-79739252D01*
X147049792Y-79717482D01*
X146909909Y-79680000D01*
X146765091Y-79680000D01*
X146625208Y-79717482D01*
X146587500Y-79739252D01*
X146587500Y-78855000D01*
X146162528Y-78855000D01*
X146162512Y-78855001D01*
X146059802Y-78865494D01*
X145893380Y-78920641D01*
X145893375Y-78920643D01*
X145744154Y-79012684D01*
X145620184Y-79136654D01*
X145528143Y-79285875D01*
X145528141Y-79285880D01*
X145472994Y-79452302D01*
X145472993Y-79452309D01*
X145462500Y-79555013D01*
X138974224Y-79555013D01*
X138915911Y-79496700D01*
X138915907Y-79496697D01*
X138760237Y-79392681D01*
X138760228Y-79392676D01*
X138587251Y-79321027D01*
X138587243Y-79321025D01*
X138403620Y-79284500D01*
X138403616Y-79284500D01*
X137516384Y-79284500D01*
X137516379Y-79284500D01*
X137332756Y-79321025D01*
X137332748Y-79321027D01*
X137159771Y-79392676D01*
X137159762Y-79392681D01*
X137004092Y-79496697D01*
X137004088Y-79496700D01*
X136871700Y-79629088D01*
X136871697Y-79629092D01*
X136767681Y-79784762D01*
X136767676Y-79784771D01*
X136696027Y-79957748D01*
X136696025Y-79957756D01*
X136659500Y-80141379D01*
X114260636Y-80141379D01*
X114248974Y-80082756D01*
X114248973Y-80082749D01*
X114177322Y-79909769D01*
X114177321Y-79909768D01*
X114177318Y-79909762D01*
X114073302Y-79754092D01*
X114073299Y-79754088D01*
X113940911Y-79621700D01*
X113940907Y-79621697D01*
X113785237Y-79517681D01*
X113785228Y-79517676D01*
X113612251Y-79446027D01*
X113612243Y-79446025D01*
X113428620Y-79409500D01*
X113428616Y-79409500D01*
X112541384Y-79409500D01*
X112541379Y-79409500D01*
X112357756Y-79446025D01*
X112357748Y-79446027D01*
X112184771Y-79517676D01*
X112184762Y-79517681D01*
X112029092Y-79621697D01*
X112029088Y-79621700D01*
X111896700Y-79754088D01*
X111896697Y-79754092D01*
X111792681Y-79909762D01*
X111792676Y-79909771D01*
X111721027Y-80082748D01*
X111721025Y-80082756D01*
X111684500Y-80266379D01*
X105808000Y-80266379D01*
X105808000Y-79454000D01*
X105827685Y-79386961D01*
X105880489Y-79341206D01*
X105932000Y-79330000D01*
X106167500Y-79330000D01*
X106167500Y-78363012D01*
X106224507Y-78395925D01*
X106351674Y-78430000D01*
X106483326Y-78430000D01*
X106610493Y-78395925D01*
X106667500Y-78363012D01*
X106667500Y-79330000D01*
X107365328Y-79330000D01*
X107365344Y-79329999D01*
X107424872Y-79323598D01*
X107424879Y-79323596D01*
X107559586Y-79273354D01*
X107559593Y-79273350D01*
X107674687Y-79187190D01*
X107674690Y-79187187D01*
X107760850Y-79072093D01*
X107760854Y-79072086D01*
X107811096Y-78937379D01*
X107811098Y-78937372D01*
X107817499Y-78877844D01*
X107817500Y-78877827D01*
X107817500Y-78614840D01*
X107837185Y-78547801D01*
X107889989Y-78502046D01*
X107959147Y-78492102D01*
X108022703Y-78521127D01*
X108041816Y-78541952D01*
X108118086Y-78646928D01*
X108240572Y-78769414D01*
X108380712Y-78871232D01*
X108535055Y-78949873D01*
X108699799Y-79003402D01*
X108870889Y-79030500D01*
X108870890Y-79030500D01*
X109044110Y-79030500D01*
X109044111Y-79030500D01*
X109215201Y-79003402D01*
X109379945Y-78949873D01*
X109534288Y-78871232D01*
X109674428Y-78769414D01*
X109796914Y-78646928D01*
X109898732Y-78506788D01*
X109977373Y-78352445D01*
X110030902Y-78187701D01*
X110058000Y-78016611D01*
X110058000Y-77843389D01*
X110043427Y-77751379D01*
X111709500Y-77751379D01*
X111709500Y-77938620D01*
X111746025Y-78122243D01*
X111746027Y-78122251D01*
X111817676Y-78295228D01*
X111817681Y-78295237D01*
X111921697Y-78450907D01*
X111921700Y-78450911D01*
X112054088Y-78583299D01*
X112054092Y-78583302D01*
X112209762Y-78687318D01*
X112209768Y-78687321D01*
X112209769Y-78687322D01*
X112382749Y-78758973D01*
X112566379Y-78795499D01*
X112566383Y-78795500D01*
X112566384Y-78795500D01*
X113453617Y-78795500D01*
X113453618Y-78795499D01*
X113637251Y-78758973D01*
X113810231Y-78687322D01*
X113965908Y-78583302D01*
X114098302Y-78450908D01*
X114202322Y-78295231D01*
X114273973Y-78122251D01*
X114310500Y-77938616D01*
X114310500Y-77751384D01*
X114294770Y-77672302D01*
X114291196Y-77654332D01*
X114287595Y-77636228D01*
X137134500Y-77636228D01*
X137134500Y-77803771D01*
X137167182Y-77968074D01*
X137167184Y-77968082D01*
X137231295Y-78122860D01*
X137324373Y-78262162D01*
X137442837Y-78380626D01*
X137465734Y-78395925D01*
X137582137Y-78473703D01*
X137736918Y-78537816D01*
X137901228Y-78570499D01*
X137901232Y-78570500D01*
X137901233Y-78570500D01*
X138068768Y-78570500D01*
X138068769Y-78570499D01*
X138233082Y-78537816D01*
X138387863Y-78473703D01*
X138527162Y-78380626D01*
X138645626Y-78262162D01*
X138738703Y-78122863D01*
X138802816Y-77968082D01*
X138835500Y-77803767D01*
X138835500Y-77636233D01*
X138802816Y-77471918D01*
X138738703Y-77317137D01*
X138687396Y-77240351D01*
X138645626Y-77177837D01*
X138527162Y-77059373D01*
X138387860Y-76966295D01*
X138233082Y-76902184D01*
X138233074Y-76902182D01*
X138068771Y-76869500D01*
X138068767Y-76869500D01*
X137901233Y-76869500D01*
X137901228Y-76869500D01*
X137736925Y-76902182D01*
X137736917Y-76902184D01*
X137582139Y-76966295D01*
X137442837Y-77059373D01*
X137324373Y-77177837D01*
X137231295Y-77317139D01*
X137167184Y-77471917D01*
X137167182Y-77471925D01*
X137134500Y-77636228D01*
X114287595Y-77636228D01*
X114273974Y-77567756D01*
X114273973Y-77567749D01*
X114202322Y-77394769D01*
X114202321Y-77394768D01*
X114202318Y-77394762D01*
X114098302Y-77239092D01*
X114098299Y-77239088D01*
X113965911Y-77106700D01*
X113965907Y-77106697D01*
X113810237Y-77002681D01*
X113810228Y-77002676D01*
X113637251Y-76931027D01*
X113637243Y-76931025D01*
X113453620Y-76894500D01*
X113453616Y-76894500D01*
X112566384Y-76894500D01*
X112566379Y-76894500D01*
X112382756Y-76931025D01*
X112382748Y-76931027D01*
X112209771Y-77002676D01*
X112209762Y-77002681D01*
X112054092Y-77106697D01*
X112054088Y-77106700D01*
X111921700Y-77239088D01*
X111921697Y-77239092D01*
X111817681Y-77394762D01*
X111817676Y-77394771D01*
X111746027Y-77567748D01*
X111746025Y-77567756D01*
X111709500Y-77751379D01*
X110043427Y-77751379D01*
X110030902Y-77672299D01*
X109977373Y-77507555D01*
X109898732Y-77353212D01*
X109796914Y-77213072D01*
X109674428Y-77090586D01*
X109534288Y-76988768D01*
X109379945Y-76910127D01*
X109215201Y-76856598D01*
X109215199Y-76856597D01*
X109215198Y-76856597D01*
X109065281Y-76832853D01*
X109044111Y-76829500D01*
X108870889Y-76829500D01*
X108849719Y-76832853D01*
X108699802Y-76856597D01*
X108535052Y-76910128D01*
X108380711Y-76988768D01*
X108361562Y-77002681D01*
X108240572Y-77090586D01*
X108240570Y-77090588D01*
X108240569Y-77090588D01*
X108118087Y-77213070D01*
X108041818Y-77318045D01*
X107986487Y-77360711D01*
X107916874Y-77366689D01*
X107855079Y-77334083D01*
X107820722Y-77273244D01*
X107817500Y-77245159D01*
X107817500Y-76982172D01*
X107817499Y-76982155D01*
X107811098Y-76922627D01*
X107811096Y-76922620D01*
X107760854Y-76787913D01*
X107760850Y-76787906D01*
X107674690Y-76672812D01*
X107674687Y-76672809D01*
X107559593Y-76586649D01*
X107559586Y-76586645D01*
X107424879Y-76536403D01*
X107424872Y-76536401D01*
X107365344Y-76530000D01*
X106667500Y-76530000D01*
X106667500Y-77496988D01*
X106610493Y-77464075D01*
X106483326Y-77430000D01*
X106351674Y-77430000D01*
X106224507Y-77464075D01*
X106167500Y-77496988D01*
X106167500Y-76530000D01*
X105932000Y-76530000D01*
X105923314Y-76527449D01*
X105914353Y-76528738D01*
X105890312Y-76517759D01*
X105864961Y-76510315D01*
X105859033Y-76503474D01*
X105850797Y-76499713D01*
X105836507Y-76477478D01*
X105819206Y-76457511D01*
X105816918Y-76446996D01*
X105813023Y-76440935D01*
X105808000Y-76406000D01*
X105808000Y-76335350D01*
X145762000Y-76335350D01*
X145762000Y-76504649D01*
X145788481Y-76671847D01*
X145840796Y-76832853D01*
X145886536Y-76922620D01*
X145916879Y-76982172D01*
X145917652Y-76983688D01*
X146017148Y-77120634D01*
X146017152Y-77120639D01*
X146136860Y-77240347D01*
X146136865Y-77240351D01*
X146182139Y-77273244D01*
X146273815Y-77339850D01*
X146369925Y-77388820D01*
X146424646Y-77416703D01*
X146424648Y-77416703D01*
X146424651Y-77416705D01*
X146465569Y-77430000D01*
X146585652Y-77469018D01*
X146752851Y-77495500D01*
X146752856Y-77495500D01*
X146922149Y-77495500D01*
X147089347Y-77469018D01*
X147104560Y-77464075D01*
X147250349Y-77416705D01*
X147401185Y-77339850D01*
X147538141Y-77240346D01*
X147657846Y-77120641D01*
X147757350Y-76983685D01*
X147834205Y-76832849D01*
X147886518Y-76671847D01*
X147900012Y-76586649D01*
X147913000Y-76504649D01*
X147913000Y-76335350D01*
X147886518Y-76168152D01*
X147835293Y-76010500D01*
X147834205Y-76007151D01*
X147834203Y-76007148D01*
X147834203Y-76007146D01*
X147786591Y-75913704D01*
X147757350Y-75856315D01*
X147731421Y-75820626D01*
X147657851Y-75719365D01*
X147657847Y-75719360D01*
X147538139Y-75599652D01*
X147538134Y-75599648D01*
X147401188Y-75500152D01*
X147401187Y-75500151D01*
X147401185Y-75500150D01*
X147354082Y-75476150D01*
X147250353Y-75423296D01*
X147089347Y-75370981D01*
X146922149Y-75344500D01*
X146922144Y-75344500D01*
X146752856Y-75344500D01*
X146752851Y-75344500D01*
X146585652Y-75370981D01*
X146424646Y-75423296D01*
X146273811Y-75500152D01*
X146136865Y-75599648D01*
X146136860Y-75599652D01*
X146017152Y-75719360D01*
X146017148Y-75719365D01*
X145917652Y-75856311D01*
X145840796Y-76007146D01*
X145788481Y-76168152D01*
X145762000Y-76335350D01*
X105808000Y-76335350D01*
X105808000Y-75201228D01*
X112159500Y-75201228D01*
X112159500Y-75368771D01*
X112192182Y-75533074D01*
X112192184Y-75533082D01*
X112256295Y-75687860D01*
X112349373Y-75827162D01*
X112467837Y-75945626D01*
X112516015Y-75977817D01*
X112607137Y-76038703D01*
X112761918Y-76102816D01*
X112926228Y-76135499D01*
X112926232Y-76135500D01*
X112926233Y-76135500D01*
X113093768Y-76135500D01*
X113093769Y-76135499D01*
X113258082Y-76102816D01*
X113412863Y-76038703D01*
X113552162Y-75945626D01*
X113670626Y-75827162D01*
X113763703Y-75687863D01*
X113827816Y-75533082D01*
X113860500Y-75368767D01*
X113860500Y-75201233D01*
X113860344Y-75200452D01*
X113839237Y-75094332D01*
X113835636Y-75076228D01*
X137134500Y-75076228D01*
X137134500Y-75243771D01*
X137167182Y-75408074D01*
X137167184Y-75408082D01*
X137231295Y-75562860D01*
X137324373Y-75702162D01*
X137442837Y-75820626D01*
X137496244Y-75856311D01*
X137582137Y-75913703D01*
X137736918Y-75977816D01*
X137901228Y-76010499D01*
X137901232Y-76010500D01*
X137901233Y-76010500D01*
X138068768Y-76010500D01*
X138068769Y-76010499D01*
X138233082Y-75977816D01*
X138387863Y-75913703D01*
X138527162Y-75820626D01*
X138645626Y-75702162D01*
X138738703Y-75562863D01*
X138802816Y-75408082D01*
X138835500Y-75243767D01*
X138835500Y-75076233D01*
X138802816Y-74911918D01*
X138738703Y-74757137D01*
X138707537Y-74710494D01*
X138645626Y-74617837D01*
X138527162Y-74499373D01*
X138387860Y-74406295D01*
X138233082Y-74342184D01*
X138233074Y-74342182D01*
X138068771Y-74309500D01*
X138068767Y-74309500D01*
X137901233Y-74309500D01*
X137901228Y-74309500D01*
X137736925Y-74342182D01*
X137736917Y-74342184D01*
X137582139Y-74406295D01*
X137442837Y-74499373D01*
X137324373Y-74617837D01*
X137231295Y-74757139D01*
X137167184Y-74911917D01*
X137167182Y-74911925D01*
X137134500Y-75076228D01*
X113835636Y-75076228D01*
X113827817Y-75036925D01*
X113827816Y-75036918D01*
X113763703Y-74882137D01*
X113680182Y-74757139D01*
X113670626Y-74742837D01*
X113552162Y-74624373D01*
X113412860Y-74531295D01*
X113258082Y-74467184D01*
X113258074Y-74467182D01*
X113093771Y-74434500D01*
X113093767Y-74434500D01*
X112926233Y-74434500D01*
X112926228Y-74434500D01*
X112761925Y-74467182D01*
X112761917Y-74467184D01*
X112607139Y-74531295D01*
X112467837Y-74624373D01*
X112349373Y-74742837D01*
X112256295Y-74882139D01*
X112192184Y-75036917D01*
X112192182Y-75036925D01*
X112159500Y-75201228D01*
X105808000Y-75201228D01*
X105808000Y-73434000D01*
X105827685Y-73366961D01*
X105880489Y-73321206D01*
X105932000Y-73310000D01*
X106177500Y-73310000D01*
X106177500Y-72343012D01*
X106234507Y-72375925D01*
X106361674Y-72410000D01*
X106493326Y-72410000D01*
X106620493Y-72375925D01*
X106677500Y-72343012D01*
X106677500Y-73310000D01*
X107375328Y-73310000D01*
X107375344Y-73309999D01*
X107434872Y-73303598D01*
X107434879Y-73303596D01*
X107569586Y-73253354D01*
X107569593Y-73253350D01*
X107684687Y-73167190D01*
X107684690Y-73167187D01*
X107770850Y-73052093D01*
X107770854Y-73052086D01*
X107821096Y-72917379D01*
X107821098Y-72917372D01*
X107827499Y-72857844D01*
X107827500Y-72857827D01*
X107827500Y-72594840D01*
X107847185Y-72527801D01*
X107899989Y-72482046D01*
X107969147Y-72472102D01*
X108032703Y-72501127D01*
X108051816Y-72521952D01*
X108128086Y-72626928D01*
X108250572Y-72749414D01*
X108390712Y-72851232D01*
X108545055Y-72929873D01*
X108709799Y-72983402D01*
X108880889Y-73010500D01*
X108880890Y-73010500D01*
X109054110Y-73010500D01*
X109054111Y-73010500D01*
X109225201Y-72983402D01*
X109389945Y-72929873D01*
X109544288Y-72851232D01*
X109684428Y-72749414D01*
X109772614Y-72661228D01*
X112109500Y-72661228D01*
X112109500Y-72828771D01*
X112142182Y-72993074D01*
X112142184Y-72993082D01*
X112206295Y-73147860D01*
X112299373Y-73287162D01*
X112417837Y-73405626D01*
X112502683Y-73462318D01*
X112557137Y-73498703D01*
X112711918Y-73562816D01*
X112876228Y-73595499D01*
X112876232Y-73595500D01*
X112876233Y-73595500D01*
X113043768Y-73595500D01*
X113043769Y-73595499D01*
X113208082Y-73562816D01*
X113362863Y-73498703D01*
X113502162Y-73405626D01*
X113620626Y-73287162D01*
X113713703Y-73147863D01*
X113777816Y-72993082D01*
X113810500Y-72828767D01*
X113810500Y-72661233D01*
X113777816Y-72496918D01*
X113720337Y-72358152D01*
X113713704Y-72342139D01*
X113620626Y-72202837D01*
X113502162Y-72084373D01*
X113362860Y-71991295D01*
X113208082Y-71927184D01*
X113208074Y-71927182D01*
X113043771Y-71894500D01*
X113043767Y-71894500D01*
X112876233Y-71894500D01*
X112876228Y-71894500D01*
X112711925Y-71927182D01*
X112711917Y-71927184D01*
X112557139Y-71991295D01*
X112417837Y-72084373D01*
X112299373Y-72202837D01*
X112206295Y-72342139D01*
X112142184Y-72496917D01*
X112142182Y-72496925D01*
X112109500Y-72661228D01*
X109772614Y-72661228D01*
X109806914Y-72626928D01*
X109908732Y-72486788D01*
X109987373Y-72332445D01*
X110040902Y-72167701D01*
X110068000Y-71996611D01*
X110068000Y-71823389D01*
X110040902Y-71652299D01*
X109987373Y-71487555D01*
X109908732Y-71333212D01*
X109806914Y-71193072D01*
X109684428Y-71070586D01*
X109544288Y-70968768D01*
X109389945Y-70890127D01*
X109225201Y-70836598D01*
X109225199Y-70836597D01*
X109225198Y-70836597D01*
X109093771Y-70815781D01*
X109054111Y-70809500D01*
X108880889Y-70809500D01*
X108841228Y-70815781D01*
X108709802Y-70836597D01*
X108545052Y-70890128D01*
X108390711Y-70968768D01*
X108310756Y-71026859D01*
X108250572Y-71070586D01*
X108250570Y-71070588D01*
X108250569Y-71070588D01*
X108128087Y-71193070D01*
X108051818Y-71298045D01*
X107996487Y-71340711D01*
X107926874Y-71346689D01*
X107865079Y-71314083D01*
X107830722Y-71253244D01*
X107827500Y-71225159D01*
X107827500Y-70962172D01*
X107827499Y-70962155D01*
X107821098Y-70902627D01*
X107821096Y-70902620D01*
X107770854Y-70767913D01*
X107770850Y-70767906D01*
X107684690Y-70652812D01*
X107684687Y-70652809D01*
X107569593Y-70566649D01*
X107569586Y-70566645D01*
X107455564Y-70524118D01*
X107434879Y-70516403D01*
X107434872Y-70516401D01*
X107375344Y-70510000D01*
X106677500Y-70510000D01*
X106677500Y-71476988D01*
X106620493Y-71444075D01*
X106493326Y-71410000D01*
X106361674Y-71410000D01*
X106234507Y-71444075D01*
X106177500Y-71476988D01*
X106177500Y-70510000D01*
X105932000Y-70510000D01*
X105864961Y-70490315D01*
X105819206Y-70437511D01*
X105808000Y-70386000D01*
X105808000Y-69945000D01*
X111384016Y-69945000D01*
X112411518Y-69945000D01*
X112400889Y-69963409D01*
X112360000Y-70116009D01*
X112360000Y-70273991D01*
X112400889Y-70426591D01*
X112411518Y-70445000D01*
X111384016Y-70445000D01*
X111390781Y-70487716D01*
X111451581Y-70674837D01*
X111540904Y-70850143D01*
X111656555Y-71009321D01*
X111795678Y-71148444D01*
X111954856Y-71264095D01*
X112130164Y-71353418D01*
X112317294Y-71414221D01*
X112511618Y-71445000D01*
X112710000Y-71445000D01*
X112710000Y-70743482D01*
X112728409Y-70754111D01*
X112881009Y-70795000D01*
X113038991Y-70795000D01*
X113191591Y-70754111D01*
X113210000Y-70743482D01*
X113210000Y-71445000D01*
X113408382Y-71445000D01*
X113602705Y-71414221D01*
X113789835Y-71353418D01*
X113965143Y-71264095D01*
X114124321Y-71148444D01*
X114263444Y-71009321D01*
X114379095Y-70850143D01*
X114468418Y-70674837D01*
X114529218Y-70487716D01*
X114535984Y-70445000D01*
X113508482Y-70445000D01*
X113519111Y-70426591D01*
X113560000Y-70273991D01*
X113560000Y-70116009D01*
X113519111Y-69963409D01*
X113508482Y-69945000D01*
X114535984Y-69945000D01*
X136384016Y-69945000D01*
X137411518Y-69945000D01*
X137400889Y-69963409D01*
X137360000Y-70116009D01*
X137360000Y-70273991D01*
X137400889Y-70426591D01*
X137411518Y-70445000D01*
X136384016Y-70445000D01*
X136390781Y-70487716D01*
X136451581Y-70674837D01*
X136540904Y-70850143D01*
X136656555Y-71009321D01*
X136795678Y-71148444D01*
X136954856Y-71264095D01*
X137130164Y-71353418D01*
X137317294Y-71414221D01*
X137317295Y-71414222D01*
X137442854Y-71434108D01*
X137505989Y-71464037D01*
X137542921Y-71523348D01*
X137541923Y-71593211D01*
X137503314Y-71651444D01*
X137447649Y-71678198D01*
X137307754Y-71706025D01*
X137307748Y-71706027D01*
X137134771Y-71777676D01*
X137134762Y-71777681D01*
X136979092Y-71881697D01*
X136979088Y-71881700D01*
X136846700Y-72014088D01*
X136846697Y-72014092D01*
X136742681Y-72169762D01*
X136742676Y-72169771D01*
X136671027Y-72342748D01*
X136671025Y-72342756D01*
X136634500Y-72526379D01*
X136634500Y-72713620D01*
X136671025Y-72897243D01*
X136671027Y-72897251D01*
X136742676Y-73070228D01*
X136742681Y-73070237D01*
X136846697Y-73225907D01*
X136846700Y-73225911D01*
X136979088Y-73358299D01*
X136979092Y-73358302D01*
X137134762Y-73462318D01*
X137134768Y-73462321D01*
X137134769Y-73462322D01*
X137307749Y-73533973D01*
X137452749Y-73562815D01*
X137491379Y-73570499D01*
X137491383Y-73570500D01*
X137491384Y-73570500D01*
X138378617Y-73570500D01*
X138378618Y-73570499D01*
X138562251Y-73533973D01*
X138735231Y-73462322D01*
X138890908Y-73358302D01*
X139023302Y-73225908D01*
X139127322Y-73070231D01*
X139198973Y-72897251D01*
X139235500Y-72713616D01*
X139235500Y-72526384D01*
X139235294Y-72525350D01*
X145762000Y-72525350D01*
X145762000Y-72694649D01*
X145788481Y-72861847D01*
X145840796Y-73022853D01*
X145864937Y-73070231D01*
X145914339Y-73167187D01*
X145917652Y-73173688D01*
X146017148Y-73310634D01*
X146017152Y-73310639D01*
X146136860Y-73430347D01*
X146136865Y-73430351D01*
X146230946Y-73498704D01*
X146273815Y-73529850D01*
X146353593Y-73570499D01*
X146424646Y-73606703D01*
X146424648Y-73606703D01*
X146424651Y-73606705D01*
X146510950Y-73634745D01*
X146585652Y-73659018D01*
X146752851Y-73685500D01*
X146752856Y-73685500D01*
X146922149Y-73685500D01*
X147089347Y-73659018D01*
X147250349Y-73606705D01*
X147401185Y-73529850D01*
X147538141Y-73430346D01*
X147657846Y-73310641D01*
X147757350Y-73173685D01*
X147834205Y-73022849D01*
X147886518Y-72861847D01*
X147891757Y-72828767D01*
X147913000Y-72694649D01*
X147913000Y-72525350D01*
X147886518Y-72358152D01*
X147862245Y-72283450D01*
X147834205Y-72197151D01*
X147834203Y-72197148D01*
X147834203Y-72197146D01*
X147776742Y-72084374D01*
X147757350Y-72046315D01*
X147721238Y-71996611D01*
X147657851Y-71909365D01*
X147657847Y-71909360D01*
X147538139Y-71789652D01*
X147538134Y-71789648D01*
X147401188Y-71690152D01*
X147401187Y-71690151D01*
X147401185Y-71690150D01*
X147354082Y-71666150D01*
X147250353Y-71613296D01*
X147089347Y-71560981D01*
X146922149Y-71534500D01*
X146922144Y-71534500D01*
X146752856Y-71534500D01*
X146752851Y-71534500D01*
X146585652Y-71560981D01*
X146424646Y-71613296D01*
X146273811Y-71690152D01*
X146136865Y-71789648D01*
X146136860Y-71789652D01*
X146017152Y-71909360D01*
X146017148Y-71909365D01*
X145917652Y-72046311D01*
X145840796Y-72197146D01*
X145788481Y-72358152D01*
X145762000Y-72525350D01*
X139235294Y-72525350D01*
X139198973Y-72342749D01*
X139127322Y-72169769D01*
X139127321Y-72169768D01*
X139127318Y-72169762D01*
X139023302Y-72014092D01*
X139023299Y-72014088D01*
X138890911Y-71881700D01*
X138890907Y-71881697D01*
X138735237Y-71777681D01*
X138735228Y-71777676D01*
X138562251Y-71706027D01*
X138562245Y-71706025D01*
X138444515Y-71682607D01*
X138382604Y-71650222D01*
X138348030Y-71589506D01*
X138351770Y-71519737D01*
X138392637Y-71463065D01*
X138449309Y-71438517D01*
X138602705Y-71414221D01*
X138789835Y-71353418D01*
X138965143Y-71264095D01*
X139124321Y-71148444D01*
X139263444Y-71009321D01*
X139379095Y-70850143D01*
X139468418Y-70674837D01*
X139529218Y-70487716D01*
X139535984Y-70445000D01*
X138508482Y-70445000D01*
X138519111Y-70426591D01*
X138560000Y-70273991D01*
X138560000Y-70116009D01*
X138519111Y-69963409D01*
X138508482Y-69945000D01*
X139535984Y-69945000D01*
X139529218Y-69902283D01*
X139468418Y-69715162D01*
X139379095Y-69539856D01*
X139263444Y-69380678D01*
X139124321Y-69241555D01*
X138965143Y-69125904D01*
X138789835Y-69036581D01*
X138602705Y-68975778D01*
X138408382Y-68945000D01*
X138210000Y-68945000D01*
X138210000Y-69646517D01*
X138191591Y-69635889D01*
X138038991Y-69595000D01*
X137881009Y-69595000D01*
X137728409Y-69635889D01*
X137710000Y-69646517D01*
X137710000Y-68945000D01*
X137511618Y-68945000D01*
X137317294Y-68975778D01*
X137130164Y-69036581D01*
X136954856Y-69125904D01*
X136795678Y-69241555D01*
X136656555Y-69380678D01*
X136540904Y-69539856D01*
X136451581Y-69715162D01*
X136390781Y-69902283D01*
X136384016Y-69945000D01*
X114535984Y-69945000D01*
X114529218Y-69902283D01*
X114468418Y-69715162D01*
X114379095Y-69539856D01*
X114263444Y-69380678D01*
X114124321Y-69241555D01*
X113965143Y-69125904D01*
X113789835Y-69036581D01*
X113602705Y-68975778D01*
X113408382Y-68945000D01*
X113210000Y-68945000D01*
X113210000Y-69646517D01*
X113191591Y-69635889D01*
X113038991Y-69595000D01*
X112881009Y-69595000D01*
X112728409Y-69635889D01*
X112710000Y-69646517D01*
X112710000Y-68945000D01*
X112511618Y-68945000D01*
X112317294Y-68975778D01*
X112130164Y-69036581D01*
X111954856Y-69125904D01*
X111795678Y-69241555D01*
X111656555Y-69380678D01*
X111540904Y-69539856D01*
X111451581Y-69715162D01*
X111390781Y-69902283D01*
X111384016Y-69945000D01*
X105808000Y-69945000D01*
X105808000Y-67541379D01*
X111659500Y-67541379D01*
X111659500Y-67728620D01*
X111696025Y-67912243D01*
X111696027Y-67912251D01*
X111767676Y-68085228D01*
X111767681Y-68085237D01*
X111871697Y-68240907D01*
X111871700Y-68240911D01*
X112004088Y-68373299D01*
X112004092Y-68373302D01*
X112159762Y-68477318D01*
X112159768Y-68477321D01*
X112159769Y-68477322D01*
X112332749Y-68548973D01*
X112516379Y-68585499D01*
X112516383Y-68585500D01*
X112516384Y-68585500D01*
X113403617Y-68585500D01*
X113403618Y-68585499D01*
X113587251Y-68548973D01*
X113760231Y-68477322D01*
X113915908Y-68373302D01*
X114048302Y-68240908D01*
X114152322Y-68085231D01*
X114223973Y-67912251D01*
X114260500Y-67728616D01*
X114260500Y-67541384D01*
X114260499Y-67541379D01*
X136659500Y-67541379D01*
X136659500Y-67728620D01*
X136696025Y-67912243D01*
X136696027Y-67912251D01*
X136767676Y-68085228D01*
X136767681Y-68085237D01*
X136871697Y-68240907D01*
X136871700Y-68240911D01*
X137004088Y-68373299D01*
X137004092Y-68373302D01*
X137159762Y-68477318D01*
X137159768Y-68477321D01*
X137159769Y-68477322D01*
X137332749Y-68548973D01*
X137516379Y-68585499D01*
X137516383Y-68585500D01*
X137516384Y-68585500D01*
X138403617Y-68585500D01*
X138403618Y-68585499D01*
X138587251Y-68548973D01*
X138760231Y-68477322D01*
X138915908Y-68373302D01*
X139048302Y-68240908D01*
X139152322Y-68085231D01*
X139223973Y-67912251D01*
X139260500Y-67728616D01*
X139260500Y-67541384D01*
X139223973Y-67357749D01*
X139152322Y-67184769D01*
X139152319Y-67184764D01*
X139142958Y-67170754D01*
X139142957Y-67170753D01*
X139099031Y-67105013D01*
X145452500Y-67105013D01*
X145452500Y-67530000D01*
X146336752Y-67530000D01*
X146314982Y-67567708D01*
X146277500Y-67707591D01*
X146277500Y-67852409D01*
X146314982Y-67992292D01*
X146336752Y-68030000D01*
X145452501Y-68030000D01*
X145452501Y-68454986D01*
X145462994Y-68557697D01*
X145518141Y-68724119D01*
X145518143Y-68724124D01*
X145610184Y-68873345D01*
X145734154Y-68997315D01*
X145883375Y-69089356D01*
X145883380Y-69089358D01*
X146049802Y-69144505D01*
X146049809Y-69144506D01*
X146152519Y-69154999D01*
X146577499Y-69154999D01*
X146577500Y-69154998D01*
X146577500Y-68270747D01*
X146615208Y-68292518D01*
X146755091Y-68330000D01*
X146899909Y-68330000D01*
X147039792Y-68292518D01*
X147077500Y-68270747D01*
X147077500Y-69154999D01*
X147502472Y-69154999D01*
X147502486Y-69154998D01*
X147605197Y-69144505D01*
X147771619Y-69089358D01*
X147771624Y-69089356D01*
X147920845Y-68997315D01*
X148044815Y-68873345D01*
X148136856Y-68724124D01*
X148136858Y-68724119D01*
X148192005Y-68557697D01*
X148192006Y-68557690D01*
X148202499Y-68454986D01*
X148202500Y-68454973D01*
X148202500Y-68030000D01*
X147318248Y-68030000D01*
X147340018Y-67992292D01*
X147377500Y-67852409D01*
X147377500Y-67707591D01*
X147340018Y-67567708D01*
X147318248Y-67530000D01*
X148202499Y-67530000D01*
X148202499Y-67105028D01*
X148202498Y-67105013D01*
X148192005Y-67002302D01*
X148136858Y-66835880D01*
X148136856Y-66835875D01*
X148044815Y-66686654D01*
X147920845Y-66562684D01*
X147771624Y-66470643D01*
X147771619Y-66470641D01*
X147605197Y-66415494D01*
X147605190Y-66415493D01*
X147502486Y-66405000D01*
X147077500Y-66405000D01*
X147077500Y-67289252D01*
X147039792Y-67267482D01*
X146899909Y-67230000D01*
X146755091Y-67230000D01*
X146615208Y-67267482D01*
X146577500Y-67289252D01*
X146577500Y-66405000D01*
X146152528Y-66405000D01*
X146152512Y-66405001D01*
X146049802Y-66415494D01*
X145883380Y-66470641D01*
X145883375Y-66470643D01*
X145734154Y-66562684D01*
X145610184Y-66686654D01*
X145518143Y-66835875D01*
X145518141Y-66835880D01*
X145462994Y-67002302D01*
X145462993Y-67002309D01*
X145452500Y-67105013D01*
X139099031Y-67105013D01*
X139048302Y-67029092D01*
X139048299Y-67029088D01*
X138915911Y-66896700D01*
X138915907Y-66896697D01*
X138760237Y-66792681D01*
X138760228Y-66792676D01*
X138587251Y-66721027D01*
X138587243Y-66721025D01*
X138403620Y-66684500D01*
X138403616Y-66684500D01*
X137516384Y-66684500D01*
X137516379Y-66684500D01*
X137332756Y-66721025D01*
X137332748Y-66721027D01*
X137159771Y-66792676D01*
X137159762Y-66792681D01*
X137004092Y-66896697D01*
X137004088Y-66896700D01*
X136871700Y-67029088D01*
X136871697Y-67029092D01*
X136767681Y-67184762D01*
X136767676Y-67184771D01*
X136696027Y-67357748D01*
X136696025Y-67357756D01*
X136659500Y-67541379D01*
X114260499Y-67541379D01*
X114223973Y-67357749D01*
X114152322Y-67184769D01*
X114152319Y-67184764D01*
X114152318Y-67184762D01*
X114048302Y-67029092D01*
X114048299Y-67029088D01*
X113915911Y-66896700D01*
X113915907Y-66896697D01*
X113760237Y-66792681D01*
X113760228Y-66792676D01*
X113587251Y-66721027D01*
X113587243Y-66721025D01*
X113403620Y-66684500D01*
X113403616Y-66684500D01*
X112516384Y-66684500D01*
X112516379Y-66684500D01*
X112332756Y-66721025D01*
X112332748Y-66721027D01*
X112159771Y-66792676D01*
X112159762Y-66792681D01*
X112004092Y-66896697D01*
X112004088Y-66896700D01*
X111871700Y-67029088D01*
X111871697Y-67029092D01*
X111767681Y-67184762D01*
X111767676Y-67184771D01*
X111696027Y-67357748D01*
X111696025Y-67357756D01*
X111659500Y-67541379D01*
X105808000Y-67541379D01*
X105808000Y-67434000D01*
X105827685Y-67366961D01*
X105880489Y-67321206D01*
X105932000Y-67310000D01*
X106157500Y-67310000D01*
X106157500Y-66343012D01*
X106214507Y-66375925D01*
X106341674Y-66410000D01*
X106473326Y-66410000D01*
X106600493Y-66375925D01*
X106657500Y-66343012D01*
X106657500Y-67310000D01*
X107355328Y-67310000D01*
X107355344Y-67309999D01*
X107414872Y-67303598D01*
X107414879Y-67303596D01*
X107549586Y-67253354D01*
X107549593Y-67253350D01*
X107664687Y-67167190D01*
X107664690Y-67167187D01*
X107750850Y-67052093D01*
X107750854Y-67052086D01*
X107801096Y-66917379D01*
X107801098Y-66917372D01*
X107807499Y-66857844D01*
X107807500Y-66857827D01*
X107807500Y-66594840D01*
X107827185Y-66527801D01*
X107879989Y-66482046D01*
X107949147Y-66472102D01*
X108012703Y-66501127D01*
X108031816Y-66521952D01*
X108108086Y-66626928D01*
X108230572Y-66749414D01*
X108370712Y-66851232D01*
X108525055Y-66929873D01*
X108689799Y-66983402D01*
X108860889Y-67010500D01*
X108860890Y-67010500D01*
X109034110Y-67010500D01*
X109034111Y-67010500D01*
X109205201Y-66983402D01*
X109369945Y-66929873D01*
X109524288Y-66851232D01*
X109664428Y-66749414D01*
X109786914Y-66626928D01*
X109888732Y-66486788D01*
X109967373Y-66332445D01*
X110020902Y-66167701D01*
X110048000Y-65996611D01*
X110048000Y-65823389D01*
X110020902Y-65652299D01*
X109967373Y-65487555D01*
X109888732Y-65333212D01*
X109786914Y-65193072D01*
X109664428Y-65070586D01*
X109524288Y-64968768D01*
X109369945Y-64890127D01*
X109205201Y-64836598D01*
X109205199Y-64836597D01*
X109205198Y-64836597D01*
X109073771Y-64815781D01*
X109034111Y-64809500D01*
X108860889Y-64809500D01*
X108821228Y-64815781D01*
X108689802Y-64836597D01*
X108525052Y-64890128D01*
X108370711Y-64968768D01*
X108301549Y-65019018D01*
X108230572Y-65070586D01*
X108230570Y-65070588D01*
X108230569Y-65070588D01*
X108108087Y-65193070D01*
X108031818Y-65298045D01*
X107976487Y-65340711D01*
X107906874Y-65346689D01*
X107845079Y-65314083D01*
X107810722Y-65253244D01*
X107807500Y-65225159D01*
X107807500Y-64962172D01*
X107807499Y-64962155D01*
X107801098Y-64902627D01*
X107801096Y-64902620D01*
X107750854Y-64767913D01*
X107750850Y-64767906D01*
X107664690Y-64652812D01*
X107664687Y-64652809D01*
X107549593Y-64566649D01*
X107549586Y-64566645D01*
X107414879Y-64516403D01*
X107414872Y-64516401D01*
X107355344Y-64510000D01*
X106657500Y-64510000D01*
X106657500Y-65476988D01*
X106600493Y-65444075D01*
X106473326Y-65410000D01*
X106341674Y-65410000D01*
X106214507Y-65444075D01*
X106157500Y-65476988D01*
X106157500Y-64510000D01*
X105932000Y-64510000D01*
X105864961Y-64490315D01*
X105819206Y-64437511D01*
X105808000Y-64386000D01*
X105808000Y-62694644D01*
X105827685Y-62627605D01*
X105880489Y-62581850D01*
X105949647Y-62571906D01*
X106013203Y-62600931D01*
X106036993Y-62628671D01*
X106141608Y-62795164D01*
X106330721Y-63032304D01*
X106545196Y-63246779D01*
X106782336Y-63435892D01*
X107039159Y-63597265D01*
X107312435Y-63728868D01*
X107527451Y-63804105D01*
X107598716Y-63829042D01*
X107598728Y-63829046D01*
X107894437Y-63896540D01*
X107894446Y-63896541D01*
X107894451Y-63896542D01*
X108095374Y-63919180D01*
X108195837Y-63930499D01*
X108195840Y-63930500D01*
X108195843Y-63930500D01*
X108499160Y-63930500D01*
X108499161Y-63930499D01*
X108653194Y-63913144D01*
X108800548Y-63896542D01*
X108800551Y-63896541D01*
X108800563Y-63896540D01*
X108849589Y-63885350D01*
X145752000Y-63885350D01*
X145752000Y-64054649D01*
X145778481Y-64221847D01*
X145830796Y-64382853D01*
X145883650Y-64486582D01*
X145898844Y-64516403D01*
X145907652Y-64533688D01*
X146007148Y-64670634D01*
X146007152Y-64670639D01*
X146126860Y-64790347D01*
X146126865Y-64790351D01*
X146246317Y-64877137D01*
X146263815Y-64889850D01*
X146359925Y-64938820D01*
X146414646Y-64966703D01*
X146414648Y-64966703D01*
X146414651Y-64966705D01*
X146500950Y-64994745D01*
X146575652Y-65019018D01*
X146742851Y-65045500D01*
X146742856Y-65045500D01*
X146912149Y-65045500D01*
X147079347Y-65019018D01*
X147240349Y-64966705D01*
X147391185Y-64889850D01*
X147528141Y-64790346D01*
X147647846Y-64670641D01*
X147747350Y-64533685D01*
X147824205Y-64382849D01*
X147876518Y-64221847D01*
X147903000Y-64054649D01*
X147903000Y-63885350D01*
X147876518Y-63718152D01*
X147824203Y-63557146D01*
X147762420Y-63435892D01*
X147747350Y-63406315D01*
X147734637Y-63388817D01*
X147647851Y-63269365D01*
X147647847Y-63269360D01*
X147528139Y-63149652D01*
X147528134Y-63149648D01*
X147391188Y-63050152D01*
X147391187Y-63050151D01*
X147391185Y-63050150D01*
X147344082Y-63026150D01*
X147240353Y-62973296D01*
X147079347Y-62920981D01*
X146912149Y-62894500D01*
X146912144Y-62894500D01*
X146742856Y-62894500D01*
X146742851Y-62894500D01*
X146575652Y-62920981D01*
X146414646Y-62973296D01*
X146263811Y-63050152D01*
X146126865Y-63149648D01*
X146126860Y-63149652D01*
X146007152Y-63269360D01*
X146007148Y-63269365D01*
X145907652Y-63406311D01*
X145830796Y-63557146D01*
X145778481Y-63718152D01*
X145752000Y-63885350D01*
X108849589Y-63885350D01*
X109096272Y-63829046D01*
X109155989Y-63808149D01*
X109283756Y-63763443D01*
X109308822Y-63754671D01*
X109382565Y-63728868D01*
X109655841Y-63597265D01*
X109912664Y-63435892D01*
X110149804Y-63246779D01*
X110364279Y-63032304D01*
X110553392Y-62795164D01*
X110714765Y-62538341D01*
X110846368Y-62265065D01*
X110946546Y-61978772D01*
X111014040Y-61683063D01*
X111014049Y-61682989D01*
X111043982Y-61417314D01*
X111048000Y-61381657D01*
X111048000Y-61078343D01*
X111029800Y-60916814D01*
X111014042Y-60776951D01*
X111014041Y-60776946D01*
X111014040Y-60776937D01*
X110946546Y-60481228D01*
X110846368Y-60194935D01*
X110714765Y-59921659D01*
X110553392Y-59664836D01*
X110364279Y-59427696D01*
X110149804Y-59213221D01*
X109912664Y-59024108D01*
X109655841Y-58862735D01*
X109655838Y-58862733D01*
X109382568Y-58731133D01*
X109096283Y-58630957D01*
X109096271Y-58630953D01*
X108868056Y-58578864D01*
X108800563Y-58563460D01*
X108800560Y-58563459D01*
X108800548Y-58563457D01*
X108499163Y-58529500D01*
X108499157Y-58529500D01*
X108195843Y-58529500D01*
X108195836Y-58529500D01*
X107894451Y-58563457D01*
X107894437Y-58563460D01*
X107598728Y-58630953D01*
X107598716Y-58630957D01*
X107312431Y-58731133D01*
X107039161Y-58862733D01*
X106782337Y-59024107D01*
X106545196Y-59213220D01*
X106330720Y-59427696D01*
X106141607Y-59664837D01*
X106036994Y-59831327D01*
X105984659Y-59877618D01*
X105915605Y-59888266D01*
X105851757Y-59859891D01*
X105813385Y-59801501D01*
X105808000Y-59765355D01*
X105808000Y-57978676D01*
X105827685Y-57911637D01*
X105844319Y-57890995D01*
X110478495Y-53256819D01*
X110539818Y-53223334D01*
X110566176Y-53220500D01*
X139633000Y-53220500D01*
X139700039Y-53240185D01*
G37*
%TD.AperFunction*%
%TD*%
M02*
