%TF.GenerationSoftware,KiCad,Pcbnew,9.0.7*%
%TF.CreationDate,2026-09-09T09:09:22+05:30*%
%TF.ProjectId,PumpNodeNew,50756d70-4e6f-4646-954e-65772e6b6963,rev?*%
%TF.SameCoordinates,Original*%
%TF.FileFunction,Soldermask,Top*%
%TF.FilePolarity,Negative*%
%FSLAX46Y46*%
G04 Gerber Fmt 4.6, Leading zero omitted, Abs format (unit mm)*
G04 Created by KiCad (PCBNEW 9.0.7) date 2026-09-09 09:09:22*
%MOMM*%
%LPD*%
G01*
G04 APERTURE LIST*
G04 Aperture macros list*
%AMRoundRect*
0 Rectangle with rounded corners*
0 $1 Rounding radius*
0 $2 $3 $4 $5 $6 $7 $8 $9 X,Y pos of 4 corners*
0 Add a 4 corners polygon primitive as box body*
4,1,4,$2,$3,$4,$5,$6,$7,$8,$9,$2,$3,0*
0 Add four circle primitives for the rounded corners*
1,1,$1+$1,$2,$3*
1,1,$1+$1,$4,$5*
1,1,$1+$1,$6,$7*
1,1,$1+$1,$8,$9*
0 Add four rect primitives between the rounded corners*
20,1,$1+$1,$2,$3,$4,$5,0*
20,1,$1+$1,$4,$5,$6,$7,0*
20,1,$1+$1,$6,$7,$8,$9,0*
20,1,$1+$1,$8,$9,$2,$3,0*%
G04 Aperture macros list end*
%ADD10R,1.800000X1.800000*%
%ADD11C,1.800000*%
%ADD12RoundRect,0.250000X-0.625000X-0.625000X0.625000X-0.625000X0.625000X0.625000X-0.625000X0.625000X0*%
%ADD13C,1.750000*%
%ADD14RoundRect,0.250000X0.550000X-0.550000X0.550000X0.550000X-0.550000X0.550000X-0.550000X-0.550000X0*%
%ADD15C,1.600000*%
%ADD16C,3.200000*%
%ADD17C,5.000000*%
%ADD18C,1.200000*%
%ADD19O,2.200000X1.500000*%
%ADD20C,2.000000*%
%ADD21RoundRect,0.250000X-0.750000X-0.750000X0.750000X-0.750000X0.750000X0.750000X-0.750000X0.750000X0*%
%ADD22RoundRect,0.250000X-0.425000X-1.600000X0.425000X-1.600000X0.425000X1.600000X-0.425000X1.600000X0*%
%ADD23R,1.500000X2.000000*%
G04 APERTURE END LIST*
D10*
%TO.C,D1*%
X235770000Y-108465000D03*
D11*
X233230000Y-108465000D03*
%TD*%
D10*
%TO.C,D2*%
X235750000Y-102465000D03*
D11*
X233210000Y-102465000D03*
%TD*%
D10*
%TO.C,D3*%
X235760000Y-96445000D03*
D11*
X233220000Y-96445000D03*
%TD*%
D12*
%TO.C,J1*%
X181520000Y-82895000D03*
D13*
X185330000Y-82895000D03*
X189140000Y-82895000D03*
%TD*%
D12*
%TO.C,J4*%
X171235000Y-82872500D03*
D13*
X175045000Y-82872500D03*
%TD*%
D12*
%TO.C,J3*%
X194185000Y-82932500D03*
D13*
X197995000Y-82932500D03*
%TD*%
D14*
%TO.C,C5*%
X224160000Y-58915937D03*
X225760000Y-58245000D03*
D15*
X225760000Y-55745000D03*
X227360000Y-55074063D03*
%TD*%
D14*
%TO.C,C4*%
X211150000Y-58965937D03*
X212750000Y-58295000D03*
D15*
X212750000Y-55795000D03*
X214350000Y-55124063D03*
%TD*%
D16*
%TO.C,H1*%
X3475000Y-3475000D03*
%TD*%
D17*
%TO.C,*%
X156830000Y-58145000D03*
%TD*%
%TO.C,*%
X233830000Y-58145000D03*
%TD*%
%TO.C,.*%
X233830000Y-113145000D03*
%TD*%
D18*
%TO.C,U5*%
X203895000Y-77580000D03*
X203895000Y-80140000D03*
X203945000Y-97990000D03*
X203945000Y-100550000D03*
X228895000Y-77580000D03*
X228895000Y-80140000D03*
X228920000Y-75065000D03*
X228920000Y-100425000D03*
X228945000Y-82680000D03*
X228970000Y-92850000D03*
X228970000Y-102965000D03*
D19*
X228970000Y-108075000D03*
X228970000Y-105515000D03*
X228920000Y-97865000D03*
X228945000Y-95350000D03*
X228970000Y-90290000D03*
X228920000Y-87750000D03*
X228945000Y-85240000D03*
X228920000Y-72505000D03*
X203920000Y-72505000D03*
X203920000Y-75065000D03*
X203945000Y-82680000D03*
X203945000Y-85240000D03*
X203945000Y-87875000D03*
X203995000Y-90415000D03*
X203995000Y-92975000D03*
X203970000Y-95475000D03*
X203995000Y-103090000D03*
X203970000Y-105515000D03*
X203970000Y-108075000D03*
%TD*%
D17*
%TO.C,*%
X-36100000Y-58145000D03*
%TD*%
%TO.C,*%
X-113100000Y-58145000D03*
%TD*%
%TO.C,.*%
X-36100000Y-113145000D03*
%TD*%
D20*
%TO.C,K1*%
X157680000Y-74395000D03*
X157680000Y-79475000D03*
X157680000Y-84555000D03*
X165300000Y-74395000D03*
X165300000Y-79475000D03*
X165300000Y-84555000D03*
D21*
X157680000Y-66775000D03*
D20*
X165300000Y-66775000D03*
%TD*%
D17*
%TO.C,*%
X-113100000Y-113145000D03*
%TD*%
%TO.C,*%
X156830000Y-113145000D03*
%TD*%
D22*
%TO.C,J2*%
X181495000Y-52395000D03*
X187145000Y-52395000D03*
%TD*%
D23*
%TO.C,U7*%
X184310000Y-56675000D03*
%TD*%
M02*
