M48
; DRILL file {KiCad 9.0.7} date 2026-09-11T09:01:25+0530
; FORMAT={-:-/ absolute / metric / decimal}
; #@! TF.CreationDate,2026-09-11T09:01:25+05:30
; #@! TF.GenerationSoftware,Kicad,Pcbnew,9.0.7
; #@! TF.FileFunction,NonPlated,1,2,NPTH
FMAT,2
METRIC
; #@! TA.AperFunction,NonPlated,NPTH,ComponentDrill
T1C1.200
; #@! TA.AperFunction,NonPlated,NPTH,ComponentDrill
T2C1.400
; #@! TA.AperFunction,NonPlated,NPTH,ComponentDrill
T3C3.000
%
G90
G05
T1
X112.96Y-72.745
X112.96Y-82.86
X112.985Y-93.03
X113.01Y-75.285
X113.01Y-100.645
X113.035Y-95.57
X113.035Y-98.13
X137.985Y-75.16
X137.985Y-77.72
X138.01Y-103.205
X138.035Y-95.57
X138.035Y-98.13
X166.405Y-79.395
X166.405Y-81.955
X166.43Y-74.32
X166.455Y-99.805
X166.455Y-102.365
X191.405Y-79.395
X191.405Y-81.955
X191.43Y-76.88
X191.43Y-102.24
X191.455Y-84.495
X191.48Y-94.665
X191.48Y-104.78
T2
X-113.1Y-58.145
X-113.1Y-113.145
X-36.1Y-58.145
X-36.1Y-113.145
T3
X108.347Y-61.23
X108.347Y-116.23
X196.093Y-61.295
X196.093Y-116.295
M30
