%TF.GenerationSoftware,KiCad,Pcbnew,9.0.7*%
%TF.CreationDate,2026-09-11T09:01:21+05:30*%
%TF.ProjectId,PumpNodeNew,50756d70-4e6f-4646-954e-65772e6b6963,rev?*%
%TF.SameCoordinates,Original*%
%TF.FileFunction,Soldermask,Top*%
%TF.FilePolarity,Negative*%
%FSLAX46Y46*%
G04 Gerber Fmt 4.6, Leading zero omitted, Abs format (unit mm)*
G04 Created by KiCad (PCBNEW 9.0.7) date 2026-09-11 09:01:21*
%MOMM*%
%LPD*%
G01*
G04 APERTURE LIST*
G04 Aperture macros list*
%AMRoundRect*
0 Rectangle with rounded corners*
0 $1 Rounding radius*
0 $2 $3 $4 $5 $6 $7 $8 $9 X,Y pos of 4 corners*
0 Add a 4 corners polygon primitive as box body*
4,1,4,$2,$3,$4,$5,$6,$7,$8,$9,$2,$3,0*
0 Add four circle primitives for the rounded corners*
1,1,$1+$1,$2,$3*
1,1,$1+$1,$4,$5*
1,1,$1+$1,$6,$7*
1,1,$1+$1,$8,$9*
0 Add four rect primitives between the rounded corners*
20,1,$1+$1,$2,$3,$4,$5,0*
20,1,$1+$1,$4,$5,$6,$7,0*
20,1,$1+$1,$6,$7,$8,$9,0*
20,1,$1+$1,$8,$9,$2,$3,0*%
G04 Aperture macros list end*
%ADD10RoundRect,0.250000X0.425000X1.600000X-0.425000X1.600000X-0.425000X-1.600000X0.425000X-1.600000X0*%
%ADD11R,1.800000X1.800000*%
%ADD12C,1.800000*%
%ADD13RoundRect,0.250000X0.625000X-0.625000X0.625000X0.625000X-0.625000X0.625000X-0.625000X-0.625000X0*%
%ADD14C,1.750000*%
%ADD15RoundRect,0.250000X-0.625000X0.625000X-0.625000X-0.625000X0.625000X-0.625000X0.625000X0.625000X0*%
%ADD16C,5.000000*%
%ADD17C,2.000000*%
%ADD18RoundRect,0.250000X0.750000X0.750000X-0.750000X0.750000X-0.750000X-0.750000X0.750000X-0.750000X0*%
%ADD19C,1.200000*%
%ADD20O,2.200000X1.500000*%
%ADD21RoundRect,0.250000X-0.750000X-0.750000X0.750000X-0.750000X0.750000X0.750000X-0.750000X0.750000X0*%
%ADD22RoundRect,0.250000X-0.425000X-1.600000X0.425000X-1.600000X0.425000X1.600000X-0.425000X1.600000X0*%
%ADD23R,1.500000X2.000000*%
G04 APERTURE END LIST*
D10*
%TO.C,J2*%
X145352500Y-122330000D03*
X139702500Y-122330000D03*
%TD*%
D11*
%TO.C,D3*%
X198022500Y-99595000D03*
D12*
X195482500Y-99595000D03*
%TD*%
D11*
%TO.C,D1*%
X198032500Y-111615000D03*
D12*
X195492500Y-111615000D03*
%TD*%
D13*
%TO.C,J3*%
X146827500Y-67780000D03*
D14*
X146827500Y-63970000D03*
%TD*%
D11*
%TO.C,D1*%
X106407500Y-65910000D03*
D12*
X108947500Y-65910000D03*
%TD*%
D15*
%TO.C,J1*%
X157602500Y-97295000D03*
D14*
X157602500Y-101105000D03*
X157602500Y-104915000D03*
%TD*%
D13*
%TO.C,J1*%
X146837500Y-80230000D03*
D14*
X146837500Y-76420000D03*
X146837500Y-72610000D03*
%TD*%
D13*
%TO.C,J4*%
X146997500Y-89190000D03*
D14*
X146997500Y-85380000D03*
%TD*%
D11*
%TO.C,D2*%
X106427500Y-71910000D03*
D12*
X108967500Y-71910000D03*
%TD*%
D16*
%TO.C,*%
X196092500Y-61295000D03*
%TD*%
D17*
%TO.C,K1*%
X149577500Y-104500294D03*
X149577500Y-99420294D03*
X149577500Y-94340294D03*
X141957500Y-104500294D03*
X141957500Y-99420294D03*
X141957500Y-94340294D03*
D18*
X149577500Y-112120294D03*
D17*
X141957500Y-112120294D03*
%TD*%
D19*
%TO.C,U5*%
X138035000Y-98130000D03*
X138035000Y-95570000D03*
X138010000Y-103205000D03*
X137985000Y-77720000D03*
X137985000Y-75160000D03*
X113035000Y-98130000D03*
X113035000Y-95570000D03*
X113010000Y-100645000D03*
X113010000Y-75285000D03*
X112985000Y-93030000D03*
X112960000Y-82860000D03*
X112960000Y-72745000D03*
D20*
X112960000Y-67635000D03*
X112960000Y-70195000D03*
X113010000Y-77845000D03*
X112985000Y-80360000D03*
X112960000Y-85420000D03*
X113010000Y-87960000D03*
X112985000Y-90470000D03*
X113010000Y-103205000D03*
X138010000Y-100645000D03*
X137985000Y-93030000D03*
X137985000Y-90470000D03*
X137985000Y-87835000D03*
X137935000Y-85295000D03*
X137935000Y-82735000D03*
X137960000Y-80235000D03*
X137935000Y-72620000D03*
X137960000Y-70195000D03*
X137960000Y-67635000D03*
%TD*%
D11*
%TO.C,D3*%
X106417500Y-77930000D03*
D12*
X108957500Y-77930000D03*
%TD*%
D16*
%TO.C,*%
X-36100000Y-58145000D03*
%TD*%
D17*
%TO.C,K1*%
X154862500Y-73024706D03*
X154862500Y-78104706D03*
X154862500Y-83184706D03*
X162482500Y-73024706D03*
X162482500Y-78104706D03*
X162482500Y-83184706D03*
D21*
X154862500Y-65404706D03*
D17*
X162482500Y-65404706D03*
%TD*%
D16*
%TO.C,*%
X-113100000Y-58145000D03*
%TD*%
%TO.C,.*%
X196092500Y-116295000D03*
%TD*%
D11*
%TO.C,D2*%
X198012500Y-105615000D03*
D12*
X195472500Y-105615000D03*
%TD*%
D16*
%TO.C,*%
X108347500Y-116230000D03*
%TD*%
%TO.C,.*%
X-36100000Y-113145000D03*
%TD*%
D15*
%TO.C,J4*%
X157442500Y-88335000D03*
D14*
X157442500Y-92145000D03*
%TD*%
D19*
%TO.C,U5*%
X166405000Y-79395000D03*
X166405000Y-81955000D03*
X166430000Y-74320000D03*
X166455000Y-99805000D03*
X166455000Y-102365000D03*
X191405000Y-79395000D03*
X191405000Y-81955000D03*
X191430000Y-76880000D03*
X191430000Y-102240000D03*
X191455000Y-84495000D03*
X191480000Y-94665000D03*
X191480000Y-104780000D03*
D20*
X191480000Y-109890000D03*
X191480000Y-107330000D03*
X191430000Y-99680000D03*
X191455000Y-97165000D03*
X191480000Y-92105000D03*
X191430000Y-89565000D03*
X191455000Y-87055000D03*
X191430000Y-74320000D03*
X166430000Y-76880000D03*
X166455000Y-84495000D03*
X166455000Y-87055000D03*
X166455000Y-89690000D03*
X166505000Y-92230000D03*
X166505000Y-94790000D03*
X166480000Y-97290000D03*
X166505000Y-104905000D03*
X166480000Y-107330000D03*
X166480000Y-109890000D03*
%TD*%
D16*
%TO.C,*%
X-113100000Y-113145000D03*
%TD*%
%TO.C,.*%
X108347500Y-61230000D03*
%TD*%
D15*
%TO.C,J3*%
X157612500Y-109745000D03*
D14*
X157612500Y-113555000D03*
%TD*%
D22*
%TO.C,J2*%
X159182500Y-55175000D03*
X164832500Y-55175000D03*
%TD*%
D23*
%TO.C,U7*%
X170832500Y-55575000D03*
%TD*%
%TO.C,U7*%
X133607500Y-121950000D03*
%TD*%
M02*
