M48
; DRILL file {KiCad 9.0.7} date 2026-09-09T10:58:52+0530
; FORMAT={-:-/ absolute / metric / decimal}
; #@! TF.CreationDate,2026-09-09T10:58:52+05:30
; #@! TF.GenerationSoftware,Kicad,Pcbnew,9.0.7
; #@! TF.FileFunction,Plated,1,2,PTH
FMAT,2
METRIC
; #@! TA.AperFunction,Plated,PTH,ViaDrill
T1C0.300
; #@! TA.AperFunction,Plated,PTH,ComponentDrill
T2C0.800
; #@! TA.AperFunction,Plated,PTH,ComponentDrill
T3C1.200
; #@! TA.AperFunction,Plated,PTH,ComponentDrill
T4C1.400
%
G90
G05
T1
X101.23Y-128.585
X101.24Y-129.705
X101.27Y-130.775
X101.28Y-131.895
X102.82Y-128.595
X102.83Y-129.715
X102.86Y-130.785
X102.87Y-131.905
X102.95Y-103.335
X102.96Y-104.455
X102.99Y-105.525
X103.0Y-106.645
X104.22Y-42.765
X104.23Y-43.885
X104.26Y-44.955
X104.27Y-46.075
X104.29Y-64.065
X104.3Y-65.185
X104.33Y-66.255
X104.34Y-67.375
X104.54Y-103.345
X104.55Y-104.465
X104.58Y-105.535
X105.81Y-42.775
X105.82Y-43.895
X105.85Y-44.965
X105.86Y-46.085
X105.88Y-64.075
X105.89Y-65.195
X105.92Y-66.265
X105.93Y-67.385
X107.92Y-95.725
X109.04Y-95.715
X110.11Y-95.685
X110.77Y-90.745
X111.22Y-97.265
X111.23Y-95.675
X114.65Y-108.675
X115.45Y-89.535
X115.46Y-90.655
X115.71Y-110.235
X115.72Y-108.645
X116.77Y-69.285
X116.78Y-70.405
X116.81Y-71.475
X116.82Y-72.595
X116.83Y-110.225
X116.84Y-108.635
X117.04Y-89.545
X117.05Y-90.665
X117.84Y-118.525
X117.85Y-119.645
X117.88Y-120.715
X117.89Y-121.835
X118.36Y-69.295
X118.37Y-70.415
X118.4Y-71.485
X118.41Y-72.605
X118.61Y-65.025
X118.72Y-92.975
X118.86Y-114.025
X119.01Y-103.895
X119.31Y-62.405
X119.43Y-118.535
X119.44Y-119.655
X119.47Y-120.725
X119.48Y-121.845
X119.75Y-63.525
X121.15Y-95.015
X121.18Y-93.755
X122.58Y-101.735
X122.59Y-102.855
X122.62Y-103.925
X122.63Y-105.045
X123.31Y-65.055
X123.31Y-65.055
X123.43Y-119.845
X123.44Y-120.965
X123.47Y-122.035
X123.48Y-123.155
X124.17Y-101.745
X124.18Y-102.865
X124.21Y-103.935
X124.22Y-105.055
X124.5Y-115.375
X124.88Y-40.725
X124.89Y-41.845
X124.92Y-42.915
X124.93Y-44.035
X125.44Y-62.345
X125.62Y-115.365
X126.08Y-98.175
X126.47Y-40.735
X126.48Y-41.855
X126.51Y-42.925
X126.52Y-44.045
X126.69Y-115.335
X126.98Y-106.575
X127.01Y-108.895
X127.32Y-93.245
X127.33Y-94.365
X127.33Y-60.645
X127.58Y-53.965
X127.58Y-53.965
X127.67Y-63.425
X127.67Y-63.425
X127.81Y-115.325
X128.12Y-121.655
X128.13Y-122.775
X128.16Y-123.845
X128.17Y-124.965
X128.91Y-93.255
X128.92Y-94.375
X129.05Y-61.375
X129.1Y-54.015
X129.72Y-106.395
X130.87Y-59.725
X131.0Y-105.015
X131.15Y-92.835
X131.16Y-93.955
X131.26Y-56.155
X131.95Y-73.945
X131.99Y-68.455
X131.99Y-70.995
X132.07Y-65.315
X132.07Y-66.655
X132.74Y-92.845
X132.75Y-93.965
X132.94Y-121.655
X132.95Y-122.775
X132.98Y-123.845
X132.99Y-124.965
X134.045Y-99.71
X135.04Y-100.635
X136.06Y-101.505
X137.0Y-93.505
X137.06Y-89.575
X137.86Y-94.575
X137.95Y-90.035
X138.29Y-102.045
X138.3Y-99.785
X139.24Y-124.365
X139.25Y-125.485
X139.28Y-126.555
X139.29Y-127.675
X139.73Y-60.995
X140.12Y-121.605
X140.22Y-110.855
X140.23Y-111.975
X140.26Y-113.045
X140.27Y-114.165
X140.45Y-95.445
X140.45Y-108.525
X140.56Y-55.335
X140.83Y-124.375
X140.84Y-125.495
X140.87Y-126.565
X140.88Y-127.685
X141.81Y-110.865
X141.82Y-111.985
X141.85Y-113.055
X141.86Y-114.175
X142.27Y-55.335
X142.27Y-55.335
X142.47Y-73.045
X142.48Y-74.165
X144.06Y-73.055
X144.07Y-74.175
X145.43Y-60.995
X149.82Y-112.685
X151.18Y-99.505
X151.19Y-100.625
X152.77Y-99.515
X152.78Y-100.635
X152.98Y-118.345
X152.98Y-118.345
X153.39Y-59.505
X153.4Y-60.625
X153.43Y-61.695
X153.44Y-62.815
X154.37Y-45.995
X154.38Y-47.115
X154.41Y-48.185
X154.42Y-49.305
X154.69Y-118.345
X154.8Y-65.155
X154.8Y-78.235
X154.98Y-59.515
X154.99Y-60.635
X155.02Y-61.705
X155.03Y-62.825
X155.13Y-52.075
X155.52Y-112.685
X155.96Y-46.005
X155.97Y-47.125
X156.0Y-48.195
X156.01Y-49.315
X156.95Y-73.895
X156.96Y-71.635
X157.3Y-83.645
X157.39Y-79.105
X158.19Y-84.105
X158.25Y-80.175
X159.19Y-72.175
X160.21Y-73.045
X161.205Y-73.97
X162.26Y-48.715
X162.27Y-49.835
X162.3Y-50.905
X162.31Y-52.025
X162.5Y-79.715
X162.51Y-80.835
X163.18Y-107.025
X163.18Y-108.365
X163.26Y-102.685
X163.26Y-105.225
X163.3Y-99.735
X163.99Y-117.525
X164.09Y-79.725
X164.1Y-80.845
X164.25Y-68.665
X164.38Y-113.955
X165.53Y-67.285
X166.15Y-119.665
X166.2Y-112.305
X166.33Y-79.305
X166.34Y-80.425
X167.08Y-48.715
X167.09Y-49.835
X167.12Y-50.905
X167.13Y-52.025
X167.44Y-58.355
X167.58Y-110.255
X167.58Y-110.255
X167.67Y-119.715
X167.67Y-119.715
X167.92Y-113.035
X167.92Y-79.315
X167.93Y-80.435
X168.24Y-64.785
X168.27Y-67.105
X168.56Y-58.345
X168.73Y-129.635
X168.74Y-130.755
X168.77Y-131.825
X168.78Y-132.945
X169.17Y-75.505
X169.63Y-58.315
X169.81Y-111.335
X170.32Y-129.645
X170.33Y-130.765
X170.36Y-131.835
X170.37Y-132.955
X170.75Y-58.305
X171.03Y-68.625
X171.04Y-69.745
X171.07Y-70.815
X171.08Y-71.935
X171.77Y-50.525
X171.78Y-51.645
X171.81Y-52.715
X171.82Y-53.835
X171.94Y-108.625
X171.94Y-108.625
X172.62Y-68.635
X172.63Y-69.755
X172.66Y-70.825
X172.67Y-71.945
X174.07Y-79.925
X174.1Y-78.665
X175.5Y-110.155
X175.77Y-51.835
X175.78Y-52.955
X175.81Y-54.025
X175.82Y-55.145
X175.94Y-111.275
X176.24Y-69.785
X176.39Y-59.655
X176.53Y-80.705
X176.64Y-108.655
X176.84Y-101.075
X176.85Y-102.195
X176.88Y-103.265
X176.89Y-104.385
X177.36Y-51.845
X177.37Y-52.965
X177.4Y-54.035
X177.41Y-55.155
X178.2Y-83.015
X178.21Y-84.135
X178.41Y-65.045
X178.42Y-63.455
X178.43Y-101.085
X178.44Y-102.205
X178.47Y-103.275
X178.48Y-104.395
X179.53Y-65.035
X179.54Y-63.445
X179.79Y-83.025
X179.8Y-84.145
X180.6Y-65.005
X184.02Y-78.005
X184.03Y-76.415
X184.48Y-82.935
X185.14Y-77.995
X186.21Y-77.965
X187.33Y-77.955
X189.32Y-106.295
X189.33Y-107.415
X189.36Y-108.485
X189.37Y-109.605
X189.39Y-127.595
X189.4Y-128.715
X189.43Y-129.785
X189.44Y-130.905
X190.67Y-68.145
X190.7Y-69.215
X190.71Y-70.335
X190.91Y-106.305
X190.92Y-107.425
X190.95Y-108.495
X190.96Y-109.615
X190.98Y-127.605
X190.99Y-128.725
X191.02Y-129.795
X191.03Y-130.915
X192.25Y-67.035
X192.26Y-68.155
X192.29Y-69.225
X192.3Y-70.345
X192.38Y-41.775
X192.39Y-42.895
X192.42Y-43.965
X192.43Y-45.085
X193.97Y-41.785
X193.98Y-42.905
X194.01Y-43.975
X194.02Y-45.095
T2
X105.009Y-107.755
X105.038Y-97.045
X105.68Y-109.355
X105.709Y-98.645
X108.18Y-109.355
X108.209Y-98.645
X108.851Y-110.955
X108.88Y-100.245
X123.92Y-96.375
X171.33Y-77.305
X186.37Y-73.435
X186.399Y-62.725
X187.041Y-75.035
X187.07Y-64.325
X189.541Y-75.035
X189.57Y-64.325
X190.212Y-76.635
X190.241Y-65.925
T3
X112.77Y-40.795
X112.77Y-43.355
X112.77Y-58.58
X112.795Y-63.63
X112.82Y-51.005
X112.82Y-61.12
X112.82Y-76.365
X137.745Y-45.78
X137.745Y-55.895
X137.745Y-58.455
X137.77Y-40.795
X137.77Y-43.355
X137.77Y-53.395
X137.795Y-48.32
X137.795Y-50.88
X137.795Y-60.995
X137.795Y-63.63
X137.795Y-66.19
X137.82Y-73.805
X137.82Y-76.365
X137.845Y-68.73
X137.845Y-71.29
X157.405Y-102.39
X157.405Y-104.95
X157.43Y-97.315
X157.43Y-99.875
X157.455Y-107.49
X157.455Y-110.05
X157.455Y-112.685
X157.455Y-122.8
X157.455Y-125.36
X157.48Y-120.285
X157.48Y-130.325
X157.48Y-132.885
X157.505Y-115.225
X157.505Y-117.785
X157.505Y-127.9
X182.43Y-97.315
X182.43Y-112.56
X182.43Y-122.675
X182.455Y-110.05
X182.48Y-115.1
X182.48Y-130.325
X182.48Y-132.885
T4
X106.27Y-129.905
X111.35Y-129.905
X120.24Y-129.865
X125.32Y-129.865
X130.4Y-129.865
X135.48Y-129.865
X144.495Y-129.805
X145.675Y-43.875
X149.575Y-129.805
X150.755Y-43.875
X159.77Y-43.815
X164.85Y-43.815
X169.93Y-43.815
X175.01Y-43.815
X183.9Y-43.775
X188.98Y-43.775
M30
