%TF.GenerationSoftware,KiCad,Pcbnew,9.0.7*%
%TF.CreationDate,2026-09-09T10:58:49+05:30*%
%TF.ProjectId,WPC-panel2x,5750432d-7061-46e6-956c-32782e6b6963,rev?*%
%TF.SameCoordinates,Original*%
%TF.FileFunction,Soldermask,Top*%
%TF.FilePolarity,Negative*%
%FSLAX46Y46*%
G04 Gerber Fmt 4.6, Leading zero omitted, Abs format (unit mm)*
G04 Created by KiCad (PCBNEW 9.0.7) date 2026-09-09 10:58:49*
%MOMM*%
%LPD*%
G01*
G04 APERTURE LIST*
G04 Aperture macros list*
%AMRoundRect*
0 Rectangle with rounded corners*
0 $1 Rounding radius*
0 $2 $3 $4 $5 $6 $7 $8 $9 X,Y pos of 4 corners*
0 Add a 4 corners polygon primitive as box body*
4,1,4,$2,$3,$4,$5,$6,$7,$8,$9,$2,$3,0*
0 Add four circle primitives for the rounded corners*
1,1,$1+$1,$2,$3*
1,1,$1+$1,$4,$5*
1,1,$1+$1,$6,$7*
1,1,$1+$1,$8,$9*
0 Add four rect primitives between the rounded corners*
20,1,$1+$1,$2,$3,$4,$5,0*
20,1,$1+$1,$4,$5,$6,$7,0*
20,1,$1+$1,$6,$7,$8,$9,0*
20,1,$1+$1,$8,$9,$2,$3,0*%
G04 Aperture macros list end*
%ADD10O,2.080000X3.600000*%
%ADD11RoundRect,0.249999X-0.790001X-1.550001X0.790001X-1.550001X0.790001X1.550001X-0.790001X1.550001X0*%
%ADD12RoundRect,0.250000X-0.625000X0.375000X-0.625000X-0.375000X0.625000X-0.375000X0.625000X0.375000X0*%
%ADD13RoundRect,0.250000X0.625000X-0.375000X0.625000X0.375000X-0.625000X0.375000X-0.625000X-0.375000X0*%
%ADD14C,1.600000*%
%ADD15RoundRect,0.250000X-0.550000X-0.550000X0.550000X-0.550000X0.550000X0.550000X-0.550000X0.550000X0*%
%ADD16RoundRect,0.249999X0.790001X1.550001X-0.790001X1.550001X-0.790001X-1.550001X0.790001X-1.550001X0*%
%ADD17O,2.200000X1.500000*%
%ADD18C,1.200000*%
%ADD19RoundRect,0.250000X0.550000X0.550000X-0.550000X0.550000X-0.550000X-0.550000X0.550000X-0.550000X0*%
%ADD20RoundRect,0.250000X-0.425000X-1.600000X0.425000X-1.600000X0.425000X1.600000X-0.425000X1.600000X0*%
%ADD21R,1.500000X2.000000*%
%ADD22RoundRect,0.250000X0.425000X1.600000X-0.425000X1.600000X-0.425000X-1.600000X0.425000X-1.600000X0*%
%ADD23C,3.200000*%
%ADD24C,4.500000*%
G04 APERTURE END LIST*
D10*
%TO.C,J4*%
X135479997Y-129865000D03*
X130399997Y-129865000D03*
X125319997Y-129865000D03*
D11*
X120239997Y-129865000D03*
%TD*%
D12*
%TO.C,D1*%
X139149997Y-122285000D03*
X139149997Y-119485000D03*
%TD*%
D13*
%TO.C,D3*%
X156079999Y-77605000D03*
X156079999Y-80405000D03*
%TD*%
D14*
%TO.C,C5*%
X190211873Y-76635000D03*
X189540936Y-75035000D03*
D15*
X187040936Y-75035000D03*
X186369999Y-73435000D03*
%TD*%
D10*
%TO.C,J3*%
X183899999Y-43775000D03*
D16*
X188979999Y-43775000D03*
%TD*%
D10*
%TO.C,J1*%
X145674999Y-43875000D03*
D16*
X150754999Y-43875000D03*
%TD*%
D12*
%TO.C,D2*%
X139169997Y-109175000D03*
X139169997Y-106375000D03*
%TD*%
D13*
%TO.C,D7*%
X176359999Y-60545000D03*
X176359999Y-63345000D03*
%TD*%
D17*
%TO.C,U5*%
X157480000Y-132885000D03*
X157480000Y-130325000D03*
X157505000Y-127900000D03*
X157455000Y-125360000D03*
X157455000Y-122800000D03*
X157480000Y-120285000D03*
X157505000Y-117785000D03*
X157505000Y-115225000D03*
X157455000Y-112685000D03*
X157455000Y-110050000D03*
X157455000Y-107490000D03*
X157405000Y-104950000D03*
X157405000Y-102390000D03*
X157430000Y-99875000D03*
X157430000Y-97315000D03*
X182430000Y-97315000D03*
X182455000Y-110050000D03*
X182430000Y-112560000D03*
X182480000Y-115100000D03*
X182430000Y-122675000D03*
X182480000Y-130325000D03*
X182480000Y-132885000D03*
D18*
X182480000Y-127775000D03*
X182480000Y-117660000D03*
X182455000Y-120160000D03*
X182455000Y-107490000D03*
X182430000Y-125235000D03*
X182430000Y-99875000D03*
X182405000Y-104950000D03*
X182405000Y-102390000D03*
%TD*%
D12*
%TO.C,D13*%
X118869997Y-102655000D03*
X118869997Y-99855000D03*
%TD*%
D13*
%TO.C,D13*%
X176379999Y-71025000D03*
X176379999Y-73825000D03*
%TD*%
D12*
%TO.C,D7*%
X118889997Y-113135000D03*
X118889997Y-110335000D03*
%TD*%
D13*
%TO.C,D1*%
X156099999Y-51395000D03*
X156099999Y-54195000D03*
%TD*%
D14*
%TO.C,C5*%
X105038123Y-97045000D03*
X105709060Y-98645000D03*
D19*
X108209060Y-98645000D03*
X108879997Y-100245000D03*
%TD*%
D13*
%TO.C,D2*%
X156079999Y-64505000D03*
X156079999Y-67305000D03*
%TD*%
D10*
%TO.C,J3*%
X111349997Y-129905000D03*
D11*
X106269997Y-129905000D03*
%TD*%
D10*
%TO.C,J1*%
X149574997Y-129805000D03*
D11*
X144494997Y-129805000D03*
%TD*%
D10*
%TO.C,J4*%
X159769999Y-43815000D03*
X164849999Y-43815000D03*
X169929999Y-43815000D03*
D16*
X175009999Y-43815000D03*
%TD*%
D14*
%TO.C,C4*%
X190240936Y-65925000D03*
X189569999Y-64325000D03*
D15*
X187069999Y-64325000D03*
X186399062Y-62725000D03*
%TD*%
D12*
%TO.C,D3*%
X139169997Y-96075000D03*
X139169997Y-93275000D03*
%TD*%
D17*
%TO.C,U5*%
X137769996Y-40795000D03*
X137769996Y-43355000D03*
X137744996Y-45780000D03*
X137794996Y-48320000D03*
X137794996Y-50880000D03*
X137769996Y-53395000D03*
X137744996Y-55895000D03*
X137744996Y-58455000D03*
X137794996Y-60995000D03*
X137794996Y-63630000D03*
X137794996Y-66190000D03*
X137844996Y-68730000D03*
X137844996Y-71290000D03*
X137819996Y-73805000D03*
X137819996Y-76365000D03*
X112819996Y-76365000D03*
X112794996Y-63630000D03*
X112819996Y-61120000D03*
X112769996Y-58580000D03*
X112819996Y-51005000D03*
X112769996Y-43355000D03*
X112769996Y-40795000D03*
D18*
X112769996Y-45905000D03*
X112769996Y-56020000D03*
X112794996Y-53520000D03*
X112794996Y-66190000D03*
X112819996Y-48445000D03*
X112819996Y-73805000D03*
X112844996Y-68730000D03*
X112844996Y-71290000D03*
%TD*%
D14*
%TO.C,C4*%
X105009060Y-107755000D03*
X105679997Y-109355000D03*
D19*
X108179997Y-109355000D03*
X108850934Y-110955000D03*
%TD*%
D20*
%TO.C,J2*%
X126545000Y-90515000D03*
X120895000Y-90515000D03*
%TD*%
D21*
%TO.C,U7*%
X123919997Y-96375000D03*
%TD*%
%TO.C,U7*%
X171329999Y-77305000D03*
%TD*%
D22*
%TO.C,J2*%
X168704996Y-83165000D03*
X174354996Y-83165000D03*
%TD*%
D23*
%TO.C,H2*%
X406289663Y-43191124D03*
%TD*%
%TO.C,H4*%
X11300339Y-16098876D03*
%TD*%
%TO.C,H4*%
X406289663Y-35241124D03*
%TD*%
%TO.C,H5*%
X11300339Y-24048876D03*
%TD*%
D24*
%TO.C,.*%
X147759999Y-73005000D03*
%TD*%
%TO.C,.*%
X103309997Y-119645000D03*
%TD*%
D23*
%TO.C,H5*%
X406289663Y-27291124D03*
%TD*%
D24*
%TO.C,.*%
X191939999Y-54035000D03*
%TD*%
D23*
%TO.C,H1*%
X11300339Y-198876D03*
%TD*%
D24*
%TO.C,.*%
X147489997Y-100675000D03*
%TD*%
D23*
%TO.C,H1*%
X406289663Y-51141124D03*
%TD*%
%TO.C,H2*%
X11300339Y-8148876D03*
%TD*%
D24*
%TO.C,.*%
X191709997Y-119645000D03*
%TD*%
%TO.C,.*%
X103539999Y-54035000D03*
%TD*%
M02*
