M48
; DRILL file {KiCad 9.0.7} date 2026-09-09T10:58:52+0530
; FORMAT={-:-/ absolute / metric / decimal}
; #@! TF.CreationDate,2026-09-09T10:58:52+05:30
; #@! TF.GenerationSoftware,Kicad,Pcbnew,9.0.7
; #@! TF.FileFunction,NonPlated,1,2,NPTH
FMAT,2
METRIC
; #@! TA.AperFunction,NonPlated,NPTH,ComponentDrill
T1C1.200
; #@! TA.AperFunction,NonPlated,NPTH,ComponentDrill
T2C3.200
; #@! TA.AperFunction,NonPlated,NPTH,ComponentDrill
T3C4.000
%
G90
G05
T1
X112.77Y-45.905
X112.77Y-56.02
X112.795Y-53.52
X112.795Y-66.19
X112.82Y-48.445
X112.82Y-73.805
X112.845Y-68.73
X112.845Y-71.29
X182.405Y-102.39
X182.405Y-104.95
X182.43Y-99.875
X182.43Y-125.235
X182.455Y-107.49
X182.455Y-120.16
X182.48Y-117.66
X182.48Y-127.775
T2
X11.3Y-0.199
X11.3Y-8.149
X11.3Y-16.099
X11.3Y-24.049
X406.29Y-27.291
X406.29Y-35.241
X406.29Y-43.191
X406.29Y-51.141
T3
X103.31Y-119.645
X103.54Y-54.035
X147.49Y-100.675
X147.76Y-73.005
X191.71Y-119.645
X191.94Y-54.035
M30
