M48
; DRILL file {KiCad 9.0.7} date 2026-09-09T18:58:27+0530
; FORMAT={-:-/ absolute / metric / decimal}
; #@! TF.CreationDate,2026-09-09T18:58:27+05:30
; #@! TF.GenerationSoftware,Kicad,Pcbnew,9.0.7
; #@! TF.FileFunction,NonPlated,1,2,NPTH
FMAT,2
METRIC
; #@! TA.AperFunction,NonPlated,NPTH,ComponentDrill
T1C1.200
; #@! TA.AperFunction,NonPlated,NPTH,ComponentDrill
T2C4.000
%
G90
G05
T1
X63.996Y-90.085
X63.996Y-100.2
X64.021Y-97.7
X64.021Y-110.37
X64.046Y-92.625
X64.046Y-117.985
X64.071Y-112.91
X64.071Y-115.47
X133.649Y-49.675
X133.649Y-52.235
X133.674Y-47.16
X133.674Y-72.52
X133.699Y-54.775
X133.699Y-67.445
X133.724Y-64.945
X133.724Y-75.06
T2
X54.554Y-66.93
X54.766Y-98.215
X98.734Y-47.96
X98.986Y-117.185
X142.954Y-66.93
X143.166Y-98.215
M30
