%TF.GenerationSoftware,KiCad,Pcbnew,9.0.7*%
%TF.CreationDate,2026-09-09T10:58:49+05:30*%
%TF.ProjectId,WPC-panel2x,5750432d-7061-46e6-956c-32782e6b6963,rev?*%
%TF.SameCoordinates,Original*%
%TF.FileFunction,Soldermask,Bot*%
%TF.FilePolarity,Negative*%
%FSLAX46Y46*%
G04 Gerber Fmt 4.6, Leading zero omitted, Abs format (unit mm)*
G04 Created by KiCad (PCBNEW 9.0.7) date 2026-09-09 10:58:49*
%MOMM*%
%LPD*%
G01*
G04 APERTURE LIST*
G04 Aperture macros list*
%AMRoundRect*
0 Rectangle with rounded corners*
0 $1 Rounding radius*
0 $2 $3 $4 $5 $6 $7 $8 $9 X,Y pos of 4 corners*
0 Add a 4 corners polygon primitive as box body*
4,1,4,$2,$3,$4,$5,$6,$7,$8,$9,$2,$3,0*
0 Add four circle primitives for the rounded corners*
1,1,$1+$1,$2,$3*
1,1,$1+$1,$4,$5*
1,1,$1+$1,$6,$7*
1,1,$1+$1,$8,$9*
0 Add four rect primitives between the rounded corners*
20,1,$1+$1,$2,$3,$4,$5,0*
20,1,$1+$1,$4,$5,$6,$7,0*
20,1,$1+$1,$6,$7,$8,$9,0*
20,1,$1+$1,$8,$9,$2,$3,0*%
G04 Aperture macros list end*
%ADD10O,2.080000X3.600000*%
%ADD11RoundRect,0.249999X-0.790001X-1.550001X0.790001X-1.550001X0.790001X1.550001X-0.790001X1.550001X0*%
%ADD12C,1.600000*%
%ADD13RoundRect,0.250000X-0.550000X-0.550000X0.550000X-0.550000X0.550000X0.550000X-0.550000X0.550000X0*%
%ADD14RoundRect,0.249999X0.790001X1.550001X-0.790001X1.550001X-0.790001X-1.550001X0.790001X-1.550001X0*%
%ADD15O,2.200000X1.500000*%
%ADD16C,1.200000*%
%ADD17RoundRect,0.250000X0.550000X0.550000X-0.550000X0.550000X-0.550000X-0.550000X0.550000X-0.550000X0*%
%ADD18RoundRect,0.250000X-0.475000X0.250000X-0.475000X-0.250000X0.475000X-0.250000X0.475000X0.250000X0*%
%ADD19RoundRect,0.250000X0.250000X0.475000X-0.250000X0.475000X-0.250000X-0.475000X0.250000X-0.475000X0*%
%ADD20RoundRect,0.250000X0.262500X0.450000X-0.262500X0.450000X-0.262500X-0.450000X0.262500X-0.450000X0*%
%ADD21RoundRect,0.250000X-0.450000X0.262500X-0.450000X-0.262500X0.450000X-0.262500X0.450000X0.262500X0*%
%ADD22RoundRect,0.150000X-0.150000X0.512500X-0.150000X-0.512500X0.150000X-0.512500X0.150000X0.512500X0*%
%ADD23RoundRect,0.218750X0.218750X0.256250X-0.218750X0.256250X-0.218750X-0.256250X0.218750X-0.256250X0*%
%ADD24RoundRect,0.375000X-0.375000X0.625000X-0.375000X-0.625000X0.375000X-0.625000X0.375000X0.625000X0*%
%ADD25RoundRect,0.500000X-1.400000X0.500000X-1.400000X-0.500000X1.400000X-0.500000X1.400000X0.500000X0*%
%ADD26RoundRect,0.250000X0.450000X-0.262500X0.450000X0.262500X-0.450000X0.262500X-0.450000X-0.262500X0*%
%ADD27RoundRect,0.250000X0.475000X-0.250000X0.475000X0.250000X-0.475000X0.250000X-0.475000X-0.250000X0*%
%ADD28RoundRect,0.250000X-0.250000X-0.475000X0.250000X-0.475000X0.250000X0.475000X-0.250000X0.475000X0*%
%ADD29RoundRect,0.218750X-0.218750X-0.256250X0.218750X-0.256250X0.218750X0.256250X-0.218750X0.256250X0*%
%ADD30RoundRect,0.250000X-0.425000X-1.600000X0.425000X-1.600000X0.425000X1.600000X-0.425000X1.600000X0*%
%ADD31RoundRect,0.250000X-0.385000X-1.350000X0.385000X-1.350000X0.385000X1.350000X-0.385000X1.350000X0*%
%ADD32RoundRect,0.150000X0.150000X-0.512500X0.150000X0.512500X-0.150000X0.512500X-0.150000X-0.512500X0*%
%ADD33R,1.500000X2.000000*%
%ADD34RoundRect,0.250000X-0.262500X-0.450000X0.262500X-0.450000X0.262500X0.450000X-0.262500X0.450000X0*%
%ADD35RoundRect,0.375000X0.375000X-0.625000X0.375000X0.625000X-0.375000X0.625000X-0.375000X-0.625000X0*%
%ADD36RoundRect,0.500000X1.400000X-0.500000X1.400000X0.500000X-1.400000X0.500000X-1.400000X-0.500000X0*%
%ADD37RoundRect,0.250000X0.425000X1.600000X-0.425000X1.600000X-0.425000X-1.600000X0.425000X-1.600000X0*%
%ADD38RoundRect,0.250000X0.385000X1.350000X-0.385000X1.350000X-0.385000X-1.350000X0.385000X-1.350000X0*%
%ADD39C,3.200000*%
%ADD40C,4.500000*%
G04 APERTURE END LIST*
D10*
%TO.C,J4*%
X135479997Y-129865000D03*
X130399997Y-129865000D03*
X125319997Y-129865000D03*
D11*
X120239997Y-129865000D03*
%TD*%
D12*
%TO.C,C5*%
X190211873Y-76635000D03*
X189540936Y-75035000D03*
D13*
X187040936Y-75035000D03*
X186369999Y-73435000D03*
%TD*%
D10*
%TO.C,J3*%
X183899999Y-43775000D03*
D14*
X188979999Y-43775000D03*
%TD*%
D10*
%TO.C,J1*%
X145674999Y-43875000D03*
D14*
X150754999Y-43875000D03*
%TD*%
D15*
%TO.C,U5*%
X157480000Y-132885000D03*
X157480000Y-130325000D03*
X157505000Y-127900000D03*
X157455000Y-125360000D03*
X157455000Y-122800000D03*
X157480000Y-120285000D03*
X157505000Y-117785000D03*
X157505000Y-115225000D03*
X157455000Y-112685000D03*
X157455000Y-110050000D03*
X157455000Y-107490000D03*
X157405000Y-104950000D03*
X157405000Y-102390000D03*
X157430000Y-99875000D03*
X157430000Y-97315000D03*
X182430000Y-97315000D03*
X182455000Y-110050000D03*
X182430000Y-112560000D03*
X182480000Y-115100000D03*
X182430000Y-122675000D03*
X182480000Y-130325000D03*
X182480000Y-132885000D03*
D16*
X182480000Y-127775000D03*
X182480000Y-117660000D03*
X182455000Y-120160000D03*
X182455000Y-107490000D03*
X182430000Y-125235000D03*
X182430000Y-99875000D03*
X182405000Y-104950000D03*
X182405000Y-102390000D03*
%TD*%
D12*
%TO.C,C5*%
X105038123Y-97045000D03*
X105709060Y-98645000D03*
D17*
X108209060Y-98645000D03*
X108879997Y-100245000D03*
%TD*%
D10*
%TO.C,J3*%
X111349997Y-129905000D03*
D11*
X106269997Y-129905000D03*
%TD*%
D10*
%TO.C,J1*%
X149574997Y-129805000D03*
D11*
X144494997Y-129805000D03*
%TD*%
D10*
%TO.C,J4*%
X159769999Y-43815000D03*
X164849999Y-43815000D03*
X169929999Y-43815000D03*
D14*
X175009999Y-43815000D03*
%TD*%
D12*
%TO.C,C4*%
X190240936Y-65925000D03*
X189569999Y-64325000D03*
D13*
X187069999Y-64325000D03*
X186399062Y-62725000D03*
%TD*%
D15*
%TO.C,U5*%
X137769996Y-40795000D03*
X137769996Y-43355000D03*
X137744996Y-45780000D03*
X137794996Y-48320000D03*
X137794996Y-50880000D03*
X137769996Y-53395000D03*
X137744996Y-55895000D03*
X137744996Y-58455000D03*
X137794996Y-60995000D03*
X137794996Y-63630000D03*
X137794996Y-66190000D03*
X137844996Y-68730000D03*
X137844996Y-71290000D03*
X137819996Y-73805000D03*
X137819996Y-76365000D03*
X112819996Y-76365000D03*
X112794996Y-63630000D03*
X112819996Y-61120000D03*
X112769996Y-58580000D03*
X112819996Y-51005000D03*
X112769996Y-43355000D03*
X112769996Y-40795000D03*
D16*
X112769996Y-45905000D03*
X112769996Y-56020000D03*
X112794996Y-53520000D03*
X112794996Y-66190000D03*
X112819996Y-48445000D03*
X112819996Y-73805000D03*
X112844996Y-68730000D03*
X112844996Y-71290000D03*
%TD*%
D12*
%TO.C,C4*%
X105009060Y-107755000D03*
X105679997Y-109355000D03*
D17*
X108179997Y-109355000D03*
X108850934Y-110955000D03*
%TD*%
D18*
%TO.C,C12*%
X178869999Y-79305000D03*
X178869999Y-77405000D03*
%TD*%
D19*
%TO.C,C3*%
X133429999Y-73795000D03*
X135329999Y-73795000D03*
%TD*%
D20*
%TO.C,R10*%
X164437497Y-102365000D03*
X166262497Y-102365000D03*
%TD*%
%TO.C,R7*%
X164457497Y-99965000D03*
X166282497Y-99965000D03*
%TD*%
D21*
%TO.C,R2*%
X152999999Y-66837500D03*
X152999999Y-65012500D03*
%TD*%
D22*
%TO.C,U8*%
X180877499Y-74612500D03*
X182777499Y-74612500D03*
X182777499Y-72337500D03*
X181827499Y-72337500D03*
X180877499Y-72337500D03*
%TD*%
D21*
%TO.C,R4*%
X130709997Y-123157500D03*
X130709997Y-121332500D03*
%TD*%
D20*
%TO.C,R13*%
X116187499Y-58485000D03*
X118012499Y-58485000D03*
%TD*%
D23*
%TO.C,D8*%
X144512499Y-48165000D03*
X146087499Y-48165000D03*
%TD*%
D24*
%TO.C,U13*%
X184127499Y-54675000D03*
D25*
X181827499Y-60975000D03*
D24*
X181827499Y-54675000D03*
X179527499Y-54675000D03*
%TD*%
D26*
%TO.C,R11*%
X145299999Y-50512500D03*
X145299999Y-52337500D03*
%TD*%
D23*
%TO.C,D6*%
X163352499Y-48145000D03*
X164927499Y-48145000D03*
%TD*%
D19*
%TO.C,C8*%
X133409999Y-66155000D03*
X135309999Y-66155000D03*
%TD*%
D26*
%TO.C,R1*%
X142249997Y-93752500D03*
X142249997Y-95577500D03*
%TD*%
D27*
%TO.C,C10*%
X178859999Y-67245000D03*
X178859999Y-69145000D03*
%TD*%
D28*
%TO.C,C3*%
X161819997Y-99885000D03*
X159919997Y-99885000D03*
%TD*%
D29*
%TO.C,D8*%
X150737497Y-125515000D03*
X149162497Y-125515000D03*
%TD*%
D21*
%TO.C,R9*%
X125689997Y-123197500D03*
X125689997Y-121372500D03*
%TD*%
D30*
%TO.C,J2*%
X126545000Y-90515000D03*
X120895000Y-90515000D03*
D31*
X123720000Y-90265000D03*
%TD*%
D20*
%TO.C,R5*%
X164407497Y-104935000D03*
X166232497Y-104935000D03*
%TD*%
D19*
%TO.C,C6*%
X184999999Y-39935000D03*
X186899999Y-39935000D03*
%TD*%
D32*
%TO.C,U8*%
X114372497Y-99067500D03*
X112472497Y-99067500D03*
X112472497Y-101342500D03*
X113422497Y-101342500D03*
X114372497Y-101342500D03*
%TD*%
D27*
%TO.C,C13*%
X114509997Y-94335000D03*
X114509997Y-96235000D03*
%TD*%
D33*
%TO.C,U7*%
X123919997Y-112375000D03*
X125919997Y-112375000D03*
X127919997Y-112375000D03*
X129919997Y-112375000D03*
X131919997Y-112375000D03*
X135919997Y-112375000D03*
X137919997Y-112375000D03*
X133919997Y-96375000D03*
X129919997Y-96375000D03*
X127919997Y-96375000D03*
X125919997Y-96375000D03*
X123919997Y-96375000D03*
%TD*%
D26*
%TO.C,R3*%
X159559999Y-50482500D03*
X159559999Y-52307500D03*
%TD*%
%TO.C,R4*%
X164539999Y-50522500D03*
X164539999Y-52347500D03*
%TD*%
D28*
%TO.C,C1*%
X161859997Y-104905000D03*
X159959997Y-104905000D03*
%TD*%
D21*
%TO.C,R23*%
X176199996Y-68927500D03*
X176199996Y-67102500D03*
%TD*%
%TO.C,R11*%
X149949997Y-123167500D03*
X149949997Y-121342500D03*
%TD*%
D28*
%TO.C,C8*%
X161839997Y-107525000D03*
X159939997Y-107525000D03*
%TD*%
D26*
%TO.C,R23*%
X119050000Y-104752500D03*
X119050000Y-106577500D03*
%TD*%
D19*
%TO.C,C1*%
X133389999Y-68775000D03*
X135289999Y-68775000D03*
%TD*%
D23*
%TO.C,D4*%
X158382499Y-48215000D03*
X159957499Y-48215000D03*
%TD*%
D21*
%TO.C,R3*%
X135689997Y-123197500D03*
X135689997Y-121372500D03*
%TD*%
D20*
%TO.C,R12*%
X164247497Y-107565000D03*
X166072497Y-107565000D03*
%TD*%
D21*
%TO.C,R6*%
X176389999Y-58680000D03*
X176389999Y-56855000D03*
%TD*%
D27*
%TO.C,C12*%
X116379997Y-94375000D03*
X116379997Y-96275000D03*
%TD*%
D34*
%TO.C,R10*%
X130812499Y-71315000D03*
X128987499Y-71315000D03*
%TD*%
D19*
%TO.C,C2*%
X133449999Y-71255000D03*
X135349999Y-71255000D03*
%TD*%
D26*
%TO.C,R2*%
X142249997Y-106842500D03*
X142249997Y-108667500D03*
%TD*%
%TO.C,R9*%
X169559999Y-50482500D03*
X169559999Y-52307500D03*
%TD*%
D28*
%TO.C,C6*%
X110249997Y-133745000D03*
X108349997Y-133745000D03*
%TD*%
D29*
%TO.C,D5*%
X126737497Y-125465000D03*
X125162497Y-125465000D03*
%TD*%
D27*
%TO.C,C7*%
X180819999Y-67245000D03*
X180819999Y-69145000D03*
%TD*%
D18*
%TO.C,C13*%
X180739999Y-79345000D03*
X180739999Y-77445000D03*
%TD*%
%TO.C,C7*%
X114429997Y-106435000D03*
X114429997Y-104535000D03*
%TD*%
D29*
%TO.C,D4*%
X136867497Y-125465000D03*
X135292497Y-125465000D03*
%TD*%
D34*
%TO.C,R5*%
X130842499Y-68745000D03*
X129017499Y-68745000D03*
%TD*%
D21*
%TO.C,R1*%
X152999999Y-79927500D03*
X152999999Y-78102500D03*
%TD*%
D23*
%TO.C,D5*%
X168512499Y-48215000D03*
X170087499Y-48215000D03*
%TD*%
D29*
%TO.C,D6*%
X131897497Y-125535000D03*
X130322497Y-125535000D03*
%TD*%
D34*
%TO.C,R12*%
X131002499Y-66115000D03*
X129177499Y-66115000D03*
%TD*%
D26*
%TO.C,R6*%
X118859997Y-115000000D03*
X118859997Y-116825000D03*
%TD*%
D33*
%TO.C,U7*%
X171329999Y-61305000D03*
X169329999Y-61305000D03*
X167329999Y-61305000D03*
X165329999Y-61305000D03*
X163329999Y-61305000D03*
X159329999Y-61305000D03*
X157329999Y-61305000D03*
X161329999Y-77305000D03*
X165329999Y-77305000D03*
X167329999Y-77305000D03*
X169329999Y-77305000D03*
X171329999Y-77305000D03*
%TD*%
D35*
%TO.C,U13*%
X111122497Y-119005000D03*
D36*
X113422497Y-112705000D03*
D35*
X113422497Y-119005000D03*
X115722497Y-119005000D03*
%TD*%
D26*
%TO.C,R8*%
X142039997Y-120062500D03*
X142039997Y-121887500D03*
%TD*%
D37*
%TO.C,J2*%
X168704996Y-83165000D03*
X174354996Y-83165000D03*
D38*
X171529996Y-83415000D03*
%TD*%
D21*
%TO.C,R8*%
X153209999Y-53617500D03*
X153209999Y-51792500D03*
%TD*%
D34*
%TO.C,R13*%
X179062497Y-115195000D03*
X177237497Y-115195000D03*
%TD*%
D18*
%TO.C,C10*%
X116389997Y-106435000D03*
X116389997Y-104535000D03*
%TD*%
D28*
%TO.C,C2*%
X161799997Y-102425000D03*
X159899997Y-102425000D03*
%TD*%
D34*
%TO.C,R7*%
X130792499Y-73715000D03*
X128967499Y-73715000D03*
%TD*%
D39*
%TO.C,H2*%
X406289663Y-43191124D03*
%TD*%
%TO.C,H4*%
X11300339Y-16098876D03*
%TD*%
%TO.C,H4*%
X406289663Y-35241124D03*
%TD*%
%TO.C,H5*%
X11300339Y-24048876D03*
%TD*%
D40*
%TO.C,.*%
X147759999Y-73005000D03*
%TD*%
%TO.C,.*%
X103309997Y-119645000D03*
%TD*%
D39*
%TO.C,H5*%
X406289663Y-27291124D03*
%TD*%
D40*
%TO.C,.*%
X191939999Y-54035000D03*
%TD*%
D39*
%TO.C,H1*%
X11300339Y-198876D03*
%TD*%
D40*
%TO.C,.*%
X147489997Y-100675000D03*
%TD*%
D39*
%TO.C,H1*%
X406289663Y-51141124D03*
%TD*%
%TO.C,H2*%
X11300339Y-8148876D03*
%TD*%
D40*
%TO.C,.*%
X191709997Y-119645000D03*
%TD*%
%TO.C,.*%
X103539999Y-54035000D03*
%TD*%
M02*
