%TF.GenerationSoftware,KiCad,Pcbnew,9.0.7*%
%TF.CreationDate,2026-09-09T18:58:24+05:30*%
%TF.ProjectId,WPC-panel2x,5750432d-7061-46e6-956c-32782e6b6963,rev?*%
%TF.SameCoordinates,Original*%
%TF.FileFunction,Soldermask,Top*%
%TF.FilePolarity,Negative*%
%FSLAX46Y46*%
G04 Gerber Fmt 4.6, Leading zero omitted, Abs format (unit mm)*
G04 Created by KiCad (PCBNEW 9.0.7) date 2026-09-09 18:58:24*
%MOMM*%
%LPD*%
G01*
G04 APERTURE LIST*
G04 Aperture macros list*
%AMRoundRect*
0 Rectangle with rounded corners*
0 $1 Rounding radius*
0 $2 $3 $4 $5 $6 $7 $8 $9 X,Y pos of 4 corners*
0 Add a 4 corners polygon primitive as box body*
4,1,4,$2,$3,$4,$5,$6,$7,$8,$9,$2,$3,0*
0 Add four circle primitives for the rounded corners*
1,1,$1+$1,$2,$3*
1,1,$1+$1,$4,$5*
1,1,$1+$1,$6,$7*
1,1,$1+$1,$8,$9*
0 Add four rect primitives between the rounded corners*
20,1,$1+$1,$2,$3,$4,$5,0*
20,1,$1+$1,$4,$5,$6,$7,0*
20,1,$1+$1,$6,$7,$8,$9,0*
20,1,$1+$1,$8,$9,$2,$3,0*%
G04 Aperture macros list end*
%ADD10RoundRect,0.250000X0.625000X-0.375000X0.625000X0.375000X-0.625000X0.375000X-0.625000X-0.375000X0*%
%ADD11O,2.200000X1.500000*%
%ADD12C,1.200000*%
%ADD13RoundRect,0.249999X-0.790001X-1.550001X0.790001X-1.550001X0.790001X1.550001X-0.790001X1.550001X0*%
%ADD14O,2.080000X3.600000*%
%ADD15C,1.600000*%
%ADD16RoundRect,0.250000X-0.550000X-0.550000X0.550000X-0.550000X0.550000X0.550000X-0.550000X0.550000X0*%
%ADD17RoundRect,0.250000X-0.625000X0.375000X-0.625000X-0.375000X0.625000X-0.375000X0.625000X0.375000X0*%
%ADD18C,4.500000*%
%ADD19RoundRect,0.249999X0.790001X1.550001X-0.790001X1.550001X-0.790001X-1.550001X0.790001X-1.550001X0*%
%ADD20R,1.500000X2.000000*%
%ADD21RoundRect,0.250000X-0.425000X-1.600000X0.425000X-1.600000X0.425000X1.600000X-0.425000X1.600000X0*%
%ADD22RoundRect,0.250000X0.550000X0.550000X-0.550000X0.550000X-0.550000X-0.550000X0.550000X-0.550000X0*%
%ADD23RoundRect,0.250000X0.425000X1.600000X-0.425000X1.600000X-0.425000X-1.600000X0.425000X-1.600000X0*%
G04 APERTURE END LIST*
D10*
%TO.C,D13*%
X127606075Y-115205000D03*
X127606075Y-118005000D03*
%TD*%
D11*
%TO.C,U5*%
X88996072Y-84975000D03*
X88996072Y-87535000D03*
X88971072Y-89960000D03*
X89021072Y-92500000D03*
X89021072Y-95060000D03*
X88996072Y-97575000D03*
X88971072Y-100075000D03*
X88971072Y-102635000D03*
X89021072Y-105175000D03*
X89021072Y-107810000D03*
X89021072Y-110370000D03*
X89071072Y-112910000D03*
X89071072Y-115470000D03*
X89046072Y-117985000D03*
X89046072Y-120545000D03*
X64046072Y-120545000D03*
X64021072Y-107810000D03*
X64046072Y-105300000D03*
X63996072Y-102760000D03*
X64046072Y-95185000D03*
X63996072Y-87535000D03*
X63996072Y-84975000D03*
D12*
X63996072Y-90085000D03*
X63996072Y-100200000D03*
X64021072Y-97700000D03*
X64021072Y-110370000D03*
X64046072Y-92625000D03*
X64046072Y-117985000D03*
X64071072Y-112910000D03*
X64071072Y-115470000D03*
%TD*%
D10*
%TO.C,D2*%
X107306075Y-108685000D03*
X107306075Y-111485000D03*
%TD*%
%TO.C,D7*%
X127586075Y-104725000D03*
X127586075Y-107525000D03*
%TD*%
D13*
%TO.C,J3*%
X57514382Y-77190000D03*
D14*
X62594382Y-77190000D03*
%TD*%
D15*
%TO.C,C5*%
X141437949Y-120815000D03*
X140767012Y-119215000D03*
D16*
X138267012Y-119215000D03*
X137596075Y-117615000D03*
%TD*%
D12*
%TO.C,U5*%
X133649385Y-49675000D03*
X133649385Y-52235000D03*
X133674385Y-47160000D03*
X133674385Y-72520000D03*
X133699385Y-54775000D03*
X133699385Y-67445000D03*
X133724385Y-64945000D03*
X133724385Y-75060000D03*
D11*
X133724385Y-80170000D03*
X133724385Y-77610000D03*
X133674385Y-69960000D03*
X133724385Y-62385000D03*
X133674385Y-59845000D03*
X133699385Y-57335000D03*
X133674385Y-44600000D03*
X108674385Y-44600000D03*
X108674385Y-47160000D03*
X108649385Y-49675000D03*
X108649385Y-52235000D03*
X108699385Y-54775000D03*
X108699385Y-57335000D03*
X108699385Y-59970000D03*
X108749385Y-62510000D03*
X108749385Y-65070000D03*
X108724385Y-67570000D03*
X108699385Y-70085000D03*
X108699385Y-72645000D03*
X108749385Y-75185000D03*
X108724385Y-77610000D03*
X108724385Y-80170000D03*
%TD*%
D17*
%TO.C,D2*%
X90414382Y-53660000D03*
X90414382Y-56460000D03*
%TD*%
D18*
%TO.C,.*%
X98734382Y-47960000D03*
%TD*%
D14*
%TO.C,J4*%
X110996075Y-87995000D03*
X116076075Y-87995000D03*
X121156075Y-87995000D03*
D19*
X126236075Y-87995000D03*
%TD*%
D17*
%TO.C,D13*%
X70114382Y-47140000D03*
X70114382Y-49940000D03*
%TD*%
D10*
%TO.C,D1*%
X107326075Y-95575000D03*
X107326075Y-98375000D03*
%TD*%
D17*
%TO.C,D1*%
X90394382Y-66770000D03*
X90394382Y-69570000D03*
%TD*%
D20*
%TO.C,U7*%
X75164382Y-43660000D03*
%TD*%
D18*
%TO.C,.*%
X142954382Y-66930000D03*
%TD*%
%TO.C,.*%
X54766075Y-98215000D03*
%TD*%
D21*
%TO.C,J2*%
X72139385Y-38260000D03*
X77789385Y-38260000D03*
%TD*%
D20*
%TO.C,U7*%
X122556075Y-121485000D03*
%TD*%
D18*
%TO.C,.*%
X143166075Y-98215000D03*
%TD*%
D22*
%TO.C,C4*%
X60095319Y-58240000D03*
X59424382Y-56640000D03*
D15*
X56924382Y-56640000D03*
X56253445Y-55040000D03*
%TD*%
D13*
%TO.C,J4*%
X71484382Y-77150000D03*
D14*
X76564382Y-77150000D03*
X81644382Y-77150000D03*
X86724382Y-77150000D03*
%TD*%
D17*
%TO.C,D3*%
X90414382Y-40560000D03*
X90414382Y-43360000D03*
%TD*%
D13*
%TO.C,J1*%
X95739382Y-77090000D03*
D14*
X100819382Y-77090000D03*
%TD*%
D17*
%TO.C,D7*%
X70134382Y-57620000D03*
X70134382Y-60420000D03*
%TD*%
D15*
%TO.C,C4*%
X141467012Y-110105000D03*
X140796075Y-108505000D03*
D16*
X138296075Y-108505000D03*
X137625138Y-106905000D03*
%TD*%
D18*
%TO.C,.*%
X54554382Y-66930000D03*
%TD*%
D10*
%TO.C,D3*%
X107306075Y-121785000D03*
X107306075Y-124585000D03*
%TD*%
D18*
%TO.C,.*%
X98986075Y-117185000D03*
%TD*%
D14*
%TO.C,J1*%
X96901075Y-88055000D03*
D19*
X101981075Y-88055000D03*
%TD*%
D14*
%TO.C,J3*%
X135126075Y-87955000D03*
D19*
X140206075Y-87955000D03*
%TD*%
D22*
%TO.C,C5*%
X60124382Y-47530000D03*
X59453445Y-45930000D03*
D15*
X56953445Y-45930000D03*
X56282508Y-44330000D03*
%TD*%
D23*
%TO.C,J2*%
X119931072Y-126885000D03*
X125581072Y-126885000D03*
%TD*%
M02*
