M48
; DRILL file {KiCad 9.0.7} date 2026-09-09T18:58:27+0530
; FORMAT={-:-/ absolute / metric / decimal}
; #@! TF.CreationDate,2026-09-09T18:58:27+05:30
; #@! TF.GenerationSoftware,Kicad,Pcbnew,9.0.7
; #@! TF.FileFunction,Plated,1,2,PTH
FMAT,2
METRIC
; #@! TA.AperFunction,Plated,PTH,ViaDrill
T1C0.300
; #@! TA.AperFunction,Plated,PTH,ComponentDrill
T2C0.800
; #@! TA.AperFunction,Plated,PTH,ComponentDrill
T3C1.200
; #@! TA.AperFunction,Plated,PTH,ComponentDrill
T4C1.400
%
G90
G05
T1
X52.474Y-75.87
X52.484Y-76.99
X52.514Y-78.06
X52.524Y-79.18
X54.064Y-75.88
X54.074Y-77.0
X54.104Y-78.07
X54.114Y-79.19
X54.194Y-50.62
X54.204Y-51.74
X54.234Y-52.81
X54.244Y-53.93
X55.446Y-86.945
X55.456Y-88.065
X55.486Y-89.135
X55.496Y-90.255
X55.516Y-108.245
X55.526Y-109.365
X55.556Y-110.435
X55.566Y-111.555
X55.784Y-50.63
X55.794Y-51.75
X55.824Y-52.82
X57.036Y-86.955
X57.046Y-88.075
X57.076Y-89.145
X57.086Y-90.265
X57.106Y-108.255
X57.116Y-109.375
X57.146Y-110.445
X57.156Y-111.565
X59.164Y-43.01
X60.284Y-43.0
X61.354Y-42.97
X62.014Y-38.03
X62.464Y-44.55
X62.474Y-42.96
X65.894Y-55.96
X66.694Y-36.82
X66.704Y-37.94
X66.954Y-57.52
X66.964Y-55.93
X67.564Y-72.04
X67.564Y-73.2
X67.574Y-77.77
X67.584Y-74.26
X67.614Y-71.11
X67.634Y-76.52
X67.714Y-75.25
X67.996Y-113.465
X68.006Y-114.585
X68.036Y-115.655
X68.046Y-116.775
X68.074Y-57.51
X68.084Y-55.92
X68.284Y-36.83
X68.294Y-37.95
X69.084Y-65.81
X69.094Y-66.93
X69.124Y-68.0
X69.134Y-69.12
X69.586Y-113.475
X69.596Y-114.595
X69.626Y-115.665
X69.636Y-116.785
X69.836Y-109.205
X69.964Y-40.26
X70.104Y-61.31
X70.254Y-51.18
X70.536Y-106.585
X70.674Y-65.82
X70.684Y-66.94
X70.714Y-68.01
X70.724Y-69.13
X70.976Y-107.705
X72.394Y-42.3
X72.424Y-41.04
X73.824Y-49.02
X73.834Y-50.14
X73.864Y-51.21
X73.874Y-52.33
X74.536Y-109.235
X74.536Y-109.235
X74.674Y-67.13
X74.684Y-68.25
X74.714Y-69.32
X74.724Y-70.44
X75.414Y-49.03
X75.424Y-50.15
X75.454Y-51.22
X75.464Y-52.34
X75.744Y-62.66
X76.106Y-84.905
X76.116Y-86.025
X76.146Y-87.095
X76.156Y-88.215
X76.666Y-106.525
X76.864Y-62.65
X77.324Y-45.46
X77.696Y-84.915
X77.706Y-86.035
X77.736Y-87.105
X77.746Y-88.225
X77.934Y-62.62
X78.224Y-53.86
X78.254Y-56.18
X78.556Y-104.825
X78.564Y-40.53
X78.574Y-41.65
X78.806Y-98.145
X78.806Y-98.145
X78.896Y-107.605
X78.896Y-107.605
X79.054Y-62.61
X79.364Y-68.94
X79.374Y-70.06
X79.404Y-71.13
X79.414Y-72.25
X80.154Y-40.54
X80.164Y-41.66
X80.276Y-105.555
X80.326Y-98.195
X80.964Y-53.68
X82.096Y-103.905
X82.244Y-52.3
X82.394Y-40.12
X82.404Y-41.24
X82.486Y-100.335
X83.176Y-118.125
X83.216Y-112.635
X83.216Y-115.175
X83.296Y-109.495
X83.296Y-110.835
X83.984Y-40.13
X83.994Y-41.25
X84.184Y-68.94
X84.194Y-70.06
X84.224Y-71.13
X84.234Y-72.25
X85.289Y-46.995
X86.284Y-47.92
X87.304Y-48.79
X88.244Y-40.79
X88.304Y-36.86
X89.194Y-37.32
X89.243Y-42.16
X89.534Y-49.33
X89.544Y-47.07
X90.484Y-71.65
X90.494Y-72.77
X90.524Y-73.84
X90.534Y-74.96
X90.956Y-105.175
X91.364Y-68.89
X91.464Y-58.14
X91.474Y-59.26
X91.504Y-60.33
X91.514Y-61.45
X91.694Y-42.73
X91.694Y-55.81
X91.786Y-99.515
X92.074Y-71.66
X92.084Y-72.78
X92.114Y-73.85
X92.124Y-74.97
X93.054Y-58.15
X93.064Y-59.27
X93.094Y-60.34
X93.104Y-61.46
X93.496Y-99.515
X93.496Y-99.515
X93.696Y-117.225
X93.706Y-118.345
X95.286Y-117.235
X95.296Y-118.355
X96.656Y-105.175
X101.064Y-59.97
X102.424Y-46.79
X102.434Y-47.91
X104.014Y-46.8
X104.024Y-47.92
X104.224Y-65.63
X104.224Y-65.63
X104.616Y-103.685
X104.626Y-104.805
X104.656Y-105.875
X104.666Y-106.995
X105.596Y-90.175
X105.606Y-91.295
X105.636Y-92.365
X105.646Y-93.485
X105.934Y-65.63
X106.026Y-109.335
X106.026Y-122.415
X106.206Y-103.695
X106.216Y-104.815
X106.246Y-105.885
X106.256Y-107.005
X106.356Y-96.255
X106.764Y-59.97
X107.186Y-90.185
X107.196Y-91.305
X107.226Y-92.375
X107.236Y-93.495
X108.176Y-118.075
X108.186Y-115.815
X108.477Y-122.985
X108.526Y-127.825
X109.416Y-128.285
X109.476Y-124.355
X110.416Y-116.355
X111.436Y-117.225
X112.431Y-118.15
X113.486Y-92.895
X113.496Y-94.015
X113.526Y-95.085
X113.536Y-96.205
X113.726Y-123.895
X113.736Y-125.015
X114.424Y-54.31
X114.424Y-55.65
X114.504Y-49.97
X114.504Y-52.51
X114.544Y-47.02
X115.234Y-64.81
X115.316Y-123.905
X115.326Y-125.025
X115.476Y-112.845
X115.624Y-61.24
X116.756Y-111.465
X117.394Y-66.95
X117.444Y-59.59
X117.556Y-123.485
X117.566Y-124.605
X118.306Y-92.895
X118.316Y-94.015
X118.346Y-95.085
X118.356Y-96.205
X118.666Y-102.535
X118.824Y-57.54
X118.824Y-57.54
X118.914Y-67.0
X118.914Y-67.0
X119.146Y-123.495
X119.156Y-124.615
X119.164Y-60.32
X119.466Y-108.965
X119.496Y-111.285
X119.786Y-102.525
X119.974Y-76.92
X119.984Y-78.04
X120.014Y-79.11
X120.024Y-80.23
X120.396Y-119.685
X120.856Y-102.495
X121.054Y-58.62
X121.564Y-76.93
X121.574Y-78.05
X121.604Y-79.12
X121.614Y-80.24
X121.976Y-102.485
X122.256Y-112.805
X122.266Y-113.925
X122.296Y-114.995
X122.306Y-116.115
X122.996Y-94.705
X123.006Y-95.825
X123.036Y-96.895
X123.046Y-98.015
X123.184Y-55.91
X123.184Y-55.91
X123.846Y-112.815
X123.856Y-113.935
X123.886Y-115.005
X123.896Y-116.125
X125.296Y-124.105
X125.326Y-122.845
X126.744Y-57.44
X126.996Y-96.015
X127.006Y-97.135
X127.036Y-98.205
X127.046Y-99.325
X127.184Y-58.56
X127.466Y-113.965
X127.616Y-103.835
X127.756Y-124.885
X127.884Y-55.94
X128.084Y-48.36
X128.094Y-49.48
X128.124Y-50.55
X128.134Y-51.67
X128.586Y-96.025
X128.596Y-97.145
X128.626Y-98.215
X128.636Y-99.335
X129.426Y-127.195
X129.436Y-128.315
X129.636Y-109.225
X129.646Y-107.635
X129.674Y-48.37
X129.684Y-49.49
X129.714Y-50.56
X129.724Y-51.68
X130.006Y-89.895
X130.086Y-88.625
X130.106Y-94.035
X130.136Y-90.885
X130.146Y-87.375
X130.156Y-91.945
X130.156Y-93.105
X130.756Y-109.215
X130.766Y-107.625
X131.016Y-127.205
X131.026Y-128.325
X131.826Y-109.185
X135.246Y-122.185
X135.256Y-120.595
X135.706Y-127.115
X136.366Y-122.175
X137.436Y-122.145
X138.556Y-122.135
X140.564Y-53.58
X140.574Y-54.7
X140.604Y-55.77
X140.614Y-56.89
X140.634Y-74.88
X140.644Y-76.0
X140.674Y-77.07
X140.684Y-78.19
X141.896Y-112.325
X141.926Y-113.395
X141.936Y-114.515
X142.154Y-53.59
X142.164Y-54.71
X142.194Y-55.78
X142.204Y-56.9
X142.224Y-74.89
X142.234Y-76.01
X142.264Y-77.08
X142.274Y-78.2
X143.476Y-111.215
X143.486Y-112.335
X143.516Y-113.405
X143.526Y-114.525
X143.606Y-85.955
X143.616Y-87.075
X143.646Y-88.145
X143.656Y-89.265
X145.196Y-85.965
X145.206Y-87.085
X145.236Y-88.155
X145.246Y-89.275
T2
X56.253Y-55.04
X56.283Y-44.33
X56.924Y-56.64
X56.953Y-45.93
X59.424Y-56.64
X59.453Y-45.93
X60.095Y-58.24
X60.124Y-47.53
X75.164Y-43.66
X122.556Y-121.485
X137.596Y-117.615
X137.625Y-106.905
X138.267Y-119.215
X138.296Y-108.505
X140.767Y-119.215
X140.796Y-108.505
X141.438Y-120.815
X141.467Y-110.105
T3
X63.996Y-84.975
X63.996Y-87.535
X63.996Y-102.76
X64.021Y-107.81
X64.046Y-95.185
X64.046Y-105.3
X64.046Y-120.545
X88.971Y-89.96
X88.971Y-100.075
X88.971Y-102.635
X88.996Y-84.975
X88.996Y-87.535
X88.996Y-97.575
X89.021Y-92.5
X89.021Y-95.06
X89.021Y-105.175
X89.021Y-107.81
X89.021Y-110.37
X89.046Y-117.985
X89.046Y-120.545
X89.071Y-112.91
X89.071Y-115.47
X108.649Y-49.675
X108.649Y-52.235
X108.674Y-44.6
X108.674Y-47.16
X108.699Y-54.775
X108.699Y-57.335
X108.699Y-59.97
X108.699Y-70.085
X108.699Y-72.645
X108.724Y-67.57
X108.724Y-77.61
X108.724Y-80.17
X108.749Y-62.51
X108.749Y-65.07
X108.749Y-75.185
X133.674Y-44.6
X133.674Y-59.845
X133.674Y-69.96
X133.699Y-57.335
X133.724Y-62.385
X133.724Y-77.61
X133.724Y-80.17
T4
X57.514Y-77.19
X62.594Y-77.19
X71.484Y-77.15
X76.564Y-77.15
X81.644Y-77.15
X86.724Y-77.15
X95.739Y-77.09
X96.901Y-88.055
X100.819Y-77.09
X101.981Y-88.055
X110.996Y-87.995
X116.076Y-87.995
X121.156Y-87.995
X126.236Y-87.995
X135.126Y-87.955
X140.206Y-87.955
M30
