%TF.GenerationSoftware,KiCad,Pcbnew,9.0.7*%
%TF.CreationDate,2026-09-09T18:58:24+05:30*%
%TF.ProjectId,WPC-panel2x,5750432d-7061-46e6-956c-32782e6b6963,rev?*%
%TF.SameCoordinates,Original*%
%TF.FileFunction,Soldermask,Bot*%
%TF.FilePolarity,Negative*%
%FSLAX46Y46*%
G04 Gerber Fmt 4.6, Leading zero omitted, Abs format (unit mm)*
G04 Created by KiCad (PCBNEW 9.0.7) date 2026-09-09 18:58:24*
%MOMM*%
%LPD*%
G01*
G04 APERTURE LIST*
G04 Aperture macros list*
%AMRoundRect*
0 Rectangle with rounded corners*
0 $1 Rounding radius*
0 $2 $3 $4 $5 $6 $7 $8 $9 X,Y pos of 4 corners*
0 Add a 4 corners polygon primitive as box body*
4,1,4,$2,$3,$4,$5,$6,$7,$8,$9,$2,$3,0*
0 Add four circle primitives for the rounded corners*
1,1,$1+$1,$2,$3*
1,1,$1+$1,$4,$5*
1,1,$1+$1,$6,$7*
1,1,$1+$1,$8,$9*
0 Add four rect primitives between the rounded corners*
20,1,$1+$1,$2,$3,$4,$5,0*
20,1,$1+$1,$4,$5,$6,$7,0*
20,1,$1+$1,$6,$7,$8,$9,0*
20,1,$1+$1,$8,$9,$2,$3,0*%
G04 Aperture macros list end*
%ADD10O,2.200000X1.500000*%
%ADD11C,1.200000*%
%ADD12RoundRect,0.249999X-0.790001X-1.550001X0.790001X-1.550001X0.790001X1.550001X-0.790001X1.550001X0*%
%ADD13O,2.080000X3.600000*%
%ADD14C,1.600000*%
%ADD15RoundRect,0.250000X-0.550000X-0.550000X0.550000X-0.550000X0.550000X0.550000X-0.550000X0.550000X0*%
%ADD16C,4.500000*%
%ADD17RoundRect,0.249999X0.790001X1.550001X-0.790001X1.550001X-0.790001X-1.550001X0.790001X-1.550001X0*%
%ADD18RoundRect,0.250000X0.250000X0.475000X-0.250000X0.475000X-0.250000X-0.475000X0.250000X-0.475000X0*%
%ADD19RoundRect,0.250000X0.475000X-0.250000X0.475000X0.250000X-0.475000X0.250000X-0.475000X-0.250000X0*%
%ADD20RoundRect,0.250000X0.262500X0.450000X-0.262500X0.450000X-0.262500X-0.450000X0.262500X-0.450000X0*%
%ADD21RoundRect,0.250000X-0.450000X0.262500X-0.450000X-0.262500X0.450000X-0.262500X0.450000X0.262500X0*%
%ADD22RoundRect,0.250000X-0.475000X0.250000X-0.475000X-0.250000X0.475000X-0.250000X0.475000X0.250000X0*%
%ADD23R,1.500000X2.000000*%
%ADD24RoundRect,0.250000X0.450000X-0.262500X0.450000X0.262500X-0.450000X0.262500X-0.450000X-0.262500X0*%
%ADD25RoundRect,0.250000X-0.262500X-0.450000X0.262500X-0.450000X0.262500X0.450000X-0.262500X0.450000X0*%
%ADD26RoundRect,0.250000X-0.250000X-0.475000X0.250000X-0.475000X0.250000X0.475000X-0.250000X0.475000X0*%
%ADD27RoundRect,0.218750X-0.218750X-0.256250X0.218750X-0.256250X0.218750X0.256250X-0.218750X0.256250X0*%
%ADD28RoundRect,0.218750X0.218750X0.256250X-0.218750X0.256250X-0.218750X-0.256250X0.218750X-0.256250X0*%
%ADD29RoundRect,0.375000X0.375000X-0.625000X0.375000X0.625000X-0.375000X0.625000X-0.375000X-0.625000X0*%
%ADD30RoundRect,0.500000X1.400000X-0.500000X1.400000X0.500000X-1.400000X0.500000X-1.400000X-0.500000X0*%
%ADD31RoundRect,0.150000X-0.150000X0.512500X-0.150000X-0.512500X0.150000X-0.512500X0.150000X0.512500X0*%
%ADD32RoundRect,0.250000X-0.385000X-1.350000X0.385000X-1.350000X0.385000X1.350000X-0.385000X1.350000X0*%
%ADD33RoundRect,0.250000X-0.425000X-1.600000X0.425000X-1.600000X0.425000X1.600000X-0.425000X1.600000X0*%
%ADD34RoundRect,0.250000X0.550000X0.550000X-0.550000X0.550000X-0.550000X-0.550000X0.550000X-0.550000X0*%
%ADD35RoundRect,0.150000X0.150000X-0.512500X0.150000X0.512500X-0.150000X0.512500X-0.150000X-0.512500X0*%
%ADD36RoundRect,0.375000X-0.375000X0.625000X-0.375000X-0.625000X0.375000X-0.625000X0.375000X0.625000X0*%
%ADD37RoundRect,0.500000X-1.400000X0.500000X-1.400000X-0.500000X1.400000X-0.500000X1.400000X0.500000X0*%
%ADD38RoundRect,0.250000X0.425000X1.600000X-0.425000X1.600000X-0.425000X-1.600000X0.425000X-1.600000X0*%
%ADD39RoundRect,0.250000X0.385000X1.350000X-0.385000X1.350000X-0.385000X-1.350000X0.385000X-1.350000X0*%
G04 APERTURE END LIST*
D10*
%TO.C,U5*%
X88996072Y-84975000D03*
X88996072Y-87535000D03*
X88971072Y-89960000D03*
X89021072Y-92500000D03*
X89021072Y-95060000D03*
X88996072Y-97575000D03*
X88971072Y-100075000D03*
X88971072Y-102635000D03*
X89021072Y-105175000D03*
X89021072Y-107810000D03*
X89021072Y-110370000D03*
X89071072Y-112910000D03*
X89071072Y-115470000D03*
X89046072Y-117985000D03*
X89046072Y-120545000D03*
X64046072Y-120545000D03*
X64021072Y-107810000D03*
X64046072Y-105300000D03*
X63996072Y-102760000D03*
X64046072Y-95185000D03*
X63996072Y-87535000D03*
X63996072Y-84975000D03*
D11*
X63996072Y-90085000D03*
X63996072Y-100200000D03*
X64021072Y-97700000D03*
X64021072Y-110370000D03*
X64046072Y-92625000D03*
X64046072Y-117985000D03*
X64071072Y-112910000D03*
X64071072Y-115470000D03*
%TD*%
D12*
%TO.C,J3*%
X57514382Y-77190000D03*
D13*
X62594382Y-77190000D03*
%TD*%
D14*
%TO.C,C5*%
X141437949Y-120815000D03*
X140767012Y-119215000D03*
D15*
X138267012Y-119215000D03*
X137596075Y-117615000D03*
%TD*%
D11*
%TO.C,U5*%
X133649385Y-49675000D03*
X133649385Y-52235000D03*
X133674385Y-47160000D03*
X133674385Y-72520000D03*
X133699385Y-54775000D03*
X133699385Y-67445000D03*
X133724385Y-64945000D03*
X133724385Y-75060000D03*
D10*
X133724385Y-80170000D03*
X133724385Y-77610000D03*
X133674385Y-69960000D03*
X133724385Y-62385000D03*
X133674385Y-59845000D03*
X133699385Y-57335000D03*
X133674385Y-44600000D03*
X108674385Y-44600000D03*
X108674385Y-47160000D03*
X108649385Y-49675000D03*
X108649385Y-52235000D03*
X108699385Y-54775000D03*
X108699385Y-57335000D03*
X108699385Y-59970000D03*
X108749385Y-62510000D03*
X108749385Y-65070000D03*
X108724385Y-67570000D03*
X108699385Y-70085000D03*
X108699385Y-72645000D03*
X108749385Y-75185000D03*
X108724385Y-77610000D03*
X108724385Y-80170000D03*
%TD*%
D16*
%TO.C,.*%
X98734382Y-47960000D03*
%TD*%
D13*
%TO.C,J4*%
X110996075Y-87995000D03*
X116076075Y-87995000D03*
X121156075Y-87995000D03*
D17*
X126236075Y-87995000D03*
%TD*%
D18*
%TO.C,C3*%
X84656075Y-117975000D03*
X86556075Y-117975000D03*
%TD*%
D19*
%TO.C,C13*%
X65754382Y-43520000D03*
X65754382Y-41620000D03*
%TD*%
D20*
%TO.C,R5*%
X117476882Y-52220000D03*
X115651882Y-52220000D03*
%TD*%
D21*
%TO.C,R1*%
X104226075Y-124107500D03*
X104226075Y-122282500D03*
%TD*%
D22*
%TO.C,C7*%
X65674382Y-51820000D03*
X65674382Y-53720000D03*
%TD*%
D23*
%TO.C,U7*%
X75164382Y-43660000D03*
X77164382Y-43660000D03*
X79164382Y-43660000D03*
X81164382Y-43660000D03*
X85164382Y-43660000D03*
X89164382Y-59660000D03*
X87164382Y-59660000D03*
X83164382Y-59660000D03*
X81164382Y-59660000D03*
X79164382Y-59660000D03*
X77164382Y-59660000D03*
X75164382Y-59660000D03*
%TD*%
D16*
%TO.C,.*%
X142954382Y-66930000D03*
%TD*%
D24*
%TO.C,R4*%
X115766075Y-94702500D03*
X115766075Y-96527500D03*
%TD*%
D25*
%TO.C,R7*%
X82018575Y-117895000D03*
X80193575Y-117895000D03*
%TD*%
D21*
%TO.C,R11*%
X101194382Y-68627500D03*
X101194382Y-70452500D03*
%TD*%
D22*
%TO.C,C12*%
X130096075Y-123485000D03*
X130096075Y-121585000D03*
%TD*%
D25*
%TO.C,R12*%
X82228575Y-110295000D03*
X80403575Y-110295000D03*
%TD*%
D21*
%TO.C,R4*%
X81954382Y-68617500D03*
X81954382Y-70442500D03*
%TD*%
D24*
%TO.C,R3*%
X110786075Y-94662500D03*
X110786075Y-96487500D03*
%TD*%
D26*
%TO.C,C8*%
X111184382Y-54810000D03*
X113084382Y-54810000D03*
%TD*%
D27*
%TO.C,D5*%
X76406882Y-72750000D03*
X77981882Y-72750000D03*
%TD*%
D21*
%TO.C,R23*%
X127426072Y-113107500D03*
X127426072Y-111282500D03*
%TD*%
D18*
%TO.C,C8*%
X84636075Y-110335000D03*
X86536075Y-110335000D03*
%TD*%
D19*
%TO.C,C7*%
X132046075Y-111425000D03*
X132046075Y-113325000D03*
%TD*%
D20*
%TO.C,R10*%
X117506882Y-49650000D03*
X115681882Y-49650000D03*
%TD*%
D16*
%TO.C,.*%
X54766075Y-98215000D03*
%TD*%
D24*
%TO.C,R23*%
X70294385Y-53862500D03*
X70294385Y-52037500D03*
%TD*%
D28*
%TO.C,D5*%
X119738575Y-92395000D03*
X121313575Y-92395000D03*
%TD*%
D18*
%TO.C,C6*%
X136436075Y-85145000D03*
X138336075Y-85145000D03*
%TD*%
D24*
%TO.C,R6*%
X70104382Y-64110000D03*
X70104382Y-62285000D03*
%TD*%
D21*
%TO.C,R2*%
X104226075Y-111017500D03*
X104226075Y-109192500D03*
%TD*%
D19*
%TO.C,C12*%
X67624382Y-43560000D03*
X67624382Y-41660000D03*
%TD*%
D24*
%TO.C,R2*%
X93494382Y-55952500D03*
X93494382Y-54127500D03*
%TD*%
D29*
%TO.C,U13*%
X66966882Y-66290000D03*
X64666882Y-66290000D03*
D30*
X64666882Y-59990000D03*
D29*
X62366882Y-66290000D03*
%TD*%
D21*
%TO.C,R9*%
X76934382Y-68657500D03*
X76934382Y-70482500D03*
%TD*%
D22*
%TO.C,C13*%
X131966075Y-123525000D03*
X131966075Y-121625000D03*
%TD*%
D31*
%TO.C,U8*%
X132103575Y-118792500D03*
X134003575Y-118792500D03*
X134003575Y-116517500D03*
X133053575Y-116517500D03*
X132103575Y-116517500D03*
%TD*%
D20*
%TO.C,R7*%
X117526882Y-47250000D03*
X115701882Y-47250000D03*
%TD*%
D25*
%TO.C,R5*%
X82068575Y-112925000D03*
X80243575Y-112925000D03*
%TD*%
D24*
%TO.C,R9*%
X120786075Y-94662500D03*
X120786075Y-96487500D03*
%TD*%
D28*
%TO.C,D8*%
X95738575Y-92345000D03*
X97313575Y-92345000D03*
%TD*%
D26*
%TO.C,C1*%
X111204382Y-52190000D03*
X113104382Y-52190000D03*
%TD*%
D24*
%TO.C,R11*%
X96526075Y-94692500D03*
X96526075Y-96517500D03*
%TD*%
D18*
%TO.C,C1*%
X84616075Y-112955000D03*
X86516075Y-112955000D03*
%TD*%
D20*
%TO.C,R12*%
X117316882Y-54850000D03*
X115491882Y-54850000D03*
%TD*%
D22*
%TO.C,C10*%
X67634382Y-51820000D03*
X67634382Y-53720000D03*
%TD*%
D26*
%TO.C,C2*%
X111144382Y-49710000D03*
X113044382Y-49710000D03*
%TD*%
D32*
%TO.C,J2*%
X74964385Y-38010000D03*
D33*
X72139385Y-38260000D03*
X77789385Y-38260000D03*
%TD*%
D23*
%TO.C,U7*%
X122556075Y-105485000D03*
X120556075Y-105485000D03*
X118556075Y-105485000D03*
X116556075Y-105485000D03*
X114556075Y-105485000D03*
X110556075Y-105485000D03*
X108556075Y-105485000D03*
X112556075Y-121485000D03*
X116556075Y-121485000D03*
X118556075Y-121485000D03*
X120556075Y-121485000D03*
X122556075Y-121485000D03*
%TD*%
D26*
%TO.C,C6*%
X59384382Y-80000000D03*
X61284382Y-80000000D03*
%TD*%
D16*
%TO.C,.*%
X143166075Y-98215000D03*
%TD*%
D34*
%TO.C,C4*%
X60095319Y-58240000D03*
X59424382Y-56640000D03*
D14*
X56924382Y-56640000D03*
X56253445Y-55040000D03*
%TD*%
D12*
%TO.C,J4*%
X71484382Y-77150000D03*
D13*
X76564382Y-77150000D03*
X81644382Y-77150000D03*
X86724382Y-77150000D03*
%TD*%
D12*
%TO.C,J1*%
X95739382Y-77090000D03*
D13*
X100819382Y-77090000D03*
%TD*%
D25*
%TO.C,R10*%
X82038575Y-115495000D03*
X80213575Y-115495000D03*
%TD*%
D14*
%TO.C,C4*%
X141467012Y-110105000D03*
X140796075Y-108505000D03*
D15*
X138296075Y-108505000D03*
X137625138Y-106905000D03*
%TD*%
D16*
%TO.C,.*%
X54554382Y-66930000D03*
%TD*%
%TO.C,.*%
X98986075Y-117185000D03*
%TD*%
D13*
%TO.C,J1*%
X96901075Y-88055000D03*
D17*
X101981075Y-88055000D03*
%TD*%
D13*
%TO.C,J3*%
X135126075Y-87955000D03*
D17*
X140206075Y-87955000D03*
%TD*%
D34*
%TO.C,C5*%
X60124382Y-47530000D03*
X59453445Y-45930000D03*
D14*
X56953445Y-45930000D03*
X56282508Y-44330000D03*
%TD*%
D25*
%TO.C,R13*%
X128481882Y-62480000D03*
X130306882Y-62480000D03*
%TD*%
D35*
%TO.C,U8*%
X65616882Y-48627500D03*
X64666882Y-48627500D03*
X63716882Y-48627500D03*
X63716882Y-46352500D03*
X65616882Y-46352500D03*
%TD*%
D18*
%TO.C,C2*%
X84676075Y-115435000D03*
X86576075Y-115435000D03*
%TD*%
D19*
%TO.C,C10*%
X130086075Y-111425000D03*
X130086075Y-113325000D03*
%TD*%
D20*
%TO.C,R13*%
X67413575Y-102665000D03*
X69238575Y-102665000D03*
%TD*%
D24*
%TO.C,R1*%
X93494382Y-42862500D03*
X93494382Y-41037500D03*
%TD*%
D21*
%TO.C,R3*%
X86934382Y-68657500D03*
X86934382Y-70482500D03*
%TD*%
%TO.C,R8*%
X104436075Y-97797500D03*
X104436075Y-95972500D03*
%TD*%
D36*
%TO.C,U13*%
X135353575Y-98855000D03*
D37*
X133053575Y-105155000D03*
D36*
X133053575Y-98855000D03*
X130753575Y-98855000D03*
%TD*%
D21*
%TO.C,R6*%
X127616075Y-102860000D03*
X127616075Y-101035000D03*
%TD*%
D27*
%TO.C,D6*%
X81566882Y-72820000D03*
X83141882Y-72820000D03*
%TD*%
D24*
%TO.C,R8*%
X93284382Y-69172500D03*
X93284382Y-67347500D03*
%TD*%
D38*
%TO.C,J2*%
X119931072Y-126885000D03*
X125581072Y-126885000D03*
D39*
X122756072Y-127135000D03*
%TD*%
D27*
%TO.C,D4*%
X86536882Y-72750000D03*
X88111882Y-72750000D03*
%TD*%
D26*
%TO.C,C3*%
X111164382Y-47170000D03*
X113064382Y-47170000D03*
%TD*%
D27*
%TO.C,D8*%
X100406882Y-72800000D03*
X101981882Y-72800000D03*
%TD*%
D28*
%TO.C,D6*%
X114578575Y-92325000D03*
X116153575Y-92325000D03*
%TD*%
%TO.C,D4*%
X109608575Y-92395000D03*
X111183575Y-92395000D03*
%TD*%
M02*
