%TF.GenerationSoftware,KiCad,Pcbnew,9.0.7*%
%TF.CreationDate,2026-09-27T13:25:34+05:30*%
%TF.ProjectId,WM2-WaterMaster,574d322d-5761-4746-9572-4d6173746572,rev?*%
%TF.SameCoordinates,Original*%
%TF.FileFunction,Copper,L2,Bot*%
%TF.FilePolarity,Positive*%
%FSLAX46Y46*%
G04 Gerber Fmt 4.6, Leading zero omitted, Abs format (unit mm)*
G04 Created by KiCad (PCBNEW 9.0.7) date 2026-09-27 13:25:34*
%MOMM*%
%LPD*%
G01*
G04 APERTURE LIST*
G04 Aperture macros list*
%AMRoundRect*
0 Rectangle with rounded corners*
0 $1 Rounding radius*
0 $2 $3 $4 $5 $6 $7 $8 $9 X,Y pos of 4 corners*
0 Add a 4 corners polygon primitive as box body*
4,1,4,$2,$3,$4,$5,$6,$7,$8,$9,$2,$3,0*
0 Add four circle primitives for the rounded corners*
1,1,$1+$1,$2,$3*
1,1,$1+$1,$4,$5*
1,1,$1+$1,$6,$7*
1,1,$1+$1,$8,$9*
0 Add four rect primitives between the rounded corners*
20,1,$1+$1,$2,$3,$4,$5,0*
20,1,$1+$1,$4,$5,$6,$7,0*
20,1,$1+$1,$6,$7,$8,$9,0*
20,1,$1+$1,$8,$9,$2,$3,0*%
G04 Aperture macros list end*
%TA.AperFunction,ComponentPad*%
%ADD10RoundRect,0.250000X0.725000X-0.600000X0.725000X0.600000X-0.725000X0.600000X-0.725000X-0.600000X0*%
%TD*%
%TA.AperFunction,ComponentPad*%
%ADD11O,1.950000X1.700000*%
%TD*%
%TA.AperFunction,ComponentPad*%
%ADD12C,1.000000*%
%TD*%
%TA.AperFunction,ComponentPad*%
%ADD13R,3.000000X3.000000*%
%TD*%
%TA.AperFunction,ComponentPad*%
%ADD14C,3.000000*%
%TD*%
%TA.AperFunction,ComponentPad*%
%ADD15RoundRect,0.249999X-1.550001X0.790001X-1.550001X-0.790001X1.550001X-0.790001X1.550001X0.790001X0*%
%TD*%
%TA.AperFunction,ComponentPad*%
%ADD16O,3.600000X2.080000*%
%TD*%
%TA.AperFunction,ComponentPad*%
%ADD17RoundRect,0.249999X-0.790001X-1.550001X0.790001X-1.550001X0.790001X1.550001X-0.790001X1.550001X0*%
%TD*%
%TA.AperFunction,ComponentPad*%
%ADD18O,2.080000X3.600000*%
%TD*%
%TA.AperFunction,ComponentPad*%
%ADD19RoundRect,0.249999X1.550001X-0.790001X1.550001X0.790001X-1.550001X0.790001X-1.550001X-0.790001X0*%
%TD*%
%TA.AperFunction,ComponentPad*%
%ADD20RoundRect,0.250000X-0.550000X-0.550000X0.550000X-0.550000X0.550000X0.550000X-0.550000X0.550000X0*%
%TD*%
%TA.AperFunction,ComponentPad*%
%ADD21C,1.600000*%
%TD*%
%TA.AperFunction,HeatsinkPad*%
%ADD22C,0.600000*%
%TD*%
%TA.AperFunction,ComponentPad*%
%ADD23C,0.630000*%
%TD*%
%TA.AperFunction,SMDPad,CuDef*%
%ADD24R,3.300000X2.600000*%
%TD*%
%TA.AperFunction,ViaPad*%
%ADD25C,0.800000*%
%TD*%
%TA.AperFunction,ViaPad*%
%ADD26C,0.600000*%
%TD*%
%TA.AperFunction,Conductor*%
%ADD27C,0.300000*%
%TD*%
G04 APERTURE END LIST*
D10*
%TO.P,J9,1,Pin_1*%
%TO.N,unconnected-(J9-Pin_1-Pad1)*%
X245340000Y-64945000D03*
D11*
%TO.P,J9,2,Pin_2*%
%TO.N,/RXD0*%
X245340000Y-62445000D03*
%TO.P,J9,3,Pin_3*%
%TO.N,/TXD0*%
X245340000Y-59945000D03*
%TO.P,J9,4,Pin_4*%
%TO.N,GND*%
X245340000Y-57445000D03*
%TO.P,J9,5,Pin_5*%
%TO.N,/EN*%
X245340000Y-54945000D03*
%TO.P,J9,6,Pin_6*%
%TO.N,/IO0*%
X245340000Y-52445000D03*
%TO.P,J9,7,Pin_7*%
%TO.N,GND*%
X245340000Y-49945000D03*
%TO.P,J9,8,Pin_8*%
%TO.N,+5V*%
X245340000Y-47445000D03*
%TD*%
D12*
%TO.P,Y1,1,1*%
%TO.N,Net-(U5-X1)*%
X192045000Y-40475000D03*
%TO.P,Y1,2,2*%
%TO.N,Net-(U5-X2)*%
X192045000Y-38575000D03*
%TD*%
D13*
%TO.P,BT1,1,+*%
%TO.N,/BATT*%
X169172545Y-50055000D03*
D14*
%TO.P,BT1,2,-*%
%TO.N,GND*%
X189972545Y-50055000D03*
%TD*%
D15*
%TO.P,J3,1,Pin_1*%
%TO.N,+5V_Ext*%
X240210000Y-92615000D03*
D16*
%TO.P,J3,2,Pin_2*%
%TO.N,Net-(J3-Pin_2)*%
X240210000Y-97695000D03*
%TO.P,J3,3,Pin_3*%
%TO.N,GND*%
X240210000Y-102775000D03*
%TD*%
D17*
%TO.P,J8,1,Pin_1*%
%TO.N,/V2_OUT1*%
X226585000Y-112097500D03*
D18*
%TO.P,J8,2,Pin_2*%
%TO.N,/V2_OUT2*%
X231665000Y-112097500D03*
%TD*%
D19*
%TO.P,J2,1,Pin_1*%
%TO.N,+5V_Ext*%
X177260000Y-78495000D03*
D16*
%TO.P,J2,2,Pin_2*%
%TO.N,Net-(J2-Pin_2)*%
X177260000Y-73415000D03*
%TO.P,J2,3,Pin_3*%
%TO.N,GND*%
X177260000Y-68335000D03*
%TD*%
D20*
%TO.P,C9,1*%
%TO.N,+12V_LV*%
X201049063Y-112895000D03*
X201720000Y-114495000D03*
D21*
%TO.P,C9,2*%
%TO.N,GND*%
X204220000Y-114495000D03*
X204890937Y-116095000D03*
%TD*%
D22*
%TO.P,U4,39,GND*%
%TO.N,GND*%
X227200000Y-55975000D03*
X227200000Y-57375000D03*
X227900000Y-55275000D03*
X227900000Y-56675000D03*
X227900000Y-58075000D03*
X228575000Y-55975000D03*
X228575000Y-57375000D03*
X229300000Y-55275000D03*
X229300000Y-56675000D03*
X229300000Y-58075000D03*
X230000000Y-55975000D03*
X230000000Y-57375000D03*
%TD*%
D19*
%TO.P,J5,1,Pin_1*%
%TO.N,+5V_Ext*%
X177260000Y-97555000D03*
D16*
%TO.P,J5,2,Pin_2*%
%TO.N,Net-(J5-Pin_2)*%
X177260000Y-92475000D03*
%TO.P,J5,3,Pin_3*%
%TO.N,GND*%
X177260000Y-87395000D03*
%TD*%
D17*
%TO.P,J7,1,Pin_1*%
%TO.N,/V1_OUT1*%
X212875000Y-112077500D03*
D18*
%TO.P,J7,2,Pin_2*%
%TO.N,/V1_OUT2*%
X217955000Y-112077500D03*
%TD*%
D17*
%TO.P,J1,1,Pin_1*%
%TO.N,GND*%
X174665000Y-112097500D03*
D18*
%TO.P,J1,2,Pin_2*%
%TO.N,Net-(J1-Pin_2)*%
X179745000Y-112097500D03*
%TD*%
D23*
%TO.P,U1,9,GND*%
%TO.N,GND*%
X214195000Y-103980000D03*
X212895000Y-103980000D03*
X211595000Y-103980000D03*
D24*
X212895000Y-104630000D03*
D23*
X214195000Y-105280000D03*
X212895000Y-105280000D03*
X211595000Y-105280000D03*
%TD*%
D20*
%TO.P,C10,1*%
%TO.N,+12V_LV*%
X219949063Y-102725000D03*
X220620000Y-104325000D03*
D21*
%TO.P,C10,2*%
%TO.N,GND*%
X223120000Y-104325000D03*
X223790937Y-105925000D03*
%TD*%
D23*
%TO.P,U2,9,GND*%
%TO.N,GND*%
X232005000Y-104510000D03*
X230705000Y-104510000D03*
X229405000Y-104510000D03*
D24*
X230705000Y-105160000D03*
D23*
X232005000Y-105810000D03*
X230705000Y-105810000D03*
X229405000Y-105810000D03*
%TD*%
D17*
%TO.P,J6,1,Pin_1*%
%TO.N,GND*%
X188195000Y-112097500D03*
D18*
%TO.P,J6,2,Pin_2*%
%TO.N,Net-(J6-Pin_2)*%
X193275000Y-112097500D03*
%TD*%
D20*
%TO.P,C7,1*%
%TO.N,+12V_LV*%
X240079063Y-112635000D03*
X240750000Y-114235000D03*
D21*
%TO.P,C7,2*%
%TO.N,GND*%
X243250000Y-114235000D03*
X243920937Y-115835000D03*
%TD*%
D15*
%TO.P,J4,1,Pin_1*%
%TO.N,+5V_Ext*%
X240297500Y-73180000D03*
D16*
%TO.P,J4,2,Pin_2*%
%TO.N,Net-(J4-Pin_2)*%
X240297500Y-78260000D03*
%TO.P,J4,3,Pin_3*%
%TO.N,GND*%
X240297500Y-83340000D03*
%TD*%
D25*
%TO.N,GND*%
X195470000Y-63335000D03*
X195470000Y-61275000D03*
X210750000Y-63515000D03*
X212590000Y-63235000D03*
X212370000Y-61015000D03*
X212870000Y-57845000D03*
X212660000Y-55985000D03*
X212650000Y-53705000D03*
X212670000Y-51555000D03*
X195430000Y-58985000D03*
X204260000Y-63395000D03*
X233120000Y-49145000D03*
X198570000Y-94525000D03*
X222640000Y-67625000D03*
X203990000Y-55245000D03*
X201440000Y-58985000D03*
X200280000Y-92945000D03*
X198120000Y-38615000D03*
X208500000Y-55465000D03*
X222110000Y-74655000D03*
X199880000Y-39895000D03*
X193920000Y-53575000D03*
X200310000Y-94515000D03*
X207490000Y-91915000D03*
X229780000Y-66635000D03*
X223230000Y-51005000D03*
X236710000Y-50225000D03*
X200360000Y-67405000D03*
X206100000Y-102405000D03*
X205550000Y-58955000D03*
X222660000Y-69475000D03*
X206190000Y-99445000D03*
X199700000Y-58995000D03*
X197170000Y-58975000D03*
X198580000Y-96015000D03*
X200320000Y-96005000D03*
X207500000Y-96345000D03*
X200670000Y-52255000D03*
X201060000Y-85165000D03*
X240740000Y-50265000D03*
X199040000Y-56055000D03*
X206010000Y-61585000D03*
X207500000Y-93655000D03*
X224090000Y-64275000D03*
X205010000Y-95075000D03*
X228040000Y-66645000D03*
X224830000Y-52575000D03*
X241620000Y-49155000D03*
X200960000Y-91675000D03*
X202100000Y-67395000D03*
X201050000Y-83425000D03*
X193910000Y-51835000D03*
X220900000Y-67635000D03*
X203810000Y-58965000D03*
X198540000Y-92955000D03*
X206000000Y-63385000D03*
X204270000Y-61595000D03*
X198140000Y-39905000D03*
X204990000Y-97015000D03*
X199860000Y-38605000D03*
X220370000Y-74665000D03*
X207510000Y-98085000D03*
X208370000Y-54045000D03*
X225830000Y-64265000D03*
X223230000Y-52575000D03*
X235460000Y-49135000D03*
X204920000Y-92345000D03*
X220880000Y-69475000D03*
X204450000Y-99455000D03*
X202410000Y-52245000D03*
D26*
%TO.N,+3.3V*%
X208480000Y-51975000D03*
X205470000Y-52035000D03*
%TO.N,/PS_MCU*%
X190920000Y-84775000D03*
X214890000Y-64025000D03*
%TO.N,/Flow_MCU1*%
X189890000Y-63895000D03*
X212150000Y-58535000D03*
%TO.N,/Flow_MCU3*%
X228450000Y-72825000D03*
X217460000Y-70545000D03*
X216840000Y-53665000D03*
X223170000Y-72835000D03*
%TO.N,/Flow_MCU4*%
X218370000Y-70275000D03*
X232190000Y-71315000D03*
X223150000Y-71345000D03*
X217040000Y-55545000D03*
%TO.N,/Flow_MCU2*%
X217010000Y-60305000D03*
X192060000Y-70665000D03*
%TO.N,/V1_OUT2*%
X209540000Y-97025000D03*
X215780000Y-97425000D03*
%TO.N,/V2_OUT2*%
X221030000Y-97035000D03*
X234070735Y-100484265D03*
%TO.N,/V1_OUT1*%
X211450000Y-98715000D03*
X217829971Y-98625029D03*
%TO.N,/V2_OUT1*%
X222440000Y-97695000D03*
X235600000Y-99225000D03*
%TO.N,/IO0*%
X238900000Y-66785000D03*
%TO.N,/EN*%
X219250000Y-51865000D03*
%TO.N,/PS_LED*%
X199890000Y-78825000D03*
X205530000Y-78945000D03*
%TO.N,/Flow_LED1*%
X187460000Y-66065000D03*
X198205000Y-68310000D03*
%TO.N,/Flow_LED3*%
X230500000Y-72605000D03*
X240560000Y-57875000D03*
%TO.N,/Flow_LED4*%
X227840000Y-74595000D03*
X240580000Y-59005000D03*
%TO.N,/Flow_LED2*%
X187580000Y-86745000D03*
X203530000Y-80795000D03*
%TO.N,/SCL*%
X241080000Y-51485000D03*
X206670000Y-48455000D03*
%TO.N,/SDA*%
X203810000Y-48175000D03*
X241070000Y-55275000D03*
%TD*%
D27*
%TO.N,/Flow_MCU3*%
X217460000Y-70545000D02*
X217460000Y-69116000D01*
X217970000Y-68606000D02*
X217970000Y-59385000D01*
X217970000Y-59385000D02*
X216040000Y-57455000D01*
X216040000Y-57455000D02*
X216040000Y-54465000D01*
X217460000Y-69116000D02*
X217970000Y-68606000D01*
X216040000Y-54465000D02*
X216840000Y-53665000D01*
%TO.N,/Flow_MCU4*%
X217040000Y-55545000D02*
X217040000Y-57405000D01*
X217040000Y-57405000D02*
X218950000Y-59315000D01*
X218950000Y-59315000D02*
X218950000Y-69695000D01*
X218950000Y-69695000D02*
X218370000Y-70275000D01*
%TO.N,+3.3V*%
X205470000Y-52035000D02*
X208420000Y-52035000D01*
X208420000Y-52035000D02*
X208480000Y-51975000D01*
%TO.N,/PS_MCU*%
X213000000Y-64025000D02*
X214890000Y-64025000D01*
X201890000Y-73115000D02*
X207370000Y-73115000D01*
X207370000Y-73115000D02*
X211470000Y-69015000D01*
X190920000Y-79885000D02*
X193650000Y-77155000D01*
X190920000Y-84775000D02*
X190920000Y-79885000D01*
X193650000Y-77155000D02*
X197850000Y-77155000D01*
X211470000Y-69015000D02*
X211470000Y-65555000D01*
X211470000Y-65555000D02*
X213000000Y-64025000D01*
X197850000Y-77155000D02*
X201890000Y-73115000D01*
%TO.N,/Flow_MCU1*%
X191280000Y-63145000D02*
X190530000Y-63895000D01*
X192290000Y-60265000D02*
X191280000Y-61275000D01*
X191280000Y-61275000D02*
X191280000Y-63145000D01*
X212150000Y-58535000D02*
X208680000Y-58535000D01*
X190530000Y-63895000D02*
X189890000Y-63895000D01*
X206950000Y-60265000D02*
X192290000Y-60265000D01*
X208680000Y-58535000D02*
X206950000Y-60265000D01*
%TO.N,/Flow_MCU3*%
X223180000Y-72825000D02*
X223170000Y-72835000D01*
X228450000Y-72825000D02*
X223180000Y-72825000D01*
%TO.N,/Flow_MCU4*%
X232160000Y-71345000D02*
X223150000Y-71345000D01*
X232120000Y-71245000D02*
X232190000Y-71315000D01*
X232190000Y-71315000D02*
X232160000Y-71345000D01*
%TO.N,/Flow_MCU2*%
X209820000Y-62475000D02*
X211990000Y-60305000D01*
X209820000Y-67605000D02*
X209820000Y-62475000D01*
X206760000Y-70665000D02*
X209820000Y-67605000D01*
X192060000Y-70665000D02*
X206760000Y-70665000D01*
X211990000Y-60305000D02*
X217010000Y-60305000D01*
%TO.N,/V1_OUT2*%
X209540000Y-97205000D02*
X209540000Y-97025000D01*
X209760000Y-97425000D02*
X209540000Y-97205000D01*
X215780000Y-97425000D02*
X209760000Y-97425000D01*
%TO.N,/V2_OUT2*%
X234070735Y-100484265D02*
X233961470Y-100375000D01*
X233961470Y-100375000D02*
X233350000Y-100375000D01*
X221030000Y-97815000D02*
X223590000Y-100375000D01*
X223590000Y-100375000D02*
X233350000Y-100375000D01*
X221030000Y-97035000D02*
X221030000Y-97815000D01*
%TO.N,/V1_OUT1*%
X217829971Y-98625029D02*
X217740000Y-98715000D01*
X217740000Y-98715000D02*
X211450000Y-98715000D01*
%TO.N,/V2_OUT1*%
X223970000Y-99225000D02*
X222440000Y-97695000D01*
X235600000Y-99225000D02*
X223970000Y-99225000D01*
%TO.N,/IO0*%
X238900000Y-66785000D02*
X239611000Y-67496000D01*
X248980000Y-66915000D02*
X248980000Y-53995000D01*
X247430000Y-52445000D02*
X245340000Y-52445000D01*
X248980000Y-53995000D02*
X247430000Y-52445000D01*
X248399000Y-67496000D02*
X248980000Y-66915000D01*
X239611000Y-67496000D02*
X248399000Y-67496000D01*
%TO.N,/EN*%
X221660000Y-53715000D02*
X219810000Y-51865000D01*
X241750000Y-56515000D02*
X236310000Y-56515000D01*
X219810000Y-51865000D02*
X219250000Y-51865000D01*
X235830000Y-54755000D02*
X234790000Y-53715000D01*
X236310000Y-56515000D02*
X235840000Y-56045000D01*
X235840000Y-56045000D02*
X235840000Y-54755000D01*
X243380000Y-54945000D02*
X243350000Y-54915000D01*
X234790000Y-53715000D02*
X221660000Y-53715000D01*
X243350000Y-54915000D02*
X241750000Y-56515000D01*
X245340000Y-54945000D02*
X243380000Y-54945000D01*
X235840000Y-54755000D02*
X235830000Y-54755000D01*
%TO.N,/PS_LED*%
X205530000Y-78945000D02*
X200010000Y-78945000D01*
X200010000Y-78945000D02*
X199890000Y-78825000D01*
%TO.N,/Flow_LED1*%
X192545000Y-68310000D02*
X191970000Y-67735000D01*
X198205000Y-68310000D02*
X192545000Y-68310000D01*
X191970000Y-67735000D02*
X191970000Y-66565000D01*
X191970000Y-66565000D02*
X191300000Y-65895000D01*
X187630000Y-65895000D02*
X187460000Y-66065000D01*
X191300000Y-65895000D02*
X187630000Y-65895000D01*
%TO.N,/Flow_LED3*%
X234630000Y-59525000D02*
X234630000Y-71515000D01*
X236280000Y-57875000D02*
X234630000Y-59525000D01*
X234630000Y-71515000D02*
X233540000Y-72605000D01*
X240560000Y-57875000D02*
X236280000Y-57875000D01*
X233540000Y-72605000D02*
X230500000Y-72605000D01*
%TO.N,/Flow_LED4*%
X237110000Y-59005000D02*
X240580000Y-59005000D01*
X236190000Y-59925000D02*
X237110000Y-59005000D01*
X234360000Y-74705000D02*
X236190000Y-72875000D01*
X227950000Y-74705000D02*
X234360000Y-74705000D01*
X227840000Y-74595000D02*
X227950000Y-74705000D01*
X236190000Y-72875000D02*
X236190000Y-59925000D01*
%TO.N,/Flow_LED2*%
X190280000Y-86745000D02*
X187580000Y-86745000D01*
X193850000Y-82345000D02*
X193850000Y-83175000D01*
X193850000Y-83175000D02*
X190280000Y-86745000D01*
X195400000Y-80795000D02*
X193850000Y-82345000D01*
X203530000Y-80795000D02*
X195400000Y-80795000D01*
%TO.N,/SCL*%
X241080000Y-51485000D02*
X241070000Y-51475000D01*
X225320000Y-48455000D02*
X206670000Y-48455000D01*
X241070000Y-51475000D02*
X228340000Y-51475000D01*
X228340000Y-51475000D02*
X225320000Y-48455000D01*
%TO.N,/SDA*%
X227000000Y-52825000D02*
X223920000Y-49745000D01*
X223920000Y-49745000D02*
X205380000Y-49745000D01*
X240230000Y-52825000D02*
X227000000Y-52825000D01*
X205380000Y-49745000D02*
X203810000Y-48175000D01*
X241090000Y-55255000D02*
X241090000Y-53685000D01*
X241070000Y-55275000D02*
X241090000Y-55255000D01*
X241090000Y-53685000D02*
X240230000Y-52825000D01*
%TD*%
%TA.AperFunction,Conductor*%
%TO.N,GND*%
G36*
X191985601Y-37655182D02*
G01*
X192031356Y-37707986D01*
X192041300Y-37777144D01*
X192012275Y-37840700D01*
X191953497Y-37878474D01*
X191942754Y-37881114D01*
X191840677Y-37901418D01*
X191840667Y-37901421D01*
X191713195Y-37954221D01*
X191713182Y-37954228D01*
X191598458Y-38030885D01*
X191598454Y-38030888D01*
X191500888Y-38128454D01*
X191500885Y-38128458D01*
X191424228Y-38243182D01*
X191424221Y-38243195D01*
X191371421Y-38370667D01*
X191371418Y-38370677D01*
X191344500Y-38506004D01*
X191344500Y-38506007D01*
X191344500Y-38643993D01*
X191344500Y-38643995D01*
X191344499Y-38643995D01*
X191371418Y-38779322D01*
X191371421Y-38779332D01*
X191424221Y-38906804D01*
X191424228Y-38906817D01*
X191500885Y-39021541D01*
X191500888Y-39021545D01*
X191598454Y-39119111D01*
X191598458Y-39119114D01*
X191713182Y-39195771D01*
X191713195Y-39195778D01*
X191840667Y-39248578D01*
X191840672Y-39248580D01*
X191840676Y-39248580D01*
X191840677Y-39248581D01*
X191976004Y-39275500D01*
X191976007Y-39275500D01*
X192113995Y-39275500D01*
X192205041Y-39257389D01*
X192249328Y-39248580D01*
X192376811Y-39195775D01*
X192491542Y-39119114D01*
X192589114Y-39021542D01*
X192665775Y-38906811D01*
X192718580Y-38779328D01*
X192727389Y-38735041D01*
X192745500Y-38643995D01*
X192745500Y-38506004D01*
X192718581Y-38370677D01*
X192718580Y-38370676D01*
X192718580Y-38370672D01*
X192689139Y-38299595D01*
X192665778Y-38243195D01*
X192665771Y-38243182D01*
X192589114Y-38128458D01*
X192589111Y-38128454D01*
X192491545Y-38030888D01*
X192491541Y-38030885D01*
X192376817Y-37954228D01*
X192376804Y-37954221D01*
X192249332Y-37901421D01*
X192249322Y-37901418D01*
X192147246Y-37881114D01*
X192085335Y-37848729D01*
X192050761Y-37788013D01*
X192054501Y-37718244D01*
X192095368Y-37661572D01*
X192160386Y-37635991D01*
X192171438Y-37635497D01*
X205940959Y-37635497D01*
X206007998Y-37655182D01*
X206053753Y-37707986D01*
X206064959Y-37759497D01*
X206064959Y-47030000D01*
X244075373Y-47030000D01*
X244142412Y-47049685D01*
X244188167Y-47102489D01*
X244198111Y-47171647D01*
X244196990Y-47178191D01*
X244164500Y-47341530D01*
X244164500Y-47548469D01*
X244204868Y-47751412D01*
X244204870Y-47751420D01*
X244284058Y-47942596D01*
X244399024Y-48114657D01*
X244545342Y-48260975D01*
X244545345Y-48260977D01*
X244717402Y-48375941D01*
X244827990Y-48421748D01*
X244882393Y-48465589D01*
X244904458Y-48531883D01*
X244887179Y-48599582D01*
X244836042Y-48647193D01*
X244818856Y-48654240D01*
X244696781Y-48693905D01*
X244507442Y-48790379D01*
X244335540Y-48915272D01*
X244335535Y-48915276D01*
X244185276Y-49065535D01*
X244185272Y-49065540D01*
X244060379Y-49237442D01*
X243963904Y-49426782D01*
X243898242Y-49628870D01*
X243898242Y-49628873D01*
X243887769Y-49695000D01*
X244935854Y-49695000D01*
X244897370Y-49761657D01*
X244865000Y-49882465D01*
X244865000Y-50007535D01*
X244897370Y-50128343D01*
X244935854Y-50195000D01*
X243887769Y-50195000D01*
X243898242Y-50261126D01*
X243898242Y-50261129D01*
X243963904Y-50463217D01*
X244060379Y-50652557D01*
X244185272Y-50824459D01*
X244185276Y-50824464D01*
X244335535Y-50974723D01*
X244335540Y-50974727D01*
X244507442Y-51099620D01*
X244696782Y-51196095D01*
X244818855Y-51235759D01*
X244876530Y-51275196D01*
X244903729Y-51339555D01*
X244891815Y-51408401D01*
X244844570Y-51459877D01*
X244827990Y-51468251D01*
X244717404Y-51514057D01*
X244545342Y-51629024D01*
X244399024Y-51775342D01*
X244284058Y-51947403D01*
X244204870Y-52138579D01*
X244204868Y-52138587D01*
X244164500Y-52341530D01*
X244164500Y-52548469D01*
X244204868Y-52751412D01*
X244204870Y-52751420D01*
X244284058Y-52942596D01*
X244399024Y-53114657D01*
X244545342Y-53260975D01*
X244545345Y-53260977D01*
X244717402Y-53375941D01*
X244908580Y-53455130D01*
X245111530Y-53495499D01*
X245111534Y-53495500D01*
X245111535Y-53495500D01*
X245568466Y-53495500D01*
X245568467Y-53495499D01*
X245771420Y-53455130D01*
X245962598Y-53375941D01*
X246134655Y-53260977D01*
X246280977Y-53114655D01*
X246395941Y-52942598D01*
X246425164Y-52872048D01*
X246469005Y-52817644D01*
X246535299Y-52795579D01*
X246539725Y-52795500D01*
X247233456Y-52795500D01*
X247300495Y-52815185D01*
X247321137Y-52831819D01*
X248593181Y-54103863D01*
X248626666Y-54165186D01*
X248629500Y-54191544D01*
X248629500Y-66718456D01*
X248609815Y-66785495D01*
X248593181Y-66806137D01*
X248290137Y-67109181D01*
X248228814Y-67142666D01*
X248202456Y-67145500D01*
X239807544Y-67145500D01*
X239740505Y-67125815D01*
X239719863Y-67109181D01*
X239436819Y-66826137D01*
X239403334Y-66764814D01*
X239400500Y-66738456D01*
X239400500Y-66719110D01*
X239400500Y-66719108D01*
X239366392Y-66591814D01*
X239300500Y-66477686D01*
X239207314Y-66384500D01*
X239147191Y-66349788D01*
X239093187Y-66318608D01*
X239029539Y-66301554D01*
X238965892Y-66284500D01*
X238834108Y-66284500D01*
X238706812Y-66318608D01*
X238592686Y-66384500D01*
X238592683Y-66384502D01*
X238499502Y-66477683D01*
X238499500Y-66477686D01*
X238433608Y-66591812D01*
X238399500Y-66719108D01*
X238399500Y-66850891D01*
X238433608Y-66978187D01*
X238456522Y-67017874D01*
X238499500Y-67092314D01*
X238592686Y-67185500D01*
X238706814Y-67251392D01*
X238834108Y-67285500D01*
X238853456Y-67285500D01*
X238920495Y-67305185D01*
X238941137Y-67321819D01*
X239395788Y-67776470D01*
X239452998Y-67809500D01*
X239453000Y-67809501D01*
X239475709Y-67822613D01*
X239475711Y-67822613D01*
X239475712Y-67822614D01*
X239564856Y-67846500D01*
X239564858Y-67846500D01*
X248445142Y-67846500D01*
X248445144Y-67846500D01*
X248534288Y-67822614D01*
X248538449Y-67820212D01*
X248557000Y-67809501D01*
X248557002Y-67809500D01*
X248614212Y-67776470D01*
X249260470Y-67130212D01*
X249306614Y-67050288D01*
X249330500Y-66961144D01*
X249330500Y-60054568D01*
X251579500Y-60054568D01*
X251579500Y-60335431D01*
X251610942Y-60614494D01*
X251610945Y-60614512D01*
X251673439Y-60888317D01*
X251673443Y-60888329D01*
X251766200Y-61153411D01*
X251888053Y-61406442D01*
X251905914Y-61434868D01*
X252037477Y-61644248D01*
X252212584Y-61863825D01*
X252411175Y-62062416D01*
X252630752Y-62237523D01*
X252868555Y-62386945D01*
X253121592Y-62508801D01*
X253234957Y-62548469D01*
X253386670Y-62601556D01*
X253386682Y-62601560D01*
X253660491Y-62664055D01*
X253660497Y-62664055D01*
X253660505Y-62664057D01*
X253846547Y-62685018D01*
X253939569Y-62695499D01*
X253939572Y-62695500D01*
X253939575Y-62695500D01*
X254220428Y-62695500D01*
X254220429Y-62695499D01*
X254363055Y-62679429D01*
X254499494Y-62664057D01*
X254499499Y-62664056D01*
X254499509Y-62664055D01*
X254773318Y-62601560D01*
X255038408Y-62508801D01*
X255291445Y-62386945D01*
X255529248Y-62237523D01*
X255748825Y-62062416D01*
X255947416Y-61863825D01*
X256122523Y-61644248D01*
X256271945Y-61406445D01*
X256393801Y-61153408D01*
X256486560Y-60888318D01*
X256549055Y-60614509D01*
X256549303Y-60612314D01*
X256580499Y-60335431D01*
X256580500Y-60335427D01*
X256580500Y-60054572D01*
X256580499Y-60054568D01*
X256579811Y-60048466D01*
X256565132Y-59918181D01*
X256549057Y-59775505D01*
X256549054Y-59775487D01*
X256486560Y-59501682D01*
X256486556Y-59501670D01*
X256459330Y-59423863D01*
X256393801Y-59236592D01*
X256271945Y-58983555D01*
X256122523Y-58745752D01*
X255947416Y-58526175D01*
X255748825Y-58327584D01*
X255744906Y-58324459D01*
X255657222Y-58254533D01*
X255529248Y-58152477D01*
X255291445Y-58003055D01*
X255291442Y-58003053D01*
X255038411Y-57881200D01*
X254773329Y-57788443D01*
X254773317Y-57788439D01*
X254499512Y-57725945D01*
X254499494Y-57725942D01*
X254220431Y-57694500D01*
X254220425Y-57694500D01*
X253939575Y-57694500D01*
X253939568Y-57694500D01*
X253660505Y-57725942D01*
X253660487Y-57725945D01*
X253386682Y-57788439D01*
X253386670Y-57788443D01*
X253121588Y-57881200D01*
X252868557Y-58003053D01*
X252630753Y-58152476D01*
X252411175Y-58327583D01*
X252212583Y-58526175D01*
X252037476Y-58745753D01*
X251888053Y-58983557D01*
X251766200Y-59236588D01*
X251673443Y-59501670D01*
X251673439Y-59501682D01*
X251610945Y-59775487D01*
X251610942Y-59775505D01*
X251579500Y-60054568D01*
X249330500Y-60054568D01*
X249330500Y-53948856D01*
X249306614Y-53859712D01*
X249301173Y-53850288D01*
X249260470Y-53779788D01*
X247645212Y-52164530D01*
X247645211Y-52164529D01*
X247645208Y-52164527D01*
X247565290Y-52118387D01*
X247565289Y-52118386D01*
X247565288Y-52118386D01*
X247476144Y-52094500D01*
X247476143Y-52094500D01*
X246539725Y-52094500D01*
X246472686Y-52074815D01*
X246426931Y-52022011D01*
X246425164Y-52017952D01*
X246395943Y-51947405D01*
X246280975Y-51775342D01*
X246134657Y-51629024D01*
X245962596Y-51514057D01*
X245852009Y-51468251D01*
X245797606Y-51424410D01*
X245775541Y-51358116D01*
X245792820Y-51290416D01*
X245843958Y-51242806D01*
X245861144Y-51235759D01*
X245983217Y-51196095D01*
X246172557Y-51099620D01*
X246344459Y-50974727D01*
X246344464Y-50974723D01*
X246494723Y-50824464D01*
X246494727Y-50824459D01*
X246619620Y-50652557D01*
X246716095Y-50463217D01*
X246781757Y-50261129D01*
X246781757Y-50261126D01*
X246792231Y-50195000D01*
X245744146Y-50195000D01*
X245782630Y-50128343D01*
X245815000Y-50007535D01*
X245815000Y-49882465D01*
X245782630Y-49761657D01*
X245744146Y-49695000D01*
X246792231Y-49695000D01*
X246781757Y-49628873D01*
X246781757Y-49628870D01*
X246716095Y-49426782D01*
X246619620Y-49237442D01*
X246494727Y-49065540D01*
X246494723Y-49065535D01*
X246344464Y-48915276D01*
X246344459Y-48915272D01*
X246172557Y-48790379D01*
X245983216Y-48693904D01*
X245861144Y-48654240D01*
X245803468Y-48614802D01*
X245776270Y-48550444D01*
X245788185Y-48481597D01*
X245835429Y-48430122D01*
X245852006Y-48421749D01*
X245962598Y-48375941D01*
X246134655Y-48260977D01*
X246280977Y-48114655D01*
X246395941Y-47942598D01*
X246475130Y-47751420D01*
X246515500Y-47548465D01*
X246515500Y-47341535D01*
X246501532Y-47271311D01*
X246483010Y-47178191D01*
X246489237Y-47108599D01*
X246532101Y-47053422D01*
X246597990Y-47030178D01*
X246604627Y-47030000D01*
X254064959Y-47030000D01*
X254064959Y-43800334D01*
X254073758Y-43770366D01*
X254080679Y-43739907D01*
X254083522Y-43737115D01*
X254084644Y-43733295D01*
X254108241Y-43712847D01*
X254130537Y-43690959D01*
X254134438Y-43690147D01*
X254137448Y-43687540D01*
X254168363Y-43683094D01*
X254198944Y-43676737D01*
X254202662Y-43678163D01*
X254206606Y-43677596D01*
X254235023Y-43690573D01*
X254264181Y-43701756D01*
X254267978Y-43705623D01*
X254270162Y-43706621D01*
X254288907Y-43726941D01*
X254378805Y-43849366D01*
X254382394Y-43854523D01*
X254783189Y-44462659D01*
X254786512Y-44467990D01*
X255155995Y-45095653D01*
X255159044Y-45101146D01*
X255496273Y-45746735D01*
X255499039Y-45752376D01*
X255803115Y-46414170D01*
X255805593Y-46419943D01*
X256075775Y-47096330D01*
X256077957Y-47102222D01*
X256313526Y-47791404D01*
X256315407Y-47797398D01*
X256515776Y-48497655D01*
X256517350Y-48503737D01*
X256681985Y-49213204D01*
X256683250Y-49219358D01*
X256811745Y-49936285D01*
X256812696Y-49942495D01*
X256904712Y-50664984D01*
X256905348Y-50671234D01*
X256960654Y-51397483D01*
X256960972Y-51403758D01*
X256979463Y-52133421D01*
X256979503Y-52136562D01*
X256979503Y-107333437D01*
X256979463Y-107336578D01*
X256960972Y-108066241D01*
X256960654Y-108072516D01*
X256905348Y-108798765D01*
X256904712Y-108805015D01*
X256812696Y-109527503D01*
X256811745Y-109533713D01*
X256762915Y-109806156D01*
X256731712Y-109868671D01*
X256671664Y-109904393D01*
X256601836Y-109901979D01*
X256544398Y-109862197D01*
X256519970Y-109811874D01*
X256476560Y-109621682D01*
X256383801Y-109356592D01*
X256261945Y-109103555D01*
X256112523Y-108865752D01*
X255937416Y-108646175D01*
X255738825Y-108447584D01*
X255519248Y-108272477D01*
X255281445Y-108123055D01*
X255281442Y-108123053D01*
X255028411Y-108001200D01*
X254763329Y-107908443D01*
X254763317Y-107908439D01*
X254489512Y-107845945D01*
X254489494Y-107845942D01*
X254210431Y-107814500D01*
X254210425Y-107814500D01*
X253929575Y-107814500D01*
X253929568Y-107814500D01*
X253650505Y-107845942D01*
X253650487Y-107845945D01*
X253376682Y-107908439D01*
X253376670Y-107908443D01*
X253111588Y-108001200D01*
X252858557Y-108123053D01*
X252620753Y-108272476D01*
X252401175Y-108447583D01*
X252202583Y-108646175D01*
X252027476Y-108865753D01*
X251878053Y-109103557D01*
X251756200Y-109356588D01*
X251663443Y-109621670D01*
X251663439Y-109621682D01*
X251600945Y-109895487D01*
X251600942Y-109895505D01*
X251569500Y-110174568D01*
X251569500Y-110455426D01*
X251600942Y-110734494D01*
X251600945Y-110734512D01*
X251663439Y-111008317D01*
X251663443Y-111008329D01*
X251756200Y-111273411D01*
X251878053Y-111526442D01*
X251878055Y-111526445D01*
X252027477Y-111764248D01*
X252202584Y-111983825D01*
X252401175Y-112182416D01*
X252620752Y-112357523D01*
X252858555Y-112506945D01*
X252858557Y-112506946D01*
X252942900Y-112547563D01*
X253111592Y-112628801D01*
X253310680Y-112698465D01*
X253376670Y-112721556D01*
X253376682Y-112721560D01*
X253650491Y-112784055D01*
X253650497Y-112784055D01*
X253650505Y-112784057D01*
X253836547Y-112805018D01*
X253929569Y-112815499D01*
X253929572Y-112815500D01*
X253929575Y-112815500D01*
X254210428Y-112815500D01*
X254210429Y-112815499D01*
X254370181Y-112797500D01*
X254489494Y-112784057D01*
X254489499Y-112784056D01*
X254489509Y-112784055D01*
X254763318Y-112721560D01*
X255028408Y-112628801D01*
X255281445Y-112506945D01*
X255519248Y-112357523D01*
X255738825Y-112182416D01*
X255937416Y-111983825D01*
X255967802Y-111945721D01*
X256024990Y-111905580D01*
X256094801Y-111902730D01*
X256155072Y-111938074D01*
X256186666Y-112000393D01*
X256182085Y-112063139D01*
X256077957Y-112367776D01*
X256075775Y-112373668D01*
X255805593Y-113050055D01*
X255803115Y-113055828D01*
X255499039Y-113717623D01*
X255496273Y-113723264D01*
X255159045Y-114368852D01*
X255155996Y-114374345D01*
X254786513Y-115002008D01*
X254783190Y-115007339D01*
X254382395Y-115615475D01*
X254378806Y-115620632D01*
X253947711Y-116207705D01*
X253943865Y-116212673D01*
X253483605Y-116777136D01*
X253479513Y-116781903D01*
X252991232Y-117322356D01*
X252986903Y-117326909D01*
X252471911Y-117841901D01*
X252467358Y-117846230D01*
X251926905Y-118334511D01*
X251922138Y-118338603D01*
X251357662Y-118798873D01*
X251352694Y-118802718D01*
X250765648Y-119233794D01*
X250760491Y-119237383D01*
X250152342Y-119638187D01*
X250147011Y-119641511D01*
X249519348Y-120010994D01*
X249513855Y-120014043D01*
X248868266Y-120351272D01*
X248862625Y-120354038D01*
X248200831Y-120658114D01*
X248195058Y-120660592D01*
X247518671Y-120930774D01*
X247512779Y-120932956D01*
X246823598Y-121168525D01*
X246817604Y-121170406D01*
X246117346Y-121370775D01*
X246111264Y-121372349D01*
X245401797Y-121536985D01*
X245395643Y-121538250D01*
X244678716Y-121666745D01*
X244672506Y-121667696D01*
X243950018Y-121759711D01*
X243943768Y-121760347D01*
X243217519Y-121815654D01*
X243211244Y-121815972D01*
X242481699Y-121834460D01*
X242478558Y-121834500D01*
X175111563Y-121834500D01*
X175108422Y-121834460D01*
X174378758Y-121815969D01*
X174372483Y-121815651D01*
X173646234Y-121760345D01*
X173639984Y-121759709D01*
X172917496Y-121667693D01*
X172911286Y-121666742D01*
X172194358Y-121538247D01*
X172188204Y-121536982D01*
X171478738Y-121372347D01*
X171472656Y-121370773D01*
X170772398Y-121170404D01*
X170766404Y-121168523D01*
X170077223Y-120932954D01*
X170071331Y-120930772D01*
X169394944Y-120660590D01*
X169389171Y-120658112D01*
X168727377Y-120354036D01*
X168721736Y-120351270D01*
X168076147Y-120014042D01*
X168070654Y-120010993D01*
X167442991Y-119641509D01*
X167437660Y-119638186D01*
X166829525Y-119237392D01*
X166824368Y-119233803D01*
X166824356Y-119233794D01*
X166237291Y-118802705D01*
X166232327Y-118798862D01*
X165667864Y-118338601D01*
X165663097Y-118334509D01*
X165122644Y-117846229D01*
X165118091Y-117841900D01*
X164603099Y-117326908D01*
X164598770Y-117322355D01*
X164497571Y-117210343D01*
X164110490Y-116781902D01*
X164106398Y-116777135D01*
X163745093Y-116334031D01*
X163646129Y-116212662D01*
X163642291Y-116207704D01*
X163628228Y-116188553D01*
X163211189Y-115620622D01*
X163207607Y-115615474D01*
X163194751Y-115595968D01*
X162806812Y-115007338D01*
X162803490Y-115002008D01*
X162779303Y-114960921D01*
X162565262Y-114597317D01*
X162434006Y-114374345D01*
X162430957Y-114368852D01*
X162093729Y-113723263D01*
X162090963Y-113717622D01*
X161995142Y-113509076D01*
X161786881Y-113055815D01*
X161784409Y-113050055D01*
X161751236Y-112967009D01*
X161514221Y-112373654D01*
X161512045Y-112367776D01*
X161508540Y-112357523D01*
X161276473Y-111678585D01*
X161274595Y-111672601D01*
X161264510Y-111637354D01*
X161074222Y-110972327D01*
X161072652Y-110966261D01*
X161048299Y-110861315D01*
X160908011Y-110256768D01*
X160906757Y-110250668D01*
X160893118Y-110174568D01*
X161419500Y-110174568D01*
X161419500Y-110455426D01*
X161450942Y-110734494D01*
X161450945Y-110734512D01*
X161513439Y-111008317D01*
X161513443Y-111008329D01*
X161606200Y-111273411D01*
X161728053Y-111526442D01*
X161728055Y-111526445D01*
X161877477Y-111764248D01*
X162052584Y-111983825D01*
X162251175Y-112182416D01*
X162470752Y-112357523D01*
X162708555Y-112506945D01*
X162708557Y-112506946D01*
X162792900Y-112547563D01*
X162961592Y-112628801D01*
X163160680Y-112698465D01*
X163226670Y-112721556D01*
X163226682Y-112721560D01*
X163500491Y-112784055D01*
X163500497Y-112784055D01*
X163500505Y-112784057D01*
X163686547Y-112805018D01*
X163779569Y-112815499D01*
X163779572Y-112815500D01*
X163779575Y-112815500D01*
X164060428Y-112815500D01*
X164060429Y-112815499D01*
X164220181Y-112797500D01*
X164339494Y-112784057D01*
X164339499Y-112784056D01*
X164339509Y-112784055D01*
X164613318Y-112721560D01*
X164878408Y-112628801D01*
X165131445Y-112506945D01*
X165369248Y-112357523D01*
X165588825Y-112182416D01*
X165787416Y-111983825D01*
X165962523Y-111764248D01*
X166111945Y-111526445D01*
X166233801Y-111273408D01*
X166326560Y-111008318D01*
X166389055Y-110734509D01*
X166414422Y-110509374D01*
X166415758Y-110497513D01*
X173125000Y-110497513D01*
X173125000Y-111847500D01*
X174010879Y-111847500D01*
X173991901Y-111893318D01*
X173965000Y-112028556D01*
X173965000Y-112166444D01*
X173991901Y-112301682D01*
X174010879Y-112347500D01*
X173125001Y-112347500D01*
X173125001Y-113697486D01*
X173135494Y-113800196D01*
X173135494Y-113800198D01*
X173190640Y-113966619D01*
X173190645Y-113966630D01*
X173282680Y-114115840D01*
X173282683Y-114115844D01*
X173406655Y-114239816D01*
X173406659Y-114239819D01*
X173555869Y-114331854D01*
X173555880Y-114331859D01*
X173722302Y-114387005D01*
X173825019Y-114397499D01*
X174414999Y-114397499D01*
X174415000Y-114397498D01*
X174415000Y-112751620D01*
X174460818Y-112770599D01*
X174596056Y-112797500D01*
X174733944Y-112797500D01*
X174869182Y-112770599D01*
X174915000Y-112751620D01*
X174915000Y-114397499D01*
X175504972Y-114397499D01*
X175504986Y-114397498D01*
X175607696Y-114387005D01*
X175607698Y-114387005D01*
X175774119Y-114331859D01*
X175774130Y-114331854D01*
X175923340Y-114239819D01*
X175923344Y-114239816D01*
X176047316Y-114115844D01*
X176047319Y-114115840D01*
X176139354Y-113966630D01*
X176139359Y-113966619D01*
X176194505Y-113800197D01*
X176204999Y-113697486D01*
X176205000Y-113697473D01*
X176205000Y-112347500D01*
X175319121Y-112347500D01*
X175338099Y-112301682D01*
X175365000Y-112166444D01*
X175365000Y-112028556D01*
X175338099Y-111893318D01*
X175319121Y-111847500D01*
X176204999Y-111847500D01*
X176204999Y-111239865D01*
X178504500Y-111239865D01*
X178504500Y-112955134D01*
X178535045Y-113147985D01*
X178595381Y-113333684D01*
X178595382Y-113333687D01*
X178637081Y-113415524D01*
X178683767Y-113507150D01*
X178684031Y-113507667D01*
X178798793Y-113665625D01*
X178798797Y-113665630D01*
X178936869Y-113803702D01*
X178936874Y-113803706D01*
X179043875Y-113881446D01*
X179094836Y-113918471D01*
X179195280Y-113969650D01*
X179268812Y-114007117D01*
X179268815Y-114007118D01*
X179306924Y-114019500D01*
X179454516Y-114067455D01*
X179537549Y-114080606D01*
X179647366Y-114098000D01*
X179647371Y-114098000D01*
X179842634Y-114098000D01*
X179936125Y-114083191D01*
X180035484Y-114067455D01*
X180221187Y-114007117D01*
X180395164Y-113918471D01*
X180553132Y-113803701D01*
X180691201Y-113665632D01*
X180805971Y-113507664D01*
X180894617Y-113333687D01*
X180954955Y-113147984D01*
X180973603Y-113030244D01*
X180985500Y-112955134D01*
X180985500Y-111239865D01*
X180967730Y-111127674D01*
X180954955Y-111047016D01*
X180894617Y-110861313D01*
X180894617Y-110861312D01*
X180830008Y-110734512D01*
X180805971Y-110687336D01*
X180791437Y-110667332D01*
X180718724Y-110567249D01*
X180691206Y-110529374D01*
X180691202Y-110529369D01*
X180659346Y-110497513D01*
X186655000Y-110497513D01*
X186655000Y-111847500D01*
X187540879Y-111847500D01*
X187521901Y-111893318D01*
X187495000Y-112028556D01*
X187495000Y-112166444D01*
X187521901Y-112301682D01*
X187540879Y-112347500D01*
X186655001Y-112347500D01*
X186655001Y-113697486D01*
X186665494Y-113800196D01*
X186665494Y-113800198D01*
X186720640Y-113966619D01*
X186720645Y-113966630D01*
X186812680Y-114115840D01*
X186812683Y-114115844D01*
X186936655Y-114239816D01*
X186936659Y-114239819D01*
X187085869Y-114331854D01*
X187085880Y-114331859D01*
X187252302Y-114387005D01*
X187355019Y-114397499D01*
X187944999Y-114397499D01*
X187945000Y-114397498D01*
X187945000Y-112751620D01*
X187990818Y-112770599D01*
X188126056Y-112797500D01*
X188263944Y-112797500D01*
X188399182Y-112770599D01*
X188445000Y-112751620D01*
X188445000Y-114397499D01*
X189034972Y-114397499D01*
X189034986Y-114397498D01*
X189137696Y-114387005D01*
X189137698Y-114387005D01*
X189304119Y-114331859D01*
X189304130Y-114331854D01*
X189453340Y-114239819D01*
X189453344Y-114239816D01*
X189577316Y-114115844D01*
X189577319Y-114115840D01*
X189669354Y-113966630D01*
X189669359Y-113966619D01*
X189724505Y-113800197D01*
X189734999Y-113697486D01*
X189735000Y-113697473D01*
X189735000Y-112347500D01*
X188849121Y-112347500D01*
X188868099Y-112301682D01*
X188895000Y-112166444D01*
X188895000Y-112028556D01*
X188868099Y-111893318D01*
X188849121Y-111847500D01*
X189734999Y-111847500D01*
X189734999Y-111239865D01*
X192034500Y-111239865D01*
X192034500Y-112955134D01*
X192065045Y-113147985D01*
X192125381Y-113333684D01*
X192125382Y-113333687D01*
X192167081Y-113415524D01*
X192213767Y-113507150D01*
X192214031Y-113507667D01*
X192328793Y-113665625D01*
X192328797Y-113665630D01*
X192466869Y-113803702D01*
X192466874Y-113803706D01*
X192573875Y-113881446D01*
X192624836Y-113918471D01*
X192725280Y-113969650D01*
X192798812Y-114007117D01*
X192798815Y-114007118D01*
X192836924Y-114019500D01*
X192984516Y-114067455D01*
X193067549Y-114080606D01*
X193177366Y-114098000D01*
X193177371Y-114098000D01*
X193372634Y-114098000D01*
X193466125Y-114083191D01*
X193565484Y-114067455D01*
X193751187Y-114007117D01*
X193925164Y-113918471D01*
X194083132Y-113803701D01*
X194221201Y-113665632D01*
X194335971Y-113507664D01*
X194424617Y-113333687D01*
X194484955Y-113147984D01*
X194503603Y-113030244D01*
X194515500Y-112955134D01*
X194515500Y-112290730D01*
X200048563Y-112290730D01*
X200048563Y-113499269D01*
X200051416Y-113529699D01*
X200051416Y-113529701D01*
X200095326Y-113655185D01*
X200096270Y-113657882D01*
X200176913Y-113767150D01*
X200286181Y-113847793D01*
X200322161Y-113860383D01*
X200414362Y-113892646D01*
X200444793Y-113895500D01*
X200444797Y-113895500D01*
X200595500Y-113895500D01*
X200662539Y-113915185D01*
X200708294Y-113967989D01*
X200719500Y-114019500D01*
X200719500Y-115099269D01*
X200722353Y-115129699D01*
X200722353Y-115129701D01*
X200759375Y-115235500D01*
X200767207Y-115257882D01*
X200847850Y-115367150D01*
X200957118Y-115447793D01*
X200998460Y-115462259D01*
X201085299Y-115492646D01*
X201115730Y-115495500D01*
X201115734Y-115495500D01*
X202324270Y-115495500D01*
X202354699Y-115492646D01*
X202354701Y-115492646D01*
X202441540Y-115462259D01*
X202482882Y-115447793D01*
X202592150Y-115367150D01*
X202672793Y-115257882D01*
X202697318Y-115187793D01*
X202717646Y-115129701D01*
X202717646Y-115129699D01*
X202720500Y-115099269D01*
X202720500Y-114869808D01*
X202740185Y-114802769D01*
X202792989Y-114757014D01*
X202862147Y-114747070D01*
X202925703Y-114776095D01*
X202962431Y-114831489D01*
X203015244Y-114994031D01*
X203108141Y-115176350D01*
X203108147Y-115176359D01*
X203140523Y-115220921D01*
X203140524Y-115220922D01*
X203820000Y-114541446D01*
X203820000Y-114547661D01*
X203847259Y-114649394D01*
X203899920Y-114740606D01*
X203974394Y-114815080D01*
X204065606Y-114867741D01*
X204167339Y-114895000D01*
X204173553Y-114895000D01*
X203494076Y-115574474D01*
X203538646Y-115606857D01*
X203538648Y-115606858D01*
X203567824Y-115621723D01*
X203618621Y-115669697D01*
X203635417Y-115737517D01*
X203629464Y-115770522D01*
X203622946Y-115790582D01*
X203590937Y-115992682D01*
X203590937Y-116197317D01*
X203622946Y-116399417D01*
X203686181Y-116594031D01*
X203779078Y-116776350D01*
X203779084Y-116776359D01*
X203811460Y-116820921D01*
X203811461Y-116820922D01*
X204490937Y-116141446D01*
X204490937Y-116147661D01*
X204518196Y-116249394D01*
X204570857Y-116340606D01*
X204645331Y-116415080D01*
X204736543Y-116467741D01*
X204838276Y-116495000D01*
X204844490Y-116495000D01*
X204165013Y-117174474D01*
X204209587Y-117206859D01*
X204391905Y-117299755D01*
X204586519Y-117362990D01*
X204788620Y-117395000D01*
X204993254Y-117395000D01*
X205195354Y-117362990D01*
X205389968Y-117299755D01*
X205572286Y-117206859D01*
X205616858Y-117174474D01*
X204937384Y-116495000D01*
X204943598Y-116495000D01*
X205045331Y-116467741D01*
X205136543Y-116415080D01*
X205211017Y-116340606D01*
X205263678Y-116249394D01*
X205290937Y-116147661D01*
X205290937Y-116141448D01*
X205970411Y-116820922D01*
X205970411Y-116820921D01*
X205989734Y-116794328D01*
X206002796Y-116776349D01*
X206095692Y-116594031D01*
X206158927Y-116399417D01*
X206190937Y-116197317D01*
X206190937Y-115992682D01*
X206158927Y-115790582D01*
X206095692Y-115595968D01*
X206002796Y-115413650D01*
X205970411Y-115369077D01*
X205970411Y-115369076D01*
X205290937Y-116048551D01*
X205290937Y-116042339D01*
X205263678Y-115940606D01*
X205211017Y-115849394D01*
X205136543Y-115774920D01*
X205045331Y-115722259D01*
X204943598Y-115695000D01*
X204937383Y-115695000D01*
X205616859Y-115015524D01*
X205616858Y-115015523D01*
X205572296Y-114983147D01*
X205572277Y-114983135D01*
X205543109Y-114968273D01*
X205492313Y-114920299D01*
X205475518Y-114852478D01*
X205481474Y-114819468D01*
X205487990Y-114799413D01*
X205520000Y-114597317D01*
X205520000Y-114392682D01*
X205487990Y-114190582D01*
X205424755Y-113995968D01*
X205331859Y-113813650D01*
X205299474Y-113769077D01*
X205299474Y-113769076D01*
X204620000Y-114448553D01*
X204620000Y-114442339D01*
X204592741Y-114340606D01*
X204540080Y-114249394D01*
X204465606Y-114174920D01*
X204374394Y-114122259D01*
X204272661Y-114095000D01*
X204266446Y-114095000D01*
X204945922Y-113415524D01*
X204945921Y-113415523D01*
X204901359Y-113383147D01*
X204901350Y-113383141D01*
X204719031Y-113290244D01*
X204524417Y-113227009D01*
X204322317Y-113195000D01*
X204117683Y-113195000D01*
X203915582Y-113227009D01*
X203720968Y-113290244D01*
X203538644Y-113383143D01*
X203494077Y-113415523D01*
X203494077Y-113415524D01*
X204173554Y-114095000D01*
X204167339Y-114095000D01*
X204065606Y-114122259D01*
X203974394Y-114174920D01*
X203899920Y-114249394D01*
X203847259Y-114340606D01*
X203820000Y-114442339D01*
X203820000Y-114448553D01*
X203140524Y-113769077D01*
X203140523Y-113769077D01*
X203108143Y-113813644D01*
X203015244Y-113995968D01*
X202962431Y-114158510D01*
X202922993Y-114216185D01*
X202858634Y-114243383D01*
X202789788Y-114231468D01*
X202738312Y-114184224D01*
X202720500Y-114120191D01*
X202720500Y-113890730D01*
X202717646Y-113860300D01*
X202717646Y-113860298D01*
X202672823Y-113732205D01*
X202672793Y-113732118D01*
X202592150Y-113622850D01*
X202482882Y-113542207D01*
X202482880Y-113542206D01*
X202354700Y-113497353D01*
X202324270Y-113494500D01*
X202324266Y-113494500D01*
X202173563Y-113494500D01*
X202106524Y-113474815D01*
X202060769Y-113422011D01*
X202049563Y-113370500D01*
X202049563Y-112290730D01*
X202046709Y-112260300D01*
X202046709Y-112260298D01*
X202001856Y-112132119D01*
X202001855Y-112132117D01*
X201950947Y-112063139D01*
X201921213Y-112022850D01*
X201811945Y-111942207D01*
X201811943Y-111942206D01*
X201683763Y-111897353D01*
X201653333Y-111894500D01*
X201653329Y-111894500D01*
X200444797Y-111894500D01*
X200444793Y-111894500D01*
X200414363Y-111897353D01*
X200414361Y-111897353D01*
X200286182Y-111942206D01*
X200286180Y-111942207D01*
X200176913Y-112022850D01*
X200096270Y-112132117D01*
X200096269Y-112132119D01*
X200051416Y-112260298D01*
X200051416Y-112260300D01*
X200048563Y-112290730D01*
X194515500Y-112290730D01*
X194515500Y-111239865D01*
X194497730Y-111127674D01*
X194484955Y-111047016D01*
X194424617Y-110861313D01*
X194424617Y-110861312D01*
X194360008Y-110734512D01*
X194335971Y-110687336D01*
X194321437Y-110667332D01*
X194231265Y-110543219D01*
X194231264Y-110543218D01*
X194221204Y-110529371D01*
X194165062Y-110473229D01*
X211634500Y-110473229D01*
X211634500Y-113681760D01*
X211634501Y-113681766D01*
X211637354Y-113712200D01*
X211637354Y-113712202D01*
X211637355Y-113712203D01*
X211637355Y-113712205D01*
X211682206Y-113840382D01*
X211762849Y-113949650D01*
X211792412Y-113971468D01*
X211872117Y-114030293D01*
X211914844Y-114045244D01*
X212000298Y-114075146D01*
X212007323Y-114075804D01*
X212030733Y-114078000D01*
X213719266Y-114077999D01*
X213749700Y-114075146D01*
X213877883Y-114030293D01*
X213987150Y-113949650D01*
X214067793Y-113840383D01*
X214096095Y-113759500D01*
X214112646Y-113712202D01*
X214112646Y-113712200D01*
X214114027Y-113697473D01*
X214115500Y-113681767D01*
X214115499Y-111219865D01*
X216714500Y-111219865D01*
X216714500Y-112935134D01*
X216745045Y-113127985D01*
X216805381Y-113313684D01*
X216805382Y-113313687D01*
X216857271Y-113415523D01*
X216886108Y-113472119D01*
X216894031Y-113487667D01*
X217008793Y-113645625D01*
X217008797Y-113645630D01*
X217146869Y-113783702D01*
X217146874Y-113783706D01*
X217224883Y-113840382D01*
X217304836Y-113898471D01*
X217405280Y-113949650D01*
X217478812Y-113987117D01*
X217478815Y-113987118D01*
X217540367Y-114007117D01*
X217664516Y-114047455D01*
X217753835Y-114061601D01*
X217857366Y-114078000D01*
X217857371Y-114078000D01*
X218052634Y-114078000D01*
X218146125Y-114063191D01*
X218245484Y-114047455D01*
X218431187Y-113987117D01*
X218605164Y-113898471D01*
X218763132Y-113783701D01*
X218901201Y-113645632D01*
X219015971Y-113487664D01*
X219104617Y-113313687D01*
X219164955Y-113127984D01*
X219192332Y-112955134D01*
X219195500Y-112935134D01*
X219195500Y-111219865D01*
X219177730Y-111107674D01*
X219164955Y-111027016D01*
X219111116Y-110861315D01*
X219104618Y-110841315D01*
X219104617Y-110841312D01*
X219050197Y-110734509D01*
X219015971Y-110667336D01*
X219010113Y-110659273D01*
X218940327Y-110563219D01*
X218901206Y-110509374D01*
X218901202Y-110509369D01*
X218885062Y-110493229D01*
X225344500Y-110493229D01*
X225344500Y-113701760D01*
X225344501Y-113701766D01*
X225347354Y-113732200D01*
X225347354Y-113732202D01*
X225347355Y-113732203D01*
X225347355Y-113732205D01*
X225392206Y-113860382D01*
X225472849Y-113969650D01*
X225496518Y-113987118D01*
X225582117Y-114050293D01*
X225624844Y-114065244D01*
X225710298Y-114095146D01*
X225717323Y-114095804D01*
X225740733Y-114098000D01*
X227429266Y-114097999D01*
X227459700Y-114095146D01*
X227587883Y-114050293D01*
X227697150Y-113969650D01*
X227777793Y-113860383D01*
X227804625Y-113783701D01*
X227822646Y-113732202D01*
X227822646Y-113732200D01*
X227823484Y-113723263D01*
X227825500Y-113701767D01*
X227825499Y-111239865D01*
X230424500Y-111239865D01*
X230424500Y-112955134D01*
X230455045Y-113147985D01*
X230515381Y-113333684D01*
X230515382Y-113333687D01*
X230557081Y-113415524D01*
X230603767Y-113507150D01*
X230604031Y-113507667D01*
X230718793Y-113665625D01*
X230718797Y-113665630D01*
X230856869Y-113803702D01*
X230856874Y-113803706D01*
X230963875Y-113881446D01*
X231014836Y-113918471D01*
X231115280Y-113969650D01*
X231188812Y-114007117D01*
X231188815Y-114007118D01*
X231226924Y-114019500D01*
X231374516Y-114067455D01*
X231457549Y-114080606D01*
X231567366Y-114098000D01*
X231567371Y-114098000D01*
X231762634Y-114098000D01*
X231856125Y-114083191D01*
X231955484Y-114067455D01*
X232141187Y-114007117D01*
X232315164Y-113918471D01*
X232473132Y-113803701D01*
X232611201Y-113665632D01*
X232725971Y-113507664D01*
X232814617Y-113333687D01*
X232874955Y-113147984D01*
X232893603Y-113030244D01*
X232905500Y-112955134D01*
X232905500Y-112030730D01*
X239078563Y-112030730D01*
X239078563Y-113239269D01*
X239081416Y-113269699D01*
X239081416Y-113269701D01*
X239121114Y-113383147D01*
X239126270Y-113397882D01*
X239206913Y-113507150D01*
X239316181Y-113587793D01*
X239351924Y-113600300D01*
X239444362Y-113632646D01*
X239474793Y-113635500D01*
X239474797Y-113635500D01*
X239625500Y-113635500D01*
X239692539Y-113655185D01*
X239738294Y-113707989D01*
X239749500Y-113759500D01*
X239749500Y-114839269D01*
X239752353Y-114869699D01*
X239752353Y-114869701D01*
X239792051Y-114983147D01*
X239797207Y-114997882D01*
X239877850Y-115107150D01*
X239987118Y-115187793D01*
X240029845Y-115202744D01*
X240115299Y-115232646D01*
X240145730Y-115235500D01*
X240145734Y-115235500D01*
X241354270Y-115235500D01*
X241384699Y-115232646D01*
X241384701Y-115232646D01*
X241448790Y-115210219D01*
X241512882Y-115187793D01*
X241622150Y-115107150D01*
X241702793Y-114997882D01*
X241725219Y-114933790D01*
X241747646Y-114869701D01*
X241747646Y-114869699D01*
X241750500Y-114839269D01*
X241750500Y-114609808D01*
X241770185Y-114542769D01*
X241822989Y-114497014D01*
X241892147Y-114487070D01*
X241955703Y-114516095D01*
X241992431Y-114571489D01*
X242045244Y-114734031D01*
X242138141Y-114916350D01*
X242138147Y-114916359D01*
X242170523Y-114960921D01*
X242170524Y-114960922D01*
X242850000Y-114281446D01*
X242850000Y-114287661D01*
X242877259Y-114389394D01*
X242929920Y-114480606D01*
X243004394Y-114555080D01*
X243095606Y-114607741D01*
X243197339Y-114635000D01*
X243203553Y-114635000D01*
X242524076Y-115314474D01*
X242568646Y-115346857D01*
X242568648Y-115346858D01*
X242597824Y-115361723D01*
X242648621Y-115409697D01*
X242665417Y-115477517D01*
X242659464Y-115510522D01*
X242652946Y-115530582D01*
X242620937Y-115732682D01*
X242620937Y-115937317D01*
X242652946Y-116139417D01*
X242716181Y-116334031D01*
X242809078Y-116516350D01*
X242809084Y-116516359D01*
X242841460Y-116560921D01*
X242841461Y-116560922D01*
X243520937Y-115881446D01*
X243520937Y-115887661D01*
X243548196Y-115989394D01*
X243600857Y-116080606D01*
X243675331Y-116155080D01*
X243766543Y-116207741D01*
X243868276Y-116235000D01*
X243874490Y-116235000D01*
X243195013Y-116914474D01*
X243239587Y-116946859D01*
X243421905Y-117039755D01*
X243616519Y-117102990D01*
X243818620Y-117135000D01*
X244023254Y-117135000D01*
X244225354Y-117102990D01*
X244419968Y-117039755D01*
X244602286Y-116946859D01*
X244646858Y-116914474D01*
X243967384Y-116235000D01*
X243973598Y-116235000D01*
X244075331Y-116207741D01*
X244166543Y-116155080D01*
X244241017Y-116080606D01*
X244293678Y-115989394D01*
X244320937Y-115887661D01*
X244320937Y-115881447D01*
X245000411Y-116560921D01*
X245032796Y-116516349D01*
X245125692Y-116334031D01*
X245188927Y-116139417D01*
X245220937Y-115937317D01*
X245220937Y-115732682D01*
X245188927Y-115530582D01*
X245125692Y-115335968D01*
X245032796Y-115153650D01*
X245000411Y-115109077D01*
X245000411Y-115109076D01*
X244320937Y-115788551D01*
X244320937Y-115782339D01*
X244293678Y-115680606D01*
X244241017Y-115589394D01*
X244166543Y-115514920D01*
X244075331Y-115462259D01*
X243973598Y-115435000D01*
X243967383Y-115435000D01*
X244646859Y-114755524D01*
X244646858Y-114755523D01*
X244602296Y-114723147D01*
X244602277Y-114723135D01*
X244573109Y-114708273D01*
X244522313Y-114660299D01*
X244505518Y-114592478D01*
X244511474Y-114559468D01*
X244517990Y-114539413D01*
X244550000Y-114337317D01*
X244550000Y-114132682D01*
X244517990Y-113930582D01*
X244454755Y-113735968D01*
X244361859Y-113553650D01*
X244329474Y-113509077D01*
X244329474Y-113509076D01*
X243650000Y-114188553D01*
X243650000Y-114182339D01*
X243622741Y-114080606D01*
X243570080Y-113989394D01*
X243495606Y-113914920D01*
X243404394Y-113862259D01*
X243302661Y-113835000D01*
X243296446Y-113835000D01*
X243975922Y-113155524D01*
X243975921Y-113155523D01*
X243931359Y-113123147D01*
X243931350Y-113123141D01*
X243749031Y-113030244D01*
X243554417Y-112967009D01*
X243352317Y-112935000D01*
X243147683Y-112935000D01*
X242945582Y-112967009D01*
X242750968Y-113030244D01*
X242568644Y-113123143D01*
X242524077Y-113155523D01*
X242524077Y-113155524D01*
X243203554Y-113835000D01*
X243197339Y-113835000D01*
X243095606Y-113862259D01*
X243004394Y-113914920D01*
X242929920Y-113989394D01*
X242877259Y-114080606D01*
X242850000Y-114182339D01*
X242850000Y-114188553D01*
X242170524Y-113509077D01*
X242170523Y-113509077D01*
X242138143Y-113553644D01*
X242045244Y-113735968D01*
X241992431Y-113898510D01*
X241952993Y-113956185D01*
X241888634Y-113983383D01*
X241819788Y-113971468D01*
X241768312Y-113924224D01*
X241750500Y-113860191D01*
X241750500Y-113630730D01*
X241747646Y-113600300D01*
X241747646Y-113600298D01*
X241714006Y-113504163D01*
X241702793Y-113472118D01*
X241622150Y-113362850D01*
X241512882Y-113282207D01*
X241512880Y-113282206D01*
X241384700Y-113237353D01*
X241354270Y-113234500D01*
X241354266Y-113234500D01*
X241203563Y-113234500D01*
X241136524Y-113214815D01*
X241090769Y-113162011D01*
X241079563Y-113110500D01*
X241079563Y-112030730D01*
X241076709Y-112000300D01*
X241076709Y-112000298D01*
X241031856Y-111872119D01*
X241031855Y-111872117D01*
X241013687Y-111847500D01*
X240951213Y-111762850D01*
X240841945Y-111682207D01*
X240841943Y-111682206D01*
X240713763Y-111637353D01*
X240683333Y-111634500D01*
X240683329Y-111634500D01*
X239474797Y-111634500D01*
X239474793Y-111634500D01*
X239444363Y-111637353D01*
X239444361Y-111637353D01*
X239316182Y-111682206D01*
X239316180Y-111682207D01*
X239206913Y-111762850D01*
X239126270Y-111872117D01*
X239126269Y-111872119D01*
X239081416Y-112000298D01*
X239081416Y-112000300D01*
X239078563Y-112030730D01*
X232905500Y-112030730D01*
X232905500Y-111239865D01*
X232887730Y-111127674D01*
X232874955Y-111047016D01*
X232814617Y-110861313D01*
X232814617Y-110861312D01*
X232750008Y-110734512D01*
X232725971Y-110687336D01*
X232711307Y-110667153D01*
X232611206Y-110529374D01*
X232611202Y-110529369D01*
X232473130Y-110391297D01*
X232473125Y-110391293D01*
X232315167Y-110276531D01*
X232315166Y-110276530D01*
X232315164Y-110276529D01*
X232220667Y-110228380D01*
X232141187Y-110187882D01*
X232141184Y-110187881D01*
X231955485Y-110127545D01*
X231762634Y-110097000D01*
X231762629Y-110097000D01*
X231567371Y-110097000D01*
X231567366Y-110097000D01*
X231374514Y-110127545D01*
X231188815Y-110187881D01*
X231188812Y-110187882D01*
X231014832Y-110276531D01*
X230856874Y-110391293D01*
X230856869Y-110391297D01*
X230718797Y-110529369D01*
X230718793Y-110529374D01*
X230604031Y-110687332D01*
X230515382Y-110861312D01*
X230515381Y-110861315D01*
X230455045Y-111047014D01*
X230424500Y-111239865D01*
X227825499Y-111239865D01*
X227825499Y-110493234D01*
X227822646Y-110462800D01*
X227777793Y-110334617D01*
X227763032Y-110314617D01*
X227697150Y-110225349D01*
X227619284Y-110167882D01*
X227587883Y-110144707D01*
X227587881Y-110144706D01*
X227459701Y-110099853D01*
X227429270Y-110097000D01*
X225740739Y-110097000D01*
X225726751Y-110098311D01*
X225710300Y-110099854D01*
X225710297Y-110099854D01*
X225710296Y-110099855D01*
X225710294Y-110099855D01*
X225582117Y-110144706D01*
X225472849Y-110225349D01*
X225392206Y-110334618D01*
X225347353Y-110462797D01*
X225347353Y-110462799D01*
X225344500Y-110493229D01*
X218885062Y-110493229D01*
X218763130Y-110371297D01*
X218763125Y-110371293D01*
X218605167Y-110256531D01*
X218605166Y-110256530D01*
X218605164Y-110256529D01*
X218543970Y-110225349D01*
X218431187Y-110167882D01*
X218431184Y-110167881D01*
X218245485Y-110107545D01*
X218052634Y-110077000D01*
X218052629Y-110077000D01*
X217857371Y-110077000D01*
X217857366Y-110077000D01*
X217664514Y-110107545D01*
X217478815Y-110167881D01*
X217478812Y-110167882D01*
X217304832Y-110256531D01*
X217146874Y-110371293D01*
X217146869Y-110371297D01*
X217008797Y-110509369D01*
X217008793Y-110509374D01*
X216894031Y-110667332D01*
X216805382Y-110841312D01*
X216805381Y-110841315D01*
X216745045Y-111027014D01*
X216714500Y-111219865D01*
X214115499Y-111219865D01*
X214115499Y-110473234D01*
X214112646Y-110442800D01*
X214095850Y-110394801D01*
X214067793Y-110314617D01*
X213987150Y-110205349D01*
X213904982Y-110144707D01*
X213877883Y-110124707D01*
X213877881Y-110124706D01*
X213749701Y-110079853D01*
X213719270Y-110077000D01*
X212030739Y-110077000D01*
X212016751Y-110078311D01*
X212000300Y-110079854D01*
X212000297Y-110079854D01*
X212000296Y-110079855D01*
X212000294Y-110079855D01*
X211872117Y-110124706D01*
X211762849Y-110205349D01*
X211682206Y-110314618D01*
X211637353Y-110442797D01*
X211637353Y-110442799D01*
X211634500Y-110473229D01*
X194165062Y-110473229D01*
X194083130Y-110391297D01*
X194083125Y-110391293D01*
X193925167Y-110276531D01*
X193925166Y-110276530D01*
X193925164Y-110276529D01*
X193830667Y-110228380D01*
X193751187Y-110187882D01*
X193751184Y-110187881D01*
X193565485Y-110127545D01*
X193372634Y-110097000D01*
X193372629Y-110097000D01*
X193177371Y-110097000D01*
X193177366Y-110097000D01*
X192984514Y-110127545D01*
X192798815Y-110187881D01*
X192798812Y-110187882D01*
X192624832Y-110276531D01*
X192466874Y-110391293D01*
X192466869Y-110391297D01*
X192328797Y-110529369D01*
X192328793Y-110529374D01*
X192214031Y-110687332D01*
X192125382Y-110861312D01*
X192125381Y-110861315D01*
X192065045Y-111047014D01*
X192034500Y-111239865D01*
X189734999Y-111239865D01*
X189734999Y-110497528D01*
X189734998Y-110497513D01*
X189724505Y-110394803D01*
X189724505Y-110394801D01*
X189669359Y-110228380D01*
X189669354Y-110228369D01*
X189577319Y-110079159D01*
X189577316Y-110079155D01*
X189453344Y-109955183D01*
X189453340Y-109955180D01*
X189304130Y-109863145D01*
X189304119Y-109863140D01*
X189137697Y-109807994D01*
X189034986Y-109797500D01*
X188445000Y-109797500D01*
X188445000Y-111443379D01*
X188399182Y-111424401D01*
X188263944Y-111397500D01*
X188126056Y-111397500D01*
X187990818Y-111424401D01*
X187945000Y-111443379D01*
X187945000Y-109797500D01*
X187355028Y-109797500D01*
X187355012Y-109797501D01*
X187252303Y-109807994D01*
X187252301Y-109807994D01*
X187085880Y-109863140D01*
X187085869Y-109863145D01*
X186936659Y-109955180D01*
X186936655Y-109955183D01*
X186812683Y-110079155D01*
X186812680Y-110079159D01*
X186720645Y-110228369D01*
X186720640Y-110228380D01*
X186665494Y-110394802D01*
X186655000Y-110497513D01*
X180659346Y-110497513D01*
X180553130Y-110391297D01*
X180553125Y-110391293D01*
X180395167Y-110276531D01*
X180395166Y-110276530D01*
X180395164Y-110276529D01*
X180300667Y-110228380D01*
X180221187Y-110187882D01*
X180221184Y-110187881D01*
X180035485Y-110127545D01*
X179842634Y-110097000D01*
X179842629Y-110097000D01*
X179647371Y-110097000D01*
X179647366Y-110097000D01*
X179454514Y-110127545D01*
X179268815Y-110187881D01*
X179268812Y-110187882D01*
X179094832Y-110276531D01*
X178936874Y-110391293D01*
X178936869Y-110391297D01*
X178798797Y-110529369D01*
X178798793Y-110529374D01*
X178684031Y-110687332D01*
X178595382Y-110861312D01*
X178595381Y-110861315D01*
X178535045Y-111047014D01*
X178504500Y-111239865D01*
X176204999Y-111239865D01*
X176204999Y-110497528D01*
X176204998Y-110497513D01*
X176194505Y-110394803D01*
X176194505Y-110394801D01*
X176139359Y-110228380D01*
X176139354Y-110228369D01*
X176047319Y-110079159D01*
X176047316Y-110079155D01*
X175923344Y-109955183D01*
X175923340Y-109955180D01*
X175774130Y-109863145D01*
X175774119Y-109863140D01*
X175607697Y-109807994D01*
X175504986Y-109797500D01*
X174915000Y-109797500D01*
X174915000Y-111443379D01*
X174869182Y-111424401D01*
X174733944Y-111397500D01*
X174596056Y-111397500D01*
X174460818Y-111424401D01*
X174415000Y-111443379D01*
X174415000Y-109797500D01*
X173825028Y-109797500D01*
X173825012Y-109797501D01*
X173722303Y-109807994D01*
X173722301Y-109807994D01*
X173555880Y-109863140D01*
X173555869Y-109863145D01*
X173406659Y-109955180D01*
X173406655Y-109955183D01*
X173282683Y-110079155D01*
X173282680Y-110079159D01*
X173190645Y-110228369D01*
X173190640Y-110228380D01*
X173135494Y-110394802D01*
X173125000Y-110497513D01*
X166415758Y-110497513D01*
X166417677Y-110480481D01*
X166417677Y-110480479D01*
X166418493Y-110473234D01*
X166420500Y-110455425D01*
X166420500Y-110174575D01*
X166395781Y-109955183D01*
X166389057Y-109895505D01*
X166389054Y-109895487D01*
X166382933Y-109868671D01*
X166326560Y-109621682D01*
X166233801Y-109356592D01*
X166111945Y-109103555D01*
X165962523Y-108865752D01*
X165787416Y-108646175D01*
X165588825Y-108447584D01*
X165369248Y-108272477D01*
X165131445Y-108123055D01*
X165131442Y-108123053D01*
X164878411Y-108001200D01*
X164613329Y-107908443D01*
X164613317Y-107908439D01*
X164339512Y-107845945D01*
X164339494Y-107845942D01*
X164060431Y-107814500D01*
X164060425Y-107814500D01*
X163779575Y-107814500D01*
X163779568Y-107814500D01*
X163500505Y-107845942D01*
X163500487Y-107845945D01*
X163226682Y-107908439D01*
X163226670Y-107908443D01*
X162961588Y-108001200D01*
X162708557Y-108123053D01*
X162470753Y-108272476D01*
X162251175Y-108447583D01*
X162052583Y-108646175D01*
X161877476Y-108865753D01*
X161728053Y-109103557D01*
X161606200Y-109356588D01*
X161513443Y-109621670D01*
X161513439Y-109621682D01*
X161450945Y-109895487D01*
X161450942Y-109895505D01*
X161419500Y-110174568D01*
X160893118Y-110174568D01*
X160778256Y-109533708D01*
X160777306Y-109527503D01*
X160685290Y-108805015D01*
X160684654Y-108798765D01*
X160657911Y-108447584D01*
X160629347Y-108072507D01*
X160629030Y-108066241D01*
X160625031Y-107908443D01*
X160610540Y-107336578D01*
X160610500Y-107333437D01*
X160610500Y-105977844D01*
X210745000Y-105977844D01*
X210751401Y-106037372D01*
X210751403Y-106037379D01*
X210801645Y-106172086D01*
X210801649Y-106172093D01*
X210887809Y-106287187D01*
X210887812Y-106287190D01*
X211002906Y-106373350D01*
X211002913Y-106373354D01*
X211137620Y-106423596D01*
X211137627Y-106423598D01*
X211197155Y-106429999D01*
X211197172Y-106430000D01*
X212645000Y-106430000D01*
X212645000Y-105883554D01*
X212644998Y-105883553D01*
X213145000Y-105883553D01*
X213145000Y-106430000D01*
X214592828Y-106430000D01*
X214592844Y-106429999D01*
X214652372Y-106423598D01*
X214652379Y-106423596D01*
X214787086Y-106373354D01*
X214787093Y-106373350D01*
X214902187Y-106287190D01*
X214902190Y-106287187D01*
X214988350Y-106172093D01*
X214988354Y-106172086D01*
X215038596Y-106037379D01*
X215038598Y-106037372D01*
X215044999Y-105977844D01*
X215045000Y-105977827D01*
X215045000Y-104880000D01*
X214948553Y-104880000D01*
X213791242Y-106037312D01*
X213729919Y-106070797D01*
X213660227Y-106065813D01*
X213615880Y-106037312D01*
X213545000Y-105966432D01*
X213474120Y-106037312D01*
X213412797Y-106070796D01*
X213343105Y-106065812D01*
X213298758Y-106037311D01*
X213145000Y-105883553D01*
X212644998Y-105883553D01*
X212491241Y-106037311D01*
X212429918Y-106070796D01*
X212360226Y-106065812D01*
X212315879Y-106037311D01*
X212245000Y-105966432D01*
X212174120Y-106037312D01*
X212112797Y-106070797D01*
X212043105Y-106065813D01*
X211998758Y-106037312D01*
X211208625Y-105247179D01*
X211430000Y-105247179D01*
X211430000Y-105312821D01*
X211455119Y-105373465D01*
X211501535Y-105419881D01*
X211562179Y-105445000D01*
X211627821Y-105445000D01*
X211688465Y-105419881D01*
X211734881Y-105373465D01*
X211760000Y-105312821D01*
X211760000Y-105280000D01*
X211948554Y-105280000D01*
X212245000Y-105576446D01*
X212541446Y-105280000D01*
X212508625Y-105247179D01*
X212730000Y-105247179D01*
X212730000Y-105312821D01*
X212755119Y-105373465D01*
X212801535Y-105419881D01*
X212862179Y-105445000D01*
X212927821Y-105445000D01*
X212988465Y-105419881D01*
X213034881Y-105373465D01*
X213060000Y-105312821D01*
X213060000Y-105280000D01*
X213248554Y-105280000D01*
X213545000Y-105576446D01*
X213841446Y-105280000D01*
X213808625Y-105247179D01*
X214030000Y-105247179D01*
X214030000Y-105312821D01*
X214055119Y-105373465D01*
X214101535Y-105419881D01*
X214162179Y-105445000D01*
X214227821Y-105445000D01*
X214288465Y-105419881D01*
X214334881Y-105373465D01*
X214360000Y-105312821D01*
X214360000Y-105247179D01*
X214334881Y-105186535D01*
X214288465Y-105140119D01*
X214227821Y-105115000D01*
X214162179Y-105115000D01*
X214101535Y-105140119D01*
X214055119Y-105186535D01*
X214030000Y-105247179D01*
X213808625Y-105247179D01*
X213545000Y-104983554D01*
X213248554Y-105280000D01*
X213060000Y-105280000D01*
X213060000Y-105247179D01*
X213034881Y-105186535D01*
X212988465Y-105140119D01*
X212927821Y-105115000D01*
X212862179Y-105115000D01*
X212801535Y-105140119D01*
X212755119Y-105186535D01*
X212730000Y-105247179D01*
X212508625Y-105247179D01*
X212245000Y-104983554D01*
X211948554Y-105280000D01*
X211760000Y-105280000D01*
X211760000Y-105247179D01*
X211734881Y-105186535D01*
X211688465Y-105140119D01*
X211627821Y-105115000D01*
X211562179Y-105115000D01*
X211501535Y-105140119D01*
X211455119Y-105186535D01*
X211430000Y-105247179D01*
X211208625Y-105247179D01*
X210841446Y-104880000D01*
X211548554Y-104880000D01*
X211595000Y-104926445D01*
X211641446Y-104880000D01*
X214148554Y-104880000D01*
X214195000Y-104926445D01*
X214241446Y-104880000D01*
X214148554Y-104880000D01*
X211641446Y-104880000D01*
X211548554Y-104880000D01*
X210841446Y-104880000D01*
X210745000Y-104880000D01*
X210745000Y-105977844D01*
X160610500Y-105977844D01*
X160610500Y-103282155D01*
X210745000Y-103282155D01*
X210745000Y-104380000D01*
X210841446Y-104380000D01*
X211548554Y-104380000D01*
X211641445Y-104380000D01*
X214148554Y-104380000D01*
X214241445Y-104380000D01*
X214195000Y-104333554D01*
X214148554Y-104380000D01*
X211641445Y-104380000D01*
X211595000Y-104333554D01*
X211548554Y-104380000D01*
X210841446Y-104380000D01*
X210841446Y-104379999D01*
X210958222Y-104263224D01*
X211274267Y-103947179D01*
X211430000Y-103947179D01*
X211430000Y-104012821D01*
X211455119Y-104073465D01*
X211501535Y-104119881D01*
X211562179Y-104145000D01*
X211627821Y-104145000D01*
X211688465Y-104119881D01*
X211734881Y-104073465D01*
X211760000Y-104012821D01*
X211760000Y-103980000D01*
X211948554Y-103980000D01*
X212245000Y-104276446D01*
X212541446Y-103980000D01*
X212508625Y-103947179D01*
X212730000Y-103947179D01*
X212730000Y-104012821D01*
X212755119Y-104073465D01*
X212801535Y-104119881D01*
X212862179Y-104145000D01*
X212927821Y-104145000D01*
X212988465Y-104119881D01*
X213034881Y-104073465D01*
X213060000Y-104012821D01*
X213060000Y-103980000D01*
X213248554Y-103980000D01*
X213545000Y-104276446D01*
X213841446Y-103980000D01*
X213808625Y-103947179D01*
X214030000Y-103947179D01*
X214030000Y-104012821D01*
X214055119Y-104073465D01*
X214101535Y-104119881D01*
X214162179Y-104145000D01*
X214227821Y-104145000D01*
X214288465Y-104119881D01*
X214334881Y-104073465D01*
X214360000Y-104012821D01*
X214360000Y-103947179D01*
X214334881Y-103886535D01*
X214288465Y-103840119D01*
X214227821Y-103815000D01*
X214162179Y-103815000D01*
X214101535Y-103840119D01*
X214055119Y-103886535D01*
X214030000Y-103947179D01*
X213808625Y-103947179D01*
X213545000Y-103683554D01*
X213248554Y-103980000D01*
X213060000Y-103980000D01*
X213060000Y-103947179D01*
X213034881Y-103886535D01*
X212988465Y-103840119D01*
X212927821Y-103815000D01*
X212862179Y-103815000D01*
X212801535Y-103840119D01*
X212755119Y-103886535D01*
X212730000Y-103947179D01*
X212508625Y-103947179D01*
X212245000Y-103683554D01*
X211948554Y-103980000D01*
X211760000Y-103980000D01*
X211760000Y-103947179D01*
X211734881Y-103886535D01*
X211688465Y-103840119D01*
X211627821Y-103815000D01*
X211562179Y-103815000D01*
X211501535Y-103840119D01*
X211455119Y-103886535D01*
X211430000Y-103947179D01*
X211274267Y-103947179D01*
X211998758Y-103222688D01*
X212060081Y-103189203D01*
X212129773Y-103194187D01*
X212174120Y-103222688D01*
X212244999Y-103293567D01*
X212315878Y-103222688D01*
X212377201Y-103189203D01*
X212446893Y-103194187D01*
X212491241Y-103222688D01*
X212644999Y-103376446D01*
X213145000Y-103376446D01*
X213298758Y-103222688D01*
X213360081Y-103189203D01*
X213429772Y-103194187D01*
X213474120Y-103222688D01*
X213545000Y-103293568D01*
X213615880Y-103222688D01*
X213677203Y-103189203D01*
X213746895Y-103194187D01*
X213791242Y-103222688D01*
X214948554Y-104380000D01*
X215045000Y-104380000D01*
X215045000Y-103282172D01*
X215044999Y-103282155D01*
X215038598Y-103222627D01*
X215038596Y-103222620D01*
X214988354Y-103087913D01*
X214988350Y-103087906D01*
X214902190Y-102972812D01*
X214902187Y-102972809D01*
X214787093Y-102886649D01*
X214787086Y-102886645D01*
X214652379Y-102836403D01*
X214652372Y-102836401D01*
X214592844Y-102830000D01*
X213145000Y-102830000D01*
X213145000Y-103376446D01*
X212644999Y-103376446D01*
X212645000Y-103376445D01*
X212645000Y-102830000D01*
X211197155Y-102830000D01*
X211137627Y-102836401D01*
X211137620Y-102836403D01*
X211002913Y-102886645D01*
X211002906Y-102886649D01*
X210887812Y-102972809D01*
X210887809Y-102972812D01*
X210801649Y-103087906D01*
X210801645Y-103087913D01*
X210751403Y-103222620D01*
X210751401Y-103222627D01*
X210745000Y-103282155D01*
X160610500Y-103282155D01*
X160610500Y-102120730D01*
X218948563Y-102120730D01*
X218948563Y-103329269D01*
X218951416Y-103359699D01*
X218951416Y-103359701D01*
X218991762Y-103475000D01*
X218996270Y-103487882D01*
X219076913Y-103597150D01*
X219186181Y-103677793D01*
X219221924Y-103690300D01*
X219314362Y-103722646D01*
X219344793Y-103725500D01*
X219344797Y-103725500D01*
X219495500Y-103725500D01*
X219562539Y-103745185D01*
X219608294Y-103797989D01*
X219619500Y-103849500D01*
X219619500Y-104929269D01*
X219622353Y-104959699D01*
X219622353Y-104959701D01*
X219667206Y-105087880D01*
X219667207Y-105087882D01*
X219747850Y-105197150D01*
X219857118Y-105277793D01*
X219899845Y-105292744D01*
X219985299Y-105322646D01*
X220015730Y-105325500D01*
X220015734Y-105325500D01*
X221224270Y-105325500D01*
X221254699Y-105322646D01*
X221254701Y-105322646D01*
X221318790Y-105300219D01*
X221382882Y-105277793D01*
X221492150Y-105197150D01*
X221572793Y-105087882D01*
X221609299Y-104983554D01*
X221617646Y-104959701D01*
X221617646Y-104959699D01*
X221620500Y-104929269D01*
X221620500Y-104699808D01*
X221640185Y-104632769D01*
X221692989Y-104587014D01*
X221762147Y-104577070D01*
X221825703Y-104606095D01*
X221862431Y-104661489D01*
X221915244Y-104824031D01*
X222008141Y-105006350D01*
X222008147Y-105006359D01*
X222040523Y-105050921D01*
X222040524Y-105050922D01*
X222720000Y-104371446D01*
X222720000Y-104377661D01*
X222747259Y-104479394D01*
X222799920Y-104570606D01*
X222874394Y-104645080D01*
X222965606Y-104697741D01*
X223067339Y-104725000D01*
X223073553Y-104725000D01*
X222394076Y-105404474D01*
X222438646Y-105436857D01*
X222438648Y-105436858D01*
X222467824Y-105451723D01*
X222518621Y-105499697D01*
X222535417Y-105567517D01*
X222529464Y-105600522D01*
X222522946Y-105620582D01*
X222490937Y-105822682D01*
X222490937Y-106027317D01*
X222522946Y-106229417D01*
X222586181Y-106424031D01*
X222679078Y-106606350D01*
X222679084Y-106606359D01*
X222711460Y-106650921D01*
X222711461Y-106650922D01*
X223390937Y-105971446D01*
X223390937Y-105977661D01*
X223418196Y-106079394D01*
X223470857Y-106170606D01*
X223545331Y-106245080D01*
X223636543Y-106297741D01*
X223738276Y-106325000D01*
X223744490Y-106325000D01*
X223065013Y-107004474D01*
X223109587Y-107036859D01*
X223291905Y-107129755D01*
X223486519Y-107192990D01*
X223688620Y-107225000D01*
X223893254Y-107225000D01*
X224095354Y-107192990D01*
X224289968Y-107129755D01*
X224472286Y-107036859D01*
X224516858Y-107004474D01*
X223837384Y-106325000D01*
X223843598Y-106325000D01*
X223945331Y-106297741D01*
X224036543Y-106245080D01*
X224111017Y-106170606D01*
X224163678Y-106079394D01*
X224190937Y-105977661D01*
X224190937Y-105971447D01*
X224870411Y-106650921D01*
X224902796Y-106606349D01*
X224952987Y-106507844D01*
X228555000Y-106507844D01*
X228561401Y-106567372D01*
X228561403Y-106567379D01*
X228611645Y-106702086D01*
X228611649Y-106702093D01*
X228697809Y-106817187D01*
X228697812Y-106817190D01*
X228812906Y-106903350D01*
X228812913Y-106903354D01*
X228947620Y-106953596D01*
X228947627Y-106953598D01*
X229007155Y-106959999D01*
X229007172Y-106960000D01*
X230455000Y-106960000D01*
X230455000Y-106413554D01*
X230454998Y-106413553D01*
X230955000Y-106413553D01*
X230955000Y-106960000D01*
X232402828Y-106960000D01*
X232402844Y-106959999D01*
X232462372Y-106953598D01*
X232462379Y-106953596D01*
X232597086Y-106903354D01*
X232597093Y-106903350D01*
X232712187Y-106817190D01*
X232712190Y-106817187D01*
X232798350Y-106702093D01*
X232798354Y-106702086D01*
X232848596Y-106567379D01*
X232848598Y-106567372D01*
X232854999Y-106507844D01*
X232855000Y-106507827D01*
X232855000Y-105410000D01*
X232758553Y-105410000D01*
X231601242Y-106567312D01*
X231539919Y-106600797D01*
X231470227Y-106595813D01*
X231425880Y-106567312D01*
X231355000Y-106496432D01*
X231284120Y-106567312D01*
X231222797Y-106600796D01*
X231153105Y-106595812D01*
X231108758Y-106567311D01*
X230955000Y-106413553D01*
X230454998Y-106413553D01*
X230301241Y-106567311D01*
X230239918Y-106600796D01*
X230170226Y-106595812D01*
X230125879Y-106567311D01*
X230055000Y-106496432D01*
X229984120Y-106567312D01*
X229922797Y-106600797D01*
X229853105Y-106595813D01*
X229808758Y-106567312D01*
X229018625Y-105777179D01*
X229240000Y-105777179D01*
X229240000Y-105842821D01*
X229265119Y-105903465D01*
X229311535Y-105949881D01*
X229372179Y-105975000D01*
X229437821Y-105975000D01*
X229498465Y-105949881D01*
X229544881Y-105903465D01*
X229570000Y-105842821D01*
X229570000Y-105810000D01*
X229758554Y-105810000D01*
X230055000Y-106106446D01*
X230351446Y-105810000D01*
X230318625Y-105777179D01*
X230540000Y-105777179D01*
X230540000Y-105842821D01*
X230565119Y-105903465D01*
X230611535Y-105949881D01*
X230672179Y-105975000D01*
X230737821Y-105975000D01*
X230798465Y-105949881D01*
X230844881Y-105903465D01*
X230870000Y-105842821D01*
X230870000Y-105810000D01*
X231058554Y-105810000D01*
X231355000Y-106106446D01*
X231651446Y-105810000D01*
X231618625Y-105777179D01*
X231840000Y-105777179D01*
X231840000Y-105842821D01*
X231865119Y-105903465D01*
X231911535Y-105949881D01*
X231972179Y-105975000D01*
X232037821Y-105975000D01*
X232098465Y-105949881D01*
X232144881Y-105903465D01*
X232170000Y-105842821D01*
X232170000Y-105777179D01*
X232144881Y-105716535D01*
X232098465Y-105670119D01*
X232037821Y-105645000D01*
X231972179Y-105645000D01*
X231911535Y-105670119D01*
X231865119Y-105716535D01*
X231840000Y-105777179D01*
X231618625Y-105777179D01*
X231355000Y-105513554D01*
X231058554Y-105810000D01*
X230870000Y-105810000D01*
X230870000Y-105777179D01*
X230844881Y-105716535D01*
X230798465Y-105670119D01*
X230737821Y-105645000D01*
X230672179Y-105645000D01*
X230611535Y-105670119D01*
X230565119Y-105716535D01*
X230540000Y-105777179D01*
X230318625Y-105777179D01*
X230055000Y-105513554D01*
X229758554Y-105810000D01*
X229570000Y-105810000D01*
X229570000Y-105777179D01*
X229544881Y-105716535D01*
X229498465Y-105670119D01*
X229437821Y-105645000D01*
X229372179Y-105645000D01*
X229311535Y-105670119D01*
X229265119Y-105716535D01*
X229240000Y-105777179D01*
X229018625Y-105777179D01*
X228651446Y-105410000D01*
X229358554Y-105410000D01*
X229405000Y-105456445D01*
X229451446Y-105410000D01*
X231958554Y-105410000D01*
X232005000Y-105456445D01*
X232051446Y-105410000D01*
X231958554Y-105410000D01*
X229451446Y-105410000D01*
X229358554Y-105410000D01*
X228651446Y-105410000D01*
X228555000Y-105410000D01*
X228555000Y-106507844D01*
X224952987Y-106507844D01*
X224995692Y-106424031D01*
X225058927Y-106229417D01*
X225090937Y-106027317D01*
X225090937Y-105822682D01*
X225058927Y-105620582D01*
X224995692Y-105425968D01*
X224990069Y-105414933D01*
X224902796Y-105243650D01*
X224870411Y-105199077D01*
X224870411Y-105199076D01*
X224190937Y-105878551D01*
X224190937Y-105872339D01*
X224163678Y-105770606D01*
X224111017Y-105679394D01*
X224036543Y-105604920D01*
X223945331Y-105552259D01*
X223843598Y-105525000D01*
X223837383Y-105525000D01*
X224516859Y-104845524D01*
X224516858Y-104845523D01*
X224472296Y-104813147D01*
X224472277Y-104813135D01*
X224443109Y-104798273D01*
X224392313Y-104750299D01*
X224375518Y-104682478D01*
X224381474Y-104649468D01*
X224387990Y-104629413D01*
X224420000Y-104427317D01*
X224420000Y-104222682D01*
X224387990Y-104020582D01*
X224331644Y-103847170D01*
X224324755Y-103825968D01*
X224317717Y-103812155D01*
X228555000Y-103812155D01*
X228555000Y-104910000D01*
X228651446Y-104910000D01*
X229358554Y-104910000D01*
X229451445Y-104910000D01*
X231958554Y-104910000D01*
X232051445Y-104910000D01*
X232005000Y-104863554D01*
X231958554Y-104910000D01*
X229451445Y-104910000D01*
X229405000Y-104863554D01*
X229358554Y-104910000D01*
X228651446Y-104910000D01*
X228651446Y-104909999D01*
X228768222Y-104793224D01*
X229084267Y-104477179D01*
X229240000Y-104477179D01*
X229240000Y-104542821D01*
X229265119Y-104603465D01*
X229311535Y-104649881D01*
X229372179Y-104675000D01*
X229437821Y-104675000D01*
X229498465Y-104649881D01*
X229544881Y-104603465D01*
X229570000Y-104542821D01*
X229570000Y-104510000D01*
X229758554Y-104510000D01*
X230055000Y-104806446D01*
X230351446Y-104510000D01*
X230318625Y-104477179D01*
X230540000Y-104477179D01*
X230540000Y-104542821D01*
X230565119Y-104603465D01*
X230611535Y-104649881D01*
X230672179Y-104675000D01*
X230737821Y-104675000D01*
X230798465Y-104649881D01*
X230844881Y-104603465D01*
X230870000Y-104542821D01*
X230870000Y-104510000D01*
X231058554Y-104510000D01*
X231355000Y-104806446D01*
X231651446Y-104510000D01*
X231618625Y-104477179D01*
X231840000Y-104477179D01*
X231840000Y-104542821D01*
X231865119Y-104603465D01*
X231911535Y-104649881D01*
X231972179Y-104675000D01*
X232037821Y-104675000D01*
X232098465Y-104649881D01*
X232144881Y-104603465D01*
X232170000Y-104542821D01*
X232170000Y-104477179D01*
X232144881Y-104416535D01*
X232098465Y-104370119D01*
X232037821Y-104345000D01*
X231972179Y-104345000D01*
X231911535Y-104370119D01*
X231865119Y-104416535D01*
X231840000Y-104477179D01*
X231618625Y-104477179D01*
X231355000Y-104213554D01*
X231058554Y-104510000D01*
X230870000Y-104510000D01*
X230870000Y-104477179D01*
X230844881Y-104416535D01*
X230798465Y-104370119D01*
X230737821Y-104345000D01*
X230672179Y-104345000D01*
X230611535Y-104370119D01*
X230565119Y-104416535D01*
X230540000Y-104477179D01*
X230318625Y-104477179D01*
X230055000Y-104213554D01*
X229758554Y-104510000D01*
X229570000Y-104510000D01*
X229570000Y-104477179D01*
X229544881Y-104416535D01*
X229498465Y-104370119D01*
X229437821Y-104345000D01*
X229372179Y-104345000D01*
X229311535Y-104370119D01*
X229265119Y-104416535D01*
X229240000Y-104477179D01*
X229084267Y-104477179D01*
X229808758Y-103752688D01*
X229870081Y-103719203D01*
X229939773Y-103724187D01*
X229984120Y-103752688D01*
X230054999Y-103823567D01*
X230125878Y-103752688D01*
X230187201Y-103719203D01*
X230256893Y-103724187D01*
X230301241Y-103752688D01*
X230454999Y-103906446D01*
X230955000Y-103906446D01*
X231108758Y-103752688D01*
X231170081Y-103719203D01*
X231239772Y-103724187D01*
X231284120Y-103752688D01*
X231355000Y-103823568D01*
X231425880Y-103752688D01*
X231487203Y-103719203D01*
X231556895Y-103724187D01*
X231601242Y-103752688D01*
X232758554Y-104910000D01*
X232855000Y-104910000D01*
X232855000Y-103812172D01*
X232854999Y-103812155D01*
X232848598Y-103752627D01*
X232848596Y-103752620D01*
X232798354Y-103617913D01*
X232798350Y-103617906D01*
X232712190Y-103502812D01*
X232712187Y-103502809D01*
X232597093Y-103416649D01*
X232597086Y-103416645D01*
X232462379Y-103366403D01*
X232462372Y-103366401D01*
X232402844Y-103360000D01*
X230955000Y-103360000D01*
X230955000Y-103906446D01*
X230454999Y-103906446D01*
X230455000Y-103906445D01*
X230455000Y-103360000D01*
X229007155Y-103360000D01*
X228947627Y-103366401D01*
X228947620Y-103366403D01*
X228812913Y-103416645D01*
X228812906Y-103416649D01*
X228697812Y-103502809D01*
X228697809Y-103502812D01*
X228611649Y-103617906D01*
X228611645Y-103617913D01*
X228561403Y-103752620D01*
X228561401Y-103752627D01*
X228555000Y-103812155D01*
X224317717Y-103812155D01*
X224231859Y-103643650D01*
X224199474Y-103599077D01*
X224199474Y-103599076D01*
X223520000Y-104278553D01*
X223520000Y-104272339D01*
X223492741Y-104170606D01*
X223440080Y-104079394D01*
X223365606Y-104004920D01*
X223274394Y-103952259D01*
X223172661Y-103925000D01*
X223166446Y-103925000D01*
X223845922Y-103245524D01*
X223845921Y-103245523D01*
X223801359Y-103213147D01*
X223801350Y-103213141D01*
X223619031Y-103120244D01*
X223574784Y-103105868D01*
X223424417Y-103057009D01*
X223222317Y-103025000D01*
X223017683Y-103025000D01*
X222815582Y-103057009D01*
X222620968Y-103120244D01*
X222438644Y-103213143D01*
X222394077Y-103245523D01*
X222394077Y-103245524D01*
X223073554Y-103925000D01*
X223067339Y-103925000D01*
X222965606Y-103952259D01*
X222874394Y-104004920D01*
X222799920Y-104079394D01*
X222747259Y-104170606D01*
X222720000Y-104272339D01*
X222720000Y-104278553D01*
X222040524Y-103599077D01*
X222040523Y-103599077D01*
X222008143Y-103643644D01*
X221915244Y-103825968D01*
X221862431Y-103988510D01*
X221822993Y-104046185D01*
X221758634Y-104073383D01*
X221689788Y-104061468D01*
X221638312Y-104014224D01*
X221620500Y-103950191D01*
X221620500Y-103720730D01*
X221617646Y-103690300D01*
X221617646Y-103690298D01*
X221584006Y-103594163D01*
X221572793Y-103562118D01*
X221492150Y-103452850D01*
X221382882Y-103372207D01*
X221382880Y-103372206D01*
X221254700Y-103327353D01*
X221224270Y-103324500D01*
X221224266Y-103324500D01*
X221073563Y-103324500D01*
X221006524Y-103304815D01*
X220960769Y-103252011D01*
X220949563Y-103200500D01*
X220949563Y-102525000D01*
X237930400Y-102525000D01*
X239555879Y-102525000D01*
X239536901Y-102570818D01*
X239510000Y-102706056D01*
X239510000Y-102843944D01*
X239536901Y-102979182D01*
X239555879Y-103025000D01*
X237930400Y-103025000D01*
X237947919Y-103135618D01*
X238022827Y-103366159D01*
X238132874Y-103582136D01*
X238275356Y-103778245D01*
X238446754Y-103949643D01*
X238642863Y-104092125D01*
X238858840Y-104202172D01*
X239089381Y-104277079D01*
X239328800Y-104315000D01*
X239960000Y-104315000D01*
X239960000Y-103429120D01*
X240005818Y-103448099D01*
X240141056Y-103475000D01*
X240278944Y-103475000D01*
X240414182Y-103448099D01*
X240460000Y-103429120D01*
X240460000Y-104315000D01*
X241091200Y-104315000D01*
X241330618Y-104277079D01*
X241561159Y-104202172D01*
X241777136Y-104092125D01*
X241973245Y-103949643D01*
X242144643Y-103778245D01*
X242287125Y-103582136D01*
X242397172Y-103366159D01*
X242472080Y-103135618D01*
X242489600Y-103025000D01*
X240864121Y-103025000D01*
X240883099Y-102979182D01*
X240910000Y-102843944D01*
X240910000Y-102706056D01*
X240883099Y-102570818D01*
X240864121Y-102525000D01*
X242489600Y-102525000D01*
X242472080Y-102414381D01*
X242397172Y-102183840D01*
X242287125Y-101967863D01*
X242144643Y-101771754D01*
X241973245Y-101600356D01*
X241777136Y-101457874D01*
X241561159Y-101347827D01*
X241330618Y-101272920D01*
X241091200Y-101235000D01*
X240460000Y-101235000D01*
X240460000Y-102120879D01*
X240414182Y-102101901D01*
X240278944Y-102075000D01*
X240141056Y-102075000D01*
X240005818Y-102101901D01*
X239960000Y-102120879D01*
X239960000Y-101235000D01*
X239328800Y-101235000D01*
X239089381Y-101272920D01*
X238858840Y-101347827D01*
X238642863Y-101457874D01*
X238446754Y-101600356D01*
X238275356Y-101771754D01*
X238132874Y-101967863D01*
X238022827Y-102183840D01*
X237947919Y-102414381D01*
X237930400Y-102525000D01*
X220949563Y-102525000D01*
X220949563Y-102120730D01*
X220946709Y-102090300D01*
X220946709Y-102090298D01*
X220901856Y-101962119D01*
X220901855Y-101962117D01*
X220821213Y-101852850D01*
X220711945Y-101772207D01*
X220711943Y-101772206D01*
X220583763Y-101727353D01*
X220553333Y-101724500D01*
X220553329Y-101724500D01*
X219344797Y-101724500D01*
X219344793Y-101724500D01*
X219314363Y-101727353D01*
X219314361Y-101727353D01*
X219186182Y-101772206D01*
X219186180Y-101772207D01*
X219076913Y-101852850D01*
X218996270Y-101962117D01*
X218996269Y-101962119D01*
X218951416Y-102090298D01*
X218951416Y-102090300D01*
X218948563Y-102120730D01*
X160610500Y-102120730D01*
X160610500Y-96710729D01*
X175259500Y-96710729D01*
X175259500Y-98399260D01*
X175259501Y-98399266D01*
X175262354Y-98429700D01*
X175262354Y-98429702D01*
X175262355Y-98429703D01*
X175262355Y-98429705D01*
X175307206Y-98557882D01*
X175387849Y-98667150D01*
X175420057Y-98690920D01*
X175497117Y-98747793D01*
X175528025Y-98758608D01*
X175625298Y-98792646D01*
X175632323Y-98793304D01*
X175655733Y-98795500D01*
X178864266Y-98795499D01*
X178894700Y-98792646D01*
X179022883Y-98747793D01*
X179132150Y-98667150D01*
X179145466Y-98649108D01*
X210949500Y-98649108D01*
X210949500Y-98780892D01*
X210953414Y-98795499D01*
X210983608Y-98908187D01*
X211016554Y-98965250D01*
X211049500Y-99022314D01*
X211142686Y-99115500D01*
X211256814Y-99181392D01*
X211384108Y-99215500D01*
X211384110Y-99215500D01*
X211515890Y-99215500D01*
X211515892Y-99215500D01*
X211643186Y-99181392D01*
X211757314Y-99115500D01*
X211770995Y-99101819D01*
X211832318Y-99068334D01*
X211858676Y-99065500D01*
X217558662Y-99065500D01*
X217620662Y-99082113D01*
X217636781Y-99091419D01*
X217636782Y-99091419D01*
X217636785Y-99091421D01*
X217764079Y-99125529D01*
X217764081Y-99125529D01*
X217895861Y-99125529D01*
X217895863Y-99125529D01*
X218023157Y-99091421D01*
X218137285Y-99025529D01*
X218230471Y-98932343D01*
X218296363Y-98818215D01*
X218330471Y-98690921D01*
X218330471Y-98559137D01*
X218296363Y-98431843D01*
X218295127Y-98429703D01*
X218277555Y-98399267D01*
X218230471Y-98317715D01*
X218137285Y-98224529D01*
X218080221Y-98191583D01*
X218023158Y-98158637D01*
X217959510Y-98141583D01*
X217895863Y-98124529D01*
X217764079Y-98124529D01*
X217636783Y-98158637D01*
X217522657Y-98224529D01*
X217522654Y-98224531D01*
X217423724Y-98323462D01*
X217422388Y-98322126D01*
X217374370Y-98357189D01*
X217332422Y-98364500D01*
X211858676Y-98364500D01*
X211791637Y-98344815D01*
X211770995Y-98328181D01*
X211757316Y-98314502D01*
X211757314Y-98314500D01*
X211700250Y-98281554D01*
X211643187Y-98248608D01*
X211579539Y-98231554D01*
X211515892Y-98214500D01*
X211384108Y-98214500D01*
X211256812Y-98248608D01*
X211142686Y-98314500D01*
X211142683Y-98314502D01*
X211049502Y-98407683D01*
X211049500Y-98407686D01*
X210983608Y-98521812D01*
X210951619Y-98641201D01*
X210949500Y-98649108D01*
X179145466Y-98649108D01*
X179212793Y-98557883D01*
X179235219Y-98493791D01*
X179257646Y-98429702D01*
X179257646Y-98429700D01*
X179259710Y-98407686D01*
X179260500Y-98399267D01*
X179260499Y-96959108D01*
X209039500Y-96959108D01*
X209039500Y-97090892D01*
X209056554Y-97154539D01*
X209073608Y-97218187D01*
X209079382Y-97228187D01*
X209139500Y-97332314D01*
X209232686Y-97425500D01*
X209294575Y-97461231D01*
X209320254Y-97480936D01*
X209544788Y-97705470D01*
X209624712Y-97751614D01*
X209713856Y-97775500D01*
X215371324Y-97775500D01*
X215438363Y-97795185D01*
X215459005Y-97811819D01*
X215472686Y-97825500D01*
X215571521Y-97882563D01*
X215581264Y-97888188D01*
X215586814Y-97891392D01*
X215714108Y-97925500D01*
X215714110Y-97925500D01*
X215845890Y-97925500D01*
X215845892Y-97925500D01*
X215973186Y-97891392D01*
X216087314Y-97825500D01*
X216180500Y-97732314D01*
X216246392Y-97618186D01*
X216280500Y-97490892D01*
X216280500Y-97359108D01*
X216246392Y-97231814D01*
X216180500Y-97117686D01*
X216087314Y-97024500D01*
X216030250Y-96991554D01*
X215991373Y-96969108D01*
X220529500Y-96969108D01*
X220529500Y-97100891D01*
X220563608Y-97228187D01*
X220596554Y-97285250D01*
X220629500Y-97342314D01*
X220629502Y-97342316D01*
X220643181Y-97355995D01*
X220676666Y-97417318D01*
X220679500Y-97443676D01*
X220679500Y-97861144D01*
X220692648Y-97910213D01*
X220692648Y-97910214D01*
X220703384Y-97950285D01*
X220703385Y-97950286D01*
X220749527Y-98030208D01*
X220749529Y-98030211D01*
X220749530Y-98030212D01*
X223374788Y-100655470D01*
X223451011Y-100699477D01*
X223454712Y-100701614D01*
X223543856Y-100725500D01*
X223543857Y-100725500D01*
X223636144Y-100725500D01*
X233303856Y-100725500D01*
X233560493Y-100725500D01*
X233627532Y-100745185D01*
X233667879Y-100787499D01*
X233670235Y-100791579D01*
X233763421Y-100884765D01*
X233877549Y-100950657D01*
X234004843Y-100984765D01*
X234004845Y-100984765D01*
X234136625Y-100984765D01*
X234136627Y-100984765D01*
X234263921Y-100950657D01*
X234378049Y-100884765D01*
X234471235Y-100791579D01*
X234537127Y-100677451D01*
X234571235Y-100550157D01*
X234571235Y-100418373D01*
X234537127Y-100291079D01*
X234471235Y-100176951D01*
X234378049Y-100083765D01*
X234320985Y-100050819D01*
X234263922Y-100017873D01*
X234200274Y-100000819D01*
X234136627Y-99983765D01*
X234004843Y-99983765D01*
X233877549Y-100017873D01*
X233877547Y-100017873D01*
X233869698Y-100019977D01*
X233869187Y-100018071D01*
X233836886Y-100024500D01*
X223786544Y-100024500D01*
X223719505Y-100004815D01*
X223698863Y-99988181D01*
X222026173Y-98315491D01*
X221992688Y-98254168D01*
X221997672Y-98184476D01*
X222039544Y-98128543D01*
X222105008Y-98104126D01*
X222173281Y-98118978D01*
X222175811Y-98120398D01*
X222246814Y-98161392D01*
X222374108Y-98195500D01*
X222393456Y-98195500D01*
X222460495Y-98215185D01*
X222481137Y-98231819D01*
X223754788Y-99505470D01*
X223824085Y-99545478D01*
X223824087Y-99545480D01*
X223831342Y-99549668D01*
X223834712Y-99551614D01*
X223923856Y-99575500D01*
X223923857Y-99575500D01*
X224016144Y-99575500D01*
X235191324Y-99575500D01*
X235258363Y-99595185D01*
X235279005Y-99611819D01*
X235292686Y-99625500D01*
X235406814Y-99691392D01*
X235534108Y-99725500D01*
X235534110Y-99725500D01*
X235665890Y-99725500D01*
X235665892Y-99725500D01*
X235793186Y-99691392D01*
X235907314Y-99625500D01*
X236000500Y-99532314D01*
X236066392Y-99418186D01*
X236100500Y-99290892D01*
X236100500Y-99159108D01*
X236066392Y-99031814D01*
X236000500Y-98917686D01*
X235907314Y-98824500D01*
X235831783Y-98780892D01*
X235793187Y-98758608D01*
X235729539Y-98741554D01*
X235665892Y-98724500D01*
X235534108Y-98724500D01*
X235406812Y-98758608D01*
X235292686Y-98824500D01*
X235292683Y-98824502D01*
X235279005Y-98838181D01*
X235217682Y-98871666D01*
X235191324Y-98874500D01*
X224166544Y-98874500D01*
X224099505Y-98854815D01*
X224078863Y-98838181D01*
X222976819Y-97736137D01*
X222964885Y-97714281D01*
X222949457Y-97694729D01*
X222946847Y-97681248D01*
X222943334Y-97674814D01*
X222941081Y-97660443D01*
X222940500Y-97654461D01*
X222940500Y-97629108D01*
X222931995Y-97597365D01*
X238209500Y-97597365D01*
X238209500Y-97792634D01*
X238240045Y-97985485D01*
X238300381Y-98171184D01*
X238300382Y-98171187D01*
X238339831Y-98248608D01*
X238388851Y-98344815D01*
X238389031Y-98345167D01*
X238503793Y-98503125D01*
X238503797Y-98503130D01*
X238641869Y-98641202D01*
X238641874Y-98641206D01*
X238710302Y-98690921D01*
X238799836Y-98755971D01*
X238871811Y-98792644D01*
X238973812Y-98844617D01*
X238973815Y-98844618D01*
X239057062Y-98871666D01*
X239159516Y-98904955D01*
X239239878Y-98917683D01*
X239352366Y-98935500D01*
X239352371Y-98935500D01*
X241067634Y-98935500D01*
X241161125Y-98920691D01*
X241260484Y-98904955D01*
X241446187Y-98844617D01*
X241620164Y-98755971D01*
X241778132Y-98641201D01*
X241916201Y-98503132D01*
X242030971Y-98345164D01*
X242119617Y-98171187D01*
X242179955Y-97985484D01*
X242195691Y-97886125D01*
X242210500Y-97792634D01*
X242210500Y-97597365D01*
X242190230Y-97469393D01*
X242179955Y-97404516D01*
X242144209Y-97294500D01*
X242119618Y-97218815D01*
X242119617Y-97218812D01*
X242068090Y-97117686D01*
X242030971Y-97044836D01*
X241974195Y-96966690D01*
X241916206Y-96886874D01*
X241916202Y-96886869D01*
X241778130Y-96748797D01*
X241778125Y-96748793D01*
X241620167Y-96634031D01*
X241620166Y-96634030D01*
X241620164Y-96634029D01*
X241564426Y-96605629D01*
X241446187Y-96545382D01*
X241446184Y-96545381D01*
X241260485Y-96485045D01*
X241067634Y-96454500D01*
X241067629Y-96454500D01*
X239352371Y-96454500D01*
X239352366Y-96454500D01*
X239159514Y-96485045D01*
X238973815Y-96545381D01*
X238973812Y-96545382D01*
X238799832Y-96634031D01*
X238641874Y-96748793D01*
X238641869Y-96748797D01*
X238503797Y-96886869D01*
X238503793Y-96886874D01*
X238389031Y-97044832D01*
X238300382Y-97218812D01*
X238300381Y-97218815D01*
X238240045Y-97404514D01*
X238209500Y-97597365D01*
X222931995Y-97597365D01*
X222906392Y-97501814D01*
X222840500Y-97387686D01*
X222747314Y-97294500D01*
X222690250Y-97261554D01*
X222633187Y-97228608D01*
X222569539Y-97211554D01*
X222505892Y-97194500D01*
X222374108Y-97194500D01*
X222246812Y-97228608D01*
X222132686Y-97294500D01*
X222132683Y-97294502D01*
X222039502Y-97387683D01*
X222039500Y-97387686D01*
X221973608Y-97501812D01*
X221942426Y-97618187D01*
X221939500Y-97629108D01*
X221939500Y-97760892D01*
X221966362Y-97861144D01*
X221973609Y-97888188D01*
X221973609Y-97888189D01*
X222014576Y-97959145D01*
X222031049Y-98027045D01*
X222008197Y-98093072D01*
X221953276Y-98136262D01*
X221883722Y-98142904D01*
X221821620Y-98110888D01*
X221819508Y-98108826D01*
X221416819Y-97706137D01*
X221402115Y-97679209D01*
X221385523Y-97653391D01*
X221384631Y-97647190D01*
X221383334Y-97644814D01*
X221380500Y-97618456D01*
X221380500Y-97443676D01*
X221400185Y-97376637D01*
X221416819Y-97355995D01*
X221430500Y-97342314D01*
X221496392Y-97228186D01*
X221530500Y-97100892D01*
X221530500Y-96969108D01*
X221496392Y-96841814D01*
X221490618Y-96831814D01*
X221487563Y-96826521D01*
X221430500Y-96727686D01*
X221337314Y-96634500D01*
X221280250Y-96601554D01*
X221223187Y-96568608D01*
X221136508Y-96545383D01*
X221095892Y-96534500D01*
X220964108Y-96534500D01*
X220836812Y-96568608D01*
X220722686Y-96634500D01*
X220722683Y-96634502D01*
X220629502Y-96727683D01*
X220629500Y-96727686D01*
X220563608Y-96841812D01*
X220529500Y-96969108D01*
X215991373Y-96969108D01*
X215973187Y-96958608D01*
X215909539Y-96941554D01*
X215845892Y-96924500D01*
X215714108Y-96924500D01*
X215586812Y-96958608D01*
X215472686Y-97024500D01*
X215472683Y-97024502D01*
X215459005Y-97038181D01*
X215397682Y-97071666D01*
X215371324Y-97074500D01*
X210164437Y-97074500D01*
X210097398Y-97054815D01*
X210051643Y-97002011D01*
X210041498Y-96966690D01*
X210040500Y-96959114D01*
X210040500Y-96959108D01*
X210006392Y-96831814D01*
X209940500Y-96717686D01*
X209847314Y-96624500D01*
X209790250Y-96591554D01*
X209733187Y-96558608D01*
X209669539Y-96541554D01*
X209605892Y-96524500D01*
X209474108Y-96524500D01*
X209346812Y-96558608D01*
X209232686Y-96624500D01*
X209232683Y-96624502D01*
X209139502Y-96717683D01*
X209139500Y-96717686D01*
X209073608Y-96831812D01*
X209058856Y-96886868D01*
X209039500Y-96959108D01*
X179260499Y-96959108D01*
X179260499Y-96710734D01*
X179257646Y-96680300D01*
X179212793Y-96552117D01*
X179192411Y-96524500D01*
X179132150Y-96442849D01*
X179058123Y-96388215D01*
X179022883Y-96362207D01*
X179022881Y-96362206D01*
X178894701Y-96317353D01*
X178864270Y-96314500D01*
X175655739Y-96314500D01*
X175641751Y-96315811D01*
X175625300Y-96317354D01*
X175625297Y-96317354D01*
X175625296Y-96317355D01*
X175625294Y-96317355D01*
X175497117Y-96362206D01*
X175387849Y-96442849D01*
X175307206Y-96552118D01*
X175262353Y-96680297D01*
X175262353Y-96680299D01*
X175259500Y-96710729D01*
X160610500Y-96710729D01*
X160610500Y-92377365D01*
X175259500Y-92377365D01*
X175259500Y-92572634D01*
X175290045Y-92765485D01*
X175350381Y-92951184D01*
X175350382Y-92951187D01*
X175439031Y-93125167D01*
X175553793Y-93283125D01*
X175553797Y-93283130D01*
X175691869Y-93421202D01*
X175691874Y-93421206D01*
X175786149Y-93489700D01*
X175849836Y-93535971D01*
X175963565Y-93593919D01*
X176023812Y-93624617D01*
X176023815Y-93624618D01*
X176116664Y-93654786D01*
X176209516Y-93684955D01*
X176298835Y-93699101D01*
X176402366Y-93715500D01*
X176402371Y-93715500D01*
X178117634Y-93715500D01*
X178211125Y-93700691D01*
X178310484Y-93684955D01*
X178496187Y-93624617D01*
X178670164Y-93535971D01*
X178828132Y-93421201D01*
X178966201Y-93283132D01*
X179080971Y-93125164D01*
X179169617Y-92951187D01*
X179229955Y-92765484D01*
X179245691Y-92666125D01*
X179260500Y-92572634D01*
X179260500Y-92377365D01*
X179242730Y-92265174D01*
X179229955Y-92184516D01*
X179169617Y-91998813D01*
X179169617Y-91998812D01*
X179080970Y-91824833D01*
X179041661Y-91770729D01*
X238209500Y-91770729D01*
X238209500Y-93459260D01*
X238209501Y-93459266D01*
X238212354Y-93489700D01*
X238212354Y-93489702D01*
X238212355Y-93489703D01*
X238212355Y-93489705D01*
X238257206Y-93617882D01*
X238337849Y-93727150D01*
X238392483Y-93767471D01*
X238447117Y-93807793D01*
X238489844Y-93822744D01*
X238575298Y-93852646D01*
X238582323Y-93853304D01*
X238605733Y-93855500D01*
X241814266Y-93855499D01*
X241844700Y-93852646D01*
X241972883Y-93807793D01*
X242082150Y-93727150D01*
X242162793Y-93617883D01*
X242191456Y-93535968D01*
X242207646Y-93489702D01*
X242207646Y-93489700D01*
X242210500Y-93459267D01*
X242210499Y-91770734D01*
X242207646Y-91740300D01*
X242181951Y-91666869D01*
X242162793Y-91612117D01*
X242082150Y-91502849D01*
X242008123Y-91448215D01*
X241972883Y-91422207D01*
X241972881Y-91422206D01*
X241844701Y-91377353D01*
X241814270Y-91374500D01*
X238605739Y-91374500D01*
X238591751Y-91375811D01*
X238575300Y-91377354D01*
X238575297Y-91377354D01*
X238575296Y-91377355D01*
X238575294Y-91377355D01*
X238447117Y-91422206D01*
X238337849Y-91502849D01*
X238257206Y-91612118D01*
X238212353Y-91740297D01*
X238212353Y-91740299D01*
X238209500Y-91770729D01*
X179041661Y-91770729D01*
X178966206Y-91666874D01*
X178966202Y-91666869D01*
X178828130Y-91528797D01*
X178828125Y-91528793D01*
X178670167Y-91414031D01*
X178670166Y-91414030D01*
X178670164Y-91414029D01*
X178614426Y-91385629D01*
X178496187Y-91325382D01*
X178496184Y-91325381D01*
X178310485Y-91265045D01*
X178117634Y-91234500D01*
X178117629Y-91234500D01*
X176402371Y-91234500D01*
X176402366Y-91234500D01*
X176209514Y-91265045D01*
X176023815Y-91325381D01*
X176023812Y-91325382D01*
X175849832Y-91414031D01*
X175691874Y-91528793D01*
X175691869Y-91528797D01*
X175553797Y-91666869D01*
X175553793Y-91666874D01*
X175439031Y-91824832D01*
X175350382Y-91998812D01*
X175350381Y-91998815D01*
X175290045Y-92184514D01*
X175259500Y-92377365D01*
X160610500Y-92377365D01*
X160610500Y-87145000D01*
X174980400Y-87145000D01*
X176605879Y-87145000D01*
X176586901Y-87190818D01*
X176560000Y-87326056D01*
X176560000Y-87463944D01*
X176586901Y-87599182D01*
X176605879Y-87645000D01*
X174980400Y-87645000D01*
X174997919Y-87755618D01*
X175072827Y-87986159D01*
X175182874Y-88202136D01*
X175325356Y-88398245D01*
X175496754Y-88569643D01*
X175692863Y-88712125D01*
X175908840Y-88822172D01*
X176139381Y-88897079D01*
X176378800Y-88935000D01*
X177010000Y-88935000D01*
X177010000Y-88049120D01*
X177055818Y-88068099D01*
X177191056Y-88095000D01*
X177328944Y-88095000D01*
X177464182Y-88068099D01*
X177510000Y-88049120D01*
X177510000Y-88935000D01*
X178141200Y-88935000D01*
X178380618Y-88897079D01*
X178611159Y-88822172D01*
X178827136Y-88712125D01*
X179023245Y-88569643D01*
X179194643Y-88398245D01*
X179337125Y-88202136D01*
X179447172Y-87986159D01*
X179522080Y-87755618D01*
X179539600Y-87645000D01*
X177914121Y-87645000D01*
X177933099Y-87599182D01*
X177960000Y-87463944D01*
X177960000Y-87326056D01*
X177933099Y-87190818D01*
X177914121Y-87145000D01*
X179539600Y-87145000D01*
X179522080Y-87034381D01*
X179447172Y-86803840D01*
X179408160Y-86727276D01*
X179383617Y-86679108D01*
X187079500Y-86679108D01*
X187079500Y-86810891D01*
X187113608Y-86938187D01*
X187119722Y-86948776D01*
X187179500Y-87052314D01*
X187272686Y-87145500D01*
X187386814Y-87211392D01*
X187514108Y-87245500D01*
X187514110Y-87245500D01*
X187645890Y-87245500D01*
X187645892Y-87245500D01*
X187773186Y-87211392D01*
X187887314Y-87145500D01*
X187900995Y-87131819D01*
X187962318Y-87098334D01*
X187988676Y-87095500D01*
X190326142Y-87095500D01*
X190326144Y-87095500D01*
X190415288Y-87071614D01*
X190425912Y-87065480D01*
X190495212Y-87025470D01*
X194130469Y-83390212D01*
X194176614Y-83310288D01*
X194200500Y-83221144D01*
X194200500Y-83090000D01*
X238017900Y-83090000D01*
X239643379Y-83090000D01*
X239624401Y-83135818D01*
X239597500Y-83271056D01*
X239597500Y-83408944D01*
X239624401Y-83544182D01*
X239643379Y-83590000D01*
X238017900Y-83590000D01*
X238035419Y-83700618D01*
X238110327Y-83931159D01*
X238220374Y-84147136D01*
X238362856Y-84343245D01*
X238534254Y-84514643D01*
X238730363Y-84657125D01*
X238946340Y-84767172D01*
X239176881Y-84842079D01*
X239416300Y-84880000D01*
X240047500Y-84880000D01*
X240047500Y-83994120D01*
X240093318Y-84013099D01*
X240228556Y-84040000D01*
X240366444Y-84040000D01*
X240501682Y-84013099D01*
X240547500Y-83994120D01*
X240547500Y-84880000D01*
X241178700Y-84880000D01*
X241418118Y-84842079D01*
X241648659Y-84767172D01*
X241864636Y-84657125D01*
X242060745Y-84514643D01*
X242232143Y-84343245D01*
X242374625Y-84147136D01*
X242484672Y-83931159D01*
X242559580Y-83700618D01*
X242577100Y-83590000D01*
X240951621Y-83590000D01*
X240970599Y-83544182D01*
X240997500Y-83408944D01*
X240997500Y-83271056D01*
X240970599Y-83135818D01*
X240951621Y-83090000D01*
X242577100Y-83090000D01*
X242559580Y-82979381D01*
X242484672Y-82748840D01*
X242374625Y-82532863D01*
X242232143Y-82336754D01*
X242060745Y-82165356D01*
X241864636Y-82022874D01*
X241648659Y-81912827D01*
X241418118Y-81837920D01*
X241178700Y-81800000D01*
X240547500Y-81800000D01*
X240547500Y-82685879D01*
X240501682Y-82666901D01*
X240366444Y-82640000D01*
X240228556Y-82640000D01*
X240093318Y-82666901D01*
X240047500Y-82685879D01*
X240047500Y-81800000D01*
X239416300Y-81800000D01*
X239176881Y-81837920D01*
X238946340Y-81912827D01*
X238730363Y-82022874D01*
X238534254Y-82165356D01*
X238362856Y-82336754D01*
X238220374Y-82532863D01*
X238110327Y-82748840D01*
X238035419Y-82979381D01*
X238017900Y-83090000D01*
X194200500Y-83090000D01*
X194200500Y-82541544D01*
X194220185Y-82474505D01*
X194236819Y-82453863D01*
X195508863Y-81181819D01*
X195570186Y-81148334D01*
X195596544Y-81145500D01*
X203121324Y-81145500D01*
X203188363Y-81165185D01*
X203209005Y-81181819D01*
X203222686Y-81195500D01*
X203336814Y-81261392D01*
X203464108Y-81295500D01*
X203464110Y-81295500D01*
X203595890Y-81295500D01*
X203595892Y-81295500D01*
X203723186Y-81261392D01*
X203837314Y-81195500D01*
X203930500Y-81102314D01*
X203996392Y-80988186D01*
X204030500Y-80860892D01*
X204030500Y-80729108D01*
X203996392Y-80601814D01*
X203930500Y-80487686D01*
X203837314Y-80394500D01*
X203780250Y-80361554D01*
X203723187Y-80328608D01*
X203659539Y-80311554D01*
X203595892Y-80294500D01*
X203464108Y-80294500D01*
X203336812Y-80328608D01*
X203222686Y-80394500D01*
X203222683Y-80394502D01*
X203209005Y-80408181D01*
X203147682Y-80441666D01*
X203121324Y-80444500D01*
X195353856Y-80444500D01*
X195264712Y-80468386D01*
X195264709Y-80468387D01*
X195184791Y-80514527D01*
X195184786Y-80514531D01*
X193569531Y-82129786D01*
X193569527Y-82129791D01*
X193523387Y-82209709D01*
X193523386Y-82209712D01*
X193499500Y-82298856D01*
X193499500Y-82978456D01*
X193479815Y-83045495D01*
X193463181Y-83066137D01*
X191632181Y-84897137D01*
X191570858Y-84930622D01*
X191501166Y-84925638D01*
X191445233Y-84883766D01*
X191420816Y-84818302D01*
X191420500Y-84809456D01*
X191420500Y-84709110D01*
X191420500Y-84709108D01*
X191386392Y-84581814D01*
X191320500Y-84467686D01*
X191306819Y-84454005D01*
X191273334Y-84392682D01*
X191270500Y-84366324D01*
X191270500Y-80081544D01*
X191290185Y-80014505D01*
X191306819Y-79993863D01*
X192541574Y-78759108D01*
X199389500Y-78759108D01*
X199389500Y-78890891D01*
X199423608Y-79018187D01*
X199452440Y-79068125D01*
X199489500Y-79132314D01*
X199582686Y-79225500D01*
X199696814Y-79291392D01*
X199824108Y-79325500D01*
X199824110Y-79325500D01*
X199955890Y-79325500D01*
X199955892Y-79325500D01*
X200052087Y-79299725D01*
X200084180Y-79295500D01*
X205121324Y-79295500D01*
X205188363Y-79315185D01*
X205209005Y-79331819D01*
X205222686Y-79345500D01*
X205321521Y-79402563D01*
X205333739Y-79409617D01*
X205336814Y-79411392D01*
X205464108Y-79445500D01*
X205464110Y-79445500D01*
X205595890Y-79445500D01*
X205595892Y-79445500D01*
X205723186Y-79411392D01*
X205837314Y-79345500D01*
X205930500Y-79252314D01*
X205996392Y-79138186D01*
X206030500Y-79010892D01*
X206030500Y-78879108D01*
X205996392Y-78751814D01*
X205930500Y-78637686D01*
X205837314Y-78544500D01*
X205780250Y-78511554D01*
X205723187Y-78478608D01*
X205659539Y-78461554D01*
X205595892Y-78444500D01*
X205464108Y-78444500D01*
X205336812Y-78478608D01*
X205222686Y-78544500D01*
X205222683Y-78544502D01*
X205209005Y-78558181D01*
X205147682Y-78591666D01*
X205121324Y-78594500D01*
X200406440Y-78594500D01*
X200339401Y-78574815D01*
X200299054Y-78532502D01*
X200290500Y-78517686D01*
X200197314Y-78424500D01*
X200140250Y-78391554D01*
X200083187Y-78358608D01*
X200019539Y-78341554D01*
X199955892Y-78324500D01*
X199824108Y-78324500D01*
X199696812Y-78358608D01*
X199582686Y-78424500D01*
X199582683Y-78424502D01*
X199489502Y-78517683D01*
X199489500Y-78517686D01*
X199423608Y-78631812D01*
X199389500Y-78759108D01*
X192541574Y-78759108D01*
X193138317Y-78162365D01*
X238297000Y-78162365D01*
X238297000Y-78357634D01*
X238327545Y-78550485D01*
X238387881Y-78736184D01*
X238387882Y-78736187D01*
X238448129Y-78854426D01*
X238466709Y-78890892D01*
X238476531Y-78910167D01*
X238591293Y-79068125D01*
X238591297Y-79068130D01*
X238729369Y-79206202D01*
X238729374Y-79206206D01*
X238792836Y-79252313D01*
X238887336Y-79320971D01*
X238982972Y-79369700D01*
X239061312Y-79409617D01*
X239061315Y-79409618D01*
X239154164Y-79439786D01*
X239247016Y-79469955D01*
X239336335Y-79484101D01*
X239439866Y-79500500D01*
X239439871Y-79500500D01*
X241155134Y-79500500D01*
X241248625Y-79485691D01*
X241347984Y-79469955D01*
X241533687Y-79409617D01*
X241707664Y-79320971D01*
X241865632Y-79206201D01*
X242003701Y-79068132D01*
X242118471Y-78910164D01*
X242207117Y-78736187D01*
X242267455Y-78550484D01*
X242284241Y-78444500D01*
X242298000Y-78357634D01*
X242298000Y-78162365D01*
X242280230Y-78050174D01*
X242267455Y-77969516D01*
X242207117Y-77783813D01*
X242207117Y-77783812D01*
X242139312Y-77650739D01*
X242118471Y-77609836D01*
X242042666Y-77505499D01*
X242003706Y-77451874D01*
X242003702Y-77451869D01*
X241865630Y-77313797D01*
X241865625Y-77313793D01*
X241707667Y-77199031D01*
X241707666Y-77199030D01*
X241707664Y-77199029D01*
X241651926Y-77170629D01*
X241533687Y-77110382D01*
X241533684Y-77110381D01*
X241347985Y-77050045D01*
X241155134Y-77019500D01*
X241155129Y-77019500D01*
X239439871Y-77019500D01*
X239439866Y-77019500D01*
X239247014Y-77050045D01*
X239061315Y-77110381D01*
X239061312Y-77110382D01*
X238887332Y-77199031D01*
X238729374Y-77313793D01*
X238729369Y-77313797D01*
X238591297Y-77451869D01*
X238591293Y-77451874D01*
X238476531Y-77609832D01*
X238387882Y-77783812D01*
X238387881Y-77783815D01*
X238327545Y-77969514D01*
X238297000Y-78162365D01*
X193138317Y-78162365D01*
X193758863Y-77541819D01*
X193820186Y-77508334D01*
X193846544Y-77505500D01*
X197896142Y-77505500D01*
X197896144Y-77505500D01*
X197985288Y-77481614D01*
X198065212Y-77435470D01*
X200971574Y-74529108D01*
X227339500Y-74529108D01*
X227339500Y-74660891D01*
X227373608Y-74788187D01*
X227406554Y-74845250D01*
X227439500Y-74902314D01*
X227532686Y-74995500D01*
X227631521Y-75052563D01*
X227643926Y-75059725D01*
X227646814Y-75061392D01*
X227774108Y-75095500D01*
X227774110Y-75095500D01*
X227905890Y-75095500D01*
X227905892Y-75095500D01*
X228033186Y-75061392D01*
X228033187Y-75061391D01*
X228039406Y-75059725D01*
X228071499Y-75055500D01*
X234406142Y-75055500D01*
X234406144Y-75055500D01*
X234495288Y-75031614D01*
X234575212Y-74985470D01*
X236470470Y-73090212D01*
X236516614Y-73010288D01*
X236540500Y-72921144D01*
X236540500Y-72828856D01*
X236540500Y-72335729D01*
X238297000Y-72335729D01*
X238297000Y-74024260D01*
X238297001Y-74024266D01*
X238299854Y-74054700D01*
X238299854Y-74054702D01*
X238299855Y-74054703D01*
X238299855Y-74054705D01*
X238344706Y-74182882D01*
X238425349Y-74292150D01*
X238479983Y-74332471D01*
X238534617Y-74372793D01*
X238577344Y-74387744D01*
X238662798Y-74417646D01*
X238669823Y-74418304D01*
X238693233Y-74420500D01*
X241901766Y-74420499D01*
X241932200Y-74417646D01*
X242060383Y-74372793D01*
X242169650Y-74292150D01*
X242250293Y-74182883D01*
X242272719Y-74118791D01*
X242295146Y-74054702D01*
X242295146Y-74054700D01*
X242298000Y-74024267D01*
X242297999Y-72335734D01*
X242295146Y-72305300D01*
X242281178Y-72265383D01*
X242250293Y-72177117D01*
X242169650Y-72067849D01*
X242095623Y-72013215D01*
X242060383Y-71987207D01*
X242060381Y-71987206D01*
X241932201Y-71942353D01*
X241901770Y-71939500D01*
X238693239Y-71939500D01*
X238679251Y-71940811D01*
X238662800Y-71942354D01*
X238662797Y-71942354D01*
X238662796Y-71942355D01*
X238662794Y-71942355D01*
X238534617Y-71987206D01*
X238425349Y-72067849D01*
X238344706Y-72177118D01*
X238299853Y-72305297D01*
X238299853Y-72305299D01*
X238297000Y-72335729D01*
X236540500Y-72335729D01*
X236540500Y-64290730D01*
X244164500Y-64290730D01*
X244164500Y-65599269D01*
X244167353Y-65629699D01*
X244167353Y-65629701D01*
X244209989Y-65751544D01*
X244212207Y-65757882D01*
X244292850Y-65867150D01*
X244402118Y-65947793D01*
X244444845Y-65962744D01*
X244530299Y-65992646D01*
X244560730Y-65995500D01*
X244560734Y-65995500D01*
X246119270Y-65995500D01*
X246149699Y-65992646D01*
X246149701Y-65992646D01*
X246213790Y-65970219D01*
X246277882Y-65947793D01*
X246387150Y-65867150D01*
X246467793Y-65757882D01*
X246500692Y-65663863D01*
X246512646Y-65629701D01*
X246512646Y-65629699D01*
X246515500Y-65599269D01*
X246515500Y-64290730D01*
X246512646Y-64260300D01*
X246512646Y-64260298D01*
X246467793Y-64132119D01*
X246467792Y-64132117D01*
X246387150Y-64022850D01*
X246277882Y-63942207D01*
X246277880Y-63942206D01*
X246149700Y-63897353D01*
X246119270Y-63894500D01*
X246119266Y-63894500D01*
X244560734Y-63894500D01*
X244560730Y-63894500D01*
X244530300Y-63897353D01*
X244530298Y-63897353D01*
X244402119Y-63942206D01*
X244402117Y-63942207D01*
X244292850Y-64022850D01*
X244212207Y-64132117D01*
X244212206Y-64132119D01*
X244167353Y-64260298D01*
X244167353Y-64260300D01*
X244164500Y-64290730D01*
X236540500Y-64290730D01*
X236540500Y-62341530D01*
X244164500Y-62341530D01*
X244164500Y-62548469D01*
X244204868Y-62751412D01*
X244204870Y-62751420D01*
X244284058Y-62942596D01*
X244399024Y-63114657D01*
X244545342Y-63260975D01*
X244545345Y-63260977D01*
X244717402Y-63375941D01*
X244908580Y-63455130D01*
X245106508Y-63494500D01*
X245111530Y-63495499D01*
X245111534Y-63495500D01*
X245111535Y-63495500D01*
X245568466Y-63495500D01*
X245568467Y-63495499D01*
X245771420Y-63455130D01*
X245962598Y-63375941D01*
X246134655Y-63260977D01*
X246280977Y-63114655D01*
X246395941Y-62942598D01*
X246475130Y-62751420D01*
X246515500Y-62548465D01*
X246515500Y-62341535D01*
X246475130Y-62138580D01*
X246395941Y-61947402D01*
X246280977Y-61775345D01*
X246280975Y-61775342D01*
X246134657Y-61629024D01*
X246048626Y-61571541D01*
X245962598Y-61514059D01*
X245859958Y-61471544D01*
X245771420Y-61434870D01*
X245771412Y-61434868D01*
X245568469Y-61394500D01*
X245568465Y-61394500D01*
X245111535Y-61394500D01*
X245111530Y-61394500D01*
X244908587Y-61434868D01*
X244908579Y-61434870D01*
X244717403Y-61514058D01*
X244545342Y-61629024D01*
X244399024Y-61775342D01*
X244284058Y-61947403D01*
X244204870Y-62138579D01*
X244204868Y-62138587D01*
X244164500Y-62341530D01*
X236540500Y-62341530D01*
X236540500Y-60121544D01*
X236560185Y-60054505D01*
X236576819Y-60033863D01*
X237218863Y-59391819D01*
X237280186Y-59358334D01*
X237306544Y-59355500D01*
X240171324Y-59355500D01*
X240238363Y-59375185D01*
X240259005Y-59391819D01*
X240272686Y-59405500D01*
X240386814Y-59471392D01*
X240514108Y-59505500D01*
X240514110Y-59505500D01*
X240645890Y-59505500D01*
X240645892Y-59505500D01*
X240773186Y-59471392D01*
X240887314Y-59405500D01*
X240980500Y-59312314D01*
X241046392Y-59198186D01*
X241080500Y-59070892D01*
X241080500Y-58939108D01*
X241046392Y-58811814D01*
X240980500Y-58697686D01*
X240887314Y-58604500D01*
X240778391Y-58541613D01*
X240730176Y-58491045D01*
X240716954Y-58422438D01*
X240742922Y-58357574D01*
X240778392Y-58326839D01*
X240782506Y-58324464D01*
X240867314Y-58275500D01*
X240960500Y-58182314D01*
X241026392Y-58068186D01*
X241060500Y-57940892D01*
X241060500Y-57809108D01*
X241026392Y-57681814D01*
X240960500Y-57567686D01*
X240867314Y-57474500D01*
X240776815Y-57422250D01*
X240753187Y-57408608D01*
X240655618Y-57382465D01*
X240625892Y-57374500D01*
X240494108Y-57374500D01*
X240366812Y-57408608D01*
X240252686Y-57474500D01*
X240252683Y-57474502D01*
X240239005Y-57488181D01*
X240177682Y-57521666D01*
X240151324Y-57524500D01*
X236233856Y-57524500D01*
X236144712Y-57548386D01*
X236144711Y-57548386D01*
X236144709Y-57548387D01*
X236144706Y-57548388D01*
X236064794Y-57594526D01*
X236064785Y-57594533D01*
X234349531Y-59309786D01*
X234349529Y-59309788D01*
X234325052Y-59352184D01*
X234308146Y-59381468D01*
X234308144Y-59381472D01*
X234303386Y-59389711D01*
X234279500Y-59478856D01*
X234279500Y-71318456D01*
X234259815Y-71385495D01*
X234243181Y-71406137D01*
X233431137Y-72218181D01*
X233369814Y-72251666D01*
X233343456Y-72254500D01*
X230908676Y-72254500D01*
X230841637Y-72234815D01*
X230820995Y-72218181D01*
X230807316Y-72204502D01*
X230807314Y-72204500D01*
X230750250Y-72171554D01*
X230693187Y-72138608D01*
X230629539Y-72121554D01*
X230565892Y-72104500D01*
X230434108Y-72104500D01*
X230306812Y-72138608D01*
X230192686Y-72204500D01*
X230192683Y-72204502D01*
X230099502Y-72297683D01*
X230099500Y-72297686D01*
X230033608Y-72411812D01*
X229999500Y-72539108D01*
X229999500Y-72670891D01*
X230033608Y-72798187D01*
X230054591Y-72834530D01*
X230099500Y-72912314D01*
X230192686Y-73005500D01*
X230306814Y-73071392D01*
X230434108Y-73105500D01*
X230434110Y-73105500D01*
X230565890Y-73105500D01*
X230565892Y-73105500D01*
X230693186Y-73071392D01*
X230807314Y-73005500D01*
X230820995Y-72991819D01*
X230882318Y-72958334D01*
X230908676Y-72955500D01*
X233586142Y-72955500D01*
X233586144Y-72955500D01*
X233675288Y-72931614D01*
X233685912Y-72925480D01*
X233755212Y-72885470D01*
X234910470Y-71730212D01*
X234956614Y-71650288D01*
X234980500Y-71561144D01*
X234980500Y-71468856D01*
X234980500Y-59721543D01*
X235000185Y-59654504D01*
X235016819Y-59633862D01*
X236388862Y-58261819D01*
X236450185Y-58228334D01*
X236476543Y-58225500D01*
X240151324Y-58225500D01*
X240218363Y-58245185D01*
X240218848Y-58245497D01*
X240229781Y-58252595D01*
X240252686Y-58275500D01*
X240364419Y-58340009D01*
X240367131Y-58341770D01*
X240387862Y-58365921D01*
X240409823Y-58388953D01*
X240410457Y-58392244D01*
X240412640Y-58394787D01*
X240417022Y-58426309D01*
X240423045Y-58457560D01*
X240421799Y-58460671D01*
X240422261Y-58463991D01*
X240408903Y-58492882D01*
X240397077Y-58522425D01*
X240394022Y-58525071D01*
X240392941Y-58527411D01*
X240386855Y-58531282D01*
X240361608Y-58553159D01*
X240272692Y-58604496D01*
X240272683Y-58604502D01*
X240259005Y-58618181D01*
X240197682Y-58651666D01*
X240171324Y-58654500D01*
X237063856Y-58654500D01*
X236974711Y-58678386D01*
X236894787Y-58724531D01*
X236894784Y-58724533D01*
X235909531Y-59709786D01*
X235909527Y-59709791D01*
X235863387Y-59789709D01*
X235863386Y-59789712D01*
X235839500Y-59878856D01*
X235839500Y-72678456D01*
X235819815Y-72745495D01*
X235803181Y-72766137D01*
X234251137Y-74318181D01*
X234189814Y-74351666D01*
X234163456Y-74354500D01*
X228350667Y-74354500D01*
X228283628Y-74334815D01*
X228243281Y-74292502D01*
X228240502Y-74287689D01*
X228240498Y-74287684D01*
X228147316Y-74194502D01*
X228147314Y-74194500D01*
X228090250Y-74161554D01*
X228033187Y-74128608D01*
X227969539Y-74111554D01*
X227905892Y-74094500D01*
X227774108Y-74094500D01*
X227646812Y-74128608D01*
X227532686Y-74194500D01*
X227532683Y-74194502D01*
X227439502Y-74287683D01*
X227439500Y-74287686D01*
X227373608Y-74401812D01*
X227339500Y-74529108D01*
X200971574Y-74529108D01*
X201998863Y-73501819D01*
X202060186Y-73468334D01*
X202086544Y-73465500D01*
X207416142Y-73465500D01*
X207416144Y-73465500D01*
X207505288Y-73441614D01*
X207585212Y-73395470D01*
X208211574Y-72769108D01*
X222669500Y-72769108D01*
X222669500Y-72900892D01*
X222676088Y-72925480D01*
X222703608Y-73028187D01*
X222728552Y-73071391D01*
X222769500Y-73142314D01*
X222862686Y-73235500D01*
X222976814Y-73301392D01*
X223104108Y-73335500D01*
X223104110Y-73335500D01*
X223235890Y-73335500D01*
X223235892Y-73335500D01*
X223363186Y-73301392D01*
X223477314Y-73235500D01*
X223500995Y-73211819D01*
X223562318Y-73178334D01*
X223588676Y-73175500D01*
X228041324Y-73175500D01*
X228108363Y-73195185D01*
X228129005Y-73211819D01*
X228142686Y-73225500D01*
X228256814Y-73291392D01*
X228384108Y-73325500D01*
X228384110Y-73325500D01*
X228515890Y-73325500D01*
X228515892Y-73325500D01*
X228643186Y-73291392D01*
X228757314Y-73225500D01*
X228850500Y-73132314D01*
X228916392Y-73018186D01*
X228950500Y-72890892D01*
X228950500Y-72759108D01*
X228916392Y-72631814D01*
X228850500Y-72517686D01*
X228757314Y-72424500D01*
X228700250Y-72391554D01*
X228643187Y-72358608D01*
X228557818Y-72335734D01*
X228515892Y-72324500D01*
X228384108Y-72324500D01*
X228256812Y-72358608D01*
X228142686Y-72424500D01*
X228142683Y-72424502D01*
X228129005Y-72438181D01*
X228067682Y-72471666D01*
X228041324Y-72474500D01*
X223568676Y-72474500D01*
X223501637Y-72454815D01*
X223480995Y-72438181D01*
X223477316Y-72434502D01*
X223477314Y-72434500D01*
X223420250Y-72401554D01*
X223363187Y-72368608D01*
X223299539Y-72351554D01*
X223235892Y-72334500D01*
X223104108Y-72334500D01*
X222976812Y-72368608D01*
X222862686Y-72434500D01*
X222862683Y-72434502D01*
X222769502Y-72527683D01*
X222769500Y-72527686D01*
X222703608Y-72641812D01*
X222675827Y-72745495D01*
X222669500Y-72769108D01*
X208211574Y-72769108D01*
X209701574Y-71279108D01*
X222649500Y-71279108D01*
X222649500Y-71410891D01*
X222683608Y-71538187D01*
X222716554Y-71595250D01*
X222749500Y-71652314D01*
X222842686Y-71745500D01*
X222956814Y-71811392D01*
X223084108Y-71845500D01*
X223084110Y-71845500D01*
X223215890Y-71845500D01*
X223215892Y-71845500D01*
X223343186Y-71811392D01*
X223457314Y-71745500D01*
X223470995Y-71731819D01*
X223532318Y-71698334D01*
X223558676Y-71695500D01*
X231814820Y-71695500D01*
X231876821Y-71712113D01*
X231882684Y-71715498D01*
X231882686Y-71715500D01*
X231996814Y-71781392D01*
X232124108Y-71815500D01*
X232124110Y-71815500D01*
X232255890Y-71815500D01*
X232255892Y-71815500D01*
X232383186Y-71781392D01*
X232497314Y-71715500D01*
X232590500Y-71622314D01*
X232656392Y-71508186D01*
X232690500Y-71380892D01*
X232690500Y-71249108D01*
X232656392Y-71121814D01*
X232590500Y-71007686D01*
X232497314Y-70914500D01*
X232435147Y-70878608D01*
X232383187Y-70848608D01*
X232319539Y-70831554D01*
X232255892Y-70814500D01*
X232124108Y-70814500D01*
X231996812Y-70848608D01*
X231882686Y-70914500D01*
X231882683Y-70914502D01*
X231839005Y-70958181D01*
X231777682Y-70991666D01*
X231751324Y-70994500D01*
X223558676Y-70994500D01*
X223491637Y-70974815D01*
X223470995Y-70958181D01*
X223457316Y-70944502D01*
X223457314Y-70944500D01*
X223400250Y-70911554D01*
X223343187Y-70878608D01*
X223266969Y-70858186D01*
X223215892Y-70844500D01*
X223084108Y-70844500D01*
X222956812Y-70878608D01*
X222842686Y-70944500D01*
X222842683Y-70944502D01*
X222749502Y-71037683D01*
X222749500Y-71037686D01*
X222683608Y-71151812D01*
X222649500Y-71279108D01*
X209701574Y-71279108D01*
X211750470Y-69230212D01*
X211796614Y-69150288D01*
X211820500Y-69061144D01*
X211820500Y-65751544D01*
X211840185Y-65684505D01*
X211856819Y-65663863D01*
X213108863Y-64411819D01*
X213170186Y-64378334D01*
X213196544Y-64375500D01*
X214481324Y-64375500D01*
X214548363Y-64395185D01*
X214569005Y-64411819D01*
X214582686Y-64425500D01*
X214696814Y-64491392D01*
X214824108Y-64525500D01*
X214824110Y-64525500D01*
X214955890Y-64525500D01*
X214955892Y-64525500D01*
X215083186Y-64491392D01*
X215197314Y-64425500D01*
X215290500Y-64332314D01*
X215356392Y-64218186D01*
X215390500Y-64090892D01*
X215390500Y-63959108D01*
X215356392Y-63831814D01*
X215290500Y-63717686D01*
X215197314Y-63624500D01*
X215140250Y-63591554D01*
X215083187Y-63558608D01*
X215011787Y-63539477D01*
X214955892Y-63524500D01*
X214824108Y-63524500D01*
X214696812Y-63558608D01*
X214582686Y-63624500D01*
X214582683Y-63624502D01*
X214569005Y-63638181D01*
X214507682Y-63671666D01*
X214481324Y-63674500D01*
X212953856Y-63674500D01*
X212864712Y-63698386D01*
X212864709Y-63698387D01*
X212784791Y-63744527D01*
X212784786Y-63744531D01*
X211189531Y-65339786D01*
X211189529Y-65339789D01*
X211150451Y-65407476D01*
X211150449Y-65407478D01*
X211143387Y-65419709D01*
X211119500Y-65508856D01*
X211119500Y-68818456D01*
X211099815Y-68885495D01*
X211083181Y-68906137D01*
X207261137Y-72728181D01*
X207199814Y-72761666D01*
X207173456Y-72764500D01*
X201843856Y-72764500D01*
X201754712Y-72788386D01*
X201754709Y-72788387D01*
X201674791Y-72834527D01*
X201674786Y-72834531D01*
X197741137Y-76768181D01*
X197679814Y-76801666D01*
X197653456Y-76804500D01*
X193603856Y-76804500D01*
X193514712Y-76828386D01*
X193514709Y-76828387D01*
X193434791Y-76874527D01*
X193434786Y-76874531D01*
X190639531Y-79669786D01*
X190639525Y-79669794D01*
X190603239Y-79732645D01*
X190603239Y-79732646D01*
X190593387Y-79749709D01*
X190593386Y-79749712D01*
X190569500Y-79838856D01*
X190569500Y-84366324D01*
X190549815Y-84433363D01*
X190533181Y-84454005D01*
X190519502Y-84467683D01*
X190519500Y-84467686D01*
X190453608Y-84581812D01*
X190419500Y-84709108D01*
X190419500Y-84840891D01*
X190453608Y-84968187D01*
X190486554Y-85025250D01*
X190519500Y-85082314D01*
X190612686Y-85175500D01*
X190726814Y-85241392D01*
X190854108Y-85275500D01*
X190854110Y-85275500D01*
X190954456Y-85275500D01*
X191021495Y-85295185D01*
X191067250Y-85347989D01*
X191077194Y-85417147D01*
X191048169Y-85480703D01*
X191042137Y-85487181D01*
X190171137Y-86358181D01*
X190109814Y-86391666D01*
X190083456Y-86394500D01*
X187988676Y-86394500D01*
X187921637Y-86374815D01*
X187900995Y-86358181D01*
X187887316Y-86344502D01*
X187887314Y-86344500D01*
X187830250Y-86311554D01*
X187773187Y-86278608D01*
X187709539Y-86261554D01*
X187645892Y-86244500D01*
X187514108Y-86244500D01*
X187386812Y-86278608D01*
X187272686Y-86344500D01*
X187272683Y-86344502D01*
X187179502Y-86437683D01*
X187179500Y-86437686D01*
X187113608Y-86551812D01*
X187079500Y-86679108D01*
X179383617Y-86679108D01*
X179337125Y-86587863D01*
X179194643Y-86391754D01*
X179023245Y-86220356D01*
X178827136Y-86077874D01*
X178611159Y-85967827D01*
X178380618Y-85892920D01*
X178141200Y-85855000D01*
X177510000Y-85855000D01*
X177510000Y-86740879D01*
X177464182Y-86721901D01*
X177328944Y-86695000D01*
X177191056Y-86695000D01*
X177055818Y-86721901D01*
X177010000Y-86740879D01*
X177010000Y-85855000D01*
X176378800Y-85855000D01*
X176139381Y-85892920D01*
X175908840Y-85967827D01*
X175692863Y-86077874D01*
X175496754Y-86220356D01*
X175325356Y-86391754D01*
X175182874Y-86587863D01*
X175072827Y-86803840D01*
X174997919Y-87034381D01*
X174980400Y-87145000D01*
X160610500Y-87145000D01*
X160610500Y-77650729D01*
X175259500Y-77650729D01*
X175259500Y-79339260D01*
X175259501Y-79339266D01*
X175262354Y-79369700D01*
X175262354Y-79369702D01*
X175262355Y-79369703D01*
X175262355Y-79369705D01*
X175307206Y-79497882D01*
X175387849Y-79607150D01*
X175442483Y-79647471D01*
X175497117Y-79687793D01*
X175539844Y-79702744D01*
X175625298Y-79732646D01*
X175632323Y-79733304D01*
X175655733Y-79735500D01*
X178864266Y-79735499D01*
X178894700Y-79732646D01*
X179022883Y-79687793D01*
X179132150Y-79607150D01*
X179212793Y-79497883D01*
X179235219Y-79433791D01*
X179257646Y-79369702D01*
X179257646Y-79369700D01*
X179259915Y-79345500D01*
X179260500Y-79339267D01*
X179260499Y-77650734D01*
X179257646Y-77620300D01*
X179212793Y-77492117D01*
X179170987Y-77435472D01*
X179132150Y-77382849D01*
X179058123Y-77328215D01*
X179022883Y-77302207D01*
X179022881Y-77302206D01*
X178894701Y-77257353D01*
X178864270Y-77254500D01*
X175655739Y-77254500D01*
X175641751Y-77255811D01*
X175625300Y-77257354D01*
X175625297Y-77257354D01*
X175625296Y-77257355D01*
X175625294Y-77257355D01*
X175497117Y-77302206D01*
X175387849Y-77382849D01*
X175307206Y-77492118D01*
X175262353Y-77620297D01*
X175262353Y-77620299D01*
X175259500Y-77650729D01*
X160610500Y-77650729D01*
X160610500Y-73317365D01*
X175259500Y-73317365D01*
X175259500Y-73512634D01*
X175290045Y-73705485D01*
X175350381Y-73891184D01*
X175350382Y-73891187D01*
X175410629Y-74009426D01*
X175433698Y-74054702D01*
X175439031Y-74065167D01*
X175553793Y-74223125D01*
X175553797Y-74223130D01*
X175691869Y-74361202D01*
X175691874Y-74361206D01*
X175747764Y-74401812D01*
X175849836Y-74475971D01*
X175954123Y-74529108D01*
X176023812Y-74564617D01*
X176023815Y-74564618D01*
X176116664Y-74594786D01*
X176209516Y-74624955D01*
X176298835Y-74639101D01*
X176402366Y-74655500D01*
X176402371Y-74655500D01*
X178117634Y-74655500D01*
X178211125Y-74640691D01*
X178310484Y-74624955D01*
X178496187Y-74564617D01*
X178670164Y-74475971D01*
X178828132Y-74361201D01*
X178966201Y-74223132D01*
X179080971Y-74065164D01*
X179169617Y-73891187D01*
X179229955Y-73705484D01*
X179245691Y-73606125D01*
X179260500Y-73512634D01*
X179260500Y-73317365D01*
X179232774Y-73142316D01*
X179229955Y-73124516D01*
X179169617Y-72938813D01*
X179169617Y-72938812D01*
X179097964Y-72798187D01*
X179080971Y-72764836D01*
X179018213Y-72678456D01*
X178966206Y-72606874D01*
X178966202Y-72606869D01*
X178828130Y-72468797D01*
X178828125Y-72468793D01*
X178670167Y-72354031D01*
X178670166Y-72354030D01*
X178670164Y-72354029D01*
X178612210Y-72324500D01*
X178496187Y-72265382D01*
X178496184Y-72265381D01*
X178310485Y-72205045D01*
X178117634Y-72174500D01*
X178117629Y-72174500D01*
X176402371Y-72174500D01*
X176402366Y-72174500D01*
X176209514Y-72205045D01*
X176023815Y-72265381D01*
X176023812Y-72265382D01*
X175849832Y-72354031D01*
X175691874Y-72468793D01*
X175691869Y-72468797D01*
X175553797Y-72606869D01*
X175553793Y-72606874D01*
X175439031Y-72764832D01*
X175350382Y-72938812D01*
X175350381Y-72938815D01*
X175290045Y-73124514D01*
X175259500Y-73317365D01*
X160610500Y-73317365D01*
X160610500Y-70599108D01*
X191559500Y-70599108D01*
X191559500Y-70730892D01*
X191571452Y-70775499D01*
X191593608Y-70858187D01*
X191626121Y-70914500D01*
X191659500Y-70972314D01*
X191752686Y-71065500D01*
X191866814Y-71131392D01*
X191994108Y-71165500D01*
X191994110Y-71165500D01*
X192125890Y-71165500D01*
X192125892Y-71165500D01*
X192253186Y-71131392D01*
X192367314Y-71065500D01*
X192380995Y-71051819D01*
X192442318Y-71018334D01*
X192468676Y-71015500D01*
X206806142Y-71015500D01*
X206806144Y-71015500D01*
X206895288Y-70991614D01*
X206905912Y-70985480D01*
X206975212Y-70945470D01*
X210100470Y-67820212D01*
X210146614Y-67740288D01*
X210170500Y-67651143D01*
X210170500Y-67558856D01*
X210170500Y-62671543D01*
X210190185Y-62604504D01*
X210206819Y-62583862D01*
X212098862Y-60691819D01*
X212160185Y-60658334D01*
X212186543Y-60655500D01*
X216601324Y-60655500D01*
X216668363Y-60675185D01*
X216689005Y-60691819D01*
X216702686Y-60705500D01*
X216816814Y-60771392D01*
X216944108Y-60805500D01*
X216944110Y-60805500D01*
X217075890Y-60805500D01*
X217075892Y-60805500D01*
X217203186Y-60771392D01*
X217317314Y-60705500D01*
X217407819Y-60614995D01*
X217469142Y-60581510D01*
X217538834Y-60586494D01*
X217594767Y-60628366D01*
X217619184Y-60693830D01*
X217619500Y-60702676D01*
X217619500Y-68409456D01*
X217599815Y-68476495D01*
X217583181Y-68497137D01*
X217179531Y-68900786D01*
X217179527Y-68900791D01*
X217147365Y-68956499D01*
X217147365Y-68956500D01*
X217133386Y-68980710D01*
X217109500Y-69069856D01*
X217109500Y-70136324D01*
X217089815Y-70203363D01*
X217073181Y-70224005D01*
X217059502Y-70237683D01*
X217059500Y-70237686D01*
X216993608Y-70351812D01*
X216959500Y-70479108D01*
X216959500Y-70610891D01*
X216993608Y-70738187D01*
X217015151Y-70775499D01*
X217059500Y-70852314D01*
X217152686Y-70945500D01*
X217266814Y-71011392D01*
X217394108Y-71045500D01*
X217394110Y-71045500D01*
X217525890Y-71045500D01*
X217525892Y-71045500D01*
X217653186Y-71011392D01*
X217767314Y-70945500D01*
X217860500Y-70852314D01*
X217925610Y-70739539D01*
X217976176Y-70691326D01*
X218044783Y-70678102D01*
X218094993Y-70694152D01*
X218176814Y-70741392D01*
X218304108Y-70775500D01*
X218304110Y-70775500D01*
X218435890Y-70775500D01*
X218435892Y-70775500D01*
X218563186Y-70741392D01*
X218677314Y-70675500D01*
X218770500Y-70582314D01*
X218836392Y-70468186D01*
X218870500Y-70340892D01*
X218870500Y-70321544D01*
X218890185Y-70254505D01*
X218906819Y-70233863D01*
X219058868Y-70081814D01*
X219230470Y-69910212D01*
X219276614Y-69830288D01*
X219291562Y-69774500D01*
X219300500Y-69741144D01*
X219300500Y-59268856D01*
X219276614Y-59179712D01*
X219264995Y-59159587D01*
X219230470Y-59099788D01*
X217426819Y-57296137D01*
X217393334Y-57234814D01*
X217390500Y-57208456D01*
X217390500Y-55953676D01*
X217410185Y-55886637D01*
X217426819Y-55865995D01*
X217440500Y-55852314D01*
X217506392Y-55738186D01*
X217540500Y-55610892D01*
X217540500Y-55479108D01*
X217506392Y-55351814D01*
X217440500Y-55237686D01*
X217347314Y-55144500D01*
X217290250Y-55111554D01*
X217233187Y-55078608D01*
X217169539Y-55061554D01*
X217105892Y-55044500D01*
X216974108Y-55044500D01*
X216846812Y-55078608D01*
X216732686Y-55144500D01*
X216732683Y-55144502D01*
X216639502Y-55237683D01*
X216639500Y-55237686D01*
X216621887Y-55268193D01*
X216571319Y-55316408D01*
X216502712Y-55329630D01*
X216437848Y-55303662D01*
X216397320Y-55246748D01*
X216390500Y-55206192D01*
X216390500Y-54661544D01*
X216410185Y-54594505D01*
X216426819Y-54573863D01*
X216798863Y-54201819D01*
X216860186Y-54168334D01*
X216886544Y-54165500D01*
X216905890Y-54165500D01*
X216905892Y-54165500D01*
X217033186Y-54131392D01*
X217147314Y-54065500D01*
X217240500Y-53972314D01*
X217306392Y-53858186D01*
X217340500Y-53730892D01*
X217340500Y-53599108D01*
X217306392Y-53471814D01*
X217240500Y-53357686D01*
X217147314Y-53264500D01*
X217075173Y-53222849D01*
X217033187Y-53198608D01*
X216946945Y-53175500D01*
X216905892Y-53164500D01*
X216774108Y-53164500D01*
X216646812Y-53198608D01*
X216532686Y-53264500D01*
X216532683Y-53264502D01*
X216439502Y-53357683D01*
X216439500Y-53357686D01*
X216373608Y-53471812D01*
X216339500Y-53599108D01*
X216339500Y-53618456D01*
X216319815Y-53685495D01*
X216303181Y-53706137D01*
X215759532Y-54249785D01*
X215759528Y-54249791D01*
X215718062Y-54321610D01*
X215718061Y-54321614D01*
X215713386Y-54329712D01*
X215689500Y-54418856D01*
X215689500Y-57501144D01*
X215702159Y-57548386D01*
X215703802Y-57554519D01*
X215713386Y-57590289D01*
X215713387Y-57590290D01*
X215759527Y-57670208D01*
X215759531Y-57670213D01*
X217583181Y-59493863D01*
X217616666Y-59555186D01*
X217619500Y-59581544D01*
X217619500Y-59907324D01*
X217599815Y-59974363D01*
X217547011Y-60020118D01*
X217477853Y-60030062D01*
X217414297Y-60001037D01*
X217407819Y-59995005D01*
X217317316Y-59904502D01*
X217317314Y-59904500D01*
X217260250Y-59871554D01*
X217203187Y-59838608D01*
X217139539Y-59821554D01*
X217075892Y-59804500D01*
X216944108Y-59804500D01*
X216816812Y-59838608D01*
X216702686Y-59904500D01*
X216702683Y-59904502D01*
X216689005Y-59918181D01*
X216627682Y-59951666D01*
X216601324Y-59954500D01*
X211943856Y-59954500D01*
X211854712Y-59978386D01*
X211854711Y-59978386D01*
X211854709Y-59978387D01*
X211854706Y-59978388D01*
X211774794Y-60024526D01*
X211774785Y-60024533D01*
X209539531Y-62259786D01*
X209539527Y-62259791D01*
X209493387Y-62339709D01*
X209493386Y-62339712D01*
X209469500Y-62428856D01*
X209469500Y-67408456D01*
X209449815Y-67475495D01*
X209433181Y-67496137D01*
X206651137Y-70278181D01*
X206589814Y-70311666D01*
X206563456Y-70314500D01*
X192468676Y-70314500D01*
X192401637Y-70294815D01*
X192380995Y-70278181D01*
X192367316Y-70264502D01*
X192367314Y-70264500D01*
X192297175Y-70224005D01*
X192253187Y-70198608D01*
X192189539Y-70181554D01*
X192125892Y-70164500D01*
X191994108Y-70164500D01*
X191866812Y-70198608D01*
X191752686Y-70264500D01*
X191752683Y-70264502D01*
X191659502Y-70357683D01*
X191659500Y-70357686D01*
X191593608Y-70471812D01*
X191568177Y-70566725D01*
X191559500Y-70599108D01*
X160610500Y-70599108D01*
X160610500Y-68085000D01*
X174980400Y-68085000D01*
X176605879Y-68085000D01*
X176586901Y-68130818D01*
X176560000Y-68266056D01*
X176560000Y-68403944D01*
X176586901Y-68539182D01*
X176605879Y-68585000D01*
X174980400Y-68585000D01*
X174997919Y-68695618D01*
X175072827Y-68926159D01*
X175182874Y-69142136D01*
X175325356Y-69338245D01*
X175496754Y-69509643D01*
X175692863Y-69652125D01*
X175908840Y-69762172D01*
X176139381Y-69837079D01*
X176378800Y-69875000D01*
X177010000Y-69875000D01*
X177010000Y-68989120D01*
X177055818Y-69008099D01*
X177191056Y-69035000D01*
X177328944Y-69035000D01*
X177464182Y-69008099D01*
X177510000Y-68989120D01*
X177510000Y-69875000D01*
X178141200Y-69875000D01*
X178380618Y-69837079D01*
X178611159Y-69762172D01*
X178827136Y-69652125D01*
X179023245Y-69509643D01*
X179194643Y-69338245D01*
X179337125Y-69142136D01*
X179447172Y-68926159D01*
X179522080Y-68695618D01*
X179539600Y-68585000D01*
X177914121Y-68585000D01*
X177933099Y-68539182D01*
X177960000Y-68403944D01*
X177960000Y-68266056D01*
X177933099Y-68130818D01*
X177914121Y-68085000D01*
X179539600Y-68085000D01*
X179522080Y-67974381D01*
X179447172Y-67743840D01*
X179337125Y-67527863D01*
X179194643Y-67331754D01*
X179023245Y-67160356D01*
X178827136Y-67017874D01*
X178611159Y-66907827D01*
X178380618Y-66832920D01*
X178141200Y-66795000D01*
X177510000Y-66795000D01*
X177510000Y-67680879D01*
X177464182Y-67661901D01*
X177328944Y-67635000D01*
X177191056Y-67635000D01*
X177055818Y-67661901D01*
X177010000Y-67680879D01*
X177010000Y-66795000D01*
X176378800Y-66795000D01*
X176139381Y-66832920D01*
X175908840Y-66907827D01*
X175692863Y-67017874D01*
X175496754Y-67160356D01*
X175325356Y-67331754D01*
X175182874Y-67527863D01*
X175072827Y-67743840D01*
X174997919Y-67974381D01*
X174980400Y-68085000D01*
X160610500Y-68085000D01*
X160610500Y-65999108D01*
X186959500Y-65999108D01*
X186959500Y-66130891D01*
X186993608Y-66258187D01*
X187026554Y-66315250D01*
X187059500Y-66372314D01*
X187152686Y-66465500D01*
X187266814Y-66531392D01*
X187394108Y-66565500D01*
X187394110Y-66565500D01*
X187525890Y-66565500D01*
X187525892Y-66565500D01*
X187653186Y-66531392D01*
X187767314Y-66465500D01*
X187860500Y-66372314D01*
X187897921Y-66307498D01*
X187948487Y-66259285D01*
X188005307Y-66245500D01*
X191103456Y-66245500D01*
X191170495Y-66265185D01*
X191191137Y-66281819D01*
X191583181Y-66673863D01*
X191616666Y-66735186D01*
X191619500Y-66761544D01*
X191619500Y-67781145D01*
X191630611Y-67822614D01*
X191630612Y-67822614D01*
X191643386Y-67870289D01*
X191643387Y-67870290D01*
X191689527Y-67950208D01*
X191689529Y-67950211D01*
X191689530Y-67950212D01*
X192329788Y-68590470D01*
X192399085Y-68630478D01*
X192399087Y-68630480D01*
X192406342Y-68634668D01*
X192409712Y-68636614D01*
X192498856Y-68660500D01*
X197796324Y-68660500D01*
X197863363Y-68680185D01*
X197884005Y-68696819D01*
X197897686Y-68710500D01*
X198011814Y-68776392D01*
X198139108Y-68810500D01*
X198139110Y-68810500D01*
X198270890Y-68810500D01*
X198270892Y-68810500D01*
X198398186Y-68776392D01*
X198512314Y-68710500D01*
X198605500Y-68617314D01*
X198671392Y-68503186D01*
X198705500Y-68375892D01*
X198705500Y-68244108D01*
X198671392Y-68116814D01*
X198605500Y-68002686D01*
X198512314Y-67909500D01*
X198455250Y-67876554D01*
X198398187Y-67843608D01*
X198334539Y-67826554D01*
X198270892Y-67809500D01*
X198139108Y-67809500D01*
X198011812Y-67843608D01*
X197897686Y-67909500D01*
X197897683Y-67909502D01*
X197884005Y-67923181D01*
X197822682Y-67956666D01*
X197796324Y-67959500D01*
X192741544Y-67959500D01*
X192674505Y-67939815D01*
X192653863Y-67923181D01*
X192356819Y-67626137D01*
X192323334Y-67564814D01*
X192320500Y-67538456D01*
X192320500Y-66518858D01*
X192320500Y-66518856D01*
X192296614Y-66429712D01*
X192274618Y-66391614D01*
X192250470Y-66349788D01*
X191515212Y-65614530D01*
X191515211Y-65614529D01*
X191515208Y-65614527D01*
X191435290Y-65568387D01*
X191435283Y-65568384D01*
X191420786Y-65564499D01*
X191420786Y-65564500D01*
X191383464Y-65554500D01*
X191346144Y-65544500D01*
X187583856Y-65544500D01*
X187583854Y-65544500D01*
X187524981Y-65560275D01*
X187492889Y-65564500D01*
X187394108Y-65564500D01*
X187266812Y-65598608D01*
X187152686Y-65664500D01*
X187152683Y-65664502D01*
X187059502Y-65757683D01*
X187059500Y-65757686D01*
X186993608Y-65871812D01*
X186959500Y-65999108D01*
X160610500Y-65999108D01*
X160610500Y-63829108D01*
X189389500Y-63829108D01*
X189389500Y-63960891D01*
X189423608Y-64088187D01*
X189425170Y-64090892D01*
X189489500Y-64202314D01*
X189582686Y-64295500D01*
X189696814Y-64361392D01*
X189824108Y-64395500D01*
X189824110Y-64395500D01*
X189955890Y-64395500D01*
X189955892Y-64395500D01*
X190083186Y-64361392D01*
X190197314Y-64295500D01*
X190210995Y-64281819D01*
X190272318Y-64248334D01*
X190298676Y-64245500D01*
X190576142Y-64245500D01*
X190576144Y-64245500D01*
X190665288Y-64221614D01*
X190745212Y-64175470D01*
X191560470Y-63360212D01*
X191606614Y-63280288D01*
X191611788Y-63260977D01*
X191630500Y-63191144D01*
X191630500Y-61471544D01*
X191650185Y-61404505D01*
X191666819Y-61383863D01*
X192398863Y-60651819D01*
X192460186Y-60618334D01*
X192486544Y-60615500D01*
X206996142Y-60615500D01*
X206996144Y-60615500D01*
X207085288Y-60591614D01*
X207165212Y-60545470D01*
X208788863Y-58921819D01*
X208850186Y-58888334D01*
X208876544Y-58885500D01*
X211741324Y-58885500D01*
X211808363Y-58905185D01*
X211829005Y-58921819D01*
X211842686Y-58935500D01*
X211956814Y-59001392D01*
X212084108Y-59035500D01*
X212084110Y-59035500D01*
X212215890Y-59035500D01*
X212215892Y-59035500D01*
X212343186Y-59001392D01*
X212457314Y-58935500D01*
X212550500Y-58842314D01*
X212616392Y-58728186D01*
X212650500Y-58600892D01*
X212650500Y-58469108D01*
X212616392Y-58341814D01*
X212616148Y-58341392D01*
X212578105Y-58275500D01*
X212550500Y-58227686D01*
X212457314Y-58134500D01*
X212400250Y-58101554D01*
X212343187Y-58068608D01*
X212279539Y-58051554D01*
X212215892Y-58034500D01*
X212084108Y-58034500D01*
X211956812Y-58068608D01*
X211842686Y-58134500D01*
X211842683Y-58134502D01*
X211829005Y-58148181D01*
X211767682Y-58181666D01*
X211741324Y-58184500D01*
X208633856Y-58184500D01*
X208544711Y-58208386D01*
X208464787Y-58254531D01*
X208464784Y-58254533D01*
X206841137Y-59878181D01*
X206779814Y-59911666D01*
X206753456Y-59914500D01*
X192243856Y-59914500D01*
X192154712Y-59938386D01*
X192154709Y-59938387D01*
X192074791Y-59984527D01*
X192074786Y-59984531D01*
X190999531Y-61059786D01*
X190999527Y-61059791D01*
X190953387Y-61139709D01*
X190953386Y-61139712D01*
X190929500Y-61228856D01*
X190929500Y-62948456D01*
X190909815Y-63015495D01*
X190893181Y-63036137D01*
X190421137Y-63508181D01*
X190394209Y-63522884D01*
X190368391Y-63539477D01*
X190362190Y-63540368D01*
X190359814Y-63541666D01*
X190333456Y-63544500D01*
X190298676Y-63544500D01*
X190231637Y-63524815D01*
X190210995Y-63508181D01*
X190197316Y-63494502D01*
X190197314Y-63494500D01*
X190129125Y-63455131D01*
X190083187Y-63428608D01*
X190019539Y-63411554D01*
X189955892Y-63394500D01*
X189824108Y-63394500D01*
X189696812Y-63428608D01*
X189582686Y-63494500D01*
X189582683Y-63494502D01*
X189489502Y-63587683D01*
X189489500Y-63587686D01*
X189423608Y-63701812D01*
X189389500Y-63829108D01*
X160610500Y-63829108D01*
X160610500Y-60054568D01*
X161479500Y-60054568D01*
X161479500Y-60335431D01*
X161510942Y-60614494D01*
X161510945Y-60614512D01*
X161573439Y-60888317D01*
X161573443Y-60888329D01*
X161666200Y-61153411D01*
X161788053Y-61406442D01*
X161805914Y-61434868D01*
X161937477Y-61644248D01*
X162112584Y-61863825D01*
X162311175Y-62062416D01*
X162530752Y-62237523D01*
X162768555Y-62386945D01*
X163021592Y-62508801D01*
X163134957Y-62548469D01*
X163286670Y-62601556D01*
X163286682Y-62601560D01*
X163560491Y-62664055D01*
X163560497Y-62664055D01*
X163560505Y-62664057D01*
X163746547Y-62685018D01*
X163839569Y-62695499D01*
X163839572Y-62695500D01*
X163839575Y-62695500D01*
X164120428Y-62695500D01*
X164120429Y-62695499D01*
X164263055Y-62679429D01*
X164399494Y-62664057D01*
X164399499Y-62664056D01*
X164399509Y-62664055D01*
X164673318Y-62601560D01*
X164938408Y-62508801D01*
X165191445Y-62386945D01*
X165429248Y-62237523D01*
X165648825Y-62062416D01*
X165847416Y-61863825D01*
X166022523Y-61644248D01*
X166171945Y-61406445D01*
X166293801Y-61153408D01*
X166386560Y-60888318D01*
X166449055Y-60614509D01*
X166449303Y-60612314D01*
X166480499Y-60335431D01*
X166480500Y-60335427D01*
X166480500Y-60054572D01*
X166480499Y-60054568D01*
X166479811Y-60048466D01*
X166465132Y-59918181D01*
X166449057Y-59775505D01*
X166449054Y-59775487D01*
X166386560Y-59501682D01*
X166386556Y-59501670D01*
X166359330Y-59423863D01*
X166293801Y-59236592D01*
X166171945Y-58983555D01*
X166022523Y-58745752D01*
X165847416Y-58526175D01*
X165648825Y-58327584D01*
X165644906Y-58324459D01*
X165557222Y-58254533D01*
X165429248Y-58152477D01*
X165191445Y-58003055D01*
X165191442Y-58003053D01*
X164938411Y-57881200D01*
X164673329Y-57788443D01*
X164673317Y-57788439D01*
X164399512Y-57725945D01*
X164399494Y-57725942D01*
X164120431Y-57694500D01*
X164120425Y-57694500D01*
X163839575Y-57694500D01*
X163839568Y-57694500D01*
X163560505Y-57725942D01*
X163560487Y-57725945D01*
X163286682Y-57788439D01*
X163286670Y-57788443D01*
X163021588Y-57881200D01*
X162768557Y-58003053D01*
X162530753Y-58152476D01*
X162311175Y-58327583D01*
X162112583Y-58526175D01*
X161937476Y-58745753D01*
X161788053Y-58983557D01*
X161666200Y-59236588D01*
X161573443Y-59501670D01*
X161573439Y-59501682D01*
X161510945Y-59775487D01*
X161510942Y-59775505D01*
X161479500Y-60054568D01*
X160610500Y-60054568D01*
X160610500Y-52136562D01*
X160610540Y-52133421D01*
X160612170Y-52069108D01*
X160629030Y-51403747D01*
X160629348Y-51397483D01*
X160633760Y-51339555D01*
X160684654Y-50671230D01*
X160685290Y-50664984D01*
X160728578Y-50325095D01*
X160777307Y-49942486D01*
X160778257Y-49936286D01*
X160780476Y-49923905D01*
X160906758Y-49219324D01*
X160908009Y-49213239D01*
X161065340Y-48535247D01*
X167472045Y-48535247D01*
X167472045Y-51574752D01*
X167483676Y-51633229D01*
X167483677Y-51633230D01*
X167527992Y-51699552D01*
X167594314Y-51743867D01*
X167594315Y-51743868D01*
X167652792Y-51755499D01*
X167652795Y-51755500D01*
X167652797Y-51755500D01*
X170692295Y-51755500D01*
X170692296Y-51755499D01*
X170707113Y-51752552D01*
X170750774Y-51743868D01*
X170750774Y-51743867D01*
X170750776Y-51743867D01*
X170817097Y-51699552D01*
X170861412Y-51633231D01*
X170861412Y-51633229D01*
X170861413Y-51633229D01*
X170873045Y-51574751D01*
X170873045Y-49923905D01*
X187972545Y-49923905D01*
X187972545Y-50186094D01*
X188006765Y-50446009D01*
X188006767Y-50446020D01*
X188074620Y-50699255D01*
X188174949Y-50941471D01*
X188174954Y-50941482D01*
X188306033Y-51168516D01*
X188306039Y-51168524D01*
X188392625Y-51281365D01*
X189294966Y-50379024D01*
X189307904Y-50410258D01*
X189389982Y-50533097D01*
X189494448Y-50637563D01*
X189617287Y-50719641D01*
X189648519Y-50732577D01*
X188746178Y-51634917D01*
X188746178Y-51634918D01*
X188859020Y-51721505D01*
X188859028Y-51721511D01*
X189086062Y-51852590D01*
X189086073Y-51852595D01*
X189328289Y-51952924D01*
X189581524Y-52020777D01*
X189581535Y-52020779D01*
X189841450Y-52054999D01*
X189841465Y-52055000D01*
X190103625Y-52055000D01*
X190103639Y-52054999D01*
X190363554Y-52020779D01*
X190363565Y-52020777D01*
X190556399Y-51969108D01*
X204969500Y-51969108D01*
X204969500Y-52100892D01*
X204974188Y-52118387D01*
X205003608Y-52228187D01*
X205034858Y-52282313D01*
X205069500Y-52342314D01*
X205162686Y-52435500D01*
X205276814Y-52501392D01*
X205404108Y-52535500D01*
X205404110Y-52535500D01*
X205535890Y-52535500D01*
X205535892Y-52535500D01*
X205663186Y-52501392D01*
X205777314Y-52435500D01*
X205790995Y-52421819D01*
X205852318Y-52388334D01*
X205878676Y-52385500D01*
X208156781Y-52385500D01*
X208218780Y-52402112D01*
X208286814Y-52441392D01*
X208414108Y-52475500D01*
X208414110Y-52475500D01*
X208545890Y-52475500D01*
X208545892Y-52475500D01*
X208673186Y-52441392D01*
X208787314Y-52375500D01*
X208880500Y-52282314D01*
X208946392Y-52168186D01*
X208980500Y-52040892D01*
X208980500Y-51909108D01*
X208946392Y-51781814D01*
X208880500Y-51667686D01*
X208787314Y-51574500D01*
X208718032Y-51534500D01*
X208673187Y-51508608D01*
X208609539Y-51491554D01*
X208545892Y-51474500D01*
X208414108Y-51474500D01*
X208286812Y-51508608D01*
X208172686Y-51574500D01*
X208099004Y-51648182D01*
X208037680Y-51681666D01*
X208011323Y-51684500D01*
X205878676Y-51684500D01*
X205811637Y-51664815D01*
X205790995Y-51648181D01*
X205777316Y-51634502D01*
X205777314Y-51634500D01*
X205720250Y-51601554D01*
X205663187Y-51568608D01*
X205597061Y-51550890D01*
X205535892Y-51534500D01*
X205404108Y-51534500D01*
X205276812Y-51568608D01*
X205162686Y-51634500D01*
X205162683Y-51634502D01*
X205069502Y-51727683D01*
X205069500Y-51727686D01*
X205003608Y-51841812D01*
X204991902Y-51885500D01*
X204969500Y-51969108D01*
X190556399Y-51969108D01*
X190616800Y-51952924D01*
X190859016Y-51852595D01*
X190859027Y-51852590D01*
X191086061Y-51721511D01*
X191086079Y-51721499D01*
X191198910Y-51634919D01*
X191198910Y-51634917D01*
X190296570Y-50732578D01*
X190327803Y-50719641D01*
X190450642Y-50637563D01*
X190555108Y-50533097D01*
X190637186Y-50410258D01*
X190650122Y-50379025D01*
X191552462Y-51281365D01*
X191552464Y-51281365D01*
X191639044Y-51168534D01*
X191639056Y-51168516D01*
X191770135Y-50941482D01*
X191770140Y-50941471D01*
X191870469Y-50699255D01*
X191938322Y-50446020D01*
X191938324Y-50446009D01*
X191972544Y-50186094D01*
X191972545Y-50186080D01*
X191972545Y-49923919D01*
X191972544Y-49923905D01*
X191938324Y-49663990D01*
X191938322Y-49663979D01*
X191870469Y-49410744D01*
X191770140Y-49168528D01*
X191770135Y-49168517D01*
X191639056Y-48941483D01*
X191639050Y-48941475D01*
X191552463Y-48828633D01*
X191552462Y-48828633D01*
X190650122Y-49730973D01*
X190637186Y-49699742D01*
X190555108Y-49576903D01*
X190450642Y-49472437D01*
X190327803Y-49390359D01*
X190296568Y-49377421D01*
X191198910Y-48475080D01*
X191086069Y-48388494D01*
X191086061Y-48388488D01*
X190859027Y-48257409D01*
X190859011Y-48257401D01*
X190757952Y-48215542D01*
X190757951Y-48215542D01*
X190616800Y-48157075D01*
X190437782Y-48109108D01*
X203309500Y-48109108D01*
X203309500Y-48240892D01*
X203315106Y-48261814D01*
X203343608Y-48368187D01*
X203355334Y-48388496D01*
X203409500Y-48482314D01*
X203502686Y-48575500D01*
X203616814Y-48641392D01*
X203744108Y-48675500D01*
X203763456Y-48675500D01*
X203830495Y-48695185D01*
X203851137Y-48711819D01*
X204497500Y-49358181D01*
X205099531Y-49960212D01*
X205164788Y-50025469D01*
X205164791Y-50025470D01*
X205164794Y-50025473D01*
X205244706Y-50071611D01*
X205244707Y-50071611D01*
X205244712Y-50071614D01*
X205333856Y-50095500D01*
X223723456Y-50095500D01*
X223790495Y-50115185D01*
X223811137Y-50131819D01*
X226784788Y-53105470D01*
X226828729Y-53130839D01*
X226832667Y-53133113D01*
X226880883Y-53183680D01*
X226894106Y-53252287D01*
X226868138Y-53317152D01*
X226811223Y-53357680D01*
X226770667Y-53364500D01*
X221856544Y-53364500D01*
X221789505Y-53344815D01*
X221768863Y-53328181D01*
X220025213Y-51584531D01*
X220025208Y-51584527D01*
X219945290Y-51538387D01*
X219945289Y-51538386D01*
X219945288Y-51538386D01*
X219856144Y-51514500D01*
X219856143Y-51514500D01*
X219658676Y-51514500D01*
X219591637Y-51494815D01*
X219570995Y-51478181D01*
X219557316Y-51464502D01*
X219557314Y-51464500D01*
X219487876Y-51424410D01*
X219443187Y-51398608D01*
X219379539Y-51381554D01*
X219315892Y-51364500D01*
X219184108Y-51364500D01*
X219056812Y-51398608D01*
X218942686Y-51464500D01*
X218942683Y-51464502D01*
X218849502Y-51557683D01*
X218849500Y-51557686D01*
X218783608Y-51671812D01*
X218755868Y-51775342D01*
X218749500Y-51799108D01*
X218749500Y-51930892D01*
X218759740Y-51969108D01*
X218783608Y-52058187D01*
X218804574Y-52094500D01*
X218849500Y-52172314D01*
X218942686Y-52265500D01*
X219056814Y-52331392D01*
X219184108Y-52365500D01*
X219184110Y-52365500D01*
X219315890Y-52365500D01*
X219315892Y-52365500D01*
X219443186Y-52331392D01*
X219557314Y-52265500D01*
X219557319Y-52265494D01*
X219560157Y-52263318D01*
X219562988Y-52262223D01*
X219564352Y-52261436D01*
X219564474Y-52261648D01*
X219625326Y-52238121D01*
X219693771Y-52252158D01*
X219723328Y-52274010D01*
X221444788Y-53995470D01*
X221514122Y-54035500D01*
X221524712Y-54041614D01*
X221613856Y-54065500D01*
X234593456Y-54065500D01*
X234660495Y-54085185D01*
X234681137Y-54101819D01*
X235453181Y-54873863D01*
X235486666Y-54935186D01*
X235489500Y-54961544D01*
X235489500Y-56091143D01*
X235509155Y-56164497D01*
X235509155Y-56164498D01*
X235513385Y-56180287D01*
X235559527Y-56260208D01*
X235559529Y-56260211D01*
X235559530Y-56260212D01*
X236029531Y-56730212D01*
X236094788Y-56795469D01*
X236094791Y-56795470D01*
X236094794Y-56795473D01*
X236174706Y-56841611D01*
X236174707Y-56841611D01*
X236174712Y-56841614D01*
X236263856Y-56865500D01*
X236263858Y-56865500D01*
X241796142Y-56865500D01*
X241796144Y-56865500D01*
X241885288Y-56841614D01*
X241965212Y-56795470D01*
X243428863Y-55331819D01*
X243490186Y-55298334D01*
X243516544Y-55295500D01*
X244140275Y-55295500D01*
X244207314Y-55315185D01*
X244253069Y-55367989D01*
X244254836Y-55372048D01*
X244284056Y-55442594D01*
X244399024Y-55614657D01*
X244545342Y-55760975D01*
X244545345Y-55760977D01*
X244717402Y-55875941D01*
X244827990Y-55921748D01*
X244882393Y-55965589D01*
X244904458Y-56031883D01*
X244887179Y-56099582D01*
X244836042Y-56147193D01*
X244818856Y-56154240D01*
X244696781Y-56193905D01*
X244507442Y-56290379D01*
X244335540Y-56415272D01*
X244335535Y-56415276D01*
X244185276Y-56565535D01*
X244185272Y-56565540D01*
X244060379Y-56737442D01*
X243963904Y-56926782D01*
X243898242Y-57128870D01*
X243898242Y-57128873D01*
X243887769Y-57195000D01*
X244935854Y-57195000D01*
X244897370Y-57261657D01*
X244865000Y-57382465D01*
X244865000Y-57507535D01*
X244897370Y-57628343D01*
X244935854Y-57695000D01*
X243887769Y-57695000D01*
X243898242Y-57761126D01*
X243898242Y-57761129D01*
X243963904Y-57963217D01*
X244060379Y-58152557D01*
X244185272Y-58324459D01*
X244185276Y-58324464D01*
X244335535Y-58474723D01*
X244335540Y-58474727D01*
X244507442Y-58599620D01*
X244696782Y-58696095D01*
X244818855Y-58735759D01*
X244876530Y-58775196D01*
X244903729Y-58839555D01*
X244891815Y-58908401D01*
X244844570Y-58959877D01*
X244827990Y-58968251D01*
X244717404Y-59014057D01*
X244545342Y-59129024D01*
X244399024Y-59275342D01*
X244284058Y-59447403D01*
X244204870Y-59638579D01*
X244204868Y-59638587D01*
X244164500Y-59841530D01*
X244164500Y-60048469D01*
X244179036Y-60121544D01*
X244204870Y-60251420D01*
X244284059Y-60442598D01*
X244341541Y-60528626D01*
X244399024Y-60614657D01*
X244545342Y-60760975D01*
X244545345Y-60760977D01*
X244717402Y-60875941D01*
X244908580Y-60955130D01*
X245111530Y-60995499D01*
X245111534Y-60995500D01*
X245111535Y-60995500D01*
X245568466Y-60995500D01*
X245568467Y-60995499D01*
X245771420Y-60955130D01*
X245962598Y-60875941D01*
X246134655Y-60760977D01*
X246280977Y-60614655D01*
X246395941Y-60442598D01*
X246475130Y-60251420D01*
X246515500Y-60048465D01*
X246515500Y-59841535D01*
X246475130Y-59638580D01*
X246395941Y-59447402D01*
X246280977Y-59275345D01*
X246280975Y-59275342D01*
X246134657Y-59129024D01*
X245962596Y-59014057D01*
X245852009Y-58968251D01*
X245797606Y-58924410D01*
X245775541Y-58858116D01*
X245792820Y-58790416D01*
X245843958Y-58742806D01*
X245861144Y-58735759D01*
X245983217Y-58696095D01*
X246172557Y-58599620D01*
X246344459Y-58474727D01*
X246344464Y-58474723D01*
X246494723Y-58324464D01*
X246494727Y-58324459D01*
X246619620Y-58152557D01*
X246716095Y-57963217D01*
X246781757Y-57761129D01*
X246781757Y-57761126D01*
X246792231Y-57695000D01*
X245744146Y-57695000D01*
X245782630Y-57628343D01*
X245815000Y-57507535D01*
X245815000Y-57382465D01*
X245782630Y-57261657D01*
X245744146Y-57195000D01*
X246792231Y-57195000D01*
X246781757Y-57128873D01*
X246781757Y-57128870D01*
X246716095Y-56926782D01*
X246619620Y-56737442D01*
X246494727Y-56565540D01*
X246494723Y-56565535D01*
X246344464Y-56415276D01*
X246344459Y-56415272D01*
X246172557Y-56290379D01*
X245983216Y-56193904D01*
X245861144Y-56154240D01*
X245803468Y-56114802D01*
X245776270Y-56050444D01*
X245788185Y-55981597D01*
X245835429Y-55930122D01*
X245852006Y-55921749D01*
X245962598Y-55875941D01*
X246134655Y-55760977D01*
X246280977Y-55614655D01*
X246395941Y-55442598D01*
X246475130Y-55251420D01*
X246515500Y-55048465D01*
X246515500Y-54841535D01*
X246475130Y-54638580D01*
X246395941Y-54447402D01*
X246280977Y-54275345D01*
X246280975Y-54275342D01*
X246134657Y-54129024D01*
X245994687Y-54035500D01*
X245962598Y-54014059D01*
X245917720Y-53995470D01*
X245771420Y-53934870D01*
X245771412Y-53934868D01*
X245568469Y-53894500D01*
X245568465Y-53894500D01*
X245111535Y-53894500D01*
X245111530Y-53894500D01*
X244908587Y-53934868D01*
X244908579Y-53934870D01*
X244717403Y-54014058D01*
X244545342Y-54129024D01*
X244399024Y-54275342D01*
X244284056Y-54447405D01*
X244254836Y-54517952D01*
X244210995Y-54572356D01*
X244144701Y-54594421D01*
X244140275Y-54594500D01*
X243524430Y-54594500D01*
X243492337Y-54590275D01*
X243485288Y-54588386D01*
X243396144Y-54564500D01*
X243303857Y-54564500D01*
X243214712Y-54588386D01*
X243214709Y-54588387D01*
X243134791Y-54634527D01*
X243134786Y-54634531D01*
X241641137Y-56128181D01*
X241579814Y-56161666D01*
X241553456Y-56164500D01*
X236506543Y-56164500D01*
X236439504Y-56144815D01*
X236418862Y-56128181D01*
X236226819Y-55936137D01*
X236193334Y-55874814D01*
X236190500Y-55848456D01*
X236190500Y-54708858D01*
X236190500Y-54708856D01*
X236166614Y-54619712D01*
X236161112Y-54610182D01*
X236120473Y-54539794D01*
X236120471Y-54539791D01*
X236120469Y-54539788D01*
X236055212Y-54474531D01*
X236055211Y-54474530D01*
X236055209Y-54474529D01*
X236045687Y-54469031D01*
X236020008Y-54449326D01*
X235005213Y-53434531D01*
X235005205Y-53434525D01*
X234957334Y-53406887D01*
X234909118Y-53356321D01*
X234895894Y-53287714D01*
X234921862Y-53222849D01*
X234978776Y-53182320D01*
X235019333Y-53175500D01*
X240033456Y-53175500D01*
X240100495Y-53195185D01*
X240121137Y-53211819D01*
X240703181Y-53793863D01*
X240736666Y-53855186D01*
X240739500Y-53881544D01*
X240739500Y-54846324D01*
X240719815Y-54913363D01*
X240703181Y-54934005D01*
X240669502Y-54967683D01*
X240669500Y-54967686D01*
X240603608Y-55081812D01*
X240569500Y-55209108D01*
X240569500Y-55340891D01*
X240603608Y-55468187D01*
X240609915Y-55479110D01*
X240669500Y-55582314D01*
X240762686Y-55675500D01*
X240876814Y-55741392D01*
X241004108Y-55775500D01*
X241004110Y-55775500D01*
X241135890Y-55775500D01*
X241135892Y-55775500D01*
X241263186Y-55741392D01*
X241377314Y-55675500D01*
X241470500Y-55582314D01*
X241536392Y-55468186D01*
X241570500Y-55340892D01*
X241570500Y-55209108D01*
X241536392Y-55081814D01*
X241470500Y-54967686D01*
X241470498Y-54967684D01*
X241470497Y-54967682D01*
X241466124Y-54961983D01*
X241440930Y-54896814D01*
X241440500Y-54886497D01*
X241440500Y-53638858D01*
X241440500Y-53638856D01*
X241416614Y-53549712D01*
X241405067Y-53529712D01*
X241370470Y-53469788D01*
X240445212Y-52544530D01*
X240445211Y-52544529D01*
X240445208Y-52544527D01*
X240365290Y-52498387D01*
X240365289Y-52498386D01*
X240365288Y-52498386D01*
X240276144Y-52474500D01*
X240276143Y-52474500D01*
X227196544Y-52474500D01*
X227129505Y-52454815D01*
X227108863Y-52438181D01*
X224135213Y-49464531D01*
X224135208Y-49464527D01*
X224055290Y-49418387D01*
X224055289Y-49418386D01*
X224055288Y-49418386D01*
X224055285Y-49418385D01*
X224055282Y-49418384D01*
X224050930Y-49417217D01*
X224050930Y-49417218D01*
X224008536Y-49405859D01*
X223966144Y-49394500D01*
X223966143Y-49394500D01*
X205576543Y-49394500D01*
X205509504Y-49374815D01*
X205488862Y-49358181D01*
X204599344Y-48468662D01*
X204519790Y-48389108D01*
X206169500Y-48389108D01*
X206169500Y-48520892D01*
X206184131Y-48575497D01*
X206203608Y-48648187D01*
X206230003Y-48693904D01*
X206269500Y-48762314D01*
X206362686Y-48855500D01*
X206476814Y-48921392D01*
X206604108Y-48955500D01*
X206604110Y-48955500D01*
X206735890Y-48955500D01*
X206735892Y-48955500D01*
X206863186Y-48921392D01*
X206977314Y-48855500D01*
X206990995Y-48841819D01*
X207052318Y-48808334D01*
X207078676Y-48805500D01*
X225123456Y-48805500D01*
X225190495Y-48825185D01*
X225211137Y-48841819D01*
X228124788Y-51755470D01*
X228124789Y-51755471D01*
X228124791Y-51755472D01*
X228159207Y-51775342D01*
X228204712Y-51801614D01*
X228293856Y-51825500D01*
X240661324Y-51825500D01*
X240728363Y-51845185D01*
X240749005Y-51861819D01*
X240772686Y-51885500D01*
X240886814Y-51951392D01*
X241014108Y-51985500D01*
X241014110Y-51985500D01*
X241145890Y-51985500D01*
X241145892Y-51985500D01*
X241273186Y-51951392D01*
X241387314Y-51885500D01*
X241480500Y-51792314D01*
X241546392Y-51678186D01*
X241580500Y-51550892D01*
X241580500Y-51419108D01*
X241546392Y-51291814D01*
X241480500Y-51177686D01*
X241387314Y-51084500D01*
X241330250Y-51051554D01*
X241273187Y-51018608D01*
X241182724Y-50994369D01*
X241145892Y-50984500D01*
X241014108Y-50984500D01*
X240886812Y-51018608D01*
X240772686Y-51084500D01*
X240772683Y-51084502D01*
X240769005Y-51088181D01*
X240707682Y-51121666D01*
X240681324Y-51124500D01*
X228536544Y-51124500D01*
X228469505Y-51104815D01*
X228448863Y-51088181D01*
X225535213Y-48174531D01*
X225535208Y-48174527D01*
X225455290Y-48128387D01*
X225455289Y-48128386D01*
X225455288Y-48128386D01*
X225366144Y-48104500D01*
X225366143Y-48104500D01*
X207078676Y-48104500D01*
X207011637Y-48084815D01*
X206990995Y-48068181D01*
X206977316Y-48054502D01*
X206977314Y-48054500D01*
X206920250Y-48021554D01*
X206863187Y-47988608D01*
X206799539Y-47971554D01*
X206735892Y-47954500D01*
X206604108Y-47954500D01*
X206476812Y-47988608D01*
X206362686Y-48054500D01*
X206362683Y-48054502D01*
X206269502Y-48147683D01*
X206269500Y-48147686D01*
X206203608Y-48261812D01*
X206178773Y-48354500D01*
X206169500Y-48389108D01*
X204519790Y-48389108D01*
X204346819Y-48216137D01*
X204313334Y-48154814D01*
X204310500Y-48128456D01*
X204310500Y-48109110D01*
X204310500Y-48109108D01*
X204276392Y-47981814D01*
X204210500Y-47867686D01*
X204117314Y-47774500D01*
X204060250Y-47741554D01*
X204003187Y-47708608D01*
X203939539Y-47691554D01*
X203875892Y-47674500D01*
X203744108Y-47674500D01*
X203616812Y-47708608D01*
X203502686Y-47774500D01*
X203502683Y-47774502D01*
X203409502Y-47867683D01*
X203409500Y-47867686D01*
X203343608Y-47981812D01*
X203324132Y-48054500D01*
X203309500Y-48109108D01*
X190437782Y-48109108D01*
X190363565Y-48089222D01*
X190363554Y-48089220D01*
X190103639Y-48055000D01*
X189841450Y-48055000D01*
X189581535Y-48089220D01*
X189581524Y-48089222D01*
X189328289Y-48157075D01*
X189086073Y-48257404D01*
X189086062Y-48257409D01*
X188859016Y-48388496D01*
X188746178Y-48475079D01*
X188746178Y-48475080D01*
X189648519Y-49377421D01*
X189617287Y-49390359D01*
X189494448Y-49472437D01*
X189389982Y-49576903D01*
X189307904Y-49699742D01*
X189294966Y-49730974D01*
X188392625Y-48828633D01*
X188392624Y-48828633D01*
X188306041Y-48941471D01*
X188174954Y-49168517D01*
X188174949Y-49168528D01*
X188074620Y-49410744D01*
X188006767Y-49663979D01*
X188006765Y-49663990D01*
X187972545Y-49923905D01*
X170873045Y-49923905D01*
X170873045Y-48535249D01*
X170873044Y-48535247D01*
X170861413Y-48476770D01*
X170861412Y-48476769D01*
X170817097Y-48410447D01*
X170750775Y-48366132D01*
X170750774Y-48366131D01*
X170692297Y-48354500D01*
X170692293Y-48354500D01*
X167652797Y-48354500D01*
X167652792Y-48354500D01*
X167594315Y-48366131D01*
X167594314Y-48366132D01*
X167527992Y-48410447D01*
X167483677Y-48476769D01*
X167483676Y-48476770D01*
X167472045Y-48535247D01*
X161065340Y-48535247D01*
X161072658Y-48503713D01*
X161074215Y-48497696D01*
X161274601Y-47797376D01*
X161276469Y-47791425D01*
X161512055Y-47102195D01*
X161514216Y-47096358D01*
X161784420Y-46419917D01*
X161786874Y-46414198D01*
X162090969Y-45752364D01*
X162093729Y-45746736D01*
X162430957Y-45101147D01*
X162434006Y-45095654D01*
X162789045Y-44492530D01*
X162803501Y-44467972D01*
X162806801Y-44462678D01*
X163207625Y-43854497D01*
X163211176Y-43849396D01*
X163642312Y-43262266D01*
X163646114Y-43257355D01*
X164106403Y-42692858D01*
X164110490Y-42688097D01*
X164598789Y-42147623D01*
X164603079Y-42143111D01*
X165118111Y-41628079D01*
X165122623Y-41623789D01*
X165663102Y-41135484D01*
X165667864Y-41131398D01*
X166232355Y-40671114D01*
X166237295Y-40667292D01*
X166405203Y-40543995D01*
X191344499Y-40543995D01*
X191371418Y-40679322D01*
X191371421Y-40679332D01*
X191424221Y-40806804D01*
X191424228Y-40806817D01*
X191500885Y-40921541D01*
X191500888Y-40921545D01*
X191598454Y-41019111D01*
X191598458Y-41019114D01*
X191713182Y-41095771D01*
X191713195Y-41095778D01*
X191840667Y-41148578D01*
X191840672Y-41148580D01*
X191840676Y-41148580D01*
X191840677Y-41148581D01*
X191976004Y-41175500D01*
X191976007Y-41175500D01*
X192113995Y-41175500D01*
X192205041Y-41157389D01*
X192249328Y-41148580D01*
X192376811Y-41095775D01*
X192491542Y-41019114D01*
X192589114Y-40921542D01*
X192665775Y-40806811D01*
X192718580Y-40679328D01*
X192745500Y-40543993D01*
X192745500Y-40406007D01*
X192745500Y-40406004D01*
X192718581Y-40270677D01*
X192718580Y-40270676D01*
X192718580Y-40270672D01*
X192702813Y-40232607D01*
X192665778Y-40143195D01*
X192665771Y-40143182D01*
X192589114Y-40028458D01*
X192589111Y-40028454D01*
X192491545Y-39930888D01*
X192491541Y-39930885D01*
X192376817Y-39854228D01*
X192376804Y-39854221D01*
X192249332Y-39801421D01*
X192249322Y-39801418D01*
X192113995Y-39774500D01*
X192113993Y-39774500D01*
X191976007Y-39774500D01*
X191976005Y-39774500D01*
X191840677Y-39801418D01*
X191840667Y-39801421D01*
X191713195Y-39854221D01*
X191713182Y-39854228D01*
X191598458Y-39930885D01*
X191598454Y-39930888D01*
X191500888Y-40028454D01*
X191500885Y-40028458D01*
X191424228Y-40143182D01*
X191424221Y-40143195D01*
X191371421Y-40270667D01*
X191371418Y-40270677D01*
X191344500Y-40406004D01*
X191344500Y-40406007D01*
X191344500Y-40543993D01*
X191344500Y-40543995D01*
X191344499Y-40543995D01*
X166405203Y-40543995D01*
X166405206Y-40543993D01*
X166824377Y-40236189D01*
X166829497Y-40232625D01*
X167437678Y-39831801D01*
X167442972Y-39828501D01*
X168070662Y-39459001D01*
X168076138Y-39455961D01*
X168721748Y-39118722D01*
X168727364Y-39115969D01*
X169389198Y-38811874D01*
X169394917Y-38809420D01*
X170071358Y-38539216D01*
X170077195Y-38537055D01*
X170766425Y-38301469D01*
X170772376Y-38299601D01*
X171472681Y-38099219D01*
X171478713Y-38097658D01*
X172188239Y-37933009D01*
X172194324Y-37931758D01*
X172911296Y-37803255D01*
X172917486Y-37802307D01*
X173639988Y-37710289D01*
X173646230Y-37709654D01*
X174372494Y-37654347D01*
X174378747Y-37654030D01*
X175108422Y-37635540D01*
X175111558Y-37635500D01*
X175175892Y-37635500D01*
X175175901Y-37635497D01*
X175184175Y-37635497D01*
X191918562Y-37635497D01*
X191985601Y-37655182D01*
G37*
%TD.AperFunction*%
%TD*%
M02*
