%TF.GenerationSoftware,KiCad,Pcbnew,9.0.7*%
%TF.CreationDate,2026-09-27T13:25:34+05:30*%
%TF.ProjectId,WM2-WaterMaster,574d322d-5761-4746-9572-4d6173746572,rev?*%
%TF.SameCoordinates,Original*%
%TF.FileFunction,Soldermask,Bot*%
%TF.FilePolarity,Negative*%
%FSLAX46Y46*%
G04 Gerber Fmt 4.6, Leading zero omitted, Abs format (unit mm)*
G04 Created by KiCad (PCBNEW 9.0.7) date 2026-09-27 13:25:34*
%MOMM*%
%LPD*%
G01*
G04 APERTURE LIST*
G04 Aperture macros list*
%AMRoundRect*
0 Rectangle with rounded corners*
0 $1 Rounding radius*
0 $2 $3 $4 $5 $6 $7 $8 $9 X,Y pos of 4 corners*
0 Add a 4 corners polygon primitive as box body*
4,1,4,$2,$3,$4,$5,$6,$7,$8,$9,$2,$3,0*
0 Add four circle primitives for the rounded corners*
1,1,$1+$1,$2,$3*
1,1,$1+$1,$4,$5*
1,1,$1+$1,$6,$7*
1,1,$1+$1,$8,$9*
0 Add four rect primitives between the rounded corners*
20,1,$1+$1,$2,$3,$4,$5,0*
20,1,$1+$1,$4,$5,$6,$7,0*
20,1,$1+$1,$6,$7,$8,$9,0*
20,1,$1+$1,$8,$9,$2,$3,0*%
G04 Aperture macros list end*
%ADD10RoundRect,0.250000X0.725000X-0.600000X0.725000X0.600000X-0.725000X0.600000X-0.725000X-0.600000X0*%
%ADD11O,1.950000X1.700000*%
%ADD12C,4.500000*%
%ADD13C,1.000000*%
%ADD14R,3.000000X3.000000*%
%ADD15C,3.000000*%
%ADD16RoundRect,0.249999X-1.550001X0.790001X-1.550001X-0.790001X1.550001X-0.790001X1.550001X0.790001X0*%
%ADD17O,3.600000X2.080000*%
%ADD18RoundRect,0.249999X-0.790001X-1.550001X0.790001X-1.550001X0.790001X1.550001X-0.790001X1.550001X0*%
%ADD19O,2.080000X3.600000*%
%ADD20RoundRect,0.249999X1.550001X-0.790001X1.550001X0.790001X-1.550001X0.790001X-1.550001X-0.790001X0*%
%ADD21RoundRect,0.250000X-0.550000X-0.550000X0.550000X-0.550000X0.550000X0.550000X-0.550000X0.550000X0*%
%ADD22C,1.600000*%
%ADD23C,0.770000*%
G04 APERTURE END LIST*
D10*
%TO.C,J9*%
X245340000Y-64945000D03*
D11*
X245340000Y-62445000D03*
X245340000Y-59945000D03*
X245340000Y-57445000D03*
X245340000Y-54945000D03*
X245340000Y-52445000D03*
X245340000Y-49945000D03*
X245340000Y-47445000D03*
%TD*%
D12*
%TO.C,H3*%
X254080000Y-60195000D03*
%TD*%
D13*
%TO.C,Y1*%
X192045000Y-40475000D03*
X192045000Y-38575000D03*
%TD*%
D14*
%TO.C,BT1*%
X169172545Y-50055000D03*
D15*
X189972545Y-50055000D03*
%TD*%
D16*
%TO.C,J3*%
X240210000Y-92615000D03*
D17*
X240210000Y-97695000D03*
X240210000Y-102775000D03*
%TD*%
D18*
%TO.C,J8*%
X226585000Y-112097500D03*
D19*
X231665000Y-112097500D03*
%TD*%
D12*
%TO.C,H4*%
X163920000Y-110315000D03*
%TD*%
%TO.C,H1*%
X209100000Y-39945000D03*
%TD*%
D20*
%TO.C,J2*%
X177260000Y-78495000D03*
D17*
X177260000Y-73415000D03*
X177260000Y-68335000D03*
%TD*%
D21*
%TO.C,C9*%
X201049063Y-112895000D03*
X201720000Y-114495000D03*
D22*
X204220000Y-114495000D03*
X204890937Y-116095000D03*
%TD*%
D20*
%TO.C,J5*%
X177260000Y-97555000D03*
D17*
X177260000Y-92475000D03*
X177260000Y-87395000D03*
%TD*%
D18*
%TO.C,J7*%
X212875000Y-112077500D03*
D19*
X217955000Y-112077500D03*
%TD*%
D18*
%TO.C,J1*%
X174665000Y-112097500D03*
D19*
X179745000Y-112097500D03*
%TD*%
D23*
%TO.C,U1*%
X214195000Y-103980000D03*
X212895000Y-103980000D03*
X211595000Y-103980000D03*
X214195000Y-105280000D03*
X212895000Y-105280000D03*
X211595000Y-105280000D03*
%TD*%
D21*
%TO.C,C10*%
X219949063Y-102725000D03*
X220620000Y-104325000D03*
D22*
X223120000Y-104325000D03*
X223790937Y-105925000D03*
%TD*%
D23*
%TO.C,U2*%
X232005000Y-104510000D03*
X230705000Y-104510000D03*
X229405000Y-104510000D03*
X232005000Y-105810000D03*
X230705000Y-105810000D03*
X229405000Y-105810000D03*
%TD*%
D12*
%TO.C,H2*%
X163980000Y-60195000D03*
%TD*%
D18*
%TO.C,J6*%
X188195000Y-112097500D03*
D19*
X193275000Y-112097500D03*
%TD*%
D21*
%TO.C,C7*%
X240079063Y-112635000D03*
X240750000Y-114235000D03*
D22*
X243250000Y-114235000D03*
X243920937Y-115835000D03*
%TD*%
D12*
%TO.C,H5*%
X254070000Y-110315000D03*
%TD*%
D16*
%TO.C,J4*%
X240297500Y-73180000D03*
D17*
X240297500Y-78260000D03*
X240297500Y-83340000D03*
%TD*%
M02*
