%TF.GenerationSoftware,KiCad,Pcbnew,9.0.7*%
%TF.CreationDate,2026-09-27T13:25:34+05:30*%
%TF.ProjectId,WM2-WaterMaster,574d322d-5761-4746-9572-4d6173746572,rev?*%
%TF.SameCoordinates,Original*%
%TF.FileFunction,Paste,Top*%
%TF.FilePolarity,Positive*%
%FSLAX46Y46*%
G04 Gerber Fmt 4.6, Leading zero omitted, Abs format (unit mm)*
G04 Created by KiCad (PCBNEW 9.0.7) date 2026-09-27 13:25:34*
%MOMM*%
%LPD*%
G01*
G04 APERTURE LIST*
G04 Aperture macros list*
%AMRoundRect*
0 Rectangle with rounded corners*
0 $1 Rounding radius*
0 $2 $3 $4 $5 $6 $7 $8 $9 X,Y pos of 4 corners*
0 Add a 4 corners polygon primitive as box body*
4,1,4,$2,$3,$4,$5,$6,$7,$8,$9,$2,$3,0*
0 Add four circle primitives for the rounded corners*
1,1,$1+$1,$2,$3*
1,1,$1+$1,$4,$5*
1,1,$1+$1,$6,$7*
1,1,$1+$1,$8,$9*
0 Add four rect primitives between the rounded corners*
20,1,$1+$1,$2,$3,$4,$5,0*
20,1,$1+$1,$4,$5,$6,$7,0*
20,1,$1+$1,$6,$7,$8,$9,0*
20,1,$1+$1,$8,$9,$2,$3,0*%
G04 Aperture macros list end*
%ADD10RoundRect,0.250000X-0.325000X-0.650000X0.325000X-0.650000X0.325000X0.650000X-0.325000X0.650000X0*%
%ADD11RoundRect,0.250000X-0.450000X0.262500X-0.450000X-0.262500X0.450000X-0.262500X0.450000X0.262500X0*%
%ADD12RoundRect,0.250000X0.700000X-0.275000X0.700000X0.275000X-0.700000X0.275000X-0.700000X-0.275000X0*%
%ADD13RoundRect,0.250000X0.475000X-0.250000X0.475000X0.250000X-0.475000X0.250000X-0.475000X-0.250000X0*%
%ADD14RoundRect,0.250000X-0.262500X-0.450000X0.262500X-0.450000X0.262500X0.450000X-0.262500X0.450000X0*%
%ADD15RoundRect,0.250000X-0.250000X-0.475000X0.250000X-0.475000X0.250000X0.475000X-0.250000X0.475000X0*%
%ADD16RoundRect,0.250000X-0.412500X-0.650000X0.412500X-0.650000X0.412500X0.650000X-0.412500X0.650000X0*%
%ADD17RoundRect,0.150000X-0.825000X-0.150000X0.825000X-0.150000X0.825000X0.150000X-0.825000X0.150000X0*%
%ADD18RoundRect,0.250000X0.450000X-0.262500X0.450000X0.262500X-0.450000X0.262500X-0.450000X-0.262500X0*%
%ADD19RoundRect,0.250000X0.275000X0.700000X-0.275000X0.700000X-0.275000X-0.700000X0.275000X-0.700000X0*%
%ADD20RoundRect,0.250000X0.262500X0.450000X-0.262500X0.450000X-0.262500X-0.450000X0.262500X-0.450000X0*%
%ADD21RoundRect,0.150000X0.150000X-0.512500X0.150000X0.512500X-0.150000X0.512500X-0.150000X-0.512500X0*%
%ADD22RoundRect,0.250000X-0.475000X0.250000X-0.475000X-0.250000X0.475000X-0.250000X0.475000X0.250000X0*%
%ADD23RoundRect,0.250000X0.250000X0.475000X-0.250000X0.475000X-0.250000X-0.475000X0.250000X-0.475000X0*%
%ADD24R,2.000000X0.900000*%
%ADD25R,0.900000X1.500000*%
%ADD26R,0.900000X0.900000*%
%ADD27RoundRect,0.250000X0.325000X0.650000X-0.325000X0.650000X-0.325000X-0.650000X0.325000X-0.650000X0*%
%ADD28R,3.100000X2.400000*%
%ADD29R,0.500000X2.200000*%
%ADD30R,2.000000X2.250000*%
%ADD31R,4.500000X2.250000*%
%ADD32RoundRect,0.150000X-0.150000X0.512500X-0.150000X-0.512500X0.150000X-0.512500X0.150000X0.512500X0*%
%ADD33RoundRect,0.250000X-0.650000X1.250000X-0.650000X-1.250000X0.650000X-1.250000X0.650000X1.250000X0*%
%ADD34RoundRect,0.250000X-0.275000X-0.700000X0.275000X-0.700000X0.275000X0.700000X-0.275000X0.700000X0*%
G04 APERTURE END LIST*
D10*
%TO.C,LD6*%
X230290000Y-94635000D03*
X233240000Y-94635000D03*
%TD*%
D11*
%TO.C,R8*%
X233330000Y-89852500D03*
X233330000Y-91677500D03*
%TD*%
D10*
%TO.C,LD3*%
X184270000Y-73235000D03*
X187220000Y-73235000D03*
%TD*%
D12*
%TO.C,F2*%
X191980000Y-106040000D03*
X191980000Y-102890000D03*
%TD*%
D11*
%TO.C,R2*%
X186930000Y-69162500D03*
X186930000Y-70987500D03*
%TD*%
D13*
%TO.C,C18*%
X206150000Y-57095000D03*
X206150000Y-55195000D03*
%TD*%
D14*
%TO.C,R15*%
X209727500Y-59945000D03*
X211552500Y-59945000D03*
%TD*%
D10*
%TO.C,LD1*%
X201660000Y-72045000D03*
X204610000Y-72045000D03*
%TD*%
D11*
%TO.C,R16*%
X207840000Y-102372500D03*
X207840000Y-104197500D03*
%TD*%
D15*
%TO.C,C6*%
X200860000Y-104535000D03*
X202760000Y-104535000D03*
%TD*%
D14*
%TO.C,R14*%
X209737500Y-55295000D03*
X211562500Y-55295000D03*
%TD*%
D10*
%TO.C,LD7*%
X195470000Y-80575000D03*
X198420000Y-80575000D03*
%TD*%
D16*
%TO.C,C15*%
X195707500Y-86515000D03*
X198832500Y-86515000D03*
%TD*%
D17*
%TO.C,U5*%
X195605000Y-43290000D03*
X195605000Y-44560000D03*
X195605000Y-45830000D03*
X195605000Y-47100000D03*
X200555000Y-47100000D03*
X200555000Y-45830000D03*
X200555000Y-43290000D03*
%TD*%
D18*
%TO.C,R20*%
X224640000Y-82590000D03*
X224640000Y-80765000D03*
%TD*%
D19*
%TO.C,F3*%
X190605000Y-83065000D03*
X187455000Y-83065000D03*
%TD*%
D10*
%TO.C,LD4*%
X184440000Y-92470000D03*
X187390000Y-92470000D03*
%TD*%
D20*
%TO.C,R1*%
X197942500Y-77655000D03*
X196117500Y-77655000D03*
%TD*%
D21*
%TO.C,U3*%
X202190000Y-96002500D03*
X203140000Y-96002500D03*
X204090000Y-96002500D03*
X204090000Y-93727500D03*
X203140000Y-93727500D03*
X202190000Y-93727500D03*
%TD*%
D20*
%TO.C,R22*%
X216305000Y-69545000D03*
X214480000Y-69545000D03*
%TD*%
D11*
%TO.C,R9*%
X233070000Y-73772500D03*
X233070000Y-75597500D03*
%TD*%
%TO.C,R5*%
X187090000Y-88472500D03*
X187090000Y-90297500D03*
%TD*%
%TO.C,R3*%
X230780000Y-73762500D03*
X230780000Y-75587500D03*
%TD*%
D16*
%TO.C,C8*%
X200807500Y-102145000D03*
X203932500Y-102145000D03*
%TD*%
D22*
%TO.C,C17*%
X197120000Y-55315000D03*
X197120000Y-57215000D03*
%TD*%
D14*
%TO.C,R12*%
X209707500Y-57425000D03*
X211532500Y-57425000D03*
%TD*%
D23*
%TO.C,C1*%
X215880000Y-62135000D03*
X213980000Y-62135000D03*
%TD*%
D14*
%TO.C,R23*%
X197127500Y-65195000D03*
X198952500Y-65195000D03*
%TD*%
D23*
%TO.C,C3*%
X215980000Y-53065000D03*
X214080000Y-53065000D03*
%TD*%
D11*
%TO.C,R4*%
X230380000Y-89892500D03*
X230380000Y-91717500D03*
%TD*%
D20*
%TO.C,R25*%
X202392500Y-62065000D03*
X200567500Y-62065000D03*
%TD*%
D14*
%TO.C,R21*%
X209687500Y-50775000D03*
X211512500Y-50775000D03*
%TD*%
D18*
%TO.C,R19*%
X212690000Y-83157500D03*
X212690000Y-81332500D03*
%TD*%
D13*
%TO.C,C14*%
X217850000Y-50675000D03*
X217850000Y-48775000D03*
%TD*%
D24*
%TO.C,U4*%
X221350000Y-48955000D03*
X221350000Y-50225000D03*
X221350000Y-51495000D03*
X221350000Y-52765000D03*
X221350000Y-54035000D03*
X221350000Y-55305000D03*
X221350000Y-56575000D03*
X221350000Y-57845000D03*
X221350000Y-59115000D03*
X221350000Y-60385000D03*
X221350000Y-61655000D03*
X221350000Y-62925000D03*
X221350000Y-64195000D03*
X221350000Y-65465000D03*
D25*
X224390000Y-66905000D03*
X225660000Y-66930000D03*
X235820000Y-66930000D03*
D24*
X238850000Y-65465000D03*
X238850000Y-64195000D03*
X238850000Y-62925000D03*
X238850000Y-61655000D03*
X238850000Y-59115000D03*
X238850000Y-57845000D03*
X238850000Y-55305000D03*
X238850000Y-54035000D03*
X238850000Y-52765000D03*
X238850000Y-51495000D03*
X238850000Y-48955000D03*
D26*
X227200000Y-55275000D03*
X227200000Y-56675000D03*
X227200000Y-58075000D03*
X228600000Y-55275000D03*
X228600000Y-56675000D03*
X228600000Y-58075000D03*
X230000000Y-55275000D03*
X230000000Y-56675000D03*
X230000000Y-58075000D03*
%TD*%
D15*
%TO.C,C12*%
X202460000Y-90965000D03*
X204360000Y-90965000D03*
%TD*%
D27*
%TO.C,LD10*%
X222320000Y-80475000D03*
X219370000Y-80475000D03*
%TD*%
D11*
%TO.C,R10*%
X184780000Y-88422500D03*
X184780000Y-90247500D03*
%TD*%
D16*
%TO.C,C13*%
X195757500Y-88715000D03*
X198882500Y-88715000D03*
%TD*%
D14*
%TO.C,R13*%
X209707500Y-53135000D03*
X211532500Y-53135000D03*
%TD*%
D18*
%TO.C,R26*%
X205370000Y-50727500D03*
X205370000Y-48902500D03*
%TD*%
D10*
%TO.C,LD2*%
X213600000Y-71925000D03*
X216550000Y-71925000D03*
%TD*%
D28*
%TO.C,U1*%
X212895000Y-104630000D03*
D29*
X214800000Y-101755000D03*
X213530000Y-101755000D03*
X212260000Y-101755000D03*
X210990000Y-101755000D03*
X210990000Y-107505000D03*
X212260000Y-107505000D03*
X213530000Y-107505000D03*
X214800000Y-107505000D03*
%TD*%
D14*
%TO.C,R18*%
X202317500Y-69625000D03*
X204142500Y-69625000D03*
%TD*%
D18*
%TO.C,R27*%
X202860000Y-50757500D03*
X202860000Y-48932500D03*
%TD*%
D30*
%TO.C,SW1*%
X251930000Y-69985000D03*
X251930000Y-77735000D03*
%TD*%
D31*
%TO.C,L1*%
X195460000Y-91025000D03*
X195460000Y-97825000D03*
%TD*%
D28*
%TO.C,U2*%
X230705000Y-105160000D03*
D29*
X232610000Y-102285000D03*
X231340000Y-102285000D03*
X230070000Y-102285000D03*
X228800000Y-102285000D03*
X228800000Y-108035000D03*
X230070000Y-108035000D03*
X231340000Y-108035000D03*
X232610000Y-108035000D03*
%TD*%
D32*
%TO.C,U6*%
X202402500Y-55037500D03*
X201452500Y-55037500D03*
X200502500Y-55037500D03*
X200502500Y-57312500D03*
X202402500Y-57312500D03*
%TD*%
D10*
%TO.C,LD9*%
X207390000Y-83135000D03*
X210340000Y-83135000D03*
%TD*%
D11*
%TO.C,R6*%
X181950000Y-102682500D03*
X181950000Y-104507500D03*
%TD*%
D23*
%TO.C,C5*%
X216040000Y-59865000D03*
X214140000Y-59865000D03*
%TD*%
D33*
%TO.C,D6*%
X197130000Y-101987500D03*
X197105000Y-108112500D03*
%TD*%
D23*
%TO.C,C11*%
X215990000Y-50745000D03*
X214090000Y-50745000D03*
%TD*%
D34*
%TO.C,F1*%
X200845000Y-107265000D03*
X203995000Y-107265000D03*
%TD*%
D14*
%TO.C,R24*%
X197097500Y-62085000D03*
X198922500Y-62085000D03*
%TD*%
D27*
%TO.C,LD8*%
X210400000Y-80535000D03*
X207450000Y-80535000D03*
%TD*%
D18*
%TO.C,R17*%
X226070000Y-99147500D03*
X226070000Y-97322500D03*
%TD*%
D23*
%TO.C,C16*%
X202540000Y-65115000D03*
X200640000Y-65115000D03*
%TD*%
%TO.C,C2*%
X215980000Y-57535000D03*
X214080000Y-57535000D03*
%TD*%
D14*
%TO.C,R11*%
X209767500Y-62115000D03*
X211592500Y-62115000D03*
%TD*%
D10*
%TO.C,LD5*%
X230360000Y-77735000D03*
X233310000Y-77735000D03*
%TD*%
D11*
%TO.C,R7*%
X184560000Y-69192500D03*
X184560000Y-71017500D03*
%TD*%
D23*
%TO.C,C4*%
X215920000Y-55315000D03*
X214020000Y-55315000D03*
%TD*%
D10*
%TO.C,LD11*%
X219440000Y-83145000D03*
X222390000Y-83145000D03*
%TD*%
M02*
