%TF.GenerationSoftware,KiCad,Pcbnew,9.0.7*%
%TF.CreationDate,2026-09-27T13:25:34+05:30*%
%TF.ProjectId,WM2-WaterMaster,574d322d-5761-4746-9572-4d6173746572,rev?*%
%TF.SameCoordinates,Original*%
%TF.FileFunction,Legend,Bot*%
%TF.FilePolarity,Positive*%
%FSLAX46Y46*%
G04 Gerber Fmt 4.6, Leading zero omitted, Abs format (unit mm)*
G04 Created by KiCad (PCBNEW 9.0.7) date 2026-09-27 13:25:34*
%MOMM*%
%LPD*%
G01*
G04 APERTURE LIST*
%ADD10C,0.240000*%
G04 APERTURE END LIST*
D10*
X241842855Y-40110872D02*
X241271427Y-40110872D01*
X241957141Y-40453729D02*
X241557141Y-39253729D01*
X241557141Y-39253729D02*
X241157141Y-40453729D01*
X240242856Y-39653729D02*
X240242856Y-40625158D01*
X240242856Y-40625158D02*
X240299998Y-40739444D01*
X240299998Y-40739444D02*
X240357141Y-40796587D01*
X240357141Y-40796587D02*
X240471427Y-40853729D01*
X240471427Y-40853729D02*
X240642856Y-40853729D01*
X240642856Y-40853729D02*
X240757141Y-40796587D01*
X240242856Y-40396587D02*
X240357141Y-40453729D01*
X240357141Y-40453729D02*
X240585713Y-40453729D01*
X240585713Y-40453729D02*
X240699998Y-40396587D01*
X240699998Y-40396587D02*
X240757141Y-40339444D01*
X240757141Y-40339444D02*
X240814284Y-40225158D01*
X240814284Y-40225158D02*
X240814284Y-39882301D01*
X240814284Y-39882301D02*
X240757141Y-39768015D01*
X240757141Y-39768015D02*
X240699998Y-39710872D01*
X240699998Y-39710872D02*
X240585713Y-39653729D01*
X240585713Y-39653729D02*
X240357141Y-39653729D01*
X240357141Y-39653729D02*
X240242856Y-39710872D01*
X239671427Y-40453729D02*
X239671427Y-39653729D01*
X239671427Y-39882301D02*
X239614284Y-39768015D01*
X239614284Y-39768015D02*
X239557142Y-39710872D01*
X239557142Y-39710872D02*
X239442856Y-39653729D01*
X239442856Y-39653729D02*
X239328570Y-39653729D01*
X238928570Y-40453729D02*
X238928570Y-39653729D01*
X238928570Y-39253729D02*
X238985713Y-39310872D01*
X238985713Y-39310872D02*
X238928570Y-39368015D01*
X238928570Y-39368015D02*
X238871427Y-39310872D01*
X238871427Y-39310872D02*
X238928570Y-39253729D01*
X238928570Y-39253729D02*
X238928570Y-39368015D01*
X237499998Y-40396587D02*
X237328570Y-40453729D01*
X237328570Y-40453729D02*
X237042855Y-40453729D01*
X237042855Y-40453729D02*
X236928570Y-40396587D01*
X236928570Y-40396587D02*
X236871427Y-40339444D01*
X236871427Y-40339444D02*
X236814284Y-40225158D01*
X236814284Y-40225158D02*
X236814284Y-40110872D01*
X236814284Y-40110872D02*
X236871427Y-39996587D01*
X236871427Y-39996587D02*
X236928570Y-39939444D01*
X236928570Y-39939444D02*
X237042855Y-39882301D01*
X237042855Y-39882301D02*
X237271427Y-39825158D01*
X237271427Y-39825158D02*
X237385712Y-39768015D01*
X237385712Y-39768015D02*
X237442855Y-39710872D01*
X237442855Y-39710872D02*
X237499998Y-39596587D01*
X237499998Y-39596587D02*
X237499998Y-39482301D01*
X237499998Y-39482301D02*
X237442855Y-39368015D01*
X237442855Y-39368015D02*
X237385712Y-39310872D01*
X237385712Y-39310872D02*
X237271427Y-39253729D01*
X237271427Y-39253729D02*
X236985712Y-39253729D01*
X236985712Y-39253729D02*
X236814284Y-39310872D01*
X235842855Y-40396587D02*
X235957141Y-40453729D01*
X235957141Y-40453729D02*
X236185713Y-40453729D01*
X236185713Y-40453729D02*
X236299998Y-40396587D01*
X236299998Y-40396587D02*
X236357141Y-40282301D01*
X236357141Y-40282301D02*
X236357141Y-39825158D01*
X236357141Y-39825158D02*
X236299998Y-39710872D01*
X236299998Y-39710872D02*
X236185713Y-39653729D01*
X236185713Y-39653729D02*
X235957141Y-39653729D01*
X235957141Y-39653729D02*
X235842855Y-39710872D01*
X235842855Y-39710872D02*
X235785713Y-39825158D01*
X235785713Y-39825158D02*
X235785713Y-39939444D01*
X235785713Y-39939444D02*
X236357141Y-40053729D01*
X235271427Y-39653729D02*
X235271427Y-40453729D01*
X235271427Y-39768015D02*
X235214284Y-39710872D01*
X235214284Y-39710872D02*
X235099999Y-39653729D01*
X235099999Y-39653729D02*
X234928570Y-39653729D01*
X234928570Y-39653729D02*
X234814284Y-39710872D01*
X234814284Y-39710872D02*
X234757142Y-39825158D01*
X234757142Y-39825158D02*
X234757142Y-40453729D01*
X234242856Y-40396587D02*
X234128570Y-40453729D01*
X234128570Y-40453729D02*
X233899999Y-40453729D01*
X233899999Y-40453729D02*
X233785713Y-40396587D01*
X233785713Y-40396587D02*
X233728570Y-40282301D01*
X233728570Y-40282301D02*
X233728570Y-40225158D01*
X233728570Y-40225158D02*
X233785713Y-40110872D01*
X233785713Y-40110872D02*
X233899999Y-40053729D01*
X233899999Y-40053729D02*
X234071428Y-40053729D01*
X234071428Y-40053729D02*
X234185713Y-39996587D01*
X234185713Y-39996587D02*
X234242856Y-39882301D01*
X234242856Y-39882301D02*
X234242856Y-39825158D01*
X234242856Y-39825158D02*
X234185713Y-39710872D01*
X234185713Y-39710872D02*
X234071428Y-39653729D01*
X234071428Y-39653729D02*
X233899999Y-39653729D01*
X233899999Y-39653729D02*
X233785713Y-39710872D01*
X233042856Y-40453729D02*
X233157141Y-40396587D01*
X233157141Y-40396587D02*
X233214284Y-40339444D01*
X233214284Y-40339444D02*
X233271427Y-40225158D01*
X233271427Y-40225158D02*
X233271427Y-39882301D01*
X233271427Y-39882301D02*
X233214284Y-39768015D01*
X233214284Y-39768015D02*
X233157141Y-39710872D01*
X233157141Y-39710872D02*
X233042856Y-39653729D01*
X233042856Y-39653729D02*
X232871427Y-39653729D01*
X232871427Y-39653729D02*
X232757141Y-39710872D01*
X232757141Y-39710872D02*
X232699999Y-39768015D01*
X232699999Y-39768015D02*
X232642856Y-39882301D01*
X232642856Y-39882301D02*
X232642856Y-40225158D01*
X232642856Y-40225158D02*
X232699999Y-40339444D01*
X232699999Y-40339444D02*
X232757141Y-40396587D01*
X232757141Y-40396587D02*
X232871427Y-40453729D01*
X232871427Y-40453729D02*
X233042856Y-40453729D01*
X232128570Y-40453729D02*
X232128570Y-39653729D01*
X232128570Y-39882301D02*
X232071427Y-39768015D01*
X232071427Y-39768015D02*
X232014285Y-39710872D01*
X232014285Y-39710872D02*
X231899999Y-39653729D01*
X231899999Y-39653729D02*
X231785713Y-39653729D01*
X231442856Y-40396587D02*
X231328570Y-40453729D01*
X231328570Y-40453729D02*
X231099999Y-40453729D01*
X231099999Y-40453729D02*
X230985713Y-40396587D01*
X230985713Y-40396587D02*
X230928570Y-40282301D01*
X230928570Y-40282301D02*
X230928570Y-40225158D01*
X230928570Y-40225158D02*
X230985713Y-40110872D01*
X230985713Y-40110872D02*
X231099999Y-40053729D01*
X231099999Y-40053729D02*
X231271428Y-40053729D01*
X231271428Y-40053729D02*
X231385713Y-39996587D01*
X231385713Y-39996587D02*
X231442856Y-39882301D01*
X231442856Y-39882301D02*
X231442856Y-39825158D01*
X231442856Y-39825158D02*
X231385713Y-39710872D01*
X231385713Y-39710872D02*
X231271428Y-39653729D01*
X231271428Y-39653729D02*
X231099999Y-39653729D01*
X231099999Y-39653729D02*
X230985713Y-39710872D01*
X228985713Y-40453729D02*
X228985713Y-39825158D01*
X228985713Y-39825158D02*
X229042855Y-39710872D01*
X229042855Y-39710872D02*
X229157141Y-39653729D01*
X229157141Y-39653729D02*
X229385713Y-39653729D01*
X229385713Y-39653729D02*
X229499998Y-39710872D01*
X228985713Y-40396587D02*
X229099998Y-40453729D01*
X229099998Y-40453729D02*
X229385713Y-40453729D01*
X229385713Y-40453729D02*
X229499998Y-40396587D01*
X229499998Y-40396587D02*
X229557141Y-40282301D01*
X229557141Y-40282301D02*
X229557141Y-40168015D01*
X229557141Y-40168015D02*
X229499998Y-40053729D01*
X229499998Y-40053729D02*
X229385713Y-39996587D01*
X229385713Y-39996587D02*
X229099998Y-39996587D01*
X229099998Y-39996587D02*
X228985713Y-39939444D01*
X228414284Y-39653729D02*
X228414284Y-40453729D01*
X228414284Y-39768015D02*
X228357141Y-39710872D01*
X228357141Y-39710872D02*
X228242856Y-39653729D01*
X228242856Y-39653729D02*
X228071427Y-39653729D01*
X228071427Y-39653729D02*
X227957141Y-39710872D01*
X227957141Y-39710872D02*
X227899999Y-39825158D01*
X227899999Y-39825158D02*
X227899999Y-40453729D01*
X226814285Y-40453729D02*
X226814285Y-39253729D01*
X226814285Y-40396587D02*
X226928570Y-40453729D01*
X226928570Y-40453729D02*
X227157142Y-40453729D01*
X227157142Y-40453729D02*
X227271427Y-40396587D01*
X227271427Y-40396587D02*
X227328570Y-40339444D01*
X227328570Y-40339444D02*
X227385713Y-40225158D01*
X227385713Y-40225158D02*
X227385713Y-39882301D01*
X227385713Y-39882301D02*
X227328570Y-39768015D01*
X227328570Y-39768015D02*
X227271427Y-39710872D01*
X227271427Y-39710872D02*
X227157142Y-39653729D01*
X227157142Y-39653729D02*
X226928570Y-39653729D01*
X226928570Y-39653729D02*
X226814285Y-39710872D01*
X224642856Y-40339444D02*
X224699999Y-40396587D01*
X224699999Y-40396587D02*
X224871427Y-40453729D01*
X224871427Y-40453729D02*
X224985713Y-40453729D01*
X224985713Y-40453729D02*
X225157142Y-40396587D01*
X225157142Y-40396587D02*
X225271427Y-40282301D01*
X225271427Y-40282301D02*
X225328570Y-40168015D01*
X225328570Y-40168015D02*
X225385713Y-39939444D01*
X225385713Y-39939444D02*
X225385713Y-39768015D01*
X225385713Y-39768015D02*
X225328570Y-39539444D01*
X225328570Y-39539444D02*
X225271427Y-39425158D01*
X225271427Y-39425158D02*
X225157142Y-39310872D01*
X225157142Y-39310872D02*
X224985713Y-39253729D01*
X224985713Y-39253729D02*
X224871427Y-39253729D01*
X224871427Y-39253729D02*
X224699999Y-39310872D01*
X224699999Y-39310872D02*
X224642856Y-39368015D01*
X223957142Y-40453729D02*
X224071427Y-40396587D01*
X224071427Y-40396587D02*
X224128570Y-40339444D01*
X224128570Y-40339444D02*
X224185713Y-40225158D01*
X224185713Y-40225158D02*
X224185713Y-39882301D01*
X224185713Y-39882301D02*
X224128570Y-39768015D01*
X224128570Y-39768015D02*
X224071427Y-39710872D01*
X224071427Y-39710872D02*
X223957142Y-39653729D01*
X223957142Y-39653729D02*
X223785713Y-39653729D01*
X223785713Y-39653729D02*
X223671427Y-39710872D01*
X223671427Y-39710872D02*
X223614285Y-39768015D01*
X223614285Y-39768015D02*
X223557142Y-39882301D01*
X223557142Y-39882301D02*
X223557142Y-40225158D01*
X223557142Y-40225158D02*
X223614285Y-40339444D01*
X223614285Y-40339444D02*
X223671427Y-40396587D01*
X223671427Y-40396587D02*
X223785713Y-40453729D01*
X223785713Y-40453729D02*
X223957142Y-40453729D01*
X223042856Y-39653729D02*
X223042856Y-40453729D01*
X223042856Y-39768015D02*
X222985713Y-39710872D01*
X222985713Y-39710872D02*
X222871428Y-39653729D01*
X222871428Y-39653729D02*
X222699999Y-39653729D01*
X222699999Y-39653729D02*
X222585713Y-39710872D01*
X222585713Y-39710872D02*
X222528571Y-39825158D01*
X222528571Y-39825158D02*
X222528571Y-40453729D01*
X222128571Y-39653729D02*
X221671428Y-39653729D01*
X221957142Y-39253729D02*
X221957142Y-40282301D01*
X221957142Y-40282301D02*
X221899999Y-40396587D01*
X221899999Y-40396587D02*
X221785714Y-40453729D01*
X221785714Y-40453729D02*
X221671428Y-40453729D01*
X221271428Y-40453729D02*
X221271428Y-39653729D01*
X221271428Y-39882301D02*
X221214285Y-39768015D01*
X221214285Y-39768015D02*
X221157143Y-39710872D01*
X221157143Y-39710872D02*
X221042857Y-39653729D01*
X221042857Y-39653729D02*
X220928571Y-39653729D01*
X220357143Y-40453729D02*
X220471428Y-40396587D01*
X220471428Y-40396587D02*
X220528571Y-40339444D01*
X220528571Y-40339444D02*
X220585714Y-40225158D01*
X220585714Y-40225158D02*
X220585714Y-39882301D01*
X220585714Y-39882301D02*
X220528571Y-39768015D01*
X220528571Y-39768015D02*
X220471428Y-39710872D01*
X220471428Y-39710872D02*
X220357143Y-39653729D01*
X220357143Y-39653729D02*
X220185714Y-39653729D01*
X220185714Y-39653729D02*
X220071428Y-39710872D01*
X220071428Y-39710872D02*
X220014286Y-39768015D01*
X220014286Y-39768015D02*
X219957143Y-39882301D01*
X219957143Y-39882301D02*
X219957143Y-40225158D01*
X219957143Y-40225158D02*
X220014286Y-40339444D01*
X220014286Y-40339444D02*
X220071428Y-40396587D01*
X220071428Y-40396587D02*
X220185714Y-40453729D01*
X220185714Y-40453729D02*
X220357143Y-40453729D01*
X219271429Y-40453729D02*
X219385714Y-40396587D01*
X219385714Y-40396587D02*
X219442857Y-40282301D01*
X219442857Y-40282301D02*
X219442857Y-39253729D01*
X218871429Y-40396587D02*
X218757143Y-40453729D01*
X218757143Y-40453729D02*
X218528572Y-40453729D01*
X218528572Y-40453729D02*
X218414286Y-40396587D01*
X218414286Y-40396587D02*
X218357143Y-40282301D01*
X218357143Y-40282301D02*
X218357143Y-40225158D01*
X218357143Y-40225158D02*
X218414286Y-40110872D01*
X218414286Y-40110872D02*
X218528572Y-40053729D01*
X218528572Y-40053729D02*
X218700001Y-40053729D01*
X218700001Y-40053729D02*
X218814286Y-39996587D01*
X218814286Y-39996587D02*
X218871429Y-39882301D01*
X218871429Y-39882301D02*
X218871429Y-39825158D01*
X218871429Y-39825158D02*
X218814286Y-39710872D01*
X218814286Y-39710872D02*
X218700001Y-39653729D01*
X218700001Y-39653729D02*
X218528572Y-39653729D01*
X218528572Y-39653729D02*
X218414286Y-39710872D01*
X233785713Y-42328520D02*
X233614285Y-42385662D01*
X233614285Y-42385662D02*
X233328570Y-42385662D01*
X233328570Y-42385662D02*
X233214285Y-42328520D01*
X233214285Y-42328520D02*
X233157142Y-42271377D01*
X233157142Y-42271377D02*
X233099999Y-42157091D01*
X233099999Y-42157091D02*
X233099999Y-42042805D01*
X233099999Y-42042805D02*
X233157142Y-41928520D01*
X233157142Y-41928520D02*
X233214285Y-41871377D01*
X233214285Y-41871377D02*
X233328570Y-41814234D01*
X233328570Y-41814234D02*
X233557142Y-41757091D01*
X233557142Y-41757091D02*
X233671427Y-41699948D01*
X233671427Y-41699948D02*
X233728570Y-41642805D01*
X233728570Y-41642805D02*
X233785713Y-41528520D01*
X233785713Y-41528520D02*
X233785713Y-41414234D01*
X233785713Y-41414234D02*
X233728570Y-41299948D01*
X233728570Y-41299948D02*
X233671427Y-41242805D01*
X233671427Y-41242805D02*
X233557142Y-41185662D01*
X233557142Y-41185662D02*
X233271427Y-41185662D01*
X233271427Y-41185662D02*
X233099999Y-41242805D01*
X232128570Y-42328520D02*
X232242856Y-42385662D01*
X232242856Y-42385662D02*
X232471428Y-42385662D01*
X232471428Y-42385662D02*
X232585713Y-42328520D01*
X232585713Y-42328520D02*
X232642856Y-42214234D01*
X232642856Y-42214234D02*
X232642856Y-41757091D01*
X232642856Y-41757091D02*
X232585713Y-41642805D01*
X232585713Y-41642805D02*
X232471428Y-41585662D01*
X232471428Y-41585662D02*
X232242856Y-41585662D01*
X232242856Y-41585662D02*
X232128570Y-41642805D01*
X232128570Y-41642805D02*
X232071428Y-41757091D01*
X232071428Y-41757091D02*
X232071428Y-41871377D01*
X232071428Y-41871377D02*
X232642856Y-41985662D01*
X231557142Y-41585662D02*
X231557142Y-42785662D01*
X231557142Y-41642805D02*
X231442857Y-41585662D01*
X231442857Y-41585662D02*
X231214285Y-41585662D01*
X231214285Y-41585662D02*
X231099999Y-41642805D01*
X231099999Y-41642805D02*
X231042857Y-41699948D01*
X231042857Y-41699948D02*
X230985714Y-41814234D01*
X230985714Y-41814234D02*
X230985714Y-42157091D01*
X230985714Y-42157091D02*
X231042857Y-42271377D01*
X231042857Y-42271377D02*
X231099999Y-42328520D01*
X231099999Y-42328520D02*
X231214285Y-42385662D01*
X231214285Y-42385662D02*
X231442857Y-42385662D01*
X231442857Y-42385662D02*
X231557142Y-42328520D01*
X230528571Y-41299948D02*
X230471428Y-41242805D01*
X230471428Y-41242805D02*
X230357143Y-41185662D01*
X230357143Y-41185662D02*
X230071428Y-41185662D01*
X230071428Y-41185662D02*
X229957143Y-41242805D01*
X229957143Y-41242805D02*
X229900000Y-41299948D01*
X229900000Y-41299948D02*
X229842857Y-41414234D01*
X229842857Y-41414234D02*
X229842857Y-41528520D01*
X229842857Y-41528520D02*
X229900000Y-41699948D01*
X229900000Y-41699948D02*
X230585714Y-42385662D01*
X230585714Y-42385662D02*
X229842857Y-42385662D01*
X229100000Y-41185662D02*
X228985714Y-41185662D01*
X228985714Y-41185662D02*
X228871428Y-41242805D01*
X228871428Y-41242805D02*
X228814286Y-41299948D01*
X228814286Y-41299948D02*
X228757143Y-41414234D01*
X228757143Y-41414234D02*
X228700000Y-41642805D01*
X228700000Y-41642805D02*
X228700000Y-41928520D01*
X228700000Y-41928520D02*
X228757143Y-42157091D01*
X228757143Y-42157091D02*
X228814286Y-42271377D01*
X228814286Y-42271377D02*
X228871428Y-42328520D01*
X228871428Y-42328520D02*
X228985714Y-42385662D01*
X228985714Y-42385662D02*
X229100000Y-42385662D01*
X229100000Y-42385662D02*
X229214286Y-42328520D01*
X229214286Y-42328520D02*
X229271428Y-42271377D01*
X229271428Y-42271377D02*
X229328571Y-42157091D01*
X229328571Y-42157091D02*
X229385714Y-41928520D01*
X229385714Y-41928520D02*
X229385714Y-41642805D01*
X229385714Y-41642805D02*
X229328571Y-41414234D01*
X229328571Y-41414234D02*
X229271428Y-41299948D01*
X229271428Y-41299948D02*
X229214286Y-41242805D01*
X229214286Y-41242805D02*
X229100000Y-41185662D01*
X228242857Y-41299948D02*
X228185714Y-41242805D01*
X228185714Y-41242805D02*
X228071429Y-41185662D01*
X228071429Y-41185662D02*
X227785714Y-41185662D01*
X227785714Y-41185662D02*
X227671429Y-41242805D01*
X227671429Y-41242805D02*
X227614286Y-41299948D01*
X227614286Y-41299948D02*
X227557143Y-41414234D01*
X227557143Y-41414234D02*
X227557143Y-41528520D01*
X227557143Y-41528520D02*
X227614286Y-41699948D01*
X227614286Y-41699948D02*
X228300000Y-42385662D01*
X228300000Y-42385662D02*
X227557143Y-42385662D01*
X226528572Y-41185662D02*
X226757143Y-41185662D01*
X226757143Y-41185662D02*
X226871429Y-41242805D01*
X226871429Y-41242805D02*
X226928572Y-41299948D01*
X226928572Y-41299948D02*
X227042857Y-41471377D01*
X227042857Y-41471377D02*
X227100000Y-41699948D01*
X227100000Y-41699948D02*
X227100000Y-42157091D01*
X227100000Y-42157091D02*
X227042857Y-42271377D01*
X227042857Y-42271377D02*
X226985714Y-42328520D01*
X226985714Y-42328520D02*
X226871429Y-42385662D01*
X226871429Y-42385662D02*
X226642857Y-42385662D01*
X226642857Y-42385662D02*
X226528572Y-42328520D01*
X226528572Y-42328520D02*
X226471429Y-42271377D01*
X226471429Y-42271377D02*
X226414286Y-42157091D01*
X226414286Y-42157091D02*
X226414286Y-41871377D01*
X226414286Y-41871377D02*
X226471429Y-41757091D01*
X226471429Y-41757091D02*
X226528572Y-41699948D01*
X226528572Y-41699948D02*
X226642857Y-41642805D01*
X226642857Y-41642805D02*
X226871429Y-41642805D01*
X226871429Y-41642805D02*
X226985714Y-41699948D01*
X226985714Y-41699948D02*
X227042857Y-41757091D01*
X227042857Y-41757091D02*
X227100000Y-41871377D01*
M02*
