M48
; DRILL file {KiCad 9.0.7} date 2026-09-27T13:25:38+0530
; FORMAT={-:-/ absolute / metric / decimal}
; #@! TF.CreationDate,2026-09-27T13:25:38+05:30
; #@! TF.GenerationSoftware,Kicad,Pcbnew,9.0.7
; #@! TF.FileFunction,Plated,1,2,PTH
FMAT,2
METRIC
; #@! TA.AperFunction,Plated,PTH,ComponentDrill
T1C0.200
; #@! TA.AperFunction,Plated,PTH,ViaDrill
T2C0.300
; #@! TA.AperFunction,Plated,PTH,ComponentDrill
T3C0.330
; #@! TA.AperFunction,Plated,PTH,ComponentDrill
T4C0.500
; #@! TA.AperFunction,Plated,PTH,ComponentDrill
T5C0.800
; #@! TA.AperFunction,Plated,PTH,ComponentDrill
T6C0.950
; #@! TA.AperFunction,Plated,PTH,ComponentDrill
T7C1.400
; #@! TA.AperFunction,Plated,PTH,ComponentDrill
T8C1.500
%
G90
G05
T1
X227.2Y-55.975
X227.2Y-57.375
X227.9Y-55.275
X227.9Y-56.675
X227.9Y-58.075
X228.575Y-55.975
X228.575Y-57.375
X229.3Y-55.275
X229.3Y-56.675
X229.3Y-58.075
X230.0Y-55.975
X230.0Y-57.375
T2
X187.46Y-66.065
X187.58Y-86.745
X189.89Y-63.895
X190.92Y-84.775
X192.06Y-70.665
X193.91Y-51.835
X193.92Y-53.575
X195.43Y-58.985
X195.47Y-61.275
X195.47Y-63.335
X197.17Y-58.975
X198.12Y-38.615
X198.14Y-39.905
X198.205Y-68.31
X198.54Y-92.955
X198.57Y-94.525
X198.58Y-96.015
X199.04Y-56.055
X199.7Y-58.995
X199.86Y-38.605
X199.88Y-39.895
X199.89Y-78.825
X200.28Y-92.945
X200.31Y-94.515
X200.32Y-96.005
X200.36Y-67.405
X200.67Y-52.255
X200.96Y-91.675
X201.05Y-83.425
X201.06Y-85.165
X201.44Y-58.985
X202.1Y-67.395
X202.41Y-52.245
X203.53Y-80.795
X203.81Y-48.175
X203.81Y-58.965
X203.99Y-55.245
X204.26Y-63.395
X204.27Y-61.595
X204.45Y-99.455
X204.92Y-92.345
X204.99Y-97.015
X205.01Y-95.075
X205.47Y-52.035
X205.53Y-78.945
X205.55Y-58.955
X206.0Y-63.385
X206.01Y-61.585
X206.1Y-102.405
X206.19Y-99.445
X206.67Y-48.455
X207.49Y-91.915
X207.5Y-93.655
X207.5Y-96.345
X207.51Y-98.085
X208.37Y-54.045
X208.48Y-51.975
X208.5Y-55.465
X209.54Y-97.025
X210.75Y-63.515
X211.45Y-98.715
X212.15Y-58.535
X212.37Y-61.015
X212.59Y-63.235
X212.65Y-53.705
X212.66Y-55.985
X212.67Y-51.555
X212.87Y-57.845
X214.89Y-64.025
X215.78Y-97.425
X216.84Y-53.665
X217.01Y-60.305
X217.04Y-55.545
X217.46Y-70.545
X217.83Y-98.625
X218.37Y-70.275
X219.25Y-51.865
X220.37Y-74.665
X220.88Y-69.475
X220.9Y-67.635
X221.03Y-97.035
X222.11Y-74.655
X222.44Y-97.695
X222.64Y-67.625
X222.66Y-69.475
X223.15Y-71.345
X223.17Y-72.835
X223.23Y-51.005
X223.23Y-52.575
X224.09Y-64.275
X224.83Y-52.575
X225.83Y-64.265
X227.84Y-74.595
X228.04Y-66.645
X228.45Y-72.825
X229.78Y-66.635
X230.5Y-72.605
X232.19Y-71.315
X233.12Y-49.145
X234.071Y-100.484
X235.46Y-49.135
X235.6Y-99.225
X236.71Y-50.225
X238.9Y-66.785
X240.56Y-57.875
X240.58Y-59.005
X240.74Y-50.265
X241.07Y-55.275
X241.08Y-51.485
X241.62Y-49.155
T3
X211.595Y-103.98
X211.595Y-105.28
X212.895Y-103.98
X212.895Y-105.28
X214.195Y-103.98
X214.195Y-105.28
X229.405Y-104.51
X229.405Y-105.81
X230.705Y-104.51
X230.705Y-105.81
X232.005Y-104.51
X232.005Y-105.81
T4
X192.045Y-38.575
X192.045Y-40.475
T5
X201.049Y-112.895
X201.72Y-114.495
X204.22Y-114.495
X204.891Y-116.095
X219.949Y-102.725
X220.62Y-104.325
X223.12Y-104.325
X223.791Y-105.925
X240.079Y-112.635
X240.75Y-114.235
X243.25Y-114.235
X243.921Y-115.835
T6
X245.34Y-47.445
X245.34Y-49.945
X245.34Y-52.445
X245.34Y-54.945
X245.34Y-57.445
X245.34Y-59.945
X245.34Y-62.445
X245.34Y-64.945
T7
X174.665Y-112.097
X177.26Y-68.335
X177.26Y-73.415
X177.26Y-78.495
X177.26Y-87.395
X177.26Y-92.475
X177.26Y-97.555
X179.745Y-112.097
X188.195Y-112.097
X193.275Y-112.097
X212.875Y-112.078
X217.955Y-112.078
X226.585Y-112.097
X231.665Y-112.097
X240.21Y-92.615
X240.21Y-97.695
X240.21Y-102.775
X240.297Y-73.18
X240.297Y-78.26
X240.297Y-83.34
T8
X169.173Y-50.055
X189.973Y-50.055
M30
