%TF.GenerationSoftware,KiCad,Pcbnew,9.0.7*%
%TF.CreationDate,2026-10-06T21:24:05+05:30*%
%TF.ProjectId,AWD-FieldNode,4157442d-4669-4656-9c64-4e6f64652e6b,rev?*%
%TF.SameCoordinates,Original*%
%TF.FileFunction,Copper,L4,Bot*%
%TF.FilePolarity,Positive*%
%FSLAX46Y46*%
G04 Gerber Fmt 4.6, Leading zero omitted, Abs format (unit mm)*
G04 Created by KiCad (PCBNEW 9.0.7) date 2026-10-06 21:24:05*
%MOMM*%
%LPD*%
G01*
G04 APERTURE LIST*
G04 Aperture macros list*
%AMRoundRect*
0 Rectangle with rounded corners*
0 $1 Rounding radius*
0 $2 $3 $4 $5 $6 $7 $8 $9 X,Y pos of 4 corners*
0 Add a 4 corners polygon primitive as box body*
4,1,4,$2,$3,$4,$5,$6,$7,$8,$9,$2,$3,0*
0 Add four circle primitives for the rounded corners*
1,1,$1+$1,$2,$3*
1,1,$1+$1,$4,$5*
1,1,$1+$1,$6,$7*
1,1,$1+$1,$8,$9*
0 Add four rect primitives between the rounded corners*
20,1,$1+$1,$2,$3,$4,$5,0*
20,1,$1+$1,$4,$5,$6,$7,0*
20,1,$1+$1,$6,$7,$8,$9,0*
20,1,$1+$1,$8,$9,$2,$3,0*%
G04 Aperture macros list end*
%TA.AperFunction,ComponentPad*%
%ADD10R,1.000000X1.000000*%
%TD*%
%TA.AperFunction,ComponentPad*%
%ADD11C,1.000000*%
%TD*%
%TA.AperFunction,SMDPad,CuDef*%
%ADD12R,5.080000X1.500000*%
%TD*%
%TA.AperFunction,SMDPad,CuDef*%
%ADD13RoundRect,0.250000X0.250000X1.500000X-0.250000X1.500000X-0.250000X-1.500000X0.250000X-1.500000X0*%
%TD*%
%TA.AperFunction,SMDPad,CuDef*%
%ADD14RoundRect,0.250001X0.499999X1.449999X-0.499999X1.449999X-0.499999X-1.449999X0.499999X-1.449999X0*%
%TD*%
%TA.AperFunction,ViaPad*%
%ADD15C,0.800000*%
%TD*%
%TA.AperFunction,ViaPad*%
%ADD16C,0.600000*%
%TD*%
%TA.AperFunction,Conductor*%
%ADD17C,0.500000*%
%TD*%
%TA.AperFunction,Conductor*%
%ADD18C,0.300000*%
%TD*%
G04 APERTURE END LIST*
D10*
%TO.P,J2,1*%
%TO.N,+3V3*%
X131500000Y-48000000D03*
D11*
%TO.P,J2,2*%
%TO.N,GND*%
X131500000Y-49270000D03*
%TO.P,J2,3*%
%TO.N,/EN*%
X131500000Y-50540000D03*
%TO.P,J2,4*%
%TO.N,/BOOT*%
X131500000Y-51810000D03*
%TO.P,J2,5*%
%TO.N,/USB_DN*%
X131500000Y-53080000D03*
%TO.P,J2,6*%
%TO.N,/USB_DP*%
X131500000Y-54350000D03*
%TO.P,J2,7*%
%TO.N,/TXD0*%
X131500000Y-55620000D03*
%TO.P,J2,8*%
%TO.N,/RXD0*%
X131500000Y-56890000D03*
%TD*%
D12*
%TO.P,J1,2*%
%TO.N,GND*%
X98600000Y-69250000D03*
X98600000Y-60750000D03*
%TD*%
D13*
%TO.P,J3,1*%
%TO.N,/VBAT_RAW*%
X118500000Y-67150000D03*
%TO.P,J3,2*%
%TO.N,GND*%
X116500000Y-67150000D03*
D14*
%TO.P,J3,MP*%
%TO.N,N/C*%
X120850000Y-72900000D03*
X114150000Y-72900000D03*
%TD*%
D15*
%TO.N,/VBAT_RAW*%
X101596300Y-89000000D03*
X118691900Y-82734700D03*
D16*
%TO.N,GND*%
X108500000Y-96500000D03*
X106500000Y-56000000D03*
X136000000Y-95500000D03*
X98500000Y-96000000D03*
X126000000Y-62000000D03*
X132500000Y-92000000D03*
X125500000Y-80500000D03*
X119500000Y-80500000D03*
X104000000Y-58500000D03*
X128000000Y-97500000D03*
X114000000Y-64000000D03*
X134500000Y-58500000D03*
X102000000Y-51000000D03*
X98500000Y-76000000D03*
X125500000Y-83000000D03*
X98500000Y-51000000D03*
X98500000Y-91000000D03*
X114000000Y-66500000D03*
X98500000Y-88500000D03*
X117500000Y-52800000D03*
X120000000Y-94000000D03*
X123000000Y-90500000D03*
X114000000Y-61500000D03*
X101500000Y-66500000D03*
X119500000Y-72000000D03*
X102500000Y-81500000D03*
X103500000Y-53000000D03*
X134500000Y-81000000D03*
X135000000Y-76000000D03*
X133000000Y-87000000D03*
X115500000Y-80000000D03*
X123000000Y-80500000D03*
X132000000Y-80000000D03*
X121500000Y-76000000D03*
X136000000Y-67500000D03*
X121500000Y-82500000D03*
X115000000Y-98000000D03*
X104500000Y-83000000D03*
X132500000Y-75000000D03*
X104000000Y-55500000D03*
X98500000Y-81000000D03*
X131000000Y-72000000D03*
X120000000Y-67000000D03*
X110500000Y-98000000D03*
X102500000Y-76500000D03*
X133000000Y-83000000D03*
X117500000Y-54450000D03*
X131000000Y-58000000D03*
X104500000Y-90000000D03*
X103000000Y-85000000D03*
X127500000Y-73500000D03*
X106500000Y-58500000D03*
X114500000Y-75500000D03*
X117000000Y-72000000D03*
X127500000Y-95000000D03*
X116500000Y-63000000D03*
X120500000Y-86000000D03*
X117500000Y-390000000D03*
X119500000Y-74500000D03*
X127500000Y-76000000D03*
X98500000Y-86000000D03*
X128000000Y-86500000D03*
X132000000Y-68000000D03*
X98500000Y-46000000D03*
X115850000Y-52800000D03*
X106500000Y-76500000D03*
X126500000Y-53000000D03*
X136000000Y-91000000D03*
X124500000Y-45800000D03*
X98500000Y-58500000D03*
X117000000Y-82000000D03*
X108500000Y-90000000D03*
X106500000Y-88500000D03*
X136000000Y-48000000D03*
X123500000Y-84500000D03*
X122500000Y-73500000D03*
X134000000Y-69500000D03*
X120000000Y-88500000D03*
X134500000Y-50500000D03*
X114500000Y-69000000D03*
X134500000Y-93500000D03*
X115000000Y-89000000D03*
X118500000Y-84000000D03*
X98500000Y-62000000D03*
X110500000Y-45800000D03*
X132500000Y-64000000D03*
X108000000Y-82000000D03*
X136000000Y-63500000D03*
X106000000Y-53500000D03*
X117000000Y-74500000D03*
X121000000Y-78500000D03*
X112000000Y-94000000D03*
X130000000Y-96000000D03*
X123500000Y-77500000D03*
X136000000Y-73500000D03*
X130500000Y-82000000D03*
X117500000Y-51150000D03*
X113500000Y-87000000D03*
X129000000Y-84000000D03*
X105500000Y-51000000D03*
X98500000Y-66500000D03*
X134500000Y-89000000D03*
X134500000Y-54500000D03*
X102000000Y-57000000D03*
X129000000Y-60000000D03*
X119150000Y-52800000D03*
X98500000Y-93500000D03*
X130000000Y-74500000D03*
X124000000Y-64500000D03*
X101000000Y-79500000D03*
X134000000Y-62000000D03*
X136000000Y-56500000D03*
X122500000Y-71000000D03*
X136000000Y-98500000D03*
X130000000Y-88000000D03*
X102500000Y-93000000D03*
X135000000Y-78500000D03*
X115000000Y-94000000D03*
X106000000Y-85000000D03*
X100500000Y-74500000D03*
X132500000Y-60000000D03*
X121500000Y-96000000D03*
X127000000Y-78500000D03*
X119150000Y-51150000D03*
X98500000Y-56000000D03*
X101500000Y-54500000D03*
X131500000Y-85000000D03*
X130000000Y-77000000D03*
X104000000Y-97000000D03*
X117500000Y-378000000D03*
X101000000Y-83500000D03*
X106000000Y-80000000D03*
X136000000Y-52500000D03*
X104000000Y-78500000D03*
X98500000Y-78500000D03*
X119500000Y-69500000D03*
X104500000Y-87000000D03*
X105500000Y-68500000D03*
X128000000Y-55000000D03*
X102500000Y-64000000D03*
X102000000Y-95500000D03*
X106500000Y-98000000D03*
X132000000Y-89500000D03*
X113500000Y-78500000D03*
X108500000Y-51000000D03*
X134000000Y-97000000D03*
X122000000Y-63000000D03*
X107000000Y-94500000D03*
X108000000Y-86500000D03*
X98500000Y-48500000D03*
X132000000Y-46000000D03*
X134500000Y-65500000D03*
X129500000Y-46000000D03*
X131500000Y-98000000D03*
X104500000Y-75000000D03*
X133500000Y-72500000D03*
X112000000Y-89000000D03*
X104000000Y-66500000D03*
X107000000Y-46000000D03*
X106500000Y-66000000D03*
X132500000Y-77500000D03*
X115850000Y-51150000D03*
X106000000Y-92000000D03*
X100500000Y-97500000D03*
X130000000Y-91000000D03*
X104500000Y-94500000D03*
X128500000Y-71000000D03*
X120000000Y-61500000D03*
X105000000Y-64000000D03*
X128000000Y-92500000D03*
X103000000Y-71000000D03*
X130500000Y-93500000D03*
X136000000Y-60500000D03*
X133000000Y-52500000D03*
X98500000Y-73000000D03*
X117500000Y-384000000D03*
X112000000Y-85000000D03*
X133000000Y-48500000D03*
X122000000Y-68500000D03*
X115850000Y-54450000D03*
X98500000Y-53500000D03*
X98500000Y-83500000D03*
X136000000Y-71000000D03*
X105500000Y-71000000D03*
X101500000Y-69000000D03*
X109500000Y-84000000D03*
X129500000Y-79500000D03*
X125500000Y-97000000D03*
X124500000Y-59800000D03*
X136000000Y-87000000D03*
X101000000Y-46000000D03*
X136000000Y-83000000D03*
X101000000Y-86500000D03*
X113500000Y-96000000D03*
X134500000Y-46000000D03*
X116500000Y-77000000D03*
X98500000Y-70500000D03*
X120000000Y-98000000D03*
X133000000Y-56500000D03*
X125500000Y-86000000D03*
X123000000Y-94000000D03*
X131000000Y-62000000D03*
X128000000Y-81500000D03*
X117000000Y-69500000D03*
X109000000Y-55000000D03*
X101000000Y-59500000D03*
X134500000Y-85000000D03*
X111500000Y-76500000D03*
X132500000Y-95000000D03*
X128000000Y-89500000D03*
D15*
%TO.N,+3V3*%
X107800000Y-49371000D03*
D16*
X129000000Y-68200000D03*
X107400000Y-68000000D03*
D15*
X125629500Y-46134100D03*
D16*
%TO.N,/BOOT*%
X109553200Y-49439400D03*
X100600000Y-49414400D03*
%TO.N,/T14_SPARE*%
X135753100Y-91971700D03*
X113250000Y-70177500D03*
%TO.N,/VBAT_ADC*%
X114100000Y-57180100D03*
X129000000Y-64243700D03*
%TO.N,/VBAT_EN*%
X129062500Y-69245600D03*
X114950000Y-58878200D03*
%TO.N,/LORA_BUSY*%
X123995000Y-71630300D03*
X116650000Y-62047500D03*
%TO.N,/USB_DN*%
X117400300Y-56586400D03*
%TO.N,/USB_DP*%
X118350000Y-57537100D03*
%TO.N,/LORA_RST*%
X119527400Y-66059200D03*
X112078000Y-70392700D03*
%TO.N,/LORA_NSS*%
X123594400Y-55133500D03*
X127022100Y-59497400D03*
%TO.N,/LORA_SCK*%
X127613400Y-68613400D03*
X125445300Y-54500000D03*
%TO.N,/LORA_MISO*%
X123976300Y-65789900D03*
X125420000Y-52712500D03*
%TO.N,/TXD0*%
X123573200Y-51950000D03*
%TO.N,/RXD0*%
X125445900Y-51579600D03*
%TO.N,/T1*%
X109597700Y-50250100D03*
X125500000Y-87859600D03*
%TO.N,/T2*%
X123900000Y-87080600D03*
X109594900Y-51813500D03*
%TO.N,/T3*%
X112534700Y-55355600D03*
X122300000Y-88986500D03*
%TO.N,/T4*%
X120700000Y-90124600D03*
X108123600Y-63899100D03*
%TO.N,/T5*%
X111402100Y-53424600D03*
X119100000Y-88249100D03*
%TO.N,/T6*%
X117500000Y-85298600D03*
X111406400Y-55036500D03*
%TO.N,/T7*%
X115900000Y-87687500D03*
X109512900Y-56035000D03*
%TO.N,/T8*%
X112167400Y-56582200D03*
X114300000Y-78163300D03*
%TO.N,/T9*%
X112700000Y-74030000D03*
X112085800Y-58883900D03*
%TO.N,/T10*%
X108632300Y-60135500D03*
X111100000Y-83908900D03*
%TO.N,/T11*%
X108822000Y-59333700D03*
X109500000Y-86861800D03*
%TO.N,/T12*%
X107141900Y-73699000D03*
X108925800Y-61824000D03*
%TO.N,/T13*%
X112654700Y-71502800D03*
X127100000Y-85948100D03*
%TO.N,/DIV_LO*%
X131000000Y-64243700D03*
X129690200Y-71000000D03*
%TO.N,/P1*%
X120500000Y-135000000D03*
X125500000Y-93500000D03*
%TO.N,/P2*%
X123900000Y-93500000D03*
X119900000Y-155000000D03*
%TO.N,/P3*%
X122300000Y-93500000D03*
X119300000Y-175000000D03*
%TO.N,/P4*%
X120700000Y-93500000D03*
X118700000Y-195000000D03*
%TO.N,/P5*%
X118100000Y-215000000D03*
X119100000Y-93500000D03*
%TO.N,/P6*%
X117500000Y-93500000D03*
X117500000Y-235000000D03*
%TO.N,/P7*%
X115900000Y-93500000D03*
X116900000Y-255000000D03*
%TO.N,/P8*%
X116300000Y-275000000D03*
X114300000Y-93500000D03*
%TO.N,/P9*%
X112700000Y-93500000D03*
X115700000Y-295000000D03*
%TO.N,/P10*%
X111100000Y-93500000D03*
X115100000Y-315000000D03*
%TO.N,/P11*%
X109500000Y-93500000D03*
X114500000Y-335000000D03*
%TO.N,/P12*%
X107900000Y-93500000D03*
X113900000Y-355000000D03*
%TO.N,/REF*%
X127100000Y-93500000D03*
X121100000Y-116000000D03*
%TD*%
D17*
%TO.N,/VBAT_RAW*%
X118691900Y-67341900D02*
X118500000Y-67150000D01*
X118691900Y-82734700D02*
X118691900Y-67341900D01*
D18*
%TO.N,+3V3*%
X107800000Y-49370000D02*
X107400000Y-50200000D01*
X130000000Y-48000000D02*
X131500000Y-48000000D01*
X130000000Y-67200000D02*
X130000000Y-48000000D01*
X107400000Y-50200000D02*
X107400000Y-68000000D01*
X129000000Y-68200000D02*
X130000000Y-67200000D01*
%TD*%
%TA.AperFunction,Conductor*%
%TO.N,GND*%
G36*
X137158691Y-45018907D02*
G01*
X137194655Y-45068407D01*
X137199500Y-45099000D01*
X137199500Y-99600500D01*
X137180593Y-99658691D01*
X137131093Y-99694655D01*
X137100500Y-99699500D01*
X122460435Y-99699500D01*
X122384011Y-99719978D01*
X122384007Y-99719980D01*
X122315491Y-99759538D01*
X122259538Y-99815491D01*
X122219980Y-99884007D01*
X122219978Y-99884011D01*
X122199500Y-99960435D01*
X122199500Y-394997784D01*
X122199400Y-395002226D01*
X122180780Y-395416815D01*
X122179984Y-395425662D01*
X122124574Y-395834719D01*
X122122988Y-395843460D01*
X122031132Y-396245903D01*
X122028769Y-396254465D01*
X121901208Y-396647062D01*
X121898086Y-396655380D01*
X121735850Y-397034948D01*
X121731996Y-397042951D01*
X121536388Y-397406452D01*
X121531832Y-397414078D01*
X121304422Y-397758588D01*
X121299200Y-397765774D01*
X121041830Y-398088506D01*
X121035986Y-398095196D01*
X120750721Y-398393560D01*
X120744300Y-398399699D01*
X120433441Y-398671288D01*
X120426496Y-398676827D01*
X120092529Y-398919468D01*
X120085115Y-398924361D01*
X119730765Y-399136077D01*
X119722942Y-399140287D01*
X119351025Y-399319392D01*
X119342857Y-399322883D01*
X118956388Y-399467927D01*
X118947940Y-399470672D01*
X118550025Y-399580490D01*
X118541364Y-399582467D01*
X118135198Y-399656174D01*
X118126396Y-399657366D01*
X117743478Y-399691830D01*
X117715274Y-399694369D01*
X117706401Y-399694768D01*
X117293599Y-399694768D01*
X117284725Y-399694369D01*
X117253890Y-399691593D01*
X116873603Y-399657366D01*
X116864801Y-399656174D01*
X116458635Y-399582467D01*
X116449974Y-399580490D01*
X116052059Y-399470672D01*
X116043611Y-399467927D01*
X115657142Y-399322883D01*
X115648974Y-399319392D01*
X115450677Y-399223898D01*
X115277052Y-399140284D01*
X115269239Y-399136080D01*
X115155365Y-399068043D01*
X114914884Y-398924361D01*
X114907470Y-398919468D01*
X114573503Y-398676827D01*
X114566558Y-398671288D01*
X114255699Y-398399699D01*
X114249278Y-398393560D01*
X113964013Y-398095196D01*
X113958169Y-398088506D01*
X113700799Y-397765774D01*
X113695577Y-397758588D01*
X113623914Y-397650024D01*
X113468160Y-397414067D01*
X113463617Y-397406462D01*
X113268001Y-397042947D01*
X113264149Y-397034948D01*
X113101906Y-396655363D01*
X113098795Y-396647072D01*
X112971230Y-396254465D01*
X112968867Y-396245903D01*
X112939608Y-396117713D01*
X112877008Y-395843443D01*
X112875428Y-395834735D01*
X112820014Y-395425655D01*
X112819219Y-395416815D01*
X112800600Y-395002226D01*
X112800500Y-394997784D01*
X112800500Y-354920943D01*
X113299500Y-354920943D01*
X113299500Y-355079057D01*
X113340423Y-355231784D01*
X113419480Y-355368716D01*
X113531284Y-355480520D01*
X113668216Y-355559577D01*
X113820943Y-355600500D01*
X113820945Y-355600500D01*
X113979055Y-355600500D01*
X113979057Y-355600500D01*
X114131784Y-355559577D01*
X114268716Y-355480520D01*
X114380520Y-355368716D01*
X114459577Y-355231784D01*
X114500500Y-355079057D01*
X114500500Y-354920943D01*
X114459577Y-354768216D01*
X114380520Y-354631284D01*
X114268716Y-354519480D01*
X114131784Y-354440423D01*
X113979057Y-354399500D01*
X113820943Y-354399500D01*
X113668216Y-354440423D01*
X113531284Y-354519480D01*
X113419480Y-354631284D01*
X113340423Y-354768216D01*
X113299500Y-354920943D01*
X112800500Y-354920943D01*
X112800500Y-334920943D01*
X113899500Y-334920943D01*
X113899500Y-335079057D01*
X113940423Y-335231784D01*
X114019480Y-335368716D01*
X114131284Y-335480520D01*
X114268216Y-335559577D01*
X114420943Y-335600500D01*
X114420945Y-335600500D01*
X114579055Y-335600500D01*
X114579057Y-335600500D01*
X114731784Y-335559577D01*
X114868716Y-335480520D01*
X114980520Y-335368716D01*
X115059577Y-335231784D01*
X115100500Y-335079057D01*
X115100500Y-334920943D01*
X115059577Y-334768216D01*
X114980520Y-334631284D01*
X114868716Y-334519480D01*
X114731784Y-334440423D01*
X114579057Y-334399500D01*
X114420943Y-334399500D01*
X114268216Y-334440423D01*
X114131284Y-334519480D01*
X114019480Y-334631284D01*
X113940423Y-334768216D01*
X113899500Y-334920943D01*
X112800500Y-334920943D01*
X112800500Y-314920943D01*
X114499500Y-314920943D01*
X114499500Y-315079057D01*
X114540423Y-315231784D01*
X114619480Y-315368716D01*
X114731284Y-315480520D01*
X114868216Y-315559577D01*
X115020943Y-315600500D01*
X115020945Y-315600500D01*
X115179055Y-315600500D01*
X115179057Y-315600500D01*
X115331784Y-315559577D01*
X115468716Y-315480520D01*
X115580520Y-315368716D01*
X115659577Y-315231784D01*
X115700500Y-315079057D01*
X115700500Y-314920943D01*
X115659577Y-314768216D01*
X115580520Y-314631284D01*
X115468716Y-314519480D01*
X115331784Y-314440423D01*
X115179057Y-314399500D01*
X115020943Y-314399500D01*
X114868216Y-314440423D01*
X114731284Y-314519480D01*
X114619480Y-314631284D01*
X114540423Y-314768216D01*
X114499500Y-314920943D01*
X112800500Y-314920943D01*
X112800500Y-294920943D01*
X115099500Y-294920943D01*
X115099500Y-295079057D01*
X115140423Y-295231784D01*
X115219480Y-295368716D01*
X115331284Y-295480520D01*
X115468216Y-295559577D01*
X115620943Y-295600500D01*
X115620945Y-295600500D01*
X115779055Y-295600500D01*
X115779057Y-295600500D01*
X115931784Y-295559577D01*
X116068716Y-295480520D01*
X116180520Y-295368716D01*
X116259577Y-295231784D01*
X116300500Y-295079057D01*
X116300500Y-294920943D01*
X116259577Y-294768216D01*
X116180520Y-294631284D01*
X116068716Y-294519480D01*
X115931784Y-294440423D01*
X115779057Y-294399500D01*
X115620943Y-294399500D01*
X115468216Y-294440423D01*
X115331284Y-294519480D01*
X115219480Y-294631284D01*
X115140423Y-294768216D01*
X115099500Y-294920943D01*
X112800500Y-294920943D01*
X112800500Y-274920943D01*
X115699500Y-274920943D01*
X115699500Y-275079057D01*
X115740423Y-275231784D01*
X115819480Y-275368716D01*
X115931284Y-275480520D01*
X116068216Y-275559577D01*
X116220943Y-275600500D01*
X116220945Y-275600500D01*
X116379055Y-275600500D01*
X116379057Y-275600500D01*
X116531784Y-275559577D01*
X116668716Y-275480520D01*
X116780520Y-275368716D01*
X116859577Y-275231784D01*
X116900500Y-275079057D01*
X116900500Y-274920943D01*
X116859577Y-274768216D01*
X116780520Y-274631284D01*
X116668716Y-274519480D01*
X116531784Y-274440423D01*
X116379057Y-274399500D01*
X116220943Y-274399500D01*
X116068216Y-274440423D01*
X115931284Y-274519480D01*
X115819480Y-274631284D01*
X115740423Y-274768216D01*
X115699500Y-274920943D01*
X112800500Y-274920943D01*
X112800500Y-254920943D01*
X116299500Y-254920943D01*
X116299500Y-255079057D01*
X116340423Y-255231784D01*
X116419480Y-255368716D01*
X116531284Y-255480520D01*
X116668216Y-255559577D01*
X116820943Y-255600500D01*
X116820945Y-255600500D01*
X116979055Y-255600500D01*
X116979057Y-255600500D01*
X117131784Y-255559577D01*
X117268716Y-255480520D01*
X117380520Y-255368716D01*
X117459577Y-255231784D01*
X117500500Y-255079057D01*
X117500500Y-254920943D01*
X117459577Y-254768216D01*
X117380520Y-254631284D01*
X117268716Y-254519480D01*
X117131784Y-254440423D01*
X116979057Y-254399500D01*
X116820943Y-254399500D01*
X116668216Y-254440423D01*
X116531284Y-254519480D01*
X116419480Y-254631284D01*
X116340423Y-254768216D01*
X116299500Y-254920943D01*
X112800500Y-254920943D01*
X112800500Y-234920943D01*
X116899500Y-234920943D01*
X116899500Y-235079057D01*
X116940423Y-235231784D01*
X117019480Y-235368716D01*
X117131284Y-235480520D01*
X117268216Y-235559577D01*
X117420943Y-235600500D01*
X117420945Y-235600500D01*
X117579055Y-235600500D01*
X117579057Y-235600500D01*
X117731784Y-235559577D01*
X117868716Y-235480520D01*
X117980520Y-235368716D01*
X118059577Y-235231784D01*
X118100500Y-235079057D01*
X118100500Y-234920943D01*
X118059577Y-234768216D01*
X117980520Y-234631284D01*
X117868716Y-234519480D01*
X117731784Y-234440423D01*
X117579057Y-234399500D01*
X117420943Y-234399500D01*
X117268216Y-234440423D01*
X117131284Y-234519480D01*
X117019480Y-234631284D01*
X116940423Y-234768216D01*
X116899500Y-234920943D01*
X112800500Y-234920943D01*
X112800500Y-214920943D01*
X117499500Y-214920943D01*
X117499500Y-215079057D01*
X117540423Y-215231784D01*
X117619480Y-215368716D01*
X117731284Y-215480520D01*
X117868216Y-215559577D01*
X118020943Y-215600500D01*
X118020945Y-215600500D01*
X118179055Y-215600500D01*
X118179057Y-215600500D01*
X118331784Y-215559577D01*
X118468716Y-215480520D01*
X118580520Y-215368716D01*
X118659577Y-215231784D01*
X118700500Y-215079057D01*
X118700500Y-214920943D01*
X118659577Y-214768216D01*
X118580520Y-214631284D01*
X118468716Y-214519480D01*
X118331784Y-214440423D01*
X118179057Y-214399500D01*
X118020943Y-214399500D01*
X117868216Y-214440423D01*
X117731284Y-214519480D01*
X117619480Y-214631284D01*
X117540423Y-214768216D01*
X117499500Y-214920943D01*
X112800500Y-214920943D01*
X112800500Y-194920943D01*
X118099500Y-194920943D01*
X118099500Y-195079057D01*
X118140423Y-195231784D01*
X118219480Y-195368716D01*
X118331284Y-195480520D01*
X118468216Y-195559577D01*
X118620943Y-195600500D01*
X118620945Y-195600500D01*
X118779055Y-195600500D01*
X118779057Y-195600500D01*
X118931784Y-195559577D01*
X119068716Y-195480520D01*
X119180520Y-195368716D01*
X119259577Y-195231784D01*
X119300500Y-195079057D01*
X119300500Y-194920943D01*
X119259577Y-194768216D01*
X119180520Y-194631284D01*
X119068716Y-194519480D01*
X118931784Y-194440423D01*
X118779057Y-194399500D01*
X118620943Y-194399500D01*
X118468216Y-194440423D01*
X118331284Y-194519480D01*
X118219480Y-194631284D01*
X118140423Y-194768216D01*
X118099500Y-194920943D01*
X112800500Y-194920943D01*
X112800500Y-174920943D01*
X118699500Y-174920943D01*
X118699500Y-175079057D01*
X118740423Y-175231784D01*
X118819480Y-175368716D01*
X118931284Y-175480520D01*
X119068216Y-175559577D01*
X119220943Y-175600500D01*
X119220945Y-175600500D01*
X119379055Y-175600500D01*
X119379057Y-175600500D01*
X119531784Y-175559577D01*
X119668716Y-175480520D01*
X119780520Y-175368716D01*
X119859577Y-175231784D01*
X119900500Y-175079057D01*
X119900500Y-174920943D01*
X119859577Y-174768216D01*
X119780520Y-174631284D01*
X119668716Y-174519480D01*
X119531784Y-174440423D01*
X119379057Y-174399500D01*
X119220943Y-174399500D01*
X119068216Y-174440423D01*
X118931284Y-174519480D01*
X118819480Y-174631284D01*
X118740423Y-174768216D01*
X118699500Y-174920943D01*
X112800500Y-174920943D01*
X112800500Y-154920943D01*
X119299500Y-154920943D01*
X119299500Y-155079057D01*
X119340423Y-155231784D01*
X119419480Y-155368716D01*
X119531284Y-155480520D01*
X119668216Y-155559577D01*
X119820943Y-155600500D01*
X119820945Y-155600500D01*
X119979055Y-155600500D01*
X119979057Y-155600500D01*
X120131784Y-155559577D01*
X120268716Y-155480520D01*
X120380520Y-155368716D01*
X120459577Y-155231784D01*
X120500500Y-155079057D01*
X120500500Y-154920943D01*
X120459577Y-154768216D01*
X120380520Y-154631284D01*
X120268716Y-154519480D01*
X120131784Y-154440423D01*
X119979057Y-154399500D01*
X119820943Y-154399500D01*
X119668216Y-154440423D01*
X119531284Y-154519480D01*
X119419480Y-154631284D01*
X119340423Y-154768216D01*
X119299500Y-154920943D01*
X112800500Y-154920943D01*
X112800500Y-134920943D01*
X119899500Y-134920943D01*
X119899500Y-135079057D01*
X119940423Y-135231784D01*
X120019480Y-135368716D01*
X120131284Y-135480520D01*
X120268216Y-135559577D01*
X120420943Y-135600500D01*
X120420945Y-135600500D01*
X120579055Y-135600500D01*
X120579057Y-135600500D01*
X120731784Y-135559577D01*
X120868716Y-135480520D01*
X120980520Y-135368716D01*
X121059577Y-135231784D01*
X121100500Y-135079057D01*
X121100500Y-134920943D01*
X121059577Y-134768216D01*
X120980520Y-134631284D01*
X120868716Y-134519480D01*
X120731784Y-134440423D01*
X120579057Y-134399500D01*
X120420943Y-134399500D01*
X120268216Y-134440423D01*
X120131284Y-134519480D01*
X120019480Y-134631284D01*
X119940423Y-134768216D01*
X119899500Y-134920943D01*
X112800500Y-134920943D01*
X112800500Y-115920943D01*
X120499500Y-115920943D01*
X120499500Y-116079057D01*
X120540423Y-116231784D01*
X120619480Y-116368716D01*
X120731284Y-116480520D01*
X120868216Y-116559577D01*
X121020943Y-116600500D01*
X121020945Y-116600500D01*
X121179055Y-116600500D01*
X121179057Y-116600500D01*
X121331784Y-116559577D01*
X121468716Y-116480520D01*
X121580520Y-116368716D01*
X121659577Y-116231784D01*
X121700500Y-116079057D01*
X121700500Y-115920943D01*
X121659577Y-115768216D01*
X121580520Y-115631284D01*
X121468716Y-115519480D01*
X121331784Y-115440423D01*
X121179057Y-115399500D01*
X121020943Y-115399500D01*
X120868216Y-115440423D01*
X120731284Y-115519480D01*
X120619480Y-115631284D01*
X120540423Y-115768216D01*
X120499500Y-115920943D01*
X112800500Y-115920943D01*
X112800500Y-99960437D01*
X112800499Y-99960435D01*
X112780021Y-99884011D01*
X112780019Y-99884007D01*
X112740461Y-99815491D01*
X112740460Y-99815489D01*
X112684511Y-99759540D01*
X112684508Y-99759538D01*
X112615992Y-99719980D01*
X112615988Y-99719978D01*
X112539564Y-99699500D01*
X112539562Y-99699500D01*
X97899500Y-99699500D01*
X97841309Y-99680593D01*
X97805345Y-99631093D01*
X97800500Y-99600500D01*
X97800500Y-93420943D01*
X107299500Y-93420943D01*
X107299500Y-93579057D01*
X107340423Y-93731784D01*
X107419480Y-93868716D01*
X107531284Y-93980520D01*
X107668216Y-94059577D01*
X107820943Y-94100500D01*
X107820945Y-94100500D01*
X107979055Y-94100500D01*
X107979057Y-94100500D01*
X108131784Y-94059577D01*
X108268716Y-93980520D01*
X108380520Y-93868716D01*
X108459577Y-93731784D01*
X108500500Y-93579057D01*
X108500500Y-93420943D01*
X108899500Y-93420943D01*
X108899500Y-93579057D01*
X108940423Y-93731784D01*
X109019480Y-93868716D01*
X109131284Y-93980520D01*
X109268216Y-94059577D01*
X109420943Y-94100500D01*
X109420945Y-94100500D01*
X109579055Y-94100500D01*
X109579057Y-94100500D01*
X109731784Y-94059577D01*
X109868716Y-93980520D01*
X109980520Y-93868716D01*
X110059577Y-93731784D01*
X110100500Y-93579057D01*
X110100500Y-93420943D01*
X110499500Y-93420943D01*
X110499500Y-93579057D01*
X110540423Y-93731784D01*
X110619480Y-93868716D01*
X110731284Y-93980520D01*
X110868216Y-94059577D01*
X111020943Y-94100500D01*
X111020945Y-94100500D01*
X111179055Y-94100500D01*
X111179057Y-94100500D01*
X111331784Y-94059577D01*
X111468716Y-93980520D01*
X111580520Y-93868716D01*
X111659577Y-93731784D01*
X111700500Y-93579057D01*
X111700500Y-93420943D01*
X112099500Y-93420943D01*
X112099500Y-93579057D01*
X112140423Y-93731784D01*
X112219480Y-93868716D01*
X112331284Y-93980520D01*
X112468216Y-94059577D01*
X112620943Y-94100500D01*
X112620945Y-94100500D01*
X112779055Y-94100500D01*
X112779057Y-94100500D01*
X112931784Y-94059577D01*
X113068716Y-93980520D01*
X113180520Y-93868716D01*
X113259577Y-93731784D01*
X113300500Y-93579057D01*
X113300500Y-93420943D01*
X113699500Y-93420943D01*
X113699500Y-93579057D01*
X113740423Y-93731784D01*
X113819480Y-93868716D01*
X113931284Y-93980520D01*
X114068216Y-94059577D01*
X114220943Y-94100500D01*
X114220945Y-94100500D01*
X114379055Y-94100500D01*
X114379057Y-94100500D01*
X114531784Y-94059577D01*
X114668716Y-93980520D01*
X114780520Y-93868716D01*
X114859577Y-93731784D01*
X114900500Y-93579057D01*
X114900500Y-93420943D01*
X115299500Y-93420943D01*
X115299500Y-93579057D01*
X115340423Y-93731784D01*
X115419480Y-93868716D01*
X115531284Y-93980520D01*
X115668216Y-94059577D01*
X115820943Y-94100500D01*
X115820945Y-94100500D01*
X115979055Y-94100500D01*
X115979057Y-94100500D01*
X116131784Y-94059577D01*
X116268716Y-93980520D01*
X116380520Y-93868716D01*
X116459577Y-93731784D01*
X116500500Y-93579057D01*
X116500500Y-93420943D01*
X116899500Y-93420943D01*
X116899500Y-93579057D01*
X116940423Y-93731784D01*
X117019480Y-93868716D01*
X117131284Y-93980520D01*
X117268216Y-94059577D01*
X117420943Y-94100500D01*
X117420945Y-94100500D01*
X117579055Y-94100500D01*
X117579057Y-94100500D01*
X117731784Y-94059577D01*
X117868716Y-93980520D01*
X117980520Y-93868716D01*
X118059577Y-93731784D01*
X118100500Y-93579057D01*
X118100500Y-93420943D01*
X118499500Y-93420943D01*
X118499500Y-93579057D01*
X118540423Y-93731784D01*
X118619480Y-93868716D01*
X118731284Y-93980520D01*
X118868216Y-94059577D01*
X119020943Y-94100500D01*
X119020945Y-94100500D01*
X119179055Y-94100500D01*
X119179057Y-94100500D01*
X119331784Y-94059577D01*
X119468716Y-93980520D01*
X119580520Y-93868716D01*
X119659577Y-93731784D01*
X119700500Y-93579057D01*
X119700500Y-93420943D01*
X120099500Y-93420943D01*
X120099500Y-93579057D01*
X120140423Y-93731784D01*
X120219480Y-93868716D01*
X120331284Y-93980520D01*
X120468216Y-94059577D01*
X120620943Y-94100500D01*
X120620945Y-94100500D01*
X120779055Y-94100500D01*
X120779057Y-94100500D01*
X120931784Y-94059577D01*
X121068716Y-93980520D01*
X121180520Y-93868716D01*
X121259577Y-93731784D01*
X121300500Y-93579057D01*
X121300500Y-93420943D01*
X121699500Y-93420943D01*
X121699500Y-93579057D01*
X121740423Y-93731784D01*
X121819480Y-93868716D01*
X121931284Y-93980520D01*
X122068216Y-94059577D01*
X122220943Y-94100500D01*
X122220945Y-94100500D01*
X122379055Y-94100500D01*
X122379057Y-94100500D01*
X122531784Y-94059577D01*
X122668716Y-93980520D01*
X122780520Y-93868716D01*
X122859577Y-93731784D01*
X122900500Y-93579057D01*
X122900500Y-93420943D01*
X123299500Y-93420943D01*
X123299500Y-93579057D01*
X123340423Y-93731784D01*
X123419480Y-93868716D01*
X123531284Y-93980520D01*
X123668216Y-94059577D01*
X123820943Y-94100500D01*
X123820945Y-94100500D01*
X123979055Y-94100500D01*
X123979057Y-94100500D01*
X124131784Y-94059577D01*
X124268716Y-93980520D01*
X124380520Y-93868716D01*
X124459577Y-93731784D01*
X124500500Y-93579057D01*
X124500500Y-93420943D01*
X124899500Y-93420943D01*
X124899500Y-93579057D01*
X124940423Y-93731784D01*
X125019480Y-93868716D01*
X125131284Y-93980520D01*
X125268216Y-94059577D01*
X125420943Y-94100500D01*
X125420945Y-94100500D01*
X125579055Y-94100500D01*
X125579057Y-94100500D01*
X125731784Y-94059577D01*
X125868716Y-93980520D01*
X125980520Y-93868716D01*
X126059577Y-93731784D01*
X126100500Y-93579057D01*
X126100500Y-93420943D01*
X126499500Y-93420943D01*
X126499500Y-93579057D01*
X126540423Y-93731784D01*
X126619480Y-93868716D01*
X126731284Y-93980520D01*
X126868216Y-94059577D01*
X127020943Y-94100500D01*
X127020945Y-94100500D01*
X127179055Y-94100500D01*
X127179057Y-94100500D01*
X127331784Y-94059577D01*
X127468716Y-93980520D01*
X127580520Y-93868716D01*
X127659577Y-93731784D01*
X127700500Y-93579057D01*
X127700500Y-93420943D01*
X127659577Y-93268216D01*
X127580520Y-93131284D01*
X127468716Y-93019480D01*
X127331784Y-92940423D01*
X127179057Y-92899500D01*
X127020943Y-92899500D01*
X126868216Y-92940423D01*
X126731284Y-93019480D01*
X126619480Y-93131284D01*
X126540423Y-93268216D01*
X126499500Y-93420943D01*
X126100500Y-93420943D01*
X126059577Y-93268216D01*
X125980520Y-93131284D01*
X125868716Y-93019480D01*
X125731784Y-92940423D01*
X125579057Y-92899500D01*
X125420943Y-92899500D01*
X125268216Y-92940423D01*
X125131284Y-93019480D01*
X125019480Y-93131284D01*
X124940423Y-93268216D01*
X124899500Y-93420943D01*
X124500500Y-93420943D01*
X124459577Y-93268216D01*
X124380520Y-93131284D01*
X124268716Y-93019480D01*
X124131784Y-92940423D01*
X123979057Y-92899500D01*
X123820943Y-92899500D01*
X123668216Y-92940423D01*
X123531284Y-93019480D01*
X123419480Y-93131284D01*
X123340423Y-93268216D01*
X123299500Y-93420943D01*
X122900500Y-93420943D01*
X122859577Y-93268216D01*
X122780520Y-93131284D01*
X122668716Y-93019480D01*
X122531784Y-92940423D01*
X122379057Y-92899500D01*
X122220943Y-92899500D01*
X122068216Y-92940423D01*
X121931284Y-93019480D01*
X121819480Y-93131284D01*
X121740423Y-93268216D01*
X121699500Y-93420943D01*
X121300500Y-93420943D01*
X121259577Y-93268216D01*
X121180520Y-93131284D01*
X121068716Y-93019480D01*
X120931784Y-92940423D01*
X120779057Y-92899500D01*
X120620943Y-92899500D01*
X120468216Y-92940423D01*
X120331284Y-93019480D01*
X120219480Y-93131284D01*
X120140423Y-93268216D01*
X120099500Y-93420943D01*
X119700500Y-93420943D01*
X119659577Y-93268216D01*
X119580520Y-93131284D01*
X119468716Y-93019480D01*
X119331784Y-92940423D01*
X119179057Y-92899500D01*
X119020943Y-92899500D01*
X118868216Y-92940423D01*
X118731284Y-93019480D01*
X118619480Y-93131284D01*
X118540423Y-93268216D01*
X118499500Y-93420943D01*
X118100500Y-93420943D01*
X118059577Y-93268216D01*
X117980520Y-93131284D01*
X117868716Y-93019480D01*
X117731784Y-92940423D01*
X117579057Y-92899500D01*
X117420943Y-92899500D01*
X117268216Y-92940423D01*
X117131284Y-93019480D01*
X117019480Y-93131284D01*
X116940423Y-93268216D01*
X116899500Y-93420943D01*
X116500500Y-93420943D01*
X116459577Y-93268216D01*
X116380520Y-93131284D01*
X116268716Y-93019480D01*
X116131784Y-92940423D01*
X115979057Y-92899500D01*
X115820943Y-92899500D01*
X115668216Y-92940423D01*
X115531284Y-93019480D01*
X115419480Y-93131284D01*
X115340423Y-93268216D01*
X115299500Y-93420943D01*
X114900500Y-93420943D01*
X114859577Y-93268216D01*
X114780520Y-93131284D01*
X114668716Y-93019480D01*
X114531784Y-92940423D01*
X114379057Y-92899500D01*
X114220943Y-92899500D01*
X114068216Y-92940423D01*
X113931284Y-93019480D01*
X113819480Y-93131284D01*
X113740423Y-93268216D01*
X113699500Y-93420943D01*
X113300500Y-93420943D01*
X113259577Y-93268216D01*
X113180520Y-93131284D01*
X113068716Y-93019480D01*
X112931784Y-92940423D01*
X112779057Y-92899500D01*
X112620943Y-92899500D01*
X112468216Y-92940423D01*
X112331284Y-93019480D01*
X112219480Y-93131284D01*
X112140423Y-93268216D01*
X112099500Y-93420943D01*
X111700500Y-93420943D01*
X111659577Y-93268216D01*
X111580520Y-93131284D01*
X111468716Y-93019480D01*
X111331784Y-92940423D01*
X111179057Y-92899500D01*
X111020943Y-92899500D01*
X110868216Y-92940423D01*
X110731284Y-93019480D01*
X110619480Y-93131284D01*
X110540423Y-93268216D01*
X110499500Y-93420943D01*
X110100500Y-93420943D01*
X110059577Y-93268216D01*
X109980520Y-93131284D01*
X109868716Y-93019480D01*
X109731784Y-92940423D01*
X109579057Y-92899500D01*
X109420943Y-92899500D01*
X109268216Y-92940423D01*
X109131284Y-93019480D01*
X109019480Y-93131284D01*
X108940423Y-93268216D01*
X108899500Y-93420943D01*
X108500500Y-93420943D01*
X108459577Y-93268216D01*
X108380520Y-93131284D01*
X108268716Y-93019480D01*
X108131784Y-92940423D01*
X107979057Y-92899500D01*
X107820943Y-92899500D01*
X107668216Y-92940423D01*
X107531284Y-93019480D01*
X107419480Y-93131284D01*
X107340423Y-93268216D01*
X107299500Y-93420943D01*
X97800500Y-93420943D01*
X97800500Y-91892643D01*
X135152600Y-91892643D01*
X135152600Y-92050757D01*
X135193523Y-92203484D01*
X135272580Y-92340416D01*
X135384384Y-92452220D01*
X135521316Y-92531277D01*
X135674043Y-92572200D01*
X135674045Y-92572200D01*
X135832155Y-92572200D01*
X135832157Y-92572200D01*
X135984884Y-92531277D01*
X136121816Y-92452220D01*
X136233620Y-92340416D01*
X136312677Y-92203484D01*
X136353600Y-92050757D01*
X136353600Y-91892643D01*
X136312677Y-91739916D01*
X136233620Y-91602984D01*
X136121816Y-91491180D01*
X135984884Y-91412123D01*
X135832157Y-91371200D01*
X135674043Y-91371200D01*
X135521316Y-91412123D01*
X135384384Y-91491180D01*
X135272580Y-91602984D01*
X135193523Y-91739916D01*
X135152600Y-91892643D01*
X97800500Y-91892643D01*
X97800500Y-90045543D01*
X120099500Y-90045543D01*
X120099500Y-90203657D01*
X120140423Y-90356384D01*
X120219480Y-90493316D01*
X120331284Y-90605120D01*
X120468216Y-90684177D01*
X120620943Y-90725100D01*
X120620945Y-90725100D01*
X120779055Y-90725100D01*
X120779057Y-90725100D01*
X120931784Y-90684177D01*
X121068716Y-90605120D01*
X121180520Y-90493316D01*
X121259577Y-90356384D01*
X121300500Y-90203657D01*
X121300500Y-90045543D01*
X121259577Y-89892816D01*
X121180520Y-89755884D01*
X121068716Y-89644080D01*
X120931784Y-89565023D01*
X120779057Y-89524100D01*
X120620943Y-89524100D01*
X120468216Y-89565023D01*
X120331284Y-89644080D01*
X120219480Y-89755884D01*
X120140423Y-89892816D01*
X120099500Y-90045543D01*
X97800500Y-90045543D01*
X97800500Y-88931004D01*
X100895800Y-88931004D01*
X100895800Y-89068995D01*
X100922720Y-89204327D01*
X100922720Y-89204329D01*
X100975522Y-89331806D01*
X100975528Y-89331817D01*
X101052185Y-89446541D01*
X101149758Y-89544114D01*
X101264482Y-89620771D01*
X101264493Y-89620777D01*
X101311583Y-89640282D01*
X101391972Y-89673580D01*
X101527307Y-89700500D01*
X101527308Y-89700500D01*
X101665292Y-89700500D01*
X101665293Y-89700500D01*
X101800628Y-89673580D01*
X101928111Y-89620775D01*
X102042842Y-89544114D01*
X102140414Y-89446542D01*
X102217075Y-89331811D01*
X102269880Y-89204328D01*
X102296800Y-89068993D01*
X102296800Y-88931007D01*
X102292113Y-88907443D01*
X121699500Y-88907443D01*
X121699500Y-89065557D01*
X121740423Y-89218284D01*
X121819480Y-89355216D01*
X121931284Y-89467020D01*
X122068216Y-89546077D01*
X122220943Y-89587000D01*
X122220945Y-89587000D01*
X122379055Y-89587000D01*
X122379057Y-89587000D01*
X122531784Y-89546077D01*
X122668716Y-89467020D01*
X122780520Y-89355216D01*
X122859577Y-89218284D01*
X122900500Y-89065557D01*
X122900500Y-88907443D01*
X122859577Y-88754716D01*
X122780520Y-88617784D01*
X122668716Y-88505980D01*
X122531784Y-88426923D01*
X122379057Y-88386000D01*
X122220943Y-88386000D01*
X122068216Y-88426923D01*
X121931284Y-88505980D01*
X121819480Y-88617784D01*
X121740423Y-88754716D01*
X121699500Y-88907443D01*
X102292113Y-88907443D01*
X102269880Y-88795672D01*
X102252278Y-88753177D01*
X102217077Y-88668193D01*
X102217071Y-88668182D01*
X102140414Y-88553458D01*
X102042841Y-88455885D01*
X101928117Y-88379228D01*
X101928106Y-88379222D01*
X101800628Y-88326420D01*
X101665295Y-88299500D01*
X101665293Y-88299500D01*
X101527307Y-88299500D01*
X101527304Y-88299500D01*
X101391972Y-88326420D01*
X101391970Y-88326420D01*
X101264493Y-88379222D01*
X101264482Y-88379228D01*
X101149758Y-88455885D01*
X101052185Y-88553458D01*
X100975528Y-88668182D01*
X100975522Y-88668193D01*
X100922720Y-88795670D01*
X100922720Y-88795672D01*
X100895800Y-88931004D01*
X97800500Y-88931004D01*
X97800500Y-87608443D01*
X115299500Y-87608443D01*
X115299500Y-87766557D01*
X115340423Y-87919284D01*
X115419480Y-88056216D01*
X115531284Y-88168020D01*
X115668216Y-88247077D01*
X115820943Y-88288000D01*
X115820945Y-88288000D01*
X115979055Y-88288000D01*
X115979057Y-88288000D01*
X116131784Y-88247077D01*
X116265212Y-88170043D01*
X118499500Y-88170043D01*
X118499500Y-88328157D01*
X118540423Y-88480884D01*
X118619480Y-88617816D01*
X118731284Y-88729620D01*
X118868216Y-88808677D01*
X119020943Y-88849600D01*
X119020945Y-88849600D01*
X119179055Y-88849600D01*
X119179057Y-88849600D01*
X119331784Y-88808677D01*
X119468716Y-88729620D01*
X119580520Y-88617816D01*
X119659577Y-88480884D01*
X119700500Y-88328157D01*
X119700500Y-88170043D01*
X119659577Y-88017316D01*
X119580520Y-87880384D01*
X119480679Y-87780543D01*
X124899500Y-87780543D01*
X124899500Y-87938657D01*
X124940423Y-88091384D01*
X125019480Y-88228316D01*
X125131284Y-88340120D01*
X125268216Y-88419177D01*
X125420943Y-88460100D01*
X125420945Y-88460100D01*
X125579055Y-88460100D01*
X125579057Y-88460100D01*
X125731784Y-88419177D01*
X125868716Y-88340120D01*
X125980520Y-88228316D01*
X126059577Y-88091384D01*
X126100500Y-87938657D01*
X126100500Y-87780543D01*
X126059577Y-87627816D01*
X125980520Y-87490884D01*
X125868716Y-87379080D01*
X125731784Y-87300023D01*
X125579057Y-87259100D01*
X125420943Y-87259100D01*
X125268216Y-87300023D01*
X125131284Y-87379080D01*
X125019480Y-87490884D01*
X124940423Y-87627816D01*
X124899500Y-87780543D01*
X119480679Y-87780543D01*
X119468716Y-87768580D01*
X119331784Y-87689523D01*
X119179057Y-87648600D01*
X119020943Y-87648600D01*
X118868216Y-87689523D01*
X118731284Y-87768580D01*
X118619480Y-87880384D01*
X118540423Y-88017316D01*
X118499500Y-88170043D01*
X116265212Y-88170043D01*
X116268716Y-88168020D01*
X116380520Y-88056216D01*
X116459577Y-87919284D01*
X116500500Y-87766557D01*
X116500500Y-87608443D01*
X116459577Y-87455716D01*
X116380520Y-87318784D01*
X116268716Y-87206980D01*
X116131784Y-87127923D01*
X115979057Y-87087000D01*
X115820943Y-87087000D01*
X115668216Y-87127923D01*
X115531284Y-87206980D01*
X115419480Y-87318784D01*
X115340423Y-87455716D01*
X115299500Y-87608443D01*
X97800500Y-87608443D01*
X97800500Y-86782743D01*
X108899500Y-86782743D01*
X108899500Y-86940857D01*
X108940423Y-87093584D01*
X109019480Y-87230516D01*
X109131284Y-87342320D01*
X109268216Y-87421377D01*
X109420943Y-87462300D01*
X109420945Y-87462300D01*
X109579055Y-87462300D01*
X109579057Y-87462300D01*
X109731784Y-87421377D01*
X109868716Y-87342320D01*
X109980520Y-87230516D01*
X110059577Y-87093584D01*
X110084239Y-87001543D01*
X123299500Y-87001543D01*
X123299500Y-87159657D01*
X123340423Y-87312384D01*
X123419480Y-87449316D01*
X123531284Y-87561120D01*
X123668216Y-87640177D01*
X123820943Y-87681100D01*
X123820945Y-87681100D01*
X123979055Y-87681100D01*
X123979057Y-87681100D01*
X124131784Y-87640177D01*
X124268716Y-87561120D01*
X124380520Y-87449316D01*
X124459577Y-87312384D01*
X124500500Y-87159657D01*
X124500500Y-87001543D01*
X124459577Y-86848816D01*
X124380520Y-86711884D01*
X124268716Y-86600080D01*
X124131784Y-86521023D01*
X123979057Y-86480100D01*
X123820943Y-86480100D01*
X123668216Y-86521023D01*
X123531284Y-86600080D01*
X123419480Y-86711884D01*
X123340423Y-86848816D01*
X123299500Y-87001543D01*
X110084239Y-87001543D01*
X110100500Y-86940857D01*
X110100500Y-86782743D01*
X110059577Y-86630016D01*
X109980520Y-86493084D01*
X109868716Y-86381280D01*
X109731784Y-86302223D01*
X109579057Y-86261300D01*
X109420943Y-86261300D01*
X109268216Y-86302223D01*
X109131284Y-86381280D01*
X109019480Y-86493084D01*
X108940423Y-86630016D01*
X108899500Y-86782743D01*
X97800500Y-86782743D01*
X97800500Y-85219543D01*
X116899500Y-85219543D01*
X116899500Y-85377657D01*
X116940423Y-85530384D01*
X117019480Y-85667316D01*
X117131284Y-85779120D01*
X117268216Y-85858177D01*
X117420943Y-85899100D01*
X117420945Y-85899100D01*
X117579055Y-85899100D01*
X117579057Y-85899100D01*
X117691231Y-85869043D01*
X126499500Y-85869043D01*
X126499500Y-86027157D01*
X126540423Y-86179884D01*
X126619480Y-86316816D01*
X126731284Y-86428620D01*
X126868216Y-86507677D01*
X127020943Y-86548600D01*
X127020945Y-86548600D01*
X127179055Y-86548600D01*
X127179057Y-86548600D01*
X127331784Y-86507677D01*
X127468716Y-86428620D01*
X127580520Y-86316816D01*
X127659577Y-86179884D01*
X127700500Y-86027157D01*
X127700500Y-85869043D01*
X127659577Y-85716316D01*
X127580520Y-85579384D01*
X127468716Y-85467580D01*
X127331784Y-85388523D01*
X127179057Y-85347600D01*
X127020943Y-85347600D01*
X126868216Y-85388523D01*
X126731284Y-85467580D01*
X126619480Y-85579384D01*
X126540423Y-85716316D01*
X126499500Y-85869043D01*
X117691231Y-85869043D01*
X117731784Y-85858177D01*
X117868716Y-85779120D01*
X117980520Y-85667316D01*
X118059577Y-85530384D01*
X118100500Y-85377657D01*
X118100500Y-85219543D01*
X118059577Y-85066816D01*
X117980520Y-84929884D01*
X117868716Y-84818080D01*
X117731784Y-84739023D01*
X117579057Y-84698100D01*
X117420943Y-84698100D01*
X117268216Y-84739023D01*
X117131284Y-84818080D01*
X117019480Y-84929884D01*
X116940423Y-85066816D01*
X116899500Y-85219543D01*
X97800500Y-85219543D01*
X97800500Y-83829843D01*
X110499500Y-83829843D01*
X110499500Y-83987957D01*
X110540423Y-84140684D01*
X110619480Y-84277616D01*
X110731284Y-84389420D01*
X110868216Y-84468477D01*
X111020943Y-84509400D01*
X111020945Y-84509400D01*
X111179055Y-84509400D01*
X111179057Y-84509400D01*
X111331784Y-84468477D01*
X111468716Y-84389420D01*
X111580520Y-84277616D01*
X111659577Y-84140684D01*
X111700500Y-83987957D01*
X111700500Y-83829843D01*
X111659577Y-83677116D01*
X111580520Y-83540184D01*
X111468716Y-83428380D01*
X111331784Y-83349323D01*
X111179057Y-83308400D01*
X111020943Y-83308400D01*
X110868216Y-83349323D01*
X110731284Y-83428380D01*
X110619480Y-83540184D01*
X110540423Y-83677116D01*
X110499500Y-83829843D01*
X97800500Y-83829843D01*
X97800500Y-78084243D01*
X113699500Y-78084243D01*
X113699500Y-78242357D01*
X113740423Y-78395084D01*
X113819480Y-78532016D01*
X113931284Y-78643820D01*
X114068216Y-78722877D01*
X114220943Y-78763800D01*
X114220945Y-78763800D01*
X114379055Y-78763800D01*
X114379057Y-78763800D01*
X114531784Y-78722877D01*
X114668716Y-78643820D01*
X114780520Y-78532016D01*
X114859577Y-78395084D01*
X114900500Y-78242357D01*
X114900500Y-78084243D01*
X114859577Y-77931516D01*
X114780520Y-77794584D01*
X114668716Y-77682780D01*
X114531784Y-77603723D01*
X114379057Y-77562800D01*
X114220943Y-77562800D01*
X114068216Y-77603723D01*
X113931284Y-77682780D01*
X113819480Y-77794584D01*
X113740423Y-77931516D01*
X113699500Y-78084243D01*
X97800500Y-78084243D01*
X97800500Y-73619943D01*
X106541400Y-73619943D01*
X106541400Y-73778057D01*
X106582323Y-73930784D01*
X106661380Y-74067716D01*
X106773184Y-74179520D01*
X106910116Y-74258577D01*
X107062843Y-74299500D01*
X107062845Y-74299500D01*
X107220955Y-74299500D01*
X107220957Y-74299500D01*
X107373684Y-74258577D01*
X107510616Y-74179520D01*
X107622420Y-74067716D01*
X107701477Y-73930784D01*
X107742400Y-73778057D01*
X107742400Y-73619943D01*
X107701477Y-73467216D01*
X107622420Y-73330284D01*
X107510616Y-73218480D01*
X107373684Y-73139423D01*
X107220957Y-73098500D01*
X107062843Y-73098500D01*
X106910116Y-73139423D01*
X106773184Y-73218480D01*
X106661380Y-73330284D01*
X106582323Y-73467216D01*
X106541400Y-73619943D01*
X97800500Y-73619943D01*
X97800500Y-70398999D01*
X97819407Y-70340808D01*
X97856796Y-70313643D01*
X111477500Y-70313643D01*
X111477500Y-70471757D01*
X111518423Y-70624484D01*
X111597480Y-70761416D01*
X111709284Y-70873220D01*
X111846216Y-70952277D01*
X111998943Y-70993200D01*
X111998945Y-70993200D01*
X112084047Y-70993200D01*
X112142238Y-71012107D01*
X112178202Y-71061607D01*
X112178202Y-71122793D01*
X112169787Y-71141691D01*
X112095123Y-71271016D01*
X112054200Y-71423743D01*
X112054200Y-71581857D01*
X112095123Y-71734584D01*
X112174180Y-71871516D01*
X112285984Y-71983320D01*
X112422916Y-72062377D01*
X112575643Y-72103300D01*
X112575645Y-72103300D01*
X112733755Y-72103300D01*
X112733757Y-72103300D01*
X112886484Y-72062377D01*
X112951002Y-72025127D01*
X113010848Y-72012407D01*
X113066744Y-72037294D01*
X113097337Y-72090282D01*
X113099500Y-72110865D01*
X113099500Y-73395780D01*
X113080593Y-73453971D01*
X113031093Y-73489935D01*
X112969907Y-73489935D01*
X112951003Y-73481518D01*
X112931786Y-73470424D01*
X112931785Y-73470423D01*
X112931784Y-73470423D01*
X112779057Y-73429500D01*
X112620943Y-73429500D01*
X112468216Y-73470423D01*
X112331284Y-73549480D01*
X112219480Y-73661284D01*
X112140423Y-73798216D01*
X112099500Y-73950943D01*
X112099500Y-74109057D01*
X112140423Y-74261784D01*
X112219480Y-74398716D01*
X112331284Y-74510520D01*
X112468216Y-74589577D01*
X112620943Y-74630500D01*
X112620945Y-74630500D01*
X112779055Y-74630500D01*
X112779057Y-74630500D01*
X112931784Y-74589577D01*
X113012282Y-74543101D01*
X113072129Y-74530380D01*
X113128025Y-74555266D01*
X113153878Y-74592519D01*
X113165637Y-74622339D01*
X113165638Y-74622341D01*
X113165639Y-74622342D01*
X113257078Y-74742922D01*
X113377658Y-74834361D01*
X113518436Y-74889876D01*
X113606901Y-74900500D01*
X114693098Y-74900499D01*
X114781564Y-74889876D01*
X114922342Y-74834361D01*
X115042922Y-74742922D01*
X115134361Y-74622342D01*
X115189876Y-74481564D01*
X115200500Y-74393099D01*
X115200499Y-71406902D01*
X115189876Y-71318436D01*
X115134361Y-71177658D01*
X115042922Y-71057078D01*
X114922342Y-70965639D01*
X114781564Y-70910124D01*
X114693099Y-70899500D01*
X113606903Y-70899500D01*
X113606894Y-70899501D01*
X113573580Y-70903502D01*
X113513550Y-70891667D01*
X113471941Y-70846808D01*
X113464647Y-70786059D01*
X113494452Y-70732624D01*
X113512270Y-70719475D01*
X113618716Y-70658020D01*
X113730520Y-70546216D01*
X113809577Y-70409284D01*
X113850500Y-70256557D01*
X113850500Y-70098443D01*
X113809577Y-69945716D01*
X113730520Y-69808784D01*
X113618716Y-69696980D01*
X113481784Y-69617923D01*
X113329057Y-69577000D01*
X113170943Y-69577000D01*
X113031681Y-69614315D01*
X113018216Y-69617923D01*
X112881284Y-69696980D01*
X112769480Y-69808784D01*
X112690421Y-69945718D01*
X112690421Y-69945721D01*
X112690386Y-69945852D01*
X112690333Y-69945933D01*
X112687940Y-69951711D01*
X112686868Y-69951267D01*
X112657056Y-69997163D01*
X112599933Y-70019084D01*
X112540834Y-70003242D01*
X112524763Y-69990227D01*
X112446716Y-69912180D01*
X112309784Y-69833123D01*
X112157057Y-69792200D01*
X111998943Y-69792200D01*
X111846216Y-69833123D01*
X111709284Y-69912180D01*
X111597480Y-70023984D01*
X111518423Y-70160916D01*
X111477500Y-70313643D01*
X97856796Y-70313643D01*
X97868907Y-70304844D01*
X97899500Y-70299999D01*
X98399999Y-70299999D01*
X98400000Y-70299998D01*
X98400000Y-69450001D01*
X98800000Y-69450001D01*
X98800000Y-70299998D01*
X98800001Y-70299999D01*
X101184790Y-70299999D01*
X101184791Y-70299998D01*
X101209874Y-70297090D01*
X101312477Y-70251786D01*
X101327114Y-70237150D01*
X101391786Y-70172477D01*
X101437090Y-70069872D01*
X101439999Y-70044797D01*
X101440000Y-70044795D01*
X101440000Y-69450001D01*
X101439999Y-69450000D01*
X98800001Y-69450000D01*
X98800000Y-69450001D01*
X98400000Y-69450001D01*
X98400000Y-68200001D01*
X98800000Y-68200001D01*
X98800000Y-69049999D01*
X98800001Y-69050000D01*
X101439998Y-69050000D01*
X101439999Y-69049999D01*
X101439999Y-68455210D01*
X101439998Y-68455208D01*
X101437090Y-68430125D01*
X101391786Y-68327522D01*
X101312477Y-68248213D01*
X101209872Y-68202909D01*
X101184797Y-68200000D01*
X98800001Y-68200000D01*
X98800000Y-68200001D01*
X98400000Y-68200001D01*
X98399999Y-68200000D01*
X97899500Y-68200000D01*
X97884588Y-68195155D01*
X97868907Y-68195155D01*
X97856221Y-68185938D01*
X97841309Y-68181093D01*
X97832092Y-68168407D01*
X97819407Y-68159191D01*
X97814561Y-68144278D01*
X97805345Y-68131593D01*
X97800500Y-68101000D01*
X97800500Y-67920943D01*
X106799500Y-67920943D01*
X106799500Y-68079057D01*
X106840423Y-68231784D01*
X106919480Y-68368716D01*
X107031284Y-68480520D01*
X107168216Y-68559577D01*
X107320943Y-68600500D01*
X107320945Y-68600500D01*
X107479055Y-68600500D01*
X107479057Y-68600500D01*
X107631784Y-68559577D01*
X107768716Y-68480520D01*
X107880520Y-68368716D01*
X107959577Y-68231784D01*
X108000500Y-68079057D01*
X108000500Y-67920943D01*
X107959577Y-67768216D01*
X107880520Y-67631284D01*
X107880517Y-67631281D01*
X107880516Y-67631279D01*
X107879490Y-67630253D01*
X107879016Y-67629324D01*
X107876569Y-67626134D01*
X107877160Y-67625680D01*
X107851717Y-67575734D01*
X107850500Y-67560256D01*
X107850500Y-67350001D01*
X115700000Y-67350001D01*
X115700000Y-68693064D01*
X115710613Y-68781443D01*
X115766080Y-68922095D01*
X115857435Y-69042564D01*
X115977904Y-69133919D01*
X116118556Y-69189386D01*
X116206935Y-69199999D01*
X116206942Y-69200000D01*
X116299999Y-69200000D01*
X116300000Y-69199999D01*
X116300000Y-67350001D01*
X116700000Y-67350001D01*
X116700000Y-69199999D01*
X116700001Y-69200000D01*
X116793058Y-69200000D01*
X116793064Y-69199999D01*
X116881443Y-69189386D01*
X117022095Y-69133919D01*
X117142564Y-69042564D01*
X117233919Y-68922095D01*
X117289386Y-68781443D01*
X117299999Y-68693064D01*
X117300000Y-68693058D01*
X117300000Y-67350001D01*
X117299999Y-67350000D01*
X116700001Y-67350000D01*
X116700000Y-67350001D01*
X116300000Y-67350001D01*
X116299999Y-67350000D01*
X115700001Y-67350000D01*
X115700000Y-67350001D01*
X107850500Y-67350001D01*
X107850500Y-65606935D01*
X115700000Y-65606935D01*
X115700000Y-66949999D01*
X115700001Y-66950000D01*
X116299999Y-66950000D01*
X116300000Y-66949999D01*
X116300000Y-65100001D01*
X116700000Y-65100001D01*
X116700000Y-66949999D01*
X116700001Y-66950000D01*
X117299999Y-66950000D01*
X117300000Y-66949999D01*
X117300000Y-65606938D01*
X117299995Y-65606893D01*
X117699500Y-65606893D01*
X117699500Y-68693106D01*
X117710123Y-68781565D01*
X117765637Y-68922339D01*
X117765638Y-68922341D01*
X117765639Y-68922342D01*
X117857078Y-69042922D01*
X117977658Y-69134361D01*
X118078720Y-69174215D01*
X118125916Y-69213150D01*
X118141400Y-69266311D01*
X118141400Y-82267684D01*
X118124715Y-82322686D01*
X118071128Y-82402882D01*
X118071122Y-82402893D01*
X118018320Y-82530370D01*
X118018320Y-82530372D01*
X117991400Y-82665704D01*
X117991400Y-82803695D01*
X118018320Y-82939027D01*
X118018320Y-82939029D01*
X118071122Y-83066506D01*
X118071128Y-83066517D01*
X118147785Y-83181241D01*
X118245358Y-83278814D01*
X118360082Y-83355471D01*
X118360093Y-83355477D01*
X118407183Y-83374982D01*
X118487572Y-83408280D01*
X118622907Y-83435200D01*
X118622908Y-83435200D01*
X118760892Y-83435200D01*
X118760893Y-83435200D01*
X118896228Y-83408280D01*
X119023711Y-83355475D01*
X119138442Y-83278814D01*
X119236014Y-83181242D01*
X119312675Y-83066511D01*
X119365480Y-82939028D01*
X119392400Y-82803693D01*
X119392400Y-82665707D01*
X119365480Y-82530372D01*
X119312675Y-82402889D01*
X119312674Y-82402887D01*
X119312671Y-82402882D01*
X119259085Y-82322686D01*
X119242400Y-82267684D01*
X119242400Y-71406898D01*
X119799500Y-71406898D01*
X119799500Y-74393096D01*
X119799501Y-74393102D01*
X119807999Y-74463870D01*
X119810124Y-74481564D01*
X119865639Y-74622342D01*
X119957078Y-74742922D01*
X120077658Y-74834361D01*
X120218436Y-74889876D01*
X120306901Y-74900500D01*
X121393098Y-74900499D01*
X121481564Y-74889876D01*
X121622342Y-74834361D01*
X121742922Y-74742922D01*
X121834361Y-74622342D01*
X121889876Y-74481564D01*
X121900500Y-74393099D01*
X121900499Y-71551243D01*
X123394500Y-71551243D01*
X123394500Y-71709357D01*
X123435423Y-71862084D01*
X123514480Y-71999016D01*
X123626284Y-72110820D01*
X123763216Y-72189877D01*
X123915943Y-72230800D01*
X123915945Y-72230800D01*
X124074055Y-72230800D01*
X124074057Y-72230800D01*
X124226784Y-72189877D01*
X124363716Y-72110820D01*
X124475520Y-71999016D01*
X124554577Y-71862084D01*
X124595500Y-71709357D01*
X124595500Y-71551243D01*
X124554577Y-71398516D01*
X124475520Y-71261584D01*
X124363716Y-71149780D01*
X124226784Y-71070723D01*
X124074057Y-71029800D01*
X123915943Y-71029800D01*
X123763216Y-71070723D01*
X123626284Y-71149780D01*
X123514480Y-71261584D01*
X123435423Y-71398516D01*
X123394500Y-71551243D01*
X121900499Y-71551243D01*
X121900499Y-71406902D01*
X121889876Y-71318436D01*
X121834361Y-71177658D01*
X121742922Y-71057078D01*
X121622342Y-70965639D01*
X121508999Y-70920943D01*
X129089700Y-70920943D01*
X129089700Y-71079057D01*
X129130623Y-71231784D01*
X129209680Y-71368716D01*
X129321484Y-71480520D01*
X129458416Y-71559577D01*
X129611143Y-71600500D01*
X129611145Y-71600500D01*
X129769255Y-71600500D01*
X129769257Y-71600500D01*
X129921984Y-71559577D01*
X130058916Y-71480520D01*
X130170720Y-71368716D01*
X130249777Y-71231784D01*
X130290700Y-71079057D01*
X130290700Y-70920943D01*
X130249777Y-70768216D01*
X130170720Y-70631284D01*
X130058916Y-70519480D01*
X129921984Y-70440423D01*
X129769257Y-70399500D01*
X129611143Y-70399500D01*
X129458416Y-70440423D01*
X129321484Y-70519480D01*
X129209680Y-70631284D01*
X129130623Y-70768216D01*
X129089700Y-70920943D01*
X121508999Y-70920943D01*
X121481564Y-70910124D01*
X121393099Y-70899500D01*
X120306903Y-70899500D01*
X120306897Y-70899501D01*
X120218436Y-70910124D01*
X120077658Y-70965639D01*
X120077657Y-70965639D01*
X120077656Y-70965640D01*
X119957081Y-71057075D01*
X119957075Y-71057081D01*
X119865640Y-71177656D01*
X119810124Y-71318435D01*
X119799500Y-71406898D01*
X119242400Y-71406898D01*
X119242400Y-68920770D01*
X119249303Y-68884451D01*
X119264788Y-68845184D01*
X119289877Y-68781564D01*
X119300500Y-68693102D01*
X119300500Y-68534343D01*
X127012900Y-68534343D01*
X127012900Y-68692457D01*
X127053823Y-68845184D01*
X127132880Y-68982116D01*
X127244684Y-69093920D01*
X127381616Y-69172977D01*
X127534343Y-69213900D01*
X127534345Y-69213900D01*
X127692455Y-69213900D01*
X127692457Y-69213900D01*
X127845184Y-69172977D01*
X127982116Y-69093920D01*
X128093920Y-68982116D01*
X128172977Y-68845184D01*
X128213900Y-68692457D01*
X128213900Y-68534343D01*
X128172977Y-68381616D01*
X128093920Y-68244684D01*
X127982116Y-68132880D01*
X127845184Y-68053823D01*
X127692457Y-68012900D01*
X127534343Y-68012900D01*
X127381616Y-68053823D01*
X127244684Y-68132880D01*
X127132880Y-68244684D01*
X127053823Y-68381616D01*
X127012900Y-68534343D01*
X119300500Y-68534343D01*
X119300500Y-66749104D01*
X119319407Y-66690913D01*
X119368907Y-66654949D01*
X119425122Y-66653478D01*
X119448343Y-66659700D01*
X119448344Y-66659700D01*
X119606455Y-66659700D01*
X119606457Y-66659700D01*
X119759184Y-66618777D01*
X119896116Y-66539720D01*
X120007920Y-66427916D01*
X120086977Y-66290984D01*
X120127900Y-66138257D01*
X120127900Y-65980143D01*
X120086977Y-65827416D01*
X120019674Y-65710843D01*
X123375800Y-65710843D01*
X123375800Y-65868957D01*
X123416723Y-66021684D01*
X123495780Y-66158616D01*
X123607584Y-66270420D01*
X123744516Y-66349477D01*
X123897243Y-66390400D01*
X123897245Y-66390400D01*
X124055355Y-66390400D01*
X124055357Y-66390400D01*
X124208084Y-66349477D01*
X124345016Y-66270420D01*
X124456820Y-66158616D01*
X124535877Y-66021684D01*
X124576800Y-65868957D01*
X124576800Y-65710843D01*
X124535877Y-65558116D01*
X124456820Y-65421184D01*
X124345016Y-65309380D01*
X124208084Y-65230323D01*
X124055357Y-65189400D01*
X123897243Y-65189400D01*
X123744516Y-65230323D01*
X123607584Y-65309380D01*
X123495780Y-65421184D01*
X123416723Y-65558116D01*
X123375800Y-65710843D01*
X120019674Y-65710843D01*
X120007920Y-65690484D01*
X119896116Y-65578680D01*
X119759184Y-65499623D01*
X119606457Y-65458700D01*
X119448343Y-65458700D01*
X119422257Y-65465689D01*
X119369031Y-65479951D01*
X119307930Y-65476748D01*
X119260380Y-65438243D01*
X119251314Y-65420648D01*
X119234361Y-65377658D01*
X119142922Y-65257078D01*
X119022342Y-65165639D01*
X119022341Y-65165638D01*
X119022339Y-65165637D01*
X118881565Y-65110123D01*
X118793106Y-65099500D01*
X118793102Y-65099500D01*
X118206898Y-65099500D01*
X118206893Y-65099500D01*
X118118434Y-65110123D01*
X117977660Y-65165637D01*
X117977656Y-65165640D01*
X117857081Y-65257075D01*
X117857075Y-65257081D01*
X117765640Y-65377656D01*
X117765637Y-65377660D01*
X117710123Y-65518434D01*
X117699500Y-65606893D01*
X117299995Y-65606893D01*
X117289386Y-65518556D01*
X117233919Y-65377904D01*
X117142564Y-65257435D01*
X117022095Y-65166080D01*
X116881443Y-65110613D01*
X116793064Y-65100000D01*
X116700001Y-65100000D01*
X116700000Y-65100001D01*
X116300000Y-65100001D01*
X116299999Y-65100000D01*
X116206935Y-65100000D01*
X116118556Y-65110613D01*
X115977904Y-65166080D01*
X115857435Y-65257435D01*
X115766080Y-65377904D01*
X115710613Y-65518556D01*
X115700000Y-65606935D01*
X107850500Y-65606935D01*
X107850500Y-64576625D01*
X107869407Y-64518434D01*
X107918907Y-64482470D01*
X107975119Y-64480998D01*
X108044543Y-64499600D01*
X108044546Y-64499600D01*
X108202655Y-64499600D01*
X108202657Y-64499600D01*
X108355384Y-64458677D01*
X108492316Y-64379620D01*
X108604120Y-64267816D01*
X108663686Y-64164643D01*
X128399500Y-64164643D01*
X128399500Y-64322757D01*
X128440423Y-64475484D01*
X128519480Y-64612416D01*
X128631284Y-64724220D01*
X128768216Y-64803277D01*
X128920943Y-64844200D01*
X128920945Y-64844200D01*
X129079055Y-64844200D01*
X129079057Y-64844200D01*
X129231784Y-64803277D01*
X129368716Y-64724220D01*
X129380498Y-64712437D01*
X129435013Y-64684662D01*
X129495445Y-64694233D01*
X129538710Y-64737498D01*
X129549500Y-64782443D01*
X129549500Y-66972389D01*
X129530593Y-67030580D01*
X129520504Y-67042393D01*
X128992393Y-67570504D01*
X128937876Y-67598281D01*
X128922389Y-67599500D01*
X128920943Y-67599500D01*
X128768216Y-67640423D01*
X128631284Y-67719480D01*
X128519480Y-67831284D01*
X128440423Y-67968216D01*
X128399500Y-68120943D01*
X128399500Y-68279057D01*
X128440423Y-68431784D01*
X128519480Y-68568716D01*
X128631284Y-68680520D01*
X128631286Y-68680521D01*
X128634811Y-68684046D01*
X128662588Y-68738563D01*
X128653017Y-68798995D01*
X128634813Y-68824050D01*
X128581980Y-68876884D01*
X128502923Y-69013816D01*
X128462000Y-69166543D01*
X128462000Y-69324657D01*
X128502923Y-69477384D01*
X128581980Y-69614316D01*
X128693784Y-69726120D01*
X128830716Y-69805177D01*
X128983443Y-69846100D01*
X128983445Y-69846100D01*
X129141555Y-69846100D01*
X129141557Y-69846100D01*
X129294284Y-69805177D01*
X129431216Y-69726120D01*
X129543020Y-69614316D01*
X129622077Y-69477384D01*
X129663000Y-69324657D01*
X129663000Y-69166543D01*
X129622077Y-69013816D01*
X129543020Y-68876884D01*
X129431216Y-68765080D01*
X129431213Y-68765078D01*
X129427689Y-68761554D01*
X129399912Y-68707037D01*
X129409483Y-68646605D01*
X129427686Y-68621549D01*
X129480520Y-68568716D01*
X129559577Y-68431784D01*
X129600500Y-68279057D01*
X129600500Y-68277610D01*
X129600820Y-68276624D01*
X129601347Y-68272623D01*
X129602088Y-68272720D01*
X129619407Y-68219419D01*
X129629490Y-68207612D01*
X130360490Y-67476613D01*
X130419799Y-67373886D01*
X130422854Y-67362485D01*
X130426200Y-67350000D01*
X130432069Y-67328093D01*
X130450500Y-67259309D01*
X130450500Y-64782443D01*
X130469407Y-64724252D01*
X130518907Y-64688288D01*
X130580093Y-64688288D01*
X130619501Y-64712437D01*
X130631284Y-64724220D01*
X130768216Y-64803277D01*
X130920943Y-64844200D01*
X130920945Y-64844200D01*
X131079055Y-64844200D01*
X131079057Y-64844200D01*
X131231784Y-64803277D01*
X131368716Y-64724220D01*
X131480520Y-64612416D01*
X131559577Y-64475484D01*
X131600500Y-64322757D01*
X131600500Y-64164643D01*
X131559577Y-64011916D01*
X131480520Y-63874984D01*
X131368716Y-63763180D01*
X131231784Y-63684123D01*
X131079057Y-63643200D01*
X130920943Y-63643200D01*
X130768216Y-63684123D01*
X130631284Y-63763180D01*
X130619501Y-63774962D01*
X130564987Y-63802738D01*
X130504555Y-63793167D01*
X130461290Y-63749902D01*
X130450500Y-63704957D01*
X130450500Y-48549500D01*
X130469407Y-48491309D01*
X130518907Y-48455345D01*
X130549500Y-48450500D01*
X130600604Y-48450500D01*
X130658795Y-48469407D01*
X130694759Y-48518907D01*
X130699108Y-48542032D01*
X130699172Y-48542025D01*
X130699276Y-48542925D01*
X130699439Y-48543790D01*
X130699500Y-48544861D01*
X130702414Y-48569990D01*
X130727756Y-48627385D01*
X130747794Y-48672765D01*
X130803710Y-48728681D01*
X130831486Y-48783196D01*
X130821915Y-48843628D01*
X130816021Y-48853684D01*
X130791048Y-48891058D01*
X130730742Y-49036650D01*
X130700000Y-49191204D01*
X130700000Y-49348795D01*
X130730742Y-49503349D01*
X130791048Y-49648941D01*
X130809940Y-49677215D01*
X131175000Y-49312156D01*
X131175000Y-49312787D01*
X131197149Y-49395445D01*
X131239936Y-49469554D01*
X131300446Y-49530064D01*
X131374555Y-49572851D01*
X131457213Y-49595000D01*
X131457842Y-49595000D01*
X131307112Y-49745728D01*
X131270657Y-49767584D01*
X131270996Y-49768402D01*
X131120825Y-49830603D01*
X131120814Y-49830609D01*
X130989711Y-49918211D01*
X130989707Y-49918214D01*
X130878214Y-50029707D01*
X130878211Y-50029711D01*
X130790609Y-50160814D01*
X130790603Y-50160825D01*
X130730263Y-50306501D01*
X130730263Y-50306503D01*
X130699500Y-50461155D01*
X130699500Y-50618844D01*
X130730263Y-50773496D01*
X130730263Y-50773498D01*
X130790603Y-50919174D01*
X130790609Y-50919185D01*
X130830644Y-50979100D01*
X130878211Y-51050289D01*
X130878214Y-51050292D01*
X130932918Y-51104996D01*
X130960695Y-51159513D01*
X130951124Y-51219945D01*
X130932918Y-51245004D01*
X130878214Y-51299707D01*
X130878211Y-51299711D01*
X130790609Y-51430814D01*
X130790603Y-51430825D01*
X130730263Y-51576501D01*
X130730263Y-51576503D01*
X130699500Y-51731155D01*
X130699500Y-51888844D01*
X130730263Y-52043496D01*
X130730263Y-52043498D01*
X130790603Y-52189174D01*
X130790609Y-52189185D01*
X130843312Y-52268059D01*
X130878211Y-52320289D01*
X130878214Y-52320292D01*
X130932918Y-52374996D01*
X130960695Y-52429513D01*
X130951124Y-52489945D01*
X130932918Y-52515004D01*
X130878214Y-52569707D01*
X130878211Y-52569711D01*
X130790609Y-52700814D01*
X130790603Y-52700825D01*
X130730263Y-52846501D01*
X130730263Y-52846503D01*
X130699500Y-53001155D01*
X130699500Y-53158844D01*
X130730263Y-53313496D01*
X130730263Y-53313498D01*
X130790603Y-53459174D01*
X130790609Y-53459185D01*
X130820324Y-53503655D01*
X130878211Y-53590289D01*
X130878214Y-53590292D01*
X130932918Y-53644996D01*
X130960695Y-53699513D01*
X130951124Y-53759945D01*
X130932918Y-53785004D01*
X130878214Y-53839707D01*
X130878211Y-53839711D01*
X130790609Y-53970814D01*
X130790603Y-53970825D01*
X130730263Y-54116501D01*
X130730263Y-54116503D01*
X130699500Y-54271155D01*
X130699500Y-54428844D01*
X130709064Y-54476923D01*
X130729379Y-54579055D01*
X130730263Y-54583496D01*
X130730263Y-54583498D01*
X130790603Y-54729174D01*
X130790609Y-54729185D01*
X130835270Y-54796023D01*
X130878211Y-54860289D01*
X130878214Y-54860292D01*
X130932918Y-54914996D01*
X130960695Y-54969513D01*
X130951124Y-55029945D01*
X130932918Y-55055004D01*
X130878214Y-55109707D01*
X130878211Y-55109711D01*
X130790609Y-55240814D01*
X130790603Y-55240825D01*
X130730263Y-55386501D01*
X130730263Y-55386503D01*
X130699500Y-55541155D01*
X130699500Y-55541158D01*
X130699500Y-55698842D01*
X130726806Y-55836120D01*
X130730263Y-55853496D01*
X130730263Y-55853498D01*
X130790603Y-55999174D01*
X130790609Y-55999185D01*
X130837596Y-56069505D01*
X130878211Y-56130289D01*
X130878214Y-56130292D01*
X130932918Y-56184996D01*
X130960695Y-56239513D01*
X130951124Y-56299945D01*
X130932918Y-56325004D01*
X130878214Y-56379707D01*
X130878211Y-56379711D01*
X130790609Y-56510814D01*
X130790603Y-56510825D01*
X130730263Y-56656501D01*
X130730263Y-56656503D01*
X130699500Y-56811155D01*
X130699500Y-56968844D01*
X130730263Y-57123496D01*
X130730263Y-57123498D01*
X130790603Y-57269174D01*
X130790609Y-57269185D01*
X130843312Y-57348059D01*
X130878211Y-57400289D01*
X130989711Y-57511789D01*
X131045126Y-57548816D01*
X131120814Y-57599390D01*
X131120825Y-57599396D01*
X131161286Y-57616155D01*
X131266503Y-57659737D01*
X131421158Y-57690500D01*
X131421159Y-57690500D01*
X131578841Y-57690500D01*
X131578842Y-57690500D01*
X131733497Y-57659737D01*
X131879179Y-57599394D01*
X132010289Y-57511789D01*
X132121789Y-57400289D01*
X132209394Y-57269179D01*
X132269737Y-57123497D01*
X132300500Y-56968842D01*
X132300500Y-56811158D01*
X132269737Y-56656503D01*
X132237883Y-56579600D01*
X132209396Y-56510825D01*
X132209390Y-56510814D01*
X132174017Y-56457876D01*
X132121789Y-56379711D01*
X132121784Y-56379706D01*
X132121781Y-56379702D01*
X132067082Y-56325004D01*
X132039304Y-56270488D01*
X132048875Y-56210056D01*
X132067082Y-56184996D01*
X132121781Y-56130297D01*
X132121789Y-56130289D01*
X132209394Y-55999179D01*
X132269737Y-55853497D01*
X132300500Y-55698842D01*
X132300500Y-55541158D01*
X132269737Y-55386503D01*
X132224191Y-55276544D01*
X132209396Y-55240825D01*
X132209390Y-55240814D01*
X132174017Y-55187876D01*
X132121789Y-55109711D01*
X132121784Y-55109706D01*
X132121781Y-55109702D01*
X132067082Y-55055004D01*
X132039304Y-55000488D01*
X132048875Y-54940056D01*
X132067082Y-54914996D01*
X132121781Y-54860297D01*
X132121789Y-54860289D01*
X132209394Y-54729179D01*
X132269737Y-54583497D01*
X132300500Y-54428842D01*
X132300500Y-54271158D01*
X132269737Y-54116503D01*
X132209394Y-53970821D01*
X132209393Y-53970819D01*
X132209390Y-53970814D01*
X132161739Y-53899500D01*
X132121789Y-53839711D01*
X132121784Y-53839706D01*
X132121781Y-53839702D01*
X132067082Y-53785004D01*
X132039304Y-53730488D01*
X132048875Y-53670056D01*
X132067082Y-53644996D01*
X132121781Y-53590297D01*
X132121789Y-53590289D01*
X132209394Y-53459179D01*
X132269737Y-53313497D01*
X132300500Y-53158842D01*
X132300500Y-53001158D01*
X132269737Y-52846503D01*
X132209394Y-52700821D01*
X132209393Y-52700819D01*
X132209390Y-52700814D01*
X132164373Y-52633443D01*
X132121789Y-52569711D01*
X132121784Y-52569706D01*
X132121781Y-52569702D01*
X132067082Y-52515004D01*
X132039304Y-52460488D01*
X132048875Y-52400056D01*
X132067082Y-52374996D01*
X132121781Y-52320297D01*
X132121789Y-52320289D01*
X132209394Y-52189179D01*
X132269737Y-52043497D01*
X132300500Y-51888842D01*
X132300500Y-51731158D01*
X132269737Y-51576503D01*
X132209394Y-51430821D01*
X132209393Y-51430819D01*
X132209390Y-51430814D01*
X132155057Y-51349500D01*
X132121789Y-51299711D01*
X132121784Y-51299706D01*
X132121781Y-51299702D01*
X132067082Y-51245004D01*
X132039304Y-51190488D01*
X132048875Y-51130056D01*
X132067082Y-51104996D01*
X132121781Y-51050297D01*
X132121789Y-51050289D01*
X132209394Y-50919179D01*
X132269737Y-50773497D01*
X132300500Y-50618842D01*
X132300500Y-50461158D01*
X132269737Y-50306503D01*
X132232575Y-50216786D01*
X132209396Y-50160825D01*
X132209390Y-50160814D01*
X132166080Y-50095997D01*
X132121789Y-50029711D01*
X132010289Y-49918211D01*
X131947466Y-49876234D01*
X131879185Y-49830609D01*
X131879174Y-49830603D01*
X131729004Y-49768402D01*
X131729343Y-49767582D01*
X131692884Y-49745727D01*
X131542158Y-49595000D01*
X131542787Y-49595000D01*
X131625445Y-49572851D01*
X131699554Y-49530064D01*
X131760064Y-49469554D01*
X131802851Y-49395445D01*
X131825000Y-49312787D01*
X131825000Y-49312157D01*
X132190058Y-49677215D01*
X132208953Y-49648938D01*
X132269256Y-49503352D01*
X132269256Y-49503350D01*
X132299999Y-49348795D01*
X132300000Y-49348792D01*
X132300000Y-49191207D01*
X132299999Y-49191204D01*
X132269257Y-49036650D01*
X132208951Y-48891058D01*
X132183979Y-48853686D01*
X132167370Y-48794798D01*
X132188547Y-48737395D01*
X132196282Y-48728688D01*
X132252206Y-48672765D01*
X132297585Y-48569991D01*
X132300500Y-48544865D01*
X132300499Y-47455136D01*
X132297585Y-47430009D01*
X132252206Y-47327235D01*
X132172765Y-47247794D01*
X132069991Y-47202415D01*
X132069990Y-47202414D01*
X132069988Y-47202414D01*
X132044868Y-47199500D01*
X130955139Y-47199500D01*
X130955136Y-47199501D01*
X130930009Y-47202414D01*
X130827235Y-47247794D01*
X130747794Y-47327235D01*
X130702414Y-47430011D01*
X130699501Y-47455117D01*
X130699439Y-47456203D01*
X130699348Y-47456434D01*
X130699170Y-47457976D01*
X130698765Y-47457929D01*
X130677211Y-47513208D01*
X130625721Y-47546261D01*
X130600603Y-47549500D01*
X130059309Y-47549500D01*
X129940691Y-47549500D01*
X129870567Y-47568289D01*
X129826109Y-47580202D01*
X129723391Y-47639507D01*
X129639507Y-47723391D01*
X129580202Y-47826109D01*
X129549500Y-47940692D01*
X129549500Y-63704957D01*
X129530593Y-63763148D01*
X129481093Y-63799112D01*
X129419907Y-63799112D01*
X129380498Y-63774962D01*
X129368716Y-63763180D01*
X129231784Y-63684123D01*
X129079057Y-63643200D01*
X128920943Y-63643200D01*
X128768216Y-63684123D01*
X128631284Y-63763180D01*
X128519480Y-63874984D01*
X128440423Y-64011916D01*
X128399500Y-64164643D01*
X108663686Y-64164643D01*
X108683177Y-64130884D01*
X108724100Y-63978157D01*
X108724100Y-63820043D01*
X108683177Y-63667316D01*
X108604120Y-63530384D01*
X108492316Y-63418580D01*
X108355384Y-63339523D01*
X108202657Y-63298600D01*
X108044543Y-63298600D01*
X108009719Y-63307930D01*
X107975122Y-63317201D01*
X107914021Y-63313998D01*
X107866471Y-63275493D01*
X107850500Y-63221574D01*
X107850500Y-61744943D01*
X108325300Y-61744943D01*
X108325300Y-61903057D01*
X108366223Y-62055784D01*
X108445280Y-62192716D01*
X108557084Y-62304520D01*
X108694016Y-62383577D01*
X108846743Y-62424500D01*
X108846745Y-62424500D01*
X109004855Y-62424500D01*
X109004857Y-62424500D01*
X109157584Y-62383577D01*
X109294516Y-62304520D01*
X109406320Y-62192716D01*
X109485377Y-62055784D01*
X109508780Y-61968443D01*
X116049500Y-61968443D01*
X116049500Y-62126557D01*
X116090423Y-62279284D01*
X116169480Y-62416216D01*
X116281284Y-62528020D01*
X116418216Y-62607077D01*
X116570943Y-62648000D01*
X116570945Y-62648000D01*
X116729055Y-62648000D01*
X116729057Y-62648000D01*
X116881784Y-62607077D01*
X117018716Y-62528020D01*
X117130520Y-62416216D01*
X117209577Y-62279284D01*
X117250500Y-62126557D01*
X117250500Y-61968443D01*
X117209577Y-61815716D01*
X117130520Y-61678784D01*
X117018716Y-61566980D01*
X116881784Y-61487923D01*
X116729057Y-61447000D01*
X116570943Y-61447000D01*
X116418216Y-61487923D01*
X116281284Y-61566980D01*
X116169480Y-61678784D01*
X116090423Y-61815716D01*
X116049500Y-61968443D01*
X109508780Y-61968443D01*
X109526300Y-61903057D01*
X109526300Y-61744943D01*
X109485377Y-61592216D01*
X109406320Y-61455284D01*
X109294516Y-61343480D01*
X109157584Y-61264423D01*
X109004857Y-61223500D01*
X108846743Y-61223500D01*
X108694016Y-61264423D01*
X108557084Y-61343480D01*
X108445280Y-61455284D01*
X108366223Y-61592216D01*
X108325300Y-61744943D01*
X107850500Y-61744943D01*
X107850500Y-60289915D01*
X107869407Y-60231724D01*
X107918907Y-60195760D01*
X107980093Y-60195760D01*
X108029593Y-60231724D01*
X108045125Y-60264289D01*
X108072723Y-60367284D01*
X108151780Y-60504216D01*
X108263584Y-60616020D01*
X108400516Y-60695077D01*
X108553243Y-60736000D01*
X108553245Y-60736000D01*
X108711355Y-60736000D01*
X108711357Y-60736000D01*
X108864084Y-60695077D01*
X109001016Y-60616020D01*
X109112820Y-60504216D01*
X109191877Y-60367284D01*
X109232800Y-60214557D01*
X109232800Y-60056443D01*
X109191877Y-59903716D01*
X109191876Y-59903714D01*
X109190639Y-59900728D01*
X109190457Y-59898419D01*
X109190197Y-59897448D01*
X109190376Y-59897399D01*
X109185837Y-59839732D01*
X109212097Y-59792838D01*
X109302520Y-59702416D01*
X109381577Y-59565484D01*
X109422500Y-59412757D01*
X109422500Y-59254643D01*
X109381577Y-59101916D01*
X109302520Y-58964984D01*
X109190716Y-58853180D01*
X109106993Y-58804843D01*
X111485300Y-58804843D01*
X111485300Y-58962957D01*
X111526223Y-59115684D01*
X111605280Y-59252616D01*
X111717084Y-59364420D01*
X111854016Y-59443477D01*
X112006743Y-59484400D01*
X112006745Y-59484400D01*
X112164855Y-59484400D01*
X112164857Y-59484400D01*
X112317584Y-59443477D01*
X112454516Y-59364420D01*
X112566320Y-59252616D01*
X112645377Y-59115684D01*
X112686300Y-58962957D01*
X112686300Y-58804843D01*
X112684773Y-58799143D01*
X114349500Y-58799143D01*
X114349500Y-58957257D01*
X114390423Y-59109984D01*
X114469480Y-59246916D01*
X114581284Y-59358720D01*
X114718216Y-59437777D01*
X114870943Y-59478700D01*
X114870945Y-59478700D01*
X115029055Y-59478700D01*
X115029057Y-59478700D01*
X115181784Y-59437777D01*
X115215445Y-59418343D01*
X126421600Y-59418343D01*
X126421600Y-59576457D01*
X126462523Y-59729184D01*
X126541580Y-59866116D01*
X126653384Y-59977920D01*
X126790316Y-60056977D01*
X126943043Y-60097900D01*
X126943045Y-60097900D01*
X127101155Y-60097900D01*
X127101157Y-60097900D01*
X127253884Y-60056977D01*
X127390816Y-59977920D01*
X127502620Y-59866116D01*
X127581677Y-59729184D01*
X127622600Y-59576457D01*
X127622600Y-59418343D01*
X127581677Y-59265616D01*
X127502620Y-59128684D01*
X127390816Y-59016880D01*
X127253884Y-58937823D01*
X127101157Y-58896900D01*
X126943043Y-58896900D01*
X126790316Y-58937823D01*
X126653384Y-59016880D01*
X126541580Y-59128684D01*
X126462523Y-59265616D01*
X126421600Y-59418343D01*
X115215445Y-59418343D01*
X115318716Y-59358720D01*
X115430520Y-59246916D01*
X115509577Y-59109984D01*
X115550500Y-58957257D01*
X115550500Y-58799143D01*
X115509577Y-58646416D01*
X115430520Y-58509484D01*
X115318716Y-58397680D01*
X115181784Y-58318623D01*
X115029057Y-58277700D01*
X114870943Y-58277700D01*
X114718216Y-58318623D01*
X114581284Y-58397680D01*
X114469480Y-58509484D01*
X114390423Y-58646416D01*
X114349500Y-58799143D01*
X112684773Y-58799143D01*
X112645377Y-58652116D01*
X112566320Y-58515184D01*
X112454516Y-58403380D01*
X112317584Y-58324323D01*
X112164857Y-58283400D01*
X112006743Y-58283400D01*
X111854016Y-58324323D01*
X111717084Y-58403380D01*
X111605280Y-58515184D01*
X111526223Y-58652116D01*
X111485300Y-58804843D01*
X109106993Y-58804843D01*
X109053784Y-58774123D01*
X108901057Y-58733200D01*
X108742943Y-58733200D01*
X108590216Y-58774123D01*
X108453284Y-58853180D01*
X108341480Y-58964984D01*
X108262423Y-59101916D01*
X108221500Y-59254643D01*
X108221500Y-59412757D01*
X108240697Y-59484400D01*
X108262423Y-59565484D01*
X108263664Y-59568479D01*
X108263845Y-59570791D01*
X108264103Y-59571751D01*
X108263925Y-59571798D01*
X108268460Y-59629477D01*
X108242201Y-59676362D01*
X108151782Y-59766781D01*
X108151780Y-59766783D01*
X108151780Y-59766784D01*
X108072723Y-59903716D01*
X108051993Y-59981084D01*
X108045127Y-60006707D01*
X108011803Y-60058022D01*
X107954681Y-60079948D01*
X107895581Y-60064112D01*
X107857075Y-60016562D01*
X107850500Y-59981084D01*
X107850500Y-55955943D01*
X108912400Y-55955943D01*
X108912400Y-56114057D01*
X108953323Y-56266784D01*
X109032380Y-56403716D01*
X109144184Y-56515520D01*
X109281116Y-56594577D01*
X109433843Y-56635500D01*
X109433845Y-56635500D01*
X109591955Y-56635500D01*
X109591957Y-56635500D01*
X109744684Y-56594577D01*
X109881616Y-56515520D01*
X109993420Y-56403716D01*
X110072477Y-56266784D01*
X110113400Y-56114057D01*
X110113400Y-55955943D01*
X110072477Y-55803216D01*
X109993420Y-55666284D01*
X109881616Y-55554480D01*
X109744684Y-55475423D01*
X109591957Y-55434500D01*
X109433843Y-55434500D01*
X109281116Y-55475423D01*
X109144184Y-55554480D01*
X109032380Y-55666284D01*
X108953323Y-55803216D01*
X108912400Y-55955943D01*
X107850500Y-55955943D01*
X107850500Y-54957443D01*
X110805900Y-54957443D01*
X110805900Y-55115557D01*
X110846823Y-55268284D01*
X110925880Y-55405216D01*
X111037684Y-55517020D01*
X111174616Y-55596077D01*
X111327343Y-55637000D01*
X111327345Y-55637000D01*
X111485455Y-55637000D01*
X111485457Y-55637000D01*
X111638184Y-55596077D01*
X111775116Y-55517020D01*
X111796737Y-55495398D01*
X111851251Y-55467621D01*
X111911683Y-55477191D01*
X111954949Y-55520455D01*
X111962366Y-55539778D01*
X111975121Y-55587380D01*
X111975121Y-55587381D01*
X111990501Y-55614020D01*
X112054180Y-55724316D01*
X112143643Y-55813779D01*
X112171419Y-55868294D01*
X112161848Y-55928726D01*
X112118583Y-55971991D01*
X112094466Y-55979481D01*
X112094611Y-55980021D01*
X112088345Y-55981700D01*
X112088343Y-55981700D01*
X111935616Y-56022623D01*
X111798684Y-56101680D01*
X111686880Y-56213484D01*
X111607823Y-56350416D01*
X111566900Y-56503143D01*
X111566900Y-56661257D01*
X111607823Y-56813984D01*
X111686880Y-56950916D01*
X111798684Y-57062720D01*
X111935616Y-57141777D01*
X112088343Y-57182700D01*
X112088345Y-57182700D01*
X112246455Y-57182700D01*
X112246457Y-57182700D01*
X112399184Y-57141777D01*
X112469738Y-57101043D01*
X113499500Y-57101043D01*
X113499500Y-57259157D01*
X113540423Y-57411884D01*
X113619480Y-57548816D01*
X113731284Y-57660620D01*
X113868216Y-57739677D01*
X114020943Y-57780600D01*
X114020945Y-57780600D01*
X114179055Y-57780600D01*
X114179057Y-57780600D01*
X114331784Y-57739677D01*
X114468716Y-57660620D01*
X114580520Y-57548816D01*
X114659577Y-57411884D01*
X114700500Y-57259157D01*
X114700500Y-57101043D01*
X114659577Y-56948316D01*
X114580520Y-56811384D01*
X114468716Y-56699580D01*
X114331784Y-56620523D01*
X114179057Y-56579600D01*
X114020943Y-56579600D01*
X113868216Y-56620523D01*
X113731284Y-56699580D01*
X113619480Y-56811384D01*
X113540423Y-56948316D01*
X113499500Y-57101043D01*
X112469738Y-57101043D01*
X112536116Y-57062720D01*
X112647920Y-56950916D01*
X112726977Y-56813984D01*
X112767900Y-56661257D01*
X112767900Y-56507343D01*
X116799800Y-56507343D01*
X116799800Y-56665457D01*
X116840723Y-56818184D01*
X116919780Y-56955116D01*
X117031584Y-57066920D01*
X117168516Y-57145977D01*
X117321243Y-57186900D01*
X117321245Y-57186900D01*
X117479355Y-57186900D01*
X117479357Y-57186900D01*
X117632084Y-57145977D01*
X117687613Y-57113917D01*
X117747458Y-57101196D01*
X117803354Y-57126082D01*
X117833947Y-57179070D01*
X117827552Y-57239920D01*
X117822848Y-57249153D01*
X117790423Y-57305314D01*
X117764975Y-57400288D01*
X117749500Y-57458043D01*
X117749500Y-57616157D01*
X117790423Y-57768884D01*
X117869480Y-57905816D01*
X117981284Y-58017620D01*
X118118216Y-58096677D01*
X118270943Y-58137600D01*
X118270945Y-58137600D01*
X118429055Y-58137600D01*
X118429057Y-58137600D01*
X118581784Y-58096677D01*
X118718716Y-58017620D01*
X118830520Y-57905816D01*
X118909577Y-57768884D01*
X118950500Y-57616157D01*
X118950500Y-57458043D01*
X118909577Y-57305316D01*
X118830520Y-57168384D01*
X118718716Y-57056580D01*
X118581784Y-56977523D01*
X118429057Y-56936600D01*
X118270943Y-56936600D01*
X118217519Y-56950915D01*
X118118214Y-56977523D01*
X118062687Y-57009582D01*
X118002839Y-57022303D01*
X117946943Y-56997416D01*
X117916351Y-56944427D01*
X117922747Y-56883577D01*
X117927442Y-56874363D01*
X117959877Y-56818184D01*
X118000800Y-56665457D01*
X118000800Y-56507343D01*
X117959877Y-56354616D01*
X117880820Y-56217684D01*
X117769016Y-56105880D01*
X117632084Y-56026823D01*
X117479357Y-55985900D01*
X117321243Y-55985900D01*
X117168516Y-56026823D01*
X117031584Y-56105880D01*
X116919780Y-56217684D01*
X116840723Y-56354616D01*
X116799800Y-56507343D01*
X112767900Y-56507343D01*
X112767900Y-56503143D01*
X112726977Y-56350416D01*
X112647920Y-56213484D01*
X112558455Y-56124019D01*
X112530680Y-56069505D01*
X112540251Y-56009073D01*
X112583516Y-55965808D01*
X112607633Y-55958320D01*
X112607489Y-55957779D01*
X112613755Y-55956100D01*
X112613757Y-55956100D01*
X112766484Y-55915177D01*
X112903416Y-55836120D01*
X113015220Y-55724316D01*
X113094277Y-55587384D01*
X113135200Y-55434657D01*
X113135200Y-55276543D01*
X113094277Y-55123816D01*
X113054225Y-55054443D01*
X122993900Y-55054443D01*
X122993900Y-55212557D01*
X123034823Y-55365284D01*
X123113880Y-55502216D01*
X123225684Y-55614020D01*
X123362616Y-55693077D01*
X123515343Y-55734000D01*
X123515345Y-55734000D01*
X123673455Y-55734000D01*
X123673457Y-55734000D01*
X123826184Y-55693077D01*
X123963116Y-55614020D01*
X124074920Y-55502216D01*
X124153977Y-55365284D01*
X124194900Y-55212557D01*
X124194900Y-55054443D01*
X124153977Y-54901716D01*
X124074920Y-54764784D01*
X123963116Y-54652980D01*
X123826184Y-54573923D01*
X123673457Y-54533000D01*
X123515343Y-54533000D01*
X123362616Y-54573923D01*
X123225684Y-54652980D01*
X123113880Y-54764784D01*
X123034823Y-54901716D01*
X122993900Y-55054443D01*
X113054225Y-55054443D01*
X113015220Y-54986884D01*
X112903416Y-54875080D01*
X112766484Y-54796023D01*
X112613757Y-54755100D01*
X112455643Y-54755100D01*
X112302916Y-54796023D01*
X112171943Y-54871640D01*
X112165981Y-54875082D01*
X112144361Y-54896702D01*
X112089844Y-54924478D01*
X112029412Y-54914906D01*
X111986148Y-54871640D01*
X111978732Y-54852320D01*
X111965977Y-54804716D01*
X111886920Y-54667784D01*
X111775116Y-54555980D01*
X111678482Y-54500189D01*
X111678482Y-54500188D01*
X111638186Y-54476924D01*
X111638185Y-54476923D01*
X111638184Y-54476923D01*
X111485457Y-54436000D01*
X111327343Y-54436000D01*
X111174616Y-54476923D01*
X111037684Y-54555980D01*
X110925880Y-54667784D01*
X110846823Y-54804716D01*
X110805900Y-54957443D01*
X107850500Y-54957443D01*
X107850500Y-54420943D01*
X124844800Y-54420943D01*
X124844800Y-54579057D01*
X124885723Y-54731784D01*
X124964780Y-54868716D01*
X125076584Y-54980520D01*
X125213516Y-55059577D01*
X125366243Y-55100500D01*
X125366245Y-55100500D01*
X125524355Y-55100500D01*
X125524357Y-55100500D01*
X125677084Y-55059577D01*
X125814016Y-54980520D01*
X125925820Y-54868716D01*
X126004877Y-54731784D01*
X126045800Y-54579057D01*
X126045800Y-54420943D01*
X126004877Y-54268216D01*
X125925820Y-54131284D01*
X125814016Y-54019480D01*
X125677084Y-53940423D01*
X125524357Y-53899500D01*
X125366243Y-53899500D01*
X125213516Y-53940423D01*
X125076584Y-54019480D01*
X124964780Y-54131284D01*
X124885723Y-54268216D01*
X124844800Y-54420943D01*
X107850500Y-54420943D01*
X107850500Y-53345543D01*
X110801600Y-53345543D01*
X110801600Y-53503657D01*
X110842523Y-53656384D01*
X110921580Y-53793316D01*
X111033384Y-53905120D01*
X111170316Y-53984177D01*
X111323043Y-54025100D01*
X111323045Y-54025100D01*
X111481155Y-54025100D01*
X111481157Y-54025100D01*
X111633884Y-53984177D01*
X111770816Y-53905120D01*
X111882620Y-53793316D01*
X111961677Y-53656384D01*
X112002600Y-53503657D01*
X112002600Y-53345543D01*
X111961677Y-53192816D01*
X111882620Y-53055884D01*
X111770816Y-52944080D01*
X111633884Y-52865023D01*
X111481157Y-52824100D01*
X111323043Y-52824100D01*
X111170316Y-52865023D01*
X111033384Y-52944080D01*
X110921580Y-53055884D01*
X110842523Y-53192816D01*
X110801600Y-53345543D01*
X107850500Y-53345543D01*
X107850500Y-52633443D01*
X124819500Y-52633443D01*
X124819500Y-52791557D01*
X124860423Y-52944284D01*
X124939480Y-53081216D01*
X125051284Y-53193020D01*
X125188216Y-53272077D01*
X125340943Y-53313000D01*
X125340945Y-53313000D01*
X125499055Y-53313000D01*
X125499057Y-53313000D01*
X125651784Y-53272077D01*
X125788716Y-53193020D01*
X125900520Y-53081216D01*
X125979577Y-52944284D01*
X126020500Y-52791557D01*
X126020500Y-52633443D01*
X125979577Y-52480716D01*
X125900520Y-52343784D01*
X125788716Y-52231980D01*
X125788713Y-52231978D01*
X125784127Y-52227392D01*
X125785218Y-52226300D01*
X125754919Y-52182215D01*
X125756520Y-52121051D01*
X125793767Y-52072509D01*
X125800334Y-52068365D01*
X125814616Y-52060120D01*
X125926420Y-51948316D01*
X126005477Y-51811384D01*
X126046400Y-51658657D01*
X126046400Y-51500543D01*
X126005477Y-51347816D01*
X125926420Y-51210884D01*
X125814616Y-51099080D01*
X125677684Y-51020023D01*
X125524957Y-50979100D01*
X125366843Y-50979100D01*
X125214116Y-51020023D01*
X125077184Y-51099080D01*
X124965380Y-51210884D01*
X124886323Y-51347816D01*
X124845400Y-51500543D01*
X124845400Y-51658657D01*
X124886323Y-51811384D01*
X124965380Y-51948316D01*
X125077184Y-52060120D01*
X125077186Y-52060121D01*
X125081773Y-52064708D01*
X125080680Y-52065800D01*
X125110979Y-52109880D01*
X125109380Y-52171045D01*
X125072135Y-52219588D01*
X125065561Y-52223736D01*
X125051286Y-52231978D01*
X125051284Y-52231980D01*
X124939480Y-52343784D01*
X124860423Y-52480716D01*
X124819500Y-52633443D01*
X107850500Y-52633443D01*
X107850500Y-51734443D01*
X108994400Y-51734443D01*
X108994400Y-51892557D01*
X109035323Y-52045284D01*
X109114380Y-52182216D01*
X109226184Y-52294020D01*
X109363116Y-52373077D01*
X109515843Y-52414000D01*
X109515845Y-52414000D01*
X109673955Y-52414000D01*
X109673957Y-52414000D01*
X109826684Y-52373077D01*
X109963616Y-52294020D01*
X110075420Y-52182216D01*
X110154477Y-52045284D01*
X110195400Y-51892557D01*
X110195400Y-51870943D01*
X122972700Y-51870943D01*
X122972700Y-52029057D01*
X123013623Y-52181784D01*
X123092680Y-52318716D01*
X123204484Y-52430520D01*
X123341416Y-52509577D01*
X123494143Y-52550500D01*
X123494145Y-52550500D01*
X123652255Y-52550500D01*
X123652257Y-52550500D01*
X123804984Y-52509577D01*
X123941916Y-52430520D01*
X124053720Y-52318716D01*
X124132777Y-52181784D01*
X124173700Y-52029057D01*
X124173700Y-51870943D01*
X124132777Y-51718216D01*
X124053720Y-51581284D01*
X123941916Y-51469480D01*
X123804984Y-51390423D01*
X123652257Y-51349500D01*
X123494143Y-51349500D01*
X123341416Y-51390423D01*
X123204484Y-51469480D01*
X123092680Y-51581284D01*
X123013623Y-51718216D01*
X122972700Y-51870943D01*
X110195400Y-51870943D01*
X110195400Y-51734443D01*
X110154477Y-51581716D01*
X110075420Y-51444784D01*
X109963616Y-51332980D01*
X109826684Y-51253923D01*
X109673957Y-51213000D01*
X109515843Y-51213000D01*
X109363116Y-51253923D01*
X109226184Y-51332980D01*
X109114380Y-51444784D01*
X109035323Y-51581716D01*
X108994400Y-51734443D01*
X107850500Y-51734443D01*
X107850500Y-50325502D01*
X107860316Y-50282522D01*
X107914041Y-50171044D01*
X107951270Y-50093791D01*
X107993566Y-50049580D01*
X108002569Y-50045308D01*
X108004325Y-50044580D01*
X108004328Y-50044580D01*
X108131811Y-49991775D01*
X108246542Y-49915114D01*
X108344114Y-49817542D01*
X108420775Y-49702811D01*
X108473580Y-49575328D01*
X108500500Y-49439993D01*
X108500500Y-49360343D01*
X108952700Y-49360343D01*
X108952700Y-49518457D01*
X108993623Y-49671184D01*
X109072680Y-49808116D01*
X109073996Y-49809432D01*
X109074602Y-49810622D01*
X109076631Y-49813266D01*
X109076141Y-49813641D01*
X109101772Y-49863947D01*
X109092201Y-49924379D01*
X109089739Y-49928912D01*
X109038123Y-50018316D01*
X108997200Y-50171043D01*
X108997200Y-50329157D01*
X109038123Y-50481884D01*
X109117180Y-50618816D01*
X109228984Y-50730620D01*
X109365916Y-50809677D01*
X109518643Y-50850600D01*
X109518645Y-50850600D01*
X109676755Y-50850600D01*
X109676757Y-50850600D01*
X109829484Y-50809677D01*
X109966416Y-50730620D01*
X110078220Y-50618816D01*
X110157277Y-50481884D01*
X110198200Y-50329157D01*
X110198200Y-50171043D01*
X110157277Y-50018316D01*
X110078220Y-49881384D01*
X110076902Y-49880066D01*
X110076296Y-49878875D01*
X110074269Y-49876234D01*
X110074758Y-49875858D01*
X110049127Y-49825552D01*
X110058698Y-49765120D01*
X110061141Y-49760619D01*
X110112777Y-49671184D01*
X110153700Y-49518457D01*
X110153700Y-49360343D01*
X110112777Y-49207616D01*
X110033720Y-49070684D01*
X109921916Y-48958880D01*
X109784984Y-48879823D01*
X109632257Y-48838900D01*
X109474143Y-48838900D01*
X109321416Y-48879823D01*
X109184484Y-48958880D01*
X109072680Y-49070684D01*
X108993623Y-49207616D01*
X108952700Y-49360343D01*
X108500500Y-49360343D01*
X108500500Y-49302007D01*
X108473580Y-49166672D01*
X108433722Y-49070446D01*
X108420777Y-49039193D01*
X108420771Y-49039182D01*
X108344114Y-48924458D01*
X108246541Y-48826885D01*
X108131817Y-48750228D01*
X108131806Y-48750222D01*
X108004328Y-48697420D01*
X107868995Y-48670500D01*
X107868993Y-48670500D01*
X107731007Y-48670500D01*
X107731004Y-48670500D01*
X107595672Y-48697420D01*
X107595670Y-48697420D01*
X107468193Y-48750222D01*
X107468182Y-48750228D01*
X107353458Y-48826885D01*
X107255885Y-48924458D01*
X107179228Y-49039182D01*
X107179222Y-49039193D01*
X107126420Y-49166670D01*
X107126420Y-49166672D01*
X107099500Y-49302004D01*
X107099500Y-49439995D01*
X107126420Y-49575327D01*
X107126420Y-49575329D01*
X107143914Y-49617565D01*
X107148713Y-49678562D01*
X107141633Y-49698428D01*
X107003054Y-49985980D01*
X107001448Y-49989310D01*
X106980201Y-50026114D01*
X106975801Y-50042527D01*
X106971769Y-50050896D01*
X106971769Y-50050898D01*
X106968419Y-50057849D01*
X106961190Y-50095997D01*
X106959549Y-50103183D01*
X106949500Y-50140688D01*
X106949500Y-50140691D01*
X106949500Y-50157690D01*
X106946335Y-50174392D01*
X106949500Y-50216786D01*
X106949500Y-67560256D01*
X106930593Y-67618447D01*
X106920510Y-67630253D01*
X106919483Y-67631279D01*
X106919480Y-67631283D01*
X106919480Y-67631284D01*
X106840423Y-67768216D01*
X106799500Y-67920943D01*
X97800500Y-67920943D01*
X97800500Y-61898999D01*
X97819407Y-61840808D01*
X97868907Y-61804844D01*
X97899500Y-61799999D01*
X98399999Y-61799999D01*
X98400000Y-61799998D01*
X98400000Y-60950001D01*
X98800000Y-60950001D01*
X98800000Y-61799998D01*
X98800001Y-61799999D01*
X101184790Y-61799999D01*
X101184791Y-61799998D01*
X101209874Y-61797090D01*
X101312477Y-61751786D01*
X101391786Y-61672477D01*
X101437090Y-61569872D01*
X101439999Y-61544797D01*
X101440000Y-61544795D01*
X101440000Y-60950001D01*
X101439999Y-60950000D01*
X98800001Y-60950000D01*
X98800000Y-60950001D01*
X98400000Y-60950001D01*
X98400000Y-59700001D01*
X98800000Y-59700001D01*
X98800000Y-60549999D01*
X98800001Y-60550000D01*
X101439998Y-60550000D01*
X101439999Y-60549999D01*
X101439999Y-59955210D01*
X101439998Y-59955208D01*
X101437090Y-59930125D01*
X101391786Y-59827522D01*
X101312477Y-59748213D01*
X101209872Y-59702909D01*
X101184797Y-59700000D01*
X98800001Y-59700000D01*
X98800000Y-59700001D01*
X98400000Y-59700001D01*
X98399999Y-59700000D01*
X97899500Y-59700000D01*
X97841309Y-59681093D01*
X97805345Y-59631593D01*
X97800500Y-59601000D01*
X97800500Y-49335343D01*
X99999500Y-49335343D01*
X99999500Y-49493457D01*
X100040423Y-49646184D01*
X100119480Y-49783116D01*
X100231284Y-49894920D01*
X100368216Y-49973977D01*
X100520943Y-50014900D01*
X100520945Y-50014900D01*
X100679055Y-50014900D01*
X100679057Y-50014900D01*
X100831784Y-49973977D01*
X100968716Y-49894920D01*
X101080520Y-49783116D01*
X101159577Y-49646184D01*
X101200500Y-49493457D01*
X101200500Y-49335343D01*
X101159577Y-49182616D01*
X101080520Y-49045684D01*
X100968716Y-48933880D01*
X100831784Y-48854823D01*
X100679057Y-48813900D01*
X100520943Y-48813900D01*
X100368216Y-48854823D01*
X100231284Y-48933880D01*
X100119480Y-49045684D01*
X100040423Y-49182616D01*
X99999500Y-49335343D01*
X97800500Y-49335343D01*
X97800500Y-46065104D01*
X124929000Y-46065104D01*
X124929000Y-46203095D01*
X124955920Y-46338427D01*
X124955920Y-46338429D01*
X125008722Y-46465906D01*
X125008728Y-46465917D01*
X125085385Y-46580641D01*
X125182958Y-46678214D01*
X125297682Y-46754871D01*
X125297693Y-46754877D01*
X125344783Y-46774382D01*
X125425172Y-46807680D01*
X125560507Y-46834600D01*
X125560508Y-46834600D01*
X125698492Y-46834600D01*
X125698493Y-46834600D01*
X125833828Y-46807680D01*
X125961311Y-46754875D01*
X126076042Y-46678214D01*
X126173614Y-46580642D01*
X126250275Y-46465911D01*
X126303080Y-46338428D01*
X126330000Y-46203093D01*
X126330000Y-46065107D01*
X126303080Y-45929772D01*
X126250275Y-45802289D01*
X126250274Y-45802287D01*
X126250271Y-45802282D01*
X126173614Y-45687558D01*
X126076041Y-45589985D01*
X125961317Y-45513328D01*
X125961306Y-45513322D01*
X125833828Y-45460520D01*
X125698495Y-45433600D01*
X125698493Y-45433600D01*
X125560507Y-45433600D01*
X125560504Y-45433600D01*
X125425172Y-45460520D01*
X125425170Y-45460520D01*
X125297693Y-45513322D01*
X125297682Y-45513328D01*
X125182958Y-45589985D01*
X125085385Y-45687558D01*
X125008728Y-45802282D01*
X125008722Y-45802293D01*
X124955920Y-45929770D01*
X124955920Y-45929772D01*
X124929000Y-46065104D01*
X97800500Y-46065104D01*
X97800500Y-45099000D01*
X97819407Y-45040809D01*
X97868907Y-45004845D01*
X97899500Y-45000000D01*
X137100500Y-45000000D01*
X137158691Y-45018907D01*
G37*
%TD.AperFunction*%
%TD*%
M02*
