M48
; DRILL file {KiCad 9.0.7} date 2026-10-06T21:24:05+0530
; FORMAT={-:-/ absolute / metric / decimal}
; #@! TF.CreationDate,2026-10-06T21:24:05+05:30
; #@! TF.GenerationSoftware,Kicad,Pcbnew,9.0.7
; #@! TF.FileFunction,Plated,1,4,PTH
FMAT,2
METRIC
; #@! TA.AperFunction,Plated,PTH,ViaDrill
T1C0.300
; #@! TA.AperFunction,Plated,PTH,ViaDrill
T2C0.400
; #@! TA.AperFunction,Plated,PTH,ComponentDrill
T3C0.650
%
G90
G05
T1
X98.5Y-46.0
X98.5Y-48.5
X98.5Y-51.0
X98.5Y-53.5
X98.5Y-56.0
X98.5Y-58.5
X98.5Y-62.0
X98.5Y-66.5
X98.5Y-70.5
X98.5Y-73.0
X98.5Y-76.0
X98.5Y-78.5
X98.5Y-81.0
X98.5Y-83.5
X98.5Y-86.0
X98.5Y-88.5
X98.5Y-91.0
X98.5Y-93.5
X98.5Y-96.0
X100.5Y-74.5
X100.5Y-97.5
X100.6Y-49.414
X101.0Y-46.0
X101.0Y-59.5
X101.0Y-79.5
X101.0Y-83.5
X101.0Y-86.5
X101.5Y-54.5
X101.5Y-66.5
X101.5Y-69.0
X102.0Y-51.0
X102.0Y-57.0
X102.0Y-95.5
X102.5Y-64.0
X102.5Y-76.5
X102.5Y-81.5
X102.5Y-93.0
X103.0Y-71.0
X103.0Y-85.0
X103.5Y-53.0
X104.0Y-55.5
X104.0Y-58.5
X104.0Y-66.5
X104.0Y-78.5
X104.0Y-97.0
X104.5Y-75.0
X104.5Y-83.0
X104.5Y-87.0
X104.5Y-90.0
X104.5Y-94.5
X105.0Y-64.0
X105.5Y-51.0
X105.5Y-68.5
X105.5Y-71.0
X106.0Y-53.5
X106.0Y-80.0
X106.0Y-85.0
X106.0Y-92.0
X106.5Y-56.0
X106.5Y-58.5
X106.5Y-66.0
X106.5Y-76.5
X106.5Y-88.5
X106.5Y-98.0
X107.0Y-46.0
X107.0Y-94.5
X107.142Y-73.699
X107.4Y-68.0
X107.9Y-93.5
X108.0Y-82.0
X108.0Y-86.5
X108.124Y-63.899
X108.5Y-51.0
X108.5Y-90.0
X108.5Y-96.5
X108.632Y-60.136
X108.822Y-59.334
X108.926Y-61.824
X109.0Y-55.0
X109.5Y-84.0
X109.5Y-86.862
X109.5Y-93.5
X109.513Y-56.035
X109.553Y-49.439
X109.595Y-51.813
X109.598Y-50.25
X110.5Y-45.8
X110.5Y-98.0
X111.1Y-83.909
X111.1Y-93.5
X111.402Y-53.425
X111.406Y-55.036
X111.5Y-76.5
X112.0Y-85.0
X112.0Y-89.0
X112.0Y-94.0
X112.078Y-70.393
X112.086Y-58.884
X112.167Y-56.582
X112.535Y-55.356
X112.655Y-71.503
X112.7Y-74.03
X112.7Y-93.5
X113.25Y-70.177
X113.5Y-78.5
X113.5Y-87.0
X113.5Y-96.0
X113.9Y-355.0
X114.0Y-61.5
X114.0Y-64.0
X114.0Y-66.5
X114.1Y-57.18
X114.3Y-78.163
X114.3Y-93.5
X114.5Y-69.0
X114.5Y-75.5
X114.5Y-335.0
X114.95Y-58.878
X115.0Y-89.0
X115.0Y-94.0
X115.0Y-98.0
X115.1Y-315.0
X115.5Y-80.0
X115.7Y-295.0
X115.85Y-51.15
X115.85Y-52.8
X115.85Y-54.45
X115.9Y-87.688
X115.9Y-93.5
X116.3Y-275.0
X116.5Y-63.0
X116.5Y-77.0
X116.65Y-62.047
X116.9Y-255.0
X117.0Y-69.5
X117.0Y-72.0
X117.0Y-74.5
X117.0Y-82.0
X117.4Y-56.586
X117.5Y-51.15
X117.5Y-52.8
X117.5Y-54.45
X117.5Y-85.299
X117.5Y-93.5
X117.5Y-235.0
X117.5Y-378.0
X117.5Y-384.0
X117.5Y-390.0
X118.1Y-215.0
X118.35Y-57.537
X118.5Y-84.0
X118.7Y-195.0
X119.1Y-88.249
X119.1Y-93.5
X119.15Y-51.15
X119.15Y-52.8
X119.3Y-175.0
X119.5Y-69.5
X119.5Y-72.0
X119.5Y-74.5
X119.5Y-80.5
X119.527Y-66.059
X119.9Y-155.0
X120.0Y-61.5
X120.0Y-67.0
X120.0Y-88.5
X120.0Y-94.0
X120.0Y-98.0
X120.5Y-86.0
X120.5Y-135.0
X120.7Y-90.125
X120.7Y-93.5
X121.0Y-78.5
X121.1Y-116.0
X121.5Y-76.0
X121.5Y-82.5
X121.5Y-96.0
X122.0Y-63.0
X122.0Y-68.5
X122.3Y-88.986
X122.3Y-93.5
X122.5Y-71.0
X122.5Y-73.5
X123.0Y-80.5
X123.0Y-90.5
X123.0Y-94.0
X123.5Y-77.5
X123.5Y-84.5
X123.573Y-51.95
X123.594Y-55.133
X123.9Y-87.081
X123.9Y-93.5
X123.976Y-65.79
X123.995Y-71.63
X124.0Y-64.5
X124.5Y-45.8
X124.5Y-59.8
X125.42Y-52.712
X125.445Y-54.5
X125.446Y-51.58
X125.5Y-80.5
X125.5Y-83.0
X125.5Y-86.0
X125.5Y-87.86
X125.5Y-93.5
X125.5Y-97.0
X126.0Y-62.0
X126.5Y-53.0
X127.0Y-78.5
X127.022Y-59.497
X127.1Y-85.948
X127.1Y-93.5
X127.5Y-73.5
X127.5Y-76.0
X127.5Y-95.0
X127.613Y-68.613
X128.0Y-55.0
X128.0Y-81.5
X128.0Y-86.5
X128.0Y-89.5
X128.0Y-92.5
X128.0Y-97.5
X128.5Y-71.0
X129.0Y-60.0
X129.0Y-64.244
X129.0Y-68.2
X129.0Y-84.0
X129.062Y-69.246
X129.5Y-46.0
X129.5Y-79.5
X129.69Y-71.0
X130.0Y-74.5
X130.0Y-77.0
X130.0Y-88.0
X130.0Y-91.0
X130.0Y-96.0
X130.5Y-82.0
X130.5Y-93.5
X131.0Y-58.0
X131.0Y-62.0
X131.0Y-64.244
X131.0Y-72.0
X131.5Y-85.0
X131.5Y-98.0
X132.0Y-46.0
X132.0Y-68.0
X132.0Y-80.0
X132.0Y-89.5
X132.5Y-60.0
X132.5Y-64.0
X132.5Y-75.0
X132.5Y-77.5
X132.5Y-92.0
X132.5Y-95.0
X133.0Y-48.5
X133.0Y-52.5
X133.0Y-56.5
X133.0Y-83.0
X133.0Y-87.0
X133.5Y-72.5
X134.0Y-62.0
X134.0Y-69.5
X134.0Y-97.0
X134.5Y-46.0
X134.5Y-50.5
X134.5Y-54.5
X134.5Y-58.5
X134.5Y-65.5
X134.5Y-81.0
X134.5Y-85.0
X134.5Y-89.0
X134.5Y-93.5
X135.0Y-76.0
X135.0Y-78.5
X135.753Y-91.972
X136.0Y-48.0
X136.0Y-52.5
X136.0Y-56.5
X136.0Y-60.5
X136.0Y-63.5
X136.0Y-67.5
X136.0Y-71.0
X136.0Y-73.5
X136.0Y-83.0
X136.0Y-87.0
X136.0Y-91.0
X136.0Y-95.5
X136.0Y-98.5
T2
X101.596Y-89.0
X107.8Y-49.371
X118.692Y-82.735
X125.629Y-46.134
T3
X131.5Y-48.0
X131.5Y-49.27
X131.5Y-50.54
X131.5Y-51.81
X131.5Y-53.08
X131.5Y-54.35
X131.5Y-55.62
X131.5Y-56.89
M30
