%TF.GenerationSoftware,KiCad,Pcbnew,9.0.7*%
%TF.CreationDate,2026-10-06T21:24:05+05:30*%
%TF.ProjectId,AWD-FieldNode,4157442d-4669-4656-9c64-4e6f64652e6b,rev?*%
%TF.SameCoordinates,Original*%
%TF.FileFunction,Legend,Bot*%
%TF.FilePolarity,Positive*%
%FSLAX46Y46*%
G04 Gerber Fmt 4.6, Leading zero omitted, Abs format (unit mm)*
G04 Created by KiCad (PCBNEW 9.0.7) date 2026-10-06 21:24:05*
%MOMM*%
%LPD*%
G01*
G04 APERTURE LIST*
G04 Aperture macros list*
%AMRoundRect*
0 Rectangle with rounded corners*
0 $1 Rounding radius*
0 $2 $3 $4 $5 $6 $7 $8 $9 X,Y pos of 4 corners*
0 Add a 4 corners polygon primitive as box body*
4,1,4,$2,$3,$4,$5,$6,$7,$8,$9,$2,$3,0*
0 Add four circle primitives for the rounded corners*
1,1,$1+$1,$2,$3*
1,1,$1+$1,$4,$5*
1,1,$1+$1,$6,$7*
1,1,$1+$1,$8,$9*
0 Add four rect primitives between the rounded corners*
20,1,$1+$1,$2,$3,$4,$5,0*
20,1,$1+$1,$4,$5,$6,$7,0*
20,1,$1+$1,$6,$7,$8,$9,0*
20,1,$1+$1,$8,$9,$2,$3,0*%
G04 Aperture macros list end*
%ADD10C,0.150000*%
%ADD11C,0.300000*%
%ADD12C,0.180000*%
%ADD13C,0.120000*%
%ADD14R,1.000000X1.000000*%
%ADD15C,1.000000*%
%ADD16R,5.080000X1.500000*%
%ADD17RoundRect,0.250000X0.250000X1.500000X-0.250000X1.500000X-0.250000X-1.500000X0.250000X-1.500000X0*%
%ADD18RoundRect,0.250001X0.499999X1.449999X-0.499999X1.449999X-0.499999X-1.449999X0.499999X-1.449999X0*%
G04 APERTURE END LIST*
D10*
X112900000Y-266000000D02*
X113900000Y-266000000D01*
X121100000Y-226000000D02*
X122100000Y-226000000D01*
X112900000Y-176000000D02*
X113900000Y-176000000D01*
X120100000Y-196000000D02*
X122100000Y-196000000D01*
X112900000Y-166000000D02*
X113900000Y-166000000D01*
X112900000Y-356000000D02*
X113900000Y-356000000D01*
X121100000Y-266000000D02*
X122100000Y-266000000D01*
X112900000Y-306000000D02*
X113900000Y-306000000D01*
X112900000Y-326000000D02*
X113900000Y-326000000D01*
X112900000Y-126000000D02*
X113900000Y-126000000D01*
X120100000Y-346000000D02*
X122100000Y-346000000D01*
X112900000Y-186000000D02*
X113900000Y-186000000D01*
X120100000Y-146000000D02*
X122100000Y-146000000D01*
X112900000Y-246000000D02*
X114900000Y-246000000D01*
X121100000Y-126000000D02*
X122100000Y-126000000D01*
D11*
X112900000Y-196000000D02*
X122100000Y-196000000D01*
D10*
X112900000Y-336000000D02*
X113900000Y-336000000D01*
X112900000Y-206000000D02*
X113900000Y-206000000D01*
X120100000Y-246000000D02*
X122100000Y-246000000D01*
X121100000Y-186000000D02*
X122100000Y-186000000D01*
X121100000Y-376000000D02*
X122100000Y-376000000D01*
X112900000Y-216000000D02*
X113900000Y-216000000D01*
X112900000Y-256000000D02*
X113900000Y-256000000D01*
X121100000Y-356000000D02*
X122100000Y-356000000D01*
X121100000Y-366000000D02*
X122100000Y-366000000D01*
X121100000Y-286000000D02*
X122100000Y-286000000D01*
X112900000Y-276000000D02*
X113900000Y-276000000D01*
X121100000Y-166000000D02*
X122100000Y-166000000D01*
X121100000Y-136000000D02*
X122100000Y-136000000D01*
X121100000Y-326000000D02*
X122100000Y-326000000D01*
X121100000Y-256000000D02*
X122100000Y-256000000D01*
X112900000Y-196000000D02*
X114900000Y-196000000D01*
X121100000Y-316000000D02*
X122100000Y-316000000D01*
X112900000Y-376000000D02*
X113900000Y-376000000D01*
X112900000Y-116000000D02*
X113900000Y-116000000D01*
X120100000Y-296000000D02*
X122100000Y-296000000D01*
X121100000Y-306000000D02*
X122100000Y-306000000D01*
X112900000Y-136000000D02*
X113900000Y-136000000D01*
X121100000Y-336000000D02*
X122100000Y-336000000D01*
X112900000Y-386000000D02*
X113900000Y-386000000D01*
X121100000Y-206000000D02*
X122100000Y-206000000D01*
X112900000Y-296000000D02*
X114900000Y-296000000D01*
X112900000Y-156000000D02*
X113900000Y-156000000D01*
X121100000Y-216000000D02*
X122100000Y-216000000D01*
X112900000Y-346000000D02*
X114900000Y-346000000D01*
X112900000Y-236000000D02*
X113900000Y-236000000D01*
X121100000Y-156000000D02*
X122100000Y-156000000D01*
X112900000Y-286000000D02*
X113900000Y-286000000D01*
X121100000Y-176000000D02*
X122100000Y-176000000D01*
X121100000Y-386000000D02*
X122100000Y-386000000D01*
X112900000Y-146000000D02*
X114900000Y-146000000D01*
X121100000Y-236000000D02*
X122100000Y-236000000D01*
X112900000Y-226000000D02*
X113900000Y-226000000D01*
X121100000Y-116000000D02*
X122100000Y-116000000D01*
X112900000Y-366000000D02*
X113900000Y-366000000D01*
X121100000Y-276000000D02*
X122100000Y-276000000D01*
X112900000Y-316000000D02*
X113900000Y-316000000D01*
D12*
X119242857Y-194488640D02*
X119071429Y-194545782D01*
X119071429Y-194545782D02*
X118785714Y-194545782D01*
X118785714Y-194545782D02*
X118671429Y-194488640D01*
X118671429Y-194488640D02*
X118614286Y-194431497D01*
X118614286Y-194431497D02*
X118557143Y-194317211D01*
X118557143Y-194317211D02*
X118557143Y-194202925D01*
X118557143Y-194202925D02*
X118614286Y-194088640D01*
X118614286Y-194088640D02*
X118671429Y-194031497D01*
X118671429Y-194031497D02*
X118785714Y-193974354D01*
X118785714Y-193974354D02*
X119014286Y-193917211D01*
X119014286Y-193917211D02*
X119128571Y-193860068D01*
X119128571Y-193860068D02*
X119185714Y-193802925D01*
X119185714Y-193802925D02*
X119242857Y-193688640D01*
X119242857Y-193688640D02*
X119242857Y-193574354D01*
X119242857Y-193574354D02*
X119185714Y-193460068D01*
X119185714Y-193460068D02*
X119128571Y-193402925D01*
X119128571Y-193402925D02*
X119014286Y-193345782D01*
X119014286Y-193345782D02*
X118728571Y-193345782D01*
X118728571Y-193345782D02*
X118557143Y-193402925D01*
X117814286Y-193345782D02*
X117585714Y-193345782D01*
X117585714Y-193345782D02*
X117471429Y-193402925D01*
X117471429Y-193402925D02*
X117357143Y-193517211D01*
X117357143Y-193517211D02*
X117300000Y-193745782D01*
X117300000Y-193745782D02*
X117300000Y-194145782D01*
X117300000Y-194145782D02*
X117357143Y-194374354D01*
X117357143Y-194374354D02*
X117471429Y-194488640D01*
X117471429Y-194488640D02*
X117585714Y-194545782D01*
X117585714Y-194545782D02*
X117814286Y-194545782D01*
X117814286Y-194545782D02*
X117928572Y-194488640D01*
X117928572Y-194488640D02*
X118042857Y-194374354D01*
X118042857Y-194374354D02*
X118100000Y-194145782D01*
X118100000Y-194145782D02*
X118100000Y-193745782D01*
X118100000Y-193745782D02*
X118042857Y-193517211D01*
X118042857Y-193517211D02*
X117928572Y-193402925D01*
X117928572Y-193402925D02*
X117814286Y-193345782D01*
X116785714Y-194545782D02*
X116785714Y-193345782D01*
X115642857Y-194545782D02*
X116214285Y-194545782D01*
X116214285Y-194545782D02*
X116214285Y-193345782D01*
X118528570Y-146088640D02*
X117614285Y-146088640D01*
X118071427Y-146545782D02*
X118071427Y-145631497D01*
X116471428Y-145345782D02*
X117042856Y-145345782D01*
X117042856Y-145345782D02*
X117099999Y-145917211D01*
X117099999Y-145917211D02*
X117042856Y-145860068D01*
X117042856Y-145860068D02*
X116928571Y-145802925D01*
X116928571Y-145802925D02*
X116642856Y-145802925D01*
X116642856Y-145802925D02*
X116528571Y-145860068D01*
X116528571Y-145860068D02*
X116471428Y-145917211D01*
X116471428Y-145917211D02*
X116414285Y-146031497D01*
X116414285Y-146031497D02*
X116414285Y-146317211D01*
X116414285Y-146317211D02*
X116471428Y-146431497D01*
X116471428Y-146431497D02*
X116528571Y-146488640D01*
X116528571Y-146488640D02*
X116642856Y-146545782D01*
X116642856Y-146545782D02*
X116928571Y-146545782D01*
X116928571Y-146545782D02*
X117042856Y-146488640D01*
X117042856Y-146488640D02*
X117099999Y-146431497D01*
X119099999Y-296088640D02*
X118185714Y-296088640D01*
X116985714Y-296545782D02*
X117671428Y-296545782D01*
X117328571Y-296545782D02*
X117328571Y-295345782D01*
X117328571Y-295345782D02*
X117442857Y-295517211D01*
X117442857Y-295517211D02*
X117557142Y-295631497D01*
X117557142Y-295631497D02*
X117671428Y-295688640D01*
X116242857Y-295345782D02*
X116128571Y-295345782D01*
X116128571Y-295345782D02*
X116014285Y-295402925D01*
X116014285Y-295402925D02*
X115957143Y-295460068D01*
X115957143Y-295460068D02*
X115900000Y-295574354D01*
X115900000Y-295574354D02*
X115842857Y-295802925D01*
X115842857Y-295802925D02*
X115842857Y-296088640D01*
X115842857Y-296088640D02*
X115900000Y-296317211D01*
X115900000Y-296317211D02*
X115957143Y-296431497D01*
X115957143Y-296431497D02*
X116014285Y-296488640D01*
X116014285Y-296488640D02*
X116128571Y-296545782D01*
X116128571Y-296545782D02*
X116242857Y-296545782D01*
X116242857Y-296545782D02*
X116357143Y-296488640D01*
X116357143Y-296488640D02*
X116414285Y-296431497D01*
X116414285Y-296431497D02*
X116471428Y-296317211D01*
X116471428Y-296317211D02*
X116528571Y-296088640D01*
X116528571Y-296088640D02*
X116528571Y-295802925D01*
X116528571Y-295802925D02*
X116471428Y-295574354D01*
X116471428Y-295574354D02*
X116414285Y-295460068D01*
X116414285Y-295460068D02*
X116357143Y-295402925D01*
X116357143Y-295402925D02*
X116242857Y-295345782D01*
X118528570Y-246088640D02*
X117614285Y-246088640D01*
X116471428Y-245345782D02*
X117042856Y-245345782D01*
X117042856Y-245345782D02*
X117099999Y-245917211D01*
X117099999Y-245917211D02*
X117042856Y-245860068D01*
X117042856Y-245860068D02*
X116928571Y-245802925D01*
X116928571Y-245802925D02*
X116642856Y-245802925D01*
X116642856Y-245802925D02*
X116528571Y-245860068D01*
X116528571Y-245860068D02*
X116471428Y-245917211D01*
X116471428Y-245917211D02*
X116414285Y-246031497D01*
X116414285Y-246031497D02*
X116414285Y-246317211D01*
X116414285Y-246317211D02*
X116471428Y-246431497D01*
X116471428Y-246431497D02*
X116528571Y-246488640D01*
X116528571Y-246488640D02*
X116642856Y-246545782D01*
X116642856Y-246545782D02*
X116928571Y-246545782D01*
X116928571Y-246545782D02*
X117042856Y-246488640D01*
X117042856Y-246488640D02*
X117099999Y-246431497D01*
X119099999Y-346088640D02*
X118185714Y-346088640D01*
X116985714Y-346545782D02*
X117671428Y-346545782D01*
X117328571Y-346545782D02*
X117328571Y-345345782D01*
X117328571Y-345345782D02*
X117442857Y-345517211D01*
X117442857Y-345517211D02*
X117557142Y-345631497D01*
X117557142Y-345631497D02*
X117671428Y-345688640D01*
X115900000Y-345345782D02*
X116471428Y-345345782D01*
X116471428Y-345345782D02*
X116528571Y-345917211D01*
X116528571Y-345917211D02*
X116471428Y-345860068D01*
X116471428Y-345860068D02*
X116357143Y-345802925D01*
X116357143Y-345802925D02*
X116071428Y-345802925D01*
X116071428Y-345802925D02*
X115957143Y-345860068D01*
X115957143Y-345860068D02*
X115900000Y-345917211D01*
X115900000Y-345917211D02*
X115842857Y-346031497D01*
X115842857Y-346031497D02*
X115842857Y-346317211D01*
X115842857Y-346317211D02*
X115900000Y-346431497D01*
X115900000Y-346431497D02*
X115957143Y-346488640D01*
X115957143Y-346488640D02*
X116071428Y-346545782D01*
X116071428Y-346545782D02*
X116357143Y-346545782D01*
X116357143Y-346545782D02*
X116471428Y-346488640D01*
X116471428Y-346488640D02*
X116528571Y-346431497D01*
D10*
X127285715Y-68669104D02*
X126809525Y-68669104D01*
X127380953Y-68954819D02*
X127047620Y-67954819D01*
X127047620Y-67954819D02*
X126714287Y-68954819D01*
X125952382Y-68288152D02*
X125952382Y-69097676D01*
X125952382Y-69097676D02*
X126000001Y-69192914D01*
X126000001Y-69192914D02*
X126047620Y-69240533D01*
X126047620Y-69240533D02*
X126142858Y-69288152D01*
X126142858Y-69288152D02*
X126285715Y-69288152D01*
X126285715Y-69288152D02*
X126380953Y-69240533D01*
X125952382Y-68907200D02*
X126047620Y-68954819D01*
X126047620Y-68954819D02*
X126238096Y-68954819D01*
X126238096Y-68954819D02*
X126333334Y-68907200D01*
X126333334Y-68907200D02*
X126380953Y-68859580D01*
X126380953Y-68859580D02*
X126428572Y-68764342D01*
X126428572Y-68764342D02*
X126428572Y-68478628D01*
X126428572Y-68478628D02*
X126380953Y-68383390D01*
X126380953Y-68383390D02*
X126333334Y-68335771D01*
X126333334Y-68335771D02*
X126238096Y-68288152D01*
X126238096Y-68288152D02*
X126047620Y-68288152D01*
X126047620Y-68288152D02*
X125952382Y-68335771D01*
X125476191Y-68954819D02*
X125476191Y-68288152D01*
X125476191Y-68478628D02*
X125428572Y-68383390D01*
X125428572Y-68383390D02*
X125380953Y-68335771D01*
X125380953Y-68335771D02*
X125285715Y-68288152D01*
X125285715Y-68288152D02*
X125190477Y-68288152D01*
X124857143Y-68954819D02*
X124857143Y-68288152D01*
X124857143Y-67954819D02*
X124904762Y-68002438D01*
X124904762Y-68002438D02*
X124857143Y-68050057D01*
X124857143Y-68050057D02*
X124809524Y-68002438D01*
X124809524Y-68002438D02*
X124857143Y-67954819D01*
X124857143Y-67954819D02*
X124857143Y-68050057D01*
X123666667Y-68907200D02*
X123523810Y-68954819D01*
X123523810Y-68954819D02*
X123285715Y-68954819D01*
X123285715Y-68954819D02*
X123190477Y-68907200D01*
X123190477Y-68907200D02*
X123142858Y-68859580D01*
X123142858Y-68859580D02*
X123095239Y-68764342D01*
X123095239Y-68764342D02*
X123095239Y-68669104D01*
X123095239Y-68669104D02*
X123142858Y-68573866D01*
X123142858Y-68573866D02*
X123190477Y-68526247D01*
X123190477Y-68526247D02*
X123285715Y-68478628D01*
X123285715Y-68478628D02*
X123476191Y-68431009D01*
X123476191Y-68431009D02*
X123571429Y-68383390D01*
X123571429Y-68383390D02*
X123619048Y-68335771D01*
X123619048Y-68335771D02*
X123666667Y-68240533D01*
X123666667Y-68240533D02*
X123666667Y-68145295D01*
X123666667Y-68145295D02*
X123619048Y-68050057D01*
X123619048Y-68050057D02*
X123571429Y-68002438D01*
X123571429Y-68002438D02*
X123476191Y-67954819D01*
X123476191Y-67954819D02*
X123238096Y-67954819D01*
X123238096Y-67954819D02*
X123095239Y-68002438D01*
X122285715Y-68907200D02*
X122380953Y-68954819D01*
X122380953Y-68954819D02*
X122571429Y-68954819D01*
X122571429Y-68954819D02*
X122666667Y-68907200D01*
X122666667Y-68907200D02*
X122714286Y-68811961D01*
X122714286Y-68811961D02*
X122714286Y-68431009D01*
X122714286Y-68431009D02*
X122666667Y-68335771D01*
X122666667Y-68335771D02*
X122571429Y-68288152D01*
X122571429Y-68288152D02*
X122380953Y-68288152D01*
X122380953Y-68288152D02*
X122285715Y-68335771D01*
X122285715Y-68335771D02*
X122238096Y-68431009D01*
X122238096Y-68431009D02*
X122238096Y-68526247D01*
X122238096Y-68526247D02*
X122714286Y-68621485D01*
X121809524Y-68288152D02*
X121809524Y-68954819D01*
X121809524Y-68383390D02*
X121761905Y-68335771D01*
X121761905Y-68335771D02*
X121666667Y-68288152D01*
X121666667Y-68288152D02*
X121523810Y-68288152D01*
X121523810Y-68288152D02*
X121428572Y-68335771D01*
X121428572Y-68335771D02*
X121380953Y-68431009D01*
X121380953Y-68431009D02*
X121380953Y-68954819D01*
X120952381Y-68907200D02*
X120857143Y-68954819D01*
X120857143Y-68954819D02*
X120666667Y-68954819D01*
X120666667Y-68954819D02*
X120571429Y-68907200D01*
X120571429Y-68907200D02*
X120523810Y-68811961D01*
X120523810Y-68811961D02*
X120523810Y-68764342D01*
X120523810Y-68764342D02*
X120571429Y-68669104D01*
X120571429Y-68669104D02*
X120666667Y-68621485D01*
X120666667Y-68621485D02*
X120809524Y-68621485D01*
X120809524Y-68621485D02*
X120904762Y-68573866D01*
X120904762Y-68573866D02*
X120952381Y-68478628D01*
X120952381Y-68478628D02*
X120952381Y-68431009D01*
X120952381Y-68431009D02*
X120904762Y-68335771D01*
X120904762Y-68335771D02*
X120809524Y-68288152D01*
X120809524Y-68288152D02*
X120666667Y-68288152D01*
X120666667Y-68288152D02*
X120571429Y-68335771D01*
X119952381Y-68954819D02*
X120047619Y-68907200D01*
X120047619Y-68907200D02*
X120095238Y-68859580D01*
X120095238Y-68859580D02*
X120142857Y-68764342D01*
X120142857Y-68764342D02*
X120142857Y-68478628D01*
X120142857Y-68478628D02*
X120095238Y-68383390D01*
X120095238Y-68383390D02*
X120047619Y-68335771D01*
X120047619Y-68335771D02*
X119952381Y-68288152D01*
X119952381Y-68288152D02*
X119809524Y-68288152D01*
X119809524Y-68288152D02*
X119714286Y-68335771D01*
X119714286Y-68335771D02*
X119666667Y-68383390D01*
X119666667Y-68383390D02*
X119619048Y-68478628D01*
X119619048Y-68478628D02*
X119619048Y-68764342D01*
X119619048Y-68764342D02*
X119666667Y-68859580D01*
X119666667Y-68859580D02*
X119714286Y-68907200D01*
X119714286Y-68907200D02*
X119809524Y-68954819D01*
X119809524Y-68954819D02*
X119952381Y-68954819D01*
X119190476Y-68954819D02*
X119190476Y-68288152D01*
X119190476Y-68478628D02*
X119142857Y-68383390D01*
X119142857Y-68383390D02*
X119095238Y-68335771D01*
X119095238Y-68335771D02*
X119000000Y-68288152D01*
X119000000Y-68288152D02*
X118904762Y-68288152D01*
X118619047Y-68907200D02*
X118523809Y-68954819D01*
X118523809Y-68954819D02*
X118333333Y-68954819D01*
X118333333Y-68954819D02*
X118238095Y-68907200D01*
X118238095Y-68907200D02*
X118190476Y-68811961D01*
X118190476Y-68811961D02*
X118190476Y-68764342D01*
X118190476Y-68764342D02*
X118238095Y-68669104D01*
X118238095Y-68669104D02*
X118333333Y-68621485D01*
X118333333Y-68621485D02*
X118476190Y-68621485D01*
X118476190Y-68621485D02*
X118571428Y-68573866D01*
X118571428Y-68573866D02*
X118619047Y-68478628D01*
X118619047Y-68478628D02*
X118619047Y-68431009D01*
X118619047Y-68431009D02*
X118571428Y-68335771D01*
X118571428Y-68335771D02*
X118476190Y-68288152D01*
X118476190Y-68288152D02*
X118333333Y-68288152D01*
X118333333Y-68288152D02*
X118238095Y-68335771D01*
X116571428Y-68954819D02*
X116571428Y-68431009D01*
X116571428Y-68431009D02*
X116619047Y-68335771D01*
X116619047Y-68335771D02*
X116714285Y-68288152D01*
X116714285Y-68288152D02*
X116904761Y-68288152D01*
X116904761Y-68288152D02*
X116999999Y-68335771D01*
X116571428Y-68907200D02*
X116666666Y-68954819D01*
X116666666Y-68954819D02*
X116904761Y-68954819D01*
X116904761Y-68954819D02*
X116999999Y-68907200D01*
X116999999Y-68907200D02*
X117047618Y-68811961D01*
X117047618Y-68811961D02*
X117047618Y-68716723D01*
X117047618Y-68716723D02*
X116999999Y-68621485D01*
X116999999Y-68621485D02*
X116904761Y-68573866D01*
X116904761Y-68573866D02*
X116666666Y-68573866D01*
X116666666Y-68573866D02*
X116571428Y-68526247D01*
X116095237Y-68288152D02*
X116095237Y-68954819D01*
X116095237Y-68383390D02*
X116047618Y-68335771D01*
X116047618Y-68335771D02*
X115952380Y-68288152D01*
X115952380Y-68288152D02*
X115809523Y-68288152D01*
X115809523Y-68288152D02*
X115714285Y-68335771D01*
X115714285Y-68335771D02*
X115666666Y-68431009D01*
X115666666Y-68431009D02*
X115666666Y-68954819D01*
X114761904Y-68954819D02*
X114761904Y-67954819D01*
X114761904Y-68907200D02*
X114857142Y-68954819D01*
X114857142Y-68954819D02*
X115047618Y-68954819D01*
X115047618Y-68954819D02*
X115142856Y-68907200D01*
X115142856Y-68907200D02*
X115190475Y-68859580D01*
X115190475Y-68859580D02*
X115238094Y-68764342D01*
X115238094Y-68764342D02*
X115238094Y-68478628D01*
X115238094Y-68478628D02*
X115190475Y-68383390D01*
X115190475Y-68383390D02*
X115142856Y-68335771D01*
X115142856Y-68335771D02*
X115047618Y-68288152D01*
X115047618Y-68288152D02*
X114857142Y-68288152D01*
X114857142Y-68288152D02*
X114761904Y-68335771D01*
X112952380Y-68859580D02*
X112999999Y-68907200D01*
X112999999Y-68907200D02*
X113142856Y-68954819D01*
X113142856Y-68954819D02*
X113238094Y-68954819D01*
X113238094Y-68954819D02*
X113380951Y-68907200D01*
X113380951Y-68907200D02*
X113476189Y-68811961D01*
X113476189Y-68811961D02*
X113523808Y-68716723D01*
X113523808Y-68716723D02*
X113571427Y-68526247D01*
X113571427Y-68526247D02*
X113571427Y-68383390D01*
X113571427Y-68383390D02*
X113523808Y-68192914D01*
X113523808Y-68192914D02*
X113476189Y-68097676D01*
X113476189Y-68097676D02*
X113380951Y-68002438D01*
X113380951Y-68002438D02*
X113238094Y-67954819D01*
X113238094Y-67954819D02*
X113142856Y-67954819D01*
X113142856Y-67954819D02*
X112999999Y-68002438D01*
X112999999Y-68002438D02*
X112952380Y-68050057D01*
X112380951Y-68954819D02*
X112476189Y-68907200D01*
X112476189Y-68907200D02*
X112523808Y-68859580D01*
X112523808Y-68859580D02*
X112571427Y-68764342D01*
X112571427Y-68764342D02*
X112571427Y-68478628D01*
X112571427Y-68478628D02*
X112523808Y-68383390D01*
X112523808Y-68383390D02*
X112476189Y-68335771D01*
X112476189Y-68335771D02*
X112380951Y-68288152D01*
X112380951Y-68288152D02*
X112238094Y-68288152D01*
X112238094Y-68288152D02*
X112142856Y-68335771D01*
X112142856Y-68335771D02*
X112095237Y-68383390D01*
X112095237Y-68383390D02*
X112047618Y-68478628D01*
X112047618Y-68478628D02*
X112047618Y-68764342D01*
X112047618Y-68764342D02*
X112095237Y-68859580D01*
X112095237Y-68859580D02*
X112142856Y-68907200D01*
X112142856Y-68907200D02*
X112238094Y-68954819D01*
X112238094Y-68954819D02*
X112380951Y-68954819D01*
X111619046Y-68288152D02*
X111619046Y-68954819D01*
X111619046Y-68383390D02*
X111571427Y-68335771D01*
X111571427Y-68335771D02*
X111476189Y-68288152D01*
X111476189Y-68288152D02*
X111333332Y-68288152D01*
X111333332Y-68288152D02*
X111238094Y-68335771D01*
X111238094Y-68335771D02*
X111190475Y-68431009D01*
X111190475Y-68431009D02*
X111190475Y-68954819D01*
X110857141Y-68288152D02*
X110476189Y-68288152D01*
X110714284Y-67954819D02*
X110714284Y-68811961D01*
X110714284Y-68811961D02*
X110666665Y-68907200D01*
X110666665Y-68907200D02*
X110571427Y-68954819D01*
X110571427Y-68954819D02*
X110476189Y-68954819D01*
X110142855Y-68954819D02*
X110142855Y-68288152D01*
X110142855Y-68478628D02*
X110095236Y-68383390D01*
X110095236Y-68383390D02*
X110047617Y-68335771D01*
X110047617Y-68335771D02*
X109952379Y-68288152D01*
X109952379Y-68288152D02*
X109857141Y-68288152D01*
X109380950Y-68954819D02*
X109476188Y-68907200D01*
X109476188Y-68907200D02*
X109523807Y-68859580D01*
X109523807Y-68859580D02*
X109571426Y-68764342D01*
X109571426Y-68764342D02*
X109571426Y-68478628D01*
X109571426Y-68478628D02*
X109523807Y-68383390D01*
X109523807Y-68383390D02*
X109476188Y-68335771D01*
X109476188Y-68335771D02*
X109380950Y-68288152D01*
X109380950Y-68288152D02*
X109238093Y-68288152D01*
X109238093Y-68288152D02*
X109142855Y-68335771D01*
X109142855Y-68335771D02*
X109095236Y-68383390D01*
X109095236Y-68383390D02*
X109047617Y-68478628D01*
X109047617Y-68478628D02*
X109047617Y-68764342D01*
X109047617Y-68764342D02*
X109095236Y-68859580D01*
X109095236Y-68859580D02*
X109142855Y-68907200D01*
X109142855Y-68907200D02*
X109238093Y-68954819D01*
X109238093Y-68954819D02*
X109380950Y-68954819D01*
X108476188Y-68954819D02*
X108571426Y-68907200D01*
X108571426Y-68907200D02*
X108619045Y-68811961D01*
X108619045Y-68811961D02*
X108619045Y-67954819D01*
X108142854Y-68907200D02*
X108047616Y-68954819D01*
X108047616Y-68954819D02*
X107857140Y-68954819D01*
X107857140Y-68954819D02*
X107761902Y-68907200D01*
X107761902Y-68907200D02*
X107714283Y-68811961D01*
X107714283Y-68811961D02*
X107714283Y-68764342D01*
X107714283Y-68764342D02*
X107761902Y-68669104D01*
X107761902Y-68669104D02*
X107857140Y-68621485D01*
X107857140Y-68621485D02*
X107999997Y-68621485D01*
X107999997Y-68621485D02*
X108095235Y-68573866D01*
X108095235Y-68573866D02*
X108142854Y-68478628D01*
X108142854Y-68478628D02*
X108142854Y-68431009D01*
X108142854Y-68431009D02*
X108095235Y-68335771D01*
X108095235Y-68335771D02*
X107999997Y-68288152D01*
X107999997Y-68288152D02*
X107857140Y-68288152D01*
X107857140Y-68288152D02*
X107761902Y-68335771D01*
D12*
X124014285Y-67202925D02*
X123442857Y-67202925D01*
X124128571Y-67545782D02*
X123728571Y-66345782D01*
X123728571Y-66345782D02*
X123328571Y-67545782D01*
X123042857Y-66345782D02*
X122757143Y-67545782D01*
X122757143Y-67545782D02*
X122528571Y-66688640D01*
X122528571Y-66688640D02*
X122300000Y-67545782D01*
X122300000Y-67545782D02*
X122014286Y-66345782D01*
X121557142Y-67545782D02*
X121557142Y-66345782D01*
X121557142Y-66345782D02*
X121271428Y-66345782D01*
X121271428Y-66345782D02*
X121099999Y-66402925D01*
X121099999Y-66402925D02*
X120985714Y-66517211D01*
X120985714Y-66517211D02*
X120928571Y-66631497D01*
X120928571Y-66631497D02*
X120871428Y-66860068D01*
X120871428Y-66860068D02*
X120871428Y-67031497D01*
X120871428Y-67031497D02*
X120928571Y-67260068D01*
X120928571Y-67260068D02*
X120985714Y-67374354D01*
X120985714Y-67374354D02*
X121099999Y-67488640D01*
X121099999Y-67488640D02*
X121271428Y-67545782D01*
X121271428Y-67545782D02*
X121557142Y-67545782D01*
X119442856Y-66745782D02*
X119442856Y-67545782D01*
X119442856Y-66860068D02*
X119385713Y-66802925D01*
X119385713Y-66802925D02*
X119271428Y-66745782D01*
X119271428Y-66745782D02*
X119099999Y-66745782D01*
X119099999Y-66745782D02*
X118985713Y-66802925D01*
X118985713Y-66802925D02*
X118928571Y-66917211D01*
X118928571Y-66917211D02*
X118928571Y-67545782D01*
X118185714Y-67545782D02*
X118299999Y-67488640D01*
X118299999Y-67488640D02*
X118357142Y-67431497D01*
X118357142Y-67431497D02*
X118414285Y-67317211D01*
X118414285Y-67317211D02*
X118414285Y-66974354D01*
X118414285Y-66974354D02*
X118357142Y-66860068D01*
X118357142Y-66860068D02*
X118299999Y-66802925D01*
X118299999Y-66802925D02*
X118185714Y-66745782D01*
X118185714Y-66745782D02*
X118014285Y-66745782D01*
X118014285Y-66745782D02*
X117899999Y-66802925D01*
X117899999Y-66802925D02*
X117842857Y-66860068D01*
X117842857Y-66860068D02*
X117785714Y-66974354D01*
X117785714Y-66974354D02*
X117785714Y-67317211D01*
X117785714Y-67317211D02*
X117842857Y-67431497D01*
X117842857Y-67431497D02*
X117899999Y-67488640D01*
X117899999Y-67488640D02*
X118014285Y-67545782D01*
X118014285Y-67545782D02*
X118185714Y-67545782D01*
X116757143Y-67545782D02*
X116757143Y-66345782D01*
X116757143Y-67488640D02*
X116871428Y-67545782D01*
X116871428Y-67545782D02*
X117100000Y-67545782D01*
X117100000Y-67545782D02*
X117214285Y-67488640D01*
X117214285Y-67488640D02*
X117271428Y-67431497D01*
X117271428Y-67431497D02*
X117328571Y-67317211D01*
X117328571Y-67317211D02*
X117328571Y-66974354D01*
X117328571Y-66974354D02*
X117271428Y-66860068D01*
X117271428Y-66860068D02*
X117214285Y-66802925D01*
X117214285Y-66802925D02*
X117100000Y-66745782D01*
X117100000Y-66745782D02*
X116871428Y-66745782D01*
X116871428Y-66745782D02*
X116757143Y-66802925D01*
X115728571Y-67488640D02*
X115842857Y-67545782D01*
X115842857Y-67545782D02*
X116071429Y-67545782D01*
X116071429Y-67545782D02*
X116185714Y-67488640D01*
X116185714Y-67488640D02*
X116242857Y-67374354D01*
X116242857Y-67374354D02*
X116242857Y-66917211D01*
X116242857Y-66917211D02*
X116185714Y-66802925D01*
X116185714Y-66802925D02*
X116071429Y-66745782D01*
X116071429Y-66745782D02*
X115842857Y-66745782D01*
X115842857Y-66745782D02*
X115728571Y-66802925D01*
X115728571Y-66802925D02*
X115671429Y-66917211D01*
X115671429Y-66917211D02*
X115671429Y-67031497D01*
X115671429Y-67031497D02*
X116242857Y-67145782D01*
X114357143Y-66745782D02*
X114071429Y-67545782D01*
X114071429Y-67545782D02*
X113785714Y-66745782D01*
X113100000Y-66345782D02*
X112985714Y-66345782D01*
X112985714Y-66345782D02*
X112871428Y-66402925D01*
X112871428Y-66402925D02*
X112814286Y-66460068D01*
X112814286Y-66460068D02*
X112757143Y-66574354D01*
X112757143Y-66574354D02*
X112700000Y-66802925D01*
X112700000Y-66802925D02*
X112700000Y-67088640D01*
X112700000Y-67088640D02*
X112757143Y-67317211D01*
X112757143Y-67317211D02*
X112814286Y-67431497D01*
X112814286Y-67431497D02*
X112871428Y-67488640D01*
X112871428Y-67488640D02*
X112985714Y-67545782D01*
X112985714Y-67545782D02*
X113100000Y-67545782D01*
X113100000Y-67545782D02*
X113214286Y-67488640D01*
X113214286Y-67488640D02*
X113271428Y-67431497D01*
X113271428Y-67431497D02*
X113328571Y-67317211D01*
X113328571Y-67317211D02*
X113385714Y-67088640D01*
X113385714Y-67088640D02*
X113385714Y-66802925D01*
X113385714Y-66802925D02*
X113328571Y-66574354D01*
X113328571Y-66574354D02*
X113271428Y-66460068D01*
X113271428Y-66460068D02*
X113214286Y-66402925D01*
X113214286Y-66402925D02*
X113100000Y-66345782D01*
X112185714Y-67431497D02*
X112128571Y-67488640D01*
X112128571Y-67488640D02*
X112185714Y-67545782D01*
X112185714Y-67545782D02*
X112242857Y-67488640D01*
X112242857Y-67488640D02*
X112185714Y-67431497D01*
X112185714Y-67431497D02*
X112185714Y-67545782D01*
X110985714Y-67545782D02*
X111671428Y-67545782D01*
X111328571Y-67545782D02*
X111328571Y-66345782D01*
X111328571Y-66345782D02*
X111442857Y-66517211D01*
X111442857Y-66517211D02*
X111557142Y-66631497D01*
X111557142Y-66631497D02*
X111671428Y-66688640D01*
D10*
X117833333Y-63654819D02*
X117833333Y-64369104D01*
X117833333Y-64369104D02*
X117880952Y-64511961D01*
X117880952Y-64511961D02*
X117976190Y-64607200D01*
X117976190Y-64607200D02*
X118119047Y-64654819D01*
X118119047Y-64654819D02*
X118214285Y-64654819D01*
X117452380Y-63654819D02*
X116833333Y-63654819D01*
X116833333Y-63654819D02*
X117166666Y-64035771D01*
X117166666Y-64035771D02*
X117023809Y-64035771D01*
X117023809Y-64035771D02*
X116928571Y-64083390D01*
X116928571Y-64083390D02*
X116880952Y-64131009D01*
X116880952Y-64131009D02*
X116833333Y-64226247D01*
X116833333Y-64226247D02*
X116833333Y-64464342D01*
X116833333Y-64464342D02*
X116880952Y-64559580D01*
X116880952Y-64559580D02*
X116928571Y-64607200D01*
X116928571Y-64607200D02*
X117023809Y-64654819D01*
X117023809Y-64654819D02*
X117309523Y-64654819D01*
X117309523Y-64654819D02*
X117404761Y-64607200D01*
X117404761Y-64607200D02*
X117452380Y-64559580D01*
D13*
%TO.C,J3*%
X113440000Y-66690000D02*
X114460000Y-66690000D01*
X113440000Y-70940000D02*
X113440000Y-66690000D01*
X114460000Y-66690000D02*
X114460000Y-68290000D01*
X114460000Y-68290000D02*
X115740000Y-68290000D01*
X119260000Y-68290000D02*
X119260000Y-65400000D01*
X119840000Y-74510000D02*
X115160000Y-74510000D01*
X120540000Y-66690000D02*
X120540000Y-68290000D01*
X120540000Y-68290000D02*
X119260000Y-68290000D01*
X121560000Y-66690000D02*
X120540000Y-66690000D01*
X121560000Y-70940000D02*
X121560000Y-66690000D01*
%TD*%
%LPC*%
D14*
%TO.C,J2*%
X131500000Y-48000000D03*
D15*
X131500000Y-49270000D03*
X131500000Y-50540000D03*
X131500000Y-51810000D03*
X131500000Y-53080000D03*
X131500000Y-54350000D03*
X131500000Y-55620000D03*
X131500000Y-56890000D03*
%TD*%
D16*
%TO.C,J1*%
X98600000Y-69250000D03*
X98600000Y-60750000D03*
%TD*%
D17*
%TO.C,J3*%
X118500000Y-67150000D03*
X116500000Y-67150000D03*
D18*
X120850000Y-72900000D03*
X114150000Y-72900000D03*
%TD*%
%LPD*%
M02*
