%TF.GenerationSoftware,KiCad,Pcbnew,9.0.7*%
%TF.CreationDate,2026-10-06T21:24:05+05:30*%
%TF.ProjectId,AWD-FieldNode,4157442d-4669-4656-9c64-4e6f64652e6b,rev?*%
%TF.SameCoordinates,Original*%
%TF.FileFunction,Copper,L3,Inr*%
%TF.FilePolarity,Positive*%
%FSLAX46Y46*%
G04 Gerber Fmt 4.6, Leading zero omitted, Abs format (unit mm)*
G04 Created by KiCad (PCBNEW 9.0.7) date 2026-10-06 21:24:05*
%MOMM*%
%LPD*%
G01*
G04 APERTURE LIST*
%TA.AperFunction,ComponentPad*%
%ADD10R,1.000000X1.000000*%
%TD*%
%TA.AperFunction,ComponentPad*%
%ADD11C,1.000000*%
%TD*%
%TA.AperFunction,ViaPad*%
%ADD12C,0.800000*%
%TD*%
%TA.AperFunction,ViaPad*%
%ADD13C,0.600000*%
%TD*%
%TA.AperFunction,Conductor*%
%ADD14C,0.500000*%
%TD*%
%TA.AperFunction,Conductor*%
%ADD15C,0.250000*%
%TD*%
%TA.AperFunction,Conductor*%
%ADD16C,0.150000*%
%TD*%
G04 APERTURE END LIST*
D10*
%TO.N,+3V3*%
%TO.C,J2*%
X131500000Y-48000000D03*
D11*
%TO.N,GND*%
X131500000Y-49270000D03*
%TO.N,/EN*%
X131500000Y-50540000D03*
%TO.N,/BOOT*%
X131500000Y-51810000D03*
%TO.N,/USB_DN*%
X131500000Y-53080000D03*
%TO.N,/USB_DP*%
X131500000Y-54350000D03*
%TO.N,/TXD0*%
X131500000Y-55620000D03*
%TO.N,/RXD0*%
X131500000Y-56890000D03*
%TD*%
D12*
%TO.N,/VBAT_RAW*%
X101596300Y-89000000D03*
X118691900Y-82734700D03*
D13*
%TO.N,GND*%
X108500000Y-96500000D03*
X106500000Y-56000000D03*
X136000000Y-95500000D03*
X98500000Y-96000000D03*
X126000000Y-62000000D03*
X132500000Y-92000000D03*
X125500000Y-80500000D03*
X119500000Y-80500000D03*
X104000000Y-58500000D03*
X128000000Y-97500000D03*
X114000000Y-64000000D03*
X134500000Y-58500000D03*
X102000000Y-51000000D03*
X98500000Y-76000000D03*
X125500000Y-83000000D03*
X98500000Y-51000000D03*
X98500000Y-91000000D03*
X114000000Y-66500000D03*
X98500000Y-88500000D03*
X117500000Y-52800000D03*
X120000000Y-94000000D03*
X123000000Y-90500000D03*
X114000000Y-61500000D03*
X101500000Y-66500000D03*
X119500000Y-72000000D03*
X102500000Y-81500000D03*
X103500000Y-53000000D03*
X134500000Y-81000000D03*
X135000000Y-76000000D03*
X133000000Y-87000000D03*
X115500000Y-80000000D03*
X123000000Y-80500000D03*
X132000000Y-80000000D03*
X121500000Y-76000000D03*
X136000000Y-67500000D03*
X121500000Y-82500000D03*
X115000000Y-98000000D03*
X104500000Y-83000000D03*
X132500000Y-75000000D03*
X104000000Y-55500000D03*
X98500000Y-81000000D03*
X131000000Y-72000000D03*
X120000000Y-67000000D03*
X110500000Y-98000000D03*
X102500000Y-76500000D03*
X133000000Y-83000000D03*
X117500000Y-54450000D03*
X131000000Y-58000000D03*
X104500000Y-90000000D03*
X103000000Y-85000000D03*
X127500000Y-73500000D03*
X106500000Y-58500000D03*
X114500000Y-75500000D03*
X117000000Y-72000000D03*
X127500000Y-95000000D03*
X116500000Y-63000000D03*
X120500000Y-86000000D03*
X117500000Y-390000000D03*
X119500000Y-74500000D03*
X127500000Y-76000000D03*
X98500000Y-86000000D03*
X128000000Y-86500000D03*
X132000000Y-68000000D03*
X98500000Y-46000000D03*
X115850000Y-52800000D03*
X106500000Y-76500000D03*
X126500000Y-53000000D03*
X136000000Y-91000000D03*
X124500000Y-45800000D03*
X98500000Y-58500000D03*
X117000000Y-82000000D03*
X108500000Y-90000000D03*
X106500000Y-88500000D03*
X136000000Y-48000000D03*
X123500000Y-84500000D03*
X122500000Y-73500000D03*
X134000000Y-69500000D03*
X120000000Y-88500000D03*
X134500000Y-50500000D03*
X114500000Y-69000000D03*
X134500000Y-93500000D03*
X115000000Y-89000000D03*
X118500000Y-84000000D03*
X98500000Y-62000000D03*
X110500000Y-45800000D03*
X132500000Y-64000000D03*
X108000000Y-82000000D03*
X136000000Y-63500000D03*
X106000000Y-53500000D03*
X117000000Y-74500000D03*
X121000000Y-78500000D03*
X112000000Y-94000000D03*
X130000000Y-96000000D03*
X123500000Y-77500000D03*
X136000000Y-73500000D03*
X130500000Y-82000000D03*
X117500000Y-51150000D03*
X113500000Y-87000000D03*
X129000000Y-84000000D03*
X105500000Y-51000000D03*
X98500000Y-66500000D03*
X134500000Y-89000000D03*
X134500000Y-54500000D03*
X102000000Y-57000000D03*
X129000000Y-60000000D03*
X119150000Y-52800000D03*
X98500000Y-93500000D03*
X130000000Y-74500000D03*
X124000000Y-64500000D03*
X101000000Y-79500000D03*
X134000000Y-62000000D03*
X136000000Y-56500000D03*
X122500000Y-71000000D03*
X136000000Y-98500000D03*
X130000000Y-88000000D03*
X102500000Y-93000000D03*
X135000000Y-78500000D03*
X115000000Y-94000000D03*
X106000000Y-85000000D03*
X100500000Y-74500000D03*
X132500000Y-60000000D03*
X121500000Y-96000000D03*
X127000000Y-78500000D03*
X119150000Y-51150000D03*
X98500000Y-56000000D03*
X101500000Y-54500000D03*
X131500000Y-85000000D03*
X130000000Y-77000000D03*
X104000000Y-97000000D03*
X117500000Y-378000000D03*
X101000000Y-83500000D03*
X106000000Y-80000000D03*
X136000000Y-52500000D03*
X104000000Y-78500000D03*
X98500000Y-78500000D03*
X119500000Y-69500000D03*
X104500000Y-87000000D03*
X105500000Y-68500000D03*
X128000000Y-55000000D03*
X102500000Y-64000000D03*
X102000000Y-95500000D03*
X106500000Y-98000000D03*
X132000000Y-89500000D03*
X113500000Y-78500000D03*
X108500000Y-51000000D03*
X134000000Y-97000000D03*
X122000000Y-63000000D03*
X107000000Y-94500000D03*
X108000000Y-86500000D03*
X98500000Y-48500000D03*
X132000000Y-46000000D03*
X134500000Y-65500000D03*
X129500000Y-46000000D03*
X131500000Y-98000000D03*
X104500000Y-75000000D03*
X133500000Y-72500000D03*
X112000000Y-89000000D03*
X104000000Y-66500000D03*
X107000000Y-46000000D03*
X106500000Y-66000000D03*
X132500000Y-77500000D03*
X115850000Y-51150000D03*
X106000000Y-92000000D03*
X100500000Y-97500000D03*
X130000000Y-91000000D03*
X104500000Y-94500000D03*
X128500000Y-71000000D03*
X120000000Y-61500000D03*
X105000000Y-64000000D03*
X128000000Y-92500000D03*
X103000000Y-71000000D03*
X130500000Y-93500000D03*
X136000000Y-60500000D03*
X133000000Y-52500000D03*
X98500000Y-73000000D03*
X117500000Y-384000000D03*
X112000000Y-85000000D03*
X133000000Y-48500000D03*
X122000000Y-68500000D03*
X115850000Y-54450000D03*
X98500000Y-53500000D03*
X98500000Y-83500000D03*
X136000000Y-71000000D03*
X105500000Y-71000000D03*
X101500000Y-69000000D03*
X109500000Y-84000000D03*
X129500000Y-79500000D03*
X125500000Y-97000000D03*
X124500000Y-59800000D03*
X136000000Y-87000000D03*
X101000000Y-46000000D03*
X136000000Y-83000000D03*
X101000000Y-86500000D03*
X113500000Y-96000000D03*
X134500000Y-46000000D03*
X116500000Y-77000000D03*
X98500000Y-70500000D03*
X120000000Y-98000000D03*
X133000000Y-56500000D03*
X125500000Y-86000000D03*
X123000000Y-94000000D03*
X131000000Y-62000000D03*
X128000000Y-81500000D03*
X117000000Y-69500000D03*
X109000000Y-55000000D03*
X101000000Y-59500000D03*
X134500000Y-85000000D03*
X111500000Y-76500000D03*
X132500000Y-95000000D03*
X128000000Y-89500000D03*
D12*
%TO.N,+3V3*%
X107800000Y-49371000D03*
D13*
X129000000Y-68200000D03*
X107400000Y-68000000D03*
D12*
X125629500Y-46134100D03*
D13*
%TO.N,/BOOT*%
X109553200Y-49439400D03*
X100600000Y-49414400D03*
%TO.N,/T14_SPARE*%
X135753100Y-91971700D03*
X113250000Y-70177500D03*
%TO.N,/VBAT_ADC*%
X114100000Y-57180100D03*
X129000000Y-64243700D03*
%TO.N,/VBAT_EN*%
X129062500Y-69245600D03*
X114950000Y-58878200D03*
%TO.N,/LORA_BUSY*%
X123995000Y-71630300D03*
X116650000Y-62047500D03*
%TO.N,/USB_DN*%
X117400300Y-56586400D03*
%TO.N,/USB_DP*%
X118350000Y-57537100D03*
%TO.N,/LORA_RST*%
X119527400Y-66059200D03*
X112078000Y-70392700D03*
%TO.N,/LORA_NSS*%
X123594400Y-55133500D03*
X127022100Y-59497400D03*
%TO.N,/LORA_SCK*%
X127613400Y-68613400D03*
X125445300Y-54500000D03*
%TO.N,/LORA_MISO*%
X123976300Y-65789900D03*
X125420000Y-52712500D03*
%TO.N,/TXD0*%
X123573200Y-51950000D03*
%TO.N,/RXD0*%
X125445900Y-51579600D03*
%TO.N,/T1*%
X109597700Y-50250100D03*
X125500000Y-87859600D03*
%TO.N,/T2*%
X123900000Y-87080600D03*
X109594900Y-51813500D03*
%TO.N,/T3*%
X112534700Y-55355600D03*
X122300000Y-88986500D03*
%TO.N,/T4*%
X120700000Y-90124600D03*
X108123600Y-63899100D03*
%TO.N,/T5*%
X111402100Y-53424600D03*
X119100000Y-88249100D03*
%TO.N,/T6*%
X117500000Y-85298600D03*
X111406400Y-55036500D03*
%TO.N,/T7*%
X115900000Y-87687500D03*
X109512900Y-56035000D03*
%TO.N,/T8*%
X112167400Y-56582200D03*
X114300000Y-78163300D03*
%TO.N,/T9*%
X112700000Y-74030000D03*
X112085800Y-58883900D03*
%TO.N,/T10*%
X108632300Y-60135500D03*
X111100000Y-83908900D03*
%TO.N,/T11*%
X108822000Y-59333700D03*
X109500000Y-86861800D03*
%TO.N,/T12*%
X107141900Y-73699000D03*
X108925800Y-61824000D03*
%TO.N,/T13*%
X112654700Y-71502800D03*
X127100000Y-85948100D03*
%TO.N,/DIV_LO*%
X131000000Y-64243700D03*
X129690200Y-71000000D03*
%TO.N,/P1*%
X120500000Y-135000000D03*
X125500000Y-93500000D03*
%TO.N,/P2*%
X123900000Y-93500000D03*
X119900000Y-155000000D03*
%TO.N,/P3*%
X122300000Y-93500000D03*
X119300000Y-175000000D03*
%TO.N,/P4*%
X120700000Y-93500000D03*
X118700000Y-195000000D03*
%TO.N,/P5*%
X118100000Y-215000000D03*
X119100000Y-93500000D03*
%TO.N,/P6*%
X117500000Y-93500000D03*
X117500000Y-235000000D03*
%TO.N,/P7*%
X115900000Y-93500000D03*
X116900000Y-255000000D03*
%TO.N,/P8*%
X116300000Y-275000000D03*
X114300000Y-93500000D03*
%TO.N,/P9*%
X112700000Y-93500000D03*
X115700000Y-295000000D03*
%TO.N,/P10*%
X111100000Y-93500000D03*
X115100000Y-315000000D03*
%TO.N,/P11*%
X109500000Y-93500000D03*
X114500000Y-335000000D03*
%TO.N,/P12*%
X107900000Y-93500000D03*
X113900000Y-355000000D03*
%TO.N,/REF*%
X127100000Y-93500000D03*
X121100000Y-116000000D03*
%TD*%
D14*
%TO.N,/VBAT_RAW*%
X101596300Y-89000000D02*
X103476000Y-90879700D01*
X123099600Y-87142400D02*
X118691900Y-82734700D01*
X103476000Y-90879700D02*
X121471600Y-90879700D01*
X121471600Y-90879700D02*
X123099600Y-89251700D01*
X123099600Y-89251700D02*
X123099600Y-87142400D01*
%TO.N,+3V3*%
X109171000Y-48000000D02*
X131500000Y-48000000D01*
X125629500Y-46134100D02*
X127495400Y-48000000D01*
X107800000Y-49371000D02*
X109171000Y-48000000D01*
D15*
%TO.N,/BOOT*%
X108842400Y-49439400D02*
X108171200Y-50110600D01*
X131500000Y-51810000D02*
X129129400Y-49439400D01*
X129129400Y-49439400D02*
X109553200Y-49439400D01*
X109553200Y-49439400D02*
X108842400Y-49439400D01*
X101296200Y-50110600D02*
X100600000Y-49414400D01*
X108171200Y-50110600D02*
X101296200Y-50110600D01*
%TO.N,/T14_SPARE*%
X113958900Y-70177500D02*
X135753100Y-91971700D01*
X113250000Y-70177500D02*
X113958900Y-70177500D01*
%TO.N,/VBAT_ADC*%
X114100000Y-57180100D02*
X114458000Y-57180100D01*
X123706300Y-66428400D02*
X126815300Y-66428400D01*
X126815300Y-66428400D02*
X129000000Y-64243700D01*
X114458000Y-57180100D02*
X123706300Y-66428400D01*
%TO.N,/VBAT_EN*%
X129062500Y-69245600D02*
X125317400Y-69245600D01*
X125317400Y-69245600D02*
X114950000Y-58878200D01*
%TO.N,/LORA_BUSY*%
X123995000Y-69392500D02*
X116650000Y-62047500D01*
X123995000Y-71630300D02*
X123995000Y-69392500D01*
%TO.N,/USB_DN*%
X128469400Y-50049400D02*
X123937300Y-50049400D01*
X131500000Y-53080000D02*
X128469400Y-50049400D01*
X123937300Y-50049400D02*
X117400300Y-56586400D01*
%TO.N,/USB_DP*%
X127651100Y-50501100D02*
X124124400Y-50501100D01*
X122267900Y-53619200D02*
X118350000Y-57537100D01*
X131500000Y-54350000D02*
X127651100Y-50501100D01*
X124124400Y-50501100D02*
X122267900Y-52357600D01*
X122267900Y-52357600D02*
X122267900Y-53619200D01*
%TO.N,/LORA_RST*%
X116411500Y-66059200D02*
X119527400Y-66059200D01*
X112078000Y-70392700D02*
X116411500Y-66059200D01*
%TO.N,/LORA_NSS*%
X123594400Y-55133500D02*
X127022000Y-58561100D01*
X127022000Y-59497400D02*
X127022100Y-59497400D01*
X127022000Y-58561100D02*
X127022000Y-59497400D01*
%TO.N,/LORA_SCK*%
X127613400Y-68613400D02*
X129682500Y-66544300D01*
X129682500Y-58737200D02*
X125445300Y-54500000D01*
X129682500Y-66544300D02*
X129682500Y-58737200D01*
%TO.N,/LORA_MISO*%
X122900800Y-54901700D02*
X122900800Y-64714400D01*
X125420000Y-52712500D02*
X125090000Y-52712500D01*
X125090000Y-52712500D02*
X122900800Y-54901700D01*
X122900800Y-64714400D02*
X123976300Y-65789900D01*
%TO.N,/TXD0*%
X123573200Y-51950000D02*
X124570400Y-50952800D01*
X126832800Y-50952800D02*
X131500000Y-55620000D01*
X124570400Y-50952800D02*
X126832800Y-50952800D01*
%TO.N,/RXD0*%
X126189600Y-51579600D02*
X131500000Y-56890000D01*
X125445900Y-51579600D02*
X126189600Y-51579600D01*
D16*
%TO.N,/T1*%
X113463500Y-56650900D02*
X111509000Y-58605400D01*
X113463500Y-54115900D02*
X113463500Y-56650900D01*
X111266100Y-61578300D02*
X111266100Y-62786500D01*
X111149500Y-73509100D02*
X125500000Y-87859600D01*
X111266100Y-62786500D02*
X111149500Y-62903100D01*
X111509000Y-58605400D02*
X111509000Y-61335400D01*
X111509000Y-61335400D02*
X111266100Y-61578300D01*
X109597700Y-50250100D02*
X113463500Y-54115900D01*
X111149500Y-62903100D02*
X111149500Y-73509100D01*
%TO.N,/T2*%
X123900000Y-86933500D02*
X123900000Y-87080600D01*
X111157300Y-58459700D02*
X111157300Y-61189700D01*
X113111500Y-54312300D02*
X113111500Y-56505500D01*
X110914400Y-62640800D02*
X110797800Y-62757400D01*
X110914400Y-61432600D02*
X110914400Y-62640800D01*
X109594900Y-51813500D02*
X110612700Y-51813500D01*
X111157300Y-61189700D02*
X110914400Y-61432600D01*
X110797800Y-62757400D02*
X110797800Y-73831300D01*
X110612700Y-51813500D02*
X113111500Y-54312300D01*
X113111500Y-56505500D02*
X111157300Y-58459700D01*
X110797800Y-73831300D02*
X123900000Y-86933500D01*
%TO.N,/T3*%
X110447600Y-60904600D02*
X110211000Y-61141200D01*
X110805600Y-57816600D02*
X110453900Y-58168300D01*
X112534700Y-55355600D02*
X110805600Y-57084700D01*
X110094400Y-62466000D02*
X110094400Y-76780900D01*
X110805600Y-57084700D02*
X110805600Y-57816600D01*
X110094400Y-76780900D02*
X122300000Y-88986500D01*
X110453900Y-60629400D02*
X110447600Y-60635700D01*
X110211000Y-61141200D02*
X110211000Y-62349400D01*
X110453900Y-58168300D02*
X110453900Y-60629400D01*
X110211000Y-62349400D02*
X110094400Y-62466000D01*
X110447600Y-60635700D02*
X110447600Y-60904600D01*
%TO.N,/T4*%
X120150100Y-90124600D02*
X108123600Y-78098100D01*
X120700000Y-90124600D02*
X120150100Y-90124600D01*
X108123600Y-78098100D02*
X108123600Y-63899100D01*
%TO.N,/T5*%
X110102200Y-57525200D02*
X109750500Y-57876900D01*
X110102200Y-54724500D02*
X110102200Y-57525200D01*
X109507600Y-60849800D02*
X109507600Y-62058000D01*
X109750500Y-60338000D02*
X109744200Y-60344300D01*
X109391000Y-62174600D02*
X109391000Y-78540100D01*
X109744200Y-60613200D02*
X109507600Y-60849800D01*
X111402100Y-53424600D02*
X110102200Y-54724500D01*
X109744200Y-60344300D02*
X109744200Y-60613200D01*
X109391000Y-78540100D02*
X119100000Y-88249100D01*
X109750500Y-57876900D02*
X109750500Y-60338000D01*
X109507600Y-62058000D02*
X109391000Y-62174600D01*
%TO.N,/T6*%
X110102200Y-58022600D02*
X110102200Y-60483700D01*
X109742700Y-77541300D02*
X117500000Y-85298600D01*
X109859300Y-60995500D02*
X109859300Y-62203700D01*
X109859300Y-62203700D02*
X109742700Y-62320300D01*
X111406400Y-55036500D02*
X110453900Y-55989000D01*
X110453900Y-55989000D02*
X110453900Y-57670900D01*
X110453900Y-57670900D02*
X110102200Y-58022600D01*
X110095900Y-60758900D02*
X109859300Y-60995500D01*
X110095900Y-60490000D02*
X110095900Y-60758900D01*
X109742700Y-62320300D02*
X109742700Y-77541300D01*
X110102200Y-60483700D02*
X110095900Y-60490000D01*
%TO.N,/T7*%
X109512900Y-56035000D02*
X109398800Y-56149100D01*
X100516100Y-72303600D02*
X115900000Y-87687500D01*
X102498900Y-61352200D02*
X100516100Y-63335000D01*
X109398800Y-60128700D02*
X109392500Y-60135000D01*
X109398800Y-56149100D02*
X109398800Y-60128700D01*
X108269200Y-61352200D02*
X102498900Y-61352200D01*
X100516100Y-63335000D02*
X100516100Y-72303600D01*
X109392500Y-60228900D02*
X108269200Y-61352200D01*
X109392500Y-60135000D02*
X109392500Y-60228900D01*
%TO.N,/T8*%
X110562700Y-61286900D02*
X110799300Y-61050300D01*
X114300000Y-78163300D02*
X110446100Y-74309400D01*
X110562700Y-62495100D02*
X110562700Y-61286900D01*
X111157300Y-57962300D02*
X111157300Y-57592300D01*
X110805600Y-58314000D02*
X111157300Y-57962300D01*
X111157300Y-57592300D02*
X112167400Y-56582200D01*
X110799300Y-61050300D02*
X110799300Y-60781400D01*
X110799300Y-60781400D02*
X110805600Y-60775100D01*
X110446100Y-74309400D02*
X110446100Y-62611700D01*
X110805600Y-60775100D02*
X110805600Y-58314000D01*
X110446100Y-62611700D02*
X110562700Y-62495100D01*
%TO.N,/T9*%
X111501200Y-63048800D02*
X112085800Y-62464200D01*
X112700000Y-74030000D02*
X111501200Y-72831200D01*
X112085800Y-62464200D02*
X112085800Y-58883900D01*
X111501200Y-72831200D02*
X111501200Y-63048800D01*
%TO.N,/T10*%
X107767300Y-61000500D02*
X108632300Y-60135500D01*
X102353200Y-61000500D02*
X107767300Y-61000500D01*
X100164400Y-63189300D02*
X102353200Y-61000500D01*
X111100000Y-83908900D02*
X100164400Y-72973300D01*
X100164400Y-72973300D02*
X100164400Y-63189300D01*
%TO.N,/T11*%
X99812700Y-77174500D02*
X99812700Y-63043600D01*
X99812700Y-63043600D02*
X103522600Y-59333700D01*
X109500000Y-86861800D02*
X99812700Y-77174500D01*
X103522600Y-59333700D02*
X108822000Y-59333700D01*
%TO.N,/T12*%
X108836700Y-61734900D02*
X108925800Y-61824000D01*
X107141900Y-73699000D02*
X100867800Y-67424900D01*
X102613600Y-61734900D02*
X108836700Y-61734900D01*
X100867800Y-63480700D02*
X102613600Y-61734900D01*
X100867800Y-67424900D02*
X100867800Y-63480700D01*
%TO.N,/T13*%
X127100000Y-85948100D02*
X112654700Y-71502800D01*
D15*
%TO.N,/DIV_LO*%
X131000000Y-64243700D02*
X131000000Y-69690200D01*
X131000000Y-69690200D02*
X129690200Y-71000000D01*
D16*
%TO.N,/P1*%
X120500000Y-135000000D02*
X120500000Y-100500000D01*
X120500000Y-100500000D02*
X125500000Y-95500000D01*
X125500000Y-95500000D02*
X125500000Y-93500000D01*
%TO.N,/P2*%
X123900000Y-96500000D02*
X123900000Y-93500000D01*
X119900000Y-100500000D02*
X123900000Y-96500000D01*
X119900000Y-155000000D02*
X119900000Y-100500000D01*
%TO.N,/P3*%
X119300000Y-100500000D02*
X122300000Y-97500000D01*
X122300000Y-97500000D02*
X122300000Y-93500000D01*
X119300000Y-175000000D02*
X119300000Y-100500000D01*
%TO.N,/P4*%
X120700000Y-98500000D02*
X120700000Y-93500000D01*
X118700000Y-195000000D02*
X118700000Y-100500000D01*
X118700000Y-100500000D02*
X120700000Y-98500000D01*
%TO.N,/P5*%
X118100000Y-215000000D02*
X118100000Y-100500000D01*
X119100000Y-99500000D02*
X119100000Y-93500000D01*
X118100000Y-100500000D02*
X119100000Y-99500000D01*
%TO.N,/P6*%
X117500000Y-100500000D02*
X117500000Y-93500000D01*
X117500000Y-235000000D02*
X117500000Y-100500000D01*
%TO.N,/P7*%
X115900000Y-99500000D02*
X115900000Y-93500000D01*
X116900000Y-100500000D02*
X115900000Y-99500000D01*
X116900000Y-255000000D02*
X116900000Y-100500000D01*
%TO.N,/P8*%
X116300000Y-275000000D02*
X116300000Y-100500000D01*
X114300000Y-98500000D02*
X114300000Y-93500000D01*
X116300000Y-100500000D02*
X114300000Y-98500000D01*
%TO.N,/P9*%
X112700000Y-97500000D02*
X112700000Y-93500000D01*
X115700000Y-100500000D02*
X112700000Y-97500000D01*
X115700000Y-295000000D02*
X115700000Y-100500000D01*
%TO.N,/P10*%
X115100000Y-100500000D02*
X111100000Y-96500000D01*
X115100000Y-315000000D02*
X115100000Y-100500000D01*
X111100000Y-96500000D02*
X111100000Y-93500000D01*
%TO.N,/P11*%
X114500000Y-335000000D02*
X114500000Y-100500000D01*
X109500000Y-95500000D02*
X109500000Y-93500000D01*
X114500000Y-100500000D02*
X109500000Y-95500000D01*
%TO.N,/P12*%
X113900000Y-100500000D02*
X107900000Y-94500000D01*
X113900000Y-355000000D02*
X113900000Y-100500000D01*
X107900000Y-94500000D02*
X107900000Y-93500000D01*
%TO.N,/REF*%
X121100000Y-100500000D02*
X127100000Y-94500000D01*
X127100000Y-94500000D02*
X127100000Y-93500000D01*
X121100000Y-116000000D02*
X121100000Y-100500000D01*
%TD*%
%TA.AperFunction,Conductor*%
%TO.N,GND*%
G36*
X122145445Y-100082334D02*
G01*
X122188710Y-100125599D01*
X122199500Y-100170544D01*
X122199500Y-394997784D01*
X122199400Y-395002226D01*
X122180780Y-395416815D01*
X122179984Y-395425662D01*
X122124574Y-395834719D01*
X122122988Y-395843460D01*
X122031132Y-396245903D01*
X122028769Y-396254465D01*
X121901208Y-396647062D01*
X121898086Y-396655380D01*
X121735850Y-397034948D01*
X121731996Y-397042951D01*
X121536388Y-397406452D01*
X121531832Y-397414078D01*
X121304422Y-397758588D01*
X121299200Y-397765774D01*
X121041830Y-398088506D01*
X121035986Y-398095196D01*
X120750721Y-398393560D01*
X120744300Y-398399699D01*
X120433441Y-398671288D01*
X120426496Y-398676827D01*
X120092529Y-398919468D01*
X120085115Y-398924361D01*
X119730765Y-399136077D01*
X119722942Y-399140287D01*
X119351025Y-399319392D01*
X119342857Y-399322883D01*
X118956388Y-399467927D01*
X118947940Y-399470672D01*
X118550025Y-399580490D01*
X118541364Y-399582467D01*
X118135198Y-399656174D01*
X118126396Y-399657366D01*
X117743478Y-399691830D01*
X117715274Y-399694369D01*
X117706401Y-399694768D01*
X117293599Y-399694768D01*
X117284725Y-399694369D01*
X117253890Y-399691593D01*
X116873603Y-399657366D01*
X116864801Y-399656174D01*
X116458635Y-399582467D01*
X116449974Y-399580490D01*
X116052059Y-399470672D01*
X116043611Y-399467927D01*
X115657142Y-399322883D01*
X115648974Y-399319392D01*
X115450677Y-399223898D01*
X115277052Y-399140284D01*
X115269239Y-399136080D01*
X115155365Y-399068043D01*
X114914884Y-398924361D01*
X114907470Y-398919468D01*
X114573503Y-398676827D01*
X114566558Y-398671288D01*
X114255699Y-398399699D01*
X114249278Y-398393560D01*
X113964013Y-398095196D01*
X113958169Y-398088506D01*
X113700799Y-397765774D01*
X113695577Y-397758588D01*
X113623914Y-397650024D01*
X113468160Y-397414067D01*
X113463617Y-397406462D01*
X113268001Y-397042947D01*
X113264149Y-397034948D01*
X113101906Y-396655363D01*
X113098795Y-396647072D01*
X112971230Y-396254465D01*
X112968867Y-396245903D01*
X112939608Y-396117713D01*
X112877008Y-395843443D01*
X112875428Y-395834735D01*
X112820014Y-395425655D01*
X112819219Y-395416815D01*
X112800600Y-395002226D01*
X112800500Y-394997784D01*
X112800500Y-100170544D01*
X112819407Y-100112353D01*
X112868907Y-100076389D01*
X112930093Y-100076389D01*
X112969501Y-100100538D01*
X113495503Y-100626540D01*
X113495504Y-100626541D01*
X113523281Y-100681058D01*
X113524500Y-100696545D01*
X113524500Y-354485256D01*
X113505593Y-354543447D01*
X113495504Y-354555259D01*
X113419482Y-354631281D01*
X113419480Y-354631283D01*
X113419480Y-354631284D01*
X113340423Y-354768216D01*
X113299500Y-354920943D01*
X113299500Y-355079057D01*
X113340423Y-355231784D01*
X113419480Y-355368716D01*
X113531284Y-355480520D01*
X113668216Y-355559577D01*
X113820943Y-355600500D01*
X113820945Y-355600500D01*
X113979055Y-355600500D01*
X113979057Y-355600500D01*
X114131784Y-355559577D01*
X114268716Y-355480520D01*
X114380520Y-355368716D01*
X114459577Y-355231784D01*
X114500500Y-355079057D01*
X114500500Y-354920943D01*
X114459577Y-354768216D01*
X114380520Y-354631284D01*
X114380517Y-354631281D01*
X114304496Y-354555259D01*
X114276719Y-354500742D01*
X114275500Y-354485256D01*
X114275500Y-335690547D01*
X114294407Y-335632356D01*
X114343907Y-335596392D01*
X114400122Y-335594921D01*
X114420943Y-335600500D01*
X114420945Y-335600500D01*
X114579055Y-335600500D01*
X114579057Y-335600500D01*
X114731784Y-335559577D01*
X114868716Y-335480520D01*
X114980520Y-335368716D01*
X115059577Y-335231784D01*
X115100500Y-335079057D01*
X115100500Y-334920943D01*
X115059577Y-334768216D01*
X114980520Y-334631284D01*
X114980517Y-334631281D01*
X114904496Y-334555259D01*
X114876719Y-334500742D01*
X114875500Y-334485256D01*
X114875500Y-315690547D01*
X114894407Y-315632356D01*
X114943907Y-315596392D01*
X115000122Y-315594921D01*
X115020943Y-315600500D01*
X115020945Y-315600500D01*
X115179055Y-315600500D01*
X115179057Y-315600500D01*
X115331784Y-315559577D01*
X115468716Y-315480520D01*
X115580520Y-315368716D01*
X115659577Y-315231784D01*
X115700500Y-315079057D01*
X115700500Y-314920943D01*
X115659577Y-314768216D01*
X115580520Y-314631284D01*
X115580517Y-314631281D01*
X115504496Y-314555259D01*
X115476719Y-314500742D01*
X115475500Y-314485256D01*
X115475500Y-295690547D01*
X115494407Y-295632356D01*
X115543907Y-295596392D01*
X115600122Y-295594921D01*
X115620943Y-295600500D01*
X115620945Y-295600500D01*
X115779055Y-295600500D01*
X115779057Y-295600500D01*
X115931784Y-295559577D01*
X116068716Y-295480520D01*
X116180520Y-295368716D01*
X116259577Y-295231784D01*
X116300500Y-295079057D01*
X116300500Y-294920943D01*
X116259577Y-294768216D01*
X116180520Y-294631284D01*
X116180517Y-294631281D01*
X116104496Y-294555259D01*
X116076719Y-294500742D01*
X116075500Y-294485256D01*
X116075500Y-275690547D01*
X116094407Y-275632356D01*
X116143907Y-275596392D01*
X116200122Y-275594921D01*
X116220943Y-275600500D01*
X116220945Y-275600500D01*
X116379055Y-275600500D01*
X116379057Y-275600500D01*
X116531784Y-275559577D01*
X116668716Y-275480520D01*
X116780520Y-275368716D01*
X116859577Y-275231784D01*
X116900500Y-275079057D01*
X116900500Y-274920943D01*
X116859577Y-274768216D01*
X116780520Y-274631284D01*
X116780517Y-274631281D01*
X116704496Y-274555259D01*
X116676719Y-274500742D01*
X116675500Y-274485256D01*
X116675500Y-255690547D01*
X116694407Y-255632356D01*
X116743907Y-255596392D01*
X116800122Y-255594921D01*
X116820943Y-255600500D01*
X116820945Y-255600500D01*
X116979055Y-255600500D01*
X116979057Y-255600500D01*
X117131784Y-255559577D01*
X117268716Y-255480520D01*
X117380520Y-255368716D01*
X117459577Y-255231784D01*
X117500500Y-255079057D01*
X117500500Y-254920943D01*
X117459577Y-254768216D01*
X117380520Y-254631284D01*
X117380517Y-254631281D01*
X117304496Y-254555259D01*
X117276719Y-254500742D01*
X117275500Y-254485256D01*
X117275500Y-235690547D01*
X117294407Y-235632356D01*
X117343907Y-235596392D01*
X117400122Y-235594921D01*
X117420943Y-235600500D01*
X117420945Y-235600500D01*
X117579055Y-235600500D01*
X117579057Y-235600500D01*
X117731784Y-235559577D01*
X117868716Y-235480520D01*
X117980520Y-235368716D01*
X118059577Y-235231784D01*
X118100500Y-235079057D01*
X118100500Y-234920943D01*
X118059577Y-234768216D01*
X117980520Y-234631284D01*
X117980517Y-234631281D01*
X117904496Y-234555259D01*
X117876719Y-234500742D01*
X117875500Y-234485256D01*
X117875500Y-215690547D01*
X117894407Y-215632356D01*
X117943907Y-215596392D01*
X118000122Y-215594921D01*
X118020943Y-215600500D01*
X118020945Y-215600500D01*
X118179055Y-215600500D01*
X118179057Y-215600500D01*
X118331784Y-215559577D01*
X118468716Y-215480520D01*
X118580520Y-215368716D01*
X118659577Y-215231784D01*
X118700500Y-215079057D01*
X118700500Y-214920943D01*
X118659577Y-214768216D01*
X118580520Y-214631284D01*
X118580517Y-214631281D01*
X118504496Y-214555259D01*
X118476719Y-214500742D01*
X118475500Y-214485256D01*
X118475500Y-195690547D01*
X118494407Y-195632356D01*
X118543907Y-195596392D01*
X118600122Y-195594921D01*
X118620943Y-195600500D01*
X118620945Y-195600500D01*
X118779055Y-195600500D01*
X118779057Y-195600500D01*
X118931784Y-195559577D01*
X119068716Y-195480520D01*
X119180520Y-195368716D01*
X119259577Y-195231784D01*
X119300500Y-195079057D01*
X119300500Y-194920943D01*
X119259577Y-194768216D01*
X119180520Y-194631284D01*
X119180517Y-194631281D01*
X119104496Y-194555259D01*
X119076719Y-194500742D01*
X119075500Y-194485256D01*
X119075500Y-175690547D01*
X119094407Y-175632356D01*
X119143907Y-175596392D01*
X119200122Y-175594921D01*
X119220943Y-175600500D01*
X119220945Y-175600500D01*
X119379055Y-175600500D01*
X119379057Y-175600500D01*
X119531784Y-175559577D01*
X119668716Y-175480520D01*
X119780520Y-175368716D01*
X119859577Y-175231784D01*
X119900500Y-175079057D01*
X119900500Y-174920943D01*
X119859577Y-174768216D01*
X119780520Y-174631284D01*
X119780517Y-174631281D01*
X119704496Y-174555259D01*
X119676719Y-174500742D01*
X119675500Y-174485256D01*
X119675500Y-155690547D01*
X119694407Y-155632356D01*
X119743907Y-155596392D01*
X119800122Y-155594921D01*
X119820943Y-155600500D01*
X119820945Y-155600500D01*
X119979055Y-155600500D01*
X119979057Y-155600500D01*
X120131784Y-155559577D01*
X120268716Y-155480520D01*
X120380520Y-155368716D01*
X120459577Y-155231784D01*
X120500500Y-155079057D01*
X120500500Y-154920943D01*
X120459577Y-154768216D01*
X120380520Y-154631284D01*
X120380517Y-154631281D01*
X120304496Y-154555259D01*
X120276719Y-154500742D01*
X120275500Y-154485256D01*
X120275500Y-135690547D01*
X120294407Y-135632356D01*
X120343907Y-135596392D01*
X120400122Y-135594921D01*
X120420943Y-135600500D01*
X120420945Y-135600500D01*
X120579055Y-135600500D01*
X120579057Y-135600500D01*
X120731784Y-135559577D01*
X120868716Y-135480520D01*
X120980520Y-135368716D01*
X121059577Y-135231784D01*
X121100500Y-135079057D01*
X121100500Y-134920943D01*
X121059577Y-134768216D01*
X120980520Y-134631284D01*
X120980517Y-134631281D01*
X120904496Y-134555259D01*
X120876719Y-134500742D01*
X120875500Y-134485256D01*
X120875500Y-116690547D01*
X120894407Y-116632356D01*
X120943907Y-116596392D01*
X121000122Y-116594921D01*
X121020943Y-116600500D01*
X121020945Y-116600500D01*
X121179055Y-116600500D01*
X121179057Y-116600500D01*
X121331784Y-116559577D01*
X121468716Y-116480520D01*
X121580520Y-116368716D01*
X121659577Y-116231784D01*
X121700500Y-116079057D01*
X121700500Y-115920943D01*
X121659577Y-115768216D01*
X121580520Y-115631284D01*
X121580517Y-115631281D01*
X121504496Y-115555259D01*
X121476719Y-115500742D01*
X121475500Y-115485256D01*
X121475500Y-100696544D01*
X121494407Y-100638353D01*
X121504490Y-100626546D01*
X122030496Y-100100539D01*
X122085013Y-100072763D01*
X122145445Y-100082334D01*
G37*
%TD.AperFunction*%
%TA.AperFunction,Conductor*%
G36*
X118218264Y-85438861D02*
G01*
X118234349Y-85451886D01*
X121670504Y-88888041D01*
X121698281Y-88942558D01*
X121699500Y-88958045D01*
X121699500Y-89065557D01*
X121740423Y-89218284D01*
X121819480Y-89355216D01*
X121931284Y-89467020D01*
X121931286Y-89467021D01*
X121931290Y-89467025D01*
X121936430Y-89470969D01*
X121935448Y-89472247D01*
X121971096Y-89511830D01*
X121977498Y-89572679D01*
X121950663Y-89622109D01*
X121468830Y-90103943D01*
X121414313Y-90131721D01*
X121353881Y-90122150D01*
X121310616Y-90078885D01*
X121302208Y-90051803D01*
X121302179Y-90051811D01*
X121301979Y-90051066D01*
X121300672Y-90046855D01*
X121300500Y-90045549D01*
X121300500Y-90045543D01*
X121259577Y-89892816D01*
X121180520Y-89755884D01*
X121068716Y-89644080D01*
X120931784Y-89565023D01*
X120779057Y-89524100D01*
X120620943Y-89524100D01*
X120468216Y-89565023D01*
X120331284Y-89644080D01*
X120331282Y-89644081D01*
X120331280Y-89644083D01*
X120326220Y-89647965D01*
X120268542Y-89668382D01*
X120209878Y-89650998D01*
X120195957Y-89639420D01*
X119444209Y-88887672D01*
X119416432Y-88833155D01*
X119426003Y-88772723D01*
X119464715Y-88731930D01*
X119465147Y-88731680D01*
X119468716Y-88729620D01*
X119580520Y-88617816D01*
X119659577Y-88480884D01*
X119700500Y-88328157D01*
X119700500Y-88170043D01*
X119659577Y-88017316D01*
X119580520Y-87880384D01*
X119468716Y-87768580D01*
X119331784Y-87689523D01*
X119179057Y-87648600D01*
X119179055Y-87648600D01*
X119071545Y-87648600D01*
X119013354Y-87629693D01*
X119001541Y-87619604D01*
X117450041Y-86068104D01*
X117422264Y-86013587D01*
X117431835Y-85953155D01*
X117475100Y-85909890D01*
X117520045Y-85899100D01*
X117579055Y-85899100D01*
X117579057Y-85899100D01*
X117731784Y-85858177D01*
X117868716Y-85779120D01*
X117980520Y-85667316D01*
X118059577Y-85530384D01*
X118068719Y-85496265D01*
X118102042Y-85444953D01*
X118159163Y-85423026D01*
X118218264Y-85438861D01*
G37*
%TD.AperFunction*%
%TA.AperFunction,Conductor*%
G36*
X110638904Y-75033241D02*
G01*
X113670504Y-78064841D01*
X113698281Y-78119358D01*
X113699500Y-78134845D01*
X113699500Y-78242357D01*
X113740423Y-78395084D01*
X113819480Y-78532016D01*
X113931284Y-78643820D01*
X114068216Y-78722877D01*
X114220943Y-78763800D01*
X114220945Y-78763800D01*
X114379055Y-78763800D01*
X114379057Y-78763800D01*
X114531784Y-78722877D01*
X114668716Y-78643820D01*
X114780520Y-78532016D01*
X114784438Y-78525228D01*
X114829901Y-78484285D01*
X114890751Y-78477883D01*
X114940181Y-78504718D01*
X118389175Y-81953712D01*
X118416952Y-82008229D01*
X118407381Y-82068661D01*
X118364116Y-82111926D01*
X118362022Y-82112891D01*
X118360082Y-82113928D01*
X118245358Y-82190585D01*
X118147785Y-82288158D01*
X118071128Y-82402882D01*
X118071122Y-82402893D01*
X118018320Y-82530370D01*
X118018320Y-82530372D01*
X117991400Y-82665704D01*
X117991400Y-82803695D01*
X118018320Y-82939027D01*
X118018320Y-82939029D01*
X118071122Y-83066506D01*
X118071128Y-83066517D01*
X118147785Y-83181241D01*
X118245358Y-83278814D01*
X118360082Y-83355471D01*
X118360093Y-83355477D01*
X118407183Y-83374982D01*
X118487572Y-83408280D01*
X118582177Y-83427098D01*
X118632867Y-83454192D01*
X122520104Y-87341429D01*
X122547881Y-87395946D01*
X122549100Y-87411433D01*
X122549100Y-88302543D01*
X122530193Y-88360734D01*
X122480693Y-88396698D01*
X122441515Y-88401170D01*
X122432860Y-88400416D01*
X122379057Y-88386000D01*
X122267245Y-88386000D01*
X122262960Y-88385627D01*
X122238561Y-88375283D01*
X122213354Y-88367093D01*
X122207549Y-88362135D01*
X122206628Y-88361745D01*
X122206137Y-88360929D01*
X122201541Y-88357004D01*
X110498896Y-76654359D01*
X110471119Y-76599842D01*
X110469900Y-76584355D01*
X110469900Y-75103245D01*
X110488807Y-75045054D01*
X110538307Y-75009090D01*
X110599493Y-75009090D01*
X110638904Y-75033241D01*
G37*
%TD.AperFunction*%
%TA.AperFunction,Conductor*%
G36*
X108360282Y-62116796D02*
G01*
X108380863Y-62118959D01*
X108388724Y-62126037D01*
X108398788Y-62129307D01*
X108426333Y-62159899D01*
X108445280Y-62192716D01*
X108557084Y-62304520D01*
X108694016Y-62383577D01*
X108846743Y-62424500D01*
X108846745Y-62424500D01*
X108916500Y-62424500D01*
X108974691Y-62443407D01*
X109010655Y-62492907D01*
X109015500Y-62523500D01*
X109015500Y-78219955D01*
X108996593Y-78278146D01*
X108947093Y-78314110D01*
X108885907Y-78314110D01*
X108846496Y-78289959D01*
X108528096Y-77971559D01*
X108500319Y-77917042D01*
X108499100Y-77901555D01*
X108499100Y-64413843D01*
X108518007Y-64355652D01*
X108528090Y-64343845D01*
X108604120Y-64267816D01*
X108683177Y-64130884D01*
X108724100Y-63978157D01*
X108724100Y-63820043D01*
X108683177Y-63667316D01*
X108604120Y-63530384D01*
X108492316Y-63418580D01*
X108355384Y-63339523D01*
X108202657Y-63298600D01*
X108044543Y-63298600D01*
X107891816Y-63339523D01*
X107754884Y-63418580D01*
X107643080Y-63530384D01*
X107564023Y-63667316D01*
X107523100Y-63820043D01*
X107523100Y-63978157D01*
X107564023Y-64130884D01*
X107643080Y-64267816D01*
X107719105Y-64343841D01*
X107746881Y-64398356D01*
X107748100Y-64413843D01*
X107748100Y-67342570D01*
X107729193Y-67400761D01*
X107679693Y-67436725D01*
X107623477Y-67438197D01*
X107591858Y-67429725D01*
X107479057Y-67399500D01*
X107320943Y-67399500D01*
X107168216Y-67440423D01*
X107031284Y-67519480D01*
X106919480Y-67631284D01*
X106840423Y-67768216D01*
X106799500Y-67920943D01*
X106799500Y-68079057D01*
X106840423Y-68231784D01*
X106919480Y-68368716D01*
X107031284Y-68480520D01*
X107168216Y-68559577D01*
X107320943Y-68600500D01*
X107320945Y-68600500D01*
X107479055Y-68600500D01*
X107479057Y-68600500D01*
X107623479Y-68561802D01*
X107684578Y-68565004D01*
X107732128Y-68603510D01*
X107748100Y-68657429D01*
X107748100Y-73216957D01*
X107729193Y-73275148D01*
X107679693Y-73311112D01*
X107618507Y-73311112D01*
X107579098Y-73286962D01*
X107510616Y-73218480D01*
X107373684Y-73139423D01*
X107220957Y-73098500D01*
X107220955Y-73098500D01*
X107113445Y-73098500D01*
X107055254Y-73079593D01*
X107043441Y-73069504D01*
X101272296Y-67298359D01*
X101244519Y-67243842D01*
X101243300Y-67228355D01*
X101243300Y-63677245D01*
X101262207Y-63619054D01*
X101272296Y-63607241D01*
X102740141Y-62139396D01*
X102794658Y-62111619D01*
X102810145Y-62110400D01*
X108340597Y-62110400D01*
X108360282Y-62116796D01*
G37*
%TD.AperFunction*%
%TA.AperFunction,Conductor*%
G36*
X113469272Y-57272906D02*
G01*
X113512537Y-57316171D01*
X113519953Y-57335492D01*
X113540421Y-57411880D01*
X113540421Y-57411881D01*
X113540423Y-57411884D01*
X113619480Y-57548816D01*
X113731284Y-57660620D01*
X113868216Y-57739677D01*
X114020943Y-57780600D01*
X114020945Y-57780600D01*
X114179055Y-57780600D01*
X114179057Y-57780600D01*
X114331784Y-57739677D01*
X114331785Y-57739676D01*
X114338052Y-57737997D01*
X114338512Y-57739715D01*
X114391083Y-57735572D01*
X114437987Y-57761835D01*
X114815081Y-58138929D01*
X114842858Y-58193446D01*
X114833287Y-58253878D01*
X114790022Y-58297143D01*
X114770701Y-58304559D01*
X114718219Y-58318621D01*
X114718218Y-58318621D01*
X114594370Y-58390125D01*
X114581284Y-58397680D01*
X114469480Y-58509484D01*
X114390423Y-58646416D01*
X114349500Y-58799143D01*
X114349500Y-58957257D01*
X114390423Y-59109984D01*
X114469480Y-59246916D01*
X114581284Y-59358720D01*
X114718216Y-59437777D01*
X114870943Y-59478700D01*
X114907744Y-59478700D01*
X114965935Y-59497607D01*
X114977748Y-59507696D01*
X116748048Y-61277996D01*
X116775825Y-61332513D01*
X116766254Y-61392945D01*
X116722989Y-61436210D01*
X116678044Y-61447000D01*
X116570943Y-61447000D01*
X116418216Y-61487923D01*
X116281284Y-61566980D01*
X116169480Y-61678784D01*
X116090423Y-61815716D01*
X116049500Y-61968443D01*
X116049500Y-62126557D01*
X116090423Y-62279284D01*
X116169480Y-62416216D01*
X116281284Y-62528020D01*
X116418216Y-62607077D01*
X116570943Y-62648000D01*
X116607744Y-62648000D01*
X116665935Y-62666907D01*
X116677748Y-62676996D01*
X119335854Y-65335102D01*
X119363631Y-65389619D01*
X119354060Y-65450051D01*
X119310795Y-65493316D01*
X119301504Y-65496883D01*
X119301611Y-65497140D01*
X119295618Y-65499621D01*
X119158681Y-65578682D01*
X119132658Y-65604705D01*
X119078141Y-65632481D01*
X119062656Y-65633700D01*
X116355481Y-65633700D01*
X116334203Y-65639401D01*
X116334202Y-65639400D01*
X116247263Y-65662696D01*
X116247259Y-65662698D01*
X116150235Y-65718715D01*
X116150236Y-65718716D01*
X112105748Y-69763204D01*
X112100660Y-69765796D01*
X112097519Y-69770562D01*
X112077641Y-69777524D01*
X112051231Y-69790981D01*
X112040249Y-69792097D01*
X112037988Y-69792200D01*
X111998943Y-69792200D01*
X111990945Y-69794342D01*
X111980205Y-69794832D01*
X111960556Y-69789423D01*
X111940204Y-69788353D01*
X111931729Y-69781487D01*
X111921214Y-69778593D01*
X111908498Y-69762668D01*
X111892661Y-69749839D01*
X111889364Y-69738707D01*
X111883035Y-69730780D01*
X111882310Y-69714884D01*
X111876700Y-69695935D01*
X111876700Y-63245345D01*
X111895607Y-63187154D01*
X111905696Y-63175341D01*
X112386274Y-62694763D01*
X112435707Y-62609143D01*
X112435706Y-62609143D01*
X112435710Y-62609138D01*
X112458386Y-62524510D01*
X112458386Y-62524509D01*
X112458387Y-62524509D01*
X112458387Y-62524504D01*
X112461300Y-62513636D01*
X112461300Y-62414764D01*
X112461300Y-59398643D01*
X112480207Y-59340452D01*
X112490290Y-59328645D01*
X112566320Y-59252616D01*
X112645377Y-59115684D01*
X112686300Y-58962957D01*
X112686300Y-58804843D01*
X112645377Y-58652116D01*
X112566320Y-58515184D01*
X112454516Y-58403380D01*
X112431556Y-58390124D01*
X112390615Y-58344657D01*
X112384218Y-58283806D01*
X112411049Y-58234386D01*
X113354326Y-57291110D01*
X113408840Y-57263335D01*
X113469272Y-57272906D01*
G37*
%TD.AperFunction*%
%TA.AperFunction,Conductor*%
G36*
X123339235Y-49883807D02*
G01*
X123375199Y-49933307D01*
X123375199Y-49994493D01*
X123351048Y-50033904D01*
X117428048Y-55956904D01*
X117373531Y-55984681D01*
X117358044Y-55985900D01*
X117321243Y-55985900D01*
X117168516Y-56026823D01*
X117031584Y-56105880D01*
X116919780Y-56217684D01*
X116840723Y-56354616D01*
X116799800Y-56507343D01*
X116799800Y-56665457D01*
X116840723Y-56818184D01*
X116919780Y-56955116D01*
X117031584Y-57066920D01*
X117168516Y-57145977D01*
X117321243Y-57186900D01*
X117321245Y-57186900D01*
X117479355Y-57186900D01*
X117479357Y-57186900D01*
X117632084Y-57145977D01*
X117687613Y-57113917D01*
X117747458Y-57101196D01*
X117803354Y-57126082D01*
X117833947Y-57179070D01*
X117827552Y-57239920D01*
X117822848Y-57249153D01*
X117790423Y-57305314D01*
X117787514Y-57316171D01*
X117749500Y-57458043D01*
X117749500Y-57616157D01*
X117790423Y-57768884D01*
X117869480Y-57905816D01*
X117981284Y-58017620D01*
X118118216Y-58096677D01*
X118270943Y-58137600D01*
X118270945Y-58137600D01*
X118429055Y-58137600D01*
X118429057Y-58137600D01*
X118581784Y-58096677D01*
X118718716Y-58017620D01*
X118830520Y-57905816D01*
X118909577Y-57768884D01*
X118950500Y-57616157D01*
X118950500Y-57579354D01*
X118969407Y-57521163D01*
X118979490Y-57509356D01*
X122529160Y-53959686D01*
X122529163Y-53959685D01*
X122608385Y-53880463D01*
X122664403Y-53783437D01*
X122685286Y-53705500D01*
X122693400Y-53675219D01*
X122693400Y-53563182D01*
X122693400Y-52574854D01*
X122712307Y-52516663D01*
X122722384Y-52504863D01*
X122934048Y-52293198D01*
X122988563Y-52265423D01*
X123048995Y-52274994D01*
X123089785Y-52313702D01*
X123092680Y-52318716D01*
X123204484Y-52430520D01*
X123341416Y-52509577D01*
X123494143Y-52550500D01*
X123494145Y-52550500D01*
X123652255Y-52550500D01*
X123652257Y-52550500D01*
X123804984Y-52509577D01*
X123941916Y-52430520D01*
X124053720Y-52318716D01*
X124132777Y-52181784D01*
X124173700Y-52029057D01*
X124173700Y-51992256D01*
X124192607Y-51934065D01*
X124202696Y-51922252D01*
X124676396Y-51448552D01*
X124730913Y-51420775D01*
X124791345Y-51430346D01*
X124834610Y-51473611D01*
X124845400Y-51518556D01*
X124845400Y-51658657D01*
X124886323Y-51811384D01*
X124965380Y-51948316D01*
X125077184Y-52060120D01*
X125077186Y-52060121D01*
X125081773Y-52064708D01*
X125080680Y-52065800D01*
X125110979Y-52109880D01*
X125109380Y-52171045D01*
X125081150Y-52212593D01*
X125073889Y-52218928D01*
X125051284Y-52231980D01*
X124998850Y-52284412D01*
X124996304Y-52286635D01*
X124984674Y-52291598D01*
X124956840Y-52307669D01*
X124947169Y-52310261D01*
X124947165Y-52310262D01*
X124925763Y-52315997D01*
X124925760Y-52315998D01*
X124828737Y-52372014D01*
X124749514Y-52451236D01*
X124749515Y-52451237D01*
X124749513Y-52451239D01*
X122639537Y-54561214D01*
X122639537Y-54561215D01*
X122639536Y-54561214D01*
X122560314Y-54640437D01*
X122504298Y-54737458D01*
X122475300Y-54845683D01*
X122475300Y-64356644D01*
X122456393Y-64414835D01*
X122406893Y-64450799D01*
X122345707Y-64450799D01*
X122306296Y-64426648D01*
X118899985Y-61020337D01*
X114719263Y-56839615D01*
X114719260Y-56839613D01*
X114622240Y-56783598D01*
X114622236Y-56783596D01*
X114552915Y-56765021D01*
X114508536Y-56739399D01*
X114468718Y-56699582D01*
X114468716Y-56699580D01*
X114331784Y-56620523D01*
X114179057Y-56579600D01*
X114020943Y-56579600D01*
X113963622Y-56594958D01*
X113902521Y-56591756D01*
X113854971Y-56553251D01*
X113839000Y-56499332D01*
X113839000Y-54066465D01*
X113828243Y-54026319D01*
X113813411Y-53970963D01*
X113763975Y-53885337D01*
X110227196Y-50348558D01*
X110199419Y-50294041D01*
X110198200Y-50278554D01*
X110198200Y-50171044D01*
X110195459Y-50160814D01*
X110157277Y-50018316D01*
X110154439Y-50013400D01*
X110141717Y-49953552D01*
X110166603Y-49897656D01*
X110219591Y-49867063D01*
X110240175Y-49864900D01*
X123281044Y-49864900D01*
X123339235Y-49883807D01*
G37*
%TD.AperFunction*%
%TA.AperFunction,Conductor*%
G36*
X130687492Y-48569407D02*
G01*
X130710411Y-48592736D01*
X130715956Y-48600660D01*
X130747794Y-48672765D01*
X130809841Y-48734812D01*
X130814815Y-48741919D01*
X130821341Y-48763286D01*
X130831486Y-48783196D01*
X130830098Y-48791955D01*
X130832689Y-48800435D01*
X130825410Y-48821556D01*
X130821915Y-48843628D01*
X130816021Y-48853684D01*
X130791048Y-48891058D01*
X130730742Y-49036650D01*
X130700000Y-49191204D01*
X130700000Y-49348795D01*
X130730742Y-49503349D01*
X130791048Y-49648941D01*
X130809940Y-49677215D01*
X131175000Y-49312156D01*
X131175000Y-49312787D01*
X131197149Y-49395445D01*
X131239936Y-49469554D01*
X131300446Y-49530064D01*
X131374555Y-49572851D01*
X131457213Y-49595000D01*
X131457842Y-49595000D01*
X131307112Y-49745728D01*
X131270657Y-49767584D01*
X131270996Y-49768402D01*
X131120825Y-49830603D01*
X131120814Y-49830609D01*
X130989711Y-49918211D01*
X130989707Y-49918214D01*
X130878214Y-50029707D01*
X130878211Y-50029711D01*
X130790609Y-50160814D01*
X130790605Y-50160822D01*
X130748297Y-50262963D01*
X130708560Y-50309489D01*
X130649065Y-50323772D01*
X130592537Y-50300357D01*
X130586829Y-50295081D01*
X130031248Y-49739500D01*
X129390663Y-49098915D01*
X129390660Y-49098913D01*
X129293640Y-49042898D01*
X129293642Y-49042898D01*
X129251651Y-49031647D01*
X129185418Y-49013900D01*
X129185416Y-49013900D01*
X110017944Y-49013900D01*
X109959753Y-48994993D01*
X109947942Y-48984905D01*
X109921918Y-48958882D01*
X109921916Y-48958880D01*
X109784984Y-48879823D01*
X109632257Y-48838900D01*
X109474143Y-48838900D01*
X109334452Y-48876330D01*
X109273350Y-48873127D01*
X109225800Y-48834622D01*
X109209965Y-48775521D01*
X109231892Y-48718400D01*
X109238826Y-48710699D01*
X109370030Y-48579496D01*
X109424546Y-48551719D01*
X109440033Y-48550500D01*
X127422926Y-48550500D01*
X127567874Y-48550500D01*
X130629301Y-48550500D01*
X130687492Y-48569407D01*
G37*
%TD.AperFunction*%
%TA.AperFunction,Conductor*%
G36*
X137158691Y-45018907D02*
G01*
X137194655Y-45068407D01*
X137199500Y-45099000D01*
X137199500Y-99600500D01*
X137180593Y-99658691D01*
X137131093Y-99694655D01*
X137100500Y-99699500D01*
X122670544Y-99699500D01*
X122612353Y-99680593D01*
X122576389Y-99631093D01*
X122576389Y-99569907D01*
X122600540Y-99530496D01*
X124937574Y-97193463D01*
X127400474Y-94730563D01*
X127400475Y-94730562D01*
X127449910Y-94644938D01*
X127475500Y-94549435D01*
X127475500Y-94014743D01*
X127494407Y-93956552D01*
X127504490Y-93944745D01*
X127580520Y-93868716D01*
X127659577Y-93731784D01*
X127700500Y-93579057D01*
X127700500Y-93420943D01*
X127659577Y-93268216D01*
X127580520Y-93131284D01*
X127468716Y-93019480D01*
X127331784Y-92940423D01*
X127179057Y-92899500D01*
X127020943Y-92899500D01*
X126868216Y-92940423D01*
X126731284Y-93019480D01*
X126619480Y-93131284D01*
X126540423Y-93268216D01*
X126499500Y-93420943D01*
X126499500Y-93579057D01*
X126540423Y-93731784D01*
X126619480Y-93868716D01*
X126695505Y-93944741D01*
X126723281Y-93999256D01*
X126724500Y-94014743D01*
X126724500Y-94303455D01*
X126705593Y-94361646D01*
X126695504Y-94373459D01*
X126044504Y-95024459D01*
X125989987Y-95052236D01*
X125929555Y-95042665D01*
X125886290Y-94999400D01*
X125875500Y-94954455D01*
X125875500Y-94014743D01*
X125894407Y-93956552D01*
X125904490Y-93944745D01*
X125980520Y-93868716D01*
X126059577Y-93731784D01*
X126100500Y-93579057D01*
X126100500Y-93420943D01*
X126059577Y-93268216D01*
X125980520Y-93131284D01*
X125868716Y-93019480D01*
X125731784Y-92940423D01*
X125579057Y-92899500D01*
X125420943Y-92899500D01*
X125268216Y-92940423D01*
X125131284Y-93019480D01*
X125019480Y-93131284D01*
X124940423Y-93268216D01*
X124899500Y-93420943D01*
X124899500Y-93579057D01*
X124940423Y-93731784D01*
X125019480Y-93868716D01*
X125095505Y-93944741D01*
X125123281Y-93999256D01*
X125124500Y-94014743D01*
X125124500Y-95303454D01*
X125105593Y-95361645D01*
X125095504Y-95373458D01*
X124444504Y-96024458D01*
X124389987Y-96052235D01*
X124329555Y-96042664D01*
X124286290Y-95999399D01*
X124275500Y-95954454D01*
X124275500Y-94014743D01*
X124294407Y-93956552D01*
X124304490Y-93944745D01*
X124380520Y-93868716D01*
X124459577Y-93731784D01*
X124500500Y-93579057D01*
X124500500Y-93420943D01*
X124459577Y-93268216D01*
X124380520Y-93131284D01*
X124268716Y-93019480D01*
X124131784Y-92940423D01*
X123979057Y-92899500D01*
X123820943Y-92899500D01*
X123668216Y-92940423D01*
X123531284Y-93019480D01*
X123419480Y-93131284D01*
X123340423Y-93268216D01*
X123299500Y-93420943D01*
X123299500Y-93579057D01*
X123340423Y-93731784D01*
X123419480Y-93868716D01*
X123495505Y-93944741D01*
X123523281Y-93999256D01*
X123524500Y-94014743D01*
X123524500Y-96303455D01*
X123505593Y-96361646D01*
X123495504Y-96373459D01*
X122844504Y-97024459D01*
X122789987Y-97052236D01*
X122729555Y-97042665D01*
X122686290Y-96999400D01*
X122675500Y-96954455D01*
X122675500Y-94014743D01*
X122694407Y-93956552D01*
X122704490Y-93944745D01*
X122780520Y-93868716D01*
X122859577Y-93731784D01*
X122900500Y-93579057D01*
X122900500Y-93420943D01*
X122859577Y-93268216D01*
X122780520Y-93131284D01*
X122668716Y-93019480D01*
X122531784Y-92940423D01*
X122379057Y-92899500D01*
X122220943Y-92899500D01*
X122068216Y-92940423D01*
X121931284Y-93019480D01*
X121819480Y-93131284D01*
X121740423Y-93268216D01*
X121699500Y-93420943D01*
X121699500Y-93579057D01*
X121740423Y-93731784D01*
X121819480Y-93868716D01*
X121895505Y-93944741D01*
X121923281Y-93999256D01*
X121924500Y-94014743D01*
X121924500Y-97303454D01*
X121905593Y-97361645D01*
X121895504Y-97373458D01*
X121244504Y-98024458D01*
X121189987Y-98052235D01*
X121129555Y-98042664D01*
X121086290Y-97999399D01*
X121075500Y-97954454D01*
X121075500Y-94014743D01*
X121094407Y-93956552D01*
X121104490Y-93944745D01*
X121180520Y-93868716D01*
X121259577Y-93731784D01*
X121300500Y-93579057D01*
X121300500Y-93420943D01*
X121259577Y-93268216D01*
X121180520Y-93131284D01*
X121068716Y-93019480D01*
X120931784Y-92940423D01*
X120779057Y-92899500D01*
X120620943Y-92899500D01*
X120468216Y-92940423D01*
X120331284Y-93019480D01*
X120219480Y-93131284D01*
X120140423Y-93268216D01*
X120099500Y-93420943D01*
X120099500Y-93579057D01*
X120140423Y-93731784D01*
X120219480Y-93868716D01*
X120295505Y-93944741D01*
X120323281Y-93999256D01*
X120324500Y-94014743D01*
X120324500Y-98303455D01*
X120305593Y-98361646D01*
X120295504Y-98373459D01*
X119644504Y-99024459D01*
X119589987Y-99052236D01*
X119529555Y-99042665D01*
X119486290Y-98999400D01*
X119475500Y-98954455D01*
X119475500Y-94014743D01*
X119494407Y-93956552D01*
X119504490Y-93944745D01*
X119580520Y-93868716D01*
X119659577Y-93731784D01*
X119700500Y-93579057D01*
X119700500Y-93420943D01*
X119659577Y-93268216D01*
X119580520Y-93131284D01*
X119468716Y-93019480D01*
X119331784Y-92940423D01*
X119179057Y-92899500D01*
X119020943Y-92899500D01*
X118868216Y-92940423D01*
X118731284Y-93019480D01*
X118619480Y-93131284D01*
X118540423Y-93268216D01*
X118499500Y-93420943D01*
X118499500Y-93579057D01*
X118540423Y-93731784D01*
X118619480Y-93868716D01*
X118695505Y-93944741D01*
X118723281Y-93999256D01*
X118724500Y-94014743D01*
X118724500Y-99303455D01*
X118705593Y-99361646D01*
X118695504Y-99373459D01*
X118044504Y-100024459D01*
X117989987Y-100052236D01*
X117929555Y-100042665D01*
X117886290Y-99999400D01*
X117875500Y-99954455D01*
X117875500Y-94014743D01*
X117894407Y-93956552D01*
X117904490Y-93944745D01*
X117980520Y-93868716D01*
X118059577Y-93731784D01*
X118100500Y-93579057D01*
X118100500Y-93420943D01*
X118059577Y-93268216D01*
X117980520Y-93131284D01*
X117868716Y-93019480D01*
X117731784Y-92940423D01*
X117579057Y-92899500D01*
X117420943Y-92899500D01*
X117268216Y-92940423D01*
X117131284Y-93019480D01*
X117019480Y-93131284D01*
X116940423Y-93268216D01*
X116899500Y-93420943D01*
X116899500Y-93579057D01*
X116940423Y-93731784D01*
X117019480Y-93868716D01*
X117095505Y-93944741D01*
X117123281Y-93999256D01*
X117124500Y-94014743D01*
X117124500Y-99954455D01*
X117105593Y-100012646D01*
X117056093Y-100048610D01*
X116994907Y-100048610D01*
X116955496Y-100024459D01*
X116304496Y-99373459D01*
X116276719Y-99318942D01*
X116275500Y-99303455D01*
X116275500Y-94014743D01*
X116294407Y-93956552D01*
X116304490Y-93944745D01*
X116380520Y-93868716D01*
X116459577Y-93731784D01*
X116500500Y-93579057D01*
X116500500Y-93420943D01*
X116459577Y-93268216D01*
X116380520Y-93131284D01*
X116268716Y-93019480D01*
X116131784Y-92940423D01*
X115979057Y-92899500D01*
X115820943Y-92899500D01*
X115668216Y-92940423D01*
X115531284Y-93019480D01*
X115419480Y-93131284D01*
X115340423Y-93268216D01*
X115299500Y-93420943D01*
X115299500Y-93579057D01*
X115340423Y-93731784D01*
X115419480Y-93868716D01*
X115495505Y-93944741D01*
X115523281Y-93999256D01*
X115524500Y-94014743D01*
X115524500Y-98954455D01*
X115505593Y-99012646D01*
X115456093Y-99048610D01*
X115394907Y-99048610D01*
X115355496Y-99024459D01*
X114704496Y-98373459D01*
X114676719Y-98318942D01*
X114675500Y-98303455D01*
X114675500Y-94014743D01*
X114694407Y-93956552D01*
X114704490Y-93944745D01*
X114780520Y-93868716D01*
X114859577Y-93731784D01*
X114900500Y-93579057D01*
X114900500Y-93420943D01*
X114859577Y-93268216D01*
X114780520Y-93131284D01*
X114668716Y-93019480D01*
X114531784Y-92940423D01*
X114379057Y-92899500D01*
X114220943Y-92899500D01*
X114068216Y-92940423D01*
X113931284Y-93019480D01*
X113819480Y-93131284D01*
X113740423Y-93268216D01*
X113699500Y-93420943D01*
X113699500Y-93579057D01*
X113740423Y-93731784D01*
X113819480Y-93868716D01*
X113895505Y-93944741D01*
X113923281Y-93999256D01*
X113924500Y-94014743D01*
X113924500Y-97954454D01*
X113905593Y-98012645D01*
X113856093Y-98048609D01*
X113794907Y-98048609D01*
X113755496Y-98024458D01*
X113104496Y-97373458D01*
X113076719Y-97318941D01*
X113075500Y-97303454D01*
X113075500Y-94014743D01*
X113094407Y-93956552D01*
X113104490Y-93944745D01*
X113180520Y-93868716D01*
X113259577Y-93731784D01*
X113300500Y-93579057D01*
X113300500Y-93420943D01*
X113259577Y-93268216D01*
X113180520Y-93131284D01*
X113068716Y-93019480D01*
X112931784Y-92940423D01*
X112779057Y-92899500D01*
X112620943Y-92899500D01*
X112468216Y-92940423D01*
X112331284Y-93019480D01*
X112219480Y-93131284D01*
X112140423Y-93268216D01*
X112099500Y-93420943D01*
X112099500Y-93579057D01*
X112140423Y-93731784D01*
X112219480Y-93868716D01*
X112295505Y-93944741D01*
X112323281Y-93999256D01*
X112324500Y-94014743D01*
X112324500Y-96954455D01*
X112305593Y-97012646D01*
X112256093Y-97048610D01*
X112194907Y-97048610D01*
X112155496Y-97024459D01*
X111504496Y-96373459D01*
X111476719Y-96318942D01*
X111475500Y-96303455D01*
X111475500Y-94014743D01*
X111494407Y-93956552D01*
X111504490Y-93944745D01*
X111580520Y-93868716D01*
X111659577Y-93731784D01*
X111700500Y-93579057D01*
X111700500Y-93420943D01*
X111659577Y-93268216D01*
X111580520Y-93131284D01*
X111468716Y-93019480D01*
X111331784Y-92940423D01*
X111179057Y-92899500D01*
X111020943Y-92899500D01*
X110868216Y-92940423D01*
X110731284Y-93019480D01*
X110619480Y-93131284D01*
X110540423Y-93268216D01*
X110499500Y-93420943D01*
X110499500Y-93579057D01*
X110540423Y-93731784D01*
X110619480Y-93868716D01*
X110695505Y-93944741D01*
X110723281Y-93999256D01*
X110724500Y-94014743D01*
X110724500Y-95954454D01*
X110705593Y-96012645D01*
X110656093Y-96048609D01*
X110594907Y-96048609D01*
X110555496Y-96024458D01*
X109904496Y-95373458D01*
X109876719Y-95318941D01*
X109875500Y-95303454D01*
X109875500Y-94014743D01*
X109894407Y-93956552D01*
X109904490Y-93944745D01*
X109980520Y-93868716D01*
X110059577Y-93731784D01*
X110100500Y-93579057D01*
X110100500Y-93420943D01*
X110059577Y-93268216D01*
X109980520Y-93131284D01*
X109868716Y-93019480D01*
X109731784Y-92940423D01*
X109579057Y-92899500D01*
X109420943Y-92899500D01*
X109268216Y-92940423D01*
X109131284Y-93019480D01*
X109019480Y-93131284D01*
X108940423Y-93268216D01*
X108899500Y-93420943D01*
X108899500Y-93579057D01*
X108940423Y-93731784D01*
X109019480Y-93868716D01*
X109095505Y-93944741D01*
X109123281Y-93999256D01*
X109124500Y-94014743D01*
X109124500Y-94954455D01*
X109105593Y-95012646D01*
X109056093Y-95048610D01*
X108994907Y-95048610D01*
X108955496Y-95024459D01*
X108304496Y-94373459D01*
X108276719Y-94318942D01*
X108275500Y-94303455D01*
X108275500Y-94014743D01*
X108294407Y-93956552D01*
X108304490Y-93944745D01*
X108380520Y-93868716D01*
X108459577Y-93731784D01*
X108500500Y-93579057D01*
X108500500Y-93420943D01*
X108459577Y-93268216D01*
X108380520Y-93131284D01*
X108268716Y-93019480D01*
X108131784Y-92940423D01*
X107979057Y-92899500D01*
X107820943Y-92899500D01*
X107668216Y-92940423D01*
X107531284Y-93019480D01*
X107419480Y-93131284D01*
X107340423Y-93268216D01*
X107299500Y-93420943D01*
X107299500Y-93579057D01*
X107340423Y-93731784D01*
X107419480Y-93868716D01*
X107495505Y-93944741D01*
X107523281Y-93999256D01*
X107524500Y-94014743D01*
X107524500Y-94549435D01*
X107547067Y-94633657D01*
X107550091Y-94644942D01*
X107599525Y-94730563D01*
X107599526Y-94730563D01*
X112399459Y-99530496D01*
X112427236Y-99585013D01*
X112417665Y-99645445D01*
X112374400Y-99688710D01*
X112329455Y-99699500D01*
X97899500Y-99699500D01*
X97841309Y-99680593D01*
X97805345Y-99631093D01*
X97800500Y-99600500D01*
X97800500Y-62994165D01*
X99437200Y-62994165D01*
X99437200Y-77223935D01*
X99462790Y-77319438D01*
X99507203Y-77396363D01*
X99512226Y-77405063D01*
X108870505Y-86763342D01*
X108898281Y-86817857D01*
X108899500Y-86833344D01*
X108899500Y-86940857D01*
X108940423Y-87093584D01*
X109019480Y-87230516D01*
X109131284Y-87342320D01*
X109268216Y-87421377D01*
X109420943Y-87462300D01*
X109420945Y-87462300D01*
X109579055Y-87462300D01*
X109579057Y-87462300D01*
X109731784Y-87421377D01*
X109868716Y-87342320D01*
X109980520Y-87230516D01*
X110059577Y-87093584D01*
X110100500Y-86940857D01*
X110100500Y-86782743D01*
X110059577Y-86630016D01*
X109980520Y-86493084D01*
X109868716Y-86381280D01*
X109731784Y-86302223D01*
X109579057Y-86261300D01*
X109579055Y-86261300D01*
X109471545Y-86261300D01*
X109413354Y-86242393D01*
X109401541Y-86232304D01*
X100217196Y-77047959D01*
X100189419Y-76993442D01*
X100188200Y-76977955D01*
X100188200Y-73767145D01*
X100207107Y-73708954D01*
X100256607Y-73672990D01*
X100317793Y-73672990D01*
X100357204Y-73697141D01*
X110470504Y-83810441D01*
X110498281Y-83864958D01*
X110499500Y-83880445D01*
X110499500Y-83987957D01*
X110540423Y-84140684D01*
X110619480Y-84277616D01*
X110731284Y-84389420D01*
X110868216Y-84468477D01*
X111020943Y-84509400D01*
X111020945Y-84509400D01*
X111179055Y-84509400D01*
X111179057Y-84509400D01*
X111331784Y-84468477D01*
X111468716Y-84389420D01*
X111580520Y-84277616D01*
X111654573Y-84149351D01*
X111700041Y-84108412D01*
X111760891Y-84102016D01*
X111810312Y-84128849D01*
X115270504Y-87589041D01*
X115298281Y-87643558D01*
X115299500Y-87659045D01*
X115299500Y-87766557D01*
X115340423Y-87919284D01*
X115419480Y-88056216D01*
X115531284Y-88168020D01*
X115668216Y-88247077D01*
X115820943Y-88288000D01*
X115820945Y-88288000D01*
X115979055Y-88288000D01*
X115979057Y-88288000D01*
X116131784Y-88247077D01*
X116268716Y-88168020D01*
X116380520Y-88056216D01*
X116459577Y-87919284D01*
X116500500Y-87766557D01*
X116500500Y-87608443D01*
X116459577Y-87455716D01*
X116380520Y-87318784D01*
X116268716Y-87206980D01*
X116131784Y-87127923D01*
X115979057Y-87087000D01*
X115979055Y-87087000D01*
X115871545Y-87087000D01*
X115813354Y-87068093D01*
X115801541Y-87058004D01*
X100920596Y-72177059D01*
X100892819Y-72122542D01*
X100891600Y-72107055D01*
X100891600Y-68218745D01*
X100910507Y-68160554D01*
X100960007Y-68124590D01*
X101021193Y-68124590D01*
X101060604Y-68148741D01*
X106512404Y-73600541D01*
X106540181Y-73655058D01*
X106541400Y-73670545D01*
X106541400Y-73778057D01*
X106582323Y-73930784D01*
X106661380Y-74067716D01*
X106773184Y-74179520D01*
X106910116Y-74258577D01*
X107062843Y-74299500D01*
X107062845Y-74299500D01*
X107220955Y-74299500D01*
X107220957Y-74299500D01*
X107373684Y-74258577D01*
X107510616Y-74179520D01*
X107579098Y-74111037D01*
X107633613Y-74083262D01*
X107694045Y-74092833D01*
X107737310Y-74136098D01*
X107748100Y-74181043D01*
X107748100Y-78147535D01*
X107759528Y-78190189D01*
X107773689Y-78243037D01*
X107773691Y-78243041D01*
X107823125Y-78328663D01*
X107823126Y-78328663D01*
X119654659Y-90160196D01*
X119682436Y-90214713D01*
X119672865Y-90275145D01*
X119629600Y-90318410D01*
X119584655Y-90329200D01*
X103745033Y-90329200D01*
X103686842Y-90310293D01*
X103675029Y-90300204D01*
X102315792Y-88940967D01*
X102288698Y-88890277D01*
X102288180Y-88887672D01*
X102269880Y-88795672D01*
X102242521Y-88729621D01*
X102217077Y-88668193D01*
X102217071Y-88668182D01*
X102140414Y-88553458D01*
X102042841Y-88455885D01*
X101928117Y-88379228D01*
X101928106Y-88379222D01*
X101800628Y-88326420D01*
X101665295Y-88299500D01*
X101665293Y-88299500D01*
X101527307Y-88299500D01*
X101527304Y-88299500D01*
X101391972Y-88326420D01*
X101391970Y-88326420D01*
X101264493Y-88379222D01*
X101264482Y-88379228D01*
X101149758Y-88455885D01*
X101052185Y-88553458D01*
X100975528Y-88668182D01*
X100975522Y-88668193D01*
X100922720Y-88795670D01*
X100922720Y-88795672D01*
X100895800Y-88931004D01*
X100895800Y-89068995D01*
X100922720Y-89204327D01*
X100922720Y-89204329D01*
X100975522Y-89331806D01*
X100975528Y-89331817D01*
X101052185Y-89446541D01*
X101149758Y-89544114D01*
X101264482Y-89620771D01*
X101264493Y-89620777D01*
X101309502Y-89639420D01*
X101391972Y-89673580D01*
X101486577Y-89692398D01*
X101537267Y-89719492D01*
X103137985Y-91320210D01*
X103263515Y-91392684D01*
X103403525Y-91430200D01*
X103403526Y-91430200D01*
X121544074Y-91430200D01*
X121544075Y-91430200D01*
X121684085Y-91392684D01*
X121809615Y-91320210D01*
X123540110Y-89589714D01*
X123612584Y-89464185D01*
X123628095Y-89406299D01*
X123650100Y-89324175D01*
X123650100Y-87764341D01*
X123669007Y-87706150D01*
X123718507Y-87670186D01*
X123774721Y-87668715D01*
X123820943Y-87681100D01*
X123820944Y-87681100D01*
X123979055Y-87681100D01*
X123979057Y-87681100D01*
X124131784Y-87640177D01*
X124268716Y-87561120D01*
X124380520Y-87449316D01*
X124381215Y-87448111D01*
X124381956Y-87447443D01*
X124384473Y-87444165D01*
X124385080Y-87444630D01*
X124426680Y-87407166D01*
X124487529Y-87400763D01*
X124536960Y-87427598D01*
X124870503Y-87761140D01*
X124898281Y-87815657D01*
X124899500Y-87831144D01*
X124899500Y-87938657D01*
X124940423Y-88091384D01*
X125019480Y-88228316D01*
X125131284Y-88340120D01*
X125268216Y-88419177D01*
X125420943Y-88460100D01*
X125420945Y-88460100D01*
X125579055Y-88460100D01*
X125579057Y-88460100D01*
X125731784Y-88419177D01*
X125868716Y-88340120D01*
X125980520Y-88228316D01*
X126059577Y-88091384D01*
X126100500Y-87938657D01*
X126100500Y-87780543D01*
X126059577Y-87627816D01*
X125980520Y-87490884D01*
X125868716Y-87379080D01*
X125731784Y-87300023D01*
X125579057Y-87259100D01*
X125579055Y-87259100D01*
X125471546Y-87259100D01*
X125413355Y-87240193D01*
X125401542Y-87230104D01*
X112914750Y-74743313D01*
X112886973Y-74688796D01*
X112896544Y-74628364D01*
X112935252Y-74587574D01*
X113068716Y-74510520D01*
X113180520Y-74398716D01*
X113259577Y-74261784D01*
X113300500Y-74109057D01*
X113300500Y-73950943D01*
X113259577Y-73798216D01*
X113180520Y-73661284D01*
X113068716Y-73549480D01*
X112931784Y-73470423D01*
X112779057Y-73429500D01*
X112779055Y-73429500D01*
X112671545Y-73429500D01*
X112613354Y-73410593D01*
X112601541Y-73400504D01*
X111905696Y-72704659D01*
X111877919Y-72650142D01*
X111876700Y-72634655D01*
X111876700Y-71671397D01*
X111895607Y-71613206D01*
X111945107Y-71577242D01*
X112006293Y-71577242D01*
X112055793Y-71613206D01*
X112071325Y-71645771D01*
X112095123Y-71734584D01*
X112174180Y-71871516D01*
X112285984Y-71983320D01*
X112422916Y-72062377D01*
X112575643Y-72103300D01*
X112683155Y-72103300D01*
X112741346Y-72122207D01*
X112753159Y-72132296D01*
X126470504Y-85849641D01*
X126498281Y-85904158D01*
X126499500Y-85919645D01*
X126499500Y-86027157D01*
X126540423Y-86179884D01*
X126619480Y-86316816D01*
X126731284Y-86428620D01*
X126868216Y-86507677D01*
X127020943Y-86548600D01*
X127020945Y-86548600D01*
X127179055Y-86548600D01*
X127179057Y-86548600D01*
X127331784Y-86507677D01*
X127468716Y-86428620D01*
X127580520Y-86316816D01*
X127659577Y-86179884D01*
X127700500Y-86027157D01*
X127700500Y-85869043D01*
X127659577Y-85716316D01*
X127580520Y-85579384D01*
X127468716Y-85467580D01*
X127331784Y-85388523D01*
X127179057Y-85347600D01*
X127179055Y-85347600D01*
X127071545Y-85347600D01*
X127013354Y-85328693D01*
X127001541Y-85318604D01*
X113284196Y-71601259D01*
X113256419Y-71546742D01*
X113255200Y-71531255D01*
X113255200Y-71423744D01*
X113248440Y-71398516D01*
X113214277Y-71271016D01*
X113135220Y-71134084D01*
X113023416Y-71022280D01*
X112886484Y-70943223D01*
X112733757Y-70902300D01*
X112648653Y-70902300D01*
X112639504Y-70899327D01*
X112629958Y-70900519D01*
X112611026Y-70890074D01*
X112590462Y-70883393D01*
X112584806Y-70875609D01*
X112576385Y-70870963D01*
X112567208Y-70851387D01*
X112554498Y-70833893D01*
X112554498Y-70824272D01*
X112550415Y-70815563D01*
X112554498Y-70795390D01*
X112554498Y-70772707D01*
X112561969Y-70755478D01*
X112562414Y-70754670D01*
X112637577Y-70624484D01*
X112640732Y-70612709D01*
X112646553Y-70602158D01*
X112660512Y-70589087D01*
X112670928Y-70573047D01*
X112682314Y-70568675D01*
X112691217Y-70560340D01*
X112710193Y-70557971D01*
X112728048Y-70551116D01*
X112739829Y-70554271D01*
X112751932Y-70552761D01*
X112768675Y-70561998D01*
X112787150Y-70566947D01*
X112803235Y-70579971D01*
X112881284Y-70658020D01*
X113018216Y-70737077D01*
X113170943Y-70778000D01*
X113170945Y-70778000D01*
X113329055Y-70778000D01*
X113329057Y-70778000D01*
X113481784Y-70737077D01*
X113618716Y-70658020D01*
X113631730Y-70645006D01*
X113644742Y-70631995D01*
X113651857Y-70628369D01*
X113656553Y-70621907D01*
X113678605Y-70614741D01*
X113699259Y-70604219D01*
X113714744Y-70603000D01*
X113741644Y-70603000D01*
X113799835Y-70621907D01*
X113811648Y-70631996D01*
X135123604Y-91943951D01*
X135151381Y-91998468D01*
X135152600Y-92013955D01*
X135152600Y-92050757D01*
X135193523Y-92203484D01*
X135272580Y-92340416D01*
X135384384Y-92452220D01*
X135521316Y-92531277D01*
X135674043Y-92572200D01*
X135674045Y-92572200D01*
X135832155Y-92572200D01*
X135832157Y-92572200D01*
X135984884Y-92531277D01*
X136121816Y-92452220D01*
X136233620Y-92340416D01*
X136312677Y-92203484D01*
X136353600Y-92050757D01*
X136353600Y-91892643D01*
X136312677Y-91739916D01*
X136233620Y-91602984D01*
X136121816Y-91491180D01*
X135984884Y-91412123D01*
X135832157Y-91371200D01*
X135832155Y-91371200D01*
X135795355Y-91371200D01*
X135737164Y-91352293D01*
X135725351Y-91342204D01*
X126336859Y-81953712D01*
X114220163Y-69837015D01*
X114199273Y-69824954D01*
X114123140Y-69780998D01*
X114123142Y-69780998D01*
X114081151Y-69769747D01*
X114014918Y-69752000D01*
X114014916Y-69752000D01*
X113714744Y-69752000D01*
X113656553Y-69733093D01*
X113655615Y-69732403D01*
X113649834Y-69728098D01*
X113618716Y-69696980D01*
X113571233Y-69669566D01*
X113566607Y-69666121D01*
X113552090Y-69645637D01*
X113535295Y-69626985D01*
X113534672Y-69621060D01*
X113531228Y-69616201D01*
X113531523Y-69591102D01*
X113528899Y-69566135D01*
X113531881Y-69560641D01*
X113531948Y-69555020D01*
X113542970Y-69540218D01*
X113555730Y-69516716D01*
X116558752Y-66513696D01*
X116613269Y-66485919D01*
X116628756Y-66484700D01*
X119062656Y-66484700D01*
X119120847Y-66503607D01*
X119132658Y-66513695D01*
X119158681Y-66539717D01*
X119158684Y-66539720D01*
X119295616Y-66618777D01*
X119448343Y-66659700D01*
X119448345Y-66659700D01*
X119606455Y-66659700D01*
X119606457Y-66659700D01*
X119759184Y-66618777D01*
X119896116Y-66539720D01*
X120007920Y-66427916D01*
X120086977Y-66290984D01*
X120086978Y-66290981D01*
X120089460Y-66284989D01*
X120091821Y-66285967D01*
X120119168Y-66243830D01*
X120176283Y-66221886D01*
X120235388Y-66237705D01*
X120251497Y-66250745D01*
X123540504Y-69539752D01*
X123568281Y-69594269D01*
X123569500Y-69609756D01*
X123569500Y-71165556D01*
X123550593Y-71223747D01*
X123540505Y-71235558D01*
X123514482Y-71261581D01*
X123514480Y-71261583D01*
X123514480Y-71261584D01*
X123435423Y-71398516D01*
X123394500Y-71551243D01*
X123394500Y-71709357D01*
X123435423Y-71862084D01*
X123514480Y-71999016D01*
X123626284Y-72110820D01*
X123763216Y-72189877D01*
X123915943Y-72230800D01*
X123915945Y-72230800D01*
X124074055Y-72230800D01*
X124074057Y-72230800D01*
X124226784Y-72189877D01*
X124363716Y-72110820D01*
X124475520Y-71999016D01*
X124554577Y-71862084D01*
X124595500Y-71709357D01*
X124595500Y-71551243D01*
X124554577Y-71398516D01*
X124475520Y-71261584D01*
X124475517Y-71261581D01*
X124449495Y-71235558D01*
X124421719Y-71181041D01*
X124420500Y-71165556D01*
X124420500Y-70920943D01*
X129089700Y-70920943D01*
X129089700Y-71079057D01*
X129130623Y-71231784D01*
X129209680Y-71368716D01*
X129321484Y-71480520D01*
X129458416Y-71559577D01*
X129611143Y-71600500D01*
X129611145Y-71600500D01*
X129769255Y-71600500D01*
X129769257Y-71600500D01*
X129921984Y-71559577D01*
X130058916Y-71480520D01*
X130170720Y-71368716D01*
X130249777Y-71231784D01*
X130290700Y-71079057D01*
X130290700Y-71042255D01*
X130309607Y-70984064D01*
X130319690Y-70972257D01*
X131340485Y-69951463D01*
X131396503Y-69854437D01*
X131425500Y-69746218D01*
X131425500Y-69634182D01*
X131425500Y-64708443D01*
X131444407Y-64650252D01*
X131454490Y-64638445D01*
X131480520Y-64612416D01*
X131559577Y-64475484D01*
X131600500Y-64322757D01*
X131600500Y-64164643D01*
X131559577Y-64011916D01*
X131480520Y-63874984D01*
X131368716Y-63763180D01*
X131231784Y-63684123D01*
X131079057Y-63643200D01*
X130920943Y-63643200D01*
X130768216Y-63684123D01*
X130631284Y-63763180D01*
X130519480Y-63874984D01*
X130440423Y-64011916D01*
X130399500Y-64164643D01*
X130399500Y-64322757D01*
X130440423Y-64475484D01*
X130519480Y-64612416D01*
X130545505Y-64638441D01*
X130573281Y-64692956D01*
X130574500Y-64708443D01*
X130574500Y-69472944D01*
X130555593Y-69531135D01*
X130545504Y-69542948D01*
X129717948Y-70370504D01*
X129663431Y-70398281D01*
X129647944Y-70399500D01*
X129611143Y-70399500D01*
X129458416Y-70440423D01*
X129321484Y-70519480D01*
X129209680Y-70631284D01*
X129130623Y-70768216D01*
X129089700Y-70920943D01*
X124420500Y-70920943D01*
X124420500Y-69336483D01*
X124420500Y-69336482D01*
X124391503Y-69228263D01*
X124348378Y-69153569D01*
X124335657Y-69093722D01*
X124360543Y-69037827D01*
X124413531Y-69007234D01*
X124474381Y-69013629D01*
X124504115Y-69034063D01*
X125056137Y-69586085D01*
X125056139Y-69586086D01*
X125153159Y-69642101D01*
X125153157Y-69642101D01*
X125153161Y-69642102D01*
X125153163Y-69642103D01*
X125261382Y-69671100D01*
X125373419Y-69671100D01*
X128597756Y-69671100D01*
X128655947Y-69690007D01*
X128667758Y-69700095D01*
X128682548Y-69714884D01*
X128693784Y-69726120D01*
X128830716Y-69805177D01*
X128983443Y-69846100D01*
X128983445Y-69846100D01*
X129141555Y-69846100D01*
X129141557Y-69846100D01*
X129294284Y-69805177D01*
X129431216Y-69726120D01*
X129543020Y-69614316D01*
X129622077Y-69477384D01*
X129663000Y-69324657D01*
X129663000Y-69166543D01*
X129622077Y-69013816D01*
X129543020Y-68876884D01*
X129431216Y-68765080D01*
X129431213Y-68765078D01*
X129427689Y-68761554D01*
X129399912Y-68707037D01*
X129409483Y-68646605D01*
X129427686Y-68621549D01*
X129480520Y-68568716D01*
X129559577Y-68431784D01*
X129600500Y-68279057D01*
X129600500Y-68120943D01*
X129559577Y-67968216D01*
X129480520Y-67831284D01*
X129368716Y-67719480D01*
X129315836Y-67688950D01*
X129274897Y-67643482D01*
X129268501Y-67582632D01*
X129295332Y-67533213D01*
X129943760Y-66884786D01*
X129943763Y-66884785D01*
X130022985Y-66805563D01*
X130079003Y-66708537D01*
X130108000Y-66600318D01*
X130108000Y-58681182D01*
X130079003Y-58572963D01*
X130079001Y-58572960D01*
X130079001Y-58572958D01*
X130022985Y-58475937D01*
X129943763Y-58396714D01*
X129943763Y-58396715D01*
X126074796Y-54527748D01*
X126047019Y-54473231D01*
X126045800Y-54457744D01*
X126045800Y-54420944D01*
X126033829Y-54376268D01*
X126004877Y-54268216D01*
X125925820Y-54131284D01*
X125814016Y-54019480D01*
X125677084Y-53940423D01*
X125524357Y-53899500D01*
X125366243Y-53899500D01*
X125213516Y-53940423D01*
X125076584Y-54019480D01*
X124964780Y-54131284D01*
X124885723Y-54268216D01*
X124844800Y-54420943D01*
X124844800Y-54579057D01*
X124885723Y-54731784D01*
X124964780Y-54868716D01*
X125076584Y-54980520D01*
X125213516Y-55059577D01*
X125366243Y-55100500D01*
X125403044Y-55100500D01*
X125461235Y-55119407D01*
X125473048Y-55129496D01*
X129228004Y-58884452D01*
X129255781Y-58938969D01*
X129257000Y-58954456D01*
X129257000Y-63561860D01*
X129238093Y-63620051D01*
X129188593Y-63656015D01*
X129132378Y-63657487D01*
X129104560Y-63650033D01*
X129079057Y-63643200D01*
X128920943Y-63643200D01*
X128793885Y-63677245D01*
X128768216Y-63684123D01*
X128631284Y-63763180D01*
X128519480Y-63874984D01*
X128440423Y-64011916D01*
X128399500Y-64164644D01*
X128399500Y-64201444D01*
X128380593Y-64259635D01*
X128370504Y-64271448D01*
X126668048Y-65973904D01*
X126613531Y-66001681D01*
X126598044Y-66002900D01*
X124669929Y-66002900D01*
X124611738Y-65983993D01*
X124575774Y-65934493D01*
X124574303Y-65878276D01*
X124576799Y-65868959D01*
X124576800Y-65868956D01*
X124576800Y-65710844D01*
X124576800Y-65710843D01*
X124535877Y-65558116D01*
X124456820Y-65421184D01*
X124345016Y-65309380D01*
X124208084Y-65230323D01*
X124055357Y-65189400D01*
X124055355Y-65189400D01*
X124018556Y-65189400D01*
X123960365Y-65170493D01*
X123948552Y-65160404D01*
X123355296Y-64567148D01*
X123327519Y-64512631D01*
X123326300Y-64497144D01*
X123326300Y-55812365D01*
X123333524Y-55790128D01*
X123337279Y-55767051D01*
X123342802Y-55761573D01*
X123345207Y-55754174D01*
X123364125Y-55740428D01*
X123380725Y-55723968D01*
X123387782Y-55723241D01*
X123394707Y-55718210D01*
X123441196Y-55714650D01*
X123446112Y-55715449D01*
X123515343Y-55734000D01*
X123560141Y-55734000D01*
X123568040Y-55735285D01*
X123588472Y-55745803D01*
X123610335Y-55752907D01*
X123622148Y-55762996D01*
X126567504Y-58708352D01*
X126595281Y-58762869D01*
X126596500Y-58778356D01*
X126596500Y-59032756D01*
X126577593Y-59090947D01*
X126567505Y-59102758D01*
X126541582Y-59128681D01*
X126541580Y-59128683D01*
X126541580Y-59128684D01*
X126462523Y-59265616D01*
X126421600Y-59418343D01*
X126421600Y-59576457D01*
X126462523Y-59729184D01*
X126541580Y-59866116D01*
X126653384Y-59977920D01*
X126790316Y-60056977D01*
X126943043Y-60097900D01*
X126943045Y-60097900D01*
X127101155Y-60097900D01*
X127101157Y-60097900D01*
X127253884Y-60056977D01*
X127390816Y-59977920D01*
X127502620Y-59866116D01*
X127581677Y-59729184D01*
X127622600Y-59576457D01*
X127622600Y-59418343D01*
X127581677Y-59265616D01*
X127502620Y-59128684D01*
X127489619Y-59115683D01*
X127476495Y-59102558D01*
X127448719Y-59048041D01*
X127447500Y-59032556D01*
X127447500Y-58505081D01*
X127437771Y-58468775D01*
X127437771Y-58468774D01*
X127418503Y-58396863D01*
X127412383Y-58386264D01*
X127399204Y-58363435D01*
X127399204Y-58363434D01*
X127362488Y-58299841D01*
X127362484Y-58299836D01*
X127283263Y-58220614D01*
X127283263Y-58220615D01*
X124223896Y-55161248D01*
X124196119Y-55106731D01*
X124194900Y-55091244D01*
X124194900Y-55054444D01*
X124194900Y-55054443D01*
X124153977Y-54901716D01*
X124074920Y-54764784D01*
X123963116Y-54652980D01*
X123940541Y-54639946D01*
X123899602Y-54594477D01*
X123893207Y-54533627D01*
X123920037Y-54484209D01*
X125103598Y-53300647D01*
X125158113Y-53272872D01*
X125199221Y-53275025D01*
X125340943Y-53313000D01*
X125340945Y-53313000D01*
X125499055Y-53313000D01*
X125499057Y-53313000D01*
X125651784Y-53272077D01*
X125788716Y-53193020D01*
X125900520Y-53081216D01*
X125979577Y-52944284D01*
X126020500Y-52791557D01*
X126020500Y-52633443D01*
X125979577Y-52480716D01*
X125900520Y-52343784D01*
X125788716Y-52231980D01*
X125788713Y-52231978D01*
X125784127Y-52227392D01*
X125785218Y-52226300D01*
X125754919Y-52182215D01*
X125756520Y-52121051D01*
X125786963Y-52077629D01*
X125793265Y-52072446D01*
X125814616Y-52060120D01*
X125844045Y-52030690D01*
X125847765Y-52027632D01*
X125871986Y-52018124D01*
X125895159Y-52006319D01*
X125903799Y-52005638D01*
X125904721Y-52005277D01*
X125905575Y-52005499D01*
X125910644Y-52005100D01*
X125972344Y-52005100D01*
X126030535Y-52024007D01*
X126042348Y-52034096D01*
X130681976Y-56673724D01*
X130709753Y-56728241D01*
X130709070Y-56763041D01*
X130699500Y-56811152D01*
X130699500Y-56968844D01*
X130730263Y-57123496D01*
X130730263Y-57123498D01*
X130790603Y-57269174D01*
X130790609Y-57269185D01*
X130822005Y-57316171D01*
X130878211Y-57400289D01*
X130989711Y-57511789D01*
X131045126Y-57548816D01*
X131120814Y-57599390D01*
X131120825Y-57599396D01*
X131161286Y-57616155D01*
X131266503Y-57659737D01*
X131421158Y-57690500D01*
X131421159Y-57690500D01*
X131578841Y-57690500D01*
X131578842Y-57690500D01*
X131733497Y-57659737D01*
X131879179Y-57599394D01*
X132010289Y-57511789D01*
X132121789Y-57400289D01*
X132209394Y-57269179D01*
X132269737Y-57123497D01*
X132300500Y-56968842D01*
X132300500Y-56811158D01*
X132269737Y-56656503D01*
X132209394Y-56510821D01*
X132209393Y-56510819D01*
X132209390Y-56510814D01*
X132145044Y-56414515D01*
X132121789Y-56379711D01*
X132121784Y-56379706D01*
X132121781Y-56379702D01*
X132067082Y-56325004D01*
X132039304Y-56270488D01*
X132048875Y-56210056D01*
X132067082Y-56184996D01*
X132121781Y-56130297D01*
X132121789Y-56130289D01*
X132209394Y-55999179D01*
X132269737Y-55853497D01*
X132300500Y-55698842D01*
X132300500Y-55541158D01*
X132269737Y-55386503D01*
X132209394Y-55240821D01*
X132209393Y-55240819D01*
X132209390Y-55240814D01*
X132136850Y-55132252D01*
X132121789Y-55109711D01*
X132121784Y-55109706D01*
X132121781Y-55109702D01*
X132067082Y-55055004D01*
X132039304Y-55000488D01*
X132048875Y-54940056D01*
X132067082Y-54914996D01*
X132121781Y-54860297D01*
X132121789Y-54860289D01*
X132209394Y-54729179D01*
X132269737Y-54583497D01*
X132300500Y-54428842D01*
X132300500Y-54271158D01*
X132269737Y-54116503D01*
X132209453Y-53970963D01*
X132209396Y-53970825D01*
X132209390Y-53970814D01*
X132152275Y-53885337D01*
X132121789Y-53839711D01*
X132121784Y-53839706D01*
X132121781Y-53839702D01*
X132067082Y-53785004D01*
X132039304Y-53730488D01*
X132048875Y-53670056D01*
X132067082Y-53644996D01*
X132121781Y-53590297D01*
X132121789Y-53590289D01*
X132209394Y-53459179D01*
X132269737Y-53313497D01*
X132300500Y-53158842D01*
X132300500Y-53001158D01*
X132269737Y-52846503D01*
X132246977Y-52791555D01*
X132209396Y-52700825D01*
X132209390Y-52700814D01*
X132125225Y-52574854D01*
X132121789Y-52569711D01*
X132121784Y-52569706D01*
X132121781Y-52569702D01*
X132067082Y-52515004D01*
X132039304Y-52460488D01*
X132048875Y-52400056D01*
X132067082Y-52374996D01*
X132121781Y-52320297D01*
X132121789Y-52320289D01*
X132209394Y-52189179D01*
X132269737Y-52043497D01*
X132300500Y-51888842D01*
X132300500Y-51731158D01*
X132269737Y-51576503D01*
X132227118Y-51473611D01*
X132209396Y-51430825D01*
X132209390Y-51430814D01*
X132174017Y-51377876D01*
X132121789Y-51299711D01*
X132121784Y-51299706D01*
X132121781Y-51299702D01*
X132067082Y-51245004D01*
X132039304Y-51190488D01*
X132048875Y-51130056D01*
X132067082Y-51104996D01*
X132121781Y-51050297D01*
X132121789Y-51050289D01*
X132209394Y-50919179D01*
X132269737Y-50773497D01*
X132300500Y-50618842D01*
X132300500Y-50461158D01*
X132269737Y-50306503D01*
X132249622Y-50257942D01*
X132209396Y-50160825D01*
X132209390Y-50160814D01*
X132174017Y-50107876D01*
X132121789Y-50029711D01*
X132010289Y-49918211D01*
X131933741Y-49867063D01*
X131879185Y-49830609D01*
X131879174Y-49830603D01*
X131729004Y-49768402D01*
X131729343Y-49767582D01*
X131692884Y-49745727D01*
X131542158Y-49595000D01*
X131542787Y-49595000D01*
X131625445Y-49572851D01*
X131699554Y-49530064D01*
X131760064Y-49469554D01*
X131802851Y-49395445D01*
X131825000Y-49312787D01*
X131825000Y-49312157D01*
X132190058Y-49677215D01*
X132208953Y-49648938D01*
X132269256Y-49503352D01*
X132269256Y-49503350D01*
X132299999Y-49348795D01*
X132300000Y-49348792D01*
X132300000Y-49191207D01*
X132299999Y-49191204D01*
X132269257Y-49036650D01*
X132208951Y-48891058D01*
X132183979Y-48853686D01*
X132167370Y-48794798D01*
X132188547Y-48737395D01*
X132196282Y-48728688D01*
X132252206Y-48672765D01*
X132297585Y-48569991D01*
X132300500Y-48544865D01*
X132300499Y-47455136D01*
X132297585Y-47430009D01*
X132252206Y-47327235D01*
X132172765Y-47247794D01*
X132069991Y-47202415D01*
X132069990Y-47202414D01*
X132069988Y-47202414D01*
X132044868Y-47199500D01*
X130955139Y-47199500D01*
X130955136Y-47199501D01*
X130930009Y-47202414D01*
X130827235Y-47247794D01*
X130747793Y-47327236D01*
X130719864Y-47390489D01*
X130679063Y-47436084D01*
X130629300Y-47449500D01*
X127764433Y-47449500D01*
X127706242Y-47430593D01*
X127694429Y-47420504D01*
X126348992Y-46075067D01*
X126321898Y-46024377D01*
X126303080Y-45929772D01*
X126250275Y-45802289D01*
X126250274Y-45802287D01*
X126250271Y-45802282D01*
X126173614Y-45687558D01*
X126076041Y-45589985D01*
X125961317Y-45513328D01*
X125961306Y-45513322D01*
X125833828Y-45460520D01*
X125698495Y-45433600D01*
X125698493Y-45433600D01*
X125560507Y-45433600D01*
X125560504Y-45433600D01*
X125425172Y-45460520D01*
X125425170Y-45460520D01*
X125297693Y-45513322D01*
X125297682Y-45513328D01*
X125182958Y-45589985D01*
X125085385Y-45687558D01*
X125008728Y-45802282D01*
X125008722Y-45802293D01*
X124955920Y-45929770D01*
X124955920Y-45929772D01*
X124929000Y-46065104D01*
X124929000Y-46203095D01*
X124955920Y-46338427D01*
X124955920Y-46338429D01*
X125008722Y-46465906D01*
X125008728Y-46465917D01*
X125085385Y-46580641D01*
X125182958Y-46678214D01*
X125297682Y-46754871D01*
X125297693Y-46754877D01*
X125344783Y-46774382D01*
X125425172Y-46807680D01*
X125519777Y-46826498D01*
X125570467Y-46853592D01*
X125997371Y-47280496D01*
X126025148Y-47335013D01*
X126015577Y-47395445D01*
X125972312Y-47438710D01*
X125927367Y-47449500D01*
X109098525Y-47449500D01*
X108958515Y-47487016D01*
X108832985Y-47559490D01*
X107740967Y-48651507D01*
X107690278Y-48678601D01*
X107595671Y-48697420D01*
X107468193Y-48750222D01*
X107468182Y-48750228D01*
X107353458Y-48826885D01*
X107255885Y-48924458D01*
X107179228Y-49039182D01*
X107179222Y-49039193D01*
X107126420Y-49166670D01*
X107126420Y-49166672D01*
X107099500Y-49302004D01*
X107099500Y-49439995D01*
X107124721Y-49566786D01*
X107117529Y-49627547D01*
X107075997Y-49672477D01*
X107027623Y-49685100D01*
X101513456Y-49685100D01*
X101455265Y-49666193D01*
X101443452Y-49656104D01*
X101229496Y-49442148D01*
X101201719Y-49387631D01*
X101200500Y-49372144D01*
X101200500Y-49335344D01*
X101194456Y-49312787D01*
X101159577Y-49182616D01*
X101080520Y-49045684D01*
X100968716Y-48933880D01*
X100831784Y-48854823D01*
X100679057Y-48813900D01*
X100520943Y-48813900D01*
X100368216Y-48854823D01*
X100231284Y-48933880D01*
X100119480Y-49045684D01*
X100040423Y-49182616D01*
X99999500Y-49335343D01*
X99999500Y-49493457D01*
X100040423Y-49646184D01*
X100119480Y-49783116D01*
X100231284Y-49894920D01*
X100368216Y-49973977D01*
X100520943Y-50014900D01*
X100557744Y-50014900D01*
X100615935Y-50033807D01*
X100627748Y-50043896D01*
X100955715Y-50371863D01*
X100955714Y-50371863D01*
X101034937Y-50451085D01*
X101131959Y-50507101D01*
X101131957Y-50507101D01*
X101131961Y-50507102D01*
X101131963Y-50507103D01*
X101240181Y-50536100D01*
X101240182Y-50536100D01*
X101240183Y-50536100D01*
X108227216Y-50536100D01*
X108227218Y-50536100D01*
X108335437Y-50507103D01*
X108335439Y-50507101D01*
X108335441Y-50507101D01*
X108364264Y-50490459D01*
X108432463Y-50451085D01*
X108840150Y-50043397D01*
X108894665Y-50015622D01*
X108955097Y-50025193D01*
X108998362Y-50068458D01*
X109007933Y-50128890D01*
X109005779Y-50139025D01*
X108997200Y-50171043D01*
X108997200Y-50329157D01*
X109038123Y-50481884D01*
X109117180Y-50618816D01*
X109228984Y-50730620D01*
X109365916Y-50809677D01*
X109518643Y-50850600D01*
X109626155Y-50850600D01*
X109684346Y-50869507D01*
X109696159Y-50879596D01*
X109898466Y-51081903D01*
X109926243Y-51136420D01*
X109916672Y-51196852D01*
X109873407Y-51240117D01*
X109812975Y-51249688D01*
X109802843Y-51247534D01*
X109673957Y-51213000D01*
X109515843Y-51213000D01*
X109363116Y-51253923D01*
X109226184Y-51332980D01*
X109114380Y-51444784D01*
X109035323Y-51581716D01*
X108994400Y-51734443D01*
X108994400Y-51892557D01*
X109035323Y-52045284D01*
X109114380Y-52182216D01*
X109226184Y-52294020D01*
X109363116Y-52373077D01*
X109515843Y-52414000D01*
X109515845Y-52414000D01*
X109673955Y-52414000D01*
X109673957Y-52414000D01*
X109826684Y-52373077D01*
X109963616Y-52294020D01*
X110001629Y-52256006D01*
X110039641Y-52217996D01*
X110094158Y-52190219D01*
X110109644Y-52189000D01*
X110416155Y-52189000D01*
X110474346Y-52207907D01*
X110486159Y-52217996D01*
X111055545Y-52787382D01*
X111083322Y-52841899D01*
X111073751Y-52902331D01*
X111038242Y-52939750D01*
X111038533Y-52940129D01*
X111036142Y-52941963D01*
X111035046Y-52943119D01*
X111033391Y-52944074D01*
X111033387Y-52944077D01*
X111033384Y-52944080D01*
X110921580Y-53055884D01*
X110842523Y-53192816D01*
X110810187Y-53313498D01*
X110801600Y-53345544D01*
X110801600Y-53453055D01*
X110782693Y-53511246D01*
X110772604Y-53523059D01*
X109871638Y-54424025D01*
X109871637Y-54424024D01*
X109801724Y-54493938D01*
X109752291Y-54579559D01*
X109752288Y-54579565D01*
X109743391Y-54612774D01*
X109743391Y-54612775D01*
X109735979Y-54640437D01*
X109726700Y-54675065D01*
X109726700Y-54675067D01*
X109726700Y-55341585D01*
X109707793Y-55399776D01*
X109658293Y-55435740D01*
X109602078Y-55437212D01*
X109591957Y-55434500D01*
X109433843Y-55434500D01*
X109281116Y-55475423D01*
X109144184Y-55554480D01*
X109032380Y-55666284D01*
X108953323Y-55803216D01*
X108912400Y-55955943D01*
X108912400Y-56114057D01*
X108953323Y-56266784D01*
X109001608Y-56350416D01*
X109010037Y-56365015D01*
X109023300Y-56414515D01*
X109023300Y-58636935D01*
X109004393Y-58695126D01*
X108954893Y-58731090D01*
X108907715Y-58732329D01*
X108907489Y-58734047D01*
X108901057Y-58733200D01*
X108742943Y-58733200D01*
X108590216Y-58774123D01*
X108453281Y-58853182D01*
X108377259Y-58929204D01*
X108322742Y-58956981D01*
X108307256Y-58958200D01*
X103572036Y-58958200D01*
X103473164Y-58958200D01*
X103425413Y-58970995D01*
X103425412Y-58970994D01*
X103377662Y-58983789D01*
X103377658Y-58983791D01*
X103292036Y-59033225D01*
X103292037Y-59033226D01*
X99582138Y-62743125D01*
X99582137Y-62743124D01*
X99512224Y-62813038D01*
X99462791Y-62898658D01*
X99462788Y-62898665D01*
X99454007Y-62931436D01*
X99454008Y-62931437D01*
X99440386Y-62982274D01*
X99440384Y-62982282D01*
X99439632Y-62985090D01*
X99437200Y-62994165D01*
X97800500Y-62994165D01*
X97800500Y-45099000D01*
X97819407Y-45040809D01*
X97868907Y-45004845D01*
X97899500Y-45000000D01*
X137100500Y-45000000D01*
X137158691Y-45018907D01*
G37*
%TD.AperFunction*%
%TD*%
M02*
