%TF.GenerationSoftware,KiCad,Pcbnew,9.0.7*%
%TF.CreationDate,2026-10-06T21:24:05+05:30*%
%TF.ProjectId,AWD-FieldNode,4157442d-4669-4656-9c64-4e6f64652e6b,rev?*%
%TF.SameCoordinates,Original*%
%TF.FileFunction,Drillmap*%
%TF.FilePolarity,Positive*%
%FSLAX45Y45*%
G04 Gerber Fmt 4.5, Leading zero omitted, Abs format (unit mm)*
G04 Created by KiCad (PCBNEW 9.0.7) date 2026-10-06 21:24:05*
%MOMM*%
%LPD*%
G01*
G04 APERTURE LIST*
%ADD10C,0.100000*%
%ADD11C,0.200000*%
G04 APERTURE END LIST*
D10*
X12250000Y-10000000D02*
X12250000Y-39500000D01*
X13750000Y-10000000D02*
X12250000Y-10000000D01*
X9750000Y-10000000D02*
X9750000Y-4000000D01*
X11250000Y-10000000D02*
X9750000Y-10000000D01*
X11250000Y-39500000D02*
X11250000Y-10000000D01*
X9750000Y-4000000D02*
X13750000Y-4000000D01*
X12250000Y-39500000D02*
G75*
G02*
X11250000Y-39500000I-500000J0D01*
G01*
X13750000Y-4000000D02*
X13750000Y-10000000D01*
D11*
X10005777Y-40316484D02*
X10005777Y-40116484D01*
X10005777Y-40116484D02*
X10053396Y-40116484D01*
X10053396Y-40116484D02*
X10081967Y-40126008D01*
X10081967Y-40126008D02*
X10101015Y-40145055D01*
X10101015Y-40145055D02*
X10110539Y-40164103D01*
X10110539Y-40164103D02*
X10120063Y-40202198D01*
X10120063Y-40202198D02*
X10120063Y-40230770D01*
X10120063Y-40230770D02*
X10110539Y-40268865D01*
X10110539Y-40268865D02*
X10101015Y-40287912D01*
X10101015Y-40287912D02*
X10081967Y-40306960D01*
X10081967Y-40306960D02*
X10053396Y-40316484D01*
X10053396Y-40316484D02*
X10005777Y-40316484D01*
X10205777Y-40316484D02*
X10205777Y-40183150D01*
X10205777Y-40221246D02*
X10215301Y-40202198D01*
X10215301Y-40202198D02*
X10224824Y-40192674D01*
X10224824Y-40192674D02*
X10243872Y-40183150D01*
X10243872Y-40183150D02*
X10262920Y-40183150D01*
X10329586Y-40316484D02*
X10329586Y-40183150D01*
X10329586Y-40116484D02*
X10320063Y-40126008D01*
X10320063Y-40126008D02*
X10329586Y-40135531D01*
X10329586Y-40135531D02*
X10339110Y-40126008D01*
X10339110Y-40126008D02*
X10329586Y-40116484D01*
X10329586Y-40116484D02*
X10329586Y-40135531D01*
X10453396Y-40316484D02*
X10434348Y-40306960D01*
X10434348Y-40306960D02*
X10424824Y-40287912D01*
X10424824Y-40287912D02*
X10424824Y-40116484D01*
X10558158Y-40316484D02*
X10539110Y-40306960D01*
X10539110Y-40306960D02*
X10529586Y-40287912D01*
X10529586Y-40287912D02*
X10529586Y-40116484D01*
X10786729Y-40316484D02*
X10786729Y-40116484D01*
X10786729Y-40116484D02*
X10853396Y-40259341D01*
X10853396Y-40259341D02*
X10920063Y-40116484D01*
X10920063Y-40116484D02*
X10920063Y-40316484D01*
X11101015Y-40316484D02*
X11101015Y-40211722D01*
X11101015Y-40211722D02*
X11091491Y-40192674D01*
X11091491Y-40192674D02*
X11072444Y-40183150D01*
X11072444Y-40183150D02*
X11034348Y-40183150D01*
X11034348Y-40183150D02*
X11015301Y-40192674D01*
X11101015Y-40306960D02*
X11081967Y-40316484D01*
X11081967Y-40316484D02*
X11034348Y-40316484D01*
X11034348Y-40316484D02*
X11015301Y-40306960D01*
X11015301Y-40306960D02*
X11005777Y-40287912D01*
X11005777Y-40287912D02*
X11005777Y-40268865D01*
X11005777Y-40268865D02*
X11015301Y-40249817D01*
X11015301Y-40249817D02*
X11034348Y-40240293D01*
X11034348Y-40240293D02*
X11081967Y-40240293D01*
X11081967Y-40240293D02*
X11101015Y-40230770D01*
X11196253Y-40183150D02*
X11196253Y-40383150D01*
X11196253Y-40192674D02*
X11215301Y-40183150D01*
X11215301Y-40183150D02*
X11253396Y-40183150D01*
X11253396Y-40183150D02*
X11272443Y-40192674D01*
X11272443Y-40192674D02*
X11281967Y-40202198D01*
X11281967Y-40202198D02*
X11291491Y-40221246D01*
X11291491Y-40221246D02*
X11291491Y-40278389D01*
X11291491Y-40278389D02*
X11281967Y-40297436D01*
X11281967Y-40297436D02*
X11272443Y-40306960D01*
X11272443Y-40306960D02*
X11253396Y-40316484D01*
X11253396Y-40316484D02*
X11215301Y-40316484D01*
X11215301Y-40316484D02*
X11196253Y-40306960D01*
X11377205Y-40297436D02*
X11386729Y-40306960D01*
X11386729Y-40306960D02*
X11377205Y-40316484D01*
X11377205Y-40316484D02*
X11367682Y-40306960D01*
X11367682Y-40306960D02*
X11377205Y-40297436D01*
X11377205Y-40297436D02*
X11377205Y-40316484D01*
X11377205Y-40192674D02*
X11386729Y-40202198D01*
X11386729Y-40202198D02*
X11377205Y-40211722D01*
X11377205Y-40211722D02*
X11367682Y-40202198D01*
X11367682Y-40202198D02*
X11377205Y-40192674D01*
X11377205Y-40192674D02*
X11377205Y-40211722D01*
M02*
