%TF.GenerationSoftware,KiCad,Pcbnew,9.0.7*%
%TF.CreationDate,2026-10-06T21:24:05+05:30*%
%TF.ProjectId,AWD-FieldNode,4157442d-4669-4656-9c64-4e6f64652e6b,rev?*%
%TF.SameCoordinates,Original*%
%TF.FileFunction,Legend,Top*%
%TF.FilePolarity,Positive*%
%FSLAX46Y46*%
G04 Gerber Fmt 4.6, Leading zero omitted, Abs format (unit mm)*
G04 Created by KiCad (PCBNEW 9.0.7) date 2026-10-06 21:24:05*
%MOMM*%
%LPD*%
G01*
G04 APERTURE LIST*
G04 Aperture macros list*
%AMRoundRect*
0 Rectangle with rounded corners*
0 $1 Rounding radius*
0 $2 $3 $4 $5 $6 $7 $8 $9 X,Y pos of 4 corners*
0 Add a 4 corners polygon primitive as box body*
4,1,4,$2,$3,$4,$5,$6,$7,$8,$9,$2,$3,0*
0 Add four circle primitives for the rounded corners*
1,1,$1+$1,$2,$3*
1,1,$1+$1,$4,$5*
1,1,$1+$1,$6,$7*
1,1,$1+$1,$8,$9*
0 Add four rect primitives between the rounded corners*
20,1,$1+$1,$2,$3,$4,$5,0*
20,1,$1+$1,$4,$5,$6,$7,0*
20,1,$1+$1,$6,$7,$8,$9,0*
20,1,$1+$1,$8,$9,$2,$3,0*%
%AMOutline5P*
0 Free polygon, 5 corners , with rotation*
0 The origin of the aperture is its center*
0 number of corners: always 5*
0 $1 to $10 corner X, Y*
0 $11 Rotation angle, in degrees counterclockwise*
0 create outline with 5 corners*
4,1,5,$1,$2,$3,$4,$5,$6,$7,$8,$9,$10,$1,$2,$11*%
%AMOutline6P*
0 Free polygon, 6 corners , with rotation*
0 The origin of the aperture is its center*
0 number of corners: always 6*
0 $1 to $12 corner X, Y*
0 $13 Rotation angle, in degrees counterclockwise*
0 create outline with 6 corners*
4,1,6,$1,$2,$3,$4,$5,$6,$7,$8,$9,$10,$11,$12,$1,$2,$13*%
%AMOutline7P*
0 Free polygon, 7 corners , with rotation*
0 The origin of the aperture is its center*
0 number of corners: always 7*
0 $1 to $14 corner X, Y*
0 $15 Rotation angle, in degrees counterclockwise*
0 create outline with 7 corners*
4,1,7,$1,$2,$3,$4,$5,$6,$7,$8,$9,$10,$11,$12,$13,$14,$1,$2,$15*%
%AMOutline8P*
0 Free polygon, 8 corners , with rotation*
0 The origin of the aperture is its center*
0 number of corners: always 8*
0 $1 to $16 corner X, Y*
0 $17 Rotation angle, in degrees counterclockwise*
0 create outline with 8 corners*
4,1,8,$1,$2,$3,$4,$5,$6,$7,$8,$9,$10,$11,$12,$13,$14,$15,$16,$1,$2,$17*%
G04 Aperture macros list end*
%ADD10C,0.300000*%
%ADD11C,0.180000*%
%ADD12C,0.150000*%
%ADD13C,0.120000*%
%ADD14RoundRect,0.135000X-0.185000X0.135000X-0.185000X-0.135000X0.185000X-0.135000X0.185000X0.135000X0*%
%ADD15RoundRect,0.200000X0.275000X-0.200000X0.275000X0.200000X-0.275000X0.200000X-0.275000X-0.200000X0*%
%ADD16RoundRect,0.150000X-0.587500X-0.150000X0.587500X-0.150000X0.587500X0.150000X-0.587500X0.150000X0*%
%ADD17R,0.800000X0.400000*%
%ADD18R,0.400000X0.800000*%
%ADD19Outline5P,-0.600000X0.204000X-0.204000X0.600000X0.600000X0.600000X0.600000X-0.600000X-0.600000X-0.600000X0.000000*%
%ADD20R,1.200000X1.200000*%
%ADD21R,0.800000X0.800000*%
%ADD22RoundRect,0.250000X0.475000X-0.250000X0.475000X0.250000X-0.475000X0.250000X-0.475000X-0.250000X0*%
%ADD23C,1.500000*%
%ADD24RoundRect,0.200000X-0.200000X-0.275000X0.200000X-0.275000X0.200000X0.275000X-0.200000X0.275000X0*%
%ADD25R,1.000000X1.700000*%
%ADD26RoundRect,0.225000X0.250000X-0.225000X0.250000X0.225000X-0.250000X0.225000X-0.250000X-0.225000X0*%
%ADD27RoundRect,0.225000X-0.225000X-0.250000X0.225000X-0.250000X0.225000X0.250000X-0.225000X0.250000X0*%
%ADD28R,1.000000X1.000000*%
%ADD29C,1.000000*%
%ADD30RoundRect,0.218750X-0.218750X-0.256250X0.218750X-0.256250X0.218750X0.256250X-0.218750X0.256250X0*%
%ADD31RoundRect,0.250000X-0.325000X-0.650000X0.325000X-0.650000X0.325000X0.650000X-0.325000X0.650000X0*%
%ADD32R,2.000000X1.500000*%
%ADD33R,5.080000X1.500000*%
G04 APERTURE END LIST*
D10*
X112900000Y-196000000D02*
X122100000Y-196000000D01*
D11*
X115757142Y-194488640D02*
X115928571Y-194545782D01*
X115928571Y-194545782D02*
X116214285Y-194545782D01*
X116214285Y-194545782D02*
X116328571Y-194488640D01*
X116328571Y-194488640D02*
X116385713Y-194431497D01*
X116385713Y-194431497D02*
X116442856Y-194317211D01*
X116442856Y-194317211D02*
X116442856Y-194202925D01*
X116442856Y-194202925D02*
X116385713Y-194088640D01*
X116385713Y-194088640D02*
X116328571Y-194031497D01*
X116328571Y-194031497D02*
X116214285Y-193974354D01*
X116214285Y-193974354D02*
X115985713Y-193917211D01*
X115985713Y-193917211D02*
X115871428Y-193860068D01*
X115871428Y-193860068D02*
X115814285Y-193802925D01*
X115814285Y-193802925D02*
X115757142Y-193688640D01*
X115757142Y-193688640D02*
X115757142Y-193574354D01*
X115757142Y-193574354D02*
X115814285Y-193460068D01*
X115814285Y-193460068D02*
X115871428Y-193402925D01*
X115871428Y-193402925D02*
X115985713Y-193345782D01*
X115985713Y-193345782D02*
X116271428Y-193345782D01*
X116271428Y-193345782D02*
X116442856Y-193402925D01*
X117185713Y-193345782D02*
X117414285Y-193345782D01*
X117414285Y-193345782D02*
X117528570Y-193402925D01*
X117528570Y-193402925D02*
X117642856Y-193517211D01*
X117642856Y-193517211D02*
X117699999Y-193745782D01*
X117699999Y-193745782D02*
X117699999Y-194145782D01*
X117699999Y-194145782D02*
X117642856Y-194374354D01*
X117642856Y-194374354D02*
X117528570Y-194488640D01*
X117528570Y-194488640D02*
X117414285Y-194545782D01*
X117414285Y-194545782D02*
X117185713Y-194545782D01*
X117185713Y-194545782D02*
X117071428Y-194488640D01*
X117071428Y-194488640D02*
X116957142Y-194374354D01*
X116957142Y-194374354D02*
X116899999Y-194145782D01*
X116899999Y-194145782D02*
X116899999Y-193745782D01*
X116899999Y-193745782D02*
X116957142Y-193517211D01*
X116957142Y-193517211D02*
X117071428Y-193402925D01*
X117071428Y-193402925D02*
X117185713Y-193345782D01*
X118214285Y-194545782D02*
X118214285Y-193345782D01*
X119357142Y-194545782D02*
X118785714Y-194545782D01*
X118785714Y-194545782D02*
X118785714Y-193345782D01*
D12*
X128024819Y-66166666D02*
X127548628Y-66499999D01*
X128024819Y-66738094D02*
X127024819Y-66738094D01*
X127024819Y-66738094D02*
X127024819Y-66357142D01*
X127024819Y-66357142D02*
X127072438Y-66261904D01*
X127072438Y-66261904D02*
X127120057Y-66214285D01*
X127120057Y-66214285D02*
X127215295Y-66166666D01*
X127215295Y-66166666D02*
X127358152Y-66166666D01*
X127358152Y-66166666D02*
X127453390Y-66214285D01*
X127453390Y-66214285D02*
X127501009Y-66261904D01*
X127501009Y-66261904D02*
X127548628Y-66357142D01*
X127548628Y-66357142D02*
X127548628Y-66738094D01*
X127358152Y-65309523D02*
X128024819Y-65309523D01*
X126977200Y-65547618D02*
X127691485Y-65785713D01*
X127691485Y-65785713D02*
X127691485Y-65166666D01*
X102024819Y-47666666D02*
X101548628Y-47999999D01*
X102024819Y-48238094D02*
X101024819Y-48238094D01*
X101024819Y-48238094D02*
X101024819Y-47857142D01*
X101024819Y-47857142D02*
X101072438Y-47761904D01*
X101072438Y-47761904D02*
X101120057Y-47714285D01*
X101120057Y-47714285D02*
X101215295Y-47666666D01*
X101215295Y-47666666D02*
X101358152Y-47666666D01*
X101358152Y-47666666D02*
X101453390Y-47714285D01*
X101453390Y-47714285D02*
X101501009Y-47761904D01*
X101501009Y-47761904D02*
X101548628Y-47857142D01*
X101548628Y-47857142D02*
X101548628Y-48238094D01*
X101024819Y-47333332D02*
X101024819Y-46714285D01*
X101024819Y-46714285D02*
X101405771Y-47047618D01*
X101405771Y-47047618D02*
X101405771Y-46904761D01*
X101405771Y-46904761D02*
X101453390Y-46809523D01*
X101453390Y-46809523D02*
X101501009Y-46761904D01*
X101501009Y-46761904D02*
X101596247Y-46714285D01*
X101596247Y-46714285D02*
X101834342Y-46714285D01*
X101834342Y-46714285D02*
X101929580Y-46761904D01*
X101929580Y-46761904D02*
X101977200Y-46809523D01*
X101977200Y-46809523D02*
X102024819Y-46904761D01*
X102024819Y-46904761D02*
X102024819Y-47190475D01*
X102024819Y-47190475D02*
X101977200Y-47285713D01*
X101977200Y-47285713D02*
X101929580Y-47333332D01*
X129904761Y-69150057D02*
X129809523Y-69102438D01*
X129809523Y-69102438D02*
X129714285Y-69007200D01*
X129714285Y-69007200D02*
X129571428Y-68864342D01*
X129571428Y-68864342D02*
X129476190Y-68816723D01*
X129476190Y-68816723D02*
X129380952Y-68816723D01*
X129428571Y-69054819D02*
X129333333Y-69007200D01*
X129333333Y-69007200D02*
X129238095Y-68911961D01*
X129238095Y-68911961D02*
X129190476Y-68721485D01*
X129190476Y-68721485D02*
X129190476Y-68388152D01*
X129190476Y-68388152D02*
X129238095Y-68197676D01*
X129238095Y-68197676D02*
X129333333Y-68102438D01*
X129333333Y-68102438D02*
X129428571Y-68054819D01*
X129428571Y-68054819D02*
X129619047Y-68054819D01*
X129619047Y-68054819D02*
X129714285Y-68102438D01*
X129714285Y-68102438D02*
X129809523Y-68197676D01*
X129809523Y-68197676D02*
X129857142Y-68388152D01*
X129857142Y-68388152D02*
X129857142Y-68721485D01*
X129857142Y-68721485D02*
X129809523Y-68911961D01*
X129809523Y-68911961D02*
X129714285Y-69007200D01*
X129714285Y-69007200D02*
X129619047Y-69054819D01*
X129619047Y-69054819D02*
X129428571Y-69054819D01*
X130238095Y-68150057D02*
X130285714Y-68102438D01*
X130285714Y-68102438D02*
X130380952Y-68054819D01*
X130380952Y-68054819D02*
X130619047Y-68054819D01*
X130619047Y-68054819D02*
X130714285Y-68102438D01*
X130714285Y-68102438D02*
X130761904Y-68150057D01*
X130761904Y-68150057D02*
X130809523Y-68245295D01*
X130809523Y-68245295D02*
X130809523Y-68340533D01*
X130809523Y-68340533D02*
X130761904Y-68483390D01*
X130761904Y-68483390D02*
X130190476Y-69054819D01*
X130190476Y-69054819D02*
X130809523Y-69054819D01*
X110788095Y-61554819D02*
X110788095Y-62364342D01*
X110788095Y-62364342D02*
X110835714Y-62459580D01*
X110835714Y-62459580D02*
X110883333Y-62507200D01*
X110883333Y-62507200D02*
X110978571Y-62554819D01*
X110978571Y-62554819D02*
X111169047Y-62554819D01*
X111169047Y-62554819D02*
X111264285Y-62507200D01*
X111264285Y-62507200D02*
X111311904Y-62459580D01*
X111311904Y-62459580D02*
X111359523Y-62364342D01*
X111359523Y-62364342D02*
X111359523Y-61554819D01*
X112359523Y-62554819D02*
X111788095Y-62554819D01*
X112073809Y-62554819D02*
X112073809Y-61554819D01*
X112073809Y-61554819D02*
X111978571Y-61697676D01*
X111978571Y-61697676D02*
X111883333Y-61792914D01*
X111883333Y-61792914D02*
X111788095Y-61840533D01*
X104179580Y-47666666D02*
X104227200Y-47714285D01*
X104227200Y-47714285D02*
X104274819Y-47857142D01*
X104274819Y-47857142D02*
X104274819Y-47952380D01*
X104274819Y-47952380D02*
X104227200Y-48095237D01*
X104227200Y-48095237D02*
X104131961Y-48190475D01*
X104131961Y-48190475D02*
X104036723Y-48238094D01*
X104036723Y-48238094D02*
X103846247Y-48285713D01*
X103846247Y-48285713D02*
X103703390Y-48285713D01*
X103703390Y-48285713D02*
X103512914Y-48238094D01*
X103512914Y-48238094D02*
X103417676Y-48190475D01*
X103417676Y-48190475D02*
X103322438Y-48095237D01*
X103322438Y-48095237D02*
X103274819Y-47952380D01*
X103274819Y-47952380D02*
X103274819Y-47857142D01*
X103274819Y-47857142D02*
X103322438Y-47714285D01*
X103322438Y-47714285D02*
X103370057Y-47666666D01*
X103370057Y-47285713D02*
X103322438Y-47238094D01*
X103322438Y-47238094D02*
X103274819Y-47142856D01*
X103274819Y-47142856D02*
X103274819Y-46904761D01*
X103274819Y-46904761D02*
X103322438Y-46809523D01*
X103322438Y-46809523D02*
X103370057Y-46761904D01*
X103370057Y-46761904D02*
X103465295Y-46714285D01*
X103465295Y-46714285D02*
X103560533Y-46714285D01*
X103560533Y-46714285D02*
X103703390Y-46761904D01*
X103703390Y-46761904D02*
X104274819Y-47333332D01*
X104274819Y-47333332D02*
X104274819Y-46714285D01*
X133238095Y-89806819D02*
X133809523Y-89806819D01*
X133523809Y-90806819D02*
X133523809Y-89806819D01*
X134142857Y-90806819D02*
X134142857Y-89806819D01*
X134142857Y-89806819D02*
X134523809Y-89806819D01*
X134523809Y-89806819D02*
X134619047Y-89854438D01*
X134619047Y-89854438D02*
X134666666Y-89902057D01*
X134666666Y-89902057D02*
X134714285Y-89997295D01*
X134714285Y-89997295D02*
X134714285Y-90140152D01*
X134714285Y-90140152D02*
X134666666Y-90235390D01*
X134666666Y-90235390D02*
X134619047Y-90283009D01*
X134619047Y-90283009D02*
X134523809Y-90330628D01*
X134523809Y-90330628D02*
X134142857Y-90330628D01*
X135666666Y-90806819D02*
X135095238Y-90806819D01*
X135380952Y-90806819D02*
X135380952Y-89806819D01*
X135380952Y-89806819D02*
X135285714Y-89949676D01*
X135285714Y-89949676D02*
X135190476Y-90044914D01*
X135190476Y-90044914D02*
X135095238Y-90092533D01*
X127833333Y-55524819D02*
X127500000Y-55048628D01*
X127261905Y-55524819D02*
X127261905Y-54524819D01*
X127261905Y-54524819D02*
X127642857Y-54524819D01*
X127642857Y-54524819D02*
X127738095Y-54572438D01*
X127738095Y-54572438D02*
X127785714Y-54620057D01*
X127785714Y-54620057D02*
X127833333Y-54715295D01*
X127833333Y-54715295D02*
X127833333Y-54858152D01*
X127833333Y-54858152D02*
X127785714Y-54953390D01*
X127785714Y-54953390D02*
X127738095Y-55001009D01*
X127738095Y-55001009D02*
X127642857Y-55048628D01*
X127642857Y-55048628D02*
X127261905Y-55048628D01*
X128166667Y-54524819D02*
X128833333Y-54524819D01*
X128833333Y-54524819D02*
X128404762Y-55524819D01*
X101833333Y-91024819D02*
X101500000Y-90548628D01*
X101261905Y-91024819D02*
X101261905Y-90024819D01*
X101261905Y-90024819D02*
X101642857Y-90024819D01*
X101642857Y-90024819D02*
X101738095Y-90072438D01*
X101738095Y-90072438D02*
X101785714Y-90120057D01*
X101785714Y-90120057D02*
X101833333Y-90215295D01*
X101833333Y-90215295D02*
X101833333Y-90358152D01*
X101833333Y-90358152D02*
X101785714Y-90453390D01*
X101785714Y-90453390D02*
X101738095Y-90501009D01*
X101738095Y-90501009D02*
X101642857Y-90548628D01*
X101642857Y-90548628D02*
X101261905Y-90548628D01*
X102785714Y-91024819D02*
X102214286Y-91024819D01*
X102500000Y-91024819D02*
X102500000Y-90024819D01*
X102500000Y-90024819D02*
X102404762Y-90167676D01*
X102404762Y-90167676D02*
X102309524Y-90262914D01*
X102309524Y-90262914D02*
X102214286Y-90310533D01*
X133833333Y-70024819D02*
X133500000Y-69548628D01*
X133261905Y-70024819D02*
X133261905Y-69024819D01*
X133261905Y-69024819D02*
X133642857Y-69024819D01*
X133642857Y-69024819D02*
X133738095Y-69072438D01*
X133738095Y-69072438D02*
X133785714Y-69120057D01*
X133785714Y-69120057D02*
X133833333Y-69215295D01*
X133833333Y-69215295D02*
X133833333Y-69358152D01*
X133833333Y-69358152D02*
X133785714Y-69453390D01*
X133785714Y-69453390D02*
X133738095Y-69501009D01*
X133738095Y-69501009D02*
X133642857Y-69548628D01*
X133642857Y-69548628D02*
X133261905Y-69548628D01*
X134690476Y-69024819D02*
X134500000Y-69024819D01*
X134500000Y-69024819D02*
X134404762Y-69072438D01*
X134404762Y-69072438D02*
X134357143Y-69120057D01*
X134357143Y-69120057D02*
X134261905Y-69262914D01*
X134261905Y-69262914D02*
X134214286Y-69453390D01*
X134214286Y-69453390D02*
X134214286Y-69834342D01*
X134214286Y-69834342D02*
X134261905Y-69929580D01*
X134261905Y-69929580D02*
X134309524Y-69977200D01*
X134309524Y-69977200D02*
X134404762Y-70024819D01*
X134404762Y-70024819D02*
X134595238Y-70024819D01*
X134595238Y-70024819D02*
X134690476Y-69977200D01*
X134690476Y-69977200D02*
X134738095Y-69929580D01*
X134738095Y-69929580D02*
X134785714Y-69834342D01*
X134785714Y-69834342D02*
X134785714Y-69596247D01*
X134785714Y-69596247D02*
X134738095Y-69501009D01*
X134738095Y-69501009D02*
X134690476Y-69453390D01*
X134690476Y-69453390D02*
X134595238Y-69405771D01*
X134595238Y-69405771D02*
X134404762Y-69405771D01*
X134404762Y-69405771D02*
X134309524Y-69453390D01*
X134309524Y-69453390D02*
X134261905Y-69501009D01*
X134261905Y-69501009D02*
X134214286Y-69596247D01*
X99157200Y-55333332D02*
X99204819Y-55190475D01*
X99204819Y-55190475D02*
X99204819Y-54952380D01*
X99204819Y-54952380D02*
X99157200Y-54857142D01*
X99157200Y-54857142D02*
X99109580Y-54809523D01*
X99109580Y-54809523D02*
X99014342Y-54761904D01*
X99014342Y-54761904D02*
X98919104Y-54761904D01*
X98919104Y-54761904D02*
X98823866Y-54809523D01*
X98823866Y-54809523D02*
X98776247Y-54857142D01*
X98776247Y-54857142D02*
X98728628Y-54952380D01*
X98728628Y-54952380D02*
X98681009Y-55142856D01*
X98681009Y-55142856D02*
X98633390Y-55238094D01*
X98633390Y-55238094D02*
X98585771Y-55285713D01*
X98585771Y-55285713D02*
X98490533Y-55333332D01*
X98490533Y-55333332D02*
X98395295Y-55333332D01*
X98395295Y-55333332D02*
X98300057Y-55285713D01*
X98300057Y-55285713D02*
X98252438Y-55238094D01*
X98252438Y-55238094D02*
X98204819Y-55142856D01*
X98204819Y-55142856D02*
X98204819Y-54904761D01*
X98204819Y-54904761D02*
X98252438Y-54761904D01*
X98204819Y-54428570D02*
X99204819Y-54190475D01*
X99204819Y-54190475D02*
X98490533Y-53999999D01*
X98490533Y-53999999D02*
X99204819Y-53809523D01*
X99204819Y-53809523D02*
X98204819Y-53571428D01*
X99204819Y-52666666D02*
X99204819Y-53238094D01*
X99204819Y-52952380D02*
X98204819Y-52952380D01*
X98204819Y-52952380D02*
X98347676Y-53047618D01*
X98347676Y-53047618D02*
X98442914Y-53142856D01*
X98442914Y-53142856D02*
X98490533Y-53238094D01*
X106729580Y-47666666D02*
X106777200Y-47714285D01*
X106777200Y-47714285D02*
X106824819Y-47857142D01*
X106824819Y-47857142D02*
X106824819Y-47952380D01*
X106824819Y-47952380D02*
X106777200Y-48095237D01*
X106777200Y-48095237D02*
X106681961Y-48190475D01*
X106681961Y-48190475D02*
X106586723Y-48238094D01*
X106586723Y-48238094D02*
X106396247Y-48285713D01*
X106396247Y-48285713D02*
X106253390Y-48285713D01*
X106253390Y-48285713D02*
X106062914Y-48238094D01*
X106062914Y-48238094D02*
X105967676Y-48190475D01*
X105967676Y-48190475D02*
X105872438Y-48095237D01*
X105872438Y-48095237D02*
X105824819Y-47952380D01*
X105824819Y-47952380D02*
X105824819Y-47857142D01*
X105824819Y-47857142D02*
X105872438Y-47714285D01*
X105872438Y-47714285D02*
X105920057Y-47666666D01*
X105824819Y-47333332D02*
X105824819Y-46714285D01*
X105824819Y-46714285D02*
X106205771Y-47047618D01*
X106205771Y-47047618D02*
X106205771Y-46904761D01*
X106205771Y-46904761D02*
X106253390Y-46809523D01*
X106253390Y-46809523D02*
X106301009Y-46761904D01*
X106301009Y-46761904D02*
X106396247Y-46714285D01*
X106396247Y-46714285D02*
X106634342Y-46714285D01*
X106634342Y-46714285D02*
X106729580Y-46761904D01*
X106729580Y-46761904D02*
X106777200Y-46809523D01*
X106777200Y-46809523D02*
X106824819Y-46904761D01*
X106824819Y-46904761D02*
X106824819Y-47190475D01*
X106824819Y-47190475D02*
X106777200Y-47285713D01*
X106777200Y-47285713D02*
X106729580Y-47333332D01*
X127333333Y-47429580D02*
X127285714Y-47477200D01*
X127285714Y-47477200D02*
X127142857Y-47524819D01*
X127142857Y-47524819D02*
X127047619Y-47524819D01*
X127047619Y-47524819D02*
X126904762Y-47477200D01*
X126904762Y-47477200D02*
X126809524Y-47381961D01*
X126809524Y-47381961D02*
X126761905Y-47286723D01*
X126761905Y-47286723D02*
X126714286Y-47096247D01*
X126714286Y-47096247D02*
X126714286Y-46953390D01*
X126714286Y-46953390D02*
X126761905Y-46762914D01*
X126761905Y-46762914D02*
X126809524Y-46667676D01*
X126809524Y-46667676D02*
X126904762Y-46572438D01*
X126904762Y-46572438D02*
X127047619Y-46524819D01*
X127047619Y-46524819D02*
X127142857Y-46524819D01*
X127142857Y-46524819D02*
X127285714Y-46572438D01*
X127285714Y-46572438D02*
X127333333Y-46620057D01*
X128190476Y-46524819D02*
X128000000Y-46524819D01*
X128000000Y-46524819D02*
X127904762Y-46572438D01*
X127904762Y-46572438D02*
X127857143Y-46620057D01*
X127857143Y-46620057D02*
X127761905Y-46762914D01*
X127761905Y-46762914D02*
X127714286Y-46953390D01*
X127714286Y-46953390D02*
X127714286Y-47334342D01*
X127714286Y-47334342D02*
X127761905Y-47429580D01*
X127761905Y-47429580D02*
X127809524Y-47477200D01*
X127809524Y-47477200D02*
X127904762Y-47524819D01*
X127904762Y-47524819D02*
X128095238Y-47524819D01*
X128095238Y-47524819D02*
X128190476Y-47477200D01*
X128190476Y-47477200D02*
X128238095Y-47429580D01*
X128238095Y-47429580D02*
X128285714Y-47334342D01*
X128285714Y-47334342D02*
X128285714Y-47096247D01*
X128285714Y-47096247D02*
X128238095Y-47001009D01*
X128238095Y-47001009D02*
X128190476Y-46953390D01*
X128190476Y-46953390D02*
X128095238Y-46905771D01*
X128095238Y-46905771D02*
X127904762Y-46905771D01*
X127904762Y-46905771D02*
X127809524Y-46953390D01*
X127809524Y-46953390D02*
X127761905Y-47001009D01*
X127761905Y-47001009D02*
X127714286Y-47096247D01*
X131166666Y-45709819D02*
X131166666Y-46424104D01*
X131166666Y-46424104D02*
X131119047Y-46566961D01*
X131119047Y-46566961D02*
X131023809Y-46662200D01*
X131023809Y-46662200D02*
X130880952Y-46709819D01*
X130880952Y-46709819D02*
X130785714Y-46709819D01*
X131595238Y-45805057D02*
X131642857Y-45757438D01*
X131642857Y-45757438D02*
X131738095Y-45709819D01*
X131738095Y-45709819D02*
X131976190Y-45709819D01*
X131976190Y-45709819D02*
X132071428Y-45757438D01*
X132071428Y-45757438D02*
X132119047Y-45805057D01*
X132119047Y-45805057D02*
X132166666Y-45900295D01*
X132166666Y-45900295D02*
X132166666Y-45995533D01*
X132166666Y-45995533D02*
X132119047Y-46138390D01*
X132119047Y-46138390D02*
X131547619Y-46709819D01*
X131547619Y-46709819D02*
X132166666Y-46709819D01*
X130024819Y-66166666D02*
X129548628Y-66499999D01*
X130024819Y-66738094D02*
X129024819Y-66738094D01*
X129024819Y-66738094D02*
X129024819Y-66357142D01*
X129024819Y-66357142D02*
X129072438Y-66261904D01*
X129072438Y-66261904D02*
X129120057Y-66214285D01*
X129120057Y-66214285D02*
X129215295Y-66166666D01*
X129215295Y-66166666D02*
X129358152Y-66166666D01*
X129358152Y-66166666D02*
X129453390Y-66214285D01*
X129453390Y-66214285D02*
X129501009Y-66261904D01*
X129501009Y-66261904D02*
X129548628Y-66357142D01*
X129548628Y-66357142D02*
X129548628Y-66738094D01*
X129024819Y-65261904D02*
X129024819Y-65738094D01*
X129024819Y-65738094D02*
X129501009Y-65785713D01*
X129501009Y-65785713D02*
X129453390Y-65738094D01*
X129453390Y-65738094D02*
X129405771Y-65642856D01*
X129405771Y-65642856D02*
X129405771Y-65404761D01*
X129405771Y-65404761D02*
X129453390Y-65309523D01*
X129453390Y-65309523D02*
X129501009Y-65261904D01*
X129501009Y-65261904D02*
X129596247Y-65214285D01*
X129596247Y-65214285D02*
X129834342Y-65214285D01*
X129834342Y-65214285D02*
X129929580Y-65261904D01*
X129929580Y-65261904D02*
X129977200Y-65309523D01*
X129977200Y-65309523D02*
X130024819Y-65404761D01*
X130024819Y-65404761D02*
X130024819Y-65642856D01*
X130024819Y-65642856D02*
X129977200Y-65738094D01*
X129977200Y-65738094D02*
X129929580Y-65785713D01*
X131929580Y-66166666D02*
X131977200Y-66214285D01*
X131977200Y-66214285D02*
X132024819Y-66357142D01*
X132024819Y-66357142D02*
X132024819Y-66452380D01*
X132024819Y-66452380D02*
X131977200Y-66595237D01*
X131977200Y-66595237D02*
X131881961Y-66690475D01*
X131881961Y-66690475D02*
X131786723Y-66738094D01*
X131786723Y-66738094D02*
X131596247Y-66785713D01*
X131596247Y-66785713D02*
X131453390Y-66785713D01*
X131453390Y-66785713D02*
X131262914Y-66738094D01*
X131262914Y-66738094D02*
X131167676Y-66690475D01*
X131167676Y-66690475D02*
X131072438Y-66595237D01*
X131072438Y-66595237D02*
X131024819Y-66452380D01*
X131024819Y-66452380D02*
X131024819Y-66357142D01*
X131024819Y-66357142D02*
X131072438Y-66214285D01*
X131072438Y-66214285D02*
X131120057Y-66166666D01*
X131024819Y-65833332D02*
X131024819Y-65166666D01*
X131024819Y-65166666D02*
X132024819Y-65595237D01*
X102179580Y-73166666D02*
X102227200Y-73214285D01*
X102227200Y-73214285D02*
X102274819Y-73357142D01*
X102274819Y-73357142D02*
X102274819Y-73452380D01*
X102274819Y-73452380D02*
X102227200Y-73595237D01*
X102227200Y-73595237D02*
X102131961Y-73690475D01*
X102131961Y-73690475D02*
X102036723Y-73738094D01*
X102036723Y-73738094D02*
X101846247Y-73785713D01*
X101846247Y-73785713D02*
X101703390Y-73785713D01*
X101703390Y-73785713D02*
X101512914Y-73738094D01*
X101512914Y-73738094D02*
X101417676Y-73690475D01*
X101417676Y-73690475D02*
X101322438Y-73595237D01*
X101322438Y-73595237D02*
X101274819Y-73452380D01*
X101274819Y-73452380D02*
X101274819Y-73357142D01*
X101274819Y-73357142D02*
X101322438Y-73214285D01*
X101322438Y-73214285D02*
X101370057Y-73166666D01*
X101274819Y-72261904D02*
X101274819Y-72738094D01*
X101274819Y-72738094D02*
X101751009Y-72785713D01*
X101751009Y-72785713D02*
X101703390Y-72738094D01*
X101703390Y-72738094D02*
X101655771Y-72642856D01*
X101655771Y-72642856D02*
X101655771Y-72404761D01*
X101655771Y-72404761D02*
X101703390Y-72309523D01*
X101703390Y-72309523D02*
X101751009Y-72261904D01*
X101751009Y-72261904D02*
X101846247Y-72214285D01*
X101846247Y-72214285D02*
X102084342Y-72214285D01*
X102084342Y-72214285D02*
X102179580Y-72261904D01*
X102179580Y-72261904D02*
X102227200Y-72309523D01*
X102227200Y-72309523D02*
X102274819Y-72404761D01*
X102274819Y-72404761D02*
X102274819Y-72642856D01*
X102274819Y-72642856D02*
X102227200Y-72738094D01*
X102227200Y-72738094D02*
X102179580Y-72785713D01*
X101904761Y-87150057D02*
X101809523Y-87102438D01*
X101809523Y-87102438D02*
X101714285Y-87007200D01*
X101714285Y-87007200D02*
X101571428Y-86864342D01*
X101571428Y-86864342D02*
X101476190Y-86816723D01*
X101476190Y-86816723D02*
X101380952Y-86816723D01*
X101428571Y-87054819D02*
X101333333Y-87007200D01*
X101333333Y-87007200D02*
X101238095Y-86911961D01*
X101238095Y-86911961D02*
X101190476Y-86721485D01*
X101190476Y-86721485D02*
X101190476Y-86388152D01*
X101190476Y-86388152D02*
X101238095Y-86197676D01*
X101238095Y-86197676D02*
X101333333Y-86102438D01*
X101333333Y-86102438D02*
X101428571Y-86054819D01*
X101428571Y-86054819D02*
X101619047Y-86054819D01*
X101619047Y-86054819D02*
X101714285Y-86102438D01*
X101714285Y-86102438D02*
X101809523Y-86197676D01*
X101809523Y-86197676D02*
X101857142Y-86388152D01*
X101857142Y-86388152D02*
X101857142Y-86721485D01*
X101857142Y-86721485D02*
X101809523Y-86911961D01*
X101809523Y-86911961D02*
X101714285Y-87007200D01*
X101714285Y-87007200D02*
X101619047Y-87054819D01*
X101619047Y-87054819D02*
X101428571Y-87054819D01*
X102809523Y-87054819D02*
X102238095Y-87054819D01*
X102523809Y-87054819D02*
X102523809Y-86054819D01*
X102523809Y-86054819D02*
X102428571Y-86197676D01*
X102428571Y-86197676D02*
X102333333Y-86292914D01*
X102333333Y-86292914D02*
X102238095Y-86340533D01*
X127261905Y-57524819D02*
X127261905Y-56524819D01*
X127261905Y-56524819D02*
X127500000Y-56524819D01*
X127500000Y-56524819D02*
X127642857Y-56572438D01*
X127642857Y-56572438D02*
X127738095Y-56667676D01*
X127738095Y-56667676D02*
X127785714Y-56762914D01*
X127785714Y-56762914D02*
X127833333Y-56953390D01*
X127833333Y-56953390D02*
X127833333Y-57096247D01*
X127833333Y-57096247D02*
X127785714Y-57286723D01*
X127785714Y-57286723D02*
X127738095Y-57381961D01*
X127738095Y-57381961D02*
X127642857Y-57477200D01*
X127642857Y-57477200D02*
X127500000Y-57524819D01*
X127500000Y-57524819D02*
X127261905Y-57524819D01*
X128785714Y-57524819D02*
X128214286Y-57524819D01*
X128500000Y-57524819D02*
X128500000Y-56524819D01*
X128500000Y-56524819D02*
X128404762Y-56667676D01*
X128404762Y-56667676D02*
X128309524Y-56762914D01*
X128309524Y-56762914D02*
X128214286Y-56810533D01*
X127333333Y-45524819D02*
X127000000Y-45048628D01*
X126761905Y-45524819D02*
X126761905Y-44524819D01*
X126761905Y-44524819D02*
X127142857Y-44524819D01*
X127142857Y-44524819D02*
X127238095Y-44572438D01*
X127238095Y-44572438D02*
X127285714Y-44620057D01*
X127285714Y-44620057D02*
X127333333Y-44715295D01*
X127333333Y-44715295D02*
X127333333Y-44858152D01*
X127333333Y-44858152D02*
X127285714Y-44953390D01*
X127285714Y-44953390D02*
X127238095Y-45001009D01*
X127238095Y-45001009D02*
X127142857Y-45048628D01*
X127142857Y-45048628D02*
X126761905Y-45048628D01*
X127714286Y-44620057D02*
X127761905Y-44572438D01*
X127761905Y-44572438D02*
X127857143Y-44524819D01*
X127857143Y-44524819D02*
X128095238Y-44524819D01*
X128095238Y-44524819D02*
X128190476Y-44572438D01*
X128190476Y-44572438D02*
X128238095Y-44620057D01*
X128238095Y-44620057D02*
X128285714Y-44715295D01*
X128285714Y-44715295D02*
X128285714Y-44810533D01*
X128285714Y-44810533D02*
X128238095Y-44953390D01*
X128238095Y-44953390D02*
X127666667Y-45524819D01*
X127666667Y-45524819D02*
X128285714Y-45524819D01*
X101833333Y-94009580D02*
X101785714Y-94057200D01*
X101785714Y-94057200D02*
X101642857Y-94104819D01*
X101642857Y-94104819D02*
X101547619Y-94104819D01*
X101547619Y-94104819D02*
X101404762Y-94057200D01*
X101404762Y-94057200D02*
X101309524Y-93961961D01*
X101309524Y-93961961D02*
X101261905Y-93866723D01*
X101261905Y-93866723D02*
X101214286Y-93676247D01*
X101214286Y-93676247D02*
X101214286Y-93533390D01*
X101214286Y-93533390D02*
X101261905Y-93342914D01*
X101261905Y-93342914D02*
X101309524Y-93247676D01*
X101309524Y-93247676D02*
X101404762Y-93152438D01*
X101404762Y-93152438D02*
X101547619Y-93104819D01*
X101547619Y-93104819D02*
X101642857Y-93104819D01*
X101642857Y-93104819D02*
X101785714Y-93152438D01*
X101785714Y-93152438D02*
X101833333Y-93200057D01*
X102785714Y-94104819D02*
X102214286Y-94104819D01*
X102500000Y-94104819D02*
X102500000Y-93104819D01*
X102500000Y-93104819D02*
X102404762Y-93247676D01*
X102404762Y-93247676D02*
X102309524Y-93342914D01*
X102309524Y-93342914D02*
X102214286Y-93390533D01*
X116738095Y-70454819D02*
X116738095Y-71264342D01*
X116738095Y-71264342D02*
X116785714Y-71359580D01*
X116785714Y-71359580D02*
X116833333Y-71407200D01*
X116833333Y-71407200D02*
X116928571Y-71454819D01*
X116928571Y-71454819D02*
X117119047Y-71454819D01*
X117119047Y-71454819D02*
X117214285Y-71407200D01*
X117214285Y-71407200D02*
X117261904Y-71359580D01*
X117261904Y-71359580D02*
X117309523Y-71264342D01*
X117309523Y-71264342D02*
X117309523Y-70454819D01*
X117738095Y-70550057D02*
X117785714Y-70502438D01*
X117785714Y-70502438D02*
X117880952Y-70454819D01*
X117880952Y-70454819D02*
X118119047Y-70454819D01*
X118119047Y-70454819D02*
X118214285Y-70502438D01*
X118214285Y-70502438D02*
X118261904Y-70550057D01*
X118261904Y-70550057D02*
X118309523Y-70645295D01*
X118309523Y-70645295D02*
X118309523Y-70740533D01*
X118309523Y-70740533D02*
X118261904Y-70883390D01*
X118261904Y-70883390D02*
X117690476Y-71454819D01*
X117690476Y-71454819D02*
X118309523Y-71454819D01*
X102014819Y-68333333D02*
X102729104Y-68333333D01*
X102729104Y-68333333D02*
X102871961Y-68380952D01*
X102871961Y-68380952D02*
X102967200Y-68476190D01*
X102967200Y-68476190D02*
X103014819Y-68619047D01*
X103014819Y-68619047D02*
X103014819Y-68714285D01*
X103014819Y-67333333D02*
X103014819Y-67904761D01*
X103014819Y-67619047D02*
X102014819Y-67619047D01*
X102014819Y-67619047D02*
X102157676Y-67714285D01*
X102157676Y-67714285D02*
X102252914Y-67809523D01*
X102252914Y-67809523D02*
X102300533Y-67904761D01*
X104929580Y-73166666D02*
X104977200Y-73214285D01*
X104977200Y-73214285D02*
X105024819Y-73357142D01*
X105024819Y-73357142D02*
X105024819Y-73452380D01*
X105024819Y-73452380D02*
X104977200Y-73595237D01*
X104977200Y-73595237D02*
X104881961Y-73690475D01*
X104881961Y-73690475D02*
X104786723Y-73738094D01*
X104786723Y-73738094D02*
X104596247Y-73785713D01*
X104596247Y-73785713D02*
X104453390Y-73785713D01*
X104453390Y-73785713D02*
X104262914Y-73738094D01*
X104262914Y-73738094D02*
X104167676Y-73690475D01*
X104167676Y-73690475D02*
X104072438Y-73595237D01*
X104072438Y-73595237D02*
X104024819Y-73452380D01*
X104024819Y-73452380D02*
X104024819Y-73357142D01*
X104024819Y-73357142D02*
X104072438Y-73214285D01*
X104072438Y-73214285D02*
X104120057Y-73166666D01*
X104358152Y-72309523D02*
X105024819Y-72309523D01*
X103977200Y-72547618D02*
X104691485Y-72785713D01*
X104691485Y-72785713D02*
X104691485Y-72166666D01*
D13*
%TO.C,RS12*%
X107520000Y-91846359D02*
X107520000Y-92153641D01*
X108280000Y-91846359D02*
X108280000Y-92153641D01*
%TO.C,R4*%
X128477500Y-66237258D02*
X128477500Y-65762742D01*
X129522500Y-66237258D02*
X129522500Y-65762742D01*
%TO.C,RS7*%
X115520000Y-91846359D02*
X115520000Y-92153641D01*
X116280000Y-91846359D02*
X116280000Y-92153641D01*
%TO.C,R3*%
X102477500Y-47737258D02*
X102477500Y-47262742D01*
X103522500Y-47737258D02*
X103522500Y-47262742D01*
%TO.C,RS8*%
X113920000Y-91846359D02*
X113920000Y-92153641D01*
X114680000Y-91846359D02*
X114680000Y-92153641D01*
%TO.C,Q2*%
X129240000Y-69440000D02*
X130760000Y-69440000D01*
X129240000Y-69490000D02*
X129240000Y-69440000D01*
X129240000Y-71390000D02*
X129240000Y-70610000D01*
X129240000Y-72560000D02*
X129240000Y-72510000D01*
X130760000Y-69440000D02*
X130760000Y-70440000D01*
X130760000Y-71560000D02*
X130760000Y-72560000D01*
X130760000Y-72560000D02*
X129240000Y-72560000D01*
X128940000Y-70950000D02*
X128460000Y-70950000D01*
X128700000Y-70620000D01*
X128940000Y-70950000D01*
G36*
X128940000Y-70950000D02*
G01*
X128460000Y-70950000D01*
X128700000Y-70620000D01*
X128940000Y-70950000D01*
G37*
%TO.C,U1*%
X109425000Y-39650000D02*
X109425000Y-42100000D01*
X109425000Y-39650000D02*
X111875000Y-39650000D01*
X109700000Y-39900000D02*
X125300000Y-39900000D01*
X109700000Y-60600000D02*
X109700000Y-39900000D01*
X125300000Y-39900000D02*
X125300000Y-60600000D01*
X125300000Y-60600000D02*
X109700000Y-60600000D01*
X109525000Y-46850000D02*
X109189000Y-47090000D01*
X109189000Y-46610000D01*
X109525000Y-46850000D01*
G36*
X109525000Y-46850000D02*
G01*
X109189000Y-47090000D01*
X109189000Y-46610000D01*
X109525000Y-46850000D01*
G37*
%TO.C,RS13*%
X126720000Y-91846359D02*
X126720000Y-92153641D01*
X127480000Y-91846359D02*
X127480000Y-92153641D01*
%TO.C,RS9*%
X112320000Y-91846359D02*
X112320000Y-92153641D01*
X113080000Y-91846359D02*
X113080000Y-92153641D01*
%TO.C,C2*%
X104765000Y-47761252D02*
X104765000Y-47238748D01*
X106235000Y-47761252D02*
X106235000Y-47238748D01*
%TO.C,TP1*%
X135450000Y-92000000D02*
G75*
G02*
X133550000Y-92000000I-950000J0D01*
G01*
X133550000Y-92000000D02*
G75*
G02*
X135450000Y-92000000I950000J0D01*
G01*
%TO.C,R7*%
X127762742Y-55977500D02*
X128237258Y-55977500D01*
X127762742Y-57022500D02*
X128237258Y-57022500D01*
%TO.C,R1*%
X101762742Y-91477500D02*
X102237258Y-91477500D01*
X101762742Y-92522500D02*
X102237258Y-92522500D01*
%TO.C,R6*%
X133762742Y-70477500D02*
X134237258Y-70477500D01*
X133762742Y-71522500D02*
X134237258Y-71522500D01*
%TO.C,SW1*%
X99750000Y-55250000D02*
X99750000Y-52750000D01*
X100200000Y-52300000D02*
X99750000Y-52750000D01*
X100200000Y-55700000D02*
X99750000Y-55250000D01*
X101500000Y-51250000D02*
X103500000Y-51250000D01*
X101500000Y-56750000D02*
X103500000Y-56750000D01*
X104800000Y-52300000D02*
X105250000Y-52750000D01*
X104800000Y-55700000D02*
X105250000Y-55250000D01*
X105250000Y-55250000D02*
X105250000Y-52750000D01*
%TO.C,RS6*%
X117120000Y-91846359D02*
X117120000Y-92153641D01*
X117880000Y-91846359D02*
X117880000Y-92153641D01*
%TO.C,C3*%
X107290000Y-47640580D02*
X107290000Y-47359420D01*
X108310000Y-47640580D02*
X108310000Y-47359420D01*
%TO.C,C6*%
X127359420Y-47990000D02*
X127640580Y-47990000D01*
X127359420Y-49010000D02*
X127640580Y-49010000D01*
%TO.C,RS1*%
X125120000Y-91846359D02*
X125120000Y-92153641D01*
X125880000Y-91846359D02*
X125880000Y-92153641D01*
%TO.C,J2*%
X130340000Y-47190000D02*
X131500000Y-47190000D01*
X130340000Y-48000000D02*
X130340000Y-47190000D01*
X130340000Y-48810000D02*
X130340000Y-57635000D01*
X130340000Y-48810000D02*
X130833292Y-48810000D01*
X130340000Y-57635000D02*
X131182077Y-57635000D01*
X131817923Y-57635000D02*
X132660000Y-57635000D01*
X132166708Y-48810000D02*
X132660000Y-48810000D01*
X132660000Y-48810000D02*
X132660000Y-57635000D01*
%TO.C,R5*%
X130477500Y-66237258D02*
X130477500Y-65762742D01*
X131522500Y-66237258D02*
X131522500Y-65762742D01*
%TO.C,C7*%
X132490000Y-66140580D02*
X132490000Y-65859420D01*
X133510000Y-66140580D02*
X133510000Y-65859420D01*
%TO.C,RS5*%
X118720000Y-91846359D02*
X118720000Y-92153641D01*
X119480000Y-91846359D02*
X119480000Y-92153641D01*
%TO.C,C5*%
X102765000Y-73261252D02*
X102765000Y-72738748D01*
X104235000Y-73261252D02*
X104235000Y-72738748D01*
%TO.C,Q1*%
X101240000Y-87440000D02*
X102760000Y-87440000D01*
X101240000Y-87490000D02*
X101240000Y-87440000D01*
X101240000Y-89390000D02*
X101240000Y-88610000D01*
X101240000Y-90560000D02*
X101240000Y-90510000D01*
X102760000Y-87440000D02*
X102760000Y-88440000D01*
X102760000Y-89560000D02*
X102760000Y-90560000D01*
X102760000Y-90560000D02*
X101240000Y-90560000D01*
X100940000Y-88950000D02*
X100460000Y-88950000D01*
X100700000Y-88620000D01*
X100940000Y-88950000D01*
G36*
X100940000Y-88950000D02*
G01*
X100460000Y-88950000D01*
X100700000Y-88620000D01*
X100940000Y-88950000D01*
G37*
%TO.C,D1*%
X126515000Y-57765000D02*
X126515000Y-59235000D01*
X126515000Y-59235000D02*
X128800000Y-59235000D01*
X128800000Y-57765000D02*
X126515000Y-57765000D01*
%TO.C,RS2*%
X123520000Y-91846359D02*
X123520000Y-92153641D01*
X124280000Y-91846359D02*
X124280000Y-92153641D01*
%TO.C,R2*%
X127262742Y-45977500D02*
X127737258Y-45977500D01*
X127262742Y-47022500D02*
X127737258Y-47022500D01*
%TO.C,RS11*%
X109120000Y-91846359D02*
X109120000Y-92153641D01*
X109880000Y-91846359D02*
X109880000Y-92153641D01*
%TO.C,RS4*%
X120320000Y-91846359D02*
X120320000Y-92153641D01*
X121080000Y-91846359D02*
X121080000Y-92153641D01*
%TO.C,C1*%
X101288748Y-94590000D02*
X102711252Y-94590000D01*
X101288748Y-96410000D02*
X102711252Y-96410000D01*
D12*
%TO.C,U2*%
X109250000Y-63250000D02*
X125750000Y-63250000D01*
X109250000Y-64000000D02*
X109250000Y-63250000D01*
X109250000Y-80000000D02*
X109250000Y-80750000D01*
X109250000Y-80750000D02*
X125750000Y-80750000D01*
X125750000Y-63250000D02*
X125750000Y-64000000D01*
X125750000Y-80750000D02*
X125750000Y-80000000D01*
D13*
X108950000Y-64000000D02*
X108450000Y-64000000D01*
X108950000Y-63500000D01*
X108950000Y-64000000D01*
G36*
X108950000Y-64000000D02*
G01*
X108450000Y-64000000D01*
X108950000Y-63500000D01*
X108950000Y-64000000D01*
G37*
%TO.C,RS10*%
X110720000Y-91846359D02*
X110720000Y-92153641D01*
X111480000Y-91846359D02*
X111480000Y-92153641D01*
%TO.C,RS3*%
X121920000Y-91846359D02*
X121920000Y-92153641D01*
X122680000Y-91846359D02*
X122680000Y-92153641D01*
%TO.C,J1*%
X101810000Y-65000000D02*
X102310000Y-65250000D01*
X102310000Y-64750000D02*
X101810000Y-65000000D01*
X102310000Y-65250000D02*
X102310000Y-64750000D01*
%TO.C,C4*%
X105490000Y-73140580D02*
X105490000Y-72859420D01*
X106510000Y-73140580D02*
X106510000Y-72859420D01*
%TD*%
%LPC*%
D14*
%TO.C,RS12*%
X107900000Y-91490000D03*
X107900000Y-92510000D03*
%TD*%
D15*
%TO.C,R4*%
X129000000Y-66825000D03*
X129000000Y-65175000D03*
%TD*%
D14*
%TO.C,RS7*%
X115900000Y-91490000D03*
X115900000Y-92510000D03*
%TD*%
D15*
%TO.C,R3*%
X103000000Y-48325000D03*
X103000000Y-46675000D03*
%TD*%
D14*
%TO.C,RS8*%
X114300000Y-91490000D03*
X114300000Y-92510000D03*
%TD*%
D16*
%TO.C,Q2*%
X129062500Y-70050000D03*
X129062500Y-71950000D03*
X130937500Y-71000000D03*
%TD*%
D17*
%TO.C,U1*%
X110500000Y-46850000D03*
X110500000Y-47700000D03*
X110500000Y-48550000D03*
X110500000Y-49400000D03*
X110500000Y-50250000D03*
X110500000Y-51100000D03*
X110500000Y-51950000D03*
X110500000Y-52800000D03*
X110500000Y-53650000D03*
X110500000Y-54500000D03*
X110500000Y-55350000D03*
X110500000Y-56200000D03*
X110500000Y-57050000D03*
X110500000Y-57900000D03*
X110500000Y-58750000D03*
D18*
X111550000Y-59800000D03*
X112400000Y-59800000D03*
X113250000Y-59800000D03*
X114100000Y-59800000D03*
X114950000Y-59800000D03*
X115800000Y-59800000D03*
X116650000Y-59800000D03*
X117500000Y-59800000D03*
X118350000Y-59800000D03*
X119200000Y-59800000D03*
X120050000Y-59800000D03*
X120900000Y-59800000D03*
X121750000Y-59800000D03*
X122600000Y-59800000D03*
X123450000Y-59800000D03*
D17*
X124500000Y-58750000D03*
X124500000Y-57900000D03*
X124500000Y-57050000D03*
X124500000Y-56200000D03*
X124500000Y-55350000D03*
X124500000Y-54500000D03*
X124500000Y-53650000D03*
X124500000Y-52800000D03*
X124500000Y-51950000D03*
X124500000Y-51100000D03*
X124500000Y-50250000D03*
X124500000Y-49400000D03*
X124500000Y-48550000D03*
X124500000Y-47700000D03*
X124500000Y-46850000D03*
D18*
X123450000Y-45800000D03*
X122600000Y-45800000D03*
X121750000Y-45800000D03*
X120900000Y-45800000D03*
X120050000Y-45800000D03*
X119200000Y-45800000D03*
X118350000Y-45800000D03*
X117500000Y-45800000D03*
X116650000Y-45800000D03*
X115800000Y-45800000D03*
X114950000Y-45800000D03*
X114100000Y-45800000D03*
X113250000Y-45800000D03*
X112400000Y-45800000D03*
X111550000Y-45800000D03*
D19*
X115850000Y-51150000D03*
D20*
X115850000Y-52800000D03*
X115850000Y-54450000D03*
X117500000Y-51150000D03*
X117500000Y-52800000D03*
X117500000Y-54450000D03*
X119150000Y-51150000D03*
X119150000Y-52800000D03*
X119150000Y-54450000D03*
D21*
X110500000Y-45800000D03*
X110500000Y-59800000D03*
X124500000Y-59800000D03*
X124500000Y-45800000D03*
%TD*%
D14*
%TO.C,RS13*%
X127100000Y-91490000D03*
X127100000Y-92510000D03*
%TD*%
%TO.C,RS9*%
X112700000Y-91490000D03*
X112700000Y-92510000D03*
%TD*%
D22*
%TO.C,C2*%
X105500000Y-48450000D03*
X105500000Y-46550000D03*
%TD*%
D23*
%TO.C,TP1*%
X134500000Y-92000000D03*
%TD*%
D24*
%TO.C,R7*%
X127175000Y-56500000D03*
X128825000Y-56500000D03*
%TD*%
%TO.C,R1*%
X101175000Y-92000000D03*
X102825000Y-92000000D03*
%TD*%
%TO.C,R6*%
X133175000Y-71000000D03*
X134825000Y-71000000D03*
%TD*%
D25*
%TO.C,SW1*%
X100600000Y-57150000D03*
X100600000Y-50850000D03*
X104400000Y-57150000D03*
X104400000Y-50850000D03*
%TD*%
D14*
%TO.C,RS6*%
X117500000Y-91490000D03*
X117500000Y-92510000D03*
%TD*%
D26*
%TO.C,C3*%
X107800000Y-48275000D03*
X107800000Y-46725000D03*
%TD*%
D27*
%TO.C,C6*%
X126725000Y-48500000D03*
X128275000Y-48500000D03*
%TD*%
D14*
%TO.C,RS1*%
X125500000Y-91490000D03*
X125500000Y-92510000D03*
%TD*%
D28*
%TO.C,J2*%
X131500000Y-48000000D03*
D29*
X131500000Y-49270000D03*
X131500000Y-50540000D03*
X131500000Y-51810000D03*
X131500000Y-53080000D03*
X131500000Y-54350000D03*
X131500000Y-55620000D03*
X131500000Y-56890000D03*
%TD*%
D15*
%TO.C,R5*%
X131000000Y-66825000D03*
X131000000Y-65175000D03*
%TD*%
D26*
%TO.C,C7*%
X133000000Y-66775000D03*
X133000000Y-65225000D03*
%TD*%
D14*
%TO.C,RS5*%
X119100000Y-91490000D03*
X119100000Y-92510000D03*
%TD*%
D22*
%TO.C,C5*%
X103500000Y-73950000D03*
X103500000Y-72050000D03*
%TD*%
D16*
%TO.C,Q1*%
X101062500Y-88050000D03*
X101062500Y-89950000D03*
X102937500Y-89000000D03*
%TD*%
D30*
%TO.C,D1*%
X127212500Y-58500000D03*
X128787500Y-58500000D03*
%TD*%
D14*
%TO.C,RS2*%
X123900000Y-91490000D03*
X123900000Y-92510000D03*
%TD*%
D24*
%TO.C,R2*%
X126675000Y-46500000D03*
X128325000Y-46500000D03*
%TD*%
D14*
%TO.C,RS11*%
X109500000Y-91490000D03*
X109500000Y-92510000D03*
%TD*%
%TO.C,RS4*%
X120700000Y-91490000D03*
X120700000Y-92510000D03*
%TD*%
D31*
%TO.C,C1*%
X100525000Y-95500000D03*
X103475000Y-95500000D03*
%TD*%
D32*
%TO.C,U2*%
X109500000Y-65000000D03*
X109500000Y-67000000D03*
X109500000Y-69000000D03*
X109500000Y-71000000D03*
X109500000Y-73000000D03*
X109500000Y-75000000D03*
X109500000Y-77000000D03*
X109500000Y-79000000D03*
X125500000Y-79000000D03*
X125500000Y-77000000D03*
X125500000Y-75000000D03*
X125500000Y-73000000D03*
X125500000Y-71000000D03*
X125500000Y-69000000D03*
X125500000Y-67000000D03*
X125500000Y-65000000D03*
%TD*%
D14*
%TO.C,RS10*%
X111100000Y-91490000D03*
X111100000Y-92510000D03*
%TD*%
%TO.C,RS3*%
X122300000Y-91490000D03*
X122300000Y-92510000D03*
%TD*%
D33*
%TO.C,J1*%
X98600000Y-65000000D03*
X98600000Y-69250000D03*
X98600000Y-60750000D03*
%TD*%
D26*
%TO.C,C4*%
X106000000Y-73775000D03*
X106000000Y-72225000D03*
%TD*%
%LPD*%
M02*
