%TF.GenerationSoftware,KiCad,Pcbnew,9.0.7*%
%TF.CreationDate,2026-09-09T18:33:06+05:30*%
%TF.ProjectId,WPC-panel2x,5750432d-7061-46e6-956c-32782e6b6963,rev?*%
%TF.SameCoordinates,Original*%
%TF.FileFunction,Other,User*%
%FSLAX46Y46*%
G04 Gerber Fmt 4.6, Leading zero omitted, Abs format (unit mm)*
G04 Created by KiCad (PCBNEW 9.0.7) date 2026-09-09 18:33:06*
%MOMM*%
%LPD*%
G01*
G04 APERTURE LIST*
%ADD10C,0.050000*%
G04 APERTURE END LIST*
%TO.C,C7*%
D10*
X242941716Y-10138717D02*
X240981716Y-10138717D01*
X240981716Y-6738717D01*
X242941716Y-6738717D01*
X242941716Y-10138717D01*
%TO.C,R9*%
X231651716Y6681283D02*
X229751716Y6681283D01*
X229751716Y10041283D01*
X231651716Y10041283D01*
X231651716Y6681283D01*
%TO.C,R10*%
X228200000Y-40245000D02*
X224840000Y-40245000D01*
X224840000Y-42145000D01*
X228200000Y-42145000D01*
X228200000Y-40245000D01*
%TO.C,R7*%
X228220000Y-37845000D02*
X224860000Y-37845000D01*
X224860000Y-39745000D01*
X228220000Y-39745000D01*
X228220000Y-37845000D01*
%TO.C,R4*%
X190930000Y-59395000D02*
X192830000Y-59395000D01*
X192830000Y-62755000D01*
X190930000Y-62755000D01*
X190930000Y-59395000D01*
%TO.C,R1*%
X213191716Y-17578717D02*
X215091716Y-17578717D01*
X215091716Y-20938717D01*
X213191716Y-20938717D01*
X213191716Y-17578717D01*
%TO.C,R4*%
X226631716Y6641283D02*
X224731716Y6641283D01*
X224731716Y10001283D01*
X226631716Y10001283D01*
X226631716Y6641283D01*
%TO.C,C10*%
X240981716Y-10138717D02*
X239021716Y-10138717D01*
X239021716Y-6738717D01*
X240981716Y-6738717D01*
X240981716Y-10138717D01*
%TO.C,R5*%
X189391716Y-9938717D02*
X192751716Y-9938717D01*
X192751716Y-8038717D01*
X189391716Y-8038717D01*
X189391716Y-9938717D01*
%TO.C,R1*%
X204370000Y-35175000D02*
X202470000Y-35175000D01*
X202470000Y-31815000D01*
X204370000Y-31815000D01*
X204370000Y-35175000D01*
%TO.C,R13*%
X179921716Y2221283D02*
X176561716Y2221283D01*
X176561716Y321283D01*
X179921716Y321283D01*
X179921716Y2221283D01*
%TO.C,C3*%
X220340000Y-39695000D02*
X223740000Y-39695000D01*
X223740000Y-37735000D01*
X220340000Y-37735000D01*
X220340000Y-39695000D01*
%TO.C,D8*%
X209640000Y-65075000D02*
X212600000Y-65075000D01*
X212600000Y-63615000D01*
X209640000Y-63615000D01*
X209640000Y-65075000D01*
%TO.C,R9*%
X185910000Y-59435000D02*
X187810000Y-59435000D01*
X187810000Y-62795000D01*
X185910000Y-62795000D01*
X185910000Y-59435000D01*
%TO.C,U8*%
X241269216Y-12668717D02*
X241269216Y-14768717D01*
X241269216Y-14768717D02*
X241469216Y-14768717D01*
X241469216Y-11668717D02*
X241469216Y-12668717D01*
X241469216Y-12668717D02*
X241269216Y-12668717D01*
X241469216Y-14768717D02*
X241469216Y-15768717D01*
X241469216Y-15768717D02*
X242579216Y-15768717D01*
X242579216Y-14768717D02*
X243359216Y-14768717D01*
X242579216Y-15768717D02*
X242579216Y-14768717D01*
X243359216Y-14768717D02*
X243359216Y-15768717D01*
X243359216Y-15768717D02*
X244469216Y-15768717D01*
X244469216Y-11668717D02*
X241469216Y-11668717D01*
X244469216Y-12668717D02*
X244469216Y-11668717D01*
X244469216Y-14768717D02*
X244669216Y-14768717D01*
X244469216Y-15768717D02*
X244469216Y-14768717D01*
X244669216Y-12668717D02*
X244469216Y-12668717D01*
X244669216Y-14768717D02*
X244669216Y-12668717D01*
%TO.C,R5*%
X228170000Y-42815000D02*
X224810000Y-42815000D01*
X224810000Y-44715000D01*
X228170000Y-44715000D01*
X228170000Y-42815000D01*
%TO.C,R23*%
X236391713Y-6578717D02*
X238291713Y-6578717D01*
X238291713Y-9938717D01*
X236391713Y-9938717D01*
X236391713Y-6578717D01*
%TO.C,U8*%
X172892500Y-37985000D02*
X172892500Y-40085000D01*
X172892500Y-40085000D02*
X173092500Y-40085000D01*
X173092500Y-36985000D02*
X173092500Y-37985000D01*
X173092500Y-37985000D02*
X172892500Y-37985000D01*
X173092500Y-40085000D02*
X173092500Y-41085000D01*
X173092500Y-41085000D02*
X176092500Y-41085000D01*
X174202500Y-36985000D02*
X173092500Y-36985000D01*
X174202500Y-37985000D02*
X174202500Y-36985000D01*
X174982500Y-36985000D02*
X174982500Y-37985000D01*
X174982500Y-37985000D02*
X174202500Y-37985000D01*
X176092500Y-36985000D02*
X174982500Y-36985000D01*
X176092500Y-37985000D02*
X176092500Y-36985000D01*
X176092500Y-40085000D02*
X176292500Y-40085000D01*
X176092500Y-41085000D02*
X176092500Y-40085000D01*
X176292500Y-37985000D02*
X176092500Y-37985000D01*
X176292500Y-40085000D02*
X176292500Y-37985000D01*
%TO.C,C8*%
X197201716Y-5418717D02*
X193801716Y-5418717D01*
X193801716Y-7378717D01*
X197201716Y-7378717D01*
X197201716Y-5418717D01*
%TO.C,D8*%
X207921716Y12321283D02*
X204961716Y12321283D01*
X204961716Y10861283D01*
X207921716Y10861283D01*
X207921716Y12321283D01*
%TO.C,C13*%
X176660000Y-35815000D02*
X174700000Y-35815000D01*
X174700000Y-32415000D01*
X176660000Y-32415000D01*
X176660000Y-35815000D01*
%TO.C,J2*%
X236671713Y-20598717D02*
X228671713Y-20598717D01*
%TO.C,R8*%
X213401716Y8731283D02*
X215301716Y8731283D01*
X215301716Y5371283D01*
X213401716Y5371283D01*
X213401716Y8731283D01*
%TO.C,R2*%
X213191716Y-4488717D02*
X215091716Y-4488717D01*
X215091716Y-7848717D01*
X213191716Y-7848717D01*
X213191716Y-4488717D01*
%TO.C,U7*%
X183090000Y-33955000D02*
X183090000Y-52455000D01*
X183090000Y-52455000D02*
X201090000Y-52455000D01*
X201090000Y-33955000D02*
X183090000Y-33955000D01*
X201090000Y-52455000D02*
X201090000Y-33955000D01*
%TO.C,.*%
X168131716Y5721283D02*
G75*
G02*
X161231716Y5721283I-3450000J0D01*
G01*
X161231716Y5721283D02*
G75*
G02*
X168131716Y5721283I3450000J0D01*
G01*
%TO.C,C1*%
X220380000Y-44715000D02*
X223780000Y-44715000D01*
X223780000Y-42755000D01*
X220380000Y-42755000D01*
X220380000Y-44715000D01*
%TO.C,C2*%
X197241716Y-10518717D02*
X193841716Y-10518717D01*
X193841716Y-12478717D01*
X197241716Y-12478717D01*
X197241716Y-10518717D01*
%TO.C,R11*%
X210170000Y-59405000D02*
X212070000Y-59405000D01*
X212070000Y-62765000D01*
X210170000Y-62765000D01*
X210170000Y-59405000D01*
%TO.C,C8*%
X220360000Y-47335000D02*
X223760000Y-47335000D01*
X223760000Y-45375000D01*
X220360000Y-45375000D01*
X220360000Y-47335000D01*
%TO.C,R23*%
X181170003Y-46175000D02*
X179270003Y-46175000D01*
X179270003Y-42815000D01*
X181170003Y-42815000D01*
X181170003Y-46175000D01*
%TO.C,R3*%
X195910000Y-59435000D02*
X197810000Y-59435000D01*
X197810000Y-62795000D01*
X195910000Y-62795000D01*
X195910000Y-59435000D01*
%TO.C,R12*%
X228010000Y-45445000D02*
X224650000Y-45445000D01*
X224650000Y-47345000D01*
X228010000Y-47345000D01*
X228010000Y-45445000D01*
%TO.C,C13*%
X240901716Y-16938717D02*
X242861716Y-16938717D01*
X242861716Y-20338717D01*
X240901716Y-20338717D01*
X240901716Y-16938717D01*
%TO.C,R12*%
X189551716Y-7308717D02*
X192911716Y-7308717D01*
X192911716Y-5408717D01*
X189551716Y-5408717D01*
X189551716Y-7308717D01*
%TO.C,R11*%
X207391716Y6651283D02*
X205491716Y6651283D01*
X205491716Y10011283D01*
X207391716Y10011283D01*
X207391716Y6651283D01*
%TO.C,C12*%
X178530000Y-35855000D02*
X176570000Y-35855000D01*
X176570000Y-32455000D01*
X178530000Y-32455000D01*
X178530000Y-35855000D01*
%TO.C,R2*%
X204370000Y-48265000D02*
X202470000Y-48265000D01*
X202470000Y-44905000D01*
X204370000Y-44905000D01*
X204370000Y-48265000D01*
%TO.C,C6*%
X168560000Y-72525000D02*
X171960000Y-72525000D01*
X171960000Y-70565000D01*
X168560000Y-70565000D01*
X168560000Y-72525000D01*
%TO.C,D5*%
X185640000Y-65025000D02*
X188600000Y-65025000D01*
X188600000Y-63565000D01*
X185640000Y-63565000D01*
X185640000Y-65025000D01*
%TO.C,C3*%
X197221716Y-13058717D02*
X193821716Y-13058717D01*
X193821716Y-15018717D01*
X197221716Y-15018717D01*
X197221716Y-13058717D01*
%TO.C,.*%
X256330000Y-58475000D02*
G75*
G02*
X249430000Y-58475000I-3450000J0D01*
G01*
X249430000Y-58475000D02*
G75*
G02*
X256330000Y-58475000I3450000J0D01*
G01*
%TO.C,C7*%
X174620000Y-42615000D02*
X176580000Y-42615000D01*
X176580000Y-46015000D01*
X174620000Y-46015000D01*
X174620000Y-42615000D01*
%TO.C,D4*%
X195770000Y-65025000D02*
X198730000Y-65025000D01*
X198730000Y-63565000D01*
X195770000Y-63565000D01*
X195770000Y-65025000D01*
%TO.C,R6*%
X236581716Y3668783D02*
X238481716Y3668783D01*
X238481716Y308783D01*
X236581716Y308783D01*
X236581716Y3668783D01*
%TO.C,D6*%
X190800000Y-65095000D02*
X193760000Y-65095000D01*
X193760000Y-63635000D01*
X190800000Y-63635000D01*
X190800000Y-65095000D01*
%TO.C,C12*%
X239031716Y-16898717D02*
X240991716Y-16898717D01*
X240991716Y-20298717D01*
X239031716Y-20298717D01*
X239031716Y-16898717D01*
%TO.C,D5*%
X231921716Y12271283D02*
X228961716Y12271283D01*
X228961716Y10811283D01*
X231921716Y10811283D01*
X231921716Y12271283D01*
%TO.C,R3*%
X221651716Y6681283D02*
X219751716Y6681283D01*
X219751716Y10041283D01*
X221651716Y10041283D01*
X221651716Y6681283D01*
%TO.C,J2*%
X180890003Y-32155000D02*
X188890003Y-32155000D01*
%TO.C,C6*%
X249001716Y19771283D02*
X245601716Y19771283D01*
X245601716Y17811283D01*
X249001716Y17811283D01*
X249001716Y19771283D01*
%TO.C,R6*%
X180980000Y-56422500D02*
X179080000Y-56422500D01*
X179080000Y-53062500D01*
X180980000Y-53062500D01*
X180980000Y-56422500D01*
%TO.C,U13*%
X239369216Y6331283D02*
X246569216Y6331283D01*
X239369216Y-2468717D02*
X239369216Y6331283D01*
X246569216Y6331283D02*
X246569216Y-2468717D01*
X246569216Y-2468717D02*
X239369216Y-2468717D01*
X170992500Y-50285000D02*
X178192500Y-50285000D01*
X170992500Y-59085000D02*
X170992500Y-50285000D01*
X178192500Y-50285000D02*
X178192500Y-59085000D01*
X178192500Y-59085000D02*
X170992500Y-59085000D01*
%TO.C,R8*%
X204160000Y-61485000D02*
X202260000Y-61485000D01*
X202260000Y-58125000D01*
X204160000Y-58125000D01*
X204160000Y-61485000D01*
%TO.C,D6*%
X226761716Y12341283D02*
X223801716Y12341283D01*
X223801716Y10881283D01*
X226761716Y10881283D01*
X226761716Y12341283D01*
%TO.C,D4*%
X221791716Y12271283D02*
X218831716Y12271283D01*
X218831716Y10811283D01*
X221791716Y10811283D01*
X221791716Y12271283D01*
%TO.C,C1*%
X197181716Y-8038717D02*
X193781716Y-8038717D01*
X193781716Y-9998717D01*
X197181716Y-9998717D01*
X197181716Y-8038717D01*
%TO.C,R13*%
X237640000Y-54975000D02*
X241000000Y-54975000D01*
X241000000Y-53075000D01*
X237640000Y-53075000D01*
X237640000Y-54975000D01*
%TO.C,C10*%
X176580000Y-42615000D02*
X178540000Y-42615000D01*
X178540000Y-46015000D01*
X176580000Y-46015000D01*
X176580000Y-42615000D01*
%TO.C,C2*%
X220320000Y-42235000D02*
X223720000Y-42235000D01*
X223720000Y-40275000D01*
X220320000Y-40275000D01*
X220320000Y-42235000D01*
%TO.C,U7*%
X216471716Y-298717D02*
X216471716Y-18798717D01*
X216471716Y-18798717D02*
X234471716Y-18798717D01*
X234471716Y-298717D02*
X216471716Y-298717D01*
X234471716Y-18798717D02*
X234471716Y-298717D01*
%TO.C,R7*%
X189341716Y-14908717D02*
X192701716Y-14908717D01*
X192701716Y-13008717D01*
X189341716Y-13008717D01*
X189341716Y-14908717D01*
%TO.C,R10*%
X189361716Y-12508717D02*
X192721716Y-12508717D01*
X192721716Y-10608717D01*
X189361716Y-10608717D01*
X189361716Y-12508717D01*
%TD*%
M02*
