%TF.GenerationSoftware,KiCad,Pcbnew,9.0.7*%
%TF.CreationDate,2026-09-09T18:33:06+05:30*%
%TF.ProjectId,WPC-panel2x,5750432d-7061-46e6-956c-32782e6b6963,rev?*%
%TF.SameCoordinates,Original*%
%TF.FileFunction,Paste,Bot*%
%TF.FilePolarity,Positive*%
%FSLAX46Y46*%
G04 Gerber Fmt 4.6, Leading zero omitted, Abs format (unit mm)*
G04 Created by KiCad (PCBNEW 9.0.7) date 2026-09-09 18:33:06*
%MOMM*%
%LPD*%
G01*
G04 APERTURE LIST*
G04 Aperture macros list*
%AMRoundRect*
0 Rectangle with rounded corners*
0 $1 Rounding radius*
0 $2 $3 $4 $5 $6 $7 $8 $9 X,Y pos of 4 corners*
0 Add a 4 corners polygon primitive as box body*
4,1,4,$2,$3,$4,$5,$6,$7,$8,$9,$2,$3,0*
0 Add four circle primitives for the rounded corners*
1,1,$1+$1,$2,$3*
1,1,$1+$1,$4,$5*
1,1,$1+$1,$6,$7*
1,1,$1+$1,$8,$9*
0 Add four rect primitives between the rounded corners*
20,1,$1+$1,$2,$3,$4,$5,0*
20,1,$1+$1,$4,$5,$6,$7,0*
20,1,$1+$1,$6,$7,$8,$9,0*
20,1,$1+$1,$8,$9,$2,$3,0*%
G04 Aperture macros list end*
%ADD10RoundRect,0.250000X0.475000X-0.250000X0.475000X0.250000X-0.475000X0.250000X-0.475000X-0.250000X0*%
%ADD11RoundRect,0.250000X0.450000X-0.262500X0.450000X0.262500X-0.450000X0.262500X-0.450000X-0.262500X0*%
%ADD12RoundRect,0.250000X0.262500X0.450000X-0.262500X0.450000X-0.262500X-0.450000X0.262500X-0.450000X0*%
%ADD13RoundRect,0.250000X-0.450000X0.262500X-0.450000X-0.262500X0.450000X-0.262500X0.450000X0.262500X0*%
%ADD14RoundRect,0.250000X-0.262500X-0.450000X0.262500X-0.450000X0.262500X0.450000X-0.262500X0.450000X0*%
%ADD15RoundRect,0.250000X-0.250000X-0.475000X0.250000X-0.475000X0.250000X0.475000X-0.250000X0.475000X0*%
%ADD16RoundRect,0.218750X-0.218750X-0.256250X0.218750X-0.256250X0.218750X0.256250X-0.218750X0.256250X0*%
%ADD17RoundRect,0.150000X-0.150000X0.512500X-0.150000X-0.512500X0.150000X-0.512500X0.150000X0.512500X0*%
%ADD18RoundRect,0.150000X0.150000X-0.512500X0.150000X0.512500X-0.150000X0.512500X-0.150000X-0.512500X0*%
%ADD19RoundRect,0.250000X0.250000X0.475000X-0.250000X0.475000X-0.250000X-0.475000X0.250000X-0.475000X0*%
%ADD20RoundRect,0.218750X0.218750X0.256250X-0.218750X0.256250X-0.218750X-0.256250X0.218750X-0.256250X0*%
%ADD21R,1.500000X2.000000*%
%ADD22RoundRect,0.250000X-0.475000X0.250000X-0.475000X-0.250000X0.475000X-0.250000X0.475000X0.250000X0*%
%ADD23RoundRect,0.375000X-0.375000X0.625000X-0.375000X-0.625000X0.375000X-0.625000X0.375000X0.625000X0*%
%ADD24RoundRect,0.500000X-1.400000X0.500000X-1.400000X-0.500000X1.400000X-0.500000X1.400000X0.500000X0*%
%ADD25RoundRect,0.375000X0.375000X-0.625000X0.375000X0.625000X-0.375000X0.625000X-0.375000X-0.625000X0*%
%ADD26RoundRect,0.500000X1.400000X-0.500000X1.400000X0.500000X-1.400000X0.500000X-1.400000X-0.500000X0*%
G04 APERTURE END LIST*
D10*
%TO.C,C7*%
X241961716Y-9388717D03*
X241961716Y-7488717D03*
%TD*%
D11*
%TO.C,R9*%
X230701716Y7448783D03*
X230701716Y9273783D03*
%TD*%
D12*
%TO.C,R10*%
X227432500Y-41195000D03*
X225607500Y-41195000D03*
%TD*%
%TO.C,R7*%
X227452500Y-38795000D03*
X225627500Y-38795000D03*
%TD*%
D13*
%TO.C,R4*%
X191880000Y-60162500D03*
X191880000Y-61987500D03*
%TD*%
%TO.C,R1*%
X214141716Y-18346217D03*
X214141716Y-20171217D03*
%TD*%
D11*
%TO.C,R4*%
X225681716Y7408783D03*
X225681716Y9233783D03*
%TD*%
D10*
%TO.C,C10*%
X240001716Y-9388717D03*
X240001716Y-7488717D03*
%TD*%
D14*
%TO.C,R5*%
X190159216Y-8988717D03*
X191984216Y-8988717D03*
%TD*%
D11*
%TO.C,R1*%
X203420000Y-34407500D03*
X203420000Y-32582500D03*
%TD*%
D12*
%TO.C,R13*%
X179154216Y1271283D03*
X177329216Y1271283D03*
%TD*%
D15*
%TO.C,C3*%
X221090000Y-38715000D03*
X222990000Y-38715000D03*
%TD*%
D16*
%TO.C,D8*%
X210332500Y-64345000D03*
X211907500Y-64345000D03*
%TD*%
D13*
%TO.C,R9*%
X186860000Y-60202500D03*
X186860000Y-62027500D03*
%TD*%
D17*
%TO.C,U8*%
X242019216Y-12581217D03*
X242969216Y-12581217D03*
X243919216Y-12581217D03*
X243919216Y-14856217D03*
X242019216Y-14856217D03*
%TD*%
D12*
%TO.C,R5*%
X227402500Y-43765000D03*
X225577500Y-43765000D03*
%TD*%
D13*
%TO.C,R23*%
X237341713Y-7346217D03*
X237341713Y-9171217D03*
%TD*%
D18*
%TO.C,U8*%
X175542500Y-40172500D03*
X174592500Y-40172500D03*
X173642500Y-40172500D03*
X173642500Y-37897500D03*
X175542500Y-37897500D03*
%TD*%
D19*
%TO.C,C8*%
X196451716Y-6398717D03*
X194551716Y-6398717D03*
%TD*%
D20*
%TO.C,D8*%
X207229216Y11591283D03*
X205654216Y11591283D03*
%TD*%
D10*
%TO.C,C13*%
X175680000Y-35065000D03*
X175680000Y-33165000D03*
%TD*%
D13*
%TO.C,R8*%
X214351716Y7963783D03*
X214351716Y6138783D03*
%TD*%
%TO.C,R2*%
X214141716Y-5256217D03*
X214141716Y-7081217D03*
%TD*%
D21*
%TO.C,U7*%
X187090000Y-35205000D03*
X189090000Y-35205000D03*
X191090000Y-35205000D03*
X195090000Y-35205000D03*
X199090000Y-51205000D03*
X197090000Y-51205000D03*
X193090000Y-51205000D03*
X191090000Y-51205000D03*
X189090000Y-51205000D03*
X187090000Y-51205000D03*
X185090000Y-51205000D03*
%TD*%
D15*
%TO.C,C1*%
X221130000Y-43735000D03*
X223030000Y-43735000D03*
%TD*%
D19*
%TO.C,C2*%
X196491716Y-11498717D03*
X194591716Y-11498717D03*
%TD*%
D13*
%TO.C,R11*%
X211120000Y-60172500D03*
X211120000Y-61997500D03*
%TD*%
D15*
%TO.C,C8*%
X221110000Y-46355000D03*
X223010000Y-46355000D03*
%TD*%
D11*
%TO.C,R23*%
X180220003Y-45407500D03*
X180220003Y-43582500D03*
%TD*%
D13*
%TO.C,R3*%
X196860000Y-60202500D03*
X196860000Y-62027500D03*
%TD*%
D12*
%TO.C,R12*%
X227242500Y-46395000D03*
X225417500Y-46395000D03*
%TD*%
D22*
%TO.C,C13*%
X241881716Y-17688717D03*
X241881716Y-19588717D03*
%TD*%
D14*
%TO.C,R12*%
X190319216Y-6358717D03*
X192144216Y-6358717D03*
%TD*%
D11*
%TO.C,R11*%
X206441716Y7418783D03*
X206441716Y9243783D03*
%TD*%
D10*
%TO.C,C12*%
X177550000Y-35105000D03*
X177550000Y-33205000D03*
%TD*%
D11*
%TO.C,R2*%
X203420000Y-47497500D03*
X203420000Y-45672500D03*
%TD*%
D15*
%TO.C,C6*%
X169310000Y-71545000D03*
X171210000Y-71545000D03*
%TD*%
D16*
%TO.C,D5*%
X186332500Y-64295000D03*
X187907500Y-64295000D03*
%TD*%
D19*
%TO.C,C3*%
X196471716Y-14038717D03*
X194571716Y-14038717D03*
%TD*%
D22*
%TO.C,C7*%
X175600000Y-43365000D03*
X175600000Y-45265000D03*
%TD*%
D16*
%TO.C,D4*%
X196462500Y-64295000D03*
X198037500Y-64295000D03*
%TD*%
D13*
%TO.C,R6*%
X237531716Y2901283D03*
X237531716Y1076283D03*
%TD*%
D16*
%TO.C,D6*%
X191492500Y-64365000D03*
X193067500Y-64365000D03*
%TD*%
D22*
%TO.C,C12*%
X240011716Y-17648717D03*
X240011716Y-19548717D03*
%TD*%
D20*
%TO.C,D5*%
X231229216Y11541283D03*
X229654216Y11541283D03*
%TD*%
D11*
%TO.C,R3*%
X220701716Y7448783D03*
X220701716Y9273783D03*
%TD*%
D19*
%TO.C,C6*%
X248251716Y18791283D03*
X246351716Y18791283D03*
%TD*%
D11*
%TO.C,R6*%
X180030000Y-55655000D03*
X180030000Y-53830000D03*
%TD*%
D23*
%TO.C,U13*%
X240669216Y5081283D03*
X242969216Y5081283D03*
D24*
X242969216Y-1218717D03*
D23*
X245269216Y5081283D03*
%TD*%
D25*
%TO.C,U13*%
X176892500Y-57835000D03*
X174592500Y-57835000D03*
D26*
X174592500Y-51535000D03*
D25*
X172292500Y-57835000D03*
%TD*%
D11*
%TO.C,R8*%
X203210000Y-60717500D03*
X203210000Y-58892500D03*
%TD*%
D20*
%TO.C,D6*%
X226069216Y11611283D03*
X224494216Y11611283D03*
%TD*%
%TO.C,D4*%
X221099216Y11541283D03*
X219524216Y11541283D03*
%TD*%
D19*
%TO.C,C1*%
X196431716Y-9018717D03*
X194531716Y-9018717D03*
%TD*%
D14*
%TO.C,R13*%
X238407500Y-54025000D03*
X240232500Y-54025000D03*
%TD*%
D22*
%TO.C,C10*%
X177560000Y-43365000D03*
X177560000Y-45265000D03*
%TD*%
D15*
%TO.C,C2*%
X221070000Y-41255000D03*
X222970000Y-41255000D03*
%TD*%
D21*
%TO.C,U7*%
X230471716Y-17548717D03*
X228471716Y-17548717D03*
X226471716Y-17548717D03*
X222471716Y-17548717D03*
X218471716Y-1548717D03*
X220471716Y-1548717D03*
X224471716Y-1548717D03*
X226471716Y-1548717D03*
X228471716Y-1548717D03*
X230471716Y-1548717D03*
X232471716Y-1548717D03*
%TD*%
D14*
%TO.C,R7*%
X190109216Y-13958717D03*
X191934216Y-13958717D03*
%TD*%
%TO.C,R10*%
X190129216Y-11558717D03*
X191954216Y-11558717D03*
%TD*%
M02*
