%TF.GenerationSoftware,KiCad,Pcbnew,9.0.7*%
%TF.CreationDate,2026-09-09T18:33:06+05:30*%
%TF.ProjectId,WPC-panel2x,5750432d-7061-46e6-956c-32782e6b6963,rev?*%
%TF.SameCoordinates,Original*%
%TF.FileFunction,Soldermask,Bot*%
%TF.FilePolarity,Negative*%
%FSLAX46Y46*%
G04 Gerber Fmt 4.6, Leading zero omitted, Abs format (unit mm)*
G04 Created by KiCad (PCBNEW 9.0.7) date 2026-09-09 18:33:06*
%MOMM*%
%LPD*%
G01*
G04 APERTURE LIST*
G04 Aperture macros list*
%AMRoundRect*
0 Rectangle with rounded corners*
0 $1 Rounding radius*
0 $2 $3 $4 $5 $6 $7 $8 $9 X,Y pos of 4 corners*
0 Add a 4 corners polygon primitive as box body*
4,1,4,$2,$3,$4,$5,$6,$7,$8,$9,$2,$3,0*
0 Add four circle primitives for the rounded corners*
1,1,$1+$1,$2,$3*
1,1,$1+$1,$4,$5*
1,1,$1+$1,$6,$7*
1,1,$1+$1,$8,$9*
0 Add four rect primitives between the rounded corners*
20,1,$1+$1,$2,$3,$4,$5,0*
20,1,$1+$1,$4,$5,$6,$7,0*
20,1,$1+$1,$6,$7,$8,$9,0*
20,1,$1+$1,$8,$9,$2,$3,0*%
G04 Aperture macros list end*
%ADD10RoundRect,0.249999X-0.790001X-1.550001X0.790001X-1.550001X0.790001X1.550001X-0.790001X1.550001X0*%
%ADD11O,2.080000X3.600000*%
%ADD12RoundRect,0.249999X0.790001X1.550001X-0.790001X1.550001X-0.790001X-1.550001X0.790001X-1.550001X0*%
%ADD13C,1.200000*%
%ADD14O,2.200000X1.500000*%
%ADD15RoundRect,0.250000X-0.550000X-0.550000X0.550000X-0.550000X0.550000X0.550000X-0.550000X0.550000X0*%
%ADD16C,1.600000*%
%ADD17C,4.500000*%
%ADD18RoundRect,0.250000X0.550000X0.550000X-0.550000X0.550000X-0.550000X-0.550000X0.550000X-0.550000X0*%
%ADD19RoundRect,0.250000X0.475000X-0.250000X0.475000X0.250000X-0.475000X0.250000X-0.475000X-0.250000X0*%
%ADD20RoundRect,0.250000X0.450000X-0.262500X0.450000X0.262500X-0.450000X0.262500X-0.450000X-0.262500X0*%
%ADD21RoundRect,0.250000X0.262500X0.450000X-0.262500X0.450000X-0.262500X-0.450000X0.262500X-0.450000X0*%
%ADD22RoundRect,0.250000X-0.450000X0.262500X-0.450000X-0.262500X0.450000X-0.262500X0.450000X0.262500X0*%
%ADD23RoundRect,0.250000X-0.262500X-0.450000X0.262500X-0.450000X0.262500X0.450000X-0.262500X0.450000X0*%
%ADD24RoundRect,0.250000X-0.250000X-0.475000X0.250000X-0.475000X0.250000X0.475000X-0.250000X0.475000X0*%
%ADD25RoundRect,0.218750X-0.218750X-0.256250X0.218750X-0.256250X0.218750X0.256250X-0.218750X0.256250X0*%
%ADD26RoundRect,0.150000X-0.150000X0.512500X-0.150000X-0.512500X0.150000X-0.512500X0.150000X0.512500X0*%
%ADD27RoundRect,0.150000X0.150000X-0.512500X0.150000X0.512500X-0.150000X0.512500X-0.150000X-0.512500X0*%
%ADD28RoundRect,0.250000X0.250000X0.475000X-0.250000X0.475000X-0.250000X-0.475000X0.250000X-0.475000X0*%
%ADD29RoundRect,0.218750X0.218750X0.256250X-0.218750X0.256250X-0.218750X-0.256250X0.218750X-0.256250X0*%
%ADD30RoundRect,0.250000X0.385000X1.350000X-0.385000X1.350000X-0.385000X-1.350000X0.385000X-1.350000X0*%
%ADD31RoundRect,0.250000X0.425000X1.600000X-0.425000X1.600000X-0.425000X-1.600000X0.425000X-1.600000X0*%
%ADD32R,1.500000X2.000000*%
%ADD33RoundRect,0.250000X-0.475000X0.250000X-0.475000X-0.250000X0.475000X-0.250000X0.475000X0.250000X0*%
%ADD34RoundRect,0.250000X-0.385000X-1.350000X0.385000X-1.350000X0.385000X1.350000X-0.385000X1.350000X0*%
%ADD35RoundRect,0.250000X-0.425000X-1.600000X0.425000X-1.600000X0.425000X1.600000X-0.425000X1.600000X0*%
%ADD36RoundRect,0.375000X-0.375000X0.625000X-0.375000X-0.625000X0.375000X-0.625000X0.375000X0.625000X0*%
%ADD37RoundRect,0.500000X-1.400000X0.500000X-1.400000X-0.500000X1.400000X-0.500000X1.400000X0.500000X0*%
%ADD38RoundRect,0.375000X0.375000X-0.625000X0.375000X0.625000X-0.375000X0.625000X-0.375000X-0.625000X0*%
%ADD39RoundRect,0.500000X1.400000X-0.500000X1.400000X0.500000X-1.400000X0.500000X-1.400000X-0.500000X0*%
G04 APERTURE END LIST*
D10*
%TO.C,J4*%
X181410000Y-68695000D03*
D11*
X186490000Y-68695000D03*
X191570000Y-68695000D03*
X196650000Y-68695000D03*
%TD*%
D12*
%TO.C,J3*%
X250121716Y15981283D03*
D11*
X245041716Y15981283D03*
%TD*%
D12*
%TO.C,J4*%
X236151716Y15941283D03*
D11*
X231071716Y15941283D03*
X225991716Y15941283D03*
X220911716Y15941283D03*
%TD*%
D13*
%TO.C,U5*%
X173986713Y-11533717D03*
X173986713Y-8973717D03*
X173961713Y-14048717D03*
X173961713Y11311283D03*
X173936713Y-6433717D03*
X173936713Y6236283D03*
X173911713Y3736283D03*
X173911713Y13851283D03*
D14*
X173911713Y18961283D03*
X173911713Y16401283D03*
X173961713Y8751283D03*
X173911713Y1176283D03*
X173961713Y-1363717D03*
X173936713Y-3873717D03*
X173961713Y-16608717D03*
X198961713Y-16608717D03*
X198961713Y-14048717D03*
X198986713Y-11533717D03*
X198986713Y-8973717D03*
X198936713Y-6433717D03*
X198936713Y-3873717D03*
X198936713Y-1238717D03*
X198886713Y1301283D03*
X198886713Y3861283D03*
X198911713Y6361283D03*
X198936713Y8876283D03*
X198936713Y11436283D03*
X198886713Y13976283D03*
X198911713Y16401283D03*
X198911713Y18961283D03*
%TD*%
D15*
%TO.C,C4*%
X247540779Y-2968717D03*
X248211716Y-4568717D03*
D16*
X250711716Y-4568717D03*
X251382653Y-6168717D03*
%TD*%
D17*
%TO.C,.*%
X164480000Y-58475000D03*
%TD*%
%TO.C,.*%
X253081716Y5721283D03*
%TD*%
%TO.C,.*%
X208901716Y-13248717D03*
%TD*%
D13*
%TO.C,U5*%
X243575003Y-41220000D03*
X243575003Y-43780000D03*
X243600003Y-38705000D03*
X243600003Y-64065000D03*
X243625003Y-46320000D03*
X243625003Y-58990000D03*
X243650003Y-56490000D03*
X243650003Y-66605000D03*
D14*
X243650003Y-71715000D03*
X243650003Y-69155000D03*
X243600003Y-61505000D03*
X243650003Y-53930000D03*
X243600003Y-51390000D03*
X243625003Y-48880000D03*
X243600003Y-36145000D03*
X218600003Y-36145000D03*
X218600003Y-38705000D03*
X218575003Y-41220000D03*
X218575003Y-43780000D03*
X218625003Y-46320000D03*
X218625003Y-48880000D03*
X218625003Y-51515000D03*
X218675003Y-54055000D03*
X218675003Y-56615000D03*
X218650003Y-59115000D03*
X218625003Y-61630000D03*
X218625003Y-64190000D03*
X218675003Y-66730000D03*
X218650003Y-69155000D03*
X218650003Y-71715000D03*
%TD*%
D15*
%TO.C,C5*%
X247511716Y-13678717D03*
X248182653Y-15278717D03*
D16*
X250682653Y-15278717D03*
X251353590Y-16878717D03*
%TD*%
D12*
%TO.C,J1*%
X211896716Y15881283D03*
D11*
X206816716Y15881283D03*
%TD*%
D18*
%TO.C,C5*%
X170050000Y-39075000D03*
X169379063Y-37475000D03*
D16*
X166879063Y-37475000D03*
X166208126Y-35875000D03*
%TD*%
D10*
%TO.C,J3*%
X167440000Y-68735000D03*
D11*
X172520000Y-68735000D03*
%TD*%
D10*
%TO.C,J1*%
X205665000Y-68635000D03*
D11*
X210745000Y-68635000D03*
%TD*%
D17*
%TO.C,.*%
X208660000Y-39505000D03*
%TD*%
D18*
%TO.C,C4*%
X170020937Y-49785000D03*
X169350000Y-48185000D03*
D16*
X166850000Y-48185000D03*
X166179063Y-46585000D03*
%TD*%
D19*
%TO.C,C7*%
X241961716Y-9388717D03*
X241961716Y-7488717D03*
%TD*%
D20*
%TO.C,R9*%
X230701716Y7448783D03*
X230701716Y9273783D03*
%TD*%
D21*
%TO.C,R10*%
X227432500Y-41195000D03*
X225607500Y-41195000D03*
%TD*%
%TO.C,R7*%
X227452500Y-38795000D03*
X225627500Y-38795000D03*
%TD*%
D22*
%TO.C,R4*%
X191880000Y-60162500D03*
X191880000Y-61987500D03*
%TD*%
%TO.C,R1*%
X214141716Y-18346217D03*
X214141716Y-20171217D03*
%TD*%
D20*
%TO.C,R4*%
X225681716Y7408783D03*
X225681716Y9233783D03*
%TD*%
D19*
%TO.C,C10*%
X240001716Y-9388717D03*
X240001716Y-7488717D03*
%TD*%
D23*
%TO.C,R5*%
X190159216Y-8988717D03*
X191984216Y-8988717D03*
%TD*%
D20*
%TO.C,R1*%
X203420000Y-34407500D03*
X203420000Y-32582500D03*
%TD*%
D21*
%TO.C,R13*%
X179154216Y1271283D03*
X177329216Y1271283D03*
%TD*%
D24*
%TO.C,C3*%
X221090000Y-38715000D03*
X222990000Y-38715000D03*
%TD*%
D25*
%TO.C,D8*%
X210332500Y-64345000D03*
X211907500Y-64345000D03*
%TD*%
D22*
%TO.C,R9*%
X186860000Y-60202500D03*
X186860000Y-62027500D03*
%TD*%
D26*
%TO.C,U8*%
X242019216Y-12581217D03*
X242969216Y-12581217D03*
X243919216Y-12581217D03*
X243919216Y-14856217D03*
X242019216Y-14856217D03*
%TD*%
D21*
%TO.C,R5*%
X227402500Y-43765000D03*
X225577500Y-43765000D03*
%TD*%
D22*
%TO.C,R23*%
X237341713Y-7346217D03*
X237341713Y-9171217D03*
%TD*%
D27*
%TO.C,U8*%
X175542500Y-40172500D03*
X174592500Y-40172500D03*
X173642500Y-40172500D03*
X173642500Y-37897500D03*
X175542500Y-37897500D03*
%TD*%
D28*
%TO.C,C8*%
X196451716Y-6398717D03*
X194551716Y-6398717D03*
%TD*%
D29*
%TO.C,D8*%
X207229216Y11591283D03*
X205654216Y11591283D03*
%TD*%
D19*
%TO.C,C13*%
X175680000Y-35065000D03*
X175680000Y-33165000D03*
%TD*%
D30*
%TO.C,J2*%
X232671713Y-23198717D03*
D31*
X235496713Y-22948717D03*
X229846713Y-22948717D03*
%TD*%
D22*
%TO.C,R8*%
X214351716Y7963783D03*
X214351716Y6138783D03*
%TD*%
%TO.C,R2*%
X214141716Y-5256217D03*
X214141716Y-7081217D03*
%TD*%
D32*
%TO.C,U7*%
X185090000Y-35205000D03*
X187090000Y-35205000D03*
X189090000Y-35205000D03*
X191090000Y-35205000D03*
X195090000Y-35205000D03*
X199090000Y-51205000D03*
X197090000Y-51205000D03*
X193090000Y-51205000D03*
X191090000Y-51205000D03*
X189090000Y-51205000D03*
X187090000Y-51205000D03*
X185090000Y-51205000D03*
%TD*%
D17*
%TO.C,.*%
X164681716Y5721283D03*
%TD*%
D24*
%TO.C,C1*%
X221130000Y-43735000D03*
X223030000Y-43735000D03*
%TD*%
D28*
%TO.C,C2*%
X196491716Y-11498717D03*
X194591716Y-11498717D03*
%TD*%
D22*
%TO.C,R11*%
X211120000Y-60172500D03*
X211120000Y-61997500D03*
%TD*%
D24*
%TO.C,C8*%
X221110000Y-46355000D03*
X223010000Y-46355000D03*
%TD*%
D20*
%TO.C,R23*%
X180220003Y-45407500D03*
X180220003Y-43582500D03*
%TD*%
D22*
%TO.C,R3*%
X196860000Y-60202500D03*
X196860000Y-62027500D03*
%TD*%
D21*
%TO.C,R12*%
X227242500Y-46395000D03*
X225417500Y-46395000D03*
%TD*%
D33*
%TO.C,C13*%
X241881716Y-17688717D03*
X241881716Y-19588717D03*
%TD*%
D23*
%TO.C,R12*%
X190319216Y-6358717D03*
X192144216Y-6358717D03*
%TD*%
D20*
%TO.C,R11*%
X206441716Y7418783D03*
X206441716Y9243783D03*
%TD*%
D19*
%TO.C,C12*%
X177550000Y-35105000D03*
X177550000Y-33205000D03*
%TD*%
D20*
%TO.C,R2*%
X203420000Y-47497500D03*
X203420000Y-45672500D03*
%TD*%
D24*
%TO.C,C6*%
X169310000Y-71545000D03*
X171210000Y-71545000D03*
%TD*%
D25*
%TO.C,D5*%
X186332500Y-64295000D03*
X187907500Y-64295000D03*
%TD*%
D28*
%TO.C,C3*%
X196471716Y-14038717D03*
X194571716Y-14038717D03*
%TD*%
D17*
%TO.C,.*%
X252880000Y-58475000D03*
%TD*%
D33*
%TO.C,C7*%
X175600000Y-43365000D03*
X175600000Y-45265000D03*
%TD*%
D25*
%TO.C,D4*%
X196462500Y-64295000D03*
X198037500Y-64295000D03*
%TD*%
D22*
%TO.C,R6*%
X237531716Y2901283D03*
X237531716Y1076283D03*
%TD*%
D25*
%TO.C,D6*%
X191492500Y-64365000D03*
X193067500Y-64365000D03*
%TD*%
D33*
%TO.C,C12*%
X240011716Y-17648717D03*
X240011716Y-19548717D03*
%TD*%
D29*
%TO.C,D5*%
X231229216Y11541283D03*
X229654216Y11541283D03*
%TD*%
D20*
%TO.C,R3*%
X220701716Y7448783D03*
X220701716Y9273783D03*
%TD*%
D34*
%TO.C,J2*%
X184890003Y-29555000D03*
D35*
X182065003Y-29805000D03*
X187715003Y-29805000D03*
%TD*%
D28*
%TO.C,C6*%
X248251716Y18791283D03*
X246351716Y18791283D03*
%TD*%
D20*
%TO.C,R6*%
X180030000Y-55655000D03*
X180030000Y-53830000D03*
%TD*%
D36*
%TO.C,U13*%
X240669216Y5081283D03*
X242969216Y5081283D03*
D37*
X242969216Y-1218717D03*
D36*
X245269216Y5081283D03*
%TD*%
D38*
%TO.C,U13*%
X176892500Y-57835000D03*
X174592500Y-57835000D03*
D39*
X174592500Y-51535000D03*
D38*
X172292500Y-57835000D03*
%TD*%
D20*
%TO.C,R8*%
X203210000Y-60717500D03*
X203210000Y-58892500D03*
%TD*%
D29*
%TO.C,D6*%
X226069216Y11611283D03*
X224494216Y11611283D03*
%TD*%
%TO.C,D4*%
X221099216Y11541283D03*
X219524216Y11541283D03*
%TD*%
D28*
%TO.C,C1*%
X196431716Y-9018717D03*
X194531716Y-9018717D03*
%TD*%
D23*
%TO.C,R13*%
X238407500Y-54025000D03*
X240232500Y-54025000D03*
%TD*%
D33*
%TO.C,C10*%
X177560000Y-43365000D03*
X177560000Y-45265000D03*
%TD*%
D24*
%TO.C,C2*%
X221070000Y-41255000D03*
X222970000Y-41255000D03*
%TD*%
D32*
%TO.C,U7*%
X232471716Y-17548717D03*
X230471716Y-17548717D03*
X228471716Y-17548717D03*
X226471716Y-17548717D03*
X222471716Y-17548717D03*
X218471716Y-1548717D03*
X220471716Y-1548717D03*
X224471716Y-1548717D03*
X226471716Y-1548717D03*
X228471716Y-1548717D03*
X230471716Y-1548717D03*
X232471716Y-1548717D03*
%TD*%
D23*
%TO.C,R7*%
X190109216Y-13958717D03*
X191934216Y-13958717D03*
%TD*%
%TO.C,R10*%
X190129216Y-11558717D03*
X191954216Y-11558717D03*
%TD*%
M02*
