%TF.GenerationSoftware,KiCad,Pcbnew,9.0.7*%
%TF.CreationDate,2026-09-09T18:33:06+05:30*%
%TF.ProjectId,WPC-panel2x,5750432d-7061-46e6-956c-32782e6b6963,rev?*%
%TF.SameCoordinates,Original*%
%TF.FileFunction,Soldermask,Top*%
%TF.FilePolarity,Negative*%
%FSLAX46Y46*%
G04 Gerber Fmt 4.6, Leading zero omitted, Abs format (unit mm)*
G04 Created by KiCad (PCBNEW 9.0.7) date 2026-09-09 18:33:06*
%MOMM*%
%LPD*%
G01*
G04 APERTURE LIST*
G04 Aperture macros list*
%AMRoundRect*
0 Rectangle with rounded corners*
0 $1 Rounding radius*
0 $2 $3 $4 $5 $6 $7 $8 $9 X,Y pos of 4 corners*
0 Add a 4 corners polygon primitive as box body*
4,1,4,$2,$3,$4,$5,$6,$7,$8,$9,$2,$3,0*
0 Add four circle primitives for the rounded corners*
1,1,$1+$1,$2,$3*
1,1,$1+$1,$4,$5*
1,1,$1+$1,$6,$7*
1,1,$1+$1,$8,$9*
0 Add four rect primitives between the rounded corners*
20,1,$1+$1,$2,$3,$4,$5,0*
20,1,$1+$1,$4,$5,$6,$7,0*
20,1,$1+$1,$6,$7,$8,$9,0*
20,1,$1+$1,$8,$9,$2,$3,0*%
G04 Aperture macros list end*
%ADD10RoundRect,0.249999X-0.790001X-1.550001X0.790001X-1.550001X0.790001X1.550001X-0.790001X1.550001X0*%
%ADD11O,2.080000X3.600000*%
%ADD12RoundRect,0.249999X0.790001X1.550001X-0.790001X1.550001X-0.790001X-1.550001X0.790001X-1.550001X0*%
%ADD13RoundRect,0.250000X-0.625000X0.375000X-0.625000X-0.375000X0.625000X-0.375000X0.625000X0.375000X0*%
%ADD14C,1.200000*%
%ADD15O,2.200000X1.500000*%
%ADD16RoundRect,0.250000X-0.550000X-0.550000X0.550000X-0.550000X0.550000X0.550000X-0.550000X0.550000X0*%
%ADD17C,1.600000*%
%ADD18C,4.500000*%
%ADD19RoundRect,0.250000X0.625000X-0.375000X0.625000X0.375000X-0.625000X0.375000X-0.625000X-0.375000X0*%
%ADD20RoundRect,0.250000X0.550000X0.550000X-0.550000X0.550000X-0.550000X-0.550000X0.550000X-0.550000X0*%
%ADD21RoundRect,0.250000X0.425000X1.600000X-0.425000X1.600000X-0.425000X-1.600000X0.425000X-1.600000X0*%
%ADD22R,1.500000X2.000000*%
%ADD23RoundRect,0.250000X-0.425000X-1.600000X0.425000X-1.600000X0.425000X1.600000X-0.425000X1.600000X0*%
G04 APERTURE END LIST*
D10*
%TO.C,J4*%
X181410000Y-68695000D03*
D11*
X186490000Y-68695000D03*
X191570000Y-68695000D03*
X196650000Y-68695000D03*
%TD*%
D12*
%TO.C,J3*%
X250121716Y15981283D03*
D11*
X245041716Y15981283D03*
%TD*%
D12*
%TO.C,J4*%
X236151716Y15941283D03*
D11*
X231071716Y15941283D03*
X225991716Y15941283D03*
X220911716Y15941283D03*
%TD*%
D13*
%TO.C,D1*%
X200320000Y-58315000D03*
X200320000Y-61115000D03*
%TD*%
D14*
%TO.C,U5*%
X173986713Y-11533717D03*
X173986713Y-8973717D03*
X173961713Y-14048717D03*
X173961713Y11311283D03*
X173936713Y-6433717D03*
X173936713Y6236283D03*
X173911713Y3736283D03*
X173911713Y13851283D03*
D15*
X173911713Y18961283D03*
X173911713Y16401283D03*
X173961713Y8751283D03*
X173911713Y1176283D03*
X173961713Y-1363717D03*
X173936713Y-3873717D03*
X173961713Y-16608717D03*
X198961713Y-16608717D03*
X198961713Y-14048717D03*
X198986713Y-11533717D03*
X198986713Y-8973717D03*
X198936713Y-6433717D03*
X198936713Y-3873717D03*
X198936713Y-1238717D03*
X198886713Y1301283D03*
X198886713Y3861283D03*
X198911713Y6361283D03*
X198936713Y8876283D03*
X198936713Y11436283D03*
X198886713Y13976283D03*
X198911713Y16401283D03*
X198911713Y18961283D03*
%TD*%
D16*
%TO.C,C4*%
X247540779Y-2968717D03*
X248211716Y-4568717D03*
D17*
X250711716Y-4568717D03*
X251382653Y-6168717D03*
%TD*%
D18*
%TO.C,.*%
X164480000Y-58475000D03*
%TD*%
%TO.C,.*%
X253081716Y5721283D03*
%TD*%
D13*
%TO.C,D2*%
X200340000Y-45205000D03*
X200340000Y-48005000D03*
%TD*%
D18*
%TO.C,.*%
X208901716Y-13248717D03*
%TD*%
D19*
%TO.C,D13*%
X237521716Y-14068717D03*
X237521716Y-11268717D03*
%TD*%
D14*
%TO.C,U5*%
X243575003Y-41220000D03*
X243575003Y-43780000D03*
X243600003Y-38705000D03*
X243600003Y-64065000D03*
X243625003Y-46320000D03*
X243625003Y-58990000D03*
X243650003Y-56490000D03*
X243650003Y-66605000D03*
D15*
X243650003Y-71715000D03*
X243650003Y-69155000D03*
X243600003Y-61505000D03*
X243650003Y-53930000D03*
X243600003Y-51390000D03*
X243625003Y-48880000D03*
X243600003Y-36145000D03*
X218600003Y-36145000D03*
X218600003Y-38705000D03*
X218575003Y-41220000D03*
X218575003Y-43780000D03*
X218625003Y-46320000D03*
X218625003Y-48880000D03*
X218625003Y-51515000D03*
X218675003Y-54055000D03*
X218675003Y-56615000D03*
X218650003Y-59115000D03*
X218625003Y-61630000D03*
X218625003Y-64190000D03*
X218675003Y-66730000D03*
X218650003Y-69155000D03*
X218650003Y-71715000D03*
%TD*%
D13*
%TO.C,D13*%
X180040000Y-38685000D03*
X180040000Y-41485000D03*
%TD*%
%TO.C,D7*%
X180060000Y-49165000D03*
X180060000Y-51965000D03*
%TD*%
D16*
%TO.C,C5*%
X247511716Y-13678717D03*
X248182653Y-15278717D03*
D17*
X250682653Y-15278717D03*
X251353590Y-16878717D03*
%TD*%
D12*
%TO.C,J1*%
X211896716Y15881283D03*
D11*
X206816716Y15881283D03*
%TD*%
D20*
%TO.C,C5*%
X170050000Y-39075000D03*
X169379063Y-37475000D03*
D17*
X166879063Y-37475000D03*
X166208126Y-35875000D03*
%TD*%
D19*
%TO.C,D1*%
X217241716Y5561283D03*
X217241716Y8361283D03*
%TD*%
%TO.C,D7*%
X237501716Y-3588717D03*
X237501716Y-788717D03*
%TD*%
%TO.C,D2*%
X217221716Y-7548717D03*
X217221716Y-4748717D03*
%TD*%
D10*
%TO.C,J3*%
X167440000Y-68735000D03*
D11*
X172520000Y-68735000D03*
%TD*%
D10*
%TO.C,J1*%
X205665000Y-68635000D03*
D11*
X210745000Y-68635000D03*
%TD*%
D19*
%TO.C,D3*%
X217221716Y-20648717D03*
X217221716Y-17848717D03*
%TD*%
D18*
%TO.C,.*%
X208660000Y-39505000D03*
%TD*%
D13*
%TO.C,D3*%
X200340000Y-32105000D03*
X200340000Y-34905000D03*
%TD*%
D20*
%TO.C,C4*%
X170020937Y-49785000D03*
X169350000Y-48185000D03*
D17*
X166850000Y-48185000D03*
X166179063Y-46585000D03*
%TD*%
D21*
%TO.C,J2*%
X235496713Y-22948717D03*
X229846713Y-22948717D03*
%TD*%
D22*
%TO.C,U7*%
X185090000Y-35205000D03*
%TD*%
D18*
%TO.C,.*%
X164681716Y5721283D03*
%TD*%
%TO.C,.*%
X252880000Y-58475000D03*
%TD*%
D23*
%TO.C,J2*%
X182065003Y-29805000D03*
X187715003Y-29805000D03*
%TD*%
D22*
%TO.C,U7*%
X232471716Y-17548717D03*
%TD*%
M02*
