M48
; DRILL file {KiCad 9.0.7} date 2026-09-09T18:33:06+0530
; FORMAT={-:-/ absolute / metric / decimal}
; #@! TF.CreationDate,2026-09-09T18:33:06+05:30
; #@! TF.GenerationSoftware,Kicad,Pcbnew,9.0.7
; #@! TF.FileFunction,MixedPlating,1,2
FMAT,2
METRIC
; #@! TA.AperFunction,Plated,PTH,ViaDrill
T1C0.300
; #@! TA.AperFunction,Plated,PTH,ComponentDrill
T2C0.800
; #@! TA.AperFunction,Plated,PTH,ComponentDrill
T3C1.200
; #@! TA.AperFunction,Plated,PTH,ComponentDrill
T4C1.400
; #@! TA.AperFunction,NonPlated,NPTH,ComponentDrill
T5C1.200
; #@! TA.AperFunction,NonPlated,NPTH,ComponentDrill
T6C4.000
%
G90
G05
T1
X162.4Y-67.415
X162.41Y-68.535
X162.44Y-69.605
X162.45Y-70.725
X163.99Y-67.425
X164.0Y-68.545
X164.03Y-69.615
X164.04Y-70.735
X164.12Y-42.165
X164.13Y-43.285
X164.16Y-44.355
X164.17Y-45.475
X165.362Y16.991
X165.372Y15.871
X165.402Y14.801
X165.412Y13.681
X165.432Y-4.309
X165.442Y-5.429
X165.472Y-6.499
X165.482Y-7.619
X165.71Y-42.175
X165.72Y-43.295
X165.75Y-44.365
X166.952Y16.981
X166.962Y15.861
X166.992Y14.791
X167.002Y13.671
X167.022Y-4.319
X167.032Y-5.439
X167.062Y-6.509
X167.072Y-7.629
X169.09Y-34.555
X170.21Y-34.545
X171.28Y-34.515
X171.94Y-29.575
X172.39Y-36.095
X172.4Y-34.505
X175.82Y-47.505
X176.62Y-28.365
X176.63Y-29.485
X176.88Y-49.065
X176.89Y-47.475
X177.49Y-63.585
X177.49Y-64.745
X177.5Y-69.315
X177.51Y-65.805
X177.54Y-62.655
X177.56Y-68.065
X177.64Y-66.795
X177.912Y-9.529
X177.922Y-10.649
X177.952Y-11.719
X177.962Y-12.839
X178.0Y-49.055
X178.01Y-47.465
X178.21Y-28.375
X178.22Y-29.495
X179.01Y-57.355
X179.02Y-58.475
X179.05Y-59.545
X179.06Y-60.665
X179.502Y-9.539
X179.512Y-10.659
X179.542Y-11.729
X179.552Y-12.849
X179.752Y-5.269
X179.89Y-31.805
X180.03Y-52.855
X180.18Y-42.725
X180.452Y-2.649
X180.6Y-57.365
X180.61Y-58.485
X180.64Y-59.555
X180.65Y-60.675
X180.892Y-3.769
X182.32Y-33.845
X182.35Y-32.585
X183.75Y-40.565
X183.76Y-41.685
X183.79Y-42.755
X183.8Y-43.875
X184.452Y-5.299
X184.452Y-5.299
X184.6Y-58.675
X184.61Y-59.795
X184.64Y-60.865
X184.65Y-61.985
X185.34Y-40.575
X185.35Y-41.695
X185.38Y-42.765
X185.39Y-43.885
X185.67Y-54.205
X186.022Y19.031
X186.032Y17.911
X186.062Y16.841
X186.072Y15.721
X186.582Y-2.589
X186.79Y-54.195
X187.25Y-37.005
X187.612Y19.021
X187.622Y17.901
X187.652Y16.831
X187.662Y15.711
X187.86Y-54.165
X188.15Y-45.405
X188.18Y-47.725
X188.472Y-0.889
X188.49Y-32.075
X188.5Y-33.195
X188.722Y5.791
X188.722Y5.791
X188.812Y-3.669
X188.812Y-3.669
X188.98Y-54.155
X189.29Y-60.485
X189.3Y-61.605
X189.33Y-62.675
X189.34Y-63.795
X190.08Y-32.085
X190.09Y-33.205
X190.192Y-1.619
X190.242Y5.741
X190.89Y-45.225
X192.012Y0.031
X192.17Y-43.845
X192.32Y-31.665
X192.33Y-32.785
X192.402Y3.601
X193.092Y-14.189
X193.132Y-8.699
X193.132Y-11.239
X193.212Y-5.559
X193.212Y-6.899
X193.91Y-31.675
X193.92Y-32.795
X194.11Y-60.485
X194.12Y-61.605
X194.15Y-62.675
X194.16Y-63.795
X195.215Y-38.54
X196.21Y-39.465
X197.23Y-40.335
X198.17Y-32.335
X198.23Y-28.405
X199.12Y-28.865
X199.169Y-33.705
X199.46Y-40.875
X199.47Y-38.615
X200.41Y-63.195
X200.42Y-64.315
X200.45Y-65.385
X200.46Y-66.505
X200.872Y-1.239
X201.29Y-60.435
X201.39Y-49.685
X201.4Y-50.805
X201.43Y-51.875
X201.44Y-52.995
X201.62Y-34.275
X201.62Y-47.355
X201.702Y4.421
X202.0Y-63.205
X202.01Y-64.325
X202.04Y-65.395
X202.05Y-66.515
X202.98Y-49.695
X202.99Y-50.815
X203.02Y-51.885
X203.03Y-53.005
X203.412Y4.421
X203.412Y4.421
X203.612Y-13.289
X203.622Y-14.409
X205.202Y-13.299
X205.212Y-14.419
X206.572Y-1.239
X210.99Y-51.515
X212.35Y-38.335
X212.36Y-39.455
X213.94Y-38.345
X213.95Y-39.465
X214.15Y-57.175
X214.15Y-57.175
X214.532Y0.251
X214.542Y-0.869
X214.572Y-1.939
X214.582Y-3.059
X215.512Y13.761
X215.522Y12.641
X215.552Y11.571
X215.562Y10.451
X215.86Y-57.175
X215.942Y-5.399
X215.942Y-18.479
X216.122Y0.241
X216.132Y-0.879
X216.162Y-1.949
X216.172Y-3.069
X216.272Y7.681
X216.69Y-51.515
X217.102Y13.751
X217.112Y12.631
X217.142Y11.561
X217.152Y10.441
X218.092Y-14.139
X218.102Y-11.879
X218.393Y-19.049
X218.442Y-23.889
X219.332Y-24.349
X219.392Y-20.419
X220.332Y-12.419
X221.352Y-13.289
X222.347Y-14.214
X223.402Y11.041
X223.412Y9.921
X223.442Y8.851
X223.452Y7.731
X223.642Y-19.959
X223.652Y-21.079
X224.35Y-45.855
X224.35Y-47.195
X224.43Y-41.515
X224.43Y-44.055
X224.47Y-38.565
X225.16Y-56.355
X225.232Y-19.969
X225.242Y-21.089
X225.392Y-8.909
X225.55Y-52.785
X226.672Y-7.529
X227.32Y-58.495
X227.37Y-51.135
X227.472Y-19.549
X227.482Y-20.669
X228.222Y11.041
X228.232Y9.921
X228.262Y8.851
X228.272Y7.731
X228.582Y1.401
X228.75Y-49.085
X228.75Y-49.085
X228.84Y-58.545
X228.84Y-58.545
X229.062Y-19.559
X229.072Y-20.679
X229.09Y-51.865
X229.382Y-5.029
X229.412Y-7.349
X229.702Y1.411
X229.9Y-68.465
X229.91Y-69.585
X229.94Y-70.655
X229.95Y-71.775
X230.312Y-15.749
X230.772Y1.441
X230.98Y-50.165
X231.49Y-68.475
X231.5Y-69.595
X231.53Y-70.665
X231.54Y-71.785
X231.892Y1.451
X232.172Y-8.869
X232.182Y-9.989
X232.212Y-11.059
X232.222Y-12.179
X232.912Y9.231
X232.922Y8.111
X232.952Y7.041
X232.962Y5.921
X233.11Y-47.455
X233.11Y-47.455
X233.762Y-8.879
X233.772Y-9.999
X233.802Y-11.069
X233.812Y-12.189
X235.212Y-20.169
X235.242Y-18.909
X236.67Y-48.985
X236.912Y7.921
X236.922Y6.801
X236.952Y5.731
X236.962Y4.611
X237.11Y-50.105
X237.382Y-10.029
X237.532Y0.101
X237.672Y-20.949
X237.81Y-47.485
X238.01Y-39.905
X238.02Y-41.025
X238.05Y-42.095
X238.06Y-43.215
X238.502Y7.911
X238.512Y6.791
X238.542Y5.721
X238.552Y4.601
X239.342Y-23.259
X239.352Y-24.379
X239.552Y-5.289
X239.562Y-3.699
X239.6Y-39.915
X239.61Y-41.035
X239.64Y-42.105
X239.65Y-43.225
X239.922Y14.041
X240.002Y15.311
X240.022Y9.901
X240.052Y13.051
X240.062Y16.561
X240.072Y11.991
X240.072Y10.831
X240.672Y-5.279
X240.682Y-3.689
X240.932Y-23.269
X240.942Y-24.389
X241.742Y-5.249
X245.162Y-18.249
X245.172Y-16.659
X245.622Y-23.179
X246.282Y-18.239
X247.352Y-18.209
X248.472Y-18.199
X250.49Y-45.125
X250.5Y-46.245
X250.53Y-47.315
X250.54Y-48.435
X250.56Y-66.425
X250.57Y-67.545
X250.6Y-68.615
X250.61Y-69.735
X251.812Y-8.389
X251.842Y-9.459
X251.852Y-10.579
X252.08Y-45.135
X252.09Y-46.255
X252.12Y-47.325
X252.13Y-48.445
X252.15Y-66.435
X252.16Y-67.555
X252.19Y-68.625
X252.2Y-69.745
X253.392Y-7.279
X253.402Y-8.399
X253.432Y-9.469
X253.442Y-10.589
X253.522Y17.981
X253.532Y16.861
X253.562Y15.791
X253.572Y14.671
X255.112Y17.971
X255.122Y16.851
X255.152Y15.781
X255.162Y14.661
T2
X166.179Y-46.585
X166.208Y-35.875
X166.85Y-48.185
X166.879Y-37.475
X169.35Y-48.185
X169.379Y-37.475
X170.021Y-49.785
X170.05Y-39.075
X185.09Y-35.205
X232.472Y-17.549
X247.512Y-13.679
X247.541Y-2.969
X248.183Y-15.279
X248.212Y-4.569
X250.683Y-15.279
X250.712Y-4.569
X251.354Y-16.879
X251.383Y-6.169
T3
X173.912Y18.961
X173.912Y16.401
X173.912Y1.176
X173.937Y-3.874
X173.962Y8.751
X173.962Y-1.364
X173.962Y-16.609
X198.887Y13.976
X198.887Y3.861
X198.887Y1.301
X198.912Y18.961
X198.912Y16.401
X198.912Y6.361
X198.937Y11.436
X198.937Y8.876
X198.937Y-1.239
X198.937Y-3.874
X198.937Y-6.434
X198.962Y-14.049
X198.962Y-16.609
X198.987Y-8.974
X198.987Y-11.534
X218.575Y-41.22
X218.575Y-43.78
X218.6Y-36.145
X218.6Y-38.705
X218.625Y-46.32
X218.625Y-48.88
X218.625Y-51.515
X218.625Y-61.63
X218.625Y-64.19
X218.65Y-59.115
X218.65Y-69.155
X218.65Y-71.715
X218.675Y-54.055
X218.675Y-56.615
X218.675Y-66.73
X243.6Y-36.145
X243.6Y-51.39
X243.6Y-61.505
X243.625Y-48.88
X243.65Y-53.93
X243.65Y-69.155
X243.65Y-71.715
T4
X167.44Y-68.735
X172.52Y-68.735
X181.41Y-68.695
X186.49Y-68.695
X191.57Y-68.695
X196.65Y-68.695
X205.665Y-68.635
X206.817Y15.881
X210.745Y-68.635
X211.897Y15.881
X220.912Y15.941
X225.992Y15.941
X231.072Y15.941
X236.152Y15.941
X245.042Y15.981
X250.122Y15.981
T5
X173.912Y13.851
X173.912Y3.736
X173.937Y6.236
X173.937Y-6.434
X173.962Y11.311
X173.962Y-14.049
X173.987Y-8.974
X173.987Y-11.534
X243.575Y-41.22
X243.575Y-43.78
X243.6Y-38.705
X243.6Y-64.065
X243.625Y-46.32
X243.625Y-58.99
X243.65Y-56.49
X243.65Y-66.605
T6
X164.48Y-58.475
X164.682Y5.721
X208.66Y-39.505
X208.902Y-13.249
X252.88Y-58.475
X253.082Y5.721
M30
