%TF.GenerationSoftware,KiCad,Pcbnew,9.0.7*%
%TF.CreationDate,2026-07-31T17:35:36+05:30*%
%TF.ProjectId,WPC,5750432e-6b69-4636-9164-5f7063625858,rev?*%
%TF.SameCoordinates,Original*%
%TF.FileFunction,Soldermask,Top*%
%TF.FilePolarity,Negative*%
%FSLAX46Y46*%
G04 Gerber Fmt 4.6, Leading zero omitted, Abs format (unit mm)*
G04 Created by KiCad (PCBNEW 9.0.7) date 2026-07-31 17:35:36*
%MOMM*%
%LPD*%
G01*
G04 APERTURE LIST*
G04 Aperture macros list*
%AMRoundRect*
0 Rectangle with rounded corners*
0 $1 Rounding radius*
0 $2 $3 $4 $5 $6 $7 $8 $9 X,Y pos of 4 corners*
0 Add a 4 corners polygon primitive as box body*
4,1,4,$2,$3,$4,$5,$6,$7,$8,$9,$2,$3,0*
0 Add four circle primitives for the rounded corners*
1,1,$1+$1,$2,$3*
1,1,$1+$1,$4,$5*
1,1,$1+$1,$6,$7*
1,1,$1+$1,$8,$9*
0 Add four rect primitives between the rounded corners*
20,1,$1+$1,$2,$3,$4,$5,0*
20,1,$1+$1,$4,$5,$6,$7,0*
20,1,$1+$1,$6,$7,$8,$9,0*
20,1,$1+$1,$8,$9,$2,$3,0*%
G04 Aperture macros list end*
%ADD10RoundRect,0.249999X-0.790001X-1.550001X0.790001X-1.550001X0.790001X1.550001X-0.790001X1.550001X0*%
%ADD11O,2.080000X3.600000*%
%ADD12RoundRect,0.218750X-0.256250X0.218750X-0.256250X-0.218750X0.256250X-0.218750X0.256250X0.218750X0*%
%ADD13C,3.200000*%
%ADD14C,4.500000*%
%ADD15C,0.800000*%
%ADD16O,2.000000X1.200000*%
%ADD17RoundRect,0.250000X0.550000X0.550000X-0.550000X0.550000X-0.550000X-0.550000X0.550000X-0.550000X0*%
%ADD18C,1.600000*%
%ADD19RoundRect,0.250000X-0.425000X-1.600000X0.425000X-1.600000X0.425000X1.600000X-0.425000X1.600000X0*%
%ADD20R,1.500000X2.000000*%
G04 APERTURE END LIST*
D10*
%TO.C,J4*%
X181410000Y-68695000D03*
D11*
X186490000Y-68695000D03*
X191570000Y-68695000D03*
X196650000Y-68695000D03*
%TD*%
D12*
%TO.C,D1*%
X200320000Y-58927500D03*
X200320000Y-60502500D03*
%TD*%
D13*
%TO.C,H4*%
X11300339Y-16098876D03*
%TD*%
%TO.C,H5*%
X11300339Y-24048876D03*
%TD*%
D14*
%TO.C,.*%
X164870000Y-59995000D03*
%TD*%
D12*
%TO.C,D2*%
X200340000Y-45817500D03*
X200340000Y-47392500D03*
%TD*%
D15*
%TO.C,U5*%
X243575003Y-41220000D03*
X243575003Y-43780000D03*
X243600003Y-38705000D03*
X243600003Y-64065000D03*
X243625003Y-46320000D03*
X243625003Y-58990000D03*
X243650003Y-56490000D03*
X243650003Y-66605000D03*
D16*
X243650003Y-71715000D03*
X243650003Y-69155000D03*
X243600003Y-61505000D03*
X243650003Y-53930000D03*
X243600003Y-51390000D03*
X243625003Y-48880000D03*
X243600003Y-36145000D03*
X218600003Y-36145000D03*
X218600003Y-38705000D03*
X218575003Y-41220000D03*
X218575003Y-43780000D03*
X218625003Y-46320000D03*
X218625003Y-48880000D03*
X218625003Y-51515000D03*
X218675003Y-54055000D03*
X218675003Y-56615000D03*
X218650003Y-59115000D03*
X218625003Y-61630000D03*
X218625003Y-64190000D03*
X218675003Y-66730000D03*
X218650003Y-69155000D03*
X218650003Y-71715000D03*
%TD*%
D12*
%TO.C,D7*%
X180060000Y-50257500D03*
X180060000Y-51832500D03*
%TD*%
D17*
%TO.C,C5*%
X168940000Y-40185000D03*
X168269063Y-38585000D03*
D18*
X165769063Y-38585000D03*
X165098126Y-36985000D03*
%TD*%
D10*
%TO.C,J3*%
X167440000Y-68735000D03*
D11*
X172520000Y-68735000D03*
%TD*%
D13*
%TO.C,H1*%
X11300339Y-198876D03*
%TD*%
D10*
%TO.C,J1*%
X205665000Y-68635000D03*
D11*
X210745000Y-68635000D03*
%TD*%
D14*
%TO.C,.*%
X208875000Y-41925000D03*
%TD*%
D12*
%TO.C,D13*%
X180100000Y-40250000D03*
X180100000Y-41825000D03*
%TD*%
D13*
%TO.C,H2*%
X11300339Y-8148876D03*
%TD*%
D12*
%TO.C,D3*%
X200340000Y-32717500D03*
X200340000Y-34292500D03*
%TD*%
D17*
%TO.C,C4*%
X168640000Y-52015000D03*
X167969063Y-50415000D03*
D18*
X165469063Y-50415000D03*
X164798126Y-48815000D03*
%TD*%
D19*
%TO.C,J2*%
X182065003Y-29345000D03*
X187715003Y-29345000D03*
%TD*%
D20*
%TO.C,U7*%
X185090000Y-35205000D03*
%TD*%
D13*
%TO.C,.*%
X252880000Y-59995000D03*
%TD*%
M02*
