M48
; DRILL file {KiCad 9.0.7} date 2026-07-31T17:35:38+0530
; FORMAT={-:-/ absolute / metric / decimal}
; #@! TF.CreationDate,2026-07-31T17:35:38+05:30
; #@! TF.GenerationSoftware,Kicad,Pcbnew,9.0.7
; #@! TF.FileFunction,Plated,1,2,PTH
FMAT,2
METRIC
; #@! TA.AperFunction,Plated,PTH,ViaDrill
T1C0.300
; #@! TA.AperFunction,Plated,PTH,ComponentDrill
T2C0.800
; #@! TA.AperFunction,Plated,PTH,ComponentDrill
T3C1.400
%
G90
G05
T1
X162.4Y-67.415
X162.41Y-68.535
X162.44Y-69.605
X162.45Y-70.725
X163.99Y-67.425
X164.0Y-68.545
X164.03Y-69.615
X164.04Y-70.735
X164.12Y-42.165
X164.13Y-43.285
X164.16Y-44.355
X164.17Y-45.475
X165.71Y-42.175
X165.72Y-43.295
X165.75Y-44.365
X165.76Y-45.485
X169.08Y-36.145
X169.09Y-34.555
X170.2Y-36.135
X170.21Y-34.545
X171.27Y-36.105
X171.28Y-34.515
X172.39Y-36.095
X172.4Y-34.505
X174.69Y-49.105
X174.7Y-47.515
X175.81Y-49.095
X175.82Y-47.505
X176.62Y-28.365
X176.63Y-29.485
X176.88Y-49.065
X176.89Y-47.475
X178.0Y-49.055
X178.01Y-47.465
X178.21Y-28.375
X178.22Y-29.495
X179.01Y-57.355
X179.02Y-58.475
X179.05Y-59.545
X179.06Y-60.665
X180.03Y-52.855
X180.18Y-42.725
X180.23Y-34.605
X180.24Y-35.725
X180.6Y-57.365
X180.61Y-58.485
X180.64Y-59.555
X180.65Y-60.675
X181.82Y-34.615
X181.83Y-35.735
X183.75Y-40.565
X183.76Y-41.685
X183.79Y-42.755
X183.8Y-43.875
X184.6Y-58.675
X184.61Y-59.795
X184.64Y-60.865
X184.65Y-61.985
X185.34Y-40.575
X185.35Y-41.695
X185.38Y-42.765
X185.39Y-43.885
X185.67Y-54.205
X186.79Y-54.195
X187.25Y-37.005
X187.86Y-54.165
X188.15Y-45.405
X188.18Y-46.175
X188.49Y-32.075
X188.5Y-33.195
X188.98Y-54.155
X189.29Y-60.485
X189.3Y-61.605
X189.33Y-62.675
X189.34Y-63.795
X190.08Y-32.085
X190.09Y-33.205
X192.17Y-43.845
X192.2Y-44.615
X192.32Y-31.665
X192.33Y-32.785
X193.91Y-31.675
X193.92Y-32.795
X194.11Y-60.485
X194.12Y-61.605
X194.15Y-62.675
X194.16Y-63.795
X195.215Y-38.54
X196.21Y-39.465
X197.23Y-40.335
X198.17Y-32.335
X198.23Y-28.405
X199.03Y-32.865
X199.03Y-34.005
X199.12Y-28.865
X200.41Y-63.195
X200.42Y-64.315
X200.45Y-65.385
X200.46Y-66.505
X200.96Y-40.105
X200.99Y-40.875
X201.29Y-60.435
X201.39Y-49.685
X201.4Y-50.805
X201.43Y-51.875
X201.44Y-52.995
X201.62Y-34.275
X201.62Y-47.355
X202.0Y-63.205
X202.01Y-64.325
X202.04Y-65.395
X202.05Y-66.515
X202.98Y-49.695
X202.99Y-50.815
X203.02Y-51.885
X203.03Y-53.005
X210.99Y-51.515
X212.35Y-38.335
X212.36Y-39.455
X213.94Y-38.345
X213.95Y-39.465
X214.15Y-57.175
X214.15Y-57.175
X215.86Y-57.175
X216.69Y-51.515
X224.35Y-45.855
X224.35Y-47.195
X224.4Y-40.745
X224.4Y-43.285
X224.43Y-41.515
X224.43Y-44.055
X224.44Y-37.795
X224.47Y-38.565
X225.16Y-56.355
X225.55Y-52.785
X227.32Y-58.495
X227.37Y-51.135
X228.75Y-49.085
X228.75Y-49.085
X228.84Y-58.545
X228.84Y-58.545
X229.09Y-51.865
X229.9Y-68.465
X229.91Y-69.585
X229.94Y-70.655
X229.95Y-71.775
X230.98Y-50.165
X231.49Y-68.475
X231.5Y-69.595
X231.53Y-70.665
X231.54Y-71.785
X233.11Y-47.455
X233.11Y-47.455
X236.67Y-48.985
X237.11Y-50.105
X237.81Y-47.485
X238.01Y-39.905
X238.02Y-41.025
X238.05Y-42.095
X238.06Y-43.215
X239.6Y-39.915
X239.61Y-41.035
X239.64Y-42.105
X239.65Y-43.225
X250.49Y-45.125
X250.5Y-46.245
X250.53Y-47.315
X250.54Y-48.435
X250.56Y-66.425
X250.57Y-67.545
X250.6Y-68.615
X250.61Y-69.735
X252.08Y-45.135
X252.09Y-46.255
X252.12Y-47.325
X252.13Y-48.445
X252.15Y-66.435
X252.16Y-67.555
X252.19Y-68.625
X252.2Y-69.745
T2
X164.798Y-48.815
X165.098Y-36.985
X165.469Y-50.415
X165.769Y-38.585
X167.969Y-50.415
X168.269Y-38.585
X168.64Y-52.015
X168.94Y-40.185
X185.09Y-35.205
X218.575Y-41.22
X218.575Y-43.78
X218.6Y-36.145
X218.6Y-38.705
X218.625Y-46.32
X218.625Y-48.88
X218.625Y-51.515
X218.625Y-61.63
X218.625Y-64.19
X218.65Y-59.115
X218.65Y-69.155
X218.65Y-71.715
X218.675Y-54.055
X218.675Y-56.615
X218.675Y-66.73
X243.6Y-36.145
X243.6Y-51.39
X243.6Y-61.505
X243.625Y-48.88
X243.65Y-53.93
X243.65Y-69.155
X243.65Y-71.715
T3
X167.44Y-68.735
X172.52Y-68.735
X181.41Y-68.695
X186.49Y-68.695
X191.57Y-68.695
X196.65Y-68.695
X205.665Y-68.635
X210.745Y-68.635
M30
