%TF.GenerationSoftware,KiCad,Pcbnew,9.0.7*%
%TF.CreationDate,2026-07-31T17:35:36+05:30*%
%TF.ProjectId,WPC,5750432e-6b69-4636-9164-5f7063625858,rev?*%
%TF.SameCoordinates,Original*%
%TF.FileFunction,Paste,Bot*%
%TF.FilePolarity,Positive*%
%FSLAX46Y46*%
G04 Gerber Fmt 4.6, Leading zero omitted, Abs format (unit mm)*
G04 Created by KiCad (PCBNEW 9.0.7) date 2026-07-31 17:35:36*
%MOMM*%
%LPD*%
G01*
G04 APERTURE LIST*
G04 Aperture macros list*
%AMRoundRect*
0 Rectangle with rounded corners*
0 $1 Rounding radius*
0 $2 $3 $4 $5 $6 $7 $8 $9 X,Y pos of 4 corners*
0 Add a 4 corners polygon primitive as box body*
4,1,4,$2,$3,$4,$5,$6,$7,$8,$9,$2,$3,0*
0 Add four circle primitives for the rounded corners*
1,1,$1+$1,$2,$3*
1,1,$1+$1,$4,$5*
1,1,$1+$1,$6,$7*
1,1,$1+$1,$8,$9*
0 Add four rect primitives between the rounded corners*
20,1,$1+$1,$2,$3,$4,$5,0*
20,1,$1+$1,$4,$5,$6,$7,0*
20,1,$1+$1,$6,$7,$8,$9,0*
20,1,$1+$1,$8,$9,$2,$3,0*%
G04 Aperture macros list end*
%ADD10RoundRect,0.250000X0.262500X0.450000X-0.262500X0.450000X-0.262500X-0.450000X0.262500X-0.450000X0*%
%ADD11RoundRect,0.250000X-0.450000X0.262500X-0.450000X-0.262500X0.450000X-0.262500X0.450000X0.262500X0*%
%ADD12RoundRect,0.250000X0.450000X-0.262500X0.450000X0.262500X-0.450000X0.262500X-0.450000X-0.262500X0*%
%ADD13RoundRect,0.250000X-0.250000X-0.475000X0.250000X-0.475000X0.250000X0.475000X-0.250000X0.475000X0*%
%ADD14RoundRect,0.050000X-0.100000X-0.250000X0.100000X-0.250000X0.100000X0.250000X-0.100000X0.250000X0*%
%ADD15RoundRect,0.150000X0.150000X-0.512500X0.150000X0.512500X-0.150000X0.512500X-0.150000X-0.512500X0*%
%ADD16RoundRect,0.250000X0.475000X-0.250000X0.475000X0.250000X-0.475000X0.250000X-0.475000X-0.250000X0*%
%ADD17R,1.500000X2.000000*%
%ADD18RoundRect,0.225000X0.250000X-0.225000X0.250000X0.225000X-0.250000X0.225000X-0.250000X-0.225000X0*%
%ADD19RoundRect,0.250000X-0.475000X0.250000X-0.475000X-0.250000X0.475000X-0.250000X0.475000X0.250000X0*%
%ADD20RoundRect,0.375000X0.375000X-0.625000X0.375000X0.625000X-0.375000X0.625000X-0.375000X-0.625000X0*%
%ADD21RoundRect,0.500000X1.400000X-0.500000X1.400000X0.500000X-1.400000X0.500000X-1.400000X-0.500000X0*%
%ADD22RoundRect,0.250000X-0.262500X-0.450000X0.262500X-0.450000X0.262500X0.450000X-0.262500X0.450000X0*%
%ADD23RoundRect,0.225000X-0.250000X0.225000X-0.250000X-0.225000X0.250000X-0.225000X0.250000X0.225000X0*%
G04 APERTURE END LIST*
D10*
%TO.C,R10*%
X227432500Y-41195000D03*
X225607500Y-41195000D03*
%TD*%
%TO.C,R7*%
X227452500Y-38795000D03*
X225627500Y-38795000D03*
%TD*%
D11*
%TO.C,R4*%
X191880000Y-60162500D03*
X191880000Y-61987500D03*
%TD*%
D12*
%TO.C,R1*%
X203420000Y-34407500D03*
X203420000Y-32582500D03*
%TD*%
D13*
%TO.C,C3*%
X221090000Y-38715000D03*
X222990000Y-38715000D03*
%TD*%
D14*
%TO.C,D8*%
X210770000Y-64345000D03*
X211470000Y-64345000D03*
%TD*%
D11*
%TO.C,R9*%
X186860000Y-60202500D03*
X186860000Y-62027500D03*
%TD*%
D10*
%TO.C,R5*%
X227402500Y-43765000D03*
X225577500Y-43765000D03*
%TD*%
D15*
%TO.C,U8*%
X175542500Y-40172500D03*
X174592500Y-40172500D03*
X173642500Y-40172500D03*
X173642500Y-37897500D03*
X175542500Y-37897500D03*
%TD*%
D16*
%TO.C,C13*%
X175680000Y-35065000D03*
X175680000Y-33165000D03*
%TD*%
D17*
%TO.C,U7*%
X187090000Y-35205000D03*
X189090000Y-35205000D03*
X191090000Y-35205000D03*
X195090000Y-35205000D03*
X199090000Y-51205000D03*
X197090000Y-51205000D03*
X193090000Y-51205000D03*
X191090000Y-51205000D03*
X189090000Y-51205000D03*
X187090000Y-51205000D03*
X185090000Y-51205000D03*
%TD*%
D13*
%TO.C,C1*%
X221130000Y-43735000D03*
X223030000Y-43735000D03*
%TD*%
D11*
%TO.C,R11*%
X211120000Y-60172500D03*
X211120000Y-61997500D03*
%TD*%
D13*
%TO.C,C8*%
X221110000Y-46355000D03*
X223010000Y-46355000D03*
%TD*%
D12*
%TO.C,R23*%
X180220003Y-45407500D03*
X180220003Y-43582500D03*
%TD*%
D11*
%TO.C,R3*%
X196860000Y-60202500D03*
X196860000Y-62027500D03*
%TD*%
D10*
%TO.C,R12*%
X227242500Y-46395000D03*
X225417500Y-46395000D03*
%TD*%
D18*
%TO.C,C12*%
X177550000Y-34930000D03*
X177550000Y-33380000D03*
%TD*%
D12*
%TO.C,R2*%
X203420000Y-47497500D03*
X203420000Y-45672500D03*
%TD*%
D13*
%TO.C,C6*%
X169040000Y-73535000D03*
X170940000Y-73535000D03*
%TD*%
D14*
%TO.C,D5*%
X186512500Y-64295000D03*
X187212500Y-64295000D03*
%TD*%
D19*
%TO.C,C7*%
X175600000Y-43365000D03*
X175600000Y-45265000D03*
%TD*%
D14*
%TO.C,D4*%
X196640000Y-64295000D03*
X197340000Y-64295000D03*
%TD*%
%TO.C,D6*%
X191570000Y-64365000D03*
X192270000Y-64365000D03*
%TD*%
D12*
%TO.C,R6*%
X180030000Y-55655000D03*
X180030000Y-53830000D03*
%TD*%
D20*
%TO.C,U13*%
X176892500Y-57835000D03*
X174592500Y-57835000D03*
D21*
X174592500Y-51535000D03*
D20*
X172292500Y-57835000D03*
%TD*%
D12*
%TO.C,R8*%
X203210000Y-60717500D03*
X203210000Y-58892500D03*
%TD*%
D22*
%TO.C,R13*%
X238407500Y-54025000D03*
X240232500Y-54025000D03*
%TD*%
D23*
%TO.C,C10*%
X177560000Y-43540000D03*
X177560000Y-45090000D03*
%TD*%
D13*
%TO.C,C2*%
X221070000Y-41255000D03*
X222970000Y-41255000D03*
%TD*%
M02*
